<?xml version="1.0" encoding="UTF-8"?>
<!--Generator: Apple Native CoreSVG 326-->
<!DOCTYPE svg
PUBLIC "-//W3C//DTD SVG 1.1//EN"
       "http://www.w3.org/Graphics/SVG/1.1/DTD/svg11.dtd">
<svg version="1.1" xmlns="http://www.w3.org/2000/svg" xmlns:xlink="http://www.w3.org/1999/xlink" viewBox="0 0 836.75 522.75">
 <g>
  <rect height="522.75" opacity="0" width="836.75" x="0" y="0"/>
  <path d="M605.75 102.5L605.75 419.75C605.75 485.25 567.5 522.5 501.75 522.5L152 522.5C86.25 522.5 48 485.25 48 419.75L48 102.5C48 37.25 88.5 0 152 0L504.25 0C570 0 605.75 37.25 605.75 102.5ZM836.75 93.75L836.75 428.5C836.75 454.25 821.25 471.25 797.75 471.25C785.75 471.25 773.75 465.25 762.5 455.75L645.5 356.25L645.5 165.75L762.5 66.75C773.75 57.25 785.75 51.25 797.75 51.25C821.25 51.25 836.75 68.25 836.75 93.75ZM249.25 130.75C237.75 130.75 228.5 140.25 228.5 152C228.5 163.5 238 171.5 249.25 171.5L305.25 171.5L399.25 166.5L343.5 217.75L201 360.75C196.25 365.5 194 370.5 194 376.75C194 388.25 203 396.5 215.25 396.5C221.75 396.5 226 394.5 230.25 390.25L373 247L424.25 192.25L419.25 285.75L419.25 340.5C419.25 351.5 427.5 360.75 438.75 360.75C450.75 360.75 460 352 460 340.5L460 153.25C460 138.25 452.75 130.75 437.5 130.75Z" fill="black" fill-opacity="0.85"/>
 </g>
</svg>
