<?xml version="1.0" encoding="UTF-8"?>
<!--Generator: Apple Native CoreSVG 326-->
<!DOCTYPE svg
PUBLIC "-//W3C//DTD SVG 1.1//EN"
       "http://www.w3.org/Graphics/SVG/1.1/DTD/svg11.dtd">
<svg version="1.1" xmlns="http://www.w3.org/2000/svg" xmlns:xlink="http://www.w3.org/1999/xlink" viewBox="0 0 724.25 665.25">
 <g>
  <rect height="665.25" opacity="0" width="724.25" x="0" y="0"/>
  <path d="M137.75 665C179.25 665 263.5 625.25 328 581C547.25 591.5 724.25 464.5 724.25 291.25C724.25 130.25 563.5 0 362.25 0C160.75 0 0 130.25 0 291.25C0 396.5 67.5 489.75 169.5 537.5C155 565.5 129 600.5 114.75 618.75C98.25 640 107.25 665 137.75 665ZM165.25 619.25C162.75 620 161.75 618.5 163.5 616.25C180.75 595.25 206.75 562.5 218.25 539.75C226 525.5 223.75 512.75 206.5 504.75C105.25 457.75 45.5 380.25 45.5 291.25C45.5 155.5 186 45.5 362.25 45.5C538.25 45.5 678.75 155.5 678.75 291.25C678.75 426.75 538.25 537 362.25 537C353.25 537 341.75 536.5 327.75 535.75C316 535.75 306.5 539.25 296 547.25C252.5 576.5 194 610 165.25 619.25Z" fill="black" fill-opacity="0.85"/>
  <path d="M362.5 132.25C356.75 132.25 352 134.25 346.5 139.5L239.25 243.75C235.25 247.75 232.75 252.25 232.75 258.25C232.75 269.25 241.25 277.5 252.75 277.5C258 277.5 264 275.25 268 271L321 215.25L342.25 193.25L340.5 240.75L340.5 433.75C340.5 445.5 350.5 455.25 362.5 455.25C374.25 455.25 384.25 445.5 384.25 433.75L384.25 240.75L382.5 193.5L403.5 215.25L456.75 271C460.5 275.25 466.25 277.5 471.75 277.5C483 277.5 491.75 269.25 491.75 258.25C491.75 252.25 489.5 247.75 485.25 243.75L378.25 139.5C372.75 134.25 368 132.25 362.5 132.25Z" fill="black" fill-opacity="0.85"/>
 </g>
</svg>
