<?xml version="1.0" encoding="UTF-8"?>
<!--Generator: Apple Native CoreSVG 326-->
<!DOCTYPE svg
PUBLIC "-//W3C//DTD SVG 1.1//EN"
       "http://www.w3.org/Graphics/SVG/1.1/DTD/svg11.dtd">
<svg version="1.1" xmlns="http://www.w3.org/2000/svg" xmlns:xlink="http://www.w3.org/1999/xlink" viewBox="0 0 995.189 974.779">
 <g>
  <rect height="974.779" opacity="0" width="995.189" x="0" y="0"/>
  <path d="M660.595 223.014L286.595 223.014C222.095 223.014 189.845 257.514 189.845 320.014L189.845 574.264C189.845 636.764 222.095 671.264 286.595 671.264L325.595 671.264C340.845 671.264 346.595 677.014 346.595 692.264L346.595 786.264L451.595 685.014C462.845 673.764 471.095 671.264 486.845 671.264L708.345 671.264C772.345 671.264 805.345 636.764 805.345 574.264L805.345 320.014C805.345 313.65 805.002 307.577 804.231 301.878L841.635 264.474C846.943 280.741 849.595 299.263 849.595 319.764L849.595 574.764C849.595 663.764 799.345 715.514 708.595 715.514L487.595 715.514L374.845 814.764C358.595 829.264 349.095 836.514 335.345 836.514C316.345 836.514 305.095 822.764 305.095 801.514L305.095 715.514L286.345 715.514C195.845 715.514 145.345 664.264 145.345 574.764L145.345 319.764C145.345 230.264 195.845 178.764 286.345 178.764L704.845 178.764Z" fill="black" fill-opacity="0.85"/>
  <path d="M547.595 455.264L610.595 425.764L890.845 146.014L849.095 104.514L569.095 384.264L538.345 445.514C535.845 451.014 541.845 457.764 547.595 455.264ZM913.595 123.014L936.845 99.5143C948.345 88.0143 948.595 73.5143 937.595 62.5143L931.095 56.2643C921.345 46.2643 906.095 47.2643 895.595 58.0143L872.095 81.0143Z" fill="black" fill-opacity="0.85"/>
 </g>
</svg>
