<?xml version="1.0" encoding="UTF-8"?>
<!--Generator: Apple Native CoreSVG 326-->
<!DOCTYPE svg
PUBLIC "-//W3C//DTD SVG 1.1//EN"
       "http://www.w3.org/Graphics/SVG/1.1/DTD/svg11.dtd">
<svg version="1.1" xmlns="http://www.w3.org/2000/svg" xmlns:xlink="http://www.w3.org/1999/xlink" viewBox="0 0 704.25 703.25">
 <g>
  <rect height="703.25" opacity="0" width="704.25" x="0" y="0"/>
  <path d="M351.5 703.25C364.25 703.25 376 697.75 387 679L447.5 579.75L563.25 579.75C653.75 579.75 704.25 528 704.25 439L704.25 184C704.25 94.75 653.75 43 563.25 43L141 43C50.25 43 0 94.5 0 184L0 439C0 528.5 50.25 579.75 141 579.75L255.5 579.75L316 679C327.25 697.75 338.75 703.25 351.5 703.25ZM351.5 658.25L295 557.25C286 540 279.5 535.5 260 535.5L141.25 535.5C76.75 535.5 44.25 501 44.25 438.5L44.25 184.25C44.25 121.75 76.75 87.25 141.25 87.25L563 87.25C626.75 87.25 660 121.75 660 184.25L660 438.5C660 501 626.75 535.5 563 535.5L443 535.5C423.5 535.5 417 540 408 557.25Z" fill="black" fill-opacity="0.85"/>
 </g>
</svg>
