<?xml version="1.0" encoding="UTF-8"?>
<!--Generator: Apple Native CoreSVG 326-->
<!DOCTYPE svg
PUBLIC "-//W3C//DTD SVG 1.1//EN"
       "http://www.w3.org/Graphics/SVG/1.1/DTD/svg11.dtd">
<svg version="1.1" xmlns="http://www.w3.org/2000/svg" xmlns:xlink="http://www.w3.org/1999/xlink" viewBox="0 0 704.25 698.25">
 <g>
  <rect height="698.25" opacity="0" width="704.25" x="0" y="0"/>
  <path d="M514.25 698.25C533.25 698.25 544.5 684.5 544.5 663.25L544.5 577.25L563.25 577.25C653.75 577.25 704.25 526 704.25 436.5L704.25 181.5C704.25 92 653.75 40.5 563.25 40.5L141 40.5C50.25 40.5 0 92.25 0 181.5L0 436.5C0 525.5 50.25 577.25 141 577.25L362 577.25L474.75 676.5C491 691 500.5 698.25 514.25 698.25ZM503 648L398 546.75C386.75 535.5 378.75 533 362.75 533L141.25 533C77.25 533 44.25 498.5 44.25 436L44.25 181.75C44.25 119.25 77.25 84.75 141.25 84.75L563 84.75C627.5 84.75 660 119.25 660 181.75L660 436C660 498.5 627.5 533 563 533L524 533C508.75 533 503 538.75 503 554Z" fill="black" fill-opacity="0.85"/>
 </g>
</svg>
