<?xml version="1.0" encoding="UTF-8"?>
<!--Generator: Apple Native CoreSVG 326-->
<!DOCTYPE svg
PUBLIC "-//W3C//DTD SVG 1.1//EN"
       "http://www.w3.org/Graphics/SVG/1.1/DTD/svg11.dtd">
<svg version="1.1" xmlns="http://www.w3.org/2000/svg" xmlns:xlink="http://www.w3.org/1999/xlink" viewBox="0 0 651.25 651.75">
 <g>
  <rect height="651.75" opacity="0" width="651.25" x="0" y="0"/>
  <path d="M325.5 651.25C505.25 651.25 651.25 505.5 651.25 325.75C651.25 146 505.25 0 325.5 0C145.75 0 0 146 0 325.75C0 505.5 145.75 651.25 325.5 651.25ZM325.5 604.75C171.25 604.75 46.5 480 46.5 325.75C46.5 171.5 171.25 46.75 325.5 46.75C479.75 46.75 604.5 171.5 604.5 325.75C604.5 480 479.75 604.75 325.5 604.75Z" fill="black" fill-opacity="0.85"/>
  <path d="M409.75 511.75C417.5 511.75 422.25 506.25 422.25 497.75L422.25 450.75L431.75 450.75C476.5 450.75 502 425 502 380.25L502 252.25C502 207.75 476.5 182 431.75 182L219.25 182C174.5 182 149 208 149 252.25L149 380.25C149 425 174.5 450.75 219.25 450.75L335.25 450.75L394 503.25C400.25 509.25 404 511.75 409.75 511.75Z" fill="black" fill-opacity="0.85"/>
 </g>
</svg>
