<?xml version="1.0" encoding="UTF-8"?>
<!--Generator: Apple Native CoreSVG 326-->
<!DOCTYPE svg
PUBLIC "-//W3C//DTD SVG 1.1//EN"
       "http://www.w3.org/Graphics/SVG/1.1/DTD/svg11.dtd">
<svg version="1.1" xmlns="http://www.w3.org/2000/svg" xmlns:xlink="http://www.w3.org/1999/xlink" viewBox="0 0 651.25 651.75">
 <g>
  <rect height="651.75" opacity="0" width="651.25" x="0" y="0"/>
  <path d="M651.25 326C651.25 505.5 505 651.75 325.5 651.75C146.25 651.75 0 505.5 0 326C0 146.75 146.25 0.5 325.5 0.5C505 0.5 651.25 146.75 651.25 326ZM216.75 178.5C171 178.5 144.75 205 144.75 250.25L144.75 381.25C144.75 427 171 453.75 216.75 453.75L335.25 453.75L395.25 507.5C401.75 513.75 405.75 516.25 411.5 516.25C419.5 516.25 424.5 510.5 424.5 501.5L424.5 453.75L434.25 453.75C480.25 453.75 506.25 427.25 506.25 381.25L506.25 250.25C506.25 205 480.25 178.5 434.25 178.5Z" fill="black" fill-opacity="0.85"/>
 </g>
</svg>
