<?xml version="1.0" encoding="UTF-8"?>
<!--Generator: Apple Native CoreSVG 326-->
<!DOCTYPE svg
PUBLIC "-//W3C//DTD SVG 1.1//EN"
       "http://www.w3.org/Graphics/SVG/1.1/DTD/svg11.dtd">
<svg version="1.1" xmlns="http://www.w3.org/2000/svg" xmlns:xlink="http://www.w3.org/1999/xlink" viewBox="0 0 980.5 800.75">
 <g>
  <rect height="800.75" opacity="0" width="980.5" x="0" y="0"/>
  <path d="M743.39 165.25L503 165.25C395.25 165.25 333 229.25 333 335L333 520C333 552.722 338.96 581.398 350.415 605.373L269.25 677C253 691.25 243.5 698.5 229.75 698.5C210.75 698.5 199.5 685 199.5 663.5L199.5 577.5L180.75 577.5C90.25 577.5 39.75 526.25 39.75 436.75L39.75 181.75C39.75 92.25 90.25 40.75 180.75 40.75L603 40.75C688.001 40.75 737.471 86.1513 743.39 165.25Z" fill="black" fill-opacity="0.85"/>
  <path d="M503 649.25L625.75 649.25L731.25 739.5C747.25 753.5 756.75 760.75 769.75 760.75C788.75 760.75 799.5 747.25 799.5 726.5L799.5 649.25L810.75 649.25C895.75 649.25 940.75 603.5 940.75 519.5L940.75 335C940.75 251 895.75 205 810.75 205L503 205C417.75 205 372.75 251 372.75 335L372.75 520C372.75 603.75 417.75 649.25 503 649.25Z" fill="black" fill-opacity="0.85"/>
 </g>
</svg>
