<?xml version="1.0" encoding="UTF-8"?>
<!--Generator: Apple Native CoreSVG 326-->
<!DOCTYPE svg
PUBLIC "-//W3C//DTD SVG 1.1//EN"
       "http://www.w3.org/Graphics/SVG/1.1/DTD/svg11.dtd">
<svg version="1.1" xmlns="http://www.w3.org/2000/svg" xmlns:xlink="http://www.w3.org/1999/xlink" viewBox="0 0 704.25 701.25">
 <g>
  <rect height="701.25" opacity="0" width="704.25" x="0" y="0"/>
  <path d="M704.25 183L704.25 438C704.25 527 653.75 578.5 563.25 578.5L333.5 578.5L216.75 683.75C204 695.5 195.75 701.25 184.75 701.25C168.75 701.25 159.5 689.75 159.5 672.25L159.5 578.5L141 578.5C50.25 578.5 0 527.5 0 438L0 183C0 93.5 50.25 42 141 42L563.25 42C653.75 42 704.25 93.75 704.25 183ZM136.75 396.25C127.25 396.25 119.75 403.75 119.75 413.5C119.75 422.75 127.25 430.25 136.75 430.25L193.75 430.25C203 430.25 210.5 422.75 210.5 413.5C210.5 403.75 203 396.25 193.75 396.25ZM264.25 396.25C255 396.25 247.5 403.75 247.5 413.5C247.5 422.75 255 430.25 264.25 430.25L433.5 430.25C442.75 430.25 450.25 422.75 450.25 413.5C450.25 403.75 442.75 396.25 433.5 396.25ZM504 396.25C494.75 396.25 487.25 403.75 487.25 413.5C487.25 422.75 494.75 430.25 504 430.25L568 430.25C577.25 430.25 584.75 422.75 584.75 413.5C584.75 403.75 577.25 396.25 568 396.25ZM136.75 313C127.25 313 119.75 320.75 119.75 329.75C119.75 339.25 127.25 346.75 136.75 346.75L277.5 346.75C286.75 346.75 294.25 339.25 294.25 329.75C294.25 320.75 286.75 313 277.5 313ZM348 313C338.75 313 331.25 320.75 331.25 329.75C331.25 339.25 338.75 346.75 348 346.75L568 346.75C577.25 346.75 584.75 339.25 584.75 329.75C584.75 320.75 577.25 313 568 313Z" fill="black" fill-opacity="0.85"/>
 </g>
</svg>
