<?xml version="1.0" encoding="UTF-8"?>
<!--Generator: Apple Native CoreSVG 326-->
<!DOCTYPE svg
PUBLIC "-//W3C//DTD SVG 1.1//EN"
       "http://www.w3.org/Graphics/SVG/1.1/DTD/svg11.dtd">
<svg version="1.1" xmlns="http://www.w3.org/2000/svg" xmlns:xlink="http://www.w3.org/1999/xlink" viewBox="0 0 704.25 701.25">
 <g>
  <rect height="701.25" opacity="0" width="704.25" x="0" y="0"/>
  <path d="M704.25 183L704.25 438C704.25 527 653.75 578.5 563.25 578.5L333.5 578.5L216.75 683.75C204 695.5 195.75 701.25 184.75 701.25C168.75 701.25 159.5 689.75 159.5 672.25L159.5 578.5L141 578.5C50.25 578.5 0 527.5 0 438L0 183C0 93.5 50.25 42 141 42L563.25 42C653.75 42 704.25 93.75 704.25 183ZM320.25 174.75L225.25 429.25C223 435.5 222.25 439.5 222.25 443.75C222.25 455.5 230.5 463.5 243.75 463.5C254 463.5 261.25 458.75 265.75 445.25L291.75 371L412.25 371L438.25 445.25C443 458.75 450 463.5 460.75 463.5C473.25 463.5 481.75 455.5 481.75 444C481.75 439.5 481.25 435.5 478.75 429.25L383.75 174.75C378 159.75 367.25 152.25 351.75 152.25C336.5 152.25 326 159.75 320.25 174.75ZM400.5 336L303.5 336L350.5 202.75L353.5 202.75Z" fill="black" fill-opacity="0.85"/>
 </g>
</svg>
