<?xml version="1.0" encoding="UTF-8"?>
<!--Generator: Apple Native CoreSVG 326-->
<!DOCTYPE svg
PUBLIC "-//W3C//DTD SVG 1.1//EN"
       "http://www.w3.org/Graphics/SVG/1.1/DTD/svg11.dtd">
<svg version="1.1" xmlns="http://www.w3.org/2000/svg" xmlns:xlink="http://www.w3.org/1999/xlink" viewBox="0 0 643.75 775.75">
 <g>
  <rect height="775.75" opacity="0" width="643.75" x="0" y="0"/>
  <path d="M23.5 771.5L620 771.5C633.5 771.5 643.75 761 643.75 747.75C643.75 734.5 633.25 724 620 724L23.5 724C10.25 724 0 734.5 0 747.75C0 761 10.25 771.5 23.5 771.5Z" fill="black" fill-opacity="0.85"/>
  <path d="M209.75 373.5L434.25 373.5C480.25 373.5 507 348 507 302L507 73.75C507 28.75 480.25 0 434.25 0L209.5 0C163.75 0 136.75 27 136.75 73.75L136.75 300.25C136.75 346.5 163.75 373.5 209.75 373.5ZM199.75 544.75L444 544.75C461.75 544.75 473.75 533.5 473.75 516.75C473.75 508.5 470 499.25 463.5 491.5L392.75 408.5L250.75 408.5L181.25 491.5C174.25 499.5 170 508.5 170 516.75C170 533.5 181.75 544.75 199.75 544.75Z" fill="black" fill-opacity="0.85"/>
 </g>
</svg>
