<?xml version="1.0" encoding="UTF-8"?>
<!--Generator: Apple Native CoreSVG 326-->
<!DOCTYPE svg
PUBLIC "-//W3C//DTD SVG 1.1//EN"
       "http://www.w3.org/Graphics/SVG/1.1/DTD/svg11.dtd">
<svg version="1.1" xmlns="http://www.w3.org/2000/svg" xmlns:xlink="http://www.w3.org/1999/xlink" viewBox="0 0 643.75 775.75">
 <g>
  <rect height="775.75" opacity="0" width="643.75" x="0" y="0"/>
  <path d="M23.5 771.5L620 771.5C633.5 771.5 643.75 761 643.75 747.75C643.75 734.5 633.25 724 620 724L23.5 724C10.25 724 0 734.5 0 747.75C0 761 10.25 771.5 23.5 771.5Z" fill="black" fill-opacity="0.85"/>
  <path d="M226.75 398L416.5 398C474 398 507.5 363.5 507.5 306L507.5 91.75C507.5 37 474.5 0 416.5 0L226.75 0C170 0 136 34.75 136 91.75L136 306C136 363.5 170 398 226.75 398ZM231.5 353.5C194 353.5 178 336.25 178 300.75L178 97.75C178 61.5 194 44.25 231.5 44.25L411.75 44.25C449.5 44.25 465.5 61.5 465.5 97.75L465.5 300.75C465.5 336.25 449.5 353.5 411.75 353.5ZM204.75 544.75L438.75 544.75C462.25 544.75 478.5 529.25 478.5 507C478.5 497 473 485.25 464.75 475.5L392.75 389.5L339.25 389.5L422.25 490.75C426.25 496 423.5 500.5 418 500.5L225.5 500.5C220 500.5 217.25 496 221.25 490.75L304.25 389.5L250.5 389.5L178.75 475.5C170.5 485.5 165 497.25 165 507C165 529.25 181.25 544.75 204.75 544.75Z" fill="black" fill-opacity="0.85"/>
 </g>
</svg>
