<?xml version="1.0" encoding="UTF-8"?>
<!--Generator: Apple Native CoreSVG 326-->
<!DOCTYPE svg
PUBLIC "-//W3C//DTD SVG 1.1//EN"
       "http://www.w3.org/Graphics/SVG/1.1/DTD/svg11.dtd">
<svg version="1.1" xmlns="http://www.w3.org/2000/svg" xmlns:xlink="http://www.w3.org/1999/xlink" viewBox="0 0 704.25 701.25">
 <g>
  <rect height="701.25" opacity="0" width="704.25" x="0" y="0"/>
  <path d="M704.25 183L704.25 438C704.25 527 653.75 578.5 563.25 578.5L333.5 578.5L216.75 683.75C204 695.5 195.75 701.25 184.75 701.25C168.75 701.25 159.5 689.75 159.5 672.25L159.5 578.5L141 578.5C50.25 578.5 0 527.5 0 438L0 183C0 93.5 50.25 42 141 42L563.25 42C653.75 42 704.25 93.75 704.25 183ZM309 447.5C309 471.25 328.25 490.75 352.5 490.75C376.5 490.75 395.75 471.25 395.75 447.5C395.75 423.5 376.5 404.25 352.5 404.25C328.25 404.25 309 423.5 309 447.5ZM309 310.5C309 334.5 328.25 353.75 352.5 353.75C376.5 353.75 395.75 334.5 395.75 310.5C395.75 286.25 376.5 267 352.5 267C328.25 267 309 286.25 309 310.5ZM309 173.25C309 197.25 328.25 216.5 352.5 216.5C376.5 216.5 395.75 197.25 395.75 173.25C395.75 149.5 376.5 130 352.5 130C328.25 130 309 149.5 309 173.25Z" fill="black" fill-opacity="0.85"/>
 </g>
</svg>
