<?xml version="1.0" encoding="UTF-8"?>
<!--Generator: Apple Native CoreSVG 326-->
<!DOCTYPE svg
PUBLIC "-//W3C//DTD SVG 1.1//EN"
       "http://www.w3.org/Graphics/SVG/1.1/DTD/svg11.dtd">
<svg version="1.1" xmlns="http://www.w3.org/2000/svg" xmlns:xlink="http://www.w3.org/1999/xlink" viewBox="0 0 704.25 701.25">
 <g>
  <rect height="701.25" opacity="0" width="704.25" x="0" y="0"/>
  <path d="M704.25 183L704.25 438C704.25 527 653.75 578.5 563.25 578.5L333.5 578.5L216.75 683.75C204 695.5 195.75 701.25 184.75 701.25C168.75 701.25 159.5 689.75 159.5 672.25L159.5 578.5L141 578.5C50.25 578.5 0 527.5 0 438L0 183C0 93.5 50.25 42 141 42L563.25 42C653.75 42 704.25 93.75 704.25 183ZM464.5 310C464.5 335 484.5 355 509.5 355C534.25 355 554.25 335 554.25 310C554.25 285.25 534.25 265.25 509.5 265.25C484.5 265.25 464.5 285.25 464.5 310ZM307.25 310C307.25 335 327.25 355 352.25 355C377 355 397 335 397 310C397 285.25 377 265.25 352.25 265.25C327.25 265.25 307.25 285.25 307.25 310ZM150 310C150 335 170.25 355 195.25 355C220 355 240 335 240 310C240 285.25 220 265.25 195.25 265.25C170.25 265.25 150 285.25 150 310Z" fill="black" fill-opacity="0.85"/>
 </g>
</svg>
