<?xml version="1.0" encoding="UTF-8"?>
<!--Generator: Apple Native CoreSVG 326-->
<!DOCTYPE svg
PUBLIC "-//W3C//DTD SVG 1.1//EN"
       "http://www.w3.org/Graphics/SVG/1.1/DTD/svg11.dtd">
<svg version="1.1" xmlns="http://www.w3.org/2000/svg" xmlns:xlink="http://www.w3.org/1999/xlink" viewBox="0 0 724.25 662.75">
 <g>
  <rect height="662.75" opacity="0" width="724.25" x="0" y="0"/>
  <path d="M724.25 291.25C724.25 451.25 570 582.5 345.75 582.5C338.75 582.5 332 582 325 581.25C320.5 581.25 316 582.5 310.5 586.5C254.5 624 165.5 662.5 128.25 662.5C104.25 662.5 98.25 643.5 110.75 627.5C123.25 611.75 152.25 578.75 168.75 551C171.5 545.75 170 541 164.75 538.25C63.25 484.75 0 394 0 291.25C0 130.25 160.75 0 362.25 0C563.5 0 724.25 130.25 724.25 291.25ZM469.5 293.5C469.5 318.75 490 339.25 515.25 339.25C540.5 339.25 561.25 318.75 561.25 293.5C561.25 268 540.5 247.5 515.25 247.5C490 247.5 469.5 268 469.5 293.5ZM316.25 293.5C316.25 318.75 336.75 339.25 362.25 339.25C387.5 339.25 408 318.75 408 293.5C408 268 387.5 247.5 362.25 247.5C336.75 247.5 316.25 268 316.25 293.5ZM163 293.5C163 318.75 183.75 339.25 209 339.25C234.25 339.25 254.75 318.75 254.75 293.5C254.75 268 234 247.5 209 247.5C183.75 247.5 163 268 163 293.5Z" fill="black" fill-opacity="0.85"/>
 </g>
</svg>
