<?xml version="1.0" encoding="UTF-8"?>
<!--Generator: Apple Native CoreSVG 326-->
<!DOCTYPE svg
PUBLIC "-//W3C//DTD SVG 1.1//EN"
       "http://www.w3.org/Graphics/SVG/1.1/DTD/svg11.dtd">
<svg version="1.1" xmlns="http://www.w3.org/2000/svg" xmlns:xlink="http://www.w3.org/1999/xlink" viewBox="0 0 704.25 698.25">
 <g>
  <rect height="698.25" opacity="0" width="704.25" x="0" y="0"/>
  <path d="M190 698.25C203.75 698.25 213.25 691 229.5 676.5L342.25 577.25L563.25 577.25C653.75 577.25 704.25 525.5 704.25 436.5L704.25 181.5C704.25 92.25 653.75 40.5 563.25 40.5L141 40.5C50.25 40.5 0 92 0 181.5L0 436.5C0 526 50.25 577.25 141 577.25L159.75 577.25L159.75 663.25C159.75 684.5 170.75 698.25 190 698.25ZM201 648L201 554C201 538.75 195.25 533 180.25 533L141.25 533C76.75 533 44.25 498.5 44.25 436L44.25 181.75C44.25 119.25 76.75 84.75 141.25 84.75L563 84.75C626.75 84.75 660 119.25 660 181.75L660 436C660 498.5 626.75 533 563 533L341.25 533C325.5 533 317.25 535.5 306.25 546.75Z" fill="black" fill-opacity="0.85"/>
  <path d="M352.5 217C375.75 217 394.5 198.25 394.5 175C394.5 151.75 375.75 132.75 352.5 132.75C329 132.75 310.25 151.75 310.25 175C310.25 198.25 329 217 352.5 217Z" fill="black" fill-opacity="0.85"/>
  <path d="M352.5 351C375.75 351 394.5 332.25 394.5 309C394.5 285.5 375.75 266.75 352.5 266.75C329 266.75 310.25 285.5 310.25 309C310.25 332.25 329 351 352.5 351Z" fill="black" fill-opacity="0.85"/>
  <path d="M352.5 485C375.75 485 394.5 466 394.5 442.75C394.5 419.5 375.75 400.5 352.5 400.5C329 400.5 310.25 419.5 310.25 442.75C310.25 466 329 485 352.5 485Z" fill="black" fill-opacity="0.85"/>
 </g>
</svg>
