<?xml version="1.0" encoding="UTF-8"?>
<!--Generator: Apple Native CoreSVG 326-->
<!DOCTYPE svg
PUBLIC "-//W3C//DTD SVG 1.1//EN"
       "http://www.w3.org/Graphics/SVG/1.1/DTD/svg11.dtd">
<svg version="1.1" xmlns="http://www.w3.org/2000/svg" xmlns:xlink="http://www.w3.org/1999/xlink" viewBox="0 0 651.25 651.75">
 <g>
  <rect height="651.75" opacity="0" width="651.25" x="0" y="0"/>
  <path d="M325.5 651.25C505.25 651.25 651.25 505.5 651.25 325.75C651.25 146 505.25 0 325.5 0C145.75 0 0 146 0 325.75C0 505.5 145.75 651.25 325.5 651.25ZM325.5 604.75C171.25 604.75 46.5 480 46.5 325.75C46.5 171.5 171.25 46.75 325.5 46.75C479.75 46.75 604.5 171.5 604.5 325.75C604.5 480 479.75 604.75 325.5 604.75Z" fill="black" fill-opacity="0.85"/>
  <path d="M325.5 344C330.5 344 335.5 342.25 340.75 337.5L499.75 197C491.25 191.75 481.75 189.25 469 189.25L182 189.25C169.25 189.25 159.75 191.5 151.75 196.75L310.25 337.5C315.5 342.25 320.75 344 325.5 344ZM138.25 438L256.75 319.5L137.75 214.25C135.5 218 133.75 226.5 133.75 237L133.75 414.5C133.75 424.5 135.25 431.75 138.25 438ZM178.25 462.25L472.75 462.25C484.25 462.25 492.75 459.25 498.75 455.25L377.5 334.25L354.5 355C345 363.25 335.25 367 325.5 367C315.75 367 306 363.25 297 355L273.5 334.25L152.25 455.25C158.25 459.5 166.75 462.25 178.25 462.25ZM513 437.75C515.75 431.75 517.25 424.25 517.25 414.5L517.25 237C517.25 226.5 515.5 218.5 513.25 214.25L394.25 319.5Z" fill="black" fill-opacity="0.85"/>
 </g>
</svg>
