<?xml version="1.0" encoding="UTF-8"?>
<!--Generator: Apple Native CoreSVG 326-->
<!DOCTYPE svg
PUBLIC "-//W3C//DTD SVG 1.1//EN"
       "http://www.w3.org/Graphics/SVG/1.1/DTD/svg11.dtd">
<svg version="1.1" xmlns="http://www.w3.org/2000/svg" xmlns:xlink="http://www.w3.org/1999/xlink" viewBox="0 0 742.956 558.75">
 <g>
  <rect height="558.75" opacity="0" width="742.956" x="0" y="0"/>
  <path d="M18.7282 226.25L315.228 521.5C351.728 557.75 391.478 557.75 428.478 521.5L724.228 226.25C750.228 200.25 747.978 168 723.978 142.75C639.728 54.75 505.728 0 371.478 0C237.228 0 103.478 55 18.9782 142.75C-5.27181 167.75-7.27181 200.25 18.7282 226.25ZM51.4782 197.25C42.9782 188.75 43.2282 180 51.2282 172C127.478 93.25 248.478 44.25 370.478 44.25C492.228 44.25 612.228 94.25 689.478 172C697.478 180 697.728 188.5 689.228 197.25L397.478 488.25C379.228 506.25 361.478 506.25 343.228 488.25Z" fill="black" fill-opacity="0.85"/>
 </g>
</svg>
