<?xml version="1.0" encoding="UTF-8"?>
<!--Generator: Apple Native CoreSVG 326-->
<!DOCTYPE svg
PUBLIC "-//W3C//DTD SVG 1.1//EN"
       "http://www.w3.org/Graphics/SVG/1.1/DTD/svg11.dtd">
<svg version="1.1" xmlns="http://www.w3.org/2000/svg" xmlns:xlink="http://www.w3.org/1999/xlink" viewBox="0 0 949.746 560.25">
 <g>
  <rect height="560.25" opacity="0" width="949.746" x="0" y="0"/>
  <path d="M28.7478 320.75L408.248 526C436.748 541.25 453.998 549.5 474.748 549.5C495.748 549.5 512.998 541.25 541.498 526L920.748 320.75C950.248 305 958.998 270.25 938.748 241C834.498 94.25 661.748 0 474.748 0C287.998 0 115.248 94.25 10.9978 241C-9.25219 270.25-0.502187 305 28.7478 320.75ZM56.2478 285.75C45.9978 280 43.9978 270.75 51.9978 259.75C148.998 126.25 302.748 44.25 474.748 44.25C646.998 44.25 801.248 126.5 897.998 260.25C905.748 271 903.748 280 893.498 285.75L516.248 489.5C498.498 499 488.248 503.25 474.748 503.25C461.498 503.25 451.248 499 433.498 489.5Z" fill="black" fill-opacity="0.85"/>
 </g>
</svg>
