<?xml version="1.0" encoding="UTF-8"?>
<!--Generator: Apple Native CoreSVG 326-->
<!DOCTYPE svg
PUBLIC "-//W3C//DTD SVG 1.1//EN"
       "http://www.w3.org/Graphics/SVG/1.1/DTD/svg11.dtd">
<svg version="1.1" xmlns="http://www.w3.org/2000/svg" xmlns:xlink="http://www.w3.org/1999/xlink" viewBox="0 0 704.25 701.25">
 <g>
  <rect height="701.25" opacity="0" width="704.25" x="0" y="0"/>
  <path d="M704.25 183L704.25 438C704.25 527 653.75 578.5 563.25 578.5L333.5 578.5L216.75 683.75C204 695.5 195.75 701.25 184.75 701.25C168.75 701.25 159.5 689.75 159.5 672.25L159.5 578.5L141 578.5C50.25 578.5 0 527.5 0 438L0 183C0 93.5 50.25 42 141 42L563.25 42C653.75 42 704.25 93.75 704.25 183ZM302.5 253.75C291.5 253.75 283.25 262.25 283.25 272.75C283.25 283.75 291.5 291.75 302.5 291.75L339.5 291.75L339.5 442.75L298 442.75C287 442.75 278.5 451.25 278.5 461.5C278.5 472.5 287 480.5 298 480.5L423 480.5C434 480.5 442.5 472.5 442.5 461.5C442.5 451.25 434 442.75 423 442.75L381.5 442.75L381.5 277.5C381.5 263.5 374.25 253.75 360.75 253.75ZM314 164C314 184 330 200 350.25 200C370.25 200 386.25 184 386.25 164C386.25 143.75 370.25 127.5 350.25 127.5C330 127.5 314 143.75 314 164Z" fill="black" fill-opacity="0.85"/>
 </g>
</svg>
