<?xml version="1.0" encoding="UTF-8"?>
<!--Generator: Apple Native CoreSVG 326-->
<!DOCTYPE svg
PUBLIC "-//W3C//DTD SVG 1.1//EN"
       "http://www.w3.org/Graphics/SVG/1.1/DTD/svg11.dtd">
<svg version="1.1" xmlns="http://www.w3.org/2000/svg" xmlns:xlink="http://www.w3.org/1999/xlink" viewBox="0 0 651.25 651.75">
 <g>
  <rect height="651.75" opacity="0" width="651.25" x="0" y="0"/>
  <path d="M325.5 651.25C505.25 651.25 651.25 505.5 651.25 325.75C651.25 146 505.25 0 325.5 0C145.75 0 0 146 0 325.75C0 505.5 145.75 651.25 325.5 651.25ZM325.5 604.75C171.25 604.75 46.5 480 46.5 325.75C46.5 171.5 171.25 46.75 325.5 46.75C479.75 46.75 604.5 171.5 604.5 325.75C604.5 480 479.75 604.75 325.5 604.75Z" fill="black" fill-opacity="0.85"/>
  <path d="M325.25 463C426 463 505 397.25 505 316.5C505 235.75 426 170 325.25 170C224.75 170 145.75 235.75 145.75 316.5C145.75 367.25 177.5 412 225.5 439C229.5 440.75 229.5 444.25 227.75 447.75C222 458.5 213 469.25 206.25 476.75C197.5 486.5 200 497.25 213.75 497.25C231 497.25 263.75 484.25 295.5 465C298.5 463.25 300.5 462.25 304 462.5C310.5 462.75 317.75 463 325.25 463Z" fill="black" fill-opacity="0.85"/>
 </g>
</svg>
