<?xml version="1.0" encoding="UTF-8"?>
<!--Generator: Apple Native CoreSVG 326-->
<!DOCTYPE svg
PUBLIC "-//W3C//DTD SVG 1.1//EN"
       "http://www.w3.org/Graphics/SVG/1.1/DTD/svg11.dtd">
<svg version="1.1" xmlns="http://www.w3.org/2000/svg" xmlns:xlink="http://www.w3.org/1999/xlink" viewBox="0 0 664.75 733.75">
 <g>
  <rect height="733.75" opacity="0" width="664.75" x="0" y="0"/>
  <path d="M51.25 167.25C79.75 167.25 102.5 144.5 102.5 116C102.5 87.75 79.75 64.75 51.25 64.75C23 64.75 0 87.75 0 116C0 144.5 23 167.25 51.25 167.25Z" fill="black" fill-opacity="0.85"/>
  <path d="M51.25 334.25C79.75 334.25 102.5 311.25 102.5 283C102.5 254.5 79.75 231.75 51.25 231.75C23 231.75 0 254.5 0 283C0 311.25 23 334.25 51.25 334.25Z" fill="black" fill-opacity="0.85"/>
  <path d="M51.25 501.75C79.75 501.75 102.5 478.75 102.5 450.5C102.5 422 79.75 399 51.25 399C23 399 0 422 0 450.5C0 478.75 23 501.75 51.25 501.75Z" fill="black" fill-opacity="0.85"/>
  <path d="M51.25 668.5C79.75 668.5 102.5 645.75 102.5 617.25C102.5 589 79.75 566 51.25 566C23 566 0 589 0 617.25C0 645.75 23 668.5 51.25 668.5Z" fill="black" fill-opacity="0.85"/>
  <path d="M214.25 340.25C214.25 463.75 296.25 551 418.5 560L418.5 643.25L295.25 643.25C283.75 643.25 274.5 652.5 274.5 664C274.5 675.5 283.75 685 295.25 685L583.5 685C595.25 685 604.5 675.5 604.5 664C604.5 652.5 595.25 643.25 583.5 643.25L460.25 643.25L460.25 560C582.75 551 664.75 463.75 664.75 340.25L664.75 276.25C664.75 264.75 655.5 255.5 644 255.5C632.25 255.5 623 264.75 623 276.25L623 338.75C623 447.75 550.75 521.5 439.5 521.5C328.25 521.5 256 447.75 256 338.75L256 276.25C256 264.75 246.75 255.5 235 255.5C223.5 255.5 214.25 264.75 214.25 276.25ZM326.25 328C326.25 399.25 372 450.25 439.5 450.25C507 450.25 552.75 399.25 552.75 328L552.75 122.25C552.75 51 507 0 439.5 0C372 0 326.25 51 326.25 122.25ZM368 328L368 122.25C368 73.75 396.25 41 439.5 41C482.75 41 511 73.75 511 122.25L511 328C511 376.5 482.75 409.25 439.5 409.25C396.25 409.25 368 376.5 368 328Z" fill="black" fill-opacity="0.85"/>
 </g>
</svg>
