<?xml version="1.0" encoding="UTF-8"?>
<!--Generator: Apple Native CoreSVG 326-->
<!DOCTYPE svg
PUBLIC "-//W3C//DTD SVG 1.1//EN"
       "http://www.w3.org/Graphics/SVG/1.1/DTD/svg11.dtd">
<svg version="1.1" xmlns="http://www.w3.org/2000/svg" xmlns:xlink="http://www.w3.org/1999/xlink" viewBox="0 0 651.25 651.75">
 <g>
  <rect height="651.75" opacity="0" width="651.25" x="0" y="0"/>
  <path d="M651.25 325.75C651.25 505.5 505.25 651.25 325.5 651.25C145.75 651.25 0 505.5 0 325.75C0 146 145.75 0 325.5 0C505.25 0 651.25 146 651.25 325.75ZM46.5 325.75C46.5 480 171.25 604.75 325.5 604.75C479.75 604.75 604.5 480 604.5 325.75C604.5 171.5 479.75 46.75 325.5 46.75C171.25 46.75 46.5 171.5 46.5 325.75Z" fill="black" fill-opacity="0.85"/>
  <path d="M232.75 292.5L232.75 332C232.75 386 270 423 325.25 423C340.365 423 354.126 420.256 366.087 415.087L388.16 437.16C374.332 444.742 358.436 449.661 341 451.5L341 489.75L406.25 489.75C414.5 489.75 421.5 497 421.5 505.25C421.5 513.5 414.25 520.75 406.25 520.75L244.75 520.75C236.5 520.75 229.25 513.75 229.25 505.25C229.25 497 236.5 489.75 244.75 489.75L310 489.75L310 451.5C246 445 202.5 396.5 202.5 332L202.5 292.5C202.5 284.5 209.5 277.5 217.5 277.5C225.75 277.5 232.75 284.5 232.75 292.5ZM337.643 386.643C333.732 387.546 329.585 388 325.25 388C293.5 388 271.75 363.25 271.75 330.5L271.75 320.75ZM448.25 292.5L448.25 332C448.25 352.232 443.994 370.866 436.17 387.116L413.018 363.944C416.309 354.237 418 343.504 418 332L418 292.5C418 284.5 425 277.5 433.25 277.5C441.25 277.5 448.25 284.5 448.25 292.5ZM379 191L379 329.899L271.75 222.56L271.75 191C271.75 158 293.5 133.5 325.25 133.5C357.25 133.5 379 158 379 191Z" fill="black" fill-opacity="0.85"/>
  <path d="M468 486.25C473 491.5 481.5 491.5 486.75 486.25C492 481 492 473 486.75 467.5L184 164.75C178.75 159.5 170.25 159.5 165 164.75C159.75 170 160 178.5 165 183.5Z" fill="black" fill-opacity="0.85"/>
 </g>
</svg>
