<?xml version="1.0" encoding="UTF-8"?>
<!--Generator: Apple Native CoreSVG 326-->
<!DOCTYPE svg
PUBLIC "-//W3C//DTD SVG 1.1//EN"
       "http://www.w3.org/Graphics/SVG/1.1/DTD/svg11.dtd">
<svg version="1.1" xmlns="http://www.w3.org/2000/svg" xmlns:xlink="http://www.w3.org/1999/xlink" viewBox="0 0 651.25 651.75">
 <g>
  <rect height="651.75" opacity="0" width="651.25" x="0" y="0"/>
  <path d="M651.25 325.75C651.25 505 505 651.25 325.5 651.25C146.25 651.25 0 505 0 325.75C0 146.25 146.25 0 325.5 0C505 0 651.25 146.25 651.25 325.75ZM199.75 291.5L199.75 332C199.75 398.25 244.25 447.75 309.75 454.5L309.75 493.5L243 493.5C234.5 493.5 227 501 227 509.75C227 518.25 234.5 525.25 243 525.25L408.5 525.25C416.75 525.25 424.25 518 424.25 509.75C424.25 501 417 493.5 408.5 493.5L341.5 493.5L341.5 454.5C359.31 452.604 375.542 447.608 389.672 439.922L367.144 417.394C354.929 422.685 340.895 425.5 325.5 425.5C268.75 425.5 230.75 387.25 230.75 332L230.75 291.5C230.75 283.25 223.75 276 215.25 276C207 276 199.75 283.25 199.75 291.5ZM160.75 160.75C155.5 166.25 155.75 175 160.75 180L471.25 490.5C476.25 495.5 485.25 495.75 490.5 490.5C495.75 484.75 495.75 476.5 490.5 471.25L180.25 160.75C175 155.5 166.5 155.5 160.75 160.75ZM270.5 330.5C270.5 364 292.75 389.5 325.5 389.5C329.838 389.5 333.993 389.053 337.92 388.17L270.5 320.75ZM420.5 291.5L420.5 332C420.5 343.817 418.75 354.856 415.347 364.847L439.1 388.6C447.135 371.937 451.5 352.807 451.5 332L451.5 291.5C451.5 283.25 444.25 276 436 276C427.5 276 420.5 283.25 420.5 291.5ZM270.5 187.5L270.5 220L380.5 330L380.5 187.5C380.5 154 358.25 129 325.5 129C292.75 129 270.5 154 270.5 187.5Z" fill="black" fill-opacity="0.85"/>
 </g>
</svg>
