<?xml version="1.0" encoding="UTF-8"?>
<!--Generator: Apple Native CoreSVG 326-->
<!DOCTYPE svg
PUBLIC "-//W3C//DTD SVG 1.1//EN"
       "http://www.w3.org/Graphics/SVG/1.1/DTD/svg11.dtd">
<svg version="1.1" xmlns="http://www.w3.org/2000/svg" xmlns:xlink="http://www.w3.org/1999/xlink" viewBox="0 0 450.5 728.75">
 <g>
  <rect height="728.75" opacity="0" width="450.5" x="0" y="0"/>
  <path d="M0 337.75C0 461.25 82 548.5 204.5 557.5L204.5 640.75L81.25 640.75C69.5 640.75 60.25 650 60.25 661.5C60.25 673 69.5 682.5 81.25 682.5L369.5 682.5C381 682.5 390.25 673 390.25 661.5C390.25 650 381 640.75 369.5 640.75L246.25 640.75L246.25 557.5C368.5 548.5 450.5 461.25 450.5 337.75L450.5 273.75C450.5 262.25 441.25 253 429.75 253C418 253 408.75 262.25 408.75 273.75L408.75 336.25C408.75 445.25 336.5 519 225.25 519C114 519 41.75 445.25 41.75 336.25L41.75 273.75C41.75 262.25 32.5 253 21 253C9.25 253 0 262.25 0 273.75ZM225.25 445.25C288.75 445.25 330.75 397.75 330.75 330.5L330.75 114.75C330.75 47.75 288.75 0 225.25 0C162 0 119.75 47.75 119.75 114.75L119.75 330.5C119.75 397.75 162 445.25 225.25 445.25Z" fill="black" fill-opacity="0.85"/>
 </g>
</svg>
