<?xml version="1.0" encoding="UTF-8"?>
<!--Generator: Apple Native CoreSVG 326-->
<!DOCTYPE svg
PUBLIC "-//W3C//DTD SVG 1.1//EN"
       "http://www.w3.org/Graphics/SVG/1.1/DTD/svg11.dtd">
<svg version="1.1" xmlns="http://www.w3.org/2000/svg" xmlns:xlink="http://www.w3.org/1999/xlink" viewBox="0 0 450.5 733.75">
 <g>
  <rect height="733.75" opacity="0" width="450.5" x="0" y="0"/>
  <path d="M0 340.25C0 463.75 82 551 204.5 560L204.5 643.25L81.25 643.25C69.5 643.25 60.25 652.5 60.25 664C60.25 675.5 69.5 685 81.25 685L369.5 685C381 685 390.25 675.5 390.25 664C390.25 652.5 381 643.25 369.5 643.25L246.25 643.25L246.25 560C368.5 551 450.5 463.75 450.5 340.25L450.5 276.25C450.5 264.75 441.25 255.5 429.75 255.5C418 255.5 408.75 264.75 408.75 276.25L408.75 338.75C408.75 447.75 336.5 521.5 225.25 521.5C114 521.5 41.75 447.75 41.75 338.75L41.75 276.25C41.75 264.75 32.5 255.5 21 255.5C9.25 255.5 0 264.75 0 276.25ZM112 328C112 399.25 157.75 450.25 225.25 450.25C292.75 450.25 338.5 399.25 338.5 328L338.5 122.25C338.5 51 292.75 0 225.25 0C157.75 0 112 51 112 122.25ZM154 328L154 122.25C154 73.75 182 41 225.25 41C268.5 41 296.75 73.75 296.75 122.25L296.75 328C296.75 376.5 268.5 409.25 225.25 409.25C182 409.25 154 376.5 154 328Z" fill="black" fill-opacity="0.85"/>
 </g>
</svg>
