<?xml version="1.0" encoding="UTF-8"?>
<!--Generator: Apple Native CoreSVG 326-->
<!DOCTYPE svg
PUBLIC "-//W3C//DTD SVG 1.1//EN"
       "http://www.w3.org/Graphics/SVG/1.1/DTD/svg11.dtd">
<svg version="1.1" xmlns="http://www.w3.org/2000/svg" xmlns:xlink="http://www.w3.org/1999/xlink" viewBox="0 0 615.876 728.75">
 <g>
  <rect height="728.75" opacity="0" width="615.876" x="0" y="0"/>
  <path d="M124.438 273.75L124.438 336.25C124.438 445.25 196.688 519 307.938 519C344.268 519 376.44 511.135 403.191 496.622L432.632 526.032C403.165 543.693 368.119 554.616 328.938 557.5L328.938 640.75L452.188 640.75C463.688 640.75 472.938 650 472.938 661.5C472.938 673 463.688 682.5 452.188 682.5L163.938 682.5C152.188 682.5 142.938 673 142.938 661.5C142.938 650 152.188 640.75 163.938 640.75L287.188 640.75L287.188 557.5C164.688 548.5 82.688 461.25 82.688 337.75L82.688 273.75C82.688 262.25 91.938 253 103.438 253C115.188 253 124.438 262.25 124.438 273.75ZM345.412 438.901C334.084 443.083 321.501 445.25 307.938 445.25C244.438 445.25 202.438 397.75 202.438 330.5L202.438 296.072ZM533.188 273.75L533.188 337.75C533.188 377.256 524.797 413.052 509.299 443.703L477.781 412.216C486.721 389.653 491.438 364.102 491.438 336.25L491.438 273.75C491.438 262.25 500.688 253 512.438 253C523.938 253 533.188 262.25 533.188 273.75ZM413.438 114.75L413.438 330.5C413.438 336.15 413.142 341.661 412.455 346.957L202.438 137.153L202.438 114.75C202.438 47.75 244.438 0 307.938 0C371.438 0 413.438 47.75 413.438 114.75Z" fill="black" fill-opacity="0.85"/>
  <path d="M544.688 588.5C552.938 596.75 566.688 596.75 574.688 588.5C582.938 580 583.188 566.75 574.688 558.25L82.688 66.75C74.438 58.5 60.688 58.25 52.188 66.75C44.188 74.75 44.188 88.75 52.188 96.75Z" fill="black" fill-opacity="0.85"/>
 </g>
</svg>
