<?xml version="1.0" encoding="UTF-8"?>
<!--Generator: Apple Native CoreSVG 326-->
<!DOCTYPE svg
PUBLIC "-//W3C//DTD SVG 1.1//EN"
       "http://www.w3.org/Graphics/SVG/1.1/DTD/svg11.dtd">
<svg version="1.1" xmlns="http://www.w3.org/2000/svg" xmlns:xlink="http://www.w3.org/1999/xlink" viewBox="0 0 615.876 733.75">
 <g>
  <rect height="733.75" opacity="0" width="615.876" x="0" y="0"/>
  <path d="M124.438 276.25L124.438 338.75C124.438 447.75 196.688 521.5 307.938 521.5C344.268 521.5 376.44 513.635 403.191 499.122L432.632 528.532C403.165 546.193 368.119 557.116 328.938 560L328.938 643.25L452.188 643.25C463.688 643.25 472.938 652.5 472.938 664C472.938 675.5 463.688 685 452.188 685L163.938 685C152.188 685 142.938 675.5 142.938 664C142.938 652.5 152.188 643.25 163.938 643.25L287.188 643.25L287.188 560C164.688 551 82.688 463.75 82.688 340.25L82.688 276.25C82.688 264.75 91.938 255.5 103.438 255.5C115.188 255.5 124.438 264.75 124.438 276.25ZM236.611 332.711C238.323 378.63 266.118 409.25 307.938 409.25C309.659 409.25 311.356 409.198 312.986 409.008L347.576 443.563C335.54 447.965 322.226 450.25 307.938 450.25C240.438 450.25 194.688 399.25 194.688 328L194.688 290.83ZM533.188 276.25L533.188 340.25C533.188 379.756 524.797 415.552 509.299 446.203L477.781 414.716C486.721 392.153 491.438 366.602 491.438 338.75L491.438 276.25C491.438 264.75 500.688 255.5 512.438 255.5C523.938 255.5 533.188 264.75 533.188 276.25ZM421.188 122.25L421.188 328C421.188 337.631 420.352 346.892 418.672 355.668L379.438 316.473L379.438 122.25C379.438 73.75 351.188 41 307.938 41C264.688 41 236.438 73.75 236.438 122.25L236.438 173.619L194.688 131.911L194.688 122.25C194.688 51 240.438 0 307.938 0C375.438 0 421.188 51 421.188 122.25Z" fill="black" fill-opacity="0.85"/>
  <path d="M544.688 591C552.938 599.25 566.688 599.25 574.688 591C582.938 582.5 583.188 569.25 574.688 560.75L82.688 69.25C74.438 61 60.688 60.75 52.188 69.25C44.188 77.25 44.188 91.25 52.188 99.25Z" fill="black" fill-opacity="0.85"/>
 </g>
</svg>
