<?xml version="1.0" encoding="UTF-8"?>
<!--Generator: Apple Native CoreSVG 326-->
<!DOCTYPE svg
PUBLIC "-//W3C//DTD SVG 1.1//EN"
       "http://www.w3.org/Graphics/SVG/1.1/DTD/svg11.dtd">
<svg version="1.1" xmlns="http://www.w3.org/2000/svg" xmlns:xlink="http://www.w3.org/1999/xlink" viewBox="0 0 753.5 274.25">
 <g>
  <rect height="274.25" opacity="0" width="753.5" x="0" y="0"/>
  <path d="M376.75 0C252.5 0 111 23 42 93.75C15.75 120.5 0 153.75 0 195.75C0 224 8.75 264.25 38.75 270C48.75 274.5 59.5 273.5 73.75 271.25L167.25 255.5C199.5 250.25 215.5 238 224 206.75L239.5 150.5C242.5 139.25 245.75 135 258.75 130.25C284.75 121 326 116.25 376.75 116C427.5 116 468.75 121 494.75 130.25C507.75 135 511 139.25 514 150.5L529.5 206.75C538.25 238 554 250.25 586.25 255.5L679.75 271.25C694.25 273.5 704.75 274.5 714.75 270C744.75 264.25 753.5 224 753.5 195.75C753.5 153.75 737.75 120.5 711.5 93.75C642.5 23 501.25 0 376.75 0Z" fill="black" fill-opacity="0.85"/>
 </g>
</svg>
