<?xml version="1.0" encoding="UTF-8"?>
<!--Generator: Apple Native CoreSVG 326-->
<!DOCTYPE svg
PUBLIC "-//W3C//DTD SVG 1.1//EN"
       "http://www.w3.org/Graphics/SVG/1.1/DTD/svg11.dtd">
<svg version="1.1" xmlns="http://www.w3.org/2000/svg" xmlns:xlink="http://www.w3.org/1999/xlink" viewBox="0 0 704.25 701.25">
 <g>
  <rect height="701.25" opacity="0" width="704.25" x="0" y="0"/>
  <path d="M704.25 183L704.25 438C704.25 527 653.75 578.5 563.25 578.5L333.5 578.5L216.75 683.75C204 695.5 195.75 701.25 184.75 701.25C168.75 701.25 159.5 689.75 159.5 672.25L159.5 578.5L141 578.5C50.25 578.5 0 527.5 0 438L0 183C0 93.5 50.25 42 141 42L563.25 42C653.75 42 704.25 93.75 704.25 183ZM204.5 158.5C189.25 173 181 193.75 181 216.75C181 269 221.25 332.5 275.25 386.25C329.25 440.25 394 481.5 446 481.5C470.5 481.5 491.5 471.75 505.5 456.25C519.25 441 523.5 430.25 523.5 419.75C523.5 412.5 518.75 405.25 506.5 396.75L461.75 364.5C450.5 356.25 445.75 355 439 355C433.5 355 428.5 356 419 361.5L389.5 377.5C386.25 379.25 384.5 380 382 380C378.5 380 376.25 379 372.75 377.5C358.5 371 339.25 355.5 321.5 338.25C304.5 321 290.75 303 283.75 289.25C283 287.25 281.5 284.25 281.5 281.25C281.5 279 283 277 284.5 274.5L301.25 245C306.5 237 307.75 232.5 307.75 226.25C307.75 219 305.5 211.25 298.25 201.75L267.5 158.5C258.75 146.25 252.25 138.75 242.25 138.75C230 138.75 215.25 148.25 204.5 158.5Z" fill="black" fill-opacity="0.85"/>
 </g>
</svg>
