<?xml version="1.0" encoding="UTF-8"?>
<!--Generator: Apple Native CoreSVG 326-->
<!DOCTYPE svg
PUBLIC "-//W3C//DTD SVG 1.1//EN"
       "http://www.w3.org/Graphics/SVG/1.1/DTD/svg11.dtd">
<svg version="1.1" xmlns="http://www.w3.org/2000/svg" xmlns:xlink="http://www.w3.org/1999/xlink" viewBox="0 0 613.25 596.25">
 <g>
  <rect height="596.25" opacity="0" width="613.25" x="0" y="0"/>
  <path d="M172.25 430.25C266.25 524.25 378.75 596 469 596C511.5 596 548.5 579 572.75 551.75C596 525.5 604 506.25 604 489C604 475.25 595.5 463 574.75 448.25L496.75 392.5C477.5 378.75 468.75 376.25 457.25 376.25C447.25 376.25 439 378 422.5 387L371.5 415.25C365.5 418.5 362.75 419 358.25 419C352.25 419 348.25 417.5 342.25 415.25C317.75 403.75 283.5 377.25 253.25 346.75C223.25 316.5 199.5 285.75 187.25 261.25C185.75 258 183.75 253 183.75 248C183.75 244 186 240.25 188.5 235.75L218.5 184.5C226.75 170.5 229 163 229 152C229 139.5 224.75 126.25 212.75 109.5L159.25 34.5C144.25 13 132.5 0 115.25 0C93.75 0 68 16.5 49.75 34.25C23 60 9 95.5 9 135.75C9 226.75 79 337 172.25 430.25Z" fill="black" fill-opacity="0.85"/>
  <path d="M592.5 6C587 6 582.25 8 578 12L432.75 157.75L383.25 210.75L387.5 115L387.5 59.5C387.5 48.75 379.25 40.25 368.5 39.75C357.25 39.25 347.75 48.25 347.75 59.5L347.75 249.5C347.75 263.75 355 271.25 369.5 271.25L560.75 271.25C572 271.25 581.25 261.75 580.75 250.5C580.25 239.5 571.5 231.5 560.75 231.5L503.5 231.5L407.75 235.75L461.25 186.25L606.5 40.75C611.25 36 613.25 31 613.25 25C613.25 14.25 604.25 6 592.5 6Z" fill="black" fill-opacity="0.85"/>
 </g>
</svg>
