<?xml version="1.0" encoding="UTF-8"?>
<!--Generator: Apple Native CoreSVG 326-->
<!DOCTYPE svg
PUBLIC "-//W3C//DTD SVG 1.1//EN"
       "http://www.w3.org/Graphics/SVG/1.1/DTD/svg11.dtd">
<svg version="1.1" xmlns="http://www.w3.org/2000/svg" xmlns:xlink="http://www.w3.org/1999/xlink" viewBox="0 0 753.5 305.25">
 <g>
  <rect height="305.25" opacity="0" width="753.5" x="0" y="0"/>
  <path d="M376.75 0C228 0 112.25 35.5 49.75 97.75C19 128.75 0 168.75 0 214.5C0 252.75 11.75 293.25 57.25 299.5C66.75 303.75 78.5 305.5 91.5 303L189.25 284.5C217 279.25 230.5 265.5 239.5 238L255.25 185.25C258.5 174.25 264.25 168.5 276.75 165.25C291 161.5 318.5 158.5 376.75 158.5C435 158.5 462.75 161.5 476.75 165.25C489.25 168.5 495 174.25 498.25 185.25L514 238C523 265.5 536.5 279.25 564.25 284.5L662 303C675.25 305.5 687 303.75 696.25 299.5C741.75 293.25 753.5 252.75 753.5 214.5C753.5 168.75 734.5 128.75 703.75 97.75C641.25 35.5 525.5 0 376.75 0ZM376.75 41.75C504.75 41.75 619.25 69.75 674.75 127C697 149.75 710.75 180 710.75 210.25C710.75 233 703.75 255 686.5 259.75C682.5 263 676.75 264.75 670.25 263.5L576.75 245C566 242.75 558.75 236 555 223.5L538.75 170.5C530.25 143.25 518.25 132.25 494.5 127.25C472 122.75 434.5 118.75 376.75 118.75C319 118.75 281.5 122.75 259 127.25C235.25 132.25 223.5 143.25 214.75 170.5L198.5 223.5C194.75 236 187.5 242.75 176.75 245L83.5 263.5C76.75 264.75 71.25 263 67 259.75C49.75 255 42.75 233 42.75 210.25C42.75 180 56.5 149.75 78.75 127C134.5 69.75 249 41.75 376.75 41.75Z" fill="black" fill-opacity="0.85"/>
 </g>
</svg>
