<?xml version="1.0" encoding="UTF-8"?>
<!--Generator: Apple Native CoreSVG 326-->
<!DOCTYPE svg
PUBLIC "-//W3C//DTD SVG 1.1//EN"
       "http://www.w3.org/Graphics/SVG/1.1/DTD/svg11.dtd">
<svg version="1.1" xmlns="http://www.w3.org/2000/svg" xmlns:xlink="http://www.w3.org/1999/xlink" viewBox="0 0 651.25 651.75">
 <g>
  <rect height="651.75" opacity="0" width="651.25" x="0" y="0"/>
  <path d="M651.25 326C651.25 505.5 505 651.75 325.5 651.75C146.25 651.75 0 505.5 0 326C0 146.75 146.25 0.5 325.5 0.5C505 0.5 651.25 146.75 651.25 326ZM139.5 295.75C123 312 114.25 332.25 114.75 353.25C115 368.25 118.75 385.5 127.25 394C134.5 400.75 144.25 400.5 159.25 398L211.25 389.5C223.5 387.25 230.5 383.75 235.75 378.5C240 374 241.75 370 244.25 361L253.25 328.25C253.75 325 254.5 322.75 256 321.5C258.5 319.25 261 318 263 317C278 312.25 300.5 309.25 324.75 309.25C349.5 309.25 373.5 312.25 389 317.5C392 319.25 394.25 320.25 397 322.5C398.5 324.25 399.25 325.75 400.5 329.5L410 361.5C413 372.25 415.5 376.25 419.5 380.25C424.25 385 428.75 387.25 442.5 389.5L496.75 398.75C511.25 401.25 519.75 399.5 525.25 394.25C532.5 387 537.25 376 538.25 355.75C539.25 334.75 531.25 312.75 514 295.75C477 259 402.25 242.25 326 242.25C249.5 242.25 176.25 258.75 139.5 295.75Z" fill="black" fill-opacity="0.85"/>
 </g>
</svg>
