<?xml version="1.0" encoding="UTF-8"?>
<!--Generator: Apple Native CoreSVG 326-->
<!DOCTYPE svg
PUBLIC "-//W3C//DTD SVG 1.1//EN"
       "http://www.w3.org/Graphics/SVG/1.1/DTD/svg11.dtd">
<svg version="1.1" xmlns="http://www.w3.org/2000/svg" xmlns:xlink="http://www.w3.org/1999/xlink" viewBox="0 0 704 676.875">
 <g>
  <rect height="676.875" opacity="0" width="704" x="0" y="0"/>
  <path d="M217.625 470.562C311.625 564.562 424.125 636.312 514.375 636.312C556.875 636.312 593.875 619.312 618.125 592.062C641.375 565.812 649.375 546.562 649.375 529.312C649.375 515.562 640.875 503.312 620.125 488.562L542.125 432.812C522.875 419.062 514.125 416.562 502.625 416.562C492.625 416.562 484.375 418.312 467.875 427.312L416.875 455.562C410.875 458.812 408.125 459.312 403.625 459.312C397.625 459.312 393.625 457.812 387.625 455.562C363.125 444.062 328.875 417.562 298.625 387.062C268.625 356.812 244.875 326.062 232.625 301.562C231.125 298.312 229.125 293.312 229.125 288.312C229.125 284.312 231.375 280.562 233.875 276.062L263.875 224.812C272.125 210.812 274.375 203.312 274.375 192.312C274.375 179.812 270.125 166.562 258.125 149.812L204.625 74.8125C189.625 53.3125 177.875 40.3125 160.625 40.3125C139.125 40.3125 113.375 56.8125 95.125 74.5625C68.375 100.312 54.375 135.812 54.375 176.062C54.375 267.062 124.375 377.312 217.625 470.562Z" fill="black" fill-opacity="0.85"/>
  <path d="M380.875 323.062C397.875 340.062 425.375 340.062 442.375 322.812C459.125 306.062 459.125 278.562 442.375 262.062C425.375 244.812 397.875 244.812 380.875 261.562C363.875 278.562 363.875 306.062 380.875 323.062ZM412.625 149.812C403.875 158.562 403.875 172.562 412.625 181.062L522.625 291.312C531.125 300.062 545.375 300.062 553.875 291.312C562.375 282.812 562.375 268.562 553.875 260.062L443.875 149.812C435.125 141.312 421.125 141.312 412.625 149.812ZM524.375 179.812C541.375 196.312 568.625 196.562 585.625 179.562C602.375 162.562 602.375 135.312 585.625 118.562C568.625 101.562 541.125 101.562 524.375 118.062C507.125 135.312 507.125 162.312 524.375 179.812ZM556.375 6.5625C547.625 15.0625 547.625 29.0625 556.375 37.8125L666.125 147.812C674.625 156.562 689.125 156.562 697.625 147.812C706.125 139.312 706.125 125.312 697.625 116.562L587.625 6.5625C578.875-2.1875 564.375-2.1875 556.375 6.5625Z" fill="black" fill-opacity="0.85"/>
 </g>
</svg>
