<?xml version="1.0" encoding="UTF-8"?>
<!--Generator: Apple Native CoreSVG 326-->
<!DOCTYPE svg
PUBLIC "-//W3C//DTD SVG 1.1//EN"
       "http://www.w3.org/Graphics/SVG/1.1/DTD/svg11.dtd">
<svg version="1.1" xmlns="http://www.w3.org/2000/svg" xmlns:xlink="http://www.w3.org/1999/xlink" viewBox="0 0 622.5 617.76">
 <g>
  <rect height="617.76" opacity="0" width="622.5" x="0" y="0"/>
  <path d="M461.75 617.505C514.75 617.505 552 603.005 584.5 567.505C586.75 565.005 588.5 563.005 590.75 560.505C610 539.505 619.25 519.005 619.25 499.255C619.25 477.755 607 456.755 580.75 438.755L501 384.255C477.5 368.255 456.5 367.005 427.5 381.005L376.75 405.505C366.5 410.255 357.75 410.505 347.5 404.005C333 395.255 299.5 368.505 272.5 341.255C245.25 313.505 221.75 284.255 211.75 266.755C207.25 258.505 207.75 252.255 213.25 243.255L242.75 197.005C255.5 177.255 258.25 151.755 243.25 130.255L180 38.5048C161.75 12.2548 141.25 0.254808 120 0.00480769C100.5-0.245192 79.75 9.25481 58.75 28.5048C56.25 30.5048 54 32.5048 51.75 34.7548C16.5 66.7548 1.5 104.255 1.5 156.755C1.5 248.255 59.75 358.755 160.25 459.005C260.25 558.755 370.5 617.505 461.75 617.505ZM462 575.505C380 576.755 276 514.255 192 430.255C107.25 345.755 42.25 238.755 43.75 156.505C44.25 120.755 56.5 89.5048 82.25 66.2548C84.25 64.5048 85.75 63.2548 87.5 61.7548C98.5 51.7548 110.25 46.5048 120.25 46.5048C130.25 46.5048 138.5 50.7548 145.25 61.0048L204.25 148.755C210 157.255 210 165.505 202.75 177.255L170.5 229.005C157.75 249.255 159.75 265.755 172.5 284.005C189 307.505 216.25 342.255 243.75 370.005C271.25 397.505 309.5 429.255 331 443.755C349 456.255 366.5 459.005 392.75 446.505L447.5 420.505C461 414.255 471.5 415.755 482.75 423.255L558.25 474.005C568.25 480.505 572.75 489.005 572.75 499.005C572.75 509.255 567.5 520.755 557.25 531.755C555.75 533.755 554.5 535.005 553 537.005C529.5 563.005 498.25 575.005 462 575.505Z" fill="black" fill-opacity="0.85"/>
  <path d="M601.75 3.50481C596.25 3.50481 591.5 5.50481 587.25 9.75481L442 155.505L392.5 208.255L396.75 112.755L396.75 57.0048C396.75 46.2548 388.5 37.7548 377.75 37.2548C366.5 36.7548 357 45.7548 357 57.0048L357 247.005C357 261.255 364.25 268.755 378.75 268.755L570 268.755C581.25 268.755 590.5 259.255 590 248.005C589.5 237.255 580.75 229.005 570 229.005L513 229.005L417 233.505L470.5 183.755L615.75 38.2548C620.5 33.5048 622.5 28.7548 622.5 22.7548C622.5 11.7548 613.5 3.50481 601.75 3.50481Z" fill="black" fill-opacity="0.85"/>
 </g>
</svg>
