<?xml version="1.0" encoding="UTF-8"?>
<!--Generator: Apple Native CoreSVG 326-->
<!DOCTYPE svg
PUBLIC "-//W3C//DTD SVG 1.1//EN"
       "http://www.w3.org/Graphics/SVG/1.1/DTD/svg11.dtd">
<svg version="1.1" xmlns="http://www.w3.org/2000/svg" xmlns:xlink="http://www.w3.org/1999/xlink" viewBox="0 0 713.25 703">
 <g>
  <rect height="703" opacity="0" width="713.25" x="0" y="0"/>
  <path d="M507.125 660.125C560.125 660.125 597.375 645.625 629.875 610.125C632.125 607.625 633.875 605.625 636.125 603.125C655.375 582.125 664.625 561.625 664.625 541.875C664.625 520.375 652.375 499.375 626.125 481.375L546.375 426.875C522.875 410.875 501.875 409.625 472.875 423.625L422.125 448.125C411.875 452.875 403.125 453.125 392.875 446.625C378.375 437.875 344.875 411.125 317.875 383.875C290.625 356.125 267.125 326.875 257.125 309.375C252.625 301.125 253.125 294.875 258.625 285.875L288.125 239.625C300.875 219.875 303.625 194.375 288.625 172.875L225.375 81.125C207.125 54.875 186.625 42.875 165.375 42.625C145.875 42.375 125.125 51.875 104.125 71.125C101.625 73.125 99.375 75.125 97.125 77.375C61.875 109.375 46.875 146.875 46.875 199.375C46.875 290.875 105.125 401.375 205.625 501.625C305.625 601.375 415.875 660.125 507.125 660.125ZM507.375 618.125C425.375 619.375 321.375 556.875 237.375 472.875C152.625 388.375 87.625 281.375 89.125 199.125C89.625 163.375 101.875 132.125 127.625 108.875C129.625 107.125 131.125 105.875 132.875 104.375C143.875 94.375 155.625 89.125 165.625 89.125C175.625 89.125 183.875 93.375 190.625 103.625L249.625 191.375C255.375 199.875 255.375 208.125 248.125 219.875L215.875 271.625C203.125 291.875 205.125 308.375 217.875 326.625C234.375 350.125 261.625 384.875 289.125 412.625C316.625 440.125 354.875 471.875 376.375 486.375C394.375 498.875 411.875 501.625 438.125 489.125L492.875 463.125C506.375 456.875 516.875 458.375 528.125 465.875L603.625 516.625C613.625 523.125 618.125 531.625 618.125 541.625C618.125 551.875 612.875 563.375 602.625 574.375C601.125 576.375 599.875 577.625 598.375 579.625C574.875 605.625 543.625 617.625 507.375 618.125Z" fill="black" fill-opacity="0.85"/>
  <path d="M390.125 322.875C407.125 339.875 434.625 339.875 451.625 322.875C468.625 305.875 468.625 278.625 451.625 261.875C434.625 244.625 407.125 244.625 390.125 261.625C373.125 278.625 373.125 305.875 390.125 322.875ZM421.875 149.875C413.375 158.375 413.375 172.375 421.875 181.125L531.875 291.125C540.625 299.875 554.625 299.875 563.125 291.125C571.875 282.625 571.875 268.625 563.125 259.875L453.125 149.875C444.625 141.125 430.375 141.125 421.875 149.875ZM533.625 179.875C550.875 196.125 577.875 196.375 595.125 179.375C611.625 162.375 611.625 135.125 595.125 118.625C577.875 101.375 550.625 101.375 533.625 118.125C516.625 135.125 516.625 162.125 533.625 179.875ZM565.625 6.375C556.875 14.875 556.875 29.125 565.625 37.625L675.375 147.875C683.875 156.375 698.375 156.375 706.875 147.875C715.375 139.125 715.375 125.125 706.875 116.625L596.875 6.375C588.125-2.125 573.875-2.125 565.625 6.375Z" fill="black" fill-opacity="0.85"/>
 </g>
</svg>
