<?xml version="1.0" encoding="UTF-8"?>
<!--Generator: Apple Native CoreSVG 326-->
<!DOCTYPE svg
PUBLIC "-//W3C//DTD SVG 1.1//EN"
       "http://www.w3.org/Graphics/SVG/1.1/DTD/svg11.dtd">
<svg version="1.1" xmlns="http://www.w3.org/2000/svg" xmlns:xlink="http://www.w3.org/1999/xlink" viewBox="0 0 610.75 729.25">
 <g>
  <rect height="729.25" opacity="0" width="610.75" x="0" y="0"/>
  <path d="M0 364.5C0 500.75 35.5 616.5 97.75 679C128.75 709.75 168.5 728.75 214.5 728.75C252.5 728.75 293.25 717 299.5 671.5C303.75 662.25 305.25 650.5 302.75 637.25L284.5 539.5C279.25 511.75 265.25 498.25 238 489.5L185.25 473.5C174.25 470.25 168.25 464.5 165.25 452C161.5 438 158.25 410.5 158.25 364.5C158.25 318.5 161.5 290.75 165.25 276.75C168.25 264.25 174.25 258.5 185.25 255.25L238 239.5C265.25 230.5 279.25 217 284.5 189.25L302.75 91.5C305.25 78.5 303.75 66.75 299.5 57.25C293.25 11.75 252.5 0 214.5 0C168.5 0 128.75 19 97.75 49.75C35.5 112.25 0 228 0 364.5ZM41.75 364.5C41.75 248.75 69.5 134.25 127 78.75C149.75 56.5 180 42.75 210 42.75C233 42.75 254.75 49.75 259.75 67C262.75 71.25 264.5 76.75 263.25 83.5L244.75 176.75C242.5 187.5 236 194.75 223.5 198.5L170.5 214.75C143.25 223.5 132 235.25 127.25 259C122.75 281.5 118.5 319 118.5 364.5C118.5 409.75 122.75 447.25 127.25 469.75C132 493.5 143.25 505.5 170.5 514L223.5 530.25C236 534 242.5 541.25 244.75 552L263.25 645.5C264.5 652 262.75 657.75 259.75 661.75C254.75 679 233 686 210 686C180 686 149.75 672.25 127 650.25C69.5 594.5 41.75 480 41.75 364.5Z" fill="black" fill-opacity="0.85"/>
  <path d="M295.25 384.25L479 384.25L542.5 381.75L472 446.25L432.75 485.5C428.75 489.5 426.75 494.5 426.75 500.5C426.75 511.75 435 519.5 445.75 519.5C451.5 519.5 456.5 517.5 460.5 513.5L595 379.25C599.75 374.5 602.25 369.25 602.25 364.5C602.25 359.75 599.75 354.5 595 349.75L460.5 215.25C456.5 211.5 451.5 209.25 445.75 209.25C435 209.25 426.75 217.25 426.75 228.5C426.75 234.25 428.75 239.5 432.75 243.25L472 282.75L542.5 347L479 344.5L295.25 344.5C282.75 344.5 275 354 275 364.5C275 374.75 282.75 384.25 295.25 384.25Z" fill="black" fill-opacity="0.85"/>
 </g>
</svg>
