<?xml version="1.0" encoding="UTF-8"?>
<!--Generator: Apple Native CoreSVG 326-->
<!DOCTYPE svg
PUBLIC "-//W3C//DTD SVG 1.1//EN"
       "http://www.w3.org/Graphics/SVG/1.1/DTD/svg11.dtd">
<svg version="1.1" xmlns="http://www.w3.org/2000/svg" xmlns:xlink="http://www.w3.org/1999/xlink" viewBox="0 0 704.25 698.25">
 <g>
  <rect height="698.25" opacity="0" width="704.25" x="0" y="0"/>
  <path d="M190 698.25C203.75 698.25 213.25 691 229.5 676.5L342.25 577.25L563.25 577.25C653.75 577.25 704.25 525.5 704.25 436.5L704.25 181.5C704.25 92.25 653.75 40.5 563.25 40.5L141 40.5C50.25 40.5 0 92 0 181.5L0 436.5C0 526 50.25 577.25 141 577.25L159.75 577.25L159.75 663.25C159.75 684.5 170.75 698.25 190 698.25ZM201 648L201 554C201 538.75 195.25 533 180.25 533L141.25 533C76.75 533 44.25 498.5 44.25 436L44.25 181.75C44.25 119.25 76.75 84.75 141.25 84.75L563 84.75C626.75 84.75 660 119.25 660 181.75L660 436C660 498.5 626.75 533 563 533L341.25 533C325.5 533 317.25 535.5 306.25 546.75Z" fill="black" fill-opacity="0.85"/>
  <path d="M277 383.25C329.75 436 393 476.25 443.75 476.25C467.75 476.25 488.25 466.75 502 451.5C515.25 436.75 519.5 426 519.5 416C519.5 408.75 514.75 401.75 503 393.25L459.25 362C448.25 354 443.5 352.75 436.75 352.75C431.25 352.75 426.75 353.75 417.5 359L388.75 374.75C385.5 376.5 383.75 377 381.25 377C378 377 375.75 376.25 372.25 374.75C358.25 368.25 339.5 353.25 322.25 336.25C305.5 319.5 292.25 302 285.25 288.5C284.5 286.5 283.25 283.5 283.25 280.75C283.25 278.5 284.5 276.5 286 274L302.75 245.25C307.5 237.5 308.75 233.25 308.75 227C308.75 220 306.5 212.5 299.5 203L269.5 160.75C261 148.75 254.5 141.5 244.75 141.5C232.75 141.5 218.5 151 208 160.75C193 175 185 195.25 185 217.75C185 268.75 224.25 330.75 277 383.25Z" fill="black" fill-opacity="0.85"/>
 </g>
</svg>
