<?xml version="1.0" encoding="UTF-8"?>
<!--Generator: Apple Native CoreSVG 326-->
<!DOCTYPE svg
PUBLIC "-//W3C//DTD SVG 1.1//EN"
       "http://www.w3.org/Graphics/SVG/1.1/DTD/svg11.dtd">
<svg version="1.1" xmlns="http://www.w3.org/2000/svg" xmlns:xlink="http://www.w3.org/1999/xlink" viewBox="0 0 651.25 651.75">
 <g>
  <rect height="651.75" opacity="0" width="651.25" x="0" y="0"/>
  <path d="M651.25 326C651.25 505.5 505 651.75 325.5 651.75C146.25 651.75 0 505.5 0 326C0 146.75 146.25 0.5 325.5 0.5C505 0.5 651.25 146.75 651.25 326ZM153.75 200C138.5 214.75 130.25 235.5 130.25 258.5C130.25 310.75 170.75 374.25 224.75 428C278.5 482 343.5 523.5 395.25 523.5C419.75 523.5 440.75 513.5 455 497.75C468.75 482.75 473 472 473 461.5C473 454 468.25 447 456 438.5L411.25 406.25C400 398 395 396.75 388.25 396.75C382.75 396.75 378 397.75 368.25 403L339 419.25C335.5 421 334 421.5 331.5 421.5C328.25 421.5 325.75 420.75 322.25 419.25C308 412.5 288.5 397.5 271 379.75C253.75 362.75 240.25 344.75 233 331C232.25 329 231.25 325.75 231.25 323C231.25 320.75 232.5 318.75 233.75 316L250.75 286.75C255.75 278.75 257.25 274 257.25 268C257.25 260.75 255 252.75 247.75 243.25L216.75 200C208.25 187.75 201.5 180.5 191.5 180.5C179.25 180.5 164.5 190 153.75 200ZM361.5 165.25C352.75 165.25 345.5 172.5 346 181.25C346.25 189.5 352.75 195.75 361.5 195.75L395.5 195.75L441.25 193.75L417.75 216L332.25 301.5C328.5 305 327.25 308.75 327.25 313.25C327.25 321.75 334 327.75 343 327.75C347 327.75 351 326.5 353.5 323.75L439.25 237.75L461.5 214L459.5 260.25L459.5 293C459.5 301.25 465.75 307.75 474 308.5C482.75 308.75 490 301.75 490 293L490 181.75C490 171.25 484 165.25 473.75 165.25Z" fill="black" fill-opacity="0.85"/>
 </g>
</svg>
