<?xml version="1.0" encoding="UTF-8"?>
<!--Generator: Apple Native CoreSVG 326-->
<!DOCTYPE svg
PUBLIC "-//W3C//DTD SVG 1.1//EN"
       "http://www.w3.org/Graphics/SVG/1.1/DTD/svg11.dtd">
<svg version="1.1" xmlns="http://www.w3.org/2000/svg" xmlns:xlink="http://www.w3.org/1999/xlink" viewBox="0 0 651.25 651.75">
 <g>
  <rect height="651.75" opacity="0" width="651.25" x="0" y="0"/>
  <path d="M325.5 651.25C505.25 651.25 651.25 505.5 651.25 325.75C651.25 146 505.25 0 325.5 0C145.75 0 0 146 0 325.75C0 505.5 145.75 651.25 325.5 651.25ZM325.5 604.75C171.25 604.75 46.5 480 46.5 325.75C46.5 171.5 171.25 46.75 325.5 46.75C479.75 46.75 604.5 171.5 604.5 325.75C604.5 480 479.75 604.75 325.5 604.75Z" fill="black" fill-opacity="0.85"/>
  <path d="M226.5 425.75C279 478.25 342.25 518.75 393 518.75C417 518.75 437.5 509.25 451.25 494C464.5 479.25 468.75 468.5 468.75 458.5C468.75 451 464.25 444 452.25 435.75L408.75 404.25C397.5 396.25 392.75 395.25 386.25 395.25C380.75 395.25 376.25 396 366.75 401.25L338 417C334.75 418.75 333.25 419.25 330.75 419.25C327.5 419.25 325.25 418.5 321.75 417C307.75 410.5 288.75 395.75 271.75 378.5C255 361.75 241.75 344.5 234.5 330.75C233.75 328.75 232.75 326 232.75 323C232.75 320.75 234 318.75 235.25 316.25L252 287.5C256.75 279.75 258.25 275.5 258.25 269.25C258.25 262.25 256 254.75 249 245.25L218.75 203.25C210.5 191 203.75 183.75 194 183.75C182 183.75 167.75 193.25 157.25 203.25C142.25 217.5 134.5 237.5 134.5 260C134.5 311 173.75 373 226.5 425.75ZM342 327.5C345.75 327.5 349.75 326.25 352.25 324L436.25 239.75L457.75 216.25L456 261.75L456 293.75C456 301.75 461.75 308.25 470 309C478.5 309.25 485.25 302.25 485.25 293.75L485.25 185C485.25 175 479.75 169 469.75 169L360 169C351.5 169 344.5 176.25 345 184.75C345.25 192.75 351.5 198.75 360 198.75L393.5 198.75L438.25 196.75L415.25 218.5L331.5 302C328 305.5 326.75 309.25 326.75 313.5C326.75 322 333.25 327.5 342 327.5Z" fill="black" fill-opacity="0.85"/>
 </g>
</svg>
