<?xml version="1.0" encoding="UTF-8"?>
<!--Generator: Apple Native CoreSVG 326-->
<!DOCTYPE svg
PUBLIC "-//W3C//DTD SVG 1.1//EN"
       "http://www.w3.org/Graphics/SVG/1.1/DTD/svg11.dtd">
<svg version="1.1" xmlns="http://www.w3.org/2000/svg" xmlns:xlink="http://www.w3.org/1999/xlink" viewBox="0 0 704.25 698.25">
 <g>
  <rect height="698.25" opacity="0" width="704.25" x="0" y="0"/>
  <path d="M190 698.25C203.75 698.25 213.25 691 229.5 676.5L342.25 577.25L563.25 577.25C653.75 577.25 704.25 525.5 704.25 436.5L704.25 181.5C704.25 92.25 653.75 40.5 563.25 40.5L141 40.5C50.25 40.5 0 92 0 181.5L0 436.5C0 526 50.25 577.25 141 577.25L159.75 577.25L159.75 663.25C159.75 684.5 170.75 698.25 190 698.25ZM201 648L201 554C201 538.75 195.25 533 180.25 533L141.25 533C76.75 533 44.25 498.5 44.25 436L44.25 181.75C44.25 119.25 76.75 84.75 141.25 84.75L563 84.75C626.75 84.75 660 119.25 660 181.75L660 436C660 498.5 626.75 533 563 533L341.25 533C325.5 533 317.25 535.5 306.25 546.75Z" fill="black" fill-opacity="0.85"/>
  <path d="M204.5 309C204.5 322.25 214.25 331.5 228.25 331.5L329.25 331.5L329.25 432.75C329.25 446.5 338.75 456.25 351.75 456.25C365.75 456.25 375.25 446.75 375.25 432.75L375.25 331.5L476.5 331.5C490.25 331.5 500 322.25 500 309C500 295.25 490.5 285.5 476.5 285.5L375.25 285.5L375.25 184.5C375.25 170.5 365.75 160.75 351.75 160.75C338.75 160.75 329.25 170.5 329.25 184.5L329.25 285.5L228.25 285.5C214.25 285.5 204.5 295.25 204.5 309Z" fill="black" fill-opacity="0.85"/>
 </g>
</svg>
