<?xml version="1.0" encoding="UTF-8"?>
<!--Generator: Apple Native CoreSVG 326-->
<!DOCTYPE svg
PUBLIC "-//W3C//DTD SVG 1.1//EN"
       "http://www.w3.org/Graphics/SVG/1.1/DTD/svg11.dtd">
<svg version="1.1" xmlns="http://www.w3.org/2000/svg" xmlns:xlink="http://www.w3.org/1999/xlink" viewBox="0 0 704.25 701.25">
 <g>
  <rect height="701.25" opacity="0" width="704.25" x="0" y="0"/>
  <path d="M704.25 183L704.25 438C704.25 527 653.75 578.5 563.25 578.5L333.5 578.5L216.75 683.75C204 695.5 195.75 701.25 184.75 701.25C168.75 701.25 159.5 689.75 159.5 672.25L159.5 578.5L141 578.5C50.25 578.5 0 527.5 0 438L0 183C0 93.5 50.25 42 141 42L563.25 42C653.75 42 704.25 93.75 704.25 183ZM328.5 180.25L328.5 286.25L222.5 286.25C208.25 286.25 198.25 296.25 198.25 310.5C198.25 324.25 208.5 333.75 222.5 333.75L328.5 333.75L328.5 440C328.5 453.75 338 464 351.75 464C366.25 464 376 454 376 440L376 333.75L482.25 333.75C496 333.75 506.25 324.25 506.25 310.5C506.25 296.25 496.25 286.25 482.25 286.25L376 286.25L376 180.25C376 166 366.25 156 351.75 156C338 156 328.5 166.25 328.5 180.25Z" fill="black" fill-opacity="0.85"/>
 </g>
</svg>
