<?xml version="1.0" encoding="UTF-8"?>
<!--Generator: Apple Native CoreSVG 326-->
<!DOCTYPE svg
PUBLIC "-//W3C//DTD SVG 1.1//EN"
       "http://www.w3.org/Graphics/SVG/1.1/DTD/svg11.dtd">
<svg version="1.1" xmlns="http://www.w3.org/2000/svg" xmlns:xlink="http://www.w3.org/1999/xlink" viewBox="0 0 724.25 665.25">
 <g>
  <rect height="665.25" opacity="0" width="724.25" x="0" y="0"/>
  <path d="M137.75 665C179.25 665 263.5 625.25 328 581C547.25 591.5 724.25 464.5 724.25 291.25C724.25 130.25 563.5 0 362.25 0C160.75 0 0 130.25 0 291.25C0 396.5 67.5 489.75 169.5 537.5C155 565.5 129 600.5 114.75 618.75C98.25 640 107.25 665 137.75 665ZM165.25 619.25C162.75 620 161.75 618.5 163.5 616.25C180.75 595.25 206.75 562.5 218.25 539.75C226 525.5 223.75 512.75 206.5 504.75C105.25 457.75 45.5 380.25 45.5 291.25C45.5 155.5 186 45.5 362.25 45.5C538.25 45.5 678.75 155.5 678.75 291.25C678.75 426.75 538.25 537 362.25 537C353.25 537 341.75 536.5 327.75 535.75C316 535.75 306.5 539.25 296 547.25C252.5 576.5 194 610 165.25 619.25Z" fill="black" fill-opacity="0.85"/>
  <path d="M214.5 293.75C214.5 307 224.25 316.5 238 316.5L339 316.5L339 417.75C339 431.25 348.5 441 361.75 441C375.5 441 385.25 431.5 385.25 417.75L385.25 316.5L486.5 316.5C500 316.5 509.75 307 509.75 293.75C509.75 280 500.25 270.25 486.5 270.25L385.25 270.25L385.25 169.25C385.25 155.25 375.5 145.75 361.75 145.75C348.5 145.75 339 155.25 339 169.25L339 270.25L238 270.25C224 270.25 214.5 280 214.5 293.75Z" fill="black" fill-opacity="0.85"/>
 </g>
</svg>
