<?xml version="1.0" encoding="UTF-8"?>
<!--Generator: Apple Native CoreSVG 326-->
<!DOCTYPE svg
PUBLIC "-//W3C//DTD SVG 1.1//EN"
       "http://www.w3.org/Graphics/SVG/1.1/DTD/svg11.dtd">
<svg version="1.1" xmlns="http://www.w3.org/2000/svg" xmlns:xlink="http://www.w3.org/1999/xlink" viewBox="0 0 698.75 441.25">
 <g>
  <rect height="441.25" opacity="0" width="698.75" x="0" y="0"/>
  <path d="M317.5 288.5C317.5 204 254.75 136.5 173.5 136.5C134.25 136.5 96.25 152 68 184.5L59.5 184.5C76.25 123 133.5 65.5 211.25 44.75C220.5 41.75 227.5 39.5 231.5 36.25C237 33 240.75 28.25 240.75 21C240.75 8.5 231.25 0.25 217.5 0.25C207.25 0.25 198.75 2.25 185.5 6.5C140.5 20.5 100 45.75 69.25 78.5C26.25 123.25 0 183 0 253.25C0 372.5 75.5 441.25 164 441.25C251.5 441.25 317.5 374.5 317.5 288.5ZM698.75 288.5C698.75 204 636 136.5 554.75 136.5C515.75 136.5 477.25 152 449.5 184.5L440.75 184.5C457.5 123 514.75 65.5 592.25 44.75C601.5 41.75 608.75 39.5 612.75 36.25C618.5 33 621.75 28.25 621.75 21C621.75 8.5 612.75 0.25 599 0.25C588.25 0.25 580.25 2.25 566.5 6.5C521.75 20.5 481.25 45.75 450.25 78.5C407.5 123.25 381.5 183 381.5 253.25C381.5 372.5 456.75 441.25 545.5 441.25C633 441.25 698.75 374.5 698.75 288.5Z" fill="black" fill-opacity="0.85"/>
 </g>
</svg>
