<?xml version="1.0" encoding="UTF-8"?>
<!--Generator: Apple Native CoreSVG 326-->
<!DOCTYPE svg
PUBLIC "-//W3C//DTD SVG 1.1//EN"
       "http://www.w3.org/Graphics/SVG/1.1/DTD/svg11.dtd">
<svg version="1.1" xmlns="http://www.w3.org/2000/svg" xmlns:xlink="http://www.w3.org/1999/xlink" viewBox="0 0 698.75 441.25">
 <g>
  <rect height="441.25" opacity="0" width="698.75" x="0" y="0"/>
  <path d="M0 153C0 237.5 62.75 305 144.25 305C183.25 305 221.5 289.5 249.5 257L258.25 257C241.25 318.5 184.25 376 106.5 396.75C97.5 399.75 90 402 86 405.25C80.25 408.5 77 413.25 77 420.5C77 433 86.25 441.25 99.75 441.25C110.5 441.25 118.75 439.25 132.25 435C177.25 421 217.5 395.75 248.5 363C291.25 318.25 317.5 258.5 317.5 188.25C317.5 69 242 0.25 153.5 0.25C66 0.25 0 67 0 153ZM381.5 153C381.5 237.5 444 305 525.5 305C564.75 305 602.75 289.5 631 257L639.5 257C622.75 318.5 565.5 376 487.5 396.75C478.5 399.75 471.5 402 467.25 405.25C461.75 408.5 458.25 413.25 458.25 420.5C458.25 433 467.5 441.25 481.25 441.25C491.75 441.25 500.25 439.25 513.5 435C558.5 421 598.75 395.75 629.75 363C672.5 318.25 698.75 258.5 698.75 188.25C698.75 69 623.25 0.25 534.75 0.25C447.25 0.25 381.5 67 381.5 153Z" fill="black" fill-opacity="0.85"/>
 </g>
</svg>
