<?xml version="1.0" encoding="UTF-8"?>
<!--Generator: Apple Native CoreSVG 326-->
<!DOCTYPE svg
PUBLIC "-//W3C//DTD SVG 1.1//EN"
       "http://www.w3.org/Graphics/SVG/1.1/DTD/svg11.dtd">
<svg version="1.1" xmlns="http://www.w3.org/2000/svg" xmlns:xlink="http://www.w3.org/1999/xlink" viewBox="0 0 651.25 651.75">
 <g>
  <rect height="651.75" opacity="0" width="651.25" x="0" y="0"/>
  <path d="M325.5 651.25C505.25 651.25 651.25 505.5 651.25 325.75C651.25 146 505.25 0 325.5 0C145.75 0 0 146 0 325.75C0 505.5 145.75 651.25 325.5 651.25ZM325.5 604.75C171.25 604.75 46.5 480 46.5 325.75C46.5 171.5 171.25 46.75 325.5 46.75C479.75 46.75 604.5 171.5 604.5 325.75C604.5 480 479.75 604.75 325.5 604.75Z" fill="black" fill-opacity="0.85"/>
  <path d="M120.5 325.75C120.5 377 162 418.75 213.25 418.75L437.5 418.75C489 418.75 530.5 377 530.5 325.75C530.5 274.25 489 232.25 437.5 232.25C386 232.25 344.5 274.25 344.5 325.75C344.5 349 353.5 371 369.25 387.25L281.5 387.25C297.5 371 306.5 349 306.5 325.75C306.5 274.25 264.75 232.25 213.25 232.25C162 232.25 120.5 274.25 120.5 325.75ZM152 325.5C152 291.75 179.75 264 213.5 264C247.25 264 274.75 291.75 274.75 325.5C274.75 359.75 247.5 387.25 213.5 387.25C179.5 387.25 152 359.5 152 325.5ZM376.25 325.5C376.25 291.75 403.5 264 437.25 264C471 264 499 291.75 499 325.5C499 359.5 471.25 387.25 437.25 387.25C403.25 387.25 376.25 359.75 376.25 325.5Z" fill="black" fill-opacity="0.85"/>
 </g>
</svg>
