<?xml version="1.0" encoding="UTF-8"?>
<!--Generator: Apple Native CoreSVG 326-->
<!DOCTYPE svg
PUBLIC "-//W3C//DTD SVG 1.1//EN"
       "http://www.w3.org/Graphics/SVG/1.1/DTD/svg11.dtd">
<svg version="1.1" xmlns="http://www.w3.org/2000/svg" xmlns:xlink="http://www.w3.org/1999/xlink" viewBox="0 0 651.25 651.75">
 <g>
  <rect height="651.75" opacity="0" width="651.25" x="0" y="0"/>
  <path d="M651.25 325.75C651.25 505 505 651.25 325.5 651.25C146.25 651.25 0 505 0 325.75C0 146.25 146.25 0 325.5 0C505 0 651.25 146.25 651.25 325.75ZM345 325.75C345 349.5 354 372 370 388.5L280.75 388.5C297 372 306 349.5 306 325.75C306 273 263.25 230 210.5 230C158 230 115.5 273 115.5 325.75C115.5 378.25 158 421 210.5 421L440.25 421C493 421 535.5 378.25 535.5 325.75C535.5 273 493 230 440.25 230C387.5 230 345 273 345 325.75ZM273.25 325.5C273.25 360.5 245.5 388.5 210.75 388.5C176 388.5 148 360.25 148 325.5C148 291 176.25 262.75 210.75 262.75C245.25 262.75 273.25 291 273.25 325.5ZM503 325.5C503 360.25 474.75 388.5 440 388.5C405.5 388.5 377.75 360.5 377.75 325.5C377.75 291 405.75 262.75 440 262.75C474.5 262.75 503 291 503 325.5Z" fill="black" fill-opacity="0.85"/>
 </g>
</svg>
