<?xml version="1.0" encoding="UTF-8"?>
<!--Generator: Apple Native CoreSVG 326-->
<!DOCTYPE svg
PUBLIC "-//W3C//DTD SVG 1.1//EN"
       "http://www.w3.org/Graphics/SVG/1.1/DTD/svg11.dtd">
<svg version="1.1" xmlns="http://www.w3.org/2000/svg" xmlns:xlink="http://www.w3.org/1999/xlink" viewBox="0 0 704.25 698.25">
 <g>
  <rect height="698.25" opacity="0" width="704.25" x="0" y="0"/>
  <path d="M190 698.25C203.75 698.25 213.25 691 229.5 676.5L342.25 577.25L563.25 577.25C653.75 577.25 704.25 525.5 704.25 436.5L704.25 181.5C704.25 92.25 653.75 40.5 563.25 40.5L141 40.5C50.25 40.5 0 92 0 181.5L0 436.5C0 526 50.25 577.25 141 577.25L159.75 577.25L159.75 663.25C159.75 684.5 170.75 698.25 190 698.25ZM201 648L201 554C201 538.75 195.25 533 180.25 533L141.25 533C76.75 533 44.25 498.5 44.25 436L44.25 181.75C44.25 119.25 76.75 84.75 141.25 84.75L563 84.75C626.75 84.75 660 119.25 660 181.75L660 436C660 498.5 626.75 533 563 533L341.25 533C325.5 533 317.25 535.5 306.25 546.75Z" fill="black" fill-opacity="0.85"/>
  <path d="M476 424.5C483.25 429 491.5 427.75 496.5 420.75C518.5 391 531.25 352.25 531.25 308.5C531.25 268.25 519.25 229 496.75 196.5C491.5 189.25 482.75 187.5 476 192.25C469.25 197.75 468 206.25 473 213.75C491.75 240.25 501.5 273.25 501.5 308.5C501.5 344.5 491.5 379.25 472.75 403.25C467.5 410.5 468.5 419.75 476 424.5Z" fill="black" fill-opacity="0.85"/>
  <path d="M417 381.25C423.25 386 432.5 384.5 437.75 377.5C451.25 360.25 458.75 334.75 458.75 308.5C458.75 282.75 451 257.5 437.75 239.75C432.75 232.75 423.25 231.25 417 236C409.75 241.5 408.5 250.25 413.75 257.75C423 269.5 428.75 288.5 428.75 308.5C428.75 327.75 423 346.5 413.5 359.75C408.5 367.25 409.75 375.5 417 381.25Z" fill="black" fill-opacity="0.85"/>
  <path d="M343 454.25C352.75 454.25 359.5 447 359.5 437.25L359.5 181C359.5 171 352.75 163.25 342.75 163.25C335.5 163.25 330.75 166.5 323.5 173.25L250.75 242.25C249.5 243.5 248 243.75 246 243.75L196.5 243.75C176.25 243.75 164 256 164 277.5L164 340.5C164 362 176.25 374.25 196.5 374.25L246 374.25C248 374.25 249.5 374.75 250.75 376L323.5 445C330 451.25 335.75 454.25 343 454.25Z" fill="black" fill-opacity="0.85"/>
 </g>
</svg>
