<?xml version="1.0" encoding="UTF-8"?>
<!--Generator: Apple Native CoreSVG 326-->
<!DOCTYPE svg
PUBLIC "-//W3C//DTD SVG 1.1//EN"
       "http://www.w3.org/Graphics/SVG/1.1/DTD/svg11.dtd">
<svg version="1.1" xmlns="http://www.w3.org/2000/svg" xmlns:xlink="http://www.w3.org/1999/xlink" viewBox="0 0 704.25 701.25">
 <g>
  <rect height="701.25" opacity="0" width="704.25" x="0" y="0"/>
  <path d="M704.25 183L704.25 438C704.25 527 653.75 578.5 563.25 578.5L333.5 578.5L216.75 683.75C204 695.5 195.75 701.25 184.75 701.25C168.75 701.25 159.5 689.75 159.5 672.25L159.5 578.5L141 578.5C50.25 578.5 0 527.5 0 438L0 183C0 93.5 50.25 42 141 42L563.25 42C653.75 42 704.25 93.75 704.25 183ZM322.5 171.25L248.25 241.75C247 243 245.25 243.25 243.25 243.25L192.75 243.25C172 243.25 159.25 256 159.25 278L159.25 342.5C159.25 364.5 172 377.25 192.75 377.25L243.25 377.25C245.25 377.25 247 377.75 248.25 379L322.5 449.5C329.25 456 335.25 459 342.75 459C352.75 459 359.75 451.5 359.75 441.5L359.75 179.25C359.75 169 352.75 161 342.25 161C335 161 330 164.25 322.5 171.25ZM478.75 190.75C471.75 196.25 470.5 205.25 475.5 212.75C494.75 240 505 273.75 505 309.75C505 346.5 494.5 382 475.25 406.75C470 414 471 423.75 478.75 428.5C486.25 433.25 494.75 431.75 499.75 424.75C522.25 394.25 535.5 354.5 535.5 309.75C535.5 268.5 523.25 228.25 500 195C495 187.5 486 185.75 478.75 190.75ZM418.5 235.5C411 241.25 409.5 250 415 258C424.5 270 430.25 289.25 430.25 309.75C430.25 329.5 424.5 348.5 414.75 362C409.5 369.75 411 378.25 418.5 384.25C424.75 389.25 434.25 387.5 439.75 380.5C453.5 362.75 461.25 336.75 461.25 309.75C461.25 283.5 453.25 257.5 439.75 239.25C434.5 232.25 424.75 230.25 418.5 235.5Z" fill="black" fill-opacity="0.85"/>
 </g>
</svg>
