<?xml version="1.0" encoding="UTF-8"?>
<!--Generator: Apple Native CoreSVG 326-->
<!DOCTYPE svg
PUBLIC "-//W3C//DTD SVG 1.1//EN"
       "http://www.w3.org/Graphics/SVG/1.1/DTD/svg11.dtd">
<svg version="1.1" xmlns="http://www.w3.org/2000/svg" xmlns:xlink="http://www.w3.org/1999/xlink" viewBox="0 0 651.25 651.75">
 <g>
  <rect height="651.75" opacity="0" width="651.25" x="0" y="0"/>
  <path d="M325.5 651.25C505.25 651.25 651.25 505.5 651.25 325.75C651.25 146 505.25 0 325.5 0C145.75 0 0 146 0 325.75C0 505.5 145.75 651.25 325.5 651.25ZM325.5 604.75C171.25 604.75 46.5 480 46.5 325.75C46.5 171.5 171.25 46.75 325.5 46.75C479.75 46.75 604.5 171.5 604.5 325.75C604.5 480 479.75 604.75 325.5 604.75Z" fill="black" fill-opacity="0.85"/>
  <path d="M184 427.75C229 472.75 283.25 507.5 327 507.5C347.25 507.5 365 499 376.75 486C388 473.5 391.75 464.25 391.75 455.5C391.75 449.25 387.75 443.25 377.75 436.25L340 409.25C330.5 402.5 326.5 401.25 320.75 401.25C316.25 401.25 312.25 402.25 304.25 406.75L279.75 420.25C276.75 421.75 275.25 422.25 273.25 422.25C270.5 422.25 268.5 421.5 265.5 420.25C253.5 414.75 237.25 402 222.75 387.25C208.25 372.75 197 357.75 191 346.25C190.25 344.75 189.25 342.25 189.25 339.75C189.25 337.75 190.25 336 191.5 334L206 309.25C209.75 302.25 211 298.75 211 293.5C211 287.5 209.25 281 203.25 273L177.25 236.75C170 226.5 164.5 220.25 156.25 220.25C146 220.25 133.75 228.25 124.5 236.75C111.75 249 105 266.25 105 285.5C105 329.5 138.75 382.5 184 427.75ZM263.75 288.5L290.5 288.5C301 288.5 307 282.25 307 272L307 245.75C307 235 301 229.5 290.5 229.5L263.75 229.5C253.5 229.5 247.25 235 247.25 245.75L247.25 272C247.25 282.25 253.5 288.5 263.75 288.5ZM343 288.5L369.5 288.5C380 288.5 385.5 282.25 385.5 272L385.5 245.75C385.5 235 380 229.5 369.5 229.5L343 229.5C332.5 229.5 325.75 235 325.75 245.75L325.75 272C325.75 282.25 332.5 288.5 343 288.5ZM421.25 288.5L447.75 288.5C458.5 288.5 464.75 282.25 464.75 272L464.75 245.75C464.75 235 458.5 229.5 447.75 229.5L421.25 229.5C411 229.5 405.25 235 405.25 245.75L405.25 272C405.25 282.25 411 288.5 421.25 288.5ZM500.25 288.5L526.75 288.5C538 288.5 543.75 282.25 543.75 272L543.75 245.75C543.75 235 538 229.5 526.75 229.5L500.25 229.5C490 229.5 484.25 235 484.25 245.75L484.25 272C484.25 282.25 490 288.5 500.25 288.5ZM263.5 367.5L290 367.5C301 367.5 307 361.75 307 351.25L307 324.5C307 313.75 301 308.25 290 308.25L263.5 308.25C252.75 308.25 247.25 313.75 247.25 324.5L247.25 351.25C247.25 361.75 252.75 367.5 263.5 367.5ZM342.5 367.5L448.5 367.5C459 367.5 464.75 361.75 464.75 351.25L464.75 324.5C464.75 313.75 459 308.25 448.5 308.25L342.5 308.25C332 308.25 325.75 313.75 325.75 324.5L325.75 351.25C325.75 361.75 332 367.5 342.5 367.5ZM500.5 367.5L527.5 367.5C538.25 367.5 543.75 361.75 543.75 351.25L543.75 324.5C543.75 313.75 538.25 308.25 527.5 308.25L500.5 308.25C490.5 308.25 484.25 313.75 484.25 324.5L484.25 351.25C484.25 361.75 490.5 367.5 500.5 367.5Z" fill="black" fill-opacity="0.85"/>
 </g>
</svg>
