<?xml version="1.0" encoding="UTF-8"?>
<!--Generator: Apple Native CoreSVG 326-->
<!DOCTYPE svg
PUBLIC "-//W3C//DTD SVG 1.1//EN"
       "http://www.w3.org/Graphics/SVG/1.1/DTD/svg11.dtd">
<svg version="1.1" xmlns="http://www.w3.org/2000/svg" xmlns:xlink="http://www.w3.org/1999/xlink" viewBox="0 0 922 596.25">
 <g>
  <rect height="596.25" opacity="0" width="922" x="0" y="0"/>
  <path d="M343.25 139.25L397.25 139.25C418.75 139.25 430.5 127.25 430.5 105.75L430.5 51.25C430.5 29.75 418.75 17.75 397.25 17.75L343.25 17.75C321.75 17.75 309.25 29.75 309.25 51.25L309.25 105.75C309.25 127.25 321.75 139.25 343.25 139.25ZM504.25 139.25L558.5 139.25C579.75 139.25 591.75 127.25 591.75 105.75L591.75 51.25C591.75 29.75 579.75 17.75 558.5 17.75L504.25 17.75C482.5 17.75 469.75 29.75 469.75 51.25L469.75 105.75C469.75 127.25 482.5 139.25 504.25 139.25ZM664.5 139.25L718.75 139.25C740 139.25 752.5 127.25 752.5 105.75L752.5 51.25C752.5 29.75 740 17.75 718.75 17.75L664.5 17.75C643.25 17.75 631 29.75 631 51.25L631 105.75C631 127.25 643.25 139.25 664.5 139.25ZM825 139.25L879.5 139.25C901 139.25 913.5 127.25 913.5 105.75L913.5 51.25C913.5 29.75 901 17.75 879.5 17.75L825 17.75C804 17.75 792.25 29.75 792.25 51.25L792.25 105.75C792.25 127.25 804 139.25 825 139.25ZM342.25 300.5L396.75 300.5C418.25 300.5 430.5 288.5 430.5 266.75L430.5 212C430.5 190.75 418.25 178.5 396.75 178.5L342.25 178.5C321.25 178.5 309.25 190.75 309.25 212L309.25 266.75C309.25 288.5 321.25 300.5 342.25 300.5ZM503.25 300.5L719.75 300.5C741.25 300.5 753 288.5 753 266.75L753 212C753 190.75 741.25 178.5 719.75 178.5L503.25 178.5C482 178.5 469.75 190.75 469.75 212L469.75 266.75C469.75 288.5 482 300.5 503.25 300.5ZM826.25 300.5L880.75 300.5C902 300.5 913.5 288.5 913.5 266.75L913.5 212C913.5 190.75 902 178.5 880.75 178.5L826.25 178.5C804.75 178.5 792.5 190.75 792.5 212L792.5 266.75C792.5 288.5 804.75 300.5 826.25 300.5ZM163.5 430.25C257.5 524.25 369.75 596 460.25 596C502.75 596 539.75 579 564 551.75C587.25 525.5 595.25 506.25 595.25 489C595.25 475.25 586.75 463 566 448.25L487.75 392.5C468.5 378.75 459.75 376.25 448.5 376.25C438.5 376.25 430 378 413.5 387L362.75 415.25C356.75 418.5 353.75 419 349.5 419C343.5 419 339.25 417.5 333.25 415.25C308.75 403.75 274.75 377.25 244.5 346.75C214.25 316.5 190.75 285.75 178.5 261.25C176.75 258 174.75 253 174.75 248C174.75 244 177.25 240.25 179.75 235.75L209.75 184.5C217.75 170.5 220 163 220 152C220 139.5 216 126.25 204 109.5L150.5 34.5C135.25 13 123.75 0 106.25 0C85 0 59.25 16.5 40.75 34.25C14.25 60 0 95.5 0 135.75C0 226.75 70.25 337 163.5 430.25Z" fill="black" fill-opacity="0.85"/>
 </g>
</svg>
