<?xml version="1.0" encoding="UTF-8"?>
<!--Generator: Apple Native CoreSVG 326-->
<!DOCTYPE svg
PUBLIC "-//W3C//DTD SVG 1.1//EN"
       "http://www.w3.org/Graphics/SVG/1.1/DTD/svg11.dtd">
<svg version="1.1" xmlns="http://www.w3.org/2000/svg" xmlns:xlink="http://www.w3.org/1999/xlink" viewBox="0 0 651.25 651.75">
 <g>
  <rect height="651.75" opacity="0" width="651.25" x="0" y="0"/>
  <path d="M325.5 651.25C505.25 651.25 651.25 505.5 651.25 325.75C651.25 146 505.25 0 325.5 0C145.75 0 0 146 0 325.75C0 505.5 145.75 651.25 325.5 651.25ZM325.5 604.75C171.25 604.75 46.5 480 46.5 325.75C46.5 171.5 171.25 46.75 325.5 46.75C479.75 46.75 604.5 171.5 604.5 325.75C604.5 480 479.75 604.75 325.5 604.75Z" fill="black" fill-opacity="0.85"/>
  <path d="M325.25 162.5C262.75 162.5 191.5 174 157 210C143.5 223 135.75 240 135.75 261.25C135.75 275.25 140 295 155 298C160 300.5 165.5 300.25 172.75 299L220 291.25C236.25 288.5 244 282.5 248.5 266.75L256 238C258 232.75 259.5 230.5 266 228.5C279 223.5 299.75 221 325.25 221C351 221 371.75 223.5 384.75 228.5C391.25 230.5 392.75 232.75 394.5 238L402.25 266.75C406.5 282.5 414.5 288.5 430.75 291.25L477.75 299C485 300.25 490.75 300.5 495.5 298C510.5 295 514.75 275.25 514.75 261.25C514.75 240 507 223 493.5 210C459 174 388 162.5 325.25 162.5ZM175 397.75L205.5 397.75C217.25 397.75 223.75 391.5 223.75 379.5L223.75 348.75C223.75 337.25 217.25 330.5 205.5 330.5L175 330.5C163.25 330.5 156.5 337.25 156.5 348.75L156.5 379.5C156.5 391.5 163.25 397.75 175 397.75ZM265.25 397.75L295.5 397.75C307.25 397.75 314 391.5 314 379.5L314 348.75C314 337.25 307.25 330.5 295.5 330.5L265.25 330.5C253 330.5 246 337.25 246 348.75L246 379.5C246 391.5 253 397.75 265.25 397.75ZM354.25 397.75L384.75 397.75C396.5 397.75 403.75 391.5 403.75 379.5L403.75 348.75C403.75 337.25 396.5 330.5 384.75 330.5L354.25 330.5C342.5 330.5 335.75 337.25 335.75 348.75L335.75 379.5C335.75 391.5 342.5 397.75 354.25 397.75ZM444 397.75L474.25 397.75C486.5 397.75 493.5 391.5 493.5 379.5L493.5 348.75C493.5 337.25 486.5 330.5 474.25 330.5L444 330.5C432.5 330.5 425.5 337.25 425.5 348.75L425.5 379.5C425.5 391.5 432.5 397.75 444 397.75ZM174.75 488L205 488C217.25 488 223.75 481 223.75 469.25L223.75 438.75C223.75 427 217.25 420 205 420L174.75 420C163 420 156.5 427 156.5 438.75L156.5 469.25C156.5 481 163 488 174.75 488ZM264.5 488L385.25 488C397.25 488 404 481 404 469.25L404 438.75C404 427 397.25 420 385.25 420L264.5 420C252.75 420 246 427 246 438.75L246 469.25C246 481 252.75 488 264.5 488ZM444.75 488L475 488C487 488 493.5 481 493.5 469.25L493.5 438.75C493.5 427 487 420 475 420L444.75 420C432.75 420 425.75 427 425.75 438.75L425.75 469.25C425.75 481 432.75 488 444.75 488Z" fill="black" fill-opacity="0.85"/>
 </g>
</svg>
