<?xml version="1.0" encoding="UTF-8"?>
<!--Generator: Apple Native CoreSVG 326-->
<!DOCTYPE svg
PUBLIC "-//W3C//DTD SVG 1.1//EN"
       "http://www.w3.org/Graphics/SVG/1.1/DTD/svg11.dtd">
<svg version="1.1" xmlns="http://www.w3.org/2000/svg" xmlns:xlink="http://www.w3.org/1999/xlink" viewBox="0 0 651.25 651.75">
 <g>
  <rect height="651.75" opacity="0" width="651.25" x="0" y="0"/>
  <path d="M651.25 326C651.25 505.5 505 651.75 325.5 651.75C146.25 651.75 0 505.5 0 326C0 146.75 146.25 0.5 325.5 0.5C505 0.5 651.25 146.75 651.25 326ZM120 234C106.75 246.75 99.75 264.5 99.75 284.25C99.75 329 134.5 383.5 181 429.75C227 475.75 282.5 511.25 327.25 511.25C348.25 511.25 366.25 502.75 378.25 489.5C389.75 476.25 393.5 467.25 393.5 458.25C393.5 451.75 389.5 445.75 379.25 438.25L340.5 410.75C331 404 327 402.75 321 402.75C316.25 402.75 312.25 403.75 304 408L279 421.75C275.75 423.5 274.25 424.25 272.25 424.25C269.5 424.25 267.5 423.25 264.25 421.75C252 416.25 235.5 403.25 220.5 388.25C205.75 373.25 194.25 358 187.75 346.25C187.25 344.5 186.25 342 186.25 339.5C186.25 337.5 187.25 335.75 188.5 333.5L203.25 308.5C207.25 301.25 208.5 297.75 208.5 292.25C208.5 286.25 206.75 279.5 200.5 271L174 234C166.5 223.75 161 217 152.5 217C141.75 217 129.25 225.5 120 234ZM262.25 307.5C251.25 307.5 245.75 313 245.75 324L245.75 351.25C245.75 362.25 251.25 368 262.25 368L289.5 368C300.75 368 306.75 362.25 306.75 351.25L306.75 324C306.75 313 300.75 307.5 289.5 307.5ZM343.25 307.5C332.5 307.5 326 313 326 324L326 351.25C326 362.25 332.5 368 343.25 368L451.75 368C462.5 368 468.5 362.25 468.5 351.25L468.5 324C468.5 313 462.5 307.5 451.75 307.5ZM505.25 307.5C494.75 307.5 488.25 313 488.25 324L488.25 351.25C488.25 362.25 494.75 368 505.25 368L532.5 368C543.75 368 549.25 362.25 549.25 351.25L549.25 324C549.25 313 543.75 307.5 532.5 307.5ZM262.5 226.5C252 226.5 245.75 232.25 245.75 243.25L245.75 270.25C245.75 280.75 252 287.25 262.5 287.25L290 287.25C300.75 287.25 306.75 280.75 306.75 270.25L306.75 243.25C306.75 232.25 300.75 226.5 290 226.5ZM343.75 226.5C333 226.5 326 232.25 326 243.25L326 270.25C326 280.75 333 287.25 343.75 287.25L370.75 287.25C381.5 287.25 387.25 280.75 387.25 270.25L387.25 243.25C387.25 232.25 381.5 226.5 370.75 226.5ZM423.75 226.5C413.25 226.5 407.75 232.25 407.75 243.25L407.75 270.25C407.75 280.75 413.25 287.25 423.75 287.25L451.25 287.25C462 287.25 468.25 280.75 468.25 270.25L468.25 243.25C468.25 232.25 462 226.5 451.25 226.5ZM504.75 226.5C494.25 226.5 488.25 232.25 488.25 243.25L488.25 270.25C488.25 280.75 494.25 287.25 504.75 287.25L531.75 287.25C543.25 287.25 549.25 280.75 549.25 270.25L549.25 243.25C549.25 232.25 543.25 226.5 531.75 226.5Z" fill="black" fill-opacity="0.85"/>
 </g>
</svg>
