<?xml version="1.0" encoding="UTF-8"?>
<!--Generator: Apple Native CoreSVG 326-->
<!DOCTYPE svg
PUBLIC "-//W3C//DTD SVG 1.1//EN"
       "http://www.w3.org/Graphics/SVG/1.1/DTD/svg11.dtd">
<svg version="1.1" xmlns="http://www.w3.org/2000/svg" xmlns:xlink="http://www.w3.org/1999/xlink" viewBox="0 0 704.25 701.25">
 <g>
  <rect height="701.25" opacity="0" width="704.25" x="0" y="0"/>
  <path d="M704.25 183L704.25 438C704.25 527 653.75 578.5 563.25 578.5L333.5 578.5L216.75 683.75C204 695.5 195.75 701.25 184.75 701.25C168.75 701.25 159.5 689.75 159.5 672.25L159.5 578.5L141 578.5C50.25 578.5 0 527.5 0 438L0 183C0 93.5 50.25 42 141 42L563.25 42C653.75 42 704.25 93.75 704.25 183ZM178.5 397.5C169.25 397.5 161.75 405 161.75 414.5C161.75 424 169.25 431.5 178.5 431.5L400.5 431.5C409.75 431.5 417.25 424 417.25 414.5C417.25 405 409.75 397.5 400.5 397.5ZM178.5 289.75C169.25 289.75 161.75 297.5 161.75 306.75C161.75 316.25 169.25 323.75 178.5 323.75L518 323.75C527.5 323.75 535 316.25 535 306.75C535 297.5 527.5 289.75 518 289.75ZM178.5 182.5C169.25 182.5 161.75 190 161.75 199.25C161.75 208.75 169.25 216.25 178.5 216.25L518 216.25C527.5 216.25 535 208.75 535 199.25C535 190 527.5 182.5 518 182.5Z" fill="black" fill-opacity="0.85"/>
 </g>
</svg>
