<?xml version="1.0" encoding="UTF-8"?>
<!--Generator: Apple Native CoreSVG 326-->
<!DOCTYPE svg
PUBLIC "-//W3C//DTD SVG 1.1//EN"
       "http://www.w3.org/Graphics/SVG/1.1/DTD/svg11.dtd">
<svg version="1.1" xmlns="http://www.w3.org/2000/svg" xmlns:xlink="http://www.w3.org/1999/xlink" viewBox="0 0 587.75 587.75">
 <g>
  <rect height="587.75" opacity="0" width="587.75" x="0" y="0"/>
  <path d="M587.75 96.5L587.75 491.5C587.75 555 555 587.75 490.25 587.75L97.25 587.75C32.75 587.75 0 555.5 0 491.5L0 96.5C0 32.5 32.75 0 97.25 0L490.25 0C555 0 587.75 32.75 587.75 96.5ZM158.25 161.75C126.5 161.75 106 180.5 106 213.5L106 374C106 406.75 125.5 425.75 158.25 425.75L333 425.75C366 425.75 385.25 406.75 385.25 374L385.25 213.5C385.25 180.5 367.5 161.75 334.25 161.75ZM466.5 195.25L403.5 248.25L403.5 339L466.5 392C472.25 397 478.5 400 484.25 400C496.25 400 504 391.5 504 378L504 209.25C504 196 496.25 187.75 484.25 187.75C478.5 187.75 471.75 190.5 466.5 195.25Z" fill="black" fill-opacity="0.85"/>
 </g>
</svg>
