<?xml version="1.0" encoding="UTF-8"?>
<!--Generator: Apple Native CoreSVG 326-->
<!DOCTYPE svg
PUBLIC "-//W3C//DTD SVG 1.1//EN"
       "http://www.w3.org/Graphics/SVG/1.1/DTD/svg11.dtd">
<svg version="1.1" xmlns="http://www.w3.org/2000/svg" xmlns:xlink="http://www.w3.org/1999/xlink" viewBox="0 0 915.75 754.626">
 <g>
  <rect height="754.626" opacity="0" width="915.75" x="0" y="0"/>
  <path d="M131.132 217.775C129.86 224.696 129.25 232.272 129.25 240.438L129.25 513.938C129.25 571.188 159.5 599.438 214.25 599.438L512.946 599.438L554.269 640.745C552.589 640.914 550.803 640.938 549 640.938L206.25 640.938C130 640.938 85 596.938 85 520.688L85 233.438C85 213.692 88.2023 196.108 94.285 180.943ZM670.25 233.438L670.25 285.546L796 180.438C808.75 169.938 822 162.938 835.25 162.938C861.25 162.938 878.5 182.188 878.5 210.688L878.5 543.688C878.5 572.188 861.25 591.188 835.25 591.188C822 591.188 808.75 584.188 796 573.938L670.25 468.83L670.25 520.688C670.25 540.956 667.088 558.945 660.918 574.356L623.949 537.387C625.337 530.257 626 522.416 626 513.938L626 240.438C626 182.938 595.75 154.688 541 154.688L241.25 154.688L199.988 113.426C202.002 113.225 204.115 113.188 206.25 113.188L549 113.188C625.5 113.188 670.25 157.188 670.25 233.438ZM817.5 217.438L670.25 337.676L670.25 416.45L817.5 536.688C821.5 539.688 824.75 542.188 828.25 542.188C833.25 542.188 835.75 538.438 835.75 531.938L835.75 222.188C835.75 215.938 833.25 211.938 828.25 211.938C824.75 211.938 821.5 214.188 817.5 217.438Z" fill="black" fill-opacity="0.85"/>
  <path d="M678.5 708.438C686.75 716.688 700.5 716.688 708.5 708.438C716.75 699.938 717 686.688 708.5 678.188L76.5 46.438C68.25 38.188 54.5 37.938 46 46.438C38 54.438 38 68.438 46 76.438Z" fill="black" fill-opacity="0.85"/>
 </g>
</svg>
