<?xml version="1.0" encoding="UTF-8"?>
<!--Generator: Apple Native CoreSVG 326-->
<!DOCTYPE svg
PUBLIC "-//W3C//DTD SVG 1.1//EN"
       "http://www.w3.org/Graphics/SVG/1.1/DTD/svg11.dtd">
<svg version="1.1" xmlns="http://www.w3.org/2000/svg" xmlns:xlink="http://www.w3.org/1999/xlink" viewBox="0 0 651.25 651.75">
 <g>
  <rect height="651.75" opacity="0" width="651.25" x="0" y="0"/>
  <path d="M651.25 326C651.25 505.5 505 651.75 325.5 651.75C146.25 651.75 0 505.5 0 326C0 146.75 146.25 0.5 325.5 0.5C505 0.5 651.25 146.75 651.25 326ZM160.75 161.25C155.5 166.75 155.75 175.5 160.75 180.5L471.25 490.75C476.25 496 485.25 496 490.5 490.75C495.75 485 495.75 476.75 490.5 471.5L180.25 161.25C175 155.75 166.5 155.75 160.75 161.25ZM137.5 246L137.5 406.25C137.5 439.25 157 458 190 458L364.5 458C378.131 458 389.416 454.801 397.923 448.673L154.569 205.319C143.675 214.069 137.5 227.888 137.5 246ZM498 227.5L435 280.75L435 371.5L498 424.5C503.75 429.5 510 432.25 515.75 432.25C527.75 432.25 535.75 423.75 535.75 410.5L535.75 241.75C535.75 228.5 527.75 220 515.75 220C510 220 503.25 223 498 227.5ZM244.461 194.25L416.75 366.678L416.75 246C416.75 213 399 194.25 365.75 194.25Z" fill="black" fill-opacity="0.85"/>
 </g>
</svg>
