<?xml version="1.0" encoding="UTF-8"?>
<!--Generator: Apple Native CoreSVG 326-->
<!DOCTYPE svg
PUBLIC "-//W3C//DTD SVG 1.1//EN"
       "http://www.w3.org/Graphics/SVG/1.1/DTD/svg11.dtd">
<svg version="1.1" xmlns="http://www.w3.org/2000/svg" xmlns:xlink="http://www.w3.org/1999/xlink" viewBox="0 0 651.25 651.75">
 <g>
  <rect height="651.75" opacity="0" width="651.25" x="0" y="0"/>
  <path d="M651.25 326C651.25 505.5 505 651.75 325.5 651.75C146.25 651.75 0 505.5 0 326C0 146.75 146.25 0.5 325.5 0.5C505 0.5 651.25 146.75 651.25 326ZM190 194.25C158 194.25 137.5 213 137.5 246L137.5 406.25C137.5 439.25 157 458 190 458L364.5 458C397.5 458 416.75 439.25 416.75 406.25L416.75 246C416.75 213 399 194.25 365.75 194.25ZM498 227.5L435 280.75L435 371.5L498 424.5C503.75 429.5 510 432.25 515.75 432.25C527.75 432.25 535.75 423.75 535.75 410.5L535.75 241.75C535.75 228.5 527.75 220 515.75 220C510 220 503.25 223 498 227.5Z" fill="black" fill-opacity="0.85"/>
 </g>
</svg>
