<?xml version="1.0" encoding="UTF-8"?>
<!--Generator: Apple Native CoreSVG 326-->
<!DOCTYPE svg
PUBLIC "-//W3C//DTD SVG 1.1//EN"
       "http://www.w3.org/Graphics/SVG/1.1/DTD/svg11.dtd">
<svg version="1.1" xmlns="http://www.w3.org/2000/svg" xmlns:xlink="http://www.w3.org/1999/xlink" viewBox="0 0 841.25 528.25">
 <g>
  <rect height="528.25" opacity="0" width="841.25" x="0" y="0"/>
  <path d="M169 527.75L511.75 527.75C588.25 527.75 633 483.75 633 407.5L633 120.25C633 44 588.25 0 511.75 0L169 0C95.5 0 47.75 44 47.75 120.25L47.75 407.5C47.75 483.75 92.75 527.75 169 527.75ZM177 486.25C122.25 486.25 92 458 92 400.75L92 127.25C92 69.75 122.25 41.5 177 41.5L503.75 41.5C558.5 41.5 588.75 69.75 588.75 127.25L588.75 400.75C588.75 458 558.5 486.25 503.75 486.25ZM626.25 178L626.25 230L780.25 104.25C784.25 101 787.5 98.75 791 98.75C796 98.75 798.5 102.75 798.5 109L798.5 418.75C798.5 425.25 796 429 791 429C787.5 429 784.25 426.5 780.25 423.5L626.25 297.75L626.25 350L758.75 460.75C771.5 471 784.75 478 798 478C824 478 841.25 459 841.25 430.5L841.25 97.5C841.25 69 824 49.75 798 49.75C784.75 49.75 771.5 56.75 758.75 67.25Z" fill="black" fill-opacity="0.85"/>
 </g>
</svg>
