<?xml version="1.0" encoding="UTF-8"?>
<!--Generator: Apple Native CoreSVG 326-->
<!DOCTYPE svg
PUBLIC "-//W3C//DTD SVG 1.1//EN"
       "http://www.w3.org/Graphics/SVG/1.1/DTD/svg11.dtd">
<svg version="1.1" xmlns="http://www.w3.org/2000/svg" xmlns:xlink="http://www.w3.org/1999/xlink" viewBox="0 0 651.25 651.75">
 <g>
  <rect height="651.75" opacity="0" width="651.25" x="0" y="0"/>
  <path d="M325.5 651.25C505.25 651.25 651.25 505.5 651.25 325.75C651.25 146 505.25 0 325.5 0C145.75 0 0 146 0 325.75C0 505.5 145.75 651.25 325.5 651.25ZM325.5 604.75C171.25 604.75 46.5 480 46.5 325.75C46.5 171.5 171.25 46.75 325.5 46.75C479.75 46.75 604.5 171.5 604.5 325.75C604.5 480 479.75 604.75 325.5 604.75Z" fill="black" fill-opacity="0.85"/>
  <path d="M191.75 454.75L362.25 454.75C394.5 454.75 413.25 436.25 413.25 404.25L413.25 248C413.25 215.75 395.75 197.5 363.5 197.5L191.75 197.5C160.5 197.5 140.5 215.75 140.5 248L140.5 404.25C140.5 436.25 159.5 454.75 191.75 454.75ZM431 370.25L492.25 422C498 426.5 504 429.75 509.75 429.75C521.25 429.75 529 421.25 529 408.25L529 243.5C529 231 521.25 222.5 509.75 222.5C504 222.5 497.75 225.75 492.25 230L431 281.75Z" fill="black" fill-opacity="0.85"/>
 </g>
</svg>
