<?xml version="1.0" encoding="UTF-8"?>
<!--Generator: Apple Native CoreSVG 326-->
<!DOCTYPE svg
PUBLIC "-//W3C//DTD SVG 1.1//EN"
       "http://www.w3.org/Graphics/SVG/1.1/DTD/svg11.dtd">
<svg version="1.1" xmlns="http://www.w3.org/2000/svg" xmlns:xlink="http://www.w3.org/1999/xlink" viewBox="0 0 651.25 651.75">
 <g>
  <rect height="651.75" opacity="0" width="651.25" x="0" y="0"/>
  <path d="M651.25 325.75C651.25 505.5 505.25 651.25 325.5 651.25C145.75 651.25 0 505.5 0 325.75C0 146 145.75 0 325.5 0C505.25 0 651.25 146 651.25 325.75ZM46.5 325.75C46.5 480 171.25 604.75 325.5 604.75C479.75 604.75 604.5 480 604.5 325.75C604.5 171.5 479.75 46.75 325.5 46.75C171.25 46.75 46.5 171.5 46.5 325.75Z" fill="black" fill-opacity="0.85"/>
  <path d="M395.891 444.891C387.457 451.339 376.098 454.75 362.25 454.75L191.75 454.75C159.5 454.75 140.5 436.25 140.5 404.25L140.5 248C140.5 229.644 146.979 215.824 158.341 207.341ZM529 243.5L529 408.25C529 421.25 521.25 429.75 509.75 429.75C504 429.75 498 426.5 492.25 422L431 370.25L431 281.75L492.25 230C497.75 225.75 504 222.5 509.75 222.5C521.25 222.5 529 231 529 243.5ZM413.25 248L413.25 364.177L246.711 197.5L363.5 197.5C395.75 197.5 413.25 215.75 413.25 248Z" fill="black" fill-opacity="0.85"/>
  <path d="M468 486.25C473 491.5 481.5 491.5 486.75 486.25C492 481 492 473 486.75 467.5L184 164.75C178.75 159.5 170.25 159.5 165 164.75C159.75 170 160 178.5 165 183.5Z" fill="black" fill-opacity="0.85"/>
 </g>
</svg>
