<?xml version="1.0" encoding="UTF-8"?>
<!--Generator: Apple Native CoreSVG 326-->
<!DOCTYPE svg
PUBLIC "-//W3C//DTD SVG 1.1//EN"
       "http://www.w3.org/Graphics/SVG/1.1/DTD/svg11.dtd">
<svg version="1.1" xmlns="http://www.w3.org/2000/svg" xmlns:xlink="http://www.w3.org/1999/xlink" viewBox="0 0 651.25 651.75">
 <g>
  <rect height="651.75" opacity="0" width="651.25" x="0" y="0"/>
  <path d="M651.25 326C651.25 505.5 505 651.75 325.5 651.75C146.25 651.75 0 505.5 0 326C0 146.75 146.25 0.5 325.5 0.5C505 0.5 651.25 146.75 651.25 326ZM274.5 157.25L274.5 494.25C274.5 504.5 281.75 511.75 292 511.75C301.75 511.75 309.5 504.25 309.5 494.25L309.5 157.25C309.5 147.25 301.75 139.75 292 139.75C282 139.75 274.5 147.25 274.5 157.25ZM408.25 206.75L408.25 444.75C408.25 454.5 416 462 426 462C436 462 443.5 454.5 443.5 444.75L443.5 206.75C443.5 197 436 189.25 426 189.25C416 189.25 408.25 197 408.25 206.75ZM207.5 234.75L207.5 416.5C207.5 426.75 215 434.25 225 434.25C235 434.25 242.5 426.75 242.5 416.5L242.5 234.75C242.5 224.75 235 217 225 217C215 217 207.5 224.75 207.5 234.75ZM341.5 264.75L341.5 386.75C341.5 396.5 349 404 358.75 404C368.75 404 376.5 396.5 376.5 386.75L376.5 264.75C376.5 255 368.75 247.5 358.75 247.5C349 247.5 341.5 255 341.5 264.75ZM475.5 278.5L475.5 373C475.5 383 483.25 390.5 493.25 390.5C503.25 390.5 510.5 383.25 510.5 373L510.5 278.5C510.5 268.25 503.25 260.75 493.25 260.75C483.25 260.75 475.5 268.5 475.5 278.5ZM140.5 294.5L140.5 356.75C140.5 366.75 148.25 374.25 157.75 374.25C167.75 374.25 175.5 366.75 175.5 356.75L175.5 294.5C175.5 284.75 167.75 277 157.75 277C148 277 140.5 284.75 140.5 294.5Z" fill="black" fill-opacity="0.85"/>
 </g>
</svg>
