<?xml version="1.0" encoding="UTF-8"?>
<!--Generator: Apple Native CoreSVG 326-->
<!DOCTYPE svg
PUBLIC "-//W3C//DTD SVG 1.1//EN"
       "http://www.w3.org/Graphics/SVG/1.1/DTD/svg11.dtd">
<svg version="1.1" xmlns="http://www.w3.org/2000/svg" xmlns:xlink="http://www.w3.org/1999/xlink" viewBox="0 0 651.25 651.75">
 <g>
  <rect height="651.75" opacity="0" width="651.25" x="0" y="0"/>
  <path d="M325.5 651.25C505.25 651.25 651.25 505.5 651.25 325.75C651.25 146 505.25 0 325.5 0C145.75 0 0 146 0 325.75C0 505.5 145.75 651.25 325.5 651.25ZM325.5 604.75C171.25 604.75 46.5 480 46.5 325.75C46.5 171.5 171.25 46.75 325.5 46.75C479.75 46.75 604.5 171.5 604.5 325.75C604.5 480 479.75 604.75 325.5 604.75Z" fill="black" fill-opacity="0.85"/>
  <path d="M488.75 388.75C498.5 388.75 505.75 381.5 505.75 371.75L505.75 278.75C505.75 269 498.5 262 488.75 262C479 262 471.75 269.25 471.75 278.75L471.75 371.75C471.75 381.25 479 388.75 488.75 388.75Z" fill="black" fill-opacity="0.85"/>
  <path d="M423.25 458.5C433 458.5 440.25 451 440.25 441.5L440.25 209C440.25 199.5 433 192.25 423.25 192.25C413.75 192.25 406.25 199.5 406.25 209L406.25 441.5C406.25 451 413.75 458.5 423.25 458.5Z" fill="black" fill-opacity="0.85"/>
  <path d="M357.75 401.75C367.5 401.75 375 394.5 375 385L375 265.5C375 256 367.5 248.75 357.75 248.75C348.25 248.75 341 256 341 265.5L341 385C341 394.5 348.25 401.75 357.75 401.75Z" fill="black" fill-opacity="0.85"/>
  <path d="M292.5 507C302 507 309.5 499.75 309.5 490L309.5 160.75C309.5 151 302 143.5 292.5 143.5C282.75 143.5 275.5 151 275.5 160.75L275.5 490C275.5 500 282.5 507 292.5 507Z" fill="black" fill-opacity="0.85"/>
  <path d="M227.25 431.5C236.75 431.5 244.25 424 244.25 414.25L244.25 236C244.25 226.5 236.75 219.25 227.25 219.25C217.5 219.25 210.25 226.5 210.25 236L210.25 414.25C210.25 424 217.5 431.5 227.25 431.5Z" fill="black" fill-opacity="0.85"/>
  <path d="M161.5 372.75C171.25 372.75 178.75 365.25 178.75 355.75L178.75 294.75C178.75 285.25 171.25 278 161.5 278C152 278 144.75 285.25 144.75 294.75L144.75 355.75C144.75 365.25 152.25 372.75 161.5 372.75Z" fill="black" fill-opacity="0.85"/>
 </g>
</svg>
