<?xml version="1.0" encoding="UTF-8"?>
<!--Generator: Apple Native CoreSVG 326-->
<!DOCTYPE svg
PUBLIC "-//W3C//DTD SVG 1.1//EN"
       "http://www.w3.org/Graphics/SVG/1.1/DTD/svg11.dtd">
<svg version="1.1" xmlns="http://www.w3.org/2000/svg" xmlns:xlink="http://www.w3.org/1999/xlink" viewBox="0 0 651.25 775.962">
 <g>
  <rect height="775.962" opacity="0" width="651.25" x="0" y="0"/>
  <path d="M325.5 713.356C505.25 713.356 651.25 567.606 651.25 387.856C651.25 276.106 595.25 178.856 509.75 120.106C497.75 111.106 482 114.356 475.25 125.356C468.5 136.856 472 149.856 483.25 158.356C556.25 207.856 604.5 292.106 604.5 387.856C604.5 542.106 479.75 666.856 325.5 666.856C171.25 666.856 46.5 542.106 46.5 387.856C46.5 253.856 140.5 142.856 265.25 115.356L265.25 166.106C265.25 186.356 279.25 191.856 295.25 180.606L396.5 109.606C409.75 100.356 410 86.6061 396.5 76.8561L295.5 5.85614C279.25-5.64386 265.25 0.106141 265.25 20.3561L265.25 68.1061C115 95.8561 0 228.356 0 387.856C0 567.606 145.75 713.356 325.5 713.356Z" fill="black" fill-opacity="0.85"/>
  <path d="M326 521.856C376 521.856 407 484.856 407 435.106C407 391.356 381.5 354.606 338.5 354.606C316.75 354.606 298 364.606 288.5 381.606L287.5 381.606L294 302.606L379.75 302.606C389.25 302.606 395.5 296.106 395.5 286.606C395.5 276.856 389.25 270.606 379.75 270.606L284.75 270.606C269.5 270.606 262.25 278.606 261.5 293.856L253.75 391.856C252.75 404.606 259.5 414.106 271.75 414.106C281.25 414.106 285.5 409.856 291.25 402.856C299.75 391.106 312.25 383.856 326.75 383.856C354.25 383.856 369.25 408.356 369.25 436.106C369.25 465.106 353.75 490.106 326 490.106C304.75 490.106 290 476.106 283.75 457.606C280 449.106 274.25 444.856 266.5 444.856C256.5 444.856 250.25 451.356 250.25 461.356C250.25 464.856 250.75 468.856 251.75 472.356C260.25 503.356 294.25 521.856 326 521.856Z" fill="black" fill-opacity="0.85"/>
 </g>
</svg>
