<?xml version="1.0" encoding="UTF-8"?>
<!--Generator: Apple Native CoreSVG 326-->
<!DOCTYPE svg
PUBLIC "-//W3C//DTD SVG 1.1//EN"
       "http://www.w3.org/Graphics/SVG/1.1/DTD/svg11.dtd">
<svg version="1.1" xmlns="http://www.w3.org/2000/svg" xmlns:xlink="http://www.w3.org/1999/xlink" viewBox="0 0 651.25 775.962">
 <g>
  <rect height="775.962" opacity="0" width="651.25" x="0" y="0"/>
  <path d="M325.5 713.356C505.25 713.356 651.25 567.606 651.25 387.856C651.25 228.356 536 95.8561 386 68.1061L386 20.3561C386 0.106141 372-5.64386 355.75 5.85614L254.75 76.8561C241 86.6061 241.25 100.356 254.75 109.606L356 180.606C372 191.856 386 186.356 386 166.106L386 115.356C510.75 142.856 604.5 253.856 604.5 387.856C604.5 542.106 479.75 666.856 325.5 666.856C171.25 666.856 46.5 542.106 46.5 387.856C46.5 292.106 95 207.856 168 158.356C179.25 149.856 182.75 136.856 175.75 125.356C169.25 114.356 153.5 111.106 141.25 120.106C56 178.856 0 276.106 0 387.856C0 567.606 145.75 713.356 325.5 713.356Z" fill="black" fill-opacity="0.85"/>
  <path d="M326 521.856C376 521.856 407 484.856 407 435.106C407 391.356 381.5 354.606 338.5 354.606C316.75 354.606 298 364.606 288.5 381.606L287.5 381.606L294 302.606L379.75 302.606C389.25 302.606 395.5 296.106 395.5 286.606C395.5 276.856 389.25 270.606 379.75 270.606L284.75 270.606C269.5 270.606 262.25 278.606 261.5 293.856L253.75 391.856C252.75 404.606 259.5 414.106 271.75 414.106C281.25 414.106 285.5 409.856 291.25 402.856C299.75 391.106 312.25 383.856 326.75 383.856C354.25 383.856 369.25 408.356 369.25 436.106C369.25 465.106 353.75 490.106 326 490.106C304.75 490.106 290 476.106 283.75 457.606C280 449.106 274.25 444.856 266.5 444.856C256.5 444.856 250.25 451.356 250.25 461.356C250.25 464.856 250.75 468.856 251.75 472.356C260.25 503.356 294.25 521.856 326 521.856Z" fill="black" fill-opacity="0.85"/>
 </g>
</svg>
