<?xml version="1.0" encoding="UTF-8"?>
<!--Generator: Apple Native CoreSVG 326-->
<!DOCTYPE svg
PUBLIC "-//W3C//DTD SVG 1.1//EN"
       "http://www.w3.org/Graphics/SVG/1.1/DTD/svg11.dtd">
<svg version="1.1" xmlns="http://www.w3.org/2000/svg" xmlns:xlink="http://www.w3.org/1999/xlink" viewBox="0 0 651.25 775.962">
 <g>
  <rect height="775.962" opacity="0" width="651.25" x="0" y="0"/>
  <path d="M325.5 713.356C505.25 713.356 651.25 567.606 651.25 387.856C651.25 228.356 536 95.8561 386 68.1061L386 20.3561C386 0.106141 372-5.64386 355.75 5.85614L254.75 76.8561C241 86.6061 241.25 100.356 254.75 109.606L356 180.606C372 191.856 386 186.356 386 166.106L386 115.356C510.75 142.856 604.5 253.856 604.5 387.856C604.5 542.106 479.75 666.856 325.5 666.856C171.25 666.856 46.5 542.106 46.5 387.856C46.5 292.106 95 207.856 168 158.356C179.25 149.856 182.75 136.856 175.75 125.356C169.25 114.356 153.5 111.106 141.25 120.106C56 178.856 0 276.106 0 387.856C0 567.606 145.75 713.356 325.5 713.356Z" fill="black" fill-opacity="0.85"/>
  <path d="M228.25 521.856C276 521.856 308.5 485.356 308.5 435.356C308.5 390.106 281.75 355.106 239 355.106C209.25 355.106 187.25 373.106 179.5 399.606L178.5 399.606C178.5 375.356 180.25 357.606 184.25 343.106C190.5 318.606 203.25 296.606 228.5 296.606C246.25 296.606 258.75 306.356 266 322.356C270.5 329.856 275.5 335.356 284.25 335.356C295.75 335.356 300.5 327.356 300.5 319.106C300.5 313.606 299.5 308.106 297 303.356C286.75 279.606 260 264.856 229 264.856C172.75 264.856 150 315.606 145 369.106C140.5 397.606 142.25 431.356 149.75 455.606C161.25 493.606 187.5 521.856 228.25 521.856ZM227.75 489.606C200.5 489.606 184.5 462.856 184.5 435.356C184.5 407.856 202 385.106 227.75 385.106C255 385.106 270.5 408.856 270.5 436.856C270.5 464.606 254.25 489.606 227.75 489.606ZM430.75 521.356C493.75 521.356 515.25 455.106 515.25 392.606C515.25 329.856 493.25 264.356 430.75 264.356C367.25 264.356 346 330.606 346 392.606C346 456.106 368 521.356 430.75 521.356ZM430.75 489.106C399.25 489.106 385.5 444.606 385.5 392.606C385.5 340.856 399.25 296.856 430.75 296.856C462 296.856 475.75 341.106 475.75 392.606C475.75 444.606 462.25 489.106 430.75 489.106Z" fill="black" fill-opacity="0.85"/>
 </g>
</svg>
