<?xml version="1.0" encoding="UTF-8"?>
<!--Generator: Apple Native CoreSVG 326-->
<!DOCTYPE svg
PUBLIC "-//W3C//DTD SVG 1.1//EN"
       "http://www.w3.org/Graphics/SVG/1.1/DTD/svg11.dtd">
<svg version="1.1" xmlns="http://www.w3.org/2000/svg" xmlns:xlink="http://www.w3.org/1999/xlink" viewBox="0 0 1007.5 485.75">
 <g>
  <rect height="485.75" opacity="0" width="1007.5" x="0" y="0"/>
  <path d="M1007.5 444.5L1007.5 41C1007.5 13 991 0 972 0C963.5 0 955 2.5 946.5 7.25L607.75 206C586.5 218.25 578 228 578 242.75C578 257.5 586.5 267 607.75 279.25L946.5 478C955 482.75 963.5 485.25 972 485.25C991 485.25 1007.5 472.5 1007.5 444.5ZM579.75 444.5L579.75 41C579.75 13 563.25 0 544.25 0C535.75 0 527.25 2.5 518.75 7.25L180.25 206C159 218.25 150.25 228 150.25 242.75C150.25 257.5 159 267 180.25 279.25L518.75 478C527.25 482.75 535.75 485.25 544.25 485.25C563.25 485.25 579.75 472.5 579.75 444.5ZM112 483.75C138.75 483.75 152 470.5 152 443.75L152 41.25C152 14.75 138.75 1.25 112 1.25L40 1.25C13.25 1.25 0 13.5 0 41.25L0 443.75C0 470.5 13.25 483.75 40 483.75Z" fill="black" fill-opacity="0.85"/>
 </g>
</svg>
