<?xml version="1.0" encoding="UTF-8"?>
<!--Generator: Apple Native CoreSVG 326-->
<!DOCTYPE svg
PUBLIC "-//W3C//DTD SVG 1.1//EN"
       "http://www.w3.org/Graphics/SVG/1.1/DTD/svg11.dtd">
<svg version="1.1" xmlns="http://www.w3.org/2000/svg" xmlns:xlink="http://www.w3.org/1999/xlink" viewBox="0 0 651.25 651.75">
 <g>
  <rect height="651.75" opacity="0" width="651.25" x="0" y="0"/>
  <path d="M325.5 651.25C505.25 651.25 651.25 505.5 651.25 325.75C651.25 146 505.25 0 325.5 0C145.75 0 0 146 0 325.75C0 505.5 145.75 651.25 325.5 651.25ZM325.5 604.75C171.25 604.75 46.5 480 46.5 325.75C46.5 171.5 171.25 46.75 325.5 46.75C479.75 46.75 604.5 171.5 604.5 325.75C604.5 480 479.75 604.75 325.5 604.75Z" fill="black" fill-opacity="0.85"/>
  <path d="M282.25 444.75C293 444.75 302.5 436.5 302.5 420.5L302.5 231.5C302.5 215.5 293 207.25 282.25 207.25C276.25 207.25 271.5 209.25 265.75 212.75L107.75 305.5C98.5 311 94.25 318 94.25 326C94.25 334 98.5 341 107.75 346.5L265.75 439.25C271.5 442.75 276.25 444.75 282.25 444.75ZM489.75 444.75C500.75 444.75 510 436.5 510 420.5L510 231.5C510 215.5 500.75 207.25 489.75 207.25C484 207.25 478.75 209.25 473.25 212.75L315.5 305.5C306 311 301.75 318 301.75 326C301.75 334 306 341 315.5 346.5L473.25 439.25C478.75 442.75 484 444.75 489.75 444.75Z" fill="black" fill-opacity="0.85"/>
 </g>
</svg>
