<?xml version="1.0" encoding="UTF-8"?>
<!--Generator: Apple Native CoreSVG 326-->
<!DOCTYPE svg
PUBLIC "-//W3C//DTD SVG 1.1//EN"
       "http://www.w3.org/Graphics/SVG/1.1/DTD/svg11.dtd">
<svg version="1.1" xmlns="http://www.w3.org/2000/svg" xmlns:xlink="http://www.w3.org/1999/xlink" viewBox="0 0 924.25 485.75">
 <g>
  <rect height="485.75" opacity="0" width="924.25" x="0" y="0"/>
  <path d="M857.25 444.5L857.25 41C857.25 13 840.75 0 821.75 0C813.25 0 804.75 2.5 796.25 7.25L457.5 206C436.25 218.25 427.75 228 427.75 242.75C427.75 257.5 436.25 267 457.5 279.25L796.25 478C804.75 482.75 813.25 485.25 821.75 485.25C840.75 485.25 857.25 472.5 857.25 444.5ZM813 424.5C813 428.75 810.25 431.5 806.75 431.5C805 431.5 803.75 431.25 802.25 430.25L492.25 247.75C489.5 246.25 488.75 244.5 488.75 242.75C488.75 240.75 489.5 239 492.25 237.5L802.25 55C803.75 54.25 805 53.75 806.75 53.75C810.25 53.75 813 56.5 813 60.75ZM429.5 444.5L429.5 41C429.5 13 413 0 394 0C385.5 0 377 2.5 368.5 7.25L30 206C8.75 218.25 0 228 0 242.75C0 257.5 8.75 267 30 279.25L368.5 478C377 482.75 385.5 485.25 394 485.25C413 485.25 429.5 472.5 429.5 444.5ZM385.25 424.5C385.25 428.75 382.5 431.5 379 431.5C377.5 431.5 376 431.25 374.5 430.25L64.5 247.75C62 246.25 61 244.5 61 242.75C61 240.75 62 239 64.5 237.5L374.5 55C376 54.25 377.5 53.75 379 53.75C382.5 53.75 385.25 56.5 385.25 60.75Z" fill="black" fill-opacity="0.85"/>
 </g>
</svg>
