<?xml version="1.0" encoding="UTF-8"?>
<!--Generator: Apple Native CoreSVG 326-->
<!DOCTYPE svg
PUBLIC "-//W3C//DTD SVG 1.1//EN"
       "http://www.w3.org/Graphics/SVG/1.1/DTD/svg11.dtd">
<svg version="1.1" xmlns="http://www.w3.org/2000/svg" xmlns:xlink="http://www.w3.org/1999/xlink" viewBox="0 0 1007.5 485.75">
 <g>
  <rect height="485.75" opacity="0" width="1007.5" x="0" y="0"/>
  <path d="M0 444.5C0 472.5 16.5 485.25 35.5 485.25C44 485.25 52.5 482.75 60.75 478L399.5 279.25C420.75 267 429.25 257.5 429.25 242.75C429.25 228 420.75 218.25 399.5 206L60.75 7.25C52.5 2.5 44 0 35.5 0C16.5 0 0 13 0 41ZM427.75 444.5C427.75 472.5 444 485.25 463.25 485.25C471.5 485.25 480.25 482.75 488.5 478L827.25 279.25C848.5 267 857 257.5 857 242.75C857 228 848.5 218.25 827.25 206L488.5 7.25C480.25 2.5 471.5 0 463.25 0C444 0 427.75 13 427.75 41ZM895.5 483.75L967.5 483.75C994 483.75 1007.5 470.5 1007.5 443.75L1007.5 41.25C1007.5 13.5 994 1.25 967.5 1.25L895.5 1.25C868.75 1.25 855.5 14.75 855.5 41.25L855.5 443.75C855.5 470.5 868.75 483.75 895.5 483.75Z" fill="black" fill-opacity="0.85"/>
 </g>
</svg>
