<?xml version="1.0" encoding="UTF-8"?>
<!--Generator: Apple Native CoreSVG 326-->
<!DOCTYPE svg
PUBLIC "-//W3C//DTD SVG 1.1//EN"
       "http://www.w3.org/Graphics/SVG/1.1/DTD/svg11.dtd">
<svg version="1.1" xmlns="http://www.w3.org/2000/svg" xmlns:xlink="http://www.w3.org/1999/xlink" viewBox="0 0 651.25 651.75">
 <g>
  <rect height="651.75" opacity="0" width="651.25" x="0" y="0"/>
  <path d="M651.25 325.75C651.25 505 505 651.25 325.5 651.25C146.25 651.25 0 505 0 325.75C0 146.25 146.25 0 325.5 0C505 0 651.25 146.25 651.25 325.75ZM349.25 229.75L349.25 317.25C347 312.5 343 308.75 337.25 305.25L175.75 210.25C170 206.75 164.5 205 158.75 205C147.5 205 137.75 213 137.75 229.75L137.75 423C137.75 439.5 147.5 447.5 158.75 447.5C164.5 447.5 170 446 175.75 442.5L337.25 347.25C343 344 347 340 349.25 335.5L349.25 423C349.25 439.5 358.75 447.5 370 447.5C376 447.5 381.25 446 387 442.5L548.25 347.25C558 341.75 562.75 334.5 562.75 326.25C562.75 318 558 311 548.25 305.25L387 210.25C381.25 206.75 376 205 370 205C358.75 205 349.25 213 349.25 229.75Z" fill="black" fill-opacity="0.85"/>
 </g>
</svg>
