<?xml version="1.0" encoding="UTF-8"?>
<!--Generator: Apple Native CoreSVG 326-->
<!DOCTYPE svg
PUBLIC "-//W3C//DTD SVG 1.1//EN"
       "http://www.w3.org/Graphics/SVG/1.1/DTD/svg11.dtd">
<svg version="1.1" xmlns="http://www.w3.org/2000/svg" xmlns:xlink="http://www.w3.org/1999/xlink" viewBox="0 0 924.25 485.75">
 <g>
  <rect height="485.75" opacity="0" width="924.25" x="0" y="0"/>
  <path d="M67 444.5C67 472.5 83.5 485.25 102.5 485.25C111 485.25 119.5 482.75 128 478L466.75 279.25C488 267 496.5 257.5 496.5 242.75C496.5 228 488 218.25 466.75 206L128 7.25C119.5 2.5 111 0 102.5 0C83.5 0 67 13 67 41ZM494.75 444.5C494.75 472.5 511.25 485.25 530.25 485.25C538.75 485.25 547.25 482.75 555.75 478L894.25 279.25C915.75 267 924.25 257.5 924.25 242.75C924.25 228 915.75 218.25 894.25 206L555.75 7.25C547.25 2.5 538.75 0 530.25 0C511.25 0 494.75 13 494.75 41Z" fill="black" fill-opacity="0.85"/>
 </g>
</svg>
