<?xml version="1.0" encoding="UTF-8"?>
<!--Generator: Apple Native CoreSVG 326-->
<!DOCTYPE svg
PUBLIC "-//W3C//DTD SVG 1.1//EN"
       "http://www.w3.org/Graphics/SVG/1.1/DTD/svg11.dtd">
<svg version="1.1" xmlns="http://www.w3.org/2000/svg" xmlns:xlink="http://www.w3.org/1999/xlink" viewBox="0 0 474.5 485.75">
 <g>
  <rect height="485.75" opacity="0" width="474.5" x="0" y="0"/>
  <path d="M0 444.5C0 472.5 16.5 485.25 35.5 485.25C44 485.25 52.5 482.75 60.75 478L399.5 279.25C420.75 267 429.25 257.5 429.25 242.75C429.25 228 420.75 218.25 399.5 206L60.75 7.25C52.5 2.5 44 0 35.5 0C16.5 0 0 13 0 41ZM44.25 424.5L44.25 60.75C44.25 56.5 47 53.75 50.5 53.75C52 53.75 53.5 54.25 55 55L365 237.5C367.5 239 368.5 240.75 368.5 242.75C368.5 244.5 367.5 246.25 365 247.75L55 430.25C53.5 431.25 52 431.5 50.5 431.5C47 431.5 44.25 428.75 44.25 424.5ZM451.25 485.25C464.25 485.25 474.5 475.25 474.5 462.25L474.5 23C474.5 10 464.25 0 451.25 0C438 0 427.75 10 427.75 23L427.75 462.25C427.75 475.25 438 485.25 451.25 485.25Z" fill="black" fill-opacity="0.85"/>
 </g>
</svg>
