<?xml version="1.0" encoding="UTF-8"?>
<!--Generator: Apple Native CoreSVG 326-->
<!DOCTYPE svg
PUBLIC "-//W3C//DTD SVG 1.1//EN"
       "http://www.w3.org/Graphics/SVG/1.1/DTD/svg11.dtd">
<svg version="1.1" xmlns="http://www.w3.org/2000/svg" xmlns:xlink="http://www.w3.org/1999/xlink" viewBox="0 0 787 485.75">
 <g>
  <rect height="485.75" opacity="0" width="787" x="0" y="0"/>
  <path d="M143.75 483.75L216 483.75C242.5 483.75 255.75 470.5 255.75 443.75L255.75 41.25C255.75 13.5 242.5 1.25 216 1.25L143.75 1.25C117.25 1.25 103.75 14.75 103.75 41.25L103.75 443.75C103.75 470.5 117.25 483.75 143.75 483.75ZM357.75 444.5C357.75 472.5 374 485.25 393.25 485.25C401.5 485.25 410.25 482.75 418.5 478L757.25 279.25C778.5 267 787 257.5 787 242.75C787 228 778.5 218.25 757.25 206L418.5 7.25C410.25 2.5 401.5 0 393.25 0C374 0 357.75 13 357.75 41Z" fill="black" fill-opacity="0.85"/>
 </g>
</svg>
