<?xml version="1.0" encoding="UTF-8"?>
<!--Generator: Apple Native CoreSVG 326-->
<!DOCTYPE svg
PUBLIC "-//W3C//DTD SVG 1.1//EN"
       "http://www.w3.org/Graphics/SVG/1.1/DTD/svg11.dtd">
<svg version="1.1" xmlns="http://www.w3.org/2000/svg" xmlns:xlink="http://www.w3.org/1999/xlink" viewBox="0 0 924.25 485.75">
 <g>
  <rect height="485.75" opacity="0" width="924.25" x="0" y="0"/>
  <path d="M67 444.5C67 472.5 83.5 485.25 102.5 485.25C111 485.25 119.5 482.75 128 478L466.75 279.25C488 267 496.5 257.5 496.5 242.75C496.5 228 488 218.25 466.75 206L128 7.25C119.5 2.5 111 0 102.5 0C83.5 0 67 13 67 41ZM111.5 424.5L111.5 60.75C111.5 56.5 114 53.75 117.5 53.75C119.25 53.75 120.5 54.25 122 55L432 237.5C434.75 239 435.75 240.75 435.75 242.75C435.75 244.5 434.75 246.25 432 247.75L122 430.25C120.5 431.25 119.25 431.5 117.5 431.5C114 431.5 111.5 428.75 111.5 424.5ZM494.75 444.5C494.75 472.5 511.25 485.25 530.25 485.25C538.75 485.25 547.25 482.75 555.75 478L894.25 279.25C915.75 267 924.25 257.5 924.25 242.75C924.25 228 915.75 218.25 894.25 206L555.75 7.25C547.25 2.5 538.75 0 530.25 0C511.25 0 494.75 13 494.75 41ZM539 424.5L539 60.75C539 56.5 541.75 53.75 545.25 53.75C546.75 53.75 548.25 54.25 549.75 55L859.75 237.5C862.25 239 863.25 240.75 863.25 242.75C863.25 244.5 862.25 246.25 859.75 247.75L549.75 430.25C548.25 431.25 546.75 431.5 545.25 431.5C541.75 431.5 539 428.75 539 424.5Z" fill="black" fill-opacity="0.85"/>
 </g>
</svg>
