<?xml version="1.0" encoding="UTF-8"?>
<!--Generator: Apple Native CoreSVG 326-->
<!DOCTYPE svg
PUBLIC "-//W3C//DTD SVG 1.1//EN"
       "http://www.w3.org/Graphics/SVG/1.1/DTD/svg11.dtd">
<svg version="1.1" xmlns="http://www.w3.org/2000/svg" xmlns:xlink="http://www.w3.org/1999/xlink" viewBox="0 0 379.75 526.25">
 <g>
  <rect height="526.25" opacity="0" width="379.75" x="0" y="0"/>
  <path d="M40 525.75L112 525.75C138.75 525.75 152 512.5 152 485.75L152 40C152 12.25 138.75 0 112 0L40 0C13.25 0 0 13.25 0 40L0 485.75C0 512.5 13.25 525.75 40 525.75ZM267.75 525.75L339.75 525.75C366.5 525.75 379.75 512.5 379.75 485.75L379.75 40C379.75 12.25 366.5 0 339.75 0L267.75 0C241 0 227.75 13.25 227.75 40L227.75 485.75C227.75 512.5 241 525.75 267.75 525.75Z" fill="black" fill-opacity="0.85"/>
 </g>
</svg>
