<?xml version="1.0" encoding="UTF-8"?>
<!--Generator: Apple Native CoreSVG 326-->
<!DOCTYPE svg
PUBLIC "-//W3C//DTD SVG 1.1//EN"
       "http://www.w3.org/Graphics/SVG/1.1/DTD/svg11.dtd">
<svg version="1.1" xmlns="http://www.w3.org/2000/svg" xmlns:xlink="http://www.w3.org/1999/xlink" viewBox="0 0 651.25 651.75">
 <g>
  <rect height="651.75" opacity="0" width="651.25" x="0" y="0"/>
  <path d="M325.5 651.25C505.25 651.25 651.25 505.5 651.25 325.75C651.25 146 505.25 0 325.5 0C145.75 0 0 146 0 325.75C0 505.5 145.75 651.25 325.5 651.25ZM325.5 604.75C171.25 604.75 46.5 480 46.5 325.75C46.5 171.5 171.25 46.75 325.5 46.75C479.75 46.75 604.5 171.5 604.5 325.75C604.5 480 479.75 604.75 325.5 604.75Z" fill="black" fill-opacity="0.85"/>
  <path d="M235.25 450.25L267.25 450.25C282.5 450.25 289.5 442 289.5 429.75L289.5 221C289.5 209 282.5 200.75 267.25 200.75L235.25 200.75C220.25 200.75 213 209 213 221L213 429.75C213 442 220.25 450.25 235.25 450.25ZM383.75 450.25L415.75 450.25C430.5 450.25 437.75 442 437.75 429.75L437.75 221C437.75 209 430.5 200.75 415.75 200.75L383.75 200.75C368.5 200.75 361.25 209 361.25 221L361.25 429.75C361.25 442 368.5 450.25 383.75 450.25Z" fill="black" fill-opacity="0.85"/>
 </g>
</svg>
