<?xml version="1.0" encoding="UTF-8"?>
<!--Generator: Apple Native CoreSVG 326-->
<!DOCTYPE svg
PUBLIC "-//W3C//DTD SVG 1.1//EN"
       "http://www.w3.org/Graphics/SVG/1.1/DTD/svg11.dtd">
<svg version="1.1" xmlns="http://www.w3.org/2000/svg" xmlns:xlink="http://www.w3.org/1999/xlink" viewBox="0 0 757.5 587.75">
 <g>
  <rect height="587.75" opacity="0" width="757.5" x="0" y="0"/>
  <path d="M757.5 96.5L757.5 491.5C757.5 555 724.75 587.75 660 587.75L97.25 587.75C32.75 587.75 0 555.5 0 491.5L0 96.5C0 32.5 32.75 0 97.25 0L660 0C724.75 0 757.5 32.75 757.5 96.5ZM286.5 166C271 166 263.75 174.5 263.75 186.75L263.75 400.75C263.75 413 271 421.5 286.5 421.5L319.25 421.5C335 421.5 342 413 342 400.75L342 186.75C342 174.5 335 166 319.25 166ZM438.75 166C423.25 166 416 174.5 416 186.75L416 400.75C416 413 423.25 421.5 438.75 421.5L471.5 421.5C487 421.5 494 413 494 400.75L494 186.75C494 174.5 487 166 471.5 166Z" fill="black" fill-opacity="0.85"/>
 </g>
</svg>
