<?xml version="1.0" encoding="UTF-8"?>
<!--Generator: Apple Native CoreSVG 326-->
<!DOCTYPE svg
PUBLIC "-//W3C//DTD SVG 1.1//EN"
       "http://www.w3.org/Graphics/SVG/1.1/DTD/svg11.dtd">
<svg version="1.1" xmlns="http://www.w3.org/2000/svg" xmlns:xlink="http://www.w3.org/1999/xlink" viewBox="0 0 665 840.75">
 <g>
  <rect height="840.75" opacity="0" width="665" x="0" y="0"/>
  <path d="M477.089 90.5L187.911 90.5C189.512 67.8223 204.218 54.5 228.25 54.5L436.75 54.5C460.782 54.5 475.488 67.8223 477.089 90.5Z" fill="black" fill-opacity="0.85"/>
  <path d="M541.604 177.715C532.72 176.365 523.31 175.75 513.5 175.75L151.5 175.75C141.598 175.75 132.108 176.37 123.153 177.729C126.577 151.372 144.887 136.5 174.25 136.5L490.75 136.5C520.108 136.5 538.216 151.367 541.604 177.715Z" fill="black" fill-opacity="0.85"/>
  <path d="M151.5 786.75L513.5 786.75C578 786.75 610.75 754 610.75 690.25L610.75 326.25C610.75 262.75 578 230 513.5 230L151.5 230C86.75 230 54.25 262.5 54.25 326.25L54.25 690.25C54.25 754.25 86.75 786.75 151.5 786.75ZM152.25 742.5C117.5 742.5 98.5 723.75 98.5 688L98.5 328.75C98.5 292.75 117.5 274.25 152.25 274.25L512.75 274.25C546.75 274.25 566.5 292.75 566.5 328.75L566.5 688C566.5 723.75 546.75 742.5 512.75 742.5Z" fill="black" fill-opacity="0.85"/>
  <path d="M271.75 635.75L455.75 526.5C468.75 518.75 468.5 501.25 455.75 493.5L271.75 383.75C258.75 376 241.5 382.25 241.5 396.75L241.5 622.75C241.5 637.25 257.75 644.25 271.75 635.75Z" fill="black" fill-opacity="0.85"/>
 </g>
</svg>
