<?xml version="1.0" encoding="UTF-8"?>
<!--Generator: Apple Native CoreSVG 326-->
<!DOCTYPE svg
PUBLIC "-//W3C//DTD SVG 1.1//EN"
       "http://www.w3.org/Graphics/SVG/1.1/DTD/svg11.dtd">
<svg version="1.1" xmlns="http://www.w3.org/2000/svg" xmlns:xlink="http://www.w3.org/1999/xlink" viewBox="0 0 651.25 651.75">
 <g>
  <rect height="651.75" opacity="0" width="651.25" x="0" y="0"/>
  <path d="M651.25 325.75C651.25 505 505 651.25 325.5 651.25C146.25 651.25 0 505 0 325.75C0 146.25 146.25 0 325.5 0C505 0 651.25 146.25 651.25 325.75ZM468.25 342.5L468.25 357.75C468.25 390.5 446.25 412 412.5 412L286.75 412L286.75 370.5C286.75 361.75 281.5 356.75 272.5 356.75C268.5 356.75 264.75 358 261.5 360.5L190 418.75C182 424.75 182.25 435 190.25 441.5L261.5 499.25C264.75 502 268.5 503.25 272.5 503.25C281.75 503.25 286.75 498 286.75 489.5L286.75 447L408.5 447C466.75 447 503.5 413.5 503.5 360.75L503.5 342.5C503.5 332.75 495.5 325.25 485.75 325.25C476 325.25 468.25 332.75 468.25 342.5ZM292 177L292 219.25L210.75 219.25C152.75 219.25 116.25 252.5 116.25 305.5L116.25 323.75C116.25 333.25 123.75 341.25 133.5 341.25C143.25 341.25 151.25 333.25 151.25 323.75L151.25 308.5C151.25 275.75 173 254.25 206.75 254.25L292 254.25L292 296.25C292 304.75 297.5 310 306.25 310C310.25 310 314 308.75 317 306.25L388.75 247.75C396.75 241.5 396.75 231.5 388.75 225L317 167C314 164.25 310.25 163 306.25 163C297.5 163 292 168.5 292 177ZM458 173.25L432.5 192.25C428.25 195.75 426.5 199.25 426.5 204C426.5 210.75 431.75 216.5 439.5 216.5C442.75 216.5 445.5 215.5 448.5 213.25L466.75 199.281L466.75 268.25C466.75 279.5 474 287 485.5 287C496.75 287 503.75 279.75 503.75 268.25L503.75 186.5C503.75 172.5 494.75 164 481.75 164C473.25 164 466.75 166.5 458 173.25Z" fill="black" fill-opacity="0.85"/>
 </g>
</svg>
