<?xml version="1.0" encoding="UTF-8"?>
<!--Generator: Apple Native CoreSVG 326-->
<!DOCTYPE svg
PUBLIC "-//W3C//DTD SVG 1.1//EN"
       "http://www.w3.org/Graphics/SVG/1.1/DTD/svg11.dtd">
<svg version="1.1" xmlns="http://www.w3.org/2000/svg" xmlns:xlink="http://www.w3.org/1999/xlink" viewBox="0 0 651.25 651.75">
 <g>
  <rect height="651.75" opacity="0" width="651.25" x="0" y="0"/>
  <path d="M651.25 325.75C651.25 505 505 651.25 325.5 651.25C146.25 651.25 0 505 0 325.75C0 146.25 146.25 0 325.5 0C505 0 651.25 146.25 651.25 325.75ZM489.75 336.25L489.75 353.25C489.75 386 467 407.25 433.5 407.25L303 407.25L303 365.5C303 355.5 297 349.5 287.25 349.5C283.25 349.5 278.5 351 275 354L200.75 414.25C192.25 421.25 192.25 432.5 200.75 439.75L275 500.25C278.75 503.5 283.25 505 287.25 505C297 505 303 498.75 303 489L303 445.75L430.75 445.75C490 445.75 529 410 529 355L529 336.25C529 325.25 520.5 317 509.5 317C498.25 317 489.75 325.25 489.75 336.25ZM349 164L349 207L221.25 207C162 207 123 242.75 123 297.75L123 316.5C123 327.25 131.75 335.75 142.25 335.75C153.5 335.75 162.25 327.25 162.25 316.5L162.25 299.5C162.25 266.75 184.75 245.25 218.5 245.25L349 245.25L349 287.5C349 297.5 355 303.5 364.75 303.5C368.75 303.5 373.5 302 377 299L451.25 238.75C459.75 231.75 459.75 220.25 451.25 213.25L377 152.75C373.5 149.5 368.75 148 364.75 148C355 148 349 154.25 349 164Z" fill="black" fill-opacity="0.85"/>
 </g>
</svg>
