<?xml version="1.0" encoding="UTF-8"?>
<!--Generator: Apple Native CoreSVG 326-->
<!DOCTYPE svg
PUBLIC "-//W3C//DTD SVG 1.1//EN"
       "http://www.w3.org/Graphics/SVG/1.1/DTD/svg11.dtd">
<svg version="1.1" xmlns="http://www.w3.org/2000/svg" xmlns:xlink="http://www.w3.org/1999/xlink" viewBox="0 0 670.75 581.75">
 <g>
  <rect height="581.75" opacity="0" width="670.75" x="0" y="0"/>
  <path d="M24.25 300.75C38.25 300.75 48.5 290.5 48.5 276.5L48.5 246.5C48.5 188 86.25 152 147.75 152L323.75 152L323.75 228.25C323.75 240 330.5 246.5 342.5 246.5C348 246.5 353 244.75 357.75 241L478.25 142.75C488.5 134.5 488.75 121.5 478.25 113.25L357.75 15C353 11.25 348 9.5 342.5 9.5C330.5 9.5 323.75 16 323.75 27.5L323.75 104.75L151.75 104.75C60 104.75 0 156.5 0 243.5L0 276.5C0 290.5 10.25 300.75 24.25 300.75ZM645.5 281.5C631.5 281.5 621.25 291.75 621.25 305.75L621.25 335.75C621.25 394.25 583.5 430.25 522 430.25L277.75 430.25L277.75 354.5C277.75 342.75 271 336.25 259 336.25C253.5 336.25 248.5 338.25 243.75 341.75L123.25 440C113 448.5 112.75 461.25 123.25 469.5L243.75 568C248.5 571.5 253.5 573.5 259 573.5C271 573.5 277.75 567 277.75 555.25L277.75 477.75L518 477.75C609.75 477.75 669.75 425.75 669.75 338.75L669.75 305.75C669.75 291.75 659.5 281.5 645.5 281.5Z" fill="black" fill-opacity="0.85"/>
  <path d="M645.75 209.25C661.25 209.25 670.75 199.25 670.75 183.5L670.75 31.75C670.75 12.5 658.25 0 640 0C625.75 0 616.5 4.75 605 13.75L560.75 46.5C554.5 51.25 552.75 55.75 552.75 61.5C552.75 70 559.25 76.75 569.5 76.75C573.75 76.75 577.5 75.5 581.5 72.25L617 45L620.25 45L620.25 183.5C620.25 199.25 630 209.25 645.75 209.25Z" fill="black" fill-opacity="0.85"/>
 </g>
</svg>
