<?xml version="1.0" encoding="UTF-8"?>
<!--Generator: Apple Native CoreSVG 326-->
<!DOCTYPE svg
PUBLIC "-//W3C//DTD SVG 1.1//EN"
       "http://www.w3.org/Graphics/SVG/1.1/DTD/svg11.dtd">
<svg version="1.1" xmlns="http://www.w3.org/2000/svg" xmlns:xlink="http://www.w3.org/1999/xlink" viewBox="0 0 518 518.75">
 <g>
  <rect height="518.75" opacity="0" width="518" x="0" y="0"/>
  <path d="M0 450.75C0 493.25 25.5 518.25 68.5 518.25L449.5 518.25C492.75 518.25 518 493.25 518 450.75L518 67.5C518 25 492.75 0 449.5 0L68.5 0C25.5 0 0 25 0 67.5ZM44.25 440.75L44.25 77.5C44.25 56.75 56.5 44.5 77 44.5L441.25 44.5C461.75 44.5 473.75 56.75 473.75 77.5L473.75 440.75C473.75 461.5 461.75 474 441.25 474L77 474C56.5 474 44.25 461.5 44.25 440.75Z" fill="black" fill-opacity="0.85"/>
 </g>
</svg>
