<?xml version="1.0" encoding="UTF-8"?>
<!--Generator: Apple Native CoreSVG 326-->
<!DOCTYPE svg
PUBLIC "-//W3C//DTD SVG 1.1//EN"
       "http://www.w3.org/Graphics/SVG/1.1/DTD/svg11.dtd">
<svg version="1.1" xmlns="http://www.w3.org/2000/svg" xmlns:xlink="http://www.w3.org/1999/xlink" viewBox="0 0 651.25 651.75">
 <g>
  <rect height="651.75" opacity="0" width="651.25" x="0" y="0"/>
  <path d="M651.25 325.75C651.25 505 505 651.25 325.5 651.25C146.25 651.25 0 505 0 325.75C0 146.25 146.25 0 325.5 0C505 0 651.25 146.25 651.25 325.75ZM237.5 206C217.75 206 205.75 217.75 205.75 237L205.75 414.25C205.75 433.75 217.75 445.25 237.5 445.25L413.75 445.25C433.25 445.25 445.25 433.75 445.25 414.25L445.25 237C445.25 217.75 433.25 206 413.75 206Z" fill="black" fill-opacity="0.85"/>
 </g>
</svg>
