<?xml version="1.0" encoding="UTF-8"?>
<!--Generator: Apple Native CoreSVG 326-->
<!DOCTYPE svg
PUBLIC "-//W3C//DTD SVG 1.1//EN"
       "http://www.w3.org/Graphics/SVG/1.1/DTD/svg11.dtd">
<svg version="1.1" xmlns="http://www.w3.org/2000/svg" xmlns:xlink="http://www.w3.org/1999/xlink" viewBox="0 0 959 686.227">
 <g>
  <rect height="686.227" opacity="0" width="959" x="0" y="0"/>
  <path d="M221.25 280.739L819.75 280.739C832.25 280.739 842 270.989 842 258.489C842 245.989 832.25 236.239 819.75 236.239L221.25 236.239C208.75 236.239 199.25 245.989 199.25 258.489C199.25 270.989 208.75 280.739 221.25 280.739ZM221.25 449.489L819.75 449.489C832.25 449.489 842 439.739 842 427.239C842 414.739 832.25 405.239 819.75 405.239L221.25 405.239C208.75 405.239 199.25 414.739 199.25 427.239C199.25 439.739 208.75 449.489 221.25 449.489ZM221.25 618.239L819.75 618.239C832.25 618.239 842 608.739 842 596.239C842 583.489 832.25 573.989 819.75 573.989L221.25 573.989C208.75 573.989 199.25 583.489 199.25 596.239C199.25 608.739 208.75 618.239 221.25 618.239Z" fill="black" fill-opacity="0.85"/>
  <path d="M26.5 175.989L141.5 105.989C154.75 97.9886 154.5 81.9886 141.5 73.9886L26.5 3.48858C13-4.76142 0 2.23858 0 17.9886L0 161.989C0 177.989 13 184.239 26.5 175.989ZM235.75 137.739L805.5 137.739C829.75 137.739 842 125.739 842 101.489L842 77.7386C842 53.9886 829.75 41.4886 805.5 41.4886L235.75 41.4886C211.5 41.4886 199.25 53.9886 199.25 77.7386L199.25 101.489C199.25 125.739 211.5 137.739 235.75 137.739Z" fill="black" fill-opacity="0.85"/>
 </g>
</svg>
