<?xml version="1.0" encoding="UTF-8"?>
<!--Generator: Apple Native CoreSVG 326-->
<!DOCTYPE svg
PUBLIC "-//W3C//DTD SVG 1.1//EN"
       "http://www.w3.org/Graphics/SVG/1.1/DTD/svg11.dtd">
<svg version="1.1" xmlns="http://www.w3.org/2000/svg" xmlns:xlink="http://www.w3.org/1999/xlink" viewBox="0 0 798.75 597.75">
 <g>
  <rect height="597.75" opacity="0" width="798.75" x="0" y="0"/>
  <path d="M697.75 245.25C761.25 270.25 798.75 328.25 798.75 394.5C798.75 481 724.5 549.75 629.25 549.75L188.75 549.5C81 549.5 0 472.75 0 379.5C0 301.75 45.75 239 117.5 229C118.5 139.5 204.5 79.5 282.5 104.75C319.5 47.5 380.75 0 468.5 0C598 0 699.5 103.25 697.75 245.25ZM394.25 152.25L394.25 188.25C335 197.25 286.25 250 286.25 315.5C286.25 389.25 344.5 447.75 417.5 447.75C490.25 447.75 548.5 389.25 548.5 316.25C548.5 306.5 540.25 298.75 530.5 298.75C520.5 298.75 512.5 306.5 512.5 316.25C512.5 369.25 470.25 412 417.5 412C364.25 412 322.25 369.5 322.25 316.25C322.25 271.25 352.75 234.75 394.25 224.25L394.25 266.25C394.25 278.75 407.75 283.75 417.5 275.5L480 222.5C489.25 214.5 489 202.5 480 195L417.5 142.5C407.75 134.75 394.25 139.25 394.25 152.25Z" fill="black" fill-opacity="0.85"/>
 </g>
</svg>
