<?xml version="1.0" encoding="UTF-8"?>
<!--Generator: Apple Native CoreSVG 326-->
<!DOCTYPE svg
PUBLIC "-//W3C//DTD SVG 1.1//EN"
       "http://www.w3.org/Graphics/SVG/1.1/DTD/svg11.dtd">
<svg version="1.1" xmlns="http://www.w3.org/2000/svg" xmlns:xlink="http://www.w3.org/1999/xlink" viewBox="0 0 798.75 597.75">
 <g>
  <rect height="597.75" opacity="0" width="798.75" x="0" y="0"/>
  <path d="M697.75 245.25C761.25 270.25 798.75 328.25 798.75 394.5C798.75 481 724.5 549.75 629.25 549.75L188.75 549.5C81 549.5 0 472.75 0 379.5C0 301.75 45.75 239 117.5 229C118.5 139.5 204.5 79.5 282.5 104.75C319.5 47.5 380.75 0 468.5 0C598 0 699.5 103.25 697.75 245.25ZM409 142.5L346.5 195C337.5 202.5 337.25 214.5 346.5 222.5L409 275.5C418.75 283.75 432.25 278.75 432.25 266.25L432.25 224.25C473.75 234.75 504.25 271.25 504.25 316.25C504.25 369.5 462 412 409 412C356.25 412 314 369.25 314 316.25C314 306.5 306 298.75 295.75 298.75C286.25 298.75 278 306.5 278 316.25C278 389.25 336.25 447.75 409 447.75C482 447.75 540.25 389.25 540.25 315.5C540.25 250 491.5 197.25 432.25 188.25L432.25 152.25C432.25 139.25 418.75 134.75 409 142.5Z" fill="black" fill-opacity="0.85"/>
 </g>
</svg>
