<?xml version="1.0" encoding="UTF-8"?>
<!--Generator: Apple Native CoreSVG 326-->
<!DOCTYPE svg
PUBLIC "-//W3C//DTD SVG 1.1//EN"
       "http://www.w3.org/Graphics/SVG/1.1/DTD/svg11.dtd">
<svg version="1.1" xmlns="http://www.w3.org/2000/svg" xmlns:xlink="http://www.w3.org/1999/xlink" viewBox="0 0 798.75 597.75">
 <g>
  <rect height="597.75" opacity="0" width="798.75" x="0" y="0"/>
  <path d="M697.75 245.25C761.25 270.25 798.75 328.25 798.75 394.5C798.75 481 724.5 549.75 629.25 549.75L188.75 549.5C81 549.5 0 472.75 0 379.5C0 301.75 45.75 239 117.5 229C118.5 139.5 204.5 79.5 282.5 104.75C319.5 47.5 380.75 0 468.5 0C598 0 699.5 103.25 697.75 245.25ZM277.75 255.75L237.75 313.25C231.75 322 234 332.25 245.25 332.25L273.25 332.25C285.75 404.5 343.75 454 417 454C450 454 483.5 441.75 506.75 421.5C517.75 412.5 520.25 400.5 512.25 392C504.25 383.75 494 385 484.25 392C463.5 409.25 442.75 417.5 417 417.5C363.5 417.5 319.5 381.25 308 332.25L336 332.25C347 332.25 350.25 321.75 343.75 313.25L303.25 255.75C296.5 246.5 285 245.75 277.75 255.75ZM326.75 198C316 207.25 313.25 219 321.25 227.5C329.25 235.5 339.75 234.5 349 227.5C369.75 210 390.75 201.75 416.75 201.75C470.25 201.75 514 238.25 525.5 287.25L496.25 287.25C485.25 287.25 482 297.75 488.75 306.25L529 363.75C535.75 373 547.25 373.75 554.5 363.75L594.5 306.25C600.5 297.5 598.25 287.25 587 287.25L560.25 287.25C547.75 215 489.75 165.5 416.75 165.5C383.5 165.5 349.75 177.75 326.75 198Z" fill="black" fill-opacity="0.85"/>
 </g>
</svg>
