<?xml version="1.0" encoding="UTF-8"?>
<!--Generator: Apple Native CoreSVG 326-->
<!DOCTYPE svg
PUBLIC "-//W3C//DTD SVG 1.1//EN"
       "http://www.w3.org/Graphics/SVG/1.1/DTD/svg11.dtd">
<svg version="1.1" xmlns="http://www.w3.org/2000/svg" xmlns:xlink="http://www.w3.org/1999/xlink" viewBox="0 0 651.25 651.75">
 <g>
  <rect height="651.75" opacity="0" width="651.25" x="0" y="0"/>
  <path d="M651.25 326C651.25 505.5 505 651.75 325.5 651.75C146.25 651.75 0 505.5 0 326C0 146.75 146.25 0.5 325.5 0.5C505 0.5 651.25 146.75 651.25 326ZM225.75 246.75L113.5 391.5C100.25 408.75 117.25 424.25 134 415.25L244.5 354.75L391.5 433.5C397 436.5 402.25 438.5 407 438.5C413.5 438.5 419.75 435 425.5 427.75L537.75 282.75C550 266.75 535 249.75 517.25 259.25L406.5 320L259.5 241C254 238 249 236.25 244 236.25C237.5 236.25 231.5 239.5 225.75 246.75Z" fill="black" fill-opacity="0.85"/>
 </g>
</svg>
