<?xml version="1.0" encoding="UTF-8"?>
<!--Generator: Apple Native CoreSVG 326-->
<!DOCTYPE svg
PUBLIC "-//W3C//DTD SVG 1.1//EN"
       "http://www.w3.org/Graphics/SVG/1.1/DTD/svg11.dtd">
<svg version="1.1" xmlns="http://www.w3.org/2000/svg" xmlns:xlink="http://www.w3.org/1999/xlink" viewBox="0 0 798.75 597.75">
 <g>
  <rect height="597.75" opacity="0" width="798.75" x="0" y="0"/>
  <path d="M697.75 245.25C761.25 270.25 798.75 328.25 798.75 394.5C798.75 481 724.5 549.75 629.25 549.75L188.75 549.5C81 549.5 0 472.75 0 379.5C0 301.75 45.75 239 117.5 229C118.5 139.5 204.5 79.5 282.5 104.75C319.5 47.5 380.75 0 468.5 0C598 0 699.5 103.25 697.75 245.25ZM299.5 219.25L187.25 364C174 381.5 191 397 207.75 388L318.25 327.25L465.25 406C471 409 476 411 480.75 411C487.25 411 493.5 407.75 499.25 400.5L611.75 255.25C624 239.25 608.75 222.5 591 232L480.25 292.5L333.25 213.5C327.75 210.75 322.75 208.75 317.75 208.75C311.5 208.75 305.5 212 299.5 219.25Z" fill="black" fill-opacity="0.85"/>
 </g>
</svg>
