<?xml version="1.0" encoding="UTF-8"?>
<!--Generator: Apple Native CoreSVG 326-->
<!DOCTYPE svg
PUBLIC "-//W3C//DTD SVG 1.1//EN"
       "http://www.w3.org/Graphics/SVG/1.1/DTD/svg11.dtd">
<svg version="1.1" xmlns="http://www.w3.org/2000/svg" xmlns:xlink="http://www.w3.org/1999/xlink" viewBox="0 0 874.637 417.75">
 <g>
  <rect height="417.75" opacity="0" width="874.637" x="0" y="0"/>
  <path d="M9.81846 346.25C-16.9315 380.5 16.8185 408.75 48.3185 390.5L281.568 256.5L565.318 408.75C576.318 414.5 585.818 417.75 594.818 417.75C607.818 417.75 619.568 411.75 630.568 397.75L866.318 99.5C889.068 70.5 861.568 35.25 827.068 54.5L594.568 189.25L310.068 36.75C299.318 30.75 289.568 28 280.568 28C267.818 28 256.568 34 245.568 48ZM72.3185 336C69.0685 338 67.3185 335 69.5685 332.25L277.568 78C281.318 73.25 285.068 72.5 290.068 75.25L583.068 231.75C595.568 238.5 599.818 236.75 610.068 230.5L804.068 108.75C807.068 106.75 809.818 110 807.568 112.75L598.318 367.75C594.568 372.5 590.818 373.25 585.818 370.5L292.818 214C280.318 207.25 276.068 209 266.068 215.25Z" fill="black" fill-opacity="0.85"/>
 </g>
</svg>
