<?xml version="1.0" encoding="UTF-8"?>
<!--Generator: Apple Native CoreSVG 326-->
<!DOCTYPE svg
PUBLIC "-//W3C//DTD SVG 1.1//EN"
       "http://www.w3.org/Graphics/SVG/1.1/DTD/svg11.dtd">
<svg version="1.1" xmlns="http://www.w3.org/2000/svg" xmlns:xlink="http://www.w3.org/1999/xlink" viewBox="0 0 651.25 651.75">
 <g>
  <rect height="651.75" opacity="0" width="651.25" x="0" y="0"/>
  <path d="M325.5 651.25C505.25 651.25 651.25 505.5 651.25 325.75C651.25 146 505.25 0 325.5 0C145.75 0 0 146 0 325.75C0 505.5 145.75 651.25 325.5 651.25ZM325.5 604.75C171.25 604.75 46.5 480 46.5 325.75C46.5 171.5 171.25 46.75 325.5 46.75C479.75 46.75 604.5 171.5 604.5 325.75C604.5 480 479.75 604.75 325.5 604.75Z" fill="black" fill-opacity="0.85"/>
  <path d="M118.25 389.75C105.25 406.75 122 421.75 138.25 413L246.25 353.75L389.75 430.75C395 433.75 400.25 435.5 404.75 435.5C411.25 435.5 417.25 432.25 422.75 425.25L532.25 283.5C544.25 268 529.75 251.75 512.5 261L404.25 320L260.75 242.75C255.5 240 250.5 238.25 245.75 238.25C239.5 238.25 233.75 241.5 228 248.5Z" fill="black" fill-opacity="0.85"/>
 </g>
</svg>
