<?xml version="1.0" encoding="UTF-8"?>
<!--Generator: Apple Native CoreSVG 326-->
<!DOCTYPE svg
PUBLIC "-//W3C//DTD SVG 1.1//EN"
       "http://www.w3.org/Graphics/SVG/1.1/DTD/svg11.dtd">
<svg version="1.1" xmlns="http://www.w3.org/2000/svg" xmlns:xlink="http://www.w3.org/1999/xlink" viewBox="0 0 790.25 742.25">
 <g>
  <rect height="742.25" opacity="0" width="790.25" x="0" y="0"/>
  <path d="M729.877 171.635C717.603 166.226 704.024 163.25 689.75 163.25C669.85 163.25 651.319 168.984 635.771 178.962C621.093 155.168 593.025 140.5 554.25 140.5C507.16 140.5 459.863 162.268 418.201 196.919C463.581 246.071 501.821 304.566 527.148 362.281C559.07 349.729 584.237 333.131 602.985 314.798C613.114 332.16 628.383 346.098 646.755 354.6C619.02 375.318 584.62 392.862 543.585 405.386C554.361 438.1 560.25 469.689 560.25 498.25C560.25 603.75 488 680 386.5 680C383.632 680 380.786 679.94 378.055 679.606C390.172 663.103 397.25 642.672 397.25 620.5C397.25 611.002 395.932 601.812 393.38 593.138C453.642 589.56 494.25 537.321 494.25 466.75C494.25 451.089 492.568 434.915 489.131 418.488C458.185 424.408 424.022 427.5 387 427.5C349.873 427.5 315.288 424.302 283.677 418.253C280.204 434.759 278.5 451.014 278.5 466.75C278.5 486.297 281.633 504.438 287.53 520.464C260.531 522.853 236.656 535.874 220.113 555.321C215.125 537.636 212.5 518.501 212.5 498.25C212.5 469.571 218.461 437.838 229.359 404.979C108.029 367.691 39.25 288.436 39.25 210.5C39.25 167.153 54.0198 131.121 82.3184 106.803C84.3565 141.545 104.143 171.484 132.823 187.744C127.981 198.25 125.5 210.223 125.5 223.25C125.5 266.786 160.314 328.76 245.727 362.273C271.146 304.556 309.52 246.058 355.038 196.906C328.815 174.863 300.262 158.168 270.952 148.872C278.804 134.553 283.25 118.073 283.25 100.5C283.25 98.3306 283.182 96.1779 282.927 94.0772C318.965 110.374 354.139 135.161 386.66 165.239C447.034 109.601 516.448 72 583.5 72C666.455 72 716.835 115.615 729.877 171.635ZM294.707 376.981C321.664 382.902 352.367 386.25 387 386.25C420.914 386.25 451.243 382.917 478.124 377.043C460.06 322.545 427.232 268.549 386.57 225.995C345.776 268.532 312.839 322.505 294.707 376.981Z" fill="black" fill-opacity="0.85"/>
  <path d="M182.75 162C216.75 162 244.25 134.75 244.25 100.5C244.25 66.25 216.75 38.75 182.75 38.75C148.5 38.75 121 66.25 121 100.5C121 134.5 148.5 162 182.75 162ZM689.75 325.25C723.75 325.25 751.25 298 751.25 263.75C751.25 229.75 723.75 202.25 689.75 202.25C655.5 202.25 628 229.75 628 263.75C628 297.75 655.5 325.25 689.75 325.25ZM296.75 682C331 682 358.25 654.75 358.25 620.5C358.25 586.5 330.75 559 296.75 559C262.5 559 235 586.5 235 620.5C235 654.5 262.5 682 296.75 682Z" fill="black" fill-opacity="0.85"/>
 </g>
</svg>
