<?xml version="1.0" encoding="UTF-8"?>
<!--Generator: Apple Native CoreSVG 326-->
<!DOCTYPE svg
PUBLIC "-//W3C//DTD SVG 1.1//EN"
       "http://www.w3.org/Graphics/SVG/1.1/DTD/svg11.dtd">
<svg version="1.1" xmlns="http://www.w3.org/2000/svg" xmlns:xlink="http://www.w3.org/1999/xlink" viewBox="0 0 853 550.25">
 <g>
  <rect height="550.25" opacity="0" width="853" x="0" y="0"/>
  <path d="M749.25 550L821.5 550C840.5 550 853 536.75 853 517.5L853 32.5C853 13 840.5 0 821.5 0L749.25 0C730.25 0 717.5 13 717.5 32.5L717.5 517.5C717.5 536.75 730.25 550 749.25 550Z" fill="black" fill-opacity="0.85"/>
  <path d="M510 550L582.25 550C601 550 613.75 536.75 613.75 517.5L613.75 159C613.75 139.5 601 126.5 582.25 126.5L510 126.5C491 126.5 478.25 139.5 478.25 159L478.25 517.5C478.25 536.75 491 550 510 550Z" fill="black" fill-opacity="0.85"/>
  <path d="M271 550L343 550C362 550 374.75 536.75 374.75 517.5L374.75 274.75C374.75 255.25 362 242.25 343 242.25L271 242.25C252 242.25 239.25 255.25 239.25 274.75L239.25 517.5C239.25 536.75 252 550 271 550Z" fill="black" fill-opacity="0.85"/>
  <path d="M31.75 550L103.75 550C122.75 550 135.5 536.75 135.5 517.5L135.5 374.5C135.5 355.25 122.75 342.25 103.75 342.25L31.75 342.25C12.75 342.25 0 355.25 0 374.5L0 517.5C0 536.75 12.75 550 31.75 550Z" fill="black" fill-opacity="0.85"/>
 </g>
</svg>
