<?xml version="1.0" encoding="UTF-8"?>
<!--Generator: Apple Native CoreSVG 326-->
<!DOCTYPE svg
PUBLIC "-//W3C//DTD SVG 1.1//EN"
       "http://www.w3.org/Graphics/SVG/1.1/DTD/svg11.dtd">
<svg version="1.1" xmlns="http://www.w3.org/2000/svg" xmlns:xlink="http://www.w3.org/1999/xlink" viewBox="0 0 813.5 572.438">
 <g>
  <rect height="572.438" opacity="0" width="813.5" x="0" y="0"/>
  <path d="M0 286.344C0 394.094 41.25 492.094 111.75 564.844C121.5 575.344 135.5 574.344 143.25 565.594C151.25 557.094 149.5 544.344 140 534.594C76.25 468.594 41.5 381.344 41.5 286.344C41.5 191.344 76.25 103.844 140 38.0941C149.5 28.0941 151.25 15.5941 143.25 6.84405C135.5-1.90595 121.5-2.90595 111.75 7.59405C41.25 80.5941 0 178.594 0 286.344ZM813.5 286.344C813.5 178.594 772.25 80.5941 701.75 7.59405C692-2.90595 678.25-1.90595 670.25 6.84405C662.5 15.5941 664 28.0941 673.5 38.0941C737.25 103.844 772 191.344 772 286.344C772 381.344 737.25 468.594 673.5 534.594C664 544.344 662.5 557.094 670.25 565.594C678.25 574.344 692 575.344 701.75 564.844C772.25 492.094 813.5 394.094 813.5 286.344Z" fill="black" fill-opacity="0.85"/>
  <path d="M112.5 286.344C112.5 362.594 140.75 433.094 190.25 485.594C200 496.344 214 496.594 222.25 487.094C230.5 477.844 228.25 465.844 219 455.594C177 410.094 154 350.844 154 286.344C154 221.844 177 162.594 219 117.094C228.25 106.594 230.5 94.5941 222.25 85.3441C214 76.0941 200 76.0941 190.25 86.8441C140.75 139.344 112.5 209.844 112.5 286.344ZM701 286.344C701 209.844 673 139.344 623.5 86.8441C613.75 76.0941 599.5 76.0941 591.25 85.3441C583 94.5941 585.25 106.594 594.75 117.094C636.5 162.594 659.5 221.844 659.5 286.344C659.5 350.844 636.5 410.094 594.75 455.594C585.25 465.844 583 477.844 591.25 487.094C599.5 496.594 613.75 496.344 623.5 485.594C673 433.094 701 362.594 701 286.344Z" fill="black" fill-opacity="0.85"/>
  <path d="M225 286.344C225 329.344 240 369.594 266.5 400.844C275.5 412.344 290.75 412.344 299.25 402.844C307.25 393.594 304 382.344 295.75 371.094C276.75 348.344 266.5 318.844 266.5 286.344C266.5 253.844 276.75 224.094 295.75 201.344C304 190.344 307.25 179.094 299.25 169.844C290.75 160.344 275.5 160.344 266.5 171.594C240 202.844 225 243.094 225 286.344ZM588.5 286.344C588.5 243.094 573.5 202.844 547.25 171.594C538 160.344 522.75 160.344 514.25 169.844C506.25 179.094 509.5 190.344 518 201.344C536.75 224.094 547 253.844 547 286.344C547 318.844 536.75 348.344 518 371.094C509.5 382.344 506.25 393.594 514.25 402.844C522.75 412.344 538 412.344 547.25 400.844C573.5 369.594 588.5 329.344 588.5 286.344Z" fill="black" fill-opacity="0.85"/>
  <path d="M349.5 287.094C349.5 317.344 376 343.094 407.25 343.094C438.5 343.094 464.25 317.344 464.25 286.344C464.25 254.594 438.75 228.844 407.25 228.844C375.5 228.844 349.5 255.594 349.5 287.094Z" fill="black" fill-opacity="0.85"/>
 </g>
</svg>
