<?xml version="1.0" encoding="UTF-8"?>
<!--Generator: Apple Native CoreSVG 326-->
<!DOCTYPE svg
PUBLIC "-//W3C//DTD SVG 1.1//EN"
       "http://www.w3.org/Graphics/SVG/1.1/DTD/svg11.dtd">
<svg version="1.1" xmlns="http://www.w3.org/2000/svg" xmlns:xlink="http://www.w3.org/1999/xlink" viewBox="0 0 798.75 597.75">
 <g>
  <rect height="597.75" opacity="0" width="798.75" x="0" y="0"/>
  <path d="M629.25 549.75C724.5 549.75 798.75 481 798.75 394.5C798.75 328.25 761.25 270.25 697.75 245.25C699.5 103.25 598 0 468.5 0C380.75 0 319.5 47.5 282.5 104.75C204.5 79.5 118.5 139.5 117.5 229C45.75 239 0 301.75 0 379.5C0 472.75 81 549.5 188.75 549.5ZM629 505.5L188.5 505.25C105.75 505.25 44.25 448 44.25 379.5C44.25 314.5 83.5 263.5 152 263.5C156 263.5 157.75 261.25 157.75 257.25C157.75 160.75 229.5 127 296.5 150.5C300.25 151.75 302.5 151 304.5 147.5C336 91.5 384.5 44.25 468.5 44.25C574 44.25 648.75 128 654.75 226.75C655.75 240.5 654.75 256.75 653.75 271.25C653.5 275 655 277.5 658.5 278.25C717 292 754.5 336 754.5 394.5C754.5 456.75 699.75 505.5 629 505.5Z" fill="black" fill-opacity="0.85"/>
  <path d="M399.75 335.25C413 335.25 420.75 327.25 421.25 312.5L425.25 186.75C425.75 171.25 414.5 160.5 399.5 160.5C384.25 160.5 373.25 171 373.75 186.5L377.5 312.5C378.25 327 385.75 335.25 399.75 335.25ZM399.5 433.75C416.5 433.75 431 420 431 403C431 385.75 416.75 372.25 399.5 372.25C382 372.25 367.75 386 367.75 403C367.75 419.75 382.25 433.75 399.5 433.75Z" fill="black" fill-opacity="0.85"/>
 </g>
</svg>
