<?xml version="1.0" encoding="UTF-8"?>
<!--Generator: Apple Native CoreSVG 326-->
<!DOCTYPE svg
PUBLIC "-//W3C//DTD SVG 1.1//EN"
       "http://www.w3.org/Graphics/SVG/1.1/DTD/svg11.dtd">
<svg version="1.1" xmlns="http://www.w3.org/2000/svg" xmlns:xlink="http://www.w3.org/1999/xlink" viewBox="0 0 798.75 831.75">
 <g>
  <rect height="831.75" opacity="0" width="798.75" x="0" y="0"/>
  <path d="M697.75 335C761.25 358.75 798.75 411.75 798.75 475.25C798.75 551.5 742.25 609.5 646.25 609.5L477.75 609.5L477.75 565.25L646.25 565.25C717.5 565.25 754.5 527.25 754.5 475.25C754.5 419.75 717 381.25 658.5 368C655 367.25 653.5 364.75 653.75 361C654.75 346.5 655.75 330.25 654.75 316.5C648.75 217.75 574 134 468.5 134C384.5 134 336 181.25 304.5 237.25C302.5 240.75 300.25 241.25 296.5 240.25C229.25 220.5 157.75 250.5 157.75 347C157.75 351 156 353.25 152 353.25C83.5 353.25 44.25 399.25 44.25 461.25C44.25 519.25 85.75 565.25 163.75 565.25L321.25 565.25L321.25 609.5L164 609.5C60.75 609.5 0 543.75 0 461.25C0 386.5 45.75 328.5 117.5 318.75C118.5 229.5 209.25 173.5 282.5 194.5C319.5 137.25 380.75 89.75 468.5 89.75C598 89.75 699.5 193 697.75 335Z" fill="black" fill-opacity="0.85"/>
  <path d="M399.5 774.5C411.25 774.5 421.25 764.75 421.25 753.25L421.25 431.5L419.5 384L439.25 404.5L493.75 461.75C497.5 466 503.25 468.25 508.75 468.25C520 468.25 528.75 460 528.75 449C528.75 443 526.5 438.5 522.25 434.5L415.25 330.25C409.75 324.75 405 323 399.5 323C393.75 323 389 324.75 383.5 330.25L276.25 434.5C272.25 438.5 269.75 443 269.75 449C269.75 460 278.25 468.25 289.75 468.25C295 468.25 301 466 305 461.75L359.25 404.5L379.25 384L377.5 431.5L377.5 753.25C377.5 764.75 387.5 774.5 399.5 774.5Z" fill="black" fill-opacity="0.85"/>
 </g>
</svg>
