<?xml version="1.0" encoding="UTF-8"?>
<!--Generator: Apple Native CoreSVG 326-->
<!DOCTYPE svg
PUBLIC "-//W3C//DTD SVG 1.1//EN"
       "http://www.w3.org/Graphics/SVG/1.1/DTD/svg11.dtd">
<svg version="1.1" xmlns="http://www.w3.org/2000/svg" xmlns:xlink="http://www.w3.org/1999/xlink" viewBox="0 0 798.75 751.25">
 <g>
  <rect height="751.25" opacity="0" width="798.75" x="0" y="0"/>
  <path d="M521.839 626.439L188.75 626.25C81 626.25 0 549.5 0 456.25C0 378.5 45.75 315.75 117.5 305.75C117.772 281.384 124.345 259.204 135.5 240.456ZM697.75 322C761.25 347 798.75 405 798.75 471.25C798.75 543.262 747.289 602.972 675.017 620.799L230.667 176.86C247.643 174.504 265.267 175.921 282.5 181.5C319.5 124.25 380.75 76.75 468.5 76.75C598 76.75 699.5 180 697.75 322Z" fill="black" fill-opacity="0.85"/>
  <path d="M654.75 710.25C663.25 718.5 676.75 718.5 685 710.25C693.25 702 693.25 688.5 685 680L143.75 139C135.5 130.75 121.5 131 113.25 139C105.25 147 105.5 161.25 113.25 169.25Z" fill="black" fill-opacity="0.85"/>
 </g>
</svg>
