<?xml version="1.0" encoding="UTF-8"?>
<!--Generator: Apple Native CoreSVG 326-->
<!DOCTYPE svg
PUBLIC "-//W3C//DTD SVG 1.1//EN"
       "http://www.w3.org/Graphics/SVG/1.1/DTD/svg11.dtd">
<svg version="1.1" xmlns="http://www.w3.org/2000/svg" xmlns:xlink="http://www.w3.org/1999/xlink" viewBox="0 0 651.25 651.75">
 <g>
  <rect height="651.75" opacity="0" width="651.25" x="0" y="0"/>
  <path d="M651.25 326C651.25 505.5 505 651.75 325.5 651.75C146.25 651.75 0 505.5 0 326C0 146.75 146.25 0.5 325.5 0.5C505 0.5 651.25 146.75 651.25 326ZM257.25 228.75C252.5 227.75 246.5 227 242.25 227C208 227 179.5 251.5 176 285.75C145.25 297.75 122 327.5 122 364.25C122 416.75 157.5 447 206.75 447L460 447C499.75 447 529.75 416.5 529.75 378C529.75 344.5 507 317.25 477.25 311C477.75 307 477.75 302.5 477.75 299C477.75 232.25 425.5 178 356 178C315.25 178 279 197.5 257.25 228.75Z" fill="black" fill-opacity="0.85"/>
 </g>
</svg>
