<?xml version="1.0" encoding="UTF-8"?>
<!--Generator: Apple Native CoreSVG 326-->
<!DOCTYPE svg
PUBLIC "-//W3C//DTD SVG 1.1//EN"
       "http://www.w3.org/Graphics/SVG/1.1/DTD/svg11.dtd">
<svg version="1.1" xmlns="http://www.w3.org/2000/svg" xmlns:xlink="http://www.w3.org/1999/xlink" viewBox="0 0 798.75 717.25">
 <g>
  <rect height="717.25" opacity="0" width="798.75" x="0" y="0"/>
  <path d="M0 404C0 486.5 60.75 552.25 164 552.25L646.25 552.25C742.25 552.25 798.75 494.25 798.75 418C798.75 354.5 761.25 301.5 697.75 277.75C699.5 135.75 598 32.5 468.5 32.5C380.75 32.5 319.5 80 282.5 137.25C209.25 116.25 118.5 172.25 117.5 261.5C45.75 271.25 0 329.25 0 404ZM399.5 717.25C387.5 717.25 377.5 707.5 377.5 696L377.5 374.25L379.25 326.75L359.25 347.25L305 404.5C301 408.75 295 411 289.75 411C278.25 411 269.75 402.75 269.75 391.75C269.75 385.75 272.25 381.25 276.25 377.25L383.5 273C389 267.5 393.75 265.75 399.5 265.75C405 265.75 409.75 267.5 415.25 273L522.25 377.25C526.5 381.25 528.75 385.75 528.75 391.75C528.75 402.75 520 411 508.75 411C503.25 411 497.5 408.75 493.75 404.5L439.25 347.25L419.5 326.75L421.25 374.25L421.25 696C421.25 707.5 411.25 717.25 399.5 717.25Z" fill="black" fill-opacity="0.85"/>
 </g>
</svg>
