<?xml version="1.0" encoding="UTF-8"?>
<!--Generator: Apple Native CoreSVG 326-->
<!DOCTYPE svg
PUBLIC "-//W3C//DTD SVG 1.1//EN"
       "http://www.w3.org/Graphics/SVG/1.1/DTD/svg11.dtd">
<svg version="1.1" xmlns="http://www.w3.org/2000/svg" xmlns:xlink="http://www.w3.org/1999/xlink" viewBox="0 0 798.75 767.75">
 <g>
  <rect height="767.75" opacity="0" width="798.75" x="0" y="0"/>
  <path d="M0 429.25C0 511.75 60.75 577.5 164 577.5L646.25 577.5C742.25 577.5 798.75 519.5 798.75 443.25C798.75 379.75 761.25 326.75 697.75 303C699.5 161 598 57.75 468.5 57.75C380.75 57.75 319.5 105.25 282.5 162.5C209.25 141.5 118.5 197.5 117.5 286.75C45.75 296.5 0 354.5 0 429.25ZM399.5 767.75C393.75 767.75 389.25 765.5 383.5 760.5L271.5 654C267.25 650 265 645.5 265 639.5C265 628.25 273.5 620 284.75 620C290.25 620 296 622.5 300.25 626.75L352.75 679.5L379.25 706.75L377.5 659.25L377.5 376.5C377.5 364.75 387.5 355 399.5 355C411.25 355 421.25 364.75 421.25 376.5L421.25 659.25L419.5 706.5L445.75 679.5L498.5 626.75C502.75 622.5 508.25 620 513.5 620C524.75 620 533.5 628.25 533.5 639.5C533.5 645.5 531.5 650 527 654L415.25 760.5C409.5 765.5 405 767.75 399.5 767.75Z" fill="black" fill-opacity="0.85"/>
 </g>
</svg>
