<?xml version="1.0" encoding="UTF-8"?>
<!--Generator: Apple Native CoreSVG 326-->
<!DOCTYPE svg
PUBLIC "-//W3C//DTD SVG 1.1//EN"
       "http://www.w3.org/Graphics/SVG/1.1/DTD/svg11.dtd">
<svg version="1.1" xmlns="http://www.w3.org/2000/svg" xmlns:xlink="http://www.w3.org/1999/xlink" viewBox="0 0 703.501 704.129">
 <g>
  <rect height="704.129" opacity="0" width="703.501" x="0" y="0"/>
  <path d="M112.484 192.463C81.9909 238.066 64.2505 292.919 64.2505 351.94C64.2505 356.598 64.3614 361.231 64.9476 365.739C98.3841 394.555 134.95 418.06 173.525 436.228C173.678 381.923 182.227 328.774 198.31 278.326L225.547 305.575C212.52 352.284 206.216 401.201 207.48 451.013C249.007 467.747 292.416 478.515 336.396 483.522C329.082 456.937 324.132 429.596 321.645 401.713L362.229 442.314C364.729 457.286 368.244 471.983 372.721 486.36C383.945 486.903 395.187 487.014 406.425 486.529L438.808 518.926C420.531 520.691 402.186 521.24 383.868 520.56C397.129 557.935 415.044 593.498 437.189 626.552C463.699 618.339 488.561 606.394 511.122 591.27L538.318 618.478C485.565 655.698 421.175 677.44 351.751 677.44C172.001 677.44 26.2505 531.69 26.2505 351.94C26.2505 282.466 48.0233 218.034 85.2945 165.263ZM234.419 614.223C270.166 630.499 309.917 639.44 351.751 639.44C368.871 639.44 385.64 637.947 401.842 634.805C378.6 598.439 360.121 559.426 346.765 518.528C300.084 514.747 253.912 504.661 209.562 488.498C211.2 531.907 219.535 573.934 234.419 614.223ZM190.621 590.032C181.535 556.875 176.473 522.934 175.501 488.69C175.076 483.993 174.714 479.302 174.648 474.638C138.487 458.932 103.831 439.03 71.4202 415.033C87.4671 487.555 131.069 549.673 190.621 590.032ZM677.501 351.94C677.501 421.67 655.529 486.283 617.945 539.105L446.274 367.361C442.713 359.239 439.566 350.865 436.841 342.266C432.2 343.074 427.472 343.517 422.709 343.786L389.869 310.933C390.246 310.949 390.623 310.944 391.001 310.94C403.071 310.87 415.056 310.265 426.897 309.018C418.394 275.533 413.702 240.361 413.001 204.44C412.116 159.968 418.475 116.672 432.112 75.774L431.376 75.585C392.262 136.546 366.961 205.485 357.451 278.501L327.701 248.738C339.111 184.547 362.301 123.406 395.895 67.9174C388.899 66.4712 381.701 65.6349 374.357 65.3299C333.175 102.361 298.767 145.617 272.059 193.073L247.224 168.227C268.727 131.122 294.866 96.623 325.146 65.5336C276.077 69.9161 230.602 86.7452 191.836 112.816L164.695 85.6628C217.498 48.13 282.07 26.1896 351.751 26.1896C531.501 26.1896 677.501 172.19 677.501 351.94ZM579.09 488.493C584.947 493.013 591.059 497.215 597.426 501.074C602.679 493.097 607.258 484.666 611.12 475.826C600.631 480.669 589.953 484.923 579.09 488.493ZM471.242 337.088C488.308 385.363 514.504 428.364 548.982 462.375C576.344 453.998 603.052 442.836 628.761 428.908C635.859 404.49 639.501 378.639 639.501 351.94C639.501 324.541 635.677 298.04 628.292 273.041C581.054 304.768 527.777 326.572 471.242 337.088ZM447.251 203.94C447.975 238.528 452.624 272.283 461.087 304.215C517.422 294.108 570.367 271.92 616.573 239.223C587.483 170.822 532.661 116.046 464.235 87.0056C451.982 124.238 446.172 163.81 447.251 203.94Z" fill="black" fill-opacity="0.85"/>
  <path d="M632.251 663.19C640.501 671.44 654.251 671.19 662.251 662.94C670.751 654.44 670.751 641.19 662.251 632.69L71.2505 41.4396C63.0005 33.1896 49.5005 32.9396 41.0005 41.4396C32.7505 49.6896 32.7505 63.4396 41.0005 71.6896Z" fill="black" fill-opacity="0.85"/>
 </g>
</svg>
