<?xml version="1.0" encoding="UTF-8"?>
<!--Generator: Apple Native CoreSVG 326-->
<!DOCTYPE svg
PUBLIC "-//W3C//DTD SVG 1.1//EN"
       "http://www.w3.org/Graphics/SVG/1.1/DTD/svg11.dtd">
<svg version="1.1" xmlns="http://www.w3.org/2000/svg" xmlns:xlink="http://www.w3.org/1999/xlink" viewBox="0 0 916.5 730.751">
 <g>
  <rect height="730.751" opacity="0" width="916.5" x="0" y="0"/>
  <path d="M352.528 336.428C323.678 361.061 306.5 398.242 306.5 442.501C306.5 523.501 365 581.501 446.25 581.501L597.704 581.501L641.972 625.751L442.5 625.751C336 625.751 259.75 550.751 259.75 442.501C259.75 384.134 281.917 335.434 319.183 303.097ZM916.5 442.501C916.5 529.678 867.047 595.29 792.121 617.453C790.799 615.731 789.332 614.082 787.75 612.501L754.733 579.484C822.89 569.067 869.75 514.996 869.75 442.501C869.75 361.001 811.5 303.501 730 303.501L702.5 303.501C704.25 289.501 703 273.751 701.25 259.251L733.75 259.251C840.25 259.251 916.5 334.251 916.5 442.501ZM169.256 153.232C97.0818 160.739 46.75 215.868 46.75 291.001C46.75 372.501 105.25 430.001 186.5 430.001L214.25 430.001C212.25 444.251 213.5 460.001 215.25 474.251L182.75 474.251C76.5 474.251 0 399.251 0 291.001C0 201.663 52.3454 134.907 130.654 114.646ZM489.712 473.554C484.594 474.062 479.335 474.251 474 474.251L360.5 474.251C352.5 461.751 351.25 440.751 355 430.001L446.14 430.001ZM656.75 291.001C656.75 347.038 636.317 394.165 601.708 426.459L568.379 393.129C594.563 368.552 610 332.957 610 291.001C610 210.001 551.5 152.251 470.25 152.251L327.5 152.251L283.25 108.001L474 108.001C580.5 108.001 656.75 183.001 656.75 291.001ZM561.75 303.501L478.75 303.501L434.839 259.59C437.316 259.295 439.899 259.251 442.5 259.251L556 259.251C564.25 272.001 565.5 292.751 561.75 303.501Z" fill="black" fill-opacity="0.85"/>
  <path d="M733 667.501C741.25 675.751 755 675.751 763 667.501C771.25 658.751 771.5 645.501 763 637.251L167 41.2505C158.75 33.0005 145.25 32.7505 136.75 41.2505C128.5 49.2505 128.5 63.2505 136.75 71.2505Z" fill="black" fill-opacity="0.85"/>
 </g>
</svg>
