<?xml version="1.0" encoding="UTF-8"?>
<!--Generator: Apple Native CoreSVG 326-->
<!DOCTYPE svg
PUBLIC "-//W3C//DTD SVG 1.1//EN"
       "http://www.w3.org/Graphics/SVG/1.1/DTD/svg11.dtd">
<svg version="1.1" xmlns="http://www.w3.org/2000/svg" xmlns:xlink="http://www.w3.org/1999/xlink" viewBox="0 0 651.25 651.75">
 <g>
  <rect height="651.75" opacity="0" width="651.25" x="0" y="0"/>
  <path d="M325.5 651.25C505.25 651.25 651.25 505.5 651.25 325.75C651.25 146 505.25 0 325.5 0C145.75 0 0 146 0 325.75C0 505.5 145.75 651.25 325.5 651.25ZM325.5 604.75C171.25 604.75 46.5 480 46.5 325.75C46.5 171.5 171.25 46.75 325.5 46.75C479.75 46.75 604.5 171.5 604.5 325.75C604.5 480 479.75 604.75 325.5 604.75Z" fill="black" fill-opacity="0.85"/>
  <path d="M325.25 458C399.75 458 471.25 436 529.75 395.5C539.25 388.75 541.5 377.5 535.25 368.5C528.75 359.75 517.25 358 508 364.75C458.5 400.5 393.75 420.5 325.25 420.5C257.5 420.5 192.25 400.25 142.75 364.75C133.5 358 122 359.75 115.5 368.5C109.25 377.25 111.75 388.5 121 395.5C178.75 436 250.75 458 325.25 458Z" fill="black" fill-opacity="0.85"/>
  <path d="M325.25 355.75C381 355.75 433.25 340 472.75 310.5C481.75 303.75 483.75 292.75 477.5 284C471.75 275.5 460 273.25 450.25 280C417.25 304.25 372.5 317.75 325.25 317.75C278 317.75 233.5 304.25 200.25 280C190.75 273.25 179 275.5 173.25 284C166.75 292.75 169 303.75 178 310.5C218.25 340 270.25 355.75 325.25 355.75Z" fill="black" fill-opacity="0.85"/>
  <path d="M325.25 253.75C358.5 253.75 392 243.5 416 226.25C424.5 219.5 426.75 208.25 421.25 199.5C414.25 189.75 402.25 188.5 392 195.75C375.5 208.5 350.75 215.75 325.25 215.75C300.25 215.75 275.75 208.5 258.75 195.75C248.5 188.75 236.75 190 229.75 199.5C224 208.25 226.25 219.75 235 226.25C258 243.5 291.5 253.75 325.25 253.75Z" fill="black" fill-opacity="0.85"/>
 </g>
</svg>
