<?xml version="1.0" encoding="UTF-8"?>
<!--Generator: Apple Native CoreSVG 326-->
<!DOCTYPE svg
PUBLIC "-//W3C//DTD SVG 1.1//EN"
       "http://www.w3.org/Graphics/SVG/1.1/DTD/svg11.dtd">
<svg version="1.1" xmlns="http://www.w3.org/2000/svg" xmlns:xlink="http://www.w3.org/1999/xlink" viewBox="0 0 651.25 651.75">
 <g>
  <rect height="651.75" opacity="0" width="651.25" x="0" y="0"/>
  <path d="M651.25 326C651.25 505.5 505 651.75 325.5 651.75C146.25 651.75 0 505.5 0 326C0 146.75 146.25 0.5 325.5 0.5C505 0.5 651.25 146.75 651.25 326ZM253 116.5C211.5 176.25 189.25 249.75 189.25 325.75C189.25 402 211.5 475.75 253 535C260 544.75 272 547 280.75 540.75C290 534 291.5 522.25 285 512.75C248.25 461.75 228 395.25 228 325.75C228 255.75 248 189.75 285 138.75C291.5 129.25 290 117.5 280.75 110.75C271.75 104.25 259.75 106.5 253 116.5ZM340.25 174.75C310 215.25 293.5 268.75 293.5 325.75C293.5 382 310 435.5 340.25 476.75C347.25 486 358.5 488.25 367.5 481.75C376.25 475.75 378.75 463.5 371.75 453.5C347 419.75 332.75 374 332.75 325.75C332.75 277.5 347 231.75 371.75 198C378.75 188 376.25 175.75 367.5 169.75C358.5 163.25 347.25 165.5 340.25 174.75ZM426.5 232.75C408.5 257.5 398 291.75 398 325.75C398 360.5 408.5 395 426.5 418.5C432.75 427.5 445 429.75 453.75 423.5C463.75 416.25 465.25 404.25 458 394C445 376.5 437.25 351.25 437.25 325.75C437.25 299.75 445 274.5 458 257.5C465.5 247.25 464 234.75 453.75 227.75C445 221.75 433 224 426.5 232.75Z" fill="black" fill-opacity="0.85"/>
 </g>
</svg>
