<?xml version="1.0" encoding="UTF-8"?>
<!--Generator: Apple Native CoreSVG 326-->
<!DOCTYPE svg
PUBLIC "-//W3C//DTD SVG 1.1//EN"
       "http://www.w3.org/Graphics/SVG/1.1/DTD/svg11.dtd">
<svg version="1.1" xmlns="http://www.w3.org/2000/svg" xmlns:xlink="http://www.w3.org/1999/xlink" viewBox="0 0 651.25 651.75">
 <g>
  <rect height="651.75" opacity="0" width="651.25" x="0" y="0"/>
  <path d="M651.25 326C651.25 505.5 505 651.75 325.5 651.75C146.25 651.75 0 505.5 0 326C0 146.75 146.25 0.5 325.5 0.5C505 0.5 651.25 146.75 651.25 326ZM512 366C461 402.75 395 423 325 423C255.5 423 189 402.5 138 366C128.5 359.25 116.75 360.75 110 370C103.75 379 106 390.75 115.75 397.75C175 439.25 248.75 461.75 325 461.75C401 461.75 474.5 439.25 534.25 397.75C544.25 391 546.5 379.25 540 370C533.25 360.75 521.5 359.25 512 366ZM452.75 279C419 304 373.25 318 325 318C276.75 318 231 304 197.25 279C187.25 272.25 175 274.5 169 283.25C162.5 292.25 164.75 303.75 174 310.5C215.25 340.75 268.75 357.25 325 357.25C382 357.25 435.5 340.75 476 310.5C485.25 303.75 487.5 292.25 481 283.25C475 274.5 462.75 272.25 452.75 279ZM393.25 192.75C376.25 205.75 351 213.5 325 213.5C299.5 213.5 274.25 205.75 256.75 192.75C246.5 185.5 234.5 187 227.25 197C221 205.75 223.25 218 232.25 224.25C255.75 242.25 290.25 252.75 325 252.75C359 252.75 393.25 242.25 418 224.25C426.75 217.75 429 205.75 423 197C416 186.75 403.5 185.25 393.25 192.75Z" fill="black" fill-opacity="0.85"/>
 </g>
</svg>
