<?xml version="1.0" encoding="UTF-8"?>
<!--Generator: Apple Native CoreSVG 326-->
<!DOCTYPE svg
PUBLIC "-//W3C//DTD SVG 1.1//EN"
       "http://www.w3.org/Graphics/SVG/1.1/DTD/svg11.dtd">
<svg version="1.1" xmlns="http://www.w3.org/2000/svg" xmlns:xlink="http://www.w3.org/1999/xlink" viewBox="0 0 651.25 651.75">
 <g>
  <rect height="651.75" opacity="0" width="651.25" x="0" y="0"/>
  <path d="M651.25 326C651.25 505.5 505 651.75 325.5 651.75C146.25 651.75 0 505.5 0 326C0 146.75 146.25 0.5 325.5 0.5C505 0.5 651.25 146.75 651.25 326ZM371 110.75C362 117.5 360.25 129.25 367 138.75C403.75 189.75 424 255.75 424 325.75C424 395.25 403.5 461.75 367 512.75C360.25 522.25 362 534 371 540.75C380 547 391.75 544.75 398.75 535C440.25 475.75 462.75 402 462.75 325.75C462.75 249.75 440.25 176.25 398.75 116.5C392 106.5 380.25 104.25 371 110.75ZM284.5 169.75C275.5 175.75 273.25 188 280.25 198C305 231.75 319 277.5 319 325.75C319 374 305 419.75 280.25 453.5C273.25 463.5 275.5 475.75 284.5 481.75C293.5 488.25 304.75 486 311.75 476.75C341.75 435.5 358.25 382 358.25 325.75C358.25 268.75 341.75 215.25 311.75 174.75C304.75 165.5 293.5 163.25 284.5 169.75ZM198 227.75C188 234.75 186.25 247.25 194 257.5C206.75 274.5 214.5 299.75 214.5 325.75C214.5 351.25 206.75 376.5 194 394C186.5 404.25 188.25 416.25 198 423.5C207 429.75 219 427.5 225.5 418.5C243.25 395 253.75 360.5 253.75 325.75C253.75 291.75 243.25 257.5 225.5 232.75C218.75 224 207 221.75 198 227.75Z" fill="black" fill-opacity="0.85"/>
 </g>
</svg>
