<?xml version="1.0" encoding="UTF-8"?>
<!--Generator: Apple Native CoreSVG 326-->
<!DOCTYPE svg
PUBLIC "-//W3C//DTD SVG 1.1//EN"
       "http://www.w3.org/Graphics/SVG/1.1/DTD/svg11.dtd">
<svg version="1.1" xmlns="http://www.w3.org/2000/svg" xmlns:xlink="http://www.w3.org/1999/xlink" viewBox="0 0 453.75 754.078">
 <g>
  <rect height="754.078" opacity="0" width="453.75" x="0" y="0"/>
  <path d="M453.75 377.164C453.75 242.914 412.25 117.414 337.25 12.1642C317.5-15.0858 277.5 8.91423 298.5 37.6642C369 135.414 406.75 252.414 406.75 377.164C406.75 501.664 368.75 618.664 298.5 716.414C278 744.414 316.75 770.164 337.25 741.664C412 636.664 453.75 510.914 453.75 377.164Z" fill="black" fill-opacity="0.85"/>
  <path d="M280 377.164C280 277.164 248.75 183.414 191.75 106.664C170 77.4142 132 105.664 152.5 132.414C205 202.164 233 286.914 233 377.164C233 467.414 205 551.914 152.5 621.664C132 648.414 170 676.414 191.75 647.414C248.75 570.664 280 476.664 280 377.164Z" fill="black" fill-opacity="0.85"/>
  <path d="M106.75 377.164C106.75 311.414 84.25 250.164 43.75 202.914C20.5 175.414-12.25 206.414 4.75 228.164C43.5 275.664 59.75 319.414 59.75 377.164C59.75 434.664 43.5 478.664 5 526.164C-12 547.664 21 577.914 43.75 551.164C84.25 503.914 106.75 442.664 106.75 377.164Z" fill="black" fill-opacity="0.85"/>
 </g>
</svg>
