<?xml version="1.0" encoding="UTF-8"?>
<!--Generator: Apple Native CoreSVG 326-->
<!DOCTYPE svg
PUBLIC "-//W3C//DTD SVG 1.1//EN"
       "http://www.w3.org/Graphics/SVG/1.1/DTD/svg11.dtd">
<svg version="1.1" xmlns="http://www.w3.org/2000/svg" xmlns:xlink="http://www.w3.org/1999/xlink" viewBox="0 0 753.927 466.75">
 <g>
  <rect height="466.75" opacity="0" width="753.927" x="0" y="0"/>
  <path d="M376.964 466.75C511.214 466.75 636.714 425 741.714 350C769.214 330.5 745.214 290.25 716.464 311.25C618.714 382 501.714 419.5 376.964 419.5C252.464 419.5 135.464 381.75 37.7136 311.25C9.46365 291-16.0364 329.5 12.4636 350C117.464 425 242.964 466.75 376.964 466.75Z" fill="black" fill-opacity="0.85"/>
  <path d="M376.964 293C476.964 293 570.714 261.5 647.464 204.75C676.464 183 648.464 145 621.714 165.5C551.964 218 467.214 246 376.964 246C286.714 246 202.214 218 132.464 165.5C105.714 145 77.7136 183 106.714 204.75C183.464 261.5 277.214 293 376.964 293Z" fill="black" fill-opacity="0.85"/>
  <path d="M376.964 119.75C442.714 119.75 503.964 97.25 551.214 56.5C578.714 33.25 547.714 0.5 525.964 17.75C478.214 56.5 434.714 72.75 376.964 72.75C319.464 72.75 275.464 56.5 227.964 17.75C206.464 0.75 176.214 34 202.964 56.5C250.214 97.25 311.464 119.75 376.964 119.75Z" fill="black" fill-opacity="0.85"/>
 </g>
</svg>
