<?xml version="1.0" encoding="UTF-8"?>
<!--Generator: Apple Native CoreSVG 326-->
<!DOCTYPE svg
PUBLIC "-//W3C//DTD SVG 1.1//EN"
       "http://www.w3.org/Graphics/SVG/1.1/DTD/svg11.dtd">
<svg version="1.1" xmlns="http://www.w3.org/2000/svg" xmlns:xlink="http://www.w3.org/1999/xlink" viewBox="0 0 753.927 466.669">
 <g>
  <rect height="466.669" opacity="0" width="753.927" x="0" y="0"/>
  <path d="M376.964 12.9595C242.964 12.9595 117.464 54.7095 12.4636 129.46C-16.0364 149.96 9.46365 188.71 37.7136 168.21C135.464 97.7095 252.464 59.9595 376.964 59.9595C501.714 59.9595 618.714 97.7095 716.464 168.21C745.214 189.21 769.214 148.96 741.714 129.46C636.714 54.4595 511.214 12.9595 376.964 12.9595Z" fill="black" fill-opacity="0.85"/>
  <path d="M376.964 186.46C277.214 186.46 183.464 217.96 106.714 274.96C77.7136 296.46 105.714 334.71 132.464 314.21C202.214 261.46 286.714 233.46 376.964 233.46C467.214 233.46 551.964 261.46 621.714 314.21C648.464 334.71 676.464 296.46 647.464 274.96C570.714 217.96 476.964 186.46 376.964 186.46Z" fill="black" fill-opacity="0.85"/>
  <path d="M376.964 359.71C311.464 359.71 250.214 382.46 202.964 422.96C176.214 445.46 206.464 478.71 227.964 461.71C275.464 423.21 319.464 406.71 376.964 406.71C434.714 406.71 478.214 423.21 525.964 461.96C547.714 478.96 578.714 446.21 551.214 422.96C503.964 382.46 442.714 359.71 376.964 359.71Z" fill="black" fill-opacity="0.85"/>
 </g>
</svg>
