<?xml version="1.0" encoding="UTF-8"?>
<!--Generator: Apple Native CoreSVG 326-->
<!DOCTYPE svg
PUBLIC "-//W3C//DTD SVG 1.1//EN"
       "http://www.w3.org/Graphics/SVG/1.1/DTD/svg11.dtd">
<svg version="1.1" xmlns="http://www.w3.org/2000/svg" xmlns:xlink="http://www.w3.org/1999/xlink" viewBox="0 0 738.219 700.25">
 <g>
  <rect height="700.25" opacity="0" width="738.219" x="0" y="0"/>
  <path d="M606.485 375C610.985 380.5 610.735 387.5 605.485 392.25L556.985 440.5C550.485 446.5 542.985 446.75 537.235 440.25C512.488 413.325 478.44 390.953 440.636 377.972L441.229 280.01C510.574 295.038 570.324 330.596 606.485 375ZM297.743 377.736C260.129 390.498 226.262 412.577 201.985 439.5C195.485 446.25 187.485 447 180.985 440.75L132.485 392.25C126.985 387 126.985 380.5 131.485 375C167.875 330.544 227.629 294.954 297.019 279.956Z" fill="black" fill-opacity="0.85"/>
  <path d="M296.307 183.618C208.185 197.855 129.757 239.483 67.4846 305.5C61.4846 311.75 52.9846 311.75 46.9846 306L3.9846 262.25C-1.0154 256.75-1.2654 250 2.9846 244.5C65.654 167.048 175.314 107.283 295.611 89.62ZM734.985 244.5C739.235 250 739.485 256.75 733.985 262.25L690.985 305.25C684.985 311.25 676.735 311.5 670.985 305.75C609.261 239.49 530.426 197.808 441.812 183.594L442.381 89.6434C562.611 107.366 672.114 167.265 734.985 244.5Z" fill="black" fill-opacity="0.85"/>
  <path d="M368.985 613.25C394.485 613.25 415.235 592.5 415.235 567.25C415.235 541.75 394.485 521 368.985 521C343.735 521 322.985 541.5 322.985 567.25C322.985 592.5 343.735 613.25 368.985 613.25ZM369.235 468.25C383.735 468.25 393.735 458.75 393.985 443.75C394.735 320 395.485 196 396.235 72.25C396.235 56.5 383.985 46 368.985 46C354.235 46 341.735 56.5 341.735 72.25C342.735 196 343.485 320 344.485 443.75C344.735 458.75 354.735 468.25 369.235 468.25Z" fill="black" fill-opacity="0.85"/>
 </g>
</svg>
