<?xml version="1.0" encoding="UTF-8"?>
<!--Generator: Apple Native CoreSVG 326-->
<!DOCTYPE svg
PUBLIC "-//W3C//DTD SVG 1.1//EN"
       "http://www.w3.org/Graphics/SVG/1.1/DTD/svg11.dtd">
<svg version="1.1" xmlns="http://www.w3.org/2000/svg" xmlns:xlink="http://www.w3.org/1999/xlink" viewBox="0 0 651.25 651.75">
 <g>
  <rect height="651.75" opacity="0" width="651.25" x="0" y="0"/>
  <path d="M651.25 326C651.25 505.5 505 651.75 325.5 651.75C146.25 651.75 0 505.5 0 326C0 146.75 146.25 0.5 325.5 0.5C505 0.5 651.25 146.75 651.25 326ZM264 417.75C261.5 421.5 262.25 425.5 265.75 429L310.25 472C317.5 479.25 321 481 325.75 481C330.25 481 333.75 479.5 341.5 472L386 429C389.25 425.5 390 420.5 386.75 416.5C374.25 399.5 349.75 387.25 325.75 387.25C301.25 387.25 277 399.75 264 417.75ZM188 339C184.75 343 185.25 348 189 352L216.25 379.5C221 384.25 227 384.5 232 379C254.75 353.75 290.75 337.25 325.75 337.75C360.25 337.25 396.5 353.75 419.75 379.25C424.5 384.25 430.25 384.25 435 379.5L462.75 352C466.5 348.25 466.75 342.75 463.25 339C433.5 302.75 380.25 279.25 325.75 279.25C271 279.25 217.75 303 188 339ZM114.25 264.25C110.75 268.75 111.5 273.75 115.25 277.5L139.5 302.5C143.25 307.25 150.25 307.25 155 302C199 255.25 258.5 229.75 325.75 229.75C392.75 229.75 453 254.75 497 302.5C501.25 307 507.5 306.75 512 302.25L536.25 277.5C540 273.75 540.5 268.75 537 264.25C492 209.25 408.25 171.75 325.75 171.75C243 171.75 159.25 209 114.25 264.25Z" fill="black" fill-opacity="0.85"/>
 </g>
</svg>
