<?xml version="1.0" encoding="UTF-8"?>
<!--Generator: Apple Native CoreSVG 326-->
<!DOCTYPE svg
PUBLIC "-//W3C//DTD SVG 1.1//EN"
       "http://www.w3.org/Graphics/SVG/1.1/DTD/svg11.dtd">
<svg version="1.1" xmlns="http://www.w3.org/2000/svg" xmlns:xlink="http://www.w3.org/1999/xlink" viewBox="0 0 738.219 754.063">
 <g>
  <rect height="754.063" opacity="0" width="738.219" x="0" y="0"/>
  <path d="M212.291 233.776C158.015 255.005 109.136 288.25 67.4846 332.406C61.4846 338.656 52.9846 338.656 46.9846 332.906L3.9846 289.156C-1.0154 283.656-1.2654 276.906 2.9846 271.406C37.3555 228.928 85.8607 191.77 142.593 164.046ZM734.985 271.406C739.235 276.906 739.485 283.656 733.985 289.156L690.985 332.156C684.985 338.156 676.735 338.406 670.985 332.656C592.735 248.656 486.985 204.156 368.985 204.156C360.165 204.156 351.416 204.407 342.894 205.403L260.373 122.844C295.63 115.099 332.16 110.906 368.985 110.906C516.735 110.906 659.485 178.656 734.985 271.406Z" fill="black" fill-opacity="0.85"/>
  <path d="M371.156 392.714C370.434 392.655 369.709 392.654 368.985 392.656C304.735 392.406 240.985 423.156 201.985 466.406C195.485 473.156 187.485 473.906 180.985 467.656L132.485 419.156C126.985 413.906 126.985 407.406 131.485 401.906C166.213 359.48 222.22 325.129 287.627 309.146ZM606.485 401.906C610.985 407.406 610.735 414.406 605.485 419.156L580.948 443.566L445.369 307.925C512.972 323.38 571.053 358.397 606.485 401.906Z" fill="black" fill-opacity="0.85"/>
  <path d="M472.985 536.906C477.235 542.656 476.235 549.156 471.485 553.656L393.485 628.406C381.235 640.406 375.485 643.406 368.985 643.406C362.485 643.406 356.735 640.156 344.485 628.406L266.735 553.656C261.985 549.156 260.735 543.656 263.985 538.406C284.235 511.406 323.985 487.656 368.985 487.656C412.985 487.656 452.735 510.656 472.985 536.906Z" fill="black" fill-opacity="0.85"/>
  <path d="M644.485 616.656C652.735 625.156 666.485 625.156 674.735 616.656C682.985 608.156 682.985 594.906 674.735 586.656L129.235 41.1564C120.985 32.9064 107.235 32.6564 98.7346 41.1564C90.7346 49.1564 90.7346 63.4064 98.7346 71.4064Z" fill="black" fill-opacity="0.85"/>
 </g>
</svg>
