<?xml version="1.0" encoding="UTF-8"?>
<!--Generator: Apple Native CoreSVG 326-->
<!DOCTYPE svg
PUBLIC "-//W3C//DTD SVG 1.1//EN"
       "http://www.w3.org/Graphics/SVG/1.1/DTD/svg11.dtd">
<svg version="1.1" xmlns="http://www.w3.org/2000/svg" xmlns:xlink="http://www.w3.org/1999/xlink" viewBox="0 0 651.25 651.75">
 <g>
  <rect height="651.75" opacity="0" width="651.25" x="0" y="0"/>
  <path d="M651.25 326C651.25 505.5 505 651.75 325.5 651.75C146.25 651.75 0 505.5 0 326C0 146.75 146.25 0.5 325.5 0.5C505 0.5 651.25 146.75 651.25 326ZM297.5 450.75C297.5 465.75 310.25 478.25 325.25 478.25C340.5 478.25 353 465.75 353 450.75C353 435.25 340.5 423.25 325.25 423.25C310.25 423.25 297.5 435.25 297.5 450.75ZM308.5 165.5C309.25 237 309.75 308.75 310.25 380C310.5 388.75 316.5 395 325.5 395C334.25 395 340.5 388.75 340.75 380C341.25 308.75 341.5 237 342.25 165.5C342.25 155.5 334.25 149.25 325.25 149.25C316.5 149.25 308.5 155.5 308.5 165.5ZM188.25 339C184.75 343 185.25 348 189 352L216.5 379.5C221.25 384.25 227.25 384.5 232.25 379C245.689 364.084 263.753 352.221 283.464 345.152L282.967 284.119C244.588 292.749 210.088 312.574 188.25 339ZM367.497 344.932C387.585 351.997 406.112 364.018 420 379.25C424.75 384.25 430.5 384.25 435.25 379.5L462.75 352C466.5 348.25 467 342.75 463.5 339C441.517 312.215 406.704 292.39 367.923 283.9ZM114.5 264.25C111 268.75 111.5 273.75 115.25 277.5L139.5 302.5C143.5 307.25 150.5 307.25 155 302C189.463 265.589 233.177 242.069 282.555 233.651L282.079 175.197C214.831 185.493 151.539 218.774 114.5 264.25ZM368.275 233.47C418.32 241.644 462.724 265.09 497 302.5C501.5 307 507.75 306.75 512 302.25L536.25 277.5C540.25 273.75 540.75 268.75 537.25 264.25C499.853 218.794 436.329 185.292 368.683 175.103Z" fill="black" fill-opacity="0.85"/>
 </g>
</svg>
