<?xml version="1.0" encoding="UTF-8"?>
<!--Generator: Apple Native CoreSVG 326-->
<!DOCTYPE svg
PUBLIC "-//W3C//DTD SVG 1.1//EN"
       "http://www.w3.org/Graphics/SVG/1.1/DTD/svg11.dtd">
<svg version="1.1" xmlns="http://www.w3.org/2000/svg" xmlns:xlink="http://www.w3.org/1999/xlink" viewBox="0 0 651.25 651.75">
 <g>
  <rect height="651.75" opacity="0" width="651.25" x="0" y="0"/>
  <path d="M325.5 651.25C505.25 651.25 651.25 505.5 651.25 325.75C651.25 146 505.25 0 325.5 0C145.75 0 0 146 0 325.75C0 505.5 145.75 651.25 325.5 651.25ZM325.5 604.75C171.25 604.75 46.5 480 46.5 325.75C46.5 171.5 171.25 46.75 325.5 46.75C479.75 46.75 604.5 171.5 604.5 325.75C604.5 480 479.75 604.75 325.5 604.75Z" fill="black" fill-opacity="0.85"/>
  <path d="M143.5 302.25C147.25 306.75 154 306.75 158.25 302C201.5 256 259.75 231 325.25 231C391 231 450 255.5 492.75 302.25C497 306.5 503.25 306.5 507.25 302L531 278C534.75 274.25 535 269.25 531.75 265C487.75 211.25 406 174.75 325.25 174.75C244.75 174.75 162.75 211 119 265C115.75 269.25 116.25 274.25 119.75 278Z" fill="black" fill-opacity="0.85"/>
  <path d="M218.5 377.5C223 382.25 228.75 381.75 233.75 377C256 352.25 291.25 336.25 325.25 336.75C359.25 336.25 394.75 352.25 417.5 377.25C422 382 428 382.25 432 377.5L459 350.75C462.75 347.25 463.25 341.75 459.75 338C430.75 302.5 378.75 280 325.25 280C272 280 220 302.75 191 338C187.75 342 188 347 191.75 350.75Z" fill="black" fill-opacity="0.85"/>
  <path d="M325.25 476.75C329.75 476.75 332.75 475 340.5 468L384 426C387.5 422.5 388 417.75 385 413.75C372.75 397.25 349 385.25 325.25 385.25C301.5 385.25 278 397.5 265.25 415C262.5 418.5 263.25 422.5 266.75 426L310.25 468C317.75 474.75 321 476.75 325.25 476.75Z" fill="black" fill-opacity="0.85"/>
 </g>
</svg>
