<?xml version="1.0" encoding="UTF-8"?>
<!--Generator: Apple Native CoreSVG 326-->
<!DOCTYPE svg
PUBLIC "-//W3C//DTD SVG 1.1//EN"
       "http://www.w3.org/Graphics/SVG/1.1/DTD/svg11.dtd">
<svg version="1.1" xmlns="http://www.w3.org/2000/svg" xmlns:xlink="http://www.w3.org/1999/xlink" viewBox="0 0 738.219 532.75">
 <g>
  <rect height="532.75" opacity="0" width="738.219" x="0" y="0"/>
  <path d="M46.9846 222.25C52.9846 228 61.4846 228 67.4846 221.75C146.485 138 251.485 93.5 368.985 93.5C486.985 93.5 592.735 138 670.985 222C676.735 227.75 684.985 227.5 690.985 221.5L733.985 178.5C739.485 173 739.235 166.25 734.985 160.75C659.485 68 516.735 0.25 368.985 0.25C221.235 0.25 78.2346 67.75 2.9846 160.75C-1.2654 166.25-1.0154 173 3.9846 178.5Z" fill="black" fill-opacity="0.85"/>
  <path d="M180.985 357C187.485 363.25 195.485 362.5 201.985 355.75C240.985 312.5 304.735 281.75 368.985 282C433.735 281.75 497.485 313.25 537.235 356.5C542.985 363 550.485 362.75 556.985 356.75L605.485 308.5C610.735 303.75 610.985 296.75 606.485 291.25C558.235 232 467.985 188.5 368.985 188.5C269.985 188.5 179.985 232 131.485 291.25C126.985 296.75 126.985 303.25 132.485 308.5Z" fill="black" fill-opacity="0.85"/>
  <path d="M368.985 532.75C375.485 532.75 381.235 529.75 393.485 517.75L471.485 443C476.235 438.5 477.235 432 472.985 426.25C452.735 400 412.985 377 368.985 377C323.985 377 284.235 400.75 263.985 427.75C260.735 433 261.985 438.5 266.735 443L344.485 517.75C356.735 529.5 362.485 532.75 368.985 532.75Z" fill="black" fill-opacity="0.85"/>
 </g>
</svg>
