<?xml version="1.0" encoding="UTF-8"?>
<!--Generator: Apple Native CoreSVG 326-->
<!DOCTYPE svg
PUBLIC "-//W3C//DTD SVG 1.1//EN"
       "http://www.w3.org/Graphics/SVG/1.1/DTD/svg11.dtd">
<svg version="1.1" xmlns="http://www.w3.org/2000/svg" xmlns:xlink="http://www.w3.org/1999/xlink" viewBox="0 0 798.75 597.75">
 <g>
  <rect height="597.75" opacity="0" width="798.75" x="0" y="0"/>
  <path d="M697.75 245.25C761.25 270.25 798.75 328.25 798.75 394.5C798.75 481 724.5 549.75 629.25 549.75L188.75 549.5C81 549.5 0 472.75 0 379.5C0 301.75 45.75 239 117.5 229C118.5 139.5 204.5 79.5 282.5 104.75C319.5 47.5 380.75 0 468.5 0C598 0 699.5 103.25 697.75 245.25ZM298.75 215.25C291.25 223.5 289.5 236 298.25 245.25L368.75 315.75L298.25 386.5C289.5 395.75 290.5 408.75 298.75 416.25C307 423.75 319.5 425.75 329 416.75L399.25 346.5L469.75 416.75C479.25 425.75 492 424.75 499.75 416.5C507.5 408.25 509.25 395.75 500.5 386.5L430 315.75L500.5 245.25C509.25 236 508.25 223 500 215.25C491.75 207.5 479.25 205.75 469.75 215L399.25 285.25L329 215C319.5 206 306.5 207 298.75 215.25Z" fill="black" fill-opacity="0.85"/>
 </g>
</svg>
