<?xml version="1.0" encoding="UTF-8"?>
<!--Generator: Apple Native CoreSVG 326-->
<!DOCTYPE svg
PUBLIC "-//W3C//DTD SVG 1.1//EN"
       "http://www.w3.org/Graphics/SVG/1.1/DTD/svg11.dtd">
<svg version="1.1" xmlns="http://www.w3.org/2000/svg" xmlns:xlink="http://www.w3.org/1999/xlink" viewBox="0 0 812 689.25">
 <g>
  <rect height="689.25" opacity="0" width="812" x="0" y="0"/>
  <path d="M275.25 592C275.25 656.5 307.5 689.25 371.5 689.25L715.75 689.25C779.5 689.25 812 656.5 812 592L812 97.5C812 33 779.5 0.25 715.75 0.25L371.5 0.25C307.5 0.25 275.25 33 275.25 97.5ZM319.5 591L319.5 98.5C319.5 63.5 338 44.5 374 44.5L713.25 44.5C749.25 44.5 767.75 63.5 767.75 98.5L767.75 591C767.75 626 749.25 645 713.25 645L374 645C338 645 319.5 626 319.5 591Z" fill="black" fill-opacity="0.85"/>
  <path d="M386 499C421.5 499 514.75 446 514.75 333.25C514.75 220.25 421.5 167.25 386 167.25C375.25 167.25 367.75 172.75 367.75 184.25L367.75 482.25C367.75 493.75 375.25 499 386 499ZM631 415.75C679.25 415.75 719.25 379 719.25 333.25C719.25 287.5 679.25 250.75 631 250.75C579.5 250.75 541 287.5 540.75 333.25C540.5 379 579.5 415.75 631 415.75Z" fill="black" fill-opacity="0.85"/>
  <path d="M6.75 291C-7.25 307.25 1.75 329.25 23 329.25L80.25 329.25L80.25 473.75C80.25 486.25 89.75 495.5 102 495.5C114.25 495.5 123.5 486.25 123.5 473.75L123.5 329.25L180.25 329.25C202.5 329.25 210.5 306.5 196.75 291L118.75 201C109 190 94.75 189.75 84.5 201Z" fill="black" fill-opacity="0.85"/>
 </g>
</svg>
