<?xml version="1.0" encoding="UTF-8"?>
<!--Generator: Apple Native CoreSVG 326-->
<!DOCTYPE svg
PUBLIC "-//W3C//DTD SVG 1.1//EN"
       "http://www.w3.org/Graphics/SVG/1.1/DTD/svg11.dtd">
<svg version="1.1" xmlns="http://www.w3.org/2000/svg" xmlns:xlink="http://www.w3.org/1999/xlink" viewBox="0 0 630 756.75">
 <g>
  <rect height="756.75" opacity="0" width="630" x="0" y="0"/>
  <path d="M364.25 754.75C479.25 754.75 550.75 713.75 550.75 644.25L550.75 486.25C600.75 443.25 630 373.5 630 296.75C630 118.75 514.25 0 341.25 0C169.25 0 54 116.25 54 290C54 300.5 54.25 309 55.25 317.25L15.75 388.75C5 407.5 0 425.5 0 442.5C0 474.75 20.25 501.5 54.5 509.25L54.5 571.25C54.5 626 92.25 653.75 143 648.5L210.75 641.25L179.5 606.75L179.5 644.25C179.5 713.25 250 754.75 364.25 754.75ZM364.25 710.5C276.25 710.5 222 681.75 222 636.5L222 601.25C222 596.75 219.5 595 215.5 595.25L137.25 604.25C112.75 606.75 98.75 595.25 98.75 567.75L98.75 476.5C98.75 473.5 96.75 471.5 93 471.5L81 471.5C58.5 471.5 45 460 45 441.5C45 432.75 48.25 421.5 54.25 410.75L101.25 326.25C99.25 313.75 98.25 301.5 98.25 289.25C98.25 142.5 195.5 44.25 341.25 44.25C487.75 44.25 585.75 145 585.75 296.75C585.75 368.5 556 431.75 506.25 464.5L506.25 636.5C506.25 681.75 452 710.5 364.25 710.5Z" fill="black" fill-opacity="0.85"/>
  <path d="M232.25 333.25C271.75 333.25 299.5 308 299.5 272.5C299.5 260 295.25 249 288 241.75C283.25 237.25 281.5 232.5 281.5 229C281.5 222 287.5 216.5 295 216.5C298 216.5 302.25 217.25 305.5 220.5C308.75 223 311.25 228.75 312.25 232C337.5 227.5 350 212.25 350 187.25C350 180 355.75 173.75 363 173.75C370.25 173.75 376.75 180.25 376.75 187.25C376.75 223.75 358.75 246.75 324 255.25C325.75 260.75 326.25 267 326.25 273C326.25 304.75 309.75 330 283 343.75C298.5 352.75 317 357.75 337.25 357.75C345.25 357.75 354.5 356.75 363.25 355.25C361.25 350 360.5 344.75 360.5 339.5C360.5 258.5 483.25 243.75 483.25 169.75C483.25 133.5 454.75 105.5 419 105.5C406.75 105.5 402.25 106 397.75 107C385 91.25 365.5 81.75 346.75 81.75C313.75 81.75 290 101.5 289.25 133.25C289.25 141.25 283.75 146.75 275.75 146.75C267.5 146.75 262 140.5 262.5 132.5C262.75 119 266.75 108.75 270.75 100C265.25 98.75 259.5 98.25 253.75 98.25C215.25 98.25 185.75 123 185.75 155C185.75 176.25 201 191.75 221 191.75C229 191.75 235 197.75 235 205.25C235 212.5 228.75 218.75 221 218.75C194.25 218.75 173.25 205.5 164.5 185C152.75 201 146.25 220.75 146.25 240.75C146.25 293.25 180.75 333.25 232.25 333.25ZM475.75 423.75C509.5 423.75 532.75 384.25 532.75 327C532.75 322 532.75 316.75 532.5 311.5C520 317.5 505 320.25 488 319.5C480.75 318.75 475 313 475 305.75C475 298.5 481.25 292 488.5 292.5C524.75 294.25 548.75 274 548.75 241.5C548.75 211.5 533.25 186.75 508 174C500.5 262.75 384.5 274.75 384.5 338.75C384.5 358.75 398.75 372.75 421.75 372.75L428 372.75C432.75 403.25 451.5 423.75 475.75 423.75Z" fill="black" fill-opacity="0.85"/>
 </g>
</svg>
