<?xml version="1.0" encoding="UTF-8"?>
<!--Generator: Apple Native CoreSVG 326-->
<!DOCTYPE svg
PUBLIC "-//W3C//DTD SVG 1.1//EN"
       "http://www.w3.org/Graphics/SVG/1.1/DTD/svg11.dtd">
<svg version="1.1" xmlns="http://www.w3.org/2000/svg" xmlns:xlink="http://www.w3.org/1999/xlink" viewBox="0 0 513 696.25">
 <g>
  <rect height="696.25" opacity="0" width="513" x="0" y="0"/>
  <path d="M24.5 538C24.5 624.75 79 680.5 164 680.5C228 680.5 276.5 650.75 306 595.25L332.25 547.5C400.75 417.75 513 406.75 513 248.5C513 99.25 417 0 272.25 0C124.5 0 24.5 100.75 24.5 250.25ZM66.25 535.5L66.25 250.25C66.25 125 149 41.75 272.25 41.75C391.75 41.75 471.25 124.75 471.25 248.5C471.25 384.25 365.5 401.5 295.25 528.75L269.5 573.75C246 616.75 212 637.75 165.75 637.75C104.5 637.75 66.25 598.5 66.25 535.5ZM137.25 412.5C148.5 412.5 158 403 158 391.75L158 247.25C158 182 203.25 139 271.5 139C337.5 139 380 181.5 380 247.25C380 258.5 389.5 268 401 268C412.25 268 421.75 258.5 421.75 247.25C421.75 157.25 361.75 97.25 271.5 97.25C179 97.25 116.25 157.5 116.25 247.25L116.25 391.75C116.25 403 125.75 412.5 137.25 412.5ZM135.25 314.75L247.75 314.75C271.5 314.75 287 329.25 287 350.5C287 361.5 281.25 375.75 273.25 385.5L234.25 434.75C230.75 439.25 228.75 444.25 228.75 449.5C228.75 461 238.5 470.25 250 470.25C256.25 470.25 262.5 467 267.25 461L309.25 407.75C322 391.5 330.5 367.75 330.5 348.5C330.5 303.25 297.25 273 247 273L135.25 273Z" fill="black" fill-opacity="0.85"/>
 </g>
</svg>
