<?xml version="1.0" encoding="UTF-8"?>
<!--Generator: Apple Native CoreSVG 326-->
<!DOCTYPE svg
PUBLIC "-//W3C//DTD SVG 1.1//EN"
       "http://www.w3.org/Graphics/SVG/1.1/DTD/svg11.dtd">
<svg version="1.1" xmlns="http://www.w3.org/2000/svg" xmlns:xlink="http://www.w3.org/1999/xlink" viewBox="0 0 740.75 581.75">
 <g>
  <rect height="581.75" opacity="0" width="740.75" x="0" y="0"/>
  <path d="M172.75 581.75C269 581.75 345.75 462.75 345.75 290.75C345.75 118.5 269 0 172.75 0C76.5 0 0 118.5 0 290.75C0 462.75 76.5 581.75 172.75 581.75ZM172.75 542.5C100.25 542.75 40 439 40 290.75C40 143.5 100.25 39.75 172.75 39.25C246.25 39 306.5 142.5 306.5 290.75C306.5 438.25 246.25 542 172.75 542.5ZM101.75 402.75C154.5 402.75 189.75 366 189.75 310.5C189.75 255.5 154.5 218.5 101.75 218.5C48.75 218.5 13.75 255.5 13.75 310.5C13.75 366 48.75 402.75 101.75 402.75ZM76.25 300.25C65.25 298.75 58 285.25 60.5 271.25C63.5 257.5 74.25 247.5 85 249.5C96.5 251.75 103.25 265 100.5 278.5C98 292.5 87.5 302.25 76.25 300.25ZM567.75 581.75C664 581.75 740.75 462.75 740.75 290.75C740.75 118.5 664 0 567.75 0C471.5 0 395 118.5 395 290.75C395 462.75 471.5 581.75 567.75 581.75ZM567.75 542.25C494.75 542.25 434.5 438.75 434.5 290.75C434.5 143.5 494.5 39.75 567.75 39.5C640.75 39.5 701 143 701 290.75C701 438.5 640.75 542 567.75 542.25ZM496.5 402.75C549 402.75 584.75 366 584.75 310.5C584.75 255.5 549 218.5 496.5 218.5C443.5 218.5 408.25 255.5 408.25 310.5C408.25 366 443.5 402.75 496.5 402.75ZM471 300.25C459.75 298.5 452.5 285.25 455.5 271.25C458.25 257.5 468.75 247.5 479.75 249.5C491.25 251.5 498 265 495.25 278.5C492.5 292.5 482 302.25 471 300.25Z" fill="black" fill-opacity="0.85"/>
 </g>
</svg>
