<?xml version="1.0" encoding="UTF-8"?>
<!--Generator: Apple Native CoreSVG 326-->
<!DOCTYPE svg
PUBLIC "-//W3C//DTD SVG 1.1//EN"
       "http://www.w3.org/Graphics/SVG/1.1/DTD/svg11.dtd">
<svg version="1.1" xmlns="http://www.w3.org/2000/svg" xmlns:xlink="http://www.w3.org/1999/xlink" viewBox="0 0 651.25 651.75">
 <g>
  <rect height="651.75" opacity="0" width="651.25" x="0" y="0"/>
  <path d="M325.5 651.25C505.25 651.25 651.25 505.5 651.25 325.75C651.25 146 505.25 0 325.5 0C145.75 0 0 146 0 325.75C0 505.5 145.75 651.25 325.5 651.25ZM325.5 604.75C171.25 604.75 46.5 480 46.5 325.75C46.5 171.5 171.25 46.75 325.5 46.75C479.75 46.75 604.5 171.5 604.5 325.75C604.5 480 479.75 604.75 325.5 604.75Z" fill="black" fill-opacity="0.85"/>
  <path d="M325.25 485.5C391.25 485.5 436 441 436 420.5C436 413.75 429.25 410.75 423.5 413.75C401.25 427.75 371.75 442.25 325.25 442.25C278.75 442.25 249.5 427.5 227.25 413.75C221.25 410.75 214.5 413.75 214.5 420.5C214.5 441 259.5 485.5 325.25 485.5ZM229.25 296.25C248.75 296.25 266.25 278.25 266.25 253.5C266.25 228.75 249 210.5 229.25 210.5C209.75 210.5 193 228.75 193 253.5C193 278.25 210 296.25 229.25 296.25ZM421.25 296.25C441 296.25 458.25 278.25 458.25 253.5C458.25 228.75 441 210.5 421.25 210.5C401.75 210.5 385 228.75 385 253.5C385 278.25 402 296.25 421.25 296.25Z" fill="black" fill-opacity="0.85"/>
 </g>
</svg>
