<?xml version="1.0" encoding="UTF-8"?>
<!--Generator: Apple Native CoreSVG 326-->
<!DOCTYPE svg
PUBLIC "-//W3C//DTD SVG 1.1//EN"
       "http://www.w3.org/Graphics/SVG/1.1/DTD/svg11.dtd">
<svg version="1.1" xmlns="http://www.w3.org/2000/svg" xmlns:xlink="http://www.w3.org/1999/xlink" viewBox="0 0 651.25 651.75">
 <g>
  <rect height="651.75" opacity="0" width="651.25" x="0" y="0"/>
  <path d="M651.25 325.75C651.25 505 505 651.25 325.5 651.25C146.25 651.25 0 505 0 325.75C0 146.25 146.25 0 325.5 0C505 0 651.25 146.25 651.25 325.75ZM426 415.25C403.25 429.5 373.25 444.75 325.5 444.75C277.75 444.75 248 429.25 224.75 415.25C219 412.25 212 415.25 212 422.25C212 443.25 257.75 489 325.5 489C393 489 439 443.25 439 422.25C439 415.25 432 412.25 426 415.25ZM189.75 251.25C189.75 276.5 207.25 295 227.25 295C247.25 295 265 276.5 265 251.25C265 225.75 247.5 207 227.25 207C207 207 189.75 225.75 189.75 251.25ZM386.25 251.25C386.25 276.5 404 295 423.75 295C444 295 461.5 276.5 461.5 251.25C461.5 225.75 444 207 423.75 207C403.75 207 386.25 225.75 386.25 251.25Z" fill="black" fill-opacity="0.85"/>
 </g>
</svg>
