<?xml version="1.0" encoding="UTF-8"?>
<!--Generator: Apple Native CoreSVG 326-->
<!DOCTYPE svg
PUBLIC "-//W3C//DTD SVG 1.1//EN"
       "http://www.w3.org/Graphics/SVG/1.1/DTD/svg11.dtd">
<svg version="1.1" xmlns="http://www.w3.org/2000/svg" xmlns:xlink="http://www.w3.org/1999/xlink" viewBox="0 0 521.205 779.75">
 <g>
  <rect height="779.75" opacity="0" width="521.205" x="0" y="0"/>
  <path d="M185.728 138.75C223.978 138.75 255.228 107.5 255.228 69.5C255.228 31.5 223.978 0.25 185.728 0.25C147.978 0.25 116.728 31.5 116.728 69.5C116.728 107.5 147.978 138.75 185.728 138.75ZM232.728 622C247.478 625 263.978 618.5 269.728 598.75L312.478 455.5C318.478 435.5 310.228 419 291.728 412.25L180.728 372.25L197.228 257.5C198.228 251.25 203.228 249 209.228 251.75L264.978 277.25C272.228 280.5 278.228 281.5 287.728 282.5L427.728 296.5C445.728 298.5 461.478 286 462.478 268.5C464.228 251.5 451.478 235.75 434.228 234L291.228 220L182.978 170.25C136.728 149.25 88.9777 172.75 82.9777 219L65.2277 354C59.9777 393.75 84.4777 429.75 123.228 438.75L243.728 466.5L208.978 580.5C201.978 603.25 216.228 618.75 232.728 622ZM15.7277 722.5C29.2277 729.25 47.4777 727.5 59.4777 709.5L145.478 581.25C149.228 576.25 150.978 570.25 152.228 562.25L165.728 479.25L117.228 468.25C109.478 466.5 101.978 464 94.9777 460.5L88.9777 552.5L7.2277 674.25C-6.7723 695.5 1.4777 714.5 15.7277 722.5ZM519.728 201.75C515.478 193.25 506.228 190.25 497.978 194.25C480.728 202.5 471.478 207.5 461.978 212.75C471.978 218.5 480.228 227 485.228 237.25C491.478 233.5 498.228 230 511.978 222.75C520.228 218.5 523.228 209.25 519.728 201.75ZM91.7277 779.75L209.228 779.75C218.228 779.75 225.228 772.75 225.228 764L225.228 704L326.978 704C335.478 704 342.728 696.75 342.728 688L342.728 628.25L416.478 628.25C424.978 628.25 431.978 621.5 432.228 612.75L443.478 323.5C440.728 323.75 438.978 324 436.728 324.5C428.478 325.25 419.478 324.75 411.978 324.25L400.978 596.25L326.978 596.25C317.978 596.25 311.228 603 311.228 612L311.228 672.25L209.228 672.25C200.478 672.25 193.478 679.25 193.478 688L193.478 748L91.7277 748C82.7277 748 75.4777 755.25 75.4777 764C75.4777 772.5 82.9777 779.75 91.7277 779.75Z" fill="black" fill-opacity="0.85"/>
 </g>
</svg>
