<?xml version="1.0" encoding="UTF-8"?>
<!--Generator: Apple Native CoreSVG 326-->
<!DOCTYPE svg
PUBLIC "-//W3C//DTD SVG 1.1//EN"
       "http://www.w3.org/Graphics/SVG/1.1/DTD/svg11.dtd">
<svg version="1.1" xmlns="http://www.w3.org/2000/svg" xmlns:xlink="http://www.w3.org/1999/xlink" viewBox="0 0 673 616.25">
 <g>
  <rect height="616.25" opacity="0" width="673" x="0" y="0"/>
  <path d="M407.75 41.5L660.5 483.5C668.75 497.75 673 513.25 673 528.25C673 574.5 641.5 611 589.25 611L83.5 611C31.5 611 0 574.5 0 528.25C0 513.25 4 498 12.5 483.5L265.25 41.5C281 13.75 308.5 0 336.5 0C364.25 0 392 13.75 407.75 41.5ZM274.75 256.5L247.5 282.75C238.75 291.5 236 298.5 235 310L232.25 352C231.25 362 237.25 369 246.5 369.5C256.5 370.5 262 365 263 353.5L267 307.75L280 296.25C284.75 291.75 291.25 294.75 291 299.75L288 338.25C286.5 357.75 291.25 367.25 304.5 384L340 428.75C344 433.25 344.25 435 345.75 437.75L382.75 513C393.5 534.75 425.75 521.25 414 497.5L377.75 424.5C375.5 419.25 371.5 413.25 368.25 408.5L345.25 375.75L346.5 371C353.25 352.75 355 341.75 356.25 323.5L360.25 272.75C362 248.25 347 230 322.75 230C304.25 230 291.75 239.5 274.75 256.5ZM281.75 433.25L229.25 495.25C212.5 515 239.25 534 253.25 517.75L306.5 454.75C311.25 448.75 312.25 447.25 314 441L318.25 427.5L290.25 392.5ZM373.75 311.5L385 323C390.5 328.5 395.5 330.5 406 330.5L444 330.5C454.5 330.5 461.25 324.75 461.25 314.75C461.25 305.25 454.5 299.25 444 299.25L403.25 299.25L376.5 269.75ZM305 177C305 197 321.75 213.75 342.5 213.75C362.75 213.75 379.5 197 379.5 177C379.5 156.25 362.75 139.75 342.5 139.75C321.75 139.75 305 156.25 305 177Z" fill="black" fill-opacity="0.85"/>
 </g>
</svg>
