<?xml version="1.0" encoding="UTF-8"?>
<!--Generator: Apple Native CoreSVG 326-->
<!DOCTYPE svg
PUBLIC "-//W3C//DTD SVG 1.1//EN"
       "http://www.w3.org/Graphics/SVG/1.1/DTD/svg11.dtd">
<svg version="1.1" xmlns="http://www.w3.org/2000/svg" xmlns:xlink="http://www.w3.org/1999/xlink" viewBox="0 0 651.25 651.75">
 <g>
  <rect height="651.75" opacity="0" width="651.25" x="0" y="0"/>
  <path d="M651.25 325.75C651.25 505 505 651.25 325.5 651.25C146.25 651.25 0 505 0 325.75C0 146.25 146.25 0 325.5 0C505 0 651.25 146.25 651.25 325.75ZM129.75 227.75C127.25 237.75 133 248 142.75 250.75L272.25 286.25C275.75 287.25 277.75 290 277.5 293.5C273.5 326.5 257.25 358 248.75 372.25L175.75 372.25L175.75 297.75C175.75 287.5 167 279.25 157.5 279.25C147 279.25 138.5 287.5 138.5 297.75L138.5 390.75C138.5 401.5 143.25 408.5 155.75 409.5L247.25 417.25C263.75 418.5 267.25 419.75 282.75 423.75L394.5 455.25L482.75 487.75C491.25 491 503.5 487.75 507 476.75C510 467 505.5 456.25 496 452.75L407.5 420.75C406 420.5 402.75 419 401.5 418.5L323.75 390.25C333.75 370.25 348 338.5 351.5 304C352 300 354.5 297.75 358.5 297.75L491.75 297.75C502.5 297.75 510.5 289.5 510.5 279.25C510.5 269 502.5 260.75 491.75 260.75L345.25 260.75C320.75 260.75 318.5 260.5 291.5 253.25L152.75 215C142.75 212 132.75 217.75 129.75 227.75ZM285.5 199.75C285.5 222 303.25 240.25 325.5 240.25C347.5 240.25 365 222 365 199.75C365 178.25 347.5 160.25 325.5 160.25C303.25 160.25 285.5 178.25 285.5 199.75Z" fill="black" fill-opacity="0.85"/>
 </g>
</svg>
