<?xml version="1.0" encoding="UTF-8"?>
<!--Generator: Apple Native CoreSVG 326-->
<!DOCTYPE svg
PUBLIC "-//W3C//DTD SVG 1.1//EN"
       "http://www.w3.org/Graphics/SVG/1.1/DTD/svg11.dtd">
<svg version="1.1" xmlns="http://www.w3.org/2000/svg" xmlns:xlink="http://www.w3.org/1999/xlink" viewBox="0 0 630.47 729.75">
 <g>
  <rect height="729.75" opacity="0" width="630.47" x="0" y="0"/>
  <path d="M412.11 138.5C450.36 138.5 481.36 107.5 481.36 69.25C481.36 30.75 450.36 0 412.11 0C373.86 0 342.86 30.75 342.86 69.25C342.86 107.5 373.86 138.5 412.11 138.5ZM94.6102 369C113.86 378 131.36 369.5 138.86 354.25L197.11 238.5L266.36 238.5C273.86 238.5 278.61 245.5 275.11 252.25L214.11 373C191.61 417.75 219.11 473.75 278.11 470.25L442.11 460L381.61 594.75C374.11 611.5 381.11 632.75 398.11 639C417.11 646.25 433.86 640.5 442.11 622L526.61 437C535.61 417 522.61 389.5 496.61 389.5L348.36 389.5L414.11 257.75C416.61 252.25 423.61 250.75 428.11 255.25L505.86 329.5C521.36 344.5 549.11 342 559.61 320.75L626.61 186C634.86 169.5 629.86 149.25 611.86 141C595.36 133 575.11 139.75 566.86 156.25L520.11 249L482.11 210.75C456.36 185 429.11 171.5 387.11 171.5L176.61 171.5C163.86 171.5 152.36 179 146.86 190L79.1102 324.75C70.8602 341.25 77.1102 360.75 94.6102 369ZM3.61017 694.75C14.1102 716.5 37.1102 717 47.8602 712.25L215.36 639.25C222.36 636.25 228.36 630.75 231.86 623.5L293.36 499L280.11 500C253.61 502 230.61 494 213.36 481L175.36 583.25L20.8602 649.75C3.61017 657.25-5.13983 677 3.61017 694.75ZM556.86 726C595.61 726 626.61 695.5 626.61 656.75C626.61 618.5 595.61 587.5 556.86 587.5C518.61 587.5 488.11 618.5 488.11 656.75C488.11 695.5 518.61 726 556.86 726Z" fill="black" fill-opacity="0.85"/>
 </g>
</svg>
