<?xml version="1.0" encoding="UTF-8"?>
<!--Generator: Apple Native CoreSVG 326-->
<!DOCTYPE svg
PUBLIC "-//W3C//DTD SVG 1.1//EN"
       "http://www.w3.org/Graphics/SVG/1.1/DTD/svg11.dtd">
<svg version="1.1" xmlns="http://www.w3.org/2000/svg" xmlns:xlink="http://www.w3.org/1999/xlink" viewBox="0 0 547.5 692.25">
 <g>
  <rect height="692.25" opacity="0" width="547.5" x="0" y="0"/>
  <path d="M212.5 640.75C224.75 637.5 232.25 633.5 237.5 624L307.5 498.25C308.25 496.25 309.5 495.25 312 495.25L483 495.25L483 656.25C483 674.25 497.5 688.25 515 688.25C533.25 688.25 547.5 674.25 547.5 656.25L547.5 466.75C547.5 445.5 536 433 513.75 431L370.25 417.75L370.25 237.5C370.25 202.25 345.5 173.25 302 173.25L287 173.25C261.25 173.25 241.5 177.5 216.25 196.5L109.5 276.5C91.5 289.75 92.75 316.75 111.25 329L241.5 415.75L241.5 424L184.75 581.25L23.75 625.5C6.5 630.25-3.5 647.75 1.25 664.75C6.25 683 22.5 692.25 40.75 687.5ZM184.75 300.5L233 264.75C236.75 262 241.5 263.75 241.5 268.5L241.5 338.25ZM302 138.75C340 138.75 371 107.75 371 69C371 31 340 0 302 0C263.5 0 232.5 31 232.5 69C232.5 107.75 263.5 138.75 302 138.75Z" fill="black" fill-opacity="0.85"/>
 </g>
</svg>
