<?xml version="1.0" encoding="UTF-8"?>
<!--Generator: Apple Native CoreSVG 326-->
<!DOCTYPE svg
PUBLIC "-//W3C//DTD SVG 1.1//EN"
       "http://www.w3.org/Graphics/SVG/1.1/DTD/svg11.dtd">
<svg version="1.1" xmlns="http://www.w3.org/2000/svg" xmlns:xlink="http://www.w3.org/1999/xlink" viewBox="0 0 794.5 610.25">
 <g>
  <rect height="610.25" opacity="0" width="794.5" x="0" y="0"/>
  <path d="M397.25 484.25C414.75 484.25 429 470 429 452.5L429 293C429 285.5 426.25 278.25 420.25 271.75L337 179C332 173 335.5 164.75 343.5 164.75L445.25 164.75C457.5 164.75 461.5 173.5 461.5 182L461.5 260.75C461.5 278.25 475.5 292.5 493 292.5L621 292.5C638.25 292.5 652.25 278.25 652.25 260.75C652.25 243.5 638.25 229.25 621 229.25L524.75 229.25L524.75 117.25C524.75 81.75 496.5 53.5 461 53.5L305.25 53.5C272.75 53.5 244.5 73 231.75 102.5C219.5 132.75 226.5 166.5 249 189.25L365.5 306.5L365.5 452.5C365.5 470 379.75 484.25 397.25 484.25ZM169.5 606.25C264 606.25 339.25 531.25 339.25 436.75C339.25 342.25 264 267 169.5 267C75 267 0 342.25 0 436.75C0 531.25 75 606.25 169.5 606.25ZM169.5 567C97.75 567 39 508.5 39 436.75C39 364.75 97.75 306 169.5 306C241.25 306 300 364.75 300 436.75C300 508.5 241.25 567 169.5 567ZM711.75 340C738 363.5 755.25 398 755.25 436.75C755.25 508.5 696.5 567 624.75 567C553 567 494.5 508.5 494.5 436.75C494.5 418.5 498.25 400.75 505 385.25C511.25 369.75 505.25 359.5 495 355.75C485.75 352.25 475.5 355.25 470 367.5C460.5 389.25 455.25 412 455.25 436.75C455.25 531.25 530.25 606.25 624.75 606.25C719.25 606.25 794.5 531.25 794.5 436.75C794.5 385.5 772.25 340.75 736.25 309C725.75 300 714.25 302 707.25 309.75C700.25 317.5 699.5 329 711.75 340ZM626.75 138.5C664.75 138.5 695.75 107.5 695.75 69.25C695.75 31.25 664.75 0 626.75 0C588.25 0 557.25 31.25 557.25 69.25C557.25 107.5 588.25 138.5 626.75 138.5Z" fill="black" fill-opacity="0.85"/>
 </g>
</svg>
