<?xml version="1.0" encoding="UTF-8"?>
<!--Generator: Apple Native CoreSVG 326-->
<!DOCTYPE svg
PUBLIC "-//W3C//DTD SVG 1.1//EN"
       "http://www.w3.org/Graphics/SVG/1.1/DTD/svg11.dtd">
<svg version="1.1" xmlns="http://www.w3.org/2000/svg" xmlns:xlink="http://www.w3.org/1999/xlink" viewBox="0 0 785.25 635.25">
 <g>
  <rect height="635.25" opacity="0" width="785.25" x="0" y="0"/>
  <path d="M469.25 279.75L469.25 357C469.25 379.25 485.75 395.75 508 395.75L568.75 395.75C591 395.75 607.75 379.25 607.75 357L607.75 279.75C607.75 257.5 591 241 568.75 241L508 241C485.75 241 469.25 257.5 469.25 279.75ZM647.25 279.75L647.25 357C647.25 379.25 663.5 395.75 685.75 395.75L746.5 395.75C768.75 395.75 785.25 379.25 785.25 357L785.25 279.75C785.25 257.5 768.75 241 746.5 241L685.75 241C663.5 241 647.25 257.5 647.25 279.75ZM564 193.25L692.5 193.25C701.5 193.25 703.25 183.75 696.25 179L637.5 139C631.5 134.75 625 134.75 619 139L560.25 179C553.25 183.75 555 193.25 564 193.25Z" fill="black" fill-opacity="0.85"/>
  <path d="M183.25 140.5C221.75 140.5 253 108.25 253 70.75C253 31.75 221.75 0 183.25 0C143.75 0 113.25 31.75 113.25 70.75C113.25 109.5 143.75 140.5 183.25 140.5ZM48.5 402.25L249.25 179.25C229.25 171.5 207.5 168.5 183.25 168.5C92.5 168.5 39.25 212 39.25 284.75C39.25 302.5 40.25 326 42.75 350ZM317.5 402.25L323.25 350C325.75 326 327 302.5 327 284.75C327 248.5 314 219.25 288.25 199.25L127.25 378.5C146.25 375.25 164.5 374 183.25 374C227.75 374 272.25 380 317.5 402.25ZM105.75 634.25C124.25 631.5 136.25 618.25 134 595.5L121.75 478.75L244.5 478.75L232 595.5C229.5 618.25 241.5 631.5 260.5 634.25C279.5 636 294 624.25 296.25 601.75L312.75 447C271.75 423.75 226.25 414.5 183.25 414.5C139.75 414.5 94 423.75 53.75 447L69.75 601.75C72.25 624.25 86.5 636 105.75 634.25ZM288.25 199L348.5 132.25C358.75 121.25 357.5 108.75 347.75 100.5C338.5 92.5 327 92.25 316.5 104L249.25 179.25C263.5 184.75 276.75 191.5 288.25 199ZM9.25 426C-1.5 434-1.75 446.5 3 455C8.5 463.75 19.75 468 31.5 460.75C39 455.75 46 451.25 53.75 447L48.5 402.25C34.25 408.75 21.25 416.5 9.25 426ZM357 426C345 416.5 332 408.75 317.5 402.25L312.5 447C320.5 451.25 327 455.75 334.75 460.75C346.25 468 357.25 464 362.75 455.5C368.25 447 368.25 434.25 357 426Z" fill="black" fill-opacity="0.85"/>
 </g>
</svg>
