<?xml version="1.0" encoding="UTF-8"?>
<!--Generator: Apple Native CoreSVG 326-->
<!DOCTYPE svg
PUBLIC "-//W3C//DTD SVG 1.1//EN"
       "http://www.w3.org/Graphics/SVG/1.1/DTD/svg11.dtd">
<svg version="1.1" xmlns="http://www.w3.org/2000/svg" xmlns:xlink="http://www.w3.org/1999/xlink" viewBox="0 0 651.25 651.75">
 <g>
  <rect height="651.75" opacity="0" width="651.25" x="0" y="0"/>
  <path d="M651.25 325.75C651.25 505 505 651.25 325.5 651.25C146.25 651.25 0 505 0 325.75C0 146.25 146.25 0 325.5 0C505 0 651.25 146.25 651.25 325.75ZM314 474.25C314 480.5 318.75 485.5 325.25 485.5C331.75 485.5 336.5 480.5 336.5 474.25C336.5 467.75 331.75 462.75 325.25 462.75C318.75 462.75 314 467.75 314 474.25ZM279.75 468C279.75 474.5 284.5 479 291 479C297.5 479 302 474.5 302 468C302 461.5 297.5 456.75 291 456.75C284.5 456.75 279.75 461.5 279.75 468ZM349 468C349 474.5 353.5 479 360 479C366.5 479 371.25 474.5 371.25 468C371.25 461.5 366.5 456.75 360 456.75C353.5 456.75 349 461.5 349 468ZM112.75 463.75C112.75 470 117.75 475 124 475C130.5 475 135.5 470 135.5 463.75C135.5 457.25 130.5 452.5 124 452.5C117.75 452.5 112.75 457.25 112.75 463.75ZM145 463.75C145 470 150 475 156.25 475C162.75 475 167.75 470 167.75 463.75C167.75 457.25 162.75 452.5 156.25 452.5C150 452.5 145 457.25 145 463.75ZM483.25 463.75C483.25 470 488.25 475 494.75 475C501 475 506 470 506 463.75C506 457.25 501 452.5 494.75 452.5C488.25 452.5 483.25 457.25 483.25 463.75ZM516 463.75C516 470 521 475 527.5 475C533.75 475 538.75 470 538.75 463.75C538.75 457.25 533.75 452.5 527.5 452.5C521 452.5 516 457.25 516 463.75ZM177.75 453C177.75 459.25 182.75 464.25 189 464.25C195.25 464.25 200.25 459.25 200.25 453C200.25 446.75 195.25 441.75 189 441.75C182.75 441.75 177.75 446.75 177.75 453ZM247.25 453C247.25 459.25 251.75 464.25 258.25 464.25C264.75 464.25 269.5 459.25 269.5 453C269.5 446.75 264.75 441.75 258.25 441.75C251.75 441.75 247.25 446.75 247.25 453ZM381.5 453C381.5 459.25 386.25 464.25 392.75 464.25C399.25 464.25 403.75 459.25 403.75 453C403.75 446.75 399.25 441.75 392.75 441.75C386.25 441.75 381.5 446.75 381.5 453ZM451 453C451 459.25 456 464.25 462.25 464.25C468.5 464.25 473.5 459.25 473.5 453C473.5 446.75 468.5 441.75 462.25 441.75C456 441.75 451 446.75 451 453ZM212.25 444.75C212.25 451 217.25 456 223.75 456C230 456 235 451 235 444.75C235 438.25 230 433.5 223.75 433.5C217.25 433.5 212.25 438.25 212.25 444.75ZM416.25 444.75C416.25 451 421.25 456 427.5 456C434 456 439 451 439 444.75C439 438.25 434 433.5 427.5 433.5C421.25 433.5 416.25 438.25 416.25 444.75ZM325.25 414C289.75 414 277.25 383 229.75 383C182.5 383 170.25 414 134.75 414L123 414C117.75 414 112.75 418.5 112.75 424C112.75 429.5 117.75 434.25 123 434.25L134.75 434.25C184.25 434.25 195.75 403.5 229.75 403.5C264.25 403.5 275.75 434.25 325.25 434.25C375 434.25 386.5 403.5 420.75 403.5C455 403.5 466.5 434.25 515.75 434.25L528.5 434.25C533.75 434.25 538.75 429.5 538.75 424C538.75 418.5 533.75 414 528.5 414L515.75 414C480.5 414 468.25 383 420.75 383C373.25 383 360.75 414 325.25 414ZM488.75 193.75L354.25 265.25C332.25 276.75 312 278.25 285.5 264.25L153.25 193.75C143.25 188 130.5 192.25 125.25 202.5C120 212.25 123.75 224.75 133.75 230L263 299.75C267.25 302 270 306.5 268.5 311.5L255.25 360.5C291.25 366.75 300.25 388 325.25 388C332.75 388 338.5 385.75 344.25 383L362.25 316.5C363.75 309.75 366 306.25 372.75 302.5L508 230C518.25 224.75 522 212.25 517 202.5C511 192.25 498.75 188 488.75 193.75ZM285 214.5C285 236.25 302.75 254.25 325.25 254.25C347 254.25 364.75 236.25 364.75 214.5C364.75 192.25 347 174.5 325.25 174.5C302.75 174.5 285 192.25 285 214.5Z" fill="black" fill-opacity="0.85"/>
 </g>
</svg>
