<?xml version="1.0" encoding="UTF-8"?>
<!--Generator: Apple Native CoreSVG 326-->
<!DOCTYPE svg
PUBLIC "-//W3C//DTD SVG 1.1//EN"
       "http://www.w3.org/Graphics/SVG/1.1/DTD/svg11.dtd">
<svg version="1.1" xmlns="http://www.w3.org/2000/svg" xmlns:xlink="http://www.w3.org/1999/xlink" viewBox="0 0 651.25 651.75">
 <g>
  <rect height="651.75" opacity="0" width="651.25" x="0" y="0"/>
  <path d="M325.5 651.25C505.25 651.25 651.25 505.5 651.25 325.75C651.25 146 505.25 0 325.5 0C145.75 0 0 146 0 325.75C0 505.5 145.75 651.25 325.5 651.25ZM325.5 604.75C171.25 604.75 46.5 480 46.5 325.75C46.5 171.5 171.25 46.75 325.5 46.75C479.75 46.75 604.5 171.5 604.5 325.75C604.5 480 479.75 604.75 325.5 604.75Z" fill="black" fill-opacity="0.85"/>
  <path d="M424.75 197.5C446 197.5 463.25 180.25 463.25 158.75C463.25 137.5 446 120.25 424.75 120.25C403 120.25 386 137.5 386 158.75C386 180.25 403 197.5 424.75 197.5ZM287 348.5L377.75 417.5L349.5 504.25C345.5 516.75 353.25 525.75 362.75 528C371.25 529.75 381 526 384.75 514.5L416.25 417.25C418.5 410.25 417 402.25 412.5 397.75L351.5 336.75L421.5 266.5C424.25 263.5 429 263.75 432.25 266.5L456.5 290.75L423.25 323.75C415.75 331 416.25 342.75 423.25 349.75C430 356.5 441.75 357.25 449 349.75L495.25 304C502.5 296.5 502.25 285.25 495.25 277.75L450.75 232.75C440 222.25 427.25 217 412 217L198.25 217C188.25 217 179.75 225.25 179.75 235.25C179.75 245.25 188.25 253.75 198.25 253.75L321.25 253.75C327.25 253.75 330.25 260.5 325.75 264.5L290 300.25C274 316.25 276.25 340.25 287 348.5ZM282.25 363.25L273 419.75L187.5 419.75C177 419.75 169 428.25 169 438.25C169 448.5 177 456.75 187.5 456.75L287.5 456.75C297.25 456.75 304 451.75 306.25 443.5L321.5 393.25ZM179.75 315.5C201.75 315.5 220 297.25 220 275.25C220 253.5 201.75 235.25 179.75 235.25C157.75 235.25 139.75 253.5 139.75 275.25C139.75 297.25 157.75 315.5 179.75 315.5Z" fill="black" fill-opacity="0.85"/>
 </g>
</svg>
