<?xml version="1.0" encoding="UTF-8"?>
<!--Generator: Apple Native CoreSVG 326-->
<!DOCTYPE svg
PUBLIC "-//W3C//DTD SVG 1.1//EN"
       "http://www.w3.org/Graphics/SVG/1.1/DTD/svg11.dtd">
<svg version="1.1" xmlns="http://www.w3.org/2000/svg" xmlns:xlink="http://www.w3.org/1999/xlink" viewBox="0 0 651.25 651.75">
 <g>
  <rect height="651.75" opacity="0" width="651.25" x="0" y="0"/>
  <path d="M325.5 651.25C505.25 651.25 651.25 505.5 651.25 325.75C651.25 146 505.25 0 325.5 0C145.75 0 0 146 0 325.75C0 505.5 145.75 651.25 325.5 651.25ZM325.5 604.75C171.25 604.75 46.5 480 46.5 325.75C46.5 171.5 171.25 46.75 325.5 46.75C479.75 46.75 604.5 171.5 604.5 325.75C604.5 480 479.75 604.75 325.5 604.75Z" fill="black" fill-opacity="0.85"/>
  <path d="M294.5 180C316 180 333.5 162.25 333.5 141C333.5 119.75 316 102.25 294.5 102.25C273.25 102.25 256 119.75 256 141C256 162.25 273.25 180 294.5 180ZM259.5 348.5L327.25 363.75L307.75 428C303.75 440.5 311.75 449.5 320.75 451C329.25 453 338.5 449.25 341.75 438.25L365.75 357.75C369 346.5 364.5 337 354.25 333.5L291.75 311L301 246.5C301.5 243 304.5 241.75 307.75 243.5L339 257.75C343.25 259.5 346.5 260 351.75 260.5L430.5 268.5C440.5 269.5 449.25 262.5 450 252.75C451 243.25 443.75 234.25 434 233.25L353.75 225.5L293.25 197.75C267.25 185.75 240.25 199.25 237 225L227 301C224.25 323 237.75 343.5 259.5 348.5ZM199.25 507.75C206.5 511.75 217 510.5 223.75 500.5L272 428.25C274 425.25 274.75 422.25 275.75 417.75L283.75 369.25L256.25 363C250 361.5 245.75 359.5 243.5 358.25L240.25 412.25L194.5 480.75C186.5 492.5 191 503.25 199.25 507.75ZM483.25 215C480.75 209.5 474.75 207.75 469.5 210C461.5 214 453.5 218.25 447.25 222C454 225.5 458.5 230.5 461.75 237.5C466.5 234.5 472.25 231 478 228.25C483.75 225.25 485.25 219.5 483.25 215ZM241.75 541L307.75 541C313 541 317.75 536.5 317.75 531.25L317.75 498.75L373.75 498.75C379.25 498.75 383.75 494 383.75 488.5L383.75 456.25L424.75 456.25C429.75 456.25 434.25 451.25 434.5 446.25L441 281.25C437.75 282.5 435.75 283 421 282L415 436L373.75 436C368.5 436 364 440 364 446L364 478.5L307.75 478.5C302.75 478.5 297.75 483.25 297.75 488.5L297.75 521.25L241.75 521.25C236.75 521.25 231.5 525.75 231.5 531.25C231.5 537 236.75 541 241.75 541Z" fill="black" fill-opacity="0.85"/>
 </g>
</svg>
