<?xml version="1.0" encoding="UTF-8"?>
<!--Generator: Apple Native CoreSVG 326-->
<!DOCTYPE svg
PUBLIC "-//W3C//DTD SVG 1.1//EN"
       "http://www.w3.org/Graphics/SVG/1.1/DTD/svg11.dtd">
<svg version="1.1" xmlns="http://www.w3.org/2000/svg" xmlns:xlink="http://www.w3.org/1999/xlink" viewBox="0 0 841.569 721.25">
 <g>
  <rect height="721.25" opacity="0" width="841.569" x="0" y="0"/>
  <path d="M283.035 676.25L376.035 676.25C390.785 676.25 397.785 666.25 394.035 649.75L361.285 507L455.535 390.75L733.535 340L756.535 383.5C766.035 401.25 797.285 395.5 793.285 372.75L778.035 286.25C775.785 273.25 767.285 268.5 755.785 270.5L565.035 304.25L447.285 298C413.535 291.75 357.035 267.25 344.535 236.25C341.035 227.25 346.285 219 354.285 217.5L531.785 186C553.785 182.25 561.785 163.75 558.285 148C555.035 132.25 541.035 118.5 519.785 122.5L26.2847 212.75C5.53469 216.75-2.21531 233.75 0.534692 249.75C3.78469 265.75 17.2847 279.75 39.0347 276L183.785 249.5C196.535 247.25 202.035 252.25 203.785 259.25C220.535 322.25 283.035 367.25 347.285 391.75L300.535 471.25C293.535 483.25 290.285 495 294.035 511L320.535 624.75L278.535 638.5C258.285 644.75 260.535 676.25 283.035 676.25ZM237.535 138.5C276.285 138.5 307.285 107.75 307.285 69C307.285 30.75 276.285 0 237.535 0C199.285 0 168.785 30.75 168.785 69C168.785 107.75 199.285 138.5 237.535 138.5ZM265.285 721L390.535 721C396.785 721 401.035 716.25 401.035 710.5C401.035 703.75 396.785 699.25 390.535 699.25L265.285 699.25C259.285 699.25 254.285 703.75 254.285 710.5C254.285 716.25 259.285 721 265.285 721ZM841.285 388.5L819.535 264.75C818.535 259 813.035 255.25 807.285 256.5C801.035 257.5 797.035 262.75 798.285 268.75L820.035 392.25C821.035 398.25 826.285 402.25 832.785 401C838.535 400.25 842.285 394.5 841.285 388.5Z" fill="black" fill-opacity="0.85"/>
 </g>
</svg>
