<?xml version="1.0" encoding="UTF-8"?>
<!--Generator: Apple Native CoreSVG 326-->
<!DOCTYPE svg
PUBLIC "-//W3C//DTD SVG 1.1//EN"
       "http://www.w3.org/Graphics/SVG/1.1/DTD/svg11.dtd">
<svg version="1.1" xmlns="http://www.w3.org/2000/svg" xmlns:xlink="http://www.w3.org/1999/xlink" viewBox="0 0 665.104 806.25">
 <g>
  <rect height="806.25" opacity="0" width="665.104" x="0" y="0"/>
  <path d="M299.802 219.75C337.802 219.75 368.802 189 368.802 150.75C368.802 113 337.802 82 299.802 82C261.802 82 231.052 113 231.052 150.75C231.052 189 261.802 219.75 299.802 219.75ZM133.052 702L281.302 702C293.552 702 305.802 696.25 312.052 684.5L379.552 560.25C382.052 555.5 388.302 555.75 390.052 560.75L425.302 655.5L297.552 740.75C282.552 751 278.552 771.25 288.302 786.5C298.302 802 318.802 806 334.302 795.75L479.552 699C494.302 689.25 501.302 673.75 497.052 656.75L408.302 304C405.302 292.25 408.302 286 417.052 281.5L646.802 166.75C663.302 158.25 669.552 138.25 661.802 122C653.302 105.25 633.552 98.5 617.052 107L140.302 345.75L62.8019 268.25C58.5519 263.75 53.5519 260.75 48.5519 258.5L124.302 125.5L96.8019 109.5L4.30193 271.25C-3.19807 284.75-0.448068 299.25 10.0519 309.75L109.802 409.25C118.552 418 134.302 422.75 151.052 414.5L263.802 357.75C271.802 353.75 278.802 357.5 280.552 364.25L314.552 500.25L260.302 635.25L133.052 635.25C114.552 635.25 100.052 650 100.052 668.75C100.052 686.75 114.552 702 133.052 702ZM135.302 134.5C173.052 134.5 202.552 104.75 202.552 67.25C202.552 29.5 173.052 0 135.302 0C97.8019 0 68.0519 29.5 68.0519 67.25C68.0519 104.75 97.8019 134.5 135.302 134.5ZM135.302 102.75C115.052 102.75 99.8019 87.5 99.8019 67.25C99.8019 46.75 115.052 31.5 135.302 31.5C155.552 31.5 171.052 46.75 171.052 67.25C171.052 87.5 155.552 102.75 135.302 102.75Z" fill="black" fill-opacity="0.85"/>
 </g>
</svg>
