<?xml version="1.0" encoding="UTF-8"?>
<!--Generator: Apple Native CoreSVG 326-->
<!DOCTYPE svg
PUBLIC "-//W3C//DTD SVG 1.1//EN"
       "http://www.w3.org/Graphics/SVG/1.1/DTD/svg11.dtd">
<svg version="1.1" xmlns="http://www.w3.org/2000/svg" xmlns:xlink="http://www.w3.org/1999/xlink" viewBox="0 0 651.25 651.75">
 <g>
  <rect height="651.75" opacity="0" width="651.25" x="0" y="0"/>
  <path d="M651.25 325.75C651.25 505 505 651.25 325.5 651.25C146.25 651.25 0 505 0 325.75C0 146.25 146.25 0 325.5 0C505 0 651.25 146.25 651.25 325.75ZM303.75 385.25C302 385.25 300 385.25 298 385L309.75 444L292.25 532.75C290.25 543 296.5 553.25 306.5 554.75C316 556.75 326.5 550.75 328.5 540.25L347 447.75C347.5 445.75 347.5 443.75 347.25 441.25L343.75 371C332.25 380.5 318.5 385.25 303.75 385.25ZM301.25 160L301.25 222.5L208.5 222.5C188.25 222.5 171.75 238.75 171.75 259L171.75 333.25C171.75 343.25 179.75 351.75 190.25 351.75L265.75 351.75L270.5 356.5C279.75 365 291.75 370 303.75 370C314 370 323.5 367.25 332.25 360.75L423.25 292.25L514 237.75C523 232.75 525.75 221.5 520.5 212.75C515.25 204 503.75 201.25 495 206.5L322.75 309.75L274.5 261.75C273.25 260.5 273.75 259 275.5 259L319.5 259C329.75 259 338.25 251.25 338.25 240.75L338.25 186C349 182 356.75 171.75 356.75 160C356.75 144.25 344.25 132.25 328.75 132.25C313.5 132.25 301.25 144.25 301.25 160ZM211.75 296.25L231.25 316L207.25 316L207.25 298.25C207.25 295.75 210 294.5 211.75 296.25ZM171 162.5C171 184.75 189 202.5 211 202.5C232.75 202.5 250.75 184.75 250.75 162.5C250.75 140.75 232.75 123 211 123C189 123 171 140.75 171 162.5Z" fill="black" fill-opacity="0.85"/>
 </g>
</svg>
