<?xml version="1.0" encoding="UTF-8"?>
<!--Generator: Apple Native CoreSVG 326-->
<!DOCTYPE svg
PUBLIC "-//W3C//DTD SVG 1.1//EN"
       "http://www.w3.org/Graphics/SVG/1.1/DTD/svg11.dtd">
<svg version="1.1" xmlns="http://www.w3.org/2000/svg" xmlns:xlink="http://www.w3.org/1999/xlink" viewBox="0 0 651.25 651.75">
 <g>
  <rect height="651.75" opacity="0" width="651.25" x="0" y="0"/>
  <path d="M651.25 325.75C651.25 505 505 651.25 325.5 651.25C146.25 651.25 0 505 0 325.75C0 146.25 146.25 0 325.5 0C505 0 651.25 146.25 651.25 325.75ZM487.5 468.75L142.25 490.25C137.25 490.75 133.75 494.25 133.75 499.25C133.75 503.75 137.5 507.5 142.25 507.5L491.25 507.5C502 507.5 510.5 499 510.5 487.75C510.5 475 500.75 467.75 487.5 468.75ZM249.5 378L198 438.25C182 457.25 207.75 475.75 221 460.25L272.75 398.5C277.75 392.5 278.75 391.25 280.75 385.25L284.75 372.25L257.5 338.5ZM242.5 208.5L217 234.25C208.75 242 206 248.75 205 259.75L201.75 299.75C201 310 206.5 316.75 215.75 317C224.75 317.5 230.5 312.5 231.5 301.75L235.25 257.75L248 246.5C252.25 242.5 258.75 245 258.5 249.75L255.5 287C254 305.5 258.5 314.75 271.25 330.75L305.5 373.75C308.5 377.5 309.5 379.75 311 382.75L341.25 444.25C351.5 465.25 382.5 452.25 371.25 429.75L341.5 369.5C339 364.5 335.5 359 332.25 354.25L310.5 322.75L311.75 318.5C317 301 320 290.25 321.25 273L324.5 224.25C326 201 312.5 183.5 288.75 183.5C271 183.5 259 192.5 242.5 208.5ZM549 248.25L464 288C458 290.75 456 297 458.5 302.5C460.5 307.25 466.75 309.5 472.5 307L495 296.25L467.25 454.5L482.5 453.75C485.75 453.5 486.5 453.5 488.75 453.5L518 285.75L557.75 267C563 264.75 565.25 258 563 253.25C560.75 248 554.25 245.75 549 248.25ZM337 261.5L348.25 272.5C354 278 358.5 279.5 368.5 279.5L404.75 279.5C415 279.5 421.75 273.75 421.75 264.25C421.75 255.5 415 249.5 404.75 249.5L366 249.5L339.5 220.75ZM270.75 131.5C270.75 151.75 287.25 167.75 307.5 167.75C327.75 167.75 344.5 151.75 344.5 131.5C344.5 110.75 327.75 94.5 307.5 94.5C287.25 94.5 270.75 110.75 270.75 131.5Z" fill="black" fill-opacity="0.85"/>
 </g>
</svg>
