<?xml version="1.0" encoding="UTF-8"?>
<!--Generator: Apple Native CoreSVG 326-->
<!DOCTYPE svg
PUBLIC "-//W3C//DTD SVG 1.1//EN"
       "http://www.w3.org/Graphics/SVG/1.1/DTD/svg11.dtd">
<svg version="1.1" xmlns="http://www.w3.org/2000/svg" xmlns:xlink="http://www.w3.org/1999/xlink" viewBox="0 0 679.12 581.75">
 <g>
  <rect height="581.75" opacity="0" width="679.12" x="0" y="0"/>
  <path d="M341.31 138.5C379.31 138.5 410.31 107.5 410.31 69C410.31 31 379.31 0 341.31 0C302.81 0 271.81 31 271.81 69C271.81 107.5 302.81 138.5 341.31 138.5ZM46.31 432.75L205.56 446.25C234.06 448.75 239.81 450.75 267.31 458.25L461.31 512.75L635.81 576.5C650.81 582 671.31 576.5 677.56 557.25C682.56 540.5 675.06 522 658.31 516L484.06 452.5C481.31 451.75 475.56 449.5 473.56 448.75L338.06 399.5C356.06 365 380.56 309.75 386.81 249.5C387.56 242.5 392.06 238.75 398.31 238.75L631.06 238.75C648.81 238.75 663.06 224.25 663.06 206.75C663.06 188.5 648.81 174.25 631.06 174.25L375.81 174.25C333.06 174.25 329.06 174 282.56 161.25L41.06 94.5C23.81 89.75 6.30998 99.75 1.05998 117C-3.44002 134.25 6.80998 152.25 23.81 157L249.06 219C254.56 220.5 258.56 225 257.81 231.75C250.56 288.5 222.81 343.5 208.31 368.25L81.06 368.25L81.06 238.75C81.06 221 66.06 206.75 48.56 206.75C31.06 206.75 16.31 221 16.31 238.75L16.31 400.25C16.31 419.25 24.81 431 46.31 432.75Z" fill="black" fill-opacity="0.85"/>
 </g>
</svg>
