<?xml version="1.0" encoding="UTF-8"?>
<!--Generator: Apple Native CoreSVG 326-->
<!DOCTYPE svg
PUBLIC "-//W3C//DTD SVG 1.1//EN"
       "http://www.w3.org/Graphics/SVG/1.1/DTD/svg11.dtd">
<svg version="1.1" xmlns="http://www.w3.org/2000/svg" xmlns:xlink="http://www.w3.org/1999/xlink" viewBox="0 0 651.25 651.75">
 <g>
  <rect height="651.75" opacity="0" width="651.25" x="0" y="0"/>
  <path d="M651.25 325.75C651.25 505 505 651.25 325.5 651.25C146.25 651.25 0 505 0 325.75C0 146.25 146.25 0 325.5 0C505 0 651.25 146.25 651.25 325.75ZM464.75 403.75C458.75 403.75 454.5 408.75 454.5 414L454.5 449.5L404 449.5C398.25 449.5 393.75 454 393.75 459.75L393.75 495L343.5 495C338.25 495 333.25 499.5 333.25 505.25L333.25 540.25L282.75 540.25C277.25 540.25 272.5 545.25 272.5 550.25C272.5 555.75 277.25 561 282.75 561L343.5 561C349.5 561 353.75 555.75 353.75 550.25L353.75 515.25L404 515.25C409.25 515.25 414 510.5 414 505.25L414 470L464.75 470C470.75 470 475 464.75 475 459.75L475 424.5L521.5 424.5C527.25 424.5 532 419.5 532 414C532 408.75 527.5 403.75 521.5 403.75ZM260.5 428.5L208.25 506.75C202.75 515.25 204.5 526.5 213.5 532.25C220 536.5 231.75 536.5 238.75 526.75L292.75 446.25C295 442.5 296.5 439.5 297.25 434.75L304.75 381L276 374.5C272 373.5 267.75 372 264.25 370.75ZM254.5 188.75L195.25 225.75C190 229 186.75 234.75 186.75 241.5L186.75 314.75C186.75 324.75 195.25 333.25 205.25 333.25C215.25 333.25 223.25 324.75 223.25 314.75L223.25 251.25L249.25 235.25C251.25 234 254.25 235.25 253.75 238.5L245 305.75C241.75 332 250.5 349.5 280.25 356.5L356.5 374.5L335.75 443.5C333 452.75 336.5 463 348 465.75C355.25 468.25 367.25 465.5 370.75 453.75L397.25 366C400 356.5 395.75 346.75 385.75 343.5L314 318.25L323 257.5C323.25 253.75 328 253 329.5 256.25L345.25 286C348.5 292.75 354.5 296 361 296L434.5 296C444.75 296 453 288 453 278C453 268 444.75 259.75 434.5 259.75L372.5 259.75L349 212.25C341 197.25 327.5 186 310.25 183.25L300 181C281.5 177.5 266.25 181.5 254.5 188.75ZM284.5 127C284.5 149 302.5 166.75 324.5 166.75C346.5 166.75 364.25 149 364.25 127C364.25 105 346.5 87 324.5 87C302.5 87 284.5 105 284.5 127Z" fill="black" fill-opacity="0.85"/>
 </g>
</svg>
