<?xml version="1.0" encoding="UTF-8"?>
<!--Generator: Apple Native CoreSVG 326-->
<!DOCTYPE svg
PUBLIC "-//W3C//DTD SVG 1.1//EN"
       "http://www.w3.org/Graphics/SVG/1.1/DTD/svg11.dtd">
<svg version="1.1" xmlns="http://www.w3.org/2000/svg" xmlns:xlink="http://www.w3.org/1999/xlink" viewBox="0 0 651.25 651.75">
 <g>
  <rect height="651.75" opacity="0" width="651.25" x="0" y="0"/>
  <path d="M325.5 651.25C505.25 651.25 651.25 505.5 651.25 325.75C651.25 146 505.25 0 325.5 0C145.75 0 0 146 0 325.75C0 505.5 145.75 651.25 325.5 651.25ZM325.5 604.75C171.25 604.75 46.5 480 46.5 325.75C46.5 171.5 171.25 46.75 325.5 46.75C479.75 46.75 604.5 171.5 604.5 325.75C604.5 480 479.75 604.75 325.5 604.75Z" fill="black" fill-opacity="0.85"/>
  <path d="M349.75 188.25C371.5 188.25 388.75 171 388.75 149.25C388.75 127.75 371.5 110.5 349.75 110.5C328.5 110.5 311 127.75 311 149.25C311 171 328.5 188.25 349.75 188.25ZM318 370L318 442.25C318 449.5 322.25 453.25 329.75 453.25L378.75 453.25C391.75 453.25 391.75 435.5 381.25 432L354 423.25L354 353.25C354 345.75 349 339.5 342 336L292.25 313.5L321.25 256.25C322.75 253.25 326 252 329 254L377.75 285.75L377.75 353.25C377.75 363.25 385.5 371 395.5 371C405.5 371 413.25 363.25 413.25 353.25L413.25 275C413.25 268.25 411.5 265 405.25 260.5L328.25 202.5C311.5 190 291.25 187 271.75 195L215 218.25C198 225.25 200.75 243.75 214.5 251.25L236 262.5L224 286.25C208.25 317.75 220.25 345.5 253 353.75ZM322.5 480.5L392.75 480.5C397 480.5 400.25 477 400.25 473C400.25 469 397.25 465.5 392.75 465.5L322.5 465.5C318.25 465.5 315 469 315 473C315 477 318.5 480.5 322.5 480.5ZM223.5 357L214.5 384L153.25 384C146 384 142.25 388.25 142.25 395.5L142.25 444.75C142.25 457.5 160.25 457.75 163.5 447L172 420L228.25 420C235.5 420 241 415.5 244 410.25L263 372.5L249.25 369C239.25 366.25 230.25 362 223.5 357ZM115 388.5L115 458.75C115 463 118.5 466.5 122.5 466.5C126.5 466.5 130 463.25 130 458.75L130 388.5C130 384.5 126.5 381 122.5 381C118.25 381 115 384.5 115 388.5ZM484.25 445L536.5 445C541.25 445 545.75 440.75 545.75 436L545.75 427C545.75 422 541.25 417.75 536.5 417.75L477.25 417.75L293.25 248.75L277 257.75L474.25 441C477.75 444.5 480.25 445 484.25 445ZM431.25 494C431.25 502 443.75 507.75 460 507.75C476 507.75 489 502 489 494L489 479C489 471.5 476 465.75 460 465.75C443.75 465.75 431.25 471.5 431.25 479Z" fill="black" fill-opacity="0.85"/>
 </g>
</svg>
