<?xml version="1.0" encoding="UTF-8"?>
<!--Generator: Apple Native CoreSVG 326-->
<!DOCTYPE svg
PUBLIC "-//W3C//DTD SVG 1.1//EN"
       "http://www.w3.org/Graphics/SVG/1.1/DTD/svg11.dtd">
<svg version="1.1" xmlns="http://www.w3.org/2000/svg" xmlns:xlink="http://www.w3.org/1999/xlink" viewBox="0 0 651.25 651.75">
 <g>
  <rect height="651.75" opacity="0" width="651.25" x="0" y="0"/>
  <path d="M651.25 325.75C651.25 505 505 651.25 325.5 651.25C146.25 651.25 0 505 0 325.75C0 146.25 146.25 0 325.5 0C505 0 651.25 146.25 651.25 325.75ZM167.75 478.75C161.75 487.25 163.75 499.25 172.75 505.25L253 558C262 563.75 273.5 561.25 278.75 552.75C284.75 543.75 282.5 532.75 273.5 527L212 486L250.75 443.5C242.75 440.25 234.5 433.75 227.25 425.25L214 409.75ZM446.75 145.25L372.25 256.75C363.5 270 349 276.5 333.5 276.5C317 276.5 299.75 269 289 253L217.25 145.25C211.25 136.25 199.75 134 190.75 139.75C182 145.5 179.75 157.25 185.75 166.25L274 298.25C278 304.5 281 308.25 274 319.25L251.5 353L196.75 305.5C189 298.75 177 298.25 168.75 306.75L99.75 376C92.25 384 92.25 395.5 99.75 402.75C108.25 410.5 119.25 409.5 126.25 402.75L182 347.25L239.25 415.25C261 442 296.75 438 315 411.5L478.5 166.25C484.5 157.25 482 145.5 473.25 139.75C464.75 134 452.75 136.25 446.75 145.25ZM293.25 216.75C293.25 239 311.25 256.75 333.5 256.75C355.25 256.75 373.25 239 373.25 216.75C373.25 194.75 355.25 177 333.5 177C311.25 177 293.25 194.75 293.25 216.75ZM150.5 138.25C145.25 138.25 141 142.75 141 147.75C141 153.25 145 157.5 150.5 157.5L167.5 157.5C167 151.25 168.5 144.5 171.5 138.25ZM231 138.25C232.5 140.5 233 141.25 233.75 142.75L243.5 157.5L420 157.5L430.25 142.75C431.25 140.75 431.75 139.75 432.75 138.25ZM492.25 138.25C495.5 144 497 150.75 496.5 157.5L507 157.5C512.25 157.5 516.5 153.25 516.5 147.75C516.5 142.75 512.25 138.25 507 138.25Z" fill="black" fill-opacity="0.85"/>
 </g>
</svg>
