<?xml version="1.0" encoding="UTF-8"?>
<!--Generator: Apple Native CoreSVG 326-->
<!DOCTYPE svg
PUBLIC "-//W3C//DTD SVG 1.1//EN"
       "http://www.w3.org/Graphics/SVG/1.1/DTD/svg11.dtd">
<svg version="1.1" xmlns="http://www.w3.org/2000/svg" xmlns:xlink="http://www.w3.org/1999/xlink" viewBox="0 0 651.25 651.75">
 <g>
  <rect height="651.75" opacity="0" width="651.25" x="0" y="0"/>
  <path d="M325.5 651.25C505.25 651.25 651.25 505.5 651.25 325.75C651.25 146 505.25 0 325.5 0C145.75 0 0 146 0 325.75C0 505.5 145.75 651.25 325.5 651.25ZM325.5 604.75C171.25 604.75 46.5 480 46.5 325.75C46.5 171.5 171.25 46.75 325.5 46.75C479.75 46.75 604.5 171.5 604.5 325.75C604.5 480 479.75 604.75 325.5 604.75Z" fill="black" fill-opacity="0.85"/>
  <path d="M322.5 191.75C344 191.75 361.25 174.25 361.25 152.75C361.25 131.5 344 114 322.5 114C301 114 283.5 131.5 283.5 152.75C283.5 174.25 301 191.75 322.5 191.75ZM198.25 533.75C205.75 538 217.5 536.25 222.75 526.75L267.5 445.75L294 386.25C294.75 385 296 384.5 297.25 385.25L368.75 437L368.75 517.75C368.75 527.75 376.75 536 386.75 536C396.75 536 404.75 527.75 404.75 517.75L404.75 429.25C404.75 424 403.25 418.5 399.25 414.75L325 344.5L331.75 288.25C332 286.25 335 286.25 335.75 287.75L352.25 327.25C355 334 361.5 338.25 368.75 338.25L444.75 338.25C455 338.25 463 330.25 463 320.25C463 310 455 302.25 444.75 302.25L380.5 302.25L354.75 241.75C348 226.25 338 217.25 315.25 211L305 208C280.25 201 263.5 200.5 243.25 209L216 220.75L216 154C216 144.25 207.75 136 198 136C188 136 180 144.25 180 154L180 250.25C180 263 193.5 269.75 205 264.75L256 242.5C258 241.75 260.25 243 260 245.5L234.5 431.25L191 509.5C186.5 517.75 189.25 529.25 198.25 533.75ZM432.75 275.5L452.75 275.5L452.75 117.5C452.75 112 448 107.5 442.75 107.5C437.5 107.5 432.75 112.25 432.75 117.5ZM418 285.5L467.5 285.5C473.5 285.5 475.5 280.75 473.75 275.75C469 262 457 252.75 442.75 252.75C428.25 252.75 416.5 262 411.5 275.75C409.75 280.75 411.75 285.5 418 285.5Z" fill="black" fill-opacity="0.85"/>
 </g>
</svg>
