<?xml version="1.0" encoding="UTF-8"?>
<!--Generator: Apple Native CoreSVG 326-->
<!DOCTYPE svg
PUBLIC "-//W3C//DTD SVG 1.1//EN"
       "http://www.w3.org/Graphics/SVG/1.1/DTD/svg11.dtd">
<svg version="1.1" xmlns="http://www.w3.org/2000/svg" xmlns:xlink="http://www.w3.org/1999/xlink" viewBox="0 0 837.805 764.75">
 <g>
  <rect height="764.75" opacity="0" width="837.805" x="0" y="0"/>
  <path d="M704.528 184.75C739.028 184.75 766.528 156.75 766.528 122.25C766.528 87.5 739.028 59.75 704.528 59.75C669.778 59.75 641.778 87.5 641.778 122.25C641.778 156.75 669.778 184.75 704.528 184.75ZM667.278 701C682.778 701 695.028 689 695.028 673.5L695.028 468.25C695.028 463.25 699.278 459.25 704.528 459.25C709.278 459.25 713.528 463.25 713.528 468.25L713.528 673.5C713.528 689 726.028 701 741.528 701C756.778 701 769.028 689 769.028 673.5L769.028 336.75C769.028 331.75 773.278 328 778.278 328C783.278 328 787.278 331.75 787.278 336.75L787.278 447.75C787.278 462 798.278 473.25 812.778 473.25C826.528 473.25 837.778 462 837.778 447.75L837.778 323.75C837.778 260.5 791.278 218.25 724.528 218.25L684.028 218.25C617.028 218.25 570.778 260.5 570.778 323.75L570.778 447.75C570.778 462 582.028 473.25 596.028 473.25C610.028 473.25 621.278 462 621.278 447.75L621.278 336.75C621.278 331.75 625.278 328 630.278 328C635.278 328 639.528 331.75 639.528 336.75L639.528 673.5C639.528 689 651.778 701 667.278 701Z" fill="black" fill-opacity="0.85"/>
  <path d="M447.278 764.25C459.528 764.25 469.278 755 469.278 742.75L469.278 21.5C469.278 9.25 459.528 0 447.278 0C434.778 0 425.028 9.25 425.028 21.5L425.028 742.75C425.028 755 434.778 764.25 447.278 764.25Z" fill="black" fill-opacity="0.85"/>
  <path d="M172.278 184.75C206.778 184.75 234.528 156.75 234.528 122.25C234.528 87.5 206.778 59.75 172.278 59.75C137.528 59.75 109.778 87.5 109.778 122.25C109.778 156.75 137.528 184.75 172.278 184.75ZM135.028 701C150.778 701 162.778 689 162.778 673.5L162.778 550.5C162.778 545.25 167.028 541.25 172.278 541.25C177.028 541.25 181.278 545.25 181.278 550.5L181.278 673.5C181.278 689 193.528 701 209.028 701C224.528 701 237.028 689 237.028 673.5L237.028 550.5L278.278 550.5C292.778 550.5 299.278 538 294.778 523.5L236.028 340.75C232.028 327.5 249.528 322 254.028 335.75L290.278 446.5C302.028 482.75 354.278 468.5 342.528 432L309.028 329.5C286.028 259.5 262.778 217.75 181.278 217.75L162.778 217.75C81.5275 217.75 58.0275 259.5 35.2775 329.5L1.77753 432C-10.2225 468.5 42.0275 482.75 54.0275 446.5L90.2775 335.75C94.7775 322 112.278 327.5 108.028 340.75L49.2775 523.5C44.7775 538 51.2775 550.5 65.7775 550.5L107.278 550.5L107.278 673.5C107.278 689 119.528 701 135.028 701Z" fill="black" fill-opacity="0.85"/>
 </g>
</svg>
