<?xml version="1.0" encoding="UTF-8"?>
<!--Generator: Apple Native CoreSVG 326-->
<!DOCTYPE svg
PUBLIC "-//W3C//DTD SVG 1.1//EN"
       "http://www.w3.org/Graphics/SVG/1.1/DTD/svg11.dtd">
<svg version="1.1" xmlns="http://www.w3.org/2000/svg" xmlns:xlink="http://www.w3.org/1999/xlink" viewBox="0 0 651.25 651.75">
 <g>
  <rect height="651.75" opacity="0" width="651.25" x="0" y="0"/>
  <path d="M325.5 651.25C505.25 651.25 651.25 505.5 651.25 325.75C651.25 146 505.25 0 325.5 0C145.75 0 0 146 0 325.75C0 505.5 145.75 651.25 325.5 651.25ZM325.5 604.75C171.25 604.75 46.5 480 46.5 325.75C46.5 171.5 171.25 46.75 325.5 46.75C479.75 46.75 604.5 171.5 604.5 325.75C604.5 480 479.75 604.75 325.5 604.75Z" fill="black" fill-opacity="0.85"/>
  <path d="M325.25 217C346.25 217 363.5 199.75 363.5 178.5C363.5 157.25 346.25 140.25 325.25 140.25C303.75 140.25 286.75 157.25 286.75 178.5C286.75 199.75 303.75 217 325.25 217ZM325.25 390.75L334 460.25L334 550.75C334 560 342 568 351.25 568C360.25 568 368.25 560 368.25 550.75L368.25 305C368.25 303 371 302.5 372 304.25C393.75 344.75 406.5 380.25 411.75 396C415 405 424.75 410 433.5 407C440.5 404.75 445 397.75 445 390.75C445 389 444.25 386.25 443.5 383.25C443 381.25 413.5 292.5 376.25 250.5C368.5 241.75 357 236.5 344.5 236.5L306.25 236.5C293.5 236.5 282 241.75 274.25 250.5C237.25 292.5 207.75 381.25 207 383.25C206.25 386.25 205.75 389 205.75 390.75C205.75 397.75 210 404.75 217 407C225.75 410 235.5 405 238.75 396C244.25 380.25 257 344.75 278.5 304.25C279.5 302.5 282.25 303 282.25 305L282.25 550.75C282.25 560 290.25 568 299.25 568C308.75 568 316.75 560 316.75 550.75L316.75 460.25ZM325.25 106.5C389.5 106.5 425 164.5 425 265.75L425 390.75L445 390.75L445 265.75C445 152 402.5 86.5 325.25 86.5C248.25 86.5 205.75 152 205.75 265.75L205.75 390.75L225.5 390.75L225.5 265.75C225.5 164.5 261 106.5 325.25 106.5Z" fill="black" fill-opacity="0.85"/>
 </g>
</svg>
