<?xml version="1.0" encoding="UTF-8"?>
<!--Generator: Apple Native CoreSVG 326-->
<!DOCTYPE svg
PUBLIC "-//W3C//DTD SVG 1.1//EN"
       "http://www.w3.org/Graphics/SVG/1.1/DTD/svg11.dtd">
<svg version="1.1" xmlns="http://www.w3.org/2000/svg" xmlns:xlink="http://www.w3.org/1999/xlink" viewBox="0 0 826.5 648.25">
 <g>
  <rect height="648.25" opacity="0" width="826.5" x="0" y="0"/>
  <path d="M303.25 177.5C255.75 177.5 217.5 138 217.5 92C217.5 44 255.75 5 303.25 5C351.25 5 389.25 44 389.25 92C389.25 139.75 351.25 177.5 303.25 177.5ZM359.75 507C345 495.75 331.75 476.75 318.5 452.75L260 347C233 298 242 247.75 288.25 223.25C333 198.5 379.25 217.5 406.75 267L467.5 377ZM815 631C798.5 648.5 770.25 647 750 626.25L613.5 485.25C608.75 480.5 605.75 479.25 598.75 482L483.5 525.75C457.5 535.5 430.25 533.25 409.75 529.25L488 432.25L571.5 401.75C608.75 388 640.25 392.5 670 423.5L812 570.25C831.5 590.5 830 616 815 631ZM290 634.75C277.5 625 276.75 610 288.5 595.5L359.75 507C375 517.5 392 525.25 409.75 529.25L328.5 628.75C317 642.5 302.75 645.25 290 634.75Z" fill="black" fill-opacity="0.85"/>
  <path d="M21 642.75L173.25 642.75C183.75 642.75 191 635.25 191 625C191 614.75 183.5 607.5 173.25 607.5L59.75 607.5L59.75 606.75L134.25 525.75C158.75 499.5 175.5 476.75 175.5 445.5C175.5 401 141.25 371.5 87.75 371.5C46.5 371.5 10.25 396.5 1.5 430.5C0.75 434.75 0 438 0 441.75C0 452.5 6.75 459.25 17.5 459.25C27.5 459.25 32.25 453.5 36.75 445.5C43.25 425.25 60.75 406 89.25 406C118.25 406 137.5 423 137.5 448.25C137.5 468.75 121.5 486.5 103.75 506L9 608.5C4.25 613.75 1.75 618.75 1.75 625C1.75 635.75 9 642.75 21 642.75Z" fill="black" fill-opacity="0.85"/>
  <path d="M664.75 322.25C575 322.25 505 248.25 505 162.5C505 72.25 575 0 664.75 0C754.5 0 826.5 72.25 826.5 162.5C826.5 248.25 754.5 322.25 664.75 322.25ZM664.75 285.75C732.5 285.75 789.75 229.25 789.75 162.5C789.75 92.5 734.25 36.5 664.75 36.5C595.75 36.5 541.5 92 541.5 162.5C541.5 230.25 597.25 285.75 664.75 285.75ZM783 17.75C790.25 10.75 801.75 10.75 808.75 17.75C816 24.75 816 36.5 808.75 43.75L548 304.75C541 311.75 529.25 311.75 522.25 304.75C514.75 297.5 514.75 286 522.25 278.5ZM808.75 278.5C816 286 816 297.5 808.75 304.75C801.75 311.75 790.25 311.75 783 304.75L522.25 43.75C514.75 36.5 514.75 24.75 522.25 17.75C529.25 10.75 541 10.75 548 17.75Z" fill="black" fill-opacity="0.85"/>
 </g>
</svg>
