<?xml version="1.0" encoding="UTF-8"?>
<!--Generator: Apple Native CoreSVG 326-->
<!DOCTYPE svg
PUBLIC "-//W3C//DTD SVG 1.1//EN"
       "http://www.w3.org/Graphics/SVG/1.1/DTD/svg11.dtd">
<svg version="1.1" xmlns="http://www.w3.org/2000/svg" xmlns:xlink="http://www.w3.org/1999/xlink" viewBox="0 0 651.25 651.75">
 <g>
  <rect height="651.75" opacity="0" width="651.25" x="0" y="0"/>
  <path d="M325.5 651.25C505.25 651.25 651.25 505.5 651.25 325.75C651.25 146 505.25 0 325.5 0C145.75 0 0 146 0 325.75C0 505.5 145.75 651.25 325.5 651.25ZM325.5 604.75C171.25 604.75 46.5 480 46.5 325.75C46.5 171.5 171.25 46.75 325.5 46.75C479.75 46.75 604.5 171.5 604.5 325.75C604.5 480 479.75 604.75 325.5 604.75Z" fill="black" fill-opacity="0.85"/>
  <path d="M395 193C416 193 433.25 175.5 433.25 154.5C433.25 133.25 416 116 395 116C373.75 116 356.25 133.25 356.25 154.5C356.25 175.5 373.75 193 395 193ZM473.25 446.75C472.75 452 477.25 457 482.5 457.5C487.5 457.75 492.75 453.75 493.25 447.75L508.75 238L488.75 237ZM387.75 356L340.5 318.5L376.75 255L435.5 299.75C443.5 306 454 305.25 461.25 297L504.5 249C519 232.75 495 205.75 478 225.25L446.5 262L395 220.25C376.25 204.75 358.5 192.75 327.75 194.5L253 198.25C243.5 198.75 236 204.5 235 215.75L230.75 283.5C229.5 305 264.5 312.5 266 283L268.75 231.5L313.5 230L279.75 291C269 310.5 274 332 293.5 343.5L360 381.5L360 470.75C360 480.75 367.75 488.75 377.5 488.75C387.5 488.75 395.25 480.75 395.25 470.75L395.25 370C395.25 364.5 393.75 360.75 387.75 356ZM118.5 408.25C114.5 412 114.5 418.25 118.25 422.25C121.75 425.75 128.25 425.5 132.25 422L261 297.5L247 283.5ZM273.5 348.5L264.5 383.5L189.75 452.75C171.5 470 196 496 215 478L291.5 406.75C296 402.75 297.25 400.25 299.25 395.25L309.25 371.75L285.5 357.75C280.75 355 276.75 352.25 273.5 348.5ZM476.5 495.75C494.5 495.75 505 491.25 517.75 485.25C523.5 482.5 525 477 523.5 472.5C521.5 467.5 515.75 464 509.5 467.25C499.5 472.25 491 475.75 476.5 475.75L206.25 475.75C201.25 475.75 196.25 480 196.25 485.25C196.25 490.75 200.75 495.75 206.25 495.75ZM401 495.75L401 475.75L137.5 475.75C132 475.75 127.5 480 127.5 485.25C127.5 490.5 131.75 495.75 137.5 495.75Z" fill="black" fill-opacity="0.85"/>
 </g>
</svg>
