<?xml version="1.0" encoding="UTF-8"?>
<!--Generator: Apple Native CoreSVG 326-->
<!DOCTYPE svg
PUBLIC "-//W3C//DTD SVG 1.1//EN"
       "http://www.w3.org/Graphics/SVG/1.1/DTD/svg11.dtd">
<svg version="1.1" xmlns="http://www.w3.org/2000/svg" xmlns:xlink="http://www.w3.org/1999/xlink" viewBox="0 0 784.5 635.75">
 <g>
  <rect height="635.75" opacity="0" width="784.5" x="0" y="0"/>
  <path d="M468.5 201.25L468.5 278.5C468.5 300.75 485 317.25 507.25 317.25L568 317.25C590.25 317.25 607 300.75 607 278.5L607 201.25C607 179 590.25 162.5 568 162.5L507.25 162.5C485 162.5 468.5 179 468.5 201.25ZM646.5 201.25L646.5 278.5C646.5 300.75 662.5 317.25 685 317.25L745.75 317.25C768 317.25 784.5 300.75 784.5 278.5L784.5 201.25C784.5 179 768 162.5 745.75 162.5L685 162.5C662.5 162.5 646.5 179 646.5 201.25ZM468.5 427.75L468.5 505C468.5 527.25 485 543.75 507.25 543.75L568 543.75C590.25 543.75 607 527.25 607 505L607 427.75C607 405.5 590.25 389.25 568 389.25L507.25 389.25C485 389.25 468.5 405.5 468.5 427.75ZM646.5 427.75L646.5 505C646.5 527.25 662.5 543.75 685 543.75L745.75 543.75C768 543.75 784.5 527.25 784.5 505L784.5 427.75C784.5 405.5 768 389.25 745.75 389.25L685 389.25C662.5 389.25 646.5 405.5 646.5 427.75ZM538.25 273.25C519.75 273.25 504.5 258.5 504.5 239.75C504.5 221.75 519.75 206.75 538.25 206.75C556 206.75 571.25 221.75 571.25 239.75C571.25 258.5 556 273.25 538.25 273.25ZM715.5 273.25C697.25 273.25 681.75 258.5 681.75 239.75C681.75 221.75 697.25 206.75 715.5 206.75C733.25 206.75 748.75 221.75 748.75 239.75C748.75 258.5 733.25 273.25 715.5 273.25ZM538.25 499.75C519.75 499.75 504.5 485 504.5 466.25C504.5 448.25 519.75 433.5 538.25 433.5C556 433.5 571.25 448.25 571.25 466.25C571.25 485 556 499.75 538.25 499.75ZM715.5 499.75C697.25 499.75 681.75 485 681.75 466.25C681.75 448.25 697.25 433.5 715.5 433.5C733.25 433.5 748.75 448.25 748.75 466.25C748.75 485 733.25 499.75 715.5 499.75ZM562.25 115.25L690.75 115.25C699.75 115.25 701.75 105.75 694.5 101L636 60.75C629.75 56.75 623.5 56.75 617.25 60.75L558.5 101C551.5 105.75 553.5 115.25 562.25 115.25Z" fill="black" fill-opacity="0.85"/>
  <path d="M183.25 140.5C221.75 140.5 253 108.25 253 70.75C253 31.75 221.75 0 183.25 0C144 0 113.25 31.75 113.25 70.75C113.25 109.5 144 140.5 183.25 140.5ZM48.5 402.25L249.25 179.25C229.25 171.5 207.5 168.5 183.25 168.5C92.5 168.5 39.25 212 39.25 284.75C39.25 302.5 40.25 326 42.75 349.75ZM317.75 402.25L323.25 349.75C325.75 326 327 302.5 327 284.75C327 248.5 314 219.25 288.25 199.25L127.25 378.5C146.25 375.25 164.5 374 183.25 374C227.75 374 272.25 380 317.75 402.25ZM105.75 634.25C124.25 631.5 136.25 618.25 134 595.5L121.75 478.75L244.5 478.75L232 595.5C229.5 618.25 241.5 631.5 260.5 634.25C279.5 636 294 624.25 296.25 601.75L312.75 447C271.75 423.5 226.5 414.5 183.25 414.5C139.75 414.5 94 423.5 54 447L70 601.75C72.5 624.25 86.75 636 105.75 634.25ZM288.25 199L348.5 132.25C358.75 121.25 357.5 108.75 348 100.5C338.5 92.5 327 92.25 316.5 104L249.25 179.25C263.5 184.75 276.75 191.5 288.25 199ZM9.25 426C-1.5 434-1.75 446.5 3 455C8.5 463.75 20 468 31.5 460.75C39 455.75 46 451.25 54 447L48.5 402.25C34.25 408.75 21.25 416.5 9.25 426ZM357 426C345 416.5 332 408.75 317.75 402.25L312.5 447C320.5 451.25 327.25 455.75 334.75 460.75C346.25 468 357.25 464 362.75 455.5C368.25 447 368.25 434.25 357 426Z" fill="black" fill-opacity="0.85"/>
 </g>
</svg>
