<?xml version="1.0" encoding="UTF-8"?>
<!--Generator: Apple Native CoreSVG 326-->
<!DOCTYPE svg
PUBLIC "-//W3C//DTD SVG 1.1//EN"
       "http://www.w3.org/Graphics/SVG/1.1/DTD/svg11.dtd">
<svg version="1.1" xmlns="http://www.w3.org/2000/svg" xmlns:xlink="http://www.w3.org/1999/xlink" viewBox="0 0 651.25 651.75">
 <g>
  <rect height="651.75" opacity="0" width="651.25" x="0" y="0"/>
  <path d="M325.5 651.25C505.25 651.25 651.25 505.5 651.25 325.75C651.25 146 505.25 0 325.5 0C145.75 0 0 146 0 325.75C0 505.5 145.75 651.25 325.5 651.25ZM325.5 604.75C171.25 604.75 46.5 480 46.5 325.75C46.5 171.5 171.25 46.75 325.5 46.75C479.75 46.75 604.5 171.5 604.5 325.75C604.5 480 479.75 604.75 325.5 604.75Z" fill="black" fill-opacity="0.85"/>
  <path d="M410.25 218.5C432 218.5 449 201.25 449 179.5C449 157.75 432 140.75 410.25 140.75C388.75 140.75 371.25 157.75 371.25 179.5C371.25 201.25 388.75 218.5 410.25 218.5ZM289.25 535.5C299.25 535.5 307.75 527.25 307.75 517.25L307.75 350C348.25 343.75 383.5 316.75 400.5 280.25C402 276.5 406 274.75 413.25 277L503.25 307.25C515.5 311.5 524.25 304.5 527 295.75C529.75 287 526.75 276 515 272.25L245.25 182.25C232.5 178 224 185 221.5 193.75C218.5 202.5 222 213.25 233.5 217.25L330.5 249.75C335 251.25 337 256.5 334.25 261C324 277.5 308.75 287.25 289.25 287.25L197.25 287.25L197.25 194.75C197.25 183.75 189.75 176.5 178.75 176.5C167.5 176.5 160.25 183.75 160.25 194.75L160.25 304C160.25 316.25 166.25 322 175.75 323.25L257.25 337L270.75 417.5L270.75 517.25C270.75 527.25 279 535.5 289.25 535.5Z" fill="black" fill-opacity="0.85"/>
 </g>
</svg>
