<?xml version="1.0" encoding="UTF-8"?>
<!--Generator: Apple Native CoreSVG 326-->
<!DOCTYPE svg
PUBLIC "-//W3C//DTD SVG 1.1//EN"
       "http://www.w3.org/Graphics/SVG/1.1/DTD/svg11.dtd">
<svg version="1.1" xmlns="http://www.w3.org/2000/svg" xmlns:xlink="http://www.w3.org/1999/xlink" viewBox="0 0 835.853 644.25">
 <g>
  <rect height="644.25" opacity="0" width="835.853" x="0" y="0"/>
  <path d="M198.926 172.5C151.426 172.5 113.176 133 113.176 87C113.176 39 151.426-5.68434e-14 198.926-5.68434e-14C246.926-5.68434e-14 285.176 39 285.176 87C285.176 134.75 246.926 172.5 198.926 172.5ZM710.676 626.5C694.426 643.75 666.176 642.25 645.926 621.5L509.176 480.25C504.676 475.5 501.426 474.25 494.426 477L385.926 518.25C317.676 544.25 253.676 520.25 222.926 464L155.676 342C128.926 293 137.676 243 183.926 218.5C228.676 193.75 275.176 212.25 302.426 262L391.426 424.5L467.176 397C504.676 383.25 535.926 387.5 565.926 418.5L707.926 565.5C727.676 585.75 725.676 611.25 710.676 626.5Z" fill="black" fill-opacity="0.85"/>
  <path d="M683.176 125.5C683.176 114.5 674.176 105.5 662.426 105.5L535.426 105.5L535.426 54.25C535.426 33.5 514.176 26 499.926 39L418.176 110.25C407.676 119.5 407.676 132 418.176 141.5L499.926 212.75C514.676 226.25 535.426 217.25 535.426 197.5L535.426 146.25L662.426 146.25C674.176 146.25 683.176 137.25 683.176 125.5ZM742.676 160.5C731.426 160.5 722.426 169.5 722.426 181L722.426 308L670.926 308C650.926 308 642.176 328.5 655.676 343.5L726.676 425.5C735.676 435.75 748.676 436.25 757.926 425.5L829.426 343.5C842.426 329.25 834.926 308.5 813.926 308.25L762.926 308L762.926 181C762.926 169.5 753.676 160.5 742.676 160.5Z" fill="black" fill-opacity="0.85"/>
 </g>
</svg>
