<?xml version="1.0" encoding="UTF-8"?>
<!--Generator: Apple Native CoreSVG 326-->
<!DOCTYPE svg
PUBLIC "-//W3C//DTD SVG 1.1//EN"
       "http://www.w3.org/Graphics/SVG/1.1/DTD/svg11.dtd">
<svg version="1.1" xmlns="http://www.w3.org/2000/svg" xmlns:xlink="http://www.w3.org/1999/xlink" viewBox="0 0 651.25 651.75">
 <g>
  <rect height="651.75" opacity="0" width="651.25" x="0" y="0"/>
  <path d="M325.5 651.25C505.25 651.25 651.25 505.5 651.25 325.75C651.25 146 505.25 0 325.5 0C145.75 0 0 146 0 325.75C0 505.5 145.75 651.25 325.5 651.25ZM325.5 604.75C171.25 604.75 46.5 480 46.5 325.75C46.5 171.5 171.25 46.75 325.5 46.75C479.75 46.75 604.5 171.5 604.5 325.75C604.5 480 479.75 604.75 325.5 604.75Z" fill="black" fill-opacity="0.85"/>
  <path d="M268.25 228.5C289.75 228.5 307 211.25 307 189.5C307 168 289.75 150.75 268.25 150.75C246.5 150.75 229.25 168 229.25 189.5C229.25 211.25 246.5 228.5 268.25 228.5ZM174 364.75C166.25 394 185 412.5 207.75 412.5C215.25 412.5 222.75 410.75 230 406.75L326.75 355.25L433.75 409C447 415.5 457.5 410.25 461.25 402C465.5 394 463 382.5 450.5 376.25L338.5 320C331.25 316.5 323 316 315.5 319.5L243.25 350.75L257.75 300C260.25 290.75 268.25 284.5 277.75 284.5L421.75 284.5C432 284.5 440.25 276.5 440.25 266.25C440.25 256.25 432 248 421.75 248L264.5 248C228.75 248 199.5 268.75 191.5 299ZM168.25 468.75L482.5 468.75C488.25 468.75 492.5 464.5 492.5 458.75C492.5 453 488.25 448.75 482.5 448.75L168.25 448.75C162.5 448.75 158.25 453 158.25 458.75C158.25 464.5 162.5 468.75 168.25 468.75Z" fill="black" fill-opacity="0.85"/>
 </g>
</svg>
