<?xml version="1.0" encoding="UTF-8"?>
<!--Generator: Apple Native CoreSVG 326-->
<!DOCTYPE svg
PUBLIC "-//W3C//DTD SVG 1.1//EN"
       "http://www.w3.org/Graphics/SVG/1.1/DTD/svg11.dtd">
<svg version="1.1" xmlns="http://www.w3.org/2000/svg" xmlns:xlink="http://www.w3.org/1999/xlink" viewBox="0 0 1024.55 658.75">
 <g>
  <rect height="658.75" opacity="0" width="1024.55" x="0" y="0"/>
  <path d="M846.648 179.75C894.148 179.75 932.148 140.25 932.148 94.25C932.148 46.25 894.148 7.25 846.648 7.25C798.648 7.25 760.398 46.25 760.398 94.25C760.398 142 798.648 179.75 846.648 179.75ZM334.648 633.75C351.148 651 379.398 649.5 399.648 628.75L536.398 487.5C540.898 482.75 544.148 481.5 551.148 484.25L659.648 525.5C727.898 551.5 791.648 527.5 822.648 471.25L889.648 349.25C916.648 300.25 907.898 250.25 861.648 225.75C816.898 201 770.148 219.5 743.148 269.25L654.148 431.75L578.398 404.25C540.648 390.5 509.398 394.75 479.648 425.75L337.648 572.75C317.898 593 319.648 618.5 334.648 633.75Z" fill="black" fill-opacity="0.85"/>
  <path d="M5.14821 104.5L91.6482 215.5C95.6482 220.25 101.398 221.5 106.648 218.5C127.148 207.75 156.898 200.25 180.398 200.25C204.148 200.25 234.148 207.75 254.148 218.5C259.898 221.5 265.898 220.25 269.398 215.5L356.148 104.5C363.898 94.25 362.648 84 353.148 76.75C317.148 49.5 249.648 28.75 180.398 28.75C111.648 28.75 43.8982 49.5 8.14821 76.75C-1.60179 84-2.60179 94.5 5.14821 104.5ZM96.1482 281.75C86.3982 269 82.3982 257 82.3982 243.75C82.3982 214.75 106.648 205.75 106.648 188.5C106.648 171 82.3982 162.75 82.3982 132.75C82.3982 119.75 86.3982 107.75 96.3982 95C106.648 82.5 125.398 95.75 115.398 109.25C108.148 119 106.148 124.75 106.148 132.75C106.148 154.5 130.398 161 130.398 188.5C130.398 216.25 106.148 223 106.148 243.75C106.148 252.5 108.148 257.75 115.398 267.5C124.898 280.75 106.398 294 96.1482 281.75ZM170.398 281.75C161.148 269 156.898 257 156.898 243.75C156.898 214.75 181.148 205.75 181.148 188.5C181.148 171 156.898 162.75 156.898 132.75C156.898 119.75 161.148 107.75 170.648 95C181.148 82.5 200.148 95.75 190.148 109.25C182.898 119 180.648 124.75 180.648 132.75C180.648 154.5 204.898 161 204.898 188.5C204.898 216.25 180.648 223 180.648 243.75C180.648 252.5 182.898 257.75 189.898 267.5C199.648 280.75 180.648 294 170.398 281.75ZM245.648 281.75C235.898 269 231.648 257 231.648 243.75C231.648 214.75 255.898 205.75 255.898 188.5C255.898 171 231.648 162.75 231.648 132.75C231.648 119.75 235.648 107.75 245.648 95C255.898 82.5 274.648 95.75 264.648 109.25C257.648 119 255.398 124.75 255.398 132.75C255.398 154.5 279.398 161 279.398 188.5C279.398 216.25 255.398 223 255.398 243.75C255.398 252.5 257.648 257.75 264.398 267.5C274.148 280.75 255.648 294 245.648 281.75ZM522.148 284.5C533.648 284.5 542.898 275.5 542.898 263.75L542.898 131.5L598.398 131.5C618.648 131.5 627.648 110.25 614.148 94.75L538.898 8.25C529.148-2.75 515.648-2.75 506.148 8.25L431.148 94.75C417.898 109.75 425.398 131.5 446.898 131.5L502.148 131.5L502.148 263.75C502.148 275.5 511.148 284.5 522.148 284.5Z" fill="black" fill-opacity="0.85"/>
 </g>
</svg>
