<?xml version="1.0" encoding="UTF-8"?>
<!--Generator: Apple Native CoreSVG 326-->
<!DOCTYPE svg
PUBLIC "-//W3C//DTD SVG 1.1//EN"
       "http://www.w3.org/Graphics/SVG/1.1/DTD/svg11.dtd">
<svg version="1.1" xmlns="http://www.w3.org/2000/svg" xmlns:xlink="http://www.w3.org/1999/xlink" viewBox="0 0 651.25 651.75">
 <g>
  <rect height="651.75" opacity="0" width="651.25" x="0" y="0"/>
  <path d="M325.5 651.25C505.25 651.25 651.25 505.5 651.25 325.75C651.25 146 505.25 0 325.5 0C145.75 0 0 146 0 325.75C0 505.5 145.75 651.25 325.5 651.25ZM325.5 604.75C171.25 604.75 46.5 480 46.5 325.75C46.5 171.5 171.25 46.75 325.5 46.75C479.75 46.75 604.5 171.5 604.5 325.75C604.5 480 479.75 604.75 325.5 604.75Z" fill="black" fill-opacity="0.85"/>
  <path d="M352.5 171.25C372.5 171.25 388.5 155.5 388.5 135.75C388.5 115.5 372.5 99.5 352.5 99.5C332.75 99.5 316.75 115.5 316.75 135.75C316.75 155.5 332.75 171.25 352.5 171.25ZM296.5 315.75L359.75 351.25L319 386.5C310.25 394.25 310 403.5 315.5 409.5C321 415.75 330.75 416.75 339.5 409.25L396.75 360.5C404.25 354 403.25 340 394 334L332 293L344.25 250C346 243.5 353 242.5 356.75 248.25L375 275C379.25 281.25 386.75 283.25 394 280L446.5 256.75C455.5 252.75 459 244.75 455 236.5C451.25 228 443.25 225.75 433.75 229.75L392.25 248.25L363.5 208.75C348.5 188.25 330 179.75 300 182L241.5 186C232.5 186.75 226.25 193 225 202.25L217.25 261C216 271.5 220.5 278.5 229.75 279.5C239 280 244.25 275 245.75 264.75L253 216.25L277 214.75C282 214.5 287.25 218.25 285.5 224.5L271.75 272.25C264 299.75 281.75 307.5 296.5 315.75ZM185.25 458.5C191.5 464.25 201 464.25 209.25 456.25L263 403C267.25 398.75 268 397.5 271 390.5L293.5 331.25L289 328.75C280.75 324.5 269 316.75 262.25 304.75L241.75 378.25L185.75 434C177.25 442.5 178.5 452.5 185.25 458.5ZM469.25 307L552.5 268C557.75 265.75 559.5 259.25 557.5 254.5C555.25 249.5 549.25 247.25 544 249.75L461 288.5C455 291.25 453.25 297.25 455.75 302.5C457.75 307.25 463.75 309.5 469.25 307ZM464.25 451L479 450.25C482 450 483 450 485.25 450L515.75 274L493.75 283.75ZM146.75 502.5L487.75 502.5C498.25 502.5 506.5 494.25 506.5 483.5C506.5 471 497 464 484 464.75L146.75 485.75C142 486 138.5 489.5 138.5 494.25C138.5 498.75 142.25 502.5 146.75 502.5Z" fill="black" fill-opacity="0.85"/>
 </g>
</svg>
