<?xml version="1.0" encoding="UTF-8"?>
<!--Generator: Apple Native CoreSVG 326-->
<!DOCTYPE svg
PUBLIC "-//W3C//DTD SVG 1.1//EN"
       "http://www.w3.org/Graphics/SVG/1.1/DTD/svg11.dtd">
<svg version="1.1" xmlns="http://www.w3.org/2000/svg" xmlns:xlink="http://www.w3.org/1999/xlink" viewBox="0 0 950.413 747.75">
 <g>
  <rect height="747.75" opacity="0" width="950.413" x="0" y="0"/>
  <path d="M857.206 243.25L937.456 361C940.956 366.25 944.456 371.25 947.206 376.25C953.956 388.25 950.206 405.25 934.456 413.75C921.956 420.75 906.956 418.5 897.456 407.5C888.956 397.25 843.956 333.5 821.206 301.75C817.956 297.5 812.456 299.5 812.456 304.25C812.456 334 814.206 408.5 819.456 444.5C825.456 484.25 871.956 676.75 874.206 685.25C879.706 705 867.706 723.25 847.706 723.25C832.706 723.25 822.956 715 817.456 695.5C806.706 656.5 774.206 523.5 763.956 491.25C756.956 468.75 751.206 459.5 738.206 459.5C724.956 459.5 719.456 468.75 712.206 491.25C701.956 523.5 669.456 656.5 658.706 695.5C653.456 715 643.456 723.25 628.706 723.25C608.706 723.25 596.456 705 601.956 685.25C604.206 676.75 650.706 484.25 656.706 444.5C661.956 408.5 663.706 334.25 663.706 304.5C663.706 299.5 657.956 297.75 654.956 301.75C645.462 315.105 632.091 333.947 619.121 352.107C616.847 343.948 612.449 336.26 606.206 329.75C596.757 319.181 583.844 313.869 571.006 313.607L618.956 243.25C647.206 202.5 681.706 188.25 738.206 188.25C794.456 188.25 829.206 202.5 857.206 243.25ZM805.956 86C805.956 123.75 775.706 153.75 738.206 153.75C700.456 153.75 670.456 123.75 670.456 86C670.456 48.25 700.456 18.25 738.206 18.25C775.706 18.25 805.956 48.25 805.956 86Z" fill="black" fill-opacity="0.85"/>
  <path d="M331.456 243.25L379.407 313.607C366.568 313.869 353.656 319.181 344.206 329.75C338.054 336.259 333.683 343.976 331.415 352.174C318.406 333.945 304.981 315.043 295.456 301.75C292.206 297.5 286.706 299.5 286.706 304.25C286.706 334 288.456 408.5 293.706 444.5C299.706 484.25 346.206 676.75 348.456 685.25C353.956 705 341.706 723.25 321.956 723.25C306.956 723.25 296.956 715 291.706 695.5C280.956 656.5 248.456 523.5 238.206 491.25C230.956 468.75 225.456 459.5 212.206 459.5C199.206 459.5 193.456 468.75 186.456 491.25C176.206 523.5 143.706 656.5 132.956 695.5C127.456 715 117.706 723.25 102.706 723.25C82.9563 723.25 70.7063 705 76.2063 685.25C78.4563 676.75 124.956 484.25 130.956 444.5C136.206 408.5 137.956 334.25 137.956 304.5C137.956 299.5 132.206 297.75 129.206 301.75C106.456 333.75 61.4563 397.25 52.9563 407.5C43.4563 418.5 28.4563 420.75 15.9563 413.75C0.206292 405.25-3.54371 388.25 3.20629 376.25C5.95629 371.25 9.45629 366.25 12.9563 361L93.2063 243.25C121.206 202.5 155.956 188.25 212.206 188.25C268.706 188.25 303.456 202.5 331.456 243.25ZM280.206 86C280.206 123.75 249.956 153.75 212.206 153.75C174.706 153.75 144.706 123.75 144.706 86C144.706 48.25 174.706 18.25 212.206 18.25C249.956 18.25 280.206 48.25 280.206 86Z" fill="black" fill-opacity="0.85"/>
  <path d="M475.206 373.25C502.956 373.25 525.956 350.75 525.956 323C525.956 295.25 502.956 272.75 475.206 272.75C447.456 272.75 424.956 295.25 424.956 323C424.956 350.75 447.456 373.25 475.206 373.25ZM407.956 723.25C419.956 723.25 429.706 716.25 433.706 700.75C440.456 677 459.706 595.25 466.206 575.25C470.706 562 471.706 560.75 475.206 560.75C478.706 560.75 479.706 562 484.456 575.25C490.706 595.25 509.956 677 516.706 700.75C520.706 716.25 530.456 723.25 542.456 723.25C560.206 723.25 570.706 706.75 566.206 690.5C564.706 685 536.956 567.5 532.456 542.75C529.456 522.75 528.706 483.25 528.706 467.5C528.706 458.25 531.706 452 536.706 445.75C559.706 417.25 588.456 384.75 592.206 379C599.456 368.25 596.706 355.5 588.206 346.5C578.706 335.75 562.206 336 553.706 344.75L520.206 380.5C506.206 395.5 494.456 402.5 475.206 402.5C455.956 402.5 444.206 395.5 430.206 380.5L396.706 344.75C388.206 336 371.706 335.75 362.206 346.5C353.706 355.5 350.956 368.25 358.206 379C361.956 384.75 390.706 417.25 413.706 445.75C418.706 452 421.706 458.25 421.706 467.5C421.706 483.25 420.956 522.75 417.956 542.75C413.456 567.5 385.706 685 384.206 690.5C379.706 706.75 390.206 723.25 407.956 723.25Z" fill="black" fill-opacity="0.85"/>
 </g>
</svg>
