<?xml version="1.0" encoding="UTF-8"?>
<!--Generator: Apple Native CoreSVG 326-->
<!DOCTYPE svg
PUBLIC "-//W3C//DTD SVG 1.1//EN"
       "http://www.w3.org/Graphics/SVG/1.1/DTD/svg11.dtd">
<svg version="1.1" xmlns="http://www.w3.org/2000/svg" xmlns:xlink="http://www.w3.org/1999/xlink" viewBox="0 0 609.255 647.813">
 <g>
  <rect height="647.813" opacity="0" width="609.255" x="0" y="0"/>
  <path d="M85.8777 174.281C38.3777 174.281 0.127682 134.781 0.127682 88.7815C0.127682 40.7815 38.3777 1.78149 85.8777 1.78149C133.628 1.78149 171.878 40.7815 171.878 88.7815C171.878 136.531 133.628 174.281 85.8777 174.281ZM597.628 628.281C581.128 645.531 552.878 644.031 532.628 623.281L396.128 482.031C391.378 477.281 388.128 476.031 381.128 478.781L272.878 520.031C204.378 546.031 140.628 522.031 109.878 465.781L42.6277 343.781C15.8777 294.781 24.3777 244.781 70.8777 220.281C115.628 195.531 162.128 214.031 189.128 263.781L278.378 426.281L354.128 398.781C391.628 385.031 422.878 389.281 452.628 420.281L594.628 567.281C614.628 587.531 612.628 613.031 597.628 628.281Z" fill="black" fill-opacity="0.85"/>
  <path d="M499.878 319.781C513.128 319.781 523.378 309.531 523.378 296.281L523.378 146.031L583.878 146.031C607.128 146.031 617.128 122.281 601.628 104.781L518.628 9.28149C508.128-2.96851 493.128-3.21851 482.128 9.28149L398.878 104.781C384.128 121.531 392.628 146.031 416.628 146.031L476.878 146.031L476.878 296.281C476.878 309.531 487.128 319.781 499.878 319.781Z" fill="black" fill-opacity="0.85"/>
 </g>
</svg>
