<?xml version="1.0" encoding="UTF-8"?>
<!--Generator: Apple Native CoreSVG 326-->
<!DOCTYPE svg
PUBLIC "-//W3C//DTD SVG 1.1//EN"
       "http://www.w3.org/Graphics/SVG/1.1/DTD/svg11.dtd">
<svg version="1.1" xmlns="http://www.w3.org/2000/svg" xmlns:xlink="http://www.w3.org/1999/xlink" viewBox="0 0 765 717.75">
 <g>
  <rect height="717.75" opacity="0" width="765" x="0" y="0"/>
  <path d="M381.25 127.75C416.75 127.75 445.5 99.5 445.5 64.25C445.5 28.5 416.75 0 381.25 0C346 0 317.25 28.5 317.25 64.25C317.25 99.5 346 127.75 381.25 127.75ZM281.25 384.75L394 448.25L321.25 511C306 524 306 541.25 315 552C325.25 563 342.5 564.75 358.25 551.25L459.75 464.75C473.5 453 471.25 428.25 454.75 417.5L344.25 344.5L366.25 268C369.25 256.75 382.25 255 389 265L421 312.25C428.5 323.5 442.25 327.25 454.75 321.75L548.25 280C564.75 272.5 571 258.75 563.5 243.75C557 229 542.75 224.75 526.25 232L451.75 265L400.75 194.25C374 157.5 341.25 142.75 287.5 146.5L183.75 154C167.25 155.25 156.5 166 154.25 182.75L140.25 287.5C138 306 146.25 318.5 162.75 320.25C179 321.75 188.75 312.25 191.5 294.25L204.5 208.25L246.75 205.25C256 204.25 265 211.25 261.75 222.75L237.5 307.25C223.5 356.5 255.5 370.25 281.25 384.75ZM83.5 639C95 648.5 111.5 649.5 126 635.25L221.5 540.5C229.5 532.75 231.25 530.75 236 518.5L275.75 416L266.5 410.5C245.25 398.25 229.5 388 218.25 373.25L183.75 496.25L84.25 595.25C69 610 71.5 628.5 83.5 639ZM585.75 359.5C588.75 366.75 598.5 370.75 607.5 366.75L755.5 297.5C763.75 293.5 767 284.25 763.5 276C760.25 268.25 751 264.75 741.75 268.75L593.75 338C585.25 342 581.75 351.5 585.75 359.5ZM602.25 622.25L627.25 620.75C631.5 620.5 632.75 620.25 634.75 620.5L688.25 313.75L653.75 329ZM14.75 717.5L641.25 717.5C660.25 717.5 674.5 703 674.5 683.5C674.5 661.25 657.75 648.75 634.25 650.25L15 687.5C6.5 688 0 694.25 0 702.75C0 711 6.5 717.5 14.75 717.5Z" fill="black" fill-opacity="0.85"/>
 </g>
</svg>
