<?xml version="1.0" encoding="UTF-8"?>
<!--Generator: Apple Native CoreSVG 326-->
<!DOCTYPE svg
PUBLIC "-//W3C//DTD SVG 1.1//EN"
       "http://www.w3.org/Graphics/SVG/1.1/DTD/svg11.dtd">
<svg version="1.1" xmlns="http://www.w3.org/2000/svg" xmlns:xlink="http://www.w3.org/1999/xlink" viewBox="0 0 651.25 651.75">
 <g>
  <rect height="651.75" opacity="0" width="651.25" x="0" y="0"/>
  <path d="M325.5 651.25C505.25 651.25 651.25 505.5 651.25 325.75C651.25 146 505.25 0 325.5 0C145.75 0 0 146 0 325.75C0 505.5 145.75 651.25 325.5 651.25ZM325.5 604.75C171.25 604.75 46.5 480 46.5 325.75C46.5 171.5 171.25 46.75 325.5 46.75C479.75 46.75 604.5 171.5 604.5 325.75C604.5 480 479.75 604.75 325.5 604.75Z" fill="black" fill-opacity="0.85"/>
  <path d="M234.5 244.25C256 244.25 273.5 227 273.5 205.75C273.5 184 256 167 234.5 167C213.25 167 196 184 196 205.75C196 227 213.25 244.25 234.5 244.25ZM165.25 319.25L175.75 383.25C179.5 406.5 211.25 401.75 207.5 378.5L198.75 323.25L235 309C240.75 307 245.5 308 248 313L281 379C291.25 398.75 299.5 404.75 307.5 410.5L415.25 489.75C433.75 503.25 456 476.25 435 460.75L351.25 399.25C347.25 396.25 347.5 390.5 352.25 388L409.25 355L484 390.75C504.75 400.75 521.75 371.25 497 359.5L417.5 321.5C408 317 399 318.5 391 323L353.5 345C348.5 347.75 344.75 346.5 343 342.5L313 281.25C309.75 275.25 310.5 269.75 316.75 266.75L344.25 254C353.5 250 356.75 247 359.5 238.25L376.75 178C383.25 155.25 352.75 147.25 346.5 169.75L329.25 229L177.25 295.75C167.25 300.25 163.5 307.75 165.25 319.25Z" fill="black" fill-opacity="0.85"/>
 </g>
</svg>
