<?xml version="1.0" encoding="UTF-8"?>
<!--Generator: Apple Native CoreSVG 326-->
<!DOCTYPE svg
PUBLIC "-//W3C//DTD SVG 1.1//EN"
       "http://www.w3.org/Graphics/SVG/1.1/DTD/svg11.dtd">
<svg version="1.1" xmlns="http://www.w3.org/2000/svg" xmlns:xlink="http://www.w3.org/1999/xlink" viewBox="0 0 610.898 635.25">
 <g>
  <rect height="635.25" opacity="0" width="610.898" x="0" y="0"/>
  <path d="M469.574 279.75L469.574 357C469.574 379.25 485.824 395.75 508.074 395.75L569.074 395.75C591.074 395.75 607.574 379.25 607.574 357L607.574 279.75C607.574 257.5 591.074 241 569.074 241L508.074 241C485.824 241 469.574 257.5 469.574 279.75ZM538.824 351C520.574 351 505.074 336 505.074 317.5C505.074 299.5 520.574 284.5 538.824 284.5C556.824 284.5 572.074 299.5 572.074 317.5C572.074 336 556.824 351 538.824 351ZM474.074 193.25L602.824 193.25C611.574 193.25 613.574 183.75 606.574 179L547.824 139C541.574 134.75 535.324 134.75 529.074 139L470.324 179C463.324 183.75 465.324 193.25 474.074 193.25Z" fill="black" fill-opacity="0.85"/>
  <path d="M183.324 140.5C221.574 140.5 252.824 108.25 252.824 70.75C252.824 31.75 221.574 0 183.324 0C144.074 0 113.324 31.75 113.324 70.75C113.324 109.5 144.074 140.5 183.324 140.5ZM48.574 402.25L249.574 179.25C229.074 171.5 207.574 168.5 183.324 168.5C92.824 168.5 39.324 212 39.324 284.75C39.324 302.5 40.074 326 42.824 350ZM317.824 402.25L323.324 350C326.074 326 327.074 302.5 327.074 284.75C327.074 248.5 314.074 219.25 288.574 199.25L127.324 378.5C146.324 375.25 164.824 374 183.324 374C227.574 374 272.324 380 317.824 402.25ZM105.824 634.25C124.324 631.5 136.824 618.25 134.324 595.5L121.574 478.75L244.574 478.75L232.324 595.5C230.074 618.25 241.824 631.5 260.324 634.25C279.324 636 293.824 624.25 296.074 601.75L312.574 447C271.824 423.75 226.574 414.5 183.324 414.5C139.574 414.5 94.324 423.75 54.074 447L69.824 601.75C72.324 624.25 86.574 636 105.824 634.25ZM288.574 199L348.324 132.25C358.324 121 357.324 108.75 347.824 100.5C338.824 92.5 327.074 92.25 316.824 104L249.574 179.25C263.574 184.75 276.574 191.5 288.574 199ZM9.32401 426C-1.67599 434-1.92599 446.5 3.32401 455C8.57401 463.75 20.074 468 31.574 460.75C39.074 455.75 46.074 451.25 54.074 447L48.574 402.25C34.324 408.75 21.324 416.5 9.32401 426ZM357.324 426C345.074 416.5 332.074 408.75 317.824 402.25L312.324 447C320.324 451.25 327.324 455.75 334.824 460.75C346.324 468 357.574 464 362.824 455.5C368.324 447 368.324 434.25 357.324 426Z" fill="black" fill-opacity="0.85"/>
 </g>
</svg>
