<?xml version="1.0" encoding="UTF-8"?>
<!--Generator: Apple Native CoreSVG 326-->
<!DOCTYPE svg
PUBLIC "-//W3C//DTD SVG 1.1//EN"
       "http://www.w3.org/Graphics/SVG/1.1/DTD/svg11.dtd">
<svg version="1.1" xmlns="http://www.w3.org/2000/svg" xmlns:xlink="http://www.w3.org/1999/xlink" viewBox="0 0 651.25 651.75">
 <g>
  <rect height="651.75" opacity="0" width="651.25" x="0" y="0"/>
  <path d="M651.25 325.75C651.25 505 505 651.25 325.5 651.25C146.25 651.25 0 505 0 325.75C0 146.25 146.25 0 325.5 0C505 0 651.25 146.25 651.25 325.75ZM173 531.75C173 537 177.25 541 182.25 541C187.75 541 191.75 537 191.75 531.75C191.75 526.25 187.75 522.25 182.25 522.25C177.25 522.25 173 526.25 173 531.75ZM204.75 531.75C204.75 537 208.75 541 214.25 541C219.5 541 223.5 537 223.5 531.75C223.5 526.25 219.5 522.25 214.25 522.25C208.75 522.25 204.75 526.25 204.75 531.75ZM236.25 531.75C236.25 537 240.5 541 245.75 541C251.25 541 255.25 537 255.25 531.75C255.25 526.25 251.25 522.25 245.75 522.25C240.5 522.25 236.25 526.25 236.25 531.75ZM268.25 531.75C268.25 537 272.25 541 277.5 541C282.75 541 287 537 287 531.75C287 526.25 282.75 522.25 277.5 522.25C272.25 522.25 268.25 526.25 268.25 531.75ZM300 531.75C300 537 304 541 309.5 541C314.5 541 318.75 537 318.75 531.75C318.75 526.25 314.5 522.25 309.5 522.25C304 522.25 300 526.25 300 531.75ZM331.5 531.75C331.5 537 335.75 541 341 541C346.25 541 350.5 537 350.5 531.75C350.5 526.25 346.25 522.25 341 522.25C335.75 522.25 331.5 526.25 331.5 531.75ZM363.25 531.75C363.25 537 367.75 541 372.75 541C378.25 541 382.25 537 382.25 531.75C382.25 526.25 378.25 522.25 372.75 522.25C367.75 522.25 363.25 526.25 363.25 531.75ZM395.25 531.75C395.25 537 399 541 404.5 541C410 541 414 537 414 531.75C414 526.25 410 522.25 404.5 522.25C399 522.25 395.25 526.25 395.25 531.75ZM426.75 531.75C426.75 537 430.75 541 436.25 541C441.5 541 445.75 537 445.75 531.75C445.75 526.25 441.5 522.25 436.25 522.25C430.75 522.25 426.75 526.25 426.75 531.75ZM458.5 531.75C458.5 537 462.75 541 468 541C473.25 541 477.5 537 477.5 531.75C477.5 526.25 473.25 522.25 468 522.25C462.75 522.25 458.5 526.25 458.5 531.75ZM419.5 459.5C419.5 480.5 435.75 497.25 456.25 497.25C477.25 497.25 493.75 480.5 493.75 459.5C493.75 438.75 477.25 422.25 456.25 422.25C435.75 422.25 419.5 438.75 419.5 459.5ZM250 420L166.75 455.75C157.75 459.75 152.75 470.5 157.75 480.25C163.25 491.75 175.5 492.25 181.25 489.5L272 450C275.5 448.5 279 445.5 280.75 441.75L314.5 373.75L306.75 374C292.25 375 280.5 370.75 271 363.75ZM461.75 189.5L436.25 239.25L415.75 218.75C402 204.75 387.25 197.25 364.75 197.25L251 197.25C244 197.25 237.75 201.75 235 207.25L198.25 280.25C193.75 289.5 197 299.75 206.5 304.25C217.25 309 226.5 304.25 230.75 296.25L262 233.75L299.5 233.75C303.5 233.75 305.75 237.5 304 241L271 306.25C258.75 330.5 274 361 305.75 359L394.25 353.5L361.5 426.25C357.5 435.25 361.25 446.75 370.75 449.75C380.75 454 390 450.75 394.25 441L439.75 341C444.75 330 437.75 315.25 423.75 315.25L343.75 315.25L379 244.25C380.75 241 384.25 240 387 242.5L428.75 282.75C437.5 291 452.25 289.75 457.75 278.25L493.75 205.5C498.5 196.25 495.5 185.25 486.25 181C477.25 176.5 466.5 180.5 461.75 189.5ZM340.75 142C340.75 162.75 357.5 179.5 378.25 179.5C399 179.5 415.5 162.75 415.5 142C415.5 121.25 399 104.75 378.25 104.75C357.5 104.75 340.75 121.25 340.75 142ZM244.25 124.5C230 111 217.75 106.5 198.75 106.5C193.75 106.5 190.25 110.5 190.25 114.75C190.25 119.5 193.75 123 198.5 123C214 123 224 126.25 234 137.25C237.5 141.25 240.75 142.75 244.25 142.75C247.75 142.75 251 141.25 254.75 137.25C265 126.25 275 123 290.25 123C295 123 298.75 119.5 298.75 114.75C298.75 110.5 294.75 106.5 290.25 106.5C271 106.5 258.75 111 244.25 124.5Z" fill="black" fill-opacity="0.85"/>
 </g>
</svg>
