<?xml version="1.0" encoding="UTF-8"?>
<!--Generator: Apple Native CoreSVG 326-->
<!DOCTYPE svg
PUBLIC "-//W3C//DTD SVG 1.1//EN"
       "http://www.w3.org/Graphics/SVG/1.1/DTD/svg11.dtd">
<svg version="1.1" xmlns="http://www.w3.org/2000/svg" xmlns:xlink="http://www.w3.org/1999/xlink" viewBox="0 0 622.348 763.25">
 <g>
  <rect height="763.25" opacity="0" width="622.348" x="0" y="0"/>
  <path d="M294.799 137.75C332.799 137.75 363.549 107 363.549 68.75C363.549 30.75 332.799 0 294.799 0C256.549 0 225.799 30.75 225.799 68.75C225.799 107 256.549 137.75 294.799 137.75ZM11.5492 753.5C24.7992 765 45.5492 764 57.7992 750.25L170.799 621.25C176.799 614.25 180.049 606.5 181.049 597.75L195.299 458C195.799 453.75 200.549 451.75 203.299 455.25L294.799 561L294.799 728.75C294.799 746.75 309.549 761.75 327.799 761.75C345.549 761.75 360.799 746.75 360.799 728.75L360.799 550.25C360.799 541.25 357.799 535.25 353.799 529.5L257.299 388.5L304.549 248.5C307.049 240.75 312.049 238 319.549 238L573.299 238C591.049 238 606.049 223.5 606.049 205.25C606.049 187.25 591.049 172.25 573.299 172.25L191.049 172.25C164.799 172.25 143.049 179.75 121.549 201.25L59.0492 264.25C38.0492 285.5 49.5492 320 78.2992 320L137.299 320L124.799 358C118.049 378.25 114.799 399.25 114.799 419.75L114.799 585.75L8.29922 707.25C-3.95078 721-2.45078 741.5 11.5492 753.5ZM573.299 271.25C600.049 271.25 622.299 249.25 622.299 221.5C622.299 194.5 600.049 172.25 573.299 172.25C545.549 172.25 523.299 194.5 523.299 221.5C523.299 249.25 545.549 271.25 573.299 271.25Z" fill="black" fill-opacity="0.85"/>
 </g>
</svg>
