<?xml version="1.0" encoding="UTF-8"?>
<!--Generator: Apple Native CoreSVG 326-->
<!DOCTYPE svg
PUBLIC "-//W3C//DTD SVG 1.1//EN"
       "http://www.w3.org/Graphics/SVG/1.1/DTD/svg11.dtd">
<svg version="1.1" xmlns="http://www.w3.org/2000/svg" xmlns:xlink="http://www.w3.org/1999/xlink" viewBox="0 0 530.72 699.25">
 <g>
  <rect height="699.25" opacity="0" width="530.72" x="0" y="0"/>
  <path d="M331.235 137.75C369.485 137.75 399.985 107 399.985 69C399.985 30.75 369.485 0 331.235 0C292.985 0 262.235 30.75 262.235 69C262.235 107 292.985 137.75 331.235 137.75ZM223.235 414L344.985 482.5L266.235 550.25C249.735 564.25 249.735 582.75 259.985 594.25C270.735 606.25 289.235 608.25 306.235 593.75L415.735 500.5C430.485 487.75 427.985 460.75 410.235 449.25L290.985 371L314.735 288.5C317.985 276.25 331.735 274.75 338.985 285.25L373.985 336.25C382.235 348 396.985 352.5 410.485 346.5L510.985 301.5C528.735 293.75 535.235 278.5 527.485 262.5C519.985 246.75 504.735 242 487.235 249.75L407.235 285.25L351.985 209C323.485 169.5 287.985 153.75 229.985 158L118.235 166C100.985 167.25 88.7349 178.75 86.4849 196.75L71.4849 310C68.7349 329.5 78.2349 343 95.7349 344.75C112.985 346.5 124.235 336.25 126.985 317L140.735 224L185.735 221C196.235 220 205.735 227.5 202.235 239.5L176.485 330.75C160.985 384 195.735 398.5 223.235 414ZM10.7349 688.25C22.7349 698.5 40.4849 699.25 56.2349 684L158.985 582.25C167.735 573.5 169.485 571.5 174.735 558.25L218.485 445.5L208.485 440C184.235 426.5 167.235 413.5 156.235 399L118.235 534.5L11.2349 640.75C-5.01509 656.75-2.26509 676.75 10.7349 688.25Z" fill="black" fill-opacity="0.85"/>
 </g>
</svg>
