<?xml version="1.0" encoding="UTF-8"?>
<!--Generator: Apple Native CoreSVG 326-->
<!DOCTYPE svg
PUBLIC "-//W3C//DTD SVG 1.1//EN"
       "http://www.w3.org/Graphics/SVG/1.1/DTD/svg11.dtd">
<svg version="1.1" xmlns="http://www.w3.org/2000/svg" xmlns:xlink="http://www.w3.org/1999/xlink" viewBox="0 0 651.25 651.75">
 <g>
  <rect height="651.75" opacity="0" width="651.25" x="0" y="0"/>
  <path d="M651.25 325.75C651.25 505 505 651.25 325.5 651.25C146.25 651.25 0 505 0 325.75C0 146.25 146.25 0 325.5 0C505 0 651.25 146.25 651.25 325.75ZM289.25 256.5C276.75 256.5 265.5 262.25 257.75 271.75L211.75 327.75L166.75 282.75C158.75 274.5 145.75 274.5 137.75 282.75C129.5 290.75 129.75 303.25 137.75 311.5L199 372.75C207.5 381 221 381 229.25 371L267.75 323.75C270.25 321 274.25 322.25 274.25 326L274.25 407L205.5 399C181.75 396.5 174 431.25 196.75 438.5L275 464.5C271.25 480.75 285.25 494.75 301.25 489.75L325.5 481.5L349.5 489.75C365.5 494.75 379.5 480.75 375.75 464.5L454 438.5C476.75 431.25 469.25 396.5 445.25 399L376.5 407L376.5 326C376.5 322.25 380.5 321 382.75 323.75L421.5 371C429.75 381 443.5 381 451.75 372.75L512.75 311.5C521 303.25 521.25 290.75 512.75 282.75C505 274.5 492 274.5 484 282.75L439 327.75L392.75 271.75C385.5 262.25 374 256.5 361.5 256.5ZM285.25 196.25C285.25 218.5 303.25 236.5 325.5 236.5C347.25 236.5 365.25 218.5 365.25 196.25C365.25 174.5 347.25 156.5 325.5 156.5C303.25 156.5 285.25 174.5 285.25 196.25Z" fill="black" fill-opacity="0.85"/>
 </g>
</svg>
