<?xml version="1.0" encoding="UTF-8"?>
<!--Generator: Apple Native CoreSVG 326-->
<!DOCTYPE svg
PUBLIC "-//W3C//DTD SVG 1.1//EN"
       "http://www.w3.org/Graphics/SVG/1.1/DTD/svg11.dtd">
<svg version="1.1" xmlns="http://www.w3.org/2000/svg" xmlns:xlink="http://www.w3.org/1999/xlink" viewBox="0 0 609.255 647.75">
 <g>
  <rect height="647.75" opacity="0" width="609.255" x="0" y="0"/>
  <path d="M85.8777 174.25C38.3777 174.25 0.127682 134.75 0.127682 88.75C0.127682 40.75 38.3777 1.75 85.8777 1.75C133.628 1.75 171.878 40.75 171.878 88.75C171.878 136.5 133.628 174.25 85.8777 174.25ZM597.628 628.25C581.128 645.5 552.878 644 532.628 623.25L396.128 482C391.378 477.25 388.128 476 381.128 478.75L272.878 520C204.378 546 140.628 522 109.878 465.75L42.6277 343.75C15.8777 294.75 24.3777 244.75 70.8777 220.25C115.628 195.5 162.128 214 189.128 263.75L278.378 426.25L354.128 398.75C391.628 385 422.878 389.25 452.628 420.25L594.628 567.25C614.628 587.5 612.628 613 597.628 628.25Z" fill="black" fill-opacity="0.85"/>
  <path d="M499.878-5.68434e-14C487.128-5.68434e-14 476.878 10.25 476.878 23.5L476.878 173.75L416.628 173.75C392.628 173.75 384.128 198.25 398.878 215L482.128 310.5C493.128 323 508.128 322.5 518.628 310.5L601.628 215C617.128 197.5 607.128 173.75 583.878 173.75L523.378 173.75L523.378 23.5C523.378 10.25 513.128-5.68434e-14 499.878-5.68434e-14Z" fill="black" fill-opacity="0.85"/>
 </g>
</svg>
