<?xml version="1.0" encoding="UTF-8"?>
<!--Generator: Apple Native CoreSVG 326-->
<!DOCTYPE svg
PUBLIC "-//W3C//DTD SVG 1.1//EN"
       "http://www.w3.org/Graphics/SVG/1.1/DTD/svg11.dtd">
<svg version="1.1" xmlns="http://www.w3.org/2000/svg" xmlns:xlink="http://www.w3.org/1999/xlink" viewBox="0 0 838.207 747.75">
 <g>
  <rect height="747.75" opacity="0" width="838.207" x="0" y="0"/>
  <path d="M720.103 243.25L800.353 361C804.103 366.25 807.603 371.25 810.353 376.25C817.103 388.25 813.353 405.25 797.353 413.75C784.853 420.75 769.853 418.5 760.603 407.5C752.103 397.25 706.853 333.5 684.103 301.75C681.103 297.5 675.603 299.5 675.603 304.25C675.603 334 677.353 408.5 682.603 444.5C688.603 484.25 735.103 676.75 737.353 685.25C742.853 705 730.603 723.25 710.603 723.25C695.853 723.25 685.853 715 680.603 695.5C669.853 656.5 637.103 523.5 626.853 491.25C619.853 468.75 614.353 459.5 601.103 459.5C587.853 459.5 582.353 468.75 575.353 491.25C565.103 523.5 532.353 656.5 521.603 695.5C516.353 715 506.353 723.25 491.603 723.25C471.603 723.25 459.353 705 464.853 685.25C467.353 676.75 513.603 484.25 519.603 444.5C525.103 408.5 526.603 334.25 526.603 304.5C526.603 299.5 520.853 297.75 518.103 301.75C505.576 319.371 486.226 346.544 470.005 369.092C469.305 367.449 468.501 365.833 467.603 364.25C464.603 358.25 460.353 352.5 456.603 347L434.034 313.781L482.103 243.25C510.103 202.5 544.603 188.25 601.103 188.25C657.603 188.25 692.103 202.5 720.103 243.25ZM668.853 86C668.853 123.75 638.853 153.75 601.103 153.75C563.353 153.75 533.603 123.75 533.603 86C533.603 48.25 563.353 18.25 601.103 18.25C638.853 18.25 668.853 48.25 668.853 86Z" fill="black" fill-opacity="0.85"/>
  <path d="M237.103 153.75C274.853 153.75 304.853 123.75 304.853 86C304.853 48.25 274.853 18.25 237.103 18.25C199.353 18.25 169.353 48.25 169.353 86C169.353 123.75 199.353 153.75 237.103 153.75ZM237.103 459.5C250.103 459.5 255.853 468.75 262.853 491.25C273.103 523.5 305.603 656.5 316.603 695.5C321.853 715 331.603 723.25 346.603 723.25C366.603 723.25 378.853 705 373.103 685.25C370.853 676.75 324.603 484.25 318.353 444.5C313.103 408.5 311.353 334 311.353 304.25C311.353 299.5 317.103 297.5 320.103 301.75C342.853 333.5 388.103 397.25 396.353 407.5C405.853 418.5 420.853 420.75 433.353 413.75C449.353 405.25 452.853 388.25 446.353 376.25C443.353 371.25 440.103 366.25 436.353 361L356.103 243.25C328.103 202.5 293.353 188.25 237.103 188.25C180.603 188.25 146.103 202.5 118.103 243.25L37.8534 361C34.1034 366.25 30.6034 371.25 27.8534 376.25C21.1034 388.25 24.8534 405.25 40.8534 413.75C53.3534 420.75 68.3534 418.5 77.6034 407.5C86.1034 397.25 131.353 333.75 153.853 301.75C156.853 297.75 162.603 299.5 162.603 304.5C162.603 334.25 160.853 408.5 155.603 444.5C149.603 484.25 103.103 676.75 100.853 685.25C95.3534 705 107.603 723.25 127.603 723.25C142.353 723.25 152.353 715 157.603 695.5C168.353 656.5 201.103 523.5 211.353 491.25C218.353 468.75 223.853 459.5 237.103 459.5Z" fill="black" fill-opacity="0.85"/>
 </g>
</svg>
