<?xml version="1.0" encoding="UTF-8"?>
<!--Generator: Apple Native CoreSVG 326-->
<!DOCTYPE svg
PUBLIC "-//W3C//DTD SVG 1.1//EN"
       "http://www.w3.org/Graphics/SVG/1.1/DTD/svg11.dtd">
<svg version="1.1" xmlns="http://www.w3.org/2000/svg" xmlns:xlink="http://www.w3.org/1999/xlink" viewBox="0 0 651.25 651.75">
 <g>
  <rect height="651.75" opacity="0" width="651.25" x="0" y="0"/>
  <path d="M651.25 325.75C651.25 505 505 651.25 325.5 651.25C146.25 651.25 0 505 0 325.75C0 146.25 146.25 0 325.5 0C505 0 651.25 146.25 651.25 325.75ZM172.5 419.5L176 426C182.75 438.75 192.5 445.5 208 443L209.5 442.5L215 467.25L176 492.5C167.5 498 170.25 511.75 182 511.75L261 511.75C267 511.75 271.25 506.75 271.25 501.25C271.25 495.5 267 490.75 261 490.75C249 490.75 240.5 486 237.25 471.5L230 438.25L245.25 435C250 434 253 429.75 253 424.75C253 420.25 249.25 415.75 245 415L183.25 404.75C172.75 403 169 412.5 172.5 419.5ZM415.5 234.5C415.5 254.25 427.25 271.75 444.75 279.5L403.5 444.75C396.75 472 372.75 490.75 344 490.75C338.25 490.75 333.75 495.75 333.75 501.25C333.75 506.5 338 511.75 344 511.75L447 511.75C457.5 511.75 460.25 498 452 492.5L415.75 468.75C419.5 463 421.75 456.75 423.5 449.5L465.25 284C492.5 283.25 514.5 261 514.5 234.5C514.5 207.25 491.75 185 465 185C437.75 185 415.5 207.25 415.5 234.5ZM190.5 257.25L184 344C182 369.75 194.5 389 223.75 393.5L307 405.25L284.5 487C281.75 497.75 287.75 507.25 298 509.75C306.75 512.25 317.75 507.75 320.5 496.75L347.75 396.75C351.25 384 346.25 375 333.25 371.5L253 348.75L259.5 278.25C259.75 276 262.25 274.75 264 276.25L301 302.75C307.75 307.5 316 307.5 322.5 302.75L387.5 256.5C395.75 250.5 397.75 239 392 230.75C385.75 222.25 374 220.25 366 226L312 265L267.5 233.25C258 226.25 246.75 221.5 233 221.5C209.25 221.5 192 236.25 190.5 257.25ZM494 234.5C494 251.5 481.75 263.5 465 263.5C447.75 263.5 436 251.5 436 234.5C436 217.75 447.75 205.5 465 205.5C481.75 205.5 494 217.75 494 234.5ZM195 161.5C195 183.75 213.25 201.5 235 201.5C257 201.5 275 183.75 275 161.5C275 139.75 257 121.75 235 121.75C213.25 121.75 195 139.75 195 161.5Z" fill="black" fill-opacity="0.85"/>
 </g>
</svg>
