<?xml version="1.0" encoding="UTF-8"?>
<!--Generator: Apple Native CoreSVG 326-->
<!DOCTYPE svg
PUBLIC "-//W3C//DTD SVG 1.1//EN"
       "http://www.w3.org/Graphics/SVG/1.1/DTD/svg11.dtd">
<svg version="1.1" xmlns="http://www.w3.org/2000/svg" xmlns:xlink="http://www.w3.org/1999/xlink" viewBox="0 0 651.25 651.75">
 <g>
  <rect height="651.75" opacity="0" width="651.25" x="0" y="0"/>
  <path d="M651.25 325.75C651.25 505 505 651.25 325.5 651.25C146.25 651.25 0 505 0 325.75C0 146.25 146.25 0 325.5 0C505 0 651.25 146.25 651.25 325.75ZM301.5 428.5L275.5 521.75C271.75 536.25 283.25 545.25 294.25 545.25C301.75 545.25 309.75 540.75 312.25 531.5L338.75 434.5C339.25 432.5 339.5 431 339.5 429.5L339.5 393.25L295.5 379.75ZM430 116.5L380 174.5L150 268.5C141.75 272 138 275 135.25 278.5L224.75 278.5L258.5 265.25C264.25 263 266.25 265 266.25 268.5L266.25 326.75C266.25 345.75 274.75 357.5 292.5 362.75L392.75 393.75L489 437.25C513.5 448 528 413.5 504.5 403L339.5 328.25L339.5 239.75C339.5 232.5 341.25 231.5 346.5 229.5L396.5 209.25C402.5 206.75 403 205.25 406.25 201.5L458.5 140.75C465.25 133 464.25 121 456.25 114.5C448.5 107.75 436.75 109 430 116.5ZM107 294C101.5 294 96.75 298.75 96.75 304.25C96.75 310 101.5 314.5 107 314.5L251 314.5L251 294ZM354.75 294L354.75 314.5L523 314.5C528.5 314.5 533.25 310 533.25 304.25C533.25 298.75 528.5 294 523 294ZM239.25 151.5C239.25 173.75 257 191.5 279 191.5C300.75 191.5 318.75 173.75 318.75 151.5C318.75 129.75 300.75 112.25 279 112.25C257 112.25 239.25 129.75 239.25 151.5Z" fill="black" fill-opacity="0.85"/>
 </g>
</svg>
