<?xml version="1.0" encoding="UTF-8"?>
<!--Generator: Apple Native CoreSVG 326-->
<!DOCTYPE svg
PUBLIC "-//W3C//DTD SVG 1.1//EN"
       "http://www.w3.org/Graphics/SVG/1.1/DTD/svg11.dtd">
<svg version="1.1" xmlns="http://www.w3.org/2000/svg" xmlns:xlink="http://www.w3.org/1999/xlink" viewBox="0 0 294.25 712.25">
 <g>
  <rect height="712.25" opacity="0" width="294.25" x="0" y="0"/>
  <path d="M0 427.75C0 443.25 12.5 455.5 27.75 455.5C43.25 455.5 55.75 443.25 55.75 427.75L55.75 305.25C55.75 299.75 60 295.25 65.75 295.25C71.25 295.25 75.75 299.75 75.75 305.25L75.75 676.25C75.75 693.25 89.25 707 106.25 707C123.25 707 137 693.25 137 676.25L137 450.25C137 444.75 141.5 440 147.25 440C152.75 440 157.5 444.75 157.5 450.25L157.5 676.25C157.5 693.25 171 707 188 707C205 707 218.75 693.25 218.75 676.25L218.75 305.25C218.75 299.75 223 295.25 228.75 295.25C234.25 295.25 238.75 299.75 238.75 305.25L238.75 427.75C238.75 443.25 251 455.5 266.5 455.5C282 455.5 294.25 443.25 294.25 427.75L294.25 291C294.25 221 243.25 174.75 169.5 174.75L124.75 174.75C51.25 174.75 0 221 0 291ZM147.25 137.75C185.25 137.75 216 107 216 68.75C216 30.5 185.25 0 147.25 0C109 0 78.25 30.5 78.25 68.75C78.25 107 109 137.75 147.25 137.75Z" fill="black" fill-opacity="0.85"/>
 </g>
</svg>
