<?xml version="1.0" encoding="UTF-8"?>
<!--Generator: Apple Native CoreSVG 326-->
<!DOCTYPE svg
PUBLIC "-//W3C//DTD SVG 1.1//EN"
       "http://www.w3.org/Graphics/SVG/1.1/DTD/svg11.dtd">
<svg version="1.1" xmlns="http://www.w3.org/2000/svg" xmlns:xlink="http://www.w3.org/1999/xlink" viewBox="0 0 838.191 747.75">
 <g>
  <rect height="747.75" opacity="0" width="838.191" x="0" y="0"/>
  <path d="M356.096 243.25L404.165 313.781L381.596 347C377.596 352.5 373.596 358.25 370.596 364.25C369.708 365.816 368.911 367.413 368.215 369.038C351.989 346.443 332.628 319.241 320.096 301.75C317.096 297.5 311.346 299.5 311.346 304.25C311.346 334 313.096 408.5 318.346 444.5C324.596 484.25 370.846 676.75 373.096 685.25C378.846 705 366.596 723.25 346.596 723.25C331.596 723.25 321.846 715 316.596 695.5C305.596 656.5 273.096 523.5 262.846 491.25C255.846 468.75 250.096 459.5 237.096 459.5C223.846 459.5 218.346 468.75 211.346 491.25C201.096 523.5 168.346 656.5 157.596 695.5C152.346 715 142.346 723.25 127.596 723.25C107.596 723.25 95.3456 705 100.846 685.25C103.096 676.75 149.596 484.25 155.596 444.5C160.846 408.5 162.596 334.25 162.596 304.5C162.596 299.5 156.846 297.75 153.846 301.75C131.346 333.75 86.0956 397.25 77.5956 407.5C68.3456 418.5 53.3456 420.75 40.8456 413.75C24.8456 405.25 21.0956 388.25 27.8456 376.25C30.5956 371.25 34.0956 366.25 37.8456 361L118.096 243.25C146.096 202.5 180.596 188.25 237.096 188.25C293.346 188.25 328.096 202.5 356.096 243.25ZM304.846 86C304.846 123.75 274.846 153.75 237.096 153.75C199.346 153.75 169.346 123.75 169.346 86C169.346 48.25 199.346 18.25 237.096 18.25C274.846 18.25 304.846 48.25 304.846 86Z" fill="black" fill-opacity="0.85"/>
  <path d="M601.096 153.75C638.846 153.75 668.846 123.75 668.846 86C668.846 48.25 638.846 18.25 601.096 18.25C563.346 18.25 533.596 48.25 533.596 86C533.596 123.75 563.346 153.75 601.096 153.75ZM601.096 459.5C614.346 459.5 619.846 468.75 626.846 491.25C637.096 523.5 669.846 656.5 680.596 695.5C685.846 715 695.846 723.25 710.596 723.25C730.596 723.25 742.846 705 737.346 685.25C735.096 676.75 688.596 484.25 682.596 444.5C677.346 408.5 675.596 334 675.596 304.25C675.596 299.5 681.096 297.5 684.096 301.75C706.846 333.5 752.096 397.25 760.596 407.5C769.846 418.5 784.846 420.75 797.346 413.75C813.346 405.25 817.096 388.25 810.346 376.25C807.596 371.25 804.096 366.25 800.346 361L720.096 243.25C692.096 202.5 657.596 188.25 601.096 188.25C544.596 188.25 510.096 202.5 482.096 243.25L401.846 361C398.096 366.25 394.596 371.25 391.846 376.25C385.346 388.25 388.846 405.25 404.846 413.75C417.346 420.75 432.346 418.5 441.846 407.5C450.096 397.25 495.346 333.75 518.096 301.75C520.846 297.75 526.596 299.5 526.596 304.5C526.596 334.25 525.096 408.5 519.596 444.5C513.596 484.25 467.346 676.75 464.846 685.25C459.346 705 471.596 723.25 491.596 723.25C506.346 723.25 516.346 715 521.596 695.5C532.346 656.5 565.096 523.5 575.346 491.25C582.346 468.75 587.846 459.5 601.096 459.5Z" fill="black" fill-opacity="0.85"/>
 </g>
</svg>
