<?xml version="1.0" encoding="UTF-8"?>
<!--Generator: Apple Native CoreSVG 326-->
<!DOCTYPE svg
PUBLIC "-//W3C//DTD SVG 1.1//EN"
       "http://www.w3.org/Graphics/SVG/1.1/DTD/svg11.dtd">
<svg version="1.1" xmlns="http://www.w3.org/2000/svg" xmlns:xlink="http://www.w3.org/1999/xlink" viewBox="0 0 424.663 711.25">
 <g>
  <rect height="711.25" opacity="0" width="424.663" x="0" y="0"/>
  <path d="M212.206 135.5C249.956 135.5 280.206 105.5 280.206 67.75C280.206 30 249.956 0 212.206 0C174.706 0 144.706 30 144.706 67.75C144.706 105.5 174.706 135.5 212.206 135.5ZM212.206 441.25C225.456 441.25 230.956 450.5 238.206 473C248.456 505.25 280.956 638.25 291.706 677.25C296.956 696.75 306.956 705 321.956 705C341.706 705 353.956 686.75 348.456 667C346.206 658.5 299.706 466 293.706 426.25C288.456 390.25 286.706 315.75 286.706 286C286.706 281.25 292.206 279.25 295.456 283.5C318.206 315.25 363.206 379 371.706 389.25C381.206 400.25 396.206 402.5 408.706 395.5C424.456 387 428.206 370 421.456 358C418.706 353 415.206 348 411.706 342.75L331.456 225C303.456 184.25 268.706 170 212.206 170C155.956 170 121.206 184.25 93.2063 225L12.9563 342.75C9.45629 348 5.95629 353 3.20629 358C-3.54371 370 0.206292 387 15.9563 395.5C28.4563 402.5 43.4563 400.25 52.9563 389.25C61.4563 379 106.456 315.5 129.206 283.5C132.206 279.5 137.956 281.25 137.956 286.25C137.956 316 136.206 390.25 130.956 426.25C124.956 466 78.4563 658.5 76.2063 667C70.7063 686.75 82.9563 705 102.706 705C117.706 705 127.456 696.75 132.956 677.25C143.706 638.25 176.206 505.25 186.456 473C193.456 450.5 199.206 441.25 212.206 441.25Z" fill="black" fill-opacity="0.85"/>
 </g>
</svg>
