<?xml version="1.0" encoding="UTF-8"?>
<!--Generator: Apple Native CoreSVG 326-->
<!DOCTYPE svg
PUBLIC "-//W3C//DTD SVG 1.1//EN"
       "http://www.w3.org/Graphics/SVG/1.1/DTD/svg11.dtd">
<svg version="1.1" xmlns="http://www.w3.org/2000/svg" xmlns:xlink="http://www.w3.org/1999/xlink" viewBox="0 0 651.25 651.75">
 <g>
  <rect height="651.75" opacity="0" width="651.25" x="0" y="0"/>
  <path d="M651.25 325.75C651.25 505 505 651.25 325.5 651.25C146.25 651.25 0 505 0 325.75C0 146.25 146.25 0 325.5 0C505 0 651.25 146.25 651.25 325.75ZM423 281L416.5 438.75L374.75 438.75C369.5 438.75 364.5 442.75 364.5 449L364.5 482.25L307.25 482.25C301.75 482.25 297 487 297 492.5L297 526L239.75 526C234.25 526 229 530.5 229 536.25C229 542.25 234.25 546.5 239.75 546.5L307.25 546.5C312.75 546.5 317.25 541.75 317.25 536.25L317.25 503L374.75 503C380.5 503 385.25 498.25 385.25 492.5L385.25 459.5L426.75 459.5C432 459.5 436.75 454.5 437 449.25L443.5 280.5C440.25 281.75 438.25 282.25 423 281ZM237.75 414.5L191 484.75C183 497 187.5 507.75 195.75 512.5C203.5 516.5 214 515 221 504.75L270.5 431C272.5 427.75 273.5 424.75 274.25 420L282.5 370.5L254.25 364C247.75 362.5 243.5 360.5 241.5 359.25ZM234.5 222.75L224.5 300.25C221.5 323 235.25 344 257.75 349.25L327 365L307.25 430.5C303.25 443.5 311.25 452.75 320.25 454.5C329 456.25 338.75 452.25 342 441L366.5 358.75C369.75 347 365.25 337.5 354.75 333.75L290.5 310.75L300.25 244.75C300.75 241 303.75 239.75 307.25 241.5L339.25 256C343.25 258 346.75 258.5 352.25 259L433 267.25C443.25 268.25 452.25 261 452.75 251C453.75 241.25 446.5 232.25 436.5 231L354 223.25L292.25 194.75C265.5 182.5 237.75 196.25 234.5 222.75ZM473 207.25C464.5 211.25 456.25 215.75 449.75 219.5C456.75 223 461.75 228.25 465 235.5C470 232.5 475.75 228.75 481.75 225.75C487.25 223 489.25 217 487 212.5C484.5 206.75 478.25 204.75 473 207.25ZM254 136.5C254 158.5 271.75 176.5 293.75 176.5C315.75 176.5 333.75 158.5 333.75 136.5C333.75 114.75 315.75 96.75 293.75 96.75C271.75 96.75 254 114.75 254 136.5Z" fill="black" fill-opacity="0.85"/>
 </g>
</svg>
