<?xml version="1.0" encoding="UTF-8"?>
<!--Generator: Apple Native CoreSVG 326-->
<!DOCTYPE svg
PUBLIC "-//W3C//DTD SVG 1.1//EN"
       "http://www.w3.org/Graphics/SVG/1.1/DTD/svg11.dtd">
<svg version="1.1" xmlns="http://www.w3.org/2000/svg" xmlns:xlink="http://www.w3.org/1999/xlink" viewBox="0 0 756.063 901.894">
 <g>
  <rect height="901.894" opacity="0" width="756.063" x="0" y="0"/>
  <path d="M599.282 301.322C646.782 301.322 684.782 261.822 684.782 215.822C684.782 167.822 646.782 128.822 599.282 128.822C551.282 128.822 513.032 167.822 513.032 215.822C513.032 263.572 551.282 301.322 599.282 301.322ZM87.2816 755.322C103.782 772.572 132.032 771.072 152.282 750.322L289.032 609.072C293.532 604.322 296.782 603.072 303.782 605.822L412.282 647.072C480.532 673.072 544.282 649.072 575.282 592.822L642.532 470.822C669.282 421.822 660.532 371.822 614.282 347.322C569.532 322.572 522.782 341.072 495.782 390.822L406.782 553.322L331.032 525.822C293.282 512.072 262.032 516.322 232.282 547.322L90.2816 694.322C70.5316 714.572 72.2816 740.072 87.2816 755.322Z" fill="black" fill-opacity="0.85"/>
  <path d="M5.78162 198.322C13.7816 206.322 26.7816 206.322 34.7816 198.322L124.532 108.572L161.032 144.822C175.032 158.822 195.532 150.572 196.782 130.322L204.532 22.3221C205.282 8.57212 196.532-0.927882 182.532 0.0721182L74.0316 7.57212C54.7816 8.82212 45.2816 28.5721 59.7816 43.3221L96.0316 79.8221L6.03162 169.572C-1.96838 177.572-1.96838 190.572 5.78162 198.322ZM115.032 254.322C115.032 266.072 124.032 275.072 135.782 275.072L262.782 275.072L262.782 326.322C262.782 346.072 283.282 355.072 298.282 341.572L380.032 270.322C390.532 260.822 390.532 248.322 380.032 239.072L298.282 167.822C283.782 154.822 262.782 162.322 262.782 183.072L262.782 234.322L135.782 234.322C124.032 234.322 115.032 243.322 115.032 254.322ZM5.78162 310.322C-1.96838 318.322-1.96838 331.072 6.03162 339.072L96.0316 428.822L59.7816 465.322C45.2816 480.072 54.7816 499.822 74.0316 501.072L182.532 508.572C196.532 509.572 205.282 500.072 204.532 486.572L196.782 378.322C195.532 358.072 175.032 349.822 161.032 363.822L124.532 400.072L34.7816 310.322C26.7816 302.322 13.7816 302.322 5.78162 310.322Z" fill="black" fill-opacity="0.85"/>
 </g>
</svg>
