<?xml version="1.0" encoding="UTF-8"?>
<!--Generator: Apple Native CoreSVG 326-->
<!DOCTYPE svg
PUBLIC "-//W3C//DTD SVG 1.1//EN"
       "http://www.w3.org/Graphics/SVG/1.1/DTD/svg11.dtd">
<svg version="1.1" xmlns="http://www.w3.org/2000/svg" xmlns:xlink="http://www.w3.org/1999/xlink" viewBox="0 0 519.12 702.25">
 <g>
  <rect height="702.25" opacity="0" width="519.12" x="0" y="0"/>
  <path d="M367.56 139.75C405.81 139.75 436.56 109 436.56 70.75C436.56 32.5 405.81 2 367.56 2C329.31 2 298.81 32.5 298.81 70.75C298.81 109 329.31 139.75 367.56 139.75ZM249.56 702.25C388.81 702.25 481.81 609.25 481.81 470C481.81 396.5 446.81 354.25 381.81 354.25L339.06 354.25C331.31 354.25 326.81 349 329.56 340L359.06 250.75C372.56 209.75 353.06 173 308.06 161.5L175.81 128.5C163.31 125.25 153.81 127.25 142.31 133.75L13.8099 206.25C-0.940073 214.75-4.44007 236.5 6.05993 250.5C16.0599 264.75 34.0599 267.5 50.3099 259L168.06 196.75L237.31 215C250.81 218.75 256.31 228.25 251.56 241.25L215.56 342.5C198.81 389.75 226.56 430.25 272.56 430.25L393.81 430.25C418.81 430.25 436.31 445.25 436.31 470C436.31 582 361.81 656.75 249.81 656.75C137.56 656.75 62.8099 582 62.8099 469.75C62.8099 433.75 73.0599 401.5 90.0599 374C109.06 344.25 69.8099 321.25 50.5599 351.75C29.8099 385 17.3099 425 17.3099 469.75C17.3099 609.25 110.06 702.25 249.56 702.25ZM484.06 702.25C503.31 702.25 519.06 686.75 519.06 667.25C519.06 648 503.31 632.5 484.06 632.5C464.56 632.5 449.06 648 449.06 667.25C449.06 686.75 464.56 702.25 484.06 702.25Z" fill="black" fill-opacity="0.85"/>
 </g>
</svg>
