<?xml version="1.0" encoding="UTF-8"?>
<!--Generator: Apple Native CoreSVG 326-->
<!DOCTYPE svg
PUBLIC "-//W3C//DTD SVG 1.1//EN"
       "http://www.w3.org/Graphics/SVG/1.1/DTD/svg11.dtd">
<svg version="1.1" xmlns="http://www.w3.org/2000/svg" xmlns:xlink="http://www.w3.org/1999/xlink" viewBox="0 0 651.25 651.75">
 <g>
  <rect height="651.75" opacity="0" width="651.25" x="0" y="0"/>
  <path d="M651.25 325.75C651.25 505 505 651.25 325.5 651.25C146.25 651.25 0 505 0 325.75C0 146.25 146.25 0 325.5 0C505 0 651.25 146.25 651.25 325.75ZM273.5 86L263.75 97C258.5 103 258.75 110.25 264.75 115.25L361.5 203C367.5 208 374 207.25 380.25 201.5L391 210.75L309.5 292C300.25 301.5 294.75 312.75 293.5 326.5L277.25 503L206 503C195.25 503 187.25 511.25 187.25 522C187.25 532.25 195.25 540.75 206 540.75L294.5 540.75C306 540.75 311.25 535.25 313.25 525.25L329 437.25L403.25 437.25L388.75 518.5C386.75 531.5 395 540 404.75 540.75C413.75 541.5 423.75 537.25 425.75 525.25L444.25 423.75C446.75 409.5 438.5 401 428 399.5L362 392.5L367.75 329.75C368.25 326.5 370.5 324.5 373.25 324.5L426 324.5C436.5 324.5 445 315.75 445 305.5L445 202.5C445 194.5 440.25 187.5 433 185C426 182.25 418.5 183.5 412.75 188.75L401 200.75L390.5 191.25C396.25 185 395.25 177.5 389.75 172.5L292.5 84.75C286.25 79.5 278.5 80 273.5 86ZM407.75 287L368.25 287L407.75 247.5ZM254 223.25C254 245.5 271.75 263.25 294 263.25C315.75 263.25 333.5 245.5 333.5 223.25C333.5 201.5 315.75 183.75 294 183.75C271.75 183.75 254 201.5 254 223.25Z" fill="black" fill-opacity="0.85"/>
 </g>
</svg>
