<?xml version="1.0" encoding="UTF-8"?>
<!--Generator: Apple Native CoreSVG 326-->
<!DOCTYPE svg
PUBLIC "-//W3C//DTD SVG 1.1//EN"
       "http://www.w3.org/Graphics/SVG/1.1/DTD/svg11.dtd">
<svg version="1.1" xmlns="http://www.w3.org/2000/svg" xmlns:xlink="http://www.w3.org/1999/xlink" viewBox="0 0 651.25 651.75">
 <g>
  <rect height="651.75" opacity="0" width="651.25" x="0" y="0"/>
  <path d="M325.5 651.25C505.25 651.25 651.25 505.5 651.25 325.75C651.25 146 505.25 0 325.5 0C145.75 0 0 146 0 325.75C0 505.5 145.75 651.25 325.5 651.25ZM325.5 604.75C171.25 604.75 46.5 480 46.5 325.75C46.5 171.5 171.25 46.75 325.5 46.75C479.75 46.75 604.5 171.5 604.5 325.75C604.5 480 479.75 604.75 325.5 604.75Z" fill="black" fill-opacity="0.85"/>
  <path d="M325.25 189.75C346.5 189.75 364 172.5 364 151C364 129.75 346.5 112.25 325.25 112.25C304 112.25 286.75 129.75 286.75 151C286.75 172.5 304 189.75 325.25 189.75ZM222.5 281.75C201.5 311 220 350.5 261.5 344.25L326.75 334.5L301.25 410.75C292.75 435.5 327.75 446 335.5 422.25L369.75 319.5C373.75 307 366 295 351.5 295L287 295L321 249.75C324.25 245.25 326.5 244.75 331 244.75L464.25 244.75C473.75 244.75 482 237 482 227C482 217.25 474 209 464.25 209L294.75 209C282.25 209 270 215.5 262.25 226.25ZM238.25 518C238.25 525.75 243.5 530.75 251.5 530.75L386.75 530.75C394.25 530.75 399.75 525.75 399.75 518L399.75 462.5C399.75 455 394.25 450 386.75 450L251.5 450C243.5 450 238.25 455 238.25 462.5Z" fill="black" fill-opacity="0.85"/>
 </g>
</svg>
