<?xml version="1.0" encoding="UTF-8"?>
<!--Generator: Apple Native CoreSVG 326-->
<!DOCTYPE svg
PUBLIC "-//W3C//DTD SVG 1.1//EN"
       "http://www.w3.org/Graphics/SVG/1.1/DTD/svg11.dtd">
<svg version="1.1" xmlns="http://www.w3.org/2000/svg" xmlns:xlink="http://www.w3.org/1999/xlink" viewBox="0 0 474.178 688.25">
 <g>
  <rect height="688.25" opacity="0" width="474.178" x="0" y="0"/>
  <path d="M238.839 153.25C281.589 153.25 315.339 119 315.339 76.75C315.339 34.25 281.089 0 238.839 0C196.589 0 162.089 34.25 162.089 76.75C162.089 119 196.339 153.25 238.839 153.25ZM237.089 424.25C247.589 424.25 255.589 430.5 258.839 442.75L311.089 643.25C322.589 688.25 383.589 673 377.089 631.25C374.589 613.75 329.339 444 322.839 405.75C318.089 377.75 320.089 308.25 320.089 273.5C320.089 264 327.839 259.5 337.089 263.25L427.589 299.25C450.589 308.75 467.589 297.5 472.339 281.75C477.339 266.75 470.839 248 448.589 238.75L352.589 199.5C330.089 190.25 309.089 185 285.839 182.25C271.339 189.25 254.589 193 237.089 193C219.589 193 202.839 189.25 188.089 182.25C165.089 185 143.839 190.25 121.589 199.5L25.3392 238.75C3.08921 248-3.41079 266.75 1.58921 281.75C6.58921 297.5 23.5892 308.75 46.5892 299.25L137.089 263.25C146.339 259.5 153.839 264 153.839 273.5C153.839 308.25 155.839 377.75 151.089 405.75C144.589 444 99.5892 613.75 97.0892 631.25C90.5892 673 151.339 688.25 163.089 643.25L215.339 442.75C218.589 430.5 226.589 424.25 237.089 424.25Z" fill="black" fill-opacity="0.85"/>
 </g>
</svg>
