<?xml version="1.0" encoding="UTF-8"?>
<!--Generator: Apple Native CoreSVG 326-->
<!DOCTYPE svg
PUBLIC "-//W3C//DTD SVG 1.1//EN"
       "http://www.w3.org/Graphics/SVG/1.1/DTD/svg11.dtd">
<svg version="1.1" xmlns="http://www.w3.org/2000/svg" xmlns:xlink="http://www.w3.org/1999/xlink" viewBox="0 0 651.25 651.75">
 <g>
  <rect height="651.75" opacity="0" width="651.25" x="0" y="0"/>
  <path d="M325.5 651.25C505.25 651.25 651.25 505.5 651.25 325.75C651.25 146 505.25 0 325.5 0C145.75 0 0 146 0 325.75C0 505.5 145.75 651.25 325.5 651.25ZM325.5 604.75C171.25 604.75 46.5 480 46.5 325.75C46.5 171.5 171.25 46.75 325.5 46.75C479.75 46.75 604.5 171.5 604.5 325.75C604.5 480 479.75 604.75 325.5 604.75Z" fill="black" fill-opacity="0.85"/>
  <path d="M366.75 212.25C387 212.25 403.75 195.5 403.75 174.75C403.75 154.25 387 137.5 366.75 137.5C345.75 137.5 329 154.25 329 174.75C329 195.5 345.75 212.25 366.75 212.25ZM279.75 550.25C288.75 550.25 296.75 542.5 296.75 533L296.75 450L337.25 390.25C338.5 388.25 341.75 388.75 342 391.5L348.5 444.75C349 447.75 349.25 449.5 350.5 452.75L383.25 539C387.5 550 397.5 552 405.25 549.25C413.75 546 419.75 538 415.75 527L383.25 441.25L383.25 277.75C383.25 259.75 375.5 240.75 358 233.5L347 228.75C327.5 220.5 308.75 223.25 292 235L251.25 264.25L205 245L296 118.5L325.25 118.5C332.75 118.5 338.5 112.75 338.5 105.75C338.5 98.25 332.75 92.75 325.25 92.75L296.5 92.75C293.75 92.75 290.75 94.25 289.25 96.5L179 248.75C173 257 174.25 269.25 184.75 273.75L246.5 300.25C249.25 301.5 251.25 301.5 255 301.5L296.25 301.5C303 301.5 305 306 305 310.75L305 358L263.75 436.5C262.25 439.25 262 441.5 262 444.75L262 533C262 542.5 270 550.25 279.75 550.25Z" fill="black" fill-opacity="0.85"/>
 </g>
</svg>
