<?xml version="1.0" encoding="UTF-8"?>
<!--Generator: Apple Native CoreSVG 326-->
<!DOCTYPE svg
PUBLIC "-//W3C//DTD SVG 1.1//EN"
       "http://www.w3.org/Graphics/SVG/1.1/DTD/svg11.dtd">
<svg version="1.1" xmlns="http://www.w3.org/2000/svg" xmlns:xlink="http://www.w3.org/1999/xlink" viewBox="0 0 468.128 806.25">
 <g>
  <rect height="806.25" opacity="0" width="468.128" x="0" y="0"/>
  <path d="M261.564 138.75C299.564 138.75 330.564 107.75 330.564 69C330.564 31 299.564 0 261.564 0C223.064 0 192.064 31 192.064 69C192.064 107.75 223.064 138.75 261.564 138.75ZM335.564 325.5C348.814 339 373.814 338.25 385.314 320L462.314 196.5C486.064 158.5 430.314 128 408.564 163L352.814 252.75L308.814 208.75C266.814 167 220.814 158.5 156.814 165.75L43.814 178.25C29.314 180 17.814 191.75 16.314 205.75L0.313981 330.25C-4.93602 370.25 57.314 380.75 62.814 337.75L75.564 238.5L134.564 231.75C142.814 231 148.564 236.5 147.314 245.75L132.314 367.5C125.064 425.25 158.314 458.5 215.314 454.75L332.064 446.25L297.314 573.5C285.314 616 347.314 631.25 358.314 589.75L404.064 420.25C410.064 398.75 395.314 380.25 371.314 380.25L251.064 380.25L266.064 276.5C267.564 266 276.564 265.75 282.564 272.25ZM163.564 477.5L156.064 591.5L96.564 740.5C86.064 767 105.064 785.75 124.814 785.75C137.064 785.75 149.314 778.75 155.564 763L216.564 610.25C217.314 607.75 218.064 605.5 218.564 603L236.314 483.25L217.564 484.5C197.564 485.75 179.314 483.25 163.564 477.5Z" fill="black" fill-opacity="0.85"/>
 </g>
</svg>
