<?xml version="1.0" encoding="UTF-8"?>
<!--Generator: Apple Native CoreSVG 326-->
<!DOCTYPE svg
PUBLIC "-//W3C//DTD SVG 1.1//EN"
       "http://www.w3.org/Graphics/SVG/1.1/DTD/svg11.dtd">
<svg version="1.1" xmlns="http://www.w3.org/2000/svg" xmlns:xlink="http://www.w3.org/1999/xlink" viewBox="0 0 651.25 651.75">
 <g>
  <rect height="651.75" opacity="0" width="651.25" x="0" y="0"/>
  <path d="M651.25 325.75C651.25 505 505 651.25 325.5 651.25C146.25 651.25 0 505 0 325.75C0 146.25 146.25 0 325.5 0C505 0 651.25 146.25 651.25 325.75ZM279 436L244.5 522C238.75 537 249.75 547.75 261 547.75C268.25 547.75 275 544 278.75 534.75L313.75 447C314.25 445.5 314.5 444 315 442.75L325.75 371.75L314.5 372.75C303.25 373.5 294.5 372.5 283.5 368.25ZM424.5 189.5L392 241.25L367 216C343 192 316.25 186.75 279.75 191L214.75 198.5C206.25 199.25 199.5 206.25 198.5 214.25L189.5 285.75C186.5 309 222.5 314.75 225.75 290.25L232.75 232.75L266.75 229C271.5 228.75 274.75 232 274 237L265.25 307C261.25 340.5 280.5 359.5 313.25 357.25L380.25 352.5L360 425.5C353.5 450.25 389 458.75 395.5 435.25L421.75 337.5C425.25 325.25 416.75 314.75 402.75 314.75L333.5 314.75L342.5 255C343.25 249 348.25 249 351.75 252.25L382.5 283C390.25 291 404.5 290.5 410.75 280.25L455.25 208.75C469 187 436.75 169.75 424.5 189.5ZM300 135.25C300 157.75 317.5 175.5 340 175.5C361.75 175.5 379.5 157.75 379.5 135.25C379.5 113.5 361.75 96 340 96C317.5 96 300 113.5 300 135.25Z" fill="black" fill-opacity="0.85"/>
 </g>
</svg>
