<?xml version="1.0" encoding="UTF-8"?>
<!--Generator: Apple Native CoreSVG 326-->
<!DOCTYPE svg
PUBLIC "-//W3C//DTD SVG 1.1//EN"
       "http://www.w3.org/Graphics/SVG/1.1/DTD/svg11.dtd">
<svg version="1.1" xmlns="http://www.w3.org/2000/svg" xmlns:xlink="http://www.w3.org/1999/xlink" viewBox="0 0 810.538 638.25">
 <g>
  <rect height="638.25" opacity="0" width="810.538" x="0" y="0"/>
  <path d="M549.519 138.75C587.769 138 618.019 106.25 617.269 68C616.269 29.75 584.769-0.5 546.519 0.25C508.269 1.25 478.019 32.75 478.769 71C479.519 109.25 511.269 139.5 549.519 138.75ZM281.019 188.25L456.019 351.75C468.769 363.75 489.019 363 501.269 350.25C513.019 337.75 512.519 317.25 499.769 305.5L437.019 247.25L464.019 233.5C469.769 230.5 476.519 231.75 481.019 235.75L538.269 289.5L538.269 417.75C538.269 435.25 552.769 449.5 570.019 449.5C587.519 449.5 601.769 435.25 601.769 417.75L601.769 274.75C601.769 265.75 597.769 257.5 589.269 249.5L454.269 124C429.019 100.75 390.519 97.25 358.269 109.5L289.769 135.5C270.019 143 260.269 168.75 281.019 188.25ZM263.019 197L247.769 205C191.769 232.75 179.519 301.5 232.519 343.5L350.019 436L278.269 565.75C269.769 581.25 276.269 600 291.519 608.75C303.519 615.75 324.519 613 334.269 595.25L418.269 441.75C424.769 429.25 422.769 415 412.769 404.75L321.019 305.25L355.019 286.75L275.019 212.25C270.019 207.5 266.019 202.5 263.019 197ZM31.7692 488L190.519 488C203.269 488 213.519 480 218.519 470L254.269 398L214.269 367C206.269 361 199.019 354.25 193.519 346.5L167.519 424.5L31.7692 424.5C14.2692 424.5 0.0192385 438.5 0.0192385 456.25C0.0192385 473.75 14.2692 488 31.7692 488ZM759.269 581.75C790.019 581 811.269 559.5 810.519 530.25C810.269 516.75 800.769 503.5 786.769 504C777.519 504.25 770.519 510.75 770.769 520.75L771.019 529.25C771.269 543 755.519 550.75 741.019 537.75L394.769 230.25L373.019 246.75L712.769 562.75C726.519 575.5 742.269 582 759.269 581.75ZM604.269 638.25C628.269 638.25 648.269 619 648.269 594.75C648.269 570.75 628.269 550.75 604.269 550.75C580.019 550.75 560.519 570.75 560.519 594.75C560.519 619 580.019 638.25 604.269 638.25Z" fill="black" fill-opacity="0.85"/>
 </g>
</svg>
