<?xml version="1.0" encoding="UTF-8"?>
<!--Generator: Apple Native CoreSVG 326-->
<!DOCTYPE svg
PUBLIC "-//W3C//DTD SVG 1.1//EN"
       "http://www.w3.org/Graphics/SVG/1.1/DTD/svg11.dtd">
<svg version="1.1" xmlns="http://www.w3.org/2000/svg" xmlns:xlink="http://www.w3.org/1999/xlink" viewBox="0 0 642.813 730.25">
 <g>
  <rect height="730.25" opacity="0" width="642.813" x="0" y="0"/>
  <path d="M507.656 137.75C545.656 137.75 576.406 107 576.406 68.75C576.406 30.75 545.656 0 507.656 0C469.156 0 438.656 30.75 438.656 68.75C438.656 107 469.156 137.75 507.656 137.75ZM262.656 406L424.156 529.25L373.906 684C366.906 706.25 380.656 722.25 397.156 726C412.156 729.75 429.656 723.25 436.406 702.25L492.656 528.75C496.656 516.25 494.406 502.5 485.656 494L377.156 385.75L501.656 261C507.156 255.25 515.156 255.5 520.906 261L563.906 303.5L504.906 362.5C491.906 375.75 492.156 396.25 504.906 409C516.906 421 538.406 422 551.156 409L633.156 327C646.156 313.75 645.906 293.75 633.156 280.75L553.906 200.75C534.906 181.75 512.156 172.25 484.656 172.25L104.406 172.25C86.4065 172.25 71.4065 187 71.4065 205C71.4065 223 86.4065 238 104.406 238L322.906 238C333.906 238 339.156 249.5 331.156 257.25L267.906 320.75C239.406 349.25 243.406 391.5 262.656 406ZM253.406 436.5L237.156 533.75L85.4065 533.75C66.6565 533.75 51.9065 548.5 51.9065 566.5C51.9065 584.75 66.6565 599.5 85.4065 599.5L263.406 599.5C280.906 599.5 292.156 590.75 296.656 575.75L322.656 489.25ZM71.4065 347.5C110.656 347.5 142.656 315.5 142.656 276.25C142.656 237.25 110.656 205 71.4065 205C32.1565 205 0.156478 237.25 0.156478 276.25C0.156478 315.5 32.1565 347.5 71.4065 347.5Z" fill="black" fill-opacity="0.85"/>
 </g>
</svg>
