<?xml version="1.0" encoding="UTF-8"?>
<!--Generator: Apple Native CoreSVG 326-->
<!DOCTYPE svg
PUBLIC "-//W3C//DTD SVG 1.1//EN"
       "http://www.w3.org/Graphics/SVG/1.1/DTD/svg11.dtd">
<svg version="1.1" xmlns="http://www.w3.org/2000/svg" xmlns:xlink="http://www.w3.org/1999/xlink" viewBox="0 0 893.005 635.75">
 <g>
  <rect height="635.75" opacity="0" width="893.005" x="0" y="0"/>
  <path d="M547.502 157.75L547.502 227.5C547.502 247 561.502 261 580.752 261L633.502 261C652.752 261 667.252 247 667.252 227.5L667.252 157.75C667.252 138.75 652.752 124.25 633.502 124.25L580.752 124.25C561.502 124.25 547.502 138.75 547.502 157.75ZM699.752 157.75L699.752 227.5C699.752 247 713.502 261 733.252 261L785.752 261C805.252 261 819.502 247 819.502 227.5L819.502 157.75C819.502 138.75 805.252 124.25 785.752 124.25L733.252 124.25C713.502 124.25 699.752 138.75 699.752 157.75ZM468.752 339.5L468.752 409.25C468.752 428.5 482.752 442.5 502.002 442.5L554.502 442.5C574.002 442.5 588.502 428.5 588.502 409.25L588.502 339.5C588.502 320.25 574.002 306.25 554.502 306.25L502.002 306.25C482.752 306.25 468.752 320.25 468.752 339.5ZM621.002 339.5L621.002 409.25C621.002 428.5 635.252 442.5 654.502 442.5L707.002 442.5C726.752 442.5 740.752 428.5 740.752 409.25L740.752 339.5C740.752 320.25 726.752 306.25 707.002 306.25L654.502 306.25C635.252 306.25 621.002 320.25 621.002 339.5ZM773.502 339.5L773.502 409.25C773.502 428.5 787.502 442.5 807.002 442.5L859.502 442.5C879.002 442.5 893.002 428.5 893.002 409.25L893.002 339.5C893.002 320.25 879.002 306.25 859.502 306.25L807.002 306.25C787.502 306.25 773.502 320.25 773.502 339.5ZM547.502 521.5L547.502 591C547.502 610.5 561.502 624.25 580.752 624.25L633.502 624.25C652.752 624.25 667.252 610.5 667.252 591L667.252 521.5C667.252 502.25 652.752 487.75 633.502 487.75L580.752 487.75C561.502 487.75 547.502 502.25 547.502 521.5ZM699.752 521.5L699.752 591C699.752 610.5 713.502 624.25 733.252 624.25L785.752 624.25C805.252 624.25 819.502 610.5 819.502 591L819.502 521.5C819.502 502.25 805.252 487.75 785.752 487.75L733.252 487.75C713.502 487.75 699.752 502.25 699.752 521.5ZM617.002 82.25L745.752 82.25C754.502 82.25 756.502 72.75 749.502 68L690.752 28C684.502 24 678.252 24 672.002 28L613.252 68C606.252 72.75 608.252 82.25 617.002 82.25Z" fill="black" fill-opacity="0.85"/>
  <path d="M183.002 140.5C222.002 140.5 252.752 108.25 252.752 70.75C252.752 31.75 222.002 0 183.002 0C143.752 0 113.252 31.75 113.252 70.75C113.252 109.5 143.752 140.5 183.002 140.5ZM48.7525 402.25L249.252 179.25C229.252 171.5 207.502 168.5 183.002 168.5C92.7525 168.5 39.2525 212 39.2525 284.75C39.2525 302.5 40.0025 326 42.7525 349.75ZM317.752 402.25L323.252 349.75C326.002 326 327.002 302.5 327.002 284.75C327.002 248.5 314.002 219.25 288.252 199.25L127.252 378.5C146.252 375.25 164.502 374 183.002 374C227.502 374 272.502 380 317.752 402.25ZM106.002 634.25C124.252 631.5 136.502 618.25 134.252 595.5L121.502 478.75L244.502 478.75L232.252 595.5C229.752 618.25 241.752 631.5 260.252 634.25C279.502 636 293.752 624.25 296.502 601.75L312.752 447C271.752 423.5 226.502 414.5 183.002 414.5C139.752 414.5 94.2525 423.5 53.7525 447L69.7525 601.75C72.5025 624.25 86.5025 636 106.002 634.25ZM288.252 199L348.502 132.25C358.252 121 357.502 108.75 347.752 100.5C338.752 92.5 327.002 92.25 316.502 104L249.252 179.25C263.502 184.75 276.752 191.5 288.252 199ZM9.25249 426C-1.49751 434-1.99751 446.5 3.25249 455C8.75249 463.75 19.7525 468 31.5025 460.75C39.2525 455.75 46.0025 451.25 53.7525 447L48.7525 402.25C34.2525 408.75 21.2525 416.5 9.25249 426ZM357.002 426C345.002 416.5 332.002 408.75 317.752 402.25L312.502 447C320.252 451.25 327.252 455.75 334.752 460.75C346.502 468 357.252 464 363.002 455.5C368.002 447 368.002 434.25 357.002 426Z" fill="black" fill-opacity="0.85"/>
 </g>
</svg>
