<?xml version="1.0" encoding="UTF-8"?>
<!--Generator: Apple Native CoreSVG 326-->
<!DOCTYPE svg
PUBLIC "-//W3C//DTD SVG 1.1//EN"
       "http://www.w3.org/Graphics/SVG/1.1/DTD/svg11.dtd">
<svg version="1.1" xmlns="http://www.w3.org/2000/svg" xmlns:xlink="http://www.w3.org/1999/xlink" viewBox="0 0 776.25 647.25">
 <g>
  <rect height="647.25" opacity="0" width="776.25" x="0" y="0"/>
  <path d="M176.75 139.5C215 139.5 246 108.5 246 70C246 32 215 1 176.75 1C138.75 1 107.5 32 107.5 70C107.5 108.5 138.75 139.5 176.75 139.5ZM107.25 554.25C130.25 545.5 150 534 172.75 525.25L178.25 475.25C178.75 472 183.5 471.25 185 474.25L205.75 516C215.25 514.25 225.5 513 237.5 513C254 513 267.5 515.5 279 519.75L245.25 429.25L245.25 238.5C245.25 203.5 220.75 174 177.25 174L162.25 174C136.5 174 107.25 177.5 81 203.5L9 275C-3 286.75-3 307 9 318.5L107.25 415.5ZM107.25 330L74.25 296.75L97.25 273.5C101.25 269.5 107.25 271.75 107.25 277.25ZM47 462.5L718 50.75C726 45.75 728 36 722.75 28.25C718.25 20.5 708.75 18.25 700.75 23L30 434.75C22.25 439.5 20 449.25 25 457.25C29.75 465 39.25 467.25 47 462.5ZM35.5 647.25L67 647.25C151.25 647.25 171.75 594.25 232.5 594.25C293 594.25 313.5 647.25 398 647.25C482.25 647.25 502.75 594.25 563.5 594.25C624.25 594.25 644.5 647.25 729 647.25L760.5 647.25C769.25 647.25 776.25 640.25 776.25 631.5C776.25 622.5 769.25 615.5 760.5 615.5L729 615.5C666 615.5 644.5 562.5 563.5 562.5C482.5 562.5 461 615.5 398 615.5C334.75 615.5 313.5 562.5 232.5 562.5C151.5 562.5 130 615.5 67 615.5L35.5 615.5C26.75 615.5 19.75 622.5 19.75 631.5C19.75 640.25 26.75 647.25 35.5 647.25Z" fill="black" fill-opacity="0.85"/>
 </g>
</svg>
