<?xml version="1.0" encoding="UTF-8"?>
<!--Generator: Apple Native CoreSVG 326-->
<!DOCTYPE svg
PUBLIC "-//W3C//DTD SVG 1.1//EN"
       "http://www.w3.org/Graphics/SVG/1.1/DTD/svg11.dtd">
<svg version="1.1" xmlns="http://www.w3.org/2000/svg" xmlns:xlink="http://www.w3.org/1999/xlink" viewBox="0 0 855.577 780.75">
 <g>
  <rect height="780.75" opacity="0" width="855.577" x="0" y="0"/>
  <path d="M263.538 172.25C311.038 172.25 349.288 132.75 349.288 86.5C349.288 38.75 311.038 0 263.538 0C215.538 0 178.038 38.75 178.038 86.5C178.038 134.5 215.538 172.25 263.538 172.25ZM98.2884 494L345.038 220C320.288 210.75 293.538 206.75 263.538 206.75C152.788 206.75 86.7884 260.25 86.7884 349.75C86.7884 371 88.0384 400 91.2884 429.75ZM429.038 494L436.038 429.75C439.038 400 440.288 371 440.288 349.75C440.288 305 424.538 269 392.788 244.25L195.038 465C218.038 460.75 240.788 459.5 263.538 459.5C318.288 459.5 373.288 466.75 429.038 494ZM168.788 778.5C191.288 775.75 206.288 759.25 203.538 731.25L188.038 587.75L339.288 587.75L323.788 731.25C320.788 759.25 335.788 775.75 358.538 778.5C382.038 781 399.788 766.5 402.788 739L422.538 549C372.538 520 316.788 508.75 263.538 508.75C210.288 508.75 154.788 520 104.788 549L124.288 739C127.288 766.5 145.288 781 168.788 778.5ZM392.788 244L466.538 162.25C478.538 148.25 477.538 133.5 465.788 123.25C454.788 113.5 440.788 113.5 427.788 128L345.038 220C362.538 226.5 378.288 235 392.788 244ZM7.03839 594.5C18.0384 605.75 32.7884 605.5 45.7884 592.5C64.0384 575.25 82.2884 560.25 104.788 549L98.2884 494C65.5384 509.25 36.7884 531.25 9.53839 557C-2.46161 568.5-2.96161 583.75 7.03839 594.5ZM520.288 594.75C530.288 584 529.788 568.75 517.788 557.25C490.538 531.25 462.038 509.5 429.038 494L422.538 549C445.038 560.5 463.288 575.5 481.538 592.75C494.538 605.5 509.288 606 520.288 594.75Z" fill="black" fill-opacity="0.85"/>
  <path d="M695.788 388.5C785.538 388.5 855.538 314.5 855.538 228.75C855.538 138.5 785.538 66.25 695.788 66.25C606.038 66.25 534.038 138.5 534.038 228.75C534.038 314.5 606.038 388.5 695.788 388.5Z" fill="black" fill-opacity="0.85"/>
 </g>
</svg>
