<?xml version="1.0" encoding="UTF-8"?>
<!--Generator: Apple Native CoreSVG 326-->
<!DOCTYPE svg
PUBLIC "-//W3C//DTD SVG 1.1//EN"
       "http://www.w3.org/Graphics/SVG/1.1/DTD/svg11.dtd">
<svg version="1.1" xmlns="http://www.w3.org/2000/svg" xmlns:xlink="http://www.w3.org/1999/xlink" viewBox="0 0 690.501 627.25">
 <g>
  <rect height="627.25" opacity="0" width="690.501" x="0" y="0"/>
  <path d="M459.001 138.5C497.501 138.5 528.251 107.5 528.251 69.25C528.251 30.75 497.501 0 459.001 0C420.751 0 389.751 30.75 389.751 69.25C389.751 107.5 420.751 138.5 459.001 138.5ZM211.001 553.75C226.001 562.75 247.251 558.25 256.751 543L334.751 418L419.501 422.75L366.501 507.5C356.501 523.25 361.001 544.75 377.251 553.75C393.001 562.75 413.001 558.5 422.501 543L504.751 411.75C518.251 390 507.001 362.25 477.001 359L338.501 343.5C324.751 342 319.751 327.75 326.501 317.75L383.751 231.5C387.501 226 394.751 224.5 400.001 228L610.251 354.25C625.751 363.5 647.251 358.5 656.001 343.25C665.001 327 660.001 306.75 644.251 297.25L229.001 48C223.501 44.75 218.001 43.5 212.001 43.5L79.0007 43.5C60.5007 43.5 45.5007 58.25 45.5007 76.25C45.5007 94.5 60.5007 109.75 79.0007 109.75L202.501 109.75L260.751 144.5C267.251 148.25 268.751 155.5 264.751 162L192.751 269.75C154.001 327.5 186.001 405 258.751 414L200.251 507.5C190.251 523.25 194.751 543.75 211.001 553.75ZM92.5007 626.5L598.001 626.5C633.251 626.5 661.501 619.25 683.751 600.25C692.251 593.25 692.001 584 687.001 577.5C682.251 570.75 672.251 568.5 663.501 575.5C646.001 589.25 628.251 595 598.001 595L92.5007 595C62.5007 595 44.5007 589.25 27.2507 575.5C19.0007 569.25 10.0007 570.5 4.7507 576C-1.4993 582.25-2.2493 592.5 6.7507 600.25C29.0007 619.25 57.5007 626.5 92.5007 626.5Z" fill="black" fill-opacity="0.85"/>
 </g>
</svg>
