<?xml version="1.0" encoding="UTF-8"?>
<!--Generator: Apple Native CoreSVG 326-->
<!DOCTYPE svg
PUBLIC "-//W3C//DTD SVG 1.1//EN"
       "http://www.w3.org/Graphics/SVG/1.1/DTD/svg11.dtd">
<svg version="1.1" xmlns="http://www.w3.org/2000/svg" xmlns:xlink="http://www.w3.org/1999/xlink" viewBox="0 0 680.083 649.25">
 <g>
  <rect height="649.25" opacity="0" width="680.083" x="0" y="0"/>
  <path d="M194.042 138.5C232.292 138.5 263.292 107.5 263.292 69C263.292 31 232.292 0 194.042 0C156.042 0 124.542 31 124.542 69C124.542 107.5 156.042 138.5 194.042 138.5ZM663.042 582L454.042 469L333.292 385C324.292 378.75 316.042 371 308.792 362.25C321.042 354.75 326.042 340.75 322.542 327L298.792 230.75C290.542 196.75 259.792 173.25 224.792 173.25L149.292 173.25C126.292 173.25 110.292 178.75 95.0415 194L9.2915 279.75C-1.2085 290.25-2.7085 306.25 4.5415 319L64.5415 424.75L64.5415 610.25C64.5415 627.75 79.2915 642.75 97.0415 642.75C114.792 642.75 129.542 627.75 129.542 610.25L129.542 451L314.292 464.25L426.042 527.5L632.542 638.5C651.542 648.75 669.792 639.25 676.542 625.75C684.542 610 678.542 590.25 663.042 582ZM72.7915 308.25L128.542 252L172.292 364.25L137.792 383.5L116.042 383.5Z" fill="black" fill-opacity="0.85"/>
 </g>
</svg>
