<?xml version="1.0" encoding="UTF-8"?>
<!--Generator: Apple Native CoreSVG 326-->
<!DOCTYPE svg
PUBLIC "-//W3C//DTD SVG 1.1//EN"
       "http://www.w3.org/Graphics/SVG/1.1/DTD/svg11.dtd">
<svg version="1.1" xmlns="http://www.w3.org/2000/svg" xmlns:xlink="http://www.w3.org/1999/xlink" viewBox="0 0 651.25 651.75">
 <g>
  <rect height="651.75" opacity="0" width="651.25" x="0" y="0"/>
  <path d="M325.5 651.25C505.25 651.25 651.25 505.5 651.25 325.75C651.25 146 505.25 0 325.5 0C145.75 0 0 146 0 325.75C0 505.5 145.75 651.25 325.5 651.25ZM325.5 604.75C171.25 604.75 46.5 480 46.5 325.75C46.5 171.5 171.25 46.75 325.5 46.75C479.75 46.75 604.5 171.5 604.5 325.75C604.5 480 479.75 604.75 325.5 604.75Z" fill="black" fill-opacity="0.85"/>
  <path d="M324.25 194.5C346 194.5 363.5 176.75 363.5 155C363.5 133.25 346 115.75 324.25 115.75C302.25 115.75 284.5 133.25 284.5 155C284.5 176.75 302.25 194.5 324.25 194.5ZM204 492.5C186.25 513.75 215.25 534.25 229.75 517L281 455.75C286.25 449.75 288.25 446.25 292.25 438.25L324.5 368.25C334.5 347.25 336 334.25 337.5 312L339.75 282.75L368 310C374.5 316 379.25 318 390.25 318L431.5 318C442.5 318 450 311.5 450 301.25C450 291.25 442.5 284.75 431.5 284.75L387.25 284.75L332.75 225C324.5 216.25 314 211.25 301.25 211.25C298 211.25 294.75 211.75 291.75 212.5C291.75 198.75 281 188.25 266 188.25L247 188.25C227 188.25 214.75 200.75 214.75 220.75L214.75 311.5C214.75 325.25 224.75 335.25 238.25 335.25L263.5 335.25C263.5 347.25 266.75 355.75 273.5 366L257 429.75ZM317.75 422.25C322.5 428.25 324.25 431.25 326.25 435L363.75 511.25C375.5 534.75 410 520 397.5 495L360.75 420.5C357.75 414.5 353.75 408 350 403L336 383.25ZM423 515C423 519.75 426.75 523.75 431.75 523.75C436.5 523.75 440.5 519.75 440.5 515L440.5 333C436.75 333.75 433.5 334 431.5 334L423 334ZM423 268.75L431.5 268.75C433.75 268.75 436.75 269 440.5 269.75L440.5 243.25C440.5 238.5 436.75 234.75 431.75 234.75C426.75 234.75 423 238.5 423 243.25Z" fill="black" fill-opacity="0.85"/>
 </g>
</svg>
