<?xml version="1.0" encoding="UTF-8"?>
<!--Generator: Apple Native CoreSVG 326-->
<!DOCTYPE svg
PUBLIC "-//W3C//DTD SVG 1.1//EN"
       "http://www.w3.org/Graphics/SVG/1.1/DTD/svg11.dtd">
<svg version="1.1" xmlns="http://www.w3.org/2000/svg" xmlns:xlink="http://www.w3.org/1999/xlink" viewBox="0 0 829.313 724.75">
 <g>
  <rect height="724.75" opacity="0" width="829.313" x="0" y="0"/>
  <path d="M418.781 138.5C457.031 138.5 488.031 107.5 488.031 69.25C488.031 31 457.031 0 418.781 0C380.281 0 349.281 31 349.281 69.25C349.281 107.5 380.281 138.5 418.781 138.5ZM692.281 237.5C710.031 237.5 724.781 223.25 724.781 205.25C724.781 187.25 710.031 173.25 692.281 173.25L351.781 173.25C321.031 173.25 294.031 189.5 279.781 217.75L136.031 505.25L55.0315 424C42.2815 411.25 21.5315 411.75 9.28149 424C-3.21851 436.75-2.96851 457 9.28149 469.5L123.781 584.5C137.031 598 158.781 596 169.781 579.75L263.531 442.75C268.781 434.75 279.781 433.5 286.781 439L402.531 527.25L402.531 688.5C402.531 706.25 416.781 720.5 434.531 720.5C452.781 720.5 467.031 706.25 467.031 688.5L467.031 511C467.031 502.75 463.281 494.5 457.531 488.5L345.281 376L405.531 255.5C411.531 243.5 421.781 237.5 434.281 237.5ZM482.781 382.5L611.781 382.5C629.781 382.5 644.031 367.75 644.031 350.5C644.031 332.5 629.781 318 611.781 318L496.281 318L445.281 267.25L437.781 267.25C434.531 267.25 432.281 268.5 430.781 271.5L406.531 319.5L460.281 373C466.531 379.25 474.531 382.5 482.781 382.5ZM667.781 314C667.781 344.75 704.281 370.25 748.531 370.25C793.281 370.25 829.281 344.75 829.281 314C829.281 282.75 793.281 257.75 748.531 257.75C704.281 257.75 667.781 282.75 667.781 314Z" fill="black" fill-opacity="0.85"/>
 </g>
</svg>
