<?xml version="1.0" encoding="UTF-8"?>
<!--Generator: Apple Native CoreSVG 326-->
<!DOCTYPE svg
PUBLIC "-//W3C//DTD SVG 1.1//EN"
       "http://www.w3.org/Graphics/SVG/1.1/DTD/svg11.dtd">
<svg version="1.1" xmlns="http://www.w3.org/2000/svg" xmlns:xlink="http://www.w3.org/1999/xlink" viewBox="0 0 406.75 799.25">
 <g>
  <rect height="799.25" opacity="0" width="406.75" x="0" y="0"/>
  <path d="M46.5 778.75C64.5 778.75 78.5 764.75 78.5 747.5L78.5 595.75L167.25 501.25C169 499.5 171.5 499.5 173 501.5L258.25 615.25L330.25 759C350.5 799.25 406.75 770.5 387.5 732L239.25 434.75C225.75 408.25 219 372 215.75 335.75C215 324 222.5 318.25 233 323.5L291.5 353.25L345.75 461.75C364.75 500 423 474 402.25 433.25L343.25 315.5C340 309.25 335.5 304.5 329 301.25L244.75 259C219.75 246.25 194 241.5 170.25 235.5C143 229 118.5 220.5 102.25 196.75L63.75 141L63.75 31.25C63.75 14.25 49.25 0 31.75 0C14.25 0 0 14.25 0 31.25L0 151.25C0 158.25 1.5 163.25 5.5 169.25L73 266C79 274.75 82.75 280.75 84 295.5C86.75 330.75 94.25 395.75 108.5 443.5L21 564.5C16.75 571 15.25 577 15.25 583.25L15.25 747.5C15.25 764.75 29 778.75 46.5 778.75ZM192.5 198.75C230.5 198.75 261 168 261 129.75C261 91.75 230.5 61 192.5 61C154 61 123.25 91.75 123.25 129.75C123.25 168 154 198.75 192.5 198.75Z" fill="black" fill-opacity="0.85"/>
 </g>
</svg>
