<?xml version="1.0" encoding="UTF-8"?>
<!--Generator: Apple Native CoreSVG 326-->
<!DOCTYPE svg
PUBLIC "-//W3C//DTD SVG 1.1//EN"
       "http://www.w3.org/Graphics/SVG/1.1/DTD/svg11.dtd">
<svg version="1.1" xmlns="http://www.w3.org/2000/svg" xmlns:xlink="http://www.w3.org/1999/xlink" viewBox="0 0 598 822.25">
 <g>
  <rect height="822.25" opacity="0" width="598" x="0" y="0"/>
  <path d="M239.5 138.5C277.5 138.5 308.75 107.25 308.75 69.5C308.75 31.25 277.5 0 239.5 0C201.5 0 170.25 31.25 170.25 69.5C170.25 107.25 201.5 138.5 239.5 138.5ZM280.75 658.75C293 662 313.75 657.5 319.75 637.5L365.75 484.75C370.75 468.5 363.5 451.25 346 445.5L221.25 402.25L236.75 296C237.5 289.75 245.75 288.25 248.5 294.25L275.25 346C281 357.5 291.75 363.5 303.5 363.5L431 363.5C448.5 363.5 463.25 349.75 463.25 331.75C463.25 314.5 448.5 300 431 300L323.5 300L282 217.75C268.5 191.25 244.5 172.5 215 166.75L197 163.25C164.5 157 138.25 164 118 176.75L15 240.75C6 246.75 0 257 0 268.25L0 395.5C0 413 14.5 427.5 32 427.5C49.5 427.5 64.25 413 64.25 395.5L64.25 285.5L108.5 257.75C112.5 255.5 117 258.25 116.5 263L101.75 380.5C96 425.75 110.75 456.25 162.75 468.5L295 499.25L259 619.75C254.25 636 260.5 653.25 280.75 658.75ZM46.75 773.75C58.25 781.25 78.75 781.25 90.25 764L184.25 624.5C188.5 617.75 190.75 612.5 192 604.75L205.5 511.25L155.5 499.25C148 497.5 141.25 495.25 135 493L128.25 593.5L37.75 729.25C27.75 743.75 31.25 763.75 46.75 773.75ZM167.75 821.5L273 821.5C281.75 821.5 289 814.25 289 805.5L289 742.25L378 742.25C386.5 742.25 393.5 735.25 393.5 726.5L393.5 663.25L483.25 663.25C492 663.25 499 656.25 499 647.25L499 584L582 584C590.75 584 598 577 598 568.25C598 559.5 590.75 552.25 582 552.25L483.25 552.25C474.25 552.25 467.5 559.5 467.5 568.25L467.5 631.5L378 631.5C368.75 631.5 362 638.75 362 647.25L362 710.75L273 710.75C264.25 710.75 257.25 717.75 257.25 726.5L257.25 790L167.75 790C158.75 790 152 797 152 805.5C152 814.25 158.75 821.5 167.75 821.5Z" fill="black" fill-opacity="0.85"/>
 </g>
</svg>
