<?xml version="1.0" encoding="UTF-8"?>
<!--Generator: Apple Native CoreSVG 326-->
<!DOCTYPE svg
PUBLIC "-//W3C//DTD SVG 1.1//EN"
       "http://www.w3.org/Graphics/SVG/1.1/DTD/svg11.dtd">
<svg version="1.1" xmlns="http://www.w3.org/2000/svg" xmlns:xlink="http://www.w3.org/1999/xlink" viewBox="0 0 672.938 589.25">
 <g>
  <rect height="589.25" opacity="0" width="672.938" x="0" y="0"/>
  <path d="M10.594 269L116.844 375.25C131.344 390 155.094 390.5 169.344 372.75L236.344 290.25C240.594 285 247.844 287.75 247.844 294.25L247.844 434.75L127.844 421.25C86.594 416.5 73.344 477 112.844 490.25L249.094 535.25C242.344 563.25 266.844 587.75 294.594 578.5L336.594 564.5L378.344 578.5C406.094 587.75 430.594 563.25 424.094 535.25L560.344 490.25C599.844 477 586.344 416.5 545.094 421.25L425.344 434.75L425.344 294.25C425.344 287.75 432.594 285 436.594 290.25L503.594 372.75C517.844 390.5 541.594 390.25 556.344 375.25L662.344 269C676.344 254.75 676.594 232.75 662.344 219C648.844 205.25 626.094 205 612.344 219L534.094 297.5L454.094 199.5C440.594 183.25 420.844 173 399.344 173L273.594 173C252.094 173 232.344 183.25 218.844 199.5L138.844 297.5L60.594 219C46.844 205 24.094 205.25 10.594 219C-3.65604 232.75-3.40604 254.75 10.594 269ZM336.594 138.5C374.344 138.5 405.344 107.5 405.344 69C405.344 31 374.344 0 336.594 0C297.844 0 266.844 31 266.844 69C266.844 107.5 297.844 138.5 336.594 138.5Z" fill="black" fill-opacity="0.85"/>
 </g>
</svg>
