<?xml version="1.0" encoding="UTF-8"?>
<!--Generator: Apple Native CoreSVG 326-->
<!DOCTYPE svg
PUBLIC "-//W3C//DTD SVG 1.1//EN"
       "http://www.w3.org/Graphics/SVG/1.1/DTD/svg11.dtd">
<svg version="1.1" xmlns="http://www.w3.org/2000/svg" xmlns:xlink="http://www.w3.org/1999/xlink" viewBox="0 0 651.25 651.75">
 <g>
  <rect height="651.75" opacity="0" width="651.25" x="0" y="0"/>
  <path d="M651.25 325.75C651.25 505 505 651.25 325.5 651.25C146.25 651.25 0 505 0 325.75C0 146.25 146.25 0 325.5 0C505 0 651.25 146.25 651.25 325.75ZM232.75 149.5C213.5 149.5 208 170.5 220 182.25L248.75 212.25L111.25 212.25C105.75 212.25 101 217 101 222.75C101 228.25 105.5 233 111.25 233L229.5 233L225.5 237C210.25 252.25 210.75 278.5 226 293.5L258.25 325.25L258.25 353L225.5 320.25C221.5 316.25 215 316 211 320C207 324 207.25 330.5 211 334.5L258.25 382L258.25 410L178.25 330C174.25 325.75 167.75 326 163.75 329.75C160 334 160 340.75 163.75 344.25L360.25 540.75C372.75 553.25 384.75 557.5 398.75 557.5C404.25 557.5 409 552.75 409 547.25C409 541.75 404 536.75 398.75 536.75C386.25 536.75 383.5 535.5 372.5 524.5L289.5 441C293.5 438 296.5 433 296.5 427.25L296.5 420L407.25 531C419.5 543.25 432 547.5 445.75 547.5C451.25 547.5 456 542.75 456 537.25C456 532 451.5 527 445.75 527C433.5 527 430.5 525.5 419.75 514.75L342.25 437C346 433.75 349 428.75 349 422.75L349 335.25C349 330 347 325 343.5 321.5L295.75 273.75L338.25 231C341 228.5 344.75 228 347.75 231L377.75 261C381.25 264.5 386 266.75 391.25 266.75L478.5 266.75L478.5 422.5C478.5 428.25 483 433 488.75 433C494.25 433 499 428.25 499 422.5L499 247C499 236.5 489 228.25 478.75 228.25L398.75 228.25L333.5 163C325.25 154.5 313.25 149.5 301.25 149.5ZM310.5 343L310.5 405.25L296.5 391.25L296.5 328.75ZM360.5 144.5C360.5 166.5 379 185 401 185C423 185 441 166.5 441 144.5C441 122.5 423 104.5 401 104.5C379 104.5 360.5 122.5 360.5 144.5Z" fill="black" fill-opacity="0.85"/>
 </g>
</svg>
