<?xml version="1.0" encoding="UTF-8"?>
<!--Generator: Apple Native CoreSVG 326-->
<!DOCTYPE svg
PUBLIC "-//W3C//DTD SVG 1.1//EN"
       "http://www.w3.org/Graphics/SVG/1.1/DTD/svg11.dtd">
<svg version="1.1" xmlns="http://www.w3.org/2000/svg" xmlns:xlink="http://www.w3.org/1999/xlink" viewBox="0 0 651.25 651.75">
 <g>
  <rect height="651.75" opacity="0" width="651.25" x="0" y="0"/>
  <path d="M651.25 325.75C651.25 505 505 651.25 325.5 651.25C146.25 651.25 0 505 0 325.75C0 146.25 146.25 0 325.5 0C505 0 651.25 146.25 651.25 325.75ZM124.25 169.5L101 238.75C97 250.5 105.5 262.5 117.5 263.25L155.75 266.25C158.5 266.25 160.5 268.5 160.5 271.5L160.5 341.25C160.5 355.25 165 369 173.5 380L218.5 438L195.5 514.25C192.5 524.25 198.25 535 208 537.5C217.5 540 228 536 231.25 525L257.25 439.25C257.75 437.5 258 436 258 434.25L327.5 522.5C334 530.5 346 532.25 353.75 525.75C362.25 519 363.75 507.5 357 499.25L232.5 342.25L238.25 286C238.75 282.25 242.25 280.25 245.75 282L289.25 303.5C292.25 305 297 306.25 301.75 306.25L368 306.25C372.75 306.25 376.75 305 380 302L411.5 274.75C415 272.25 418.75 273.5 420 277.25L438 326.5L363.25 346.75C355.75 348.75 350 355.25 349.25 363.25L341 449.25C339.5 461.5 350.25 469.5 359.5 469.5C369.25 469.5 377.25 462.75 378 452.5L385.25 381.25L437.5 373.25L412.5 423.5C409.75 429 408.25 434.75 410.5 440.75L444.75 526.5C449.25 537 460.75 540.5 469.75 537C479.25 533.25 483.75 522.25 480 512.75L449.5 436L491.5 376C502.25 360.75 506 341.5 503 323.75L496.25 287.25C495.5 282.75 499.5 279.75 503.75 281L525.5 288C540.25 293 551.75 284.25 550 269.25L542.5 190.75C541.5 179.5 531.75 172.5 522 173.5C512 174.5 503.5 183.25 504.75 194.5L510 243.5L458.25 226.25C437 219.25 414.25 223.25 397 238L361 269L303.5 269L248.25 241.25C239.75 236.75 231.25 234.5 222 233.75L144.25 228L159.75 181.5C162.75 171.25 158 161 148 157.25C138.25 154.25 127.75 159.75 124.25 169.5ZM185.5 178.5C185.5 199.25 202.25 216.25 223 216.25C243.75 216.25 260.75 199.25 260.75 178.5C260.75 157.75 243.75 141 223 141C202.25 141 185.5 157.75 185.5 178.5ZM404.75 171.25C404.75 191.75 421.5 208.75 442.25 208.75C463 208.75 480 191.75 480 171.25C480 150.25 463 133.5 442.25 133.5C421.5 133.5 404.75 150.25 404.75 171.25Z" fill="black" fill-opacity="0.85"/>
 </g>
</svg>
