<?xml version="1.0" encoding="UTF-8"?>
<!--Generator: Apple Native CoreSVG 326-->
<!DOCTYPE svg
PUBLIC "-//W3C//DTD SVG 1.1//EN"
       "http://www.w3.org/Graphics/SVG/1.1/DTD/svg11.dtd">
<svg version="1.1" xmlns="http://www.w3.org/2000/svg" xmlns:xlink="http://www.w3.org/1999/xlink" viewBox="0 0 651.25 651.75">
 <g>
  <rect height="651.75" opacity="0" width="651.25" x="0" y="0"/>
  <path d="M651.25 325.75C651.25 505 505 651.25 325.5 651.25C146.25 651.25 0 505 0 325.75C0 146.25 146.25 0 325.5 0C505 0 651.25 146.25 651.25 325.75ZM328.25 191.75L251.75 195.5C242 196 234 202 233.25 213.5L228.5 283C228.5 287.75 230.25 291.75 233.25 294.25L113.75 410.5C109.75 414.5 109.5 421 113.5 425C117.25 428.5 124.25 428.75 128.25 424.75L259.5 297.25C262.75 294.25 264.5 289.25 265 282.5L267.75 229.75L313.5 228L278.75 290.5C267.75 310.5 272.75 332.75 293.25 344.5L361.25 383.25L361.25 475C361.25 476.5 361.25 478.5 362 479.75L215.25 479.75L291 409.25C295.5 405 296.75 402.5 298.75 397.75L309 373.25L284.75 359C279.75 356 275.75 353.5 272.5 349.5L263.25 385.5L186.5 456.5C178.25 464 178.75 473.25 183 479.75L133.5 479.75C127.75 479.75 123 484.25 123 489.75C123 495 127.5 500.5 133.5 500.5L480.25 500.5C498.5 500.5 509.75 495.75 522.75 489.75C528.25 487 530 481.25 528.25 476.5C526.25 471.5 520.5 467.75 514.25 471.25C504 476.25 495.25 479.75 480.25 479.75L396.5 479.75C397 478.5 397.5 476.5 397.5 475L397.5 371.5C397.5 366 395.75 362.25 389.5 357.25L341.25 318.75L378.25 253.75L438.5 299.5C446.75 305.75 457.5 305 465 296.75L490.5 268.5L477 450C476.75 455.5 481 460.75 486.5 461.25C492 461.5 497.25 457.25 497.5 451.5L513.75 236.25C514.75 221.5 494 209.5 480.5 225L449.75 261L397 218C377.75 202.25 359.75 190 328.25 191.75ZM357.5 150.75C357.5 172.25 375.5 190.25 397 190.25C418.75 190.25 436.25 172.25 436.25 150.75C436.25 129 418.75 111.25 397 111.25C375.5 111.25 357.5 129 357.5 150.75Z" fill="black" fill-opacity="0.85"/>
 </g>
</svg>
