<?xml version="1.0" encoding="UTF-8"?>
<!--Generator: Apple Native CoreSVG 326-->
<!DOCTYPE svg
PUBLIC "-//W3C//DTD SVG 1.1//EN"
       "http://www.w3.org/Graphics/SVG/1.1/DTD/svg11.dtd">
<svg version="1.1" xmlns="http://www.w3.org/2000/svg" xmlns:xlink="http://www.w3.org/1999/xlink" viewBox="0 0 651.25 651.75">
 <g>
  <rect height="651.75" opacity="0" width="651.25" x="0" y="0"/>
  <path d="M325.5 651.25C505.25 651.25 651.25 505.5 651.25 325.75C651.25 146 505.25 0 325.5 0C145.75 0 0 146 0 325.75C0 505.5 145.75 651.25 325.5 651.25ZM325.5 604.75C171.25 604.75 46.5 480 46.5 325.75C46.5 171.5 171.25 46.75 325.5 46.75C479.75 46.75 604.5 171.5 604.5 325.75C604.5 480 479.75 604.75 325.5 604.75Z" fill="black" fill-opacity="0.85"/>
  <path d="M339.75 191C361 191 378.25 173.75 378.25 152.25C378.25 130.75 361 113.5 339.75 113.5C318 113.5 300.75 130.75 300.75 152.25C300.75 173.75 318 191 339.75 191ZM175.5 518.25C182.5 525 193.5 526.25 201.5 518.25L279.25 440.5C284.25 436 284.75 432.25 284.5 425.25L280 374.25C279.75 371.5 282.5 370.25 284.5 372L340.5 420.5L369.75 510.5C373.25 521.25 383.75 525.25 392.75 522.5C403 519.5 408 509.25 405 499.5L374.75 404.5C373.75 401.75 372.25 398.75 370 396.75L310.25 337.25L348.75 260C350.25 256.75 354 256.25 356.75 258.75L400 302.5C402 304.5 405 306.25 407.5 307L494.25 332.75C501.5 335 513.25 332 517.25 320.25C520 310.5 514.5 300.25 504.5 297.25L422.75 273L375.75 226C365.25 215.25 352.75 210.25 338.5 210.25L214.5 210.25C207.25 210.25 201 214.25 198.25 220.5L163.25 289.75C158.75 298.5 162 309.75 171.5 314.25C180.75 318.5 191.5 315.25 196.25 306L225.75 247.25L262.25 247.25C266.5 247.25 269 251.5 267 255L240 309C230.5 328.25 227.75 350.5 233.25 371.25L246 421.75L175.25 492C168 499 168.25 511 175.5 518.25ZM499.75 437.25C523 437.25 541.75 418.5 541.75 395C541.75 371.75 523 353 499.75 353C476.25 353 457.25 371.75 457.25 395C457.25 418.5 476.25 437.25 499.75 437.25Z" fill="black" fill-opacity="0.85"/>
 </g>
</svg>
