<?xml version="1.0" encoding="UTF-8"?>
<!--Generator: Apple Native CoreSVG 326-->
<!DOCTYPE svg
PUBLIC "-//W3C//DTD SVG 1.1//EN"
       "http://www.w3.org/Graphics/SVG/1.1/DTD/svg11.dtd">
<svg version="1.1" xmlns="http://www.w3.org/2000/svg" xmlns:xlink="http://www.w3.org/1999/xlink" viewBox="0 0 651.25 651.75">
 <g>
  <rect height="651.75" opacity="0" width="651.25" x="0" y="0"/>
  <path d="M651.25 325.75C651.25 505 505 651.25 325.5 651.25C146.25 651.25 0 505 0 325.75C0 146.25 146.25 0 325.5 0C505 0 651.25 146.25 651.25 325.75ZM261.25 110.25C246 125.25 238.5 155.5 234 177.5L206.5 205C198.5 213 199.75 224.25 207.25 231.75L261.75 285.75C265 289 269.5 291 274.5 291L311.25 291C312.25 291 312.75 293 311.75 293.75L273.75 312.25C241.5 328.25 234 371 266.75 395.25L334.25 444.75L295 523C290.5 532 294.25 543.5 303 548C311.5 552 323 549.5 327.75 539.75L373.25 449C377 441.75 377.5 432.75 369.25 424.5L314.75 370.5L385.75 335C389 333.25 392.75 333.75 395.5 336.5L492.75 433.5C500.25 441 511.75 440.5 518.25 433.5C525.5 426.25 525.5 414.5 518.25 407.25L375.25 264.25C368.75 257.75 362 254.25 353.25 254.25L282 254.25L233.5 205L247.75 190.75C269.25 186.5 300 178.5 314.25 163.75C341.25 137.25 342 117.25 324.5 100C307.25 83.25 287.5 83.75 261.25 110.25ZM224 438.5L145.25 438.5C135.25 438.5 126.75 447.25 126.75 457.25C126.75 467.75 135.25 475.75 145.25 475.75L237.75 475.75C245.25 475.75 251.75 470.25 255 463.5L276.25 421L257.5 407.75C246.75 399.5 242.25 394 240.5 389.75ZM388.75 231.5C388.75 253.75 406.5 271.75 428.75 271.75C450.75 271.75 468.25 253.75 468.25 231.5C468.25 209.75 450.75 191.75 428.75 191.75C406.5 191.75 388.75 209.75 388.75 231.5ZM311.5 113.75C321 123.5 318 132.75 301.25 150.25C290.25 160.5 270 165.5 255.25 170C259 154.5 264.25 134.75 274.75 124C292 107 301.25 104 311.5 113.75Z" fill="black" fill-opacity="0.85"/>
 </g>
</svg>
