<?xml version="1.0" encoding="UTF-8"?>
<!--Generator: Apple Native CoreSVG 326-->
<!DOCTYPE svg
PUBLIC "-//W3C//DTD SVG 1.1//EN"
       "http://www.w3.org/Graphics/SVG/1.1/DTD/svg11.dtd">
<svg version="1.1" xmlns="http://www.w3.org/2000/svg" xmlns:xlink="http://www.w3.org/1999/xlink" viewBox="0 0 723.251 723.564">
 <g>
  <rect height="723.564" opacity="0" width="723.251" x="0" y="0"/>
  <path d="M34.8753 430.407L293.125 688.657C338.875 734.407 384.875 734.657 430.125 689.407L689.375 429.907C734.625 384.657 734.625 338.657 688.875 292.907L430.625 34.6568C384.875-11.3432 339.125-11.5932 293.625 34.1568L33.8753 293.407C-11.6247 338.907-11.1247 384.657 34.8753 430.407ZM66.6253 399.907C41.6253 375.157 41.3753 348.657 66.8753 323.407L323.375 66.9068C348.625 41.4068 374.875 41.6568 399.875 66.6568L656.625 323.407C681.375 348.157 682.125 374.907 656.625 400.157L400.125 656.407C374.625 681.907 348.125 681.407 323.625 656.907Z" fill="black" fill-opacity="0.85"/>
  <path d="M283.125 550.907L339.125 483.907C344.625 477.407 345.375 475.907 347.625 469.157L351.875 455.407L322.375 417.907L313.125 461.157L257.625 527.157C239.625 547.657 268.375 568.157 283.125 550.907ZM420.125 545.657C431.625 568.657 465.875 554.407 453.375 529.407L415.375 451.907C412.375 446.157 408.375 440.157 404.875 434.907L380.375 400.157L382.125 395.157C388.875 375.907 391.375 364.157 392.625 344.907L396.125 290.907C398.125 264.907 382.625 245.907 356.625 245.907C337.125 245.907 323.875 255.907 305.625 273.657L277.125 301.907C267.875 310.907 264.625 318.407 263.625 330.407L260.625 374.657C259.875 385.657 265.875 393.407 275.875 393.907C286.375 394.657 292.375 388.657 293.375 376.907L297.625 328.157L311.375 315.907C316.375 311.407 323.375 313.907 322.875 319.657L319.875 360.407C318.125 381.157 323.125 391.157 337.375 408.907L375.125 456.407C379.125 461.157 379.375 462.907 381.125 466.157ZM485.375 319.157L441.875 319.157L413.875 288.157L410.875 332.407L422.625 344.407C428.625 350.407 433.875 352.157 444.875 352.157L485.375 352.157C496.375 352.157 503.625 345.907 503.625 335.657C503.625 325.657 496.375 319.157 485.375 319.157ZM377.625 228.657C399.375 228.657 416.875 211.157 416.875 189.407C416.875 167.407 399.375 149.907 377.625 149.907C355.625 149.907 337.875 167.407 337.875 189.407C337.875 211.157 355.625 228.657 377.625 228.657Z" fill="black" fill-opacity="0.85"/>
 </g>
</svg>
