<?xml version="1.0" encoding="UTF-8"?>
<!--Generator: Apple Native CoreSVG 326-->
<!DOCTYPE svg
PUBLIC "-//W3C//DTD SVG 1.1//EN"
       "http://www.w3.org/Graphics/SVG/1.1/DTD/svg11.dtd">
<svg version="1.1" xmlns="http://www.w3.org/2000/svg" xmlns:xlink="http://www.w3.org/1999/xlink" viewBox="0 0 651.25 651.75">
 <g>
  <rect height="651.75" opacity="0" width="651.25" x="0" y="0"/>
  <path d="M651.25 325.75C651.25 505 505 651.25 325.5 651.25C146.25 651.25 0 505 0 325.75C0 146.25 146.25 0 325.5 0C505 0 651.25 146.25 651.25 325.75ZM325 481.75C289.5 481.75 277.25 451.75 229.75 451.75C182.25 451.75 170 481.75 134 481.75L133.25 481.75C127.75 481.75 123 486.75 123 492.25C123 497.5 127.75 502.5 133.25 502.5L134 502.5C184 502.5 195.25 472 229.75 472C263.5 472 275.25 502.5 325 502.5C374.75 502.5 386.25 472 420.5 472C454.75 472 466 502.5 515.5 502.5L516.5 502.5C522 502.5 527 497.5 527 492.25C527 486.75 522 481.75 516.5 481.75L515.5 481.75C480 481.75 467.75 451.75 420.5 451.75C373 451.75 360.5 481.75 325 481.75ZM295.5 95L126 402.75C118.75 415.75 126.5 428.5 140 428.5L386.25 428.5L460.75 352C464.25 348.5 470.5 348.75 473.75 352L504.75 383L473 414.5C456.5 431.25 481.25 456 497.75 439.75L541.75 395.5C549 387.75 549 377.5 541.75 370.25L490.5 318.75C480.25 308.75 467 303.25 453.25 303.25L326.25 303.25L326.25 99.5C326.25 84.75 304.75 78.5 295.5 95ZM306 125L306 407.75L150.25 407.75C148 407.75 147.75 406.5 148.75 405L303 124.75C304 122.5 306 123 306 125ZM366 344.25L326.25 383.75L326.25 338.75L363.5 338.75C367 338.75 368.5 341.75 366 344.25ZM401 243.5C401 265.25 419 283.25 441 283.25C463 283.25 481 265.25 481 243.5C481 221.25 463 203.5 441 203.5C419 203.5 401 221.25 401 243.5Z" fill="black" fill-opacity="0.85"/>
 </g>
</svg>
