<?xml version="1.0" encoding="UTF-8"?>
<!--Generator: Apple Native CoreSVG 326-->
<!DOCTYPE svg
PUBLIC "-//W3C//DTD SVG 1.1//EN"
       "http://www.w3.org/Graphics/SVG/1.1/DTD/svg11.dtd">
<svg version="1.1" xmlns="http://www.w3.org/2000/svg" xmlns:xlink="http://www.w3.org/1999/xlink" viewBox="0 0 651.25 651.75">
 <g>
  <rect height="651.75" opacity="0" width="651.25" x="0" y="0"/>
  <path d="M651.25 325.75C651.25 505 505 651.25 325.5 651.25C146.25 651.25 0 505 0 325.75C0 146.25 146.25 0 325.5 0C505 0 651.25 146.25 651.25 325.75ZM469 146L361 203.5C349 209.75 337 212.5 325.25 212.5C313.5 212.5 301.75 209.75 289.75 203.5L181.5 146C173.75 142 163.5 144.75 159.25 153.25C154.75 161.75 157.75 171.25 166 176L277.5 235.5C281 237.25 283.25 240.75 283.25 244.5L283.25 326.75L250.25 417.5L217.25 509C213.75 517.25 218.5 527.25 227 530.5C235 533.25 244.75 530.25 248.75 520.25L281.5 429.75L325.25 360.5L369.25 429.75L402 520.25C405.75 530.25 415.5 533.25 423.5 530.5C432.25 527.25 437 517.25 433.5 509L400.5 417.5L367.5 326.75L367.5 244.5C367.5 240.75 369.5 237.25 373.25 235.5L484.5 176C493 171.25 496 161.75 491.5 153.25C487 144.75 477 142 469 146ZM286 153.25C286 175.25 303.75 193 325.25 193C346.5 193 364.25 175.25 364.25 153.25C364.25 132 346.5 114.5 325.25 114.5C303.75 114.5 286 132 286 153.25Z" fill="black" fill-opacity="0.85"/>
 </g>
</svg>
