<?xml version="1.0" encoding="UTF-8"?>
<!--Generator: Apple Native CoreSVG 326-->
<!DOCTYPE svg
PUBLIC "-//W3C//DTD SVG 1.1//EN"
       "http://www.w3.org/Graphics/SVG/1.1/DTD/svg11.dtd">
<svg version="1.1" xmlns="http://www.w3.org/2000/svg" xmlns:xlink="http://www.w3.org/1999/xlink" viewBox="0 0 651.25 651.75">
 <g>
  <rect height="651.75" opacity="0" width="651.25" x="0" y="0"/>
  <path d="M651.25 325.75C651.25 505 505 651.25 325.5 651.25C146.25 651.25 0 505 0 325.75C0 146.25 146.25 0 325.5 0C505 0 651.25 146.25 651.25 325.75ZM347.5 161.75L329.25 224L169.75 294.25C159 299 155.25 307 157.25 319L168.25 386.25C172.25 410.5 205.5 405.5 201.75 381.25L192.5 323.25L230.5 308.25C236.25 306.25 241.5 307.25 244 312.5L278.75 381.75C289.25 402.5 298.25 408.75 306.5 415L419.5 498C439.25 512.25 462.5 483.75 440.5 467.5L352.5 403C348.25 399.75 348.5 393.75 353.5 391.25L413.25 356.5L491.75 394C513.75 404.5 531.5 373.75 505.5 361.25L422 321.25C412 316.5 402.75 318.25 394.5 323L354.75 346C349.5 348.75 345.75 347.5 343.75 343.25L312.25 279C309 272.75 309.75 267 316.25 264L345.25 250.5C354.75 246.25 358.25 243.25 361.25 234L379.25 170.75C386 146.5 354 138.25 347.5 161.75ZM189.5 199.75C189.5 222.25 207.5 240.25 230 240.25C252.5 240.25 270.5 222.25 270.5 199.75C270.5 177 252.5 159.25 230 159.25C207.5 159.25 189.5 177 189.5 199.75Z" fill="black" fill-opacity="0.85"/>
 </g>
</svg>
