<?xml version="1.0" encoding="UTF-8"?>
<!--Generator: Apple Native CoreSVG 326-->
<!DOCTYPE svg
PUBLIC "-//W3C//DTD SVG 1.1//EN"
       "http://www.w3.org/Graphics/SVG/1.1/DTD/svg11.dtd">
<svg version="1.1" xmlns="http://www.w3.org/2000/svg" xmlns:xlink="http://www.w3.org/1999/xlink" viewBox="0 0 651.25 651.75">
 <g>
  <rect height="651.75" opacity="0" width="651.25" x="0" y="0"/>
  <path d="M651.25 325.75C651.25 505 505 651.25 325.5 651.25C146.25 651.25 0 505 0 325.75C0 146.25 146.25 0 325.5 0C505 0 651.25 146.25 651.25 325.75ZM459.5 207.75C459.5 238.25 483 272.25 492 284L492 308.25C490.25 308.25 488.5 308 486.75 308L420 308L341 229.25C331.75 220 319.25 215 305.75 215L150.5 215C140.25 215 132 223.25 132 233.5C132 243.5 140.25 252 150.5 252L267.75 252C269.5 252 270.25 255.25 268.5 256.5L233.5 273.5C215 282.75 205.75 300 205.75 317.25C205.75 332.5 212.75 347.5 226.5 357.5L294.75 407.5L255.25 486.5C248.75 499.5 255.75 509.5 265.25 513.25C273.25 516.25 283.5 514 288.75 503.25L335.75 410C339 402.75 338.5 394.5 332 388.25L275.75 331.75L347.25 296.25C350.5 294.5 354 295.25 356.75 297.75L399 340C402.25 343.5 407 345.5 412 345.5L493.5 345.5C503.5 345.5 512 337.25 512 327L512 284.25C521 273 544.75 238.5 544.75 207.75C544.75 183.25 526.75 165 502.25 165C478 165 459.5 183.25 459.5 207.75ZM184 401.5L110.5 401.5C100.5 401.5 92.25 410 92.25 420.25C92.25 430.25 100.5 438.75 110.5 438.75L197.5 438.75C204.5 438.75 211.25 434.75 214.25 428.75L236.25 383.75L217.25 369.75C207.5 363 203.25 356.5 200.25 351.5ZM524.5 207.75C524.5 225.25 511 249.5 502.25 263.25C493.5 249.5 480 225.25 480 207.75C480 194.75 489 185.5 502.25 185.5C515.5 185.5 524.5 194.75 524.5 207.75ZM353.25 195.5C353.25 218 371 235.75 393 235.75C415.25 235.75 433 218 433 195.5C433 173.75 415.25 155.75 393 155.75C371 155.75 353.25 173.75 353.25 195.5Z" fill="black" fill-opacity="0.85"/>
 </g>
</svg>
