<?xml version="1.0" encoding="UTF-8"?>
<!--Generator: Apple Native CoreSVG 326-->
<!DOCTYPE svg
PUBLIC "-//W3C//DTD SVG 1.1//EN"
       "http://www.w3.org/Graphics/SVG/1.1/DTD/svg11.dtd">
<svg version="1.1" xmlns="http://www.w3.org/2000/svg" xmlns:xlink="http://www.w3.org/1999/xlink" viewBox="0 0 651.25 651.75">
 <g>
  <rect height="651.75" opacity="0" width="651.25" x="0" y="0"/>
  <path d="M651.25 325.75C651.25 505 505 651.25 325.5 651.25C146.25 651.25 0 505 0 325.75C0 146.25 146.25 0 325.5 0C505 0 651.25 146.25 651.25 325.75ZM94.5 399.25C94.5 404.75 99.5 409.5 104.75 409.5C160.25 409.5 221.5 430 256.5 521.25C260.5 531.25 271.5 532.5 277.75 526.25C318.75 485.5 365.75 471.75 433.25 491C439.5 492.5 443.5 489.75 446.25 484.25C460 452 489.5 435.75 524.25 435.75C529.75 435.75 534.5 430.75 534.5 425.5C534.5 420 529.75 415.25 524.25 415.25C485.5 415.25 449.5 434.25 430.75 469C365.25 453.25 314 466 271.75 503.5C231.5 411.5 162.75 389 104.75 389C99.5 389 94.5 393.25 94.5 399.25ZM452 123.25L324.25 251.25C320.75 254.75 319 259.25 319 264.75L319 332.75L253.75 332.75C237.75 332.75 226.25 344.25 226.25 360.75L226.25 402.25C246.25 417.25 264.75 437.75 280.75 465.25C290.25 459 300.25 454.25 310.25 449.75L310.25 374.5C310.25 372.25 312.25 369.75 314.75 369.75L338 369.75C348 369.75 356.5 361.5 356.5 351.5L356.5 247.5L369.25 234.75L369.25 314C369.25 324.5 377.75 332.5 388 332.5C398.25 332.5 406.75 324.5 406.75 314L406.75 197.25L466 137.5C470 133.25 470.25 127 466 123.25C462.5 119.5 456 119.25 452 123.25ZM221.25 277C221.25 299 239.25 317 261.5 317C283.25 317 301 299 301 277C301 255 283.25 237.25 261.5 237.25C239.25 237.25 221.25 255 221.25 277Z" fill="black" fill-opacity="0.85"/>
 </g>
</svg>
