<?xml version="1.0" encoding="UTF-8"?>
<!--Generator: Apple Native CoreSVG 326-->
<!DOCTYPE svg
PUBLIC "-//W3C//DTD SVG 1.1//EN"
       "http://www.w3.org/Graphics/SVG/1.1/DTD/svg11.dtd">
<svg version="1.1" xmlns="http://www.w3.org/2000/svg" xmlns:xlink="http://www.w3.org/1999/xlink" viewBox="0 0 651.25 651.75">
 <g>
  <rect height="651.75" opacity="0" width="651.25" x="0" y="0"/>
  <path d="M651.25 325.75C651.25 505 505 651.25 325.5 651.25C146.25 651.25 0 505 0 325.75C0 146.25 146.25 0 325.5 0C505 0 651.25 146.25 651.25 325.75ZM317 209.25C302 209.25 290.5 211.75 276 222.75L214.75 268.5C204.25 276.25 205.5 291.5 216 298.75L290.5 349L290.5 353.5L258.25 444L173.25 467.25C163.5 469.75 157.5 480 160.25 490C163.25 500.25 172.75 505.75 183 502.75L274 478.25C281.25 476 285.5 474 288.25 468.5L328.5 396C329.25 394.75 329.75 394.25 331.5 394.25L429.5 394.25L429.5 487C429.5 497.5 438 505.5 448.25 505.5C458.5 505.5 466.5 497.5 466.5 487L466.5 378C466.5 365.5 460 358.75 447.5 357.5L364.75 349.75L364.75 246.25C364.75 225.75 350.5 209.25 325.5 209.25ZM290.5 264.25L290.5 304.25L258.25 282.5L285.75 261.75C288 260 290.5 261.5 290.5 264.25ZM285.5 149.25C285.5 171.25 303.25 189.25 325.5 189.25C347.25 189.25 365.25 171.25 365.25 149.25C365.25 127.25 347.25 109.5 325.5 109.5C303.25 109.5 285.5 127.25 285.5 149.25Z" fill="black" fill-opacity="0.85"/>
 </g>
</svg>
