<?xml version="1.0" encoding="UTF-8"?>
<!--Generator: Apple Native CoreSVG 326-->
<!DOCTYPE svg
PUBLIC "-//W3C//DTD SVG 1.1//EN"
       "http://www.w3.org/Graphics/SVG/1.1/DTD/svg11.dtd">
<svg version="1.1" xmlns="http://www.w3.org/2000/svg" xmlns:xlink="http://www.w3.org/1999/xlink" viewBox="0 0 615 746.25">
 <g>
  <rect height="746.25" opacity="0" width="615" x="0" y="0"/>
  <path d="M307.75 157.5C346 157.5 377 126.5 377 88.25C377 50 346 19 307.75 19C269.5 19 238.5 50 238.5 88.25C238.5 126.5 269.5 157.5 307.75 157.5ZM571.75 218C558.75 205.25 538.75 205.5 526 218L448.75 295L371 217C356 201.5 332 192 307.75 192L99.5 192C85.25 192 73.5 200.5 68.5 214.5L18.75 364.25C11 387.25 24.5 403 40.5 407C55.75 411 73.25 404.5 80 384.5L123 257L191.75 257C198.25 257 202.5 262.5 200.5 269L158.25 395.75C144.5 437 157 476.75 203.25 496.75L338.5 556.25L384.25 716.25C390 736.25 408.5 742.25 423.75 738.25C439.75 734 452.75 719.5 446.75 698.25L396.5 523.25C393.75 514 389.25 507.5 378.5 502.75L273 456L329.25 287C331.5 280 339.75 277.5 345.25 283L425.25 364.25C438 377 459 377 471.75 364.25L571.75 264.25C585 251 585 231.25 571.75 218ZM169 512L153 603L16.75 679C-2.75 689.5-3.25 709.75 5.25 724.25C13.5 737.5 30.75 745.75 48.75 735.75L198.75 652.5C208 647.25 211.25 641.25 214.5 631.5L242.75 546.5L191.25 524C183.25 520.5 175.75 516.25 169 512ZM598 158.5C608.5 153.25 615 143.25 615 132.75L615 30.5C615 13.75 602.25 0 585.25 0L512 0C495.25 0 482.25 13.75 482.25 30.5L482.25 132.75C482.25 143.25 489 153.25 499.25 158.5L548.75 183.75ZM533 240.75L564.75 240.75L564.75 149.75L533 149.75Z" fill="black" fill-opacity="0.85"/>
 </g>
</svg>
