<?xml version="1.0" encoding="UTF-8"?>
<!--Generator: Apple Native CoreSVG 326-->
<!DOCTYPE svg
PUBLIC "-//W3C//DTD SVG 1.1//EN"
       "http://www.w3.org/Graphics/SVG/1.1/DTD/svg11.dtd">
<svg version="1.1" xmlns="http://www.w3.org/2000/svg" xmlns:xlink="http://www.w3.org/1999/xlink" viewBox="0 0 665 840.75">
 <g>
  <rect height="840.75" opacity="0" width="665" x="0" y="0"/>
  <path d="M477.089 90.5L187.911 90.5C189.512 67.8223 204.218 54.5 228.25 54.5L436.75 54.5C460.782 54.5 475.488 67.8223 477.089 90.5Z" fill="black" fill-opacity="0.85"/>
  <path d="M541.604 177.715C532.72 176.365 523.31 175.75 513.5 175.75L151.5 175.75C141.598 175.75 132.108 176.37 123.153 177.729C126.577 151.372 144.887 136.5 174.25 136.5L490.75 136.5C520.108 136.5 538.216 151.367 541.604 177.715Z" fill="black" fill-opacity="0.85"/>
  <path d="M610.75 326.25L610.75 690.25C610.75 754 578 786.75 513.5 786.75L151.5 786.75C86.75 786.75 54.25 754.25 54.25 690.25L54.25 326.25C54.25 262.5 86.75 230 151.5 230L513.5 230C578 230 610.75 262.75 610.75 326.25ZM259.75 612.75L198 673.75C188.75 683 190.25 694.5 197.75 701.5C205 707 214.75 707.5 224 698.75L283 640.25C288.25 635 289.25 634.25 292.25 626.25L318.75 560.25L312.5 556.75C300.75 550 289.25 543.25 282.5 533.5ZM324 396.25L259.75 400.75C249.75 401.5 242.75 408.25 241.5 418.5L232.75 483.5C231.25 494.75 236.75 502.5 246.75 503.75C256.5 504.75 262.75 498.5 264.75 487.5L272.5 434L298.75 432.25C304.5 432 310.25 436 308.25 443L293.25 495.5C284.25 526.25 304.25 534.75 320 543.5L390 582.75L344.75 621.75C335.5 629.5 335.25 640.5 341.25 647C347.5 654 358 655 367.75 646.5L430.75 593C439.25 586 437.75 570.25 427.75 563.75L359 518.75L372.75 471.25C374.5 464.25 382.75 463.25 386.5 469.25L406.75 498.5C411.25 505.5 420 508 427.75 504.75L485.5 478.75C495.75 474.25 499.75 465.5 495 456C491 447 482.25 444.25 472 449L425.75 469.5L394.25 425.5C377.75 402.75 357.25 394 324 396.25ZM342.75 345C342.75 366.75 360.5 384.75 382.25 384.75C404.5 384.75 421.75 366.75 421.75 345C421.75 323 404.5 305.25 382.25 305.25C360.5 305.25 342.75 323 342.75 345Z" fill="black" fill-opacity="0.85"/>
 </g>
</svg>
