<?xml version="1.0" encoding="UTF-8"?>
<!--Generator: Apple Native CoreSVG 326-->
<!DOCTYPE svg
PUBLIC "-//W3C//DTD SVG 1.1//EN"
       "http://www.w3.org/Graphics/SVG/1.1/DTD/svg11.dtd">
<svg version="1.1" xmlns="http://www.w3.org/2000/svg" xmlns:xlink="http://www.w3.org/1999/xlink" viewBox="0 0 628.563 793.75">
 <g>
  <rect height="793.75" opacity="0" width="628.563" x="0" y="0"/>
  <path d="M372.781 138.75C410.781 138.75 442.031 107.75 442.031 69C442.031 31 410.781 0.25 372.781 0.25C334.531 0.25 303.531 31 303.531 69C303.531 107.75 334.531 138.75 372.781 138.75ZM64.5315 520.25L273.281 520.25C302.281 520.25 315.031 488 298.781 468L233.281 387.75L420.281 375.5L596.031 375.5C613.781 375.5 628.531 361.25 628.531 343.25C628.531 325.75 613.781 311.25 596.031 311.25L271.031 311.25L348.031 234C351.281 230.75 355.781 228.75 360.531 229.25L590.531 259C609.531 261.5 626.531 247 626.531 227.25C626.531 211.5 614.781 197.75 598.531 195.5L116.781 134.75C106.531 133.5 97.2815 137 90.2815 143.75L9.28149 224.25C-3.21851 236.75-2.96851 256.25 9.28149 269.25C20.7815 281.25 42.0315 282.5 55.0315 269.25L124.281 200L199.531 209.5C206.531 210.25 209.281 217.75 204.281 223L133.281 293C105.531 320.5 104.281 364.25 133.281 393.5L195.531 456.25L64.5315 456.25C46.7815 456.25 32.2815 470.5 32.2815 488.25C32.2815 505.5 46.7815 520.25 64.5315 520.25ZM378.031 793.75C386.781 793.75 393.781 786.75 393.781 778L393.781 448C393.781 439 386.781 432 378.031 432C369.031 432 362.281 439 362.281 448L362.281 778C362.281 786.75 369.031 793.75 378.031 793.75Z" fill="black" fill-opacity="0.85"/>
 </g>
</svg>
