<?xml version="1.0" encoding="UTF-8"?>
<!--Generator: Apple Native CoreSVG 326-->
<!DOCTYPE svg
PUBLIC "-//W3C//DTD SVG 1.1//EN"
       "http://www.w3.org/Graphics/SVG/1.1/DTD/svg11.dtd">
<svg version="1.1" xmlns="http://www.w3.org/2000/svg" xmlns:xlink="http://www.w3.org/1999/xlink" viewBox="0 0 760.5 716.125">
 <g>
  <rect height="716.125" opacity="0" width="760.5" x="0" y="0"/>
  <path d="M288.25 344.938C326 344.938 357 313.688 357 275.188C357 237.188 326 206.188 288.25 206.188C249.5 206.188 218.5 237.188 218.5 275.188C218.5 313.688 249.5 344.938 288.25 344.938ZM323.5 593.188C339 583.438 355.5 575.188 372.5 568.688L372.5 445.188C372.5 440.938 376 437.188 380.5 437.188L420.75 437.188C438.5 437.188 453.25 422.438 453.25 404.688L453.25 205.688L388.25 259.938L388.25 372.688L274.75 372.688C246.25 372.688 226.5 392.438 226.5 420.688L226.5 484.438C261.75 510.438 295.25 545.688 323.5 593.188ZM502 371.938C519.75 371.938 534.5 358.188 534.5 339.688L534.5 126.188L469.5 190.938L469.5 339.688C469.5 358.188 484.25 371.938 502 371.938ZM388.25 282.938L420.75 282.938L420.75 253.688L646.75 27.4375C653 20.9375 653 10.9375 646.75 4.6875C640.5-1.5625 630.5-1.5625 624 4.6875L397 231.188C390.75 237.188 388.25 244.188 388.25 254.438ZM15.75 503.188C112.25 503.188 219.75 539.688 281.5 699.438C287.5 714.688 304.25 717.438 314.75 707.188C386 635.438 468.75 611.688 587.25 645.188C596.5 647.438 603 644.188 606.75 634.938C631.75 577.938 683.25 549.188 744.75 549.188C753.5 549.188 760.5 542.188 760.5 533.188C760.5 524.438 753.5 517.438 744.75 517.438C677.25 517.438 615 550.438 583.25 611.188C467.75 582.438 378.5 605.688 305 672.688C235.75 510.688 115.75 471.688 15.75 471.688C7 471.688 0 478.688 0 487.438C0 496.188 7 503.188 15.75 503.188Z" fill="black" fill-opacity="0.85"/>
 </g>
</svg>
