<?xml version="1.0" encoding="UTF-8"?>
<!--Generator: Apple Native CoreSVG 326-->
<!DOCTYPE svg
PUBLIC "-//W3C//DTD SVG 1.1//EN"
       "http://www.w3.org/Graphics/SVG/1.1/DTD/svg11.dtd">
<svg version="1.1" xmlns="http://www.w3.org/2000/svg" xmlns:xlink="http://www.w3.org/1999/xlink" viewBox="0 0 426.5 860.25">
 <g>
  <rect height="860.25" opacity="0" width="426.5" x="0" y="0"/>
  <path d="M213.25 230.75C250.75 230.75 281.5 200.25 281.5 162C281.5 124.5 250.75 94 213.25 94C175 94 144.5 124.5 144.5 162C144.5 200.25 175 230.75 213.25 230.75ZM167.25 860.25C183.75 860.25 198.25 845.75 198.25 829.25L198.25 663.5L213.25 540L228.25 663.5L228.25 829.25C228.25 845.75 242.5 860.25 259 860.25C275.75 860.25 289.75 845.75 289.75 829.25L289.75 387C289.75 383.5 294.75 382.75 296.25 386C335 457.5 357.75 521.75 367.25 549.25C372.75 565.25 390 574 406 568.5C418.75 564.25 426.5 552.5 426.5 539.75C426.5 536.5 426.25 533 425 530C423 523.25 370 365 303.75 290C290 274.25 269.5 264.75 247.25 264.75L179.25 264.75C157 264.75 136.25 274.25 122.5 290C56.5 365 3.5 523.25 1.5 530C0.5 533 0 536.75 0 540C0 552.5 7.75 564.25 20.5 568.5C36.25 574 53.5 565.25 59.25 549.25C68.75 521.75 91.25 457.5 130 386C131.75 382.75 136.75 383.5 136.75 387L136.75 829.25C136.75 845.75 150.75 860.25 167.25 860.25ZM213.25 31.5C329 31.5 395 136.5 395 317.75L395 540L426.5 540L426.5 317.75C426.5 115.25 349.5 0 213.25 0C77.25 0 0.25 115.25 0.25 317.75L0.25 540.25L32 540.25L32 317.75C32 136.5 97.75 31.5 213.25 31.5Z" fill="black" fill-opacity="0.85"/>
 </g>
</svg>
