<?xml version="1.0" encoding="UTF-8"?>
<!--Generator: Apple Native CoreSVG 326-->
<!DOCTYPE svg
PUBLIC "-//W3C//DTD SVG 1.1//EN"
       "http://www.w3.org/Graphics/SVG/1.1/DTD/svg11.dtd">
<svg version="1.1" xmlns="http://www.w3.org/2000/svg" xmlns:xlink="http://www.w3.org/1999/xlink" viewBox="0 0 809 678.75">
 <g>
  <rect height="678.75" opacity="0" width="809" x="0" y="0"/>
  <path d="M527.5 137.25C565 137.25 595.75 106.25 595.75 68.25C595.75 31 565 0 527.5 0C489.75 0 458.75 31 458.75 68.25C458.75 106.25 489.75 137.25 527.5 137.25ZM671 587.75C670.25 596.75 677.75 604.25 685.5 605C694.25 605.5 702.25 598.75 703 590L730.5 218.25L698.75 216ZM514.5 427.25L430.75 360.5L495 247.75L599.75 327.5C614 338.25 633.25 337 646 322.75L722.75 236.75C748.5 208.25 705.5 159.75 675.5 195L619.25 260.25L527.5 185.5C494.25 158.5 462.75 137.25 408 139.75L274.5 146.25C257.5 147 243.5 157.5 242.5 177.75L234.75 298.5C232.5 336.75 295 350 297.75 297.75L302.75 206L382.25 202.75L322 312C303 346.75 311.75 384.75 347 405.25L465 473.5L465 632.5C465 650 479 664 496.5 664C514.25 664 528.25 650 528.25 632.5L528.25 452.5C528.25 443 525.5 436 514.5 427.25ZM15.25 544.25C9 550.5 9 560.75 14.75 566.5C21 572.75 31.5 572.5 37.75 566.5L287.75 324L265.5 301.5ZM310.75 414.75L294.75 476.5L161.75 600.5C129 631 173 677.25 206.75 645.25L343.25 518C351 511 353.25 506.25 356.75 498L375 455.75L332.25 431C323.75 426 316.5 420.75 310.75 414.75ZM726 674.5C758 674.5 777 666.5 799.5 656C807.75 652.25 810.75 643.5 808 635.75C805.25 627.75 796.25 622.5 786 627.75C768 637 753.25 643 726 643L192 643C183.25 643 176 649.75 176 658.25C176 666.75 183 674.5 192 674.5ZM538.5 674.5L538.5 643L15.75 643C7.25 643 0 649.75 0 658.25C0 666.75 7 674.5 15.75 674.5Z" fill="black" fill-opacity="0.85"/>
 </g>
</svg>
