<?xml version="1.0" encoding="UTF-8"?>
<!--Generator: Apple Native CoreSVG 326-->
<!DOCTYPE svg
PUBLIC "-//W3C//DTD SVG 1.1//EN"
       "http://www.w3.org/Graphics/SVG/1.1/DTD/svg11.dtd">
<svg version="1.1" xmlns="http://www.w3.org/2000/svg" xmlns:xlink="http://www.w3.org/1999/xlink" viewBox="0 0 651.25 651.75">
 <g>
  <rect height="651.75" opacity="0" width="651.25" x="0" y="0"/>
  <path d="M325.5 651.25C505.25 651.25 651.25 505.5 651.25 325.75C651.25 146 505.25 0 325.5 0C145.75 0 0 146 0 325.75C0 505.5 145.75 651.25 325.5 651.25ZM325.5 604.75C171.25 604.75 46.5 480 46.5 325.75C46.5 171.5 171.25 46.75 325.5 46.75C479.75 46.75 604.5 171.5 604.5 325.75C604.5 480 479.75 604.75 325.5 604.75Z" fill="black" fill-opacity="0.85"/>
  <path d="M221.5 255.25C242.75 255.25 260 238 260 216.5C260 195.25 242.75 177.75 221.5 177.75C199.75 177.75 182.75 195.25 182.75 216.5C182.75 238 199.75 255.25 221.5 255.25ZM319.5 442L374.5 366.25L409.5 430C421 484.75 422.25 519 422.25 525.25C422.25 536.25 430.75 544.5 440.75 544.5C451.25 544.5 459 536.25 459 525.75C459 507.25 457.25 464.75 445 420L444.25 416.75C424.75 344.25 382.25 207.25 261.75 127C255.75 123.25 250.25 121.25 244 121.25L182.25 121.25C172.25 121.25 164 129.5 164 139.75C164 150 172.25 158.25 182.25 158.25L242.75 158.25C261.75 171.25 278.25 185.75 293.25 201C295.5 203 295.75 206 294.5 208.5L232.75 313.75C225 326.75 234.25 341.25 248.5 341.25L332.5 341.25L288.25 422.25L286.5 425.75L236.5 517.5C231.75 526.25 235 537.5 243.75 542.25C252.25 546.75 263 545 268.75 534.75ZM280.5 304.5L293.75 281.25C296 277.5 300.5 278 302.25 280.75L318 304.5Z" fill="black" fill-opacity="0.85"/>
 </g>
</svg>
