<?xml version="1.0" encoding="UTF-8"?>
<!--Generator: Apple Native CoreSVG 326-->
<!DOCTYPE svg
PUBLIC "-//W3C//DTD SVG 1.1//EN"
       "http://www.w3.org/Graphics/SVG/1.1/DTD/svg11.dtd">
<svg version="1.1" xmlns="http://www.w3.org/2000/svg" xmlns:xlink="http://www.w3.org/1999/xlink" viewBox="0 0 651.25 651.75">
 <g>
  <rect height="651.75" opacity="0" width="651.25" x="0" y="0"/>
  <path d="M651.25 325.75C651.25 505 505 651.25 325.5 651.25C146.25 651.25 0 505 0 325.75C0 146.25 146.25 0 325.5 0C505 0 651.25 146.25 651.25 325.75ZM442.5 118.5C433 118.5 425.5 126.25 425.5 136L425.5 194.75C425.5 201 429.5 206.75 435.25 209.75L453.75 219L453.75 238.25C452.25 238.75 451 239.75 450 240.75L406.25 284.25L361.75 239.75C353 230.75 339 225.25 325.25 225.25L205.5 225.25C197 225.25 190.5 230.25 187.75 238.5L159 324.25C154.5 337.5 162.25 346.75 171.25 349C180.25 351.25 190 347.75 194 335.75L218.75 262.5L258.5 262.5C262 262.5 264.75 265.75 263.5 269.5L239 342.5C231 366.25 238.25 388.75 265 400.75L342.75 434.75L368.5 523.5C372 535.25 382.25 538.75 391.25 536.25C400.25 534 408 525.75 404.5 513.25L376 415.75C374.5 410.5 372 406.75 366 404L305.25 377.25L337.5 279.75C338.75 276 343.5 274.25 346.75 277.5L392.75 324.25C400 331.75 412.5 331.75 419.75 324.25L477.25 266.75C486.25 257.75 483.5 244.75 474.25 238L474.25 219L492.25 209.75C498 206.75 501.75 201 501.75 194.75L501.75 136C501.75 126.25 494.75 118.5 485.25 118.5ZM236.25 461.75L166.5 500.5C154.75 507.25 154.75 518.5 159.75 526.75C164.75 534.25 174 539.5 185 533.25L262.75 490C267.75 487 269.5 483.75 271.5 478L288 428.5L258.5 415.25C252.75 412.75 248.25 410.25 245.5 408.25ZM285.5 165.5C285.5 187.5 303 205.5 325.25 205.5C347.5 205.5 365 187.5 365 165.5C365 143.5 347.5 125.5 325.25 125.5C303 125.5 285.5 143.5 285.5 165.5Z" fill="black" fill-opacity="0.85"/>
 </g>
</svg>
