<?xml version="1.0" encoding="UTF-8"?>
<!--Generator: Apple Native CoreSVG 326-->
<!DOCTYPE svg
PUBLIC "-//W3C//DTD SVG 1.1//EN"
       "http://www.w3.org/Graphics/SVG/1.1/DTD/svg11.dtd">
<svg version="1.1" xmlns="http://www.w3.org/2000/svg" xmlns:xlink="http://www.w3.org/1999/xlink" viewBox="0 0 585.293 730.25">
 <g>
  <rect height="730.25" opacity="0" width="585.293" x="0" y="0"/>
  <path d="M292.522 427.75L369.022 547.75L426.022 705C432.522 722.5 449.272 727.75 463.772 722.75C478.772 717.5 486.522 700 481.022 685L423.272 526.25L366.022 368.75L366.022 226C366.022 219.25 369.522 213.25 375.272 210L569.772 106.25C584.022 98.75 589.522 81.25 581.522 66.75C574.022 52.5 556.522 47.25 542.522 54.75L354.772 154.25C333.772 165.25 313.272 170.5 292.522 170.5C272.022 170.5 251.272 165.25 230.522 154.25L42.7717 54.75C28.5217 47.25 11.0217 52.5 3.52165 66.75C-4.22835 81.25 1.27165 98.75 15.5217 106.25L210.022 210C215.772 213.25 219.522 219.25 219.522 226L219.522 368.75L162.022 526.25L104.272 685C98.7717 700 106.522 717.5 121.522 722.75C136.022 727.75 152.772 722.5 159.272 705L216.272 547.75ZM292.522 136C329.772 136 360.272 105.5 360.272 67.5C360.272 30.5 329.772 0 292.522 0C254.772 0 224.272 30.5 224.272 67.5C224.272 105.5 254.772 136 292.522 136Z" fill="black" fill-opacity="0.85"/>
 </g>
</svg>
