<?xml version="1.0" encoding="UTF-8"?>
<!--Generator: Apple Native CoreSVG 326-->
<!DOCTYPE svg
PUBLIC "-//W3C//DTD SVG 1.1//EN"
       "http://www.w3.org/Graphics/SVG/1.1/DTD/svg11.dtd">
<svg version="1.1" xmlns="http://www.w3.org/2000/svg" xmlns:xlink="http://www.w3.org/1999/xlink" viewBox="0 0 651.25 651.75">
 <g>
  <rect height="651.75" opacity="0" width="651.25" x="0" y="0"/>
  <path d="M651.25 325.75C651.25 505 505 651.25 325.5 651.25C146.25 651.25 0 505 0 325.75C0 146.25 146.25 0 325.5 0C505 0 651.25 146.25 651.25 325.75ZM327.5 207.25L228.25 232.25C189.25 242 182.5 290.5 213.5 315.75L292.25 379.75L292.25 458C292.25 468.75 301 477.5 311.5 477.5C322.5 477.5 331 468.75 331 458L331 373C331 365.25 327 359.5 322.5 354.5L266 298L334.25 280.75C337.5 280 340.75 282.5 340.75 285.75L340.75 322.5C340.75 327.25 342.75 332.25 346.25 336L404.5 394C411.75 401.75 424.5 401.75 432 394C439.75 386.75 439.75 374.25 432 366.5L379.5 314.25L379.5 277.25L408.5 310.75C412.25 314.75 417.75 317.25 423.25 317.25L510.5 317.25C521.5 317.25 529.75 308.75 529.75 298C529.75 287 521.5 278.75 510.5 278.75L432 278.75L385.75 225C371.5 208.75 348.75 202 327.5 207.25ZM205 382L142.5 444.25C135 451.75 135 464.25 142.5 472C150.25 479.25 162.75 479.25 170 472L238 404C241.5 400.5 242.5 397.25 243.5 391.25L248.75 363.75L205 328.25ZM398 192.5C398 214.5 415.75 232.25 438 232.25C460 232.25 477.75 214.5 477.75 192.5C477.75 170.25 460 152.75 438 152.75C415.75 152.75 398 170.25 398 192.5Z" fill="black" fill-opacity="0.85"/>
 </g>
</svg>
