<?xml version="1.0" encoding="UTF-8"?>
<!--Generator: Apple Native CoreSVG 326-->
<!DOCTYPE svg
PUBLIC "-//W3C//DTD SVG 1.1//EN"
       "http://www.w3.org/Graphics/SVG/1.1/DTD/svg11.dtd">
<svg version="1.1" xmlns="http://www.w3.org/2000/svg" xmlns:xlink="http://www.w3.org/1999/xlink" viewBox="0 0 640.25 738.75">
 <g>
  <rect height="738.75" opacity="0" width="640.25" x="0" y="0"/>
  <path d="M0 701C0 714 10.75 724.75 23.75 724.75C36.75 724.75 47.5 714 47.5 701L47.5 23.75C47.5 10.5 36.75 0 23.75 0C10.75 0 0 10.5 0 23.75Z" fill="black" fill-opacity="0.85"/>
  <path d="M247.25 714L347.25 594.75C357 583.25 358.25 580.5 362.25 568.25L371 542L317.75 475.5L300.5 554L201.5 671.25C170.25 708.25 221.25 744.75 247.25 714ZM491.75 704.25C512 745.5 573 720.25 550.75 675.5L482.75 537.5C477.75 527.25 470.25 516.25 464 507.25L420.5 445.75L423.75 436.5C435.25 402.25 439.75 381.25 442 347.25L448.75 251C452.25 204.75 425 170.5 378.5 170.5C343.5 170.5 320 188.5 287.5 220L236.5 270.25C220 286.5 214.5 299.75 212.75 321.25L207 400.25C205.5 419.75 216.25 433.75 234.5 434.25C252.75 435.5 263.75 424.75 265.75 403.75L273.25 317.25L297.75 295.25C306.5 287 319 292.25 318.25 301.75L312.75 375C309.75 411.75 318.5 429.25 344 461L411.25 545.5C418.25 554.25 419 557.5 421.75 563ZM607.25 301L530 301L478.75 244L473.5 324L495.75 346C506.5 357 515.75 360.25 535.5 360.25L607.25 360.25C627.25 360.25 640.25 348.75 640.25 330.5C640.25 312.5 626.75 301 607.25 301ZM415.5 140.25C454.25 140.25 485.5 109 485.5 70C485.5 31.25 454.25 0 415.5 0C376.5 0 345.25 31.25 345.25 70C345.25 109 376.5 140.25 415.5 140.25Z" fill="black" fill-opacity="0.85"/>
 </g>
</svg>
