<?xml version="1.0" encoding="UTF-8"?>
<!--Generator: Apple Native CoreSVG 326-->
<!DOCTYPE svg
PUBLIC "-//W3C//DTD SVG 1.1//EN"
       "http://www.w3.org/Graphics/SVG/1.1/DTD/svg11.dtd">
<svg version="1.1" xmlns="http://www.w3.org/2000/svg" xmlns:xlink="http://www.w3.org/1999/xlink" viewBox="0 0 756.063 644.25">
 <g>
  <rect height="644.25" opacity="0" width="756.063" x="0" y="0"/>
  <path d="M599.282 172.5C646.782 172.5 684.782 133 684.782 87C684.782 39 646.782-5.68434e-14 599.282-5.68434e-14C551.282-5.68434e-14 513.032 39 513.032 87C513.032 134.75 551.282 172.5 599.282 172.5ZM87.2816 626.5C103.782 643.75 132.032 642.25 152.282 621.5L289.032 480.25C293.532 475.5 296.782 474.25 303.782 477L412.282 518.25C480.532 544.25 544.282 520.25 575.282 464L642.532 342C669.282 293 660.532 243 614.282 218.5C569.532 193.75 522.782 212.25 495.782 262L406.782 424.5L331.032 397C293.282 383.25 262.032 387.5 232.282 418.5L90.2816 565.5C70.5316 585.75 72.2816 611.25 87.2816 626.5Z" fill="black" fill-opacity="0.85"/>
  <path d="M115.032 125.5C115.032 137.25 124.032 146.25 135.782 146.25L262.782 146.25L262.782 197.5C262.782 217.25 283.282 226.25 298.282 212.75L380.032 141.5C390.532 132 390.532 119.5 380.032 110.25L298.282 39C283.782 26 262.782 33.5 262.782 54.25L262.782 105.5L135.782 105.5C124.032 105.5 115.032 114.5 115.032 125.5ZM5.78162 181.5C-1.96838 189.5-1.96838 202.25 6.03162 210.25L96.0316 300L59.7816 336.5C45.2816 351.25 54.7816 371 74.0316 372.25L182.532 379.75C196.532 380.75 205.282 371.25 204.532 357.75L196.782 249.5C195.532 229.25 175.032 221 161.032 235L124.532 271.25L34.7816 181.5C26.7816 173.5 13.7816 173.5 5.78162 181.5Z" fill="black" fill-opacity="0.85"/>
 </g>
</svg>
