<?xml version="1.0" encoding="UTF-8"?>
<!--Generator: Apple Native CoreSVG 326-->
<!DOCTYPE svg
PUBLIC "-//W3C//DTD SVG 1.1//EN"
       "http://www.w3.org/Graphics/SVG/1.1/DTD/svg11.dtd">
<svg version="1.1" xmlns="http://www.w3.org/2000/svg" xmlns:xlink="http://www.w3.org/1999/xlink" viewBox="0 0 651.25 651.75">
 <g>
  <rect height="651.75" opacity="0" width="651.25" x="0" y="0"/>
  <path d="M325.5 651.25C505.25 651.25 651.25 505.5 651.25 325.75C651.25 146 505.25 0 325.5 0C145.75 0 0 146 0 325.75C0 505.5 145.75 651.25 325.5 651.25ZM325.5 604.75C171.25 604.75 46.5 480 46.5 325.75C46.5 171.5 171.25 46.75 325.5 46.75C479.75 46.75 604.5 171.5 604.5 325.75C604.5 480 479.75 604.75 325.5 604.75Z" fill="black" fill-opacity="0.85"/>
  <path d="M460.75 224C482 224 498.25 207 498.25 186.25C498.25 165.25 482 148.75 460.75 148.75C440 148.75 423.25 165.25 423.25 186.25C423.25 207 440 224 460.75 224ZM359.5 500C430.5 500 483.75 447.25 483.75 376C483.75 344 470.5 324.5 442 314.5L415.25 305.25C411.5 304 410.5 301.75 413.25 298.5L430.25 273.5C444.25 253.25 439 236.25 418.25 221.5L354 177C346.5 172 338 172 330.75 176.5L271.25 216.5C248.5 232 269.75 260.75 291.25 246.75L340.5 213L374.25 236.75C379.75 240.5 380.5 244.25 377 249.5L349.25 289.5C333.5 312.25 346.25 337 370.5 342.75L445.75 361.5C453.5 363.25 457.25 368.75 457.25 377C457.25 432.25 415.5 474 359.5 474C303.5 474 261.5 432.25 261.5 376C261.5 357.25 266.25 340.75 275.25 326.5C286 309.25 263.5 296.5 252.5 313.5C242 331 235.25 352 235.25 376C235.25 447.25 288.5 500 359.5 500ZM483.75 500C494.75 500 503.75 491.5 503.75 480.5C503.75 469.5 494.75 460.5 483.75 460.5C472.5 460.5 463.75 469.5 463.75 480.5C463.75 491.5 472.5 500 483.75 500ZM118 284L195 284C201.5 284 206.75 278.75 206.75 272C206.75 265.5 201.5 260 195 260L118 260C111.25 260 106.5 265.75 106.5 272C106.5 278.5 111.25 284 118 284ZM103 346.75L195 346.75C201.5 346.75 206.75 342 206.75 335C206.75 328.5 201.5 323.25 195 323.25L103 323.25C96.75 323.25 91.5 329 91.5 335C91.5 342 96.75 346.75 103 346.75ZM150.5 410L195 410C201.5 410 206.75 405 206.75 398C206.75 391.25 201.5 386.25 195 386.25L150.5 386.25C144 386.25 139.25 391.25 139.25 398C139.25 405 144 410 150.5 410Z" fill="black" fill-opacity="0.85"/>
 </g>
</svg>
