<?xml version="1.0" encoding="UTF-8"?>
<!--Generator: Apple Native CoreSVG 326-->
<!DOCTYPE svg
PUBLIC "-//W3C//DTD SVG 1.1//EN"
       "http://www.w3.org/Graphics/SVG/1.1/DTD/svg11.dtd">
<svg version="1.1" xmlns="http://www.w3.org/2000/svg" xmlns:xlink="http://www.w3.org/1999/xlink" viewBox="0 0 541.185 703.75">
 <g>
  <rect height="703.75" opacity="0" width="541.185" x="0" y="0"/>
  <path d="M255.593 682C357.593 682 424.343 636.75 465.593 541.25C488.093 493 505.843 437 524.593 373.75C531.593 350.75 541.093 322.5 541.093 309.5C541.093 292.5 528.593 281.75 511.343 281.75C493.093 281.75 481.593 292.75 468.343 320L424.843 415.75C419.843 427.25 413.843 431.25 407.843 431.25C400.593 431.25 393.343 426.75 395.093 413.75L432.843 84.5C435.093 64 421.593 52.25 406.593 49.25C390.093 46.25 371.843 54.25 368.593 74.25L329.093 318.25C319.843 314.75 309.843 311.75 299.093 309.75L299.093 31.75C299.093 14 284.343 0 266.093 0C248.093 0 233.093 14 233.093 31.75L233.093 306C222.093 307 210.843 308.25 200.343 310.25L168.593 66C165.843 44.5 148.343 36.25 131.843 39C116.093 41.25 101.343 54.25 103.843 74.75L134.343 331.5C122.843 336.75 112.843 342.75 103.843 349L64.3426 153.75C60.0926 133.25 42.8426 125.5 27.0926 128C11.8426 130.75-2.40737 143.75 0.34263 165L37.8426 458C56.3426 600.25 130.843 682 255.593 682Z" fill="black" fill-opacity="0.85"/>
 </g>
</svg>
