<?xml version="1.0" encoding="UTF-8"?>
<!--Generator: Apple Native CoreSVG 326-->
<!DOCTYPE svg
PUBLIC "-//W3C//DTD SVG 1.1//EN"
       "http://www.w3.org/Graphics/SVG/1.1/DTD/svg11.dtd">
<svg version="1.1" xmlns="http://www.w3.org/2000/svg" xmlns:xlink="http://www.w3.org/1999/xlink" viewBox="0 0 633.25 685.75">
 <g>
  <rect height="685.75" opacity="0" width="633.25" x="0" y="0"/>
  <path d="M633.25 226C633.25 124.5 567.25 40.5 488 40.5L388 40.5C348.75 20 301 8 248 8L206 8C168 8 135.75 10 114.25 15.5C73.75 25.5 48.5 53.25 48.5 88.75C48.5 97.25 50 104.5 52.5 111.75C31.25 126.75 19.25 149.25 19.25 174.5C19.25 187.25 22 200 27 210C12.5 223.25 4 244.25 4 266.5C4 281.25 8 296.75 14.5 307.25C5.5 319 0 336 0 354.5C0 398 34 432.5 77.25 432.5L191 432.5C201 432.5 207.25 437 207.25 445.25C207.25 479 155.75 555.75 155.75 616.75C155.75 657 183.5 685.75 222.25 685.75C250.75 685.75 269.75 670.75 288.75 634.5C326.25 562 366.75 505.25 441.5 412.5L499.5 412.5C573.25 412.5 633.25 329.5 633.25 226ZM462.75 227C462.75 293.25 447.75 335.25 406.5 390.75C360.5 452 297.5 525 252 615.75C240.25 639 232.5 644.75 220.75 644.75C206.5 644.75 196.75 634.5 196.75 616.75C196.75 566.75 248.25 492.25 248.25 445.25C248.25 412 221 391.5 185.75 391.5L77.25 391.5C56.75 391.5 41 375.5 41 354.5C41 340 45.5 330.5 56.5 319.5C63 314.25 63.5 307 58.25 300.75C49.25 288.25 45 278.75 45 266.5C45 251.75 52 239.25 65.25 229.25C73 223.5 76.25 215.5 71.25 206C64 193 60.25 185.75 60.25 174.5C60.25 158 70.75 145 92 134.25C99.25 130.25 101.25 124.25 97.75 117C90.75 100.5 89.75 96.75 89.75 88.75C89.75 73.25 101 61 124 55.25C142 50.5 170.75 48.5 205.75 48.75L245 48.75C375.25 49.25 462.75 123.25 462.75 227ZM592.25 226C592.25 306.75 548.25 371.5 499.5 371.5C489.25 371.5 478.75 371.5 468.25 371.5C493.25 327.25 503.75 282.75 503.75 227.75C503.75 169.5 481.75 119 442.25 81.75C457.75 81.75 472.75 81.75 488 81.75C543.5 81.75 592.25 147 592.25 226Z" fill="black" fill-opacity="0.85"/>
 </g>
</svg>
