<?xml version="1.0" encoding="UTF-8"?>
<!--Generator: Apple Native CoreSVG 326-->
<!DOCTYPE svg
PUBLIC "-//W3C//DTD SVG 1.1//EN"
       "http://www.w3.org/Graphics/SVG/1.1/DTD/svg11.dtd">
<svg version="1.1" xmlns="http://www.w3.org/2000/svg" xmlns:xlink="http://www.w3.org/1999/xlink" viewBox="0 0 685.25 526.75">
 <g>
  <rect height="526.75" opacity="0" width="685.25" x="0" y="0"/>
  <path d="M0 301.25C0 446.25 88 526.75 246.25 526.75L308.25 526.75C367.25 526.75 403.5 497.75 403.5 465.75C403.5 458.25 399.5 454.25 392.5 454.25L362.5 454.25C350.5 454.25 344.25 448 344.25 440.5C344.25 432.75 350.5 426.25 362.5 426.25L382.5 426.25C417.5 426.25 440.5 404 440.5 373.5C440.5 360 435 353.75 423.25 353.75L382.75 353.75C370.5 353.75 364.5 347.5 364.5 340C364.5 332.25 370.5 326 382.75 326L420.25 326C459.5 326 478 302.75 478 273.5C478 260.5 472.25 253.75 460.75 253.75L382.75 253.75C370.5 253.75 364.5 247.5 364.5 240.25C364.5 232.25 370.5 226 382.75 226L636 226C661 226 677.25 209.75 677.25 188.5C677.25 166.25 661 150.5 636 150.5L270.75 150.5C262.25 150.5 257.25 144.75 257.25 138.75C257.25 133.5 260.5 129 269.5 125.25L385.25 75.5C402.75 68 410 56.75 410 41.75C410 18.75 394.25 4.25 374.75 4.25C367.5 4.25 361.25 5.75 355.5 8L189.5 63C58 107.25 0 195.5 0 301.25Z" fill="black" fill-opacity="0.85"/>
 </g>
</svg>
