<?xml version="1.0" encoding="UTF-8"?>
<!--Generator: Apple Native CoreSVG 326-->
<!DOCTYPE svg
PUBLIC "-//W3C//DTD SVG 1.1//EN"
       "http://www.w3.org/Graphics/SVG/1.1/DTD/svg11.dtd">
<svg version="1.1" xmlns="http://www.w3.org/2000/svg" xmlns:xlink="http://www.w3.org/1999/xlink" viewBox="0 0 758.876 673.898">
 <g>
  <rect height="673.898" opacity="0" width="758.876" x="0" y="0"/>
  <path d="M196.813 112.824L206.964 140.639C114.24 204.355 76.8917 295.555 75.0632 396.574C74.8132 406.574 67.8132 414.574 57.8132 414.574C47.3132 414.574 39.8132 405.824 39.8132 395.824C39.8132 280.225 88.1971 172.983 194.459 105.249Z" fill="black" fill-opacity="0.85"/>
  <path d="M576.563 619.324C706.313 572.074 749.563 467.074 698.063 325.574L677.813 270.074C658.563 217.324 621.313 194.324 592.313 204.824C585.563 207.074 583.563 211.824 585.813 218.074L595.563 245.074C599.563 256.074 595.813 263.574 589.313 266.074C582.063 268.574 574.563 265.074 570.563 254.074L564.063 236.074C552.563 204.824 525.063 191.574 497.813 201.324C485.563 206.074 481.813 213.074 485.813 223.324L498.813 259.574C502.813 270.574 499.313 278.074 492.563 280.574C485.563 283.074 477.813 279.574 473.813 268.574L461.813 235.324C448.813 200.074 422.313 190.824 396.063 200.324C384.313 204.574 380.313 212.324 383.813 222.324L409.313 292.324C413.313 303.074 409.563 310.824 403.063 313.074C396.063 315.824 388.313 312.324 384.313 301.324L301.813 74.8241C293.813 52.3241 274.063 43.0741 255.063 50.0741C235.063 57.3241 226.313 76.8241 234.563 99.3241L353.313 426.074C356.313 433.824 352.813 440.074 347.313 441.824C342.563 443.574 337.563 442.324 331.063 435.574L249.063 348.074C236.563 334.824 224.063 332.074 210.813 336.824C190.063 344.324 182.563 363.324 188.813 380.574C191.313 387.074 194.813 392.324 198.313 396.824L301.563 527.074C383.813 630.574 481.813 653.824 576.563 619.324Z" fill="black" fill-opacity="0.85"/>
 </g>
</svg>
