<?xml version="1.0" encoding="UTF-8"?>
<!--Generator: Apple Native CoreSVG 326-->
<!DOCTYPE svg
PUBLIC "-//W3C//DTD SVG 1.1//EN"
       "http://www.w3.org/Graphics/SVG/1.1/DTD/svg11.dtd">
<svg version="1.1" xmlns="http://www.w3.org/2000/svg" xmlns:xlink="http://www.w3.org/1999/xlink" viewBox="0 0 532.477 594.56">
 <g>
  <rect height="594.56" opacity="0" width="532.477" x="0" y="0"/>
  <path d="M389.739 579.655C519.739 532.405 562.739 427.405 511.239 285.905L491.239 230.405C471.989 177.655 434.489 154.655 405.489 165.155C398.989 167.405 396.739 172.155 398.989 178.405L408.739 205.405C412.739 216.405 409.239 223.905 402.489 226.405C395.489 228.905 387.739 225.405 383.739 214.405L377.239 196.405C365.989 165.155 338.239 151.905 311.239 161.905C298.739 166.405 295.239 173.405 298.989 183.655L312.239 219.905C315.989 230.905 312.489 238.405 305.989 240.905C298.739 243.405 291.239 239.905 287.239 228.905L274.989 195.655C262.239 160.405 235.739 151.155 209.239 160.655C197.739 164.905 193.489 172.655 197.239 182.655L222.739 252.655C226.489 263.405 222.989 271.155 216.489 273.405C209.239 276.155 201.739 272.655 197.739 261.655L115.239 35.1551C106.989 12.6551 87.4887 3.40512 68.4887 10.4051C48.4887 17.6551 39.7387 37.1551 47.7387 59.6551L166.739 386.405C169.489 394.155 165.989 400.405 160.739 402.155C155.989 403.905 150.739 402.655 144.489 395.905L62.2387 308.405C49.9887 295.155 37.2387 292.405 24.2387 297.155C3.48874 304.655-4.26126 323.655 2.23874 340.905C4.48874 347.405 7.98874 352.655 11.4887 357.155L114.989 487.405C197.239 590.905 295.239 614.155 389.739 579.655Z" fill="black" fill-opacity="0.85"/>
 </g>
</svg>
