<?xml version="1.0" encoding="UTF-8"?>
<!--Generator: Apple Native CoreSVG 326-->
<!DOCTYPE svg
PUBLIC "-//W3C//DTD SVG 1.1//EN"
       "http://www.w3.org/Graphics/SVG/1.1/DTD/svg11.dtd">
<svg version="1.1" xmlns="http://www.w3.org/2000/svg" xmlns:xlink="http://www.w3.org/1999/xlink" viewBox="0 0 515.254 665.25">
 <g>
  <rect height="665.25" opacity="0" width="515.254" x="0" y="0"/>
  <path d="M293.002 665C424.502 665 515.252 578.5 515.252 428.5L515.252 361C515.252 286.75 481.752 244.25 423.002 243.5C416.002 220.5 396.752 206 370.252 206C360.502 206 351.002 207.75 341.502 211C333.752 186 313.252 170.5 285.502 170.5C277.752 170.5 269.502 171.75 261.502 174.25L261.502 64.25C261.502 25.5 235.502 0 200.002 0C164.002 0 138.002 25.5 138.002 64.25L138.002 341.25C138.002 343 137.252 344.25 135.502 344.25C134.252 344.25 133.252 343.25 132.752 341.75L107.252 279.5C96.7518 254.75 78.2518 241.75 56.2518 241.75C26.2518 241.75-0.248245 261.25 0.00175472 295C0.00175472 304 2.00175 316 5.50175 326.25L63.2518 489C104.252 605.25 182.252 665 293.002 665ZM294.252 627C203.752 627 135.002 582.75 97.5018 477L39.5018 314.5C37.7518 309.5 36.7518 305 36.7518 299C36.7518 287 46.0018 276.75 60.0018 276.75C71.2518 276.75 78.5018 283.75 83.7518 296L126.752 394.75C133.252 409.5 142.502 414.5 153.252 414.5C166.002 414.5 175.252 404.75 175.252 390.5L175.252 62C175.252 46.5 185.252 36 200.002 36C214.752 36 224.252 46.5 224.252 62L224.252 295.5C224.252 305.5 232.252 313.5 242.252 313.5C252.252 313.5 260.002 305.5 260.002 295.5L260.002 210.75C266.252 208 274.252 206.25 281.002 206.25C298.502 206.25 309.002 217.5 309.002 236.5L309.002 307.75C309.002 319 317.502 325.75 327.002 325.75C336.252 325.75 344.502 319 344.502 307.75L344.502 246.5C351.002 243.75 359.002 241.75 365.752 241.75C383.252 241.75 393.502 253.25 393.502 272L393.502 320C393.502 331.25 402.002 338.25 411.752 338.25C421.002 338.25 429.252 331.25 429.252 320L429.252 281.5C460.752 281.5 478.252 312 478.252 366L478.252 424.25C478.252 555.25 406.502 627 294.252 627Z" fill="black" fill-opacity="0.85"/>
 </g>
</svg>
