<?xml version="1.0" encoding="UTF-8"?>
<!--Generator: Apple Native CoreSVG 326-->
<!DOCTYPE svg
PUBLIC "-//W3C//DTD SVG 1.1//EN"
       "http://www.w3.org/Graphics/SVG/1.1/DTD/svg11.dtd">
<svg version="1.1" xmlns="http://www.w3.org/2000/svg" xmlns:xlink="http://www.w3.org/1999/xlink" viewBox="0 0 849.842 676.173">
 <g>
  <rect height="676.173" opacity="0" width="849.842" x="0" y="0"/>
  <path d="M272.921 258.711C272.921 269.211 264.421 277.711 253.921 277.711L83.1709 277.711C72.6709 277.711 64.1709 269.211 64.1709 258.711C64.1709 248.211 72.6709 239.961 83.1709 239.961L253.921 239.961C264.421 239.961 272.921 248.211 272.921 258.711Z" fill="black" fill-opacity="0.85"/>
  <path d="M307.68 159.461L83.1709 159.461C72.6709 159.461 64.1709 150.961 64.1709 140.461C64.1709 129.961 72.6709 121.711 83.1709 121.711L293.993 121.711Z" fill="black" fill-opacity="0.85"/>
  <path d="M332.671 4.71142C313.446 11.6702 298.895 24.7499 290.621 41.2114L83.1709 41.2114C72.6709 41.2114 64.1709 32.9614 64.1709 22.4614C64.1709 11.9614 72.6709 3.46142 83.1709 3.46142L336.676 3.46142Z" fill="black" fill-opacity="0.85"/>
  <path d="M667.421 611.211C797.421 563.961 840.421 458.961 788.921 317.711L768.671 261.961C749.421 209.211 712.171 186.211 683.171 196.711C676.671 199.211 674.421 203.961 676.671 209.961L686.421 236.961C690.421 247.961 686.921 255.461 680.171 257.961C673.171 260.461 665.421 256.961 661.421 246.211L654.921 227.961C643.421 196.711 615.921 183.461 588.921 193.461C576.421 197.961 572.921 204.961 576.671 215.461L589.921 251.461C593.671 262.461 590.171 269.961 583.671 272.461C576.421 275.211 568.921 271.711 564.921 260.711L552.671 227.211C539.921 191.961 513.171 182.711 486.921 192.461C475.421 196.461 471.171 204.211 474.921 214.211L500.171 284.211C504.171 295.211 500.671 302.711 493.921 305.211C486.921 307.711 479.171 304.211 475.171 293.211L392.671 66.7114C384.671 44.2114 365.171 35.2114 346.171 41.9614C326.171 49.2114 317.171 68.7114 325.421 91.2114L444.421 417.961C447.171 425.961 443.671 431.961 438.421 433.961C433.421 435.711 428.421 434.211 422.171 427.711L339.921 339.961C327.421 326.961 314.921 323.961 301.671 328.711C280.921 336.461 273.421 355.211 279.671 372.461C282.171 379.211 285.671 384.211 289.171 388.711L392.421 518.961C474.671 622.461 572.671 645.711 667.421 611.211Z" fill="black" fill-opacity="0.85"/>
 </g>
</svg>
