<?xml version="1.0" encoding="UTF-8"?>
<!--Generator: Apple Native CoreSVG 326-->
<!DOCTYPE svg
PUBLIC "-//W3C//DTD SVG 1.1//EN"
       "http://www.w3.org/Graphics/SVG/1.1/DTD/svg11.dtd">
<svg version="1.1" xmlns="http://www.w3.org/2000/svg" xmlns:xlink="http://www.w3.org/1999/xlink" viewBox="0 0 712.178 576.895">
 <g>
  <rect height="576.895" opacity="0" width="712.178" x="0" y="0"/>
  <path d="M79.9641 7.82254C46.2141 46.3225 17.2141 96.8225 0.964129 151.323C-6.28587 175.823 29.4641 187.823 37.7141 160.573C52.4641 111.823 78.7141 67.3225 108.964 33.0725C127.714 11.8225 98.7141-12.9275 79.9641 7.82254ZM79.9641 458.823C98.7141 479.823 127.714 455.073 108.964 433.573C78.7141 399.573 52.4641 355.073 37.7141 306.573C29.4641 278.823-6.28587 290.823 0.964129 315.823C17.2141 370.073 46.2141 420.573 79.9641 458.823Z" fill="black" fill-opacity="0.85"/>
  <path d="M564.464 549.323C687.464 504.823 734.714 374.073 701.964 251.573L675.714 153.073C657.714 86.3225 615.964 71.8225 558.464 89.3225L575.214 121.573C617.214 107.073 633.464 135.073 638.714 155.323L665.714 259.073C692.964 364.573 656.214 474.323 552.464 512.323C462.214 545.073 350.214 523.573 266.964 435.823L156.464 319.073C130.214 291.573 161.714 258.823 193.714 284.573L249.214 329.073C287.964 360.073 318.714 378.323 353.464 378.323C416.214 378.323 449.964 337.823 449.964 279.073C449.964 243.573 428.714 186.073 404.964 155.323C383.964 127.323 358.964 122.823 315.964 133.573L238.714 152.323C202.214 160.823 185.464 111.323 223.464 100.573L333.214 69.5725C405.464 49.0725 442.214 92.5725 480.964 155.573C492.214 174.323 522.214 161.573 510.714 140.323C465.964 57.8225 406.464 10.5725 321.964 35.8225L206.964 70.0725C132.464 92.0725 156.964 208.823 253.714 185.323L330.214 166.823C350.714 162.073 362.714 163.823 372.214 176.323C394.214 206.073 413.714 256.323 413.714 281.573C413.714 319.323 393.214 343.073 347.214 343.073C323.464 343.073 302.214 331.073 275.464 308.323L212.464 255.073C158.714 209.823 67.2141 275.823 130.464 343.323L238.214 458.323C325.714 552.073 452.464 589.823 564.464 549.323ZM564.464 141.823C569.964 160.073 600.464 155.823 593.464 132.323C567.964 44.3225 485.464 37.8225 437.714 63.3225L458.714 90.8225C492.714 75.8225 546.964 81.8225 564.464 141.823Z" fill="black" fill-opacity="0.85"/>
 </g>
</svg>
