<?xml version="1.0" encoding="UTF-8"?>
<!--Generator: Apple Native CoreSVG 326-->
<!DOCTYPE svg
PUBLIC "-//W3C//DTD SVG 1.1//EN"
       "http://www.w3.org/Graphics/SVG/1.1/DTD/svg11.dtd">
<svg version="1.1" xmlns="http://www.w3.org/2000/svg" xmlns:xlink="http://www.w3.org/1999/xlink" viewBox="0 0 493.75 736.75">
 <g>
  <rect height="736.75" opacity="0" width="493.75" x="0" y="0"/>
  <path d="M184 85C207.5 85 226.75 66 226.75 42.75C226.75 19.5 207.5 0 184 0C160.5 0 141.75 19.5 141.75 42.75C141.75 66 160.5 85 184 85ZM44 210.25C67.5 210.25 86.75 191.25 86.75 167.75C86.75 144.75 67.5 125.25 44 125.25C20.5 125.25 1.75 144.75 1.75 167.75C1.75 191.25 20.5 210.25 44 210.25ZM325.75 210.25C349.25 210.25 368.5 191.25 368.5 167.75C368.5 144.75 349.25 125.25 325.75 125.25C302.5 125.25 283.75 144.75 283.75 167.75C283.75 191.25 302.5 210.25 325.75 210.25ZM451 210.25C474.5 210.25 493.75 191.25 493.75 167.75C493.75 144.75 474.5 125.25 451 125.25C427.5 125.25 408.75 144.75 408.75 167.75C408.75 191.25 427.5 210.25 451 210.25ZM451 85C474.5 85 493.75 66 493.75 42.75C493.75 19.5 474.5 0 451 0C427.5 0 408.75 19.5 408.75 42.75C408.75 66 427.5 85 451 85Z" fill="black" fill-opacity="0.85"/>
  <path d="M268 736C387.75 736 470.5 657 470.5 521L470.5 459.75C470.5 392.5 440 353.25 387 352.5C379.75 331.25 361.75 318 337.75 318C329.25 318 321 319.5 312.75 322.25C305.25 300 286.5 285.75 261.25 285.75C254.75 285.75 248 287 241 288.75L241.5 192C241.5 156 217 132 184 132C150.5 132 126.5 156 126.5 192L126.5 437.25C126.5 439 124 439.75 123.25 437.75L102 385.75C92.5 362.5 74.75 350.5 54.25 350.25C26 350 1.25 368.5 1.75 400.25C1.25 409 3.25 419.75 6.75 429L59 576C96.75 681.75 167.25 736 268 736ZM269 698C188.25 698 127 658.5 93 564L40.75 417.25C39 412.75 38.75 409.5 38.75 404C38.75 393.75 45.75 385.5 57.5 385.5C66.75 385.5 72.75 391.25 77.25 402L116.25 491.25C122.5 505.25 131.25 509.5 141.75 509.5C154.25 509.5 163.75 500.25 163.75 486.5L163.75 190C163.75 177 171.75 168.25 184 168.25C196.5 168.25 204.25 177 204.25 190L204.25 400.75C204.25 411 212 418.75 222 418.75C232.25 418.75 240.25 411 240.25 400.75L240.25 325.75C245.25 323.25 251.25 321.75 257 321.75C271.75 321.75 280.5 331.25 280.5 347.5L280.5 412C280.5 423.25 289.25 430 298.75 430C307.75 430 316.5 423.25 316.5 412L316.5 357.5C321.75 355.5 328 354 333.5 354C348.5 354 357 363.5 357 379.75L357 423C357 434.25 365.5 441 375 441C384 441 393 434.25 393 423L393 390.25C419 391.5 433.5 417.25 433.5 464.25L433.5 517C433.5 634.5 369.5 698 269 698Z" fill="black" fill-opacity="0.85"/>
 </g>
</svg>
