<?xml version="1.0" encoding="UTF-8"?>
<!--Generator: Apple Native CoreSVG 326-->
<!DOCTYPE svg
PUBLIC "-//W3C//DTD SVG 1.1//EN"
       "http://www.w3.org/Graphics/SVG/1.1/DTD/svg11.dtd">
<svg version="1.1" xmlns="http://www.w3.org/2000/svg" xmlns:xlink="http://www.w3.org/1999/xlink" viewBox="0 0 492 727.75">
 <g>
  <rect height="727.75" opacity="0" width="492" x="0" y="0"/>
  <path d="M182.25 84.75C205.75 84.75 225 65.75 225 42.75C225 19.25 205.75 0 182.25 0C158.75 0 140 19.25 140 42.75C140 65.75 158.75 84.75 182.25 84.75ZM42.25 210C65.75 210 85 191 85 167.75C85 144.5 65.75 125.25 42.25 125.25C18.75 125.25 0 144.5 0 167.75C0 191 18.75 210 42.25 210ZM324 210C347.5 210 366.75 191 366.75 167.75C366.75 144.5 347.5 125.25 324 125.25C301 125.25 282 144.5 282 167.75C282 191 301 210 324 210ZM449.25 210C472.75 210 492 191 492 167.75C492 144.5 472.75 125.25 449.25 125.25C425.75 125.25 407 144.5 407 167.75C407 191 425.75 210 449.25 210ZM449.25 84.75C472.75 84.75 492 65.75 492 42.75C492 19.25 472.75 0 449.25 0C425.75 0 407 19.25 407 42.75C407 65.75 425.75 84.75 449.25 84.75Z" fill="black" fill-opacity="0.85"/>
  <path d="M279 727.5C404.75 727.5 475 650.75 475 514L475 461C475 409 449.5 377 420.5 377C413.25 377 409 381.5 409 388.25L409 414.25C409 423.75 404.5 428 399 428C393 428 388.75 423.75 388.75 414.25L388.75 396.75C388.75 365.75 368.5 345 341.5 345C328.5 345 322.5 350.75 322.5 361.75L322.5 396.75C322.5 406.25 318 410.5 312.5 410.5C306.5 410.5 302.5 406.25 302.5 396.75L302.5 364.75C302.5 329.5 281.5 312.75 255.25 312.75C243.25 312.75 236.5 318.75 236.5 329.75L236.5 396.75C236.5 406.25 232 410.5 226.5 410.5C220.5 410.5 216.25 406.25 216.25 396.75L216.25 179.25C216.25 156.5 201.5 141.5 182.25 141.5C162 141.5 148 156.5 148 179.25L148 493C148 504.25 134.75 506 131 497L86.75 393.5C80 378 69.25 371.25 56.25 371.25C35.25 371.25 22.5 385.75 22.5 403.5C22.5 410 23.5 416 25.5 421L72.75 563C111 677 187.5 727.5 279 727.5Z" fill="black" fill-opacity="0.85"/>
 </g>
</svg>
