<?xml version="1.0" encoding="UTF-8"?>
<!--Generator: Apple Native CoreSVG 326-->
<!DOCTYPE svg
PUBLIC "-//W3C//DTD SVG 1.1//EN"
       "http://www.w3.org/Graphics/SVG/1.1/DTD/svg11.dtd">
<svg version="1.1" xmlns="http://www.w3.org/2000/svg" xmlns:xlink="http://www.w3.org/1999/xlink" viewBox="0 0 651.25 651.75">
 <g>
  <rect height="651.75" opacity="0" width="651.25" x="0" y="0"/>
  <path d="M325.5 651.25C505.25 651.25 651.25 505.5 651.25 325.75C651.25 146 505.25 0 325.5 0C145.75 0 0 146 0 325.75C0 505.5 145.75 651.25 325.5 651.25ZM325.5 604.75C171.25 604.75 46.5 480 46.5 325.75C46.5 171.5 171.25 46.75 325.5 46.75C479.75 46.75 604.5 171.5 604.5 325.75C604.5 480 479.75 604.75 325.5 604.75Z" fill="black" fill-opacity="0.85"/>
  <path d="M506.25 270.25C506.25 218 474.5 174.5 431 174.5L397.25 174.5C430.25 197.25 444.25 231.75 443.75 272.25C443 317 426 347.25 411.5 366.5L437.25 366.5C476.75 366.5 506.25 324.25 506.25 270.25ZM422.5 271.75C423.25 207.5 371.75 159 289.75 158.25L266 158C243.25 157.75 226.5 159.5 217 162C203.25 165.5 189.5 173.5 189.5 190.25C189.5 196.75 191.5 202.25 193.5 205.75C194.75 208 194.5 209.75 192.5 210.75C181.75 215 172.5 225.5 172.5 239C172.5 247.25 174.75 254.25 179 259C181 261.5 180.75 264.25 177.5 266C169.25 270.75 164 280.25 164 292C164 300 166.5 309 171.25 313.25C174 315.5 173.5 317.25 170.25 319.75C165.25 324.5 161.75 332.75 161.75 342.25C161.75 359.5 174.75 373.5 192 373.5L254 373.5C270 373.5 280.25 381.5 280.25 394.5C280.25 418 251 461.25 251 492C251 508.25 261.75 517.75 275 517.75C288 517.75 294 509.5 300.5 496C326.75 445.25 361.75 404 388.25 368.25C410.75 338.75 422 313.25 422.5 271.75Z" fill="black" fill-opacity="0.85"/>
 </g>
</svg>
