<?xml version="1.0" encoding="UTF-8"?>
<!--Generator: Apple Native CoreSVG 326-->
<!DOCTYPE svg
PUBLIC "-//W3C//DTD SVG 1.1//EN"
       "http://www.w3.org/Graphics/SVG/1.1/DTD/svg11.dtd">
<svg version="1.1" xmlns="http://www.w3.org/2000/svg" xmlns:xlink="http://www.w3.org/1999/xlink" viewBox="0 0 609.116 618.303">
 <g>
  <rect height="618.303" opacity="0" width="609.116" x="0" y="0"/>
  <path d="M539.058 548.777C617.308 470.527 630.058 373.027 577.058 261.777L502.808 105.777C498.308 95.7765 492.308 87.7765 485.808 81.2765C462.808 58.2765 429.308 59.2765 407.058 81.7765C391.808 96.7765 387.058 119.777 397.558 145.027L423.808 206.777C424.308 208.277 424.308 209.527 423.308 210.527C422.308 211.527 420.808 211.277 419.558 210.277L229.558 20.0265C203.808-5.72348 171.808-5.72348 147.808 18.2765C138.308 27.5265 133.058 39.5265 133.058 52.0265C107.808 31.5265 78.8082 31.2765 56.5582 53.5265C34.8082 75.2765 34.5582 105.527 54.0582 130.277C42.0582 130.277 30.8082 135.277 22.0582 143.777C-0.441788 166.277 0.0582117 197.527 24.8082 222.277L51.8082 249.277C39.0582 248.777 26.5582 254.527 16.8082 264.277C-5.69179 286.777-4.94179 319.027 20.0582 344.027L214.558 538.527C320.558 644.527 446.058 641.777 539.058 548.777ZM511.058 522.527C431.558 601.777 330.308 602.027 237.808 509.527L48.8082 320.527C37.8082 309.527 36.8082 295.527 47.3082 285.027C57.5582 274.777 72.5582 275.027 83.3082 285.777L198.808 401.027C206.558 409.027 217.558 408.027 224.058 401.527C230.808 394.777 231.808 383.777 224.058 376.027L50.8082 202.777C39.8082 191.777 38.8082 177.777 49.3082 167.277C59.5582 157.027 74.5582 157.027 85.3082 168.027L247.058 329.527C254.808 337.527 265.808 336.527 272.058 330.027C279.058 323.277 280.058 312.277 272.058 304.277L83.0582 115.277C72.0582 104.277 71.3082 89.2765 81.8082 78.7765C91.8082 68.7765 106.808 69.7765 117.808 80.7765L307.058 269.777C314.058 277.027 325.058 277.277 332.058 270.027C339.058 263.027 339.308 251.777 332.058 244.527L170.558 83.0265C159.558 72.0265 159.308 57.2765 169.558 47.0265C180.058 36.5265 194.308 37.2765 205.308 48.2765L428.308 271.277C438.808 282.027 451.558 281.777 460.558 272.777C468.308 265.027 471.308 255.027 465.308 240.027L424.558 135.277C418.058 119.527 423.308 106.777 435.558 101.027C448.558 94.7765 460.808 101.277 468.308 117.527L544.308 277.277C592.308 378.777 574.808 458.527 511.058 522.527Z" fill="black" fill-opacity="0.85"/>
 </g>
</svg>
