<?xml version="1.0" encoding="UTF-8"?>
<!--Generator: Apple Native CoreSVG 326-->
<!DOCTYPE svg
PUBLIC "-//W3C//DTD SVG 1.1//EN"
       "http://www.w3.org/Graphics/SVG/1.1/DTD/svg11.dtd">
<svg version="1.1" xmlns="http://www.w3.org/2000/svg" xmlns:xlink="http://www.w3.org/1999/xlink" viewBox="0 0 587.109 720.25">
 <g>
  <rect height="720.25" opacity="0" width="587.109" x="0" y="0"/>
  <path d="M285.555 691.5C396.055 691.5 468.055 629 515.305 515.5L581.555 353.25C596.055 318 580.305 288.5 555.805 276C531.305 263.75 498.055 269 478.555 303.5L445.805 368C445.055 369.75 444.305 370.5 443.055 370.5C441.305 370.5 440.055 369 440.555 367L481.305 112C487.805 74 468.305 46.75 434.555 41C398.555 35.25 370.805 53 363.305 92.75L351.055 167L354.305 167L354.305 62C354.305 25.5 329.555 0 294.555 0C258.055 0 233.555 26.25 233.555 63.75L233.555 122.5L240.305 121.25L235.055 81.25C226.805 47 199.055 31 168.305 36.25C132.805 42.5 114.305 72 118.805 107.5L125.805 164.5L135.805 162.25C125.555 126.75 99.3047 114.75 70.0547 120C33.5547 126.25 15.8047 152.75 21.3047 190.25L62.0547 472.5C81.8047 611.25 154.055 691.5 285.555 691.5ZM284.305 653C172.055 653 116.805 588 99.3047 468.5L56.0547 184C53.8047 169.25 61.8047 158 75.8047 155.75C88.8047 153.5 99.8047 162.5 103.055 175.25L148.305 349.25C151.055 360.25 159.555 364.25 168.555 362.5C177.805 361 184.305 352.75 183.305 343.25L154.055 101.5C152.305 86.25 159.555 74.5 174.305 72C188.555 70 200.055 79.25 201.805 93.5L233.805 334.25C235.055 343.75 243.305 349.75 253.305 348.25C265.055 346.5 269.305 338.75 269.305 329L269.305 62C269.305 47 279.805 36.5 294.555 36.5C308.805 36.5 318.805 47 318.805 62L318.805 331C318.805 340.75 326.805 348 336.305 348C346.055 348.25 352.555 342 354.555 332L397.805 98.75C400.805 82 412.555 74.25 426.305 76.5C440.055 78.5 448.305 90.25 446.055 106L402.055 406.75C398.305 432 412.555 440.75 425.305 440.75C436.305 440.75 444.055 435.25 451.805 421L505.555 319.25C512.805 304.5 525.555 300 537.305 304.75C549.805 309 555.305 322 549.055 337.75L481.305 503.25C438.305 606.5 374.805 653 284.305 653Z" fill="black" fill-opacity="0.85"/>
 </g>
</svg>
