<?xml version="1.0" encoding="UTF-8"?>
<!--Generator: Apple Native CoreSVG 326-->
<!DOCTYPE svg
PUBLIC "-//W3C//DTD SVG 1.1//EN"
       "http://www.w3.org/Graphics/SVG/1.1/DTD/svg11.dtd">
<svg version="1.1" xmlns="http://www.w3.org/2000/svg" xmlns:xlink="http://www.w3.org/1999/xlink" viewBox="0 0 685.75 525.25">
 <g>
  <rect height="525.25" opacity="0" width="685.75" x="0" y="0"/>
  <path d="M685.75 299.75C685.75 194 627.5 105.5 496 61.5L330.25 6.5C324.5 4.25 318.25 2.75 310.75 2.75C291.5 2.75 275.5 17.25 275.5 40.25C275.5 55.25 283 66.5 300.5 74L416.25 123.75C425.25 127.5 428.25 132 428.25 137.25C428.25 143.25 423.5 149 414.75 149L49.5 149C24.5 149 8.5 164.75 8.5 187C8.5 208.25 24.5 224.5 49.5 224.5L302.75 224.5C315 224.5 321.25 230.75 321.25 238.75C321.25 246 315 252.25 302.75 252.25L224.75 252.25C213.5 252.25 207.5 259 207.5 272C207.5 301.25 226 324.5 265.25 324.5L302.75 324.5C315 324.5 321.25 330.75 321.25 338.5C321.25 346 315 352.25 302.75 352.25L262.5 352.25C250.75 352.25 245 358.5 245 372C245 402.5 268 424.75 303 424.75L323.25 424.75C335.5 424.75 341.25 431.25 341.25 439C341.25 446.5 335.5 452.75 323.25 452.75L293 452.75C286 452.75 282.25 456.75 282.25 464.25C282.25 496.25 318.5 525.25 377.5 525.25L439.25 525.25C597.5 525.25 685.75 444.75 685.75 299.75Z" fill="black" fill-opacity="0.85"/>
 </g>
</svg>
