<?xml version="1.0" encoding="UTF-8"?>
<!--Generator: Apple Native CoreSVG 326-->
<!DOCTYPE svg
PUBLIC "-//W3C//DTD SVG 1.1//EN"
       "http://www.w3.org/Graphics/SVG/1.1/DTD/svg11.dtd">
<svg version="1.1" xmlns="http://www.w3.org/2000/svg" xmlns:xlink="http://www.w3.org/1999/xlink" viewBox="0 0 872.59 825.276">
 <g>
  <rect height="825.276" opacity="0" width="872.59" x="0" y="0"/>
  <path d="M21.1698 223.013L114.67 243.013C124.42 245.263 130.17 254.263 128.42 263.513C126.42 273.263 116.92 279.013 107.92 277.263L14.1698 257.513C4.6698 255.763-1.0802 246.763 0.169799 237.513C1.4198 227.263 11.1698 220.763 21.1698 223.013ZM98.4198 79.0129L165.92 146.513C172.92 153.513 172.67 164.513 165.92 171.513C159.17 178.513 147.92 178.513 141.17 171.513L73.6698 104.013C66.1698 96.5129 66.6698 86.0129 73.6698 79.0129C80.4198 72.0129 91.1698 71.7629 98.4198 79.0129ZM251.92 24.0129L272.17 117.263C274.17 126.263 267.67 136.013 258.17 138.013C248.42 140.263 239.17 133.513 237.17 124.263L216.92 31.2629C214.92 21.7629 221.67 12.2629 230.92 10.5129C240.42 8.51288 249.92 14.2629 251.92 24.0129Z" fill="black" fill-opacity="0.85"/>
  <path d="M740.67 251.513C750.17 260.513 763.42 287.263 774.42 308.513C806.17 366.513 833.17 418.763 851.42 468.763C889.67 565.513 874.42 644.513 802.42 716.763C764.847 754.229 721.021 777.285 675.242 783.45C691.902 772.817 707.76 759.886 722.67 745.013C806.17 661.513 824.17 566.763 781.17 456.513C762.17 403.263 733.92 348.013 701.92 289.763C698.286 282.838 694.595 275.724 690.868 268.774C692.305 262.661 695.367 257.473 700.17 252.763C712.42 240.763 728.92 239.513 740.67 251.513ZM477.42 194.513L544.284 261.448C542.389 271.096 542.459 281.803 544.67 293.763L559.67 328.513L428.398 197.038C429.102 196.165 429.86 195.322 430.67 194.513C443.42 181.763 464.42 181.763 477.42 194.513Z" fill="black" fill-opacity="0.85"/>
  <path d="M382.42 712.263C483.67 813.263 606.67 804.763 694.67 716.763C766.92 644.513 782.17 565.513 743.67 468.763C725.42 418.763 698.42 366.513 666.92 308.513C655.67 287.263 642.42 260.513 633.17 251.513C621.17 239.513 604.92 240.763 592.42 252.763C579.67 265.513 579.17 281.763 589.17 310.263L626.17 408.763C630.67 420.513 629.42 427.513 625.17 431.763C619.92 436.763 612.67 437.763 603.67 428.513L369.67 194.513C356.92 181.763 335.67 181.763 323.17 194.513C310.17 207.263 310.17 228.263 323.17 241.263L489.67 407.513C480.67 411.513 471.42 416.763 462.42 422.763L266.67 227.013C253.92 214.263 232.67 214.263 219.92 227.013C207.17 240.013 207.17 260.763 219.92 273.763L412.92 466.763C405.67 475.263 398.92 484.263 392.67 493.013L217.67 318.013C204.67 305.013 183.92 305.013 170.92 318.013C158.42 330.763 158.42 351.763 170.92 364.513L361.17 554.513C356.67 566.263 353.92 577.763 351.92 588.263L219.92 456.513C207.42 443.513 186.17 443.513 173.17 456.513C160.67 469.263 160.67 490.263 173.17 503.263Z" fill="black" fill-opacity="0.85"/>
 </g>
</svg>
