<?xml version="1.0" encoding="UTF-8"?>
<!--Generator: Apple Native CoreSVG 326-->
<!DOCTYPE svg
PUBLIC "-//W3C//DTD SVG 1.1//EN"
       "http://www.w3.org/Graphics/SVG/1.1/DTD/svg11.dtd">
<svg version="1.1" xmlns="http://www.w3.org/2000/svg" xmlns:xlink="http://www.w3.org/1999/xlink" viewBox="0 0 515.254 667.25">
 <g>
  <rect height="667.25" opacity="0" width="515.254" x="0" y="0"/>
  <path d="M222.252 2.5C90.7518 2.5 0.00175472 89 0.00175472 239L0.00175472 306.5C0.00175472 380.75 33.5018 423.25 92.2518 424C99.2518 447 118.502 461.5 145.002 461.5C154.752 461.5 164.252 459.75 173.752 456.5C181.502 481.5 202.002 497 229.752 497C237.502 497 245.752 495.75 253.752 493.25L253.752 603.25C253.752 642 279.752 667.25 315.252 667.25C351.252 667.25 377.252 642 377.252 603.25L377.252 326.25C377.252 324.5 378.002 323.25 379.752 323.25C381.002 323.25 382.002 324.25 382.502 325.75L408.002 388C418.502 412.75 437.002 425.75 459.002 425.75C489.002 425.75 515.502 406.25 515.252 372.5C515.252 363.5 513.252 351.5 509.752 341.25L452.002 178.5C411.002 62.25 333.002 2.5 222.252 2.5ZM221.002 40.5C311.502 40.5 380.252 84.75 417.752 190.5L475.752 353C477.502 358 478.502 362.5 478.502 368.25C478.502 380.5 469.252 390.75 455.252 390.75C444.002 390.75 436.752 383.75 431.502 371.5L388.502 272.75C382.002 258 372.752 253 362.002 253C349.252 253 340.002 262.75 340.002 276.75L340.002 605.5C340.002 621 330.002 631.5 315.252 631.5C300.502 631.5 291.002 621 291.002 605.5L291.002 372C291.002 362 283.002 354 273.002 354C263.002 354 255.252 362 255.252 372L255.252 456.75C249.002 459.5 241.002 461.25 234.252 461.25C216.752 461.25 206.252 450 206.252 431L206.252 359.75C206.252 348.5 197.752 341.75 188.252 341.75C179.002 341.75 170.752 348.5 170.752 359.75L170.752 421C164.252 423.75 156.252 425.75 149.752 425.75C132.002 425.75 121.752 414.25 121.752 395.5L121.752 347.5C121.752 336.25 113.252 329.25 103.502 329.25C94.2518 329.25 86.0018 336.25 86.0018 347.5L86.0018 386C54.5018 386 37.0018 355.5 37.0018 301.5L37.0018 243C37.0018 112.25 108.752 40.5 221.002 40.5Z" fill="black" fill-opacity="0.85"/>
 </g>
</svg>
