<?xml version="1.0" encoding="UTF-8"?>
<!--Generator: Apple Native CoreSVG 326-->
<!DOCTYPE svg
PUBLIC "-//W3C//DTD SVG 1.1//EN"
       "http://www.w3.org/Graphics/SVG/1.1/DTD/svg11.dtd">
<svg version="1.1" xmlns="http://www.w3.org/2000/svg" xmlns:xlink="http://www.w3.org/1999/xlink" viewBox="0 0 720.25 854.25">
 <g>
  <rect height="854.25" opacity="0" width="720.25" x="0" y="0"/>
  <path d="M137 277.5C137 267.25 128.75 259 118.75 259L18.25 258.75C8.25 258.75 0 267 0 277.25C0 287.25 8.25 295.5 18.25 295.5L118.75 295.75C128.75 295.75 137 287.5 137 277.5ZM177.75 178.25C184.5 171 185 159.5 177.75 152.25L107 81C99.75 74 88.25 74.25 81 81C74 88.25 73.75 99.75 81 107L151.5 178.25C159 185.5 170.25 185.25 177.75 178.25ZM277.75 137C287.75 137 296 128.75 296 118.5L296.25 18.25C296.25 8.25 288 0 277.75 0C267.75 0 259.5 8.25 259.5 18.25L259.25 118.5C259.25 128.75 267.5 137 277.75 137ZM377.75 178.5C385 185.25 396.25 185.5 403.75 178.5L474.5 107.25C481.75 100.25 481.5 88.75 474.5 81.25C467.25 74.5 456 74.25 448.5 81.25L377.75 152.5C370.5 159.5 370.75 171 377.75 178.5Z" fill="black" fill-opacity="0.85"/>
  <path d="M577.5 793C707.5 745.75 750.5 640.75 699 499.25L678.75 443.75C659.5 390.75 622.25 367.75 593.25 378.5C586.75 380.75 584.5 385.5 586.75 391.75L596.5 418.75C600.5 429.5 596.75 437.25 590.25 439.5C583 442.25 575.5 438.75 571.5 427.75L565 409.75C553.5 378.5 526 365.25 498.75 375C486.5 379.5 483 386.5 486.75 397L499.75 433.25C503.75 444.25 500.25 451.75 493.5 454.25C486.5 456.75 478.75 453.25 475 442.25L462.75 408.75C450 373.5 423.25 364.5 397 374C385.5 378.25 381.25 386 384.75 396L410.25 465.75C414.25 476.75 410.75 484.25 404 486.75C397 489.25 389.25 486 385.25 475L302.75 248.25C294.75 226 275 216.75 256.25 223.75C236.25 231 227.25 250.5 235.5 273L354.5 599.75C357.25 607.5 353.75 613.5 348.5 615.5C343.5 617.25 338.5 616 332.25 609.25L250 521.75C237.5 508.5 225 505.75 211.75 510.5C191 518 183.5 536.75 189.75 554.25C192.25 560.75 195.75 566 199.25 570.5L302.5 700.75C384.75 804.25 482.75 827.5 577.5 793Z" fill="black" fill-opacity="0.85"/>
 </g>
</svg>
