<?xml version="1.0" encoding="UTF-8"?>
<!--Generator: Apple Native CoreSVG 326-->
<!DOCTYPE svg
PUBLIC "-//W3C//DTD SVG 1.1//EN"
       "http://www.w3.org/Graphics/SVG/1.1/DTD/svg11.dtd">
<svg version="1.1" xmlns="http://www.w3.org/2000/svg" xmlns:xlink="http://www.w3.org/1999/xlink" viewBox="0 0 756.625 894.25">
 <g>
  <rect height="894.25" opacity="0" width="756.625" x="0" y="0"/>
  <path d="M102.938 670C116.438 732 114.188 734 180.188 747.5C184.188 748.25 186.438 750.25 186.438 754.5C186.438 758.5 184.188 760.5 180.188 761.5C114.188 773.75 113.688 775.75 102.938 838.75C102.188 842.75 99.9375 844.75 95.9375 844.75C92.1875 844.75 89.9375 842.75 88.9375 838.75C77.6875 775.75 78.4375 774.75 12.1875 761.5C7.9375 760.5 5.4375 758.5 5.4375 754.5C5.4375 750.25 7.9375 748.25 12.1875 747.5C78.4375 734 75.4375 732 88.9375 670C89.9375 666 92.1875 664 95.9375 664C99.9375 664 102.188 666 102.938 670ZM484.938 21.75C495.438 99.25 498.438 98 577.688 113.5C581.938 114.25 585.188 117.25 585.188 121.75C585.188 126.5 581.938 129.25 576.688 130C497.938 143.5 495.438 144.5 484.938 221.75C484.688 226.75 481.188 229.75 476.688 229.75C472.438 229.75 468.938 226.75 468.688 222.25C457.438 144.75 456.438 145.5 375.938 130C371.688 129.25 368.438 126.25 368.438 121.75C368.438 117.25 371.688 114 375.938 113.5C456.438 101 457.688 99.75 468.688 21.5C468.938 16.75 472.438 13.75 476.688 13.75C481.188 13.75 484.688 16.75 484.938 21.75ZM268.188 5.5C279.188 54.25 277.188 55.5 328.188 65.5C331.938 66.5 333.938 68.5 333.938 72.25C333.938 75.75 331.938 77.75 328.188 78.75C277.188 88 276.688 89 268.188 139C267.438 142.5 264.938 144.25 261.688 144.25C258.438 144.25 256.188 142.25 255.438 139C246.438 89 246.688 88.75 195.438 78.75C191.688 77.75 189.438 75.5 189.438 72.25C189.438 68.75 191.688 66.5 195.438 65.5C246.688 55.5 244.438 54.25 255.438 5.5C256.188 2.25 258.438 0 261.688 0C265.188 0 267.438 2 268.188 5.5Z" fill="black" fill-opacity="0.85"/>
  <path d="M619.188 286C628.438 295 641.688 321.75 652.938 343C684.438 401 711.438 453.25 729.688 503.25C767.938 600 752.938 679 680.688 751.25C643.246 788.692 599.469 811.741 553.705 817.922C570.374 807.291 586.249 794.366 601.188 779.5C684.438 696 702.438 601.25 659.688 491C640.438 437.75 612.438 382.5 580.438 324.25C576.729 317.314 573.001 310.189 569.254 303.228C570.7 297.129 573.736 291.952 578.438 287.25C590.688 275.25 607.188 274 619.188 286ZM355.688 229L422.483 295.795C420.535 305.471 420.61 316.162 422.938 328L438.188 363L306.803 231.616C307.537 230.709 308.334 229.837 309.188 229C321.688 216.25 342.938 216.25 355.688 229Z" fill="black" fill-opacity="0.85"/>
  <path d="M260.688 746.75C361.938 847.75 484.938 839.25 572.938 751.25C645.188 679 660.438 600 622.188 503.25C603.688 453.25 576.938 401 545.188 343C533.938 321.75 520.688 295 511.438 286C499.438 274 483.188 275.25 470.938 287.25C457.938 300 457.688 316.25 467.438 344.75L504.438 443.25C509.188 455 507.688 462 503.438 466.25C498.188 471.25 491.188 472.25 481.938 463L248.188 229C235.188 216.25 214.188 216.25 201.438 229C188.438 241.75 188.438 262.75 201.438 275.75L367.938 442C358.938 446 349.688 451.25 340.688 457.25L144.938 261.5C132.188 248.75 111.188 248.75 98.1875 261.5C85.6875 274.5 85.6875 295.25 98.1875 308.25L291.188 501.25C283.938 509.75 277.188 518.75 271.188 527.5L95.9375 352.5C83.1875 339.5 62.1875 339.5 49.1875 352.5C36.6875 365.25 36.6875 386.25 49.1875 399L239.438 589C234.938 600.75 232.188 612.25 230.188 622.75L98.1875 491C85.6875 478 64.4375 478 51.6875 491C38.9375 503.75 38.9375 524.75 51.6875 537.75Z" fill="black" fill-opacity="0.85"/>
 </g>
</svg>
