<?xml version="1.0" encoding="UTF-8"?>
<!--Generator: Apple Native CoreSVG 326-->
<!DOCTYPE svg
PUBLIC "-//W3C//DTD SVG 1.1//EN"
       "http://www.w3.org/Graphics/SVG/1.1/DTD/svg11.dtd">
<svg version="1.1" xmlns="http://www.w3.org/2000/svg" xmlns:xlink="http://www.w3.org/1999/xlink" viewBox="0 0 1114.25 667.75">
 <g>
  <rect height="667.75" opacity="0" width="1114.25" x="0" y="0"/>
  <path d="M931 136.5L931 185.67C917.123 179.608 902.116 176.026 886.5 175.529L886.5 138.75C886.5 103 867 84.25 832.75 84.25L271.75 84.25C236.75 84.25 217.75 103 217.75 138.75L217.75 529C217.75 565 236.75 583.5 271.75 583.5L648.748 583.5C648.063 588.383 647.75 593.221 647.75 598C647.75 608.92 650.045 618.946 654.307 627.75L270.75 627.75C206.25 627.75 173.5 595.5 173.5 531.5L173.5 136.5C173.5 72.5 206.25 40 270.75 40L833.5 40C898.25 40 931 72.75 931 136.5Z" fill="black" fill-opacity="0.85"/>
  <path d="M846.75 156.25L846.75 180.319C791.495 196.227 749.542 249.686 749.75 314.25C749.75 361.196 770.984 402.279 803.428 427.677C733.053 447.904 682.486 494.324 660.534 543.5L289 543.5C269 543.5 257.75 532 257.75 511.75L257.75 156.25C257.75 135.75 269 124.25 289 124.25L815.25 124.25C835.5 124.25 846.75 135.75 846.75 156.25Z" fill="black" fill-opacity="0.2125"/>
  <path d="M725.25 627.75L1037 627.75C1060 627.75 1074.5 616.5 1074.5 598C1074.5 538.5 1000.5 456.5 881.25 456.5C761.75 456.5 687.5 538.5 687.5 598C687.5 616.5 702 627.75 725.25 627.75ZM881.25 415.25C931 415.25 973 371.25 973 313.75C973 258 930.5 215.25 881.25 215.25C832 215.25 789.5 258.5 789.5 314.25C789.5 371.25 831.75 415.25 881.25 415.25Z" fill="black" fill-opacity="0.85"/>
 </g>
</svg>
