<?xml version="1.0" encoding="UTF-8"?>
<!--Generator: Apple Native CoreSVG 326-->
<!DOCTYPE svg
PUBLIC "-//W3C//DTD SVG 1.1//EN"
       "http://www.w3.org/Graphics/SVG/1.1/DTD/svg11.dtd">
<svg version="1.1" xmlns="http://www.w3.org/2000/svg" xmlns:xlink="http://www.w3.org/1999/xlink" viewBox="0 0 819.971 399.75">
 <g>
  <rect height="399.75" opacity="0" width="819.971" x="0" y="0"/>
  <path d="M17.2354 168.5C141.235 322.5 256.735 399.75 409.985 399.75C563.235 399.75 678.735 322.5 802.735 168.5C834.485 129 819.485 91.75 781.235 87C666.985 73.75 634.735 0.25 542.985 0.25C468.235 0.25 425.735 58.25 409.985 58.25C394.235 58.25 351.735 0.25 276.985 0.25C185.235 0.25 152.985 73.75 38.7354 87C0.485353 91.75-14.5146 129 17.2354 168.5ZM83.2354 159.25C68.2354 150.25 77.7354 132.75 91.7354 139.75C138.735 164 188.985 160.75 248.985 155C264.735 153.25 280.485 151.5 295.735 151.5C343.235 151.5 368.235 167.75 386.235 178.25C397.735 184.5 403.235 186.5 409.985 186.5C416.735 186.5 422.235 184.5 433.735 178.25C451.985 168 476.735 151.5 524.235 151.5C539.485 151.5 555.235 153.25 570.985 155C630.735 162 681.235 164 728.235 139.75C742.235 132.75 751.735 150.25 736.735 159.25C661.735 205.75 576.735 188.75 534.235 188.25C463.735 188 453.985 226 409.985 226C365.985 226 356.235 188 285.735 188.25C243.235 188.75 157.985 206.5 83.2354 159.25Z" fill="black" fill-opacity="0.85"/>
 </g>
</svg>
