<?xml version="1.0" encoding="UTF-8"?>
<!--Generator: Apple Native CoreSVG 326-->
<!DOCTYPE svg
PUBLIC "-//W3C//DTD SVG 1.1//EN"
       "http://www.w3.org/Graphics/SVG/1.1/DTD/svg11.dtd">
<svg version="1.1" xmlns="http://www.w3.org/2000/svg" xmlns:xlink="http://www.w3.org/1999/xlink" viewBox="0 0 909 342.25">
 <g>
  <rect height="342.25" opacity="0" width="909" x="0" y="0"/>
  <path d="M0 159.5C0 265 109.25 342.25 239.25 342.25C333.75 342.25 410 309 454.5 248.75C499 309 575.5 342.25 669.75 342.25C799.75 342.25 909 265 909 159.5C909 125.5 899.75 102.25 878.5 102.25C871.5 102.25 864 106.75 859 114C841.25 138.5 812.75 152 778 152C681 152 654.25 33.5 537.5 33.5C484.25 33.5 446.5 62 435.25 110L473.75 110C462.5 62 424.75 33.5 371.5 33.5C254.75 33.5 228 152 131 152C98.25 152 69.75 138.75 49.75 113.75C44.25 106.75 37.5 102.25 30.5 102.25C9.5 102.25 0 125.5 0 159.5Z" fill="black" fill-opacity="0.85"/>
 </g>
</svg>
