<?xml version="1.0" encoding="UTF-8"?>
<!--Generator: Apple Native CoreSVG 326-->
<!DOCTYPE svg
PUBLIC "-//W3C//DTD SVG 1.1//EN"
       "http://www.w3.org/Graphics/SVG/1.1/DTD/svg11.dtd">
<svg version="1.1" xmlns="http://www.w3.org/2000/svg" xmlns:xlink="http://www.w3.org/1999/xlink" viewBox="0 0 906.75 361.75">
 <g>
  <rect height="361.75" opacity="0" width="906.75" x="0" y="0"/>
  <path d="M245.75 361.75C333.5 361.75 408.25 332.75 453.5 280.5C498.5 332.75 573.25 361.75 661 361.75C799.25 361.75 906.75 278 906.75 171.25C906.75 129.5 889 104.25 857.5 104.25C845 104.25 833.5 109.75 823.25 120.25C811 132.75 787.75 145.25 763 145.25C678.75 145.25 660.25 33.25 530.75 33.25C500.75 33.25 474.5 41.75 453.5 58C432.25 41.75 406 33.25 376 33.25C246.5 33.25 228 145.25 143.75 145.25C119 145.25 95.75 132.75 83.5 120.25C73.25 109.75 61.75 104.25 49.25 104.25C17.75 104.25 0 129.5 0 171.25C0 278 107.5 361.75 245.75 361.75ZM245.75 317.5C133 317.5 44.25 252.75 44.25 170.5C44.25 158 54.75 156 62.5 161.25C81.5 178 112.5 189.5 143.75 189.5C198.5 189.5 235.25 158.75 267 131.5C299.75 103.5 328.75 77.75 376 77.75C406.75 77.75 430.75 90.5 444.25 112.5C448.25 120.25 458.25 120.5 462.5 112.5C475.75 90.5 500 77.75 530.75 77.75C578 77.75 607 103.5 639.75 131.5C671.5 158.75 708.25 189.5 763 189.5C794.25 189.5 825.5 177.75 845 160.25C853 154.75 862.5 156.5 862.5 170.5C862.5 252.75 773.75 317.5 661 317.5C565.5 317.5 493.75 279.75 464.5 218.5C460 208 446.75 207.75 442.25 218.5C413.25 279.75 341.5 317.5 245.75 317.5Z" fill="black" fill-opacity="0.85"/>
 </g>
</svg>
