<?xml version="1.0" encoding="UTF-8"?>
<!--Generator: Apple Native CoreSVG 326-->
<!DOCTYPE svg
PUBLIC "-//W3C//DTD SVG 1.1//EN"
       "http://www.w3.org/Graphics/SVG/1.1/DTD/svg11.dtd">
<svg version="1.1" xmlns="http://www.w3.org/2000/svg" xmlns:xlink="http://www.w3.org/1999/xlink" viewBox="0 0 641.25 625.75">
 <g>
  <rect height="625.75" opacity="0" width="641.25" x="0" y="0"/>
  <path d="M0 482.75C0 562.25 55 615 138.75 615C165 615 192.5 606.25 211.5 592.5C197.25 582.25 184.75 570.75 168.5 550.5C161.25 554.25 151.5 557 142.25 557C117.75 557 101 542.75 101 522.5C101 503.25 115.5 489.75 136.75 489.75C155.5 489.75 168 500.75 182.5 516.75C218.25 555.25 250.25 593.25 320.75 593.25C391 593.25 423 555.25 458.75 516.75C473.25 500.75 485.75 489.75 504.5 489.75C525.75 489.75 540.25 503.25 540.25 522.5C540.25 542.75 523.75 557 499.25 557C489.75 557 480 554.25 473 550.5C456.75 570.75 444.25 582.25 430 592.5C448.75 606.25 476.5 615 502.75 615C586.5 615 641.25 562.25 641.25 482.75C641.25 406.5 586.25 349.75 501.75 341.25C470 270.25 444 175.75 425.5 96.25C411 33.5 377.75 0 320.75 0C263.5 0 230.5 33.5 215.75 96.25C197.25 175.75 171.25 270.25 139.75 341.25C55.25 349.75 0 406.5 0 482.75Z" fill="black" fill-opacity="0.85"/>
 </g>
</svg>
