<?xml version="1.0" encoding="UTF-8"?>
<!--Generator: Apple Native CoreSVG 326-->
<!DOCTYPE svg
PUBLIC "-//W3C//DTD SVG 1.1//EN"
       "http://www.w3.org/Graphics/SVG/1.1/DTD/svg11.dtd">
<svg version="1.1" xmlns="http://www.w3.org/2000/svg" xmlns:xlink="http://www.w3.org/1999/xlink" viewBox="0 0 790 576.75">
 <g>
  <rect height="576.75" opacity="0" width="790" x="0" y="0"/>
  <path d="M52.75 576.5L488.25 576.5C521 576.5 541 560.75 541 535.25C541 452.25 437.25 337.75 270.5 337.75C103.75 337.75 0 452.25 0 535.25C0 560.75 20 576.5 52.75 576.5ZM270.75 280C340.5 280 399 218 399 138C399 59.75 340 0 270.75 0C201.75 0 142.75 60.75 142.75 138.5C142.75 218 201.25 280 270.75 280Z" fill="black" fill-opacity="0.85"/>
  <path d="M608.25 297.75C617.25 297.75 624.75 293.25 630.25 285L783.75 44.75C786.75 39.75 790 33.25 790 27.5C790 15.25 779.25 7 767.75 7C760.5 7 753.5 11.25 748.5 19.5L607 244.25L536.5 156C530.25 147.5 524 145 516.25 145C504.25 145 495 154.5 495 166.75C495 172.75 497.25 179 501.25 184.25L584.75 285C591.75 294 599 297.75 608.25 297.75Z" fill="black" fill-opacity="0.85"/>
 </g>
</svg>
