<?xml version="1.0" encoding="UTF-8"?>
<!--Generator: Apple Native CoreSVG 326-->
<!DOCTYPE svg
PUBLIC "-//W3C//DTD SVG 1.1//EN"
       "http://www.w3.org/Graphics/SVG/1.1/DTD/svg11.dtd">
<svg version="1.1" xmlns="http://www.w3.org/2000/svg" xmlns:xlink="http://www.w3.org/1999/xlink" viewBox="0 0 651.25 651.75">
 <g>
  <rect height="651.75" opacity="0" width="651.25" x="0" y="0"/>
  <path d="M651.25 326C651.25 505.5 505 651.75 325.5 651.75C146.25 651.75 0 505.5 0 326C0 146.75 146.25 0.5 325.5 0.5C505 0.5 651.25 146.75 651.25 326ZM155.5 475.75C155.5 486.75 161 494.5 173 494.5L478 494.5C490.25 494.5 495.5 486.75 495.5 475.75C495.5 439.5 441.25 344.25 325.5 344.25C210 344.25 155.5 439.5 155.5 475.75ZM241 224.75C241 277.5 278.75 317 325.5 317.25C372.25 317.5 410 277.5 410 224.75C410 175.5 372.25 134.5 325.5 134.5C278.75 134.5 241 175.5 241 224.75Z" fill="black" fill-opacity="0.85"/>
 </g>
</svg>
