<?xml version="1.0" encoding="UTF-8"?>
<!--Generator: Apple Native CoreSVG 326-->
<!DOCTYPE svg
PUBLIC "-//W3C//DTD SVG 1.1//EN"
       "http://www.w3.org/Graphics/SVG/1.1/DTD/svg11.dtd">
<svg version="1.1" xmlns="http://www.w3.org/2000/svg" xmlns:xlink="http://www.w3.org/1999/xlink" viewBox="0 0 651.25 651.75">
 <g>
  <rect height="651.75" opacity="0" width="651.25" x="0" y="0"/>
  <path d="M651.25 326C651.25 505.5 505 651.75 325.5 651.75C146.25 651.75 0 505.5 0 326C0 146.75 146.25 0.5 325.5 0.5C505 0.5 651.25 146.75 651.25 326ZM108 438C108 452.75 116 460.25 135 460.25L260.007 460.25C256.322 453.511 255 446.081 255 439.25C255 412.767 269.972 383.158 296.688 359.896C276.543 347.173 251.845 339.75 226.5 339.75C165.75 339.75 108 382.75 108 438ZM277 439.25C277 453.5 286.25 460.25 309.5 460.25L516.75 460.25C540.5 460.25 549 453.5 549 439.25C549 397.75 497.25 340.25 413.75 340.25C329.5 340.25 277 397.75 277 439.25ZM170.5 252.75C170.5 287.75 196.25 314.75 226.5 314.75C257.25 314.75 282.75 287.75 282.75 252.5C282.75 218.5 256.75 192 226.5 192C196.75 192 170.5 219 170.5 252.75ZM349.25 240C349.25 280 378.25 311.25 413.75 311.25C448.5 311.25 477.75 280 477.75 239.75C477.75 200.5 448.25 170.25 413.75 170.25C378.5 170.25 349.25 201.25 349.25 240Z" fill="black" fill-opacity="0.85"/>
 </g>
</svg>
