<?xml version="1.0" encoding="UTF-8"?>
<!--Generator: Apple Native CoreSVG 326-->
<!DOCTYPE svg
PUBLIC "-//W3C//DTD SVG 1.1//EN"
       "http://www.w3.org/Graphics/SVG/1.1/DTD/svg11.dtd">
<svg version="1.1" xmlns="http://www.w3.org/2000/svg" xmlns:xlink="http://www.w3.org/1999/xlink" viewBox="0 0 651.25 651.75">
 <g>
  <rect height="651.75" opacity="0" width="651.25" x="0" y="0"/>
  <path d="M325.5 651.25C505.25 651.25 651.25 505.5 651.25 325.75C651.25 146 505.25 0 325.5 0C145.75 0 0 146 0 325.75C0 505.5 145.75 651.25 325.5 651.25ZM325.5 604.75C171.25 604.75 46.5 480 46.5 325.75C46.5 171.5 171.25 46.75 325.5 46.75C479.75 46.75 604.5 171.5 604.5 325.75C604.5 480 479.75 604.75 325.5 604.75Z" fill="black" fill-opacity="0.85"/>
  <path d="M176.25 490L474.25 490C485.75 490 491.25 482.5 491.25 471.5C491.25 436.25 438.25 343 325.25 343C212.5 343 159.5 436.25 159.5 471.5C159.5 482.5 164.75 490 176.25 490ZM325.25 316.75C371 317 407.75 278.25 407.75 226.75C407.75 178.25 371 138.25 325.25 138.25C279.5 138.25 242.75 178.25 242.75 226.75C242.75 278.25 279.5 316.5 325.25 316.75Z" fill="black" fill-opacity="0.85"/>
 </g>
</svg>
