<?xml version="1.0" encoding="UTF-8"?>
<!--Generator: Apple Native CoreSVG 326-->
<!DOCTYPE svg
PUBLIC "-//W3C//DTD SVG 1.1//EN"
       "http://www.w3.org/Graphics/SVG/1.1/DTD/svg11.dtd">
<svg version="1.1" xmlns="http://www.w3.org/2000/svg" xmlns:xlink="http://www.w3.org/1999/xlink" viewBox="0 0 757.5 587.75">
 <g>
  <rect height="587.75" opacity="0" width="757.5" x="0" y="0"/>
  <path d="M97.25 587.75L660 587.75C724.75 587.75 757.5 555 757.5 491.5L757.5 96.5C757.5 32.75 724.75 0 660 0L97.25 0C32.75 0 0 32.5 0 96.5L0 491.5C0 555.5 32.75 587.75 97.25 587.75ZM98.25 543.5C63.25 543.5 44.25 525 44.25 489L44.25 98.75C44.25 63 63.25 44.25 98.25 44.25L659.25 44.25C693.5 44.25 713 63 713 98.75L713 489C713 525 693.5 543.5 659.25 543.5Z" fill="black" fill-opacity="0.85"/>
  <path d="M137 431.25L320 431.25C350.5 431.25 365.5 416 365.5 386.5L365.5 201.75C365.5 172.5 350.5 157.25 320 157.25L137 157.25C106.75 157.25 91.5 172.25 91.5 201.75L91.5 386.5C91.5 416.25 106.75 431.25 137 431.25ZM129 403.75C136.75 375.25 171.5 343 228.75 343C285.75 343 320.75 375.25 328.25 403.75ZM228.5 319.5C200 319.5 177.25 295.25 177.25 263.5C177.25 233 200 208.75 228.5 208.75C257 208.75 279.75 233 279.75 263.5C279.75 295.25 257 319.5 228.5 319.5ZM538.75 428.25C560.75 428.25 580.5 426.25 592.25 421.5C600 418.25 604.5 413.25 604.5 406C604.5 398.75 599.5 393.25 591.75 393.25C588.25 393.25 585 394 579.75 395C570.5 396.5 561 399.75 541.5 399.75C476.5 399.75 435.5 359 435.5 294.5C435.5 231.75 477.5 188 538.25 188C598.25 188 639 226.25 639 282.75C639 318.25 628.5 339 611 339C599.5 339 594.25 333.25 594.25 320.75L594.25 239C594.25 230.25 588.25 223.75 580 223.75C573.5 223.75 567.5 228.5 566 234.5L566 239.25C558 229.5 546.25 223.75 530.5 223.75C496 223.75 471.75 253.5 471.75 295C471.75 337.75 496 366.5 531.25 366.5C547.75 366.5 561.75 359.25 571 345.75C578 359 591.75 366.75 608.75 366.75C644.5 366.75 667.5 333.25 667.5 281.25C667.5 209.75 614.25 159.75 538.25 159.75C459.75 159.75 405.25 215 405.25 294.25C405.25 374.25 459 428.25 538.75 428.25ZM535 337.75C515.5 337.75 503.25 321.25 503.25 294.5C503.25 268.25 516 251.75 535.25 251.75C554.75 251.75 566.75 267.5 566.75 293.5C566.75 320.75 554.75 337.75 535 337.75Z" fill="black" fill-opacity="0.85"/>
 </g>
</svg>
