<?xml version="1.0" encoding="UTF-8"?>
<!--Generator: Apple Native CoreSVG 326-->
<!DOCTYPE svg
PUBLIC "-//W3C//DTD SVG 1.1//EN"
       "http://www.w3.org/Graphics/SVG/1.1/DTD/svg11.dtd">
<svg version="1.1" xmlns="http://www.w3.org/2000/svg" xmlns:xlink="http://www.w3.org/1999/xlink" viewBox="0 0 757.5 587.75">
 <g>
  <rect height="587.75" opacity="0" width="757.5" x="0" y="0"/>
  <path d="M757.5 96.5L757.5 491.5C757.5 555 724.75 587.75 660 587.75L97.25 587.75C32.75 587.75 0 555.5 0 491.5L0 96.5C0 32.5 32.75 0 97.25 0L660 0C724.75 0 757.5 32.75 757.5 96.5ZM98.75 428C98.75 437 103.25 443.5 113 443.5L371 443.5C380.75 443.5 385.5 437 385.5 428C385.5 397 339.5 316.5 242 316.5C144.5 316.5 98.75 397 98.75 428ZM454.5 407C444.25 407 436.75 414.75 436.75 424.5C436.75 434 444.25 441.5 454.5 441.5L634 441.5C644 441.5 651.5 434 651.5 424.5C651.5 414.75 644 407 634 407ZM454.5 277C444.25 277 436.75 284.5 436.75 294C436.75 303.75 444.25 311.5 454.5 311.5L634 311.5C644 311.5 651.5 303.75 651.5 294C651.5 284.5 644 277 634 277ZM170.5 216C170.5 260.5 202.5 293.75 242 293.75C281.5 294 313.25 260.5 313.25 216C313.25 174.25 281.5 139.5 242 139.5C202.5 139.5 170.5 174.25 170.5 216ZM454.5 146.75C444.25 146.75 436.75 154.25 436.75 164C436.75 173.75 444.25 181.5 454.5 181.5L634 181.5C644 181.5 651.5 173.75 651.5 164C651.5 154.25 644 146.75 634 146.75Z" fill="black" fill-opacity="0.85"/>
 </g>
</svg>
