<?xml version="1.0" encoding="UTF-8"?>
<!--Generator: Apple Native CoreSVG 326-->
<!DOCTYPE svg
PUBLIC "-//W3C//DTD SVG 1.1//EN"
       "http://www.w3.org/Graphics/SVG/1.1/DTD/svg11.dtd">
<svg version="1.1" xmlns="http://www.w3.org/2000/svg" xmlns:xlink="http://www.w3.org/1999/xlink" viewBox="0 0 783.75 576.75">
 <g>
  <rect height="576.75" opacity="0" width="783.75" x="0" y="0"/>
  <path d="M52.75 576.5L488.25 576.5C521 576.5 541 560.75 541 535.25C541 452.25 437.25 337.75 270.5 337.75C103.75 337.75 0 452.25 0 535.25C0 560.75 20 576.5 52.75 576.5ZM270.75 280C340.5 280 399 218 399 138C399 59.75 340 0 270.75 0C201.75 0 142.75 60.75 142.75 138.5C142.75 218 201.25 280 270.75 280Z" fill="black" fill-opacity="0.85"/>
  <path d="M538 272.5C544.25 272.5 549.75 270 554 265.5L649.5 169.75L745 265.5C749.5 269.75 754.75 272.5 761.25 272.5C773.75 272.5 783.5 262.25 783.5 250C783.5 243.75 781.25 238.5 776.75 234L681 138.5L777 42.25C781.75 37.5 783.75 32.5 783.75 26.5C783.75 14.25 774 4.5 761.5 4.5C755.5 4.5 750.75 6.5 745.75 11.5L649.5 107.25L553.5 11.75C549.25 7 544.25 5 538 5C525.5 5 515.5 14.5 515.5 26.75C515.5 32.75 517.75 38.25 522.25 42.5L618 138.5L522.25 234.25C517.75 238.5 515.5 244 515.5 250C515.5 262.25 525.5 272.5 538 272.5Z" fill="black" fill-opacity="0.85"/>
 </g>
</svg>
