<?xml version="1.0" encoding="UTF-8"?>
<!--Generator: Apple Native CoreSVG 326-->
<!DOCTYPE svg
PUBLIC "-//W3C//DTD SVG 1.1//EN"
       "http://www.w3.org/Graphics/SVG/1.1/DTD/svg11.dtd">
<svg version="1.1" xmlns="http://www.w3.org/2000/svg" xmlns:xlink="http://www.w3.org/1999/xlink" viewBox="0 0 783 808.75">
 <g>
  <rect height="808.75" opacity="0" width="783" x="0" y="0"/>
  <path d="M595.336 89L187.911 89C189.513 66.3493 204.219 53.25 228.25 53.25L554.75 53.25C578.781 53.25 593.709 66.3493 595.336 89Z" fill="black" fill-opacity="0.85"/>
  <path d="M659.857 176.496C650.895 175.126 641.402 174.5 631.5 174.5L151.5 174.5C141.595 174.5 132.102 175.121 123.144 176.48C126.545 149.898 144.861 135 174.25 135L608.75 135C638.145 135 656.463 149.904 659.857 176.496Z" fill="black" fill-opacity="0.85"/>
  <path d="M728.75 325L728.75 658.25C728.75 722 696 754.75 631.5 754.75L151.5 754.75C86.75 754.75 54.25 722.25 54.25 658.25L54.25 325C54.25 261 86.75 228.75 151.5 228.75L631.5 228.75C696 228.75 728.75 261.25 728.75 325ZM196 705.25L576.75 705.25C553.75 637 477.5 585.25 386.5 585.25C295.5 585.25 219.25 637 196 705.25ZM290 432.75C290 492.75 332.25 538.25 386.5 538.25C440.25 538.25 483 492.75 483 432.75C483 375.75 440.25 328.75 386.5 328.75C332.25 328.75 290 375.75 290 432.75Z" fill="black" fill-opacity="0.85"/>
 </g>
</svg>
