<?xml version="1.0" encoding="UTF-8"?>
<!--Generator: Apple Native CoreSVG 326-->
<!DOCTYPE svg
PUBLIC "-//W3C//DTD SVG 1.1//EN"
       "http://www.w3.org/Graphics/SVG/1.1/DTD/svg11.dtd">
<svg version="1.1" xmlns="http://www.w3.org/2000/svg" xmlns:xlink="http://www.w3.org/1999/xlink" viewBox="0 0 957.25 656.25">
 <g>
  <rect height="656.25" opacity="0" width="957.25" x="0" y="0"/>
  <path d="M418.875 418.308C365.984 464.125 336.25 522.67 336.25 575C336.25 590.021 339.412 604.16 346.642 616.25L93.5 616.25C55.5 616.25 39.75 601.25 39.75 572.5C39.75 482.75 130.25 376.25 275.25 376.25C332.374 376.25 381.03 392.722 418.875 418.308ZM387.25 203.25C387.25 273 336.25 327 275.75 327C215.25 327 164 273 164 203.75C164 136 215.75 83.25 275.75 83.25C335.75 83.25 387.25 135 387.25 203.25Z" fill="black" fill-opacity="0.85"/>
  <path d="M647 319.75C716.75 319.75 775.25 257.75 775.25 177.75C775.25 99.5 716.25 39.75 647 39.75C578 39.75 519 100.5 519 178.25C519 257.75 577.5 319.75 647 319.75ZM440.5 616.25L853 616.25C899.25 616.25 917.25 603 917.25 575C917.25 492 813.5 377.5 646.75 377.5C480 377.5 376.25 492 376.25 575C376.25 603 394.25 616.25 440.5 616.25Z" fill="black" fill-opacity="0.85"/>
 </g>
</svg>
