<?xml version="1.0" encoding="UTF-8"?>
<!--Generator: Apple Native CoreSVG 326-->
<!DOCTYPE svg
PUBLIC "-//W3C//DTD SVG 1.1//EN"
       "http://www.w3.org/Graphics/SVG/1.1/DTD/svg11.dtd">
<svg version="1.1" xmlns="http://www.w3.org/2000/svg" xmlns:xlink="http://www.w3.org/1999/xlink" viewBox="0 0 973.5 843.626">
 <g>
  <rect height="843.626" opacity="0" width="973.5" x="0" y="0"/>
  <path d="M425.012 503.277C413.768 512.493 403.61 522.333 394.731 532.655C362.394 514.572 323.675 503.688 282.75 503.688C174.25 503.688 81 580.188 81 664.188C81 673.188 85.25 676.688 95 676.688L335.344 676.688C336.427 692.014 340.887 705.928 349.053 717.688L101 717.688C60.25 717.688 39.75 700.688 39.75 666.438C39.75 562.438 145.25 462.938 282.75 462.938C336.587 462.938 385.54 478.248 425.012 503.277ZM229.891 230.8C214.753 246.644 205.25 269.145 205.25 293.938C205.25 343.938 240.5 383.438 283 383.438C308.701 383.438 331.691 369.162 345.874 346.74L375.468 376.323C353.729 405.925 320.458 424.688 283 424.688C217.25 424.688 164 366.688 164 293.938C164 257.997 178.17 225.153 200.854 201.773ZM383.566 225.254L338.984 180.672C357.27 191.084 372.664 206.494 383.566 225.254Z" fill="black" fill-opacity="0.85"/>
  <path d="M530.804 531.602C458.421 565.189 419.25 624.087 419.25 663.688C419.25 672.688 423.75 675.938 436 675.938L675.194 675.938L716.96 717.688L448.25 717.688C398.5 717.688 375 702.188 375 668.688C375 613.705 420.253 543.069 500.013 500.822ZM933.75 668.688C933.75 698.623 914.986 714.185 875.432 717.12L834.25 675.938L872.75 675.938C885 675.938 889.5 672.688 889.5 663.688C889.5 606.753 808.533 509.931 664.161 505.849L623.108 464.796C633.221 463.896 643.609 463.438 654.25 463.438C827.5 463.438 933.75 584.438 933.75 668.688ZM791.5 271.438C791.5 354.188 730.5 420.938 654.75 420.938C579 420.938 517.75 354.438 517.75 271.938C517.75 191.188 579.25 125.688 654.75 125.688C730.5 125.688 791.5 190.188 791.5 271.438ZM562 271.938C562 332.188 604 379.188 654.75 379.188C705.5 379.188 747.25 331.688 747.25 271.438C747.25 212.688 705.75 167.438 654.75 167.438C603.75 167.438 562 213.438 562 271.938Z" fill="black" fill-opacity="0.85"/>
  <path d="M851.25 802.438C859.5 810.938 873.25 810.938 881.5 802.438C889.75 793.938 890 780.938 881.5 772.438L205.25 96.188C196.75 87.938 183.5 87.688 175 96.188C166.75 104.438 166.75 118.438 175 126.438Z" fill="black" fill-opacity="0.85"/>
 </g>
</svg>
