<?xml version="1.0" encoding="UTF-8"?>
<!--Generator: Apple Native CoreSVG 326-->
<!DOCTYPE svg
PUBLIC "-//W3C//DTD SVG 1.1//EN"
       "http://www.w3.org/Graphics/SVG/1.1/DTD/svg11.dtd">
<svg version="1.1" xmlns="http://www.w3.org/2000/svg" xmlns:xlink="http://www.w3.org/1999/xlink" viewBox="0 0 708.326 710.75">
 <g>
  <rect height="710.75" opacity="0" width="708.326" x="0" y="0"/>
  <path d="M524.538 80.5L542.099 180.25L499.72 180.25L483.788 89.75C478.788 61.25 456.788 46.5 429.038 51.25L81.7881 112.5C53.5381 117.5 38.5381 139 43.7881 167.5L105.038 514C110.038 542.5 131.288 557.25 159.538 552.5L178.038 549.235L178.038 591.59L165.788 593.75C108.288 603.75 74.2881 580.25 64.2881 523.25L2.28808 172.5C-7.96192 115.5 16.2881 81.5 73.7881 71.25L422.538 9.75C480.288-0.25 514.538 23.75 524.538 80.5Z" fill="black" fill-opacity="0.85"/>
  <path d="M266.038 710.75L620.288 710.75C678.788 710.75 708.288 681 708.288 623.5L708.288 267.5C708.288 210 678.788 180.25 620.288 180.25L266.038 180.25C207.788 180.25 178.038 209.5 178.038 267.5L178.038 623.5C178.038 681.25 207.788 710.75 266.038 710.75ZM266.788 669C238.288 669 219.788 650.25 219.788 621.5L219.788 269.75C219.788 240.75 238.288 222.25 266.788 222.25L619.288 222.25C647.538 222.25 666.538 240.75 666.538 269.75L666.538 621.5C666.538 650.25 647.538 669 619.288 669ZM443.038 492.5C498.538 492.5 542.538 445.75 542.538 383.75C542.538 325.25 498.538 277.25 443.038 277.25C387.788 277.25 343.788 325.25 343.788 383.75C343.788 445.75 387.788 492.5 443.038 492.5ZM241.788 684.5L644.788 684.5C630.038 603.25 545.788 540 443.288 540C340.788 540 256.538 603.25 241.788 684.5Z" fill="black" fill-opacity="0.85"/>
 </g>
</svg>
