<?xml version="1.0" encoding="UTF-8"?>
<!--Generator: Apple Native CoreSVG 326-->
<!DOCTYPE svg
PUBLIC "-//W3C//DTD SVG 1.1//EN"
       "http://www.w3.org/Graphics/SVG/1.1/DTD/svg11.dtd">
<svg version="1.1" xmlns="http://www.w3.org/2000/svg" xmlns:xlink="http://www.w3.org/1999/xlink" viewBox="0 0 765.5 701.25">
 <g>
  <rect height="701.25" opacity="0" width="765.5" x="0" y="0"/>
  <path d="M757.25 627.5C757.25 637.5 749 645.75 739 645.75C729.25 645.75 721 637.5 721 627.5C721 617.75 729.25 609.5 739 609.5C749 609.5 757.25 617.75 757.25 627.5ZM44.5 627.5C44.5 637.5 36.25 645.75 26.25 645.75C16.5 645.75 8.25 637.5 8.25 627.5C8.25 617.75 16.5 609.5 26.25 609.5C36.25 609.5 44.5 617.75 44.5 627.5ZM150.451 502.513C140.051 515.339 131.393 528.79 124.745 542.515C111.965 540.879 101.75 529.628 101.75 516.25C101.75 502 113.75 490 128 490C137.41 490 145.768 495.054 150.451 502.513ZM663.75 516.25C663.75 529.383 653.905 540.466 641.452 542.406C634.717 528.54 625.937 514.954 615.352 502.022C620.098 494.836 628.295 490 637.5 490C651.75 490 663.75 502 663.75 516.25ZM757.25 516.25C757.25 526.25 749 534.5 739 534.5C729.25 534.5 721 526.25 721 516.25C721 506.5 729.25 498.25 739 498.25C749 498.25 757.25 506.5 757.25 516.25ZM44.5 516.25C44.5 526.25 36.25 534.5 26.25 534.5C16.5 534.5 8.25 526.25 8.25 516.25C8.25 506.5 16.5 498.25 26.25 498.25C36.25 498.25 44.5 506.5 44.5 516.25ZM162.75 405.25C162.75 424 147 439.75 128 439.75C109 439.75 93.5 424 93.5 405.25C93.5 386.25 109 370.5 128 370.5C147 370.5 162.75 386.25 162.75 405.25ZM672 405.25C672 424 656.25 439.75 637.5 439.75C618.5 439.75 602.75 424 602.75 405.25C602.75 386.25 618.5 370.5 637.5 370.5C656.25 370.5 672 386.25 672 405.25ZM246.708 375.064C251.566 383.76 257.266 391.843 263.687 399.215C264.068 401.171 264.25 403.191 264.25 405.25C264.25 411.777 262.372 417.941 259.089 423.182C247.14 427.818 235.971 433.318 225.528 439.459C208.502 437.359 195.25 422.587 195.25 405.25C195.25 386.25 210.75 370.5 229.75 370.5C235.912 370.5 241.705 372.156 246.708 375.064ZM570.25 405.25C570.25 422.405 557.275 437.049 540.503 439.377C529.759 433.071 518.251 427.442 505.938 422.706C502.796 417.57 501 411.581 501 405.25C501 403.574 501.123 401.923 501.4 400.319C508.333 392.502 514.46 383.871 519.648 374.55C524.472 371.963 529.96 370.5 535.75 370.5C554.75 370.5 570.25 386.25 570.25 405.25ZM52.75 405.25C52.75 419.5 40.75 431.5 26.25 431.5C12 431.5 0 419.5 0 405.25C0 390.75 12 378.75 26.25 378.75C40.75 378.75 52.75 390.75 52.75 405.25ZM765.5 405.25C765.5 419.5 753.5 431.5 739 431.5C724.75 431.5 712.75 419.5 712.75 405.25C712.75 390.75 724.75 378.75 739 378.75C753.5 378.75 765.5 390.75 765.5 405.25ZM672 294C672 313 656.25 328.5 637.5 328.5C618.5 328.5 602.75 313 602.75 294C602.75 275 618.5 259.5 637.5 259.5C656.25 259.5 672 275 672 294ZM162.75 294C162.75 313 147 328.5 128 328.5C109 328.5 93.5 313 93.5 294C93.5 275 109 259.5 128 259.5C147 259.5 162.75 275 162.75 294ZM222.5 285.75C222.5 300.511 224.296 314.829 227.844 328.403C209.718 327.446 195.25 312.357 195.25 294C195.25 276.768 208 262.415 224.56 259.935C223.136 268.263 222.5 276.908 222.5 285.75ZM570.25 294C570.25 312.144 556.115 327.097 538.286 328.371C541.911 314.589 543.75 300.03 543.75 285C543.75 276.453 543.161 268.105 541.83 260.072C557.954 262.931 570.25 277.077 570.25 294ZM765.5 294C765.5 308.5 753.5 320.25 739 320.25C724.75 320.25 712.75 308.5 712.75 294C712.75 279.5 724.75 267.75 739 267.75C753.5 267.75 765.5 279.5 765.5 294ZM52.75 294C52.75 308.5 40.75 320.25 26.25 320.25C12 320.25 0 308.5 0 294C0 279.5 12 267.75 26.25 267.75C40.75 267.75 52.75 279.5 52.75 294ZM663.75 182.75C663.75 197.25 651.75 209.25 637.5 209.25C623 209.25 611 197.25 611 182.75C611 168.5 623 156.5 637.5 156.5C651.75 156.5 663.75 168.5 663.75 182.75ZM562 182.75C562 197.25 550 209.25 535.75 209.25C532.138 209.25 528.682 208.505 525.528 207.162C521.021 197.809 515.586 189.101 509.334 181.144C510.165 167.606 521.801 156.5 535.75 156.5C550 156.5 562 168.5 562 182.75ZM256 182.75L255.989 182.972C250.411 190.214 245.535 198.084 241.387 206.454C237.891 208.25 233.935 209.25 229.75 209.25C215.25 209.25 203.5 197.25 203.5 182.75C203.5 168.5 215.25 156.5 229.75 156.5C244.25 156.5 256 168.5 256 182.75ZM154.5 182.75C154.5 197.25 142.5 209.25 128 209.25C113.75 209.25 101.75 197.25 101.75 182.75C101.75 168.5 113.75 156.5 128 156.5C142.5 156.5 154.5 168.5 154.5 182.75ZM757.25 182.75C757.25 192.75 749 201 739 201C729.25 201 721 192.75 721 182.75C721 173 729.25 164.75 739 164.75C749 164.75 757.25 173 757.25 182.75ZM44.5 182.75C44.5 192.75 36.25 201 26.25 201C16.5 201 8.25 192.75 8.25 182.75C8.25 173 16.5 164.75 26.25 164.75C36.25 164.75 44.5 173 44.5 182.75ZM460 71.75C460 86 448 98 433.5 98C419.25 98 407.25 86 407.25 71.75C407.25 57.25 419.25 45.25 433.5 45.25C448 45.25 460 57.25 460 71.75ZM358.25 71.75C358.25 86 346.25 98 331.75 98C317.5 98 305.5 86 305.5 71.75C305.5 57.25 317.5 45.25 331.75 45.25C346.25 45.25 358.25 57.25 358.25 71.75ZM757.25 71.75C757.25 81.5 749 89.75 739 89.75C729.25 89.75 721 81.5 721 71.75C721 61.75 729.25 53.5 739 53.5C749 53.5 757.25 61.75 757.25 71.75ZM655.5 71.75C655.5 81.5 647.25 89.75 637.5 89.75C627.5 89.75 619.25 81.5 619.25 71.75C619.25 61.75 627.5 53.5 637.5 53.5C647.25 53.5 655.5 61.75 655.5 71.75ZM553.75 71.75C553.75 81.5 545.5 89.75 535.75 89.75C525.75 89.75 517.5 81.5 517.5 71.75C517.5 61.75 525.75 53.5 535.75 53.5C545.5 53.5 553.75 61.75 553.75 71.75ZM247.75 71.75C247.75 81.5 239.75 89.75 229.75 89.75C219.75 89.75 211.75 81.5 211.75 71.75C211.75 61.75 219.75 53.5 229.75 53.5C239.75 53.5 247.75 61.75 247.75 71.75ZM146.25 71.75C146.25 81.5 138 89.75 128 89.75C118.25 89.75 110 81.5 110 71.75C110 61.75 118.25 53.5 128 53.5C138 53.5 146.25 61.75 146.25 71.75ZM44.5 71.75C44.5 81.5 36.25 89.75 26.25 89.75C16.5 89.75 8.25 81.5 8.25 71.75C8.25 61.75 16.5 53.5 26.25 53.5C36.25 53.5 44.5 61.75 44.5 71.75Z" fill="black" fill-opacity="0.425"/>
  <path d="M383 407.75C442 407.75 494.25 353.75 494.25 285C494.25 216.25 442 166.25 383 166.25C324.25 166.25 272 217.5 272 285.75C272 353.75 324.25 407.75 383 407.75ZM218 651.75L548.25 651.75C596 651.75 610.25 638.25 610.25 614.25C610.25 544.75 523.5 448.5 383 448.5C242.75 448.5 155.75 544.75 155.75 614.25C155.75 638.25 170.25 651.75 218 651.75Z" fill="black" fill-opacity="0.85"/>
 </g>
</svg>
