<?xml version="1.0" encoding="UTF-8"?>
<!--Generator: Apple Native CoreSVG 326-->
<!DOCTYPE svg
PUBLIC "-//W3C//DTD SVG 1.1//EN"
       "http://www.w3.org/Graphics/SVG/1.1/DTD/svg11.dtd">
<svg version="1.1" xmlns="http://www.w3.org/2000/svg" xmlns:xlink="http://www.w3.org/1999/xlink" viewBox="0 0 651.25 651.75">
 <g>
  <rect height="651.75" opacity="0" width="651.25" x="0" y="0"/>
  <path d="M651.25 325.75C651.25 505 505 651.25 325.5 651.25C146.25 651.25 0 505 0 325.75C0 146.25 146.25 0 325.5 0C505 0 651.25 146.25 651.25 325.75ZM214.5 409C196.25 409 188 418.5 188 435.5L188 483L185 483C177.25 483 171.25 489.25 171.25 496.75C171.25 504.25 177.25 510.25 185 510.25L466 510.25C473.5 510.25 479.5 504.25 479.5 496.75C479.5 489.25 473.5 483 466 483L463 483L463 435.5C463 418.5 454.75 409 436.25 409ZM375.5 460.25C375.5 465.75 370.75 470.5 365 470.5L285.75 470.5C279.75 470.5 275.75 465.75 275.75 460.25C275.75 454.5 279.75 450.25 285.75 450.25L365 450.25C370.75 450.25 375.5 454.5 375.5 460.25ZM197 368.75C197 379 204 386 215.5 386L434.75 386C446.5 386 453.5 379 453.5 368.75C453.5 336.5 409 273.75 325.25 273.75C241.5 273.75 197 336.5 197 368.75ZM263 182.25C263 221 290.75 250.5 325.25 250.5C360 250.75 387.25 221 387.25 182.25C387.25 145.75 359.75 115.25 325.25 115.25C291 115.25 263 145.75 263 182.25Z" fill="black" fill-opacity="0.85"/>
 </g>
</svg>
