<?xml version="1.0" encoding="UTF-8"?>
<!--Generator: Apple Native CoreSVG 326-->
<!DOCTYPE svg
PUBLIC "-//W3C//DTD SVG 1.1//EN"
       "http://www.w3.org/Graphics/SVG/1.1/DTD/svg11.dtd">
<svg version="1.1" xmlns="http://www.w3.org/2000/svg" xmlns:xlink="http://www.w3.org/1999/xlink" viewBox="0 0 556.5 678.25">
 <g>
  <rect height="678.25" opacity="0" width="556.5" x="0" y="0"/>
  <path d="M278.25 231.25C338.25 231.25 385.5 179.75 385.5 114.25C385.5 51 337.75 0 278.25 0C218 0 170.5 51.25 170.75 114.75C171.25 180 217.75 231.25 278.25 231.25ZM278.25 192C240.25 192 212 159.5 212 114.75C212 71.75 240.5 39.25 278.25 39.25C315.5 39.25 344.25 71.75 344.25 114.25C344.25 159.25 316 192 278.25 192ZM101.75 463.5L453.75 463.5C481 463.5 496 449.25 496 424.75C496 359 413 264.25 277.75 264.25C142.75 264.25 60 359 60 424.75C60 449.25 74.75 463.5 101.75 463.5ZM114 424.25C104.5 424.25 101.25 421.75 101.75 415.25C106.5 373 168.75 303.5 277.75 303.5C387 303.5 449.25 373 454.25 415.25C454.75 421.75 451.25 424.25 441.75 424.25ZM22.25 678.25L534.25 678.25C546.25 678.25 556.5 668.25 556.5 656C556.5 644 546.25 634 534.25 634L514.5 634L514.5 550.25C514.5 520.25 499.75 503.5 467.75 503.5L88.75 503.5C56.75 503.5 42 520.25 42 550.25L42 634L22.25 634C10 634 0 644 0 656C0 668.25 10 678.25 22.25 678.25ZM211.75 609.5C201.75 609.5 194.25 601.75 194.25 591.75C194.25 581.75 201.75 574.5 211.75 574.5L345 574.5C355.25 574.5 362.5 581.75 362.5 591.75C362.5 601.75 355.25 609.5 345 609.5Z" fill="black" fill-opacity="0.85"/>
 </g>
</svg>
