<?xml version="1.0" encoding="UTF-8"?>
<!--Generator: Apple Native CoreSVG 326-->
<!DOCTYPE svg
PUBLIC "-//W3C//DTD SVG 1.1//EN"
       "http://www.w3.org/Graphics/SVG/1.1/DTD/svg11.dtd">
<svg version="1.1" xmlns="http://www.w3.org/2000/svg" xmlns:xlink="http://www.w3.org/1999/xlink" viewBox="0 0 821.5 592.25">
 <g>
  <rect height="592.25" opacity="0" width="821.5" x="0" y="0"/>
  <path d="M204.75 592L617 592C666.75 592 690.25 576.5 690.25 543C690.25 458.75 584 337.75 410.75 337.75C237.75 337.75 131.5 458.75 131.5 543C131.5 576.5 155 592 204.75 592ZM192.5 550.25C180.25 550.25 175.75 547 175.75 538C175.75 479.75 260.5 379.75 410.75 379.75C561.25 379.75 646 479.75 646 538C646 547 641.5 550.25 629.25 550.25ZM411.25 295.25C487 295.25 548 228.5 548 145.75C548 64.5 487 0 411.25 0C335.75 0 274.25 65.5 274.25 146.25C274.25 228.75 335.5 295.25 411.25 295.25ZM411.25 253.5C360.5 253.5 318.5 206.5 318.5 146.25C318.5 87.75 360.25 41.75 411.25 41.75C462.25 41.75 503.75 87 503.75 145.75C503.75 206 462 253.5 411.25 253.5Z" fill="black" fill-opacity="0.85"/>
  <path d="M8.25 162L91.5 224.25C107.5 236.25 127 229 127 209.25L127 167.25L211 167.25C223.25 167.25 232.75 157.75 232.75 145.75C232.75 133.75 223.25 124.25 211 124.25L127 124.25L127 83C127 62.25 107 56 91.5 67.75L8.25 130C-2.75 138.25-2.75 153.75 8.25 162ZM588.75 145.75C588.75 157.75 598.25 167.25 610.5 167.25L694.5 167.25L694.5 209.25C694.5 229 714 236.25 730 224.25L813.25 162C824.25 153.75 824.25 138.25 813.25 130L730 67.75C714.5 56 694.5 62.25 694.5 83L694.5 124.25L610.5 124.25C598.25 124.25 588.75 133.75 588.75 145.75Z" fill="black" fill-opacity="0.85"/>
 </g>
</svg>
