<?xml version="1.0" encoding="UTF-8"?>
<!--Generator: Apple Native CoreSVG 326-->
<!DOCTYPE svg
PUBLIC "-//W3C//DTD SVG 1.1//EN"
       "http://www.w3.org/Graphics/SVG/1.1/DTD/svg11.dtd">
<svg version="1.1" xmlns="http://www.w3.org/2000/svg" xmlns:xlink="http://www.w3.org/1999/xlink" viewBox="0 0 665 840.75">
 <g>
  <rect height="840.75" opacity="0" width="665" x="0" y="0"/>
  <path d="M477.089 90.5L187.911 90.5C189.512 67.8223 204.218 54.5 228.25 54.5L436.75 54.5C460.782 54.5 475.488 67.8223 477.089 90.5Z" fill="black" fill-opacity="0.85"/>
  <path d="M541.604 177.715C532.72 176.365 523.31 175.75 513.5 175.75L151.5 175.75C141.598 175.75 132.108 176.37 123.153 177.729C126.577 151.372 144.887 136.5 174.25 136.5L490.75 136.5C520.108 136.5 538.216 151.367 541.604 177.715Z" fill="black" fill-opacity="0.85"/>
  <path d="M610.75 326.25L610.75 690.25C610.75 754 578 786.75 513.5 786.75L151.5 786.75C86.75 786.75 54.25 754.25 54.25 690.25L54.25 326.25C54.25 262.5 86.75 230 151.5 230L513.5 230C578 230 610.75 262.75 610.75 326.25ZM98.5 657.75L98.5 689C98.5 725 117.5 743.5 152.25 743.5L247.836 743.5C244.892 735.986 243.25 727.518 243.25 718.25C243.25 681.5 261.318 641.789 293.283 610.959C273.091 600.403 248.839 593.75 221.75 593.75C163.75 593.75 119 624.25 98.5 657.75ZM281.25 718.25C281.25 732.75 288.25 741.25 293 743.5L512.75 743.5C544 743.5 566.5 725 566.5 689L566.5 665.25C541.5 624.75 492 594.25 431.75 594.25C339 594.25 281.25 664.5 281.25 718.25ZM159 492.25C159 531.75 187.75 562 222.25 562C256.5 562 285 531.75 285 492C285 453.5 256 424.5 222.25 424.5C188 424.5 159 454 159 492.25ZM359.5 478C359.5 523 392.5 557.5 432 557.5C471 557.5 503.75 523 503.75 477.5C503.75 433.5 471 399.75 432.25 399.75C393 399.75 359.5 434.25 359.5 478Z" fill="black" fill-opacity="0.85"/>
 </g>
</svg>
