<?xml version="1.0" encoding="UTF-8"?>
<!--Generator: Apple Native CoreSVG 326-->
<!DOCTYPE svg
PUBLIC "-//W3C//DTD SVG 1.1//EN"
       "http://www.w3.org/Graphics/SVG/1.1/DTD/svg11.dtd">
<svg version="1.1" xmlns="http://www.w3.org/2000/svg" xmlns:xlink="http://www.w3.org/1999/xlink" viewBox="0 0 651.25 651.75">
 <g>
  <rect height="651.75" opacity="0" width="651.25" x="0" y="0"/>
  <path d="M325.5 651.25C505.25 651.25 651.25 505.5 651.25 325.75C651.25 146 505.25 0 325.5 0C145.75 0 0 146 0 325.75C0 505.5 145.75 651.25 325.5 651.25ZM325.5 604.75C171.25 604.75 46.5 480 46.5 325.75C46.5 171.5 171.25 46.75 325.5 46.75C479.75 46.75 604.5 171.5 604.5 325.75C604.5 480 479.75 604.75 325.5 604.75ZM545.25 536.75L544.5 533.75C527.25 487.25 442.75 434.25 325.5 434.25C208.75 434.25 124.25 487 106.5 533.25L105.75 536.75C163.5 594.5 257.75 629 325.75 629C393.75 629 486.5 595.25 545.25 536.75ZM325.5 379.25C387.5 379.75 435.75 326.75 435.75 257.75C435.75 192.75 387 138.75 325.5 138.75C264 138.75 215 192.75 215.25 257.75C215.5 326.75 263.5 378.75 325.5 379.25Z" fill="black" fill-opacity="0.85"/>
 </g>
</svg>
