<?xml version="1.0" encoding="UTF-8"?>
<!--Generator: Apple Native CoreSVG 326-->
<!DOCTYPE svg
PUBLIC "-//W3C//DTD SVG 1.1//EN"
       "http://www.w3.org/Graphics/SVG/1.1/DTD/svg11.dtd">
<svg version="1.1" xmlns="http://www.w3.org/2000/svg" xmlns:xlink="http://www.w3.org/1999/xlink" viewBox="0 0 536.75 689.25">
 <g>
  <rect height="689.25" opacity="0" width="536.75" x="0" y="0"/>
  <path d="M0 666C0 680 9.25 689.25 23.25 689.25L513.5 689.25C527.5 689.25 536.75 680 536.75 666L536.75 23.5C536.75 9.5 527.5 0.25 513.5 0.25L23.25 0.25C9.25 0.25 0 9.5 0 23.5ZM44.25 636.25L44.25 53.25C44.25 47 46.75 44.5 53 44.5L483.75 44.5C490 44.5 492.5 47 492.5 53.25L492.5 636.25C492.5 642.5 490 645 483.75 645L53 645C46.75 645 44.25 642.5 44.25 636.25Z" fill="black" fill-opacity="0.85"/>
  <path d="M80.5 591.75C80.5 602.5 86.75 608.75 97.25 608.75L439.5 608.75C450 608.75 456.25 602.5 456.25 591.75L456.25 97.75C456.25 87 450 80.75 439.5 80.75L97.25 80.75C86.75 80.75 80.5 87 80.5 97.75ZM109.5 573L109.5 116.5C109.5 112 111.75 109.75 116.25 109.75L420.5 109.75C425 109.75 427.25 112 427.25 116.5L427.25 573C427.25 577.5 425 579.75 420.5 579.75L116.25 579.75C111.75 579.75 109.5 577.5 109.5 573ZM109 593L426.75 593C438.75 593 444.25 585.25 444.25 574C444.25 536.25 388 437 268 437C147.75 437 91.5 536.25 91.5 574C91.5 585.25 97 593 109 593ZM268 409C316.5 409.25 355.75 368 355.75 313.25C355.75 261.75 316.5 219.25 268 219.25C219.25 219.25 180 261.75 180 313.25C180 368 219.25 408.75 268 409Z" fill="black" fill-opacity="0.85"/>
 </g>
</svg>
