<?xml version="1.0" encoding="UTF-8"?>
<!--Generator: Apple Native CoreSVG 326-->
<!DOCTYPE svg
PUBLIC "-//W3C//DTD SVG 1.1//EN"
       "http://www.w3.org/Graphics/SVG/1.1/DTD/svg11.dtd">
<svg version="1.1" xmlns="http://www.w3.org/2000/svg" xmlns:xlink="http://www.w3.org/1999/xlink" viewBox="0 0 757.5 587.75">
 <g>
  <rect height="587.75" opacity="0" width="757.5" x="0" y="0"/>
  <path d="M757.5 96.5L757.5 491.5C757.5 555 724.75 587.75 660 587.75L97.25 587.75C32.75 587.75 0 555.5 0 491.5L0 96.5C0 32.5 32.75 0 97.25 0L660 0C724.75 0 757.5 32.75 757.5 96.5ZM130.25 154C99.25 154 83.75 169.5 83.75 199.75L83.75 388.75C83.75 419 99.25 434.5 130.25 434.5L317.75 434.5C348.75 434.5 364.25 418.75 364.25 388.75L364.25 199.75C364.25 169.75 348.75 154 317.75 154ZM415.25 294.25C415.25 376.25 470.25 431.75 551.75 431.75C574.25 431.75 594.5 429.25 606.5 424.5C614.5 421 619.25 416.25 619.25 408.75C619.25 401 614 395.25 606 395.25C602.5 395.25 599.25 396 593.75 397C584.25 398.75 574.75 402 554.75 402C488.25 402 446.25 360.5 446.25 294.5C446.25 230.5 489.25 185.75 551 185.75C612.5 185.75 654.25 224.75 654.25 282.5C654.25 318.75 643.5 339.75 625.75 339.75C614 339.75 608.75 334 608.75 321.75L608.75 237.75C608.75 228.75 602.5 222 594 222C587.25 222 581 227 579.5 233L579.5 237.75C571.25 228 559.25 222 543.25 222C507.75 222 483 252.5 483 295C483 338.75 507.75 368.25 544 368.25C561 368.25 575.25 360.75 584.75 347.25C591.75 360.75 606 368.5 623.25 368.5C660 368.5 683.5 334.25 683.5 281C683.5 207.75 629 156.5 551 156.5C471 156.5 415.25 213 415.25 294.25ZM326 406.25L122.25 406.25C130.25 377 165.75 344.25 224.25 344.25C282.5 344.25 318.25 377 326 406.25ZM580.25 293.5C580.25 321.25 567.75 338.5 548 338.5C528 338.5 515.5 321.75 515.5 294.5C515.5 267.75 528.5 251 548.25 251C568 251 580.25 267 580.25 293.5ZM276.5 262.75C276.5 295.25 253.25 320.25 224 320.25C194.75 320.25 171.5 295.25 171.5 262.75C171.5 231.75 194.75 206.5 224 206.5C253.25 206.5 276.5 231.75 276.5 262.75Z" fill="black" fill-opacity="0.85"/>
 </g>
</svg>
