<?xml version="1.0" encoding="UTF-8"?>
<!--Generator: Apple Native CoreSVG 326-->
<!DOCTYPE svg
PUBLIC "-//W3C//DTD SVG 1.1//EN"
       "http://www.w3.org/Graphics/SVG/1.1/DTD/svg11.dtd">
<svg version="1.1" xmlns="http://www.w3.org/2000/svg" xmlns:xlink="http://www.w3.org/1999/xlink" viewBox="0 0 757.5 587.75">
 <g>
  <rect height="587.75" opacity="0" width="757.5" x="0" y="0"/>
  <path d="M757.5 96.5L757.5 491.5C757.5 555 724.75 587.75 660 587.75L97.25 587.75C32.75 587.75 0 555.5 0 491.5L0 96.5C0 32.5 32.75 0 97.25 0L660 0C724.75 0 757.5 32.75 757.5 96.5ZM159.75 546.25L598 546.25C577 463.25 487 399 379 399C270.75 399 180.75 463.25 159.75 546.25ZM269.25 225.5C269.5 294 317.75 345 379 345.5C440 346 488.5 294 488.5 225.5C488.5 161 440 108 379 108C317.75 108 269 161 269.25 225.5Z" fill="black" fill-opacity="0.85"/>
 </g>
</svg>
