<?xml version="1.0" encoding="UTF-8"?>
<!--Generator: Apple Native CoreSVG 326-->
<!DOCTYPE svg
PUBLIC "-//W3C//DTD SVG 1.1//EN"
       "http://www.w3.org/Graphics/SVG/1.1/DTD/svg11.dtd">
<svg version="1.1" xmlns="http://www.w3.org/2000/svg" xmlns:xlink="http://www.w3.org/1999/xlink" viewBox="0 0 800.25 757.144">
 <g>
  <rect height="757.144" opacity="0" width="800.25" x="0" y="0"/>
  <path d="M703.75 445.197C714 452.197 726.75 449.947 734 439.447C775.5 383.447 800.25 304.697 800.25 224.697C800.25 144.447 775.75 65.1969 734 9.94691C726.75-0.553091 714-3.05309 703.75 3.94691C693.75 10.9469 692 23.6969 700 35.1969C736.75 86.1969 757.5 153.947 757.5 224.697C757.5 295.447 736.25 362.947 700 414.197C692.25 425.447 693.75 438.447 703.75 445.197Z" fill="black" fill-opacity="0.85"/>
  <path d="M588.25 360.947C597.75 367.447 610.5 365.197 618 354.697C642.75 322.197 658.25 274.947 658.25 224.697C658.25 174.197 642.75 127.197 618 94.4469C610.5 83.9469 597.75 81.9469 588.25 88.4469C577.25 96.1969 575.5 109.697 584 121.197C604.5 149.197 615.5 184.947 615.5 224.697C615.5 264.197 604.25 299.697 584 328.197C575.75 339.697 577.25 352.947 588.25 360.947Z" fill="black" fill-opacity="0.85"/>
  <path d="M139 674.447L551.25 674.447C601 674.447 624.5 658.947 624.5 625.447C624.5 541.197 518.5 420.197 345.25 420.197C172 420.197 65.75 541.197 65.75 625.447C65.75 658.947 89.5 674.447 139 674.447ZM127 632.697C114.5 632.697 110.25 629.447 110.25 620.447C110.25 562.197 195 462.197 345.25 462.197C495.5 462.197 580.25 562.197 580.25 620.447C580.25 629.447 575.75 632.697 563.5 632.697ZM345.5 377.697C421.25 377.697 482.5 310.947 482.5 228.197C482.5 146.947 421.25 82.4469 345.5 82.4469C270.25 82.4469 208.25 147.947 208.75 228.697C209 311.197 269.75 377.697 345.5 377.697ZM345.5 335.947C295 335.947 253 288.947 253 228.697C252.5 170.197 294.75 124.197 345.5 124.197C396.5 124.197 438.25 169.447 438.25 228.197C438.25 288.447 396.5 335.947 345.5 335.947Z" fill="black" fill-opacity="0.85"/>
 </g>
</svg>
