<?xml version="1.0" encoding="UTF-8"?>
<!--Generator: Apple Native CoreSVG 326-->
<!DOCTYPE svg
PUBLIC "-//W3C//DTD SVG 1.1//EN"
       "http://www.w3.org/Graphics/SVG/1.1/DTD/svg11.dtd">
<svg version="1.1" xmlns="http://www.w3.org/2000/svg" xmlns:xlink="http://www.w3.org/1999/xlink" viewBox="0 0 1121.5 523.25">
 <g>
  <rect height="523.25" opacity="0" width="1121.5" x="0" y="0"/>
  <path d="M236.5 260.75C303.5 260.75 357.75 201.75 357.75 129C357.75 57.25 303.5 0 236.5 0C169.75 0 115.5 58.25 115.5 129.25C115.5 202.25 169.75 260.75 236.5 260.75ZM236.5 219C194 219 159.5 180 159.5 129.25C159.5 80 194 41.75 236.5 41.75C279 41.75 313.75 79.25 313.75 129C313.75 179.5 279.25 219 236.5 219ZM64.5 521.75L407.75 521.75C450.75 521.75 472.5 506.75 472.5 476.25C472.5 402.5 387.25 296.25 236.25 296.25C85.25 296.25 0 402.5 0 476.25C0 506.75 21.75 521.75 64.5 521.75ZM54.75 480C47.25 480 44.25 476.75 44.25 471C44.25 423.5 108 338.25 236.25 338.25C364.5 338.25 428.25 423.5 428.25 471C428.25 476.75 425.25 480 417.75 480ZM885.5 262C952.5 262 1006.75 203 1006.75 130.25C1006.75 58.5 952.5 1.25 885.5 1.25C818.75 1.25 764.5 59.5 764.5 130.5C764.5 203.5 818.75 262 885.5 262ZM885.5 220.25C843 220.25 808.5 181.25 808.5 130.5C808.5 81.25 843 43 885.5 43C928 43 962.75 80.5 962.75 130.25C962.75 180.75 928.25 220.25 885.5 220.25ZM713.5 523L1056.75 523C1099.5 523 1121.5 508 1121.5 477.5C1121.5 403.75 1036.25 297.75 885.25 297.75C734.25 297.75 649 403.75 649 477.5C649 508 670.75 523 713.5 523ZM703.75 481.25C696.25 481.25 693.25 478 693.25 472.25C693.25 424.75 756.75 339.5 885.25 339.5C1013.5 339.5 1077.25 424.75 1077.25 472.25C1077.25 478 1074.25 481.25 1066.75 481.25Z" fill="black" fill-opacity="0.85"/>
  <path d="M459.25 262C473 262 484.5 250.5 484.5 236.75C484.5 222.75 473 211.5 459.25 211.5C445.25 211.5 433.75 222.75 433.75 236.75C433.75 250.5 445.25 262 459.25 262ZM560.75 262C574.5 262 586 250.5 586 236.75C586 222.75 574.5 211.5 560.75 211.5C546.75 211.5 535.5 222.75 535.5 236.75C535.5 250.5 546.75 262 560.75 262ZM662 262C676 262 687.25 250.5 687.25 236.75C687.25 222.75 676 211.5 662 211.5C648.25 211.5 636.75 222.75 636.75 236.75C636.75 250.5 648.25 262 662 262Z" fill="black" fill-opacity="0.85"/>
 </g>
</svg>
