<?xml version="1.0" encoding="UTF-8"?>
<!--Generator: Apple Native CoreSVG 326-->
<!DOCTYPE svg
PUBLIC "-//W3C//DTD SVG 1.1//EN"
       "http://www.w3.org/Graphics/SVG/1.1/DTD/svg11.dtd">
<svg version="1.1" xmlns="http://www.w3.org/2000/svg" xmlns:xlink="http://www.w3.org/1999/xlink" viewBox="0 0 651.25 651.75">
 <g>
  <rect height="651.75" opacity="0" width="651.25" x="0" y="0"/>
  <path d="M651.25 325.75C651.25 505.5 505.25 651.25 325.5 651.25C145.75 651.25 0 505.5 0 325.75C0 146 145.75 0 325.5 0C505.25 0 651.25 146 651.25 325.75ZM46.5 325.75C46.5 480 171.25 604.75 325.5 604.75C479.75 604.75 604.5 480 604.5 325.75C604.5 171.5 479.75 46.75 325.5 46.75C171.25 46.75 46.5 171.5 46.5 325.75Z" fill="black" fill-opacity="0.85"/>
  <path d="M297.523 358.7C271.405 381.483 256.75 410.465 256.75 436.25C256.75 442.992 258.107 450.347 261.847 457L139.5 457C121 457 113.5 449.25 113.5 435.25C113.5 381 169.5 339 229 339C253.723 339 277.842 346.251 297.523 358.7ZM283.75 253.75C283.75 288.25 259 314.75 229 314.75C199.5 314.75 174.5 288.25 174.5 254C174.5 221 199.75 195 229 195C258.75 195 283.75 220.5 283.75 253.75Z" fill="black" fill-opacity="0.85"/>
  <path d="M310 457L512.5 457C535.25 457 544 450.25 544 436.25C544 395.75 493 339.5 411.5 339.5C329.5 339.5 278.25 395.75 278.25 436.25C278.25 450.25 287.25 457 310 457ZM411.5 311.5C445.75 311.5 474 280.75 474 241.25C474 203 445.5 173.75 411.5 173.75C377.25 173.75 348.75 203.75 348.75 241.5C348.75 280.75 377.25 311.5 411.5 311.5Z" fill="black" fill-opacity="0.85"/>
 </g>
</svg>
