<?xml version="1.0" encoding="UTF-8"?>
<!--Generator: Apple Native CoreSVG 326-->
<!DOCTYPE svg
PUBLIC "-//W3C//DTD SVG 1.1//EN"
       "http://www.w3.org/Graphics/SVG/1.1/DTD/svg11.dtd">
<svg version="1.1" xmlns="http://www.w3.org/2000/svg" xmlns:xlink="http://www.w3.org/1999/xlink" viewBox="0 0 948 557.75">
 <g>
  <rect height="557.75" opacity="0" width="948" x="0" y="0"/>
  <path d="M948 510C948 522.5 937.75 532.25 925.5 532.25C913.25 532.25 903.5 522.5 903.5 510C903.5 253.75 710.5 44.75 473.75 44.75C237 44.75 44.25 253.75 44.25 510C44.25 522.5 34.5 532.25 22.25 532.25C10 532.25 0 522.5 0 510C0 229.5 212.75 0 473.75 0C735 0 948 229.5 948 510Z" fill="black" fill-opacity="0.425"/>
  <path d="M336 210.5C336 223.984 337.68 237.018 340.973 249.319C250.528 299.326 193.25 399.525 193.25 510.25C193.25 522.5 182.75 532.25 170.75 532.25C158.5 532.25 148.5 522.5 148.5 510.25C148.5 377.338 222.977 256.66 336.411 202.023ZM799.75 510.25C799.75 522.5 789.75 532.25 777.5 532.25C765.5 532.25 755 522.5 755 510.25C755 399.647 697.848 299.546 607.153 249.476C610.523 236.983 612.25 223.729 612.25 210C612.25 207.394 612.185 204.806 611.876 202.295C725.508 257.041 799.75 377.548 799.75 510.25Z" fill="black" fill-opacity="0.425"/>
  <path d="M474.25 318.25C527.25 318.25 572.5 271.25 572.5 210C572.5 150.25 526.75 104.25 474.25 104.25C421.25 104.25 376 151 376 210.5C376 271.25 421 318.25 474.25 318.25ZM311 540.5L636.75 540.5C662.5 540.5 678.5 527.75 678.5 507.25C678.5 443.75 599.75 357 474 357C348 357 269.25 443.75 269.25 507.25C269.25 527.75 285.25 540.5 311 540.5Z" fill="black" fill-opacity="0.85"/>
 </g>
</svg>
