<?xml version="1.0" encoding="UTF-8"?>
<!--Generator: Apple Native CoreSVG 326-->
<!DOCTYPE svg
PUBLIC "-//W3C//DTD SVG 1.1//EN"
       "http://www.w3.org/Graphics/SVG/1.1/DTD/svg11.dtd">
<svg version="1.1" xmlns="http://www.w3.org/2000/svg" xmlns:xlink="http://www.w3.org/1999/xlink" viewBox="0 0 651.25 651.75">
 <g>
  <rect height="651.75" opacity="0" width="651.25" x="0" y="0"/>
  <path d="M651.25 326C651.25 505.5 505 651.75 325.5 651.75C146.25 651.75 0 505.5 0 326C0 146.75 146.25 0.5 325.5 0.5C505 0.5 651.25 146.75 651.25 326ZM218.25 473.25C218.25 484.75 227.25 491.75 241.75 491.75L437 491.75C451.5 491.75 460.5 484.75 460.5 473.25C460.5 435.75 413.75 384.5 339.25 384.5C264.5 384.5 218.25 435.75 218.25 473.25ZM136.25 334.5C119.75 334.5 111.5 342.5 111.5 359L111.5 395.25C111.5 411.5 119.75 419.75 136.25 419.75L171.75 419.75C188 419.75 196.75 411.5 196.75 395.25L196.75 359C196.75 342.75 188 334.5 171.75 334.5ZM464 236.5C447.25 236.5 439 245 439 261L439 362.75C439 379 447.25 387.5 464 387.5L515.75 387.5C532.25 387.5 540.5 379 540.5 362.75L540.5 261C540.5 245 532.25 236.5 515.75 236.5ZM282 295.25C282 331 308.25 358.25 339.5 358.25C370.25 358.25 396.75 331 396.75 295.25C396.75 260 370.25 233.25 339.5 233.25C308.25 233.25 282 260.25 282 295.25ZM181.75 160.25C165 160.25 156.75 168.75 156.75 185.25L156.75 270.25C156.75 286.25 165 294.5 181.75 294.5L259.25 294.5C259.5 250.5 291.75 214 334 210.5L334 185.25C334 168.75 325.25 160.25 308.75 160.25Z" fill="black" fill-opacity="0.85"/>
 </g>
</svg>
