<?xml version="1.0" encoding="UTF-8"?>
<!--Generator: Apple Native CoreSVG 326-->
<!DOCTYPE svg
PUBLIC "-//W3C//DTD SVG 1.1//EN"
       "http://www.w3.org/Graphics/SVG/1.1/DTD/svg11.dtd">
<svg version="1.1" xmlns="http://www.w3.org/2000/svg" xmlns:xlink="http://www.w3.org/1999/xlink" viewBox="0 0 779.75 601.75">
 <g>
  <rect height="601.75" opacity="0" width="779.75" x="0" y="0"/>
  <path d="M154.75 360.5L154.75 426.25C154.75 455.75 139.75 471 109.5 471L45.25 471C15.25 471 0 456 0 426.25L0 360.5C0 331 15.25 316 45.25 316L109.5 316C139.75 316 154.75 331 154.75 360.5Z" fill="black" fill-opacity="0.425"/>
  <path d="M403.75 44.5L403.75 92.5634C330.549 98.1101 270.625 162.679 270.06 243.5L127.75 243.5C97.75 243.5 82.5 228.5 82.5 199L82.5 44.5C82.5 15 97.75 0 127.75 0L358.5 0C388.5 0 403.75 15 403.75 44.5Z" fill="black" fill-opacity="0.425"/>
  <path d="M779.75 182.75L779.75 367.5C779.75 397 764.5 412 734.5 412L640.5 412C610.25 412 595 397.25 595 367.5L595 182.75C595 153 610.25 138 640.5 138L734.5 138C764.5 138 779.75 153.25 779.75 182.75Z" fill="black" fill-opacity="0.425"/>
  <path d="M414.25 359.75C470.5 359.75 518.25 309.5 518.25 244.25C518.25 180.5 470.25 132 414.25 132C358 132 310 181.25 310 244.75C310 309.5 357.75 359.75 414.25 359.75ZM236.75 601.25L591 601.25C617.5 601.25 634 588.5 634 567.5C634 499.75 549.5 406.5 414 406.5C278.25 406.5 193.75 499.75 193.75 567.5C193.75 588.5 210.25 601.25 236.75 601.25Z" fill="black" fill-opacity="0.85"/>
 </g>
</svg>
