<?xml version="1.0" encoding="UTF-8"?>
<!--Generator: Apple Native CoreSVG 326-->
<!DOCTYPE svg
PUBLIC "-//W3C//DTD SVG 1.1//EN"
       "http://www.w3.org/Graphics/SVG/1.1/DTD/svg11.dtd">
<svg version="1.1" xmlns="http://www.w3.org/2000/svg" xmlns:xlink="http://www.w3.org/1999/xlink" viewBox="0 0 651.25 651.75">
 <g>
  <rect height="651.75" opacity="0" width="651.25" x="0" y="0"/>
  <path d="M325.5 651.25C505.25 651.25 651.25 505.5 651.25 325.75C651.25 146 505.25 0 325.5 0C145.75 0 0 146 0 325.75C0 505.5 145.75 651.25 325.5 651.25ZM325.5 604.75C171.25 604.75 46.5 480 46.5 325.75C46.5 171.5 171.25 46.75 325.5 46.75C479.75 46.75 604.5 171.5 604.5 325.75C604.5 480 479.75 604.75 325.5 604.75Z" fill="black" fill-opacity="0.85"/>
  <path d="M185.25 294.75L261 294.75C261.25 252 292.75 216.5 333.5 213.25L333.5 188.25C333.5 172.5 325.25 164 309.25 164L185.25 164C169.25 164 161 172.5 161 188.25L161 271.5C161 286.75 169.25 294.75 185.25 294.75ZM460.5 385.75L511 385.75C527 385.75 535.25 377.25 535.25 361.5L535.25 262C535.25 246.5 527 238.5 511 238.5L460.5 238.5C444.25 238.5 436.25 246.5 436.25 262L436.25 361.5C436.25 377.25 444.25 385.75 460.5 385.75ZM141 417.25L175.75 417.25C191.5 417.25 200 409 200 393L200 357.75C200 341.75 191.5 333.75 175.75 333.75L141 333.75C125.25 333.75 116.75 341.75 116.75 357.75L116.75 393C116.75 409 125.25 417.25 141 417.25ZM339.25 357.25C369.25 357.25 395 330.5 395 295.5C395 261.5 369.25 235 339.25 235C308.75 235 283 261.75 283 295.5C283 330.5 308.75 357.25 339.25 357.25ZM243.75 487.25L434 487.25C448.5 487.25 457.25 480.25 457.25 469.25C457.25 432.5 411.5 382.5 339 382.5C266 382.5 221 432.5 221 469.25C221 480.25 229.75 487.25 243.75 487.25Z" fill="black" fill-opacity="0.85"/>
 </g>
</svg>
