<?xml version="1.0" encoding="UTF-8"?>
<!--Generator: Apple Native CoreSVG 326-->
<!DOCTYPE svg
PUBLIC "-//W3C//DTD SVG 1.1//EN"
       "http://www.w3.org/Graphics/SVG/1.1/DTD/svg11.dtd">
<svg version="1.1" xmlns="http://www.w3.org/2000/svg" xmlns:xlink="http://www.w3.org/1999/xlink" viewBox="0 0 948 785.815">
 <g>
  <rect height="785.815" opacity="0" width="948" x="0" y="0"/>
  <path d="M948 624.032C948 636.532 937.75 646.282 925.5 646.282C913.25 646.282 903.5 636.532 903.5 624.032C903.5 367.782 710.5 158.782 473.75 158.782C418.755 158.782 366.133 170.06 317.808 190.711L284.106 156.967C342.181 129.334 406.357 114.032 473.75 114.032C735 114.032 948 343.532 948 624.032ZM218.315 250.379C112.774 335.254 44.25 471.244 44.25 624.032C44.25 636.532 34.5 646.282 22.25 646.282C10 646.282 0 636.532 0 624.032C0 459.322 73.3574 312.197 186.823 218.874Z" fill="black" fill-opacity="0.425"/>
  <path d="M334.893 367.006C247.93 417.961 193.25 516.098 193.25 624.282C193.25 636.532 182.75 646.282 170.75 646.282C158.5 646.282 148.5 636.532 148.5 624.282C148.5 504.986 208.5 395.544 302.931 335.031ZM799.75 624.282C799.75 636.532 789.75 646.282 777.5 646.282C775.657 646.282 773.849 646.052 772.117 645.593L755.543 628.999C755.184 627.485 755 625.906 755 624.282C755 513.679 697.848 413.578 607.153 363.508C610.523 351.015 612.25 337.761 612.25 324.032C612.25 321.426 612.185 318.839 611.876 316.328C725.508 371.074 799.75 491.581 799.75 624.282Z" fill="black" fill-opacity="0.425"/>
  <path d="M622.298 654.532L311 654.532C285.25 654.532 269.25 641.782 269.25 621.282C269.25 563.525 334.4 486.533 441.143 473.301ZM572.5 324.032C572.5 358.865 557.865 389.09 535.468 408.646L392.624 265.622C410.44 236.902 440.802 218.282 474.25 218.282C526.75 218.282 572.5 264.282 572.5 324.032Z" fill="black" fill-opacity="0.425"/>
  <path d="M761.75 744.782C770 753.032 783.75 753.032 792 744.782C800.25 736.282 800.25 723.032 792 714.532L197.25 119.532C189 111.032 175.5 111.032 167 119.532C158.75 127.532 158.75 141.532 167 149.532Z" fill="black" fill-opacity="0.85"/>
 </g>
</svg>
