<?xml version="1.0" encoding="UTF-8"?>
<!--Generator: Apple Native CoreSVG 326-->
<!DOCTYPE svg
PUBLIC "-//W3C//DTD SVG 1.1//EN"
       "http://www.w3.org/Graphics/SVG/1.1/DTD/svg11.dtd">
<svg version="1.1" xmlns="http://www.w3.org/2000/svg" xmlns:xlink="http://www.w3.org/1999/xlink" viewBox="0 0 974 738.75">
 <g>
  <rect height="738.75" opacity="0" width="974" x="0" y="0"/>
  <path d="M812.75 369.25C812.75 549 666.75 694.75 487 694.75C439.968 694.75 395.263 684.772 355.003 666.612C365.232 654.684 374.032 641.52 381.045 627.339C413.662 640.86 449.457 648.25 487 648.25C641.25 648.25 766 523.5 766 369.25C766 215 641.25 90.25 487 90.25C343.958 90.25 226.284 197.53 210.125 336.191C207.306 335.813 204.41 335.75 201.5 335.75C188.34 335.75 175.457 337.041 162.998 339.585C177.845 173.686 317.264 43.5 487 43.5C666.75 43.5 812.75 189.5 812.75 369.25ZM655 264C655 272.75 649.75 280 641.25 282.25C631 285.75 557 294 547.75 295.75C538.5 297.75 533 305.25 533 316.5C533 333.5 533 387.25 536.75 412C540.5 436.25 569.25 553.75 570.25 558.75C573.5 571.25 566.25 582.5 553.5 582.5C544.5 582.5 538 577.5 534.75 565.5C529 541.5 508.25 460.25 502.5 440.75C498 426.75 494.5 421.5 486.75 421.5C478.75 421.5 475.25 426.75 471.25 440.75C464.5 460.5 444.25 541.75 438.5 565.5C435.25 577.5 428.75 582.5 419.75 582.5C407.25 582.5 399.5 571.25 403 558.75C404.25 553.75 432.5 436.25 436.5 412C440.75 387.25 440.75 333.5 440.75 316.5C440.25 305.25 434.75 297.5 425.5 295.75C416.25 294 342.25 285.25 332 282.25C323.5 280.25 318.25 272.75 318.25 264C318.25 252.25 326.5 245.5 334.75 245.5C337.75 245.5 340.75 246.25 343.5 246.75C375 251.5 440.75 259.25 486.75 259.25C533 259.25 598.25 251.5 629.75 246.75C632.5 246.25 635.5 245.5 638.5 245.5C646.25 245.5 655 252.25 655 264ZM528.75 195.75C528.75 218.75 510 238 486.75 238C463.25 238 444.5 218.75 444.5 195.75C444.5 172.25 463.25 153.5 486.75 153.5C510 153.5 528.75 172.25 528.75 195.75Z" fill="black" fill-opacity="0.85"/>
  <path d="M363.25 537.25C363.25 625.75 289.25 699 201.5 699C113 699 39.75 626.25 39.75 537.25C39.75 448.75 113 375.5 201.5 375.5C290.25 375.5 363.25 448.5 363.25 537.25ZM188 467.75L151.25 503C150.5 503.75 149.75 504 148.75 504L124 504C113.5 504 107.5 510 107.5 521.25L107.5 553C107.5 564.25 113.5 570.25 124 570.25L148.75 570.25C149.75 570.25 150.75 570.5 151.25 571.25L188 606.25C191.5 609.25 194.5 610.75 198.25 610.75C203.25 610.75 206.75 607 206.75 602L206.75 471.75C206.75 466.75 203.25 463 198.25 463C194.5 463 191.5 464.5 188 467.75ZM268.25 476.5C263.75 479.5 262.75 485.25 266.25 490C275.25 503.5 280 520 280 537C280 554.75 275.25 571 266.25 583.75C263.25 588 263.75 594 268 597.5C272.25 600.25 278 599.25 281.5 595C292.75 579.5 299 558.75 299 537C299 514.75 292.75 494.25 281.25 478.75C277.75 474.5 272.5 473.75 268.25 476.5ZM235.75 498.25C231 501.25 230.25 508.25 234 512.5C238.25 518.75 240.75 527.75 240.75 537C240.75 546.25 238.25 554.75 233.75 561.5C230.25 566 231 571.75 235.25 575C239.25 578.25 245.25 577.5 248.75 573C255.75 563.5 260 550.25 260 537C260 524 256 510.75 249.25 501.25C246 496.5 240 495.5 235.75 498.25Z" fill="black" fill-opacity="0.85"/>
 </g>
</svg>
