<?xml version="1.0" encoding="UTF-8"?>
<!--Generator: Apple Native CoreSVG 326-->
<!DOCTYPE svg
PUBLIC "-//W3C//DTD SVG 1.1//EN"
       "http://www.w3.org/Graphics/SVG/1.1/DTD/svg11.dtd">
<svg version="1.1" xmlns="http://www.w3.org/2000/svg" xmlns:xlink="http://www.w3.org/1999/xlink" viewBox="0 0 605.25 733.75">
 <g>
  <rect height="733.75" opacity="0" width="605.25" x="0" y="0"/>
  <path d="M323 714C323 724.75 313.5 733.25 302.5 733.25C291.75 733.25 282.25 724.75 282.25 714L282.25 649.75L323 649.75ZM323 399.75L282.25 399.75L282.25 333.25L323 333.25ZM323 19.25L323 83.25L282.25 83.25L282.25 19.25C282.25 8.5 291.75 0 302.5 0C313.5 0 323 8.5 323 19.25Z" fill="black" fill-opacity="0.85"/>
  <path d="M178.75 333.25L426.25 333.25C469.5 333.25 493.5 309.5 493.5 267.25L493.5 149.25C493.5 107 469.5 83.25 426.25 83.25L178.75 83.25C135.75 83.25 111.75 107 111.75 149.25L111.75 267.25C111.75 309.5 135.75 333.25 178.75 333.25ZM179.75 291.5C163.25 291.5 153.5 281.75 153.5 264.75L153.5 151.75C153.5 134.75 163.25 125 179.75 125L425.5 125C442 125 451.75 134.75 451.75 151.75L451.75 264.75C451.75 281.75 442 291.5 425.5 291.5ZM67 649.75L538.25 649.75C581.25 649.75 605.25 626 605.25 583.75L605.25 465.75C605.25 423.5 581.25 399.75 538.25 399.75L67 399.75C24 399.75 0 423.5 0 465.75L0 583.75C0 626 24 649.75 67 649.75ZM67.75 608C51.5 608 41.75 598.25 41.75 581.5L41.75 468.25C41.75 451.25 51.5 441.5 67.75 441.5L537.25 441.5C553.75 441.5 563.5 451.25 563.5 468.25L563.5 581.5C563.5 598.25 553.75 608 537.25 608Z" fill="black" fill-opacity="0.85"/>
 </g>
</svg>
