<?xml version="1.0" encoding="UTF-8"?>
<!--Generator: Apple Native CoreSVG 326-->
<!DOCTYPE svg
PUBLIC "-//W3C//DTD SVG 1.1//EN"
       "http://www.w3.org/Graphics/SVG/1.1/DTD/svg11.dtd">
<svg version="1.1" xmlns="http://www.w3.org/2000/svg" xmlns:xlink="http://www.w3.org/1999/xlink" viewBox="0 0 733.25 708.25">
 <g>
  <rect height="708.25" opacity="0" width="733.25" x="0" y="0"/>
  <path d="M149.75 708.25L267.5 708.25C310 708.25 333.75 684.25 333.75 641.25L333.75 170C333.75 127 310 103 267.5 103L149.75 103C107.5 103 83.75 127 83.75 170L83.75 641.25C83.75 684.25 107.5 708.25 149.75 708.25ZM466.25 484.75L584.25 484.75C626.5 484.75 650.25 460.75 650.25 417.5L650.25 170C650.25 127 626.5 103 584.25 103L466.25 103C424 103 400.25 127 400.25 170L400.25 417.5C400.25 460.75 424 484.75 466.25 484.75Z" fill="black" fill-opacity="0.85"/>
  <path d="M19.25 41.5L714 41.5C724.75 41.5 733.25 32 733.25 21C733.25 10.25 724.75 0.75 714 0.75L19.25 0.75C8.5 0.75 0 10.25 0 21C0 32 8.5 41.5 19.25 41.5Z" fill="black" fill-opacity="0.85"/>
 </g>
</svg>
