<?xml version="1.0" encoding="UTF-8"?>
<!--Generator: Apple Native CoreSVG 326-->
<!DOCTYPE svg
PUBLIC "-//W3C//DTD SVG 1.1//EN"
       "http://www.w3.org/Graphics/SVG/1.1/DTD/svg11.dtd">
<svg version="1.1" xmlns="http://www.w3.org/2000/svg" xmlns:xlink="http://www.w3.org/1999/xlink" viewBox="0 0 733.25 606.75">
 <g>
  <rect height="606.75" opacity="0" width="733.25" x="0" y="0"/>
  <path d="M83.75 324.25L19.25 324.25C8.5 324.25 0 314.75 0 303.75C0 293 8.5 283.5 19.25 283.5L83.75 283.5ZM733.25 303.75C733.25 314.75 724.75 324.25 714 324.25L650.25 324.25L650.25 283.5L714 283.5C724.75 283.5 733.25 293 733.25 303.75ZM400.25 324.25L333.75 324.25L333.75 283.5L400.25 283.5Z" fill="black" fill-opacity="0.85"/>
  <path d="M149.75 606.75L267.5 606.75C310 606.75 333.75 582.5 333.75 539.5L333.75 68.25C333.75 25.25 310 1.25 267.5 1.25L149.75 1.25C107.5 1.25 83.75 25.25 83.75 68.25L83.75 539.5C83.75 582.5 107.5 606.75 149.75 606.75ZM152 564.75C135.25 564.75 125.5 555 125.5 538.5L125.5 69C125.5 52.75 135.25 43 152 43L265.25 43C282.25 43 292 52.75 292 69L292 538.5C292 555 282.25 564.75 265.25 564.75ZM466.25 494.75L584.25 494.75C626.5 494.75 650.25 470.75 650.25 427.5L650.25 180C650.25 137 626.5 113 584.25 113L466.25 113C424 113 400.25 137 400.25 180L400.25 427.5C400.25 470.75 424 494.75 466.25 494.75ZM468.75 452.75C451.75 452.75 442 443.25 442 426.75L442 181C442 164.5 451.75 154.75 468.75 154.75L581.75 154.75C598.75 154.75 608.5 164.5 608.5 181L608.5 426.75C608.5 443.25 598.75 452.75 581.75 452.75Z" fill="black" fill-opacity="0.85"/>
 </g>
</svg>
