<?xml version="1.0" encoding="UTF-8"?>
<!--Generator: Apple Native CoreSVG 326-->
<!DOCTYPE svg
PUBLIC "-//W3C//DTD SVG 1.1//EN"
       "http://www.w3.org/Graphics/SVG/1.1/DTD/svg11.dtd">
<svg version="1.1" xmlns="http://www.w3.org/2000/svg" xmlns:xlink="http://www.w3.org/1999/xlink" viewBox="0 0 706.75 733.75">
 <g>
  <rect height="733.75" opacity="0" width="706.75" x="0" y="0"/>
  <path d="M538.25 333.25C581.25 333.25 605.25 309.5 605.25 267.25L605.25 149.25C605.25 107 581.25 83.25 538.25 83.25L290.5 83.25C247.5 83.25 223.5 107 223.5 149.25L223.5 267.25C223.5 309.5 247.5 333.25 290.5 333.25ZM537.25 291.5L291.5 291.5C275 291.5 265.25 281.75 265.25 264.75L265.25 151.75C265.25 134.75 275 125 291.5 125L537.25 125C553.75 125 563.5 134.75 563.5 151.75L563.5 264.75C563.5 281.75 553.75 291.5 537.25 291.5ZM538.25 649.75C581.25 649.75 605.25 626 605.25 583.75L605.25 465.75C605.25 423.5 581.25 399.75 538.25 399.75L67 399.75C24 399.75 0 423.5 0 465.75L0 583.75C0 626 24 649.75 67 649.75ZM537.25 608L67.75 608C51.5 608 41.75 598.25 41.75 581.5L41.75 468.25C41.75 451.25 51.5 441.5 67.75 441.5L537.25 441.5C553.75 441.5 563.5 451.25 563.5 468.25L563.5 581.5C563.5 598.25 553.75 608 537.25 608Z" fill="black" fill-opacity="0.85"/>
  <path d="M686.5 733.25C697.25 733.25 706.75 724.75 706.75 714L706.75 19.25C706.75 8.5 697.25 0 686.5 0C675.5 0 666 8.5 666 19.25L666 714C666 724.75 675.5 733.25 686.5 733.25Z" fill="black" fill-opacity="0.85"/>
 </g>
</svg>
