<?xml version="1.0" encoding="UTF-8"?>
<!--Generator: Apple Native CoreSVG 326-->
<!DOCTYPE svg
PUBLIC "-//W3C//DTD SVG 1.1//EN"
       "http://www.w3.org/Graphics/SVG/1.1/DTD/svg11.dtd">
<svg version="1.1" xmlns="http://www.w3.org/2000/svg" xmlns:xlink="http://www.w3.org/1999/xlink" viewBox="0 0 689.767 736.75">
 <g>
  <rect height="736.75" opacity="0" width="689.767" x="0" y="0"/>
  <path d="M689.758 693L689.758 438.25C689.758 401.75 673.508 385.5 637.008 385.5L250.758 385.5C226.258 385.5 212.758 403.5 212.758 423.75C212.758 437.25 219.008 450 232.258 459.25L621.258 727.25C630.508 733.5 641.008 736.25 651.008 736.25C671.758 736.25 689.758 722.5 689.758 693ZM644.758 677.25C644.758 682 640.508 682.75 637.258 680.5L273.008 436C270.008 434.25 271.008 430.75 274.258 430.75L631.508 430.75C642.508 430.75 644.758 433 644.758 444ZM689.758 43.25C689.758 13.75 671.758 0 651.008 0C641.008 0 630.508 2.75 621.258 9L232.258 277C219.008 286.25 212.758 299 212.758 312.75C212.758 332.75 226.258 350.75 250.758 350.75L637.008 350.75C673.508 350.75 689.758 334.75 689.758 298ZM644.758 59.25L644.758 292.25C644.758 303.5 642.508 305.75 631.508 305.75L274.258 305.75C271.008 305.75 270.008 302.25 273.008 300.25L637.258 55.75C640.508 53.5 644.758 54.25 644.758 59.25Z" fill="black" fill-opacity="0.85"/>
  <path d="M139.258 564L96.0083 564L96.0083 172.25L139.258 172.25C159.758 172.25 165.008 155.25 153.258 139.25L95.0083 58.25C85.2583 45 74.5083 45.25 65.0083 58.25L6.50832 139.25C-5.74168 155.25-0.491677 172.25 20.5083 172.25L63.2583 172.25L63.2583 564L20.7583 564C-0.241677 564-5.49168 581 6.50832 597.25L65.0083 678.25C74.7583 691.25 85.5083 691.5 95.0083 678.25L153.258 597.25C165.008 581 160.008 564 139.258 564Z" fill="black" fill-opacity="0.85"/>
 </g>
</svg>
