<?xml version="1.0" encoding="UTF-8"?>
<!--Generator: Apple Native CoreSVG 326-->
<!DOCTYPE svg
PUBLIC "-//W3C//DTD SVG 1.1//EN"
       "http://www.w3.org/Graphics/SVG/1.1/DTD/svg11.dtd">
<svg version="1.1" xmlns="http://www.w3.org/2000/svg" xmlns:xlink="http://www.w3.org/1999/xlink" viewBox="0 0 757.5 587.75">
 <g>
  <rect height="587.75" opacity="0" width="757.5" x="0" y="0"/>
  <path d="M580 567.75L580 255.75C580 205.25 552.25 177.75 501 177.75L23.75 177.75L23.75 217.5L498.25 217.5C524.75 217.5 540.25 233.25 540.25 260L540.25 567.75ZM407.25 191L367.5 191L367.5 567.75L407.25 567.75ZM97.25 587.75L660 587.75C724.75 587.75 757.5 555 757.5 491.5L757.5 96.5C757.5 32.75 724.75 0 660 0L97.25 0C32.75 0 0 32.5 0 96.5L0 491.5C0 555.5 32.75 587.75 97.25 587.75ZM98.25 543.5C63.25 543.5 44.25 525 44.25 489L44.25 98.75C44.25 63 63.25 44.25 98.25 44.25L659.25 44.25C693.5 44.25 713 63 713 98.75L713 489C713 525 693.5 543.5 659.25 543.5Z" fill="black" fill-opacity="0.85"/>
 </g>
</svg>
