<?xml version="1.0" encoding="UTF-8"?>
<!--Generator: Apple Native CoreSVG 326-->
<!DOCTYPE svg
PUBLIC "-//W3C//DTD SVG 1.1//EN"
       "http://www.w3.org/Graphics/SVG/1.1/DTD/svg11.dtd">
<svg version="1.1" xmlns="http://www.w3.org/2000/svg" xmlns:xlink="http://www.w3.org/1999/xlink" viewBox="0 0 730 729.25">
 <g>
  <rect height="729.25" opacity="0" width="730" x="0" y="0"/>
  <path d="M173 729.25L219.5 729.25C238.5 729.25 250.5 717 250.5 697.5L250.5 652.25C250.5 632.75 238.5 620.5 219.5 620.5L173 620.5C153.75 620.5 141.75 632.75 141.75 652.25L141.75 697.5C141.75 717 153.75 729.25 173 729.25ZM181.25 697C176.5 697 174 694.25 174 689.75L174 660.25C174 655.5 176.5 652.75 181.25 652.75L211.5 652.75C215.75 652.75 218.25 655.5 218.25 660.25L218.25 689.75C218.25 694.25 215.75 697 211.5 697ZM174.25 626.5L217.25 626.5C221 528 255.25 441.5 314 369.75L282.5 342.5C216 423.25 178 515.75 174.25 626.5ZM652.25 248L698.75 248C718 248 730 236 730 216.25L730 171C730 151.5 718 139.25 698.75 139.25L652.25 139.25C633.25 139.25 621.25 151.5 621.25 171L621.25 216.25C621.25 236 633.25 248 652.25 248ZM660.5 215.75C656 215.75 653.5 213 653.5 208.5L653.5 179C653.5 174.5 656 171.5 660.5 171.5L690.75 171.5C695.25 171.5 697.75 174.5 697.75 179L697.75 208.5C697.75 213 695.25 215.75 690.75 215.75ZM358.25 268.75L379.75 305.25C449.75 250.5 532.75 219.5 627.5 216.25L627.5 173.25C523.25 176.5 436.25 209.25 358.25 268.75ZM282 361L257.25 338L32.25 562.5L56.25 586.5ZM344.5 250.25L369 273.25L581.75 61L557.75 37ZM573.5 83C596 83 614 65 614 42.5C614 20 596 2 573.5 2C551 2 532.75 20 532.75 42.5C532.75 65 551 83 573.5 83ZM40.5 621.75C63 621.75 81.25 603.5 81.25 581.25C81.25 558.75 63 540.5 40.5 540.5C18.25 540.5 0 558.75 0 581.25C0 603.5 18.25 621.75 40.5 621.75ZM319.75 391.75C363 391.75 398.5 356.5 398.5 313.25C398.5 270 363 234.5 319.75 234.5C276.5 234.5 241.25 270 241.25 313.25C241.25 356.5 276.5 391.75 319.75 391.75ZM319.75 354.5C297 354.5 278.5 336 278.5 313.25C278.5 290.25 297 271.75 319.75 271.75C342.75 271.75 361.25 290.25 361.25 313.25C361.25 336 342.75 354.5 319.75 354.5Z" fill="black" fill-opacity="0.85"/>
 </g>
</svg>
