<?xml version="1.0" encoding="UTF-8"?>
<!--Generator: Apple Native CoreSVG 326-->
<!DOCTYPE svg
PUBLIC "-//W3C//DTD SVG 1.1//EN"
       "http://www.w3.org/Graphics/SVG/1.1/DTD/svg11.dtd">
<svg version="1.1" xmlns="http://www.w3.org/2000/svg" xmlns:xlink="http://www.w3.org/1999/xlink" viewBox="0 0 806.25 733.25">
 <g>
  <rect height="733.25" opacity="0" width="806.25" x="0" y="0"/>
  <path d="M326 733.25C337 733.25 346.5 724.75 346.5 714L346.5 19.25C346.5 8.5 337 0 326 0C315.25 0 305.75 8.5 305.75 19.25L305.75 714C305.75 724.75 315.25 733.25 326 733.25ZM786 733.25C796.75 733.25 806.25 724.75 806.25 714L806.25 19.25C806.25 8.5 796.75 0 786 0C775 0 765.5 8.5 765.5 19.25L765.5 714C765.5 724.75 775 733.25 786 733.25Z" fill="black" fill-opacity="0.85"/>
  <path d="M66 669.25L184 669.25C226.25 669.25 250 645.25 250 602.25L250 131C250 88 226.25 64 184 64L66 64C23.75 64 0 88 0 131L0 602.25C0 645.25 23.75 669.25 66 669.25ZM525.75 557.5L643.75 557.5C686 557.5 709.75 533.5 709.75 490.25L709.75 242.75C709.75 199.75 686 175.75 643.75 175.75L525.75 175.75C483.5 175.75 459.75 199.75 459.75 242.75L459.75 490.25C459.75 533.5 483.5 557.5 525.75 557.5Z" fill="black" fill-opacity="0.85"/>
 </g>
</svg>
