<?xml version="1.0" encoding="UTF-8"?>
<!--Generator: Apple Native CoreSVG 326-->
<!DOCTYPE svg
PUBLIC "-//W3C//DTD SVG 1.1//EN"
       "http://www.w3.org/Graphics/SVG/1.1/DTD/svg11.dtd">
<svg version="1.1" xmlns="http://www.w3.org/2000/svg" xmlns:xlink="http://www.w3.org/1999/xlink" viewBox="0 0 752.25 761.75">
 <g>
  <rect height="761.75" opacity="0" width="752.25" x="0" y="0"/>
  <path d="M252.25 232.5L500 232.5C543 232.5 567 208.75 567 166.5L567 66C567 23.75 543 0 500 0L252.25 0C209.25 0 185.25 23.75 185.25 66L185.25 166.5C185.25 208.75 209.25 232.5 252.25 232.5ZM140.5 664.75L611.75 664.75C654.75 664.75 678.75 641 678.75 598.75L678.75 498.25C678.75 456 654.75 432.25 611.75 432.25L140.5 432.25C97.5 432.25 73.5 456 73.5 498.25L73.5 598.75C73.5 641 97.5 664.75 140.5 664.75Z" fill="black" fill-opacity="0.85"/>
  <path d="M19.25 329L732.75 329C743.75 329 752.25 319.5 752.25 308.75C752.25 297.75 743.75 288.25 732.75 288.25L19.25 288.25C8.5 288.25 0 297.75 0 308.75C0 319.5 8.5 329 19.25 329ZM19.25 761.25L732.75 761.25C743.75 761.25 752.25 751.75 752.25 741C752.25 730 743.75 720.5 732.75 720.5L19.25 720.5C8.5 720.5 0 730 0 741C0 751.75 8.5 761.25 19.25 761.25Z" fill="black" fill-opacity="0.85"/>
 </g>
</svg>
