<?xml version="1.0" encoding="UTF-8"?>
<!--Generator: Apple Native CoreSVG 326-->
<!DOCTYPE svg
PUBLIC "-//W3C//DTD SVG 1.1//EN"
       "http://www.w3.org/Graphics/SVG/1.1/DTD/svg11.dtd">
<svg version="1.1" xmlns="http://www.w3.org/2000/svg" xmlns:xlink="http://www.w3.org/1999/xlink" viewBox="0 0 644.25 733.25">
 <g>
  <rect height="733.25" opacity="0" width="644.25" x="0" y="0"/>
  <path d="M145.5 714C145.5 724.75 136 733.25 125 733.25C114.25 733.25 104.75 724.75 104.75 714L104.75 654.5L145.5 654.5ZM539.75 714C539.75 724.75 530.25 733.25 519.5 733.25C508.5 733.25 499 724.75 499 714L499 557.5L539.75 557.5ZM539.75 19.25L539.75 175.75L499 175.75L499 19.25C499 8.5 508.5 0 519.5 0C530.25 0 539.75 8.5 539.75 19.25ZM145.5 19.25L145.5 78.75L104.75 78.75L104.75 19.25C104.75 8.5 114.25 0 125 0C136 0 145.5 8.5 145.5 19.25Z" fill="black" fill-opacity="0.85"/>
  <path d="M66 654.5L184 654.5C226.25 654.5 250 630.5 250 587.5L250 145.75C250 102.5 226.25 78.75 184 78.75L66 78.75C23.75 78.75 0 102.5 0 145.75L0 587.5C0 630.5 23.75 654.5 66 654.5ZM68.25 612.75C51.5 612.75 41.75 603 41.75 586.75L41.75 146.5C41.75 130 51.5 120.5 68.25 120.5L181.5 120.5C198.5 120.5 208.25 130 208.25 146.5L208.25 586.75C208.25 603 198.5 612.75 181.5 612.75ZM460.5 557.5L578.25 557.5C620.5 557.5 644.25 533.5 644.25 490.25L644.25 242.75C644.25 199.75 620.5 175.75 578.25 175.75L460.5 175.75C418 175.75 394.5 199.75 394.5 242.75L394.5 490.25C394.5 533.5 418 557.5 460.5 557.5ZM462.75 515.5C445.75 515.5 436.25 506 436.25 489.5L436.25 243.75C436.25 227.25 445.75 217.5 462.75 217.5L576 217.5C592.75 217.5 602.5 227.25 602.5 243.75L602.5 489.5C602.5 506 592.75 515.5 576 515.5Z" fill="black" fill-opacity="0.85"/>
 </g>
</svg>
