<?xml version="1.0" encoding="UTF-8"?>
<!--Generator: Apple Native CoreSVG 326-->
<!DOCTYPE svg
PUBLIC "-//W3C//DTD SVG 1.1//EN"
       "http://www.w3.org/Graphics/SVG/1.1/DTD/svg11.dtd">
<svg version="1.1" xmlns="http://www.w3.org/2000/svg" xmlns:xlink="http://www.w3.org/1999/xlink" viewBox="0 0 761.75 668.75">
 <g>
  <rect height="668.75" opacity="0" width="761.75" x="0" y="0"/>
  <path d="M80.75 565L19.25 565C8.5 565 0 555.5 0 544.5C0 533.75 8.5 524.25 19.25 524.25L80.75 524.25ZM761.75 544.5C761.75 555.5 753.25 565 742.5 565L681 565L681 524.25L742.5 524.25C753.25 524.25 761.75 533.75 761.75 544.5ZM192.75 144L19.25 144C8.5 144 0 134.5 0 123.75C0 113 8.5 103.25 19.25 103.25L192.75 103.25ZM752.25 123.75C752.25 134.5 743.75 144 732.75 144L569.25 144L569.25 103.25L732.75 103.25C743.75 103.25 752.25 113 752.25 123.75Z" fill="black" fill-opacity="0.85"/>
  <path d="M259.75 247.5L502.25 247.5C545.25 247.5 569.25 223.75 569.25 181.5L569.25 66C569.25 23.75 545.25 0 502.25 0L259.75 0C216.75 0 192.75 23.75 192.75 66L192.75 181.5C192.75 223.75 216.75 247.5 259.75 247.5ZM148 668.5L614 668.5C657 668.5 681 644.75 681 602.5L681 486.75C681 444.5 657 420.75 614 420.75L148 420.75C104.75 420.75 80.75 444.5 80.75 486.75L80.75 602.5C80.75 644.75 104.75 668.5 148 668.5Z" fill="black" fill-opacity="0.85"/>
 </g>
</svg>
