<?xml version="1.0" encoding="UTF-8"?>
<!--Generator: Apple Native CoreSVG 326-->
<!DOCTYPE svg
PUBLIC "-//W3C//DTD SVG 1.1//EN"
       "http://www.w3.org/Graphics/SVG/1.1/DTD/svg11.dtd">
<svg version="1.1" xmlns="http://www.w3.org/2000/svg" xmlns:xlink="http://www.w3.org/1999/xlink" viewBox="0 0 752.25 761.75">
 <g>
  <rect height="761.75" opacity="0" width="752.25" x="0" y="0"/>
  <path d="M252.25 329L500 329C543 329 567 305.25 567 263L567 162.5C567 120.25 543 96.5 500 96.5L252.25 96.5C209.25 96.5 185.25 120.25 185.25 162.5L185.25 263C185.25 305.25 209.25 329 252.25 329ZM140.5 761.25L611.75 761.25C654.75 761.25 678.75 737.5 678.75 695.25L678.75 594.75C678.75 552.5 654.75 528.75 611.75 528.75L140.5 528.75C97.5 528.75 73.5 552.5 73.5 594.75L73.5 695.25C73.5 737.5 97.5 761.25 140.5 761.25Z" fill="black" fill-opacity="0.85"/>
  <path d="M19.25 40.75L732.75 40.75C743.75 40.75 752.25 31.25 752.25 20.5C752.25 9.5 743.75 0 732.75 0L19.25 0C8.5 0 0 9.5 0 20.5C0 31.25 8.5 40.75 19.25 40.75ZM19.25 473L732.75 473C743.75 473 752.25 463.5 752.25 452.75C752.25 441.75 743.75 432.25 732.75 432.25L19.25 432.25C8.5 432.25 0 441.75 0 452.75C0 463.5 8.5 473 19.25 473Z" fill="black" fill-opacity="0.85"/>
 </g>
</svg>
