<?xml version="1.0" encoding="UTF-8"?>
<!--Generator: Apple Native CoreSVG 326-->
<!DOCTYPE svg
PUBLIC "-//W3C//DTD SVG 1.1//EN"
       "http://www.w3.org/Graphics/SVG/1.1/DTD/svg11.dtd">
<svg version="1.1" xmlns="http://www.w3.org/2000/svg" xmlns:xlink="http://www.w3.org/1999/xlink" viewBox="0 0 806.25 733.25">
 <g>
  <rect height="733.25" opacity="0" width="806.25" x="0" y="0"/>
  <path d="M162.5 669.25L280.5 669.25C322.75 669.25 346.5 645.25 346.5 602.25L346.5 131C346.5 88 322.75 64 280.5 64L162.5 64C120.25 64 96.5 88 96.5 131L96.5 602.25C96.5 645.25 120.25 669.25 162.5 669.25ZM622.5 557.5L740.25 557.5C782.5 557.5 806.25 533.5 806.25 490.25L806.25 242.75C806.25 199.75 782.5 175.75 740.25 175.75L622.5 175.75C580 175.75 556.25 199.75 556.25 242.75L556.25 490.25C556.25 533.5 580 557.5 622.5 557.5Z" fill="black" fill-opacity="0.85"/>
  <path d="M20.5 733.25C31.25 733.25 40.75 724.75 40.75 714L40.75 19.25C40.75 8.5 31.25 0 20.5 0C9.5 0 0 8.5 0 19.25L0 714C0 724.75 9.5 733.25 20.5 733.25ZM480.25 733.25C491 733.25 500.5 724.75 500.5 714L500.5 19.25C500.5 8.5 491 0 480.25 0C469.25 0 459.75 8.5 459.75 19.25L459.75 714C459.75 724.75 469.25 733.25 480.25 733.25Z" fill="black" fill-opacity="0.85"/>
 </g>
</svg>
