<?xml version="1.0" encoding="UTF-8"?>
<!--Generator: Apple Native CoreSVG 326-->
<!DOCTYPE svg
PUBLIC "-//W3C//DTD SVG 1.1//EN"
       "http://www.w3.org/Graphics/SVG/1.1/DTD/svg11.dtd">
<svg version="1.1" xmlns="http://www.w3.org/2000/svg" xmlns:xlink="http://www.w3.org/1999/xlink" viewBox="0 0 897.019 718.63">
 <g>
  <rect height="718.63" opacity="0" width="897.019" x="0" y="0"/>
  <path d="M600.01 634.94C600.01 646.94 590.01 656.94 577.76 656.94L384.249 656.94L428.463 612.69L577.76 612.69C590.01 612.69 600.01 622.69 600.01 634.94Z" fill="black" fill-opacity="0.85"/>
  <path d="M856.76 634.94C856.76 646.94 846.76 656.94 834.76 656.94L665.76 656.94C653.76 656.94 643.76 646.94 643.76 634.94C643.76 622.69 653.76 612.69 665.76 612.69L834.76 612.69C846.76 612.69 856.76 622.69 856.76 634.94Z" fill="black" fill-opacity="0.85"/>
  <path d="M74.7597 511.69L202.01 638.69C247.26 683.69 299.51 685.44 342.51 642.44L653.51 331.19C680.51 304.44 680.26 265.44 652.51 237.94L475.51 61.1899C448.01 33.4399 409.26 32.9399 382.26 60.1899L71.2597 371.19C28.2597 414.19 30.0097 466.69 74.7597 511.69ZM106.01 480.44C81.0097 455.19 80.0097 425.19 103.76 400.94L412.01 92.9399C421.51 83.1899 435.01 83.1899 444.51 92.6899L621.01 269.19C630.51 278.69 630.26 291.94 620.76 301.44L312.51 609.69C288.51 633.69 258.51 632.69 233.51 607.44ZM120.51 353.19L360.76 593.44L388.51 565.44L148.76 325.94Z" fill="black" fill-opacity="0.85"/>
 </g>
</svg>
