<?xml version="1.0" encoding="UTF-8"?>
<!--Generator: Apple Native CoreSVG 326-->
<!DOCTYPE svg
PUBLIC "-//W3C//DTD SVG 1.1//EN"
       "http://www.w3.org/Graphics/SVG/1.1/DTD/svg11.dtd">
<svg version="1.1" xmlns="http://www.w3.org/2000/svg" xmlns:xlink="http://www.w3.org/1999/xlink" viewBox="0 0 668.5 675.75">
 <g>
  <rect height="675.75" opacity="0" width="668.5" x="0" y="0"/>
  <path d="M22.25 675.75L646.25 675.75C658.5 675.75 668.5 665.75 668.5 653.5C668.5 641.5 658.5 631.5 646.25 631.5L22.25 631.5C10 631.5 0 641.5 0 653.5C0 665.75 10 675.75 22.25 675.75Z" fill="black" fill-opacity="0.85"/>
  <path d="M157.75 548.25L266 505.25C273.5 502.25 277 499.75 281.5 495L591.25 189.5C620 161 619.75 127.75 590.75 98.25L523 29.5C494 0.25 460.5-0.5 431.75 28L121.75 333.5C117.25 338 114.5 341.25 111.5 348.75L67 456.75C60.5 471.75 62 486 73.5 497.5L117 541.5C128.25 552.75 142.5 554.5 157.75 548.25ZM153 505.5C146.5 508 142.25 507.75 136.75 502.25L112.75 478C107.5 472.75 107.5 468 109.75 462L150.5 364.25L460 59C470.5 48.75 483 48.5 492.75 58.5L561.75 128.5C571.5 138.5 571 151 560.5 161.25L251.25 466.5ZM38.75 563.75L75 563.75C83.5 563.75 87 562.25 93.5 557.25L124.25 534L80.75 490.5L30.25 543C21.75 552.25 26 563.75 38.75 563.75ZM126 364L256 495.75L282.25 469.75L152.25 338ZM396.75 97.25L526.75 229L553 203L423 71.25Z" fill="black" fill-opacity="0.85"/>
 </g>
</svg>
