<?xml version="1.0" encoding="UTF-8"?>
<!--Generator: Apple Native CoreSVG 326-->
<!DOCTYPE svg
PUBLIC "-//W3C//DTD SVG 1.1//EN"
       "http://www.w3.org/Graphics/SVG/1.1/DTD/svg11.dtd">
<svg version="1.1" xmlns="http://www.w3.org/2000/svg" xmlns:xlink="http://www.w3.org/1999/xlink" viewBox="0 0 587.75 588.25">
 <g>
  <rect height="588.25" opacity="0" width="587.75" x="0" y="0"/>
  <path d="M0 170L44.25 170L44.25 99.25C44.25 63.5 63.25 45 98.25 45L168.5 45L168.5 0.75L97.25 0.75C32.75 0.75 0 33 0 97ZM208.25 45L379.25 45L379.25 0.75L208.25 0.75ZM543.5 170L587.75 170L587.75 97C587.75 33.25 554.75 0.75 490.25 0.75L419.25 0.75L419.25 45L489.5 45C523.75 45 543.5 63.5 543.5 99.25ZM543.5 379L587.75 379L587.75 210L543.5 210ZM419.25 588.25L490.25 588.25C554.75 588.25 587.75 555.75 587.75 492L587.75 419L543.5 419L543.5 489.75C543.5 525.5 523.75 544 489.5 544L419.25 544ZM208.25 588.25L379.25 588.25L379.25 544L208.25 544ZM97.25 588.25L168.5 588.25L168.5 544L98.25 544C63.25 544 44.25 525.5 44.25 489.75L44.25 419L0 419L0 492C0 556 32.75 588.25 97.25 588.25ZM0 379L44.25 379L44.25 210L0 210Z" fill="black" fill-opacity="0.85"/>
  <path d="M119.75 503.5L468.25 503.5C492.25 503.5 503.75 492 503.75 467.75L503.75 120.25C503.75 96 492.25 84.25 468.25 84.25L119.75 84.25C95.75 84.25 84.25 96 84.25 120.25L84.25 467.75C84.25 492 95.75 503.5 119.75 503.5Z" fill="black" fill-opacity="0.85"/>
 </g>
</svg>
