<?xml version="1.0" encoding="UTF-8"?>
<!--Generator: Apple Native CoreSVG 326-->
<!DOCTYPE svg
PUBLIC "-//W3C//DTD SVG 1.1//EN"
       "http://www.w3.org/Graphics/SVG/1.1/DTD/svg11.dtd">
<svg version="1.1" xmlns="http://www.w3.org/2000/svg" xmlns:xlink="http://www.w3.org/1999/xlink" viewBox="0 0 655.5 721.75">
 <g>
  <rect height="721.75" opacity="0" width="655.5" x="0" y="0"/>
  <path d="M0 360.75C0 506.75 124.75 586.25 280 586.25C295 586.25 310 585.5 324.75 584.25L314.75 543.75C304 544.5 292.75 545 281.75 545C150.25 545 41.75 484.5 41.75 361C41.75 219.25 204.25 119.5 360 119.5C496.75 119.5 614 204.25 614 333.5C614 451.5 486.25 553.5 365.5 553.5C341.5 553.5 323.25 544 323.25 527C323.25 498.25 364.75 479 410 479C466.75 479 510 520.75 510 577.75C510 618.5 486.5 658.25 447.5 681.5C439.5 687 433.75 692.75 433.75 702.75C433.75 712.75 441.75 721.75 455 721.75C460.75 721.75 464.75 720.25 470 716.75C520 685.75 551.5 632 551.5 576.5C551.5 497 488.5 437 407 437C338 437 281.25 474 281.25 528.25C281.25 569.25 315.5 595 365.5 595C508.5 595 655.5 476 655.5 333.25C655.5 182.25 520.5 77.5 359.75 77.5C183 77.5 0 193.25 0 360.75Z" fill="black" fill-opacity="0.85"/>
 </g>
</svg>
