<?xml version="1.0" encoding="UTF-8"?>
<!--Generator: Apple Native CoreSVG 326-->
<!DOCTYPE svg
PUBLIC "-//W3C//DTD SVG 1.1//EN"
       "http://www.w3.org/Graphics/SVG/1.1/DTD/svg11.dtd">
<svg version="1.1" xmlns="http://www.w3.org/2000/svg" xmlns:xlink="http://www.w3.org/1999/xlink" viewBox="0 0 692.726 647.536">
 <g>
  <rect height="647.536" opacity="0" width="692.726" x="0" y="0"/>
  <path d="M6.86317 570.393C60.1132 646.393 177.363 672.393 252.113 620.393C316.863 575.393 331.113 505.643 288.363 444.393C249.863 389.143 180.363 373.893 134.863 406.393C81.8632 443.893 103.363 495.393 70.8632 518.393C44.1132 537.393 25.1132 525.393 9.61317 535.893C-0.63683 542.393-4.13683 554.393 6.86317 570.393ZM298.863 400.143C322.363 423.643 339.113 453.893 343.363 480.143C367.863 475.393 388.363 463.143 410.113 441.143C413.113 438.143 416.113 435.393 418.863 432.143C405.113 354.893 341.863 293.643 267.113 280.143C263.863 282.893 260.863 285.893 257.863 288.893C235.863 310.893 223.613 331.643 219.113 356.143C244.613 359.893 275.363 376.393 298.863 400.143ZM606.363 16.8931C589.113 29.3931 401.863 158.893 293.363 255.893C365.113 277.143 421.613 332.393 443.113 405.893C540.363 297.393 669.613 110.393 682.113 92.6431C717.863 41.6431 655.863-19.1069 606.363 16.8931Z" fill="black" fill-opacity="0.85"/>
 </g>
</svg>
