<?xml version="1.0" encoding="UTF-8"?>
<!--Generator: Apple Native CoreSVG 326-->
<!DOCTYPE svg
PUBLIC "-//W3C//DTD SVG 1.1//EN"
       "http://www.w3.org/Graphics/SVG/1.1/DTD/svg11.dtd">
<svg version="1.1" xmlns="http://www.w3.org/2000/svg" xmlns:xlink="http://www.w3.org/1999/xlink" viewBox="0 0 684.059 591.291">
 <g>
  <rect height="591.291" opacity="0" width="684.059" x="0" y="0"/>
  <path d="M643.654 529.521C643.654 541.771 633.654 551.771 621.654 551.771L149.171 551.771L193.631 507.521L621.654 507.521C633.654 507.521 643.654 517.521 643.654 529.521Z" fill="black" fill-opacity="0.85"/>
  <path d="M123.654 521.271L484.154 161.271L432.904 109.771L72.4045 469.771L41.1545 538.771C38.1545 545.771 45.6545 553.771 52.6545 550.771ZM510.904 135.271L541.154 105.271C556.904 89.7705 557.654 73.5205 543.654 59.7705L534.654 50.7705C521.154 37.2705 504.654 38.5205 489.404 53.5205L458.904 83.5205Z" fill="black" fill-opacity="0.85"/>
 </g>
</svg>
