<?xml version="1.0" encoding="UTF-8"?>
<!--Generator: Apple Native CoreSVG 326-->
<!DOCTYPE svg
PUBLIC "-//W3C//DTD SVG 1.1//EN"
       "http://www.w3.org/Graphics/SVG/1.1/DTD/svg11.dtd">
<svg version="1.1" xmlns="http://www.w3.org/2000/svg" xmlns:xlink="http://www.w3.org/1999/xlink" viewBox="0 0 700.625 758.471">
 <g>
  <rect height="758.471" opacity="0" width="700.625" x="0" y="0"/>
  <path d="M492.121 93.2277L462.604 122.766C409.216 90.6522 348.598 71.8605 288.188 71.8605C146.188 71.8605 59.9375 172.61 59.9375 304.36C59.9375 473.86 197.688 643.86 413.188 669.86C425.938 671.36 432.188 680.61 432.188 689.86C432.188 699.86 424.438 710.36 408.688 708.36C210.938 692.86 20.6875 523.36 20.6875 305.61C20.6875 150.11 125.188 32.3605 289.188 32.3605C359.624 32.3605 430.522 54.6958 492.121 93.2277ZM680.188 407.11C680.188 520.36 602.188 595.36 493.938 595.36C419.46 595.36 338.66 560.475 277.817 504.33L319.532 485.056C371.283 529.991 434.811 558.11 493.188 558.11C574.438 558.11 641.938 500.86 641.938 407.11C641.938 344.56 619.422 284.067 582.196 232.256L611.148 203.41C654.009 262.078 680.188 332.156 680.188 407.11Z" fill="black" fill-opacity="0.85"/>
  <path d="M303.438 440.61L593.688 150.86L549.188 106.36L259.188 396.11L230.938 456.86C228.438 463.11 234.688 469.86 240.938 467.11ZM616.688 128.11L641.688 103.36C653.938 91.1105 654.438 74.6105 642.188 63.1105L635.438 56.8605C624.688 46.6105 608.438 46.6105 596.938 58.3605L572.188 83.3605Z" fill="black" fill-opacity="0.85"/>
 </g>
</svg>
