<?xml version="1.0" encoding="UTF-8"?>
<!--Generator: Apple Native CoreSVG 326-->
<!DOCTYPE svg
PUBLIC "-//W3C//DTD SVG 1.1//EN"
       "http://www.w3.org/Graphics/SVG/1.1/DTD/svg11.dtd">
<svg version="1.1" xmlns="http://www.w3.org/2000/svg" xmlns:xlink="http://www.w3.org/1999/xlink" viewBox="0 0 757.5 588.25">
 <g>
  <rect height="588.25" opacity="0" width="757.5" x="0" y="0"/>
  <path d="M0 170L44.25 170L44.25 99.25C44.25 63.5 63.25 45 98.25 45L168.5 45L168.5 0.75L97.25 0.75C32.75 0.75 0 33 0 97ZM0 379L44.25 379L44.25 210L0 210ZM97.25 588.25L168.5 588.25L168.5 544L98.25 544C63.25 544 44.25 525.5 44.25 489.75L44.25 419L0 419L0 492C0 556 32.75 588.25 97.25 588.25ZM208.25 588.25L358.75 588.25L358.75 544L208.25 544ZM398.75 588.25L549 588.25L549 544L398.75 544ZM660 588.25C724.5 588.25 757.5 556 757.5 492L757.5 419L713 419L713 489.75C713 525.5 694 544 659.25 544L589 544L589 588.25ZM757.5 170L757.5 97C757.5 33 724.5 0.75 660 0.75L589 0.75L589 45L659.25 45C694 45 713 63.5 713 99.25L713 170ZM757.5 379L757.5 210L713 210L713 379ZM208.25 45L358.75 45L358.75 0.75L208.25 0.75ZM398.75 45L549 45L549 0.75L398.75 0.75Z" fill="black" fill-opacity="0.85"/>
 </g>
</svg>
