<?xml version="1.0" encoding="UTF-8"?>
<!--Generator: Apple Native CoreSVG 326-->
<!DOCTYPE svg
PUBLIC "-//W3C//DTD SVG 1.1//EN"
       "http://www.w3.org/Graphics/SVG/1.1/DTD/svg11.dtd">
<svg version="1.1" xmlns="http://www.w3.org/2000/svg" xmlns:xlink="http://www.w3.org/1999/xlink" viewBox="0 0 631.25 889.683">
 <g>
  <rect height="889.683" opacity="0" width="631.25" x="0" y="0"/>
  <path d="M615.25 245.467C623.5 245.467 631.25 237.967 631.25 229.217L631.25 190.717C631.25 110.217 577.5 57.7167 495.5 57.7167L490 57.7167L490 18.4667C490-0.533325 475-5.03333 460.25 5.71667L387.25 58.2167C375.5 66.7167 375.25 76.4667 387.25 85.2167L460.25 137.717C475 148.467 490 143.717 490 125.217L490 87.9667L495.25 87.9667C558 87.9667 598.75 128.717 598.75 190.967L598.75 229.217C598.75 237.967 606.25 245.467 615.25 245.467ZM16 643.717C7.75 643.717 0 651.217 0 660.217L0 698.467C0 778.967 53.75 831.467 135.75 831.467L141.25 831.467L141.25 870.717C141.25 889.967 156.25 894.467 171 883.717L243.75 830.967C255.75 822.467 256 812.717 243.75 803.967L171 751.467C156.25 740.717 141.25 745.467 141.25 763.967L141.25 801.467L136 801.467C73.25 801.467 32.5 760.717 32.5 698.217L32.5 660.217C32.5 651.217 25 643.717 16 643.717Z" fill="black" fill-opacity="0.85"/>
  <path d="M191 693.467L440.25 693.467C478 693.467 505.75 667.467 505.75 631.217L505.75 257.967C505.75 221.717 478 195.717 440.25 195.717L191 195.717C153.25 195.717 125.75 221.717 125.75 257.967L125.75 631.217C125.75 667.467 153.25 693.467 191 693.467ZM194.5 651.717C178.75 651.717 167.5 641.467 167.5 626.717L167.5 262.467C167.5 247.717 178.75 237.217 194.5 237.217L436.75 237.217C453 237.217 464.25 247.717 464.25 262.467L464.25 626.717C464.25 641.467 453 651.717 436.75 651.717Z" fill="black" fill-opacity="0.85"/>
 </g>
</svg>
