<?xml version="1.0" encoding="UTF-8"?>
<!--Generator: Apple Native CoreSVG 326-->
<!DOCTYPE svg
PUBLIC "-//W3C//DTD SVG 1.1//EN"
       "http://www.w3.org/Graphics/SVG/1.1/DTD/svg11.dtd">
<svg version="1.1" xmlns="http://www.w3.org/2000/svg" xmlns:xlink="http://www.w3.org/1999/xlink" viewBox="0 0 651.25 651.75">
 <g>
  <rect height="651.75" opacity="0" width="651.25" x="0" y="0"/>
  <path d="M651.25 326C651.25 505.5 505 651.75 325.5 651.75C146.25 651.75 0 505.5 0 326C0 146.75 146.25 0.5 325.5 0.5C505 0.5 651.25 146.75 651.25 326ZM325.5 397C311 397 297.25 396.25 284.25 395.5C290 470.75 306 517.75 325.5 517.75C418.25 517.5 496.25 450.25 513.75 362.75C477.75 383.5 409.75 397 325.5 397ZM288.75 514.25C274 488.75 262.75 446.5 257.5 393.75C204.75 388.75 162.75 377.5 137.25 362.75C152.5 438.75 213 499.25 288.75 514.25ZM281.75 326C281.75 341 282 355.25 282.75 368.75C296.25 369.25 310.75 369.75 325.5 369.75C439.5 369.75 517 350.5 517.25 326C517.25 221 430.25 134.5 325.5 134.5C300.75 134.75 281.75 212 281.75 326ZM134 325.75C134 345.25 180.5 361.25 255.75 367.5C255 354 254.5 340.25 254.5 326C254.5 241.75 268 173.75 288.75 137.75C201.25 155.25 134 233.5 134 325.75Z" fill="black" fill-opacity="0.85"/>
 </g>
</svg>
