<?xml version="1.0" encoding="UTF-8"?>
<!--Generator: Apple Native CoreSVG 326-->
<!DOCTYPE svg
PUBLIC "-//W3C//DTD SVG 1.1//EN"
       "http://www.w3.org/Graphics/SVG/1.1/DTD/svg11.dtd">
<svg version="1.1" xmlns="http://www.w3.org/2000/svg" xmlns:xlink="http://www.w3.org/1999/xlink" viewBox="0 0 651.25 651.75">
 <g>
  <rect height="651.75" opacity="0" width="651.25" x="0" y="0"/>
  <path d="M208.25 396.5C206.75 373.75 206 350.25 206 325.75C206 181.5 229 65.75 264.5 6.25C115 35 0 168.25 0 325.75C0 358.75 80.75 386.25 208.25 396.5ZM252.25 398.75C275.5 400 300 400.75 325.5 400.75C518.75 400.75 651.25 368 651.25 325.75C651.25 147.5 503.5 0 325.25 0C283 0 250.25 132.5 250.25 325.75C250.25 351.25 251 375.5 252.25 398.75ZM211 440C120.25 431.5 48.5 412 6.25 386.75C30.75 516.25 134.75 620.25 264.25 645C239 602.75 219.5 530.75 211 440ZM254.5 442.75C264.75 570.25 292 651 325.25 651.25C483 651.25 616.25 536 645 386.5C585.5 422 469.75 445 325.5 445C300.75 445 277.25 444.25 254.5 442.75Z" fill="black" fill-opacity="0.85"/>
 </g>
</svg>
