<?xml version="1.0" encoding="UTF-8"?>
<!--Generator: Apple Native CoreSVG 326-->
<!DOCTYPE svg
PUBLIC "-//W3C//DTD SVG 1.1//EN"
       "http://www.w3.org/Graphics/SVG/1.1/DTD/svg11.dtd">
<svg version="1.1" xmlns="http://www.w3.org/2000/svg" xmlns:xlink="http://www.w3.org/1999/xlink" viewBox="0 0 651.25 651.75">
 <g>
  <rect height="651.75" opacity="0" width="651.25" x="0" y="0"/>
  <path d="M325.5 651.25C505.25 651.25 651.25 505.5 651.25 325.75C651.25 146 505.25 0 325.5 0C145.75 0 0 146 0 325.75C0 505.5 145.75 651.25 325.5 651.25ZM325.5 604.75C171.25 604.75 46.5 480 46.5 325.75C46.5 171.5 171.25 46.75 325.5 46.75C479.75 46.75 604.5 171.5 604.5 325.75C604.5 480 479.75 604.75 325.5 604.75Z" fill="black" fill-opacity="0.85"/>
  <path d="M257.5 366.25C256.75 353.25 256.25 339.75 256.25 325.75C256.25 243.25 269.5 177 289.75 142C204.25 159 138.5 235.25 138.5 325.25C138.5 344.5 184.25 360 257.5 366.25ZM283.5 367.75C296.75 368.25 311 368.75 325.5 368.75C436.75 368.75 512.25 349.5 512.75 325.5C512.75 223.25 427.75 138.5 325.5 138.5C301.25 139 282.5 214.5 282.5 325.75C282.5 340.25 282.75 354.25 283.5 367.75ZM259.25 391.75C207.5 386.75 166.75 375.75 141.75 361.25C156.5 435.5 215.75 494.75 289.75 509.25C275.25 484.5 264.25 443.25 259.25 391.75ZM285 393.5C290.75 466.75 306.5 512.75 325.5 512.75C416 512.5 492.25 446.75 509.25 361.25C474.25 381.5 407.75 394.75 325.5 394.75C311.25 394.75 297.75 394.25 285 393.5Z" fill="black" fill-opacity="0.85"/>
 </g>
</svg>
