<?xml version="1.0" encoding="UTF-8"?>
<!--Generator: Apple Native CoreSVG 326-->
<!DOCTYPE svg
PUBLIC "-//W3C//DTD SVG 1.1//EN"
       "http://www.w3.org/Graphics/SVG/1.1/DTD/svg11.dtd">
<svg version="1.1" xmlns="http://www.w3.org/2000/svg" xmlns:xlink="http://www.w3.org/1999/xlink" viewBox="0 0 675 663.25">
 <g>
  <rect height="663.25" opacity="0" width="675" x="0" y="0"/>
  <path d="M518.75 97L518.75 144.5L474.25 144.5L474.25 99.5C474.25 63.5 454.75 45 420.5 45L98.25 45C63.25 45 44.25 63.5 44.25 99.5L44.25 420.75C44.25 456.75 63.25 475.25 98.25 475.25L156.5 475.25L156.5 519.5L97.25 519.5C32.5 519.5 0 487 0 423L0 97C0 33.25 32.5 0.75 97.25 0.75L421.25 0.75C485.75 0.75 518.75 33.5 518.75 97Z" fill="black" fill-opacity="0.85"/>
  <path d="M253.75 663.25L577.75 663.25C642.25 663.25 675 630.5 675 566.75L675 241C675 177.25 642.25 144.5 577.75 144.5L253.75 144.5C189 144.5 156.5 177 156.5 241L156.5 566.75C156.5 630.75 189 663.25 253.75 663.25ZM254.75 619C219.75 619 200.75 600.5 200.75 564.5L200.75 243.25C200.75 207.25 219.75 188.75 254.75 188.75L577 188.75C611.25 188.75 630.75 207.25 630.75 243.25L630.75 564.5C630.75 600.5 611.25 619 577 619Z" fill="black" fill-opacity="0.85"/>
  <path d="M267.5 510.75L316.75 510.75L316.75 473.75L267.5 473.75C258 473.75 249.75 482 249.75 492.25C249.75 502.5 258 510.75 267.5 510.75ZM361.75 556.75C397.5 556.75 426.75 527.75 426.75 491.75C426.75 456.25 397.5 427 361.75 427C326 427 297 456.25 297 491.75C297 527.75 326 556.75 361.75 556.75ZM361.75 526.5C342.5 526.5 327.25 511.25 327.25 491.75C327.25 472.25 342.5 457.25 361.75 457.25C381.25 457.25 396.25 472.25 396.25 491.75C396.25 511.25 381.25 526.5 361.75 526.5ZM409 510.75L563.25 510.75C574 510.75 582.25 502.5 582.25 492.25C582.25 482 574 473.75 563.25 473.75L409 473.75Z" fill="black" fill-opacity="0.85"/>
  <path d="M268.5 338L422.75 338L422.75 301L268.5 301C258 301 249.75 309.25 249.75 319.5C249.75 329.75 258 338 268.5 338ZM470.25 384.25C505.75 384.25 535 355 535 319.25C535 283.5 505.75 254.5 470.25 254.5C434.5 254.5 405.5 283.5 405.5 319.25C405.5 355 434.5 384.25 470.25 384.25ZM470.25 353.75C450.75 353.75 435.75 338.5 435.75 319C435.75 299.5 450.75 284.5 470.25 284.5C489.5 284.5 504.5 299.5 504.5 319C504.5 338.5 489.5 353.75 470.25 353.75ZM515.25 338L564.25 338C574 338 582.25 329.75 582.25 319.5C582.25 309.25 574 301 564.25 301L515.25 301Z" fill="black" fill-opacity="0.85"/>
 </g>
</svg>
