<?xml version="1.0" encoding="UTF-8"?>
<!--Generator: Apple Native CoreSVG 326-->
<!DOCTYPE svg
PUBLIC "-//W3C//DTD SVG 1.1//EN"
       "http://www.w3.org/Graphics/SVG/1.1/DTD/svg11.dtd">
<svg version="1.1" xmlns="http://www.w3.org/2000/svg" xmlns:xlink="http://www.w3.org/1999/xlink" viewBox="0 0 587.75 587.75">
 <g>
  <rect height="587.75" opacity="0" width="587.75" x="0" y="0"/>
  <path d="M97.25 587.75L490.25 587.75C555 587.75 587.75 555 587.75 491.5L587.75 96.5C587.75 32.75 555 0 490.25 0L97.25 0C32.75 0 0 32.5 0 96.5L0 491.5C0 555.5 32.75 587.75 97.25 587.75ZM98.25 543.5C63.25 543.5 44.25 525 44.25 489L44.25 98.75C44.25 63 63.25 44.25 98.25 44.25L489.5 44.25C523.75 44.25 543.5 63 543.5 98.75L543.5 489C543.5 525 523.75 543.5 489.5 543.5Z" fill="black" fill-opacity="0.85"/>
  <path d="M133.25 222.25L304.75 222.25L304.75 185.25L133.25 185.25C122.75 185.25 114.5 193.5 114.5 203.75C114.5 214 122.75 222.25 133.25 222.25ZM352 268.25C387.75 268.25 416.75 239.25 416.75 203.25C416.75 167.75 387.75 138.5 352 138.5C316.5 138.5 287.25 167.75 287.25 203.25C287.25 239.25 316.5 268.25 352 268.25ZM352 238C332.5 238 317.75 222.75 317.75 203.25C317.75 183.75 332.5 168.75 352 168.75C371.25 168.75 386.5 183.75 386.5 203.25C386.5 222.75 371.25 238 352 238ZM397 222.25L455.25 222.25C465 222.25 473.25 214 473.25 203.75C473.25 193.5 465 185.25 455.25 185.25L397 185.25ZM454.25 360.25L283 360.25L283 397.25L454.25 397.25C465 397.25 473.25 389 473.25 379C473.25 368.5 465 360.25 454.25 360.25ZM235.5 314.25C200 314.25 170.75 343.25 170.75 379.25C170.75 414.75 200 444 235.5 444C271.25 444 300.25 414.75 300.25 379.25C300.25 343.25 271.25 314.25 235.5 314.25ZM235.5 344.5C255 344.5 270 359.75 270 379.25C270 398.75 255 413.75 235.5 413.75C216.25 413.75 201.25 398.75 201.25 379.25C201.25 359.75 216.25 344.5 235.5 344.5ZM190.5 360.25L132.25 360.25C122.75 360.25 114.5 368.5 114.5 379C114.5 389 122.75 397.25 132.25 397.25L190.5 397.25Z" fill="black" fill-opacity="0.85"/>
 </g>
</svg>
