<?xml version="1.0" encoding="UTF-8"?>
<!--Generator: Apple Native CoreSVG 326-->
<!DOCTYPE svg
PUBLIC "-//W3C//DTD SVG 1.1//EN"
       "http://www.w3.org/Graphics/SVG/1.1/DTD/svg11.dtd">
<svg version="1.1" xmlns="http://www.w3.org/2000/svg" xmlns:xlink="http://www.w3.org/1999/xlink" viewBox="0 0 791.75 595.25">
 <g>
  <rect height="595.25" opacity="0" width="791.75" x="0" y="0"/>
  <path d="M292.75 379C343.25 379 371.25 351.5 371.25 302L371.25 88.5C371.25 38.75 343.25 11.25 292.75 11.25L78.25 11.25C28 11.25 0 38.75 0 88.5L0 302C0 351.5 28 379 78.25 379ZM292.25 335.75L78.75 335.75C54.5 335.75 43.5 324.5 43.5 300L43.5 90.25C43.5 66 54.5 54.5 78.75 54.5L292.25 54.5C316.5 54.5 327.75 66 327.75 90.25L327.75 300C327.75 324.5 316.5 335.75 292.25 335.75Z" fill="black" fill-opacity="0.85"/>
  <path d="M715.25 375.75C764.25 375.75 791.75 349 791.75 299.75L791.75 90.5C791.75 41.25 764.25 14.5 715.25 14.5L504.25 14.5C455 14.5 427 41.5 427 90.5L427 299.75C427 348.75 455 375.75 504.25 375.75ZM21.25 498.75C9.75 498.75 0 508.5 0 521C0 533.25 9.75 543 21.25 543L129 543L129 498.75ZM184.25 595.25C225.25 595.25 258.75 561.75 258.75 521C258.75 480 225.25 446.5 184.25 446.5C143.25 446.5 110 480 110 521C110 561.75 143.25 595.25 184.25 595.25ZM184.25 559.75C162.25 559.75 145.25 542.5 145.25 520.75C145.25 498.75 162.25 481.75 184.25 481.75C206 481.75 223.25 498.75 223.25 520.75C223.25 542.5 206 559.75 184.25 559.75ZM235.75 498.75L235.75 543L769.5 543C782 543 791.75 533.25 791.75 521C791.75 508.5 782 498.75 769.5 498.75Z" fill="black" fill-opacity="0.85"/>
 </g>
</svg>
