<?xml version="1.0" encoding="UTF-8"?>
<!--Generator: Apple Native CoreSVG 326-->
<!DOCTYPE svg
PUBLIC "-//W3C//DTD SVG 1.1//EN"
       "http://www.w3.org/Graphics/SVG/1.1/DTD/svg11.dtd">
<svg version="1.1" xmlns="http://www.w3.org/2000/svg" xmlns:xlink="http://www.w3.org/1999/xlink" viewBox="0 0 643 544.75">
 <g>
  <rect height="544.75" opacity="0" width="643" x="0" y="0"/>
  <path d="M440.5 544.75C481.5 544.75 515 511.25 515 470.25C515 429.5 481.5 396 440.5 396C399.75 396 366.25 429.5 366.25 470.25C366.25 511.25 399.75 544.75 440.5 544.75ZM440.5 509.25C418.75 509.25 401.75 492 401.75 470.25C401.75 448.25 418.75 431.25 440.5 431.25C462.5 431.25 479.5 448.25 479.5 470.25C479.5 492 462.5 509.25 440.5 509.25ZM389 448L22.25 448C9.75 448 0 457.75 0 470.25C0 482.5 9.75 492.25 22.25 492.25L389 492.25ZM621.75 448L495.75 448L495.75 492.25L621.75 492.25C633.25 492.25 643 482.5 643 470.25C643 457.75 633.25 448 621.75 448ZM208.75 347.5C249.75 347.5 283.25 314.25 283.25 273.25C283.25 232.25 249.75 198.75 208.75 198.75C168 198.75 134.5 232.25 134.5 273.25C134.5 314.25 168 347.5 208.75 347.5ZM208.75 312.25C187 312.25 170 294.75 170 273C170 251 187 234 208.75 234C230.75 234 247.75 251 247.75 273C247.75 294.75 230.75 312.25 208.75 312.25ZM21.25 251C9.75 251 0 260.75 0 273C0 285.5 9.75 295.25 21.25 295.25L154.25 295.25L154.25 251ZM620.75 251L260.5 251L260.5 295.25L620.75 295.25C633.25 295.25 643 285.5 643 273C643 260.75 633.25 251 620.75 251ZM440.5 150C481.5 150 515 116.5 515 75.5C515 34.75 481.5 1.25 440.5 1.25C399.75 1.25 366.25 34.75 366.25 75.5C366.25 116.5 399.75 150 440.5 150ZM440.5 114.5C418.75 114.5 401.75 97.25 401.75 75.5C401.75 53.5 418.75 36.5 440.5 36.5C462.5 36.5 479.5 53.5 479.5 75.5C479.5 97.25 462.5 114.5 440.5 114.5ZM389.75 53.75L22.25 53.75C9.75 53.75 0 63.5 0 76C0 88.25 9.75 98 22.25 98L389.75 98ZM621.75 53.75L493 53.75L493 98L621.75 98C633.25 98 643 88.25 643 76C643 63.5 633.25 53.75 621.75 53.75Z" fill="black" fill-opacity="0.85"/>
 </g>
</svg>
