<?xml version="1.0" encoding="UTF-8"?>
<!--Generator: Apple Native CoreSVG 326-->
<!DOCTYPE svg
PUBLIC "-//W3C//DTD SVG 1.1//EN"
       "http://www.w3.org/Graphics/SVG/1.1/DTD/svg11.dtd">
<svg version="1.1" xmlns="http://www.w3.org/2000/svg" xmlns:xlink="http://www.w3.org/1999/xlink" viewBox="0 0 1096.5 588.25">
 <g>
  <rect height="588.25" opacity="0" width="1096.5" x="0" y="0"/>
  <path d="M302.5 588.25L794.25 588.25C859 588.25 891.5 555.75 891.5 492L891.5 97C891.5 33.25 859 0.75 794.25 0.75L302.5 0.75C238 0.75 205 33 205 97L205 492C205 556 238 588.25 302.5 588.25ZM266.5 399.25L266.5 189.75C266.5 180.5 274.25 172.75 283.5 172.75C293 172.75 300.75 180.5 300.75 189.75L300.75 399.25C300.75 408.5 293 416.25 283.5 416.25C274.25 416.25 266.5 408.5 266.5 399.25ZM361.75 544L361.75 45L734.75 45L734.75 544ZM796.25 399.25L796.25 189.75C796.25 180.5 804 172.75 813.25 172.75C822.75 172.75 830.5 180.5 830.5 189.75L830.5 399.25C830.5 408.5 822.75 416.25 813.25 416.25C804 416.25 796.25 408.5 796.25 399.25Z" fill="black" fill-opacity="0.85"/>
  <path d="M0 366.25C0 382.25 13.25 388.75 26.75 380.25L141.5 310.5C155 302.25 154.5 286.25 141.5 278.5L26.5 208C13 199.5 0 206.5 0 222.25ZM1096.5 366.25L1096.5 222.25C1096.5 206.5 1083.5 199.5 1070 208L955 278.5C942 286.25 941.5 302.25 955 310.5L1069.75 380.25C1083.25 388.75 1096.5 382.25 1096.5 366.25Z" fill="black" fill-opacity="0.85"/>
 </g>
</svg>
