<?xml version="1.0" encoding="UTF-8"?>
<!--Generator: Apple Native CoreSVG 326-->
<!DOCTYPE svg
PUBLIC "-//W3C//DTD SVG 1.1//EN"
       "http://www.w3.org/Graphics/SVG/1.1/DTD/svg11.dtd">
<svg version="1.1" xmlns="http://www.w3.org/2000/svg" xmlns:xlink="http://www.w3.org/1999/xlink" viewBox="0 0 769.25 559.062">
 <g>
  <rect height="559.062" opacity="0" width="769.25" x="0" y="0"/>
  <path d="M201 491.406L556.75 553.406C615.25 563.406 653.75 531.906 653.75 474.156L653.75 81.1562C653.75 23.4062 615.25-8.34375 556.75 1.90625L201 63.9062C145.75 73.4062 115.5 105.406 115.5 153.656L115.5 401.656C115.5 449.656 145.75 481.906 201 491.406ZM22 298.656C8.25 298.656 0 290.406 0 277.906C0 264.656 8.25 256.656 22 256.656L747.25 256.656C761 256.656 769.25 264.656 769.25 277.906C769.25 290.406 761 298.656 747.25 298.656Z" fill="black" fill-opacity="0.85"/>
 </g>
</svg>
