<?xml version="1.0" encoding="UTF-8"?>
<!--Generator: Apple Native CoreSVG 326-->
<!DOCTYPE svg
PUBLIC "-//W3C//DTD SVG 1.1//EN"
       "http://www.w3.org/Graphics/SVG/1.1/DTD/svg11.dtd">
<svg version="1.1" xmlns="http://www.w3.org/2000/svg" xmlns:xlink="http://www.w3.org/1999/xlink" viewBox="0 0 655.75 679.75">
 <g>
  <rect height="679.75" opacity="0" width="655.75" x="0" y="0"/>
  <path d="M447.5 238.5C451.75 238.5 455 235.5 456 231.25C470.25 154.75 481.5 139.25 559 127.75C563.5 127 566.25 123.75 566.25 119.5C566.25 114.75 563.5 111.5 559 110.75C481.5 99.25 467.75 82.5 456 8C455 3 451.75 0 447.5 0C442.75 0 439.5 3 438.75 7.75C424.25 83.5 412.75 99.25 335.75 110.75C330.75 111.5 328 114.75 328 119.5C328 123.75 330.75 126.75 335.75 127.75C412.75 139.25 426.5 154.5 438.75 231C439.25 235.5 442.25 238.5 447.5 238.5ZM88 497C92.5 497 95 494.25 95.75 490C104.5 431.75 104.5 426 169 416.75C173.5 416 176.25 413.25 176.25 409C176.25 404.75 173.5 402 169 401.25C104.5 391.75 104.5 386.25 95.75 328C95 323.75 92.5 320.75 88 320.75C83.75 320.75 81 323.75 80.25 328C71.5 386.25 71.5 391.75 7 401.25C2.75 402 0 404.75 0 409C0 413.25 2.75 416 7 416.75C71.5 426 71.5 431.75 80.25 490C81 494.25 83.75 497 88 497ZM196 591C199.25 591 201.75 588.5 202.25 585.25C208 550 207 546.75 248.75 539C252.25 538.25 254.25 535.75 254.25 532.5C254.25 529.25 252.25 527 248.75 526.25C207.25 518.5 208.5 515.5 202.25 479.75C201.75 476.5 199 474.25 196 474.25C192.75 474.25 190.5 476.5 189.75 480.25C182.75 515.5 184.75 519.25 143.5 526.25C140 527 137.75 529 137.75 532.5C137.75 535.75 140 538.25 143.25 539C184.75 546.75 182.75 550 189.75 585.25C190.5 588.5 192.75 591 196 591Z" fill="black" fill-opacity="0.85"/>
  <path d="M610.5 618.75C623 606 623.25 586.5 610.5 573.5L194.75 158C182 145 161 145.25 149 158C136.5 171 136.5 190.5 149.25 203.5L564.75 618.75C577.75 632.25 598.5 631.75 610.5 618.75ZM594 602.25C590 606.25 583.5 606.5 579.5 602.25L277.5 300.5L292.25 285.75L594 587.75C598.25 592 598.25 598.25 594 602.25Z" fill="black" fill-opacity="0.85"/>
 </g>
</svg>
