<?xml version="1.0" encoding="UTF-8"?>
<!--Generator: Apple Native CoreSVG 326-->
<!DOCTYPE svg
PUBLIC "-//W3C//DTD SVG 1.1//EN"
       "http://www.w3.org/Graphics/SVG/1.1/DTD/svg11.dtd">
<svg version="1.1" xmlns="http://www.w3.org/2000/svg" xmlns:xlink="http://www.w3.org/1999/xlink" viewBox="0 0 471.5 622.276">
 <g>
  <rect height="622.276" opacity="0" width="471.5" x="0" y="0"/>
  <path d="M324.75 563.513C324.75 581.513 313 591.263 294.25 591.263L268.75 591.263C250 591.263 238 581.513 238 563.513L238 367.342C274.802 364.524 302.004 358.321 324.75 349.785Z" fill="black" fill-opacity="0.85"/>
  <path d="M440.5 156.763C440.5 226.763 398.5 276.763 344.25 306.763C321.39 319.484 296.354 329.077 256.763 333.924C263.009 319.119 266.5 302.023 266.5 282.763C266.5 218.666 214.175 154.568 141.988 143.269C147.982 131.442 154.322 121.628 158.75 116.013C197.75 58.013 259.5 30.263 315 31.013C385.25 31.763 440.5 78.263 440.5 156.763ZM355.75 102.513L310 141.013C303.75 146.263 302.75 155.263 308 161.263C313 167.763 322.25 168.263 328.25 163.263L374.5 124.763C380.75 119.513 381 110.513 375.75 104.513C371 98.013 362 97.263 355.75 102.513Z" fill="black" fill-opacity="0.85"/>
  <path d="M145.25 373.513C195 373.513 236.75 342.513 236.75 282.763C236.75 227.763 185.75 171.263 119 171.263C63.75 171.263 30.75 214.263 30.75 260.763C30.75 327.763 87.75 373.513 145.25 373.513ZM130 327.263C121 335.013 105.75 327.013 87.25 304.513C69.25 282.513 64.25 266.763 73 259.013C82.25 251.263 97 259.013 115.75 281.513C133.75 304.263 138.75 319.763 130 327.263Z" fill="black" fill-opacity="0.425"/>
 </g>
</svg>
