<?xml version="1.0" encoding="UTF-8"?>
<!--Generator: Apple Native CoreSVG 326-->
<!DOCTYPE svg
PUBLIC "-//W3C//DTD SVG 1.1//EN"
       "http://www.w3.org/Graphics/SVG/1.1/DTD/svg11.dtd">
<svg version="1.1" xmlns="http://www.w3.org/2000/svg" xmlns:xlink="http://www.w3.org/1999/xlink" viewBox="0 0 784 373.75">
 <g>
  <rect height="373.75" opacity="0" width="784" x="0" y="0"/>
  <path d="M632.25 266C653.75 265.5 671.75 247.75 671.75 226.25C671.75 204.25 653.75 186 632.25 186C610.75 186 592.25 204.25 592.25 226.25C592.25 247.75 610.75 266.5 632.25 266ZM97.25 370.75L686.75 370.75C751.25 370.75 784 338 784 274.5L784 96.25C784 32.75 751.25 0 686.75 0L97.25 0C32.5 0 0 32.5 0 96.25L0 274.5C0 338.5 32.5 370.75 97.25 370.75ZM98.25 326.5C63.25 326.5 44.25 308 44.25 272L44.25 98.75C44.25 62.75 63.25 44.25 98.25 44.25L685.75 44.25C720 44.25 739.75 62.75 739.75 98.75L739.75 272C739.75 308 720 326.5 685.75 326.5ZM758.25 135.75L758.25 99L26 99L26 135.75Z" fill="black" fill-opacity="0.85"/>
 </g>
</svg>
