<?xml version="1.0" encoding="UTF-8"?>
<!--Generator: Apple Native CoreSVG 326-->
<!DOCTYPE svg
PUBLIC "-//W3C//DTD SVG 1.1//EN"
       "http://www.w3.org/Graphics/SVG/1.1/DTD/svg11.dtd">
<svg version="1.1" xmlns="http://www.w3.org/2000/svg" xmlns:xlink="http://www.w3.org/1999/xlink" viewBox="0 0 516 667.75">
 <g>
  <rect height="667.75" opacity="0" width="516" x="0" y="0"/>
  <path d="M97.25 667.75L418.75 667.75C483 667.75 516 635.5 516 571.5L516 97.5C516 33.5 483 1.25 418.75 1.25L97.25 1.25C32.75 1.25 0 33.5 0 97.5L0 571.5C0 635.5 32.75 667.75 97.25 667.75ZM98.25 623.5C63.25 623.5 44.25 605 44.25 569.25L44.25 99.75C44.25 64 63.25 45.5 98.25 45.5L417.75 45.5C452.75 45.5 471.75 64 471.75 99.75L471.75 569.25C471.75 605 452.75 623.5 417.75 623.5ZM5 229L116.75 229C164.5 229 188.5 205.25 188.5 158.25L188.5 12.5L154.25 12.5L154.25 156C154.25 181 140.5 194.75 116 194.75L5 194.75Z" fill="black" fill-opacity="0.85"/>
 </g>
</svg>
