<?xml version="1.0" encoding="UTF-8"?>
<!--Generator: Apple Native CoreSVG 326-->
<!DOCTYPE svg
PUBLIC "-//W3C//DTD SVG 1.1//EN"
       "http://www.w3.org/Graphics/SVG/1.1/DTD/svg11.dtd">
<svg version="1.1" xmlns="http://www.w3.org/2000/svg" xmlns:xlink="http://www.w3.org/1999/xlink" viewBox="0 0 722 558.25">
 <g>
  <rect height="558.25" opacity="0" width="722" x="0" y="0"/>
  <path d="M191.5 558L530.75 558C659 558 722 495.5 722 368L722 189.75C722 62.5 659 0 530.75 0L191.5 0C63 0 0 62.5 0 189.75L0 368C0 495.5 63 558 191.5 558ZM191.5 513.5C91 513.5 44.25 467.5 44.25 368L44.25 189.75C44.25 90.5 91 44.25 191.5 44.25L530.75 44.25C631.25 44.25 677.75 90.5 677.75 189.75L677.75 368C677.75 467.5 631.25 513.5 530.75 513.5ZM22.5 212L699.75 212L699.75 182.75L22.5 182.75ZM233.5 233.75L488.5 233.75C509.75 233.75 525.25 218.75 525.25 197.5C525.25 176 509.75 161 488.5 161L233.5 161C213 161 196.75 176 196.75 197.5C196.75 218.75 213 233.75 233.5 233.75ZM361 342C377.5 341.5 390.75 328.25 390.75 312.5C390.75 296.25 377.5 282.75 361 282.75C344.75 282.75 331.25 296.25 331.25 312.5C331.25 328.5 344.75 342.25 361 342Z" fill="black" fill-opacity="0.85"/>
 </g>
</svg>
