<?xml version="1.0" encoding="UTF-8"?>
<!--Generator: Apple Native CoreSVG 326-->
<!DOCTYPE svg
PUBLIC "-//W3C//DTD SVG 1.1//EN"
       "http://www.w3.org/Graphics/SVG/1.1/DTD/svg11.dtd">
<svg version="1.1" xmlns="http://www.w3.org/2000/svg" xmlns:xlink="http://www.w3.org/1999/xlink" viewBox="0 0 661.914 710.25">
 <g>
  <rect height="710.25" opacity="0" width="661.914" x="0" y="0"/>
  <path d="M21.2071 409L47.7071 409L47.7071 343L21.2071 343ZM171.707 710.25C209.207 710.25 227.207 675.5 206.457 638.75L83.7071 421C74.2071 404 59.4571 396.25 41.4571 396.25C10.7071 396.25-4.04289 421 0.957113 450.75C12.2071 495.75 43.4571 563.5 76.2071 615C118.457 685.5 143.957 710.25 171.707 710.25ZM640.707 409L640.707 343L614.207 343L614.207 409ZM490.207 710.25C517.957 710.25 543.457 685.5 585.707 615C618.457 563.5 649.707 495.75 660.957 450.75C665.957 421 651.207 396.25 620.457 396.25C602.457 396.25 587.707 404 578.207 421L455.457 638.75C434.707 675.5 452.707 710.25 490.207 710.25ZM10.7071 339.5C10.7071 353.25 19.7071 362.25 33.7071 362.25C47.4571 362.25 56.2071 353.25 56.2071 339.5C57.4571 165.25 162.707 53.5 330.957 53.5C499.207 53.5 604.457 165.25 605.707 339.5C605.707 353.25 614.457 362.25 628.207 362.25C642.207 362.25 651.207 353.25 651.207 339.5C651.207 142.25 528.957 7.75 330.957 7.75C133.207 7.75 10.7071 142.25 10.7071 339.5Z" fill="black" fill-opacity="0.85"/>
  <path d="M261.207 647C281.957 635.25 287.457 609.5 274.457 586.5L167.957 398.25C154.707 375 130.207 367 109.457 378.75C97.2071 385.75 94.4571 396.75 100.957 408.25L231.457 639.25C237.957 651 249.207 654 261.207 647ZM400.707 647C412.707 654 423.957 651 430.457 639.25L560.957 408.25C567.457 396.75 564.707 385.75 552.457 378.75C531.707 367 507.207 375 493.957 398.25L387.457 586.5C374.457 609.5 379.957 635.25 400.707 647ZM142.957 162.75C194.957 134.25 257.707 119.25 330.957 119.25C404.207 119.25 466.957 134.25 518.957 162.75C477.207 111.25 416.207 83.25 330.957 83.25C245.707 83.25 184.707 111.25 142.957 162.75Z" fill="black" fill-opacity="0.425"/>
 </g>
</svg>
