<?xml version="1.0" encoding="UTF-8"?>
<!--Generator: Apple Native CoreSVG 326-->
<!DOCTYPE svg
PUBLIC "-//W3C//DTD SVG 1.1//EN"
       "http://www.w3.org/Graphics/SVG/1.1/DTD/svg11.dtd">
<svg version="1.1" xmlns="http://www.w3.org/2000/svg" xmlns:xlink="http://www.w3.org/1999/xlink" viewBox="0 0 516.25 632.75">
 <g>
  <rect height="632.75" opacity="0" width="516.25" x="0" y="0"/>
  <path d="M158.5 632.25L357.75 632.25C464.5 632.25 516.25 580.5 516.25 473.75L516.25 158.5C516.25 51.75 464.5 0 357.75 0L158.5 0C51.75 0 0 51.75 0 158.5L0 473.75C0 580.5 51.75 632.25 158.5 632.25ZM158.5 588C79.25 588 44.25 553 44.25 473.75L44.25 158.5C44.25 79.25 79.25 44.25 158.5 44.25L357.75 44.25C437 44.25 472 79.25 472 158.5L472 473.75C472 553 437 588 357.75 588ZM22.5 208.75L493.75 208.75L493.75 179.75L22.5 179.75ZM169.25 230.75L346.75 230.75C368 230.75 383.5 215.75 383.5 194.25C383.5 172.75 368 158 346.75 158L169.25 158C149.25 158 132.75 172.75 132.75 194.25C132.75 215.75 149.25 230.75 169.25 230.75Z" fill="black" fill-opacity="0.85"/>
 </g>
</svg>
