<?xml version="1.0" encoding="UTF-8"?>
<!--Generator: Apple Native CoreSVG 326-->
<!DOCTYPE svg
PUBLIC "-//W3C//DTD SVG 1.1//EN"
       "http://www.w3.org/Graphics/SVG/1.1/DTD/svg11.dtd">
<svg version="1.1" xmlns="http://www.w3.org/2000/svg" xmlns:xlink="http://www.w3.org/1999/xlink" viewBox="0 0 516.25 632.75">
 <g>
  <rect height="632.75" opacity="0" width="516.25" x="0" y="0"/>
  <path d="M158.5 632.25L357.75 632.25C464.5 632.25 516.25 580.5 516.25 473.75L516.25 208.75L381.25 208.75C376.25 221.75 363.25 230.75 346.75 230.75L169.25 230.75C153.75 230.75 140.25 221.75 135.25 208.75L0 208.75L0 473.75C0 580.5 51.75 632.25 158.5 632.25ZM0 179.75L135.25 179.75C140.25 166.75 153.75 158 169.25 158L346.75 158C363.25 158 376.25 166.75 381.25 179.75L516.25 179.75L516.25 158.5C516.25 51.75 464.5 0 357.75 0L158.5 0C51.75 0 0 51.75 0 158.5Z" fill="black" fill-opacity="0.85"/>
 </g>
</svg>
