<?xml version="1.0" encoding="UTF-8"?>
<!--Generator: Apple Native CoreSVG 326-->
<!DOCTYPE svg
PUBLIC "-//W3C//DTD SVG 1.1//EN"
       "http://www.w3.org/Graphics/SVG/1.1/DTD/svg11.dtd">
<svg version="1.1" xmlns="http://www.w3.org/2000/svg" xmlns:xlink="http://www.w3.org/1999/xlink" viewBox="0 0 273.513 616.25">
 <g>
  <rect height="616.25" opacity="0" width="273.513" x="0" y="0"/>
  <path d="M138.007 254.25C211.757 254.75 274.257 197 273.507 126.75C272.757 57.25 211.757 0 138.007 0C73.5067 0 31.0067 38.75 9.25668 71C2.75668 81 0.00668084 91.75 0.00668084 103.5L0.00668084 150.5C0.00668084 162.75 3.00668 173.25 9.25668 183C30.5067 215.5 73.5067 253.25 138.007 254.25ZM56.2567 176C48.2567 176 42.0067 169.75 42.0067 161.5L42.0067 92.25C42.0067 84.25 48.2567 78.25 56.2567 78.25C64.5067 78.25 70.7567 84.25 70.7567 92.25L70.7567 161.5C70.7567 169.75 64.5067 176 56.2567 176ZM155.757 513.25L242.007 513.25L242.007 249.25C218.007 267.75 188.007 280 155.757 283ZM185.257 615.25L212.507 615.25C231.007 615.25 242.007 606 242.007 588.75L242.007 544L155.757 544L155.757 588.75C155.757 606 167.257 615.25 185.257 615.25Z" fill="black" fill-opacity="0.85"/>
 </g>
</svg>
