<?xml version="1.0" encoding="UTF-8"?>
<!--Generator: Apple Native CoreSVG 326-->
<!DOCTYPE svg
PUBLIC "-//W3C//DTD SVG 1.1//EN"
       "http://www.w3.org/Graphics/SVG/1.1/DTD/svg11.dtd">
<svg version="1.1" xmlns="http://www.w3.org/2000/svg" xmlns:xlink="http://www.w3.org/1999/xlink" viewBox="0 0 1303.25 558.25">
 <g>
  <rect height="558.25" opacity="0" width="1303.25" x="0" y="0"/>
  <path d="M118.75 495.75C127.25 485.75 124.5 472.75 114.75 461.75C70.25 413.25 44.75 349.5 44.75 279C44.75 208.25 70.25 144.5 114.75 96C124.5 85 127.25 72 118.75 62.25C109.75 52 94.5 52 84 63.5C30.5 120.5 0 196.25 0 279C0 361.5 30.5 437.5 84 494.25C94.5 505.75 109.75 506 118.75 495.75ZM1184.5 495.75C1193.5 506 1208.75 505.75 1219.25 494.25C1272.5 437.5 1303.25 361.5 1303.25 279C1303.25 196.25 1272.5 120.5 1219.25 63.5C1208.75 52 1193.5 52 1184.5 62.25C1175.75 72 1178.5 85 1188.5 96C1233 144.5 1258.5 208.25 1258.5 279C1258.5 349.5 1233 413.25 1188.5 461.75C1178.5 472.75 1175.75 485.75 1184.5 495.75Z" fill="black" fill-opacity="0.85"/>
  <path d="M208 404.75C216.75 394.75 213 382.25 204.25 370.75C183 346.5 172.75 314 172.75 279C172.75 244 183 211.25 204.25 187C213 175.5 216.75 163 208 153.25C198.75 143 182.5 142.75 172.75 155C144.25 188.75 128 232.25 128 279C128 325.75 144.25 369 172.75 402.75C182.5 415 198.75 415 208 404.75ZM1095.25 404.75C1104.25 415 1120.75 415 1130.5 402.75C1159 369 1175.25 325.75 1175.25 279C1175.25 232.25 1159 188.75 1130.5 155C1120.75 142.75 1104.25 143 1095.25 153.25C1086.5 163 1090.25 175.5 1099 187C1120 211.25 1130.5 244 1130.5 279C1130.5 314 1120 346.5 1099 370.75C1090.25 382.25 1086.5 394.75 1095.25 404.75Z" fill="black" fill-opacity="0.85"/>
  <path d="M482 558L821.25 558C949.5 558 1012.75 495.5 1012.75 368L1012.75 210.75L813.5 210.75C808.5 224.75 795.5 233.75 779.25 233.75L524 233.75C508 233.75 494.75 224.75 490 210.75L290.5 210.75L290.5 368C290.5 495.5 353.5 558 482 558ZM651.5 352C636 352.5 623 339 623 324C623 308.25 636 295.5 651.5 295.5C667.25 295.5 680 308.25 680 324C680 338.75 667.25 351.5 651.5 352ZM290.5 184.25L489.5 184.25C494.25 170 507.5 161 523.5 161L779 161C795 161 808.25 170 813 184.25L1012 184.25L1012 174.5C1012 57.75 944 0 820.5 0L482 0C358.5 0 290.5 57.75 290.5 174.5Z" fill="black" fill-opacity="0.85"/>
 </g>
</svg>
