<?xml version="1.0" encoding="UTF-8"?>
<!--Generator: Apple Native CoreSVG 326-->
<!DOCTYPE svg
PUBLIC "-//W3C//DTD SVG 1.1//EN"
       "http://www.w3.org/Graphics/SVG/1.1/DTD/svg11.dtd">
<svg version="1.1" xmlns="http://www.w3.org/2000/svg" xmlns:xlink="http://www.w3.org/1999/xlink" viewBox="0 0 273.513 616.25">
 <g>
  <rect height="616.25" opacity="0" width="273.513" x="0" y="0"/>
  <path d="M135.257 254.25C200.007 253.25 243.007 215.5 264.007 183C270.507 173.25 273.507 162.75 273.507 150.5L273.507 103.5C273.507 91.75 270.757 81 264.007 71C242.507 38.75 200.007 0 135.257 0C61.7567 0 0.756681 57.25 0.00668089 126.75C-0.743319 197 61.7567 254.75 135.257 254.25ZM217.007 176C209.007 176 202.757 169.75 202.757 161.5L202.757 92.25C202.757 84.25 209.007 78.25 217.007 78.25C225.257 78.25 231.257 84.25 231.257 92.25L231.257 161.5C231.257 169.75 225.257 176 217.007 176ZM117.507 513.25L117.507 283C85.5067 280 55.5067 267.75 31.2567 249.25L31.2567 513.25ZM88.0067 615.25C106.007 615.25 117.507 606 117.507 588.75L117.507 544L31.2567 544L31.2567 588.75C31.2567 606 42.5067 615.25 61.0067 615.25Z" fill="black" fill-opacity="0.85"/>
 </g>
</svg>
