<?xml version="1.0" encoding="UTF-8"?>
<!--Generator: Apple Native CoreSVG 326-->
<!DOCTYPE svg
PUBLIC "-//W3C//DTD SVG 1.1//EN"
       "http://www.w3.org/Graphics/SVG/1.1/DTD/svg11.dtd">
<svg version="1.1" xmlns="http://www.w3.org/2000/svg" xmlns:xlink="http://www.w3.org/1999/xlink" viewBox="0 0 840.5 554.75">
 <g>
  <rect height="554.75" opacity="0" width="840.5" x="0" y="0"/>
  <path d="M721.75 494C730.5 504.25 746 504 756.5 492.5C809.75 435.75 840.5 359.75 840.5 277.25C840.5 194.5 809.75 118.75 756.5 61.75C746 50.25 730.5 50.25 721.75 60.5C713 70.25 715.75 83.25 725.75 94.25C770.25 142.75 795.5 206.5 795.5 277.25C795.5 347.75 770.25 411.5 725.75 460C715.75 471 713 484 721.75 494Z" fill="black" fill-opacity="0.85"/>
  <path d="M632.5 403C641.5 413.25 658 413.25 667.75 401C696 367.25 712.5 324 712.5 277.25C712.5 230.5 696 187 667.75 153.25C658 141 641.5 141.25 632.5 151.5C623.75 161.25 627.25 173.75 636.25 185.25C657.25 209.5 667.75 242.25 667.75 277.25C667.75 312.25 657.25 344.75 636.25 369C627.25 380.5 623.75 393 632.5 403Z" fill="black" fill-opacity="0.85"/>
  <path d="M277.25 554.25C430.25 554.25 554.5 430.25 554.5 277.25C554.5 124 430.25 0 277.25 0C124 0 0 124 0 277.25C0 430.25 124 554.25 277.25 554.25ZM277.25 510C148.5 510 44.25 405.75 44.25 277.25C44.25 148.5 148.5 44.25 277.25 44.25C405.75 44.25 510 148.5 510 277.25C510 405.75 405.75 510 277.25 510ZM276.75 371C296.25 371 300.25 380.75 316.75 380.75C333.5 380.75 344.75 365.5 355.25 350.5C367.25 333.5 372 316.5 372 316C371 315.5 339.25 302.75 339.25 266.25C339.25 234.75 364 220.75 365.5 219.5C349.25 195.5 324 195.25 316.75 195.25C298.5 195.25 283.5 206.5 273.75 206.5C263.5 206.5 250.25 195.5 234 195.5C203.25 195.5 172.5 221 172.5 268.75C172.5 298.5 184 329.75 198 350C210.25 367.25 220.75 381.25 236.25 381.25C251.25 381.25 258 371 276.75 371ZM308.25 174.75C315.75 165.75 321.25 153.5 321.25 140.5C321.25 138.75 321.25 137.25 321 135.75C308.25 136 293.75 144 285 154.5C278 162.75 271.25 174.75 271.25 187.75C271.25 189.5 271.75 191.5 271.75 192.25C272.75 192.25 273.75 192.5 275 192.5C286.25 192.5 300.25 185 308.25 174.75Z" fill="black" fill-opacity="0.85"/>
 </g>
</svg>
