<?xml version="1.0" encoding="UTF-8"?>
<!--Generator: Apple Native CoreSVG 326-->
<!DOCTYPE svg
PUBLIC "-//W3C//DTD SVG 1.1//EN"
       "http://www.w3.org/Graphics/SVG/1.1/DTD/svg11.dtd">
<svg version="1.1" xmlns="http://www.w3.org/2000/svg" xmlns:xlink="http://www.w3.org/1999/xlink" viewBox="0 0 651.25 651.75">
 <g>
  <rect height="651.75" opacity="0" width="651.25" x="0" y="0"/>
  <path d="M325.5 651.25C505.25 651.25 651.25 505.5 651.25 325.75C651.25 146 505.25 0 325.5 0C145.75 0 0 146 0 325.75C0 505.5 145.75 651.25 325.5 651.25ZM326.25 599.25C175 599.25 52.75 477 52.75 325.75C52.75 174.5 175 52 326.25 52C477.5 52 600 174.5 600 325.75C600 477 477.5 599.25 326.25 599.25ZM325.5 569.5C460 569.5 569.25 460.25 569.25 325.75C569.25 191.25 460 82 325.5 82C191 82 81.75 191.25 81.75 325.75C81.75 460.25 191 569.5 325.5 569.5ZM328.5 417C309.75 417 303.25 427.25 288.5 427.25C273 427.25 262.5 413.5 250.25 396.25C236.75 376.5 225.25 345.5 225.25 316C225.25 269 255.75 243.75 286.25 243.75C302 243.75 315.25 254.5 325.25 254.5C335 254.5 350 243.5 368 243.5C375.25 243.5 400 243.75 416.25 267C415 268.5 390.25 282.25 390.25 313.5C390.25 349.5 421.75 362.5 422.75 362.75C422.75 363.5 417.75 380.25 406.25 397C395.75 411.75 384.5 426.75 368 426.75C351.5 426.75 347.75 417 328.5 417ZM359.75 223C351.5 233.25 338 240.5 326.75 240.5C325.25 240.5 324.5 240.25 323.5 240.25C323.5 239.5 323 237.5 323 236C323 223 329.75 211 336.5 203C345.25 192.5 359.75 184.75 372.25 184.5C372.5 185.75 372.5 187.5 372.5 189.25C372.5 202 367 214 359.75 223Z" fill="black" fill-opacity="0.85"/>
 </g>
</svg>
