<?xml version="1.0" encoding="UTF-8"?>
<!--Generator: Apple Native CoreSVG 326-->
<!DOCTYPE svg
PUBLIC "-//W3C//DTD SVG 1.1//EN"
       "http://www.w3.org/Graphics/SVG/1.1/DTD/svg11.dtd">
<svg version="1.1" xmlns="http://www.w3.org/2000/svg" xmlns:xlink="http://www.w3.org/1999/xlink" viewBox="0 0 316.75 711.75">
 <g>
  <rect height="711.75" opacity="0" width="316.75" x="0" y="0"/>
  <path d="M0 642.25C0 684.25 27 710.25 71.25 710.25L245.5 710.25C289.75 710.25 316.75 684.25 316.75 642.25L316.75 68.25C316.75 26 289.75 0 245.5 0L71.25 0C27 0 0 26 0 68.25ZM158.5 436.5C135.25 436.5 117 418 117 395.5C117 372.25 135.25 354 158.5 354C181 354 199.5 372.25 199.5 395.5C199.5 418 181 436.5 158.5 436.5ZM158.5 310C98.75 310 50 261.25 50 201.25C50 141.5 98.75 92.75 158.5 92.75C218.25 92.75 267 141.5 267 201.25C267 261.25 218.25 310 158.5 310ZM158.5 245.25C183 245.25 202.5 225.75 202.5 201.25C202.5 177 183 157.25 158.5 157.25C134.25 157.25 114.75 177 114.75 201.25C114.75 225.75 134.25 245.25 158.5 245.25Z" fill="black" fill-opacity="0.85"/>
 </g>
</svg>
