<?xml version="1.0" encoding="UTF-8"?>
<!--Generator: Apple Native CoreSVG 326-->
<!DOCTYPE svg
PUBLIC "-//W3C//DTD SVG 1.1//EN"
       "http://www.w3.org/Graphics/SVG/1.1/DTD/svg11.dtd">
<svg version="1.1" xmlns="http://www.w3.org/2000/svg" xmlns:xlink="http://www.w3.org/1999/xlink" viewBox="0 0 745.25 686.25">
 <g>
  <rect height="686.25" opacity="0" width="745.25" x="0" y="0"/>
  <path d="M637.25 184L637.25 503.75C637.25 566.25 601 603.25 539.75 603.25L520.607 603.25C532.398 579.548 538.75 551.479 538.75 520L538.75 387.75C561 376 575 352.25 575 323.5L575 271C575 241.25 560.5 217.25 537.5 205.75C537.697 154.773 497.605 104.106 432.36 85L539.75 85C601 85 637.25 121.75 637.25 184Z" fill="black" fill-opacity="0.2125"/>
  <path d="M680.241 184.5L688.75 184.5C708.25 184.5 720.75 198 720.75 219.5L720.75 275C720.75 296.25 708.25 310 688.75 310L680.25 310L680.25 502C680.25 592 626.75 646.25 538 646.25L487.954 646.25C501.399 634.387 512.344 619.896 520.607 603.25L539.75 603.25C601 603.25 637.25 566.25 637.25 503.75L637.25 184C637.25 121.75 601 85 539.75 85L432.36 85C414.877 79.6571 395.452 76.75 374.5 76.75L195.605 76.75C219.824 53.3712 254.494 40.75 297.5 40.75L538 40.75C626.666 40.75 680.149 94.3982 680.241 184.5Z" fill="black" fill-opacity="0.85"/>
  <path d="M82.5 521.5L82.5 242.25C82.5 190.25 112 160.25 162.75 160.25L376 160.25C426.75 160.25 456.25 190.25 456.25 242.25L456.25 521.5C456.25 573.5 426.75 603.5 376 603.5L162.75 603.5C112 603.5 82.5 573.5 82.5 521.5Z" fill="black" fill-opacity="0.2125"/>
  <path d="M164.25 646.25L374.5 646.25C451.75 646.25 499 598.5 499 520L499 356.5L504.5 356.5C523.25 356.5 535 343.5 535 323.5L535 271C535 250.25 523.25 237.5 504.5 237.5L499 237.5C496.75 162 450 116.75 374.5 116.75L164.25 116.75C86.75 116.75 39.75 164 39.75 242.5L39.75 520C39.75 598.5 86.75 646.25 164.25 646.25ZM82.5 521.5L82.5 242.25C82.5 190.25 112 160.25 162.75 160.25L376 160.25C426.75 160.25 456.25 190.25 456.25 242.25L456.25 521.5C456.25 573.5 426.75 603.5 376 603.5L162.75 603.5C112 603.5 82.5 573.5 82.5 521.5Z" fill="black" fill-opacity="0.85"/>
 </g>
</svg>
