<?xml version="1.0" encoding="UTF-8"?>
<!--Generator: Apple Native CoreSVG 326-->
<!DOCTYPE svg
PUBLIC "-//W3C//DTD SVG 1.1//EN"
       "http://www.w3.org/Graphics/SVG/1.1/DTD/svg11.dtd">
<svg version="1.1" xmlns="http://www.w3.org/2000/svg" xmlns:xlink="http://www.w3.org/1999/xlink" viewBox="0 0 792.899 593.813">
 <g>
  <rect height="593.813" opacity="0" width="792.899" x="0" y="0"/>
  <path d="M4.69963 411.031C-14.5504 458.531 29.1996 480.281 65.9496 453.781C103.7 425.531 141.7 397.281 179.45 367.531L169.45 361.031C134.2 410.281 119.7 451.031 119.7 482.781C119.7 553.781 191.45 583.281 263.2 549.281C280.95 540.531 274.7 499.281 242.95 513.281C194.45 533.281 158.95 523.281 158.95 480.781C158.95 444.031 185.2 382.781 246.7 301.281C263.2 279.531 236.45 251.531 213.7 275.031C160.95 326.531 92.6996 377.781 32.1996 427.781L40.4496 435.031L185.7 79.5315C194.2 58.2815 156.7 39.7815 144.95 68.0315Z" fill="black" fill-opacity="0.85"/>
  <path d="M300.45 477.781C295.95 485.781 304.95 493.281 311.95 489.781L358.7 464.281L326.45 432.031ZM340.2 407.531L383.7 451.031L401.45 441.281L782.2 62.0315C796.45 47.7815 796.45 24.5315 782.2 10.5315C767.95-3.46854 744.95-3.46854 730.95 10.2815L350.2 390.031Z" fill="black" fill-opacity="0.85"/>
 </g>
</svg>
