<?xml version="1.0" encoding="UTF-8"?>
<!--Generator: Apple Native CoreSVG 326-->
<!DOCTYPE svg
PUBLIC "-//W3C//DTD SVG 1.1//EN"
       "http://www.w3.org/Graphics/SVG/1.1/DTD/svg11.dtd">
<svg version="1.1" xmlns="http://www.w3.org/2000/svg" xmlns:xlink="http://www.w3.org/1999/xlink" viewBox="0 0 998 670.75">
 <g>
  <rect height="670.75" opacity="0" width="998" x="0" y="0"/>
  <path d="M118.75 552C127.25 542 124.5 529 114.75 518C70.25 469.5 44.75 405.75 44.75 335.25C44.75 264.5 70.25 200.75 114.75 152.25C124.5 141.25 127.25 128.25 118.75 118.5C109.75 108.25 94.5 108.25 84 119.75C30.5 176.75 0 252.5 0 335.25C0 417.75 30.5 493.75 84 550.5C94.5 562 109.75 562.25 118.75 552ZM879.5 552C888.25 562.25 903.5 562 914.25 550.5C967.5 493.75 998 417.75 998 335.25C998 252.5 967.5 176.75 914.25 119.75C903.5 108.25 888.25 108.25 879.5 118.5C870.75 128.25 873.5 141.25 883.25 152.25C928 200.75 953.25 264.5 953.25 335.25C953.25 405.75 928 469.5 883.25 518C873.5 529 870.75 542 879.5 552Z" fill="black" fill-opacity="0.425"/>
  <path d="M208 461C216.75 451 213 438.5 204.25 427C183 402.75 172.75 370.25 172.75 335.25C172.75 300.25 183 267.5 204.25 243.25C213 231.75 216.75 219.25 208 209.5C198.75 199.25 182.5 199 172.75 211.25C144.25 245 128 288.5 128 335.25C128 382 144.25 425.25 172.75 459C182.5 471.25 198.75 471.25 208 461ZM790 461C799.25 471.25 815.5 471.25 825.5 459C853.75 425.25 870.25 382 870.25 335.25C870.25 288.5 853.75 245 825.5 211.25C815.5 199 799.25 199.25 790 209.5C781.5 219.25 785 231.75 793.75 243.25C815 267.5 825.25 300.25 825.25 335.25C825.25 370.25 815 402.75 793.75 427C785 438.5 781.5 451 790 461Z" fill="black" fill-opacity="0.425"/>
  <path d="M319.75 454.25L319.75 217.25C319.75 166 349.75 135.5 400 135.5L580 135.5C630.25 135.5 660 166 660 217.25L660 454.25C660 505.25 630.25 536 580 536L400 536C349.75 536 319.75 505.25 319.75 454.25Z" fill="black" fill-opacity="0.2125"/>
  <path d="M279.25 460C279.25 509.75 298.25 545 334.5 565C351.25 574.25 360.5 584.5 367 605L378.25 642.5C384 661.5 397.25 670.75 417.25 670.75L562.5 670.75C583 670.75 595.75 661.75 601.5 642.5L613 605C619.25 584.5 628.5 574.25 645.5 565C681.75 545 700.5 509.75 700.5 460L700.5 211.5C700.5 161.75 681.75 126.25 645.5 106.25C628.5 97.25 619.25 87 613 66.5L601.5 29C596.25 10.25 582.75 0.75 562.5 0.75L417.25 0.75C397.25 0.75 384 10 378.25 29L367 66.5C360.75 86.75 351.5 97.5 334.5 106.25C298.5 125.5 279.25 161.25 279.25 211.5ZM319.75 454.25L319.75 217.25C319.75 166 349.75 135.5 400 135.5L580 135.5C630.25 135.5 660 166 660 217.25L660 454.25C660 505.25 630.25 536 580 536L400 536C349.75 536 319.75 505.25 319.75 454.25ZM692.5 314L705 314C720.75 314 731.25 303 731.25 285.75L731.25 241.5C731.25 224 720.75 213 705 213L692.5 213Z" fill="black" fill-opacity="0.85"/>
 </g>
</svg>
