<?xml version="1.0" encoding="UTF-8"?>
<!--Generator: Apple Native CoreSVG 326-->
<!DOCTYPE svg
PUBLIC "-//W3C//DTD SVG 1.1//EN"
       "http://www.w3.org/Graphics/SVG/1.1/DTD/svg11.dtd">
<svg version="1.1" xmlns="http://www.w3.org/2000/svg" xmlns:xlink="http://www.w3.org/1999/xlink" viewBox="0 0 480.75 670.25">
 <g>
  <rect height="670.25" opacity="0" width="480.75" x="0" y="0"/>
  <path d="M69.25 453.75L69.25 216.75C69.25 165.5 99.25 134.75 149.75 134.75L329.5 134.75C379.75 134.75 409.5 165.5 409.5 216.75L409.5 453.75C409.5 504.75 379.75 535.5 329.5 535.5L149.75 535.5C99.25 535.5 69.25 504.75 69.25 453.75Z" fill="black" fill-opacity="0.2125"/>
  <path d="M28.75 459.5C28.75 509.25 47.75 544.5 84 564.5C101 573.75 110 584 116.5 604.5L127.75 642C133.5 661 147 670.25 166.75 670.25L312 670.25C332.75 670.25 345.25 661.25 351 642L362.5 604.5C368.75 584 378 573.75 395 564.5C431.25 544.5 450 509.25 450 459.5L450 211C450 161.25 431.25 125.75 395 105.75C378 96.75 368.75 86.5 362.5 66L351 28.5C345.75 9.75 332.5 0.25 312 0.25L166.75 0.25C147 0.25 133.5 9.5 127.75 28.5L116.5 66C110.25 86.25 101.25 97 84 105.75C48 125 28.75 160.75 28.75 211ZM69.25 453.75L69.25 216.75C69.25 165.5 99.25 134.75 149.75 134.75L329.5 134.75C379.75 134.75 409.5 165.5 409.5 216.75L409.5 453.75C409.5 504.75 379.75 535.5 329.5 535.5L149.75 535.5C99.25 535.5 69.25 504.75 69.25 453.75ZM442.25 313.5L454.5 313.5C470.25 313.5 480.75 302.5 480.75 285.25L480.75 241C480.75 223.5 470.25 212.5 454.5 212.5L442.25 212.5Z" fill="black" fill-opacity="0.85"/>
 </g>
</svg>
