<?xml version="1.0" encoding="UTF-8"?>
<!--Generator: Apple Native CoreSVG 326-->
<!DOCTYPE svg
PUBLIC "-//W3C//DTD SVG 1.1//EN"
       "http://www.w3.org/Graphics/SVG/1.1/DTD/svg11.dtd">
<svg version="1.1" xmlns="http://www.w3.org/2000/svg" xmlns:xlink="http://www.w3.org/1999/xlink" viewBox="0 0 622.5 604.25">
 <g>
  <rect height="604.25" opacity="0" width="622.5" x="0" y="0"/>
  <path d="M86.5 604.25C134 604.25 172.5 589 172.5 570.25C172.5 552 134 536.75 86.5 536.75C38.5 536.75 0 552 0 570.25C0 589 38.5 604.25 86.5 604.25Z" fill="black" fill-opacity="0.85"/>
  <path d="M127.5 484C123 492.25 132 499.75 139 496L185.75 470.5L153.75 438.25ZM167.25 413.75L210.75 457.5L228.75 447.5L611.75 66.25C626 52 626 29 611.75 15C597.5 0.75 574.5 0.75 560.5 14.75L177.25 396.25Z" fill="black" fill-opacity="0.85"/>
 </g>
</svg>
