<?xml version="1.0" encoding="UTF-8"?>
<!--Generator: Apple Native CoreSVG 326-->
<!DOCTYPE svg
PUBLIC "-//W3C//DTD SVG 1.1//EN"
       "http://www.w3.org/Graphics/SVG/1.1/DTD/svg11.dtd">
<svg version="1.1" xmlns="http://www.w3.org/2000/svg" xmlns:xlink="http://www.w3.org/1999/xlink" viewBox="0 0 338.5 711.75">
 <g>
  <rect height="711.75" opacity="0" width="338.5" x="0" y="0"/>
  <path d="M0 642.25C0 684.25 27 710.25 71.25 710.25L267.25 710.25C311.5 710.25 338.5 684.25 338.5 642.25L338.5 68.25C338.5 26 311.5 0 267.25 0L71.25 0C27 0 0 26 0 68.25ZM41 637L41 73.5C41 52.75 53.5 40.5 75.5 40.5L263 40.5C284.75 40.5 297.5 52.75 297.5 73.5L297.5 637C297.5 657.75 284.75 669.75 263 669.75L75.5 669.75C53.5 669.75 41 657.75 41 637ZM169.25 303.75C225.75 303.75 271.75 257.75 271.75 201.25C271.75 144.75 225.75 98.75 169.25 98.75C113 98.75 67 144.75 67 201.25C67 257.75 113 303.75 169.25 303.75ZM169.5 242.75C146.5 242.75 128 224.25 128 201.25C128 178.25 146.5 160 169.5 160C192.5 160 210.75 178.25 210.75 201.25C210.75 224.25 192.5 242.75 169.5 242.75ZM169.25 416.75C190.5 416.75 207.75 399.5 207.75 378.5C207.75 357.25 190.5 340 169.25 340C147.75 340 130.5 357.25 130.5 378.5C130.5 399.5 147.75 416.75 169.25 416.75Z" fill="black" fill-opacity="0.85"/>
 </g>
</svg>
