<?xml version="1.0" encoding="UTF-8"?>
<!--Generator: Apple Native CoreSVG 326-->
<!DOCTYPE svg
PUBLIC "-//W3C//DTD SVG 1.1//EN"
       "http://www.w3.org/Graphics/SVG/1.1/DTD/svg11.dtd">
<svg version="1.1" xmlns="http://www.w3.org/2000/svg" xmlns:xlink="http://www.w3.org/1999/xlink" viewBox="0 0 332.5 661.25">
 <g>
  <rect height="661.25" opacity="0" width="332.5" x="0" y="0"/>
  <path d="M85.25 0C32 0 0 31.25 0 82.5L0 584.75L44.25 559.25L44.25 89C44.25 60 60.5 44.5 90.75 44.5L242 44.5C272 44.5 288.25 60 288.25 89L288.25 559.25L332.5 584.75L332.5 82.5C332.5 31.25 300.5 0 247.25 0ZM75.75 660.25L257 660.25C301.25 660.25 332.5 628.75 332.5 584.75C332.5 540.5 301.25 509.25 257 509.25L75.75 509.25C31.5 509.25 0 540.5 0 584.75C0 628.75 31.5 660.25 75.75 660.25ZM75.75 618.5C55.75 618.5 41.75 604.5 41.75 584.75C41.75 564.75 55.75 551 75.75 551L257 551C277 551 290.75 564.75 290.75 584.75C290.75 604.5 277 618.5 257 618.5ZM166.5 152.75C187 152.75 203.75 136 203.75 115.5C203.75 95.25 187 78.5 166.5 78.5C146 78.5 129.25 95.25 129.25 115.5C129.25 136 146 152.75 166.5 152.75Z" fill="black" fill-opacity="0.85"/>
 </g>
</svg>
