<?xml version="1.0" encoding="UTF-8"?>
<!--Generator: Apple Native CoreSVG 326-->
<!DOCTYPE svg
PUBLIC "-//W3C//DTD SVG 1.1//EN"
       "http://www.w3.org/Graphics/SVG/1.1/DTD/svg11.dtd">
<svg version="1.1" xmlns="http://www.w3.org/2000/svg" xmlns:xlink="http://www.w3.org/1999/xlink" viewBox="0 0 307.75 711.75">
 <g>
  <rect height="711.75" opacity="0" width="307.75" x="0" y="0"/>
  <path d="M0 642.25C0 684.25 27 710.25 71.25 710.25L236.5 710.25C280.75 710.25 307.75 684.25 307.75 642.25L307.75 68.25C307.75 26 280.75 0 236.5 0L71.25 0C27 0 0 26 0 68.25ZM95.5 405.25C73.25 405.25 55 387.25 55 365.25C55 342.75 73.25 325 95.5 325C118 325 135.75 342.75 135.75 365.25C135.75 387.25 118 405.25 95.5 405.25ZM212.75 405.25C190 405.25 172.25 387.25 172.25 365.25C172.25 342.75 190 325 212.75 325C234.75 325 253 342.75 253 365.25C253 387.25 234.75 405.25 212.75 405.25ZM154 282.5C97 282.5 50 235.75 50 178.5C50 121 97 74.25 154 74.25C211.25 74.25 258 121 258 178.5C258 235.75 211.25 282.5 154 282.5ZM154.25 220.25C177.5 220.25 196.25 201.75 196.25 178.5C196.25 155.25 177.5 136.25 154.25 136.25C131 136.25 112 155.25 112 178.5C112 201.75 131 220.25 154.25 220.25Z" fill="black" fill-opacity="0.85"/>
 </g>
</svg>
