<?xml version="1.0" encoding="UTF-8"?>
<!--Generator: Apple Native CoreSVG 326-->
<!DOCTYPE svg
PUBLIC "-//W3C//DTD SVG 1.1//EN"
       "http://www.w3.org/Graphics/SVG/1.1/DTD/svg11.dtd">
<svg version="1.1" xmlns="http://www.w3.org/2000/svg" xmlns:xlink="http://www.w3.org/1999/xlink" viewBox="0 0 265.25 710.75">
 <g>
  <rect height="710.75" opacity="0" width="265.25" x="0" y="0"/>
  <path d="M73.75 710.25L191.5 710.25C238.5 710.25 265.25 683.5 265.25 636.5L265.25 73.75C265.25 27 238.5 0 191.5 0L73.75 0C26.75 0 0 27 0 73.75L0 636.5C0 683.5 26.75 710.25 73.75 710.25ZM132.75 269C77.25 269 32.75 224.5 32.75 169C32.75 113.75 77.25 69.5 132.75 69.5C188 69.5 232.75 113.75 232.75 169C232.75 224.5 188 269 132.75 269ZM83 367.75C62.75 367.75 46.5 351.25 46.5 331C46.5 310.75 62.5 294.5 83 294.5C103.5 294.5 120 310.75 120 331C120 351.25 103.25 367.75 83 367.75ZM182.75 367.75C162.25 367.75 145.5 351.25 145.5 331C145.5 310.75 162.25 294.5 182.75 294.5C203 294.5 218.75 310.75 218.75 331C218.75 351 202.75 367.75 182.75 367.75ZM83 463.75C62.75 463.75 46.5 447 46.5 426.75C46.5 406.75 62.75 390.25 83 390.25C103.5 390.25 120 406.5 120 426.75C120 447.25 103.5 463.75 83 463.75ZM83 559.5C62.75 559.5 46.5 543 46.5 523C46.5 502.5 62.75 485.75 83 485.75C103.25 485.75 120 502.5 120 523C120 543.25 103.5 559.5 83 559.5ZM182.25 559.5C163.5 559.5 147.75 543.75 147.75 525L147.75 424.75C147.75 405.5 163.25 390.25 182.25 390.25C201.5 390.25 217.25 405.75 217.25 424.75L217.25 525C217.25 544.25 201.5 559.5 182.25 559.5Z" fill="black" fill-opacity="0.85"/>
 </g>
</svg>
