<?xml version="1.0" encoding="UTF-8"?>
<!--Generator: Apple Native CoreSVG 326-->
<!DOCTYPE svg
PUBLIC "-//W3C//DTD SVG 1.1//EN"
       "http://www.w3.org/Graphics/SVG/1.1/DTD/svg11.dtd">
<svg version="1.1" xmlns="http://www.w3.org/2000/svg" xmlns:xlink="http://www.w3.org/1999/xlink" viewBox="0 0 636 634.75">
 <g>
  <rect height="634.75" opacity="0" width="636" x="0" y="0"/>
  <path d="M599.25 37.75C630.25 68.5 636 111.5 636 169L636 466.5C636 524 630.25 566.75 599.25 597.75C568.5 628.75 525 634.75 467.75 634.75L168.25 634.75C111 634.75 67.75 628.75 36.5 597.75C5.5 567 0 524 0 466.5L0 167.25C0 112 5.75 69 36.75 38C67.75 7 111.25 0.75 166.5 0.75L467.75 0.75C525 0.75 568.25 6.75 599.25 37.75ZM170 261.75C161.75 261.75 152 251.75 135.75 251.75C118.25 251.75 104 258.75 94.5 271C83.25 284.5 78.75 301.5 78.75 319.25C78.75 348.25 91.5 381.75 110.5 403C120.25 414.25 128 419.75 137.25 419.75C150.75 419.75 158 410 174.5 410C181.5 410 187.5 413 191.75 414.25C198.5 416.5 203 419.25 210.75 419.25C219 419.25 225.5 416 229.75 412C244.25 397.75 255.75 377.75 260.75 360.5C247.75 355 239.75 346.75 234.75 335C229.75 321.75 231 308.5 234.75 297.25C237.5 289.75 242.5 280.25 255 273C245.5 258.5 230.5 251.25 212.5 251.25C192 251.25 180.5 261.75 170 261.75ZM317 212L317 251.25L293.25 251.25L293.25 277.75L317 277.75L317 373.75C317 407.25 330 419.25 364 419.25C371.5 419.25 379.75 418.25 382.5 418L382.5 390C381 391 374.75 391 371.5 391C358 391 351.25 385.25 351.25 370L351.25 277.75L383 277.75L383 251.25L351.25 251.25L351.25 212ZM398.75 251.25L460 418L496 418L556.25 251.25L519 251.25L478 385.25L435 251.25ZM169 245.75C196 248.75 217 219.25 214.75 195.5C188.25 197 168.5 220.75 169 245.75Z" fill="black" fill-opacity="0.85"/>
 </g>
</svg>
