<?xml version="1.0" encoding="UTF-8"?>
<!--Generator: Apple Native CoreSVG 326-->
<!DOCTYPE svg
PUBLIC "-//W3C//DTD SVG 1.1//EN"
       "http://www.w3.org/Graphics/SVG/1.1/DTD/svg11.dtd">
<svg version="1.1" xmlns="http://www.w3.org/2000/svg" xmlns:xlink="http://www.w3.org/1999/xlink" viewBox="0 0 640.533 511.736">
 <g>
  <rect height="511.736" opacity="0" width="640.533" x="0" y="0"/>
  <path d="M65.0164 498.743C60.5164 506.993 69.5164 514.493 76.5164 510.743L123.266 485.493L91.0164 453.243ZM104.766 428.743L148.266 472.243L166.016 462.493L566.266 64.2429C580.516 49.9929 580.516 26.9929 566.266 12.9929C552.016-1.25713 528.766-1.25713 515.016 12.7429L114.766 411.243Z" fill="black" fill-opacity="0.85"/>
  <path d="M187.266 196.243C231.266 151.993 256.016 94.7429 258.266 33.2429C259.266 19.7429 250.016 9.99287 237.016 10.7429C225.516 11.9929 218.766 20.4929 217.516 34.2429C216.016 83.7429 195.516 130.493 158.766 167.493C121.766 204.493 74.5164 224.743 25.5164 226.243C11.5164 227.243 2.7664 234.743 1.7664 245.993C1.0164 258.493 11.5164 267.743 24.5164 267.493C85.7664 265.243 143.016 240.243 187.266 196.243Z" fill="black" fill-opacity="0.85"/>
  <path d="M116.016 124.993C141.266 99.4929 156.266 67.4929 159.266 32.4929C161.016 18.9929 151.016 8.24287 138.016 8.99287C126.266 9.99287 120.766 17.7429 118.266 32.7429C116.516 55.2429 106.266 77.4929 87.2664 96.2429C69.5164 114.243 47.7664 124.743 23.0164 127.493C9.0164 129.993 1.0164 135.993 0.0164006 146.993C-0.483599 159.993 10.5164 169.993 23.7664 168.493C58.0164 165.743 91.0164 149.743 116.016 124.993Z" fill="black" fill-opacity="0.85"/>
 </g>
</svg>
