<?xml version="1.0" encoding="UTF-8"?>
<!--Generator: Apple Native CoreSVG 326-->
<!DOCTYPE svg
PUBLIC "-//W3C//DTD SVG 1.1//EN"
       "http://www.w3.org/Graphics/SVG/1.1/DTD/svg11.dtd">
<svg version="1.1" xmlns="http://www.w3.org/2000/svg" xmlns:xlink="http://www.w3.org/1999/xlink" viewBox="0 0 901.438 572.75">
 <g>
  <rect height="572.75" opacity="0" width="901.438" x="0" y="0"/>
  <path d="M130.094 572.75L771.344 572.75C864.594 572.75 911.594 515.25 899.594 414.25L864.344 122C854.844 42.75 809.844 0 736.344 0L165.094 0C91.8441 0 46.5941 42.75 37.0941 122L2.09414 414.25C-10.1559 515.25 36.8441 572.75 130.094 572.75ZM234.594 380C223.344 380 214.844 375 214.844 367.5L214.844 271C179.844 262 153.844 230.75 153.844 192.75C153.844 148.75 189.594 112.5 234.594 112.5C278.594 112.5 314.594 148.5 314.594 192.75C314.594 230.5 288.594 262 254.094 270.25L254.094 367.5C254.094 375 245.094 380 234.594 380ZM234.594 447C169.594 447 123.594 412.5 123.594 363.25C123.594 327.75 147.094 300 184.344 287.25L184.344 325C168.594 333.25 159.094 346.75 159.094 363.25C159.094 393.75 190.094 415.25 234.594 415.25C278.594 415.25 309.344 393.75 309.344 363.25C309.344 347 299.844 333.5 284.594 325.25L284.594 287.25C321.344 300.25 344.594 327.75 344.594 363.25C344.594 412.5 299.094 447 234.594 447ZM425.344 263.75C399.594 263.75 379.094 243.25 379.094 217.5C379.094 191.75 399.594 171.25 425.344 171.25C451.094 171.25 471.844 191.75 471.844 217.5C471.844 243.25 451.094 263.75 425.344 263.75ZM564.844 263.75C539.594 263.75 518.844 243.25 518.844 217.5C518.844 191.75 539.594 171.25 564.844 171.25C590.594 171.25 611.344 191.75 611.344 217.5C611.344 243.25 590.594 263.75 564.844 263.75ZM704.344 263.75C678.594 263.75 658.094 243.25 658.094 217.5C658.094 191.75 678.594 171.25 704.344 171.25C729.844 171.25 750.594 191.75 750.594 217.5C750.594 243.25 729.844 263.75 704.344 263.75ZM471.844 403C446.344 403 425.594 382.5 425.594 356.75C425.594 331 446.344 310.25 471.844 310.25C497.344 310.25 518.094 331 518.094 356.75C518.094 382.5 497.344 403 471.844 403ZM611.594 403C585.844 403 565.094 382.5 565.094 356.75C565.094 331 585.844 310.25 611.594 310.25C637.094 310.25 657.844 331 657.844 356.75C657.844 382.5 637.094 403 611.594 403ZM750.844 403C725.344 403 704.594 382.5 704.594 356.75C704.594 331 725.344 310.25 750.844 310.25C776.594 310.25 797.344 331 797.344 356.75C797.344 382.5 776.594 403 750.844 403Z" fill="black" fill-opacity="0.85"/>
 </g>
</svg>
