<?xml version="1.0" encoding="UTF-8"?>
<!--Generator: Apple Native CoreSVG 326-->
<!DOCTYPE svg
PUBLIC "-//W3C//DTD SVG 1.1//EN"
       "http://www.w3.org/Graphics/SVG/1.1/DTD/svg11.dtd">
<svg version="1.1" xmlns="http://www.w3.org/2000/svg" xmlns:xlink="http://www.w3.org/1999/xlink" viewBox="0 0 844.75 671.75">
 <g>
  <rect height="671.75" opacity="0" width="844.75" x="0" y="0"/>
  <path d="M444 588.75C444 639.25 477 671.25 529.25 671.25L759.5 671.25C811.75 671.25 844.75 639.25 844.75 588.75L844.75 82.5C844.75 32 811.75 0 759.5 0L529.25 0C477 0 444 32 444 82.5Z" fill="black" fill-opacity="0.85"/>
  <path d="M24.25 590.25C38.5 590.25 48.5 580.25 48.5 566.25L48.5 516.5C48.5 402 118.25 359.75 212.75 359.75L242 359.75L327.5 357L327.5 342.75L243.25 420.25L206.75 453C200.5 458 198.75 465 198.75 471.5C198.75 485 209.25 495 222.75 495C229.25 495 235.25 492.5 241.75 486.25L374 353.75C379.25 348.75 382.25 342.5 382.25 335.75C382.25 329 379.25 322.75 374 317.5L240.5 184C235 178.75 229.25 176.25 222.75 176.25C209.25 176.25 198.75 186.5 198.75 200C198.75 206.5 200.75 213.5 206.75 218.5L243.25 251L327.5 328.75L327.5 314.25L242 311.75L212.75 311.75C100 311.75 0 366.25 0 516.5L0 566.25C0 580.25 10 590.25 24.25 590.25Z" fill="black" fill-opacity="0.85"/>
 </g>
</svg>
