<?xml version="1.0" encoding="UTF-8"?>
<!--Generator: Apple Native CoreSVG 326-->
<!DOCTYPE svg
PUBLIC "-//W3C//DTD SVG 1.1//EN"
       "http://www.w3.org/Graphics/SVG/1.1/DTD/svg11.dtd">
<svg version="1.1" xmlns="http://www.w3.org/2000/svg" xmlns:xlink="http://www.w3.org/1999/xlink" viewBox="0 0 636 633.25">
 <g>
  <rect height="633.25" opacity="0" width="636" x="0" y="0"/>
  <path d="M194.5 632.75L440 632.75C568.75 632.75 636 566.25 636 438.25L636 194.5C636 66.75 568.75 0 440 0L194.5 0C66.75 0 0 66.75 0 194.5L0 438.25C0 566.25 66.75 632.75 194.5 632.75ZM189 588.5C94 588.5 44.25 538.75 44.25 444L44.25 189C44.25 94 94 44.25 189 44.25L448.75 44.25C542.75 44.25 591.75 92.75 591.75 185.75L591.75 447C591.75 540 542.75 588.5 448.75 588.5ZM318 469.25C402.5 469.25 470.25 399.5 470.25 316.5C470.25 232.5 400.75 164.5 318 164.5C303.25 164.5 289.5 165.75 277.5 169.5L277.5 256C289.5 247.25 303.5 242.25 318 242.25C357.5 242.25 391.25 276.5 391.25 316.5C391.25 356.25 358.25 389 318 389C276.75 389 244.75 357.25 244.75 316.5L244.75 182.5C196 209.75 165.5 260 165.5 316.5C165.5 401.25 233.5 469.25 318 469.25ZM318 356.75C339.5 356.75 358 337.75 358 316.5C358 295.75 339 277 318 277C297 277 278 295 278 316.5C278 338.75 296.25 356.75 318 356.75Z" fill="black" fill-opacity="0.85"/>
 </g>
</svg>
