<?xml version="1.0" encoding="UTF-8"?>
<!--Generator: Apple Native CoreSVG 326-->
<!DOCTYPE svg
PUBLIC "-//W3C//DTD SVG 1.1//EN"
       "http://www.w3.org/Graphics/SVG/1.1/DTD/svg11.dtd">
<svg version="1.1" xmlns="http://www.w3.org/2000/svg" xmlns:xlink="http://www.w3.org/1999/xlink" viewBox="0 0 434.96 642.75">
 <g>
  <rect height="642.75" opacity="0" width="434.96" x="0" y="0"/>
  <path d="M283.855 492.5C327.855 492.5 363.355 457 363.355 413.25C363.355 369 327.855 333.5 283.855 333.5L24.1052 333.5C8.85522 333.5-1.14478 343.75 0.105219 359L11.1052 472.5C12.6052 485 21.6052 492.5 33.3552 492.5ZM283.855 444.75C301.605 444.75 315.605 430.75 315.605 413C315.605 395.5 301.605 381 283.855 381C266.105 381 252.105 395.5 252.105 413C252.105 430.75 266.105 444.75 283.855 444.75ZM101.605 642.5L90.6052 536.5L61.1052 536.5L72.1052 642.5ZM283.855 466.25C254.355 466.25 230.605 442.5 230.605 413C230.605 383.75 254.355 359.5 283.855 359.5C313.605 359.5 337.105 383.75 337.105 413C337.105 442.5 313.605 466.25 283.855 466.25ZM152.355 0C52.8552 0 2.60522 67.25 14.6052 187.25L51.1052 550C54.1052 580.5 106.105 580.5 102.355 545.5L65.6052 189.5C56.3552 103.75 89.8552 52.5 155.605 52.5C261.855 52.5 382.355 169.75 382.355 316.5C382.355 329.25 381.105 344.25 378.355 358.5C387.605 374.75 393.105 393.25 393.105 413.25C393.105 466.25 355.105 510.5 305.105 520.25C302.355 536.25 301.355 547.25 301.355 559C301.355 595.75 312.855 612.5 329.605 612.5C395.105 612 434.855 442 434.855 318.5C434.855 131.5 298.605 0 152.355 0Z" fill="black" fill-opacity="0.85"/>
  <path d="M283.855 444.75C301.605 444.75 315.605 430.75 315.605 413C315.605 395.5 301.605 381 283.855 381C266.105 381 252.105 395.5 252.105 413C252.105 430.75 266.105 444.75 283.855 444.75ZM283.855 466.25C254.355 466.25 230.605 442.5 230.605 413C230.605 383.75 254.355 359.5 283.855 359.5C313.605 359.5 337.105 383.75 337.105 413C337.105 442.5 313.605 466.25 283.855 466.25Z" fill="black" fill-opacity="0.2125"/>
 </g>
</svg>
