<?xml version="1.0" encoding="UTF-8"?>
<!--Generator: Apple Native CoreSVG 326-->
<!DOCTYPE svg
PUBLIC "-//W3C//DTD SVG 1.1//EN"
       "http://www.w3.org/Graphics/SVG/1.1/DTD/svg11.dtd">
<svg version="1.1" xmlns="http://www.w3.org/2000/svg" xmlns:xlink="http://www.w3.org/1999/xlink" viewBox="0 0 433.25 612.75">
 <g>
  <rect height="612.75" opacity="0" width="433.25" x="0" y="0"/>
  <path d="M282.25 0C127.5 0 0 178 0 396C0 498.75 27.5 612.25 60 612.25C86.75 612.25 108 576.75 110.25 542.25C59.75 527.75 22.25 481 22.25 425.75C22.25 393.25 35 363.75 58 340.75C69 189.5 166.5 56.75 279 56.75C346.25 56.75 376.75 107 376.75 199.75L109.25 339.5C70 360 52.25 391.75 52.25 425.75C52.25 475.75 93 516.75 143.25 516.75C167.5 516.75 184.25 510.75 219 491.75L353.75 418C412.5 385.5 433.25 346.25 433.25 263.25L433.25 190C433.25 73.5 382.25 0 282.25 0ZM141.25 483.75C109 483.75 83 457.75 83 425.75C83 393.75 109 367.25 141.25 367.25C173.25 367.25 199.5 393.75 199.5 425.75C199.5 457.5 173.25 483.75 141.25 483.75ZM141.25 462.25C161.5 462.25 178 445.75 178 425.75C178 405.5 161.5 389 141.25 389C121 389 104.5 405.5 104.5 425.75C104.5 445.75 121 462.25 141.25 462.25Z" fill="black" fill-opacity="0.85"/>
  <path d="M141.25 483.75C109 483.75 83 457.75 83 425.75C83 393.75 109 367.25 141.25 367.25C173.25 367.25 199.5 393.75 199.5 425.75C199.5 457.5 173.25 483.75 141.25 483.75ZM141.25 462.25C161.5 462.25 178 445.75 178 425.75C178 405.5 161.5 389 141.25 389C121 389 104.5 405.5 104.5 425.75C104.5 445.75 121 462.25 141.25 462.25Z" fill="black" fill-opacity="0.2125"/>
 </g>
</svg>
