<?xml version="1.0" encoding="UTF-8"?>
<!--Generator: Apple Native CoreSVG 326-->
<!DOCTYPE svg
PUBLIC "-//W3C//DTD SVG 1.1//EN"
       "http://www.w3.org/Graphics/SVG/1.1/DTD/svg11.dtd">
<svg version="1.1" xmlns="http://www.w3.org/2000/svg" xmlns:xlink="http://www.w3.org/1999/xlink" viewBox="0 0 544.25 518.25">
 <g>
  <rect height="518.25" opacity="0" width="544.25" x="0" y="0"/>
  <path d="M313.5 325.25C358 306 379.5 255 360.25 210.5L296.5 65.5C276.75 20.5 225.75-0.25 181.25 18.25C137 37.5 115.75 89.75 135 133.5L199 279C218.25 322.5 269.25 344.25 313.5 325.25ZM281 300.5C249.75 300.5 225 276 225 244.75C225 213.75 249.75 189 281 189C311.75 189 336.5 213.75 336.5 244.75C336.5 276 312 300.5 281 300.5ZM281 279C300.25 279 314.75 263.75 314.75 244.75C314.75 226 300.25 210.5 281 210.5C261.25 210.5 246.5 226 246.5 244.75C246.5 263.75 261.25 279 281 279ZM7 232.5C-16.75 313.75 21.75 389 103 421.25L162.75 444.75C261.75 483.75 362.75 462.75 402.5 352C424 292.25 417.25 240.75 390.5 207.5C410.5 264.5 382.25 327.75 325.5 352.75C266.25 377.75 197.75 350 171.75 290.75L107.75 145.25C104.25 137.5 102 129.75 100.25 121.25C65 150.5 23.25 177 7 232.5Z" fill="black" fill-opacity="0.85"/>
  <path d="M430.5 362C408.25 424.25 366.25 465.75 312.75 483.25C337.25 505 369.5 518.25 404.75 518.25C481.75 518.25 544.25 455.5 544.25 378C544.25 313 500 258.5 440.25 242.5C448.5 281.5 445.25 321.5 430.5 362Z" fill="black" fill-opacity="0.425"/>
  <path d="M281 300.5C249.75 300.5 225 276 225 244.75C225 213.75 249.75 189 281 189C311.75 189 336.5 213.75 336.5 244.75C336.5 276 312 300.5 281 300.5ZM281 279C300.25 279 314.75 263.75 314.75 244.75C314.75 226 300.25 210.5 281 210.5C261.25 210.5 246.5 226 246.5 244.75C246.5 263.75 261.25 279 281 279Z" fill="black" fill-opacity="0.2125"/>
 </g>
</svg>
