<?xml version="1.0" encoding="UTF-8"?>
<!--Generator: Apple Native CoreSVG 326-->
<!DOCTYPE svg
PUBLIC "-//W3C//DTD SVG 1.1//EN"
       "http://www.w3.org/Graphics/SVG/1.1/DTD/svg11.dtd">
<svg version="1.1" xmlns="http://www.w3.org/2000/svg" xmlns:xlink="http://www.w3.org/1999/xlink" viewBox="0 0 866.75 582.75">
 <g>
  <rect height="582.75" opacity="0" width="866.75" x="0" y="0"/>
  <path d="M268.75 0C121.25 0 0 169.25 0 377C0 474.75 26.25 582.75 57.25 582.75C82.5 582.75 103 549.25 105 516C57 502.25 21.25 457.75 21.25 405.25C21.25 374.25 33.25 346.25 55.25 324.25C65.75 180.5 158.5 54 265.75 54C329.5 54 358.75 101.75 358.75 190.25L104 323.25C66.75 342.75 49.75 373 49.75 405.25C49.75 452.75 88.5 492 136.25 492C159.5 492 175.25 486.25 208.5 468L336.75 397.75C392.75 367 412.5 329.75 412.5 250.75L412.5 181C412.5 70 363.75 0 268.75 0ZM134.5 460.5C103.75 460.5 79 435.75 79 405.25C79 374.75 103.75 349.75 134.5 349.75C165 349.75 190 374.75 190 405.25C190 435.5 165 460.5 134.5 460.5ZM134.5 440C153.75 440 169.5 424.25 169.5 405.25C169.5 386 153.75 370.25 134.5 370.25C115 370.25 99.5 386 99.5 405.25C99.5 424.25 115 440 134.5 440ZM597.75 0C502.75 0 454 70 454 181L454 250.75C454 329.75 474 367 530 397.75L658.25 468C691.25 486.25 707 492 730.25 492C778 492 817 452.75 817 405.25C817 373 800 342.75 762.75 323.25L508 190.25C508 101.75 537 54 601 54C708.25 54 801 180.5 811.5 324.25C833.5 346.25 845.25 374.25 845.25 405.25C845.25 457.75 809.75 502.25 761.75 516C763.75 549.25 784 582.75 809.5 582.75C840.5 582.75 866.75 474.75 866.75 377C866.75 169.25 745.25 0 597.75 0ZM732 460.5C701.75 460.5 676.75 435.5 676.75 405.25C676.75 374.75 701.75 349.75 732 349.75C762.75 349.75 787.75 374.75 787.75 405.25C787.75 435.75 762.75 460.5 732 460.5ZM732 440C751.5 440 767.25 424.25 767.25 405.25C767.25 386 751.5 370.25 732 370.25C713 370.25 697.25 386 697.25 405.25C697.25 424.25 713 440 732 440Z" fill="black" fill-opacity="0.85"/>
  <path d="M134.5 460.5C103.75 460.5 79 435.75 79 405.25C79 374.75 103.75 349.75 134.5 349.75C165 349.75 190 374.75 190 405.25C190 435.5 165 460.5 134.5 460.5ZM134.5 440C153.75 440 169.5 424.25 169.5 405.25C169.5 386 153.75 370.25 134.5 370.25C115 370.25 99.5 386 99.5 405.25C99.5 424.25 115 440 134.5 440ZM732 460.5C701.75 460.5 676.75 435.5 676.75 405.25C676.75 374.75 701.75 349.75 732 349.75C762.75 349.75 787.75 374.75 787.75 405.25C787.75 435.75 762.75 460.5 732 460.5ZM732 440C751.5 440 767.25 424.25 767.25 405.25C767.25 386 751.5 370.25 732 370.25C713 370.25 697.25 386 697.25 405.25C697.25 424.25 713 440 732 440Z" fill="black" fill-opacity="0.2125"/>
 </g>
</svg>
