<?xml version="1.0" encoding="UTF-8"?>
<!--Generator: Apple Native CoreSVG 326-->
<!DOCTYPE svg
PUBLIC "-//W3C//DTD SVG 1.1//EN"
       "http://www.w3.org/Graphics/SVG/1.1/DTD/svg11.dtd">
<svg version="1.1" xmlns="http://www.w3.org/2000/svg" xmlns:xlink="http://www.w3.org/1999/xlink" viewBox="0 0 825.5 662.25">
 <g>
  <rect height="662.25" opacity="0" width="825.5" x="0" y="0"/>
  <path d="M256 0C115.5 0 0 161.25 0 359.25C0 452.25 24.75 555.25 54.5 555.25C78.75 555.25 98 523.25 100 491.75C54.25 478.5 20.25 436 20.25 386.25C20.25 356.75 31.75 330 52.5 308.75C62.5 172 151 51.25 253 51.25C313.75 51.25 341.75 97 341.75 181.25L99 308C63.5 326.25 47.25 355.5 47.25 386.25C47.25 431.5 84.5 468.75 129.75 468.75C152 468.75 167 463 198.5 446L321 379C374.25 349.5 393 314 393 238.75L393 172.25C393 66.75 346.75 0 256 0ZM128.25 438.75C98.75 438.75 75.25 415 75.25 386.25C75.25 357 98.75 333 128.25 333C157 333 180.75 357 180.75 386.25C180.75 415 157 438.75 128.25 438.75ZM128.25 419.5C146.25 419.5 161.5 404.25 161.5 386.25C161.5 367.75 146.25 352.5 128.25 352.5C109.5 352.5 94.75 367.75 94.75 386.25C94.75 404.25 109.5 419.5 128.25 419.5ZM42.75 662L69.5 662L69.5 542.25L42.75 542.25ZM569.5 0C478.75 0 432.5 66.75 432.5 172.25L432.5 238.75C432.5 314 451.25 349.5 504.5 379L627 446C658.5 463 673.5 468.75 695.75 468.75C741 468.75 778.25 431.5 778.25 386.25C778.25 355.5 762 326.25 726.5 308L483.75 181.25C483.75 97 511.75 51.25 572.5 51.25C674.5 51.25 763 172 773 308.75C793.75 330 805.25 356.75 805.25 386.25C805.25 436 771.25 478.5 725.5 491.75C727.5 523.25 746.75 555.25 771 555.25C800.75 555.25 825.5 452.25 825.5 359.25C825.5 161.25 710 0 569.5 0ZM697.25 438.75C668.5 438.75 644.75 415 644.75 386.25C644.75 357 668.5 333 697.25 333C726.75 333 750.25 357 750.25 386.25C750.25 415 726.75 438.75 697.25 438.75ZM697.25 419.5C716 419.5 730.75 404.25 730.75 386.25C730.75 367.75 716 352.5 697.25 352.5C679.25 352.5 664 367.75 664 386.25C664 404.25 679.25 419.5 697.25 419.5ZM782.75 662L782.75 542.25L756 542.25L756 662Z" fill="black" fill-opacity="0.85"/>
  <path d="M128.25 438.75C98.75 438.75 75.25 415 75.25 386.25C75.25 357 98.75 333 128.25 333C157 333 180.75 357 180.75 386.25C180.75 415 157 438.75 128.25 438.75ZM128.25 419.5C146.25 419.5 161.5 404.25 161.5 386.25C161.5 367.75 146.25 352.5 128.25 352.5C109.5 352.5 94.75 367.75 94.75 386.25C94.75 404.25 109.5 419.5 128.25 419.5ZM697.25 438.75C668.5 438.75 644.75 415 644.75 386.25C644.75 357 668.5 333 697.25 333C726.75 333 750.25 357 750.25 386.25C750.25 415 726.75 438.75 697.25 438.75ZM697.25 419.5C716 419.5 730.75 404.25 730.75 386.25C730.75 367.75 716 352.5 697.25 352.5C679.25 352.5 664 367.75 664 386.25C664 404.25 679.25 419.5 697.25 419.5Z" fill="black" fill-opacity="0.2125"/>
 </g>
</svg>
