<?xml version="1.0" encoding="UTF-8"?>
<!--Generator: Apple Native CoreSVG 326-->
<!DOCTYPE svg
PUBLIC "-//W3C//DTD SVG 1.1//EN"
       "http://www.w3.org/Graphics/SVG/1.1/DTD/svg11.dtd">
<svg version="1.1" xmlns="http://www.w3.org/2000/svg" xmlns:xlink="http://www.w3.org/1999/xlink" viewBox="0 0 635.5 678.75">
 <g>
  <rect height="678.75" opacity="0" width="635.5" x="0" y="0"/>
  <path d="M0 320C0 375.25 14.25 432 38.75 482.5C29.75 491.5 28.25 509.25 36.5 526L102.25 659.5C107.25 669.75 119 675.25 130.25 675.25C142.5 675.25 154.25 668.5 156.5 653.5L84.25 506.25C63.5 464.25 41.75 394 41.75 320.25C41.75 156.75 153.75 46.5 317.75 46.5C481.75 46.5 593.75 156.75 593.75 320.25C593.75 394 572 464.25 551.25 506.25L479 653.5C481.25 668.5 493 675.25 505.25 675.25C516.5 675.25 528.25 669.75 533.25 659.5L599 526C607.25 509.25 605.75 491.5 596.75 482.5C621.25 432 635.5 375.25 635.5 320C635.5 138.75 510.75 0 317.75 0C124.75 0 0 138.75 0 320Z" fill="black" fill-opacity="0.85"/>
  <path d="M151 438.75C141 418.25 122.5 413.75 107.75 419C90.25 424.75 77 445.5 90 471.75L174 642.5C184.75 664.25 204.25 672.5 222.75 663.5C240.5 656.5 248.75 636.75 238.25 615.25ZM484.5 438.75L397.25 615.25C386.75 636.75 395 656.5 412.75 663.5C431.25 672.5 450.75 664.25 461.5 642.5L545.5 471.75C558.5 445.5 545.25 424.75 527.75 419C513 413.75 494.5 418.25 484.5 438.75Z" fill="black" fill-opacity="0.425"/>
 </g>
</svg>
