<?xml version="1.0" encoding="UTF-8"?>
<!--Generator: Apple Native CoreSVG 326-->
<!DOCTYPE svg
PUBLIC "-//W3C//DTD SVG 1.1//EN"
       "http://www.w3.org/Graphics/SVG/1.1/DTD/svg11.dtd">
<svg version="1.1" xmlns="http://www.w3.org/2000/svg" xmlns:xlink="http://www.w3.org/1999/xlink" viewBox="0 0 434.965 642.75">
 <g>
  <rect height="642.75" opacity="0" width="434.965" x="0" y="0"/>
  <path d="M151.108 492.5L401.608 492.5C413.358 492.5 422.608 485 423.858 472.5L434.858 359C436.108 343.75 426.358 333.5 411.108 333.5L151.108 333.5C107.108 333.5 71.8576 369 71.8576 413.25C71.8576 457 107.108 492.5 151.108 492.5ZM151.108 444.75C168.858 444.75 183.108 430.75 183.108 413C183.108 395.5 168.858 381 151.108 381C133.358 381 119.358 395.5 119.358 413C119.358 430.75 133.358 444.75 151.108 444.75ZM333.608 642.5L362.858 642.5L374.108 536.5L344.358 536.5ZM151.108 466.25C121.608 466.25 97.8576 442.5 97.8576 413C97.8576 383.75 121.608 359.5 151.108 359.5C180.608 359.5 204.608 383.75 204.608 413C204.608 442.5 180.608 466.25 151.108 466.25ZM282.858 0C136.608 0 0.107565 131.5 0.107565 318.5C0.107565 442 39.8576 612 105.608 612.5C122.108 612.5 133.608 595.75 133.608 559C133.608 547.25 132.608 536.25 130.108 520.25C79.8576 510.5 42.1076 466.25 42.1076 413.25C42.1076 393.25 47.3576 374.75 56.6076 358.5C54.1076 344.25 52.6076 329.25 52.6076 316.5C52.6076 169.75 173.108 52.5 279.358 52.5C345.108 52.5 378.608 103.75 369.608 189.5L332.608 545.5C329.108 580.5 380.858 580.5 383.858 550L420.358 187.25C432.608 67.25 382.108 0 282.858 0Z" fill="black" fill-opacity="0.85"/>
  <path d="M151.108 444.75C168.858 444.75 183.108 430.75 183.108 413C183.108 395.5 168.858 381 151.108 381C133.358 381 119.358 395.5 119.358 413C119.358 430.75 133.358 444.75 151.108 444.75ZM151.108 466.25C121.608 466.25 97.8576 442.5 97.8576 413C97.8576 383.75 121.608 359.5 151.108 359.5C180.608 359.5 204.608 383.75 204.608 413C204.608 442.5 180.608 466.25 151.108 466.25Z" fill="black" fill-opacity="0.2125"/>
 </g>
</svg>
