<?xml version="1.0" encoding="UTF-8"?>
<!--Generator: Apple Native CoreSVG 326-->
<!DOCTYPE svg
PUBLIC "-//W3C//DTD SVG 1.1//EN"
       "http://www.w3.org/Graphics/SVG/1.1/DTD/svg11.dtd">
<svg version="1.1" xmlns="http://www.w3.org/2000/svg" xmlns:xlink="http://www.w3.org/1999/xlink" viewBox="0 0 636 633.25">
 <g>
  <rect height="633.25" opacity="0" width="636" x="0" y="0"/>
  <path d="M194.5 632.75L440 632.75C568.75 632.75 636 566.25 636 438.25L636 194.5C636 66.75 568.75 0 440 0L194.5 0C66.75 0 0 66.75 0 194.5L0 438.25C0 566.25 66.75 632.75 194.5 632.75ZM318 473C231.5 473 161.75 403.25 161.75 316.5C161.75 258.5 193 207.25 243 179.25L243 316.5C243 358.25 275.75 390.75 318 390.75C359.25 390.75 393 357.25 393 316.5C393 275.5 358.5 240.5 318 240.5C303.25 240.5 288.75 245.5 276.5 254.25L276.5 166C288.75 162 303 160.75 318 160.75C402.75 160.75 474 230.5 474 316.5C474 401.5 404.5 473 318 473ZM318 357.75C295.75 357.75 277 339.25 277 316.5C277 294.5 296.5 276 318 276C339.5 276 359 295.25 359 316.5C359 338.25 340 357.75 318 357.75Z" fill="black" fill-opacity="0.85"/>
 </g>
</svg>
