<?xml version="1.0" encoding="UTF-8"?>
<!--Generator: Apple Native CoreSVG 326-->
<!DOCTYPE svg
PUBLIC "-//W3C//DTD SVG 1.1//EN"
       "http://www.w3.org/Graphics/SVG/1.1/DTD/svg11.dtd">
<svg version="1.1" xmlns="http://www.w3.org/2000/svg" xmlns:xlink="http://www.w3.org/1999/xlink" viewBox="0 0 1007 438.25">
 <g>
  <rect height="438.25" opacity="0" width="1007" x="0" y="0"/>
  <path d="M446.25 437.75L560.75 437.75C707.75 437.75 792.25 436.25 864.5 412.25C955.75 381.25 1007 312.75 1007 219C1007 125 955.75 56.5 864.5 25.75C792.25 1.5 707.75 0 560.75 0L446.25 0C299.25 0 214.75 1.5 142.25 25.75C51.25 56.5 0 125 0 219C0 312.75 51.25 381.25 142.25 412.25C214.75 436.25 299.25 437.75 446.25 437.75ZM503.5 298.25C465.75 298.25 437 269.5 437 233L437 136.5L466.75 123.5L466.75 176.75C478.25 168.5 490.25 164.75 503.5 164.75C540 164.75 570.5 195.25 570.5 233C570.5 268.75 540.5 298.25 503.5 298.25ZM503.5 268.75C523.5 268.75 540 252 540 233C540 213 523.5 196.25 503.5 196.25C484 196.25 466.75 212.75 466.75 233C466.75 252 483.5 268.75 503.5 268.75Z" fill="black" fill-opacity="0.85"/>
 </g>
</svg>
