<?xml version="1.0" encoding="UTF-8"?>
<!--Generator: Apple Native CoreSVG 326-->
<!DOCTYPE svg
PUBLIC "-//W3C//DTD SVG 1.1//EN"
       "http://www.w3.org/Graphics/SVG/1.1/DTD/svg11.dtd">
<svg version="1.1" xmlns="http://www.w3.org/2000/svg" xmlns:xlink="http://www.w3.org/1999/xlink" viewBox="0 0 393 662.25">
 <g>
  <rect height="662.25" opacity="0" width="393" x="0" y="0"/>
  <path d="M137 0C46.25 0 0 66.75 0 172.25L0 238.75C0 314 19 349.5 72.25 379L194.5 446C226 463 241.25 468.75 263.25 468.75C308.5 468.75 345.75 431.5 345.75 386.25C345.75 355.5 329.75 326.25 294.25 308L51.5 181.25C51.5 97 79.25 51.25 140.25 51.25C242 51.25 330.75 172 340.75 308.75C361.5 330 372.75 356.75 372.75 386.25C372.75 436 339 478.5 293 491.75C295 523.25 314.5 555.25 338.75 555.25C368.25 555.25 393 452.25 393 359.25C393 161.25 277.5 0 137 0ZM264.75 438.75C236 438.75 212.25 415 212.25 386.25C212.25 357 236 333 264.75 333C294.25 333 318 357 318 386.25C318 415 294.25 438.75 264.75 438.75ZM264.75 419.5C283.5 419.5 298.25 404.25 298.25 386.25C298.25 367.75 283.5 352.5 264.75 352.5C246.75 352.5 231.75 367.75 231.75 386.25C231.75 404.25 246.75 419.5 264.75 419.5ZM350.25 662L350.25 542.25L323.75 542.25L323.75 662Z" fill="black" fill-opacity="0.85"/>
  <path d="M264.75 438.75C236 438.75 212.25 415 212.25 386.25C212.25 357 236 333 264.75 333C294.25 333 318 357 318 386.25C318 415 294.25 438.75 264.75 438.75ZM264.75 419.5C283.5 419.5 298.25 404.25 298.25 386.25C298.25 367.75 283.5 352.5 264.75 352.5C246.75 352.5 231.75 367.75 231.75 386.25C231.75 404.25 246.75 419.5 264.75 419.5Z" fill="black" fill-opacity="0.2125"/>
 </g>
</svg>
