<?xml version="1.0" encoding="UTF-8"?>
<!--Generator: Apple Native CoreSVG 326-->
<!DOCTYPE svg
PUBLIC "-//W3C//DTD SVG 1.1//EN"
       "http://www.w3.org/Graphics/SVG/1.1/DTD/svg11.dtd">
<svg version="1.1" xmlns="http://www.w3.org/2000/svg" xmlns:xlink="http://www.w3.org/1999/xlink" viewBox="0 0 812 581.75">
 <g>
  <rect height="581.75" opacity="0" width="812" x="0" y="0"/>
  <path d="M359.25 581.75L452.75 581.75C542.75 581.75 606.5 571 656.5 546.75C760 497 812 399 812 290.75C812 247.5 803.75 206 787 168.5L25 168.5C8.25 206 0 247.5 0 290.75C0 399 52 497 155.5 546.75C205.25 571 269.25 581.75 359.25 581.75ZM406.25 407.25C368.75 407.25 340 378.75 340 342.25L340 246.75L369.75 233.75L369.75 286.75C381 278.25 393 274.75 406.25 274.75C442.25 274.75 472.75 305.5 472.75 342.25C472.75 378 442.75 407.25 406.25 407.25ZM406.25 378C426 378 442.25 361.5 442.25 342.25C442.25 322.75 426 306 406.25 306C386.75 306 369.75 322.25 369.75 342.25C369.75 361.5 386.25 378 406.25 378ZM40 139.25L772 139.25C746.25 95.75 707.5 59.5 656.5 35C606.5 10.5 542.75 0 452.75 0L359.25 0C269.25 0 205.25 10.5 155.5 35C104.5 59.5 65.75 95.75 40 139.25Z" fill="black" fill-opacity="0.85"/>
 </g>
</svg>
