<?xml version="1.0" encoding="UTF-8"?>
<!--Generator: Apple Native CoreSVG 326-->
<!DOCTYPE svg
PUBLIC "-//W3C//DTD SVG 1.1//EN"
       "http://www.w3.org/Graphics/SVG/1.1/DTD/svg11.dtd">
<svg version="1.1" xmlns="http://www.w3.org/2000/svg" xmlns:xlink="http://www.w3.org/1999/xlink" viewBox="0 0 1007 438.25">
 <g>
  <rect height="438.25" opacity="0" width="1007" x="0" y="0"/>
  <path d="M446.25 437.75L560.75 437.75C707.75 437.75 792.25 436.25 864.5 412.25C955.75 381.25 1007 312.75 1007 219C1007 125 955.75 56.5 864.5 25.75C792.25 1.5 707.75 0 560.75 0L446.25 0C299.25 0 214.75 1.5 142.25 25.75C51.25 56.5 0 125 0 219C0 312.75 51.25 381.25 142.25 412.25C214.75 436.25 299.25 437.75 446.25 437.75ZM446.25 393.5C299.75 393.5 222 391.75 156.75 370C85.25 346 44.5 291.5 44.5 219C44.5 146.25 85.25 91.75 156.75 67.75C222 46 299.75 44.25 446.25 44.25L560.75 44.25C707 44.25 785 46 850.25 67.75C921.75 92 962.5 146.5 962.5 219C962.5 291.25 921.75 345.75 850.25 370C785 391.75 707 393.5 560.75 393.5ZM503.5 296.25C539.5 296.25 569 267.25 569 232.5C569 195.75 539 165.75 503.5 165.75C490.5 165.75 478.75 169.5 467.75 177.5L467.75 125.5L438.5 138.25L438.5 232.5C438.5 268 466.75 296.25 503.5 296.25ZM503.5 267.25C484 267.25 467.75 251 467.75 232.5C467.75 212.75 484.5 196.5 503.5 196.5C523 196.5 539 213 539 232.5C539 251 523 267.25 503.5 267.25Z" fill="black" fill-opacity="0.85"/>
 </g>
</svg>
