<?xml version="1.0" encoding="UTF-8"?>
<!--Generator: Apple Native CoreSVG 326-->
<!DOCTYPE svg
PUBLIC "-//W3C//DTD SVG 1.1//EN"
       "http://www.w3.org/Graphics/SVG/1.1/DTD/svg11.dtd">
<svg version="1.1" xmlns="http://www.w3.org/2000/svg" xmlns:xlink="http://www.w3.org/1999/xlink" viewBox="0 0 1087.75 436.75">
 <g>
  <rect height="436.75" opacity="0" width="1087.75" x="0" y="0"/>
  <path d="M214.75 7C95.5 7 0 102.75 0 222C0 341.25 95.5 436.75 214.75 436.75L872.75 436.75C992 436.75 1087.75 341.25 1087.75 222C1087.75 102.75 992 7 872.75 7ZM214.75 51.25L872.75 51.25C970.25 51.25 1043.5 124.5 1043.5 222C1043.5 319.25 970.25 392.5 872.75 392.5L214.75 392.5C117.5 392.5 44.25 319.25 44.25 222C44.25 124.5 117.5 51.25 214.75 51.25ZM543.75 290.75C579.5 290.75 609 262 609 227.5C609 191.25 579 161.25 543.75 161.25C531 161.25 519.25 165 508.5 173L508.5 121.25L479 134.25L479 227.5C479 262.75 507.25 290.75 543.75 290.75ZM543.75 262C524.5 262 508.5 246 508.5 227.5C508.5 207.75 525 191.75 543.75 191.75C563 191.75 579 208.25 579 227.5C579 246 563 262 543.75 262Z" fill="black" fill-opacity="0.85"/>
 </g>
</svg>
