<?xml version="1.0" encoding="UTF-8"?>
<!--Generator: Apple Native CoreSVG 326-->
<!DOCTYPE svg
PUBLIC "-//W3C//DTD SVG 1.1//EN"
       "http://www.w3.org/Graphics/SVG/1.1/DTD/svg11.dtd">
<svg version="1.1" xmlns="http://www.w3.org/2000/svg" xmlns:xlink="http://www.w3.org/1999/xlink" viewBox="0 0 1076.75 493.75">
 <g>
  <rect height="493.75" opacity="0" width="1076.75" x="0" y="0"/>
  <path d="M219.75 310.25C261.75 328 310.5 307.5 328.75 266L389.75 127.5C408 85.75 387.75 36.25 345.75 18C303.25 0.25 254.75 20 236 62.75L175.25 200.75C157 243.25 177.25 291.75 219.75 310.25ZM250.75 286.5C221.25 286.5 198 263.25 198 233.5C198 204 221.25 180.25 250.75 180.25C280.5 180.25 304 204 304 233.5C304 263.25 280.5 286.5 250.75 286.5ZM250.75 266C269.5 266 283.5 251.75 283.5 233.5C283.5 215.5 269.5 200.75 250.75 200.75C232.5 200.75 218.5 215.5 218.5 233.5C218.5 251.75 232.5 266 250.75 266ZM511.5 221.75C496 169 456.25 143.75 422.75 116C421.25 124 418.75 131.25 415.5 138.75L354.75 277.25C330 333.75 264.75 360 208.25 336.25C154.25 312.5 127.5 252.25 146.5 198C121 229.5 114.5 278.75 135 335.5C172.75 441 269 461 363.25 424L420 401.5C497.5 370.75 534.25 299.25 511.5 221.75ZM857.25 310.25C899.5 291.75 920 243.25 901.5 200.75L840.75 62.75C822 20 773.5 0.25 731 18C689 36.25 668.75 85.75 687 127.5L748 266C766.25 307.5 815 328 857.25 310.25ZM826 286.5C796.25 286.5 772.75 263.25 772.75 233.5C772.75 204 796.25 180.25 826 180.25C855.5 180.25 878.75 204 878.75 233.5C878.75 263.25 855.75 286.5 826 286.5ZM826 266C844.25 266 858.25 251.75 858.25 233.5C858.25 215.5 844.25 200.75 826 200.75C807.25 200.75 793.25 215.5 793.25 233.5C793.25 251.75 807.25 266 826 266ZM565.25 221.75C542.5 299.25 579.25 370.75 656.75 401.5L713.5 424C807.75 461 904 441 941.75 335.5C962.25 278.75 955.75 229.5 930.25 198C949.25 252.25 922.5 312.5 868.5 336.25C812.25 360 746.75 333.75 722 277.25L661.25 138.75C658 131.25 655.5 124 654 116C620.5 143.75 580.75 169 565.25 221.75Z" fill="black" fill-opacity="0.85"/>
  <path d="M108.25 345C94.25 306.5 91 268.5 99 231.5C42.25 246.5 0 298.5 0 360.25C0 434 59.5 493.75 132.75 493.75C166.5 493.75 197 481.25 220.5 460.5C169.5 443.75 129.5 404.5 108.25 345ZM968.5 345C947.25 404.5 907.25 443.75 856.25 460.5C879.75 481.25 910.25 493.75 944 493.75C1017.25 493.75 1076.75 434 1076.75 360.25C1076.75 298.5 1034.5 246.5 977.75 231.5C985.75 268.5 982.5 306.5 968.5 345Z" fill="black" fill-opacity="0.425"/>
  <path d="M250.75 286.5C221.25 286.5 198 263.25 198 233.5C198 204 221.25 180.25 250.75 180.25C280.5 180.25 304 204 304 233.5C304 263.25 280.5 286.5 250.75 286.5ZM250.75 266C269.5 266 283.5 251.75 283.5 233.5C283.5 215.5 269.5 200.75 250.75 200.75C232.5 200.75 218.5 215.5 218.5 233.5C218.5 251.75 232.5 266 250.75 266ZM826 286.5C796.25 286.5 772.75 263.25 772.75 233.5C772.75 204 796.25 180.25 826 180.25C855.5 180.25 878.75 204 878.75 233.5C878.75 263.25 855.75 286.5 826 286.5ZM826 266C844.25 266 858.25 251.75 858.25 233.5C858.25 215.5 844.25 200.75 826 200.75C807.25 200.75 793.25 215.5 793.25 233.5C793.25 251.75 807.25 266 826 266Z" fill="black" fill-opacity="0.2125"/>
 </g>
</svg>
