<?xml version="1.0" encoding="UTF-8"?>
<!--Generator: Apple Native CoreSVG 326-->
<!DOCTYPE svg
PUBLIC "-//W3C//DTD SVG 1.1//EN"
       "http://www.w3.org/Graphics/SVG/1.1/DTD/svg11.dtd">
<svg version="1.1" xmlns="http://www.w3.org/2000/svg" xmlns:xlink="http://www.w3.org/1999/xlink" viewBox="0 0 996.75 513.25">
 <g>
  <rect height="513.25" opacity="0" width="996.75" x="0" y="0"/>
  <path d="M370 373.75C408.25 373.75 449.5 351 458.25 302.5L473.75 219.5C489.5 133.75 425.75 68.5 318.75 31.5C256.25 9.75 195 0 133.5 0C115 0 108.5 6.75 108.5 19.25C108.5 49.5 124.25 71.5 154 76C203 83.25 241.25 93.75 278.25 111.5C294.5 119 300.25 129.5 297.25 146.5L278.75 259C268.25 323.25 311.25 373.75 370 373.75ZM370 330.5C342.5 330.5 320.5 308.5 320.5 281C320.5 253.25 342.5 231 370 231C397.75 231 419.75 253 419.75 281C419.75 308.75 397.75 330.5 370 330.5ZM370 310.5C386.75 310.5 399.75 297.5 399.75 281C399.75 264.25 386.75 251 370 251C353.25 251 340.5 264.25 340.5 281C340.5 297.5 353.25 310.5 370 310.5ZM370 401.25C292.75 401.25 238.25 334 251.5 254.5L263 185.5C200.25 201.75 155.75 228.5 136.75 268.5C153.5 342 180 410.25 217.5 475.25C235.75 484.5 254.5 487.75 280.75 487.75C381.75 487.75 467.25 438.25 472.75 342.75C452.75 378.75 414.5 401.25 370 401.25ZM627.5 373.75C686.25 373.75 729.25 323.25 718.75 259L700.25 146.5C697.25 129.5 703 119 719.25 111.5C756.25 93.75 794.5 83.25 843.5 76C873.25 71.5 889 49.5 889 19.25C889 6.75 882.5 0 864 0C802.5 0 741.25 9.75 678.75 31.5C571.75 68.5 508 133.75 523.75 219.5L539.25 302.5C548 351 589.5 373.75 627.5 373.75ZM627.5 330.5C599.75 330.5 577.75 308.75 577.75 281C577.75 253 599.75 231 627.5 231C655 231 677 253.25 677 281C677 308.5 655 330.5 627.5 330.5ZM627.5 310.5C644.25 310.5 657.25 297.5 657.25 281C657.25 264.25 644.25 251 627.5 251C610.75 251 597.75 264.25 597.75 281C597.75 297.5 610.75 310.5 627.5 310.5ZM627.5 401.25C583 401.25 544.75 378.75 524.75 342.75C530.25 438.25 615.75 487.75 716.75 487.75C743 487.75 761.75 484.5 780 475.25C817.5 410.25 844 342 860.75 268.5C841.75 228.5 797.25 201.75 734.5 185.5L746 254.5C759.25 334 704.75 401.25 627.5 401.25Z" fill="black" fill-opacity="0.85"/>
  <path d="M0.75 390C0.75 463.75 49.5 513 123 513C151.25 513 177 504 195.25 491.5C155.25 423 127 349.75 109.25 272C51.5 278.75 0.75 324.25 0.75 390ZM996.75 390C996.75 324.25 946 278.75 888.25 272C870.5 349.75 842.25 423 802.25 491.5C820.5 504 846.25 513 874.5 513C948 513 996.75 463.75 996.75 390Z" fill="black" fill-opacity="0.425"/>
  <path d="M370 330.5C342.5 330.5 320.5 308.5 320.5 281C320.5 253.25 342.5 231 370 231C397.75 231 419.75 253 419.75 281C419.75 308.75 397.75 330.5 370 330.5ZM370 310.5C386.75 310.5 399.75 297.5 399.75 281C399.75 264.25 386.75 251 370 251C353.25 251 340.5 264.25 340.5 281C340.5 297.5 353.25 310.5 370 310.5ZM627.5 330.5C599.75 330.5 577.75 308.75 577.75 281C577.75 253 599.75 231 627.5 231C655 231 677 253.25 677 281C677 308.5 655 330.5 627.5 330.5ZM627.5 310.5C644.25 310.5 657.25 297.5 657.25 281C657.25 264.25 644.25 251 627.5 251C610.75 251 597.75 264.25 597.75 281C597.75 297.5 610.75 310.5 627.5 310.5Z" fill="black" fill-opacity="0.2125"/>
 </g>
</svg>
