<?xml version="1.0" encoding="UTF-8"?>
<!--Generator: Apple Native CoreSVG 326-->
<!DOCTYPE svg
PUBLIC "-//W3C//DTD SVG 1.1//EN"
       "http://www.w3.org/Graphics/SVG/1.1/DTD/svg11.dtd">
<svg version="1.1" xmlns="http://www.w3.org/2000/svg" xmlns:xlink="http://www.w3.org/1999/xlink" viewBox="0 0 979.75 523.25">
 <g>
  <rect height="523.25" opacity="0" width="979.75" x="0" y="0"/>
  <path d="M0 261.5C0 430.25 122 522.75 329.75 522.75L650.25 522.75C857.75 522.75 979.75 430.25 979.75 261.5C979.75 92.5 857.75 0 650.25 0L329.75 0C122 0 0 92.5 0 261.5ZM44.5 261.5C44.5 120.25 150 44.25 329.75 44.25L650.25 44.25C829.75 44.25 935.5 120.25 935.5 261.5C935.5 402.5 829.75 478.5 650.25 478.5L329.75 478.5C150 478.5 44.5 402.5 44.5 261.5ZM22.5 260.25L957.5 260.25L957.5 230.75L22.5 230.75ZM268.75 281.25L711 281.25C732 281.25 747 266.5 747 245.5C747 224.5 732 209.75 711 209.75L268.75 209.75C248.5 209.75 232.75 224.5 232.75 245.5C232.75 266.5 248.5 281.25 268.75 281.25ZM490 376.25C507.5 376 522 361 522 344.5C522 327 507.5 312.5 490 312.5C472.25 312.5 457.75 327 457.75 344.5C457.75 361.75 472.25 376.75 490 376.25Z" fill="black" fill-opacity="0.85"/>
 </g>
</svg>
