<?xml version="1.0" encoding="UTF-8"?>
<!--Generator: Apple Native CoreSVG 326-->
<!DOCTYPE svg
PUBLIC "-//W3C//DTD SVG 1.1//EN"
       "http://www.w3.org/Graphics/SVG/1.1/DTD/svg11.dtd">
<svg version="1.1" xmlns="http://www.w3.org/2000/svg" xmlns:xlink="http://www.w3.org/1999/xlink" viewBox="0 0 512 521.25">
 <g>
  <rect height="521.25" opacity="0" width="512" x="0" y="0"/>
  <path d="M75.5 294.25C75.5 282.25 76.75 270.25 78.5 258.25C31.25 281 0 328.75 0 383C0 457.75 60.25 521.25 138.5 521.25C171.75 521.25 202.5 509.25 226.25 489.75C138.5 461 75.5 387.5 75.5 294.25Z" fill="black" fill-opacity="0.425"/>
  <path d="M427.25 197.75C460.25 140.5 440.75 69.25 383.5 36.25C327 3.75 254.75 22.75 222 79.75L165.5 178C132.75 234.75 152 306.75 208.75 339.5C265.75 372.5 337.75 353.5 371 296ZM262.25 301.5C229.25 301.5 203.5 275.5 203.5 242.5C203.5 209.75 229.5 183.5 262.25 183.5C295.25 183.5 321.5 209.75 321.5 242.5C321.5 275.5 295.25 301.5 262.25 301.5ZM262.25 278.5C283 278.5 298.25 262.75 298.25 242.5C298.25 222.75 283 206.5 262.25 206.5C242 206.5 226.5 222.75 226.5 242.5C226.5 262.75 242 278.5 262.25 278.5ZM308.75 472.75C419 472.75 512 397 512 280.25C512 230 496.5 197.5 471.5 159.25C469 177.25 463 195.25 453.25 212.25L396.75 311C356 382.5 265 406.25 194 365C141.25 334.75 114 277 120.75 220.25C110.75 244.75 105.5 269.5 105.5 294.5C105.5 398.75 197.75 472.75 308.75 472.75Z" fill="black" fill-opacity="0.85"/>
  <path d="M262.25 301.5C229.25 301.5 203.5 275.5 203.5 242.5C203.5 209.75 229.5 183.5 262.25 183.5C295.25 183.5 321.5 209.75 321.5 242.5C321.5 275.5 295.25 301.5 262.25 301.5ZM262.25 278.5C283 278.5 298.25 262.75 298.25 242.5C298.25 222.75 283 206.5 262.25 206.5C242 206.5 226.5 222.75 226.5 242.5C226.5 262.75 242 278.5 262.25 278.5Z" fill="black" fill-opacity="0.2125"/>
 </g>
</svg>
