<?xml version="1.0" encoding="UTF-8"?>
<!--Generator: Apple Native CoreSVG 326-->
<!DOCTYPE svg
PUBLIC "-//W3C//DTD SVG 1.1//EN"
       "http://www.w3.org/Graphics/SVG/1.1/DTD/svg11.dtd">
<svg version="1.1" xmlns="http://www.w3.org/2000/svg" xmlns:xlink="http://www.w3.org/1999/xlink" viewBox="0 0 1014 492.75">
 <g>
  <rect height="492.75" opacity="0" width="1014" x="0" y="0"/>
  <path d="M71.75 277C71.75 265.5 72.75 254 74.5 242.75C29.75 264.25 0 309.75 0 361.25C0 432.25 57.25 492.75 131.5 492.75C163 492.75 192.25 481.25 215 462.75C131.5 435.5 71.75 365.5 71.75 277ZM942.25 277C942.25 365.5 882.5 435.5 799 462.75C821.75 481.25 851 492.75 882.5 492.75C956.75 492.75 1014 432.25 1014 361.25C1014 309.75 984.25 264.25 939.5 242.75C941.25 254 942.25 265.5 942.25 277Z" fill="black" fill-opacity="0.425"/>
  <path d="M406 185.25C437.25 131 418.75 63.25 364.25 32C310.75 1 242 19 211 73.25L157.25 166.5C126 220.5 144.25 288.75 198.5 319.75C252.5 351.25 321 333.25 352.25 278.75ZM249 284C217.75 284 193.25 259.25 193.25 227.75C193.25 196.75 218 171.75 249 171.75C280.5 171.75 305.25 196.75 305.25 227.75C305.25 259.25 280.5 284 249 284ZM249 262C268.75 262 283.5 247 283.5 227.75C283.5 209 268.75 193.5 249 193.5C229.75 193.5 215.25 209 215.25 227.75C215.25 247 229.75 262 249 262ZM293.25 446.5C398 446.5 486.5 374.5 486.5 263.75C486.5 216 471.5 185 448 148.5C445.5 165.75 439.75 183 430.5 199.25L377 292.75C338.25 361 251.75 383.5 184.25 344.25C134 315.5 108.25 260.75 114.75 206.75C105 229.75 100.25 253.5 100.25 277.25C100.25 376.25 188 446.5 293.25 446.5ZM608 185.25L661.75 278.75C693 333.25 761.5 351.25 815.5 319.75C869.75 288.75 887.75 220.5 856.75 166.5L803 73.25C772 19 703.25 1 649.75 32C595.25 63.25 576.75 131 608 185.25ZM765 284C733.5 284 708.75 259.25 708.75 227.75C708.75 196.75 733.5 171.75 765 171.75C796 171.75 820.75 196.75 820.75 227.75C820.75 259.25 796 284 765 284ZM765 262C784.25 262 798.75 247 798.75 227.75C798.75 209 784.25 193.5 765 193.5C745.25 193.5 730.5 209 730.5 227.75C730.5 247 745.25 262 765 262ZM720.75 446.5C826 446.5 913.75 376.25 913.75 277.25C913.75 253.5 909 229.75 899.25 206.75C905.75 260.75 879.75 315.5 829.75 344.25C762.25 383.5 675.75 361 637 292.75L583.5 199.25C574.25 183 568.5 165.75 566 148.5C542.25 185 527.5 216 527.5 263.75C527.5 374.5 616 446.5 720.75 446.5Z" fill="black" fill-opacity="0.85"/>
  <path d="M249 284C217.75 284 193.25 259.25 193.25 227.75C193.25 196.75 218 171.75 249 171.75C280.5 171.75 305.25 196.75 305.25 227.75C305.25 259.25 280.5 284 249 284ZM249 262C268.75 262 283.5 247 283.5 227.75C283.5 209 268.75 193.5 249 193.5C229.75 193.5 215.25 209 215.25 227.75C215.25 247 229.75 262 249 262ZM765 284C733.5 284 708.75 259.25 708.75 227.75C708.75 196.75 733.5 171.75 765 171.75C796 171.75 820.75 196.75 820.75 227.75C820.75 259.25 796 284 765 284ZM765 262C784.25 262 798.75 247 798.75 227.75C798.75 209 784.25 193.5 765 193.5C745.25 193.5 730.5 209 730.5 227.75C730.5 247 745.25 262 765 262Z" fill="black" fill-opacity="0.2125"/>
 </g>
</svg>
