<?xml version="1.0" encoding="UTF-8"?>
<!--Generator: Apple Native CoreSVG 326-->
<!DOCTYPE svg
PUBLIC "-//W3C//DTD SVG 1.1//EN"
       "http://www.w3.org/Graphics/SVG/1.1/DTD/svg11.dtd">
<svg version="1.1" xmlns="http://www.w3.org/2000/svg" xmlns:xlink="http://www.w3.org/1999/xlink" viewBox="0 0 803 846.25">
 <g>
  <rect height="846.25" opacity="0" width="803" x="0" y="0"/>
  <path d="M803 203.25L803 642C803 734.73 743.775 804.721 650.557 804.747C695.492 768.45 721.75 710.218 721.75 642L721.75 203.25C721.75 135.094 695.541 76.9929 650.682 40.7586C743.579 40.8428 803 110.312 803 203.25Z" fill="black" fill-opacity="0.85"/>
  <path d="M682 203.25L682 642C682 737.25 622.5 805.5 531.25 805.5C439.75 805.5 380.25 737.25 380.25 642L380.25 544.6L465 470.75C495.5 444 494.75 400.75 464.75 374.25L380.25 300.81L380.25 203.25C380.25 108 439.75 39.75 531.25 39.75C622.5 39.75 682 108 682 203.25Z" fill="black" fill-opacity="0.85"/>
  <path d="M438.75 440.75C451 430 450.75 414.75 438.75 404.25L343 321.25C325.75 306 302 315.75 302 339L302 399.25L131.25 399.25C118 399.25 107.75 409.5 107.75 423C107.75 436 118 446.25 131.25 446.25L302 446.25L302 506.25C302 530.25 326.5 539 343 524Z" fill="black" fill-opacity="0.85"/>
 </g>
</svg>
