<?xml version="1.0" encoding="UTF-8"?>
<!--Generator: Apple Native CoreSVG 326-->
<!DOCTYPE svg
PUBLIC "-//W3C//DTD SVG 1.1//EN"
       "http://www.w3.org/Graphics/SVG/1.1/DTD/svg11.dtd">
<svg version="1.1" xmlns="http://www.w3.org/2000/svg" xmlns:xlink="http://www.w3.org/1999/xlink" viewBox="0 0 599.438 725.25">
 <g>
  <rect height="725.25" opacity="0" width="599.438" x="0" y="0"/>
  <path d="M324.094 468.527L324.094 725.25L276.344 725.25L276.344 467.75L233.844 467.75C207.344 467.75 196.094 456.75 196.094 430.25L196.094 340.723ZM403.844 180L403.844 389.5L196.094 181.75L196.094 180C196.094 153.5 207.344 142.25 233.844 142.25L366.094 142.25C392.594 142.25 403.844 153.5 403.844 180Z" fill="black" fill-opacity="0.85"/>
  <path d="M360.844 37.5L360.844 107.5L239.344 107.5L239.344 37.5C239.344 11 250.594 0 277.094 0L322.844 0C349.344 0 360.844 11 360.844 37.5Z" fill="black" fill-opacity="0.85"/>
  <path d="M528.344 623.5C536.844 631.75 550.344 631.75 558.594 623.5C566.344 615.25 566.844 601.75 558.594 593.25L71.3439 106.5C63.3439 98.5 49.3439 98.25 41.0939 106.5C32.8439 114.5 32.8439 128.5 41.0939 136.75Z" fill="black" fill-opacity="0.85"/>
 </g>
</svg>
