<?xml version="1.0" encoding="UTF-8"?>
<!--Generator: Apple Native CoreSVG 326-->
<!DOCTYPE svg
PUBLIC "-//W3C//DTD SVG 1.1//EN"
       "http://www.w3.org/Graphics/SVG/1.1/DTD/svg11.dtd">
<svg version="1.1" xmlns="http://www.w3.org/2000/svg" xmlns:xlink="http://www.w3.org/1999/xlink" viewBox="0 0 207.75 725.25">
 <g>
  <rect height="725.25" opacity="0" width="207.75" x="0" y="0"/>
  <path d="M80.25 725.25L127.75 725.25L127.75 419.25L80.25 419.25ZM37.75 467.75L170 467.75C196.5 467.75 207.75 456.75 207.75 430.25L207.75 180C207.75 153.5 196.5 142.25 170 142.25L37.75 142.25C11.25 142.25 0 153.5 0 180L0 430.25C0 456.75 11.25 467.75 37.75 467.75Z" fill="black" fill-opacity="0.85"/>
  <path d="M43 107.5L164.75 107.5L164.75 37.5C164.75 11 153.25 0 126.75 0L81 0C54.5 0 43 11 43 37.5Z" fill="black" fill-opacity="0.425"/>
 </g>
</svg>
