<?xml version="1.0" encoding="UTF-8"?>
<!--Generator: Apple Native CoreSVG 326-->
<!DOCTYPE svg
PUBLIC "-//W3C//DTD SVG 1.1//EN"
       "http://www.w3.org/Graphics/SVG/1.1/DTD/svg11.dtd">
<svg version="1.1" xmlns="http://www.w3.org/2000/svg" xmlns:xlink="http://www.w3.org/1999/xlink" viewBox="0 0 375.5 633.25">
 <g>
  <rect height="633.25" opacity="0" width="375.5" x="0" y="0"/>
  <path d="M85.25 633.25L290 633.25C342.25 633.25 375.5 601.25 375.5 550.75L375.5 82.5C375.5 32 342.25 0 290 0L85.25 0C33 0 0 32 0 82.5L0 550.75C0 601.25 33 633.25 85.25 633.25ZM90.75 589C60.25 589 44.25 573.5 44.25 544.25L44.25 89C44.25 59.75 60.25 44.25 90.75 44.25L284.75 44.25C315 44.25 331 59.75 331 89L331 544.25C331 573.5 315 589 284.75 589ZM106.25 289.75L269.25 289.75C287 289.75 297.5 280.25 297.5 264L297.5 107C297.5 90.75 287 81.25 269.25 81.25L106.25 81.25C88.5 81.25 78 90.75 78 107L78 264C78 280.25 88.5 289.75 106.25 289.75ZM98.75 383.75L127.75 383.75C134.5 383.75 139.5 379.25 139.5 372.5L139.5 342.75C139.5 336.25 134.5 331.75 127.75 331.75L98.75 331.75C92 331.75 87.25 336.25 87.25 342.75L87.25 372.5C87.25 379.25 92 383.75 98.75 383.75ZM172.25 383.75L201.25 383.75C208.25 383.75 213.25 379.25 213.25 372.5L213.25 342.75C213.25 336.25 208.25 331.75 201.25 331.75L172.25 331.75C165.75 331.75 161.25 336.25 161.25 342.75L161.25 372.5C161.25 379.25 165.75 383.75 172.25 383.75ZM246 383.75L275 383.75C282 383.75 287 379.25 287 372.5L287 342.75C287 336.25 282 331.75 275 331.75L246 331.75C239.5 331.75 234.75 336.25 234.75 342.75L234.75 372.5C234.75 379.25 239.5 383.75 246 383.75ZM98.75 462.25L127.75 462.25C134.5 462.25 139.5 457.5 139.5 451L139.5 421.25C139.5 414.75 134.5 410.25 127.75 410.25L98.75 410.25C92 410.25 87.25 414.75 87.25 421.25L87.25 451C87.25 457.5 92 462.25 98.75 462.25ZM172.25 462.25L201.25 462.25C208.25 462.25 213.25 457.5 213.25 451L213.25 421.25C213.25 414.75 208.25 410.25 201.25 410.25L172.25 410.25C165.75 410.25 161.25 414.75 161.25 421.25L161.25 451C161.25 457.5 165.75 462.25 172.25 462.25ZM246 462.25L275 462.25C282 462.25 287 457.5 287 451L287 421.25C287 414.75 282 410.25 275 410.25L246 410.25C239.5 410.25 234.75 414.75 234.75 421.25L234.75 451C234.75 457.5 239.5 462.25 246 462.25ZM98.75 540.75L127.75 540.75C134.5 540.75 139.5 536 139.5 529.5L139.5 499.75C139.5 493 134.5 488.5 127.75 488.5L98.75 488.5C92 488.5 87.25 493 87.25 499.75L87.25 529.5C87.25 536 92 540.75 98.75 540.75ZM172.25 540.75L201.25 540.75C208.25 540.75 213.25 536 213.25 529.5L213.25 499.75C213.25 493 208.25 488.5 201.25 488.5L172.25 488.5C165.75 488.5 161.25 493 161.25 499.75L161.25 529.5C161.25 536 165.75 540.75 172.25 540.75ZM246 540.75L275 540.75C282 540.75 287 536 287 529.5L287 499.75C287 493 282 488.5 275 488.5L246 488.5C239.5 488.5 234.75 493 234.75 499.75L234.75 529.5C234.75 536 239.5 540.75 246 540.75Z" fill="black" fill-opacity="0.85"/>
 </g>
</svg>
