<?xml version="1.0" encoding="UTF-8"?>
<!--Generator: Apple Native CoreSVG 326-->
<!DOCTYPE svg
PUBLIC "-//W3C//DTD SVG 1.1//EN"
       "http://www.w3.org/Graphics/SVG/1.1/DTD/svg11.dtd">
<svg version="1.1" xmlns="http://www.w3.org/2000/svg" xmlns:xlink="http://www.w3.org/1999/xlink" viewBox="0 0 621.25 841.75">
 <g>
  <rect height="841.75" opacity="0" width="621.25" x="0" y="0"/>
  <path d="M308.5 45C379.25 45 443 70.25 491.25 114.75C502.5 124.75 515.5 127.5 525.25 118.75C535.5 110 535.5 94.5 524 84C467.25 30.75 391.25 0 308.5 0C226 0 150 30.75 93 84C81.5 94.5 81.5 110 91.75 118.75C101.75 127.5 114.75 124.75 125.75 114.75C174.25 70.25 238 45 308.5 45Z" fill="black" fill-opacity="0.85"/>
  <path d="M309.5 172.75C344.5 172.75 377 183.25 401.25 204.5C413 213.25 425.5 216.75 435.25 208C445.5 199 445.75 182.5 433.5 172.75C399.75 144.5 356.25 128 309.5 128C262.75 128 219.25 144.5 185.5 172.75C173.25 182.5 173.5 199 183.75 208C193.75 216.75 206 213 217.75 204.5C243.25 184.5 274.5 172.75 309.5 172.75Z" fill="black" fill-opacity="0.85"/>
  <path d="M310.75 687.75C375.75 687.75 458.75 685.5 517.5 681.75L517.5 726.25C517.5 745.25 532.5 760.25 551.75 760.25L586.75 760.25C606 760.25 621.25 745.25 621.25 726.25L621.25 576C621.25 530.75 611.75 506.25 588.25 476L565.5 447.25C556 399.5 538.5 349.5 529.5 330.25C515.25 300.5 488.25 283.5 454.5 279.25C437 277 376.75 275.5 310.75 275.5C244.5 275.5 184.25 277 166.75 279.25C133 283.5 106 300.5 91.75 330.25C82.75 349.5 65.25 399.5 55.75 447.25L33 476C9.5 506.25 0 530.75 0 576L0 726.25C0 745.25 15.25 760.25 34.5 760.25L69.5 760.25C88.75 760.25 103.75 745.25 103.75 726.25L103.75 681.75C162.5 685.5 245.5 687.75 310.75 687.75ZM107.5 425.75C114 394.75 126.75 358.5 135.25 343.25C142.75 330.5 151.5 324 167.25 321.75C187.75 319.25 233 317.5 310.75 317.5C388.25 317.5 433.5 318.75 454 321.75C469.75 324 478.25 330.5 486 343.25C494.75 358.25 506.5 394.75 513.75 425.75C516 434.75 512.5 439 502.5 438.5C457.75 435.25 406.5 432.75 310.75 432.75C214.75 432.75 163.5 435.25 118.75 438.5C108.75 439 105.5 434.75 107.5 425.75ZM120.5 616.5C97.5 616.5 80 598.75 80 575.75C80 552.75 97.5 535.75 120.5 535.75C143.5 535.75 160.5 552.75 160.5 575.75C160.5 598.75 143.5 616.5 120.5 616.5ZM242.25 607.25C225 607.25 213 595.75 213 578.5C213 561.25 225 549.75 242.25 549.75L379 549.75C396.25 549.75 408.25 561.25 408.25 578.5C408.25 595.75 396.25 607.25 379 607.25ZM500.75 616.5C477.75 616.5 460.75 598.75 460.75 575.75C460.75 552.75 477.75 535.75 500.75 535.75C523.75 535.75 541.25 552.75 541.25 575.75C541.25 598.75 523.75 616.5 500.75 616.5Z" fill="black" fill-opacity="0.85"/>
 </g>
</svg>
