<?xml version="1.0" encoding="UTF-8"?>
<!--Generator: Apple Native CoreSVG 326-->
<!DOCTYPE svg
PUBLIC "-//W3C//DTD SVG 1.1//EN"
       "http://www.w3.org/Graphics/SVG/1.1/DTD/svg11.dtd">
<svg version="1.1" xmlns="http://www.w3.org/2000/svg" xmlns:xlink="http://www.w3.org/1999/xlink" viewBox="0 0 620.5 854.887">
 <g>
  <rect height="854.887" opacity="0" width="620.5" x="0" y="0"/>
  <path d="M310 697.568C398.5 697.568 514.5 693.068 563.5 687.318C599.25 683.318 620.5 663.818 620.5 629.068L620.5 581.068C620.5 535.818 610.5 510.568 587 480.568L565.5 452.568C555.75 406.068 538.5 357.318 529.5 338.318C515.25 307.568 486.75 290.568 452.75 286.068C435 283.568 377.25 282.068 310 282.068C243 282.068 185.25 283.818 167.5 286.068C133.5 290.318 105 307.568 90.75 338.318C81.5 357.318 64.5 406.068 54.75 452.568L33.25 480.568C9.75 510.568 0 535.818 0 581.068L0 629.068C0 663.818 21 683.318 56.75 687.318C105.75 693.068 221.75 697.568 310 697.568ZM310 659.568C221.25 659.568 107.75 655.818 65 650.568C44.5 647.818 38 639.568 38 620.818L38 581.068C38 546.068 42.75 529.568 63 503.568L90 468.568C97.25 429.318 114.5 377.568 124.75 355.318C133.25 337.318 148.25 326.818 171.75 324.318C188.25 322.068 241.25 319.818 310 319.818C379 319.818 433 322.068 447.75 324.318C472 327.068 487 337.568 495.5 355.318C506 377.568 523 429.318 530.25 468.568L557.25 503.568C577.5 529.568 582.5 546.068 582.5 581.068L582.5 620.818C582.5 639.568 575.75 648.318 555.25 650.568C512.5 655.568 399 659.568 310 659.568ZM119.5 445.568C117.5 453.568 120.75 458.068 130.5 457.318C173.25 454.068 222.5 452.068 310 452.068C397.75 452.068 447 454.068 489.75 457.318C499.5 458.068 502.75 453.568 500.75 445.568C494 415.318 482.25 381.318 474 366.568C467 354.568 458.5 348.318 443.25 346.318C423.75 343.568 380.25 342.068 310 342.068C240 342.068 196.5 343.568 177 346.318C161.75 348.318 153.25 354.568 146.25 366.568C138 381.318 126.25 415.318 119.5 445.568ZM120.75 620.818C143.5 620.818 160.25 603.818 160.25 581.068C160.25 558.568 143.5 541.568 120.75 541.568C98 541.568 81 558.568 81 581.068C81 603.818 98 620.818 120.75 620.818ZM240.5 612.318L379.75 612.318C396.5 612.318 408.25 600.568 408.25 583.818C408.25 567.068 396.5 555.568 379.75 555.568L240.5 555.568C223.75 555.568 212 567.068 212 583.818C212 600.568 223.75 612.318 240.5 612.318ZM499.5 620.818C522.25 620.818 539.25 603.818 539.25 581.068C539.25 558.568 522.25 541.568 499.5 541.568C476.75 541.568 460 558.568 460 581.068C460 603.818 476.75 620.818 499.5 620.818ZM51 766.818L82.25 766.818C101.5 766.818 116.5 752.068 116.5 733.068L116.5 673.318L17.75 659.568L17.75 733.068C17.75 751.818 32.25 766.818 51 766.818ZM537.5 766.818L568.75 766.818C587.75 766.818 602.25 751.818 602.25 733.068L602.25 659.568L503.5 673.318L503.5 733.068C503.5 752.068 518.5 766.818 537.5 766.818Z" fill="black" fill-opacity="0.85"/>
  <path d="M308 168.068C237.25 168.068 173.5 142.818 125.25 98.0684C114 88.3184 101 85.5684 91.25 94.3184C81 103.068 81 118.568 92.5 129.068C149.25 182.318 225.25 212.818 308 212.818C390.5 212.818 466.5 182.318 523.5 129.068C535 118.568 535 103.068 524.75 94.3184C514.75 85.5684 501.75 88.3184 490.75 98.0684C442.25 142.818 378.5 168.068 308 168.068Z" fill="black" fill-opacity="0.85"/>
  <path d="M309 40.3184C273.75 40.3184 242.5 28.5684 217 8.56839C205.25 0.0683892 193-3.68161 183 5.06839C172.75 14.0684 172.5 30.5684 185 40.3184C218.5 68.5684 262.25 85.0684 309 85.0684C355.5 85.0684 399.25 68.5684 432.75 40.3184C445.25 30.5684 445 14.0684 434.75 5.06839C424.75-3.68161 412.25-0.181611 400.75 8.56839C376.5 29.8184 344 40.3184 309 40.3184Z" fill="black" fill-opacity="0.85"/>
 </g>
</svg>
