<?xml version="1.0" encoding="UTF-8"?>
<!--Generator: Apple Native CoreSVG 326-->
<!DOCTYPE svg
PUBLIC "-//W3C//DTD SVG 1.1//EN"
       "http://www.w3.org/Graphics/SVG/1.1/DTD/svg11.dtd">
<svg version="1.1" xmlns="http://www.w3.org/2000/svg" xmlns:xlink="http://www.w3.org/1999/xlink" viewBox="0 0 758.5 844.75">
 <g>
  <rect height="844.75" opacity="0" width="758.5" x="0" y="0"/>
  <path d="M758.5 179.5L758.5 574.75C758.5 615.75 733.5 640.75 692.5 640.75L479.25 640.75L479.25 708L482.5 708C494.75 708 504.75 718 504.75 730.5C504.75 742.75 494.75 752.5 482.5 752.5L276 752.5C263.75 752.5 253.75 742.75 253.75 730.5C253.75 718 263.75 708 276 708L279.25 708L279.25 640.75L66 640.75C25 640.75 0 615.75 0 574.75L0 179.5C0 138.5 25 113.5 66 113.5L301 113.5L301 157.75L67 157.75C53 157.75 44.25 166.5 44.25 180.5L44.25 488.75C44.25 499.5 49 503.75 59 503.75L699.5 503.75C709.5 503.75 714.25 499.5 714.25 488.75L714.25 180.5C714.25 166.5 705.5 157.75 691.5 157.75L457.5 157.75L457.5 113.5L692.5 113.5C733.5 113.5 758.5 138.5 758.5 179.5Z" fill="black" fill-opacity="0.85"/>
  <path d="M379.5 0C367.5 0 357.5 9.75 357.5 21.5L357.5 315.75L359.25 363.25L339.25 342.75L285 285.5C281 281.25 275 279 269.75 279C258.25 279 249.75 287.25 249.75 298.5C249.75 304.25 252.25 308.75 256.25 312.75L363.5 417C369 422.5 373.75 424.25 379.5 424.25C385 424.25 389.75 422.5 395.25 417L502.25 312.75C506.5 308.75 508.75 304.25 508.75 298.5C508.75 287.25 500 279 488.75 279C483.5 279 477.5 281.25 473.75 285.5L419.25 342.75L399.75 363.25L401.25 315.75L401.25 21.5C401.25 9.75 391.25 0 379.5 0Z" fill="black" fill-opacity="0.85"/>
 </g>
</svg>
