<?xml version="1.0" encoding="UTF-8"?>
<!--Generator: Apple Native CoreSVG 326-->
<!DOCTYPE svg
PUBLIC "-//W3C//DTD SVG 1.1//EN"
       "http://www.w3.org/Graphics/SVG/1.1/DTD/svg11.dtd">
<svg version="1.1" xmlns="http://www.w3.org/2000/svg" xmlns:xlink="http://www.w3.org/1999/xlink" viewBox="0 0 704.019 641.25">
 <g>
  <rect height="641.25" opacity="0" width="704.019" x="0" y="0"/>
  <path d="M402.26 320.5C402.26 512.5 462.51 640.75 553.01 640.75C643.76 640.75 704.01 512.5 704.01 320.5C704.01 128.25 643.76 0 553.01 0C462.51 0 402.26 128.25 402.26 320.5ZM446.51 320.5C446.51 155 489.76 44.5 553.01 44.5C616.26 44.5 659.76 155 659.76 320.5C659.76 485.75 616.26 596.5 553.01 596.5C489.76 596.5 446.51 485.75 446.51 320.5ZM240.01 320.5C240.01 518.5 295.51 640.75 427.01 640.75L553.01 640.75L553.01 596.5L427.01 596.5C323.26 596.5 284.26 490.75 284.26 320.5C284.26 150 323.26 44.5 427.01 44.5L553.01 44.5L553.01 0L427.01 0C295.51 0 240.01 122.5 240.01 320.5ZM388.01 129.75L450.26 129.75L450.26 93.25L388.01 93.25C377.76 93.25 369.51 101.5 369.51 111.5C369.51 121.5 377.76 129.75 388.01 129.75ZM365.51 228.75L427.76 228.75L427.76 192L365.51 192C355.26 192 347.01 200.25 347.01 210.25C347.01 220.5 355.26 228.75 365.51 228.75ZM357.26 335.75L419.51 335.75L419.51 299L357.26 299C347.01 299 338.76 307.25 338.76 317.5C338.76 327.5 347.01 335.75 357.26 335.75ZM365.51 442.75L427.76 442.75L427.76 406L365.51 406C355.26 406 347.01 414.25 347.01 424.5C347.01 434.5 355.26 442.75 365.51 442.75ZM388.01 541.5L450.26 541.5L450.26 505L388.01 505C377.76 505 369.51 513.25 369.51 523.25C369.51 533.25 377.76 541.5 388.01 541.5Z" fill="black" fill-opacity="0.85"/>
  <path d="M91.2597 64.25C82.7597 64.25 74.0097 68 70.5097 78.5C50.7597 141.25 39.5097 212.75 39.5097 284C39.5097 355 50.5097 426.5 70.5097 489.25L110.26 476C91.5097 417.5 81.2597 350.75 81.2597 284C81.2597 217.25 91.5097 150.25 110.26 92C116.26 75 104.01 64.25 91.2597 64.25ZM14.0097 467.25C-3.99028 473.75-3.99028 496.25 10.2597 505.5L108.26 567.25C121.01 575.25 135.51 569.5 140.01 555.75L175.26 446C180.51 430 166.76 411.75 148.01 418.5Z" fill="black" fill-opacity="0.85"/>
 </g>
</svg>
