<?xml version="1.0" encoding="UTF-8"?>
<!--Generator: Apple Native CoreSVG 326-->
<!DOCTYPE svg
PUBLIC "-//W3C//DTD SVG 1.1//EN"
       "http://www.w3.org/Graphics/SVG/1.1/DTD/svg11.dtd">
<svg version="1.1" xmlns="http://www.w3.org/2000/svg" xmlns:xlink="http://www.w3.org/1999/xlink" viewBox="0 0 640.75 704.75">
 <g>
  <rect height="704.75" opacity="0" width="640.75" x="0" y="0"/>
  <path d="M320.25 302C512.5 302 640.75 241.5 640.75 151C640.75 60.5 512.5 0 320.25 0C128.25 0 0 60.5 0 151C0 241.5 128.25 302 320.25 302ZM320.25 257.5C155 257.5 44.25 214.25 44.25 151C44.25 87.75 155 44.5 320.25 44.5C485.75 44.5 596.5 87.75 596.5 151C596.5 214.25 485.75 257.5 320.25 257.5ZM320.25 464C518.25 464 640.75 408.5 640.75 277L640.75 151L596.5 151L596.5 277C596.5 381 490.75 419.75 320.25 419.75C150 419.75 44.25 381 44.25 277L44.25 151L0 151L0 277C0 408.5 122.25 464 320.25 464ZM129.75 316L129.75 253.75L93 253.75L93 316C93 326.25 101.25 334.5 111.5 334.5C121.5 334.5 129.75 326.25 129.75 316ZM228.5 338.75L228.5 276.25L192 276.25L192 338.75C192 348.75 200.25 357 210.25 357C220.25 357 228.5 348.75 228.5 338.75ZM335.75 347L335.75 284.5L299 284.5L299 347C299 357 307.25 365.25 317.25 365.25C327.5 365.25 335.75 357 335.75 347ZM442.75 338.75L442.75 276.25L406 276.25L406 338.75C406 348.75 414.25 357 424.25 357C434.5 357 442.75 348.75 442.75 338.75ZM541.5 316L541.5 253.75L504.75 253.75L504.75 316C504.75 326.25 513 334.5 523.25 334.5C533.25 334.5 541.5 326.25 541.5 316Z" fill="black" fill-opacity="0.85"/>
  <path d="M64 613C64 621.25 67.75 630 78.5 633.5C141.25 653.25 212.75 664.5 283.75 664.5C355 664.5 426.5 653.5 489.25 633.5L476 593.75C417.5 612.5 350.5 622.75 283.75 622.75C217 622.75 150.25 612.5 91.75 593.75C75 587.75 64 600 64 613ZM465.5 689.5C471.5 707.5 494.25 708 503.75 693.75L567.75 597.5C575.75 584.75 570.5 570.25 556.5 565.5L447.75 527.5C431.75 522.25 413.5 535.5 419.75 554.5Z" fill="black" fill-opacity="0.85"/>
 </g>
</svg>
