<?xml version="1.0" encoding="UTF-8"?>
<!--Generator: Apple Native CoreSVG 326-->
<!DOCTYPE svg
PUBLIC "-//W3C//DTD SVG 1.1//EN"
       "http://www.w3.org/Graphics/SVG/1.1/DTD/svg11.dtd">
<svg version="1.1" xmlns="http://www.w3.org/2000/svg" xmlns:xlink="http://www.w3.org/1999/xlink" viewBox="0 0 807 641.25">
 <g>
  <rect height="641.25" opacity="0" width="807" x="0" y="0"/>
  <path d="M39.75 320.5C39.75 122.5 95.25 0 226.75 0L353 0C422.627 0 474.348 75.9123 494.369 198.674L454.984 232.904C442.35 117.159 404.086 44.5 353 44.5C289.75 44.5 246.25 155 246.25 320.5C246.25 485.75 289.75 596.5 353 596.5C404.128 596.5 442.412 523.559 455.019 407.729L494.392 442.038C474.39 564.776 422.655 640.75 353 640.75L226.75 640.75C95.25 640.75 39.75 518.5 39.75 320.5ZM270.456 44.5L226.75 44.5C123 44.5 84.25 150 84.25 320.5C84.25 490.75 123 596.5 226.75 596.5L270.652 596.5C258.468 581.877 247.771 563.402 238.762 541.5L187.75 541.5C177.75 541.5 169.5 533.25 169.5 523.25C169.5 513.25 177.75 505 187.75 505L225.524 505C219.784 486.011 215.037 465.25 211.471 442.75L165.25 442.75C155 442.75 146.75 434.5 146.75 424.5C146.75 414.25 155 406 165.25 406L206.529 406C203.988 384 202.554 360.527 202.302 335.75L157 335.75C147 335.75 138.5 327.5 138.5 317.5C138.5 307.25 147 299 157 299L202.426 299C202.858 274.205 204.476 250.741 207.181 228.75L165.25 228.75C155 228.75 146.75 220.5 146.75 210.25C146.75 200.25 155 192 165.25 192L212.417 192C216.325 169.451 221.368 148.607 227.499 129.75L187.75 129.75C177.75 129.75 169.5 121.5 169.5 111.5C169.5 101.5 177.75 93.25 187.75 93.25L241.315 93.25C249.722 74.0775 259.474 57.6962 270.456 44.5Z" fill="black" fill-opacity="0.85"/>
  <path d="M436.25 338.5L531.75 421.75C548.5 436.75 573 428 573 404L573 344L743.5 344C757 344 767 333.75 767 320.75C767 307.25 757 297 743.5 297L573 297L573 236.75C573 213.5 549.25 203.75 531.75 219L436.25 302C424 312.5 423.75 327.75 436.25 338.5Z" fill="black" fill-opacity="0.85"/>
 </g>
</svg>
