<?xml version="1.0" encoding="UTF-8"?>
<!--Generator: Apple Native CoreSVG 326-->
<!DOCTYPE svg
PUBLIC "-//W3C//DTD SVG 1.1//EN"
       "http://www.w3.org/Graphics/SVG/1.1/DTD/svg11.dtd">
<svg version="1.1" xmlns="http://www.w3.org/2000/svg" xmlns:xlink="http://www.w3.org/1999/xlink" viewBox="0 0 640.75 856.75">
 <g>
  <rect height="856.75" opacity="0" width="640.75" x="0" y="0"/>
  <path d="M640.75 580C640.75 711.5 518.25 767 320.25 767C122.25 767 0 711.5 0 580L0 537.25C21.25 562.75 52.75 584 93 600L93 649C93 659.25 101.25 667.5 111.5 667.5C121.5 667.5 129.75 659.25 129.75 649L129.75 612.5C149.5 618.5 170.25 623 192 626.75L192 671.75C192 681.75 200.25 690 210.25 690C220.25 690 228.5 681.75 228.5 671.75L228.5 631.75C251.75 634.5 276.25 636 299 636.25L299 680C299 690 307.25 698.25 317.25 698.25C327.5 698.25 335.75 690 335.75 680L335.75 636.5C355.5 636.25 382.75 634.75 406 632.25L406 671.75C406 681.75 414.25 690 424.25 690C434.5 690 442.75 681.75 442.75 671.75L442.75 627.75C461 624.75 484 620.25 504.75 614.25L504.75 649C504.75 659.25 513 667.5 523.25 667.5C533.25 667.5 541.5 659.25 541.5 649L541.5 602.25C584.75 586 618.5 564 640.75 537.25ZM272 396.75C298 427 341.75 427.5 368.5 397L435.637 319.752C557.165 338.535 632.5 388.207 632.5 454C632.5 538.75 507.5 596.5 320.25 596.5C133 596.5 8.25 538.75 8.25 454C8.25 388.177 83.5014 338.49 205.058 319.727Z" fill="black" fill-opacity="0.85"/>
  <path d="M338.5 370.75L421.5 275C436.5 258.5 428 234 403.75 234L344 234L344 63.25C344 50 333.75 39.75 320.5 39.75C307.25 39.75 297 50 297 63.25L297 234L236.5 234C213.5 234 203.5 257.75 218.75 275L302 370.75C312.5 382.75 327.75 383 338.5 370.75Z" fill="black" fill-opacity="0.85"/>
 </g>
</svg>
