<?xml version="1.0" encoding="UTF-8"?>
<!--Generator: Apple Native CoreSVG 326-->
<!DOCTYPE svg
PUBLIC "-//W3C//DTD SVG 1.1//EN"
       "http://www.w3.org/Graphics/SVG/1.1/DTD/svg11.dtd">
<svg version="1.1" xmlns="http://www.w3.org/2000/svg" xmlns:xlink="http://www.w3.org/1999/xlink" viewBox="0 0 640.75 696.25">
 <g>
  <rect height="696.25" opacity="0" width="640.75" x="0" y="0"/>
  <path d="M320.25 285.25C507.5 285.25 632.5 227.5 632.5 142.75C632.5 57.75 507.5 0 320.25 0C133 0 8.25 57.75 8.25 142.75C8.25 227.5 133 285.25 320.25 285.25ZM320.25 455.75C518.25 455.75 640.75 400.25 640.75 268.75L640.75 226C618.5 252.75 584.75 274.75 541.5 291L541.5 337.75C541.5 348 533.25 356.25 523.25 356.25C513 356.25 504.75 348 504.75 337.75L504.75 303C484 309 461 313.5 442.75 316.25L442.75 360.5C442.75 370.5 434.5 378.75 424.25 378.75C414.25 378.75 406 370.5 406 360.5L406 321C382.75 323.25 355.5 325 335.75 325.25L335.75 368.5C335.75 378.75 327.5 387 317.25 387C307.25 387 299 378.75 299 368.5L299 325C276.25 324.75 251.75 323 228.5 320.5L228.5 360.5C228.5 370.5 220.25 378.75 210.25 378.75C200.25 378.75 192 370.5 192 360.5L192 315.25C170.25 311.75 149.5 307.25 129.75 301.25L129.75 337.75C129.75 348 121.5 356.25 111.5 356.25C101.25 356.25 93 348 93 337.75L93 288.75C52.75 272.75 21.25 251.5 0 226L0 268.75C0 400.25 122.25 455.75 320.25 455.75Z" fill="black" fill-opacity="0.85"/>
  <path d="M61 599.75C61 608.25 64.75 616.5 74.5 620C140.5 643.75 209.25 656.25 284 656.25C358.75 656.25 427.5 644 493.5 620L479.25 580.5C418 603.25 354 614.5 284 614.5C214 614.5 150 603.25 88.75 580.5C72 574.25 61 586.75 61 599.75ZM468.75 681.25C475 699 497.5 699.5 507 685.5L571 589C579 576.5 573.75 562 560 557.25L451.25 519C435.25 513.75 416.75 527.25 423.25 546.25Z" fill="black" fill-opacity="0.85"/>
 </g>
</svg>
