<?xml version="1.0" encoding="UTF-8"?>
<!--Generator: Apple Native CoreSVG 326-->
<!DOCTYPE svg
PUBLIC "-//W3C//DTD SVG 1.1//EN"
       "http://www.w3.org/Graphics/SVG/1.1/DTD/svg11.dtd">
<svg version="1.1" xmlns="http://www.w3.org/2000/svg" xmlns:xlink="http://www.w3.org/1999/xlink" viewBox="0 0 640.75 705.869">
 <g>
  <rect height="705.869" opacity="0" width="640.75" x="0" y="0"/>
  <path d="M320.25 302.559C512.5 302.559 640.75 242.059 640.75 151.559C640.75 61.0594 512.5 0.559435 320.25 0.559435C128.25 0.559435 0 61.0594 0 151.559C0 242.059 128.25 302.559 320.25 302.559ZM320.25 258.059C155 258.059 44.25 214.809 44.25 151.559C44.25 88.3094 155 45.0594 320.25 45.0594C485.75 45.0594 596.5 88.3094 596.5 151.559C596.5 214.809 485.75 258.059 320.25 258.059ZM320.25 464.559C518.25 464.559 640.75 409.059 640.75 277.559L640.75 151.559L596.5 151.559L596.5 277.559C596.5 381.559 490.75 420.309 320.25 420.309C150 420.309 44.25 381.559 44.25 277.559L44.25 151.559L0 151.559L0 277.559C0 409.059 122.25 464.559 320.25 464.559ZM129.75 316.559L129.75 254.309L93 254.309L93 316.559C93 326.809 101.25 335.059 111.5 335.059C121.5 335.059 129.75 326.809 129.75 316.559ZM228.5 339.309L228.5 276.809L192 276.809L192 339.309C192 349.309 200.25 357.559 210.25 357.559C220.25 357.559 228.5 349.309 228.5 339.309ZM335.75 347.559L335.75 285.059L299 285.059L299 347.559C299 357.559 307.25 365.809 317.25 365.809C327.5 365.809 335.75 357.559 335.75 347.559ZM442.75 339.309L442.75 276.809L406 276.809L406 339.309C406 349.309 414.25 357.559 424.25 357.559C434.5 357.559 442.75 349.309 442.75 339.309ZM541.5 316.559L541.5 254.309L504.75 254.309L504.75 316.559C504.75 326.809 513 335.059 523.25 335.059C533.25 335.059 541.5 326.809 541.5 316.559Z" fill="black" fill-opacity="0.85"/>
  <path d="M570.75 613.559C570.75 600.559 559.75 588.309 543 594.309C484.5 613.059 417.75 623.309 351 623.309C284.25 623.309 217.25 613.059 158.75 594.309L145.5 634.059C208.25 654.059 279.75 665.059 351 665.059C422 665.059 493.5 653.809 556.25 634.059C567 630.559 570.75 621.809 570.75 613.559ZM169.25 691.809L214.75 556.559C221.25 537.809 202.75 524.309 186.75 529.809L78 567.809C64 572.559 58.75 587.059 67 599.809L131 695.809C140.25 710.059 163 709.559 169.25 691.809Z" fill="black" fill-opacity="0.85"/>
 </g>
</svg>
