<?xml version="1.0" encoding="UTF-8"?>
<!--Generator: Apple Native CoreSVG 326-->
<!DOCTYPE svg
PUBLIC "-//W3C//DTD SVG 1.1//EN"
       "http://www.w3.org/Graphics/SVG/1.1/DTD/svg11.dtd">
<svg version="1.1" xmlns="http://www.w3.org/2000/svg" xmlns:xlink="http://www.w3.org/1999/xlink" viewBox="0 0 758.5 660.25">
 <g>
  <rect height="660.25" opacity="0" width="758.5" x="0" y="0"/>
  <path d="M66 548.5L692.5 548.5C733.5 548.5 758.5 523.5 758.5 482.5L758.5 87.25C758.5 46.25 733.5 21.25 692.5 21.25L66 21.25C25 21.25 0 46.25 0 87.25L0 482.5C0 523.5 25 548.5 66 548.5ZM67 504.25C53 504.25 44.25 495.5 44.25 481.5L44.25 88.25C44.25 74.25 53 65.5 67 65.5L691.5 65.5C705.5 65.5 714.25 74.25 714.25 88.25L714.25 481.5C714.25 495.5 705.5 504.25 691.5 504.25ZM279.25 628.25L479.25 628.25L479.25 544.5L279.25 544.5ZM276 660.25L482.5 660.25C494.75 660.25 504.75 650.5 504.75 638.25C504.75 625.75 494.75 615.75 482.5 615.75L276 615.75C263.75 615.75 253.75 625.75 253.75 638.25C253.75 650.5 263.75 660.25 276 660.25Z" fill="black" fill-opacity="0.85"/>
  <path d="M379.25 416.75C452.25 416.75 511.25 357.5 511.25 285C511.25 212 452.25 152.5 379.25 152.5C306.75 152.5 247.25 212 247.25 285C247.25 357.5 306.75 416.75 379.25 416.75ZM379.25 390C320.75 390 275 344 275 285C275 225.75 320.75 179.5 379.25 179.5C437.75 179.5 483.75 225.75 483.75 285C483.75 344 438 390 379.25 390ZM379 119.5C372.25 119.5 366.5 125.25 366.5 132L366.5 213.25C366.5 220.75 372.25 226.25 379 226.25C386.25 226.25 391.75 220.5 391.75 213.25L391.75 132C391.75 125.25 386.5 119.5 379 119.5ZM450.5 297.5L531.75 297.5C538.75 297.5 544.5 291.75 544.5 285C544.5 277.75 538.75 272.25 531.75 272.25L450.5 272.25C443.75 272.25 438 277.5 438 285C438 291.75 443.75 297.5 450.5 297.5ZM379.5 450C386.75 450 392 444.25 392 437.25L392 356C392 349 387 343.5 379.5 343.5C372.5 343.5 367 349 367 356L367 437.25C367 444.5 372.5 450 379.5 450ZM227 297.5L308.25 297.5C315.25 297.5 320.75 291.75 320.75 285C320.75 277.5 315.25 272.25 308.25 272.25L227 272.25C219.75 272.25 214.25 277.75 214.25 285C214.25 291.75 219.5 297.5 227 297.5ZM379.5 305C390.75 305 399.75 296 399.75 284.75C399.75 273.5 390.75 264.5 379.5 264.5C368 264.5 359 273.5 359 284.75C359 296 368 305 379.5 305Z" fill="black" fill-opacity="0.85"/>
 </g>
</svg>
