<?xml version="1.0" encoding="UTF-8"?>
<!--Generator: Apple Native CoreSVG 326-->
<!DOCTYPE svg
PUBLIC "-//W3C//DTD SVG 1.1//EN"
       "http://www.w3.org/Graphics/SVG/1.1/DTD/svg11.dtd">
<svg version="1.1" xmlns="http://www.w3.org/2000/svg" xmlns:xlink="http://www.w3.org/1999/xlink" viewBox="0 0 853.5 573.75">
 <g>
  <rect height="573.75" opacity="0" width="853.5" x="0" y="0"/>
  <path d="M243 573.5L277 573.5C302 573.5 316.25 559.5 316.25 534.5L316.25 367.75C316.25 330.5 326.25 311.25 357.75 283.75C391.25 254.5 412.75 213.5 412.75 166C412.75 81.75 344.75 13.5 260 13.5C175.5 13.5 107.25 81.75 107.25 166C107.25 213.5 129 254.5 162.5 283.75C194 311.25 203.75 330.5 203.75 367.75L203.75 534.5C203.75 559.5 218.25 573.5 243 573.5ZM294.5 204.5C285.75 204.5 278.75 197.5 278.75 188.75L278.75 126.5C278.75 118 285.75 111.25 294.5 111.25C303 111.25 309.75 118 309.75 126.5L309.75 188.75C309.75 197.5 303 204.5 294.5 204.5ZM585.5 573.5L619.25 573.5C644.25 573.5 658.5 559.5 658.5 534.5L658.5 367.75C658.5 329.75 670.25 311 697.25 286.25C622 273.5 564.5 207.75 564.5 129.25C564.5 83.75 584 42.5 614.75 13.5C605.5 13.5 603.75 13.5 602.5 13.5C517.75 13.5 449.75 81.75 449.75 166C449.75 213.5 471.25 254.5 504.75 283.75C536.25 311.25 546.25 330.5 546.25 367.75L546.25 534.5C546.25 559.5 560.5 573.5 585.5 573.5Z" fill="black" fill-opacity="0.85"/>
  <path d="M0 129.25C0 191 43.25 242.75 101 255.75C86.25 229 77.5 198.75 77.5 166.25C77.5 97.75 115.5 38 171.25 6.75C158.25 2.5 144.25 0 129.75 0C58.25 0 0 58 0 129.25ZM724.25 259C795.5 259 853.5 200.75 853.5 129.25C853.5 58 795.5 0 724.25 0C652.5 0 594.5 58 594.5 129.25C594.5 200.75 652.5 259 724.25 259ZM791.5 184C776 184 763.75 160.25 763.75 129.25C763.75 98.5 776 75 791.5 75C806.75 75 818.75 98.5 818.75 129.25C818.75 160.25 806.75 184 791.5 184Z" fill="black" fill-opacity="0.425"/>
 </g>
</svg>
