<?xml version="1.0" encoding="UTF-8"?>
<!--Generator: Apple Native CoreSVG 326-->
<!DOCTYPE svg
PUBLIC "-//W3C//DTD SVG 1.1//EN"
       "http://www.w3.org/Graphics/SVG/1.1/DTD/svg11.dtd">
<svg version="1.1" xmlns="http://www.w3.org/2000/svg" xmlns:xlink="http://www.w3.org/1999/xlink" viewBox="0 0 760 505.75">
 <g>
  <rect height="505.75" opacity="0" width="760" x="0" y="0"/>
  <path d="M197.75 505.75L562.25 505.75C695 505.75 760 443.75 760 317.5L760 190.25C760 62.75 697 0.5 568.75 0.5L191.5 0.5C63 0.5 0 62.75 0 190.25L0 317.5C0 443.75 65 505.75 197.75 505.75ZM197.75 461.5C93.25 461.5 44.25 416 44.25 317.5L44.25 190.25C44.25 91 91 44.75 191.5 44.75L568.75 44.75C669.25 44.75 715.75 91 715.75 190.25L715.75 317.5C715.75 416 667 461.5 562.25 461.5ZM22.5 212.5L737.75 212.5L737.75 183.25L22.5 183.25ZM380 327.75C396.5 327.75 409.75 314.25 409.75 298C409.75 281.5 396.5 268.25 380 268.25C363.75 268.25 350.25 281.5 350.25 298C350.25 314.25 363.75 327.75 380 327.75Z" fill="black" fill-opacity="0.85"/>
 </g>
</svg>
