<?xml version="1.0" encoding="UTF-8"?>
<!--Generator: Apple Native CoreSVG 326-->
<!DOCTYPE svg
PUBLIC "-//W3C//DTD SVG 1.1//EN"
       "http://www.w3.org/Graphics/SVG/1.1/DTD/svg11.dtd">
<svg version="1.1" xmlns="http://www.w3.org/2000/svg" xmlns:xlink="http://www.w3.org/1999/xlink" viewBox="0 0 760 505.75">
 <g>
  <rect height="505.75" opacity="0" width="760" x="0" y="0"/>
  <path d="M197.75 505.25L562.25 505.25C695 505.25 760 443.5 760 317L760 212.25L0 212.25L0 317C0 443.5 65 505.25 197.75 505.25ZM380 327.5C363.75 327.5 350.25 314.25 350.25 297.75C350.25 281.5 363.75 268 380 268C396.5 268 409.75 281.5 409.75 297.75C409.75 314.25 396.5 327.5 380 327.5ZM0 183.25L760 183.25L760 173C760 57.5 690.75 0 562.75 0L197.75 0C70 0 0 57.5 0 173Z" fill="black" fill-opacity="0.85"/>
 </g>
</svg>
