<?xml version="1.0" encoding="UTF-8"?>
<!--Generator: Apple Native CoreSVG 326-->
<!DOCTYPE svg
PUBLIC "-//W3C//DTD SVG 1.1//EN"
       "http://www.w3.org/Graphics/SVG/1.1/DTD/svg11.dtd">
<svg version="1.1" xmlns="http://www.w3.org/2000/svg" xmlns:xlink="http://www.w3.org/1999/xlink" viewBox="0 0 623 616.25">
 <g>
  <rect height="616.25" opacity="0" width="623" x="0" y="0"/>
  <path d="M138 254.25C211.75 254.75 274.25 197 274.25 126.75C274.25 57.25 211.75 0 138 0C73.5 0 31 38.75 9.25 71C2.75 81 0 91.75 0 103.5L0 150.5C0 162.75 3 173.25 9.25 183C30.5 215.5 73.5 253.25 138 254.25ZM56.25 176C48.5 176 42.5 170 42.5 162L42.5 91.75C42.5 84 48.5 78.25 56.25 78.25C64.25 78.25 70.25 84 70.25 91.75L70.25 162C70.25 170 64.25 176 56.25 176ZM185.25 500.75L212.5 500.75C231 500.75 242 491.5 242 474L242 249.25C218 267.75 188 280 155.75 283L155.75 474C155.75 491.5 167.25 500.75 185.25 500.75ZM184.5 615.25L213.5 615.25L213.5 468L184.5 468ZM484.75 254.25C549.5 253.25 592.5 215.5 613.5 183C620 173.25 623 162.75 623 150.5L623 103.5C623 91.75 620.25 81 613.5 71C592 38.75 549.5 0 484.75 0C411.25 0 348.75 57.25 348.75 126.75C348.75 197 411.25 254.75 484.75 254.25ZM566.5 176C558.75 176 552.75 170 552.75 162L552.75 91.75C552.75 84 558.75 78.25 566.5 78.25C574.5 78.25 580.25 84 580.25 91.75L580.25 162C580.25 170 574.5 176 566.5 176ZM410.5 500.75L437.5 500.75C455.5 500.75 467 491.5 467 474L467 283C435 280 405 267.75 380.75 249.25L380.75 474C380.75 491.5 392 500.75 410.5 500.75ZM438.5 615.25L438.5 468L409.25 468L409.25 615.25Z" fill="black" fill-opacity="0.85"/>
 </g>
</svg>
