<?xml version="1.0" encoding="UTF-8"?>
<!--Generator: Apple Native CoreSVG 326-->
<!DOCTYPE svg
PUBLIC "-//W3C//DTD SVG 1.1//EN"
       "http://www.w3.org/Graphics/SVG/1.1/DTD/svg11.dtd">
<svg version="1.1" xmlns="http://www.w3.org/2000/svg" xmlns:xlink="http://www.w3.org/1999/xlink" viewBox="0 0 651.25 651.75">
 <g>
  <rect height="651.75" opacity="0" width="651.25" x="0" y="0"/>
  <path d="M325.5 651.25C505.25 651.25 651.25 505.5 651.25 325.75C651.25 146 505.25 0 325.5 0C145.75 0 0 146 0 325.75C0 505.5 145.75 651.25 325.5 651.25ZM325.5 604.75C171.25 604.75 46.5 480 46.5 325.75C46.5 171.5 171.25 46.75 325.5 46.75C479.75 46.75 604.5 171.5 604.5 325.75C604.5 480 479.75 604.75 325.5 604.75Z" fill="black" fill-opacity="0.85"/>
  <path d="M168 441.75C186.75 441.75 200.75 434.5 212.75 419.75L240.25 386.75C244.25 381.75 248.5 379.5 253.5 379.5L397.25 379.5C402 379.5 406.5 381.75 410.25 386.75L437.75 419.75C449.75 434.5 463.75 441.75 482.75 441.75C515.25 441.75 537.25 420 537.25 386.5C537.25 372.25 533.75 355.75 528 336C518.75 306 503 264.75 487.75 232.25C475 206.25 469 195 438.75 188C410.25 181.75 371.75 177.5 325.25 177.5C279 177.5 240.25 181.75 211.75 188C181.5 195 175.5 206.25 163 232.25C147.75 264.75 132 306 122.75 336C117 355.75 113.25 372.25 113.25 386.5C113.25 420 135.25 441.75 168 441.75ZM202.25 279.75C202.25 272.75 206.75 268 214.25 268L243 268L243 239.25C243 231.75 247.25 227 254.5 227C261.5 227 266 231.75 266 239.25L266 268L293.75 268C301.5 268 306.5 272.75 306.5 279.75C306.5 287 301.5 291.75 293.75 291.75L266 291.75L266 321C266 328 261.5 332.5 254.5 332.5C247.25 332.5 243 328 243 321L243 291.75L214.25 291.75C206.75 291.75 202.25 287 202.25 279.75ZM419 277.25C407.75 277.25 398 268 398 256C398 244.75 407.75 235.25 419 235.25C431 235.25 440.25 244.75 440.25 256C440.25 268 431 277.25 419 277.25ZM373.5 322.5C362 322.5 352.5 313.25 352.5 301.5C352.5 290 362 280.75 373.5 280.75C385.25 280.75 394.5 290 394.5 301.5C394.5 313.25 385.25 322.5 373.5 322.5Z" fill="black" fill-opacity="0.85"/>
 </g>
</svg>
