<?xml version="1.0" encoding="UTF-8"?>
<!--Generator: Apple Native CoreSVG 326-->
<!DOCTYPE svg
PUBLIC "-//W3C//DTD SVG 1.1//EN"
       "http://www.w3.org/Graphics/SVG/1.1/DTD/svg11.dtd">
<svg version="1.1" xmlns="http://www.w3.org/2000/svg" xmlns:xlink="http://www.w3.org/1999/xlink" viewBox="0 0 651.25 651.75">
 <g>
  <rect height="651.75" opacity="0" width="651.25" x="0" y="0"/>
  <path d="M651.25 326C651.25 505.5 505 651.75 325.5 651.75C146.25 651.75 0 505.5 0 326C0 146.75 146.25 0.5 325.5 0.5C505 0.5 651.25 146.75 651.25 326ZM148.25 325.5C148.25 385.25 162.75 434.5 188 478.5C193.5 488 203.25 492.25 212.75 489.5C221.25 498 233.75 501.25 247.25 496.75C268.25 491 278 473 271.75 452.25L247.25 369.75C241 348.75 223.25 339 202 345.25C196.75 346.75 192 349 188.25 352C187.25 343.5 187 334.75 187 325.5C187 234.5 242.75 173.75 325.75 173.75C409.25 173.75 465 234.75 465 325.5C465 334.75 464.5 343.75 463.75 352.5C459.75 349.25 455 346.75 449.25 345.25C428.5 339 410.75 348.75 404.75 369.75L379.75 452.5C373.75 473.25 383.25 491 404.25 496.75C418 501 430.25 498 438.75 489.5C448.25 492.25 458.25 488 463.75 478.5C489.5 433.5 504 384.5 504 325.5C504 211.25 432.5 134.75 325.75 134.75C219.25 134.75 148.25 211 148.25 325.5Z" fill="black" fill-opacity="0.85"/>
 </g>
</svg>
