<?xml version="1.0" encoding="UTF-8"?>
<!--Generator: Apple Native CoreSVG 326-->
<!DOCTYPE svg
PUBLIC "-//W3C//DTD SVG 1.1//EN"
       "http://www.w3.org/Graphics/SVG/1.1/DTD/svg11.dtd">
<svg version="1.1" xmlns="http://www.w3.org/2000/svg" xmlns:xlink="http://www.w3.org/1999/xlink" viewBox="0 0 800.75 814.25">
 <g>
  <rect height="814.25" opacity="0" width="800.75" x="0" y="0"/>
  <path d="M448.424 104.25L404.59 104.25C399.161 89.5844 386.119 81.5 366.5 81.5L123 81.5C96.25 81.5 81.75 96.25 81.75 122L81.75 492.25C81.75 518 96.25 532.5 123 532.5L256.5 532.5L256.5 574.5L120.5 574.5C68 574.5 39.75 546.5 39.75 493.75L39.75 120.75C39.75 67.75 68.25 39.5 120.5 39.5L369 39.5C415.514 39.5 443.009 61.8884 448.424 104.25ZM256.5 271.099L256.5 337.152C252.769 336.217 248.828 335.75 244.75 335.75C217 335.75 196 357 196 383.75C196 410.5 216.75 431.5 244.75 431.5C248.836 431.5 252.776 431.045 256.5 430.133L256.5 495.66C252.641 496.051 248.721 496.25 244.75 496.25C181.25 496.25 131 445.75 131 383.5C131 321.25 181.5 270.5 244.75 270.5C248.72 270.5 252.64 270.702 256.5 271.099ZM289.205 136.983C282.214 143.989 276.299 152.075 271.613 161.263C265.619 152.911 255.861 147.5 244.75 147.5C226 147.5 211.25 162.5 211.25 181C211.25 199.5 226 214 244.75 214C249.239 214 253.507 213.146 257.39 211.574C256.768 217.144 256.5 222.978 256.5 229L256.5 242.349C252.702 243.116 248.77 243.5 244.75 243.5C210 243.5 182.25 215.25 182.25 181C182.25 146.5 210 118.25 244.75 118.25C262.143 118.25 277.883 125.43 289.205 136.983Z" fill="black" fill-opacity="0.85"/>
  <path d="M296.25 229L296.25 689.75C296.25 745.25 324.25 774.25 379.75 774.25L677.25 774.25C732.75 774.25 760.75 745.25 760.75 689.75L760.75 229C760.75 173 732.75 144.25 677.25 144.25L379.75 144.25C324 144.25 296.25 173 296.25 229ZM340.5 229.25C340.5 202.25 354.25 188.5 381.25 188.5L675.5 188.5C702.75 188.5 716.5 202.25 716.5 229.25L716.5 689.5C716.5 716.25 702.5 730 675.5 730L381.25 730C354.25 730 340.5 716.25 340.5 689.5ZM528.25 377.5C567 377.5 598.5 346.25 598.5 307.75C598.5 269.25 567.25 238.75 528.25 238.75C490 238.75 458.75 268.75 458.75 307.75C458.75 346.75 489.75 377.5 528.25 377.5ZM528.25 345.5C507.5 345.5 491 328.5 491 307.75C491 286.25 507.25 270.25 528.25 270.25C549.25 270.25 566.25 287.25 566.25 307.75C566.25 328.5 549.25 345.5 528.25 345.5ZM528.25 680.25C598.75 680.25 655.5 624 655.5 553.25C655.5 482.75 598.75 426.5 528.25 426.5C458.25 426.5 401.5 483 401.5 553.25C401.5 623.75 458.25 680.25 528.25 680.25ZM528.25 608C498.25 608 473.75 584 473.75 553.25C473.75 522 497.75 498 528.25 498C559.5 498 583.5 522 583.5 553.25C583.5 584 559.5 608 528.25 608Z" fill="black" fill-opacity="0.85"/>
 </g>
</svg>
