<?xml version="1.0" encoding="UTF-8"?>
<!--Generator: Apple Native CoreSVG 326-->
<!DOCTYPE svg
PUBLIC "-//W3C//DTD SVG 1.1//EN"
       "http://www.w3.org/Graphics/SVG/1.1/DTD/svg11.dtd">
<svg version="1.1" xmlns="http://www.w3.org/2000/svg" xmlns:xlink="http://www.w3.org/1999/xlink" viewBox="0 0 758.25 659.75">
 <g>
  <rect height="659.75" opacity="0" width="758.25" x="0" y="0"/>
  <path d="M621.75 87.5L621.75 571.75C621.75 629.75 592.75 659.5 535.25 659.5L223 659.5C165.5 659.5 136.25 629.75 136.25 571.75L136.25 494.5L180.75 494.5L180.75 571.25C180.75 599.75 195.75 615.25 224.75 615.25L533.5 615.25C562.25 615.25 577.5 599.75 577.5 571.25L577.5 88.25C577.5 59.25 562.75 44.25 533.5 44.25L224.75 44.25C195.5 44.25 180.75 59.25 180.75 88.25L180.75 362.25L136.25 362.25L136.25 87.5C136.25 29.5 165.25 0 223 0L535.25 0C592.75 0 621.75 29.5 621.75 87.5ZM451.5 170.75C452 211 419 242.75 379 242.75C339 242.75 306.75 211 306.75 170.75C306.75 130.5 339.25 98.5 379 99C419.25 99.5 451.25 130.75 451.5 170.75ZM338.5 170.75C338.5 193 356.5 211.5 379 211.5C401.5 211.5 419.75 193 419.75 170.75C419.75 148.5 401.25 130.25 379 130.25C356.5 130.25 338.5 147.5 338.5 170.75Z" fill="black" fill-opacity="0.85"/>
  <path d="M66.5 450.25L356.25 450.25L395.75 448.75L376 467.5L325.75 515C321.25 518.75 319 524.5 319 530C319 541.25 327.25 550 338.5 550C344.25 550 348.75 547.75 353 543.5L449.5 444.25C454.75 439 456.75 434 456.75 428.5C456.75 422.75 454.75 418 449.5 412.5L353 313.25C348.75 309 344.25 306.75 338.5 306.75C327.25 306.75 319 315.25 319 326.75C319 332.25 321.25 338 325.75 341.75L376 389.25L395.75 408.25L356.25 406.75L66.5 406.5C54.75 406.5 45 416.5 45 428.5C45 440.25 54.75 450.25 66.5 450.25Z" fill="black" fill-opacity="0.85"/>
 </g>
</svg>
