<?xml version="1.0" encoding="UTF-8"?>
<!--Generator: Apple Native CoreSVG 326-->
<!DOCTYPE svg
PUBLIC "-//W3C//DTD SVG 1.1//EN"
       "http://www.w3.org/Graphics/SVG/1.1/DTD/svg11.dtd">
<svg version="1.1" xmlns="http://www.w3.org/2000/svg" xmlns:xlink="http://www.w3.org/1999/xlink" viewBox="0 0 846.25 825.25">
 <g>
  <rect height="825.25" opacity="0" width="846.25" x="0" y="0"/>
  <path d="M478 114.25L478 221.5L436.25 221.5L436.25 115.5C436.25 92.75 423 80 400 80L117.75 80C94.75 80 81.5 92.75 81.5 115.5L81.5 539.75C81.5 562.75 94.75 575.5 117.75 575.5L240.75 575.5L240.75 617.25L115.25 617.25C66.75 617.25 39.75 590.5 39.75 541L39.75 114.25C39.75 65 66.75 38.25 115.25 38.25L402.5 38.25C451.25 38.25 478 65 478 114.25ZM259.96 295.298C249.007 316.104 243.932 339.68 241.934 365.853C221.701 372.72 207.75 391.682 207.75 414.25C207.75 436.567 221.157 455.118 240.75 462.249L240.75 531.99C183.254 523.461 139.75 474.498 139.75 414.25C139.75 348 192.75 295.25 259 295.25C259.324 295.25 259.648 295.251 259.96 295.298ZM323.75 191C323.75 226.75 295 255.75 259 255.75C223 255.75 194 227 194 191C194 155 223 126.25 259 126.25C295 126.25 323.75 155 323.75 191ZM224.75 191C224.75 209.75 240 225 259 225C277.75 225 293 209.75 293 191C293 172.25 277.5 156.75 259 156.75C239.75 156.75 224.75 171.75 224.75 191Z" fill="black" fill-opacity="0.85"/>
  <path d="M419.75 785.25L667.5 785.25C714.75 785.25 750.75 780.5 776.25 755C801.75 729 806.25 693.75 806.25 646.25L806.25 400.5C806.25 353 801.75 317.5 776.25 292C750.5 266.5 714.75 261.5 667.5 261.5L418.5 261.5C372.75 261.5 336.75 266.75 311.25 292.25C285.5 317.75 280.75 353.25 280.75 399.25L280.75 646.25C280.75 693.75 285.5 729.25 311.25 755C336.75 780.5 372.5 785.25 419.75 785.25ZM420.75 464C420 443.75 436.75 423.75 458.75 422.5C460.25 442.25 443 466.5 420.75 464ZM496.25 559C492.25 573.25 483 589.75 470.75 601.5C467.25 605 462 607.5 455 607.5C448.75 607.5 445 605.25 439.25 603.5C436 602.5 431 599.75 425.25 599.75C411.5 599.75 405.5 608 394.5 608C386.75 608 380.5 603.5 372.5 594.25C356.75 576.5 346 548.75 346 525C346 510 349.75 496.25 359.25 484.75C367 475 378.75 469 393.25 469C406.5 469 414.5 477.25 421.5 477.25C430 477.25 439.5 468.75 456.75 468.75C471.5 468.75 484 474.75 492 486.5C481.25 492.75 477 500.25 475 506.5C471.75 515.75 470.75 526.75 475 537.75C479.25 547.75 485.75 554.5 496.25 559ZM571.25 436L571.25 468.75L597.5 468.75L597.5 490.5L571.25 490.5L571.25 566.75C571.25 579.25 576.75 584.25 588 584.25C590.75 584.25 595.75 584.25 597.25 583.25L597.25 606.5C594.75 606.75 588 607.5 582 607.5C553.75 607.5 542.75 597.75 542.75 570L542.75 490.5L523.5 490.5L523.5 468.75L542.75 468.75L542.75 436ZM691 606.5L661.25 606.5L610.5 468.75L640.5 468.75L676 579.25L709.75 468.75L740.75 468.75Z" fill="black" fill-opacity="0.85"/>
 </g>
</svg>
