<?xml version="1.0" encoding="UTF-8"?>
<!--Generator: Apple Native CoreSVG 326-->
<!DOCTYPE svg
PUBLIC "-//W3C//DTD SVG 1.1//EN"
       "http://www.w3.org/Graphics/SVG/1.1/DTD/svg11.dtd">
<svg version="1.1" xmlns="http://www.w3.org/2000/svg" xmlns:xlink="http://www.w3.org/1999/xlink" viewBox="0 0 485.5 659.75">
 <g>
  <rect height="659.75" opacity="0" width="485.5" x="0" y="0"/>
  <path d="M0 87.5L0 571.75C0 629.75 29.25 659.5 86.75 659.5L398.75 659.5C456.25 659.5 485.5 629.75 485.5 571.75L485.5 87.5C485.5 29.5 456.5 0 398.75 0L86.75 0C29 0 0 29.5 0 87.5ZM44.25 88.25C44.25 59.25 59.25 44.25 88.25 44.25L397.25 44.25C426.25 44.25 441.25 59.25 441.25 88.25L441.25 571.25C441.25 599.75 426 615.25 397.25 615.25L88.25 615.25C59.5 615.25 44.25 599.75 44.25 571.25ZM242.75 560.75C316 560.75 375 502.25 375 428.5C375 354.75 316 296.5 242.75 296.25C169.5 295.75 110.5 354.75 110.5 428.5C110.5 502.25 169.5 560.75 242.75 560.75ZM242.75 487C210.5 487 184 461 184 428.5C184 395 209.75 369.5 242.75 369.5C275.75 369.5 301.5 395 301.5 428.5C301.5 461 275.75 487 242.75 487ZM242.75 242.75C282.75 242.75 315.5 211 315 170.75C314.75 130.75 282.75 99.5 242.75 99C202.75 98.5 170.5 130.5 170.5 170.75C170.5 211 202.75 242.75 242.75 242.75ZM242.75 211.5C220.25 211.5 202 193 202 170.75C202 147.5 220 130.25 242.75 130.25C264.75 130.25 283.5 148.5 283.5 170.75C283.5 193 265.25 211.5 242.75 211.5Z" fill="black" fill-opacity="0.85"/>
 </g>
</svg>
