<?xml version="1.0" encoding="UTF-8"?>
<!--Generator: Apple Native CoreSVG 326-->
<!DOCTYPE svg
PUBLIC "-//W3C//DTD SVG 1.1//EN"
       "http://www.w3.org/Graphics/SVG/1.1/DTD/svg11.dtd">
<svg version="1.1" xmlns="http://www.w3.org/2000/svg" xmlns:xlink="http://www.w3.org/1999/xlink" viewBox="0 0 848 824.25">
 <g>
  <rect height="824.25" opacity="0" width="848" x="0" y="0"/>
  <path d="M479.107 94.0083C413.986 102.58 364.682 124.169 325.02 160.87C319.159 130.112 292.18 106.75 259.75 106.75C223 106.75 193.25 136.75 193.25 173.5C193.25 209.75 223 239.75 259.75 239.75C264.044 239.75 268.243 239.34 272.298 238.522C267.267 251.805 263.242 266.518 260.518 282.789C260.268 282.751 260.009 282.75 259.75 282.75C191.75 282.75 136.75 337.75 136.75 406C136.75 472.818 189.855 527.084 256.25 528.824L256.25 580.75C256.25 586.01 256.35 591.181 256.842 596L111 596C65.25 596 40 570.75 40 524.75L40 107.75C40 61.75 65.25 36.5 111 36.5L409 36.5C449.947 36.5 474.473 56.7269 479.107 94.0083ZM256.25 459.074C227.895 457.33 205.75 433.827 205.75 405.25C205.75 376.192 227.895 352.901 256.25 351.175ZM296.5 173.5C296.5 193.5 280.25 210 259.75 210C239.25 210 223 193.5 223 173.5C223 153 239.25 136.75 259.75 136.75C280.25 136.75 296.5 153 296.5 173.5Z" fill="black" fill-opacity="0.85"/>
  <path d="M260.518 282.789C257.752 298.736 256.25 316.197 256.25 335.25L256.25 351.175C227.895 352.901 205.75 376.192 205.75 405.25C205.75 433.827 227.895 457.33 256.25 459.074L256.25 528.824C189.855 527.084 136.75 472.818 136.75 406C136.75 337.75 191.75 282.75 259.75 282.75C260.009 282.75 260.268 282.751 260.518 282.789ZM325.02 160.87C317.952 167.32 311.217 174.292 304.75 181.75C292.062 197.091 280.757 215.785 272.298 238.522C268.243 239.34 264.044 239.75 259.75 239.75C223 239.75 193.25 209.75 193.25 173.5C193.25 136.75 223 106.75 259.75 106.75C292.18 106.75 319.159 130.112 325.02 160.87ZM223 173.5C223 193.5 239.25 210 259.75 210C280.25 210 296.5 193.5 296.5 173.5C296.5 153 280.25 136.75 259.75 136.75C239.25 136.75 223 153 223 173.5Z" fill="black" fill-opacity="0.2125"/>
  <path d="M552 784.25C728 784.25 808 722.5 808 580.75L808 335.25C808 273.25 790.25 233 768.5 206.75C761 197.75 749.5 197.5 740.75 205.25C711.5 234 634.25 255 552 255C469.5 255 392.5 234 363 205.25C354.25 197.5 342.75 197.75 335.25 206.75C313.5 233 296 273.25 296 335.25L296 580.75C296 722.5 375.75 784.25 552 784.25Z" fill="black" fill-opacity="0.425"/>
  <path d="M552 215C634.75 215 703.25 197.25 703.25 172.25C703.25 147 634.75 129.25 552 129.25C469.25 129.25 400.5 147 400.5 172.25C400.5 197.25 469.25 215 552 215Z" fill="black" fill-opacity="0.85"/>
 </g>
</svg>
