<?xml version="1.0" encoding="UTF-8"?>
<!--Generator: Apple Native CoreSVG 326-->
<!DOCTYPE svg
PUBLIC "-//W3C//DTD SVG 1.1//EN"
       "http://www.w3.org/Graphics/SVG/1.1/DTD/svg11.dtd">
<svg version="1.1" xmlns="http://www.w3.org/2000/svg" xmlns:xlink="http://www.w3.org/1999/xlink" viewBox="0 0 847.25 824.25">
 <g>
  <rect height="824.25" opacity="0" width="847.25" x="0" y="0"/>
  <path d="M476.776 94.2251C461.694 96.2057 447.543 98.9509 434.204 102.46C428.254 87.0066 414.195 78.5 393.25 78.5L126.25 78.5C97.75 78.5 81.75 94.25 81.75 121.75L81.75 510.5C81.75 538 97.75 554 126.25 554L255.5 554L255.5 580.75C255.5 586.01 255.6 591.181 256.092 596L123.5 596C69 596 39.75 566.75 39.75 512L39.75 120.5C39.75 66 69 36.5 123.5 36.5L396 36.5C440.744 36.5 468.482 56.5674 476.776 94.2251ZM260.847 277.055C257.408 294.546 255.5 313.899 255.5 335.25L255.5 344.211C228.018 346.302 206.75 368.936 206.75 397C206.75 424.837 227.808 447.466 255.5 449.54L255.5 516.537C190.965 514.435 139.75 461.82 139.75 397C139.75 330.5 193.25 277 259.75 277C260.12 277 260.49 277.002 260.847 277.055ZM320.875 164.149C315.007 169.614 309.41 175.512 304 181.75C299.765 186.918 295.675 192.466 291.811 198.468C293.868 193.992 295 189.003 295 183.75C295 164.25 279 148.25 259.5 148.25C239.75 148.25 223.75 164.25 223.75 183.75C223.75 203.5 239.75 219.5 259.5 219.5C270.447 219.5 280.29 214.458 286.818 206.539C279.707 218.577 273.457 232.188 268.478 247.544C265.555 248.035 262.55 248.25 259.5 248.25C224.25 248.25 195 219.5 195 183.75C195 148.5 224 119.5 259.5 119.5C288.125 119.5 312.523 138.355 320.875 164.149Z" fill="black" fill-opacity="0.85"/>
  <path d="M551.5 784.25C727.5 784.25 807.5 722.5 807.5 580.75L807.5 335.25C807.5 273.25 789.75 233 768 206.75C760.5 197.75 749 197.5 740.25 205.25C711 234 633.75 255 551.5 255C469 255 391.75 234 362.5 205.25C353.75 197.5 342.25 197.75 334.75 206.75C313 233 295.5 273.25 295.5 335.25L295.5 580.75C295.5 722.5 375.25 784.25 551.5 784.25ZM551.5 740C400.25 740 339.75 689.25 339.75 575.75L339.75 337.5C339.75 306.75 345.5 278.5 361 254C397.5 285.5 468.5 299.25 551.5 299.25C634.25 299.25 705.25 285.5 741.75 254C757.25 278.5 763 306.75 763 337.5L763 575.75C763 689.25 702.5 740 551.5 740Z" fill="black" fill-opacity="0.425"/>
  <path d="M551.5 215C634.25 215 702.75 197.25 702.75 172.25C702.75 147 634.25 129.25 551.5 129.25C468.75 129.25 400 147 400 172.25C400 197.25 468.75 215 551.5 215Z" fill="black" fill-opacity="0.85"/>
 </g>
</svg>
