<?xml version="1.0" encoding="UTF-8"?>
<!--Generator: Apple Native CoreSVG 326-->
<!DOCTYPE svg
PUBLIC "-//W3C//DTD SVG 1.1//EN"
       "http://www.w3.org/Graphics/SVG/1.1/DTD/svg11.dtd">
<svg version="1.1" xmlns="http://www.w3.org/2000/svg" xmlns:xlink="http://www.w3.org/1999/xlink" viewBox="0 0 911.75 775.75">
 <g>
  <rect height="775.75" opacity="0" width="911.75" x="0" y="0"/>
  <path d="M146 103.75C182.25 137 230.25 155.75 327.75 155.75C335.385 155.75 342.703 155.632 349.626 155.361C327.078 170.707 307.12 189.315 288.5 211C233.75 269.5 200.5 351.75 200.5 440.5C200.5 481.254 207.238 521.035 220.119 558.264C182.293 550.207 158.061 535.859 134.25 513.5C75.25 459.25 39.75 380.75 39.75 296.75C39.75 224.25 65.75 158.75 115.5 107.75C125.5 96 136.25 95.5 146 103.75Z" fill="black" fill-opacity="0.425"/>
  <path d="M466.75 79.75C466.75 102.5 410.25 118.5 327.75 118.5C245.5 118.5 189 102.5 189 79.75C189 57.25 245.5 41.25 327.75 41.25C410.25 41.25 466.75 57.25 466.75 79.75Z" fill="black" fill-opacity="0.85"/>
  <path d="M556 736C676 736 723.25 720.25 768.25 678.25C833.25 618.75 871.75 532.75 871.75 440.5C871.75 363.5 845.25 290.75 789 233.25C778 220.75 766.25 220.25 755.75 229C716 265.5 658 284.75 556 284.75C454 284.75 396 265.5 356.5 229C346 220.25 334.25 220.75 323.25 233.25C266.75 290.75 240.25 363.5 240.25 440.5C240.25 532.75 278.75 618.75 343.75 678.25C388.75 720.25 436.25 736 556 736Z" fill="black" fill-opacity="0.425"/>
  <path d="M556 244.75C648 244.75 710 227 710 202.5C710 177.5 648 160 556 160C464 160 402.25 177.5 402.25 202.5C402.25 227 464 244.75 556 244.75Z" fill="black" fill-opacity="0.85"/>
 </g>
</svg>
