<?xml version="1.0" encoding="UTF-8"?>
<!--Generator: Apple Native CoreSVG 326-->
<!DOCTYPE svg
PUBLIC "-//W3C//DTD SVG 1.1//EN"
       "http://www.w3.org/Graphics/SVG/1.1/DTD/svg11.dtd">
<svg version="1.1" xmlns="http://www.w3.org/2000/svg" xmlns:xlink="http://www.w3.org/1999/xlink" viewBox="0 0 631.5 579.75">
 <g>
  <rect height="579.75" opacity="0" width="631.5" x="0" y="0"/>
  <path d="M315.75 579.75C435.75 579.75 483 564 528 522C593 462.5 631.5 376.5 631.5 284.25C631.5 207.25 605 134.5 548.75 77C537.75 64.5 526 64 515.5 72.75C475.75 109.5 417.75 128.5 315.75 128.5C213.75 128.5 155.75 109.5 116.25 72.75C105.75 64 94 64.5 83 77C26.5 134.5 0 207.25 0 284.25C0 376.5 38.5 462.5 103.5 522C148.5 564 196 579.75 315.75 579.75Z" fill="black" fill-opacity="0.425"/>
  <path d="M315.75 88.5C407.75 88.5 469.75 70.75 469.75 46.25C469.75 21.5 407.75 3.75 315.75 3.75C223.75 3.75 162 21.5 162 46.25C162 70.75 223.75 88.5 315.75 88.5Z" fill="black" fill-opacity="0.85"/>
 </g>
</svg>
