<?xml version="1.0" encoding="UTF-8"?>
<!--Generator: Apple Native CoreSVG 326-->
<!DOCTYPE svg
PUBLIC "-//W3C//DTD SVG 1.1//EN"
       "http://www.w3.org/Graphics/SVG/1.1/DTD/svg11.dtd">
<svg version="1.1" xmlns="http://www.w3.org/2000/svg" xmlns:xlink="http://www.w3.org/1999/xlink" viewBox="0 0 890.5 825.75">
 <g>
  <rect height="825.75" opacity="0" width="890.5" x="0" y="0"/>
  <path d="M533 105.75C563.764 137.374 585.076 177.386 595.12 222L546.109 222C538.144 194.751 524.447 169.834 505.25 147.75C468.25 177.25 405.5 192.25 321.25 192.25C236.75 192.25 174 177.25 137 147.75C103.75 186 87 232.75 87 285C87 353.25 114.75 417 164 462.25C191.909 488.455 221.815 498.319 285.25 500.635L285.25 547.855C205.382 544.765 167.536 530.093 132 496.75C74.25 443.75 39.75 366.75 39.75 285C39.75 215.5 64.5 151.75 109.5 105.75C120.75 92 139.5 90 154.25 100.25C184.25 127 227.75 145.5 321.25 145.5C414.5 145.5 458 127 488 100.25C502.75 90 521.5 92 533 105.75Z" fill="black" fill-opacity="0.425"/>
  <path d="M454.75 75.75C454.75 97 400.25 112.75 321.25 112.75C241.75 112.75 187.25 97 187.25 75.75C187.25 53.75 241.75 38.5 321.25 38.5C400.25 38.5 454.75 53.75 454.75 75.75Z" fill="black" fill-opacity="0.85"/>
  <path d="M464.25 785.75L711.75 785.75C759 785.75 795 781 820.75 755.25C846 729.5 850.75 694.25 850.75 646.75L850.75 401C850.75 353.5 846 318 820.75 292.5C795 267 759 261.75 711.75 261.75L463 261.75C417.25 261.75 381.25 267 355.5 292.75C330 318.25 325 353.75 325 399.75L325 646.75C325 694.25 330 729.5 355.5 755.25C381.25 781 417 785.75 464.25 785.75ZM465 464.5C464.5 444 481.25 424.25 503 422.75C504.75 442.5 487.5 467 465 464.5ZM540.75 559.25C536.75 573.5 527.25 590.25 515.25 602C511.5 605.25 506.25 608 499.5 608C493.25 608 489.5 605.75 483.75 604C480.5 602.75 475.5 600.25 469.75 600.25C456 600.25 450 608.5 439 608.5C431.25 608.5 425 604 416.75 594.5C401 577 390.5 549.25 390.5 525.25C390.5 510.5 394.25 496.75 403.75 485.25C411.25 475.5 423.25 469.5 437.75 469.5C451 469.5 459 477.75 466 477.75C474.5 477.75 484 469 501.25 469C515.75 469 528.5 475 536.5 487C525.75 493 521.5 500.5 519.5 507C516.25 516.25 515.25 527.25 519.5 538.25C523.75 548 530 554.75 540.75 559.25ZM615.75 436.5L615.75 469L642 469L642 491L615.75 491L615.75 567.25C615.75 579.75 621.25 584.75 632.5 584.75C635.25 584.75 640.25 584.75 641.75 583.75L641.75 607C639.25 607.25 632.5 608 626.5 608C598.25 608 587.25 598 587.25 570.5L587.25 491L568 491L568 469L587.25 469L587.25 436.5ZM735.5 607L705.75 607L655 469L684.75 469L720.5 579.75L754.25 469L785 469Z" fill="black" fill-opacity="0.85"/>
 </g>
</svg>
