<?xml version="1.0" encoding="UTF-8"?>
<!--Generator: Apple Native CoreSVG 326-->
<!DOCTYPE svg
PUBLIC "-//W3C//DTD SVG 1.1//EN"
       "http://www.w3.org/Graphics/SVG/1.1/DTD/svg11.dtd">
<svg version="1.1" xmlns="http://www.w3.org/2000/svg" xmlns:xlink="http://www.w3.org/1999/xlink" viewBox="0 0 917 833.25">
 <g>
  <rect height="833.25" opacity="0" width="917" x="0" y="0"/>
  <path d="M515.75 119C534.948 142.17 550.835 176.247 554.278 226.587C455.198 231.327 382.146 259.218 338 309.25C284 363.75 255 439.5 255 521C255 584.041 272.447 644.914 304.067 696.649C302.461 696.744 300.734 696.75 299 696.75C137.5 696.75 43 647.5 43 493L43 247.5C43 185.5 60.75 145.25 82.5 119C90 110.25 101.5 109.75 110.25 117.75C139.5 146.5 216.75 167.25 299 167.25C381.5 167.25 458.5 146.5 488 117.75C496.75 109.75 508.25 110.25 515.75 119Z" fill="black" fill-opacity="0.425"/>
  <path d="M450.5 84.5C450.5 109.5 381.75 127.5 299 127.5C216.25 127.5 147.75 109.5 147.75 84.5C147.75 59.5 216.25 41.75 299 41.75C381.75 41.75 450.5 59.5 450.5 84.5Z" fill="black" fill-opacity="0.85"/>
  <path d="M586 790.5C695.25 790.5 738.5 776 779.5 738C838.5 684 874 605 874 521C874 448.5 848 383.25 798.25 332C788.25 320.5 777.25 320.25 767.5 328.25C731.5 361.75 683.5 380 586 380C488.25 380 440.25 361.75 404.25 328.25C394.75 320.25 383.5 320.5 373.5 332C323.75 383.25 298 448.5 298 521C298 605 333.25 684 392.25 738C433.25 776 476.75 790.5 586 790.5Z" fill="black" fill-opacity="0.425"/>
  <path d="M586 343C668.25 343 724.75 326.75 724.75 304.5C724.75 281.5 668.25 265.75 586 265.75C503.5 265.75 447 281.5 447 304.5C447 326.75 503.5 343 586 343Z" fill="black" fill-opacity="0.85"/>
 </g>
</svg>
