<?xml version="1.0" encoding="UTF-8"?>
<!--Generator: Apple Native CoreSVG 326-->
<!DOCTYPE svg
PUBLIC "-//W3C//DTD SVG 1.1//EN"
       "http://www.w3.org/Graphics/SVG/1.1/DTD/svg11.dtd">
<svg version="1.1" xmlns="http://www.w3.org/2000/svg" xmlns:xlink="http://www.w3.org/1999/xlink" viewBox="0 0 841.75 825.25">
 <g>
  <rect height="825.25" opacity="0" width="841.75" x="0" y="0"/>
  <path d="M468.5 108C488.137 131.318 503.917 166.928 504.446 221.5L414 221.5C359 221.5 313.25 229 278.5 264C243.5 298.75 236.25 344.25 236.25 399.25L236.25 630.818C100.092 622.627 39.75 564.772 39.75 447L39.75 224.5C39.75 168.25 56 131.75 75.75 108C82.5 99.75 93.25 99.25 101 106.75C127.75 132.75 197.75 151.5 272.25 151.5C346.5 151.5 416.75 132.75 443.25 106.75C451.25 99.25 461.75 99.75 468.5 108Z" fill="black" fill-opacity="0.425"/>
  <path d="M409.5 76.75C409.5 99.25 351.75 115.5 272.25 115.5C192.75 115.5 135 99.25 135 76.75C135 54 192.75 38 272.25 38C351.75 38 409.5 54 409.5 76.75Z" fill="black" fill-opacity="0.85"/>
  <path d="M415.25 785.25L662.75 785.25C710.25 785.25 746 780.25 771.5 754.75C797.25 729.25 801.75 693.75 801.75 646.5L801.75 400.5C801.75 353 797.25 317.5 771.5 292C746 266.5 710.25 261.5 662.75 261.5L414 261.5C368.25 261.5 332.25 266.5 306.75 292.25C281 317.75 276.25 353.25 276.25 399L276.25 646.5C276.25 693.75 281 729.25 306.5 754.75C332.25 780.25 368 785.25 415.25 785.25ZM491.75 559C487.75 573.25 478.5 589.75 466.25 601.5C462.5 605 457.5 607.5 450.5 607.5C444.25 607.5 440.5 605.25 434.75 603.5C431.5 602.5 426.5 599.75 420.75 599.75C407 599.75 401 608 390 608C382.25 608 376 603.5 368 594.25C352.25 576.5 341.5 548.75 341.5 525C341.5 510 345.25 496.25 354.75 484.75C362.5 475 374.25 469 388.75 469C402 469 410 477.25 417 477.25C425.5 477.25 435 468.75 452.25 468.75C467 468.75 479.5 474.75 487.5 486.5C476.75 492.75 472.5 500.25 470.5 506.5C467.25 515.75 466.25 526.75 470.5 537.75C474.75 547.75 481.25 554.5 491.75 559ZM416.25 464C415.5 443.75 432.25 423.75 454.25 422.5C455.75 442.25 438.5 466.5 416.25 464ZM566.75 436L566.75 468.75L593 468.75L593 490.5L566.75 490.5L566.75 566.75C566.75 579.25 572.25 584.25 583.5 584.25C586.25 584.25 591.25 584.25 592.75 583.25L592.75 606.5C590.25 606.75 583.5 607.5 577.5 607.5C549.25 607.5 538.25 597.75 538.25 570L538.25 490.5L519 490.5L519 468.75L538.25 468.75L538.25 436ZM686.5 606.5L656.75 606.5L606 468.75L636 468.75L671.5 579.25L705.25 468.75L736.25 468.75Z" fill="black" fill-opacity="0.85"/>
 </g>
</svg>
