<?xml version="1.0" encoding="UTF-8"?>
<!--Generator: Apple Native CoreSVG 326-->
<!DOCTYPE svg
PUBLIC "-//W3C//DTD SVG 1.1//EN"
       "http://www.w3.org/Graphics/SVG/1.1/DTD/svg11.dtd">
<svg version="1.1" xmlns="http://www.w3.org/2000/svg" xmlns:xlink="http://www.w3.org/1999/xlink" viewBox="0 0 512 655.25">
 <g>
  <rect height="655.25" opacity="0" width="512" x="0" y="0"/>
  <path d="M256 655C432 655 512 593.25 512 451.25L512 206C512 143.75 494.5 103.5 472.75 77.5C465.25 68.5 453.75 68.25 444.75 76C415.5 104.75 338.25 125.75 256 125.75C173.75 125.75 96.5 104.75 67 76C58.25 68.25 46.75 68.5 39.25 77.5C17.5 103.5 0 143.75 0 206L0 451.25C0 593.25 79.75 655 256 655ZM256 610.75C104.75 610.75 44.25 559.75 44.25 446.5L44.25 208.25C44.25 177.25 50.25 149.25 65.5 124.75C102 156.25 173.25 170 256 170C338.75 170 410 156.25 446.5 124.75C461.75 149.25 467.75 177.25 467.75 208.25L467.75 446.5C467.75 559.75 407.25 610.75 256 610.75Z" fill="black" fill-opacity="0.425"/>
  <path d="M256 85.75C343.5 85.75 407.25 67.75 407.25 43C407.25 17.75 343.5 0 256 0C168.5 0 104.75 17.75 104.75 43C104.75 67.75 168.5 85.75 256 85.75Z" fill="black" fill-opacity="0.85"/>
 </g>
</svg>
