<?xml version="1.0" encoding="UTF-8"?>
<!--Generator: Apple Native CoreSVG 326-->
<!DOCTYPE svg
PUBLIC "-//W3C//DTD SVG 1.1//EN"
       "http://www.w3.org/Graphics/SVG/1.1/DTD/svg11.dtd">
<svg version="1.1" xmlns="http://www.w3.org/2000/svg" xmlns:xlink="http://www.w3.org/1999/xlink" viewBox="0 0 713.125 716.75">
 <g>
  <rect height="716.75" opacity="0" width="713.125" x="0" y="0"/>
  <path d="M135.813 217.399L135.812 611.75L529.672 611.75L604.442 686.613C589.235 705.788 564.781 716.75 534.062 716.75L179.562 716.75C126.062 716.75 91.5625 683.5 91.5625 631.75L91.5625 173.094ZM330.312 659C330.312 673.75 342.312 686 357.312 686C371.812 686 383.812 673.75 383.812 659C383.812 644.25 371.812 632.5 357.312 632.5C342.312 632.5 330.312 644.25 330.312 659ZM622.062 85L622.062 544.938L577.812 500.651L577.812 105L182.491 105L108.546 30.9941C123.681 11.2823 148.398 0 179.562 0L534.062 0C587.562 0 622.062 33.25 622.062 85ZM339.812 55.75C339.812 65 347.562 72.75 356.812 72.75C365.812 72.75 373.812 65 373.812 55.75C373.812 46.75 365.812 38.75 356.812 38.75C347.562 38.75 339.812 46.75 339.812 55.75Z" fill="black" fill-opacity="0.85"/>
  <path d="M641.812 674.5C650.062 683 663.812 683 672.062 674.5C680.312 666.25 680.562 652.75 672.312 644.5L71.3125 43C63.3125 34.75 49.8125 34.25 41.0625 43C32.8125 51.25 32.8125 65 41.0625 73.25Z" fill="black" fill-opacity="0.85"/>
 </g>
</svg>
