<?xml version="1.0" encoding="UTF-8"?>
<!--Generator: Apple Native CoreSVG 326-->
<!DOCTYPE svg
PUBLIC "-//W3C//DTD SVG 1.1//EN"
       "http://www.w3.org/Graphics/SVG/1.1/DTD/svg11.dtd">
<svg version="1.1" xmlns="http://www.w3.org/2000/svg" xmlns:xlink="http://www.w3.org/1999/xlink" viewBox="0 0 530.5 716.75">
 <g>
  <rect height="716.75" opacity="0" width="530.5" x="0" y="0"/>
  <path d="M0 631.75C0 683.5 34.5 716.75 88 716.75L442.5 716.75C496 716.75 530.5 683.5 530.5 631.75L530.5 85C530.5 33.25 496 0 442.5 0L88 0C34.5 0 0 33.25 0 85ZM44.25 624.75L44.25 92C44.25 61.5 62 44.25 93.25 44.25L437 44.25C468.25 44.25 486 61.5 486 92L486 624.75C486 655 468.25 672.25 437 672.25L93.25 672.25C62 672.25 44.25 655 44.25 624.75Z" fill="black" fill-opacity="0.85"/>
  <path d="M125.25 164.25C146 164.25 164 146.25 164 124.5C164 103.5 146 85.5 125.25 85.5C103.25 85.5 85.5 103.5 85.5 124.5C85.5 146.25 103.25 164.25 125.25 164.25Z" fill="black" fill-opacity="0.85"/>
 </g>
</svg>
