<?xml version="1.0" encoding="UTF-8"?>
<!--Generator: Apple Native CoreSVG 326-->
<!DOCTYPE svg
PUBLIC "-//W3C//DTD SVG 1.1//EN"
       "http://www.w3.org/Graphics/SVG/1.1/DTD/svg11.dtd">
<svg version="1.1" xmlns="http://www.w3.org/2000/svg" xmlns:xlink="http://www.w3.org/1999/xlink" viewBox="0 0 757.5 730.563">
 <g>
  <rect height="730.563" opacity="0" width="757.5" x="0" y="0"/>
  <path d="M30.75 96.9064L105 171.217L105 615.156L548.58 615.156L592.794 659.406L97.25 659.406C32.75 659.406 0 627.156 0 563.156L0 168.156C0 134.223 9.20682 109.215 27.5657 93.3011ZM757.5 168.156L757.5 563.156C757.5 596.883 748.334 621.863 730.018 637.819C729.171 636.719 728.233 635.674 727.25 634.656L652.5 559.846L652.5 116.156L209.17 116.156L164.956 71.9064L660 71.9064C724.75 71.9064 757.5 104.406 757.5 168.156ZM673.25 365.156C673.25 380.156 684.75 392.156 699.5 392.156C714.5 392.156 726.5 380.156 726.5 365.156C726.5 350.656 714.5 338.656 699.75 338.656C685 338.656 673.25 350.656 673.25 365.156ZM38.5 365.406C38.75 374.656 46.5 382.906 55.75 382.656C64.75 382.406 72.75 374.656 72.75 365.406C72.75 356.406 65 348.406 55.5 348.406C46.25 348.406 38.25 356.406 38.5 365.406Z" fill="black" fill-opacity="0.85"/>
  <path d="M672.25 689.406C680.5 697.906 694 697.906 702.25 689.406C710.5 681.156 711 667.656 702.5 659.406L86 41.9064C77.75 33.9064 64.25 33.4064 55.5 41.9064C47.25 50.1564 47.25 64.1564 55.5 72.1564Z" fill="black" fill-opacity="0.85"/>
 </g>
</svg>
