<?xml version="1.0" encoding="UTF-8"?>
<!--Generator: Apple Native CoreSVG 326-->
<!DOCTYPE svg
PUBLIC "-//W3C//DTD SVG 1.1//EN"
       "http://www.w3.org/Graphics/SVG/1.1/DTD/svg11.dtd">
<svg version="1.1" xmlns="http://www.w3.org/2000/svg" xmlns:xlink="http://www.w3.org/1999/xlink" viewBox="0 0 713.125 716.75">
 <g>
  <rect height="716.75" opacity="0" width="713.125" x="0" y="0"/>
  <path d="M135.813 217.399L135.812 624.75C135.812 655 153.562 672.25 185.062 672.25L528.562 672.25C548.382 672.25 562.758 665.421 570.682 652.812L604.442 686.613C589.235 705.788 564.781 716.75 534.062 716.75L179.562 716.75C126.062 716.75 91.5625 683.5 91.5625 631.75L91.5625 173.094ZM460.812 634C460.812 642.25 455.062 647.75 447.312 647.75L266.562 647.75C258.812 647.75 253.062 642.25 253.062 634C253.062 626 258.812 620.5 266.562 620.5L447.312 620.5C455.062 620.5 460.812 626 460.812 634ZM622.062 85L622.062 544.938L577.812 500.651L577.812 92C577.812 61.5 560.062 44.25 528.562 44.25L185.062 44.25C164.707 44.25 150.093 51.4535 142.343 64.8194L108.546 30.9941C123.681 11.2823 148.398 0 179.562 0L534.062 0C587.562 0 622.062 33.25 622.062 85Z" fill="black" fill-opacity="0.85"/>
  <path d="M641.812 674.5C650.062 683 663.812 683 672.062 674.5C680.312 666.25 680.562 652.75 672.312 644.5L71.3125 43C63.3125 34.75 49.8125 34.25 41.0625 43C32.8125 51.25 32.8125 65 41.0625 73.25Z" fill="black" fill-opacity="0.85"/>
 </g>
</svg>
