<?xml version="1.0" encoding="UTF-8"?>
<!--Generator: Apple Native CoreSVG 326-->
<!DOCTYPE svg
PUBLIC "-//W3C//DTD SVG 1.1//EN"
       "http://www.w3.org/Graphics/SVG/1.1/DTD/svg11.dtd">
<svg version="1.1" xmlns="http://www.w3.org/2000/svg" xmlns:xlink="http://www.w3.org/1999/xlink" viewBox="0 0 530.5 716.75">
 <g>
  <rect height="716.75" opacity="0" width="530.5" x="0" y="0"/>
  <path d="M0 631.75C0 683.5 34.5 716.75 88 716.75L442.5 716.75C496 716.75 530.5 683.5 530.5 631.75L530.5 85C530.5 33.25 496 0 442.5 0L88 0C34.5 0 0 33.25 0 85ZM226.75 620.75C216.75 620.75 208.5 612.5 208.5 602.5L208.5 114.25C208.5 104.25 216.75 95.75 226.75 95.75C237 95.75 245.25 104.25 245.25 114.25L245.25 602.5C245.25 612.5 237 620.75 226.75 620.75ZM387.75 620.75C377.75 620.75 369.5 612.5 369.5 602.5L369.5 114.25C369.5 104.25 377.75 95.75 387.75 95.75C397.75 95.75 406 104.25 406 114.25L406 602.5C406 612.5 397.75 620.75 387.75 620.75Z" fill="black" fill-opacity="0.85"/>
 </g>
</svg>
