<?xml version="1.0" encoding="UTF-8"?>
<!--Generator: Apple Native CoreSVG 326-->
<!DOCTYPE svg
PUBLIC "-//W3C//DTD SVG 1.1//EN"
       "http://www.w3.org/Graphics/SVG/1.1/DTD/svg11.dtd">
<svg version="1.1" xmlns="http://www.w3.org/2000/svg" xmlns:xlink="http://www.w3.org/1999/xlink" viewBox="0 0 716 783.25">
 <g>
  <rect height="783.25" opacity="0" width="716" x="0" y="0"/>
  <path d="M623.25 118.25L623.25 273.133C622.215 273.013 621.111 273 620 273L499 273L499 147.5C499 137.5 490.75 129 480.5 129C470.5 129 462.25 137.5 462.25 147.5L462.25 273.645C409.803 278.647 379 315.732 379 367.25L379 689.5C379 713.393 385.686 734.153 398.154 750L180.75 750C127.25 750 92.75 716.75 92.75 665L92.75 118.25C92.75 66.5 127.25 33.25 180.75 33.25L535.25 33.25C588.75 33.25 623.25 66.5 623.25 118.25ZM301.25 147.5L301.25 635.75C301.25 645.75 309.5 654 319.75 654C329.75 654 338 645.75 338 635.75L338 147.5C338 137.5 329.75 129 319.75 129C309.5 129 301.25 137.5 301.25 147.5Z" fill="black" fill-opacity="0.85"/>
  <path d="M474.75 748.5L620 748.5C659.25 748.5 681.25 727.25 681.25 689.5L681.25 367.25C681.25 329.5 659 308 620 308L474.75 308C436 308 413.75 329.5 413.75 367.25L413.75 689.5C413.75 727.25 435.75 748.5 474.75 748.5ZM471.25 430.5C455.25 430.5 446 421.75 446 406.75L446 366C446 351.5 455.25 342.25 471.25 342.25L509.25 342.25C525.25 342.25 534.5 351.5 534.5 366L534.5 406.75C534.5 421.75 525.25 430.5 509.25 430.5Z" fill="black" fill-opacity="0.85"/>
 </g>
</svg>
