<?xml version="1.0" encoding="UTF-8"?>
<!--Generator: Apple Native CoreSVG 326-->
<!DOCTYPE svg
PUBLIC "-//W3C//DTD SVG 1.1//EN"
       "http://www.w3.org/Graphics/SVG/1.1/DTD/svg11.dtd">
<svg version="1.1" xmlns="http://www.w3.org/2000/svg" xmlns:xlink="http://www.w3.org/1999/xlink" viewBox="0 0 741.75 786.25">
 <g>
  <rect height="786.25" opacity="0" width="741.75" x="0" y="0"/>
  <path d="M543.361 100.25L332.5 100.25C266.5 100.25 220.25 144.75 220.25 210.25L220.25 676.25C220.25 687.138 221.528 697.446 224.073 707L156.75 707C125.5 707 107.75 689.75 107.75 659.5L107.75 126.75C107.75 96.25 125.5 79 156.75 79L500.5 79C521.033 79 535.738 86.4473 543.361 100.25Z" fill="black" fill-opacity="0.2125"/>
  <path d="M591.937 100.25L543.361 100.25C535.738 86.4473 521.033 79 500.5 79L156.75 79C125.5 79 107.75 96.25 107.75 126.75L107.75 659.5C107.75 689.75 125.5 707 156.75 707L224.073 707C228.332 724.333 236.428 739.384 247.643 751.5L151.25 751.5C97.75 751.5 63.25 718.25 63.25 666.5L63.25 119.75C63.25 68 97.75 34.75 151.25 34.75L505.75 34.75C552.175 34.75 584.294 59.7878 591.937 100.25Z" fill="black" fill-opacity="0.85"/>
  <path d="M299.5 665.75L299.5 220.75C299.5 195 315 179.25 341.75 179.25L620.25 179.25C646.75 179.25 662.5 195 662.5 220.75L662.5 665.75C662.5 691.5 646.75 707 620.25 707L341.75 707C315 707 299.5 691.5 299.5 665.75Z" fill="black" fill-opacity="0.2125"/>
  <path d="M255 676.25C255 722 285.5 751.5 332.5 751.5L629.25 751.5C676.5 751.5 707 722 707 676.25L707 210.25C707 164.5 676.5 135 629.25 135L332.5 135C285.5 135 255 164.5 255 210.25ZM299.5 665.75L299.5 220.75C299.5 195 315 179.25 341.75 179.25L620.25 179.25C646.75 179.25 662.5 195 662.5 220.75L662.5 665.75C662.5 691.5 646.75 707 620.25 707L341.75 707C315 707 299.5 691.5 299.5 665.75Z" fill="black" fill-opacity="0.85"/>
 </g>
</svg>
