<?xml version="1.0" encoding="UTF-8"?>
<!--Generator: Apple Native CoreSVG 326-->
<!DOCTYPE svg
PUBLIC "-//W3C//DTD SVG 1.1//EN"
       "http://www.w3.org/Graphics/SVG/1.1/DTD/svg11.dtd">
<svg version="1.1" xmlns="http://www.w3.org/2000/svg" xmlns:xlink="http://www.w3.org/1999/xlink" viewBox="0 0 619.25 683.25">
 <g>
  <rect height="683.25" opacity="0" width="619.25" x="0" y="0"/>
  <path d="M38.25 83.75L38.25 599C38.25 635.801 56.2839 665.185 85.6217 677L85.25 677C33 677 0 645 0 594.5L0 88.25C0 37.75 33 5.75 85.25 5.75L85.6217 5.75C56.2839 17.5648 38.25 46.9488 38.25 83.75Z" fill="black" fill-opacity="0.85"/>
  <path d="M146.25 83.75L146.25 599C146.25 635.801 164.284 665.185 193.51 677L193.25 677C141 677 108 645 108 594.5L108 88.25C108 37.75 141 5.75 193.25 5.75L193.51 5.75C164.284 17.5648 146.25 46.9488 146.25 83.75Z" fill="black" fill-opacity="0.85"/>
  <path d="M218.5 594.75C218.5 645.25 251.5 677.25 303.75 677.25L534 677.25C586.25 677.25 619.25 645.25 619.25 594.75L619.25 88.25C619.25 37.75 586.25 5.75 534 5.75L303.75 5.75C251.5 5.75 218.5 37.75 218.5 88.25ZM262.75 572.25L262.75 110.75L575 110.75L575 572.25ZM419.25 646.5C404.25 646.5 392.25 634.25 392.25 619.5C392.25 604.75 404.25 593 419.25 593C433.75 593 445.75 604.75 445.75 619.5C445.75 634.25 433.75 646.5 419.25 646.5ZM361.5 60C361.5 53.25 366.25 48.75 372.75 48.75L465 48.75C471.75 48.75 476.5 53.25 476.5 60C476.5 66.75 471.75 71.25 465 71.25L372.75 71.25C366.25 71.25 361.5 66.75 361.5 60Z" fill="black" fill-opacity="0.85"/>
 </g>
</svg>
