<?xml version="1.0" encoding="UTF-8"?>
<!--Generator: Apple Native CoreSVG 326-->
<!DOCTYPE svg
PUBLIC "-//W3C//DTD SVG 1.1//EN"
       "http://www.w3.org/Graphics/SVG/1.1/DTD/svg11.dtd">
<svg version="1.1" xmlns="http://www.w3.org/2000/svg" xmlns:xlink="http://www.w3.org/1999/xlink" viewBox="0 0 998 671.75">
 <g>
  <rect height="671.75" opacity="0" width="998" x="0" y="0"/>
  <path d="M118.75 552.5C127.25 542.5 124.5 529.5 114.75 518.5C70.25 470 44.75 406.25 44.75 335.75C44.75 265 70.25 201.25 114.75 152.75C124.5 141.75 127.25 128.75 118.75 119C109.75 108.75 94.5 108.75 84 120.25C30.5 177.25 0 253 0 335.75C0 418.25 30.5 494.25 84 551C94.5 562.5 109.75 562.75 118.75 552.5ZM879.5 552.5C888.25 562.75 903.5 562.5 914.25 551C967.5 494.25 998 418.25 998 335.75C998 253 967.5 177.25 914.25 120.25C903.5 108.75 888.25 108.75 879.5 119C870.75 128.75 873.5 141.75 883.25 152.75C928 201.25 953.25 265 953.25 335.75C953.25 406.25 928 470 883.25 518.5C873.5 529.5 870.75 542.5 879.5 552.5Z" fill="black" fill-opacity="0.425"/>
  <path d="M208 461.5C216.75 451.5 213 439 204.25 427.5C183 403.25 172.75 370.75 172.75 335.75C172.75 300.75 183 268 204.25 243.75C213 232.25 216.75 219.75 208 210C198.75 199.75 182.5 199.5 172.75 211.75C144.25 245.5 128 289 128 335.75C128 382.5 144.25 425.75 172.75 459.5C182.5 471.75 198.75 471.75 208 461.5ZM790 461.5C799.25 471.75 815.5 471.75 825.5 459.5C853.75 425.75 870.25 382.5 870.25 335.75C870.25 289 853.75 245.5 825.5 211.75C815.5 199.5 799.25 199.75 790 210C781.5 219.75 785 232.25 793.75 243.75C815 268 825.25 300.75 825.25 335.75C825.25 370.75 815 403.25 793.75 427.5C785 439 781.5 451.5 790 461.5Z" fill="black" fill-opacity="0.425"/>
  <path d="M389.5 627C359 627 343 611.5 343 582.25L343 89C343 59.75 359 44.25 389.5 44.25L609 44.25C639.25 44.25 655.25 59.75 655.25 89L655.25 582.25C655.25 611.5 639.25 627 609 627Z" fill="black" fill-opacity="0.2125"/>
  <path d="M384 671.25L614.25 671.25C666.5 671.25 699.75 639.25 699.75 588.75L699.75 82.5C699.75 32 666.5 0 614.25 0L384 0C331.75 0 298.75 32 298.75 82.5L298.75 588.75C298.75 639.25 331.75 671.25 384 671.25ZM389.5 627C359 627 343 611.5 343 582.25L343 89C343 59.75 359 44.25 389.5 44.25L609 44.25C639.25 44.25 655.25 59.75 655.25 89L655.25 582.25C655.25 611.5 639.25 627 609 627ZM431.75 603.75L566.75 603.75C574.5 603.75 580.25 598.25 580.25 590.25C580.25 582.25 574.5 576.75 566.75 576.75L431.75 576.75C424 576.75 418.25 582.25 418.25 590.25C418.25 598.25 424 603.75 431.75 603.75ZM461.25 107L537.5 107C549 107 558 98 558 86.25C558 75 549 66 537.5 66L461.25 66C449.5 66 440.5 75 440.5 86.25C440.5 98 449.5 107 461.25 107Z" fill="black" fill-opacity="0.85"/>
 </g>
</svg>
