<?xml version="1.0" encoding="UTF-8"?>
<!--Generator: Apple Native CoreSVG 326-->
<!DOCTYPE svg
PUBLIC "-//W3C//DTD SVG 1.1//EN"
       "http://www.w3.org/Graphics/SVG/1.1/DTD/svg11.dtd">
<svg version="1.1" xmlns="http://www.w3.org/2000/svg" xmlns:xlink="http://www.w3.org/1999/xlink" viewBox="0 0 401 671.75">
 <g>
  <rect height="671.75" opacity="0" width="401" x="0" y="0"/>
  <path d="M356.5 89L356.5 541C356.5 570.25 340.5 582.5 310.25 582.5L251 582.5L251 573C251 560.5 242.75 551.75 230.25 551.75L171 551.75C158.5 551.75 150.25 560.5 150.25 573L150.25 582.5L90.75 582.5C60.25 582.5 44.25 567.25 44.25 537.75L44.25 89C44.25 59.75 60.25 44.25 90.75 44.25L310.25 44.25C340.5 44.25 356.5 59.75 356.5 89Z" fill="black" fill-opacity="0.2125"/>
  <path d="M85.25 671.25L315.5 671.25C367.75 671.25 401 639.25 401 588.75L401 82.5C401 32 367.75 0 315.5 0L85.25 0C33 0 0 32 0 82.5L0 588.75C0 639.25 33 671.25 85.25 671.25ZM90.75 582.5C60.25 582.5 44.25 567.25 44.25 537.75L44.25 89C44.25 59.75 60.25 44.25 90.75 44.25L310.25 44.25C340.5 44.25 356.5 59.75 356.5 89L356.5 541C356.5 570.25 340.5 582.5 310.25 582.5ZM150.25 589.25L251 589.25L251 573C251 560.5 242.75 551.75 230.25 551.75L171 551.75C158.5 551.75 150.25 560.5 150.25 573Z" fill="black" fill-opacity="0.85"/>
 </g>
</svg>
