<?xml version="1.0" encoding="UTF-8"?>
<!--Generator: Apple Native CoreSVG 326-->
<!DOCTYPE svg
PUBLIC "-//W3C//DTD SVG 1.1//EN"
       "http://www.w3.org/Graphics/SVG/1.1/DTD/svg11.dtd">
<svg version="1.1" xmlns="http://www.w3.org/2000/svg" xmlns:xlink="http://www.w3.org/1999/xlink" viewBox="0 0 784.5 671.75">
 <g>
  <rect height="671.75" opacity="0" width="784.5" x="0" y="0"/>
  <path d="M592.75 82.5L592.75 257.25L548.5 257.25L548.5 89C548.5 59.75 532.5 44.25 502 44.25L282.5 44.25C252 44.25 236 59.75 236 89L236 582.25C236 611.5 252 627 282.5 627L502 627C532.5 627 548.5 611.5 548.5 582.25L548.5 413.75L592.75 413.75L592.75 588.75C592.75 639.25 559.5 671.25 507.5 671.25L277 671.25C225 671.25 191.75 639.25 191.75 588.75L191.75 82.5C191.75 32 225 0 277 0L507.5 0C559.5 0 592.75 32 592.75 82.5Z" fill="black" fill-opacity="0.85"/>
  <path d="M391.5 335.5C391.5 347.25 401.25 357.25 412.75 357.25L676.25 357.25L723.75 355.75L703 375.5L646 430C641.5 433.75 639.25 439.75 639.25 445.25C639.25 456.5 647.5 465 658.75 465C664.5 465 669 462.75 673.25 458.5L777.25 351.25C782.75 345.75 784.5 341 784.5 335.5C784.5 329.75 782.75 325 777.25 319.5L673.25 212.5C669 208.25 664.5 206 658.75 206C647.5 206 639.25 214.75 639.25 226C639.25 231.5 641.5 237.25 646 241L703 295.5L723.5 315.25L676.25 313.5L412.75 313.5C401.25 313.5 391.5 323.5 391.5 335.5Z" fill="black" fill-opacity="0.85"/>
 </g>
</svg>
