<?xml version="1.0" encoding="UTF-8"?>
<!--Generator: Apple Native CoreSVG 326-->
<!DOCTYPE svg
PUBLIC "-//W3C//DTD SVG 1.1//EN"
       "http://www.w3.org/Graphics/SVG/1.1/DTD/svg11.dtd">
<svg version="1.1" xmlns="http://www.w3.org/2000/svg" xmlns:xlink="http://www.w3.org/1999/xlink" viewBox="0 0 651.25 651.75">
 <g>
  <rect height="651.75" opacity="0" width="651.25" x="0" y="0"/>
  <path d="M651.25 326C651.25 505.5 505 651.75 325.5 651.75C146.25 651.75 0 505.5 0 326C0 146.75 146.25 0.5 325.5 0.5C505 0.5 651.25 146.75 651.25 326ZM254.75 115.5C221.5 115.5 200.5 136 200.5 168.5L200.5 483.75C200.5 516.25 221.5 536.5 254.75 536.5L396.75 536.5C430 536.5 451 516.25 451 483.75L451 168.5C451 136 430 115.5 396.75 115.5ZM422.25 172.25L422.25 480C422.25 498 412.5 507.5 393.5 507.5L258 507.5C239 507.5 229.25 498 229.25 480L229.25 172.25C229.25 154.25 239 144.75 258 144.75L393.5 144.75C412.5 144.75 422.25 154.25 422.25 172.25ZM284.25 474.75C279 474.75 275 478.75 275 484.5C275 489.75 279 493.5 284.25 493.5L367.25 493.5C372.5 493.5 376.5 489.75 376.5 484.5C376.5 478.75 372.5 474.75 367.25 474.75ZM301.5 161.5C293.75 161.5 288 167.25 288 174.75C288 182.5 293.75 188 301.5 188L349.75 188C357.5 188 363.25 182.5 363.25 174.75C363.25 167.25 357.5 161.5 349.75 161.5Z" fill="black" fill-opacity="0.85"/>
 </g>
</svg>
