<?xml version="1.0" encoding="UTF-8"?>
<!--Generator: Apple Native CoreSVG 326-->
<!DOCTYPE svg
PUBLIC "-//W3C//DTD SVG 1.1//EN"
       "http://www.w3.org/Graphics/SVG/1.1/DTD/svg11.dtd">
<svg version="1.1" xmlns="http://www.w3.org/2000/svg" xmlns:xlink="http://www.w3.org/1999/xlink" viewBox="0 0 651.25 651.75">
 <g>
  <rect height="651.75" opacity="0" width="651.25" x="0" y="0"/>
  <path d="M472 581L512.5 581L512.5 246.25C512.5 199 481.75 169.25 433 169.25L218 169.25C169 169.25 138.25 199 138.25 246.25L138.25 581L178.75 581L178.75 267.25L472 267.25ZM272.25 219.5C272.25 213.25 276.5 209.25 282.5 209.25L368.5 209.25C374.5 209.25 378.75 213.25 378.75 219.5C378.75 226 374.5 230.25 368.5 230.25L282.5 230.25C276.5 230.25 272.25 226 272.25 219.5ZM325.5 651.25C505.25 651.25 651.25 505.5 651.25 325.75C651.25 146 505.25 0 325.5 0C145.75 0 0 146 0 325.75C0 505.5 145.75 651.25 325.5 651.25ZM325.5 604.75C171.25 604.75 46.5 480 46.5 325.75C46.5 171.5 171.25 46.75 325.5 46.75C479.75 46.75 604.5 171.5 604.5 325.75C604.5 480 479.75 604.75 325.5 604.75Z" fill="black" fill-opacity="0.85"/>
 </g>
</svg>
