<?xml version="1.0" encoding="UTF-8"?>
<!--Generator: Apple Native CoreSVG 326-->
<!DOCTYPE svg
PUBLIC "-//W3C//DTD SVG 1.1//EN"
       "http://www.w3.org/Graphics/SVG/1.1/DTD/svg11.dtd">
<svg version="1.1" xmlns="http://www.w3.org/2000/svg" xmlns:xlink="http://www.w3.org/1999/xlink" viewBox="0 0 651.25 651.75">
 <g>
  <rect height="651.75" opacity="0" width="651.25" x="0" y="0"/>
  <path d="M651.25 326C651.25 505.5 505 651.75 325.5 651.75C146.25 651.75 0 505.5 0 326C0 146.75 146.25 0.5 325.5 0.5C505 0.5 651.25 146.75 651.25 326ZM200.25 483.75C200.25 516.25 221.25 536.5 254.25 536.5L396.5 536.5C423.743 536.5 442.978 522.699 448.822 499.572L422 472.75L422 480C422 498 412.25 507.5 393 507.5L257.75 507.5C238.5 507.5 229 498 229 480L229 279.75L200.25 251ZM160.75 161.25C155.5 166.75 155.75 175.5 160.75 180.5L471.25 490.75C476.25 496 485.25 496 490.5 490.75C495.75 485 495.75 476.75 490.5 471.5L180.25 161.25C175 155.75 166.5 155.75 160.75 161.25ZM284 474.75C278.75 474.75 274.75 478.75 274.75 484.5C274.75 489.75 278.75 493.5 284 493.5L367 493.5C372.25 493.5 376.25 489.75 376.25 484.5C376.25 478.75 372.25 474.75 367 474.75ZM254.25 115.5C227.242 115.5 208.272 129.231 202.293 152.048L229 178.777L229 172.25C229 154.25 238.5 144.75 257.75 144.75L281.5 144.75C284.25 144.75 285.25 145.75 285.25 148.25L285.25 152.25C285.25 160.75 290.75 166.25 298.75 166.25L352 166.25C360 166.25 365.75 160.75 365.75 152.25L365.75 148.25C365.75 145.75 366.75 144.75 369.25 144.75L393 144.75C412.25 144.75 422 154.25 422 172.25L422 371.932L450.75 400.705L450.75 168.5C450.75 136 429.5 115.5 396.5 115.5Z" fill="black" fill-opacity="0.85"/>
 </g>
</svg>
