<?xml version="1.0" encoding="UTF-8"?>
<!--Generator: Apple Native CoreSVG 326-->
<!DOCTYPE svg
PUBLIC "-//W3C//DTD SVG 1.1//EN"
       "http://www.w3.org/Graphics/SVG/1.1/DTD/svg11.dtd">
<svg version="1.1" xmlns="http://www.w3.org/2000/svg" xmlns:xlink="http://www.w3.org/1999/xlink" viewBox="0 0 651.25 653.75">
 <g>
  <rect height="653.75" opacity="0" width="651.25" x="0" y="0"/>
  <path d="M325.5 651.25C505.25 651.25 651.25 505.5 651.25 325.75C651.25 146 505.25 0 325.5 0C145.75 0 0 146 0 325.75C0 505.5 145.75 651.25 325.5 651.25ZM325.5 604.75C171.25 604.75 46.5 480 46.5 325.75C46.5 171.5 171.25 46.75 325.5 46.75C479.75 46.75 604.5 171.5 604.5 325.75C604.5 480 479.75 604.75 325.5 604.75Z" fill="black" fill-opacity="0.85"/>
  <path d="M136.5 422C140.75 417 139.25 411 134.5 405.5C114.5 383.5 104 355.75 104 325.75C104 295.5 114.5 267.75 134.5 245.75C139.25 240.5 140.75 234.25 136.5 229.25C132.25 224 124.5 224 119 229.25C95 255.25 81.75 289.5 81.75 325.75C81.75 361.75 95 396 119 422C124.5 427.5 132.25 427.5 136.5 422ZM514 422C518 427.5 525.75 427.5 531.25 422C555.25 396 568.75 361.75 568.75 325.75C568.75 289.5 555.25 255.25 531.25 229.25C525.75 224 518 224 514 229.25C509.75 234.25 511 240.5 515.75 245.75C535.75 267.75 546.25 295.5 546.25 325.75C546.25 355.75 535.75 383.5 515.75 405.5C511 411 509.75 417 514 422Z" fill="black" fill-opacity="0.85"/>
  <path d="M182.5 382C186.5 377 185.25 371 180.75 365.25C172 355.25 167.25 341.25 167.25 325.75C167.25 310 172 296 180.75 286C185.25 280.25 186.5 274.5 182.5 269.25C178 264 169.75 264 165 270C152 285.25 144.5 304.75 144.5 325.75C144.5 346.5 152 366 165 381.25C169.75 387.25 178 387.25 182.5 382ZM467.75 382C472.25 387.25 480.5 387.25 485.25 381.25C498.25 366 505.75 346.5 505.75 325.75C505.75 304.75 498.25 285.25 485.25 270C480.5 264 472.25 264 467.75 269.25C463.75 274.5 465.25 280.25 469.5 286C478.5 296 483 310 483 325.75C483 341.25 478.5 355.25 469.5 365.25C465.25 371 463.75 377 467.75 382Z" fill="black" fill-opacity="0.85"/>
  <path d="M262.5 512L388.25 512C417.75 512 436.75 494 436.75 465.25L436.75 186.25C436.75 157.25 417.75 139 388.25 139L262.5 139C233.25 139 214.25 157.25 214.25 186.25L214.25 465.25C214.25 494 233.25 512 262.5 512ZM265.75 486C249 486 240.5 478 240.5 461.75L240.5 189.5C240.5 173.5 248.75 165.25 265.75 165.25L385.25 165.25C402.25 165.25 410.75 173.5 410.75 189.5L410.75 461.75C410.75 478 402.25 486 385.25 486ZM303.75 203L347 203C353.75 203 358.75 197.75 358.75 191C358.75 184.5 353.75 179.25 347 179.25L303.75 179.25C297 179.25 292 184.5 292 191C292 197.75 297 203 303.75 203ZM288.75 474.5L362.25 474.5C367.5 474.5 370.75 470.75 370.75 466C370.75 460.75 367.5 457.25 362.25 457.25L288.75 457.25C284 457.25 280.25 460.5 280.25 466C280.25 471 283.75 474.5 288.75 474.5Z" fill="black" fill-opacity="0.85"/>
 </g>
</svg>
