<?xml version="1.0" encoding="UTF-8"?>
<!--Generator: Apple Native CoreSVG 326-->
<!DOCTYPE svg
PUBLIC "-//W3C//DTD SVG 1.1//EN"
       "http://www.w3.org/Graphics/SVG/1.1/DTD/svg11.dtd">
<svg version="1.1" xmlns="http://www.w3.org/2000/svg" xmlns:xlink="http://www.w3.org/1999/xlink" viewBox="0 0 998 671.75">
 <g>
  <rect height="671.75" opacity="0" width="998" x="0" y="0"/>
  <path d="M118.75 552.5C127.25 542.5 124.5 529.5 114.75 518.5C70.25 470 44.75 406.25 44.75 335.75C44.75 265 70.25 201.25 114.75 152.75C124.5 141.75 127.25 128.75 118.75 119C109.75 108.75 94.5 108.75 84 120.25C30.5 177.25 0 253 0 335.75C0 418.25 30.5 494.25 84 551C94.5 562.5 109.75 562.75 118.75 552.5ZM879.5 552.5C888.25 562.75 903.5 562.5 914.25 551C967.5 494.25 998 418.25 998 335.75C998 253 967.5 177.25 914.25 120.25C903.5 108.75 888.25 108.75 879.5 119C870.75 128.75 873.5 141.75 883.25 152.75C928 201.25 953.25 265 953.25 335.75C953.25 406.25 928 470 883.25 518.5C873.5 529.5 870.75 542.5 879.5 552.5Z" fill="black" fill-opacity="0.425"/>
  <path d="M208 461.5C216.75 451.5 213 439 204.25 427.5C183 403.25 172.75 370.75 172.75 335.75C172.75 300.75 183 268 204.25 243.75C213 232.25 216.75 219.75 208 210C198.75 199.75 182.5 199.5 172.75 211.75C144.25 245.5 128 289 128 335.75C128 382.5 144.25 425.75 172.75 459.5C182.5 471.75 198.75 471.75 208 461.5ZM790 461.5C799.25 471.75 815.5 471.75 825.5 459.5C853.75 425.75 870.25 382.5 870.25 335.75C870.25 289 853.75 245.5 825.5 211.75C815.5 199.5 799.25 199.75 790 210C781.5 219.75 785 232.25 793.75 243.75C815 268 825.25 300.75 825.25 335.75C825.25 370.75 815 403.25 793.75 427.5C785 439 781.5 451.5 790 461.5Z" fill="black" fill-opacity="0.425"/>
  <path d="M343 566.5L343 105L655.25 105L655.25 566.5ZM499.5 640.75C484.75 640.75 472.75 628.5 472.75 613.75C472.75 599 484.75 587.25 499.5 587.25C514.25 587.25 526.25 599 526.25 613.75C526.25 628.5 514.25 640.75 499.5 640.75ZM442 54.25C442 47.5 446.5 43 453.25 43L545.5 43C552 43 556.75 47.5 556.75 54.25C556.75 61 552 65.5 545.5 65.5L453.25 65.5C446.5 65.5 442 61 442 54.25Z" fill="black" fill-opacity="0.2125"/>
  <path d="M298.75 589C298.75 639.5 331.75 671.5 384 671.5L614.25 671.5C666.5 671.5 699.75 639.5 699.75 589L699.75 82.5C699.75 32 666.5 0 614.25 0L384 0C331.75 0 298.75 32 298.75 82.5ZM343 566.5L343 105L655.25 105L655.25 566.5ZM499.5 640.75C484.75 640.75 472.75 628.5 472.75 613.75C472.75 599 484.75 587.25 499.5 587.25C514.25 587.25 526.25 599 526.25 613.75C526.25 628.5 514.25 640.75 499.5 640.75ZM442 54.25C442 47.5 446.5 43 453.25 43L545.5 43C552 43 556.75 47.5 556.75 54.25C556.75 61 552 65.5 545.5 65.5L453.25 65.5C446.5 65.5 442 61 442 54.25Z" fill="black" fill-opacity="0.85"/>
 </g>
</svg>
