<?xml version="1.0" encoding="UTF-8"?>
<!--Generator: Apple Native CoreSVG 326-->
<!DOCTYPE svg
PUBLIC "-//W3C//DTD SVG 1.1//EN"
       "http://www.w3.org/Graphics/SVG/1.1/DTD/svg11.dtd">
<svg version="1.1" xmlns="http://www.w3.org/2000/svg" xmlns:xlink="http://www.w3.org/1999/xlink" viewBox="0 0 1063.75 671.75">
 <g>
  <rect height="671.75" opacity="0" width="1063.75" x="0" y="0"/>
  <path d="M416.75 671.25L647 671.25C699.25 671.25 732.25 639.25 732.25 588.75L732.25 82.5C732.25 32 699.25 0 647 0L416.75 0C364.5 0 331.5 32 331.5 82.5L331.5 588.75C331.5 639.25 364.5 671.25 416.75 671.25ZM422 627C391.75 627 375.75 611.5 375.75 582.25L375.75 89C375.75 59.75 391.75 44.25 422 44.25L462.5 44.25C467.5 44.25 470 47 470 51.75L470 58C470 70.5 478.25 79.25 490.75 79.25L573.25 79.25C585.75 79.25 594 70.5 594 58L594 51.75C594 47 596.5 44.25 601.25 44.25L641.75 44.25C672 44.25 688 59.75 688 89L688 582.25C688 611.5 672 627 641.75 627ZM464.5 603.75L599.5 603.75C607.25 603.75 613 598.25 613 590.25C613 582.25 607.25 576.75 599.5 576.75L464.5 576.75C456.75 576.75 451 582.25 451 590.25C451 598.25 456.75 603.75 464.5 603.75Z" fill="black" fill-opacity="0.85"/>
  <path d="M1063.75 211C1063.75 199 1054.25 189.5 1042.5 189.5L912.5 189.5L912.5 132.75C912.5 110.5 889.75 102.75 874.75 116.25L785.25 193.75C773.75 203.5 773.75 217.75 785.25 227.75L874.75 305.25C890.5 319.25 912.5 310.25 912.5 288.75L912.5 232.25L1042.5 232.25C1054.25 232.25 1063.75 222.75 1063.75 211Z" fill="black" fill-opacity="0.85"/>
  <path d="M0 211C0 222.75 9.5 232.25 21.5 232.25L151.25 232.25L151.25 288.75C151.25 310.25 173.25 319.25 189 305.25L278.5 227.75C290 217.75 290 203.5 278.5 193.75L189 116.25C174 102.75 151.25 110.5 151.25 132.75L151.25 189.5L21.5 189.5C9.5 189.5 0 199 0 211Z" fill="black" fill-opacity="0.85"/>
 </g>
</svg>
