<?xml version="1.0" encoding="UTF-8"?>
<!--Generator: Apple Native CoreSVG 326-->
<!DOCTYPE svg
PUBLIC "-//W3C//DTD SVG 1.1//EN"
       "http://www.w3.org/Graphics/SVG/1.1/DTD/svg11.dtd">
<svg version="1.1" xmlns="http://www.w3.org/2000/svg" xmlns:xlink="http://www.w3.org/1999/xlink" viewBox="0 0 651.25 651.75">
 <g>
  <rect height="651.75" opacity="0" width="651.25" x="0" y="0"/>
  <path d="M325.5 651.25C505.25 651.25 651.25 505.5 651.25 325.75C651.25 146 505.25 0 325.5 0C145.75 0 0 146 0 325.75C0 505.5 145.75 651.25 325.5 651.25ZM325.5 604.75C171.25 604.75 46.5 480 46.5 325.75C46.5 171.5 171.25 46.75 325.5 46.75C479.75 46.75 604.5 171.5 604.5 325.75C604.5 480 479.75 604.75 325.5 604.75Z" fill="black" fill-opacity="0.85"/>
  <path d="M136.25 422C140.5 417 139 411 134.25 405.5C114.25 383.5 103.75 355.75 103.75 325.75C103.75 295.5 114.25 267.75 134.25 245.75C139 240.5 140.5 234.25 136.25 229.25C132 224 124.25 224 118.75 229.5C94.75 255.5 81.5 289.5 81.5 325.75C81.5 361.75 94.75 396 118.75 422C124.25 427.5 132 427.5 136.25 422ZM513.75 422C517.75 427.5 525.5 427.5 531 422C555 396 568.5 361.75 568.5 325.75C568.5 289.5 555 255.5 531 229.5C525.5 224 517.75 224 513.75 229.25C509.5 234.25 510.75 240.5 515.5 245.75C535.5 267.75 546 295.5 546 325.75C546 355.75 535.5 383.5 515.5 405.5C510.75 411 509.5 417 513.75 422Z" fill="black" fill-opacity="0.85"/>
  <path d="M182.25 382C186.25 377 185 371.25 180.5 365.25C171.75 355.25 167 341.5 167 325.75C167 310 171.75 296 180.5 286C185 280.25 186.25 274.5 182.25 269.25C177.75 264 169.5 264.25 164.75 270C151.75 285.25 144.25 304.75 144.25 325.75C144.25 346.5 151.75 366 164.75 381.5C169.5 387.25 177.75 387.25 182.25 382ZM467.5 382C472 387.25 480.25 387.25 485 381.5C498 366 505.5 346.5 505.5 325.75C505.5 304.75 498 285.25 485 270C480.25 264.25 472 264 467.5 269.25C463.5 274.5 465 280.25 469.25 286C478.25 296 482.75 310 482.75 325.75C482.75 341.5 478.25 355.25 469.25 365.25C465 371.25 463.5 377 467.5 382Z" fill="black" fill-opacity="0.85"/>
  <path d="M262.25 512.25L388 512.25C417.5 512.25 436.5 494 436.5 465.25L436.5 186.25C436.5 157.25 417.5 139 388 139L262.25 139C232.75 139 214 157.25 214 186.25L214 465.25C214 494 232.75 512.25 262.25 512.25ZM265.5 486.25C248.75 486.25 240.25 478 240.25 462L240.25 189.5C240.25 173.5 248.5 165 265.5 165L287 165C289.5 165 290 166 290 168L290 171.25C290 179 295 184.25 302.25 184.25L348 184.25C355.75 184.25 360.5 179 360.5 171.25L360.5 168C360.5 165.75 361.25 165 363.5 165L385 165C402 165 410.5 173.5 410.5 189.5L410.5 462C410.5 478 402 486.25 385 486.25ZM288.5 474.5L362 474.5C367.25 474.5 370.5 471 370.5 466C370.5 460.75 367.25 457.25 362 457.25L288.5 457.25C283.75 457.25 280 460.5 280 466C280 471.25 283.5 474.5 288.5 474.5Z" fill="black" fill-opacity="0.85"/>
 </g>
</svg>
