<?xml version="1.0" encoding="UTF-8"?>
<!--Generator: Apple Native CoreSVG 326-->
<!DOCTYPE svg
PUBLIC "-//W3C//DTD SVG 1.1//EN"
       "http://www.w3.org/Graphics/SVG/1.1/DTD/svg11.dtd">
<svg version="1.1" xmlns="http://www.w3.org/2000/svg" xmlns:xlink="http://www.w3.org/1999/xlink" viewBox="0 0 605.75 740.25">
 <g>
  <rect height="740.25" opacity="0" width="605.75" x="0" y="0"/>
  <path d="M391.5 123.25L320.5 123.25C256 123.25 211.75 166 211.75 229.5L211.75 634C211.75 643.614 212.756 652.745 214.802 661.25L125.5 661.25C95.25 661.25 79.25 645.75 79.25 616.5L79.25 123.25C79.25 94 95.25 78.5 125.5 78.5L345 78.5C375.5 78.5 391.5 94 391.5 123.25Z" fill="black" fill-opacity="0.2125"/>
  <path d="M435.75 116.75L435.75 123.25L391.5 123.25C391.5 94 375.5 78.5 345 78.5L125.5 78.5C95.25 78.5 79.25 94 79.25 123.25L79.25 616.5C79.25 645.75 95.25 661.25 125.5 661.25L214.802 661.25C218.554 678.496 226.129 693.441 236.823 705.5L120.25 705.5C68 705.5 34.75 673.5 34.75 623L34.75 116.75C34.75 66.25 68 34.25 120.25 34.25L350.5 34.25C402.75 34.25 435.75 66.25 435.75 116.75ZM294 120.5C294 122.46 293.75 124.344 293.258 126.112C279.363 128.917 266.889 134.078 256.151 141.25L197.25 141.25C185.5 141.25 176.5 132.25 176.5 120.5C176.5 109.25 185.5 100.25 197.25 100.25L273.5 100.25C285 100.25 294 109.25 294 120.5Z" fill="black" fill-opacity="0.85"/>
  <path d="M328 663.75C302.25 663.75 288.25 650 288.25 625.25L288.25 238C288.25 213.5 302.25 199.75 328 199.75L489.25 199.75C514.75 199.75 529 213.5 529 238L529 625.25C529 650 514.75 663.75 489.25 663.75Z" fill="black" fill-opacity="0.2125"/>
  <path d="M320.5 705.5L497 705.5C542.5 705.5 570.75 678 570.75 634L570.75 229.5C570.75 185.5 542.5 158 497 158L320.5 158C275 158 246.5 185.5 246.5 229.5L246.5 634C246.5 678 275 705.5 320.5 705.5ZM328 663.75C302.25 663.75 288.25 650 288.25 625.25L288.25 238C288.25 213.5 302.25 199.75 328 199.75L489.25 199.75C514.75 199.75 529 213.5 529 238L529 625.25C529 650 514.75 663.75 489.25 663.75ZM375 260.75L445.5 260.75C456.25 260.75 465 252.25 465 241C465 230.25 456.25 221.5 445.5 221.5L375 221.5C364 221.5 355.5 230.25 355.5 241C355.5 252.25 364 260.75 375 260.75Z" fill="black" fill-opacity="0.85"/>
 </g>
</svg>
