<?xml version="1.0" encoding="UTF-8"?>
<!--Generator: Apple Native CoreSVG 326-->
<!DOCTYPE svg
PUBLIC "-//W3C//DTD SVG 1.1//EN"
       "http://www.w3.org/Graphics/SVG/1.1/DTD/svg11.dtd">
<svg version="1.1" xmlns="http://www.w3.org/2000/svg" xmlns:xlink="http://www.w3.org/1999/xlink" viewBox="0 0 643.25 709.25">
 <g>
  <rect height="709.25" opacity="0" width="643.25" x="0" y="0"/>
  <path d="M22.25 159C36.5 159 44.25 151 44.25 136.5L44.25 98.75C44.25 62.75 63.25 44.25 98.25 44.25L137.5 44.25C152 44.25 160 36.25 160 22C160 8 152 0 137.5 0L97.25 0C32.75 0 0 32.25 0 96.25L0 136.5C0 151 8 159 22.25 159ZM621 159C635.25 159 643.25 151 643.25 136.5L643.25 96.25C643.25 32.75 610.5 0 546 0L505.75 0C491.25 0 483.25 8 483.25 22C483.25 36.25 491.25 44.25 505.75 44.25L545 44.25C579.25 44.25 599 62.75 599 98.75L599 136.5C599 151 606.75 159 621 159ZM97.25 469.75L137.5 469.75C152 469.75 160 461.75 160 447.5C160 433.5 152 425.5 137.5 425.5L98.25 425.5C63.25 425.5 44.25 407 44.25 371L44.25 333.25C44.25 318.75 36.5 310.75 22.25 310.75C8 310.75 0 318.75 0 333.25L0 373.5C0 437.5 32.75 469.75 97.25 469.75ZM505.75 469.75L546 469.75C610.5 469.75 643.25 437 643.25 373.5L643.25 333.25C643.25 318.75 635.25 310.75 621 310.75C606.75 310.75 599 318.75 599 333.25L599 371C599 407 579.25 425.5 545 425.5L505.75 425.5C491.25 425.5 483.25 433.5 483.25 447.5C483.25 461.75 491.25 469.75 505.75 469.75Z" fill="black" fill-opacity="0.85"/>
  <path d="M322 393.5C409.75 393.5 480.25 323 480.25 235C480.25 147.75 409.75 76.75 322 76.75C234.75 76.75 163.75 147.75 163.75 235C163.75 323 230 393.5 322 393.5ZM322 354.25C252.25 354.25 203 301.75 203 235C203 169 256 116 322 116C388.5 116 441 169 441 235C441 301.75 388.5 354.25 322 354.25ZM302 582.75L342.5 582.75L342.5 381.75L302 381.75ZM225.5 708.75L418.75 708.75C451.75 708.75 472.5 688.25 472.5 656.25L472.5 608.25C472.5 576 451.75 555.5 418.75 555.5L225.5 555.5C192.5 555.5 171.75 576 171.75 608.25L171.75 656.25C171.75 688.25 192.5 708.75 225.5 708.75ZM231.5 668C220 668 212.5 660.5 212.5 648.75L212.5 615.75C212.5 603.75 220 595.75 231.5 595.75L412.75 595.75C424.25 595.75 432.25 603.75 432.25 615.75L432.25 648.75C432.25 660.5 424.25 668 412.75 668Z" fill="black" fill-opacity="0.85"/>
 </g>
</svg>
