<?xml version="1.0" encoding="UTF-8"?>
<!--Generator: Apple Native CoreSVG 326-->
<!DOCTYPE svg
PUBLIC "-//W3C//DTD SVG 1.1//EN"
       "http://www.w3.org/Graphics/SVG/1.1/DTD/svg11.dtd">
<svg version="1.1" xmlns="http://www.w3.org/2000/svg" xmlns:xlink="http://www.w3.org/1999/xlink" viewBox="0 0 570 671.75">
 <g>
  <rect height="671.75" opacity="0" width="570" x="0" y="0"/>
  <path d="M441 411.25L485.5 455.5L485.5 82.5C485.5 32 452.25 0 400 0L169.75 0C128.75 0 100.75 19 92.25 54.25L90.5 60.5L128.75 98.75L128.75 88.5C128.75 59.25 144.75 44.25 175.25 44.25L394.75 44.25C425 44.25 441 59.75 441 89ZM247 111.75L323.25 111.75C334.75 111.75 343.75 102.75 343.75 91C343.75 79.75 334.75 70.75 323.25 70.75L247 70.75C235.25 70.75 226.25 79.75 226.25 91C226.25 102.75 235.25 111.75 247 111.75ZM169.75 671.25L400 671.25C440.25 671.25 467 652.5 476.5 618.5C477 616.75 477.75 614.5 478.25 612.75L441 574.5C441 577.75 441 581 441 584.5C440 612.5 424 627 394.75 627L175.25 627C144.75 627 128.75 611.5 128.75 582.25L128.75 262.75L84.5 218.5L84.5 588.75C84.5 639.25 117.5 671.25 169.75 671.25ZM217.5 603.75L352.5 603.75C360.5 603.75 366 598.25 366 590.25C366 582.25 360.5 576.75 352.5 576.75L217.5 576.75C209.75 576.75 204 582.25 204 590.25C204 598.25 209.75 603.75 217.5 603.75Z" fill="black" fill-opacity="0.85"/>
  <path d="M533 615.5C541.5 623.75 555 623.5 563.25 615.5C571.75 607.25 571.5 593.5 563.25 585.25L36.5 58.5C28.25 50.25 14.75 49.75 6 58.5C-2 66.75-2 80.5 6 88.75Z" fill="black" fill-opacity="0.85"/>
 </g>
</svg>
