<?xml version="1.0" encoding="UTF-8"?>
<!--Generator: Apple Native CoreSVG 326-->
<!DOCTYPE svg
PUBLIC "-//W3C//DTD SVG 1.1//EN"
       "http://www.w3.org/Graphics/SVG/1.1/DTD/svg11.dtd">
<svg version="1.1" xmlns="http://www.w3.org/2000/svg" xmlns:xlink="http://www.w3.org/1999/xlink" viewBox="0 0 639.375 671.75">
 <g>
  <rect height="671.75" opacity="0" width="639.375" x="0" y="0"/>
  <path d="M163.563 260.36L163.562 582.25C163.562 611.5 179.562 627 210.062 627L429.562 627C460.062 627 476.062 611.5 476.062 582.25L476.062 572.564L517.224 613.687C507.972 649.563 477.871 671.25 435.062 671.25L204.562 671.25C152.562 671.25 119.312 639.25 119.312 588.75L119.313 216.152ZM401.062 590.25C401.062 598.25 395.312 603.75 387.562 603.75L252.562 603.75C244.562 603.75 238.812 598.25 238.812 590.25C238.812 582.25 244.562 576.75 252.562 576.75L387.562 576.75C395.312 576.75 401.062 582.25 401.062 590.25ZM520.312 82.5L520.312 458.049L476.062 413.82L476.062 89C476.062 59.75 460.062 44.25 429.562 44.25L210.062 44.25C179.562 44.25 163.562 59.75 163.562 89L163.563 101.468L121.891 59.8166C130.421 22.5877 160.874 0 204.562 0L435.062 0C487.062 0 520.312 32 520.312 82.5ZM378.562 86.25C378.562 98 369.562 107 358.062 107L281.812 107C270.062 107 261.062 98 261.062 86.25C261.062 75 270.062 66 281.812 66L358.062 66C369.562 66 378.562 75 378.562 86.25Z" fill="black" fill-opacity="0.85"/>
  <path d="M568.062 615.5C576.312 623.75 590.062 623.5 598.312 615.5C606.562 607.25 606.562 593.5 598.312 585.25L71.3125 58.5C63.3125 50.25 49.8125 49.75 41.0625 58.5C32.8125 66.75 32.8125 80.5 41.0625 88.75Z" fill="black" fill-opacity="0.85"/>
 </g>
</svg>
