<?xml version="1.0" encoding="UTF-8"?>
<!--Generator: Apple Native CoreSVG 326-->
<!DOCTYPE svg
PUBLIC "-//W3C//DTD SVG 1.1//EN"
       "http://www.w3.org/Graphics/SVG/1.1/DTD/svg11.dtd">
<svg version="1.1" xmlns="http://www.w3.org/2000/svg" xmlns:xlink="http://www.w3.org/1999/xlink" viewBox="0 0 429 400.75">
 <g>
  <rect height="400.75" opacity="0" width="429" x="0" y="0"/>
  <path d="M0 326.75C0 372.75 27.25 400.75 70.75 400.75L358 400.75C401.75 400.75 429 372.75 429 326.75L429 74C429 28 401 0 358 0L70.75 0C27.25 0 0 28 0 74ZM44.25 321.75L44.25 79C44.25 57 56.75 44.25 77.75 44.25L351.25 44.25C372.25 44.25 384.5 57 384.5 79L384.5 321.75C384.5 343.75 372.25 356.5 351.25 356.5L77.75 356.5C56.75 356.5 44.25 343.75 44.25 321.75ZM214.5 320C280.75 320 334.25 266.5 334.25 200.25C334.25 134 280.75 80.25 214.5 80.25C148.25 80.25 94.75 134 94.75 200.25C94.75 266.5 148.25 320 214.5 320ZM214.5 284C167.75 284 130.5 247 130.5 200.25C130.5 153.5 167.75 116.25 214.5 116.25C261.25 116.25 298.5 153.5 298.5 200.25C298.5 247 261.25 284 214.5 284Z" fill="black" fill-opacity="0.85"/>
 </g>
</svg>
