<?xml version="1.0" encoding="UTF-8"?>
<!--Generator: Apple Native CoreSVG 326-->
<!DOCTYPE svg
PUBLIC "-//W3C//DTD SVG 1.1//EN"
       "http://www.w3.org/Graphics/SVG/1.1/DTD/svg11.dtd">
<svg version="1.1" xmlns="http://www.w3.org/2000/svg" xmlns:xlink="http://www.w3.org/1999/xlink" viewBox="0 0 401 671.75">
 <g>
  <rect height="671.75" opacity="0" width="401" x="0" y="0"/>
  <path d="M44.25 566.5L44.25 105L356.5 105L356.5 566.5ZM200.75 640.75C186 640.75 174 628.5 174 613.75C174 599 186 587.25 200.75 587.25C215.5 587.25 227.5 599 227.5 613.75C227.5 628.5 215.5 640.75 200.75 640.75ZM200.75 70.75C190.75 70.75 182.5 62.5 182.5 52.25C182.5 42.25 190.75 34.25 200.75 34.25C210.75 34.25 219 42.25 219 52.25C219 62.5 210.75 70.75 200.75 70.75Z" fill="black" fill-opacity="0.2125"/>
  <path d="M0 589C0 639.5 33 671.5 85.25 671.5L315.5 671.5C367.75 671.5 401 639.5 401 589L401 82.5C401 32 367.75 0 315.5 0L85.25 0C33 0 0 32 0 82.5ZM44.25 566.5L44.25 105L356.5 105L356.5 566.5ZM200.75 640.75C186 640.75 174 628.5 174 613.75C174 599 186 587.25 200.75 587.25C215.5 587.25 227.5 599 227.5 613.75C227.5 628.5 215.5 640.75 200.75 640.75ZM200.75 70.75C190.75 70.75 182.5 62.5 182.5 52.25C182.5 42.25 190.75 34.25 200.75 34.25C210.75 34.25 219 42.25 219 52.25C219 62.5 210.75 70.75 200.75 70.75Z" fill="black" fill-opacity="0.85"/>
 </g>
</svg>
