<?xml version="1.0" encoding="UTF-8"?>
<!--Generator: Apple Native CoreSVG 326-->
<!DOCTYPE svg
PUBLIC "-//W3C//DTD SVG 1.1//EN"
       "http://www.w3.org/Graphics/SVG/1.1/DTD/svg11.dtd">
<svg version="1.1" xmlns="http://www.w3.org/2000/svg" xmlns:xlink="http://www.w3.org/1999/xlink" viewBox="0 0 522.75 406.25">
 <g>
  <rect height="406.25" opacity="0" width="522.75" x="0" y="0"/>
  <path d="M0 332C0 378 27.25 406.25 70.75 406.25L452 406.25C495.5 406.25 522.75 378 522.75 332L522.75 74.25C522.75 28.25 495.5 0 452 0L70.75 0C27.25 0 0 28.25 0 74.25ZM44.25 327L44.25 79.25C44.25 57.25 56.75 44.5 77.75 44.5L445 44.5C466 44.5 478.5 57.25 478.5 79.25L478.5 327C478.5 349 466 361.75 445 361.75L77.75 361.75C56.75 361.75 44.25 349 44.25 327ZM316.25 322.75C382.5 322.75 436.25 269.25 436.25 203C436.25 136.75 382.5 83 316.25 83C250 83 196.5 136.75 196.5 203C196.5 269.25 250 322.75 316.25 322.75ZM316.25 286.75C269.5 286.75 232.5 249.75 232.5 203C232.5 156.25 269.5 119 316.25 119C363 119 400.25 156.25 400.25 203C400.25 249.75 363 286.75 316.25 286.75Z" fill="black" fill-opacity="0.85"/>
 </g>
</svg>
