<?xml version="1.0" encoding="UTF-8"?>
<!--Generator: Apple Native CoreSVG 326-->
<!DOCTYPE svg
PUBLIC "-//W3C//DTD SVG 1.1//EN"
       "http://www.w3.org/Graphics/SVG/1.1/DTD/svg11.dtd">
<svg version="1.1" xmlns="http://www.w3.org/2000/svg" xmlns:xlink="http://www.w3.org/1999/xlink" viewBox="0 0 332.5 671.75">
 <g>
  <rect height="671.75" opacity="0" width="332.5" x="0" y="0"/>
  <path d="M166.5 310.25C221.25 310.25 265.75 265.75 265.75 211C265.75 156.25 221.25 111.5 166.5 111.5C111.75 111.5 67.5 156.25 67.5 211C67.5 265.75 111.75 310.25 166.5 310.25ZM166.5 277.25C129.75 277.25 100.5 247.75 100.5 211C100.5 174 129.75 144.5 166.5 144.5C203.25 144.5 232.75 174 232.75 211C232.75 247.75 203.25 277.25 166.5 277.25ZM85.25 671.5L247.25 671.5C300.5 671.5 332.5 640.25 332.5 589L332.5 82.5C332.5 31.25 300.5 0 247.25 0L85.25 0C32 0 0 31.25 0 82.5L0 589C0 640.25 32 671.5 85.25 671.5ZM90.75 627.25C60.5 627.25 44.25 611.5 44.25 582.5L44.25 89C44.25 60 60.5 44.25 90.75 44.25L242 44.25C272 44.25 288.25 60 288.25 89L288.25 582.5C288.25 611.5 272 627.25 242 627.25Z" fill="black" fill-opacity="0.85"/>
 </g>
</svg>
