<?xml version="1.0" encoding="UTF-8"?>
<!--Generator: Apple Native CoreSVG 326-->
<!DOCTYPE svg
PUBLIC "-//W3C//DTD SVG 1.1//EN"
       "http://www.w3.org/Graphics/SVG/1.1/DTD/svg11.dtd">
<svg version="1.1" xmlns="http://www.w3.org/2000/svg" xmlns:xlink="http://www.w3.org/1999/xlink" viewBox="0 0 913.5 740.75">
 <g>
  <rect height="740.75" opacity="0" width="913.5" x="0" y="0"/>
  <path d="M810 180.25L810 561.25L880.75 561.25C899 561.25 913.5 576 913.5 594.5C913.5 613 899 627.75 880.75 627.75L32.75 627.75C14.5 627.75 0 613 0 594.5C0 576 14.5 561.25 32.75 561.25L103.5 561.25L103.5 180.25C103.5 136.25 128.75 113.5 170.75 113.5L378.5 113.5L378.5 157.75L182 157.75C159.25 157.75 147.75 169 147.75 192L147.75 561.25L765.75 561.25L765.75 192C765.75 169 754.25 157.75 731.5 157.75L535 157.75L535 113.5L742.75 113.5C786.75 113.5 810 136.25 810 180.25Z" fill="black" fill-opacity="0.85"/>
  <path d="M456.75 0C445 0 434.75 9.75 434.75 21.5L434.75 315.75L436.5 363.25L416.75 342.75L362.25 285.5C358.5 281.25 352.25 279 347 279C335.5 279 327.25 287.25 327.25 298.5C327.25 304.25 329.5 308.75 333.75 312.75L441 417C446.25 422.5 451.25 424.25 456.75 424.25C462.25 424.25 467.25 422.5 472.75 417L579.75 312.75C583.75 308.75 586.25 304.25 586.25 298.5C586.25 287.25 577.5 279 566 279C560.75 279 554.75 281.25 551 285.5L496.75 342.75L477 363.25L478.75 315.75L478.75 21.5C478.75 9.75 468.75 0 456.75 0Z" fill="black" fill-opacity="0.85"/>
 </g>
</svg>
