<?xml version="1.0" encoding="UTF-8"?>
<!--Generator: Apple Native CoreSVG 326-->
<!DOCTYPE svg
PUBLIC "-//W3C//DTD SVG 1.1//EN"
       "http://www.w3.org/Graphics/SVG/1.1/DTD/svg11.dtd">
<svg version="1.1" xmlns="http://www.w3.org/2000/svg" xmlns:xlink="http://www.w3.org/1999/xlink" viewBox="0 0 913.5 514.75">
 <g>
  <rect height="514.75" opacity="0" width="913.5" x="0" y="0"/>
  <path d="M0 481.5C0 500 14.5 514.75 32.75 514.75L880.75 514.75C899 514.75 913.5 500 913.5 481.5C913.5 463 899 448.25 880.75 448.25L810 448.25L810 67.25C810 23.25 786.75 0.5 742.75 0.5L170.75 0.5C128.75 0.5 103.5 23.25 103.5 67.25L103.5 448.25L32.75 448.25C14.5 448.25 0 463 0 481.5ZM147.75 448.25L147.75 79C147.75 56 159.25 44.75 182 44.75L731.5 44.75C754.25 44.75 765.75 56 765.75 79L765.75 448.25Z" fill="black" fill-opacity="0.85"/>
  <path d="M401.75 358L511.75 358C529.5 358 538.75 348.5 538.75 329.75L538.75 242.75C538.75 227.25 532.25 218 520.25 215L520.25 195.5C520.25 154 494.75 125.5 456.75 125.5C419.25 125.5 393.75 154 393.75 195.5L393.75 215.25C381.5 218 375 227.25 375 242.75L375 329.75C375 348.5 384 358 401.75 358ZM422.5 214.25L422.5 193.25C422.5 169.25 436 153.5 456.75 153.5C477.5 153.5 491.25 169.25 491.25 193.25L491.25 214.25Z" fill="black" fill-opacity="0.85"/>
 </g>
</svg>
