<?xml version="1.0" encoding="UTF-8"?>
<!--Generator: Apple Native CoreSVG 326-->
<!DOCTYPE svg
PUBLIC "-//W3C//DTD SVG 1.1//EN"
       "http://www.w3.org/Graphics/SVG/1.1/DTD/svg11.dtd">
<svg version="1.1" xmlns="http://www.w3.org/2000/svg" xmlns:xlink="http://www.w3.org/1999/xlink" viewBox="0 0 530.5 716.75">
 <g>
  <rect height="716.75" opacity="0" width="530.5" x="0" y="0"/>
  <path d="M0 631.75C0 683.5 34.5 716.75 88 716.75L442.5 716.75C496 716.75 530.5 683.5 530.5 631.75L530.5 85C530.5 33.25 496 0 442.5 0L88 0C34.5 0 0 33.25 0 85ZM44.25 624.75L44.25 92C44.25 61.5 62 44.25 93.25 44.25L437 44.25C468.25 44.25 486 61.5 486 92L486 624.75C486 655 468.25 672.25 437 672.25L93.25 672.25C62 672.25 44.25 655 44.25 624.75Z" fill="black" fill-opacity="0.85"/>
  <path d="M150.75 439.75C150.75 457.75 159.25 466.75 176.5 466.75L285.75 466.75C303.25 466.75 311.75 457.75 311.75 439.75L311.75 355.75C311.75 337.5 303.25 328.5 285.75 328.5L176.5 328.5C159.25 328.5 150.75 337.5 150.75 355.75ZM262.5 344.25L291.5 344.25L291.5 301.5C291.5 276.5 305 260.5 327.75 260.5C350.5 260.5 364 276.5 364 301.5L364 322.5C364 330.5 370.5 337.25 378.5 337.25C386.25 337.25 393 330.5 393 322.5L393 301.5C393 261.25 367 232.25 327.75 232.25C288.25 232.25 262.5 261.25 262.5 303.75Z" fill="black" fill-opacity="0.85"/>
 </g>
</svg>
