<?xml version="1.0" encoding="UTF-8"?>
<!--Generator: Apple Native CoreSVG 326-->
<!DOCTYPE svg
PUBLIC "-//W3C//DTD SVG 1.1//EN"
       "http://www.w3.org/Graphics/SVG/1.1/DTD/svg11.dtd">
<svg version="1.1" xmlns="http://www.w3.org/2000/svg" xmlns:xlink="http://www.w3.org/1999/xlink" viewBox="0 0 1122.75 611.25">
 <g>
  <rect height="611.25" opacity="0" width="1122.75" x="0" y="0"/>
  <path d="M870.25 127.25L870.25 220.919C849.968 219.856 829.415 219.5 809 219.5C656 219.5 495.25 239.75 495.25 417.75C495.25 445.881 500.146 472.539 509.228 496.5L252.5 496.5L252.5 127.25C252.5 104.25 263.75 93 286.75 93L836 93C859 93 870.25 104.25 870.25 127.25Z" fill="black" fill-opacity="0.2125"/>
  <path d="M914.75 115.5L914.75 224.509C900.187 222.815 885.295 221.668 870.25 220.919L870.25 127.25C870.25 104.25 859 93 836 93L286.75 93C263.75 93 252.5 104.25 252.5 127.25L252.5 496.5L509.228 496.5C518.708 522.227 532.945 544.889 550.966 563L137.5 563C119.25 563 104.5 548.25 104.5 529.75C104.5 511.25 119.25 496.5 137.5 496.5L208 496.5L208 115.5C208 71.5 233.25 48.75 275.25 48.75L847.5 48.75C891.25 48.75 914.75 71.5 914.75 115.5Z" fill="black" fill-opacity="0.85"/>
  <path d="M809 469C752 469 725 529.5 664.25 529.5C610.75 529.5 576.75 488.25 576.75 417.75C576.75 312 665 301.25 809 301.25C953.25 301.25 1041.25 311.75 1041.25 417.75C1041.25 488.25 1007.5 529.5 953.75 529.5C893 529.5 865.75 469 809 469Z" fill="black" fill-opacity="0.2125"/>
  <path d="M809 510.5C840.75 510.5 878 571.25 953.75 571.25C1027.5 571.25 1083 504.5 1083 417.75C1083 275.75 957.25 259.5 809 259.5C660.75 259.5 535 276 535 417.75C535 504.5 590.25 571.25 664.25 571.25C740 571.25 777 510.5 809 510.5ZM809 469C752 469 725 529.5 664.25 529.5C610.75 529.5 576.75 488.25 576.75 417.75C576.75 312 665 301.25 809 301.25C953.25 301.25 1041.25 311.75 1041.25 417.75C1041.25 488.25 1007.5 529.5 953.75 529.5C893 529.5 865.75 469 809 469Z" fill="black" fill-opacity="0.85"/>
 </g>
</svg>
