<?xml version="1.0" encoding="UTF-8"?>
<!--Generator: Apple Native CoreSVG 326-->
<!DOCTYPE svg
PUBLIC "-//W3C//DTD SVG 1.1//EN"
       "http://www.w3.org/Graphics/SVG/1.1/DTD/svg11.dtd">
<svg version="1.1" xmlns="http://www.w3.org/2000/svg" xmlns:xlink="http://www.w3.org/1999/xlink" viewBox="0 0 1069.25 631.25">
 <g>
  <rect height="631.25" opacity="0" width="1069.25" x="0" y="0"/>
  <path d="M843.5 137.25L843.5 149.25L585.25 149.25C517.75 149.25 476.5 190.5 476.5 257.75L476.5 506.5L225.75 506.5L225.75 137.25C225.75 114.25 237 103 260 103L809.25 103C832.25 103 843.5 114.25 843.5 137.25Z" fill="black" fill-opacity="0.2125"/>
  <path d="M888 125.5L888 149.25L843.5 149.25L843.5 137.25C843.5 114.25 832.25 103 809.25 103L260 103C237 103 225.75 114.25 225.75 137.25L225.75 506.5L476.5 506.5L476.5 523C476.5 541.872 479.768 558.677 486.065 573L110.75 573C92.5 573 77.75 558.25 77.75 539.75C77.75 521.25 92.5 506.5 110.75 506.5L181.25 506.5L181.25 125.5C181.25 81.5 206.5 58.75 248.5 58.75L820.75 58.75C864.5 58.75 888 81.5 888 125.5Z" fill="black" fill-opacity="0.85"/>
  <path d="M585.5 552.25C565.25 552.25 555.5 543.5 555.5 522L555.5 258.5C555.5 237.25 565.25 228.25 585.5 228.25L960 228.25C980 228.25 990.25 237.25 990.25 258.5L990.25 522C990.25 543.5 980 552.25 960 552.25Z" fill="black" fill-opacity="0.2125"/>
  <path d="M585.25 591.25L960.5 591.25C1005.75 591.25 1029.5 567.75 1029.5 523L1029.5 257.75C1029.5 212.75 1005.75 189.25 960.5 189.25L585.25 189.25C540 189.25 516.5 212.75 516.5 257.75L516.5 523C516.5 568 540 591.25 585.25 591.25ZM585.5 552.25C565.25 552.25 555.5 543.5 555.5 522L555.5 258.5C555.5 237.25 565.25 228.25 585.5 228.25L960 228.25C980 228.25 990.25 237.25 990.25 258.5L990.25 522C990.25 543.5 980 552.25 960 552.25ZM688.5 526.5L857.25 526.5C865 526.5 870.75 521 870.75 513C870.75 505 865 499.5 857.25 499.5L688.5 499.5C680.75 499.5 675 505 675 513C675 521 680.75 526.5 688.5 526.5Z" fill="black" fill-opacity="0.85"/>
 </g>
</svg>
