<?xml version="1.0" encoding="UTF-8"?>
<!--Generator: Apple Native CoreSVG 326-->
<!DOCTYPE svg
PUBLIC "-//W3C//DTD SVG 1.1//EN"
       "http://www.w3.org/Graphics/SVG/1.1/DTD/svg11.dtd">
<svg version="1.1" xmlns="http://www.w3.org/2000/svg" xmlns:xlink="http://www.w3.org/1999/xlink" viewBox="0 0 821.25 488.75">
 <g>
  <rect height="488.75" opacity="0" width="821.25" x="0" y="0"/>
  <path d="M131.5 387C144.25 387 154.5 376.75 154.5 363.75L154.5 122.75C154.5 110 144.25 100 131.5 100C118.75 100 108.5 110.25 108.5 122.75L108.5 363.75C108.5 376.75 118.5 387 131.5 387ZM233 370.25C247 370.25 258 358.75 258 345C258 331.25 247 320 233 320C219.25 320 208 331.25 208 345C208 358.75 219.25 370.25 233 370.25ZM321.75 370.25C335.5 370.25 346.5 358.75 346.5 345C346.5 331.25 335.5 320 321.75 320C308 320 296.5 331.25 296.5 345C296.5 358.75 308 370.25 321.75 370.25ZM410.5 370.25C424.25 370.25 435.5 358.75 435.5 345C435.5 331.25 424.25 320 410.5 320C396.75 320 385.5 331.25 385.5 345C385.5 358.75 396.75 370.25 410.5 370.25ZM499 370.25C512.5 370.25 523.75 358.75 523.75 345C523.75 331.25 512.5 320 499 320C485 320 474 331.25 474 345C474 358.75 485 370.25 499 370.25ZM587.25 370.25C600.75 370.25 612.25 358.75 612.25 345C612.25 331.25 600.75 320 587.25 320C573.5 320 562.5 331.25 562.5 345C562.5 358.75 573.5 370.25 587.25 370.25ZM277.25 268.5C291.25 268.5 302.25 257.25 302.25 243.5C302.25 229.75 291.25 218.25 277.25 218.25C263.5 218.25 252.25 229.75 252.25 243.5C252.25 257.25 263.5 268.5 277.25 268.5ZM366 268.5C380 268.5 391 257.25 391 243.5C391 229.75 380 218.25 366 218.25C352.25 218.25 341 229.75 341 243.5C341 257.25 352.25 268.5 366 268.5ZM454.75 268.5C468.25 268.5 479.5 257.25 479.5 243.5C479.5 229.75 468.25 218.25 454.75 218.25C441 218.25 429.5 229.75 429.5 243.5C429.5 257.25 441 268.5 454.75 268.5ZM543 268.5C556.5 268.5 567.75 257.25 567.75 243.5C567.75 229.75 556.5 218.25 543 218.25C529 218.25 518.25 229.75 518.25 243.5C518.25 257.25 529 268.5 543 268.5ZM233 167C247 167 258 155.75 258 142C258 128 247 116.75 233 116.75C219.25 116.75 208 128 208 142C208 155.75 219.25 167 233 167ZM321.75 167C335.5 167 346.5 155.75 346.5 142C346.5 128 335.5 116.75 321.75 116.75C308 116.75 296.5 128 296.5 142C296.5 155.75 308 167 321.75 167ZM410.5 167C424.25 167 435.5 155.75 435.5 142C435.5 128 424.25 116.75 410.5 116.75C396.75 116.75 385.5 128 385.5 142C385.5 155.75 396.75 167 410.5 167ZM499 167C512.5 167 523.75 155.75 523.75 142C523.75 128 512.5 116.75 499 116.75C485 116.75 474 128 474 142C474 155.75 485 167 499 167ZM587.25 167C600.75 167 612.25 155.75 612.25 142C612.25 128 600.75 116.75 587.25 116.75C573.5 116.75 562.5 128 562.5 142C562.5 155.75 573.5 167 587.25 167ZM688.75 387C701.5 387 711.75 376.75 711.75 363.75L711.75 122.75C711.75 110.25 701.5 100 688.75 100C676 100 665.5 110 665.5 122.75L665.5 363.75C665.5 376.75 676 387 688.75 387ZM97.25 488L723.75 488C788.25 488 821.25 455.25 821.25 391.75L821.25 96.25C821.25 32.5 788.25 0 723.75 0L97.25 0C32.5 0 0 32.5 0 96.25L0 391.75C0 455.5 32.5 488 97.25 488ZM98.25 443.75C63.25 443.75 44.25 425.25 44.25 389.25L44.25 98.75C44.25 62.75 63.25 44.25 98.25 44.25L723 44.25C757.75 44.25 776.75 62.75 776.75 98.75L776.75 389.25C776.75 425.25 757.25 443.75 723 443.75Z" fill="black" fill-opacity="0.85"/>
 </g>
</svg>
