<?xml version="1.0" encoding="UTF-8"?>
<!--Generator: Apple Native CoreSVG 326-->
<!DOCTYPE svg
PUBLIC "-//W3C//DTD SVG 1.1//EN"
       "http://www.w3.org/Graphics/SVG/1.1/DTD/svg11.dtd">
<svg version="1.1" xmlns="http://www.w3.org/2000/svg" xmlns:xlink="http://www.w3.org/1999/xlink" viewBox="0 0 387.942 718.25">
 <g>
  <rect height="718.25" opacity="0" width="387.942" x="0" y="0"/>
  <path d="M194.096 717.75C304.346 717.75 369.596 664.5 379.096 558C391.096 424.5 390.846 297 378.596 154.75C369.846 53.25 304.346 0 194.096 0C83.5959 0 18.3459 53.25 9.34592 154.75C-2.65408 297-2.90408 424.5 8.84592 558C18.5959 664.5 83.5959 717.75 194.096 717.75ZM193.846 593C183.846 593 180.346 598 172.596 598C164.596 598 159.596 590.75 153.346 581.75C145.846 571.25 140.096 555.25 140.096 540C140.096 515.75 156.096 503 171.846 503C179.846 503 185.596 507.75 192.346 507.75C198.846 507.75 204.346 503 214.596 503C218.096 503 231.096 503 239.346 514.5C238.596 515.5 226.096 522.5 226.096 539C226.096 557.5 242.096 563.75 242.346 564C242.346 564.5 240.096 573.5 234.096 582.25C228.346 590 222.846 598 214.596 598C206.096 598 203.596 593 193.846 593ZM191.096 501C191.096 484 203.096 471.25 216.096 471.25C218.846 485.5 206.096 501.75 191.096 501Z" fill="black" fill-opacity="0.85"/>
 </g>
</svg>
