<?xml version="1.0" encoding="UTF-8"?>
<!--Generator: Apple Native CoreSVG 326-->
<!DOCTYPE svg
PUBLIC "-//W3C//DTD SVG 1.1//EN"
       "http://www.w3.org/Graphics/SVG/1.1/DTD/svg11.dtd">
<svg version="1.1" xmlns="http://www.w3.org/2000/svg" xmlns:xlink="http://www.w3.org/1999/xlink" viewBox="0 0 845.004 327.75">
 <g>
  <rect height="327.75" opacity="0" width="845.004" x="0" y="0"/>
  <path d="M105.502 327L565.252 327C644.502 327 670.752 286.25 670.752 163.5C671.002 40.5 644.752 0 565.252 0L105.502 0C26.0018 0-0.248234 40.5 0.00176607 163.5C0.00176607 286.25 26.2518 327 105.502 327ZM105.502 140C87.2518 140 72.7518 125.75 72.7518 107.5C72.7518 89.5 87.2518 75.25 105.502 75.25C123.502 75.25 137.752 89.5 137.752 107.5C137.752 125.75 123.502 140 105.502 140Z" fill="black" fill-opacity="0.85"/>
  <path d="M703.002 253.25L787.002 253.25C822.252 253.25 845.002 231.25 845.002 198.5L845.002 128C845.002 95.25 822.252 73 787.002 73L703.002 73C708.252 98.25 710.752 128.25 710.752 163.5C710.752 198.25 708.002 228.25 703.002 253.25Z" fill="black" fill-opacity="0.425"/>
 </g>
</svg>
