<?xml version="1.0" encoding="UTF-8"?>
<!--Generator: Apple Native CoreSVG 326-->
<!DOCTYPE svg
PUBLIC "-//W3C//DTD SVG 1.1//EN"
       "http://www.w3.org/Graphics/SVG/1.1/DTD/svg11.dtd">
<svg version="1.1" xmlns="http://www.w3.org/2000/svg" xmlns:xlink="http://www.w3.org/1999/xlink" viewBox="0 0 793.25 630.25">
 <g>
  <rect height="630.25" opacity="0" width="793.25" x="0" y="0"/>
  <path d="M78.25 527.5L715.25 527.5C764 527.5 793.25 498.25 793.25 449.5L793.25 78C793.25 29.25 764 0 715.25 0L78.25 0C29.5 0 0 29.25 0 78L0 449.5C0 498.25 29.5 527.5 78.25 527.5ZM79 483.25C57.25 483.25 44.25 470.5 44.25 448.75L44.25 79C44.25 57 57.25 44.25 79 44.25L714.25 44.25C736 44.25 749 57 749 79L749 448.75C749 470.5 736 483.25 714.25 483.25ZM236.75 630L556.75 630C569 630 579 620 579 607.75C579 595.25 569 585.25 556.75 585.25L236.75 585.25C224.25 585.25 214.25 595.25 214.25 607.75C214.25 620 224.25 630 236.75 630Z" fill="black" fill-opacity="0.85"/>
  <path d="M490.25 204C505.5 200.25 509.75 197.25 509.75 179L509.75 118C509.75 106.25 505.75 100.75 489 105L398.25 127.5C382.75 131.25 379.5 134.25 379.5 153L379.5 298.25C379.5 312.25 378.25 314.75 362.25 319L333 327C304.5 334.5 280.75 351.25 280.75 381.75C280.75 408.75 300.75 427.75 332.25 427.75C377 427.75 406.5 396 406.5 350.5L406.5 238C406.5 226.5 409.25 223.5 416 222Z" fill="black" fill-opacity="0.85"/>
 </g>
</svg>
