<?xml version="1.0" encoding="UTF-8"?>
<!--Generator: Apple Native CoreSVG 326-->
<!DOCTYPE svg
PUBLIC "-//W3C//DTD SVG 1.1//EN"
       "http://www.w3.org/Graphics/SVG/1.1/DTD/svg11.dtd">
<svg version="1.1" xmlns="http://www.w3.org/2000/svg" xmlns:xlink="http://www.w3.org/1999/xlink" viewBox="0 0 618.25 639.25">
 <g>
  <rect height="639.25" opacity="0" width="618.25" x="0" y="0"/>
  <path d="M44.25 413.25L44.25 79C44.25 54.5 55.25 44.25 79 44.25L539 44.25C563 44.25 574 54.5 574 79L574 413.25C574 437.75 563 448 539 448L79 448C55.25 448 44.25 437.75 44.25 413.25Z" fill="black" fill-opacity="0.2125"/>
  <path d="M124.5 357.5L275.75 357.5C281.75 357.5 286.5 353.25 286.5 346.5C286.5 340 281.75 336 275.75 336L124.5 336C118 336 113.25 340 113.25 346.5C113.25 353.25 118 357.5 124.5 357.5ZM124.5 303.25L336.5 303.25C343 303.25 347.25 299 347.25 292C347.25 285.75 343 281.75 336.5 281.75L124.5 281.75C118 281.75 113.25 285.75 113.25 292C113.25 299 118 303.25 124.5 303.25ZM128.25 172.5C136.5 172.5 143 165.75 143 157.75C143 149.5 136.5 142.5 128.25 142.5C120 142.5 113.25 149.5 113.25 157.75C113.25 165.75 120 172.5 128.25 172.5ZM128.25 230.5C136.5 230.5 143 223.75 143 215.5C143 207.5 136.5 200.5 128.25 200.5C120 200.5 113.25 207.5 113.25 215.5C113.25 223.75 120 230.5 128.25 230.5ZM167.25 185C167.25 204.75 177.75 224.25 187.75 232.75C190 234.75 192.75 235.75 195.75 235.75C200.75 235.75 204.5 232 204.5 227C204.5 223.25 202.75 221.25 200.25 218.5C190.75 208.75 186.5 197.5 186.5 185C186.5 172.5 191.25 161.75 200.25 151.75C202.75 148.75 204.5 146.75 204.5 143C204.5 138 200.75 134.25 195.75 134.25C193 134.25 190 135.5 187.75 137.5C175.5 147.75 167.25 165.5 167.25 185Z" fill="black" fill-opacity="0.85"/>
  <path d="M491.5 515.75C480 515.75 470 505.75 470 493.75C470 482.25 480 472.25 491.5 472.25C503.75 472.25 513.5 482.25 513.5 493.75C513.5 505.75 503.75 515.75 491.5 515.75Z" fill="black" fill-opacity="0.2125"/>
  <path d="M0 468.25C0 521 26 546.5 77.75 546.5L540.5 546.5C592.25 546.5 618.25 521 618.25 468.25L618.25 78.25C618.25 25.25 592 0 540 0L78.25 0C26.25 0 0 25.25 0 78.25ZM44.25 413.25L44.25 79C44.25 54.5 55.25 44.25 79 44.25L539 44.25C563 44.25 574 54.5 574 79L574 413.25C574 437.75 563 448 539 448L79 448C55.25 448 44.25 437.75 44.25 413.25ZM491.5 515.75C480 515.75 470 505.75 470 493.75C470 482.25 480 472.25 491.5 472.25C503.75 472.25 513.5 482.25 513.5 493.75C513.5 505.75 503.75 515.75 491.5 515.75ZM309 584.5C401 584.5 471 564.5 494 531.75L124.25 531.75C147.25 564.5 217.25 584.5 309 584.5ZM157.5 631L460.75 631C485.5 631 487.5 603.25 470.75 595.75L393 558.5L225.25 558.5L147.5 595.75C130.75 603.25 132.75 631 157.5 631Z" fill="black" fill-opacity="0.85"/>
 </g>
</svg>
