<?xml version="1.0" encoding="UTF-8"?>
<!--Generator: Apple Native CoreSVG 326-->
<!DOCTYPE svg
PUBLIC "-//W3C//DTD SVG 1.1//EN"
       "http://www.w3.org/Graphics/SVG/1.1/DTD/svg11.dtd">
<svg version="1.1" xmlns="http://www.w3.org/2000/svg" xmlns:xlink="http://www.w3.org/1999/xlink" viewBox="0 0 793.25 630.25">
 <g>
  <rect height="630.25" opacity="0" width="793.25" x="0" y="0"/>
  <path d="M761.75 427.25L567 246C552.25 232.25 535.75 225.5 517.25 225.5C499.25 225.5 483.5 232 468.25 245.5L304.75 391.75L318.75 391.75L241.25 321.25C228 309 213.5 302.5 197.75 302.5C182.75 302.5 169.25 308.75 156.25 320.75L34 432.5C34 475.5 50.75 497.25 85 497.25L697.5 497.25C739 497.25 761.5 472.5 761.75 427.25ZM78.25 527.5L715.25 527.5C764 527.5 793.25 498.25 793.25 449.5L793.25 78C793.25 29.25 764 0 715.25 0L78.25 0C29.5 0 0 29.25 0 78L0 449.5C0 498.25 29.5 527.5 78.25 527.5ZM79 483.25C57.25 483.25 44.25 470.5 44.25 448.75L44.25 79C44.25 57 57.25 44.25 79 44.25L714.25 44.25C736 44.25 749 57 749 79L749 448.75C749 470.5 736 483.25 714.25 483.25ZM236.75 630L556.75 630C569 630 579 620 579 607.75C579 595.25 569 585.25 556.75 585.25L236.75 585.25C224.25 585.25 214.25 595.25 214.25 607.75C214.25 620 224.25 630 236.75 630Z" fill="black" fill-opacity="0.85"/>
  <path d="M255 245.5C296.5 245.5 330.5 211.5 330.5 169.25C330.5 127.5 296.5 93.25 255 93.25C213 93.25 178.5 127.5 178.5 169.25C178.5 211.5 213 245.5 255 245.5Z" fill="black" fill-opacity="0.85"/>
 </g>
</svg>
