<?xml version="1.0" encoding="UTF-8"?>
<!--Generator: Apple Native CoreSVG 326-->
<!DOCTYPE svg
PUBLIC "-//W3C//DTD SVG 1.1//EN"
       "http://www.w3.org/Graphics/SVG/1.1/DTD/svg11.dtd">
<svg version="1.1" xmlns="http://www.w3.org/2000/svg" xmlns:xlink="http://www.w3.org/1999/xlink" viewBox="0 0 606 606.25">
 <g>
  <rect height="606.25" opacity="0" width="606" x="0" y="0"/>
  <path d="M182.75 606.25L423.25 606.25C512 606.25 565.5 552 565.5 462L565.5 144.75C565.5 54.5 512 0.75 423.25 0.75L182.75 0.75C94 0.75 40.5 54.5 40.5 144.75L40.5 462C40.5 552 94 606.25 182.75 606.25ZM181 563.25C120 563.25 83.75 526.25 83.75 463.75L83.75 144C83.75 81.75 120 45 181 45L425 45C486.25 45 522.5 81.75 522.5 144L522.5 463.75C522.5 526.25 486.25 563.25 425 563.25ZM558.75 270L573.75 270C593.5 270 606 256.25 606 235L606 179.5C606 158 593.5 144.5 573.75 144.5L558.75 144.5Z" fill="black" fill-opacity="0.85"/>
  <path d="M129 468.25C129 498.5 147.25 517.5 176.5 517.5L429.75 517.5C458.75 517.5 477.25 498.5 477.25 468.25L477.25 418.25C477.25 388.5 458.25 368.75 429.75 368.75L176.5 368.75C147.75 368.75 129 388.5 129 418.25Z" fill="black" fill-opacity="0.85"/>
 </g>
</svg>
