<?xml version="1.0" encoding="UTF-8"?>
<!--Generator: Apple Native CoreSVG 326-->
<!DOCTYPE svg
PUBLIC "-//W3C//DTD SVG 1.1//EN"
       "http://www.w3.org/Graphics/SVG/1.1/DTD/svg11.dtd">
<svg version="1.1" xmlns="http://www.w3.org/2000/svg" xmlns:xlink="http://www.w3.org/1999/xlink" viewBox="0 0 757.5 588.25">
 <g>
  <rect height="588.25" opacity="0" width="757.5" x="0" y="0"/>
  <path d="M97.25 588.25L660 588.25C724.75 588.25 757.5 555.75 757.5 492L757.5 97C757.5 33.25 724.75 0.75 660 0.75L97.25 0.75C32.75 0.75 0 33 0 97L0 492C0 556 32.75 588.25 97.25 588.25ZM98.25 544C63.25 544 44.25 525.5 44.25 489.75L44.25 99.25C44.25 63.5 63.25 45 98.25 45L659.25 45C693.5 45 713 63.5 713 99.25L713 489.75C713 525.5 693.5 544 659.25 544Z" fill="black" fill-opacity="0.85"/>
  <path d="M137.25 371.5L318.5 371.5C336 371.5 347.5 360 347.5 342L347.5 247C347.5 229 336 217.5 318.5 217.5L137.25 217.5C119.75 217.5 108.25 229 108.25 247L108.25 342C108.25 360 119.75 371.5 137.25 371.5ZM433.75 371.5L615.25 371.5C632.75 371.5 644 360 644 342L644 247C644 229 632.75 217.5 615.25 217.5L433.75 217.5C416.25 217.5 405 229 405 247L405 342C405 360 416.25 371.5 433.75 371.5Z" fill="black" fill-opacity="0.85"/>
 </g>
</svg>
