<?xml version="1.0" encoding="UTF-8"?>
<!--Generator: Apple Native CoreSVG 326-->
<!DOCTYPE svg
PUBLIC "-//W3C//DTD SVG 1.1//EN"
       "http://www.w3.org/Graphics/SVG/1.1/DTD/svg11.dtd">
<svg version="1.1" xmlns="http://www.w3.org/2000/svg" xmlns:xlink="http://www.w3.org/1999/xlink" viewBox="0 0 671.25 401.75">
 <g>
  <rect height="401.75" opacity="0" width="671.25" x="0" y="0"/>
  <path d="M82.5 401L588.75 401C639 401 671.25 368 671.25 315.75L671.25 85.25C671.25 33 639.25 0 588.75 0L82.5 0C32.25 0 0.25 33 0.25 85.25L0 315.75C0 368 32 401 82.5 401ZM89 356.75C59.75 356.75 44.5 340.75 44.5 310.5L44.5 90.75C44.5 60.25 59.75 44.25 89 44.25L582.25 44.25C611.75 44.25 627 60.25 627 90.75L626.75 310.5C626.75 340.75 611.5 356.75 582.25 356.75Z" fill="black" fill-opacity="0.85"/>
  <path d="M136.75 261.5L280.25 261.5C297.75 261.5 309 250.25 309 232.25L309 168.5C309 150.5 297.75 139.25 280.25 139.25L136.75 139.25C119.25 139.25 107.75 150.5 107.75 168.5L107.75 232.25C107.75 250.25 119.25 261.5 136.75 261.5ZM391 261.5L534.5 261.5C552 261.5 563.5 250.25 563.5 232.25L563.5 168.5C563.5 150.5 552 139.25 534.5 139.25L391 139.25C373.5 139.25 362.25 150.5 362.25 168.5L362.25 232.25C362.25 250.25 373.5 261.5 391 261.5Z" fill="black" fill-opacity="0.85"/>
 </g>
</svg>
