<?xml version="1.0" encoding="UTF-8"?>
<!--Generator: Apple Native CoreSVG 326-->
<!DOCTYPE svg
PUBLIC "-//W3C//DTD SVG 1.1//EN"
       "http://www.w3.org/Graphics/SVG/1.1/DTD/svg11.dtd">
<svg version="1.1" xmlns="http://www.w3.org/2000/svg" xmlns:xlink="http://www.w3.org/1999/xlink" viewBox="0 0 401 671.75">
 <g>
  <rect height="671.75" opacity="0" width="401" x="0" y="0"/>
  <path d="M0 588.75C0 639.25 33 671.25 85.25 671.25L315.5 671.25C367.75 671.25 401 639.25 401 588.75L401 82.5C401 32 367.75 0 315.5 0L85.25 0C33 0 0 32 0 82.5ZM44.25 582.25L44.25 89C44.25 59.75 60.25 44.25 90.75 44.25L310.25 44.25C340.5 44.25 356.5 59.75 356.5 89L356.5 582.25C356.5 611.5 340.5 627 310.25 627L90.75 627C60.25 627 44.25 611.5 44.25 582.25Z" fill="black" fill-opacity="0.85"/>
  <path d="M114.25 585.75L286.5 585.75C304 585.75 315.5 574.25 315.5 556.25L315.5 519.5C315.5 501.5 304 490 286.5 490L114.25 490C96.75 490 85.5 501.5 85.5 519.5L85.5 556.25C85.5 574.25 96.75 585.75 114.25 585.75Z" fill="black" fill-opacity="0.85"/>
  <path d="M115.5 377C115.5 381.25 116.75 385.25 119.5 388L188.75 457C192 460.25 196.25 462.25 200.5 462.25C204.5 462.25 208.75 460.25 212 457L281.25 388C284.25 385.25 285.5 381.25 285.5 377C285.5 368 279 362 270.5 362C265.75 361.75 262.5 363.75 259.25 367L232.5 393.5L214.75 414.5L216 378.25L216 277C216 267.75 209.5 261.25 200.5 261.25C191.25 261.25 185 267.75 185 277L185 378.25L186.25 414.5L168.5 393.5L141.5 367C138.25 363.75 135 361.75 130.5 362C121.75 362 115.5 368 115.5 377Z" fill="black" fill-opacity="0.85"/>
 </g>
</svg>
