<?xml version="1.0" encoding="UTF-8"?>
<!--Generator: Apple Native CoreSVG 326-->
<!DOCTYPE svg
PUBLIC "-//W3C//DTD SVG 1.1//EN"
       "http://www.w3.org/Graphics/SVG/1.1/DTD/svg11.dtd">
<svg version="1.1" xmlns="http://www.w3.org/2000/svg" xmlns:xlink="http://www.w3.org/1999/xlink" viewBox="0 0 401 671.75">
 <g>
  <rect height="671.75" opacity="0" width="401" x="0" y="0"/>
  <path d="M0 588.75C0 639.25 33 671.25 85.25 671.25L315.5 671.25C367.75 671.25 401 639.25 401 588.75L401 82.5C401 32 367.75 0 315.5 0L85.25 0C33 0 0 32 0 82.5ZM44.25 582.25L44.25 89C44.25 59.75 60.25 44.25 90.75 44.25L310.25 44.25C340.5 44.25 356.5 59.75 356.5 89L356.5 582.25C356.5 611.5 340.5 627 310.25 627L90.75 627C60.25 627 44.25 611.5 44.25 582.25Z" fill="black" fill-opacity="0.85"/>
  <path d="M114.25 181.25L286.5 181.25C304 181.25 315.5 169.75 315.5 151.75L315.5 115C315.5 97 304 85.5 286.5 85.5L114.25 85.5C96.75 85.5 85.5 97 85.5 115L85.5 151.75C85.5 169.75 96.75 181.25 114.25 181.25Z" fill="black" fill-opacity="0.85"/>
 </g>
</svg>
