<?xml version="1.0" encoding="UTF-8"?>
<!--Generator: Apple Native CoreSVG 326-->
<!DOCTYPE svg
PUBLIC "-//W3C//DTD SVG 1.1//EN"
       "http://www.w3.org/Graphics/SVG/1.1/DTD/svg11.dtd">
<svg version="1.1" xmlns="http://www.w3.org/2000/svg" xmlns:xlink="http://www.w3.org/1999/xlink" viewBox="0 0 793.25 630.25">
 <g>
  <rect height="630.25" opacity="0" width="793.25" x="0" y="0"/>
  <path d="M579 607.5C579 619.75 569 629.75 556.75 629.75L236.75 629.75C224.25 629.75 214.25 619.75 214.25 607.5C214.25 595 224.25 585 236.75 585L556.75 585C569 585 579 595 579 607.5ZM793.25 78L793.25 449.25C793.25 501.75 766.75 527.25 715.25 527.25L78.25 527.25C26.75 527.25 0 501.75 0 449.25L0 78C0 25.5 26.75 0 78.25 0L715.25 0C766.75 0 793.25 25.5 793.25 78ZM288.25 127L288.25 400.5C288.25 416.75 305.5 422.75 318.75 415.25L543.75 282.75C558.75 274 558.25 253.75 543.5 245L318.75 112.5C305.5 104.75 288.25 111 288.25 127Z" fill="black" fill-opacity="0.85"/>
 </g>
</svg>
