<?xml version="1.0" encoding="UTF-8"?>
<!--Generator: Apple Native CoreSVG 326-->
<!DOCTYPE svg
PUBLIC "-//W3C//DTD SVG 1.1//EN"
       "http://www.w3.org/Graphics/SVG/1.1/DTD/svg11.dtd">
<svg version="1.1" xmlns="http://www.w3.org/2000/svg" xmlns:xlink="http://www.w3.org/1999/xlink" viewBox="0 0 758.5 660.25">
 <g>
  <rect height="660.25" opacity="0" width="758.5" x="0" y="0"/>
  <path d="M66 548.5L692.5 548.5C733.5 548.5 758.5 523.5 758.5 482.5L758.5 87.25C758.5 46.25 733.5 21.25 692.5 21.25L66 21.25C25 21.25 0 46.25 0 87.25L0 482.5C0 523.5 25 548.5 66 548.5ZM67 504.25C53 504.25 44.25 495.5 44.25 481.5L44.25 88.25C44.25 74.25 53 65.5 67 65.5L691.5 65.5C705.5 65.5 714.25 74.25 714.25 88.25L714.25 481.5C714.25 495.5 705.5 504.25 691.5 504.25ZM279.25 628.25L479.25 628.25L479.25 544.5L279.25 544.5ZM276 660.25L482.5 660.25C494.75 660.25 504.75 650.5 504.75 638.25C504.75 625.75 494.75 615.75 482.5 615.75L276 615.75C263.75 615.75 253.75 625.75 253.75 638.25C253.75 650.5 263.75 660.25 276 660.25Z" fill="black" fill-opacity="0.85"/>
  <path d="M296.5 391.25C296.5 404 309.75 409 320.25 402.75L498.75 298C508.75 291.75 508.75 278 498.5 272L320.25 167.25C309.75 161.25 296.5 166 296.5 178.75Z" fill="black" fill-opacity="0.85"/>
 </g>
</svg>
