<?xml version="1.0" encoding="UTF-8"?>
<!--Generator: Apple Native CoreSVG 326-->
<!DOCTYPE svg
PUBLIC "-//W3C//DTD SVG 1.1//EN"
       "http://www.w3.org/Graphics/SVG/1.1/DTD/svg11.dtd">
<svg version="1.1" xmlns="http://www.w3.org/2000/svg" xmlns:xlink="http://www.w3.org/1999/xlink" viewBox="0 0 793.25 630.25">
 <g>
  <rect height="630.25" opacity="0" width="793.25" x="0" y="0"/>
  <path d="M78.25 527.5L715.25 527.5C764 527.5 793.25 498.25 793.25 449.5L793.25 78C793.25 29.25 764 0 715.25 0L78.25 0C29.5 0 0 29.25 0 78L0 449.5C0 498.25 29.5 527.5 78.25 527.5ZM79 483.25C57.25 483.25 44.25 470.5 44.25 448.75L44.25 79C44.25 57 57.25 44.25 79 44.25L714.25 44.25C736 44.25 749 57 749 79L749 448.75C749 470.5 736 483.25 714.25 483.25ZM236.75 630L556.75 630C569 630 579 620 579 607.75C579 595.25 569 585.25 556.75 585.25L236.75 585.25C224.25 585.25 214.25 595.25 214.25 607.75C214.25 620 224.25 630 236.75 630Z" fill="black" fill-opacity="0.85"/>
  <path d="M412.5 398.75C418 398.75 421.75 394.75 422.75 389.5C440.25 287.5 448.75 272.75 552.75 259C558.5 258.25 562.25 254.25 562.25 248.75C562.25 243.25 558.5 239.25 552.75 238.25C449 224.25 437.75 209 422.75 108.25C422 102.5 418 98.75 412.5 98.75C406.75 98.75 402.75 102.25 401.5 108C383.5 210.75 375.75 224.25 271.75 238.25C266 239.25 262.25 243.25 262.25 248.75C262.25 254.25 266 258.25 271.75 259C376.25 266.75 387.5 287.5 401.5 389.25C402.5 394.75 406.25 398.75 412.5 398.75ZM284.25 449.75C288.25 449.75 291 447.5 291.75 443.75C300 396.75 297.5 392.5 350.5 385C354.5 384.5 357 381.5 357 377.5C357 373.75 354.5 370.5 350.5 370C297.75 362 300 357.75 291.75 312C291 307.75 288.5 305 284.25 305C280.5 305 277.75 307.5 276.75 312C268.25 357.75 271.25 362 218.25 370C214.25 370.5 211.75 373.75 211.75 377.5C211.75 382 214.25 384.5 218.75 385C271.25 392.5 268.25 396.75 276.75 443C277.75 447.25 280.25 449.75 284.25 449.75Z" fill="black" fill-opacity="0.85"/>
 </g>
</svg>
