<?xml version="1.0" encoding="UTF-8"?>
<!--Generator: Apple Native CoreSVG 326-->
<!DOCTYPE svg
PUBLIC "-//W3C//DTD SVG 1.1//EN"
       "http://www.w3.org/Graphics/SVG/1.1/DTD/svg11.dtd">
<svg version="1.1" xmlns="http://www.w3.org/2000/svg" xmlns:xlink="http://www.w3.org/1999/xlink" viewBox="0 0 793.25 818.626">
 <g>
  <rect height="818.626" opacity="0" width="793.25" x="0" y="0"/>
  <path d="M579 701.688C579 713.938 569 723.938 556.75 723.938L236.75 723.938C224.25 723.938 214.25 713.938 214.25 701.688C214.25 689.188 224.25 679.188 236.75 679.188L556.75 679.188C569 679.188 579 689.188 579 701.688ZM46 104.688L562.54 621.438L78.25 621.438C26.75 621.438 0 595.938 0 543.438L0 172.188C0 133.999 14.1541 110.096 41.7608 99.9729C43.0745 101.604 44.4892 103.177 46 104.688ZM793.25 172.188L793.25 543.438C793.25 589.062 773.237 614.296 734.169 620.096L208.688 94.188L715.25 94.188C766.75 94.188 793.25 119.688 793.25 172.188Z" fill="black" fill-opacity="0.85"/>
  <path d="M688.75 691.438C697 699.688 710.5 699.688 718.75 691.438C727 682.938 727.25 669.438 718.75 661.188L104.5 46.438C96.5 38.188 83 37.688 74.25 46.438C66 54.438 66 68.438 74.25 76.438Z" fill="black" fill-opacity="0.85"/>
 </g>
</svg>
