<?xml version="1.0" encoding="UTF-8"?>
<!--Generator: Apple Native CoreSVG 326-->
<!DOCTYPE svg
PUBLIC "-//W3C//DTD SVG 1.1//EN"
       "http://www.w3.org/Graphics/SVG/1.1/DTD/svg11.dtd">
<svg version="1.1" xmlns="http://www.w3.org/2000/svg" xmlns:xlink="http://www.w3.org/1999/xlink" viewBox="0 0 901.5 752.438">
 <g>
  <rect height="752.438" opacity="0" width="901.5" x="0" y="0"/>
  <path d="M581.909 587.579C528.334 557.458 489.296 517.094 450.75 517.094C389.25 517.094 326.5 619.844 205.5 619.844C88.25 619.844 0 513.344 0 373.094C0 251.044 57.1121 186.745 148.148 153.309ZM901.5 373.094C901.5 485.82 844.489 576.743 761.173 607.96L279.28 125.501C332.09 119.859 390.002 118.344 450.75 118.344C700 118.344 901.5 143.594 901.5 373.094Z" fill="black" fill-opacity="0.85"/>
  <path d="M754.75 711.344C763 719.594 776.5 719.594 784.75 711.344C793.25 702.844 793.5 689.344 785.25 681.094L146.5 41.8439C138.25 33.5939 124.75 33.3439 116.25 41.8439C108 50.0939 108 63.8439 116.25 72.0939Z" fill="black" fill-opacity="0.85"/>
 </g>
</svg>
