<?xml version="1.0" encoding="UTF-8"?>
<!--Generator: Apple Native CoreSVG 326-->
<!DOCTYPE svg
PUBLIC "-//W3C//DTD SVG 1.1//EN"
       "http://www.w3.org/Graphics/SVG/1.1/DTD/svg11.dtd">
<svg version="1.1" xmlns="http://www.w3.org/2000/svg" xmlns:xlink="http://www.w3.org/1999/xlink" viewBox="0 0 651.25 651.75">
 <g>
  <rect height="651.75" opacity="0" width="651.25" x="0" y="0"/>
  <path d="M651.25 325.75C651.25 505.5 505.25 651.25 325.5 651.25C145.75 651.25 0 505.5 0 325.75C0 146 145.75 0 325.5 0C505.25 0 651.25 146 651.25 325.75ZM46.5 325.75C46.5 480 171.25 604.75 325.5 604.75C479.75 604.75 604.5 480 604.5 325.75C604.5 171.5 479.75 46.75 325.5 46.75C171.25 46.75 46.5 171.5 46.5 325.75Z" fill="black" fill-opacity="0.85"/>
  <path d="M193.646 242.646C156.721 254.888 136.25 278.84 136.25 324.75C136.25 382.25 163.75 416 207.75 416C254.209 416 276.171 371.726 318.209 367.209L376.365 425.365C355.681 412.119 340.067 397.75 325.25 397.75C297.75 397.75 267.5 447.25 207.75 447.25C149 447.25 105.25 393.75 105.25 324.75C105.25 267.937 130.133 236.381 170.032 219.032ZM545.25 324.75C545.25 375.56 521.662 417.966 485.72 436.706L462.448 413.416C494.829 404.737 514.5 373.161 514.5 324.75C514.5 238.5 442.25 229.75 325.25 229.75C309.148 229.75 293.893 229.916 279.65 230.466L250.499 201.292C273.823 199.093 299.05 198.5 325.25 198.5C445.5 198.5 545.25 211 545.25 324.75Z" fill="black" fill-opacity="0.85"/>
  <path d="M468 486.25C473 491.5 481.5 491.5 486.75 486.25C492 481 492 473 486.75 467.5L184 164.75C178.75 159.5 170.25 159.5 165 164.75C159.75 170 160 178.5 165 183.5Z" fill="black" fill-opacity="0.85"/>
 </g>
</svg>
