<?xml version="1.0" encoding="UTF-8"?>
<!--Generator: Apple Native CoreSVG 326-->
<!DOCTYPE svg
PUBLIC "-//W3C//DTD SVG 1.1//EN"
       "http://www.w3.org/Graphics/SVG/1.1/DTD/svg11.dtd">
<svg version="1.1" xmlns="http://www.w3.org/2000/svg" xmlns:xlink="http://www.w3.org/1999/xlink" viewBox="0 0 526.25 462.25">
 <g>
  <rect height="462.25" opacity="0" width="526.25" x="0" y="0"/>
  <path d="M263 88.75C287 88.75 306.5 69.25 306.5 45.75C306.5 21.75 287 2.25 263 2.25C239.5 2.25 219.75 21.75 219.75 45.75C219.75 69.25 239.5 88.75 263 88.75ZM263 462.25C287 462.25 306.5 442.75 306.5 419C306.5 395.25 287 375.75 263 375.75C239.5 375.75 219.75 395.25 219.75 419C219.75 442.75 239.5 462.25 263 462.25ZM24.5 256L501.75 256C515 256 526.25 244.75 526.25 231.5C526.25 218 515 207 501.75 207L24.5 207C11.25 207 0 218 0 231.5C0 244.75 11.25 256 24.5 256Z" fill="black" fill-opacity="0.85"/>
 </g>
</svg>
