<?xml version="1.0" encoding="UTF-8"?>
<!--Generator: Apple Native CoreSVG 326-->
<!DOCTYPE svg
PUBLIC "-//W3C//DTD SVG 1.1//EN"
       "http://www.w3.org/Graphics/SVG/1.1/DTD/svg11.dtd">
<svg version="1.1" xmlns="http://www.w3.org/2000/svg" xmlns:xlink="http://www.w3.org/1999/xlink" viewBox="0 0 587.75 587.75">
 <g>
  <rect height="587.75" opacity="0" width="587.75" x="0" y="0"/>
  <path d="M587.75 96.5L587.75 491.5C587.75 555 555 587.75 490.25 587.75L97.25 587.75C32.75 587.75 0 555.5 0 491.5L0 96.5C0 32.5 32.75 0 97.25 0L490.25 0C555 0 587.75 32.75 587.75 96.5ZM258.25 416C258.25 434.5 274 449 293.5 449C314.5 449 329.75 434.25 329.75 416C329.75 395.25 314.75 380.5 293.5 380.5C274 380.5 258.25 395.25 258.25 416ZM160.75 270.5C144.5 270.5 134 279 134 294.25C134 309.5 145 317.75 160.75 317.75L427.5 317.75C443.25 317.75 453.75 309.5 453.75 294.25C453.75 279 443.75 270.5 427.5 270.5ZM258.25 175C258.25 193.25 274 207.5 293.5 207.5C314.5 207.5 329.75 193.25 329.75 174.75C329.75 154 314.75 139.25 293.5 139.25C274 139.25 258.25 154.25 258.25 175Z" fill="black" fill-opacity="0.85"/>
 </g>
</svg>
