<?xml version="1.0" encoding="UTF-8"?>
<!--Generator: Apple Native CoreSVG 326-->
<!DOCTYPE svg
PUBLIC "-//W3C//DTD SVG 1.1//EN"
       "http://www.w3.org/Graphics/SVG/1.1/DTD/svg11.dtd">
<svg version="1.1" xmlns="http://www.w3.org/2000/svg" xmlns:xlink="http://www.w3.org/1999/xlink" viewBox="0 0 587.75 587.75">
 <g>
  <rect height="587.75" opacity="0" width="587.75" x="0" y="0"/>
  <path d="M587.75 96.5L587.75 491.5C587.75 555 555 587.75 490.25 587.75L97.25 587.75C32.75 587.75 0 555.5 0 491.5L0 96.5C0 32.5 32.75 0 97.25 0L490.25 0C555 0 587.75 32.75 587.75 96.5ZM166.25 332.75C151.25 332.75 141.5 340.25 141.5 354.75C141.5 369 151.75 376.5 166.25 376.5L421.25 376.5C436 376.5 446.25 369 446.25 354.75C446.25 340.25 436.5 332.75 421.25 332.75ZM166.25 211.75C151.25 211.75 141.5 219.25 141.5 234C141.5 248.25 151.75 255.5 166.25 255.5L421.25 255.5C436 255.5 446.25 248.25 446.25 234C446.25 219.25 436.5 211.75 421.25 211.75Z" fill="black" fill-opacity="0.85"/>
 </g>
</svg>
