<?xml version="1.0" encoding="UTF-8"?>
<!--Generator: Apple Native CoreSVG 326-->
<!DOCTYPE svg
PUBLIC "-//W3C//DTD SVG 1.1//EN"
       "http://www.w3.org/Graphics/SVG/1.1/DTD/svg11.dtd">
<svg version="1.1" xmlns="http://www.w3.org/2000/svg" xmlns:xlink="http://www.w3.org/1999/xlink" viewBox="0 0 845 477.75">
 <g>
  <rect height="477.75" opacity="0" width="845" x="0" y="0"/>
  <path d="M424.25 477.75C433.5 477.75 440 472.5 440 463.25C440 459 439 456.5 435.75 450.75C394.75 391 369.75 320.5 369.75 239.5C369.75 163.5 392.75 87.25 436 27.25C439 21.75 440 19.5 440 15C440 6.25 433.5 0.5 424.25 0.5C415 0.5 408.25 4.5 399.25 16.25C349 77.25 323.5 155.25 323.5 239.25C323.5 323.25 347.75 397.75 399.25 461.75C408 473.75 415 477.75 424.25 477.75ZM486.5 392.25C495.25 392.25 501.5 389.25 508.5 379.25L584 270.5L585 270.5L662 380.75C668.75 390.5 675.25 392.25 682 392.25C695.25 392.25 704 383 704 371.5C704 366.5 702.5 361.75 698.75 356.75L613 237.5L698.5 121.75C702.25 116.75 704 112 704 106C704 94 694 86 683 86C673 86 667.5 90.75 661.75 99L588.5 205.5L587.25 205.5L513.75 98.75C508 90.5 502 86 491.25 86C478.5 86 469 95.75 469 107C469 115 471.5 119.75 475.25 125L557.5 236.25L471 357.75C467 363 466 368 466 373.25C466 384 475.5 392.25 486.5 392.25ZM744.25 477.75C753.25 477.75 760.5 473.75 769.25 461.75C820.75 397.75 845 323.25 845 239.25C845 155.25 819.25 77.25 769.25 16.25C760.25 4.5 753.25 0.5 744.25 0.5C735 0.5 728.5 6.25 728.5 15C728.5 19.5 729.5 21.75 732.5 27.25C775.75 87.25 798.75 163.5 798.75 239.5C798.75 320.5 773.75 391 732.5 450.75C729.5 456.5 728.5 459 728.5 463.25C728.5 472 735 477.75 744.25 477.75Z" fill="black" fill-opacity="0.85"/>
  <path d="M40.25 476.75C100.5 476.75 128 449.75 142.5 380.25L181.75 193.75L243.5 193.75C259.25 193.75 269.25 185.25 269.25 171.5C269.25 159.5 261.5 152.25 248.75 152.25L190.5 152.25L200.5 104.25C209.75 60.75 223 43 259.75 43C265.75 43 271.5 43 275.25 42.75C288.75 41.5 295 35 295 23.5C295 7.75 281.5 0.75 252.75 0.75C193.75 0.75 164.25 30.75 150.5 97.25L139 152.25L93.5 152.25C77.75 152.25 67.5 160.5 67.5 174.25C67.5 186.25 75.5 193.75 88.25 193.75L130 193.75L92.25 373.25C82.75 417.75 69.25 434.5 33.25 434.5C28 434.5 22.75 434.5 19.5 434.75C6.75 436.25 0 443.25 0 454.5C0 469.75 13.25 476.75 40.25 476.75Z" fill="black" fill-opacity="0.85"/>
 </g>
</svg>
