<?xml version="1.0" encoding="UTF-8"?>
<!--Generator: Apple Native CoreSVG 326-->
<!DOCTYPE svg
PUBLIC "-//W3C//DTD SVG 1.1//EN"
       "http://www.w3.org/Graphics/SVG/1.1/DTD/svg11.dtd">
<svg version="1.1" xmlns="http://www.w3.org/2000/svg" xmlns:xlink="http://www.w3.org/1999/xlink" viewBox="0 0 587.75 587.75">
 <g>
  <rect height="587.75" opacity="0" width="587.75" x="0" y="0"/>
  <path d="M97.25 587.75L490.25 587.75C555 587.75 587.75 555 587.75 491.5L587.75 96.5C587.75 32.75 555 0 490.25 0L97.25 0C32.75 0 0 32.5 0 96.5L0 491.5C0 555.5 32.75 587.75 97.25 587.75ZM98.25 543.5C63.25 543.5 44.25 525 44.25 489L44.25 98.75C44.25 63 63.25 44.25 98.25 44.25L489.5 44.25C523.75 44.25 543.5 63 543.5 98.75L543.5 489C543.5 525 523.75 543.5 489.5 543.5Z" fill="black" fill-opacity="0.85"/>
  <path d="M212 421.25C217.5 421.25 221.25 420.25 225.5 418L415 318.25C426.25 312.25 431.25 305.25 431.25 293.75C431.25 283.25 425.75 275.5 415 269.25L225.5 166.5C221 164.25 217.5 163.25 211.5 163.25C198.5 163.25 189 172.75 189 185C189 195.25 194 202 205.25 207.75L370.25 292L370.25 294L205.25 377C193.75 382.5 189 388.75 189 399.25C189 412 198.75 421.25 212 421.25Z" fill="black" fill-opacity="0.85"/>
 </g>
</svg>
