<?xml version="1.0" encoding="UTF-8"?>
<!--Generator: Apple Native CoreSVG 326-->
<!DOCTYPE svg
PUBLIC "-//W3C//DTD SVG 1.1//EN"
       "http://www.w3.org/Graphics/SVG/1.1/DTD/svg11.dtd">
<svg version="1.1" xmlns="http://www.w3.org/2000/svg" xmlns:xlink="http://www.w3.org/1999/xlink" viewBox="0 0 436 417.75">
 <g>
  <rect height="417.75" opacity="0" width="436" x="0" y="0"/>
  <path d="M23.25 417.75C31.25 417.75 36.5 415.25 42.25 412.5L408.75 247.5C424.25 240.5 436 228.5 436 211.25C436 194 424.25 182 408.5 174.75L42.25 5C36.75 2.25 31.75 0.25 24.25 0.25C10 0.25 0 10 0 24.5C0 37 6.25 44.25 17.75 49.5L371 207.75L371 211L17.75 368.25C6.25 373.25 0 380.75 0 393.25C0 408.25 9.75 417.75 23.25 417.75Z" fill="black" fill-opacity="0.85"/>
 </g>
</svg>
