<?xml version="1.0" encoding="UTF-8"?>
<!--Generator: Apple Native CoreSVG 326-->
<!DOCTYPE svg
PUBLIC "-//W3C//DTD SVG 1.1//EN"
       "http://www.w3.org/Graphics/SVG/1.1/DTD/svg11.dtd">
<svg version="1.1" xmlns="http://www.w3.org/2000/svg" xmlns:xlink="http://www.w3.org/1999/xlink" viewBox="0 0 651.25 651.75">
 <g>
  <rect height="651.75" opacity="0" width="651.25" x="0" y="0"/>
  <path d="M651.25 325.75C651.25 505 505 651.25 325.5 651.25C146.25 651.25 0 505 0 325.75C0 146.25 146.25 0 325.5 0C505 0 651.25 146.25 651.25 325.75ZM217.75 214.25C217.75 225 223 232 234.5 237.75L403.75 324L403.75 326L234.5 411C222.75 416.5 217.75 423.25 217.75 434C217.75 447 227.75 457 241.5 457C247.25 457 251 455.5 255.5 453.25L449.75 351C461.5 345 466.5 337.75 466.5 325.75C466.5 315 461 306.75 449.75 300.5L255.5 195.25C250.75 193 247.25 191.75 241 191.75C227.5 191.75 217.75 201.5 217.75 214.25Z" fill="black" fill-opacity="0.85"/>
 </g>
</svg>
