<?xml version="1.0" encoding="UTF-8"?>
<!--Generator: Apple Native CoreSVG 326-->
<!DOCTYPE svg
PUBLIC "-//W3C//DTD SVG 1.1//EN"
       "http://www.w3.org/Graphics/SVG/1.1/DTD/svg11.dtd">
<svg version="1.1" xmlns="http://www.w3.org/2000/svg" xmlns:xlink="http://www.w3.org/1999/xlink" viewBox="0 0 651.25 651.75">
 <g>
  <rect height="651.75" opacity="0" width="651.25" x="0" y="0"/>
  <path d="M651.25 325.75C651.25 505 505 651.25 325.5 651.25C146.25 651.25 0 505 0 325.75C0 146.25 146.25 0 325.5 0C505 0 651.25 146.25 651.25 325.75ZM234 442C222.25 442 213 451.5 213 463C213 473.5 222.25 483.5 234 483.5L425.5 483.5C437.5 483.5 446.75 473.5 446.75 463C446.75 451.5 437.5 442 425.5 442ZM222.75 192.5C222.75 201 227.75 208.75 236.25 213L382 278.25L382 279.5L236.25 345.25C227.75 348.75 222.75 356.75 222.75 365.25C222.75 376 231.5 386.25 244.25 386.25C247.75 386.25 251 385.25 257.5 382L425.25 305.75C439 300 443.75 291.25 443.75 278.75C443.75 267.75 438.75 258.25 425.25 252L257.5 175.5C251 172.75 247.75 172 244.25 172C231.5 172 222.75 181.75 222.75 192.5Z" fill="black" fill-opacity="0.85"/>
 </g>
</svg>
