<?xml version="1.0" encoding="UTF-8"?>
<!--Generator: Apple Native CoreSVG 326-->
<!DOCTYPE svg
PUBLIC "-//W3C//DTD SVG 1.1//EN"
       "http://www.w3.org/Graphics/SVG/1.1/DTD/svg11.dtd">
<svg version="1.1" xmlns="http://www.w3.org/2000/svg" xmlns:xlink="http://www.w3.org/1999/xlink" viewBox="0 0 587.75 587.75">
 <g>
  <rect height="587.75" opacity="0" width="587.75" x="0" y="0"/>
  <path d="M587.75 96.5L587.75 491.5C587.75 555 555 587.75 490.25 587.75L97.25 587.75C32.75 587.75 0 555.5 0 491.5L0 96.5C0 32.5 32.75 0 97.25 0L490.25 0C555 0 587.75 32.75 587.75 96.5ZM186.25 182.25C186.25 193 191.5 200 203 205.75L372 292L372 294L203 379C191.25 384.5 186.25 391.25 186.25 402C186.25 415 196.25 425 210 425C215.75 425 219.5 423.5 224 421.25L418.25 319C429.75 313 435 305.75 435 293.75C435 283 429.25 274.75 418.25 268.5L224 163.25C219.25 161 215.75 159.75 209.5 159.75C196 159.75 186.25 169.5 186.25 182.25Z" fill="black" fill-opacity="0.85"/>
 </g>
</svg>
