<?xml version="1.0" encoding="UTF-8"?>
<!--Generator: Apple Native CoreSVG 326-->
<!DOCTYPE svg
PUBLIC "-//W3C//DTD SVG 1.1//EN"
       "http://www.w3.org/Graphics/SVG/1.1/DTD/svg11.dtd">
<svg version="1.1" xmlns="http://www.w3.org/2000/svg" xmlns:xlink="http://www.w3.org/1999/xlink" viewBox="0 0 587.75 587.75">
 <g>
  <rect height="587.75" opacity="0" width="587.75" x="0" y="0"/>
  <path d="M97.25 587.75L490.25 587.75C555 587.75 587.75 555 587.75 491.5L587.75 96.5C587.75 32.75 555 0 490.25 0L97.25 0C32.75 0 0 32.5 0 96.5L0 491.5C0 555.5 32.75 587.75 97.25 587.75ZM98.25 543.5C63.25 543.5 44.25 525 44.25 489L44.25 98.75C44.25 63 63.25 44.25 98.25 44.25L489.5 44.25C523.75 44.25 543.5 63 543.5 98.75L543.5 489C543.5 525 523.75 543.5 489.5 543.5Z" fill="black" fill-opacity="0.85"/>
  <path d="M412 427.75C412 416.75 403 407.5 391.75 407.5L204.75 407.5C193.5 407.5 184.5 416.75 184.5 427.75C184.5 438 193.5 447.75 204.75 447.75L391.75 447.75C403 447.75 412 438 412 427.75ZM214.75 352.75C218 352.75 221.25 351.75 227.5 348.75L391.5 274C404.75 268.5 409.25 260 409.25 248C409.25 237.25 404.5 228 391.5 222L227.5 147.5C221.25 144.75 218 143.75 214.75 143.75C202.25 143.75 194 153.25 194 163.75C194 172 198.75 179.5 207 183.5L349.75 247.5L349.75 248.75L207 313C198.75 316.5 194 324.25 194 332.5C194 343 202.25 352.75 214.75 352.75Z" fill="black" fill-opacity="0.85"/>
 </g>
</svg>
