<?xml version="1.0" encoding="UTF-8"?>
<!--Generator: Apple Native CoreSVG 326-->
<!DOCTYPE svg
PUBLIC "-//W3C//DTD SVG 1.1//EN"
       "http://www.w3.org/Graphics/SVG/1.1/DTD/svg11.dtd">
<svg version="1.1" xmlns="http://www.w3.org/2000/svg" xmlns:xlink="http://www.w3.org/1999/xlink" viewBox="0 0 651.25 651.75">
 <g>
  <rect height="651.75" opacity="0" width="651.25" x="0" y="0"/>
  <path d="M325.5 651.25C505.25 651.25 651.25 505.5 651.25 325.75C651.25 146 505.25 0 325.5 0C145.75 0 0 146 0 325.75C0 505.5 145.75 651.25 325.5 651.25ZM325.5 604.75C171.25 604.75 46.5 480 46.5 325.75C46.5 171.5 171.25 46.75 325.5 46.75C479.75 46.75 604.5 171.5 604.5 325.75C604.5 480 479.75 604.75 325.5 604.75Z" fill="black" fill-opacity="0.85"/>
  <path d="M203.5 459.75C203.5 470 212.5 479.75 223.75 479.75L410.75 479.75C422.25 479.75 431.25 470 431.25 459.75C431.25 448.75 422.25 439.5 410.75 439.5L223.75 439.5C212.5 439.5 203.5 448.75 203.5 459.75ZM400.75 384.75C413.25 384.75 421.5 375 421.5 364.5C421.5 356.25 417 348.5 408.75 345L265.75 280.75L265.75 279.5L408.75 215.5C417 211.5 421.5 204 421.5 195.75C421.5 185.25 413.25 175.75 400.75 175.75C397.5 175.75 394.25 176.75 388 179.5L224 254C211 260 206.25 269.25 206.25 280C206.25 292 210.75 300.5 224 306L388 380.75C394.25 383.75 397.5 384.75 400.75 384.75Z" fill="black" fill-opacity="0.85"/>
 </g>
</svg>
