<?xml version="1.0" encoding="UTF-8"?>
<!--Generator: Apple Native CoreSVG 326-->
<!DOCTYPE svg
PUBLIC "-//W3C//DTD SVG 1.1//EN"
       "http://www.w3.org/Graphics/SVG/1.1/DTD/svg11.dtd">
<svg version="1.1" xmlns="http://www.w3.org/2000/svg" xmlns:xlink="http://www.w3.org/1999/xlink" viewBox="0 0 423.313 424.188">
 <g>
  <rect height="424.188" opacity="0" width="423.313" x="0" y="0"/>
  <path d="M7.03156 416.969C16.5316 426.719 32.2816 426.469 41.7816 416.969L211.782 246.969L381.782 416.969C391.032 426.469 406.782 426.719 416.282 416.969C425.782 407.719 425.532 391.719 416.282 382.469L246.282 212.469L416.282 42.4691C425.532 33.2191 425.782 17.2191 416.282 7.96905C406.782-1.78095 391.032-1.53095 381.782 7.96905L211.782 177.969L41.7816 7.96905C32.2816-1.53095 16.5316-1.78095 7.03156 7.96905C-2.46844 17.2191-2.21844 33.2191 7.03156 42.4691L177.032 212.469L7.03156 382.469C-2.21844 391.719-2.46844 407.719 7.03156 416.969Z" fill="black" fill-opacity="0.85"/>
 </g>
</svg>
