<?xml version="1.0" encoding="UTF-8"?>
<!--Generator: Apple Native CoreSVG 326-->
<!DOCTYPE svg
PUBLIC "-//W3C//DTD SVG 1.1//EN"
       "http://www.w3.org/Graphics/SVG/1.1/DTD/svg11.dtd">
<svg version="1.1" xmlns="http://www.w3.org/2000/svg" xmlns:xlink="http://www.w3.org/1999/xlink" viewBox="0 0 651.25 651.75">
 <g>
  <rect height="651.75" opacity="0" width="651.25" x="0" y="0"/>
  <path d="M651.25 325.75C651.25 505 505 651.25 325.5 651.25C146.25 651.25 0 505 0 325.75C0 146.25 146.25 0 325.5 0C505 0 651.25 146.25 651.25 325.75ZM387.75 180.75L372.75 250.75L308.5 250.75L322 186.25C324.5 174.25 316.25 164 304 164C292.5 164 285.25 169.75 283 180.75L268.5 250.75L231.75 250.75C220.25 250.75 212 259 212 270.25C212 280 219 287.25 228.75 287.25L260.5 287.25L246.25 357.25L208.25 357.25C196.75 357.25 188.75 365.75 188.75 376.75C188.75 386.75 195.75 393.75 205.5 393.75L238.25 393.75L224 461.75C221.75 473.75 230.5 483.75 242.5 483.75C253.75 483.75 260.75 478 263 467L278.5 394L342.75 394L328.5 461.75C326 473.75 334.5 483.75 346.25 483.75C358.25 483.75 365.75 478 368 467L383 393.75L419 393.75C430.5 393.75 438.75 385.25 438.75 374.25C438.75 364.5 431.75 357.25 422 357.25L390.75 357.25L405.75 287.25L442.5 287.25C454 287.25 462 279 462 267.75C462 257.75 455 250.75 445.25 250.75L413.25 250.75L427 186.25C429.25 174 420.5 164 408.5 164C397.25 164 390 169.75 387.75 180.75ZM352 360.25L284 360.25L299.75 284.5L368 284.5Z" fill="black" fill-opacity="0.85"/>
 </g>
</svg>
