<?xml version="1.0" encoding="UTF-8"?>
<!--Generator: Apple Native CoreSVG 326-->
<!DOCTYPE svg
PUBLIC "-//W3C//DTD SVG 1.1//EN"
       "http://www.w3.org/Graphics/SVG/1.1/DTD/svg11.dtd">
<svg version="1.1" xmlns="http://www.w3.org/2000/svg" xmlns:xlink="http://www.w3.org/1999/xlink" viewBox="0 0 651.25 651.75">
 <g>
  <rect height="651.75" opacity="0" width="651.25" x="0" y="0"/>
  <path d="M325.5 651.25C505.25 651.25 651.25 505.5 651.25 325.75C651.25 146 505.25 0 325.5 0C145.75 0 0 146 0 325.75C0 505.5 145.75 651.25 325.5 651.25ZM325.5 604.75C171.25 604.75 46.5 480 46.5 325.75C46.5 171.5 171.25 46.75 325.5 46.75C479.75 46.75 604.5 171.5 604.5 325.75C604.5 480 479.75 604.75 325.5 604.75Z" fill="black" fill-opacity="0.85"/>
  <path d="M244.25 479.75C255.25 479.75 262 474.25 264.25 463.5L279.25 392.25L342.25 392.25L328.25 458.5C325.75 470 334 479.75 345.5 479.75C357 479.75 364 474.25 366.25 463.5L381.25 392L416.5 392C427.5 392 435.25 383.75 435.25 373C435.25 363.5 428.75 356.5 419.25 356.5L388.75 356.5L403.5 288L439.5 288C450.5 288 458.25 280 458.25 269.25C458.25 259.5 451.5 252.75 442 252.75L410.75 252.75L424 189.5C426.25 177.75 417.75 168.25 406.25 168.25C395 168.25 388.25 173.75 386 184.25L371.5 252.75L308.5 252.75L321.75 189.5C324.25 178 316.25 168.25 304.25 168.25C293.25 168.25 286.25 173.75 284 184.25L269.75 252.75L233.75 252.75C222.75 252.75 215 260.75 215 271.5C215 281 221.5 288 231 288L262 288L248 356.5L210.75 356.5C199.75 356.5 192 364.75 192 375.5C192 385 198.75 392 208.25 392L240.25 392L226.5 458.5C224.25 470 232.75 479.75 244.25 479.75ZM284.75 359.5L300 285.5L366.75 285.5L351.25 359.5Z" fill="black" fill-opacity="0.85"/>
 </g>
</svg>
