<?xml version="1.0" encoding="UTF-8"?>
<!--Generator: Apple Native CoreSVG 326-->
<!DOCTYPE svg
PUBLIC "-//W3C//DTD SVG 1.1//EN"
       "http://www.w3.org/Graphics/SVG/1.1/DTD/svg11.dtd">
<svg version="1.1" xmlns="http://www.w3.org/2000/svg" xmlns:xlink="http://www.w3.org/1999/xlink" viewBox="0 0 576.5 614.726">
 <g>
  <rect height="614.726" opacity="0" width="576.5" x="0" y="0"/>
  <path d="M108 295.988C175.25 295.988 215.75 239.738 215.75 150.238C215.75 60.4881 175 4.98814 108 4.98814C41 4.98814 0 60.7381 0 150.238C0 239.988 40.75 295.988 108 295.988ZM108 257.488C68 257.488 44.25 217.488 44.25 150.238C44.25 83.4881 68.25 43.2381 108 43.2381C147.75 43.2381 171.75 82.9881 171.75 150.238C171.75 217.488 148 257.488 108 257.488ZM468.75 609.738C536 609.738 576.5 553.488 576.5 463.988C576.5 374.238 535.75 318.738 468.75 318.738C401.75 318.738 360.75 374.488 360.75 463.988C360.75 553.738 401.5 609.738 468.75 609.738ZM468.75 571.488C428.75 571.488 405 531.488 405 463.988C405 397.238 429 357.238 468.75 357.238C508.25 357.238 532.25 396.988 532.25 463.988C532.25 531.488 508.5 571.488 468.75 571.488ZM86.25 610.988C96.25 616.738 111.25 615.738 119.75 603.488L495.5 36.7381C505 23.2381 499.5 8.98814 489.25 2.98814C479.75-2.51186 466-1.01186 456.75 12.4881L80.75 577.738C71.25 591.488 75.75 604.988 86.25 610.988Z" fill="black" fill-opacity="0.85"/>
 </g>
</svg>
