<?xml version="1.0" encoding="UTF-8"?>
<!--Generator: Apple Native CoreSVG 326-->
<!DOCTYPE svg
PUBLIC "-//W3C//DTD SVG 1.1//EN"
       "http://www.w3.org/Graphics/SVG/1.1/DTD/svg11.dtd">
<svg version="1.1" xmlns="http://www.w3.org/2000/svg" xmlns:xlink="http://www.w3.org/1999/xlink" viewBox="0 0 587.75 587.75">
 <g>
  <rect height="587.75" opacity="0" width="587.75" x="0" y="0"/>
  <path d="M97.25 587.75L490.25 587.75C555 587.75 587.75 555 587.75 491.5L587.75 96.5C587.75 32.75 555 0 490.25 0L97.25 0C32.75 0 0 32.5 0 96.5L0 491.5C0 555.5 32.75 587.75 97.25 587.75ZM98.25 543.5C63.25 543.5 44.25 525 44.25 489L44.25 98.75C44.25 63 63.25 44.25 98.25 44.25L489.5 44.25C523.75 44.25 543.5 63 543.5 98.75L543.5 489C543.5 525 523.75 543.5 489.5 543.5Z" fill="black" fill-opacity="0.85"/>
  <path d="M146.25 293.75C146.25 307 156 316.25 170 316.25L271 316.25L271 417.5C271 431.25 280.5 441 293.5 441C307.5 441 317 431.5 317 417.5L317 316.25L418.25 316.25C432 316.25 441.75 307 441.75 293.75C441.75 279.75 432.25 270.25 418.25 270.25L317 270.25L317 169.25C317 155.25 307.5 145.5 293.5 145.5C280.5 145.5 271 155.25 271 169.25L271 270.25L170 270.25C156 270.25 146.25 279.75 146.25 293.75Z" fill="black" fill-opacity="0.85"/>
 </g>
</svg>
