<?xml version="1.0" encoding="UTF-8"?>
<!--Generator: Apple Native CoreSVG 326-->
<!DOCTYPE svg
PUBLIC "-//W3C//DTD SVG 1.1//EN"
       "http://www.w3.org/Graphics/SVG/1.1/DTD/svg11.dtd">
<svg version="1.1" xmlns="http://www.w3.org/2000/svg" xmlns:xlink="http://www.w3.org/1999/xlink" viewBox="0 0 601.75 608.75">
 <g>
  <rect height="608.75" opacity="0" width="601.75" x="0" y="0"/>
  <path d="M0 161.5C0 172.25 8.75 181 19.5 181L87.5 181L87.5 249C87.5 260 96.5 268.5 107.25 268.5C118.25 268.5 126.75 259.75 126.75 249L126.75 181L195 181C206 181 214.75 172.25 214.75 161.5C214.75 150.5 206 141.75 195 141.75L126.75 141.75L126.75 73.5C126.75 62.75 118 54 107.25 54C96.25 54 87.5 62.75 87.5 73.5L87.5 141.75L19.5 141.75C8.75 141.75 0 150.5 0 161.5ZM319.5 315.75L505.5 35.5C509.5 30 511 25.25 511 19.5C511 8.5 501.25 0 490 0C480 0 475 3 467 14.5L282 294.25L96.75 572.5C93 578 91.25 582.75 91.25 589C91.25 600.75 101 608.75 113.25 608.75C122.5 608.75 127.75 605 135 594.5ZM387.25 473.25C387.25 484 396 492.75 406.75 492.75L582.25 492.75C593 492.75 601.75 484 601.75 473.25C601.75 462.25 593 453.5 582.25 453.5L406.75 453.5C396 453.5 387.25 462.25 387.25 473.25Z" fill="black" fill-opacity="0.85"/>
 </g>
</svg>
