<?xml version="1.0" encoding="UTF-8"?>
<!--Generator: Apple Native CoreSVG 326-->
<!DOCTYPE svg
PUBLIC "-//W3C//DTD SVG 1.1//EN"
       "http://www.w3.org/Graphics/SVG/1.1/DTD/svg11.dtd">
<svg version="1.1" xmlns="http://www.w3.org/2000/svg" xmlns:xlink="http://www.w3.org/1999/xlink" viewBox="0 0 651.25 651.75">
 <g>
  <rect height="651.75" opacity="0" width="651.25" x="0" y="0"/>
  <path d="M325.5 651.25C505.25 651.25 651.25 505.5 651.25 325.75C651.25 146 505.25 0 325.5 0C145.75 0 0 146 0 325.75C0 505.5 145.75 651.25 325.5 651.25ZM325.5 604.75C171.25 604.75 46.5 480 46.5 325.75C46.5 171.5 171.25 46.75 325.5 46.75C479.75 46.75 604.5 171.5 604.5 325.75C604.5 480 479.75 604.75 325.5 604.75Z" fill="black" fill-opacity="0.85"/>
  <path d="M215.25 262.25C215.25 272.75 224 281.5 234.75 281.5L306.5 281.5L306.5 353.25C306.5 363.5 315.25 372.5 325.75 372.5C336.5 372.5 345.25 363.75 345.25 353.25L345.25 281.5L416.5 281.5C427.25 281.5 436 272.75 436 262.25C436 251.5 427.25 242.75 416.5 242.75L345.25 242.75L345.25 171C345.25 160.5 336.25 151.75 325.75 151.75C315.25 151.75 306.5 160.5 306.5 171L306.5 242.75L234.75 242.75C224 242.75 215.25 251.5 215.25 262.25ZM215.25 457C215.25 467 224 476.5 235 476.5L416.25 476.5C427.25 476.5 436 467 436 457C436 446.75 427.25 437.75 416.25 437.75L235 437.75C224 437.75 215.25 446.75 215.25 457Z" fill="black" fill-opacity="0.85"/>
 </g>
</svg>
