<?xml version="1.0" encoding="UTF-8"?>
<!--Generator: Apple Native CoreSVG 326-->
<!DOCTYPE svg
PUBLIC "-//W3C//DTD SVG 1.1//EN"
       "http://www.w3.org/Graphics/SVG/1.1/DTD/svg11.dtd">
<svg version="1.1" xmlns="http://www.w3.org/2000/svg" xmlns:xlink="http://www.w3.org/1999/xlink" viewBox="0 0 660.5 560.25">
 <g>
  <rect height="560.25" opacity="0" width="660.5" x="0" y="0"/>
  <path d="M113.75 560.25C139 560.25 152.25 542.5 159.25 519.75L303.5 49L634.5 49C650 49 660.5 39.25 660.5 24.5C660.5 10 650 0.5 634.5 0.5L302.75 0.5C275.25 0.5 262.75 10.75 255.25 34.25L117 495.25L112.25 495.25L50.25 278.5C46 263.5 38 256.5 25 256.5C10.75 256.5 0 266.75 0 280.25C0 285.5 1.25 290.5 2.75 295L71.5 522.75C78.25 544.75 90.5 560.25 113.75 560.25ZM365.25 498C375.25 498 380.5 494.5 388.25 483.75L465.75 372L467.25 372L544.25 483.75C552 494.5 557.25 498 567.25 498C581 498 591 488.75 591 475.75C591 469.5 589.5 465 585.5 459.5L497.25 336.75L586.25 213.5C590.5 207.75 592 203 592 197.25C592 185.25 582.25 176 569 176C559.25 176 553.5 179.5 546.5 189.5L471.25 301.5L469.75 301.5L393 189.25C386 179.5 380.25 176 369.75 176C356.75 176 346 186 346 198.75C346 205.25 347.75 209.75 352.5 216L437.5 335.5L348.25 461.25C344 466.75 342.75 470.75 342.75 477C342.75 488.75 352.5 498 365.25 498Z" fill="black" fill-opacity="0.85"/>
 </g>
</svg>
