<?xml version="1.0" encoding="UTF-8"?>
<!--Generator: Apple Native CoreSVG 326-->
<!DOCTYPE svg
PUBLIC "-//W3C//DTD SVG 1.1//EN"
       "http://www.w3.org/Graphics/SVG/1.1/DTD/svg11.dtd">
<svg version="1.1" xmlns="http://www.w3.org/2000/svg" xmlns:xlink="http://www.w3.org/1999/xlink" viewBox="0 0 651.25 651.75">
 <g>
  <rect height="651.75" opacity="0" width="651.25" x="0" y="0"/>
  <path d="M325.5 651.25C505.25 651.25 651.25 505.5 651.25 325.75C651.25 146 505.25 0 325.5 0C145.75 0 0 146 0 325.75C0 505.5 145.75 651.25 325.5 651.25ZM325.5 604.75C171.25 604.75 46.5 480 46.5 325.75C46.5 171.5 171.25 46.75 325.5 46.75C479.75 46.75 604.5 171.5 604.5 325.75C604.5 480 479.75 604.75 325.5 604.75Z" fill="black" fill-opacity="0.85"/>
  <path d="M184 410.5L198 501.25C199.25 509.5 203.25 514.5 211.25 514.5C219.25 514.5 225 508.25 223.5 499L210.5 414.75C209 403.75 212.25 399 224 396C228.5 394.75 233 393.5 237.5 392.25C234.5 399 233 407 233 416.5C233 473.25 276.25 526.5 325.5 526.5C374.75 526.5 417.75 473.25 417.75 416.5C417.75 407 416.5 399 413.25 392.25C418 393.5 422.5 394.75 427 396C438.75 399 442 403.75 440.25 414.75L427.5 499C425.75 508.25 431.75 514.5 439.75 514.5C447.5 514.5 451.75 509.5 453 501.25L467 410.5C470.5 389.75 462 378.25 439.25 372.5L367.75 355.75C373.75 352.75 380 344.75 382.5 334.5L429 328C451.5 324.5 461.5 312.75 461.5 291.25L461.5 232C461.5 224 456.75 219 448.25 219C440.5 219 435.75 224 435.75 232L435.75 286.5C435.75 298.5 429.75 302.5 418.25 304.25L381.5 309.5C380 304 376.5 298.75 373.25 296C401 290.25 415.75 272.5 415.75 245.75C415.75 223 407.25 201.75 392.75 185.75L393.5 184.75C410.25 172.25 413.25 154.75 401.5 135.75L389.25 116.75C386 111.5 382.25 108.75 377 108.75C370 108.75 365 113.75 365 120.25C365 123.5 365.5 125.5 367.5 128.5L379.25 145.25C384.75 153.75 386 160.75 379 166.25L375.25 169.5C360.25 160 341.75 154.5 325.5 154.5C309 154.5 290.75 160 275.75 169.5L271.75 166.25C265 160.75 266.5 153.75 271.75 145.25L283.5 128.5C285.5 125.5 286 123.5 286 120.25C286 113.75 281 108.75 274 108.75C268.75 108.75 264.75 111.25 261.75 116.75L249.5 135.75C238.25 155 240.75 172.25 257.5 184.75L258.25 185.75C243.5 201.75 235.25 223 235.25 245.75C235.25 272.25 249.75 290 277.75 295.75C274.25 298.75 270.75 303.75 269.5 309.5L232.75 304.25C221.25 302.75 215.25 298.5 215.25 286.5L215.25 232C215.25 224 210.5 219 202.5 219C194.25 219 189.5 224 189.5 232L189.5 291.25C189.5 312.75 199.5 324.5 222 328L268.5 334.5C271 344.5 277 352.5 283.25 355.75L211.5 372.5C189 378 180.5 389.75 184 410.5Z" fill="black" fill-opacity="0.85"/>
 </g>
</svg>
