<?xml version="1.0" encoding="UTF-8"?>
<!--Generator: Apple Native CoreSVG 326-->
<!DOCTYPE svg
PUBLIC "-//W3C//DTD SVG 1.1//EN"
       "http://www.w3.org/Graphics/SVG/1.1/DTD/svg11.dtd">
<svg version="1.1" xmlns="http://www.w3.org/2000/svg" xmlns:xlink="http://www.w3.org/1999/xlink" viewBox="0 0 526.015 792.75">
 <g>
  <rect height="792.75" opacity="0" width="526.015" x="0" y="0"/>
  <path d="M263.008 775.5C353.008 775.5 433.008 677.75 433.008 572.25C433.008 552 428.758 535.75 420.508 522.75C431.258 525.5 442.258 528.25 453.008 531C476.008 537.25 483.258 547.75 480.008 569.25L455.508 727.5C453.008 743.25 463.008 752.75 476.008 752.75C489.758 752.75 495.758 744.25 498.008 730.5L524.758 561.25C530.758 523.5 515.508 502.75 474.258 493L334.508 460.5L334.258 457C349.758 449.75 359.258 434 362.758 417.5L455.508 404.5C496.258 398.75 514.008 377.75 514.008 338.5L514.008 228.25C514.008 214.5 506.008 206.75 492.508 206.75C479.258 206.75 471.258 214.75 471.258 228.25L471.258 330C471.258 353.75 459.508 362.25 436.758 365.25L363.258 375.5C359.758 365 353.508 355.5 344.008 349.25L344.008 346C399.258 336 429.508 302.75 429.508 253.75C429.508 210.25 412.008 170.25 384.258 141L388.008 138C418.758 115 423.008 83.75 402.258 49.25L378.758 13.75C373.258 4.25 367.008 0 358.508 0C347.008 0 338.508 8.25 338.508 19.25C338.508 24.25 339.508 27.25 342.758 33L365.008 64.5C376.258 82 376.758 96.75 361.758 109.75C359.758 111.5 357.758 113 355.508 114.75C328.758 96.75 297.008 86 263.008 86C229.258 86 197.758 96.75 171.258 114.5C169.258 113 167.008 111.25 165.008 109.5C150.258 96.75 150.258 82 162.008 64.5L184.258 33C187.508 27.25 188.508 24.25 188.508 19.25C188.508 8.25 179.758 0 168.508 0C160.008 0 153.758 4.25 148.258 13.75L124.758 49.25C104.008 83.75 108.258 115 139.008 138L142.258 140.5C114.258 169.75 96.5075 210 96.5075 253.75C96.5075 302.75 126.758 336 181.758 346L181.758 349.25C172.508 355.5 166.258 365 162.758 375.5L89.2575 365.25C66.5075 362.25 54.7575 353.75 54.7575 330L54.7575 228.25C54.7575 214.75 46.7575 206.75 33.5075 206.75C20.0075 206.75 12.0075 214.5 12.0075 228.25L12.0075 338.5C12.0075 377.75 29.7575 398.75 70.5075 404.5L163.258 417.5C166.758 434 176.258 449.75 191.758 457L191.758 460.5L51.7575 493C10.5075 502.75-4.74247 523.5 1.25753 561.25L27.7575 730.5C30.0075 744.25 36.2575 752.75 50.0075 752.75C63.0075 752.75 73.0075 743.25 70.5075 727.5L46.0075 569.25C42.5075 547.75 50.0075 537.25 73.0075 531C83.7575 528.25 94.7575 525.5 105.508 522.75C97.0075 535.75 92.7575 552 92.7575 572.25C92.7575 677.75 173.008 775.5 263.008 775.5Z" fill="black" fill-opacity="0.85"/>
 </g>
</svg>
