<?xml version="1.0" encoding="UTF-8"?>
<!--Generator: Apple Native CoreSVG 326-->
<!DOCTYPE svg
PUBLIC "-//W3C//DTD SVG 1.1//EN"
       "http://www.w3.org/Graphics/SVG/1.1/DTD/svg11.dtd">
<svg version="1.1" xmlns="http://www.w3.org/2000/svg" xmlns:xlink="http://www.w3.org/1999/xlink" viewBox="0 0 526.015 792.75">
 <g>
  <rect height="792.75" opacity="0" width="526.015" x="0" y="0"/>
  <path d="M263.008 775.5C353.008 775.5 433.008 677.75 433.008 572.25C433.008 505.5 396.258 474.5 336.758 460.5L336.758 457C375.008 438.5 381.258 372.25 346.508 349.25L346.508 346C401.758 336 429.508 302.75 429.508 253.75C429.508 162 353.508 86 263.008 86C172.258 86 96.5075 162 96.5075 253.75C96.5075 302.75 124.258 336 179.258 346L179.258 349.25C144.758 372.25 151.008 438.5 189.258 457L189.258 460.5C130.258 474.5 92.7575 505.5 92.7575 572.25C92.7575 677.75 173.008 775.5 263.008 775.5ZM263.008 728.75C194.758 728.75 138.508 648.5 138.508 577.25C138.508 531.25 166.258 502.75 217.008 502.75L309.008 502.75C359.508 502.75 387.258 531.25 387.258 577.25C387.258 648.5 331.008 728.75 263.008 728.75ZM199.008 396C199.008 366.5 217.008 348.25 247.258 348.25C257.758 348.25 268.508 348.25 279.008 348.25C308.758 348.25 327.008 366.5 327.008 396C327.008 433 301.008 462.75 268.758 462.75C265.008 462.75 261.008 462.75 257.258 462.75C225.008 462.75 199.008 433 199.008 396ZM202.258 304.75C165.508 304.75 142.258 284 142.258 252C142.258 187.75 199.008 132 263.008 132C326.758 132 383.758 187.75 383.758 252C383.758 284 360.508 304.75 323.758 304.75ZM50.0075 752.75C63.0075 752.75 73.0075 743.25 70.5075 727.5L46.0075 569.25C42.5075 547.75 50.0075 537.25 73.0075 531L189.258 500.5L189.258 460.5L51.7575 493C10.5075 503-4.74247 523.5 1.25753 561.25L27.7575 730.5C30.0075 744.25 36.2575 752.75 50.0075 752.75ZM476.008 752.75C489.758 752.75 495.758 744.25 498.008 730.5L524.758 561.25C530.758 523.5 515.508 503 474.258 493L336.758 460.5L336.758 500.5L453.008 531C476.008 537.25 483.258 547.75 480.008 569.25L455.508 727.5C453.008 743.25 463.008 752.75 476.008 752.75ZM180.758 420.5L180.758 378.5L89.2575 365.25C66.5075 362 54.7575 353.75 54.7575 330L54.7575 228.25C54.7575 214.75 46.7575 206.75 33.5075 206.75C20.0075 206.75 12.0075 214.5 12.0075 228.25L12.0075 338.5C12.0075 377.75 29.7575 398.75 70.5075 404.5ZM345.258 420.5L455.508 404.5C496.258 398.75 514.008 377.75 514.008 338.5L514.008 228.25C514.008 214.5 506.008 206.75 492.508 206.75C479.258 206.75 471.258 214.75 471.258 228.25L471.258 330C471.258 353.75 459.508 362 436.758 365.25L345.258 378.5ZM166.508 157.5L190.758 128.5L167.758 111.75C150.508 98.75 149.758 83.25 162.008 64.5L184.258 33C187.508 27.25 188.508 24.25 188.508 19.25C188.508 8.25 179.758 0 168.508 0C160.008 0 153.758 4.25 148.258 13.75L124.758 49.25C104.008 83.75 108.258 115 139.008 138ZM359.508 158.25L388.008 138C418.758 115 423.008 83.75 402.258 49.25L378.758 13.75C373.258 4.25 367.008 0 358.508 0C347.008 0 338.508 8.25 338.508 19.25C338.508 24.25 339.508 27.25 342.758 33L365.008 64.5C377.008 83.25 376.508 98.75 359.258 111.75L335.508 129Z" fill="black" fill-opacity="0.85"/>
 </g>
</svg>
