<?xml version="1.0" encoding="UTF-8"?>
<!--Generator: Apple Native CoreSVG 326-->
<!DOCTYPE svg
PUBLIC "-//W3C//DTD SVG 1.1//EN"
       "http://www.w3.org/Graphics/SVG/1.1/DTD/svg11.dtd">
<svg version="1.1" xmlns="http://www.w3.org/2000/svg" xmlns:xlink="http://www.w3.org/1999/xlink" viewBox="0 0 665 840.75">
 <g>
  <rect height="840.75" opacity="0" width="665" x="0" y="0"/>
  <path d="M477.089 90.5L187.911 90.5C189.512 67.8223 204.218 54.5 228.25 54.5L436.75 54.5C460.782 54.5 475.488 67.8223 477.089 90.5Z" fill="black" fill-opacity="0.85"/>
  <path d="M541.604 177.715C532.72 176.365 523.31 175.75 513.5 175.75L151.5 175.75C141.598 175.75 132.108 176.37 123.153 177.729C126.577 151.372 144.887 136.5 174.25 136.5L490.75 136.5C520.108 136.5 538.216 151.367 541.604 177.715Z" fill="black" fill-opacity="0.85"/>
  <path d="M151.5 786.75L513.5 786.75C578 786.75 610.75 754 610.75 690.25L610.75 326.25C610.75 262.75 578 230 513.5 230L151.5 230C86.75 230 54.25 262.5 54.25 326.25L54.25 690.25C54.25 754.25 86.75 786.75 151.5 786.75ZM152.25 742.5C117.5 742.5 98.5 723.75 98.5 688L98.5 328.75C98.5 292.75 117.5 274.25 152.25 274.25L512.75 274.25C546.75 274.25 566.5 292.75 566.5 328.75L566.5 688C566.5 723.75 546.75 742.5 512.75 742.5Z" fill="black" fill-opacity="0.85"/>
  <path d="M325.25 622.75C334 622.75 340.75 615.25 340.75 607L340.75 533C442 527 507.25 457.75 506 356.5C506 347.25 499.75 340.25 489 340.25C411 338.75 350.5 383 323.5 457C298.25 402.75 243.25 379.5 194 379.5C185.75 379.5 181 384.75 181 393.25C183.25 440.25 211 525 309.5 533L309.5 607C309.5 615.5 317 622.75 325.25 622.75ZM307.5 501.75C249.75 495.75 222 453.25 214 412.75C252 418.25 297 443 307.5 501.75ZM343.75 502C357.75 424.25 406.75 375.5 474.5 371.75C470.5 444.75 420.25 494.75 343.75 502ZM181.75 675.5C190.25 675.5 198 667.75 198 659.25C198 651 190.25 643.5 181.75 643.5C173 643.5 165.75 651 165.75 659.25C165.75 667.75 173 675.5 181.75 675.5ZM224.75 646.5C233.5 646.5 241.25 639.25 241.25 630.75C241.25 622 233.5 614.25 224.75 614.25C216 614.25 209 622 209 630.75C209 639 216.25 646.5 224.75 646.5ZM274.25 629.75C283 629.75 290.25 621.75 290.25 613.75C290.25 605 282.75 597.75 274.25 597.75C265.75 597.75 258 605 258 613.75C258 621.75 265.75 629.75 274.25 629.75ZM376.5 629.75C384.75 629.75 392.5 621.75 392.5 613.75C392.5 605 384.75 597.75 376.5 597.75C367.75 597.75 360.25 605 360.25 613.75C360.25 621.75 367.75 629.75 376.5 629.75ZM425.5 646.5C434 646.5 441.5 639 441.5 630.75C441.5 622 434 614.25 425.5 614.25C417 614.25 409.25 622 409.25 630.75C409.25 639.25 417 646.5 425.5 646.5ZM469 675.5C477.5 675.5 484.75 667.75 484.75 659.25C484.75 651 477.5 643.5 469 643.5C460.5 643.5 453 651 453 659.25C453 667.75 460.5 675.5 469 675.5Z" fill="black" fill-opacity="0.85"/>
 </g>
</svg>
