<?xml version="1.0" encoding="UTF-8"?>
<!--Generator: Apple Native CoreSVG 326-->
<!DOCTYPE svg
PUBLIC "-//W3C//DTD SVG 1.1//EN"
       "http://www.w3.org/Graphics/SVG/1.1/DTD/svg11.dtd">
<svg version="1.1" xmlns="http://www.w3.org/2000/svg" xmlns:xlink="http://www.w3.org/1999/xlink" viewBox="0 0 622.325 628.25">
 <g>
  <rect height="628.25" opacity="0" width="622.325" x="0" y="0"/>
  <path d="M288.787 523C300.287 523 309.787 513.5 309.787 502.25L309.787 351C501.787 342.25 624.787 215.25 622.287 24.5C622.287 11 614.537 2.25 599.787 2.25C447.537-0.25 332.787 89.25 287.537 238C244.787 126 138.787 76.75 40.5374 77.25C29.7874 77.25 24.7874 82.75 25.5374 94C33.5374 182 80.2874 340 268.037 351L268.037 502.25C268.037 513.5 277.537 523 288.787 523ZM266.537 308.75C144.037 300.25 82.0374 211 69.0374 121.5C152.037 130 246.287 185.25 266.537 308.75ZM314.537 308.75C340.287 151.25 441.787 49.25 579.037 45.25C576.037 193.75 470.287 298.25 314.537 308.75Z" fill="black" fill-opacity="0.85"/>
  <path d="M25.2874 628.25C39.2874 628.25 50.7874 616.75 50.7874 602.75C50.7874 589 39.2874 577.5 25.2874 577.5C11.5374 577.5 0.0374066 589 0.0374066 602.75C0.0374066 616.75 11.5374 628.25 25.2874 628.25ZM105.037 571.5C118.787 571.5 130.287 560 130.287 546.25C130.287 532.25 118.787 520.75 105.037 520.75C91.2874 520.75 79.7874 532.25 79.7874 546.25C79.7874 560 91.2874 571.5 105.037 571.5ZM196.037 538.75C209.787 538.75 221.287 527.25 221.287 513.5C221.287 499.5 209.787 488 196.037 488C182.037 488 170.537 499.5 170.537 513.5C170.537 527.25 182.037 538.75 196.037 538.75ZM381.787 538.75C395.787 538.75 407.287 527.25 407.287 513.5C407.287 499.5 395.787 488 381.787 488C368.037 488 356.537 499.5 356.537 513.5C356.537 527.25 368.037 538.75 381.787 538.75ZM472.787 571.5C486.537 571.5 498.037 560 498.037 546.25C498.037 532.25 486.537 520.75 472.787 520.75C458.787 520.75 447.537 532.25 447.537 546.25C447.537 560 458.787 571.5 472.787 571.5ZM552.537 628.25C566.287 628.25 577.787 616.75 577.787 602.75C577.787 589 566.287 577.5 552.537 577.5C538.537 577.5 527.037 589 527.037 602.75C527.037 616.75 538.537 628.25 552.537 628.25Z" fill="black" fill-opacity="0.85"/>
 </g>
</svg>
