<?xml version="1.0" encoding="UTF-8"?>
<!--Generator: Apple Native CoreSVG 326-->
<!DOCTYPE svg
PUBLIC "-//W3C//DTD SVG 1.1//EN"
       "http://www.w3.org/Graphics/SVG/1.1/DTD/svg11.dtd">
<svg version="1.1" xmlns="http://www.w3.org/2000/svg" xmlns:xlink="http://www.w3.org/1999/xlink" viewBox="0 0 689.139 771.75">
 <g>
  <rect height="771.75" opacity="0" width="689.139" x="0" y="0"/>
  <path d="M119.447 415.171C54.0585 474.005 26.7503 525.565 46.4445 559.5C66.1568 593.617 124.681 595.637 208.383 568.403C210.781 582.704 213.621 596.125 216.794 608.817C114.436 638.8 39.8063 629.995 10.9445 580C-17.7244 529.908 11.8676 461.157 88.5667 387.683C97.9573 396.775 108.199 405.945 119.447 415.171ZM344.606 558.275C313.633 573.381 284.022 586.008 256.095 596.091C253.138 583.113 250.576 569.008 248.391 553.951C263.745 547.89 279.778 540.983 296.401 533.27C312.875 542.396 328.933 550.683 344.606 558.275ZM447.175 502.021C438.603 507.285 429.75 512.528 420.695 517.75C411.268 523.188 401.932 528.426 392.797 533.253C377.343 526.18 361.272 518.273 344.6 509.471C362.119 500.485 380.301 490.506 398.945 479.75C417.11 469.298 434.417 458.841 450.732 448.434C450.009 467.25 448.806 485.116 447.175 502.021ZM569.692 415.171C547.097 434.326 521.375 453.657 492.677 472.909C493.964 455.59 494.821 437.568 495.165 418.792C510.198 408.265 524.151 397.844 537.045 387.577C549.004 396.955 559.925 406.174 569.692 415.171ZM678.195 195C707.245 245.207 677.468 314.258 600.572 387.683C591.148 378.555 580.894 369.344 569.635 360.069C635.066 301.22 662.589 249.366 642.695 215.5C623.152 181.263 564.596 179.064 481.309 205.985C478.946 191.657 476.128 178.223 472.947 165.572C574.803 135.899 649.198 144.886 678.195 195ZM194.169 356.187C179.055 366.787 165.039 377.265 152.094 387.577C140.159 378.238 129.267 369.049 119.504 360.069C142.065 340.884 167.753 321.494 196.432 302.144C195.246 319.491 194.44 337.451 194.169 356.187ZM344.57 265.204C327.499 273.993 309.808 283.749 291.695 294.25C273.019 305.035 255.254 315.808 238.528 326.511C239.197 307.688 240.356 289.829 241.916 272.861C250.891 267.306 260.181 261.768 269.695 256.25C278.746 251.025 287.714 245.985 296.485 241.355C311.929 248.456 327.959 256.377 344.57 265.204ZM441.299 220.404C425.75 226.515 409.499 233.518 392.654 241.355C376.229 232.212 360.216 223.922 344.57 216.304C375.771 201.058 405.599 188.34 433.732 178.199C436.642 191.214 439.168 205.312 441.299 220.404Z" fill="black" fill-opacity="0.85"/>
  <path d="M678.195 580C649.328 630.003 574.78 638.803 472.503 608.938C475.694 596.199 478.552 582.731 480.964 568.378C564.635 595.634 622.996 593.593 642.695 559.5C668.744 514.614 612.56 438.891 495.221 356.384C494.953 337.628 494.146 319.649 492.959 302.281C646.191 405.952 717.807 510.788 678.195 580ZM290.195 479.75C345.087 511.375 395.942 536.287 440.993 553.989C438.814 568.996 436.261 583.057 433.315 595.998C383.295 578.14 327.692 551.887 268.445 517.75C259.419 512.545 250.594 507.319 242.218 502.058C240.586 485.162 239.383 467.305 238.659 448.499C254.787 458.88 272.063 469.317 290.195 479.75ZM216.388 165.526C213.2 178.232 210.377 191.726 208.012 206.12C124.582 179.062 65.9933 181.252 46.4445 215.5C20.109 260.331 76.8663 336.685 194.225 418.967C194.572 437.769 195.431 455.817 196.722 473.153C43.1213 369.932-29.2354 264.441 10.9445 195C39.9686 144.839 114.477 135.882 216.388 165.526ZM419.445 256.25L447.5 273.122C449.052 290.094 450.207 307.949 450.871 326.767C434.179 315.986 416.275 305.125 397.445 294.25C343.262 262.838 292.852 238.089 248.075 220.512C250.195 205.474 252.708 191.425 255.601 178.447C305.369 196.192 360.631 222.299 419.445 256.25Z" fill="black" fill-opacity="0.85"/>
  <path d="M344.695 771.75C436.445 771.75 495.695 619.75 495.695 385.75C495.695 153 436.445 1.25 344.695 1.25C252.695 1.25 193.695 153 193.695 385.75C193.695 619.75 252.695 771.75 344.695 771.75ZM344.695 731C279.695 731 237.195 595.25 237.195 385.75C237.195 177 279.695 42 344.695 42C409.695 42 452.195 177 452.195 385.75C452.195 595.25 409.695 731 344.695 731Z" fill="black" fill-opacity="0.85"/>
  <path d="M344.945 455.5C382.695 455.5 413.695 424.75 413.695 386.5C413.695 348.5 382.695 317.75 344.945 317.75C306.695 317.75 275.945 348.5 275.945 386.5C275.945 424.75 306.695 455.5 344.945 455.5Z" fill="black" fill-opacity="0.85"/>
 </g>
</svg>
