<?xml version="1.0" encoding="UTF-8"?>
<!--Generator: Apple Native CoreSVG 326-->
<!DOCTYPE svg
PUBLIC "-//W3C//DTD SVG 1.1//EN"
       "http://www.w3.org/Graphics/SVG/1.1/DTD/svg11.dtd">
<svg version="1.1" xmlns="http://www.w3.org/2000/svg" xmlns:xlink="http://www.w3.org/1999/xlink" viewBox="0 0 745.827 846.563">
 <g>
  <rect height="846.563" opacity="0" width="745.827" x="0" y="0"/>
  <path d="M531.788 210.656C485.538 210.656 450.538 234.406 421.538 301.156C332.788 208.406 183.288 121.406 33.2883 110.156C6.78829 108.656 1.53829 127.406 0.788285 144.906C-10.2117 308.406 119.288 446.156 291.288 458.656C245.788 566.656 171.288 658.156 95.7883 728.906C85.0383 738.656 87.2883 751.656 94.5383 763.156C131.288 819.656 246.538 853.406 324.788 826.156C340.288 820.406 343.538 813.406 343.538 799.406L343.538 674.906C433.038 672.156 572.788 617.156 547.788 440.656L543.288 412.406C610.288 397.406 654.288 356.406 654.288 315.656C654.288 265.406 599.538 210.656 531.788 210.656ZM564.788 319.156C554.038 319.156 545.538 310.656 545.538 300.156C545.538 289.656 554.038 280.906 564.788 280.906C575.038 280.906 583.788 289.656 583.788 300.156C583.788 310.656 575.038 319.156 564.788 319.156ZM616.288 360.406L725.538 375.656C745.538 378.406 754.788 348.906 734.288 340.406L635.538 299.156ZM490.038 176.406C448.788 100.406 395.538 45.4063 326.038 5.9063C303.538-7.0937 281.538 2.1563 275.288 25.9063C265.038 60.6563 259.038 97.4063 257.788 134.156C315.538 162.906 368.288 198.656 411.538 236.906C434.538 204.406 460.788 185.156 490.038 176.406Z" fill="black" fill-opacity="0.85"/>
 </g>
</svg>
