<?xml version="1.0" encoding="UTF-8"?>
<!--Generator: Apple Native CoreSVG 326-->
<!DOCTYPE svg
PUBLIC "-//W3C//DTD SVG 1.1//EN"
       "http://www.w3.org/Graphics/SVG/1.1/DTD/svg11.dtd">
<svg version="1.1" xmlns="http://www.w3.org/2000/svg" xmlns:xlink="http://www.w3.org/1999/xlink" viewBox="0 0 745.971 848.563">
 <g>
  <rect height="848.563" opacity="0" width="745.971" x="0" y="0"/>
  <path d="M534.36 206.406C488.36 206.406 452.61 230.156 423.11 295.156C334.11 203.156 185.36 117.406 36.1104 106.156C7.36035 104.406 1.61035 125.656 0.610354 143.406C-9.88965 304.906 116.36 441.906 280.86 459.156C238.36 554.656 177.11 649.156 96.6104 725.656C84.8604 736.406 87.6104 751.156 95.1104 762.906C132.36 820.406 249.11 854.406 328.11 826.906C345.11 820.906 348.86 812.156 348.86 797.906L348.86 675.656C438.86 672.156 578.11 615.656 552.86 438.906L548.86 412.906C615.11 397.156 659.36 355.156 659.36 314.156C659.36 262.906 603.11 206.406 534.36 206.406ZM536.61 246.406C584.86 246.406 619.36 282.156 619.36 314.156C619.36 339.156 586.36 367.906 522.61 377.406C514.11 378.406 507.86 384.656 508.61 392.656L513.61 441.156C530.61 605.406 402.61 632.906 323.11 634.656C314.61 635.156 308.61 640.906 308.61 649.656L308.61 789.906C308.61 792.906 307.36 795.156 303.86 795.656C240.11 809.656 165.86 785.906 133.86 749.406C131.86 747.156 131.11 744.156 133.36 742.156C220.36 658.906 284.11 553.656 327.61 449.156C333.36 435.656 328.11 424.906 314.36 424.406C156.36 418.906 39.6104 305.906 40.6104 152.406C40.8604 147.906 41.8604 146.906 46.3604 147.656C186.61 163.156 318.86 243.156 392.11 320.906C403.36 332.406 411.86 338.156 422.86 338.156C440.36 338.156 449.36 329.406 458.11 311.156C481.11 264.656 499.11 246.406 536.61 246.406ZM479.61 238.906L517.11 226.156C472.86 123.906 412.36 53.4063 328.61 5.9063C306.11-7.0937 284.11 2.1563 277.86 25.9063C261.36 82.9063 254.86 140.906 262.61 199.906L306.11 219.906C295.36 159.656 298.36 106.156 312.61 53.1563C313.61 48.1563 318.36 46.4063 322.86 49.1563C391.11 91.9063 440.86 151.406 479.61 238.906ZM559.61 320.156C570.11 320.156 578.61 311.656 578.61 301.156C578.61 290.656 570.11 281.906 559.61 281.906C549.11 281.906 540.36 290.656 540.36 301.156C540.36 311.656 549.11 320.156 559.61 320.156ZM616.36 361.406L725.61 376.656C745.61 379.406 754.86 349.906 734.36 341.406L635.61 300.156Z" fill="black" fill-opacity="0.85"/>
 </g>
</svg>
