<?xml version="1.0" encoding="UTF-8"?>
<!--Generator: Apple Native CoreSVG 326-->
<!DOCTYPE svg
PUBLIC "-//W3C//DTD SVG 1.1//EN"
       "http://www.w3.org/Graphics/SVG/1.1/DTD/svg11.dtd">
<svg version="1.1" xmlns="http://www.w3.org/2000/svg" xmlns:xlink="http://www.w3.org/1999/xlink" viewBox="0 0 651.25 651.75">
 <g>
  <rect height="651.75" opacity="0" width="651.25" x="0" y="0"/>
  <path d="M325.5 651.25C505.25 651.25 651.25 505.5 651.25 325.75C651.25 146 505.25 0 325.5 0C145.75 0 0 146 0 325.75C0 505.5 145.75 651.25 325.5 651.25ZM325.5 604.75C171.25 604.75 46.5 480 46.5 325.75C46.5 171.5 171.25 46.75 325.5 46.75C479.75 46.75 604.5 171.5 604.5 325.75C604.5 480 479.75 604.75 325.5 604.75Z" fill="black" fill-opacity="0.85"/>
  <path d="M183 349C183 356.5 189 361.75 196.5 361.75L307.75 361.75L248.25 522.25C240.75 541.5 261.25 551.75 273.75 536.5L453.75 310.5C457 306.5 458.75 302.25 458.75 298.5C458.75 291 452.75 286 445.25 286L334 286L393.5 125.5C401 106.25 380.5 95.75 368 111.25L188 337C184.75 341.25 183 345.5 183 349Z" fill="black" fill-opacity="0.85"/>
 </g>
</svg>
