<?xml version="1.0" encoding="UTF-8"?>
<!--Generator: Apple Native CoreSVG 326-->
<!DOCTYPE svg
PUBLIC "-//W3C//DTD SVG 1.1//EN"
       "http://www.w3.org/Graphics/SVG/1.1/DTD/svg11.dtd">
<svg version="1.1" xmlns="http://www.w3.org/2000/svg" xmlns:xlink="http://www.w3.org/1999/xlink" viewBox="0 0 587.75 587.75">
 <g>
  <rect height="587.75" opacity="0" width="587.75" x="0" y="0"/>
  <path d="M587.75 96.5L587.75 491.5C587.75 555 555 587.75 490.25 587.75L97.25 587.75C32.75 587.75 0 555.5 0 491.5L0 96.5C0 32.5 32.75 0 97.25 0L490.25 0C555 0 587.75 32.75 587.75 96.5ZM337.75 74.25L153.5 305.25C150 309.5 148.25 314 148.25 317.5C148.25 325.25 154.25 330.75 162.25 330.75L276.25 330.75L215.25 495C207.5 514.75 228.5 525.5 241.5 509.5L425.75 278.25C429 274.25 430.75 269.75 430.75 266C430.75 258.25 424.75 253 417 253L303 253L364 88.5C371.75 69 350.5 58.25 337.75 74.25Z" fill="black" fill-opacity="0.85"/>
 </g>
</svg>
