<?xml version="1.0" encoding="UTF-8"?>
<!--Generator: Apple Native CoreSVG 326-->
<!DOCTYPE svg
PUBLIC "-//W3C//DTD SVG 1.1//EN"
       "http://www.w3.org/Graphics/SVG/1.1/DTD/svg11.dtd">
<svg version="1.1" xmlns="http://www.w3.org/2000/svg" xmlns:xlink="http://www.w3.org/1999/xlink" viewBox="0 0 651.25 651.75">
 <g>
  <rect height="651.75" opacity="0" width="651.25" x="0" y="0"/>
  <path d="M651.25 326C651.25 505.5 505 651.75 325.5 651.75C146.25 651.75 0 505.5 0 326C0 146.75 146.25 0.5 325.5 0.5C505 0.5 651.25 146.75 651.25 326ZM369.25 106.5L185 337.75C181.5 342 180 346.25 180 350C180 357.75 185.75 363.25 193.75 363.25L307.75 363.25L246.75 527.5C239 547.25 260.25 557.75 273 542L457.25 310.75C460.5 306.5 462.25 302.25 462.25 298.5C462.25 290.75 456.25 285.25 448.5 285.25L334.5 285.25L395.5 121C403.25 101.25 382 90.75 369.25 106.5Z" fill="black" fill-opacity="0.85"/>
 </g>
</svg>
