<?xml version="1.0" encoding="UTF-8"?>
<!--Generator: Apple Native CoreSVG 326-->
<!DOCTYPE svg
PUBLIC "-//W3C//DTD SVG 1.1//EN"
       "http://www.w3.org/Graphics/SVG/1.1/DTD/svg11.dtd">
<svg version="1.1" xmlns="http://www.w3.org/2000/svg" xmlns:xlink="http://www.w3.org/1999/xlink" viewBox="0 0 784.5 821.065">
 <g>
  <rect height="821.065" opacity="0" width="784.5" x="0" y="0"/>
  <path d="M414.625 531.967L414.625 690.386C429.515 655.002 450.548 622.399 476.884 594.155L587.992 705.138C530.161 737.885 462.832 756.657 392.625 756.657C380.125 756.657 370.375 748.407 370.375 735.657L370.375 487.767ZM330.625 624.657L330.625 735.657C330.625 741.157 331.375 746.907 332.625 751.657C192.125 731.407 72.875 636.657 30.125 511.407C24.375 494.657 30.625 484.157 48.375 484.157C170.625 484.157 270.625 540.407 330.625 624.657ZM754.375 511.407C738.525 557.501 712.265 599.435 678.308 634.976L567.726 524.561C616.268 498.89 673.135 484.157 736.125 484.157C753.625 484.157 760.125 494.657 754.375 511.407ZM408.125 75.6574L472.125 158.907L547.375 82.4074C557.875 71.4074 573.375 73.4074 579.125 86.4074C594.625 122.157 602.125 158.157 602.125 193.157C602.125 294.437 540.196 377.995 441.711 398.736L187.823 145.231C191.481 125.689 197.513 106.011 205.875 86.4074C211.875 73.4074 227.125 71.4074 237.875 82.4074L313.125 158.907L377.125 75.6574C385.375 64.9074 399.625 64.9074 408.125 75.6574Z" fill="black" fill-opacity="0.85"/>
  <path d="M50.625 118.657L712.625 779.657C721.125 787.907 734.625 787.907 742.875 779.657C751.125 771.157 751.125 757.907 742.875 749.407L80.875 88.4074C72.625 80.1574 59.125 79.9074 50.625 88.4074C42.375 96.4074 42.375 110.407 50.625 118.657Z" fill="black" fill-opacity="0.85"/>
 </g>
</svg>
