<?xml version="1.0" encoding="UTF-8"?>
<!--Generator: Apple Native CoreSVG 326-->
<!DOCTYPE svg
PUBLIC "-//W3C//DTD SVG 1.1//EN"
       "http://www.w3.org/Graphics/SVG/1.1/DTD/svg11.dtd">
<svg version="1.1" xmlns="http://www.w3.org/2000/svg" xmlns:xlink="http://www.w3.org/1999/xlink" viewBox="0 0 728.397 692.25">
 <g>
  <rect height="692.25" opacity="0" width="728.397" x="0" y="0"/>
  <path d="M178.073 22C162.573 57.75 155.073 93.75 155.073 128.75C155.073 246 238.073 339.5 364.573 339.5C491.073 339.5 574.073 246 574.073 128.75C574.073 93.75 566.573 57.75 551.323 22C545.323 9 530.073 7 519.323 18L444.073 94.5L380.073 11.25C371.823 0.5 357.573 0.5 349.073 11.25L285.073 94.5L209.823 18C199.323 7 183.823 9 178.073 22ZM342.573 671.25C342.573 684 352.073 692.25 364.573 692.25C529.073 692.25 677.323 589.5 726.323 447C732.073 430.25 725.823 419.75 708.073 419.75C547.073 419.75 426.073 516 379.823 642.5L386.823 651L386.823 310.5L342.573 310.5ZM302.573 560.25C242.823 476 142.573 419.75 20.3233 419.75C2.82333 419.75-3.67667 430.25 2.07333 447C45.0733 572.25 164.073 667 304.573 687.25C303.573 682.5 302.573 676.75 302.573 671.25Z" fill="black" fill-opacity="0.85"/>
 </g>
</svg>
