<?xml version="1.0" encoding="UTF-8"?>
<!--Generator: Apple Native CoreSVG 326-->
<!DOCTYPE svg
PUBLIC "-//W3C//DTD SVG 1.1//EN"
       "http://www.w3.org/Graphics/SVG/1.1/DTD/svg11.dtd">
<svg version="1.1" xmlns="http://www.w3.org/2000/svg" xmlns:xlink="http://www.w3.org/1999/xlink" viewBox="0 0 847.5 735.25">
 <g>
  <rect height="735.25" opacity="0" width="847.5" x="0" y="0"/>
  <path d="M168.75 735.25L200.25 735.25C234.75 735.25 254.25 718.5 254.25 687.75C254.25 665.75 237.5 647 205.75 641.25L205.75 565.75C205.75 533 213 514 232.25 483.5C284.5 503.75 324.25 510.75 369.5 510.75C420.25 510.75 475.25 503 508.25 493.75C515.5 521 523.25 551.5 523.25 579.25C523.25 618.75 518.75 653.5 518.75 685.25C518.75 718.5 537 735.25 571 735.25L606 735.25C639.5 735.25 660 717.25 660 687.75C660 663.25 646.25 646.5 618.5 642.25L618.5 609.5C618.5 436.25 745 484.5 747.5 265.75C806.25 262.25 847.5 224.5 847.5 196.5C847.5 156.5 805.5 115.25 757 80.75C747.25 45.25 728.25 16.5 712.75 16.5C698.25 16.5 676.25 41.25 663 80.5C637.5 105.25 615.25 137.25 598.5 166.75L583.5 191.75C573 211 564 222.5 551.25 222.5C427.5 222.5 378.25 204.75 261.5 204.75C204.25 204.75 169 225.25 147.5 252.5C136.5 265.75 128.75 268.75 110.5 261.75C69 247.5 40.25 208.25 40.25 158.5C40.25 91.25 93.75 44.5 169.5 44.5C198 44.5 227 50.5 260.75 64C289.5 75.5 303 37.25 276.75 26.5C238.5 11 202.25 4.25 169.5 4.25C69 4.25 0 67 0 158.5C0 225.5 36.5 277.75 93 298C109.25 304.25 115 315.25 114.25 332.5C112.5 356.75 112.5 371 112.5 380.75C112.5 483.5 67 501.5 79.5 547.75L118.75 692.25C126.5 721.5 143.75 735.25 168.75 735.25ZM749.25 175C739 175 730.75 167.25 730.75 156.75C730.75 146.75 739 138.25 749.25 138.25C759.5 138.25 767.5 146.75 767.5 156.75C767.5 167.25 759.5 175 749.25 175Z" fill="black" fill-opacity="0.85"/>
 </g>
</svg>
