<?xml version="1.0" encoding="UTF-8"?>
<!--Generator: Apple Native CoreSVG 326-->
<!DOCTYPE svg
PUBLIC "-//W3C//DTD SVG 1.1//EN"
       "http://www.w3.org/Graphics/SVG/1.1/DTD/svg11.dtd">
<svg version="1.1" xmlns="http://www.w3.org/2000/svg" xmlns:xlink="http://www.w3.org/1999/xlink" viewBox="0 0 856.75 744.25">
 <g>
  <rect height="744.25" opacity="0" width="856.75" x="0" y="0"/>
  <path d="M162 744.25L200.25 744.25C238.5 744.25 263.5 722.5 263.5 687.75C263.5 656.25 245 640.5 221.75 635.25L221.75 584C221.75 551 226.5 531.5 235.5 511.5C270.5 526.75 323.5 535.75 369.5 535.75C412.5 535.75 458.75 530.75 497.25 522.25C501.75 543 507.25 563.5 507.25 570C507.25 614 503 635.5 503 676.25C503 720.25 526 744.25 568.75 744.25L606 744.25C643 744.25 669.25 721.5 669.25 687.75C669.25 656.25 650.75 640.5 627.5 635.25L627.5 609.25C627.5 451 750.75 497.25 756.5 273.5C814 267.5 856.75 227 856.75 194C856.75 155.5 816.75 109 774.75 84C765 41.5 737.5 12.75 716.75 12.75C696.25 12.75 673.5 39.25 657.5 76.75C633.5 98.25 607.75 132.5 590.25 162.5L571.5 194.5C564 207.25 557.75 213.25 546.5 213.25C429.5 213.25 380 195.5 261.5 195.5C197.75 195.5 159.5 219.5 137.25 250.5C127.25 264.25 115.75 262.75 102.25 256.25C64.25 239.75 40.25 203.5 40.25 158.5C40.25 91.5 94 44.5 169.5 44.5C198 44.5 227 50.5 260.5 64C289.5 75.75 303 37.25 276.75 26.25C238.5 11 202.25 4.25 169.5 4.25C69 4.25 0 67.25 0 158.5C0 221.75 33.25 272 85 294.25C100.75 301.5 106 309 105.25 325.75C103.5 353 103.5 370 103.5 380.75C103.5 472.75 57.75 502.25 70.75 549.75L111.25 698.75C120 730.75 137.25 744.25 162 744.25ZM172.5 704C161 704 152.75 697 147.75 678.75L109.75 539.25C103 514.75 143.75 486.75 143.75 380.75C143.75 337 145.75 235.75 261.5 235.75C369.5 235.75 450.75 253.5 554.5 253.5C574 253.5 592.25 240.75 606.25 216L626.5 181C645.25 148 665.75 118.5 683.25 105.5C701 67.75 709 54.5 716.5 54.5C720.75 54.5 733 71.5 740.5 105C780.75 129.5 816.5 169 816.5 192.75C816.5 209 784 236 738.25 236L734.75 236C722.75 236 716.5 242.5 716.5 255L716.5 259C716.5 469.75 587.25 405.5 587.25 609.25L587.25 652.25C587.25 659.25 591.5 663.5 598.5 663.5L604.75 663.5C621 663.5 629 671.25 629 683.75C629 697 620.5 704 603.75 704L572.75 704C553.5 704 543.25 693.5 543.25 673.5C543.25 642.25 547.5 620.5 547.5 570C547.5 552.5 532 504.75 532 479.5C532 468.25 538.25 453 545.25 436C555.25 412.25 517.75 396.75 507.5 422C498.5 444.25 491.5 464.5 491.5 482.25C460.75 490 413.5 495.5 369.5 495.5C327.75 495.5 283 487.75 255.25 476.5C266.5 458.75 277.25 440.25 281.5 428.5C289.75 404.5 255 388.25 242.25 415C229.75 442.5 217.25 462.5 205.25 483.25C188.75 511.5 181.5 530 181.5 565.25L181.5 652.25C181.5 659.5 185.5 663.5 192.75 663.5L198.5 663.5C215 663.5 223.25 671.75 223.25 683.75C223.25 697.25 214.75 704 198 704ZM742.75 181.5C753.5 181.5 762.75 172.75 762.75 161.5C762.75 150.75 753.5 141.5 742.75 141.5C731.75 141.5 722.5 150.75 722.5 161.5C722.5 172.75 731.75 181.5 742.75 181.5Z" fill="black" fill-opacity="0.85"/>
 </g>
</svg>
