<?xml version="1.0" encoding="UTF-8"?>
<!--Generator: Apple Native CoreSVG 326-->
<!DOCTYPE svg
PUBLIC "-//W3C//DTD SVG 1.1//EN"
       "http://www.w3.org/Graphics/SVG/1.1/DTD/svg11.dtd">
<svg version="1.1" xmlns="http://www.w3.org/2000/svg" xmlns:xlink="http://www.w3.org/1999/xlink" viewBox="0 0 651.25 651.75">
 <g>
  <rect height="651.75" opacity="0" width="651.25" x="0" y="0"/>
  <path d="M651.25 326C651.25 505.5 505 651.75 325.5 651.75C146.25 651.75 0 505.5 0 326C0 146.75 146.25 0.5 325.5 0.5C505 0.5 651.25 146.75 651.25 326ZM326.75 486L308.5 517.75C305.25 523 307.5 530 313 533.25C318.25 536.25 325.25 534.25 328.25 529L346.75 497C349.75 492 348 484.5 342.25 481.75C337 478.75 330.25 480.75 326.75 486ZM220.5 485.75L202.25 517.5C198.75 522.75 201 529.75 206.75 533C212 536 219.25 534.25 222.25 528.75L240.25 496.75C243.5 491.75 242 484.5 236 481.5C230.5 478.75 224 480.5 220.5 485.75ZM180.75 449.75L160.75 484.25C157.5 489.75 159.5 496.75 164.75 499.5C170.25 502.75 177.25 501 180.25 495.75L200.25 461C203.75 455.25 201.75 448.5 196 445.25C190.75 442.25 184 444.25 180.75 449.75ZM286.75 449.25L267 484.25C264 489.5 265.5 496.75 271 499.75C276.75 502.5 283.5 500.75 286.5 495.5L306.75 461C310 455.5 308 448.75 302.25 445.5C297 442.5 290 444.25 286.75 449.25ZM146.5 302.5C121.25 311 102.5 333 102.5 362C102.5 396 128.75 422 168.25 422L336.75 422C381.5 422 416 387.75 416 344C416 301.25 381.25 268.5 335 267.25C316.75 233.5 285.25 212 245.75 212C195 212 152.25 252 146.5 302.5ZM463.5 335.75C458.75 341 458.25 350 463.5 355.25L489.75 381.25C495 386.25 503.5 385.75 508.75 381C513.5 375.25 514 366.5 508.75 361.5L483 335.75C478 330.75 469 331 463.5 335.75ZM329 224C336.25 230.75 342 238.25 347.75 247.25C395.25 252.75 431.75 287 436.75 332.5C459 317.5 472.5 293.5 472.5 266.5C472.5 222.75 437.75 188.25 394.25 188.25C366.75 188.25 342.25 202.75 329 224ZM505.75 252.75C498.75 252.75 492.5 258.5 492.5 266.5C492.5 273.75 498.75 280 505.75 280L542 280C549.75 280 555.75 273.75 555.75 266.5C555.75 258.5 549.75 252.75 542 252.75ZM280.25 152.25C275.25 157 275.25 165.75 280.25 171.25L306 197.25C311.25 202.75 320.25 202.25 325.5 197.25C330 192 330.5 183.25 325.5 178.25L299.5 152.5C293.75 147.25 285.5 147.25 280.25 152.25ZM489.75 152.5L463.5 178.25C458.25 183 458.75 192 463.5 197C468.75 202.25 478 202.75 483 197.25L508.75 171.25C513.75 166 513.5 157 508.75 152.5C503.5 147.25 495.25 147 489.75 152.5ZM380.5 118.25L380.5 155C380.5 162 387 168.25 394.25 168.25C402.25 168.25 408.25 162 408.25 155L408.25 118.25C408.25 111 402.25 104.75 394.25 104.75C387 104.75 380.5 111 380.5 118.25Z" fill="black" fill-opacity="0.85"/>
 </g>
</svg>
