<?xml version="1.0" encoding="UTF-8"?>
<!--Generator: Apple Native CoreSVG 326-->
<!DOCTYPE svg
PUBLIC "-//W3C//DTD SVG 1.1//EN"
       "http://www.w3.org/Graphics/SVG/1.1/DTD/svg11.dtd">
<svg version="1.1" xmlns="http://www.w3.org/2000/svg" xmlns:xlink="http://www.w3.org/1999/xlink" viewBox="0 0 888 832.771">
 <g>
  <rect height="832.771" opacity="0" width="888" x="0" y="0"/>
  <path d="M413 622.011L382.125 680.261L443.25 680.261C452.25 680.261 454.75 688.761 448.5 695.511L324.5 828.761C321.25 832.511 317.75 833.511 314.75 832.261C311.75 831.011 310.75 827.511 312.5 823.011L353.367 724.511L302.25 724.511C294.25 724.511 290.25 719.761 293.75 712.011L334.25 619.511C337.25 613.011 340.25 609.511 349.25 609.511L406.75 609.511C413.75 609.511 416.75 615.011 413 622.011Z" fill="black" fill-opacity="0.85"/>
  <path d="M682.25 38.0106C682.25 53.5106 661 84.2606 661 126.011C661 203.261 708.25 248.261 790.5 248.261C833.75 248.261 859.25 229.511 873.5 229.511C882.75 229.511 888 237.511 888 248.511C888 294.058 835.828 383.224 727.603 396.21C723.689 298.758 647.621 224.991 546.5 215.511C537.833 201.445 528.162 188.528 517.593 176.841C531.804 91.6627 601.301 27.2445 663.25 23.0106C676 22.5106 682.25 28.5106 682.25 38.0106Z" fill="black" fill-opacity="0.85"/>
  <path d="M181 559.761L531.5 559.761C621.25 559.761 691.25 491.761 691.25 404.511C691.25 317.261 620 251.511 524.5 251.011C486.5 177.761 420.25 135.761 342.25 135.761C238.75 135.761 151 217.261 141.75 323.261C86 339.261 50.5 385.011 50.5 441.011C50.5 511.261 103.75 559.761 181 559.761Z" fill="black" fill-opacity="0.85"/>
 </g>
</svg>
