<?xml version="1.0" encoding="UTF-8"?>
<!--Generator: Apple Native CoreSVG 326-->
<!DOCTYPE svg
PUBLIC "-//W3C//DTD SVG 1.1//EN"
       "http://www.w3.org/Graphics/SVG/1.1/DTD/svg11.dtd">
<svg version="1.1" xmlns="http://www.w3.org/2000/svg" xmlns:xlink="http://www.w3.org/1999/xlink" viewBox="0 0 651.25 651.75">
 <g>
  <rect height="651.75" opacity="0" width="651.25" x="0" y="0"/>
  <path d="M325.5 651.25C505.25 651.25 651.25 505.5 651.25 325.75C651.25 146 505.25 0 325.5 0C145.75 0 0 146 0 325.75C0 505.5 145.75 651.25 325.5 651.25ZM325.5 604.75C171.25 604.75 46.5 480 46.5 325.75C46.5 171.5 171.25 46.75 325.5 46.75C479.75 46.75 604.5 171.5 604.5 325.75C604.5 480 479.75 604.75 325.5 604.75Z" fill="black" fill-opacity="0.85"/>
  <path d="M220.25 366L414.75 366C464.75 366 503.25 327.5 503.25 280.25C503.25 231.25 462.75 195.25 410.5 195.25C390.75 156.5 355.5 131 309.75 131C251.5 131 203.75 177.25 198.5 235.5C170 243.5 148 267.5 148 300.5C148 336.25 174.25 366 220.25 366ZM237 454.25L258.5 417.25C262 411.25 260.25 402.75 253.5 399C247.25 395.5 239 398 235.5 404L214 440.75C210.5 447 212.5 455.5 219.25 459.25C225.5 462.75 233.5 460.25 237 454.25ZM326 454.25L347.5 417.25C351 411.25 349 402.75 342.5 399C336.25 395.5 328 398 324.5 404L303 440.75C299.5 447 301.5 455.5 308 459.25C314.25 462.75 322.5 460.25 326 454.25ZM414.75 454.25L436 417.25C439.5 411.25 437.75 402.75 431 399C424.75 395.5 416.5 398 413 404L391.75 440.75C388.25 447 390 455.5 396.75 459.25C403 462.75 411.25 460.25 414.75 454.25ZM201 516C212 516 221.5 506.75 221.5 495.5C221.5 484.25 212 474.75 201 474.75C189.75 474.75 180.25 484.25 180.25 495.5C180.25 506.75 189.75 516 201 516ZM289.75 516C301 516 310.25 506.75 310.25 495.5C310.25 484.25 301 474.75 289.75 474.75C278.5 474.75 269.25 484.25 269.25 495.5C269.25 506.75 278.5 516 289.75 516ZM378.5 516C389.75 516 399 506.75 399 495.5C399 484.25 389.75 474.75 378.5 474.75C367.25 474.75 357.75 484.25 357.75 495.5C357.75 506.75 367.25 516 378.5 516Z" fill="black" fill-opacity="0.85"/>
 </g>
</svg>
