<?xml version="1.0" encoding="UTF-8"?>
<!--Generator: Apple Native CoreSVG 326-->
<!DOCTYPE svg
PUBLIC "-//W3C//DTD SVG 1.1//EN"
       "http://www.w3.org/Graphics/SVG/1.1/DTD/svg11.dtd">
<svg version="1.1" xmlns="http://www.w3.org/2000/svg" xmlns:xlink="http://www.w3.org/1999/xlink" viewBox="0 0 651.25 651.75">
 <g>
  <rect height="651.75" opacity="0" width="651.25" x="0" y="0"/>
  <path d="M325.5 651.25C505.25 651.25 651.25 505.5 651.25 325.75C651.25 146 505.25 0 325.5 0C145.75 0 0 146 0 325.75C0 505.5 145.75 651.25 325.5 651.25ZM325.5 604.75C171.25 604.75 46.5 480 46.5 325.75C46.5 171.5 171.25 46.75 325.5 46.75C479.75 46.75 604.5 171.5 604.5 325.75C604.5 480 479.75 604.75 325.5 604.75Z" fill="black" fill-opacity="0.85"/>
  <path d="M220.25 368.5L414.75 368.5C464.75 368.5 503.25 330.25 503.25 282.75C503.25 233.75 462.75 198 410.5 198C390.75 159 355.5 133.5 309.75 133.5C251.5 133.5 203.75 179.75 198.5 238C170 246 148 270 148 303C148 338.75 174.25 368.5 220.25 368.5ZM228.5 462.25L253 420.25C256.75 413.75 254.75 405.5 248 401.75C241.75 398.25 233.75 400.5 230 406.75L205.5 449C201.75 455.25 204 463.5 210.75 467.25C217 471 225 468.75 228.5 462.25ZM283 510.5L307.5 468.5C311.25 462 309 453.75 302.5 450C296.25 446.5 288.25 448.75 284.5 455.25L260 497.25C256.25 503.75 258.5 512 265 515.5C271.25 519.25 279.25 517 283 510.5ZM366.25 462L390.75 420C394.5 413.5 392.25 405.25 385.75 401.5C379.5 398 371.5 400.25 367.75 406.5L343.25 448.75C339.5 455 341.5 463.25 348.25 467C354.5 470.75 362.5 468.5 366.25 462ZM420.75 510.5L445.25 468.5C448.75 462 446.75 453.75 440.25 450C434 446.5 425.75 448.75 422.25 455.25L397.75 497.25C394.25 503.75 396.25 512 402.75 515.5C409 519.25 417.25 517 420.75 510.5Z" fill="black" fill-opacity="0.85"/>
 </g>
</svg>
