<?xml version="1.0" encoding="UTF-8"?>
<!--Generator: Apple Native CoreSVG 326-->
<!DOCTYPE svg
PUBLIC "-//W3C//DTD SVG 1.1//EN"
       "http://www.w3.org/Graphics/SVG/1.1/DTD/svg11.dtd">
<svg version="1.1" xmlns="http://www.w3.org/2000/svg" xmlns:xlink="http://www.w3.org/1999/xlink" viewBox="0 0 997 903.75">
 <g>
  <rect height="903.75" opacity="0" width="997" x="0" y="0"/>
  <path d="M586.5 791.25C595 796.25 597.75 806 592.25 815L548.25 891.5C543.25 900 533.25 903 524.75 898.25C516 893.25 513.75 883.5 518.75 875L563 798C568.5 789.25 578 786.5 586.5 791.25Z" fill="black" fill-opacity="0.85"/>
  <path d="M485.25 700.5C493.75 705.5 496.5 715.5 491 724.25L447 800.75C442 809.5 432 812.25 423.5 807.5C414.75 802.5 412.5 792.75 417.25 784.25L461.75 707.25C467.25 698.5 476.75 695.75 485.25 700.5Z" fill="black" fill-opacity="0.85"/>
  <path d="M329.75 791.5C338.25 796.5 341 806.25 335.75 815.25L291.5 891.75C286.5 900.25 276.5 903.25 268 898.5C259.5 893.5 257 883.75 262 875.25L306.5 798.25C311.75 789.5 321.25 786.75 329.75 791.5Z" fill="black" fill-opacity="0.85"/>
  <path d="M228.5 700.75C237 705.75 239.75 715.75 234.5 724.5L190.25 801C185.25 809.75 175.25 812.5 166.75 807.75C158 802.75 155.75 793 160.75 784.75L205.25 707.5C210.5 698.75 220 696 228.5 700.75Z" fill="black" fill-opacity="0.85"/>
  <path d="M846.75 481.25L900.5 535C909.5 544 909.25 558.25 900.5 567C891.5 575.75 877.25 576.25 868.5 567.25L814.5 513.5C805.75 504.75 805.75 490.25 814.5 481.25C823.5 473 838 472.75 846.75 481.25ZM823 332.25C823 403.004 775.77 463.281 711.407 483.07C711.014 468.876 708.557 455.338 704.444 442.582C750.029 426.817 782.25 383.736 782.25 332.25C782.25 267 730.5 215.25 665.5 215.25C600.5 215.25 548.75 267 548.75 332.25C548.75 332.68 548.752 333.11 548.813 333.523C547.172 333.307 545.465 333.268 543.75 333.25C535.248 317.259 525.313 302.613 514.028 289.602C532.585 223.165 593.703 174.25 665.5 174.25C752 174.25 823 245.25 823 332.25ZM997 332.25C997 344.75 986.75 355 974.25 355L899 355C886.75 355 876.25 344.75 876.25 332.25C876.25 320 886.75 309.5 899 309.5L974.25 309.5C986.75 309.5 997 320 997 332.25ZM900.5 97.5C909.25 106.25 909.5 121 900.5 130L847 183.25C838 192.5 823.5 192 814.5 183.25C805.75 174.5 805.75 160 814.5 151.25L868.5 97.5C877.25 88.5 891.5 88.75 900.5 97.5ZM462.75 97.5L516.5 151.25C525 159.75 525 174.75 516.25 183.25C507.25 192 492.75 192.25 484 183.25L430.5 129.75C421.75 121 422.25 106.25 430.75 97.5C439.75 88.75 454 88.75 462.75 97.5ZM688.5 22.75L688.5 98.5C688.5 110.5 678 120.75 665.75 120.75C653.5 120.75 642.75 110.5 642.75 98.5L642.75 22.75C642.75 10.5 653.5 0 665.75 0C678 0 688.5 10.5 688.5 22.75Z" fill="black" fill-opacity="0.85"/>
  <path d="M198 648.5L548.25 648.5C640.25 648.5 711.75 579 711.75 489.75C711.75 401.25 639.25 334.25 543.75 333.25C506 262.25 440 217.75 359.25 217.75C253.75 217.75 165.75 300.5 155.5 406.25C101.75 422.25 64 467.75 64 526.5C64 596.75 117 648.5 198 648.5ZM197 604C139.25 604 108.5 570.25 108.5 527.5C108.5 490.5 131 459 179 446C193.25 442.25 198.25 436 199.5 421.75C206.75 330.25 276.5 262 359.25 262C425.75 262 476 299.75 506.25 360C512.5 372.25 519.75 376.5 534.5 376.5C617.25 376.5 667.5 428.5 667.5 491.25C667.5 553.75 615.75 604 549 604Z" fill="black" fill-opacity="0.85"/>
 </g>
</svg>
