<?xml version="1.0" encoding="UTF-8"?>
<!--Generator: Apple Native CoreSVG 326-->
<!DOCTYPE svg
PUBLIC "-//W3C//DTD SVG 1.1//EN"
       "http://www.w3.org/Graphics/SVG/1.1/DTD/svg11.dtd">
<svg version="1.1" xmlns="http://www.w3.org/2000/svg" xmlns:xlink="http://www.w3.org/1999/xlink" viewBox="0 0 961 931.271">
 <g>
  <rect height="931.271" opacity="0" width="961" x="0" y="0"/>
  <path d="M392 720.511L361.234 778.761L422.25 778.761C431.25 778.761 433.75 787.261 427.75 794.261L303.5 927.261C300.5 931.011 296.75 932.011 293.75 930.761C290.75 929.761 289.75 926.261 291.5 921.761L332.577 823.261L281.25 823.261C273.25 823.261 269.5 818.511 272.75 810.511L313.5 718.011C316.25 711.511 319.25 708.261 328.25 708.261L385.75 708.261C393 708.261 395.75 713.511 392 720.511Z" fill="black" fill-opacity="0.85"/>
  <path d="M811.25 494.761L864.25 548.011C873.25 557.011 873 571.261 864.25 580.011C855.5 588.761 841.5 589.011 832.5 580.011L779 526.511C770.25 517.761 770.5 503.511 779 494.761C787.5 486.011 802.25 485.761 811.25 494.761ZM787.25 345.761C787.25 417.349 740.393 477.391 675.407 496.801C675.016 482.674 672.584 469.205 668.505 456.515C714.491 440.91 746.75 397.799 746.75 345.761C746.75 279.761 695.25 228.511 629.75 228.511C564.25 228.511 513 279.761 513 345.761C513 346.284 513.003 346.807 513.075 347.309C511.35 347.081 509.554 347.034 507.75 347.011C499.281 331.032 489.358 316.393 478.069 303.386C496.231 236.416 556.93 187.761 629.75 187.761C717.25 187.761 787.25 258.011 787.25 345.761ZM961 345.761C961 358.261 951 368.261 938.5 368.261L863.25 368.261C851 368.261 840.5 358.261 840.5 345.761C840.5 333.261 851 323.011 863.25 323.011L938.5 323.011C951 323.011 961 333.261 961 345.761ZM864.25 111.261C873 120.011 873.25 134.511 864.25 143.261L811.25 196.761C802.25 205.511 787.5 205.261 779 196.761C770.5 188.011 770.25 173.761 779 165.011L832.5 111.261C841.5 102.511 855.5 102.511 864.25 111.261ZM427 111.261L480.5 165.011C489.25 173.761 489 188.011 480.5 196.761C472 205.261 457.25 205.511 448.25 196.761L395.25 143.261C386.5 134.511 386.5 120.011 395.25 111.261C404 102.511 418 102.511 427 111.261ZM652.25 36.5106L652.25 111.761C652.25 124.011 642 134.511 629.5 134.511C617.25 134.511 606.75 124.011 606.75 111.761L606.75 36.5106C606.75 24.0106 617.25 14.0106 629.5 14.0106C642 14.0106 652.25 24.0106 652.25 36.5106Z" fill="black" fill-opacity="0.85"/>
  <path d="M162.25 662.011L512.5 662.011C604.25 662.011 675.75 592.761 675.75 503.511C675.75 415.011 603.5 348.261 507.75 347.011C470.25 276.261 404.25 231.761 323.5 231.761C218 231.761 130.25 314.261 120 420.011C66.25 436.261 28.5 481.511 28.5 540.261C28.5 610.261 81.25 662.011 162.25 662.011ZM161.25 618.261C103.5 618.261 72.25 584.261 72.25 541.261C72.25 504.011 95.25 472.761 143.25 459.511C157.25 455.761 162.25 449.511 163.5 435.511C170.75 343.761 240.75 275.511 323.5 275.511C390.25 275.511 440.25 313.261 470.5 373.511C476.75 386.011 484 390.261 498.75 390.261C581.5 390.261 631.75 442.011 631.75 505.011C631.75 567.761 580.25 618.261 513.25 618.261Z" fill="black" fill-opacity="0.85"/>
 </g>
</svg>
