<?xml version="1.0" encoding="UTF-8"?>
<!--Generator: Apple Native CoreSVG 326-->
<!DOCTYPE svg
PUBLIC "-//W3C//DTD SVG 1.1//EN"
       "http://www.w3.org/Graphics/SVG/1.1/DTD/svg11.dtd">
<svg version="1.1" xmlns="http://www.w3.org/2000/svg" xmlns:xlink="http://www.w3.org/1999/xlink" viewBox="0 0 651.25 651.75">
 <g>
  <rect height="651.75" opacity="0" width="651.25" x="0" y="0"/>
  <path d="M651.25 326C651.25 505.5 505 651.75 325.5 651.75C146.25 651.75 0 505.5 0 326C0 146.75 146.25 0.5 325.5 0.5C505 0.5 651.25 146.75 651.25 326ZM339.25 470.25L320.5 501.75C317.5 507.5 319.5 514.25 325.5 517.25C330.5 520.5 337.25 518.5 340.25 513L359 481.5C362 476 360.25 468.75 354.25 465.75C349 463.25 342.5 464.75 339.25 470.25ZM232.75 470L214.25 501.5C211 507.25 213.25 514.25 219 517.25C224 520.25 231.25 518.25 234.25 512.75L252.5 481.25C255.5 475.75 254 468.75 248 465.75C242.75 463 236 464.5 232.75 470ZM193.25 433.75L172.75 468.75C169.75 473.75 171.5 481 177.25 483.75C182.25 487 189.25 485 192.25 480L212.5 445C215.75 439.5 214 433 208 429.5C203 426.25 196.25 428.25 193.25 433.75ZM299.25 433.75L279.25 468.5C276.25 473.75 277.5 481 283.5 483.75C289 487 295.75 485 298.75 479.75L319 445.25C322.25 439.5 320 433 314.5 429.5C309.25 426.5 302.25 428.25 299.25 433.75ZM158.75 286.75C133.25 295.25 115 317 115 346C115 380.25 141 406.25 180.75 406.25L348.75 406.25C393.5 406.25 428.25 372 428.25 328.25C428.25 285.25 393.5 252.5 347.25 251.5C329 217.5 297.25 196 258 196C207.25 196 164.5 236 158.75 286.75ZM425.5 132.25C391.5 134.75 355.5 174 351 219.25C354.25 222.75 357 226.75 359.75 230.75C409 236.75 445.5 272.5 449.5 319.25C506.75 313 537.75 270.25 537.75 244.25C537.75 239 535.25 235.25 531 235.25C524 235.25 510.75 244.25 490.25 244.25C450 244.25 424.5 220.25 424.5 183.25C424.5 162.5 435.25 147.25 435.25 139.5C435.25 134.75 431.5 132 425.5 132.25Z" fill="black" fill-opacity="0.85"/>
 </g>
</svg>
