<?xml version="1.0" encoding="UTF-8"?>
<!--Generator: Apple Native CoreSVG 326-->
<!DOCTYPE svg
PUBLIC "-//W3C//DTD SVG 1.1//EN"
       "http://www.w3.org/Graphics/SVG/1.1/DTD/svg11.dtd">
<svg version="1.1" xmlns="http://www.w3.org/2000/svg" xmlns:xlink="http://www.w3.org/1999/xlink" viewBox="0 0 651.25 651.75">
 <g>
  <rect height="651.75" opacity="0" width="651.25" x="0" y="0"/>
  <path d="M651.25 326C651.25 505.5 505 651.75 325.5 651.75C146.25 651.75 0 505.5 0 326C0 146.75 146.25 0.5 325.5 0.5C505 0.5 651.25 146.75 651.25 326ZM247.75 436C242.75 436 240.5 437.5 238.75 441.25L216.75 492.25C214.75 496.5 216.75 500 221.5 500L248 500L226 553.5C224.25 558.5 230 561.25 233.5 557.25L300.75 484.25C304.25 479.75 302.5 475 297.25 475L265.5 475L282.5 443.25C284.5 439.25 282.75 436 278.75 436ZM146.5 298.25C121.25 306.75 102.5 328.5 102.5 357.25C102.5 391.75 128.75 417.75 168.25 417.75L336.75 417.75C381.5 417.75 416 383.5 416 339.75C416 296.75 381.25 264 335 263C316.75 229 285.25 207.5 245.75 207.5C195 207.5 152.25 247.25 146.5 298.25ZM463.5 331.5C458.75 336.75 458.25 345.5 463.5 350.75L489.75 376.5C495 382 503.5 381.25 508.75 376.25C513.5 371 514 362 508.75 357L483 331.5C478 326.5 469 326.5 463.5 331.5ZM329 219.75C336.25 226.5 342 234 347.75 242.5C395.25 248.5 431.75 282.5 436.75 328C459 313 472.5 289.25 472.5 262C472.5 218.25 437.75 184 394.25 184C366.75 184 342.25 198.25 329 219.75ZM505.75 248.5C498.75 248.5 492.5 254.25 492.5 262C492.5 269.5 498.75 275.25 505.75 275.25L542 275.25C549.75 275.25 555.75 269.5 555.75 262C555.75 254.25 549.75 248.5 542 248.5ZM280.25 147.75C275.25 152.5 275.25 161.5 280.25 167L306 193C311.25 198.25 320.25 197.75 325.5 192.75C330 187.75 330.5 178.75 325.5 173.75L299.5 147.75C293.75 142.75 285.5 143 280.25 147.75ZM489.75 147.75L463.5 173.75C458.25 178.75 458.75 187.5 463.5 192.75C468.75 197.75 478 198.25 483 193L508.75 167C513.75 161.5 513.5 152.75 508.75 147.75C503.5 143 495.25 142.5 489.75 147.75ZM380.5 114L380.5 150.5C380.5 157.75 387 164 394.25 164C402.25 164 408.25 157.75 408.25 150.5L408.25 114C408.25 106.5 402.25 100.5 394.25 100.5C387 100.5 380.5 106.5 380.5 114Z" fill="black" fill-opacity="0.85"/>
 </g>
</svg>
