<?xml version="1.0" encoding="UTF-8"?>
<!--Generator: Apple Native CoreSVG 326-->
<!DOCTYPE svg
PUBLIC "-//W3C//DTD SVG 1.1//EN"
       "http://www.w3.org/Graphics/SVG/1.1/DTD/svg11.dtd">
<svg version="1.1" xmlns="http://www.w3.org/2000/svg" xmlns:xlink="http://www.w3.org/1999/xlink" viewBox="0 0 651.25 651.75">
 <g>
  <rect height="651.75" opacity="0" width="651.25" x="0" y="0"/>
  <path d="M325.5 651.25C505.25 651.25 651.25 505.5 651.25 325.75C651.25 146 505.25 0 325.5 0C145.75 0 0 146 0 325.75C0 505.5 145.75 651.25 325.5 651.25ZM325.5 604.75C171.25 604.75 46.5 480 46.5 325.75C46.5 171.5 171.25 46.75 325.5 46.75C479.75 46.75 604.5 171.5 604.5 325.75C604.5 480 479.75 604.75 325.5 604.75Z" fill="black" fill-opacity="0.85"/>
  <path d="M172 419.25L336.5 419.25C380.25 419.25 414 385.75 414 343C414 301.25 380 269.25 335 268.25C317 235 286.25 214 247.75 214C198.25 214 156.5 253 151 302.5C126 310.75 108 332.25 108 360.5C108 394 133.25 419.25 172 419.25ZM306.75 199.75C311.75 205 320.5 204.5 325.5 199.5C330 194.75 330.5 186 325.5 181.25L300 155.75C294.5 150.75 286.5 151 281.5 155.75C276.5 160.25 276.5 169 281.5 174ZM392.75 171.5C400.5 171.5 406 165.5 406 158.5L406 122.5C406 115.25 400.5 109.5 392.75 109.5C385.75 109.5 379.5 115.25 379.5 122.5L379.5 158.5C379.5 165.5 385.75 171.5 392.75 171.5ZM460.5 199.5C465.5 204.5 474.5 205 479.5 199.75L504.75 174C509.5 169 509.25 160.5 504.75 155.75C499.5 151 491.5 150.5 486 155.75L460.5 181.25C455.25 186 455.75 194.5 460.5 199.5ZM501.75 280.25L537 280.25C544.75 280.25 550.5 274.5 550.5 267.25C550.5 259.75 544.75 254.25 537 254.25L501.75 254.25C494.75 254.25 488.75 259.75 488.75 267.25C488.75 274.5 494.75 280.25 501.75 280.25ZM486 379.25C491.25 384.25 499.5 383.75 504.75 379C509.25 373.75 509.75 365 504.75 360.25L479.5 335.25C474.25 330 465.75 330.25 460.5 335.25C455.75 340 455.25 348.75 460.5 354ZM469.25 267.25C469.25 224.5 435.25 191 392.75 191C365.75 191 342 205 329 226C336 232.75 341.75 240 347.25 248.5C393.75 254.25 429.25 287.5 434.25 331.75C456 317 469.25 293.75 469.25 267.25ZM183.5 491.25L203.25 457.25C206.5 451.75 204.5 445.25 199 442.25C194 439 187.25 441 184.25 446.25L164.5 480.25C161.5 485.5 163.25 492.5 168.5 495.25C173.75 498.25 180.5 496.5 183.5 491.25ZM224.5 523.5L242.25 492.5C245.25 487.25 243.75 480.5 238 477.25C232.75 474.75 226.25 476.25 223 481.75L205 512.5C201.75 518 204 524.5 209.5 527.5C214.5 530.75 221.5 528.75 224.5 523.5ZM287.25 491.25L307 457.25C310.25 452 308.25 445.5 302.75 442.25C297.5 439.25 290.75 441 287.75 446L268.25 480.25C265.25 485.25 266.75 492.25 272.25 495.25C277.75 498 284.25 496.25 287.25 491.25ZM328 523.75L346 492.5C349 487.5 347.25 480.25 341.75 477.5C336.5 474.75 330 476.5 326.75 481.75L308.75 512.75C305.5 518 307.75 524.75 313.25 527.75C318.25 530.75 325 528.75 328 523.75Z" fill="black" fill-opacity="0.85"/>
 </g>
</svg>
