<?xml version="1.0" encoding="UTF-8"?>
<!--Generator: Apple Native CoreSVG 326-->
<!DOCTYPE svg
PUBLIC "-//W3C//DTD SVG 1.1//EN"
       "http://www.w3.org/Graphics/SVG/1.1/DTD/svg11.dtd">
<svg version="1.1" xmlns="http://www.w3.org/2000/svg" xmlns:xlink="http://www.w3.org/1999/xlink" viewBox="0 0 766 729.75">
 <g>
  <rect height="729.75" opacity="0" width="766" x="0" y="0"/>
  <path d="M615 671.75L190.5 671.75C180.5 671.75 172.75 679.25 172.75 689.25C172.75 699.5 180.5 707 190.5 707L615 707C625 707 633 699.5 633 689.25C633 679.25 625 671.75 615 671.75Z" fill="black" fill-opacity="0.85"/>
  <path d="M615 562L190.5 562C180.5 562 172.75 569.75 172.75 579.75C172.75 590 180.5 597.5 190.5 597.5L615 597.5C625 597.5 633 590 633 579.75C633 569.75 625 562 615 562Z" fill="black" fill-opacity="0.85"/>
  <path d="M181.75 484.75L583.5 484.75C687.75 484.75 766 405.75 766 307.75C766 206.5 683 132.5 575 132.5C534.5 52 461 0 366.5 0C246.5 0 147.75 95.25 137.25 215C78.25 231.75 33 281.5 33 349.5C33 424 87.5 484.75 181.75 484.75Z" fill="black" fill-opacity="0.85"/>
 </g>
</svg>
