<?xml version="1.0" encoding="UTF-8"?>
<!--Generator: Apple Native CoreSVG 326-->
<!DOCTYPE svg
PUBLIC "-//W3C//DTD SVG 1.1//EN"
       "http://www.w3.org/Graphics/SVG/1.1/DTD/svg11.dtd">
<svg version="1.1" xmlns="http://www.w3.org/2000/svg" xmlns:xlink="http://www.w3.org/1999/xlink" viewBox="0 0 651.25 651.75">
 <g>
  <rect height="651.75" opacity="0" width="651.25" x="0" y="0"/>
  <path d="M325.5 651.25C505.25 651.25 651.25 505.5 651.25 325.75C651.25 146 505.25 0 325.5 0C145.75 0 0 146 0 325.75C0 505.5 145.75 651.25 325.5 651.25ZM325.5 604.75C171.25 604.75 46.5 480 46.5 325.75C46.5 171.5 171.25 46.75 325.5 46.75C479.75 46.75 604.5 171.5 604.5 325.75C604.5 480 479.75 604.75 325.5 604.75Z" fill="black" fill-opacity="0.85"/>
  <path d="M166.5 463L340.25 463C386.25 463 422 427.75 422 382.5C422 338.25 386.25 304.75 338.5 303.5C319.75 268.5 287.25 246.5 246.5 246.5C194 246.5 150 287.5 144.25 339.75C118 348.5 98.75 371.25 98.75 400.75C98.75 436 125.75 463 166.5 463ZM308.75 231.25C314 236.75 323.25 236.25 328.5 231C333.5 226 333.75 216.75 328.5 211.75L301.75 184.75C296 179.5 287.25 179.75 282 184.75C277 189.75 277 198.75 282 204.25ZM399.75 201.25C407.75 201.25 413.75 195 413.75 187.75L413.75 149.75C413.75 142 407.75 135.75 399.75 135.75C392.25 135.75 385.75 142 385.75 149.75L385.75 187.75C385.75 195 392.25 201.25 399.75 201.25ZM471.25 231C476.5 236.25 485.75 236.75 491 231.25L517.75 204.25C523 198.75 522.75 190 517.75 184.75C512.25 179.75 503.5 179.25 498 184.75L471.25 211.75C466 216.75 466.25 225.75 471.25 231ZM514.75 316L552 316C560 316 566 310 566 302.5C566 294.75 560 288.75 552 288.75L514.75 288.75C507 288.75 500.75 294.75 500.75 302.5C500.75 310 507 316 514.75 316ZM498 420.5C503.5 426.25 512.25 425.5 517.75 420.25C522.75 414.75 523.25 405.75 517.75 400.75L491 374.25C485.5 369 476.75 369 471.25 374.25C466.25 379.5 466 388.25 471.25 394ZM480.25 302.5C480.25 257.5 444.25 222 399.75 222C371.25 222 346 236.75 332.25 259C339.5 266 346 273.5 351.5 282.5C400.5 288.75 438.25 323.75 443.5 370.5C466.25 355 480.25 330.5 480.25 302.5Z" fill="black" fill-opacity="0.85"/>
 </g>
</svg>
