<?xml version="1.0" encoding="UTF-8"?>
<!--Generator: Apple Native CoreSVG 326-->
<!DOCTYPE svg
PUBLIC "-//W3C//DTD SVG 1.1//EN"
       "http://www.w3.org/Graphics/SVG/1.1/DTD/svg11.dtd">
<svg version="1.1" xmlns="http://www.w3.org/2000/svg" xmlns:xlink="http://www.w3.org/1999/xlink" viewBox="0 0 766 758.25">
 <g>
  <rect height="758.25" opacity="0" width="766" x="0" y="0"/>
  <path d="M559.5 617.75L583.5 575.75C588.75 567 586.25 557 577.75 552C569.25 547.25 559.5 550.25 554.25 558.75L530 601.25C525.5 609.5 527.5 619.5 536.25 624.5C544.5 629.25 554.75 626.25 559.5 617.75ZM506.75 710C524.75 710 540 694.75 540 676.25C540 658.25 525 643 506.75 643C488.25 643 473.25 658.25 473.25 676.25C473.25 694.75 488.25 710 506.75 710Z" fill="black" fill-opacity="0.85"/>
  <path d="M362.25 665.75L414.75 575C419.75 566 417.25 556.25 409 551.25C400.5 546.25 390.5 549 385.5 558L332.75 649.5C328 657.75 330.25 667.75 339 672.75C347.25 677.5 357.5 674.5 362.25 665.75ZM309.5 758.25C327.5 758.25 342.75 742.75 342.75 724.5C342.75 706.5 327.75 691.25 309.5 691.25C291 691.25 276 706.5 276 724.5C276 742.75 291 758.25 309.5 758.25Z" fill="black" fill-opacity="0.85"/>
  <path d="M221.5 616.5L245.5 574.5C250.75 565.75 248.25 555.75 239.75 550.75C231.25 546 221.25 549 216.25 557.5L192 600C187.25 608.5 189.5 618.25 198 623.25C206.5 628 216.75 625 221.5 616.5ZM168.75 708.75C186.75 708.75 202 693.5 202 675C202 657 187 641.75 168.75 641.75C150.25 641.75 135 657 135 675C135 693.5 150.25 708.75 168.75 708.75Z" fill="black" fill-opacity="0.85"/>
  <path d="M181.75 499L583.5 499C687.75 499 766 420 766 322C766 220.75 683 146.75 575 146.75C534.5 66.25 461 14.25 366.5 14.25C246.5 14.25 147.75 109.5 137.25 229.25C78.25 246 33 295.75 33 363.75C33 438.25 87.5 499 181.75 499Z" fill="black" fill-opacity="0.85"/>
 </g>
</svg>
