<?xml version="1.0" encoding="UTF-8"?>
<!--Generator: Apple Native CoreSVG 326-->
<!DOCTYPE svg
PUBLIC "-//W3C//DTD SVG 1.1//EN"
       "http://www.w3.org/Graphics/SVG/1.1/DTD/svg11.dtd">
<svg version="1.1" xmlns="http://www.w3.org/2000/svg" xmlns:xlink="http://www.w3.org/1999/xlink" viewBox="0 0 651.25 651.75">
 <g>
  <rect height="651.75" opacity="0" width="651.25" x="0" y="0"/>
  <path d="M651.25 326C651.25 505.5 505 651.75 325.5 651.75C146.25 651.75 0 505.5 0 326C0 146.75 146.25 0.5 325.5 0.5C505 0.5 651.25 146.75 651.25 326ZM293.5 397.5L241 488.25C237 494.75 239.25 503.25 246 507C252.5 511 260.75 508.5 264.5 501.75L317.25 411.25C321.5 404.25 318.75 396 312 392C305.75 388.5 297.75 390.5 293.5 397.5ZM440.75 397.5L387.75 488.25C384 494.75 386.25 503.25 393.25 507C399.75 511 407.75 508.5 411.5 501.75L464.5 411.25C468.5 404.25 466 396 459 392C452.5 388.5 444.5 390.5 440.75 397.5ZM367 397.5L314.25 488.25C310.5 494.75 312.75 503.25 319.5 507C325.75 511 334 508.5 338 501.75L390.5 411.25C394.75 404.25 392.5 396 385.5 392C379 388.5 371 390.5 367 397.5ZM220 397.5L167.25 488.25C163.5 494.75 165.5 503.25 172.5 507C179 511 187.25 508.5 191 501.75L243.75 411.25C247.75 404.25 245.25 396 238.5 392C232 388.5 224 390.5 220 397.5ZM197.25 224.75C168.25 233 145.75 257.75 145.75 291.25C145.75 328.25 172.75 358.25 219.75 358.25L418.75 358.25C470.25 358.25 509.5 319.25 509.5 270.5C509.5 220.25 468.25 183.75 414.5 183.75C394.5 143.75 358.25 117.75 311.25 117.75C251.75 117.75 202.75 165 197.25 224.75Z" fill="black" fill-opacity="0.85"/>
 </g>
</svg>
