<?xml version="1.0" encoding="UTF-8"?>
<!--Generator: Apple Native CoreSVG 326-->
<!DOCTYPE svg
PUBLIC "-//W3C//DTD SVG 1.1//EN"
       "http://www.w3.org/Graphics/SVG/1.1/DTD/svg11.dtd">
<svg version="1.1" xmlns="http://www.w3.org/2000/svg" xmlns:xlink="http://www.w3.org/1999/xlink" viewBox="0 0 852 719.75">
 <g>
  <rect height="719.75" opacity="0" width="852" x="0" y="0"/>
  <path d="M55.25 714.5L117.75 714.5C152.75 714.5 174 692 174 664C174 636.5 159 623.5 130 621C116.25 619.75 116.25 602.5 128.5 601.25C206.25 591.25 251.5 548.25 260.75 477C308 511.5 392.75 517.25 469.75 505.75C468.75 551.25 461.75 619.75 461.75 652.75C461.75 690 485.5 714.5 521.75 714.5L575.5 714.5C610.5 714.5 631.25 692 631.25 665.5C631.25 640 619.75 627.25 583.25 621C576.5 619.75 572.75 614.75 574.5 607.5C580.25 575.25 600.75 503.5 611.25 473.5C632.75 411.25 663 366.75 663 301.75C663 268.25 672.5 250.5 679.75 241.25C705.25 256.75 724.25 263.5 747.75 263.5C800.75 263.5 852 208.5 852 152.75C852 123 826.25 120.5 793.5 100.5C765.5 82.5 751 60.5 729.25 48C721 87.25 690.75 152 637 152C603.5 152 579.25 126.5 564 98.25C538.25 133.75 529.25 164.75 462.25 189.25L186 211.25C178.25 211.75 172 214 168.25 215.75L143.25 186C106.5 142 47.5 193.25 84.5 236.25L111.75 268C98.75 299.75 92 335.75 92 380.5C92 451 86.75 470.25 63.75 488.75C17.25 525.5 0 551.25 0 594.75L0 657.25C0 691.25 22.75 714.5 55.25 714.5ZM745.75 156.5C734.5 156.5 726 148 726 137C726 125.75 734.5 117.5 745.75 117.5C756.5 117.5 765 125.75 765 137C765 148 756.5 156.5 745.75 156.5ZM637 125.5C681.25 125.5 704.75 49 704.75 28.5C704.75 9.75 695 0 676.25 0L597.75 0C579.25 0 569.25 9.75 569.25 28.5C569.25 49 592.5 125.5 637 125.5Z" fill="black" fill-opacity="0.85"/>
 </g>
</svg>
