<?xml version="1.0" encoding="UTF-8"?>
<!--Generator: Apple Native CoreSVG 326-->
<!DOCTYPE svg
PUBLIC "-//W3C//DTD SVG 1.1//EN"
       "http://www.w3.org/Graphics/SVG/1.1/DTD/svg11.dtd">
<svg version="1.1" xmlns="http://www.w3.org/2000/svg" xmlns:xlink="http://www.w3.org/1999/xlink" viewBox="0 0 677.76 798.75">
 <g>
  <rect height="798.75" opacity="0" width="677.76" x="0" y="0"/>
  <path d="M157.566 355.547C157.409 355.855 157.27 356.177 157.13 356.5C136.38 403.25 116.13 456.25 116.13 507.75C116.13 609.25 185.88 677 290.88 677C347.705 677 394.229 657.062 424.77 622.488L457.458 655.144C418.989 697.6 361.159 722 290.88 722C158.88 722 71.1298 636.25 71.1298 507.75C71.1298 446.5 95.1298 382.5 116.88 334.5C118.849 330.103 120.877 325.681 123.153 321.168ZM330.88 101.75C378.13 174.25 430.63 258 464.88 334.5C486.38 382.5 510.63 446.5 510.63 507.75C510.63 521.189 509.667 534.161 507.577 546.495L465.208 504.147C464.426 453.788 444.403 402.157 424.38 356.25C389.13 274.5 341.38 203.25 296.13 134.25C293.38 129.5 288.63 129.5 285.63 134.25C260.79 171.919 235.355 210.258 211.664 250.727L178.393 217.472C201.775 177.619 226.836 138.258 250.63 101.75C261.13 85.75 272.88 76.75 290.88 76.75C308.38 76.75 320.63 85.75 330.88 101.75ZM606.88 94.5C606.88 147.25 565.38 188.75 512.63 188.75C459.63 188.75 418.38 147.25 418.38 94.5C418.38 41.5 459.63 0 512.63 0C565.38 0 606.88 41.5 606.88 94.5ZM457.63 94.5C457.63 125.5 481.63 149.5 512.63 149.5C543.38 149.5 567.63 125.5 567.63 94.5C567.63 63.5 543.38 39.25 512.63 39.25C481.63 39.25 457.63 63.5 457.63 94.5Z" fill="black" fill-opacity="0.85"/>
  <path d="M549.13 697.5C557.38 705.75 570.88 706 579.13 697.5C587.38 689 587.63 675.75 579.13 667.25L71.3798 159.75C63.3798 151.5 49.6298 151.25 41.1298 159.75C32.8798 168 32.6298 181.5 41.1298 190Z" fill="black" fill-opacity="0.85"/>
 </g>
</svg>
