<?xml version="1.0" encoding="UTF-8"?>
<!--Generator: Apple Native CoreSVG 326-->
<!DOCTYPE svg
PUBLIC "-//W3C//DTD SVG 1.1//EN"
       "http://www.w3.org/Graphics/SVG/1.1/DTD/svg11.dtd">
<svg version="1.1" xmlns="http://www.w3.org/2000/svg" xmlns:xlink="http://www.w3.org/1999/xlink" viewBox="0 0 535.75 798.75">
 <g>
  <rect height="798.75" opacity="0" width="535.75" x="0" y="0"/>
  <path d="M219.75 722C351.75 722 439.5 636.25 439.5 507.75C439.5 446.5 415.25 382.5 393.75 334.5C359.5 258 307 174.25 260 101.75C249.5 85.75 237.25 76.75 219.75 76.75C202 76.75 190 85.75 179.75 101.75C132.5 174.25 80 258 45.75 334.5C24.25 382.5 0 446.5 0 507.75C0 636.25 88 722 219.75 722ZM219.75 677C115 677 45 609.25 45 507.75C45 456.25 65.5 403.25 86 356.5C121.75 274.5 169 203.25 214.75 134.25C217.75 129.5 222.25 129.5 225.25 134.25C270.5 203.25 318 274.5 353.25 356.25C374 403.25 394.5 456.25 394.5 507.75C394.5 609.25 324.75 677 219.75 677ZM441.5 188.75C494.5 188.75 535.75 147.25 535.75 94.5C535.75 41.5 494.5 0 441.5 0C388.75 0 347.25 41.5 347.25 94.5C347.25 147.25 388.75 188.75 441.5 188.75ZM441.5 149.5C410.75 149.5 386.5 125.5 386.5 94.5C386.5 63.5 410.75 39.25 441.5 39.25C472.5 39.25 496.5 63.5 496.5 94.5C496.5 125.5 472.5 149.5 441.5 149.5Z" fill="black" fill-opacity="0.85"/>
 </g>
</svg>
