<?xml version="1.0" encoding="UTF-8"?>
<!--Generator: Apple Native CoreSVG 326-->
<!DOCTYPE svg
PUBLIC "-//W3C//DTD SVG 1.1//EN"
       "http://www.w3.org/Graphics/SVG/1.1/DTD/svg11.dtd">
<svg version="1.1" xmlns="http://www.w3.org/2000/svg" xmlns:xlink="http://www.w3.org/1999/xlink" viewBox="0 0 877.456 681.974">
 <g>
  <rect height="681.974" opacity="0" width="877.456" x="0" y="0"/>
  <path d="M0.853138 534.362C2.10314 547.112 9.35314 552.862 22.3531 552.612C98.6031 551.362 162.353 515.612 218.353 449.362C278.103 509.612 347.103 545.362 420.103 561.362L408.853 652.112C406.353 673.612 418.103 685.362 442.853 681.112C520.853 669.112 606.603 614.112 653.103 549.362C769.603 514.362 877.353 442.112 877.353 354.112C877.353 271.112 780.853 201.862 671.603 164.362C630.103 30.6119 452.103-30.6381 326.103 39.3619C313.603 45.8619 312.353 56.6119 322.353 69.8619C351.353 108.362 361.603 131.362 367.353 162.362C313.853 182.112 263.603 213.612 218.353 259.112C162.353 192.862 98.6031 157.112 22.3531 155.862C9.35314 155.612 2.10314 161.612 0.853138 174.112C-5.64686 240.862 25.6031 312.362 73.8531 354.112C25.6031 395.862-5.64686 467.612 0.853138 534.362ZM710.853 372.362C693.853 372.362 679.353 357.862 679.353 340.862C679.353 323.612 693.853 309.362 710.853 309.362C728.103 309.362 742.353 323.612 742.353 340.862C742.353 357.862 728.103 372.362 710.853 372.362Z" fill="black" fill-opacity="0.85"/>
 </g>
</svg>
