<?xml version="1.0" encoding="UTF-8"?>
<!--Generator: Apple Native CoreSVG 326-->
<!DOCTYPE svg
PUBLIC "-//W3C//DTD SVG 1.1//EN"
       "http://www.w3.org/Graphics/SVG/1.1/DTD/svg11.dtd">
<svg version="1.1" xmlns="http://www.w3.org/2000/svg" xmlns:xlink="http://www.w3.org/1999/xlink" viewBox="0 0 651.25 651.75">
 <g>
  <rect height="651.75" opacity="0" width="651.25" x="0" y="0"/>
  <path d="M651.25 326C651.25 505.5 505 651.75 325.5 651.75C146.25 651.75 0 505.5 0 326C0 146.75 146.25 0.5 325.5 0.5C505 0.5 651.25 146.75 651.25 326ZM278.75 173.5C272.75 176.75 272.25 182 277 188.25C291 206.75 296.25 218 299 233.25C272.75 242.75 248.25 258 226.5 280.25C199.25 248 168.5 230 131.5 230C125.25 230 121.75 232.75 121.5 238.25C117.75 270.75 133.25 305.25 157 325.75C133.25 345.75 118.25 380.5 121.5 413C121.75 419.25 125.25 421.5 131.5 421.5C168.5 421 199.25 404 226.5 371.5C255.5 400.75 289.25 418 324.5 425.75L319 469.75C318 480 323.5 485.25 335 483.5C373 477.25 414 451.5 436.5 420.25C493.25 403.5 545.25 368.25 545.25 325.75C545.25 285.75 498.75 252 446.25 234C425.5 169.5 340 140 278.75 173.5ZM482.25 319.5C482.25 329.25 474.75 336.25 465.25 336.25C455.75 336.25 448.25 329.25 448.25 319.5C448.25 310 455.75 302.25 465.25 302.25C474.75 302.25 482.25 310 482.25 319.5Z" fill="black" fill-opacity="0.85"/>
 </g>
</svg>
