<?xml version="1.0" encoding="UTF-8"?>
<!--Generator: Apple Native CoreSVG 326-->
<!DOCTYPE svg
PUBLIC "-//W3C//DTD SVG 1.1//EN"
       "http://www.w3.org/Graphics/SVG/1.1/DTD/svg11.dtd">
<svg version="1.1" xmlns="http://www.w3.org/2000/svg" xmlns:xlink="http://www.w3.org/1999/xlink" viewBox="0 0 531.25 750.75">
 <g>
  <rect height="750.75" opacity="0" width="531.25" x="0" y="0"/>
  <path d="M251 691.75C419 691.75 531.25 578 531.25 406C531.25 120.25 288 0 116 0C88.25 0 71.25 9.75 71.25 28.5C71.25 35.75 74.5 43.25 81 50.75C119.5 97 158.25 152.5 158.75 214.5C158.75 230.5 156.25 245 145 262.5L160 259.5C145 213 104.5 180.75 72.5 180.75C60.75 180.75 53 189.25 53 201.75C53 210.25 55.5 230 55.5 244.25C55.5 320.25 0 360.25 0 475.25C0 605.5 99.5 691.75 251 691.75ZM257.5 601C198.75 601 160 565.75 160 512.75C160 457.5 199 437.5 204.25 402C204.75 399 206.5 398.25 209 400C223.5 412.75 233.25 428.75 241.25 447C258 424.5 266 377 260 324.75C259.5 322 261.5 320.25 264.25 321.5C333 354.25 369 422.25 369 483.75C369 546.25 332.5 601 257.5 601Z" fill="black" fill-opacity="0.85"/>
 </g>
</svg>
