<?xml version="1.0" encoding="UTF-8"?>
<!--Generator: Apple Native CoreSVG 326-->
<!DOCTYPE svg
PUBLIC "-//W3C//DTD SVG 1.1//EN"
       "http://www.w3.org/Graphics/SVG/1.1/DTD/svg11.dtd">
<svg version="1.1" xmlns="http://www.w3.org/2000/svg" xmlns:xlink="http://www.w3.org/1999/xlink" viewBox="0 0 651.25 651.75">
 <g>
  <rect height="651.75" opacity="0" width="651.25" x="0" y="0"/>
  <path d="M325.5 651.25C505.25 651.25 651.25 505.5 651.25 325.75C651.25 146 505.25 0 325.5 0C145.75 0 0 146 0 325.75C0 505.5 145.75 651.25 325.5 651.25ZM325.5 604.75C171.25 604.75 46.5 480 46.5 325.75C46.5 171.5 171.25 46.75 325.5 46.75C479.75 46.75 604.5 171.5 604.5 325.75C604.5 480 479.75 604.75 325.5 604.75Z" fill="black" fill-opacity="0.85"/>
  <path d="M327.25 524.25C419.75 524.25 481.25 461.25 481.25 366.75C481.25 209.25 347.5 143 253 143C237.75 143 228.75 148.75 228.75 158.75C228.75 162.75 230.25 166.75 233.75 171C254.75 196.25 276.25 226.75 276.5 261C276.5 270 275 278 268.75 287.5L277 285.75C268.75 260.5 246.5 242.75 229 242.75C222.75 242.75 218.5 247.25 218.5 254.25C218.5 258.5 219.75 269.5 219.75 277.5C219.75 319.5 189.25 341.5 189.25 404.75C189.25 476.25 243.75 524.25 327.25 524.25ZM331 474C298.75 474 277 454.5 277 425.25C277 394.75 298.75 384 301.75 364.5C301.75 362.75 302.75 362.25 304 363.25C312.25 370.25 317.25 379.25 322.25 389.25C331.25 376.75 335.5 350.75 332.25 322.5C332 320.25 333 319.75 334.5 320.25C372.5 338.25 392 375.75 392 409.5C392 443.75 372.25 474 331 474Z" fill="black" fill-opacity="0.85"/>
 </g>
</svg>
