<?xml version="1.0" encoding="UTF-8"?>
<!--Generator: Apple Native CoreSVG 326-->
<!DOCTYPE svg
PUBLIC "-//W3C//DTD SVG 1.1//EN"
       "http://www.w3.org/Graphics/SVG/1.1/DTD/svg11.dtd">
<svg version="1.1" xmlns="http://www.w3.org/2000/svg" xmlns:xlink="http://www.w3.org/1999/xlink" viewBox="0 0 531.25 750.75">
 <g>
  <rect height="750.75" opacity="0" width="531.25" x="0" y="0"/>
  <path d="M251 691.75C419 691.75 531.25 578 531.25 406C531.25 120.25 288 0 116 0C88.25 0 71.25 9.75 71.25 28.5C71.25 35.75 74.5 43.25 81 50.75C119.5 97 158.25 152.5 158.75 214.5C158.75 230.5 156.25 245 145 262.5L160 259.5C145 213 104.5 180.75 72.5 180.75C60.75 180.75 53 189.25 53 201.75C53 210.25 55.5 230 55.5 244.25C55.5 320.25 0 360.25 0 475.25C0 605.5 99.5 691.75 251 691.75ZM253.75 652.75C125.5 652.75 39.5 581.25 39.5 475.25C39.5 368.25 95.75 336.5 95.75 248.5C95.75 236 93.25 224 90.75 213L84 224.5C109.25 237.5 131.5 265.5 142.5 308C144 314.25 147 317 151.75 317C174.5 317 193.75 259.75 193.75 218.5C193.75 147.75 162.75 82.5 109.5 28.75L102 37.75C331.25 40.25 490 194 490 404.75C490 552.75 395 652.75 253.75 652.75ZM257.5 601C332.5 601 369 546.25 369 483.75C369 422.25 333 354.25 264.25 321.5C261.5 320.25 259.5 322 260 324.75C266 377 258 424.5 241.25 447C233.25 428.75 223.5 412.75 209 400C206.5 398.25 204.75 399 204.25 402C199 437.5 160 457.5 160 512.75C160 565.75 198.75 601 257.5 601Z" fill="black" fill-opacity="0.85"/>
 </g>
</svg>
