<?xml version="1.0" encoding="UTF-8"?>
<!--Generator: Apple Native CoreSVG 326-->
<!DOCTYPE svg
PUBLIC "-//W3C//DTD SVG 1.1//EN"
       "http://www.w3.org/Graphics/SVG/1.1/DTD/svg11.dtd">
<svg version="1.1" xmlns="http://www.w3.org/2000/svg" xmlns:xlink="http://www.w3.org/1999/xlink" viewBox="0 0 651.25 651.75">
 <g>
  <rect height="651.75" opacity="0" width="651.25" x="0" y="0"/>
  <path d="M651.25 326C651.25 505.5 505 651.75 325.5 651.75C146.25 651.75 0 505.5 0 326C0 146.75 146.25 0.5 325.5 0.5C505 0.5 651.25 146.75 651.25 326ZM226.25 155.25C226.25 159.25 227.75 163.5 231.25 167.5C252.75 193.5 274.75 224.75 275 259.5C275 265.25 274 270.25 271.75 275.25C261.75 254.5 242 240.75 226.5 240.75C219.75 240.75 215.75 245.75 215.75 252.75C215.75 257.25 217 268.5 217 276.75C217 319.5 185.75 342.25 185.75 406.75C185.75 480.25 241.5 529 327 529C421.75 529 484.75 464.5 484.75 368C484.75 206.5 347.75 139 251 139C235.25 139 226.25 144.5 226.25 155.25ZM334.5 320.25C373.5 338.75 393.5 377.25 393.5 411.5C393.5 446.75 373.25 478 331 478C297.75 478 275.5 458 275.5 427.75C275.5 396.75 297.75 385.5 301 365.75C301 363.5 302 363.25 303.25 364.5C311.75 371.25 316.75 380.75 322 391C331.25 378.25 335.5 351.5 332.25 322.75C332 320.25 333 319.75 334.5 320.25Z" fill="black" fill-opacity="0.85"/>
 </g>
</svg>
