<?xml version="1.0" encoding="UTF-8"?>
<!--Generator: Apple Native CoreSVG 326-->
<!DOCTYPE svg
PUBLIC "-//W3C//DTD SVG 1.1//EN"
       "http://www.w3.org/Graphics/SVG/1.1/DTD/svg11.dtd">
<svg version="1.1" xmlns="http://www.w3.org/2000/svg" xmlns:xlink="http://www.w3.org/1999/xlink" viewBox="0 0 651.25 651.75">
 <g>
  <rect height="651.75" opacity="0" width="651.25" x="0" y="0"/>
  <path d="M66.5 487.25C118 480.75 142.75 460.75 142.75 415.5C142.75 380 174.25 377 174.25 341.5C174.25 325.5 161 313.75 132.25 290.5L111.5 273.5C108.5 271 106.5 267.5 106.25 264C106.25 257 112.25 250.5 119.25 250.5C124.5 250.5 128.75 255.25 143.25 267.5C166.25 287 177.75 297 191.75 297C206.75 297 211.5 287.5 220 287.5C225.75 287.5 229.75 291.25 232.5 299.5L244.5 333C258.25 371.75 284.25 371 288.75 398.75C302.25 492 318.75 527.25 354.75 527.25C390 527.25 403 495.25 403 439.25C403 393 455 345.75 476.5 345.75C502.5 345.75 509.5 440.25 610.75 442.75L610.75 413.5C515.75 411.25 536.75 316.5 476.5 316.5C439.25 316.5 374 379.5 374 439.25C374 481.5 369.5 498.25 354.75 498.25C337 498.25 327.5 464.5 317 394.25C310.25 349.5 286 359.75 273 325.5L256.25 282.25C249.25 263.75 236.75 256 222.75 256C208.5 256 196.5 267.25 191.25 267.25C186.75 267.25 170 252.75 161 244.75C145.75 231.25 133 221.5 119 221.5C96.75 221.5 77.25 243.75 77.25 263.5C77.25 296.5 145 322.75 145 344.25C145 369.75 113.75 367.25 113.75 413.75C113.75 452.25 92.5 453.75 60.75 459ZM80.75 140C85 168.5 103.75 190.25 128.5 190.25C147.75 190.25 164 178 169 159C171.25 149.75 174 146.25 180.75 142C193.5 134.25 200 126.25 200 111.25C200 97 189.25 81.75 171.25 62.25L150.25 82.25C164.5 97.5 171 102 171 110.5C171 123.25 150.5 120.5 145.75 144.5C143.75 155.75 136 161.25 128.5 161.25C120.5 161.25 108 151.75 108 134.5ZM325.5 651.25C505.25 651.25 651.25 505.5 651.25 325.75C651.25 146 505.25 0 325.5 0C145.75 0 0 146 0 325.75C0 505.5 145.75 651.25 325.5 651.25ZM325.5 613.25C166.75 613.25 38 484.5 38 325.75C38 166.75 166.75 38 325.5 38C484.5 38 613.25 166.75 613.25 325.75C613.25 484.5 484.5 613.25 325.5 613.25Z" fill="black" fill-opacity="0.85"/>
 </g>
</svg>
