<?xml version="1.0" encoding="UTF-8"?>
<!--Generator: Apple Native CoreSVG 326-->
<!DOCTYPE svg
PUBLIC "-//W3C//DTD SVG 1.1//EN"
       "http://www.w3.org/Graphics/SVG/1.1/DTD/svg11.dtd">
<svg version="1.1" xmlns="http://www.w3.org/2000/svg" xmlns:xlink="http://www.w3.org/1999/xlink" viewBox="0 0 651.25 651.75">
 <g>
  <rect height="651.75" opacity="0" width="651.25" x="0" y="0"/>
  <path d="M338.75 570.75C379.75 570.75 493.25 422 493.25 366.5C493.25 335.5 423.25 274.25 387 274.25C371 274.25 345.5 297.25 327.25 297.25C308.5 297.25 266.25 260.75 266.25 244.5C266.25 235.5 274.75 229.5 284 229.5C299.25 229.5 325 256.75 349 256.75C370.25 256.75 382 242 382 220.5C382 210.25 376.25 199.5 366.75 185C400.5 168.25 469.75 132.5 490.25 85.5C460.5 48.75 396.5 25.5 325 25.5C217 25.5 113.75 87 95.75 148.25C89.5 184.75 113.75 224.75 161.25 266.25L209.25 308.25C223.75 321 232.5 327 232.5 335.25C232.5 348.25 218.25 359.25 218.25 377C218.25 393.25 226 406.75 242.75 419.25C293.75 457.5 307.75 464.25 307.75 476.5C308.25 497.75 295.5 514 295.5 533.75C295.5 551.25 318.5 570.75 338.75 570.75ZM325.5 651.25C505.25 651.25 651.25 505.5 651.25 325.75C651.25 146 505.25 0 325.5 0C145.75 0 0 146 0 325.75C0 505.5 145.75 651.25 325.5 651.25ZM325.5 613.25C166.75 613.25 38 484.5 38 325.75C38 166.75 166.75 38 325.5 38C484.5 38 613.25 166.75 613.25 325.75C613.25 484.5 484.5 613.25 325.5 613.25Z" fill="black" fill-opacity="0.85"/>
 </g>
</svg>
