<?xml version="1.0" encoding="UTF-8"?>
<!--Generator: Apple Native CoreSVG 326-->
<!DOCTYPE svg
PUBLIC "-//W3C//DTD SVG 1.1//EN"
       "http://www.w3.org/Graphics/SVG/1.1/DTD/svg11.dtd">
<svg version="1.1" xmlns="http://www.w3.org/2000/svg" xmlns:xlink="http://www.w3.org/1999/xlink" viewBox="0 0 651.25 651.75">
 <g>
  <rect height="651.75" opacity="0" width="651.25" x="0" y="0"/>
  <path d="M68 466.25L103 398.75C112.5 380.5 122.25 369.75 133 369.75C143.5 369.75 154.75 380 170.5 401C200.5 439.25 220.25 458.25 239.75 458.25C258.75 458.25 281.5 430.5 281.5 411.5C281.5 397.25 260.75 385.25 260.75 377.75C260.75 373.75 264.75 371.5 271.25 371.5C321.25 371.5 358.5 330.25 358.5 301C358.5 273.5 327.25 251.75 327.25 241.25C327.25 238.75 329 236.75 331.25 236.75C334.25 236.75 338.5 240 347.25 246C381.5 272.25 399.25 259.5 401.75 240C402.75 232.25 407.25 225 425.75 216C459 199.75 492.25 169.25 492.25 144.75C492.25 113.5 447.5 99.5 447.5 90.75C447.5 85.5 459.75 79.5 482 73L475 44.75C439.75 54.25 415.5 70.25 415.5 89.25C415.5 115.75 463.25 128.5 463.25 144.75C463.25 159.25 435.75 178 414.5 189C381.5 206.75 381.25 216.5 377.75 228.25C371.25 243.5 354.25 212.25 327.25 212.25C311.75 212.25 300.25 222.5 300.25 238C300.25 262 329.25 284 329.25 301C329.25 321.25 306.75 344.75 263.75 344.75C241.75 344.75 229.25 355 229.25 372.25C229.25 388.5 251.25 404.25 251.25 411.5C251.25 417.75 244.5 427 240.25 427C233.25 427 218 414.25 193.75 383C172.75 355.5 153.75 340.75 134.5 340.75C108.75 340.75 92 361.5 81.25 381.5L49.25 440.75ZM469 599.5L492.25 581.75C477.75 562.5 459.75 536.25 422.75 536.25C399.75 536.25 394.5 544 377.5 544C366.5 544 360.5 534.75 356 515.75C352 498.5 350.5 487 360.75 482.25C373 477.25 412.25 473.5 425.75 432C435.5 402.25 445 391 461.75 391C492.75 391 486.75 420.75 519 420.75C533.25 420.75 541 414.5 552.25 414.5C567.25 414.5 578 428.5 581.5 464.5L610.25 451.25C604.5 409 584.5 385.25 556.75 385.25C549.25 385.25 540 386.75 531 389.75C519.75 393.5 517 392.25 508 382.25C494.75 367.25 483.75 361.75 465.5 361.75C432.75 361.75 412.75 377.25 397.5 423.5C393.25 437.25 387.25 441.75 364 450.5L350.25 455.5C325.25 465 318.25 483 327.25 522.25C335.25 556 351.5 573.25 374.5 573.25C395.25 573.25 408.25 565.5 422.75 565.5C443.75 565.25 454 578.75 469 599.5ZM400 305.75C420.75 305.75 430 287 453.5 280.25C469 275.75 477.25 259.75 477.25 246.5C477.25 235.5 471.75 226.25 460 226.25C447.5 226.25 435.75 236 428.25 252C424 261.5 417.25 266 400 270.75C386.5 274.75 381.75 279.75 381.75 290C381.75 301 390.25 305.75 400 305.75ZM307.25 453.75C325.5 453.75 343.25 432.75 343.25 413.5C343.25 390.5 333.75 379.5 322.75 379.5C310.5 379.5 302.75 393.75 302.75 415.75C302.75 428 291.75 428.5 291.75 441.25C291.75 448.75 298 453.75 307.25 453.75ZM251.25 512.5C265 512.5 274 505.25 274 493.5C274 484.5 267 479 257.25 479C218.75 479 217.25 457 198.5 457C188.25 457 181 463 181 472C181 479.25 188.25 484.5 197.75 484.5C218.5 484.5 208.75 512.5 251.25 512.5ZM325.5 651.25C505.25 651.25 651.25 505.5 651.25 325.75C651.25 146 505.25 0 325.5 0C145.75 0 0 146 0 325.75C0 505.5 145.75 651.25 325.5 651.25ZM325.5 613.25C166.75 613.25 38 484.5 38 325.75C38 166.75 166.75 38 325.5 38C484.5 38 613.25 166.75 613.25 325.75C613.25 484.5 484.5 613.25 325.5 613.25Z" fill="black" fill-opacity="0.85"/>
 </g>
</svg>
