<?xml version="1.0" encoding="UTF-8"?>
<!--Generator: Apple Native CoreSVG 326-->
<!DOCTYPE svg
PUBLIC "-//W3C//DTD SVG 1.1//EN"
       "http://www.w3.org/Graphics/SVG/1.1/DTD/svg11.dtd">
<svg version="1.1" xmlns="http://www.w3.org/2000/svg" xmlns:xlink="http://www.w3.org/1999/xlink" viewBox="0 0 651.25 651.75">
 <g>
  <rect height="651.75" opacity="0" width="651.25" x="0" y="0"/>
  <path d="M339.25 582C384.25 582 500.75 428.5 500.75 370.25C500.75 335.5 427.25 271.75 388.25 271.75C370.25 271.75 344.25 294.75 327.75 294.75C311.75 294.75 268.5 260 268.5 246.5C268.5 240.75 277.25 234 284 234C294.25 234 326.5 264 345.25 264C371.5 264 388.25 246.75 388.25 219.75C388.25 210.5 384.25 201 375.25 188.25C411 170 478.75 133.75 497.5 88.25L471.75 74.25C456.75 116.25 381.75 151.5 343.75 171.5C337.25 174.75 334.25 181.75 339.75 189.5C353.5 208.25 359.25 216.5 359.25 224C359.25 230.25 354.5 235 348.25 235C336.5 235 301.75 205 284 205C263.25 205 239.25 227 239.25 246.5C239.25 275 298 323.75 327.75 323.75C345.75 323.75 377.75 300.75 388.25 300.75C410.5 300.75 471.5 352 471.5 370.25C471.5 409.5 367.5 552.75 338.5 552.75C330 552.75 319.5 545.25 319.5 538.25C319.5 534.25 320.5 531.25 324.25 520C327.5 509.75 332.25 496 332 480.75C331.5 460.75 316 446.75 277.75 419.5C270.75 414.5 263.5 409.5 256.5 404.25C245.75 396.25 241.25 388.75 241.25 380.5C241.25 376 242.25 371.5 245.5 361.25C248.75 350.75 250.25 343 250.25 337.5C250.25 323.75 243.5 314.75 228 301.5C225.75 299.75 224.25 298.25 222.25 296.5L170.5 250.5C107.5 194.25 104.75 158.25 130.5 114.5L102.5 108.75C75.75 153.25 76.5 206.5 151.25 272.5L202.5 317.75C214.75 328.25 221.25 333 221.25 338.25C221.25 346 212.25 361.25 212.25 380.5C212.25 398.5 221 414.25 239 427.5C278.75 457.25 302.75 471.75 302.75 481.25C303.25 501.25 290.5 517.5 290.5 539.25C290.5 560.25 316.25 582 339.25 582ZM325.5 651.25C505.25 651.25 651.25 505.5 651.25 325.75C651.25 146 505.25 0 325.5 0C145.75 0 0 146 0 325.75C0 505.5 145.75 651.25 325.5 651.25ZM325.5 613.25C166.75 613.25 38 484.5 38 325.75C38 166.75 166.75 38 325.5 38C484.5 38 613.25 166.75 613.25 325.75C613.25 484.5 484.5 613.25 325.5 613.25Z" fill="black" fill-opacity="0.85"/>
 </g>
</svg>
