<?xml version="1.0" encoding="UTF-8"?>
<!--Generator: Apple Native CoreSVG 326-->
<!DOCTYPE svg
PUBLIC "-//W3C//DTD SVG 1.1//EN"
       "http://www.w3.org/Graphics/SVG/1.1/DTD/svg11.dtd">
<svg version="1.1" xmlns="http://www.w3.org/2000/svg" xmlns:xlink="http://www.w3.org/1999/xlink" viewBox="0 0 651.25 651.75">
 <g>
  <rect height="651.75" opacity="0" width="651.25" x="0" y="0"/>
  <path d="M651.25 325.75C651.25 505 505 651.25 325.5 651.25C146.25 651.25 0 505 0 325.75C0 146.25 146.25 0 325.5 0C505 0 651.25 146.25 651.25 325.75ZM169 444C169 464.5 189 478.25 222.5 478.25C252.25 478.25 270.75 472.5 286.25 462.5L237.75 422.75C235.25 422.75 232.75 423.25 229.25 423.25C222.25 423.25 209.25 421.25 196.25 421.25C179 421.25 169 430.25 169 444ZM299.5 176.75C299.5 189.25 324.25 206 344.25 217.75L434.5 272C425.5 280.5 418.75 284.25 411 284.25C399.25 284.25 387.5 278 369 267C321.25 239.75 284 212.5 234 212.5C182 212.5 142.75 242.25 121.5 299.75C104.75 300.25 92 311 92 326.75C92 345 106.75 356 126.25 356.5C148.75 388.25 185.75 401 230.25 401C232.75 401 235 400.75 237.25 400.75L300 451.5C315.5 464.25 324.75 467 336.75 467C347.5 467 357.75 462 378 462C398 462 403.75 467 419.25 467C442.25 467 454.5 458.25 454.5 442.75C454.5 415.5 423.75 397.5 377.75 397.5C354.75 397.5 344.25 399.75 331.25 402.75L315 365C298.25 326.75 271.25 304 233.75 304L215.5 304C209.5 304 205.75 301.5 205.75 295.5C205.75 286.5 218.5 284 232.25 284C277.75 284 311.25 309.25 331.75 359L342.5 385.5C352.75 383.25 364.75 382.25 376.25 382.25C385.5 382.25 392.75 382.75 401.75 384C411.25 377.25 422 369.5 437.25 361C454.75 374 475.75 382 497.75 382C540 382 559.25 372.5 559.25 333C559.25 283 521.5 245.75 475.75 247.25L434.25 190.75C411.75 160.5 383.5 145.25 355.25 145.25C332.5 145.25 299.5 158.25 299.5 176.75ZM505.5 311.75C505.5 318.5 499.75 325.25 493.25 325.25C486.5 325.25 481 319 481 312.75C481 305.75 486.75 299.75 493.5 299.75C500.25 299.75 505.5 305.25 505.5 311.75Z" fill="black" fill-opacity="0.85"/>
 </g>
</svg>
