<?xml version="1.0" encoding="UTF-8"?>
<!--Generator: Apple Native CoreSVG 326-->
<!DOCTYPE svg
PUBLIC "-//W3C//DTD SVG 1.1//EN"
       "http://www.w3.org/Graphics/SVG/1.1/DTD/svg11.dtd">
<svg version="1.1" xmlns="http://www.w3.org/2000/svg" xmlns:xlink="http://www.w3.org/1999/xlink" viewBox="0 0 813.25 687.75">
 <g>
  <rect height="687.75" opacity="0" width="813.25" x="0" y="0"/>
  <path d="M456.478 504.748C378.319 540.499 309.938 599.75 211.75 599.75C170.25 599.75 133.5 590 96.75 568.75C82 560.25 81.25 545.25 87.75 535.5C93.5 527 104.5 522.5 116.5 529.25C149.25 548 178.25 555.5 211.75 555.5C309.224 555.5 377.467 488.349 465.775 453.855C460.768 470.096 457.252 487.213 456.478 504.748Z" fill="black" fill-opacity="0.85"/>
  <path d="M536.916 307.265C419.653 323.053 341.92 427 212 427C170.5 427 133.75 417 97 396C82.25 387.5 81.5 372.5 88 362.75C93.75 354 104.75 349.5 116.75 356.25C149.5 375 178.5 382.5 212 382.5C341.567 382.5 419.484 263.853 561.558 261.031Z" fill="black" fill-opacity="0.85"/>
  <path d="M681.5 118.75C696.75 127.5 697.5 142.5 690.5 152.25C684.75 160.75 673.75 165 662 158.5C629 139.75 600.25 132 566.75 132C432 132 352.5 254 211.75 254C170.25 254 133.5 244.25 96.75 223C82 214.5 81.25 199.5 87.75 189.75C93.5 181 104.5 176.75 116.5 183.25C149.25 202.25 178.25 209.75 211.75 209.75C343 209.75 421.25 87.75 566.75 87.75C608.25 87.75 645 97.5 681.5 118.75Z" fill="black" fill-opacity="0.85"/>
  <path d="M634.5 648C711.75 648 773.25 587.75 773.25 512.5C773.25 470.75 752.5 429.25 734.5 395.5L661.5 259.75C654.5 246.5 647.75 241 634.5 241C621.5 241 614.75 246.5 607.75 259.5L535 395.5C517 429.25 496 470.75 496 512.5C496 587.75 557.75 648 634.5 648Z" fill="black" fill-opacity="0.85"/>
 </g>
</svg>
