<?xml version="1.0" encoding="UTF-8"?>
<!--Generator: Apple Native CoreSVG 326-->
<!DOCTYPE svg
PUBLIC "-//W3C//DTD SVG 1.1//EN"
       "http://www.w3.org/Graphics/SVG/1.1/DTD/svg11.dtd">
<svg version="1.1" xmlns="http://www.w3.org/2000/svg" xmlns:xlink="http://www.w3.org/1999/xlink" viewBox="0 0 769.25 687.75">
 <g>
  <rect height="687.75" opacity="0" width="769.25" x="0" y="0"/>
  <path d="M412.478 504.748C334.319 540.499 265.938 599.75 167.75 599.75C126.25 599.75 89.5 590 52.75 568.75C38 560.25 37.25 545.25 43.75 535.5C49.5 527 60.5 522.5 72.5 529.25C105.25 548 134.25 555.5 167.75 555.5C265.224 555.5 333.467 488.349 421.775 453.855C416.768 470.096 413.252 487.213 412.478 504.748Z" fill="black" fill-opacity="0.85"/>
  <path d="M492.916 307.265C375.653 323.053 297.92 427 168 427C126.5 427 89.75 417 53 396C38.25 387.5 37.5 372.5 44 362.75C49.75 354 60.75 349.5 72.75 356.25C105.5 375 134.5 382.5 168 382.5C297.567 382.5 375.484 263.853 517.558 261.031Z" fill="black" fill-opacity="0.85"/>
  <path d="M637.5 118.75C652.75 127.5 653.5 142.5 646.5 152.25C640.75 160.75 629.75 165 618 158.5C585 139.75 556.25 132 522.75 132C388 132 308.5 254 167.75 254C126.25 254 89.5 244.25 52.75 223C38 214.5 37.25 199.5 43.75 189.75C49.5 181 60.5 176.75 72.5 183.25C105.25 202.25 134.25 209.75 167.75 209.75C299 209.75 377.25 87.75 522.75 87.75C564.25 87.75 601 97.5 637.5 118.75Z" fill="black" fill-opacity="0.85"/>
  <path d="M590.5 648C667.75 648 729.25 587.75 729.25 512.5C729.25 470.75 708.5 429.25 690.5 395.5L617.5 259.75C610.5 246.5 603.75 241 590.5 241C577.5 241 570.75 246.5 563.75 259.5L491 395.5C473 429.25 452 470.75 452 512.5C452 587.75 513.75 648 590.5 648ZM590.5 611C534.25 611 489 567.5 489 512.5C489 479.25 506 446.5 524 413L587.25 294.75C589.25 291.5 592.5 291.5 594.25 294.75L657.25 413C675.25 446.5 692.5 479.25 692.5 512.5C692.5 567.5 647.25 611 590.5 611Z" fill="black" fill-opacity="0.85"/>
 </g>
</svg>
