<?xml version="1.0" encoding="UTF-8"?>
<!--Generator: Apple Native CoreSVG 326-->
<!DOCTYPE svg
PUBLIC "-//W3C//DTD SVG 1.1//EN"
       "http://www.w3.org/Graphics/SVG/1.1/DTD/svg11.dtd">
<svg version="1.1" xmlns="http://www.w3.org/2000/svg" xmlns:xlink="http://www.w3.org/1999/xlink" viewBox="0 0 651.25 651.75">
 <g>
  <rect height="651.75" opacity="0" width="651.25" x="0" y="0"/>
  <path d="M651.25 325.75C651.25 505.5 505.25 651.25 325.5 651.25C145.75 651.25 0 505.5 0 325.75C0 146 145.75 0 325.5 0C505.25 0 651.25 146 651.25 325.75ZM46.5 325.75C46.5 480 171.25 604.75 325.5 604.75C479.75 604.75 604.5 480 604.5 325.75C604.5 171.5 479.75 46.75 325.5 46.75C171.25 46.75 46.5 171.5 46.5 325.75Z" fill="black" fill-opacity="0.85"/>
  <path d="M366.357 415.357C365.956 417.266 365.75 419.238 365.75 421.25C365.75 438 380 452 396.5 452C398.518 452 400.492 451.797 402.4 451.4L433.811 482.811C412.756 503.603 385.039 517.115 352.75 520.75C340.75 521.75 335.25 517.5 335.25 508.75L335.25 384.25ZM176.175 225.175L255.699 304.699C253.787 304.235 251.792 304 249.75 304C235.25 304 222.75 316 222.75 330.75C222.75 345.25 235.25 357.75 249.75 357.75C264.5 357.75 276.75 345.25 276.75 330.75C276.75 328.82 276.533 326.929 276.107 325.107L315.25 364.25L315.25 508.75C315.25 517.5 309.75 521.75 298 520.75C260 516.5 228.75 498.75 206.5 471.75L180.25 493.25C174 498.25 166 498.75 161.25 492.5C156.25 486.75 158 479 164 473.75L192.25 450.25C179 427 171.5 398.5 171 366.5L138.75 366.5C130.5 366.5 125.5 361.5 125.5 354C125.5 346.5 130.5 341.5 138.75 341.5L172.75 341.5C175.5 316.5 183 291.25 194 271.75L165.25 247.75C159.25 243 157.5 234.75 162.25 228.75C165.933 224.331 171.107 223.302 176.175 225.175ZM223.75 421.25C223.75 438 237.5 452 254.25 452C270.75 452 285 438 285 421.25C285 404.5 270.75 390.5 254.25 390.5C237.5 390.5 223.75 404.5 223.75 421.25ZM488.25 228.75C493 234.75 491.5 242.75 485.5 247.75L456.75 271.75C467.5 291.25 475.25 316.5 478 341.5L512 341.5C520.25 341.5 525.25 346.5 525.25 354C525.25 361.5 520 366.5 511.75 366.5L479.5 366.5C479.189 386.4 476.171 404.947 470.739 421.714L406.272 357.193C418.403 354.625 428 343.455 428 330.75C428 316 415.5 304 401 304C388.09 304 377.095 313.384 374.553 325.448L315.403 266.249C318.689 266.433 321.973 266.5 325.25 266.5C358.5 266.5 392 259.75 420 246.25C425.5 243.75 432.25 244.25 441 251.75L469.25 228.25C475.75 223 483.25 222.5 488.25 228.75ZM406 129L391.25 135.25C383.75 137.75 381.75 141.5 382.75 148L383.5 155C405.75 167.5 418.5 188 418.5 211.25C418.5 221 415 227.75 404 233C384.5 241.75 355.5 247.5 325.25 247.5C314.825 247.5 304.49 246.806 294.664 245.493L236.788 187.569C242.357 174.336 252.722 163.021 267 155L267.75 148C269 141.5 267 137.75 259.5 135.25L244.5 129C229 124.5 237.25 100.5 253 106.25L269.5 113.75C284 119.5 292.5 129.25 291.5 143L291.25 145C301.5 142 313 140.25 325.25 140.25C337.5 140.25 349 142 359.5 145L359.25 143C358 129 366.75 119.25 381 113.75L397.5 106.25C413.25 100.5 421.5 124.5 406 129Z" fill="black" fill-opacity="0.85"/>
  <path d="M468 486.25C473 491.5 481.5 491.5 486.75 486.25C492 481 492 473 486.75 467.5L184 164.75C178.75 159.5 170.25 159.5 165 164.75C159.75 170 160 178.5 165 183.5Z" fill="black" fill-opacity="0.85"/>
 </g>
</svg>
