<?xml version="1.0" encoding="UTF-8"?>
<!--Generator: Apple Native CoreSVG 326-->
<!DOCTYPE svg
PUBLIC "-//W3C//DTD SVG 1.1//EN"
       "http://www.w3.org/Graphics/SVG/1.1/DTD/svg11.dtd">
<svg version="1.1" xmlns="http://www.w3.org/2000/svg" xmlns:xlink="http://www.w3.org/1999/xlink" viewBox="0 0 784.125 857.19">
 <g>
  <rect height="857.19" opacity="0" width="784.125" x="0" y="0"/>
  <path d="M202.639 356.7C175.966 399.422 156.562 454.921 156.562 516.97C156.562 657.386 242.267 753.244 372.813 761.624L372.813 526.556L409.562 563.238L409.562 761.702C466.767 758.549 515.354 738.56 551.908 705.317L583.324 736.675C535.492 780.89 469.81 805.72 392.062 805.72C299.511 805.72 224.134 770.534 175.342 709.644L129.312 747.97C118.812 756.72 105.562 757.72 97.3125 747.22C88.5625 736.97 91.5625 723.72 101.812 715.22L151.498 673.987C127.074 631.043 113.704 578.74 113.416 519.534L55.3125 519.72C41.3125 519.72 32.3125 511.22 32.3125 498.22C32.3125 485.22 41.3125 476.72 55.0625 476.72L115.812 476.72C121.114 431.624 135.329 387.716 156.646 348.997L103.812 304.97C93.5625 296.47 90.3125 283.22 98.8125 272.97C102.358 268.695 106.772 266.334 111.462 265.693ZM325.312 653.97C325.312 674.22 308.812 690.72 288.312 690.72C268.062 690.72 251.562 674.22 251.562 653.97C251.562 633.47 268.062 617.22 288.312 617.22C308.812 617.22 325.312 633.47 325.312 653.97ZM524.148 677.61C517.411 685.624 507.316 690.72 496.062 690.72C475.562 690.72 459.062 674.22 459.062 653.97C459.062 642.57 464.165 632.485 472.23 625.789ZM536.562 98.2199L510.562 109.22C496.812 114.47 491.562 121.97 494.062 133.72L497.334 149.641C537.852 173.809 561.767 214.055 562.062 265.72C577.697 279.297 592.004 295.112 604.685 312.667L653.062 272.22C663.562 263.47 677.062 262.72 685.562 272.97C693.812 283.22 690.812 296.47 680.562 304.97L627.683 349.107C648.891 387.913 663.144 431.968 668.503 476.72L729.062 476.72C743.062 476.72 752.062 485.22 752.062 498.22C752.062 511.22 743.062 519.72 729.062 519.72L670.958 519.534C670.762 564.632 662.921 605.706 648.303 641.638L614.04 607.426C623.128 580.188 627.812 549.796 627.812 516.97C627.812 428.22 587.062 352.47 544.812 309.72C507.812 325.97 450.062 337.47 392.062 337.47C374.731 337.47 357.377 336.434 340.645 334.439L228.823 222.784C238.377 191.52 258.584 166.579 287.042 149.638L290.312 133.72C292.812 121.97 287.562 114.47 273.812 109.22L247.812 98.2199C221.312 89.9699 234.812 50.2199 262.062 59.9699L290.812 72.7199C319.3 83.92 332.611 103.894 330.004 131.51C348.721 126.184 369.571 123.47 392.062 123.47C414.634 123.47 435.565 126.191 454.354 131.532C451.507 103.905 464.824 83.9231 493.562 72.7199L522.312 59.9699C549.562 50.2199 563.062 89.9699 536.562 98.2199ZM297.062 533.47C297.062 559.72 275.812 580.97 249.812 580.97C223.562 580.97 202.312 559.72 202.312 533.47C202.312 507.47 223.562 486.22 249.812 486.22C275.812 486.22 297.062 507.47 297.062 533.47ZM581.812 533.47C581.812 545.146 577.608 555.833 570.635 564.086L503.993 497.544C512.23 490.481 522.92 486.22 534.562 486.22C560.562 486.22 581.812 507.47 581.812 533.47ZM297.294 451.178C294.417 451.87 291.407 452.22 288.312 452.22C266.312 452.22 248.062 433.47 248.062 411.47C248.062 408.556 248.376 405.706 248.985 402.96ZM536.312 411.47C536.312 433.47 518.062 452.22 496.062 452.22C473.562 452.22 455.312 433.72 455.312 411.47C455.312 389.22 473.312 370.72 496.062 370.72C518.062 370.72 536.312 389.22 536.312 411.47ZM409.562 398.72L409.562 403.253L387.179 380.903C388.43 380.616 389.731 380.47 391.062 380.47C401.312 380.47 409.562 388.72 409.562 398.72Z" fill="black" fill-opacity="0.85"/>
  <path d="M41.5625 145.97L712.312 815.72C720.562 823.97 734.312 823.97 742.312 815.72C750.562 807.22 750.812 793.72 742.312 785.47L71.8125 115.97C63.5625 107.72 50.0625 107.47 41.5625 115.97C33.3125 123.97 33.3125 137.97 41.5625 145.97Z" fill="black" fill-opacity="0.85"/>
 </g>
</svg>
