<?xml version="1.0" encoding="UTF-8"?>
<!--Generator: Apple Native CoreSVG 326-->
<!DOCTYPE svg
PUBLIC "-//W3C//DTD SVG 1.1//EN"
       "http://www.w3.org/Graphics/SVG/1.1/DTD/svg11.dtd">
<svg version="1.1" xmlns="http://www.w3.org/2000/svg" xmlns:xlink="http://www.w3.org/1999/xlink" viewBox="0 0 651.25 651.75">
 <g>
  <rect height="651.75" opacity="0" width="651.25" x="0" y="0"/>
  <path d="M325.5 651.25C505.25 651.25 651.25 505.5 651.25 325.75C651.25 146 505.25 0 325.5 0C145.75 0 0 146 0 325.75C0 505.5 145.75 651.25 325.5 651.25ZM325.5 604.75C171.25 604.75 46.5 480 46.5 325.75C46.5 171.5 171.25 46.75 325.5 46.75C479.75 46.75 604.5 171.5 604.5 325.75C604.5 480 479.75 604.75 325.5 604.75Z" fill="black" fill-opacity="0.85"/>
  <path d="M325.25 247.5C355.5 247.5 384.5 241.75 404 233C415 227.75 418.5 221 418.5 211.25C418.5 188 405.75 167.5 383.5 155L382.75 148C381.75 141.5 383.75 137.75 391.25 135.25L406 129C421.5 124.5 413.25 100.5 397.5 106.25L381 113.75C366.75 119.25 358 129 359.25 143L359.5 145C349 142 337.5 140.25 325.25 140.25C313 140.25 301.5 142 291.25 145L291.5 143C292.5 129.25 284 119.5 269.5 113.75L253 106.25C237.25 100.5 229 124.5 244.5 129L259.5 135.25C267 137.75 269 141.5 267.75 148L267 155C244.75 167.5 232 188 232 211.25C232 221 235.75 227.75 246.75 233C266 241.75 295.25 247.5 325.25 247.5ZM325.25 294.5C330.75 294.5 335.25 298.75 335.25 304.25L335.25 508.75C335.25 517.5 340.75 521.75 352.75 520.75C390.5 516.5 422 498.75 444 471.75L470.25 493.25C476.5 498.25 484.5 498.75 489.25 492.5C494.25 486.75 492.75 479 486.5 473.75L458.25 450.25C471.5 427 479 398.5 479.5 366.5L511.75 366.5C520 366.5 525.25 361.5 525.25 354C525.25 346.5 520.25 341.5 512 341.5L478 341.5C475.25 316.5 467.5 291.25 456.75 271.75L485.5 247.75C491.5 242.75 493 234.75 488.25 228.75C483.25 222.5 475.75 223 469.25 228.25L441 251.75C432.25 244.25 425.5 243.75 420 246.25C392 259.75 358.5 266.5 325.25 266.5C292.25 266.5 258.5 259.75 230.75 246.25C225 243.5 218.5 244 209.75 251.75L181.5 228.25C175 223 167.25 222.75 162.25 228.75C157.5 234.75 159.25 243 165.25 247.75L194 271.75C183 291.25 175.5 316.5 172.75 341.5L138.75 341.5C130.5 341.5 125.5 346.5 125.5 354C125.5 361.5 130.5 366.5 138.75 366.5L171 366.5C171.5 398.5 179 427 192.25 450.25L164 473.75C158 479 156.25 486.75 161.25 492.5C166 498.75 174 498.25 180.25 493.25L206.5 471.75C228.75 498.75 260 516.5 298 520.75C309.75 521.75 315.25 517.5 315.25 508.75L315.25 304.25C315.25 298.75 319.75 294.5 325.25 294.5ZM222.75 330.75C222.75 316 235.25 304 249.75 304C264.5 304 276.75 316.25 276.75 330.75C276.75 345.25 264.5 357.75 249.75 357.75C235.25 357.75 222.75 345.25 222.75 330.75ZM223.75 421.25C223.75 404.5 237.5 390.5 254.25 390.5C270.75 390.5 285 404.5 285 421.25C285 438 270.75 452 254.25 452C237.5 452 223.75 438 223.75 421.25ZM428 330.75C428 345.25 415.5 357.75 401 357.75C386.25 357.75 374 345.25 374 330.75C374 316.25 386.25 304 401 304C415.5 304 428 316 428 330.75ZM427 421.25C427 438 413.25 452 396.5 452C380 452 365.75 438 365.75 421.25C365.75 404.5 380 390.5 396.5 390.5C413.25 390.5 427 404.5 427 421.25Z" fill="black" fill-opacity="0.85"/>
 </g>
</svg>
