<?xml version="1.0" encoding="UTF-8"?>
<!--Generator: Apple Native CoreSVG 326-->
<!DOCTYPE svg
PUBLIC "-//W3C//DTD SVG 1.1//EN"
       "http://www.w3.org/Graphics/SVG/1.1/DTD/svg11.dtd">
<svg version="1.1" xmlns="http://www.w3.org/2000/svg" xmlns:xlink="http://www.w3.org/1999/xlink" viewBox="0 0 651.25 651.75">
 <g>
  <rect height="651.75" opacity="0" width="651.25" x="0" y="0"/>
  <path d="M651.25 326C651.25 505.5 505 651.75 325.5 651.75C146.25 651.75 0 505.5 0 326C0 146.75 146.25 0.5 325.5 0.5C505 0.5 651.25 146.75 651.25 326ZM472.75 226.75L444 250.75C435 243 428 242.25 422.5 245C393.75 259 359.5 265.75 325.5 265.75C291.75 265.75 257.25 259 228.5 245C223 242.25 216 242.75 207.25 250.75L178.25 226.75C171.75 221.5 163.5 220.75 158.5 227C153.75 233.5 155.25 241.75 161.5 246.75L191 271.25C179.75 291 172 317 169 342.5L134.5 342.75C126 342.75 120.75 347.5 120.75 355.5C120.75 363.25 126 368.5 134.5 368.5L167.5 368.5C168 401 175.75 430.25 189.25 454L160.5 478C154 483.25 152.5 491.5 157.5 497.25C162.5 503.75 170.75 503.25 177.25 497.75L204 476C226.5 503.75 258.5 522 297.25 526.25C309.5 527.25 315.25 523 315.25 514L315.25 304.5C315.25 299 319.75 294.5 325.5 294.5C331.25 294.5 335.75 299 335.75 304.5L335.75 514C335.75 523 341.5 527.25 353.75 526.25C392.5 522 424.5 503.75 447 476L473.75 497.75C480.25 503.25 488.5 503.75 493.5 497.25C498.5 491.5 497 483.25 490.5 478L461.75 454C475.25 430.25 483 401 483.5 368.5L516.5 368.5C525 368.5 530.25 363.25 530.25 355.5C530.25 347.5 525.25 342.75 516.75 342.75L482 342.5C479 317 471.25 291 460.25 271.25L489.5 246.75C495.5 241.75 497.25 233.5 492.5 227C487.25 220.75 479.5 221.5 472.75 226.75ZM284.25 424.5C284.25 441.5 269.5 455.5 252.75 455.5C235.5 455.5 221.25 441.5 221.25 424.5C221.25 407.25 235.5 393 252.75 393C269.5 393 284.25 407.25 284.25 424.5ZM429.75 424.5C429.75 441.5 415.5 455.5 398.5 455.5C381.75 455.5 366.75 441.5 366.75 424.5C366.75 407.25 381.75 393 398.5 393C415.5 393 429.75 407.25 429.75 424.5ZM275.75 331.75C275.75 346.5 263 359.25 248.25 359.25C233 359.25 220.5 346.5 220.5 331.75C220.5 316.5 233 304 248.25 304C263 304 275.75 316.75 275.75 331.75ZM430.75 331.75C430.75 346.5 418 359.25 403 359.25C388 359.25 375.5 346.5 375.5 331.75C375.5 316.75 388 304 403 304C418 304 430.75 316.5 430.75 331.75ZM399.25 101.75L382.5 109C367.75 115 359 125 360 139L360.5 141.25C349.75 138 338 136.25 325.5 136.25C313 136.25 301.25 138 290.5 141.25L290.75 139C292 125.25 283.25 115 268.5 109L251.75 101.75C235.5 95.5 227 120.5 243 125.25L258 131.25C265.5 133.75 267.75 138 266.75 144.25L266 151.25C243 164.5 230 185.5 230 209.25C230 219 233.5 226 244.75 231.25C264.75 240.5 294.5 246 325.5 246C356.25 246 386.25 240.5 406 231.25C417.5 226 421 219 421 209.25C421 185.5 408 164.5 385 151.25L384.25 144.25C383 138 385.25 133.75 392.75 131.25L408 125.25C424 120.5 415.5 95.5 399.25 101.75Z" fill="black" fill-opacity="0.85"/>
 </g>
</svg>
