<?xml version="1.0" encoding="UTF-8"?>
<!--Generator: Apple Native CoreSVG 326-->
<!DOCTYPE svg
PUBLIC "-//W3C//DTD SVG 1.1//EN"
       "http://www.w3.org/Graphics/SVG/1.1/DTD/svg11.dtd">
<svg version="1.1" xmlns="http://www.w3.org/2000/svg" xmlns:xlink="http://www.w3.org/1999/xlink" viewBox="0 0 719.75 754.25">
 <g>
  <rect height="754.25" opacity="0" width="719.75" x="0" y="0"/>
  <path d="M359.75 754.25C527.25 754.25 638.75 639 638.75 465.5C638.75 370.25 596.25 272 529.75 214.25C529.25 126.75 461 72 359.75 72C258.5 72 190.5 127 190 214.5C123 273 81 369.25 81 465.5C81 639 192.5 754.25 359.75 754.25ZM359.75 286C417.75 286 475.5 274.5 512.5 258.25C554.75 301 595.5 376.75 595.5 465.5C595.5 612.75 501.25 711 359.75 711C218.5 711 124.25 612.75 124.25 465.5C124.25 377.25 163.5 302.25 207.25 258.25C244 274.5 302 286 359.75 286ZM340.5 723L377.25 723L377.25 347.25C377.25 337.25 369 329 358.75 329C348.75 329 340.5 337.25 340.5 347.25ZM256 400.75C278.5 400.75 296.5 382.25 296.5 360C296.5 337.75 278.75 319.25 256 319.25C234 319.25 215.75 337.75 215.75 360C215.75 382 234 400.75 256 400.75ZM217.5 529.5C243.5 529.5 264.75 508.25 264.75 482C264.75 456 243.5 434.75 217.5 434.75C191.25 434.75 170 456 170 482C170 508.25 191.25 529.5 217.5 529.5ZM256 639.25C276.5 639.25 293 622.75 293 602.5C293 582 276.5 565.75 256 565.75C235.75 565.75 219.25 582 219.25 602.5C219.25 622.75 235.75 639.25 256 639.25ZM463.75 400.75C485.75 400.75 504 382 504 360C504 337.75 485.75 319.25 463.75 319.25C441 319.25 423 337.75 423 360C423 382.25 441.25 400.75 463.75 400.75ZM502.25 529.5C528.25 529.5 549.5 508.25 549.5 482C549.5 456 528.25 434.75 502.25 434.75C476.25 434.75 455 456 455 482C455 508.25 476.25 529.5 502.25 529.5ZM463.75 639.25C484 639.25 500.5 622.75 500.5 602.5C500.5 582 484 565.75 463.75 565.75C443.25 565.75 426.75 582 426.75 602.5C426.75 622.75 443.25 639.25 463.75 639.25ZM215.5 46.75L241.5 57.75C255.25 63 260.5 70.5 258 82.25L254.25 100.5L294.75 100L297.5 82.25C301.25 53.5 287.75 32.75 258.5 21.25L229.75 8.5C202.5-1.25 189 38.5 215.5 46.75ZM504.25 46.75C530.75 38.5 517.25-1.25 490 8.5L461.25 21.25C432 32.75 418.5 53.5 422.25 82.25L425 100L465.5 100.5L461.75 82.25C459.25 70.5 464.5 63 478.25 57.75ZM159.5 271.25L99 220.75C88.5 212 75 211.25 66.5 221.5C58.25 231.75 61.25 245 71.5 253.5L133 304.75ZM101 425.25L23 425.25C9 425.25 0 433.75 0 446.75C0 459.75 9 468.25 23 468.25L101 468ZM129.75 613.75L69.5 663.75C59.25 672.25 56.25 685.5 65 695.75C73.25 706.25 86.75 705.25 97.25 696.5L156.75 646.75ZM560 271.75L586.25 305.25L648.25 253.5C658.5 245 661.5 231.75 653.25 221.5C644.75 211.25 631.25 212 620.75 220.75ZM618.75 425.25L618.75 468L696.75 468.25C710.75 468.25 719.75 459.75 719.75 446.75C719.75 433.75 710.75 425.25 696.75 425.25ZM589.5 613.25L563 646.5L622.5 696.5C633 705.25 646.5 706.25 654.75 695.75C663.5 685.5 660.5 672.25 650.25 663.75Z" fill="black" fill-opacity="0.85"/>
 </g>
</svg>
