<?xml version="1.0" encoding="UTF-8"?>
<!--Generator: Apple Native CoreSVG 326-->
<!DOCTYPE svg
PUBLIC "-//W3C//DTD SVG 1.1//EN"
       "http://www.w3.org/Graphics/SVG/1.1/DTD/svg11.dtd">
<svg version="1.1" xmlns="http://www.w3.org/2000/svg" xmlns:xlink="http://www.w3.org/1999/xlink" viewBox="0 0 676.75 605.25">
 <g>
  <rect height="605.25" opacity="0" width="676.75" x="0" y="0"/>
  <path d="M0 142.25C0 381 142.75 537.5 362.75 537.5C515.75 537.5 623.5 438.75 623.5 299.5C623.5 165.75 514.75 69 363.75 69C311.75 69 258.5 84 199.25 84C147.5 84 104 68 68.5 27.25C51 7.25 17.75 5.75 9.75 39.25C2 70 0 124.75 0 142.25ZM41.75 142.25C41.75 117.25 42.5 92.5 45.75 73.75C46.5 68.75 49.5 68.25 53 71.75C90.75 107.75 148 125.75 199.25 125.75C233.5 125.75 265.25 121.25 293.5 117.5C319 113.75 342 110.75 363.75 110.75C491.5 110.75 581.75 189.25 581.75 299.5C581.75 415.25 492.25 495.75 362.75 495.75C166.25 495.75 41.75 358 41.75 142.25ZM187 217C206.5 276 263.25 302 347.5 322.75C451.25 347.75 501 370.75 546.5 429.75C579.75 471.5 588.75 520.25 609 584.75C613.75 599.75 624 605.25 635.25 605.25C658.5 605.25 676.75 583.75 676.75 557C676.75 511.75 625.5 435 592 392.25C546.5 336 473.5 303.75 361.5 284.5C294 271.75 242 255.5 205.5 208C196.75 196.25 183 204.25 187 217Z" fill="black" fill-opacity="0.85"/>
 </g>
</svg>
