<?xml version="1.0" encoding="UTF-8"?>
<!--Generator: Apple Native CoreSVG 326-->
<!DOCTYPE svg
PUBLIC "-//W3C//DTD SVG 1.1//EN"
       "http://www.w3.org/Graphics/SVG/1.1/DTD/svg11.dtd">
<svg version="1.1" xmlns="http://www.w3.org/2000/svg" xmlns:xlink="http://www.w3.org/1999/xlink" viewBox="0 0 876.07 813.25">
 <g>
  <rect height="813.25" opacity="0" width="876.07" x="0" y="0"/>
  <path d="M537.785 813.25C764.285 813.25 876.035 609.5 876.035 498.25C876.035 461.75 831.285 460.25 827.035 494.25C810.535 630.25 703.035 726 583.785 726C458.285 726 359.285 634.25 359.285 516.75C359.285 401.75 438.285 281.5 553.035 281.5C589.285 281.5 588.785 302.5 626.785 302.5C681.785 302.5 801.535 218.75 801.535 157.75C801.535 118.75 740.535 94.25 639.535 94.25C568.035 94.25 542.785 111.75 538.535 144.5C534.535 170.25 520.285 184 495.035 184C321.285 184 182.035 318.25 182.035 490.75C182.035 680.75 328.035 813.25 537.785 813.25ZM302.785 146.25C293.035 165 297.785 186.25 316.035 197L367.785 227L456.285 194.25L362.285 149.5L374.285 100.25L438.035 89C462.035 84.75 455.285 45.25 425.535 54.75C409.035 60 397.285 43.5 406.035 28.75C419.535 5.75 380.535-10.25 372.785 12.5C367.285 28.75 349.035 31 341.035 14C329.285-10.75 293.535 5.5 307.535 28.75L337.035 78ZM457.035 427.5L533.285 431.75L561.285 482C574.035 505.75 608.535 481.25 591.285 461.75C579.535 448 591.035 430 607.535 433.5C631.285 438.5 637.285 396.5 610.535 396.75C593.035 396.75 584.535 378.5 597.535 366.75C620.785 345.75 590.035 320 574.035 338.75L532.285 388.25L483.785 374L492.285 270.5L419.285 330.75L419.785 390.25C419.785 411.75 435.785 426.25 457.035 427.5ZM119.035 553L77.5351 617.25L19.7851 616C-8.46493 615.25-4.96493 654.75 20.7851 652.25C38.7851 650.5 49.7851 667.75 38.2851 680.25C20.7851 699 55.5351 726.5 69.0351 701.5C78.0351 685.75 97.7851 688.25 101.785 704.75C109.035 737.5 146.785 723.5 137.785 698.75L115.535 638L152.035 603.25L234.785 660L218.785 567.25L170.035 539.75C151.285 528.75 130.785 535 119.035 553ZM454.035 522.5C436.285 510.75 415.035 513.25 401.785 530.25L365.785 577.5L388.535 669L444.035 581.5L491.035 599.25L494.535 663.75C496.285 688.5 536.535 685.75 530.285 655.5C526.785 638 544.785 628.5 558.785 639.5C580.035 655.5 600.285 617.5 578.035 607.75C562.285 600.5 564.285 577.5 582.035 575.5C607.785 573.25 594.535 529.75 570.035 541.25L517.535 564.75Z" fill="black" fill-opacity="0.85"/>
 </g>
</svg>
