<?xml version="1.0" encoding="UTF-8"?>
<!--Generator: Apple Native CoreSVG 326-->
<!DOCTYPE svg
PUBLIC "-//W3C//DTD SVG 1.1//EN"
       "http://www.w3.org/Graphics/SVG/1.1/DTD/svg11.dtd">
<svg version="1.1" xmlns="http://www.w3.org/2000/svg" xmlns:xlink="http://www.w3.org/1999/xlink" viewBox="0 0 651.25 651.75">
 <g>
  <rect height="651.75" opacity="0" width="651.25" x="0" y="0"/>
  <path d="M651.25 326C651.25 505.5 505 651.75 325.5 651.75C146.25 651.75 0 505.5 0 326C0 146.75 146.25 0.5 325.5 0.5C505 0.5 651.25 146.75 651.25 326ZM244 133.5L258 156.75L241.5 189.75C237.25 198 239.25 208.25 248 213.5L265.25 223.75C216.75 247.75 184 296.5 184 354.5C184 364.5 185 374 186.5 383.25L177.75 378.25C168.75 373 159 376 153.5 384.75L133.75 415.5L106 415C92.5 414.75 94.5 433.25 106.5 432C115.25 431 120.5 439.5 114.75 445.75C106.5 454.75 122.75 467.75 129.5 455.5C133.25 448 143.25 448.75 145.25 457.25C148.5 473 166.5 466.25 162.5 454.75L151.75 425.25L169 408.5L204.25 432.25C231.25 479.75 285.5 509.25 354 509.25C462.5 509.25 516 411.75 516 358.25C516 341 495 340.25 493 356.5C484.75 421.75 433.5 467.75 376 467.75C340.5 467.75 309.25 452 289.75 427.5L308.75 398.25L331.5 406.75L332.75 437.75C333.75 449.5 352.5 448 350 434C348 425.5 357 420.75 364 426C373.75 433.75 383.25 416.25 373 411.25C365.25 407.75 366.5 398 375 395.25C386.5 391.5 380.5 374.25 369.25 379.25L344.25 390.75L313.25 370C305 364.5 294.75 365.5 289 373.75L272.25 395.25C269.75 386.25 268.25 377 268.25 367.25C268.25 337.5 279 307.75 297.25 285.75L297.5 306.25C297.5 316.5 305.25 323.25 315 323.75L351.75 325.75L365.25 350C371.5 361.5 386.5 351 379.5 341C374.25 333.5 379.5 325.25 387.25 326.75C398.5 329.25 401.5 309.5 389 309.75C380.25 309.75 376.25 300.75 382.5 294.75C393 284.75 379 272.75 371.5 281.75L351.25 305.5L327.75 298.75L331 260.25C340.5 256.25 350.25 254.25 361.25 254.25C379 254.25 378.75 264.5 396.75 264.5C423 264.5 480.25 224.25 480.25 195C480.25 176.25 451 164.75 403 164.75C368.75 164.75 356.75 173.25 354.25 188.75C352.75 201.25 346 208 333.75 208C325.5 208 317 208.5 309 209.75L270 191L275.25 167.5L306.25 161.75C317.5 160 314.25 141.25 300.5 145.75C292.25 148.5 286.25 140.5 290.5 133.5C297 122.25 278.5 114.75 275 125.75C272.5 133.5 262.75 133.5 259 125.5C254 114.75 237.5 122 244 133.5Z" fill="black" fill-opacity="0.85"/>
 </g>
</svg>
