<?xml version="1.0" encoding="UTF-8"?>
<!--Generator: Apple Native CoreSVG 326-->
<!DOCTYPE svg
PUBLIC "-//W3C//DTD SVG 1.1//EN"
       "http://www.w3.org/Graphics/SVG/1.1/DTD/svg11.dtd">
<svg version="1.1" xmlns="http://www.w3.org/2000/svg" xmlns:xlink="http://www.w3.org/1999/xlink" viewBox="0 0 672.5 673.25">
 <g>
  <rect height="673.25" opacity="0" width="672.5" x="0" y="0"/>
  <path d="M336 542.25C449.75 542.25 542 450 542 336C542 222.25 449.75 130 336 130C222 130 129.75 222.25 129.75 336C129.75 450 222 542.25 336 542.25ZM336 494.75C248.25 494.75 177.25 423.75 177.25 336C177.25 248.5 248.25 177.5 336 177.5C423.5 177.5 494.5 248.5 494.5 336C494.5 423.75 423.5 494.75 336 494.75ZM336.25 61.5C353.5 61.5 367 48 367 30.75C367 13.75 353.5 0 336.25 0C319.25 0 305.5 13.75 305.5 30.75C305.5 48 319.25 61.5 336.25 61.5ZM488.75 102.5C506 102.5 519.5 89 519.5 72C519.5 54.75 506 41.25 488.75 41.25C471.75 41.25 458.25 54.75 458.25 72C458.25 89 471.75 102.5 488.75 102.5ZM600.75 214.25C618 214.25 631.5 200.75 631.5 183.5C631.5 166.5 618 153 600.75 153C583.75 153 570 166.5 570 183.5C570 200.75 583.75 214.25 600.75 214.25ZM642 367C659 367 672.5 353.5 672.5 336.5C672.5 319.25 659 305.75 642 305.75C624.75 305.75 611.25 319.25 611.25 336.5C611.25 353.5 624.75 367 642 367ZM600.75 520C618 520 631.5 506.25 631.5 489.25C631.5 472 618 458.5 600.75 458.5C583.75 458.5 570 472 570 489.25C570 506.25 583.75 520 600.75 520ZM488.75 631.75C506 631.75 519.5 618 519.5 601C519.5 583.75 506 570.25 488.75 570.25C471.75 570.25 458.25 583.75 458.25 601C458.25 618 471.75 631.75 488.75 631.75ZM336.25 672.75C353.5 672.75 367 659 367 642C367 625 353.5 611.25 336.25 611.25C319.25 611.25 305.5 625 305.5 642C305.5 659 319.25 672.75 336.25 672.75ZM183.75 631.75C200.75 631.75 214.5 618 214.5 601C214.5 583.75 200.75 570.25 183.75 570.25C166.75 570.25 153 583.75 153 601C153 618 166.75 631.75 183.75 631.75ZM71.75 520C89 520 102.5 506.25 102.5 489.25C102.5 472 89 458.5 71.75 458.5C54.75 458.5 41 472 41 489.25C41 506.25 54.75 520 71.75 520ZM30.75 367C47.75 367 61.5 353.5 61.5 336.5C61.5 319.25 47.75 305.75 30.75 305.75C13.5 305.75 0 319.25 0 336.5C0 353.5 13.5 367 30.75 367ZM71.75 214.25C89 214.25 102.5 200.75 102.5 183.5C102.5 166.5 89 153 71.75 153C54.75 153 41 166.5 41 183.5C41 200.75 54.75 214.25 71.75 214.25ZM183.75 102.5C200.75 102.5 214.5 89 214.5 72C214.5 54.75 200.75 41.25 183.75 41.25C166.75 41.25 153 54.75 153 72C153 89 166.75 102.5 183.75 102.5Z" fill="black" fill-opacity="0.85"/>
 </g>
</svg>
