<?xml version="1.0" encoding="UTF-8"?>
<!--Generator: Apple Native CoreSVG 326-->
<!DOCTYPE svg
PUBLIC "-//W3C//DTD SVG 1.1//EN"
       "http://www.w3.org/Graphics/SVG/1.1/DTD/svg11.dtd">
<svg version="1.1" xmlns="http://www.w3.org/2000/svg" xmlns:xlink="http://www.w3.org/1999/xlink" viewBox="0 0 735.5 702.25">
 <g>
  <rect height="702.25" opacity="0" width="735.5" x="0" y="0"/>
  <path d="M614.5 369C619.75 369 623.25 365.5 624 360C635.5 273.75 638.5 272.75 726 257.75C732 256.75 735.5 253.75 735.5 248.25C735.5 243 732 239.75 727 238.75C639.25 222 635.5 223 624 136.5C623.25 131 619.75 127.5 614.5 127.5C609.5 127.5 605.75 131 605.25 136.25C593.25 223.5 591.5 225.25 502 238.75C497.25 239.5 493.5 243 493.5 248.25C493.5 253.5 497.25 256.75 502 257.75C591.5 275 593 274.25 605.25 360.5C605.75 365.5 609.5 369 614.5 369ZM460.25 155.25C463.5 155.25 465.5 153.25 466 150C475.5 96 475.75 94 532.5 83.5C535.75 83 538 81 538 77.75C538 74.25 535.75 72.5 532.5 71.75C476 60.25 478 58.5 466 5.25C465.5 2 463.5 0 460.25 0C457 0 455.25 2 454.5 5.25C442.75 58.5 445.25 60.25 388.25 71.75C385 72.5 382.75 74.25 382.75 77.75C382.75 81 385 83 388.25 83.5C445.25 95 444.75 96 454.5 150C455.25 153.25 457 155.25 460.25 155.25Z" fill="black" fill-opacity="0.85"/>
  <path d="M372.75 662.5C480.25 662.5 581.5 604.75 625.25 506C630.5 493.75 629 484 623.5 478.25C618.5 473 609.5 471.75 598.75 475.75C574 485.5 544.75 491.25 507 491.25C361 491.25 273.75 406.75 273.75 261.75C273.75 224.25 280.5 186.25 291.75 163.5C297.25 152 296.75 141.75 291.5 135.5C285.75 129.25 275.5 126.75 261.75 132.75C165.5 174.75 99 275.5 99 386.5C99 540.25 214.5 662.5 372.75 662.5ZM372.75 620.5C238.25 620.5 141 516.25 141 388C141 306 182.75 236.75 245.5 190.75C237.5 212.25 233.25 243 233.25 272.75C233.25 432.75 335.25 532 497.25 532C523.75 532 548.75 528.25 565.5 523.25C526 581.25 457.5 620.5 372.75 620.5Z" fill="black" fill-opacity="0.85"/>
 </g>
</svg>
