<?xml version="1.0" encoding="UTF-8"?>
<!--Generator: Apple Native CoreSVG 326-->
<!DOCTYPE svg
PUBLIC "-//W3C//DTD SVG 1.1//EN"
       "http://www.w3.org/Graphics/SVG/1.1/DTD/svg11.dtd">
<svg version="1.1" xmlns="http://www.w3.org/2000/svg" xmlns:xlink="http://www.w3.org/1999/xlink" viewBox="0 0 651.25 651.75">
 <g>
  <rect height="651.75" opacity="0" width="651.25" x="0" y="0"/>
  <path d="M325.5 651.25C505 651.25 651.25 505 651.25 325.75C651.25 146.25 505 0 325.5 0C146.25 0 0 146.25 0 325.75C0 505 146.25 651.25 325.5 651.25Z" fill="black" fill-opacity="0.2125"/>
  <path d="M46.5 325.75C46.75 170.5 170.5 46.75 325.75 46.75C337.75 46.75 349.5 47.5 360.75 49.25C263.75 101.25 206.75 201.5 206.75 326C206.75 449.5 263.25 549.75 359.5 602.25C348.25 604 337 604.75 325.5 604.75C170.25 604.75 46.25 481 46.5 325.75ZM325.5 651.25C505 651.25 651.25 505 651.25 325.75C651.25 146.25 505 0 325.5 0C146.25 0 0 146.25 0 325.75C0 505 146.25 651.25 325.5 651.25Z" fill="black" fill-opacity="0.85"/>
 </g>
</svg>
