<?xml version="1.0" encoding="UTF-8"?>
<!--Generator: Apple Native CoreSVG 326-->
<!DOCTYPE svg
PUBLIC "-//W3C//DTD SVG 1.1//EN"
       "http://www.w3.org/Graphics/SVG/1.1/DTD/svg11.dtd">
<svg version="1.1" xmlns="http://www.w3.org/2000/svg" xmlns:xlink="http://www.w3.org/1999/xlink" viewBox="0 0 651.25 651.75">
 <g>
  <rect height="651.75" opacity="0" width="651.25" x="0" y="0"/>
  <path d="M651.25 326C651.25 505.5 505 651.75 325.5 651.75C146.25 651.75 0 505.5 0 326C0 146.75 146.25 0.5 325.5 0.5C505 0.5 651.25 146.75 651.25 326ZM163 472.25C156.75 472.25 152 476.75 152 483C152 489.5 156.75 494 163 494L521 494C527.5 494 532 489.5 532 483C532 476.5 527.5 472.25 521 472.25ZM129.5 427.5C123.25 427.5 118.5 432.25 118.5 438.25C118.5 444.75 123.25 449.5 129.5 449.5L487.75 449.5C494 449.5 498.75 444.75 498.75 438.25C498.75 432.25 494 427.5 487.75 427.5ZM163 383C156.75 383 152 387.75 152 394C152 400.5 156.75 404.75 163 404.75L521 404.75C527.5 404.75 532 400.5 532 394C532 387.5 527.5 383 521 383ZM269.5 130C218.5 152.5 183.75 205.5 183.75 268C183.75 303.75 195.25 335.5 215 360.25L446.75 360.25C454.5 351.75 460.5 341.5 465.5 330.5C468.5 324 467.75 318.25 464.25 314.25C461.25 311.5 456.25 310.75 450 313C436.75 318.25 421.25 321 402.25 321C325.75 321 277.75 274 277.75 198.75C277.75 179.25 281.25 159.25 287 147.5C290.25 141.25 289.5 135.5 286.75 131.5C283.25 127.5 276.75 126.75 269.5 130Z" fill="black" fill-opacity="0.85"/>
 </g>
</svg>
