<?xml version="1.0" encoding="UTF-8"?>
<!--Generator: Apple Native CoreSVG 326-->
<!DOCTYPE svg
PUBLIC "-//W3C//DTD SVG 1.1//EN"
       "http://www.w3.org/Graphics/SVG/1.1/DTD/svg11.dtd">
<svg version="1.1" xmlns="http://www.w3.org/2000/svg" xmlns:xlink="http://www.w3.org/1999/xlink" viewBox="0 0 651.25 651.75">
 <g>
  <rect height="651.75" opacity="0" width="651.25" x="0" y="0"/>
  <path d="M651.25 326C651.25 505.5 505 651.75 325.5 651.75C146.25 651.75 0 505.5 0 326C0 146.75 146.25 0.5 325.5 0.5C505 0.5 651.25 146.75 651.25 326ZM324 311.25C302.5 311.25 286 291 275 294.5L197.5 396C185.5 411.75 191.75 434.5 215.25 434.5L529.5 434.5C552.75 434.5 559.25 412 547 396L469.75 294.5C458.75 291.25 442.25 311.25 420.75 311.25C396 311.25 386.75 291.75 372.5 291.75C358.25 291.75 349 311.25 324 311.25ZM215.5 256.5L105 394C91.25 411.25 97.75 434.5 121.75 434.5L174 434.5C165.75 419.5 166.5 398.75 179 382.25L268 266.75L259.5 256.5C246.5 240.5 228.75 240.5 215.5 256.5ZM350 196L288.5 276.5C302.25 281.25 313.25 292.75 324 292.75C337.25 292.75 348.75 273 372.5 273C396.25 273 407.5 292.75 420.75 292.75C431.25 292.75 442.5 281.5 456.5 276.5L395.25 196C382.5 179.5 363 179 350 196Z" fill="black" fill-opacity="0.85"/>
 </g>
</svg>
