<?xml version="1.0" encoding="UTF-8"?>
<!--Generator: Apple Native CoreSVG 326-->
<!DOCTYPE svg
PUBLIC "-//W3C//DTD SVG 1.1//EN"
       "http://www.w3.org/Graphics/SVG/1.1/DTD/svg11.dtd">
<svg version="1.1" xmlns="http://www.w3.org/2000/svg" xmlns:xlink="http://www.w3.org/1999/xlink" viewBox="0 0 679 664.25">
 <g>
  <rect height="664.25" opacity="0" width="679" x="0" y="0"/>
  <path d="M0 299.5C0 364.5 33 412.75 77.25 412.75C121.5 412.75 154.75 364.5 154.75 299.5C154.75 234.75 121.5 186 77.25 186C33 186 0 234.75 0 299.5ZM156.5 113.25C156.5 178 190 226.5 234 226.5C278.5 226.5 311.5 178 311.5 113.25C311.5 48 278.5 0 234 0C190 0 156.5 48 156.5 113.25ZM367.25 113.25C367.25 178 400.5 226.5 444.75 226.5C489 226.5 522.25 178 522.25 113.25C522.25 48 489 0 444.75 0C400.25 0 367.25 48 367.25 113.25ZM524.25 299.5C524.25 364.5 557.25 412.75 601.75 412.75C646 412.75 679 364.5 679 299.5C679 234.75 646 186 601.75 186C557.25 186 524.25 234.75 524.25 299.5ZM94.75 553.5C94.75 617.75 139.5 664 204.25 664C236.25 664 259.5 654.75 282 646.5C300.75 639.5 318 633.5 339.25 633.5C360.5 633.5 378 639.5 396.5 646.5C419 654.75 442.5 664 474.5 664C539 664 583.75 617.75 583.75 553.5C583.75 496.5 549 467.25 516.5 440.75C499 426.5 482 413 470.75 395.5C461.75 381.5 454.25 366 447.25 350.75C424.5 301.25 404.5 251.75 339.25 251.75C273.75 251.75 254 301.5 231.25 350.75C224.5 365.75 217.25 381 208.25 394.5C197 412.25 179.75 426.25 162 440.75C129.5 467.5 94.75 496.75 94.75 553.5Z" fill="black" fill-opacity="0.85"/>
 </g>
</svg>
