<?xml version="1.0" encoding="UTF-8"?>
<!--Generator: Apple Native CoreSVG 326-->
<!DOCTYPE svg
PUBLIC "-//W3C//DTD SVG 1.1//EN"
       "http://www.w3.org/Graphics/SVG/1.1/DTD/svg11.dtd">
<svg version="1.1" xmlns="http://www.w3.org/2000/svg" xmlns:xlink="http://www.w3.org/1999/xlink" viewBox="0 0 651.25 651.75">
 <g>
  <rect height="651.75" opacity="0" width="651.25" x="0" y="0"/>
  <path d="M325.5 651.25C505.25 651.25 651.25 505.5 651.25 325.75C651.25 146 505.25 0 325.5 0C145.75 0 0 146 0 325.75C0 505.5 145.75 651.25 325.5 651.25ZM325.5 604.75C171.25 604.75 46.5 480 46.5 325.75C46.5 171.5 171.25 46.75 325.5 46.75C479.75 46.75 604.5 171.5 604.5 325.75C604.5 480 479.75 604.75 325.5 604.75Z" fill="black" fill-opacity="0.85"/>
  <path d="M155.25 299.75C155.25 332.25 171.75 356.5 194 356.5C216.25 356.5 233 332.25 233 299.75C233 267.25 216.25 242.75 194 242.75C171.75 242.75 155.25 267.25 155.25 299.75ZM233.75 206.25C233.75 238.75 250.75 263.25 272.75 263.25C295 263.25 311.5 238.75 311.5 206.25C311.5 173.75 295 149.5 272.75 149.5C250.75 149.5 233.75 173.75 233.75 206.25ZM339.5 206.25C339.5 238.75 356 263.25 378 263.25C400.25 263.25 417 238.75 417 206.25C417 173.75 400.25 149.5 378 149.5C356 149.5 339.5 173.75 339.5 206.25ZM418 299.75C418 332.25 434.75 356.5 457 356.5C479 356.5 495.75 332.25 495.75 299.75C495.75 267.25 479 242.75 457 242.75C434.75 242.75 418 267.25 418 299.75ZM203 426.5C203 459 225.25 482 257.75 482C273.75 482 285.5 477.75 296.75 473.5C306 470 314.75 467 325.5 467C336 467 344.75 470 354 473.5C365.25 477.75 377 482 393 482C425.5 482 447.75 459 447.75 426.5C447.75 398.5 430.5 383.75 414.25 370.25C405.5 363.25 397 356.5 391.25 347.5C386.75 340.75 382.75 332.75 379.5 325.25C368.25 300.5 358.25 276 325.5 276C292.5 276 282.5 300.5 271.5 325.25C268 332.5 264.25 340.5 259.75 347C254 356.25 245.25 363.25 236.5 370.25C220.25 383.75 203 398.5 203 426.5Z" fill="black" fill-opacity="0.85"/>
 </g>
</svg>
