<?xml version="1.0" encoding="UTF-8"?>
<!--Generator: Apple Native CoreSVG 326-->
<!DOCTYPE svg
PUBLIC "-//W3C//DTD SVG 1.1//EN"
       "http://www.w3.org/Graphics/SVG/1.1/DTD/svg11.dtd">
<svg version="1.1" xmlns="http://www.w3.org/2000/svg" xmlns:xlink="http://www.w3.org/1999/xlink" viewBox="0 0 651.25 651.75">
 <g>
  <rect height="651.75" opacity="0" width="651.25" x="0" y="0"/>
  <path d="M651.25 326C651.25 505.5 505 651.75 325.5 651.75C146.25 651.75 0 505.5 0 326C0 146.75 146.25 0.5 325.5 0.5C505 0.5 651.25 146.75 651.25 326ZM323.75 283.25C315 280.75 308 279.5 299.75 279.5C264.75 279.5 236.25 304.75 231 339.25C194.75 340.25 165.75 370 165.75 405.25C165.75 442.5 193.5 471.25 234 471.25L462 471.25C507.75 471.25 539 439.75 539 398.25C539 362.5 513.25 332.75 478.5 326.25C476.5 281.75 440.75 245.25 395 245.25C365 245.25 339.25 259.75 323.75 283.25ZM158.75 234C123.5 240.75 98.25 270.5 98.25 306.25C98.25 338 117 364.75 149.25 375C159.5 347.25 183.75 326 213.25 319.5C225.75 283 259.5 257 299.75 257C304.75 257 310.25 257.75 315.25 258.5C334.75 235.75 362.5 223.75 393.75 223.5C388 204.25 368.5 187.75 337.5 187.75C328.5 187.75 321.75 189.25 313.5 191.75C297.25 167.5 272 153 243.25 153C198 153 160.5 189.25 158.75 234Z" fill="black" fill-opacity="0.85"/>
 </g>
</svg>
