<?xml version="1.0" encoding="UTF-8"?>
<!--Generator: Apple Native CoreSVG 326-->
<!DOCTYPE svg
PUBLIC "-//W3C//DTD SVG 1.1//EN"
       "http://www.w3.org/Graphics/SVG/1.1/DTD/svg11.dtd">
<svg version="1.1" xmlns="http://www.w3.org/2000/svg" xmlns:xlink="http://www.w3.org/1999/xlink" viewBox="0 0 651.25 651.75">
 <g>
  <rect height="651.75" opacity="0" width="651.25" x="0" y="0"/>
  <path d="M651.25 326C651.25 505.5 505 651.75 325.5 651.75C146.25 651.75 0 505.5 0 326C0 146.75 146.25 0.5 325.5 0.5C505 0.5 651.25 146.75 651.25 326ZM208 447L209 468L191.5 456.25C187.5 453.5 181.5 454 179.25 458.75C176.5 462.75 178 468.25 183.25 471.5L201.5 480.75L183.25 489.75C177.75 492.5 176.5 498.25 178.75 502.5C181 507.25 187.25 508.25 191.5 505.5L209 493.75L208.25 514.75C208 519.75 211.25 524.5 216.75 524.5C221.75 524.5 225.5 519.75 225 514.75L224 493.75L241.5 505.5C245.25 508 251.25 506.75 253.75 503C256.75 498.75 255.25 492.5 249.75 489.75L231.5 480.75L249.75 471.25C255 468.25 256.25 463.25 254 458.75C251.75 454.25 245.25 453.75 241.5 456.25L224 468L225 447.25C225.5 441.75 221.75 437.25 216.75 437.25C211.25 437.25 207.75 441.75 208 447ZM316.5 447L317.5 468L300 456.25C296 453.5 290.25 454 287.75 458.75C285 462.75 286.5 468.25 292 471.5L310 480.75L292 489.75C286.25 492.5 285 498.25 287.25 502.5C289.75 507.25 295.75 508.25 300 505.5L317.5 493.75L316.75 514.75C316.5 519.75 319.75 524.5 325.25 524.5C330.5 524.5 334 519.75 333.75 514.75L332.75 493.75L350 505.5C354 508 359.75 506.75 362.5 503C365.5 498.75 364 492.5 358.25 489.75L340.25 480.75L358.25 471.25C363.75 468.25 365 463.25 362.75 458.75C360.25 454.25 354 453.75 350 456.25L332.75 468L333.75 447.25C334 441.75 330.5 437.25 325.25 437.25C319.75 437.25 316.25 441.75 316.5 447ZM425 447L426.25 468L408.5 456.25C404.75 453.5 398.75 454 396.5 458.75C393.75 462.75 395.25 468.25 400.5 471.5L418.75 480.75L400.5 489.75C394.75 492.5 394 498.25 396 502.5C398.25 507.25 404.5 508.25 408.5 505.5L426.25 493.75L425.25 514.75C425 519.75 428.5 524.5 433.75 524.5C439 524.5 442.5 519.75 442.25 514.75L441.25 493.75L458.5 505.5C462.5 508 468.5 506.75 471 503C474 498.75 472.25 492.5 467 489.75L448.75 480.75L467 471.25C472 468.25 473.75 463.25 471.25 458.75C469 454.25 462.5 453.5 458.5 456.25L441.25 468L442.25 447.25C442.5 441.75 439 437.25 433.75 437.25C428.5 437.25 424.75 441.75 425 447ZM135.75 379C126.5 379 118.5 385.75 118.5 395C118.5 404.25 126.75 411 135.75 411L515 411C524 411 532 404.25 532 395C532 385.75 524.25 379 515 379ZM227.25 322.25C227.25 334 229.75 345.75 234 356.25L416.5 356.25C420.75 345.75 423.5 334 423.5 322.25C423.5 268.25 379.25 223.75 325.25 223.75C271.5 223.75 227.25 268.25 227.25 322.25ZM136 301.5C126 301.5 118.5 309 118.5 318C118.5 327 126 334.25 136 334.25L184 334.25C194.5 334.25 202 327.25 202 318C202 308.75 194.25 301.5 184 301.5ZM466.5 301.5C456.25 301.5 448.5 308.75 448.5 318C448.5 327.25 456.75 334.25 466.5 334.25L514.75 334.25C524.75 334.25 532 327 532 318C532 309 524.75 301.5 514.75 301.5ZM178.75 176.5C173 183.25 173 192.75 180.25 200L214.25 234.25C221.25 241 231.5 241.75 238 235C244.75 228.5 244 218 237.25 211L202.5 176.75C195.5 169.25 185.25 170.5 178.75 176.5ZM448 176.75L413.5 211C406.25 218.25 406 228.5 412.75 235C419.25 241.25 429.5 241.25 436.5 234.25L470.25 200C477.5 192.75 477.75 183.25 471.75 176.5C465.25 170 454.75 169.5 448 176.75ZM309 121.75L309 169.75C309 179.75 316.25 187.75 325.25 187.75C334.5 187.75 341.5 179.25 341.5 169.75L341.5 121.75C341.5 111.5 334.25 104.25 325.25 104.25C316.25 104.25 309 111.5 309 121.75Z" fill="black" fill-opacity="0.85"/>
 </g>
</svg>
