<?xml version="1.0" encoding="UTF-8"?>
<!--Generator: Apple Native CoreSVG 326-->
<!DOCTYPE svg
PUBLIC "-//W3C//DTD SVG 1.1//EN"
       "http://www.w3.org/Graphics/SVG/1.1/DTD/svg11.dtd">
<svg version="1.1" xmlns="http://www.w3.org/2000/svg" xmlns:xlink="http://www.w3.org/1999/xlink" viewBox="0 0 651.25 651.75">
 <g>
  <rect height="651.75" opacity="0" width="651.25" x="0" y="0"/>
  <path d="M325.5 651.25C505.25 651.25 651.25 505.5 651.25 325.75C651.25 146 505.25 0 325.5 0C145.75 0 0 146 0 325.75C0 505.5 145.75 651.25 325.5 651.25ZM325.5 604.75C171.25 604.75 46.5 480 46.5 325.75C46.5 171.5 171.25 46.75 325.5 46.75C479.75 46.75 604.5 171.5 604.5 325.75C604.5 480 479.75 604.75 325.5 604.75Z" fill="black" fill-opacity="0.85"/>
  <path d="M204.75 319.75C204.75 311 197.25 304 187.5 304L140.25 304C130.75 304 123.5 311.25 123.5 319.75C123.5 328.5 130.75 335.5 140.25 335.5L187.5 335.5C197.5 335.5 204.75 329 204.75 319.75ZM240 239C246.75 232.5 245.75 222.25 239.25 215.75L205.5 182C198.25 174.75 188.25 175.5 182.5 181.5C176.25 187.75 176.5 197.25 183.5 204.5L217.25 238C223.75 244.5 233.75 245.25 240 239ZM325.25 192.5C334.25 192.5 341 184.5 341 175.25L341 128C341 118 334 111 325.25 111C316.5 111 309.5 118 309.5 128L309.5 175.25C309.5 184.75 316.5 192.5 325.25 192.5ZM410.75 239C417 245 427 244.75 433.75 238L467 204.5C474 197.25 474.25 188 468.25 181.5C462 175.25 452 175 445.25 182L411.25 215.75C404.5 222.5 404.25 232.5 410.75 239ZM445.75 319.75C445.75 328.75 453.75 335.5 463 335.5L510.25 335.5C520 335.5 527.25 328.75 527.25 319.75C527.25 311 520 304 510.25 304L463 304C453.25 304 445.75 311 445.75 319.75ZM236.25 357.5L414.25 357.5C418.5 347 421.25 335.75 421.25 324C421.25 271.25 378 228 325.25 228C272.75 228 229.5 271.25 229.5 324C229.5 335.75 232 347 236.25 357.5ZM140 410.75L510.5 410.75C519.25 410.75 527.25 404 527.25 395C527.25 386 519.5 379.5 510.5 379.5L140 379.5C131.25 379.5 123.5 386.25 123.5 395C123.5 404 131.5 410.75 140 410.75ZM167 467.75C175 467.75 181.75 461 181.75 453C181.75 445.25 175 438.5 167 438.5C159.25 438.5 152.5 445.25 152.5 453C152.5 461 159.25 467.75 167 467.75ZM246.5 467.75C254.5 467.75 261 461 261 453C261 445.25 254.5 438.5 246.5 438.5C238.5 438.5 232 445.25 232 453C232 461 238.5 467.75 246.5 467.75ZM325.75 467.75C333.75 467.75 340.25 461 340.25 453C340.25 445.25 333.75 438.5 325.75 438.5C317.75 438.5 311.25 445.25 311.25 453C311.25 461 317.75 467.75 325.75 467.75ZM405 467.75C412.75 467.75 419.5 461 419.5 453C419.5 445.25 412.75 438.5 405 438.5C397 438.5 390.25 445.25 390.25 453C390.25 461 397 467.75 405 467.75ZM484.25 467.75C492 467.75 498.75 461 498.75 453C498.75 445.25 492 438.5 484.25 438.5C476.25 438.5 469.5 445.25 469.5 453C469.5 461 476.25 467.75 484.25 467.75ZM206.75 512C214.75 512 221.25 505.5 221.25 497.5C221.25 489.5 214.75 482.75 206.75 482.75C198.75 482.75 192.25 489.5 192.25 497.5C192.25 505.5 198.75 512 206.75 512ZM286 512C294 512 300.75 505.5 300.75 497.5C300.75 489.5 294 482.75 286 482.75C278.25 482.75 271.5 489.5 271.5 497.5C271.5 505.5 278.25 512 286 512ZM365.25 512C373.25 512 379.75 505.5 379.75 497.5C379.75 489.5 373.25 482.75 365.25 482.75C357.25 482.75 350.75 489.5 350.75 497.5C350.75 505.5 357.25 512 365.25 512ZM444.25 512C452.25 512 459 505.5 459 497.5C459 489.5 452.25 482.75 444.25 482.75C436.5 482.75 429.75 489.5 429.75 497.5C429.75 505.5 436.5 512 444.25 512Z" fill="black" fill-opacity="0.85"/>
 </g>
</svg>
