<?xml version="1.0" encoding="UTF-8"?>
<!--Generator: Apple Native CoreSVG 326-->
<!DOCTYPE svg
PUBLIC "-//W3C//DTD SVG 1.1//EN"
       "http://www.w3.org/Graphics/SVG/1.1/DTD/svg11.dtd">
<svg version="1.1" xmlns="http://www.w3.org/2000/svg" xmlns:xlink="http://www.w3.org/1999/xlink" viewBox="0 0 926.75 775.75">
 <g>
  <rect height="775.75" opacity="0" width="926.75" x="0" y="0"/>
  <path d="M637.75 372.25C637.75 411.546 624.444 448.021 601.998 477.25L539.739 477.25C572.28 453.586 593.5 415.221 593.5 372.25C593.5 300.75 534.75 242 463.25 242C391.75 242 333 300.75 333 372.25C333 415.221 354.22 453.586 386.761 477.25L324.734 477.25C302.306 448.021 289 411.546 289 372.25C289 276.75 368 197.75 463.25 197.75C558.75 197.75 637.75 276.75 637.75 372.25ZM228.25 364C228.5 376.5 217.75 386.25 203.75 386.25L115.25 386.25C101.5 386.25 91 376.25 91 364C91 351.75 101.5 341.75 115.25 341.75L203.75 341.75C217.75 341.75 228 352 228.25 364ZM835.5 364C835.5 376.5 825.5 386.25 811.5 386.25L722.75 386.25C709 386.25 698.75 376.25 698.5 364C698.25 351.75 709 341.75 722.75 341.75L811.5 341.75C825.5 341.75 835.5 352 835.5 364ZM233 110.25L295.5 173C305.5 182.75 305.5 197.25 297 206C288.5 214.75 273.75 214.5 264 204.5L201.25 142C191.25 131.75 191.25 117.75 200.25 109.25C208.75 100.75 222.75 100.25 233 110.25ZM726.5 109.25C735 118 735.5 131.75 725.25 142L662.75 204.5C652.75 214.5 638.25 214.5 629.75 206C621 197.5 621.25 182.75 631 173L693.75 110.25C703.75 100.25 718.25 100.5 726.5 109.25ZM485.5 24.25L485.5 112.75C485.5 126.75 475.5 137 463.25 137.25C451 137.5 441 126.75 441 112.75L441 24.25C441 10.25 451 0 463.25 0C475.5 0 485.5 10.25 485.5 24.25Z" fill="black" fill-opacity="0.85"/>
  <path d="M109 636.75L769 636.75C779 636.75 787 629 787 619C787 608.75 779 601.25 769 601.25L109 601.25C99 601.25 91 608.75 91 619C91 629 99 636.75 109 636.75ZM157.5 760.5L817.75 760.5C827.75 760.5 835.5 753 835.5 743C835.5 732.75 827.75 725.25 817.75 725.25L157.5 725.25C147.5 725.25 139.75 732.75 139.75 743C139.75 753 147.5 760.5 157.5 760.5ZM157.5 512.75L817.75 512.75C827.75 512.75 835.5 505 835.5 495C835.5 485 827.75 477.25 817.75 477.25L157.5 477.25C147.5 477.25 139.75 485 139.75 495C139.75 505 147.5 512.75 157.5 512.75Z" fill="black" fill-opacity="0.85"/>
 </g>
</svg>
