<?xml version="1.0" encoding="UTF-8"?>
<!--Generator: Apple Native CoreSVG 326-->
<!DOCTYPE svg
PUBLIC "-//W3C//DTD SVG 1.1//EN"
       "http://www.w3.org/Graphics/SVG/1.1/DTD/svg11.dtd">
<svg version="1.1" xmlns="http://www.w3.org/2000/svg" xmlns:xlink="http://www.w3.org/1999/xlink" viewBox="0 0 651.25 651.75">
 <g>
  <rect height="651.75" opacity="0" width="651.25" x="0" y="0"/>
  <path d="M651.25 326C651.25 505.5 505 651.75 325.5 651.75C146.25 651.75 0 505.5 0 326C0 146.75 146.25 0.5 325.5 0.5C505 0.5 651.25 146.75 651.25 326ZM163 472.5C156.75 472.5 152 477 152 483.25C152 489.75 156.75 494.25 163 494.25L521 494.25C527.5 494.25 532 489.75 532 483.25C532 476.75 527.5 472.5 521 472.5ZM129.5 427.75C123.25 427.75 118.5 432.5 118.5 438.5C118.5 445 123.25 449.75 129.5 449.75L487.75 449.75C494 449.75 498.75 445 498.75 438.5C498.75 432.5 494 427.75 487.75 427.75ZM163 383.25C156.75 383.25 152 388 152 394.25C152 400.75 156.75 405 163 405L521 405C527.5 405 532 400.75 532 394.25C532 387.75 527.5 383.25 521 383.25ZM227.25 326.5C227.25 338.5 229.75 350 234 360.5L416.5 360.5C420.75 350 423.5 338.5 423.5 326.5C423.5 272.5 379.25 228.25 325.25 228.25C271.5 228.25 227.25 272.5 227.25 326.5ZM136 306C126 306 118.5 313.5 118.5 322.25C118.5 331.25 126 338.5 136 338.5L184 338.5C194.5 338.5 202 331.75 202 322.25C202 313 194.25 306 184 306ZM466.5 306C456.25 306 448.5 313 448.5 322.25C448.5 331.5 456.75 338.5 466.5 338.5L514.75 338.5C524.75 338.5 532 331.5 532 322.25C532 313.25 524.75 306 514.75 306ZM178.75 180.5C172.75 187 173 196.75 180.25 204.25L214.25 238.5C221.25 245.25 231.5 246 238 239.5C244.75 232.75 244 222.25 237.25 215.5L202.5 181C195.25 173.75 185 174.5 178.75 180.5ZM448 181L413.5 215.5C406.25 222.5 406 232.75 412.75 239.5C419.25 245.75 429.5 245.5 436.5 238.5L470.25 204.25C477.5 196.75 477.75 187.25 471.75 180.5C465.25 174.25 454.75 174 448 181ZM309 126L309 174C309 184 316.25 192 325.25 192C334.5 192 341.5 183.75 341.5 174L341.5 126C341.5 115.75 334.25 108.5 325.25 108.5C316.25 108.5 309 115.75 309 126Z" fill="black" fill-opacity="0.85"/>
 </g>
</svg>
