<?xml version="1.0" encoding="UTF-8"?>
<!--Generator: Apple Native CoreSVG 326-->
<!DOCTYPE svg
PUBLIC "-//W3C//DTD SVG 1.1//EN"
       "http://www.w3.org/Graphics/SVG/1.1/DTD/svg11.dtd">
<svg version="1.1" xmlns="http://www.w3.org/2000/svg" xmlns:xlink="http://www.w3.org/1999/xlink" viewBox="0 0 877 775.75">
 <g>
  <rect height="775.75" opacity="0" width="877" x="0" y="0"/>
  <path d="M613 372.25C613 411.546 599.694 448.021 577.248 477.25L514.989 477.25C547.53 453.586 568.75 415.221 568.75 372.25C568.75 300.75 510 242 438.5 242C367 242 308.25 300.75 308.25 372.25C308.25 415.221 329.47 453.586 362.011 477.25L299.984 477.25C277.556 448.021 264.25 411.546 264.25 372.25C264.25 276.75 343.25 197.75 438.5 197.75C534 197.75 613 276.75 613 372.25ZM203.5 364C203.75 376.5 193 386.25 179 386.25L90.5 386.25C76.5 386.25 66.25 376.25 66.25 364C66.25 351.75 76.5 341.75 90.5 341.75L179 341.75C193 341.75 203.25 352 203.5 364ZM810.75 364C810.75 376.5 800.75 386.25 786.75 386.25L698 386.25C684.25 386.25 674 376.25 673.75 364C673.5 351.75 684.25 341.75 698 341.75L786.75 341.75C800.75 341.75 810.75 352 810.75 364ZM208.25 110.25L270.75 173C280.75 182.75 280.75 197.25 272.25 206C263.75 214.75 249 214.5 239.25 204.5L176.5 142C166.5 131.75 166.5 117.75 175.5 109.25C184 100.75 198 100.25 208.25 110.25ZM701.75 109.25C710.25 118 710.75 131.75 700.5 142L637.75 204.5C628 214.5 613.5 214.5 605 206C596.25 197.5 596.5 182.75 606.25 173L669 110.25C679 100.25 693.25 100.5 701.75 109.25ZM460.75 24.25L460.75 112.75C460.75 126.75 450.75 137.25 438.5 137.25C426.25 137.25 416.25 126.75 416.25 112.75L416.25 24.25C416.25 10.25 426.25 0 438.5 0C450.75 0 460.75 10.25 460.75 24.25Z" fill="black" fill-opacity="0.85"/>
  <path d="M238.5 665L282.75 588.5C288 579.75 285.25 569.75 277 564.75C268.5 560 258.75 562.75 253.5 571.75L209 648.75C204.25 657 206.5 667 215.25 672C223.5 676.75 233.75 673.75 238.5 665ZM314 756.75L411.25 588.25C416.25 579.5 413.75 570 405.75 565C397.75 560 387.25 562.5 382.25 571.5L285.5 739.75C280.5 748.5 282.75 758.5 291.25 763.5C299.5 768.25 309 765.5 314 756.75ZM495.25 664.75L539.5 588.25C544.75 579.5 542 569.5 533.5 564.5C525 559.75 515.5 562.5 510.25 571.5L465.75 648.5C460.75 656.75 463.25 666.75 471.75 671.75C480.25 676.5 490.25 673.5 495.25 664.75ZM570.5 756.5L668 588C673 579.25 670.5 569.75 662.5 564.75C654.5 559.75 644.25 562.25 639 571.25L542 739.5C537.25 748.25 539.5 758.25 548 763.25C556 768 565.75 765.25 570.5 756.5ZM108 512.75L768 512.75C778 512.75 786 505 786 495C786 485 778 477.25 768 477.25L108 477.25C98 477.25 90 485 90 495C90 505 98 512.75 108 512.75Z" fill="black" fill-opacity="0.85"/>
 </g>
</svg>
