<?xml version="1.0" encoding="UTF-8"?>
<!--Generator: Apple Native CoreSVG 326-->
<!DOCTYPE svg
PUBLIC "-//W3C//DTD SVG 1.1//EN"
       "http://www.w3.org/Graphics/SVG/1.1/DTD/svg11.dtd">
<svg version="1.1" xmlns="http://www.w3.org/2000/svg" xmlns:xlink="http://www.w3.org/1999/xlink" viewBox="0 0 866.75 775.75">
 <g>
  <rect height="775.75" opacity="0" width="866.75" x="0" y="0"/>
  <path d="M606 372C606 397.026 600.483 420.942 590.476 442.5L276.024 442.5C266.017 420.942 260.5 397.026 260.5 372C260.5 277.5 338.75 199 433.25 199C527.75 199 606 277.5 606 372ZM198.25 364C198.5 376.5 187.75 386.25 173.75 386.25L85.25 386.25C71.5 386.25 61 376.25 61 364C61 351.75 71.5 341.75 85.25 341.75L173.75 341.75C187.75 341.75 198 352 198.25 364ZM805.5 364C805.5 376.5 795.5 386.5 781.5 386.25L692.75 386.25C679 386.25 668.75 376.25 668.5 364C668.25 351.75 679 341.75 692.75 341.75L781.5 341.75C795.5 342 805.5 352 805.5 364ZM203 110.25L265.5 173C275.5 182.75 275.5 197.25 267 206C258.5 214.75 243.75 214.5 234 204.5L171.25 142C161.25 132 161.25 117.75 170.25 109.25C178.75 100.75 192.75 100.25 203 110.25ZM696.5 109.25C705 118 705.5 132 695.25 142L632.75 204.5C622.75 214.5 608.25 214.5 599.75 206C591 197.5 591.25 182.75 601 173L663.75 110.25C673.75 100.25 688.25 100.5 696.5 109.25ZM455.5 24.25L455.5 112.75C455.5 126.75 445.5 137 433.25 137.25C421 137.5 411 126.75 411 112.75L411 24.25C411 10.25 421 0 433.25 0C445.5 0 455.5 10.25 455.5 24.25Z" fill="black" fill-opacity="0.85"/>
  <path d="M79 636.75L739 636.75C749 636.75 757 629 757 619C757 608.75 749 601.25 739 601.25L79 601.25C69 601.25 61 608.75 61 619C61 629 69 636.75 79 636.75ZM127.5 760.5L787.75 760.5C797.75 760.5 805.5 753 805.5 743C805.5 732.75 797.75 725.25 787.75 725.25L127.5 725.25C117.5 725.25 109.75 732.75 109.75 743C109.75 753 117.5 760.5 127.5 760.5ZM127.5 512.75L787.75 512.75C797.75 512.75 805.5 505 805.5 495C805.5 485 797.75 477.25 787.75 477.25L127.5 477.25C117.5 477.25 109.75 485 109.75 495C109.75 505 117.5 512.75 127.5 512.75Z" fill="black" fill-opacity="0.85"/>
 </g>
</svg>
