<?xml version="1.0" encoding="UTF-8"?>
<!--Generator: Apple Native CoreSVG 326-->
<!DOCTYPE svg
PUBLIC "-//W3C//DTD SVG 1.1//EN"
       "http://www.w3.org/Graphics/SVG/1.1/DTD/svg11.dtd">
<svg version="1.1" xmlns="http://www.w3.org/2000/svg" xmlns:xlink="http://www.w3.org/1999/xlink" viewBox="0 0 786.25 952.25">
 <g>
  <rect height="952.25" opacity="0" width="786.25" x="0" y="0"/>
  <path d="M636.25 481.25L690 534.5C698.75 543 698.75 557.5 690 566.25C681.25 575 667 575.25 658.25 566.5L604.75 513C596 504.5 596 489.75 604.75 481.25C613.25 472.5 627.75 472.75 636.25 481.25ZM613 331.5C613 419.25 543 489.5 455.5 489.5C448.191 489.5 441.004 489.01 434.028 487.889L434.25 224.25C434.25 207.178 431.822 191.089 427.14 176.405C436.299 174.615 445.792 173.75 455.5 173.75C543 173.75 613 244 613 331.5ZM786.25 331.5C786.25 344 776.25 354 763.75 354L688.5 354C676.25 354 666 344 666 331.5C666 319 676.25 309 688.5 309L763.75 309C776.25 309 786.25 319 786.25 331.5ZM690 97.25C698.75 106 698.75 120.5 690 129.25L636.75 182.5C628 191.5 613 191.25 604.75 182.5C596.25 174 596 159.5 604.75 151L658.25 97.25C667 88.5 681.25 88.5 690 97.25ZM478.25 22.5L478.25 97.75C478.25 110 468 120.5 455.5 120.5C443 120.5 432.75 110 432.75 97.75L432.75 22.5C432.75 10 443 0 455.5 0C468 0 478.25 10 478.25 22.5Z" fill="black" fill-opacity="0.85"/>
  <path d="M302 833.5C393.25 833.5 467 759.5 467 668.5C467 620.5 447 578 408.25 544C400.75 537.5 399.25 533.25 399.25 522.75L399.5 224.25C399.5 161.75 359.75 119 302 119C244 119 204 161.75 204 224.25L204.25 522.75C204.25 533.25 202.75 537.5 195.25 544C156.5 578 136.5 620.5 136.5 668.5C136.5 759.5 210.25 833.5 302 833.5ZM302 793.5C233 793.5 177 737.25 177 668.5C177 628 195.75 591.25 230.5 567.5C241 560.5 245 553.25 245 539.75L245 225.75C245 186.25 268.25 159.5 302 159.5C335.25 159.5 358.5 186.25 358.5 225.75L358.5 539.75C358.5 553.25 362.5 560.5 373 567.5C407.75 591.25 426.5 628 426.5 668.5C426.5 737.25 370.5 793.5 302 793.5Z" fill="black" fill-opacity="0.85"/>
  <path d="M301.75 750C346.75 750 383 713.5 383 668.25C383 636.75 365.5 610.75 339.5 596.75C328.5 591 325 586.75 325 570.5L325 255C325 239.75 314.75 229.25 301.75 229.25C288.75 229.25 278.5 239.75 278.5 255L278.5 570.5C278.5 586.75 275 591 264 596.75C238 610.75 220.5 636.75 220.5 668.25C220.5 713.75 256.75 750 301.75 750Z" fill="black" fill-opacity="0.85"/>
 </g>
</svg>
