<?xml version="1.0" encoding="UTF-8"?>
<!--Generator: Apple Native CoreSVG 326-->
<!DOCTYPE svg
PUBLIC "-//W3C//DTD SVG 1.1//EN"
       "http://www.w3.org/Graphics/SVG/1.1/DTD/svg11.dtd">
<svg version="1.1" xmlns="http://www.w3.org/2000/svg" xmlns:xlink="http://www.w3.org/1999/xlink" viewBox="0 0 651.25 651.75">
 <g>
  <rect height="651.75" opacity="0" width="651.25" x="0" y="0"/>
  <path d="M325.5 651.25C505.25 651.25 651.25 505.5 651.25 325.75C651.25 146 505.25 0 325.5 0C145.75 0 0 146 0 325.75C0 505.5 145.75 651.25 325.5 651.25ZM325.5 604.75C171.25 604.75 46.5 480 46.5 325.75C46.5 171.5 171.25 46.75 325.5 46.75C479.75 46.75 604.5 171.5 604.5 325.75C604.5 480 479.75 604.75 325.5 604.75Z" fill="black" fill-opacity="0.85"/>
  <path d="M322.5 295C428.75 295 496.25 268.25 496.25 228.25C496.25 192.5 444.75 171 373 171C320.75 171 278.25 181.25 246 196.5C236.5 200.75 234.25 210.25 238 217C241.5 224.5 251 226.5 259.25 223C287.25 210.75 323.25 199.5 372 199.5C432 199.5 466 213 466 228C466 245.75 411 265.75 321.5 265.75C231.25 265.75 185 248.25 185 216C185 196.25 204 175.75 253.75 160.25C262.5 157.25 267.25 149.25 264.75 141.25C262 133.25 254.5 130 244.5 133C185.5 150.5 154.75 182.5 154.75 216.5C154.75 268 214.25 295 322.5 295ZM327.75 352.75C384 352.75 436 343.75 472.25 328.25C480 325 483.5 317 480 309.75C476.5 302.75 469 301.25 460.25 304.5C426.75 318 379 326 327.75 326C289 326 244.75 321 211.5 311.5C203 309 195.25 312 193 319.5C191 327.25 195 334.5 203.75 337C240 347.5 287.75 352.75 327.75 352.75ZM340.5 409.75C388.25 409.5 432.5 402.5 472 389.25C481.5 385.75 483.75 377 481.25 370.75C478.75 363.5 471 361 461.75 364.25C423.75 376.75 383.25 383.5 340.5 383.5C322 383.5 303.25 382.25 288.25 380C279.25 379 273 383.25 271.5 390.25C270.25 397.25 274.25 404.5 284 406.25C298.25 408.75 318.5 410 340.5 409.75ZM323.5 464C356 468 396 467.25 429.75 457.5C438.5 454.75 442 447 439.75 440C437.25 432.5 430 429.5 420.75 432C392 439.75 358 442 327.75 438C318.5 437 312 441.5 310.75 449C310 456.25 314 462.75 323.5 464ZM311 520C322.25 521.25 336.75 521.25 348.5 519.75C357.5 518.25 361.75 512.25 361 505C360 498.25 354.5 492.75 345 494.25C335 495.5 324.25 496 314 494.25C305 493 299.5 498.5 298.25 504.75C297.25 511.5 301.25 518.25 311 520Z" fill="black" fill-opacity="0.85"/>
 </g>
</svg>
