<?xml version="1.0" encoding="UTF-8"?>
<!--Generator: Apple Native CoreSVG 326-->
<!DOCTYPE svg
PUBLIC "-//W3C//DTD SVG 1.1//EN"
       "http://www.w3.org/Graphics/SVG/1.1/DTD/svg11.dtd">
<svg version="1.1" xmlns="http://www.w3.org/2000/svg" xmlns:xlink="http://www.w3.org/1999/xlink" viewBox="0 0 671.75 491.75">
 <g>
  <rect height="491.75" opacity="0" width="671.75" x="0" y="0"/>
  <path d="M335.75 104.75C421.5 104.75 435.25 39.25 489 39.25C544 39.25 552.5 104.75 650.5 104.75L652 104.75C663 104.75 671.75 96 671.75 85C671.75 74.25 663 65.5 652 65.5L650.5 65.5C614.75 65.5 594.5 50.5 570 33.25C549 18 523.75 0 489 0C453 0 427.5 19.25 406.5 34.75C384.25 51.75 365.75 65.5 335.75 65.5C305.75 65.5 287.5 51.75 265.25 34.75C244.25 19.25 218.5 0 182.75 0C147.75 0 122.5 18 101.5 33.25C77.25 50.5 57 65.5 21.25 65.5L19.5 65.5C8.75 65.5 0 74.25 0 85C0 96 8.75 104.75 19.5 104.75L21.25 104.75C119 104.75 127.75 39.25 182.75 39.25C236.5 39.25 250.25 104.75 335.75 104.75Z" fill="black" fill-opacity="0.85"/>
  <path d="M335.75 297.5C421.5 297.5 435.25 232 489 232C544 232 552.5 297.5 650.5 297.5L652 297.5C663 297.5 671.75 288.75 671.75 278C671.75 267 663 258.25 652 258.25L650.5 258.25C614.75 258.25 594.5 243.25 570 226.25C549 211 523.75 192.75 489 192.75C453 192.75 427.5 212 406.5 227.75C384.25 244.5 365.75 258.25 335.75 258.25C305.75 258.25 287.5 244.5 265.25 227.75C244.25 212 218.5 192.75 182.75 192.75C147.75 192.75 122.5 211 101.5 226.25C77.25 243.25 57 258.25 21.25 258.25L19.5 258.25C8.75 258.25 0 267 0 278C0 288.75 8.75 297.5 19.5 297.5L21.25 297.5C119 297.5 127.75 232 182.75 232C236.5 232 250.25 297.5 335.75 297.5Z" fill="black" fill-opacity="0.85"/>
  <path d="M335.75 490.5C421.5 490.5 435.25 425 489 425C544 425 552.5 490.5 650.5 490.5L652 490.5C663 490.5 671.75 481.75 671.75 470.75C671.75 460 663 451.25 652 451.25L650.5 451.25C614.75 451.25 594.5 436.25 570 419C549 403.75 523.75 385.75 489 385.75C453 385.75 427.5 405 406.5 420.5C384.25 437.5 365.75 451.25 335.75 451.25C305.75 451.25 287.5 437.5 265.25 420.5C244.25 405 218.5 385.75 182.75 385.75C147.75 385.75 122.5 403.75 101.5 419C77.25 436.25 57 451.25 21.25 451.25L19.5 451.25C8.75 451.25 0 460 0 470.75C0 481.75 8.75 490.5 19.5 490.5L21.25 490.5C119 490.5 127.75 425 182.75 425C236.5 425 250.25 490.5 335.75 490.5Z" fill="black" fill-opacity="0.85"/>
 </g>
</svg>
