<?xml version="1.0" encoding="UTF-8"?>
<!--Generator: Apple Native CoreSVG 326-->
<!DOCTYPE svg
PUBLIC "-//W3C//DTD SVG 1.1//EN"
       "http://www.w3.org/Graphics/SVG/1.1/DTD/svg11.dtd">
<svg version="1.1" xmlns="http://www.w3.org/2000/svg" xmlns:xlink="http://www.w3.org/1999/xlink" viewBox="0 0 682.75 674.75">
 <g>
  <rect height="674.75" opacity="0" width="682.75" x="0" y="0"/>
  <path d="M585.5 571.5C592 571.5 596.75 565.75 596.25 559L594.75 530.5L618.75 546.25C624 549.75 631.5 548.5 635.25 543C639 537.25 636.25 529.5 629.5 526.5L604.25 513.75L630 500.5C635.75 497.5 638.75 490.5 635.25 484.25C632.25 478.75 624.25 477.25 618.5 481L594.75 497L596.5 468.75C597 461.75 592.25 455.75 585.5 455.75C578.25 455.75 573.5 461.25 574.25 468.5L575.75 497.25L551.5 481C545.75 477.5 538.5 478.25 535.25 484.25C531.75 490.5 534.25 497.25 540.5 500.5L565.75 513.75L540.75 526.5C534.25 529.25 531.25 536.5 535 543C538 548.5 545.75 549.75 551.5 546L575.75 530.5L574.5 559C574.25 566 578.5 571.5 585.5 571.5Z" fill="black" fill-opacity="0.85"/>
  <path d="M585.5 116C592 116 596.75 110 596.25 103.25L594.75 75L618.75 90.5C624 94 631.5 93 635.25 87.25C639 81.5 636.25 73.75 629.5 71L604.25 58L630 44.75C635.75 41.75 638.75 34.75 635.25 28.5C632.25 23 624.25 21.5 618.5 25.5L594.75 41.25L596.5 13C597 6 592.25 0 585.5 0C578.25 0 573.5 5.5 574.25 12.75L575.75 41.5L551.5 25.5C545.75 21.75 538.5 22.5 535.25 28.5C531.75 34.75 534.25 41.75 540.5 44.75L565.75 58L540.75 70.75C534.25 73.75 531.25 81 535 87.25C538 92.75 545.75 94 551.5 90.5L575.75 74.75L574.5 103.25C574.25 110.5 578.5 116 585.5 116Z" fill="black" fill-opacity="0.85"/>
  <path d="M48.5 245C94.25 229.25 142.5 221 189 221C251 221 294 231.25 352.25 231.25C408 231.25 443.5 193.25 443.5 143.5C443.5 93 405.25 56.25 356.75 56.25C319 56.25 287 80.5 275.25 112C271 121.5 273.25 132 283.25 136.5C292.25 140.75 302.5 137.5 308.25 126.25C314.75 107.5 333.75 92.5 356.75 92.5C385.25 92.5 407.25 113.25 407.25 143.5C407.25 174.25 385.5 195 352.25 195C296 195 253 184.75 189 184.75C136.75 184.75 84 194.5 37 210.75C25.25 214.25 21 224.25 24 234C26.75 243.5 36.25 248.75 48.5 245ZM556.75 393C631.75 393 682.75 346.5 682.75 281.25C682.75 217.75 634 170.5 572.25 170.5C514.5 170.5 471.75 211.75 464.75 264.75C463.25 276.25 470 285.5 480 286.75C490.25 288 499 281.5 501.25 268.75C506.25 233 535.75 206.75 572.25 206.75C613.5 206.75 646.5 238 646.5 281.25C646.5 325.75 611.5 356.5 556.75 356.5C457 356.5 350.75 300.5 221 300.5C153.75 300.5 93.75 312 37 332.5C25.75 336.5 21 346.5 24 356C26.75 365.75 36.5 371.25 48.5 367C101.25 345.75 156.5 337 221 337C349.75 337 448 393 556.75 393ZM352.75 618.75C400.75 618.75 437.75 583 437.75 532.25C437.75 458 361 416.5 220.25 416.5C158.75 416.5 92.25 428.75 37 448.25C25.75 452 21 462 24 471.5C26.75 481.25 36.5 487 48.5 482.75C100.75 463.5 161 452.75 220.25 452.75C338.25 452.75 401.5 483.25 401.5 532.25C401.5 563 380 582.5 352.75 582.5C326 582.5 308.75 564.75 304.25 536.5C302.5 526 295 517.5 283.25 518.25C270.75 519 265.5 529.75 267 541C272.75 585.25 305.25 618.75 352.75 618.75Z" fill="black" fill-opacity="0.85"/>
 </g>
</svg>
