<?xml version="1.0" encoding="UTF-8"?>
<!--Generator: Apple Native CoreSVG 326-->
<!DOCTYPE svg
PUBLIC "-//W3C//DTD SVG 1.1//EN"
       "http://www.w3.org/Graphics/SVG/1.1/DTD/svg11.dtd">
<svg version="1.1" xmlns="http://www.w3.org/2000/svg" xmlns:xlink="http://www.w3.org/1999/xlink" viewBox="0 0 651.25 651.75">
 <g>
  <rect height="651.75" opacity="0" width="651.25" x="0" y="0"/>
  <path d="M325.5 651.25C505.25 651.25 651.25 505.5 651.25 325.75C651.25 146 505.25 0 325.5 0C145.75 0 0 146 0 325.75C0 505.5 145.75 651.25 325.5 651.25ZM325.5 604.75C171.25 604.75 46.5 480 46.5 325.75C46.5 171.5 171.25 46.75 325.5 46.75C479.75 46.75 604.5 171.5 604.5 325.75C604.5 480 479.75 604.75 325.5 604.75Z" fill="black" fill-opacity="0.85"/>
  <path d="M318 438.75C326.75 438.75 333.75 431.25 333.75 423L333.75 349C434.75 343 500.25 273.75 498.75 172.5C498.75 163.25 492.5 156.5 481.75 156.5C403.75 154.75 343.25 199 316.5 273.25C291 218.75 236 195.5 187 195.5C178.75 195.5 173.75 200.75 174 209.5C176 256.25 203.75 341 302.25 349L302.25 423C302.25 431.5 310 438.75 318 438.75ZM300.25 317.75C242.5 311.75 214.75 269.25 207 229C244.75 234.25 289.75 259 300.25 317.75ZM336.75 318C350.5 240.25 399.5 191.5 467.25 188C463.25 261 413 311 336.75 318ZM174.5 491.5C183 491.5 190.75 483.75 190.75 475.25C190.75 467.25 183 459.5 174.5 459.5C165.75 459.5 158.5 467.25 158.5 475.25C158.5 483.75 165.75 491.5 174.5 491.5ZM217.5 462.5C226.25 462.5 234 455.25 234 446.75C234 438.25 226.25 430.25 217.5 430.25C209 430.25 201.75 438.25 201.75 446.75C201.75 455 209.25 462.5 217.5 462.5ZM267 445.75C275.75 445.75 283 437.75 283 429.75C283 421 275.5 413.75 267 413.75C258.5 413.75 250.75 421 250.75 429.75C250.75 437.75 258.5 445.75 267 445.75ZM369.25 445.75C377.75 445.75 385.25 437.75 385.25 429.75C385.25 421 377.75 413.75 369.25 413.75C360.5 413.75 353 421 353 429.75C353 437.75 360.5 445.75 369.25 445.75ZM418.25 462.5C426.75 462.5 434.25 455 434.25 446.75C434.25 438.25 426.75 430.25 418.25 430.25C410 430.25 402.25 438.25 402.25 446.75C402.25 455.25 410 462.5 418.25 462.5ZM461.75 491.5C470.25 491.5 477.75 483.75 477.75 475.25C477.75 467.25 470.25 459.5 461.75 459.5C453.25 459.5 445.75 467.25 445.75 475.25C445.75 483.75 453.25 491.5 461.75 491.5Z" fill="black" fill-opacity="0.85"/>
 </g>
</svg>
