<?xml version="1.0" encoding="UTF-8"?>
<!--Generator: Apple Native CoreSVG 326-->
<!DOCTYPE svg
PUBLIC "-//W3C//DTD SVG 1.1//EN"
       "http://www.w3.org/Graphics/SVG/1.1/DTD/svg11.dtd">
<svg version="1.1" xmlns="http://www.w3.org/2000/svg" xmlns:xlink="http://www.w3.org/1999/xlink" viewBox="0 0 651.25 651.75">
 <g>
  <rect height="651.75" opacity="0" width="651.25" x="0" y="0"/>
  <path d="M651.25 325.75C651.25 505 505 651.25 325.5 651.25C146.25 651.25 0 505 0 325.75C0 146.25 146.25 0 325.5 0C505 0 651.25 146.25 651.25 325.75ZM154.75 478.75C154.75 487.75 162 495.5 171 495.5C179.75 495.5 187.75 487.75 187.75 478.75C187.75 470.5 179.75 462.5 171 462.5C162 462.5 154.75 470.5 154.75 478.75ZM448.75 478.75C448.75 487.75 456.5 495.5 465.25 495.5C474 495.5 481.75 487.75 481.75 478.75C481.75 470.5 474 462.5 465.25 462.5C456.5 462.5 448.75 470.5 448.75 478.75ZM199 449.5C199 458 206.5 466 215.25 466C224.25 466 232.25 458.25 232.25 449.5C232.25 440.75 224.25 432.5 215.25 432.5C206.25 432.5 199 440.75 199 449.5ZM404.25 449.5C404.25 458.25 412.25 466 420.75 466C429.5 466 437.5 458 437.5 449.5C437.5 440.75 429.5 432.5 420.75 432.5C412.25 432.5 404.25 440.75 404.25 449.5ZM249.25 432.25C249.25 440.75 257 448.75 265.75 448.75C274.75 448.75 282.25 440.75 282.25 432.25C282.25 423.25 274.5 415.75 265.75 415.75C257 415.75 249.25 423.25 249.25 432.25ZM353.75 432.25C353.75 440.75 361.5 448.75 370.5 448.75C379.25 448.75 387 440.75 387 432.25C387 423.25 379.25 415.75 370.5 415.75C361.5 415.75 353.75 423.25 353.75 432.25ZM316.5 271.75C290.5 216.25 234.25 192.5 183.75 192.5C175.25 192.5 170.5 197.75 170.75 206.75C172.75 254.75 201 341.5 301.75 349.75L301.75 425.25C301.75 434 309.75 441.5 318 441.5C327 441.5 334.25 433.75 334.25 425.25L334.25 349.75C437.5 343.5 504.5 272.5 503 169C503 159.5 496.75 152.25 485.5 152.25C405.75 150.75 344 196 316.5 271.75ZM337.5 317.75C351.5 238.5 401.75 188.75 470.5 184.75C466.5 259.5 415.25 310.5 337.5 317.75ZM299.75 317.5C241 311.25 212.75 268.25 204.5 226.75C243.25 232.5 289 257.75 299.75 317.5Z" fill="black" fill-opacity="0.85"/>
 </g>
</svg>
