<?xml version="1.0" encoding="UTF-8"?>
<!--Generator: Apple Native CoreSVG 326-->
<!DOCTYPE svg
PUBLIC "-//W3C//DTD SVG 1.1//EN"
       "http://www.w3.org/Graphics/SVG/1.1/DTD/svg11.dtd">
<svg version="1.1" xmlns="http://www.w3.org/2000/svg" xmlns:xlink="http://www.w3.org/1999/xlink" viewBox="0 0 642.75 600.75">
 <g>
  <rect height="600.75" opacity="0" width="642.75" x="0" y="0"/>
  <path d="M9.5 208.75C9.5 344.5 126.25 477.5 305 592.75C311.25 596.75 320 600.75 326.25 600.75C332.25 600.75 341 596.75 347.25 592.75C526.25 477.5 642.75 344.5 642.75 208.75C642.75 97.25 566 17.75 463.25 17.75C404.25 17.75 354.5 47.25 326.25 92.5C298.25 47.5 248 17.75 189.25 17.75C86.5 17.75 9.5 97.25 9.5 208.75ZM54 208.75C54 121.25 111.25 62 188.75 62C249 62 285 99.5 306.75 134.75C314.25 146.25 319.25 149.75 326.25 149.75C333 149.75 337.5 146 345.5 134.75C368.25 100 403.75 62 463.75 62C541.25 62 598.5 121.25 598.5 208.75C598.5 329.5 472 458 332.25 551C329.5 552.75 327.5 554.25 326.25 554.25C325 554.25 323 552.75 320.25 551C180.25 458 54 329.5 54 208.75Z" fill="black" fill-opacity="0.85"/>
  <path d="M219.5 342.5C219.5 348 224 351.75 229.25 351.75L311 351.75L267.25 469C261.75 483.25 276.75 490.75 286 479.25L417.25 314.25C419.75 311.25 421.25 308.25 421.25 305.5C421.25 300.25 416.5 296.25 411 296.25L329.75 296.25L373.25 179C378.5 165 363.75 157.25 354.5 168.75L223.25 333.75C220.75 337 219.5 339.75 219.5 342.5Z" fill="black" fill-opacity="0.85"/>
 </g>
</svg>
