<?xml version="1.0" encoding="UTF-8"?>
<!--Generator: Apple Native CoreSVG 326-->
<!DOCTYPE svg
PUBLIC "-//W3C//DTD SVG 1.1//EN"
       "http://www.w3.org/Graphics/SVG/1.1/DTD/svg11.dtd">
<svg version="1.1" xmlns="http://www.w3.org/2000/svg" xmlns:xlink="http://www.w3.org/1999/xlink" viewBox="0 0 671.5 655.75">
 <g>
  <rect height="655.75" opacity="0" width="671.5" x="0" y="0"/>
  <path d="M566.5 432.5C577.25 513.5 578 513.5 660.5 526.25C667 527.5 671.5 532 671.5 538.25C671.5 544.5 667 549 660.75 550.25C577.25 566.25 577.5 565 566.5 644.5C565.5 650.75 560.5 655 554.5 655C547.75 655 543 650.5 542.5 644C531.75 564.5 531 564.25 448.75 550.25C441.75 549 437.5 544.75 437.5 538.25C437.5 532.5 441.5 527.75 447.75 526.25C531 510.5 531.75 512.25 542.5 432.75C543 426.25 547.75 421.5 554.5 421.5C560.75 421.5 565.75 426 566.5 432.5Z" fill="black" fill-opacity="0.85"/>
  <path d="M217.5 8.5C228.5 69.75 227 67.5 288.5 79.5C293.75 80.75 297 84.5 297 89.5C297 94.25 293.75 98.25 288.5 99.25C227 111.25 228.5 109 217.5 170.25C216.5 175.25 212.5 178.75 207.75 178.75C202.75 178.75 198.75 175.25 198 170.25C187 109 188.5 111.25 127 99.25C121.75 98.25 118.5 94.25 118.5 89.5C118.5 84.5 121.75 80.75 127 79.5C188.5 67.5 187 69.75 198 8.5C198.75 3.5 202.75 0 207.75 0C212.5 0 216.5 3.5 217.5 8.5Z" fill="black" fill-opacity="0.85"/>
  <path d="M293.75 554.25C293.75 602.75 254.25 642.25 206.5 642.25C158 642.25 118.5 602.75 118.5 554.25C118.5 506.5 158 467 206.5 467C254 467 293.75 506.5 293.75 554.25ZM160.25 554.25C160.25 579.75 180.75 600.25 206.5 600.25C231 600.25 251.75 579.25 251.75 554.25C251.75 529.5 231 508.75 206.5 508.75C181.25 508.75 160.25 529.5 160.25 554.25Z" fill="black" fill-opacity="0.85"/>
  <path d="M162.75 271.25C162.75 316 125.75 352.75 81.5 352.75C36.75 352.75 0 316.25 0 271.25C0 226.75 36.75 190 81.5 190C125.75 190 162.75 227 162.75 271.25ZM41.75 271.25C41.75 293 59.5 310.75 81.5 310.75C103 310.75 121 293 121 271.25C121 249.75 103 232 81.5 232C59.75 232 41.75 249.75 41.75 271.25Z" fill="black" fill-opacity="0.85"/>
  <path d="M656.25 190C656.25 271.75 589.75 337.75 507.75 337.75C504.556 337.75 501.387 337.65 498.292 337.276C499.765 329.919 500.5 322.297 500.5 314.5C500.5 308.038 499.995 301.695 498.877 295.555C501.788 295.877 504.755 296 507.75 296C566.5 296 614.5 248.75 614.5 190C614.5 131 567 83.5 507.75 83.5C448.75 83.5 401.25 131 401.25 190C401.25 191.808 401.295 193.605 401.521 195.354C394.4 193.94 387.03 193.25 379.5 193.25C372.754 193.25 366.142 193.796 359.752 194.986C359.528 193.361 359.5 191.684 359.5 190C359.5 108 425.75 41.75 507.75 41.75C589.75 41.75 656.25 108 656.25 190Z" fill="black" fill-opacity="0.85"/>
  <path d="M379.5 435.5C446.25 435.5 500.5 381.5 500.5 314.5C500.5 247.5 446.25 193.25 379.5 193.25C312.25 193.25 258.25 247.5 258.25 314.5C258.25 381.5 312.25 435.5 379.5 435.5ZM379.5 393.75C335.25 393.75 300 358.5 300 314.5C300 270.5 335.25 235 379.5 235C423.25 235 458.75 270.5 458.75 314.5C458.75 358.5 423.25 393.75 379.5 393.75Z" fill="black" fill-opacity="0.85"/>
 </g>
</svg>
