<?xml version="1.0" encoding="UTF-8"?>
<!--Generator: Apple Native CoreSVG 326-->
<!DOCTYPE svg
PUBLIC "-//W3C//DTD SVG 1.1//EN"
       "http://www.w3.org/Graphics/SVG/1.1/DTD/svg11.dtd">
<svg version="1.1" xmlns="http://www.w3.org/2000/svg" xmlns:xlink="http://www.w3.org/1999/xlink" viewBox="0 0 685.25 686.25">
 <g>
  <rect height="686.25" opacity="0" width="685.25" x="0" y="0"/>
  <path d="M0 396.5C0 452 28.5 480.75 83.25 480.75L204.75 480.75L204.75 602.25C204.75 657.25 233.5 685.75 289.25 685.75L396.25 685.75C452 685.75 480.5 657.25 480.5 602.25L480.5 480.75L602 480.75C657 480.75 685.25 452 685.25 396.5L685.25 289.25C685.25 233.75 657 205 602 205L480.5 205L480.5 83.5C480.5 28.5 452 0 396.25 0L289.25 0C233.5 0 204.75 28.5 204.75 83.5L204.75 205L83.25 205C28.5 205 0 233.75 0 289.25ZM44.25 395.5L44.25 290.25C44.25 263.75 59 249.25 85.75 249.25L249.25 249.25L249.25 85.75C249.25 59 263.5 44.25 290 44.25L395.5 44.25C422 44.25 436.25 59 436.25 85.75L436.25 249.25L599.75 249.25C626.5 249.25 641 263.75 641 290.25L641 395.5C641 422 626.5 436.5 599.75 436.5L436.25 436.5L436.25 600C436.25 626.75 422 641.25 395.5 641.25L290 641.25C263.5 641.25 249.25 626.75 249.25 600L249.25 436.5L85.75 436.5C59 436.5 44.25 422 44.25 395.5Z" fill="black" fill-opacity="0.85"/>
 </g>
</svg>
