<?xml version="1.0" encoding="UTF-8"?>
<!--Generator: Apple Native CoreSVG 326-->
<!DOCTYPE svg
PUBLIC "-//W3C//DTD SVG 1.1//EN"
       "http://www.w3.org/Graphics/SVG/1.1/DTD/svg11.dtd">
<svg version="1.1" xmlns="http://www.w3.org/2000/svg" xmlns:xlink="http://www.w3.org/1999/xlink" viewBox="0 0 587.75 587.75">
 <g>
  <rect height="587.75" opacity="0" width="587.75" x="0" y="0"/>
  <path d="M97.25 587.75L490.25 587.75C555 587.75 587.75 555 587.75 491.5L587.75 96.5C587.75 32.75 555 0 490.25 0L97.25 0C32.75 0 0 32.5 0 96.5L0 491.5C0 555.5 32.75 587.75 97.25 587.75ZM98.25 543.5C63.25 543.5 44.25 525 44.25 489L44.25 98.75C44.25 63 63.25 44.25 98.25 44.25L489.5 44.25C523.75 44.25 543.5 63 543.5 98.75L543.5 489C543.5 525 523.75 543.5 489.5 543.5Z" fill="black" fill-opacity="0.85"/>
  <path d="M294 431.5C422.25 431.5 512.5 326.25 512.5 293.75C512.5 261.25 421.75 156 294 156C165.5 156 75.5 261.25 75.5 293.75C75.5 326.25 166.75 431.5 294 431.5ZM294 384C243.75 384 203.5 342.75 203.25 293.75C203.25 243.5 243.75 203.5 294 203.5C343.75 203.5 384.5 243.5 384.5 293.75C384.5 342.75 343.75 384 294 384ZM294.5 331.75C314.75 331.75 332.25 314 332.25 293.75C332.25 273.25 314.75 255.75 294.5 255.75C273.5 255.75 255.75 273.25 255.75 293.75C255.75 314 273.5 331.75 294.5 331.75Z" fill="black" fill-opacity="0.85"/>
 </g>
</svg>
