<?xml version="1.0" encoding="UTF-8"?>
<!--Generator: Apple Native CoreSVG 326-->
<!DOCTYPE svg
PUBLIC "-//W3C//DTD SVG 1.1//EN"
       "http://www.w3.org/Graphics/SVG/1.1/DTD/svg11.dtd">
<svg version="1.1" xmlns="http://www.w3.org/2000/svg" xmlns:xlink="http://www.w3.org/1999/xlink" viewBox="0 0 536.75 809.25">
 <g>
  <rect height="809.25" opacity="0" width="536.75" x="0" y="0"/>
  <path d="M106.75 89.5L106.75 126C106.75 163.25 132.25 190 169.5 190L367.25 190C404.5 190 430 163.25 430 126L430 89.5C430 88.25 430 86.5 430 85.25L443 85.25C504.5 85.25 536.75 118 536.75 182.75L536.75 677.25C536.75 742 504.5 774.5 440.5 774.5L96.25 774.5C32.25 774.5 0 742 0 677.25L0 182.75C0 118 32.25 85.25 93.75 85.25L106.75 85.25C106.75 86.5 106.75 88.25 106.75 89.5ZM120 619.5C109.75 619.5 101.75 627.5 101.75 637.5C101.75 647.25 110 655.5 120 655.5L289.5 655.5C299.5 655.5 307.75 647.25 307.75 637.5C307.75 627.5 299.75 619.5 289.5 619.5ZM120 494.5C109.75 494.5 101.75 502.5 101.75 512.25C101.75 522.25 109.75 530.25 120 530.25L416.75 530.25C427 530.25 435 522.25 435 512.25C435 502.5 427 494.5 416.75 494.5ZM189.75 296.75C182 281.75 167.75 271 149.75 271C122.25 271 102 292.5 102 321.25C102 366 150 405.25 182.75 426.75C185.25 428.75 188.25 430.25 190 430.25C192.25 430.25 195 428.5 197.75 426.75C230.5 406.75 278 366 278 321.25C278 292.5 257.5 271 229.5 271C212.25 271 198 281.75 189.75 296.75ZM335 63.5L367.25 63.5C384.75 63.5 395.5 74.25 395.5 92.5L395.5 126C395.5 144.25 384.75 155 367.25 155L169.5 155C152 155 141.25 144.25 141.25 126L141.25 92.5C141.25 74.25 152 63.5 169.5 63.5L201.75 63.5C203.5 28.5 232.75 0 268.5 0C304 0 333.25 28.5 335 63.5ZM239.75 65.5C239.75 80.75 252.5 94 268.5 94C284.25 94 297 80.75 297 65.5C297 49.5 284.25 36.75 268.5 36.75C252.5 36.75 239.75 49.5 239.75 65.5Z" fill="black" fill-opacity="0.85"/>
 </g>
</svg>
