<?xml version="1.0" encoding="UTF-8"?>
<!--Generator: Apple Native CoreSVG 326-->
<!DOCTYPE svg
PUBLIC "-//W3C//DTD SVG 1.1//EN"
       "http://www.w3.org/Graphics/SVG/1.1/DTD/svg11.dtd">
<svg version="1.1" xmlns="http://www.w3.org/2000/svg" xmlns:xlink="http://www.w3.org/1999/xlink" viewBox="0 0 587.75 587.75">
 <g>
  <rect height="587.75" opacity="0" width="587.75" x="0" y="0"/>
  <path d="M97.25 587.75L490.25 587.75C555 587.75 587.75 555 587.75 491.5L587.75 96.5C587.75 32.75 555 0 490.25 0L97.25 0C32.75 0 0 32.5 0 96.5L0 491.5C0 555.5 32.75 587.75 97.25 587.75ZM98.25 543.5C63.25 543.5 44.25 525 44.25 489L44.25 98.75C44.25 63 63.25 44.25 98.25 44.25L489.5 44.25C523.75 44.25 543.5 63 543.5 98.75L543.5 489C543.5 525 523.75 543.5 489.5 543.5Z" fill="black" fill-opacity="0.85"/>
  <path d="M159 101.5C132.25 101.5 112.5 122.25 112.5 150.5C112.5 194 159.25 232.5 191 253.5C193.75 255.25 196.5 256.75 198.5 256.75C200.5 256.75 203 255.25 205.75 253.5C237.5 234 284 194 284 150.5C284 122.25 264.25 101.5 236.75 101.5C220 101.5 206 112 198.25 126.25C190.25 112 176.5 101.5 159 101.5ZM130.25 362L451.25 362C461.25 362 468.75 354.25 468.75 344.25C468.75 334.75 461.25 327.25 451.25 327.25L130.25 327.25C120 327.25 112.5 334.75 112.5 344.25C112.5 354.25 120 362 130.25 362ZM130.25 470.5L363.75 470.5C373.75 470.5 381.25 463 381.25 453.5C381.25 443.5 373.75 435.75 363.75 435.75L130.25 435.75C120 435.75 112.5 443.5 112.5 453.5C112.5 463 120 470.5 130.25 470.5Z" fill="black" fill-opacity="0.85"/>
 </g>
</svg>
