<?xml version="1.0" encoding="UTF-8"?>
<!--Generator: Apple Native CoreSVG 326-->
<!DOCTYPE svg
PUBLIC "-//W3C//DTD SVG 1.1//EN"
       "http://www.w3.org/Graphics/SVG/1.1/DTD/svg11.dtd">
<svg version="1.1" xmlns="http://www.w3.org/2000/svg" xmlns:xlink="http://www.w3.org/1999/xlink" viewBox="0 0 587.75 587.75">
 <g>
  <rect height="587.75" opacity="0" width="587.75" x="0" y="0"/>
  <path d="M587.75 96.5L587.75 491.5C587.75 555 555 587.75 490.25 587.75L97.25 587.75C32.75 587.75 0 555.5 0 491.5L0 96.5C0 32.5 32.75 0 97.25 0L490.25 0C555 0 587.75 32.75 587.75 96.5ZM116.75 454.5C106.5 454.5 99 462.25 99 472.25C99 481.75 106.5 489.25 116.75 489.25L355.25 489.25C365.25 489.25 372.75 481.75 372.75 472.25C372.75 462.25 365.25 454.5 355.25 454.5ZM116.75 346C106.5 346 99 353.5 99 363C99 372.75 106.5 380.5 116.75 380.5L443 380.5C453 380.5 460.5 372.75 460.5 363C460.5 353.5 453 346 443 346ZM184.75 111.25C176.75 96.75 163 86.25 145.5 86.25C118.75 86.25 99 107.25 99 135.25C99 179 145.75 217.5 177.5 238.25C180.25 240 183 241.5 185 241.5C187 241.5 189.5 240 192.25 238.25C224 218.75 270.5 179 270.5 135.25C270.5 107.25 250.75 86.25 223.25 86.25C206.75 86.25 192.5 96.75 184.75 111.25Z" fill="black" fill-opacity="0.85"/>
 </g>
</svg>
