<?xml version="1.0" encoding="UTF-8"?>
<!--Generator: Apple Native CoreSVG 326-->
<!DOCTYPE svg
PUBLIC "-//W3C//DTD SVG 1.1//EN"
       "http://www.w3.org/Graphics/SVG/1.1/DTD/svg11.dtd">
<svg version="1.1" xmlns="http://www.w3.org/2000/svg" xmlns:xlink="http://www.w3.org/1999/xlink" viewBox="0 0 651.25 651.75">
 <g>
  <rect height="651.75" opacity="0" width="651.25" x="0" y="0"/>
  <path d="M651.25 325.75C651.25 505 505 651.25 325.5 651.25C146.25 651.25 0 505 0 325.75C0 146.25 146.25 0 325.5 0C505 0 651.25 146.25 651.25 325.75ZM325.5 229C309.25 199.75 281.5 179 246 179C190.5 179 150 221.25 150 279C150 367.75 245.25 448.5 310.25 489.5C315.5 493 322.25 496.75 326 496.75C330 496.75 335.75 493 340.75 489.5C404.5 446.75 501 367.75 501 279C501 221.25 460.5 179 405 179C370 179 341.75 199.75 325.5 229Z" fill="black" fill-opacity="0.85"/>
 </g>
</svg>
