<?xml version="1.0" encoding="UTF-8"?>
<!--Generator: Apple Native CoreSVG 326-->
<!DOCTYPE svg
PUBLIC "-//W3C//DTD SVG 1.1//EN"
       "http://www.w3.org/Graphics/SVG/1.1/DTD/svg11.dtd">
<svg version="1.1" xmlns="http://www.w3.org/2000/svg" xmlns:xlink="http://www.w3.org/1999/xlink" viewBox="0 0 513 696.25">
 <g>
  <rect height="696.25" opacity="0" width="513" x="0" y="0"/>
  <path d="M513 248.5C513 406.75 400.75 417.75 332.25 547.5L306 595.25C276.5 650.75 228 680.5 164 680.5C79 680.5 24.5 624.75 24.5 538L24.5 250.25C24.5 100.75 124.5 0 272.25 0C417 0 513 99.25 513 248.5ZM117.25 232.25C117.25 304.75 184.5 328.75 184.5 361.75C184.5 401.25 117.25 391 117.25 450.5C117.25 482.5 142 504 178.75 504C227.25 503.75 261 463 261 411.75C261 316.25 160.5 301.75 160.5 232.25C160.5 176.5 205 135.25 271.5 135.25C339 135.25 382.25 179 382.25 246C382.25 257.75 392.25 267.5 404 267.5C415.75 267.5 425.5 257.75 425.5 246C425.5 153.5 364 92 271.5 92C179.5 92 117.25 151 117.25 232.25Z" fill="black" fill-opacity="0.85"/>
 </g>
</svg>
