<?xml version="1.0" encoding="UTF-8"?>
<!--Generator: Apple Native CoreSVG 326-->
<!DOCTYPE svg
PUBLIC "-//W3C//DTD SVG 1.1//EN"
       "http://www.w3.org/Graphics/SVG/1.1/DTD/svg11.dtd">
<svg version="1.1" xmlns="http://www.w3.org/2000/svg" xmlns:xlink="http://www.w3.org/1999/xlink" viewBox="0 0 651.25 651.75">
 <g>
  <rect height="651.75" opacity="0" width="651.25" x="0" y="0"/>
  <path d="M325.5 651.25C505.25 651.25 651.25 505.5 651.25 325.75C651.25 146 505.25 0 325.5 0C145.75 0 0 146 0 325.75C0 505.5 145.75 651.25 325.5 651.25ZM325.5 604.75C171.25 604.75 46.5 480 46.5 325.75C46.5 171.5 171.25 46.75 325.5 46.75C479.75 46.75 604.5 171.5 604.5 325.75C604.5 480 479.75 604.75 325.5 604.75Z" fill="black" fill-opacity="0.85"/>
  <path d="M248.25 182.75C193.75 182.75 154.5 224 154.5 280.25C154.5 367.25 247.25 446 310.75 486C316 489.25 322.25 493 326 493C329.75 493 335.75 489.25 340.25 486C402.75 444.25 496.75 367.25 496.75 280.25C496.75 224 457.25 182.75 403 182.75C369 182.75 341.25 203 325.5 231.75C309.75 203 282.5 182.75 248.25 182.75Z" fill="black" fill-opacity="0.85"/>
 </g>
</svg>
