<?xml version="1.0" encoding="UTF-8"?>
<!--Generator: Apple Native CoreSVG 326-->
<!DOCTYPE svg
PUBLIC "-//W3C//DTD SVG 1.1//EN"
       "http://www.w3.org/Graphics/SVG/1.1/DTD/svg11.dtd">
<svg version="1.1" xmlns="http://www.w3.org/2000/svg" xmlns:xlink="http://www.w3.org/1999/xlink" viewBox="0 0 536.75 878.75">
 <g>
  <rect height="878.75" opacity="0" width="536.75" x="0" y="0"/>
  <path d="M536.75 217.5L536.75 712C536.75 776.75 504.5 809.25 440.5 809.25L96.25 809.25C32.25 809.25 0 776.75 0 712L0 217.5C0 152.75 32.25 120 96.25 120L106.858 120C106.615 122.361 106.5 124.782 106.5 127.25L106.5 160.75C106.5 198.25 132.75 224.75 169.5 224.75L367.25 224.75C404 224.75 430.25 198.25 430.25 160.75L430.25 127.25C430.25 124.782 430.135 122.361 429.892 120L440.5 120C504.5 120 536.75 152.75 536.75 217.5ZM103.25 603.75C103.25 618 115 629.75 129 629.75C143.25 629.75 155 618.25 155 603.75C155 589.75 143.25 578 129 578C115 578 103.25 590 103.25 603.75ZM213 586C202.75 586 194.75 594 194.75 603.75C194.75 613.75 203 622.25 213 622.25L415.5 622.25C425.25 622.25 433.75 613.75 433.75 603.75C433.75 594 425.5 586 415.5 586ZM103.25 478.75C103.25 493 114.75 504.75 129 504.75C143.25 504.75 155 493 155 478.75C155 464.5 143.25 453.25 129 453.25C114.75 453.25 103.25 464.75 103.25 478.75ZM213 460.75C202.75 460.75 194.75 468.75 194.75 478.75C194.75 489 202.75 497 213 497L415.5 497C425.5 497 433.75 489 433.75 478.75C433.75 468.75 425.5 460.75 415.5 460.75ZM103.25 360.5C103.25 374.5 115 386.5 129 386.5C143.25 386.5 155 374.75 155 360.5C155 346.25 143.25 334.75 129 334.75C115 334.75 103.25 346.5 103.25 360.5ZM213 342.25C203 342.25 194.75 350.75 194.75 360.5C194.75 370.5 203 378.75 213 378.75L415.5 378.75C425.25 378.75 433.75 370.5 433.75 360.5C433.75 350.75 425.25 342.25 415.5 342.25Z" fill="black" fill-opacity="0.85"/>
  <path d="M335 98.25L367.25 98.25C384.75 98.25 395.5 109 395.5 127.25L395.5 160.75C395.5 179 384.75 189.75 367.25 189.75L169.5 189.75C152 189.75 141.25 179 141.25 160.75L141.25 127.25C141.25 109 152 98.25 169.5 98.25L201.75 98.25C203.5 63.25 232.75 34.75 268.5 34.75C304 34.75 333.25 63.25 335 98.25ZM239.75 100.25C239.75 115.5 252.5 128.75 268.5 128.75C284.25 128.75 297 115.5 297 100.25C297 84.25 284.25 71.5 268.5 71.5C252.5 71.5 239.75 84.25 239.75 100.25Z" fill="black" fill-opacity="0.85"/>
 </g>
</svg>
