<?xml version="1.0" encoding="UTF-8"?>
<!--Generator: Apple Native CoreSVG 326-->
<!DOCTYPE svg
PUBLIC "-//W3C//DTD SVG 1.1//EN"
       "http://www.w3.org/Graphics/SVG/1.1/DTD/svg11.dtd">
<svg version="1.1" xmlns="http://www.w3.org/2000/svg" xmlns:xlink="http://www.w3.org/1999/xlink" viewBox="0 0 835.21 614.25">
 <g>
  <rect height="614.25" opacity="0" width="835.21" x="0" y="0"/>
  <path d="M238.855 574.75L112.605 599.25C33.6049 614.25-16.3951 565.25 5.10486 484.25L106.605 98.5C122.355 39.75 169.855 0 225.105 0C290.855 0 334.605 42 334.605 104.5L334.605 373L295.105 381.5L197.105 293.25C188.855 285.75 173.855 286 165.605 294.75C157.855 303.75 158.855 318.25 167.605 326.25L242.105 392.75L149.855 412.25C138.605 414.5 130.605 426.75 133.105 438.25C135.105 450 147.855 457.5 159.105 455.25L334.605 418L334.605 455.75C334.605 526.5 305.355 562 238.855 574.75ZM610.105 0C665.605 0 712.855 39.75 728.605 98.5L830.105 484.25C851.855 565.25 801.855 614.25 722.855 599.25L596.355 574.75C529.855 562 500.855 526.5 500.855 455.75L500.855 418L676.105 455.25C687.605 457.5 700.105 450 702.355 438.25C704.605 426.75 696.605 414.5 685.355 412.25L593.355 392.75L667.605 326.25C676.355 318.25 677.605 303.75 669.605 294.75C661.605 286 646.605 285.75 638.105 293.25L540.355 381.5L500.855 373L500.855 104.5C500.855 42 544.355 0 610.105 0Z" fill="black" fill-opacity="0.85"/>
  <path d="M417.605 400.5L500.855 418L500.855 373L439.605 359.75L439.605 37C439.605 25 429.855 14.75 417.605 14.75C405.605 14.75 395.855 25 395.855 37L395.855 359.75L334.605 373L334.605 418Z" fill="black" fill-opacity="0.85"/>
 </g>
</svg>
