<?xml version="1.0" encoding="UTF-8"?>
<!--Generator: Apple Native CoreSVG 326-->
<!DOCTYPE svg
PUBLIC "-//W3C//DTD SVG 1.1//EN"
       "http://www.w3.org/Graphics/SVG/1.1/DTD/svg11.dtd">
<svg version="1.1" xmlns="http://www.w3.org/2000/svg" xmlns:xlink="http://www.w3.org/1999/xlink" viewBox="0 0 694.126 702.25">
 <g>
  <rect height="702.25" opacity="0" width="694.126" x="0" y="0"/>
  <path d="M59.8132 586.5L115.563 642.5L152.313 605.5C235.813 521.75 333.813 550.75 419.813 464.75L655.063 229.5C707.063 177.25 707.063 98.75 655.063 47C603.313-5 524.813-5 472.563 47.25L237.313 282.25C147.813 372 180.313 466 96.8132 549.5ZM189.813 463.75C207.313 414.25 218.063 360.5 266.813 311.75L502.063 76.75C537.813 41 590.313 41.25 625.563 76.5C660.813 111.75 661.063 164.5 625.563 200L390.313 435.25C341.313 484.25 289.313 496 240.563 514.75ZM13.3132 632.75C-4.68684 650.5-4.18684 672 13.3132 689.25C30.3132 706.5 52.3132 706.75 69.8132 689L88.5632 670.5L31.8132 614ZM345.813 357C365.313 376.5 396.813 376.25 416.313 356.75L510.563 262C530.563 241.75 530.313 210.75 510.563 191.75C491.063 171.5 459.563 172.5 440.063 191.75L345.813 286C326.563 305.5 326.313 337.25 345.813 357ZM364.563 338.25C355.563 328.75 355.313 314.5 364.563 305L458.813 210.5C466.563 202.75 477.813 201.75 486.563 207.25C500.563 215.25 502.563 232.5 491.813 243.5L397.813 337.75C388.313 347 373.563 347.25 364.563 338.25ZM277.063 386.25L316.313 424.75C323.563 432 333.563 431 339.563 425C346.313 418.75 347.063 408.75 339.563 401.25L300.563 362.5C293.563 356 283.563 356.25 277.063 362.5C271.063 368.75 270.063 379.25 277.063 386.25ZM456.813 77.25L624.813 245.5L647.063 223.25L478.563 54.75Z" fill="black" fill-opacity="0.85"/>
 </g>
</svg>
