<?xml version="1.0" encoding="UTF-8"?>
<!--Generator: Apple Native CoreSVG 326-->
<!DOCTYPE svg
PUBLIC "-//W3C//DTD SVG 1.1//EN"
       "http://www.w3.org/Graphics/SVG/1.1/DTD/svg11.dtd">
<svg version="1.1" xmlns="http://www.w3.org/2000/svg" xmlns:xlink="http://www.w3.org/1999/xlink" viewBox="0 0 629.745 630.564">
 <g>
  <rect height="630.564" opacity="0" width="629.745" x="0" y="0"/>
  <path d="M48.7473 581.157C115.747 647.907 211.247 647.157 285.997 572.407L572.497 285.907C646.997 211.157 647.747 115.907 580.747 48.6569C513.997-18.0931 418.497-17.0931 343.997 57.4069L57.4973 343.657C-17.2527 418.407-18.0027 513.907 48.7473 581.157ZM77.9973 551.907C27.7473 502.157 33.7473 430.657 88.9973 375.157L374.997 88.9069C429.747 33.9069 501.247 28.1569 551.747 77.9069C602.247 127.657 596.747 198.907 540.747 254.907L254.747 540.907C200.247 595.657 128.497 601.657 77.9973 551.907ZM203.997 233.157L397.247 426.407L426.747 397.157L233.247 203.907Z" fill="black" fill-opacity="0.85"/>
 </g>
</svg>
