<?xml version="1.0" encoding="UTF-8"?>
<!--Generator: Apple Native CoreSVG 326-->
<!DOCTYPE svg
PUBLIC "-//W3C//DTD SVG 1.1//EN"
       "http://www.w3.org/Graphics/SVG/1.1/DTD/svg11.dtd">
<svg version="1.1" xmlns="http://www.w3.org/2000/svg" xmlns:xlink="http://www.w3.org/1999/xlink" viewBox="0 0 651.25 651.75">
 <g>
  <rect height="651.75" opacity="0" width="651.25" x="0" y="0"/>
  <path d="M651.25 326C651.25 505.5 505 651.75 325.5 651.75C146.25 651.75 0 505.5 0 326C0 146.75 146.25 0.5 325.5 0.5C505 0.5 651.25 146.75 651.25 326ZM183.5 342.75C144.5 382 144 432.5 181.75 470C219.75 507.25 270.25 506.75 309 468L379.25 397.5L254 272ZM341.75 184L271.25 254.25L397 380L467.5 309.5C506.75 270.25 507.25 219.75 469 182.75C430.5 145 380.75 144.75 341.75 184Z" fill="black" fill-opacity="0.85"/>
 </g>
</svg>
