<?xml version="1.0" encoding="UTF-8"?>
<!--Generator: Apple Native CoreSVG 326-->
<!DOCTYPE svg
PUBLIC "-//W3C//DTD SVG 1.1//EN"
       "http://www.w3.org/Graphics/SVG/1.1/DTD/svg11.dtd">
<svg version="1.1" xmlns="http://www.w3.org/2000/svg" xmlns:xlink="http://www.w3.org/1999/xlink" viewBox="0 0 651.25 651.75">
 <g>
  <rect height="651.75" opacity="0" width="651.25" x="0" y="0"/>
  <path d="M651.25 326C651.25 505.5 505 651.75 325.5 651.75C146.25 651.75 0 505.5 0 326C0 146.75 146.25 0.5 325.5 0.5C505 0.5 651.25 146.75 651.25 326ZM324.75 152.5C302.5 152.5 295.5 159.25 295.5 180.25L295.5 274.5L214.5 227.25C194.75 216 185.5 218.25 175.75 238.25L174.5 240.5C164.75 260 167 269 185.25 278.75L269.5 324.25L184.75 373.25C166.75 383.75 164.25 392.75 175 412L175.75 413.5C186.25 433 195.5 435.5 214 424.25L295.5 377.25L295.5 471.25C295.5 492.75 302.5 499.5 324.75 499.5L327 499.5C348.75 499.5 355.75 492.75 355.75 471.25L355.75 377.25L437.25 424.25C456.5 436 465.5 433.25 475.5 413.5L476.5 412C486.25 392.5 484 383.5 466.5 373.25L381.75 324.25L466 278.75C484.25 269 486.75 259.75 476.75 240.5L475.5 238.25C466 218.25 456.75 215.75 436.75 227.25L355.75 274.5L355.75 180.25C355.75 159.25 348.75 152.5 327 152.5Z" fill="black" fill-opacity="0.85"/>
 </g>
</svg>
