<?xml version="1.0" encoding="UTF-8"?>
<!--Generator: Apple Native CoreSVG 326-->
<!DOCTYPE svg
PUBLIC "-//W3C//DTD SVG 1.1//EN"
       "http://www.w3.org/Graphics/SVG/1.1/DTD/svg11.dtd">
<svg version="1.1" xmlns="http://www.w3.org/2000/svg" xmlns:xlink="http://www.w3.org/1999/xlink" viewBox="0 0 610 669.25">
 <g>
  <rect height="669.25" opacity="0" width="610" x="0" y="0"/>
  <path d="M302.5 669.25L306.75 669.25C351.25 669.25 367.75 655.25 367.75 611.5L367.75 403.5L333 422.5L513.75 526.75C527.75 534.5 539 539 549.25 539C566.75 539 579 527.25 593.5 504.5L595.75 500.75C605.25 486 610 473.25 610 462.5C610 444.75 598 431.75 575.75 419.25L392.25 313.25L392.25 351.75L575.5 250C598 238 609.25 225 609.25 207.5C609.25 196.5 604.5 184.25 596.25 169.25L594 165.25C579.75 141.5 566.75 129.75 549.5 129.75C539.25 129.75 527.5 134.5 513.5 142L333.25 246.5L367.75 265.5L367.75 57.75C367.75 14 351.25 0 306.75 0L302.5 0C257.75 0 241.5 14 241.5 57.75L241.5 265.5L276.5 246.5L96 142C82 134 69.25 129 58.5 129C41 129 27 141 15.25 165.75L13.25 169.25C5.75 184.5 1.25 197 1.25 208C1.25 224.75 11.75 237.75 34.25 250.25L217.5 351.75L217.5 313.25L34 419.25C11.75 431.75 0 444.5 0 462C0 472.75 5 485.5 13.5 500.5L15.5 503.75C29.25 527.5 41.75 539.25 59.75 539.25C70 539.25 82 534.5 96 526.75L276.5 422.5L241.5 403.5L241.5 611.5C241.5 655.25 257.75 669.25 302.5 669.25Z" fill="black" fill-opacity="0.85"/>
 </g>
</svg>
