<?xml version="1.0" encoding="UTF-8"?>
<!--Generator: Apple Native CoreSVG 326-->
<!DOCTYPE svg
PUBLIC "-//W3C//DTD SVG 1.1//EN"
       "http://www.w3.org/Graphics/SVG/1.1/DTD/svg11.dtd">
<svg version="1.1" xmlns="http://www.w3.org/2000/svg" xmlns:xlink="http://www.w3.org/1999/xlink" viewBox="0 0 757.5 587.75">
 <g>
  <rect height="587.75" opacity="0" width="757.5" x="0" y="0"/>
  <path d="M97.25 587.75L660 587.75C724.75 587.75 757.5 555 757.5 491.5L757.5 96.5C757.5 32.75 724.75 0 660 0L97.25 0C32.75 0 0 32.5 0 96.5L0 491.5C0 555.5 32.75 587.75 97.25 587.75ZM98.25 543.5C63.25 543.5 44.25 525 44.25 489L44.25 98.75C44.25 63 63.25 44.25 98.25 44.25L659.25 44.25C693.5 44.25 713 63 713 98.75L713 489C713 525 693.5 543.5 659.25 543.5Z" fill="black" fill-opacity="0.85"/>
  <path d="M44.5 319.5L119.75 319.5C131.5 319.5 136.75 314.25 141.25 303.5L186.75 193.5L267.5 447C272.5 462.75 297.5 462.25 302.75 446.25L343.5 319.5L423.75 319.5C435.5 319.5 440.75 314.25 445.25 303.5L492 193.5L572.75 447C577.75 462.75 602.75 462.25 608 446.25L648.75 319.5L713.25 319.5L713.25 283.25L639.25 283.25C627.75 283.25 621.5 288.75 617.75 299L589.75 379.25L509.25 136.25C504.25 121 481 120.25 474.25 137L414.25 283.25L334 283.25C322.5 283.25 316.25 288.75 312.5 299L284.5 379.25L204 136.25C199 121 175.75 120.25 169 137L109 283.25L44.5 283.25Z" fill="black" fill-opacity="0.85"/>
 </g>
</svg>
