<?xml version="1.0" encoding="UTF-8"?>
<!--Generator: Apple Native CoreSVG 326-->
<!DOCTYPE svg
PUBLIC "-//W3C//DTD SVG 1.1//EN"
       "http://www.w3.org/Graphics/SVG/1.1/DTD/svg11.dtd">
<svg version="1.1" xmlns="http://www.w3.org/2000/svg" xmlns:xlink="http://www.w3.org/1999/xlink" viewBox="0 0 638 685.938">
 <g>
  <rect height="685.938" opacity="0" width="638" x="0" y="0"/>
  <path d="M19.75 402.094L162.5 402.094C175.25 402.094 183.25 396.344 185.75 384.844L249 97.5939L228.75 97.5939L325 670.844C328.5 691.094 359.5 690.844 363.5 670.844L457.25 237.594L440.25 237.344L470.75 382.594C473.5 395.844 481 402.094 494.5 402.094L618.25 402.094C629.25 402.094 638 393.594 638 382.844C638 371.594 629.5 362.844 618.25 362.844L471.5 362.844L510.75 394.594L465.5 197.344C461 178.094 432.75 178.094 428 198.094L333.25 620.094L352 620.094L256.5 47.0939C253.25 27.3439 224.5 26.8439 220 47.0939L144 394.594L183 362.844L19.75 362.844C8.75 362.844 0 371.844 0 382.844C0 393.594 8.75 402.094 19.75 402.094Z" fill="black" fill-opacity="0.85"/>
 </g>
</svg>
