<?xml version="1.0" encoding="UTF-8"?>
<!--Generator: Apple Native CoreSVG 326-->
<!DOCTYPE svg
PUBLIC "-//W3C//DTD SVG 1.1//EN"
       "http://www.w3.org/Graphics/SVG/1.1/DTD/svg11.dtd">
<svg version="1.1" xmlns="http://www.w3.org/2000/svg" xmlns:xlink="http://www.w3.org/1999/xlink" viewBox="0 0 611.25 611.75">
 <g>
  <rect height="611.75" opacity="0" width="611.25" x="0" y="0"/>
  <path d="M586 256.75C600.75 256.75 611.25 245.5 611.25 231.25L611.25 44C611.25 16.25 595 0 567 0L379.75 0C365 0 354 10.25 354 25C354 39.75 365.25 49.75 379.75 49.75L423.5 49.75L534.25 44L437.75 136.5L334.75 239.75C329.75 244.75 327.25 251.25 327.25 258.25C327.25 273.75 338.5 284 354 284C360.5 284 366.75 281.5 371.5 276.75L473.75 173.25L567 77L561.25 187.25L561.25 231.25C561.25 246 571.5 256.75 586 256.75ZM231.5 611.5C246.25 611.5 257.25 601.25 257.25 586.5C257.25 571.75 246 561.75 231.5 561.75L187.5 561.75L77 567.5L173.5 475L276.5 371.75C281.5 366.75 284 360.25 284 353.25C284 337.75 272.75 327.5 257.25 327.5C250.5 327.5 244.5 330 239.75 334.75L137.25 438.25L44.25 534.5L50 424.25L50 380.25C50 365.5 39.75 354.75 25.25 354.75C10.5 354.75 0 366 0 380.25L0 567.5C0 595.25 16.25 611.5 44 611.5Z" fill="black" fill-opacity="0.85"/>
 </g>
</svg>
