<?xml version="1.0" encoding="UTF-8"?>
<!--Generator: Apple Native CoreSVG 326-->
<!DOCTYPE svg
PUBLIC "-//W3C//DTD SVG 1.1//EN"
       "http://www.w3.org/Graphics/SVG/1.1/DTD/svg11.dtd">
<svg version="1.1" xmlns="http://www.w3.org/2000/svg" xmlns:xlink="http://www.w3.org/1999/xlink" viewBox="0 0 651.25 651.75">
 <g>
  <rect height="651.75" opacity="0" width="651.25" x="0" y="0"/>
  <path d="M651.25 325.75C651.25 505 505 651.25 325.5 651.25C146.25 651.25 0 505 0 325.75C0 146.25 146.25 0 325.5 0C505 0 651.25 146.25 651.25 325.75ZM355 331.75C340.5 331.75 331.75 338.5 331.75 355L331.75 468.5C331.75 480 340.75 489 352 489C363.25 489 372.25 480 372.25 468.5L372.25 450.25L369.5 396L460 489.75C468.5 498.5 482 498.5 490.5 490C499 481.5 498.5 468 490.25 459.5L397 369.5L448.75 372L468.25 372.25C479.5 372.25 488.5 363.25 488.5 352C488.5 340.75 479.5 331.75 468.25 331.75ZM160.75 161C152 169.25 152.5 183 161 191.25L254.25 281.5L202.25 278.75L182.75 278.75C171.5 278.75 162.5 287.75 162.5 298.75C162.5 310.25 171.5 319.25 182.75 319.25L296 319.25C310.5 319.25 319.25 312.25 319.25 295.75L319.25 182.25C319.25 171 310.25 162 299 162C288 162 278.75 171 278.75 182.25L278.75 200.5L281.5 255L191 161.25C182.5 152.5 169 152.5 160.75 161Z" fill="black" fill-opacity="0.85"/>
 </g>
</svg>
