<?xml version="1.0" encoding="UTF-8"?>
<!--Generator: Apple Native CoreSVG 326-->
<!DOCTYPE svg
PUBLIC "-//W3C//DTD SVG 1.1//EN"
       "http://www.w3.org/Graphics/SVG/1.1/DTD/svg11.dtd">
<svg version="1.1" xmlns="http://www.w3.org/2000/svg" xmlns:xlink="http://www.w3.org/1999/xlink" viewBox="0 0 630 646.75">
 <g>
  <rect height="646.75" opacity="0" width="630" x="0" y="0"/>
  <path d="M577.5 289.5C592 289.5 603.25 279 603.25 264.25C603 249.5 591.75 239.5 577.5 239.5L533.5 239.5L422.75 245.25L519.25 152.75L622.25 49.5C627.25 44.75 630 38 630 31C630 15.5 618.5 5.25 603 5.25C596.5 5.25 590.25 7.75 585.75 12.5L483.25 116L390 212.25L395.75 102L395.75 58C395.75 43.5 385.5 32.5 371 32.5C356.25 32.5 345.75 43.75 345.75 58L345.75 245.25C345.75 273 362.25 289.5 390 289.5ZM262.75 622.25C277.5 622.25 287.75 611 287.75 596.75L287.75 403C287.75 375.25 271.5 359 243.75 359L50 359C35.25 359 24.25 369.5 24.25 384C24.5 398.75 35.5 409 50 409L100.25 409L211 403L114.5 495.75L7.5 602.5C2.5 607.5 0 614.25 0 621.25C0 636.75 11.5 646.75 26.75 646.75C33.5 646.75 39.5 644.5 44.25 639.5L150.5 532.5L243.5 436.25L237.75 546.25L237.75 596.75C237.75 611.25 248.25 622.25 262.75 622.25Z" fill="black" fill-opacity="0.85"/>
 </g>
</svg>
