<?xml version="1.0" encoding="UTF-8"?>
<!--Generator: Apple Native CoreSVG 326-->
<!DOCTYPE svg
PUBLIC "-//W3C//DTD SVG 1.1//EN"
       "http://www.w3.org/Graphics/SVG/1.1/DTD/svg11.dtd">
<svg version="1.1" xmlns="http://www.w3.org/2000/svg" xmlns:xlink="http://www.w3.org/1999/xlink" viewBox="0 0 651.25 651.25">
 <g>
  <rect height="651.25" opacity="0" width="651.25" x="0" y="0"/>
  <path d="M651.25 325.5C651.25 505 505 651.25 325.5 651.25C146.25 651.25 0 505 0 325.5C0 146.25 146.25 0 325.5 0C505 0 651.25 146.25 651.25 325.5ZM151 257.25L100.5 329.75C93 340.5 95.5 353 109.5 353L145.25 353C161 444.25 234 507 326.75 507C368.5 507 410.75 491.5 439.75 466.25C453.5 454.75 456.75 440 446.5 429.5C436.75 419 423.75 420.75 412.25 429.5C385.75 451 359.75 461.75 326.75 461.75C258.5 461.75 202.5 415.25 188.5 353L224.5 353C238 353 241 340 233.5 329.75L182.5 257.25C174 245.25 159.75 244.5 151 257.25ZM213.25 183.75C199.25 195 196.5 209.75 206.25 220.25C216.25 230.75 229.25 229 240.5 220.25C267 198.75 293.25 188 326.25 188C394.25 188 450.25 234.5 464.25 296.75L427 296.75C413.25 296.75 410.25 309.75 417.75 320.25L469 392.75C477.5 404.75 491.5 405.25 500.5 392.75L550.75 320.25C558.25 309.5 555.75 296.75 542 296.75L507.5 296.75C492 205.5 418.75 143 326.25 143C284.5 143 242.25 158.25 213.25 183.75Z" fill="black" fill-opacity="0.85"/>
 </g>
</svg>
