<?xml version="1.0" encoding="UTF-8"?>
<!--Generator: Apple Native CoreSVG 326-->
<!DOCTYPE svg
PUBLIC "-//W3C//DTD SVG 1.1//EN"
       "http://www.w3.org/Graphics/SVG/1.1/DTD/svg11.dtd">
<svg version="1.1" xmlns="http://www.w3.org/2000/svg" xmlns:xlink="http://www.w3.org/1999/xlink" viewBox="0 0 587.75 587.75">
 <g>
  <rect height="587.75" opacity="0" width="587.75" x="0" y="0"/>
  <path d="M587.75 96.5L587.75 491.5C587.75 555 555 587.75 490.25 587.75L97.25 587.75C32.75 587.75 0 555.5 0 491.5L0 96.5C0 32.5 32.75 0 97.25 0L490.25 0C555 0 587.75 32.75 587.75 96.5ZM418.75 319.75L418.75 338.5L421.5 393.75L343.75 312.5C335 303.25 320.75 303.5 312 312.25C303.5 321 303.75 335.5 312.25 343.75L393 421.25L340 418.75L320.25 418.5C308.5 418.5 299.25 427.75 299.25 439.5C299.25 451 308.5 460.25 320.25 460.25L436.25 460.25C451.5 460.25 460.5 453.25 460.5 436.25L460.5 319.75C460.5 308 451.25 298.75 439.5 298.75C428 298.75 418.75 308 418.75 319.75ZM151.75 127.25C136.5 127.25 127.5 134.5 127.5 151.5L127.5 268C127.5 279.5 136.75 288.75 148.5 288.75C160 288.75 169.25 279.5 169.25 268L169.25 249.25L166.75 193.75L244.25 275C253 284.25 267.25 284 276 275.25C284.5 266.75 284.25 252.25 275.75 243.75L195 166.25L248 169L267.75 169C279.5 169 288.75 159.75 288.75 148.25C288.75 136.5 279.5 127.25 267.75 127.25Z" fill="black" fill-opacity="0.85"/>
 </g>
</svg>
