<?xml version="1.0" encoding="UTF-8"?>
<!--Generator: Apple Native CoreSVG 326-->
<!DOCTYPE svg
PUBLIC "-//W3C//DTD SVG 1.1//EN"
       "http://www.w3.org/Graphics/SVG/1.1/DTD/svg11.dtd">
<svg version="1.1" xmlns="http://www.w3.org/2000/svg" xmlns:xlink="http://www.w3.org/1999/xlink" viewBox="0 0 587.75 587.75">
 <g>
  <rect height="587.75" opacity="0" width="587.75" x="0" y="0"/>
  <path d="M97.25 587.75L490.25 587.75C555 587.75 587.75 555 587.75 491.5L587.75 96.5C587.75 32.75 555 0 490.25 0L97.25 0C32.75 0 0 32.5 0 96.5L0 491.5C0 555.5 32.75 587.75 97.25 587.75ZM98.25 543.5C63.25 543.5 44.25 525 44.25 489L44.25 98.75C44.25 63 63.25 44.25 98.25 44.25L489.5 44.25C523.75 44.25 543.5 63 543.5 98.75L543.5 489C543.5 525 523.75 543.5 489.5 543.5Z" fill="black" fill-opacity="0.85"/>
  <path d="M154.75 287.25L265.25 287.25C279.25 287.25 287.75 280.5 287.75 264.5L287.75 154C287.75 143 279 134.25 268.25 134.25C257.25 134.25 248.5 143 248.5 154L248.5 172L251.25 225L162.75 133.25C154.5 124.75 141.25 124.75 133.25 133C125 141 125.25 154.5 133.5 162.25L224.5 250.75L174 248L154.75 248C144 248 135.25 256.75 135.25 267.5C135.25 278.5 144 287.25 154.75 287.25ZM319.75 452.5C330.5 452.5 339.25 443.75 339.25 433L339.25 415L336.75 362L425.25 453.75C433.5 462.25 446.75 462.25 454.75 454C462.75 445.75 462.5 432.25 454.5 424.5L363.25 336.25L414 338.75L433 339C444 339 452.75 330.25 452.75 319.25C452.75 308.5 444 299.75 433 299.75L322.75 299.75C308.75 299.75 300 306.25 300 322.25L300 433C300 443.75 309 452.5 319.75 452.5Z" fill="black" fill-opacity="0.85"/>
 </g>
</svg>
