<?xml version="1.0" encoding="UTF-8"?>
<!--Generator: Apple Native CoreSVG 326-->
<!DOCTYPE svg
PUBLIC "-//W3C//DTD SVG 1.1//EN"
       "http://www.w3.org/Graphics/SVG/1.1/DTD/svg11.dtd">
<svg version="1.1" xmlns="http://www.w3.org/2000/svg" xmlns:xlink="http://www.w3.org/1999/xlink" viewBox="0 0 651.25 651.75">
 <g>
  <rect height="651.75" opacity="0" width="651.25" x="0" y="0"/>
  <path d="M325.5 651.25C505.25 651.25 651.25 505.5 651.25 325.75C651.25 146 505.25 0 325.5 0C145.75 0 0 146 0 325.75C0 505.5 145.75 651.25 325.5 651.25ZM325.5 604.75C171.25 604.75 46.5 480 46.5 325.75C46.5 171.5 171.25 46.75 325.5 46.75C479.75 46.75 604.5 171.5 604.5 325.75C604.5 480 479.75 604.75 325.5 604.75Z" fill="black" fill-opacity="0.85"/>
  <path d="M463.75 320.5C474.75 320.5 483.5 311.75 483.5 301L483.5 190.25C483.5 174.25 475 167.75 460.75 167.75L350.5 167.75C339.5 167.75 330.75 176.5 330.75 187.25C330.75 198 339.5 207 350.5 207L369.5 206.75L420.25 204.25L343 278.5C334.75 286.5 334.5 300 342.75 308C350.75 316.25 364 316.5 372.25 307.75L446.75 230L444.25 283L444.25 301C444.25 311.75 453 320.5 463.75 320.5ZM300.25 484C311 484 319.75 475.25 319.75 464.25C319.75 453.5 311 444.75 300.25 444.75L281 445L230.25 447.5L307.75 373C315.75 365.25 316 351.75 308 343.5C299.75 335.25 286.75 335 278.5 343.75L203.75 421.75L206.5 368.75L206.5 350.75C206.5 339.75 197.75 331 186.75 331C176 331 167.25 339.75 167.25 350.75L167.25 461.25C167.25 477.5 175.75 484 189.75 484Z" fill="black" fill-opacity="0.85"/>
 </g>
</svg>
