<?xml version="1.0" encoding="UTF-8"?>
<!--Generator: Apple Native CoreSVG 326-->
<!DOCTYPE svg
PUBLIC "-//W3C//DTD SVG 1.1//EN"
       "http://www.w3.org/Graphics/SVG/1.1/DTD/svg11.dtd">
<svg version="1.1" xmlns="http://www.w3.org/2000/svg" xmlns:xlink="http://www.w3.org/1999/xlink" viewBox="0 0 827 663.25">
 <g>
  <rect height="663.25" opacity="0" width="827" x="0" y="0"/>
  <path d="M665.5 97L665.5 173.599C656.157 171.049 649.895 165.86 640.75 156.25L621.25 135.679L621.25 99.5C621.25 63.5 601.5 45 567.25 45L98.25 45C64 45 44.25 63.5 44.25 99.5L44.25 420.75C44.25 456.75 63.25 475.25 98.25 475.25L161.5 475.25L161.5 519.5L97.25 519.5C32.5 519.5 0 487 0 423L0 97C0 33.25 32.5 0.75 97.25 0.75L568.25 0.75C633 0.75 665.5 33.25 665.5 97Z" fill="black" fill-opacity="0.85"/>
  <path d="M258.75 663.25L729.75 663.25C794.5 663.25 827 630.75 827 566.75L827 272C827 208 794.5 175.75 729.75 175.75L687.5 175.75C662.75 175.75 655.5 171.75 640.75 156.25L618 132.25C601 114.25 585.75 106.25 559.75 106.25L428.75 106.25C403 106.25 387.5 114.25 370.5 132.25L348 156.25C333 171.75 325.75 175.75 301 175.75L258.75 175.75C194.25 175.75 161.5 208 161.5 272L161.5 566.75C161.5 630.75 194.25 663.25 258.75 663.25ZM259.75 619C224.75 619 205.75 600.5 205.75 564.5L205.75 274.25C205.75 238.5 224.75 220 259.75 220L311 220C339 220 355 213.75 371.75 195.75L398.25 167.5C410 155.5 420 150.5 438.75 150.5L549.75 150.5C568.5 150.5 578.5 155.5 590.25 167.5L616.75 195.75C633.75 213.75 649.5 220 677.5 220L729 220C763.75 220 782.75 238.5 782.75 274.25L782.75 564.5C782.75 600.5 763.75 619 729 619ZM494.5 572C581.25 572 651.75 501.5 651.75 414.25C651.75 327.25 581.25 256.75 494.5 256.75C407.5 256.75 337.25 327.25 337.25 414.25C337.25 501.5 407.5 572 494.5 572ZM494.5 529.5C431 529.5 379.5 477.75 379.5 414.25C379.5 351 431 299.25 494.5 299.25C557.75 299.25 609.25 351 609.25 414.25C609.25 477.75 557.75 529.5 494.5 529.5ZM705 334.75C724.25 334.75 739.75 319 739.75 299.75C739.75 280.75 724.25 264.5 705 264.5C685.75 264.5 669.75 280.75 669.75 299.75C669.75 319 685.75 334.75 705 334.75Z" fill="black" fill-opacity="0.85"/>
 </g>
</svg>
