<?xml version="1.0" encoding="UTF-8"?>
<!--Generator: Apple Native CoreSVG 326-->
<!DOCTYPE svg
PUBLIC "-//W3C//DTD SVG 1.1//EN"
       "http://www.w3.org/Graphics/SVG/1.1/DTD/svg11.dtd">
<svg version="1.1" xmlns="http://www.w3.org/2000/svg" xmlns:xlink="http://www.w3.org/1999/xlink" viewBox="0 0 757.5 587.75">
 <g>
  <rect height="587.75" opacity="0" width="757.5" x="0" y="0"/>
  <path d="M97.25 587.75L359.25 587.75L359.25 543.5L98.25 543.5C63.25 543.5 44.25 525 44.25 489L44.25 313.75L0 313.75L0 491.5C0 555.5 32.75 587.75 97.25 587.75ZM399 587.75L660 587.75C724.75 587.75 757.5 555 757.5 491.5L757.5 313.75L713 313.75L713 489C713 525 693.5 543.5 659.25 543.5L399 543.5ZM713 274L757.5 274L757.5 96.5C757.5 32.75 724.75 0 660 0L399 0L399 44.25L659.25 44.25C693.5 44.25 713 63 713 98.75ZM0 274L44.25 274L44.25 98.75C44.25 63 63.25 44.25 98.25 44.25L359.25 44.25L359.25 0L97.25 0C32.75 0 0 32.5 0 96.5Z" fill="black" fill-opacity="0.85"/>
  <path d="M379.5 206C404.25 206 424.5 186 424.5 161C424.5 136 404.25 116 379.5 116C354.5 116 334.5 136 334.5 161C334.5 186 354.5 206 379.5 206ZM246.75 338.75C271.75 338.75 291.75 318.5 291.75 293.75C291.75 268.75 271.75 248.75 246.75 248.75C221.75 248.75 201.75 268.75 201.75 293.75C201.75 318.5 221.75 338.75 246.75 338.75ZM512.25 338.75C537 338.75 557 318.5 557 293.75C557 268.75 537 248.75 512.25 248.75C487.25 248.75 467.25 268.75 467.25 293.75C467.25 318.5 487.25 338.75 512.25 338.75ZM379.5 471.25C404.25 471.25 424.5 451.25 424.5 426.25C424.5 401.5 404.25 381.5 379.5 381.5C354.5 381.5 334.5 401.5 334.5 426.25C334.5 451.25 354.5 471.25 379.5 471.25Z" fill="black" fill-opacity="0.85"/>
  <path d="M379.5 338.75C404.25 338.75 424.5 318.5 424.5 293.75C424.5 268.75 404.25 248.75 379.5 248.75C354.5 248.75 334.5 268.75 334.5 293.75C334.5 318.5 354.5 338.75 379.5 338.75Z" fill="black" fill-opacity="0.85"/>
 </g>
</svg>
