<?xml version="1.0" encoding="UTF-8"?>
<!--Generator: Apple Native CoreSVG 326-->
<!DOCTYPE svg
PUBLIC "-//W3C//DTD SVG 1.1//EN"
       "http://www.w3.org/Graphics/SVG/1.1/DTD/svg11.dtd">
<svg version="1.1" xmlns="http://www.w3.org/2000/svg" xmlns:xlink="http://www.w3.org/1999/xlink" viewBox="0 0 757.5 587.75">
 <g>
  <rect height="587.75" opacity="0" width="757.5" x="0" y="0"/>
  <path d="M97.25 587.75L359.25 587.75L359.25 543.5L98.25 543.5C63.25 543.5 44.25 525 44.25 489L44.25 313.75L0 313.75L0 491.5C0 555.5 32.75 587.75 97.25 587.75ZM399 587.75L660 587.75C724.75 587.75 757.5 555 757.5 491.5L757.5 313.75L713 313.75L713 489C713 525 693.5 543.5 659.25 543.5L399 543.5ZM713 274L757.5 274L757.5 96.5C757.5 32.75 724.75 0 660 0L399 0L399 44.25L659.25 44.25C693.5 44.25 713 63 713 98.75ZM0 274L44.25 274L44.25 98.75C44.25 63 63.25 44.25 98.25 44.25L359.25 44.25L359.25 0L97.25 0C32.75 0 0 32.5 0 96.5Z" fill="black" fill-opacity="0.85"/>
  <path d="M379.25 470.5C477 470.5 556 391.25 556 293.75C556 196 477 116.75 379.25 116.75C281.75 116.75 202.5 196 202.5 293.75C202.5 391.25 281.75 470.5 379.25 470.5ZM379.25 434.25C301.75 434.25 238.75 371.25 238.75 293.75C238.75 216.25 301.75 153 379.25 153C456.75 153 520 216.25 520 293.75C520 371.25 456.75 434.25 379.25 434.25Z" fill="black" fill-opacity="0.85"/>
  <path d="M379.25 388.75C431.75 388.75 474.25 346.25 474.25 293.75C474.25 241 431.75 198.75 379.25 198.75C326.75 198.75 284.25 241 284.25 293.75C284.25 346.25 326.75 388.75 379.25 388.75Z" fill="black" fill-opacity="0.85"/>
 </g>
</svg>
