<?xml version="1.0" encoding="UTF-8"?>
<!--Generator: Apple Native CoreSVG 326-->
<!DOCTYPE svg
PUBLIC "-//W3C//DTD SVG 1.1//EN"
       "http://www.w3.org/Graphics/SVG/1.1/DTD/svg11.dtd">
<svg version="1.1" xmlns="http://www.w3.org/2000/svg" xmlns:xlink="http://www.w3.org/1999/xlink" viewBox="0 0 783.75 824.092">
 <g>
  <rect height="824.092" opacity="0" width="783.75" x="0" y="0"/>
  <path d="M639.5 338.671C661 338.671 678.5 321.171 678.5 299.421C678.5 277.921 661 260.421 639.5 260.421C618 260.421 600.5 277.921 600.5 299.421C600.5 321.171 618 338.671 639.5 338.671ZM97.25 706.171L686.5 706.171C751 706.171 783.75 673.671 783.75 609.921L783.75 271.421C783.75 207.921 751 175.171 686.5 175.171L592.75 175.171C567 175.171 559.75 171.171 544.5 154.171L518 124.421C501.5 106.421 486 97.9208 453.5 97.9208L326.5 97.9208C294 97.9208 278.5 106.421 262 124.421L235.5 154.171C220.75 170.671 212.75 175.171 187.25 175.171L97.25 175.171C32.75 175.171 0 207.921 0 271.421L0 609.921C0 673.671 32.75 706.171 97.25 706.171ZM98.25 661.921C64 661.921 44.25 643.421 44.25 607.671L44.25 273.921C44.25 237.921 64 219.421 98.25 219.421L197.5 219.421C226.5 219.421 241.5 214.671 258 196.171L284 167.171C302.5 146.671 312 142.171 339.25 142.171L440.75 142.171C468.25 142.171 477.5 146.671 496 167.171L522 196.171C538.5 214.671 553.5 219.421 582.75 219.421L685.75 219.421C720 219.421 739.5 237.921 739.5 273.921L739.5 607.671C739.5 643.421 720 661.921 685.75 661.921ZM392 612.171C490 612.171 568.75 533.671 568.75 434.921C568.75 336.421 490.25 257.921 392 257.921C294 257.921 215.25 336.421 215.25 434.921C215.25 533.671 294 612.171 392 612.171ZM392 569.921C317.75 569.921 257.25 509.921 257.25 434.921C257.25 360.171 317.5 300.171 392 300.171C466.25 300.171 526.5 360.171 526.5 434.921C526.5 509.921 466.25 569.921 392 569.921Z" fill="black" fill-opacity="0.85"/>
  <path d="M43.75 39.4208L133 118.171C138 122.421 143.25 125.671 149.25 125.671C155 125.671 160.5 122.421 165.25 118.171L254.5 39.4208C277.5 19.6708 250-15.3292 224.75 7.42081L149.25 78.1708L73.75 7.42081C48.25-15.3292 20.75 19.6708 43.75 39.4208Z" fill="black" fill-opacity="0.85"/>
 </g>
</svg>
