<?xml version="1.0" encoding="UTF-8"?>
<!--Generator: Apple Native CoreSVG 326-->
<!DOCTYPE svg
PUBLIC "-//W3C//DTD SVG 1.1//EN"
       "http://www.w3.org/Graphics/SVG/1.1/DTD/svg11.dtd">
<svg version="1.1" xmlns="http://www.w3.org/2000/svg" xmlns:xlink="http://www.w3.org/1999/xlink" viewBox="0 0 757.5 587.75">
 <g>
  <rect height="587.75" opacity="0" width="757.5" x="0" y="0"/>
  <path d="M97.25 587.75L359.25 587.75L359.25 543.5L98.25 543.5C63.25 543.5 44.25 525 44.25 489L44.25 313.75L0 313.75L0 491.5C0 555.5 32.75 587.75 97.25 587.75ZM399 587.75L660 587.75C724.75 587.75 757.5 555 757.5 491.5L757.5 313.75L713 313.75L713 489C713 525 693.5 543.5 659.25 543.5L399 543.5ZM713 274L757.5 274L757.5 96.5C757.5 32.75 724.75 0 660 0L399 0L399 44.25L659.25 44.25C693.5 44.25 713 63 713 98.75ZM0 274L44.25 274L44.25 98.75C44.25 63 63.25 44.25 98.25 44.25L359.25 44.25L359.25 0L97.25 0C32.75 0 0 32.5 0 96.5Z" fill="black" fill-opacity="0.85"/>
  <path d="M554.5 314.25L517.75 314.25C507.75 382 449.25 434.5 379.25 434.5C308.75 434.5 250 382.25 239.75 314.25L203.25 314.25C213.5 402.25 288.75 470.75 379.25 470.75C469 470.75 544 402 554.5 314.25ZM518 274.25L554.5 274.25C544.75 187 469.25 117.75 379.25 117.75C288.75 117.75 212.75 187 203.25 274.25L239.5 274.25C249.25 207 308.75 154 379.25 154C449.5 154 508.5 207 518 274.25Z" fill="black" fill-opacity="0.85"/>
 </g>
</svg>
