<?xml version="1.0" encoding="UTF-8"?>
<!--Generator: Apple Native CoreSVG 326-->
<!DOCTYPE svg
PUBLIC "-//W3C//DTD SVG 1.1//EN"
       "http://www.w3.org/Graphics/SVG/1.1/DTD/svg11.dtd">
<svg version="1.1" xmlns="http://www.w3.org/2000/svg" xmlns:xlink="http://www.w3.org/1999/xlink" viewBox="0 0 651.25 651.75">
 <g>
  <rect height="651.75" opacity="0" width="651.25" x="0" y="0"/>
  <path d="M651.25 325.75C651.25 505 505 651.25 325.5 651.25C146.25 651.25 0 505 0 325.75C0 146.25 146.25 0 325.5 0C505 0 651.25 146.25 651.25 325.75ZM312.75 519.25C312.75 526.25 318.25 531.5 325.25 531.5C368.714 531.5 410.452 518.052 444.714 494.964L381.176 431.426C362.974 447.841 348.45 467.739 338.25 489.75L338.25 388.5L312.75 363ZM130.25 399.25C153.75 468.25 220 519 296.25 528.75C295 526 294.25 522.5 294.25 519.25L294.25 461C262.25 414.75 207.75 383.25 141 383.25C130.5 383.25 127 390 130.25 399.25ZM160.75 160.75C155.5 166.25 155.75 175 160.75 180L471.25 490.5C476.25 495.5 485.25 495.75 490.5 490.5C495.75 484.75 495.75 476.5 490.5 471.25L180.25 160.75C175 155.5 166.5 155.5 160.75 160.75ZM444.508 394.008L495.903 445.403C506.157 431.333 514.299 415.82 520 399.25C523.5 390 519.75 383.25 509.5 383.25C486.155 383.25 464.344 387.035 444.508 394.008ZM284.919 335.169L218.643 268.893C229.507 299.885 252.863 324.192 284.919 335.169ZM316.5 164.5L282.5 208.5L242.75 168C237 161.5 227.5 162.75 224.75 170.25C224.337 171.198 223.933 172.144 223.584 173.084L379.83 329.33C416.687 310.505 438.75 272.359 438.75 227.75C438.75 208.75 434.75 189.75 426.25 170.25C423 162.75 413.75 161.5 408 168L368.25 208.5L334.25 164.5C329.75 157.75 321.5 157.75 316.5 164.5Z" fill="black" fill-opacity="0.85"/>
 </g>
</svg>
