<?xml version="1.0" encoding="UTF-8"?>
<!--Generator: Apple Native CoreSVG 326-->
<!DOCTYPE svg
PUBLIC "-//W3C//DTD SVG 1.1//EN"
       "http://www.w3.org/Graphics/SVG/1.1/DTD/svg11.dtd">
<svg version="1.1" xmlns="http://www.w3.org/2000/svg" xmlns:xlink="http://www.w3.org/1999/xlink" viewBox="0 0 651.25 651.75">
 <g>
  <rect height="651.75" opacity="0" width="651.25" x="0" y="0"/>
  <path d="M651.25 325.75C651.25 505 505 651.25 325.5 651.25C146.25 651.25 0 505 0 325.75C0 146.25 146.25 0 325.5 0C505 0 651.25 146.25 651.25 325.75ZM297.75 230.5L163.75 371.5C154.75 380.5 154.75 394 162.75 401.75C171.5 410.75 185.25 410.75 193.5 402L325.75 263.25L458 402C466 410.75 480 410.75 488.75 401.75C496.75 394 496.5 380.5 487.75 371.5L353.75 230.5C335.75 211.75 315.5 211.75 297.75 230.5Z" fill="black" fill-opacity="0.85"/>
 </g>
</svg>
