<?xml version="1.0" encoding="UTF-8"?>
<!--Generator: Apple Native CoreSVG 326-->
<!DOCTYPE svg
PUBLIC "-//W3C//DTD SVG 1.1//EN"
       "http://www.w3.org/Graphics/SVG/1.1/DTD/svg11.dtd">
<svg version="1.1" xmlns="http://www.w3.org/2000/svg" xmlns:xlink="http://www.w3.org/1999/xlink" viewBox="0 0 651.25 651.75">
 <g>
  <rect height="651.75" opacity="0" width="651.25" x="0" y="0"/>
  <path d="M458.75 414.75L458.75 459ZM503 148.5L503 192.75L547.5 192.75L547.5 148.5ZM458.75 192.75L458.75 237.25L503 237.25L503 192.75ZM414.25 237.25L414.25 281.5L458.75 281.5L458.75 237.25ZM370 281.5L370 326L414.25 326L414.25 281.5ZM325.75 326L325.75 370.5L370 370.5L370 326ZM281.25 370.5L281.25 414.75L325.75 414.75L325.75 370.5ZM236.75 414.75L236.75 459L281.25 459L281.25 414.75ZM192.5 459L192.5 503.5L236.75 503.5L236.75 459ZM148 503.5L148 548L192.5 548L192.5 503.5ZM192.5 586L200.25 592.25L236.75 592.25L236.75 548L192.5 548ZM236.75 503.5L236.75 548L281.25 548L281.25 503.5ZM281.25 459L281.25 503.5L325.75 503.5L325.75 459ZM325.75 414.75L325.75 459L370 459L370 414.75ZM370 370.5L370 414.75L414.25 414.75L414.25 370.5ZM414.25 326L414.25 370.5L458.75 370.5L458.75 326ZM458.75 281.5L458.75 326L503 326L503 281.5ZM503 237.25L503 281.5L547.5 281.5L547.5 237.25ZM591.75 235.5L591.75 281.5L624.75 281.5L624.75 235.5ZM547.5 281.5L547.5 326L591.75 326L591.75 281.5ZM503 326L503 370.5L547.5 370.5L547.5 326ZM458.75 370.5L458.75 414.75L503 414.75L503 370.5ZM414.25 414.75L414.25 459L458.75 459L458.75 414.75ZM370 459L370 503.5L414.25 503.5L414.25 459ZM325.75 503.5L325.75 548L370 548L370 503.5ZM281.25 548L281.25 592.25L325.75 592.25L325.75 548ZM235.25 592.25L235.25 624.75L281.25 624.75L281.25 592.25ZM325.75 592.25L325.75 628L370 628L370 592.25ZM370 548L370 592.25L414.25 592.25L414.25 548ZM414.25 503.5L414.25 548L458.75 548L458.75 503.5ZM458.75 459L458.75 503.5L503 503.5L503 459ZM503 414.75L503 459L547.5 459L547.5 414.75ZM547.5 370.5L547.5 414.75L591.75 414.75L591.75 370.5ZM591.75 326L591.75 370.5L628 370.5L628 326ZM547.5 459L547.5 503.5L577.75 503.5L589.5 459ZM503 503.5L503 548L535.25 548L547.5 536.5L547.5 503.5ZM458.75 548L458.75 590L503 578.25L503 548ZM591.75 204.25L581.25 192.75L547.5 192.75L547.5 237.25L591.75 237.25ZM325.5 651.25C505.25 651.25 651.25 505.5 651.25 325.75C651.25 146 505.25 0 325.5 0C145.75 0 0 146 0 325.75C0 505.5 145.75 651.25 325.5 651.25ZM325.5 604.75C171.25 604.75 46.5 480 46.5 325.75C46.5 171.5 171.25 46.75 325.5 46.75C479.75 46.75 604.5 171.5 604.5 325.75C604.5 480 479.75 604.75 325.5 604.75Z" fill="black" fill-opacity="0.85"/>
 </g>
</svg>
