<?xml version="1.0" encoding="UTF-8"?>
<!--Generator: Apple Native CoreSVG 326-->
<!DOCTYPE svg
PUBLIC "-//W3C//DTD SVG 1.1//EN"
       "http://www.w3.org/Graphics/SVG/1.1/DTD/svg11.dtd">
<svg version="1.1" xmlns="http://www.w3.org/2000/svg" xmlns:xlink="http://www.w3.org/1999/xlink" viewBox="0 0 757.5 587.75">
 <g>
  <rect height="587.75" opacity="0" width="757.5" x="0" y="0"/>
  <path d="M97.25 587.75L660 587.75C724.75 587.75 757.5 555 757.5 491.5L757.5 96.5C757.5 32.75 724.75 0 660 0L97.25 0C32.75 0 0 32.5 0 96.5L0 491.5C0 555.5 32.75 587.75 97.25 587.75ZM98.25 543.5C63.25 543.5 44.25 525 44.25 489L44.25 98.75C44.25 63 63.25 44.25 98.25 44.25L659.25 44.25C693.5 44.25 713 63 713 98.75L713 489C713 525 693.5 543.5 659.25 543.5Z" fill="black" fill-opacity="0.85"/>
  <path d="M375.5 470.75C473.25 470.75 552 392 552 294.25C552 196.5 473.25 117.75 375.5 117.75C278 117.75 199 196.5 199 294.25C199 392 278 470.75 375.5 470.75ZM375.5 434.5C297 434.5 235.25 372.75 235.25 294.25C235.25 215.75 297 154 375.5 154C454 154 516 215.75 516 294.25C516 372.75 454 434.5 375.5 434.5ZM245.75 371.75L448.75 168.75L416.75 142.5L234 325.25ZM338 449L519.75 267.5L507 222L306.75 422Z" fill="black" fill-opacity="0.85"/>
 </g>
</svg>
