<?xml version="1.0" encoding="UTF-8"?>
<!--Generator: Apple Native CoreSVG 326-->
<!DOCTYPE svg
PUBLIC "-//W3C//DTD SVG 1.1//EN"
       "http://www.w3.org/Graphics/SVG/1.1/DTD/svg11.dtd">
<svg version="1.1" xmlns="http://www.w3.org/2000/svg" xmlns:xlink="http://www.w3.org/1999/xlink" viewBox="0 0 651.25 651.75">
 <g>
  <rect height="651.75" opacity="0" width="651.25" x="0" y="0"/>
  <path d="M325.75 14.75C295.25 20.5 265 29.75 236.5 41.75L325.75 41.75ZM325.75 63.25L173.25 63.25C164 74.5 155.5 87 148 100.5L325.75 100.5ZM325.75 132L94.25 132C89 144 84.5 156.5 80.75 169.5L325.75 169.5ZM325.75 201L42.25 201C39.25 213.25 37 225.75 35.25 238.25L325.75 238.25ZM325.75 270L33.75 270C32.5 282.25 31.75 294.75 31.5 307.25L325.75 307.25ZM325.75 339L31.5 339C31.75 351.5 32.5 364 33.75 376.25L325.75 376.25ZM325.75 408L35.25 408C37 420.75 39.25 433 42.25 445.25L325.75 445.25ZM325.75 476.75L80.75 476.75C84.5 489.75 89 502.25 94.25 514.25L325.75 514.25ZM325.75 550.75L148 550.75C155.5 564.5 164 577 173.25 588.25L325.75 588.25ZM325.75 609.75L236.5 609.75C265 621.75 295.25 630.75 325.75 636.75ZM325.5 651.25C505.25 651.25 651.25 505.5 651.25 325.75C651.25 146 505.25 0 325.5 0C145.75 0 0 146 0 325.75C0 505.5 145.75 651.25 325.5 651.25ZM325.5 604.75C171.25 604.75 46.5 480 46.5 325.75C46.5 171.5 171.25 46.75 325.5 46.75C479.75 46.75 604.5 171.5 604.5 325.75C604.5 480 479.75 604.75 325.5 604.75Z" fill="black" fill-opacity="0.85"/>
 </g>
</svg>
