<?xml version="1.0" encoding="UTF-8"?>
<!--Generator: Apple Native CoreSVG 326-->
<!DOCTYPE svg
PUBLIC "-//W3C//DTD SVG 1.1//EN"
       "http://www.w3.org/Graphics/SVG/1.1/DTD/svg11.dtd">
<svg version="1.1" xmlns="http://www.w3.org/2000/svg" xmlns:xlink="http://www.w3.org/1999/xlink" viewBox="0 0 651.25 651.75">
 <g>
  <rect height="651.75" opacity="0" width="651.25" x="0" y="0"/>
  <path d="M325.25 14.75L325.25 41.75L414.5 41.75C386.25 29.75 356 20.5 325.25 14.75ZM325.25 63.25L325.25 100.5L503.25 100.5C495.75 87 487.25 74.5 478 63.25ZM325.25 132L325.25 169.5L570.5 169.5C566.5 156.5 562.25 144 557 132ZM325.25 201L325.25 238.25L616 238.25C614.25 225.75 611.75 213.25 609 201ZM325.25 270L325.25 307.25L619.75 307.25C619.5 294.75 618.75 282.25 617.5 270ZM325.25 339L325.25 376.25L617.5 376.25C618.75 364 619.5 351.5 619.75 339ZM325.25 408L325.25 445.25L609 445.25C611.75 433 614.25 420.75 616 408ZM325.25 476.75L325.25 514.25L557 514.25C562.25 502.25 566.5 489.75 570.5 476.75ZM325.25 550.75L325.25 588.25L478 588.25C487.25 577 495.75 564.5 503.25 550.75ZM325.25 609.75L325.25 636.75C356 630.75 386.25 621.75 414.5 609.75ZM325.5 651.25C505.25 651.25 651.25 505.5 651.25 325.75C651.25 146 505.25 0 325.5 0C145.75 0 0 146 0 325.75C0 505.5 145.75 651.25 325.5 651.25ZM325.5 604.75C171.25 604.75 46.5 480 46.5 325.75C46.5 171.5 171.25 46.75 325.5 46.75C479.75 46.75 604.5 171.5 604.5 325.75C604.5 480 479.75 604.75 325.5 604.75Z" fill="black" fill-opacity="0.85"/>
 </g>
</svg>
