<?xml version="1.0" encoding="UTF-8"?>
<!--Generator: Apple Native CoreSVG 326-->
<!DOCTYPE svg
PUBLIC "-//W3C//DTD SVG 1.1//EN"
       "http://www.w3.org/Graphics/SVG/1.1/DTD/svg11.dtd">
<svg version="1.1" xmlns="http://www.w3.org/2000/svg" xmlns:xlink="http://www.w3.org/1999/xlink" viewBox="0 0 757.5 587.75">
 <g>
  <rect height="587.75" opacity="0" width="757.5" x="0" y="0"/>
  <path d="M757.5 96.5L757.5 491.5C757.5 555 724.75 587.75 660 587.75L97.25 587.75C32.75 587.75 0 555.5 0 491.5L0 96.5C0 32.5 32.75 0 97.25 0L660 0C724.75 0 757.5 32.75 757.5 96.5ZM534.298 44.25L446.23 132.502C431.877 126.143 416.469 121.726 400.282 119.674L475.555 44.25L290.25 44.25L44.25 290.25L44.25 475.5L200.902 318.848C202.953 335.093 207.388 350.558 213.779 364.96L53.8006 524.514C62.6615 537.121 77.6971 543.5 98.25 543.5L223 543.5L308.835 457.665C323.523 463.75 339.247 467.821 355.678 469.572L281.75 543.5L467 543.5L713 297.5L713 112.25L550.828 274.422C549.088 258.04 545.052 242.37 539.009 227.741L703.355 63.3955C694.431 50.7337 679.391 44.25 659.25 44.25ZM526.02 543.5L659.25 543.5C693.5 543.5 713 525 713 489L713 356.734ZM98.25 44.25C63.25 44.25 44.25 63 44.25 98.75L44.25 231.25L231.25 44.25Z" fill="black" fill-opacity="0.85"/>
  <path d="M375.5 470.75C473.25 470.75 552 392 552 294.25C552 196.5 473.25 117.75 375.5 117.75C278 117.75 199 196.5 199 294.25C199 392 278 470.75 375.5 470.75ZM375.5 434.5C297 434.5 235.25 372.75 235.25 294.25C235.25 215.75 297 154 375.5 154C454 154 516 215.75 516 294.25C516 372.75 454 434.5 375.5 434.5Z" fill="black" fill-opacity="0.85"/>
 </g>
</svg>
