<?xml version="1.0" encoding="UTF-8"?>
<!--Generator: Apple Native CoreSVG 326-->
<!DOCTYPE svg
PUBLIC "-//W3C//DTD SVG 1.1//EN"
       "http://www.w3.org/Graphics/SVG/1.1/DTD/svg11.dtd">
<svg version="1.1" xmlns="http://www.w3.org/2000/svg" xmlns:xlink="http://www.w3.org/1999/xlink" viewBox="0 0 439.5 645.25">
 <g>
  <rect height="645.25" opacity="0" width="439.5" x="0" y="0"/>
  <path d="M224.25 608.5C384.25 608.5 418.25 456.5 406 380C379.75 400.5 348 435.75 288.75 435.75C203.75 435.75 172.25 366.5 82.75 366.5C69.25 366.5 54.75 368.5 38.5 373.5C16.25 478 64.25 608.5 224.25 608.5ZM219.75 645.25C351.75 645.25 439.5 559.5 439.5 431C439.5 369.75 415.25 305.75 393.75 257.75C359.5 181.25 307 97.5 260 25C249.5 9 237.25 0 219.75 0C202 0 190 9 179.75 25C132.5 97.5 80 181.25 45.75 257.75C24.25 305.75 0 369.75 0 431C0 559.5 88 645.25 219.75 645.25ZM219.75 600.25C115 600.25 45 532.5 45 431C45 379.5 65.5 326.5 86 279.75C121.75 197.75 169 126.5 214.75 57.5C217.75 52.75 222.25 52.75 225.25 57.5C270.5 126.5 318 197.75 353.25 279.5C374 326.5 394.5 379.5 394.5 431C394.5 532.5 324.75 600.25 219.75 600.25Z" fill="black" fill-opacity="0.85"/>
 </g>
</svg>
