<?xml version="1.0" encoding="UTF-8"?>
<!--Generator: Apple Native CoreSVG 326-->
<!DOCTYPE svg
PUBLIC "-//W3C//DTD SVG 1.1//EN"
       "http://www.w3.org/Graphics/SVG/1.1/DTD/svg11.dtd">
<svg version="1.1" xmlns="http://www.w3.org/2000/svg" xmlns:xlink="http://www.w3.org/1999/xlink" viewBox="0 0 651.25 651.75">
 <g>
  <rect height="651.75" opacity="0" width="651.25" x="0" y="0"/>
  <path d="M651.25 325.75C651.25 505 505 651.25 325.5 651.25C146.25 651.25 0 505 0 325.75C0 146.25 146.25 0 325.5 0C505 0 651.25 146.25 651.25 325.75ZM319.5 223.75L310.25 290.5L230.5 290.5C218.75 290.5 209.75 299.25 209.75 311.25C209.75 322.75 218.75 331.25 230.75 331.25L304.5 331.25L291.5 420.25C286.5 456.75 271.75 472.25 244 472.25C223.75 472.25 218.5 469.5 208.5 469.5C196.75 469.5 189.5 477.5 189.5 488.75C189.5 504.75 207.25 513.5 241.25 513.5C292.5 513.5 324.5 483.5 332.25 427L345.75 331.25L438 331.25C450.5 331.25 459.25 322.75 459.25 311.25C459.25 299.25 450 290.5 437.5 290.5L352 290.5L360.25 231C365.5 194.25 380 178.5 407.75 178.5C428.25 178.5 435 181 443.5 181C454.75 181 462.25 173.25 462.25 161.75C462.25 145.75 443.25 137.5 410.75 137.5C359.25 137.5 327.25 168 319.5 223.75Z" fill="black" fill-opacity="0.85"/>
 </g>
</svg>
