<?xml version="1.0" encoding="UTF-8"?>
<!--Generator: Apple Native CoreSVG 326-->
<!DOCTYPE svg
PUBLIC "-//W3C//DTD SVG 1.1//EN"
       "http://www.w3.org/Graphics/SVG/1.1/DTD/svg11.dtd">
<svg version="1.1" xmlns="http://www.w3.org/2000/svg" xmlns:xlink="http://www.w3.org/1999/xlink" viewBox="0 0 395.75 565.25">
 <g>
  <rect height="565.25" opacity="0" width="395.75" x="0" y="0"/>
  <path d="M69.5 565.25C141 565.25 187.5 524.5 199 442.25L240.75 144.75C249.25 84 275.75 57.75 322 57.75C354 57.75 364.25 61.75 375.75 61.75C387.5 61.75 395.75 54.5 395.75 41.75C395.75 20 359.75 14 326.25 14C254.75 14 208.25 54.75 196.75 137L154.75 434.5C146.25 495.25 120 521.5 73.5 521.5C41.5 521.5 32.5 517 20.25 517C8.25 517 0 524.5 0 537C0 559.25 36 565.25 69.5 565.25ZM53.75 289.5L368 289.5C381.25 289.5 390.5 280.5 390.5 267.5C390.5 254.75 381 245.75 367.5 245.75L53.25 245.75C40 245.75 30.5 254.75 30.5 267.5C30.5 280.5 40.25 289.5 53.75 289.5Z" fill="black" fill-opacity="0.85"/>
 </g>
</svg>
