<?xml version="1.0" encoding="UTF-8"?>
<!--Generator: Apple Native CoreSVG 326-->
<!DOCTYPE svg
PUBLIC "-//W3C//DTD SVG 1.1//EN"
       "http://www.w3.org/Graphics/SVG/1.1/DTD/svg11.dtd">
<svg version="1.1" xmlns="http://www.w3.org/2000/svg" xmlns:xlink="http://www.w3.org/1999/xlink" viewBox="0 0 757.5 587.75">
 <g>
  <rect height="587.75" opacity="0" width="757.5" x="0" y="0"/>
  <path d="M757.5 96.5L757.5 491.5C757.5 555 724.75 587.75 660 587.75L97.25 587.75C32.75 587.75 0 555.5 0 491.5L0 96.5C0 32.5 32.75 0 97.25 0L660 0C724.75 0 757.5 32.75 757.5 96.5ZM454.75 301.5L300.5 437.75L239.5 382.5C225 369.25 208.5 362.5 193 362.5C178.5 362.5 163 369.25 148.5 382L44.25 472.25L44.25 490.5C44.25 524 64.25 543.75 97.5 543.75L660.25 543.75C692.75 543.75 713 524 713 491L713 442.25L560.25 302C544.25 287.5 525.5 280 507.5 280C489.5 280 471.25 287.25 454.75 301.5ZM157 222C157 265.5 192.5 301 236 301C279.25 301 314.5 265.5 314.5 222C314.5 179 279.25 143 236 143C192.5 143 157 179 157 222Z" fill="black" fill-opacity="0.85"/>
 </g>
</svg>
