<?xml version="1.0" encoding="UTF-8"?>
<!--Generator: Apple Native CoreSVG 326-->
<!DOCTYPE svg
PUBLIC "-//W3C//DTD SVG 1.1//EN"
       "http://www.w3.org/Graphics/SVG/1.1/DTD/svg11.dtd">
<svg version="1.1" xmlns="http://www.w3.org/2000/svg" xmlns:xlink="http://www.w3.org/1999/xlink" viewBox="0 0 783 808.75">
 <g>
  <rect height="808.75" opacity="0" width="783" x="0" y="0"/>
  <path d="M595.336 89L187.911 89C189.513 66.3493 204.219 53.25 228.25 53.25L554.75 53.25C578.781 53.25 593.709 66.3493 595.336 89Z" fill="black" fill-opacity="0.85"/>
  <path d="M659.857 176.496C650.895 175.126 641.402 174.5 631.5 174.5L151.5 174.5C141.595 174.5 132.102 175.121 123.144 176.48C126.545 149.898 144.861 135 174.25 135L608.75 135C638.145 135 656.463 149.904 659.857 176.496Z" fill="black" fill-opacity="0.85"/>
  <path d="M156 745.25L627 745.25C685.5 745.25 715.75 716 715.75 657.25L715.75 633.25L556.25 483.5C542.25 470.5 525.75 464 508.25 464C490.5 464 475.75 470 460.75 483.25L320.25 606.5L265 556.5C251.75 544.25 238.25 538.25 222.75 538.25C208.5 538.25 195.75 544.5 182.75 556.25L67.5 657.5C67.5 716 97.75 745.25 156 745.25ZM151.5 754.75L631.5 754.75C696 754.75 728.75 722 728.75 658.25L728.75 325C728.75 261.25 696 228.75 631.5 228.75L151.5 228.75C86.75 228.75 54.25 261 54.25 325L54.25 658.25C54.25 722.25 86.75 754.75 151.5 754.75ZM152.25 710.5C117.5 710.5 98.5 692 98.5 656L98.5 327.25C98.5 291.5 117.5 273 152.25 273L630.75 273C665 273 684.5 291.5 684.5 327.25L684.5 656C684.5 692 665 710.5 630.75 710.5Z" fill="black" fill-opacity="0.85"/>
  <path d="M297 490.25C337.5 490.25 370.5 456.5 370.5 416C370.5 375.75 337.5 342.25 297 342.25C256 342.25 223.25 375.75 223.25 416C223.25 456.5 256 490.25 297 490.25Z" fill="black" fill-opacity="0.85"/>
 </g>
</svg>
