<?xml version="1.0" encoding="UTF-8"?>
<!--Generator: Apple Native CoreSVG 326-->
<!DOCTYPE svg
PUBLIC "-//W3C//DTD SVG 1.1//EN"
       "http://www.w3.org/Graphics/SVG/1.1/DTD/svg11.dtd">
<svg version="1.1" xmlns="http://www.w3.org/2000/svg" xmlns:xlink="http://www.w3.org/1999/xlink" viewBox="0 0 783 808.75">
 <g>
  <rect height="808.75" opacity="0" width="783" x="0" y="0"/>
  <path d="M595.336 89L187.911 89C189.513 66.3493 204.219 53.25 228.25 53.25L554.75 53.25C578.781 53.25 593.709 66.3493 595.336 89Z" fill="black" fill-opacity="0.85"/>
  <path d="M659.857 176.496C650.895 175.126 641.402 174.5 631.5 174.5L151.5 174.5C141.595 174.5 132.102 175.121 123.144 176.48C126.545 149.898 144.861 135 174.25 135L608.75 135C638.145 135 656.463 149.904 659.857 176.496Z" fill="black" fill-opacity="0.85"/>
  <path d="M728.75 325L728.75 658.25C728.75 722 696 754.75 631.5 754.75L151.5 754.75C86.75 754.75 54.25 722.25 54.25 658.25L54.25 325C54.25 261 86.75 228.75 151.5 228.75L631.5 228.75C696 228.75 728.75 261.25 728.75 325ZM455.75 483.5L319.25 603L265.75 554.5C253 542.75 239.75 536.75 224.75 536.75C210.75 536.75 198.75 542.75 185.75 554.25L103.5 627L103.5 652.75C103.5 687.5 122 705.5 156 705.5L627.25 705.5C660.25 705.5 679.5 687.5 679.5 652.75L679.5 606.25L548.5 483.75C535 471 519 464.75 502 464.75C484.75 464.75 470.25 470.5 455.75 483.5ZM224.75 416C224.75 455.5 256.75 488.25 296.5 488.25C335.75 488.25 367.75 455.5 367.75 416C367.75 377 335.75 344.5 296.5 344.5C256.75 344.5 224.75 377 224.75 416Z" fill="black" fill-opacity="0.85"/>
 </g>
</svg>
