<?xml version="1.0" encoding="UTF-8"?>
<!--Generator: Apple Native CoreSVG 326-->
<!DOCTYPE svg
PUBLIC "-//W3C//DTD SVG 1.1//EN"
       "http://www.w3.org/Graphics/SVG/1.1/DTD/svg11.dtd">
<svg version="1.1" xmlns="http://www.w3.org/2000/svg" xmlns:xlink="http://www.w3.org/1999/xlink" viewBox="0 0 692.688 726.063">
 <g>
  <rect height="726.063" opacity="0" width="692.688" x="0" y="0"/>
  <path d="M172.344 616.656C172.344 646.156 188.344 662.406 219.844 662.406L473.594 662.406C505.344 662.406 521.344 646.156 521.344 616.656L521.344 601.124L560.846 640.643C553.667 678.761 523.805 702.906 478.594 702.906L214.844 702.906C162.594 702.906 130.844 670.656 130.844 621.906L130.844 590.906L172.344 590.906ZM562.594 483.308L521.344 442.023L521.344 369.906L562.594 369.906ZM172.344 251.974L172.344 345.156L130.844 345.156L130.71 210.322ZM562.344 93.1564L562.344 124.156L521.094 124.156L521.094 98.4064C521.094 68.9064 505.094 52.6564 473.344 52.6564L219.594 52.6564C190.106 52.6564 174.421 66.8965 172.541 92.9191L137.359 57.7075C149.19 29.3699 176.421 12.1564 214.594 12.1564L478.344 12.1564C530.594 12.1564 562.344 44.4064 562.344 93.1564Z" fill="black" fill-opacity="0.85"/>
  <path d="M135.594 397.656L135.594 447.156L133.844 492.906L171.594 453.156L224.594 399.906C228.594 395.656 233.344 394.156 237.844 394.156C248.844 394.156 259.094 403.906 259.094 414.906C259.094 419.656 257.344 424.406 253.094 428.656L199.844 481.406L159.844 519.406L206.094 517.656L253.344 517.656C265.594 517.656 271.844 526.656 271.844 535.906C271.844 544.906 265.844 553.906 254.094 553.906L122.344 553.906C107.594 553.906 99.3439 545.656 99.3439 530.906L99.3439 396.906C99.3439 384.906 108.344 379.156 117.094 379.156C126.344 379.156 135.594 385.406 135.594 397.656ZM593.844 184.156L593.844 318.156C593.844 330.156 585.094 335.906 576.094 335.906C566.844 335.906 557.594 329.656 557.594 317.406L557.594 267.906L559.344 222.156L521.594 262.156L468.844 315.156C464.594 319.406 459.844 320.906 455.344 320.906C444.344 320.906 434.344 311.156 434.344 300.156C434.344 295.406 435.844 290.906 440.344 286.406L493.344 233.656L533.344 195.656L487.094 197.406L440.094 197.406C427.844 197.406 421.594 188.156 421.594 179.156C421.594 170.156 427.594 161.156 439.344 161.156L570.844 161.156C585.594 161.156 593.844 169.406 593.844 184.156Z" fill="black" fill-opacity="0.85"/>
  <path d="M621.594 652.156C629.594 660.156 643.594 660.406 651.594 652.156C659.844 643.656 660.094 630.156 651.594 621.906L71.3439 41.1564C63.3439 32.9064 49.5939 32.6564 41.0939 41.1564C32.8439 49.1564 32.8439 63.1564 41.0939 71.4064Z" fill="black" fill-opacity="0.85"/>
 </g>
</svg>
