<?xml version="1.0" encoding="UTF-8"?>
<!--Generator: Apple Native CoreSVG 326-->
<!DOCTYPE svg
PUBLIC "-//W3C//DTD SVG 1.1//EN"
       "http://www.w3.org/Graphics/SVG/1.1/DTD/svg11.dtd">
<svg version="1.1" xmlns="http://www.w3.org/2000/svg" xmlns:xlink="http://www.w3.org/1999/xlink" viewBox="0 0 736.563 749.626">
 <g>
  <rect height="749.626" opacity="0" width="736.563" x="0" y="0"/>
  <path d="M184.966 485.123L106.656 529.938C104.656 530.938 103.406 532.188 103.406 534.438C103.406 536.438 104.656 537.688 106.656 538.688L357.406 682.188C362.406 685.188 366.406 686.688 370.656 686.688C374.906 686.688 378.906 685.188 383.906 682.188L526.981 600.309L560.373 633.687L407.156 722.438C393.156 730.688 382.156 734.438 370.656 734.438C358.906 734.438 348.156 730.688 334.156 722.438L78.6564 574.438C55.6564 560.938 46.4064 550.438 46.4064 534.438C46.4064 518.188 55.6564 507.688 78.6564 494.438L139.839 458.938ZM662.656 494.438C685.656 507.688 694.906 518.188 694.906 534.438C694.906 550.438 685.656 560.938 662.656 574.438L661.058 575.364L628.114 542.432L634.656 538.688C636.656 537.688 637.906 536.438 637.906 534.438C637.906 532.188 636.656 530.938 634.656 529.938L590.112 504.446L565.479 479.824L601.474 458.938Z" fill="black" fill-opacity="0.85"/>
  <path d="M192.917 329.736L106.656 379.188C104.656 380.188 103.406 381.438 103.406 383.438C103.406 385.688 104.656 386.688 106.656 387.938L357.406 531.438C362.406 534.188 366.406 535.688 370.656 535.688C374.906 535.688 378.906 534.188 383.906 531.438L431.077 504.443L464.856 538.209L407.156 571.688C393.156 579.688 382.156 583.688 370.656 583.688C358.906 583.688 348.156 579.688 334.156 571.688L78.6564 423.438C55.6564 410.188 46.4064 399.688 46.4064 383.438C46.4064 367.438 55.6564 356.938 78.6564 343.438L147.594 303.438ZM662.656 343.438C685.656 356.938 694.906 367.438 694.906 383.438C694.906 399.688 685.656 410.188 662.656 423.438L565.479 479.824L532.209 446.567L634.656 387.938C636.656 386.688 637.906 385.688 637.906 383.438C637.906 381.438 636.656 380.188 634.656 379.188L548.395 329.736L593.719 303.438Z" fill="black" fill-opacity="0.85"/>
  <path d="M131.473 204.961L106.656 219.188C104.656 220.188 103.406 221.438 103.406 223.438C103.406 225.688 104.656 226.688 106.656 227.938L218.481 291.933L342.953 416.355C340.162 415.016 337.238 413.449 334.156 411.688L78.6564 263.438C55.6564 250.188 46.4064 239.688 46.4064 223.438C46.4064 207.438 55.6564 196.938 78.6564 183.438L98.4637 171.965ZM407.156 35.438L662.656 183.438C685.656 196.938 694.906 207.438 694.906 223.438C694.906 239.688 685.656 250.188 662.656 263.438L464.203 378.588L430.42 344.819L634.656 227.938C636.656 226.688 637.906 225.688 637.906 223.438C637.906 221.438 636.656 220.188 634.656 219.188L383.906 75.438C378.906 72.688 374.906 71.188 370.656 71.188C366.406 71.188 362.406 72.688 357.406 75.438L232.542 147.021L199.149 113.642L334.156 35.438C348.156 27.188 358.906 23.438 370.656 23.438C382.156 23.438 393.156 27.188 407.156 35.438Z" fill="black" fill-opacity="0.85"/>
  <path d="M665.406 689.188C673.656 697.688 687.406 697.688 695.656 689.188C703.906 680.938 703.906 667.438 695.656 659.188L77.4064 41.188C69.1564 32.938 55.6564 32.688 46.9064 41.188C38.9064 49.188 38.9064 63.188 46.9064 71.188Z" fill="black" fill-opacity="0.85"/>
 </g>
</svg>
