<?xml version="1.0" encoding="UTF-8"?>
<!--Generator: Apple Native CoreSVG 326-->
<!DOCTYPE svg
PUBLIC "-//W3C//DTD SVG 1.1//EN"
       "http://www.w3.org/Graphics/SVG/1.1/DTD/svg11.dtd">
<svg version="1.1" xmlns="http://www.w3.org/2000/svg" xmlns:xlink="http://www.w3.org/1999/xlink" viewBox="0 0 648.75 719.25">
 <g>
  <rect height="719.25" opacity="0" width="648.75" x="0" y="0"/>
  <path d="M616.5 479.25C639.25 492.5 648.75 503 648.75 519.25C648.75 535.25 639.25 545.75 616.5 559.25L360.75 707.25C347 715.5 336 719.25 324.25 719.25C312.75 719.25 301.75 715.5 287.75 707.25L32.25 559.25C9.25 545.75 0 535.25 0 519.25C0 503 9.25 492.5 32.25 479.25L93.4321 443.75L287.75 556.5C301.75 564.5 312.75 568.5 324.25 568.5C336 568.5 347 564.5 360.75 556.5L555.258 443.75Z" fill="black" fill-opacity="0.85"/>
  <path d="M146.511 314.548L60.25 364C58.5 365 57 366.25 57 368.25C57 370.5 58.5 371.5 60.25 372.75L311 516.25C316 519 320 520.5 324.25 520.5C328.75 520.5 332.5 519 337.5 516.25L588.25 372.75C590.25 371.5 591.5 370.5 591.5 368.25C591.5 366.25 590.25 365 588.25 364L502.058 314.588L547.495 288.25L616.5 328.25C639.25 341.75 648.75 352.25 648.75 368.25C648.75 384.5 639.25 395 616.5 408.25L360.75 556.5C347 564.5 336 568.5 324.25 568.5C312.75 568.5 301.75 564.5 287.75 556.5L32.25 408.25C9.25 395 0 384.5 0 368.25C0 352.25 9.25 341.75 32.25 328.25L101.188 288.25Z" fill="black" fill-opacity="0.85"/>
  <path d="M324.25 408.5C336 408.5 347 404.5 360.75 396.5L616.5 248.25C639.25 235 648.75 224.5 648.75 208.25C648.75 192.25 639.25 181.75 616.5 168.25L360.75 20.25C347 12 336 8.25 324.25 8.25C312.75 8.25 301.75 12 287.75 20.25L32.25 168.25C9.25 181.75 0 192.25 0 208.25C0 224.5 9.25 235 32.25 248.25L287.75 396.5C301.75 404.5 312.75 408.5 324.25 408.5ZM324.25 360.5C320 360.5 316 359 311 356.25L60.25 212.75C58.5 211.5 57 210.5 57 208.25C57 206.25 58.5 205 60.25 204L311 60.25C316 57.5 320 56 324.25 56C328.75 56 332.5 57.5 337.5 60.25L588.25 204C590.25 205 591.5 206.25 591.5 208.25C591.5 210.5 590.25 211.5 588.25 212.75L337.5 356.25C332.5 359 328.75 360.5 324.25 360.5Z" fill="black" fill-opacity="0.85"/>
 </g>
</svg>
