<?xml version="1.0" encoding="UTF-8"?>
<!--Generator: Apple Native CoreSVG 326-->
<!DOCTYPE svg
PUBLIC "-//W3C//DTD SVG 1.1//EN"
       "http://www.w3.org/Graphics/SVG/1.1/DTD/svg11.dtd">
<svg version="1.1" xmlns="http://www.w3.org/2000/svg" xmlns:xlink="http://www.w3.org/1999/xlink" viewBox="0 0 771.001 749.626">
 <g>
  <rect height="749.626" opacity="0" width="771.001" x="0" y="0"/>
  <path d="M404.251 18.938L664.501 169.188C690.501 184.438 700.001 200.688 700.001 230.438L700.001 526.938C700.001 545.583 695.558 559.3 687.761 567.725L640.109 520.093L648.501 524.938C652.501 527.188 655.001 525.438 655.001 521.438L655.001 231.938C655.001 219.438 651.501 214.938 641.751 209.188L391.001 64.188C387.001 61.938 383.501 63.938 383.501 68.438L383.501 157.827L338.751 131.949L338.751 53.688C338.751 13.688 374.501 1.93804 404.251 18.938Z" fill="black" fill-opacity="0.85"/>
  <path d="M519.251 600.938C523.251 603.188 525.751 601.438 525.751 597.688L525.751 564.559L570.26 609.032C567.876 652.679 538.999 665.431 500.751 643.438L432.251 603.826L432.251 550.756ZM274.751 94.938L535.001 245.438C561.001 260.438 570.501 276.688 570.501 306.438L570.501 450.512L525.751 405.781L525.751 307.938C525.751 295.438 522.251 290.938 512.501 285.188L261.751 140.438C260.904 139.909 260.08 139.582 259.31 139.448L219.331 99.485C232.056 85.0731 254.758 83.5138 274.751 94.938Z" fill="black" fill-opacity="0.85"/>
  <path d="M136.501 175.938L137.248 176.37L263.202 302.222L123.501 221.438C119.501 219.188 116.001 221.188 116.001 225.438L116.001 513.688C116.001 525.688 118.501 530.688 128.751 536.688L381.001 682.188C385.001 684.438 387.501 682.688 387.501 678.688L387.501 426.421L432.251 471.134L432.251 684.188C432.251 732.438 402.501 747.438 362.501 724.438L107.001 576.938C78.7505 560.438 71.0005 544.938 71.0005 514.438L71.0005 210.688C71.0005 170.938 106.751 158.938 136.501 175.938Z" fill="black" fill-opacity="0.85"/>
  <path d="M699.751 689.188C708.001 697.688 721.751 697.688 730.001 689.188C738.251 680.938 738.251 667.438 730.001 659.188L111.751 41.188C103.501 32.938 90.0005 32.688 81.2505 41.188C73.2505 49.188 73.2505 63.188 81.2505 71.188Z" fill="black" fill-opacity="0.85"/>
 </g>
</svg>
