<?xml version="1.0" encoding="UTF-8"?>
<!--Generator: Apple Native CoreSVG 326-->
<!DOCTYPE svg
PUBLIC "-//W3C//DTD SVG 1.1//EN"
       "http://www.w3.org/Graphics/SVG/1.1/DTD/svg11.dtd">
<svg version="1.1" xmlns="http://www.w3.org/2000/svg" xmlns:xlink="http://www.w3.org/1999/xlink" viewBox="0 0 628.75 726.854">
 <g>
  <rect height="726.854" opacity="0" width="628.75" x="0" y="0"/>
  <path d="M333.25 7.5521L593.25 157.802C619.5 173.052 628.75 189.302 628.75 219.052L628.75 515.552C628.75 563.802 599 579.052 559.25 556.052L499.5 521.534L499.5 468.561L577.5 513.552C581.5 515.802 584 514.052 584 510.052L584 220.552C584 208.052 580.5 203.552 570.75 197.802L320 52.8021C316 50.5521 312.5 52.5521 312.5 57.0521L312.5 146.441L267.75 120.563L267.75 42.3021C267.75 2.3021 303.25-9.4479 333.25 7.5521Z" fill="black" fill-opacity="0.85"/>
  <path d="M203.75 83.5521L464 234.052C490 249.052 499.5 265.302 499.5 295.052L499.5 591.552C499.5 640.052 469.75 655.052 429.75 632.052L361.25 592.44L361.25 539.464L448 589.552C452.25 591.802 454.75 590.052 454.75 586.302L454.75 296.552C454.75 284.052 451 279.552 441.25 273.802L190.5 129.052C186.5 126.552 183 128.552 183 133.052L183 232.501L138.25 206.623L138.25 118.302C138.25 78.3021 174 66.5521 203.75 83.5521Z" fill="black" fill-opacity="0.85"/>
  <path d="M361.25 376.302C361.25 346.552 351.75 330.052 325.75 315.052L65.5 164.552C35.75 147.552 0 159.552 0 199.302L0 503.052C0 533.552 7.5 549.052 36 565.552L291.5 713.052C331.5 736.052 361.25 721.052 361.25 672.802ZM303 355.052C312.75 360.802 316.25 365.052 316.25 377.802L316.25 667.302C316.25 671.302 313.75 673.052 309.75 670.802L57.75 525.302C47.5 519.302 44.75 514.302 44.75 502.302L44.75 214.052C44.75 209.802 48.25 207.802 52.25 210.052Z" fill="black" fill-opacity="0.85"/>
 </g>
</svg>
