<?xml version="1.0" encoding="UTF-8"?>
<!--Generator: Apple Native CoreSVG 326-->
<!DOCTYPE svg
PUBLIC "-//W3C//DTD SVG 1.1//EN"
       "http://www.w3.org/Graphics/SVG/1.1/DTD/svg11.dtd">
<svg version="1.1" xmlns="http://www.w3.org/2000/svg" xmlns:xlink="http://www.w3.org/1999/xlink" viewBox="0 0 648.75 674.75">
 <g>
  <rect height="674.75" opacity="0" width="648.75" x="0" y="0"/>
  <path d="M238.775 368.083L60.25 470.25C58.5 471.5 57 472.5 57 474.75C57 476.75 58.5 478 60.25 479L311 622.75C316 625.5 320 627 324.25 627C328.75 627 332.5 625.5 337.5 622.75L588.25 479C590.25 478 591.5 476.75 591.5 474.75C591.5 472.5 590.25 471.5 588.25 470.25L409.749 368.097L455.632 341.5L616.5 434.75C639.25 448 648.75 458.5 648.75 474.75C648.75 490.75 639.25 501.25 616.5 514.75L360.75 663C347 671 336 674.75 324.25 674.75C312.75 674.75 301.75 671 287.75 663L32.25 514.75C9.25 501.25 0 490.75 0 474.75C0 458.5 9.25 448 32.25 434.75L192.961 341.5Z" fill="black" fill-opacity="0.85"/>
  <path d="M324.25 408.5C336 408.5 347 404.5 360.75 396.5L616.5 248.25C639.25 234.75 648.75 224.25 648.75 208.25C648.75 192 639.25 181.75 616.5 168.25L360.75 20C347 12 336 8 324.25 8C312.75 8 301.75 12 287.75 20L32.25 168.25C9.25 181.75 0 192 0 208.25C0 224.25 9.25 234.75 32.25 248.25L287.75 396.5C301.75 404.5 312.75 408.5 324.25 408.5Z" fill="black" fill-opacity="0.85"/>
 </g>
</svg>
