<?xml version="1.0" encoding="UTF-8"?>
<!--Generator: Apple Native CoreSVG 326-->
<!DOCTYPE svg
PUBLIC "-//W3C//DTD SVG 1.1//EN"
       "http://www.w3.org/Graphics/SVG/1.1/DTD/svg11.dtd">
<svg version="1.1" xmlns="http://www.w3.org/2000/svg" xmlns:xlink="http://www.w3.org/1999/xlink" viewBox="0 0 662.5 816.75">
 <g>
  <rect height="816.75" opacity="0" width="662.5" x="0" y="0"/>
  <path d="M21 666L641.5 666C653.25 666 662.5 657 662.5 645.25C662.5 633.5 653.25 624.25 641.5 624.25L21 624.25C9 624.25 0 633.5 0 645.25C0 657 9 666 21 666ZM21 816.75L427 816.75C438.75 816.75 448 807.75 448 796C448 784.25 438.75 775 427 775L21 775C9 775 0 784.25 0 796C0 807.75 9 816.75 21 816.75Z" fill="black" fill-opacity="0.85"/>
  <path d="M86.25 515.25L576.25 515.25C633.5 515.25 662.5 486.5 662.5 430L662.5 86C662.5 29.5 633.5 0.25 576.25 0.25L86.25 0.25C29.25 0.25 0 29.75 0 86L0 430C0 486.5 29.25 515.25 86.25 515.25ZM87 473.25C57.5 473.25 41.75 457.75 41.75 427.75L41.75 88.25C41.75 58.25 57.5 42 87 42L575.5 42C605 42 620.75 58.25 620.75 88.25L620.75 427.75C620.75 457.25 605 473.25 575.5 473.25ZM636.75 419.75L467.5 261.5C454.5 250.25 440 244 424.25 244C408.5 244 395 249.5 381.5 261.25L254.25 375.25L201.75 327.25C190 316.25 177.25 310.75 163.25 310.75C150.5 310.75 139 316.5 127.25 327L21.25 424C24.25 472.25 42.75 495.5 83.75 495.5L564.25 495.5C613.5 495.5 636.75 468 636.75 419.75Z" fill="black" fill-opacity="0.85"/>
  <path d="M208.75 261.25C245 261.25 275.25 231.25 275.25 194.5C275.25 158.5 245 128.5 208.75 128.5C172.25 128.5 142.75 158.5 142.75 194.5C142.75 231.25 172.25 261.25 208.75 261.25Z" fill="black" fill-opacity="0.85"/>
 </g>
</svg>
