<?xml version="1.0" encoding="UTF-8"?>
<!--Generator: Apple Native CoreSVG 326-->
<!DOCTYPE svg
PUBLIC "-//W3C//DTD SVG 1.1//EN"
       "http://www.w3.org/Graphics/SVG/1.1/DTD/svg11.dtd">
<svg version="1.1" xmlns="http://www.w3.org/2000/svg" xmlns:xlink="http://www.w3.org/1999/xlink" viewBox="0 0 769.25 560.757">
 <g>
  <rect height="560.757" opacity="0" width="769.25" x="0" y="0"/>
  <path d="M207.25 493.503L562 555.253C619.25 565.253 653.75 527.753 653.75 464.253L653.75 92.7535C653.75 26.7535 621.25-8.49652 562 1.75348L207.25 63.5035C148 74.0035 115.5 102.753 115.5 154.503L115.5 402.503C115.5 454.003 148 483.003 207.25 493.503ZM205.75 452.003C174 446.753 157.25 431.753 157.25 403.003L157.25 154.003C157.25 125.253 174 110.253 205.75 105.003L563.5 43.2535C595.25 38.0035 612 57.0035 612 92.2535L612 464.753C612 499.003 594.5 519.003 563.5 513.753ZM22 299.503L747.25 299.503C761 299.503 769.25 291.253 769.25 278.753C769.25 265.503 761 257.503 747.25 257.503L22 257.503C8.25 257.503 0 265.503 0 278.753C0 291.253 8.25 299.503 22 299.503Z" fill="black" fill-opacity="0.85"/>
 </g>
</svg>
