<?xml version="1.0" encoding="UTF-8"?>
<!--Generator: Apple Native CoreSVG 326-->
<!DOCTYPE svg
PUBLIC "-//W3C//DTD SVG 1.1//EN"
       "http://www.w3.org/Graphics/SVG/1.1/DTD/svg11.dtd">
<svg version="1.1" xmlns="http://www.w3.org/2000/svg" xmlns:xlink="http://www.w3.org/1999/xlink" viewBox="0 0 624.75 630.75">
 <g>
  <rect height="630.75" opacity="0" width="624.75" x="0" y="0"/>
  <path d="M0 253C0 392.25 113.5 505.75 253 505.75C309.25 505.75 361 487.25 403 456L567.75 621C574 627.5 582.75 630.75 591.75 630.75C611.5 630.75 624.75 615.75 624.75 597C624.75 587.75 621.5 579.75 615.5 573.5L451.5 408.75C485.5 366 506 311.75 506 253C506 113.5 392.5 0 253 0C113.5 0 0 113.5 0 253ZM46.75 253C46.75 139.25 139.25 46.75 253 46.75C366.75 46.75 459 139.25 459 253C459 366.5 366.75 459 253 459C139.25 459 46.75 366.5 46.75 253ZM267 372.75C278.25 372.75 286.25 367.25 286.25 355.25L286.25 149.5C286.25 136.5 277.75 127.5 264 127.5C254.25 127.5 248.25 130 237.5 137.5L190.5 169.5C183.25 174.5 180.75 179 180.75 186.25C180.75 194.5 188 201.25 195.75 201.25C201.25 201.25 203.75 199.75 208.25 196.5L245.25 171L247.5 171L247.5 352.5C247.5 365 255.25 372.75 267 372.75Z" fill="black" fill-opacity="0.85"/>
 </g>
</svg>
