<?xml version="1.0" encoding="UTF-8"?>
<!--Generator: Apple Native CoreSVG 326-->
<!DOCTYPE svg
PUBLIC "-//W3C//DTD SVG 1.1//EN"
       "http://www.w3.org/Graphics/SVG/1.1/DTD/svg11.dtd">
<svg version="1.1" xmlns="http://www.w3.org/2000/svg" xmlns:xlink="http://www.w3.org/1999/xlink" viewBox="0 0 747.108 735.75">
 <g>
  <rect height="735.75" opacity="0" width="747.108" x="0" y="0"/>
  <path d="M607.25 67.1869C592.298 73.0481 578.474 80.5036 565.035 88.0501C562.353 59.9461 543.944 44.25 514.929 44.25L232.179 44.25C200.679 44.25 181.679 62.75 181.679 95.5L181.679 585.5C181.679 618.25 200.679 636.75 232.179 636.75L514.929 636.75C546.429 636.75 565.429 618.25 565.429 585.5L565.429 299.845C580.264 291.681 594.696 283.259 609.679 276.538L609.679 587.75C609.679 638.677 587.026 669.565 543.679 678.292L543.679 713C543.679 726 534.679 735 521.679 735C508.429 735 499.429 726 499.429 713L499.429 681L247.679 681L247.679 713C247.679 726 238.429 735 225.429 735C212.179 735 203.179 726 203.179 713L203.179 678.248C159.925 669.456 137.179 638.587 137.179 587.75L137.179 93.25C137.179 32.25 170.429 0 231.429 0L515.679 0C567.275 0 598.839 23.0732 607.25 67.1869ZM353.179 570.25C353.179 580.75 345.179 588.75 334.429 588.75L238.679 588.75C228.179 588.75 219.929 580.75 219.929 570.25C219.929 559.5 228.179 551.5 238.679 551.5L334.429 551.5C345.179 551.5 353.179 559.5 353.179 570.25ZM527.179 570.25C527.179 580.75 518.929 588.75 508.429 588.75L412.429 588.75C401.929 588.75 393.929 580.75 393.929 570.25C393.929 559.5 401.929 551.5 412.429 551.5L508.429 551.5C518.929 551.5 527.179 559.5 527.179 570.25ZM353.179 491C353.179 501.5 345.179 509.75 334.429 509.75L238.679 509.75C228.179 509.75 219.929 501.5 219.929 491C219.929 480.5 228.179 472.25 238.679 472.25L334.429 472.25C345.179 472.25 353.179 480.5 353.179 491ZM527.179 491C527.179 501.5 518.929 509.75 508.429 509.75L412.429 509.75C401.929 509.75 393.929 501.5 393.929 491C393.929 480.5 401.929 472.25 412.429 472.25L508.429 472.25C518.929 472.25 527.179 480.5 527.179 491ZM353.179 411.75C353.179 422.25 345.179 430.5 334.429 430.5L238.679 430.5C228.179 430.5 219.929 422.25 219.929 411.75C219.929 401.25 228.179 393 238.679 393L334.429 393C345.179 393 353.179 401.25 353.179 411.75ZM527.179 411.75C527.179 422.25 518.929 430.5 508.429 430.5L412.429 430.5C401.929 430.5 393.929 422.25 393.929 411.75C393.929 401.25 401.929 393 412.429 393L508.429 393C518.929 393 527.179 401.25 527.179 411.75ZM609.679 237.187C593.958 243.176 579.48 250.947 565.429 258.832L565.429 214.551C580.269 206.357 594.706 197.898 609.679 191.141ZM310.929 132.75C310.929 157 291.179 176.75 267.179 176.75C242.929 176.75 223.179 157 223.179 132.75C223.179 108.75 242.929 89 267.179 89C291.179 89 310.929 108.75 310.929 132.75ZM609.679 151.747C593.965 157.756 579.488 165.551 565.429 173.452L565.429 128.982C580.264 120.788 594.696 112.336 609.679 105.59Z" fill="black" fill-opacity="0.85"/>
  <path d="M466.929 160.25C549.929 160.25 594.929 91.25 668.679 91.25C686.679 91.25 701.429 95.25 719.679 105.5C730.179 111 739.179 107 743.679 100.5C749.179 92.25 748.429 80 736.179 73C715.179 60.75 692.929 54.75 668.679 54.75C583.179 54.75 538.679 124 466.929 124C448.929 124 433.929 119.75 415.429 109.5C405.929 104 396.429 107.75 391.679 115C386.679 123.25 387.429 135.5 398.929 142C419.679 155 442.679 160.25 466.929 160.25ZM467.179 245.75C549.929 245.75 595.179 176.75 668.679 176.75C686.929 176.75 701.679 180.5 719.929 190.75C730.179 196.5 739.429 192.5 743.929 185.75C749.179 177.75 748.679 165.5 736.679 158.5C715.429 146.25 692.929 140.25 668.679 140.25C583.429 140.25 538.929 209.5 467.179 209.5C448.929 209.5 433.929 205.25 415.679 195C406.179 189.5 396.429 193 391.679 200.5C386.679 208.5 387.429 220.75 399.179 227.5C419.929 240.5 442.929 245.75 467.179 245.75ZM466.929 331C549.929 331 594.929 262.25 668.679 262.25C686.679 262.25 701.429 266 719.679 276.25C730.179 282 739.179 278 743.679 271.25C749.179 263.25 748.429 250.75 736.179 244C715.179 231.75 692.929 225.75 668.679 225.75C583.179 225.75 538.679 295 466.929 295C448.929 295 433.929 290.75 415.429 280.5C405.929 275 396.429 278.5 391.679 286C386.679 294 387.429 306.25 398.929 313C419.679 325.75 442.679 331 466.929 331Z" fill="black" fill-opacity="0.85"/>
 </g>
</svg>
