<?xml version="1.0" encoding="UTF-8"?>
<!--Generator: Apple Native CoreSVG 326-->
<!DOCTYPE svg
PUBLIC "-//W3C//DTD SVG 1.1//EN"
       "http://www.w3.org/Graphics/SVG/1.1/DTD/svg11.dtd">
<svg version="1.1" xmlns="http://www.w3.org/2000/svg" xmlns:xlink="http://www.w3.org/1999/xlink" viewBox="0 0 747.108 735.75">
 <g>
  <rect height="735.75" opacity="0" width="747.108" x="0" y="0"/>
  <path d="M231.429 681L515.679 681C577.179 681 609.679 648.75 609.679 587.75L609.679 93.25C609.679 32.25 576.679 0 515.679 0L231.429 0C170.429 0 137.179 32.25 137.179 93.25L137.179 587.75C137.179 648.75 169.929 681 231.429 681ZM261.929 170.25C237.179 170.25 216.929 149.75 216.929 124.75C216.929 100.5 237.179 80 261.929 80C286.679 80 306.929 100.5 306.929 124.75C306.929 149.75 286.679 170.25 261.929 170.25ZM232.929 435.25C222.179 435.25 213.679 427 213.679 416C213.679 405.25 222.179 397 232.929 397L330.929 397C341.679 397 350.179 405.25 350.179 416C350.179 427 341.679 435.25 330.929 435.25ZM232.929 516.5C222.179 516.5 213.679 508 213.679 497.25C213.679 486.5 222.179 478 232.929 478L330.929 478C341.679 478 350.179 486.5 350.179 497.25C350.179 508 341.679 516.5 330.929 516.5ZM232.929 597.75C222.179 597.75 213.679 589.25 213.679 578.5C213.679 567.75 222.179 559.25 232.929 559.25L330.929 559.25C341.679 559.25 350.179 567.75 350.179 578.5C350.179 589.25 341.679 597.75 330.929 597.75ZM416.179 435.25C405.179 435.25 396.929 427 396.929 416C396.929 405.25 405.179 397 416.179 397L514.179 397C524.929 397 533.429 405.25 533.429 416C533.429 427 524.929 435.25 514.179 435.25ZM416.179 516.5C405.179 516.5 396.929 508 396.929 497.25C396.929 486.5 405.179 478 416.179 478L514.179 478C524.929 478 533.429 486.5 533.429 497.25C533.429 508 524.929 516.5 514.179 516.5ZM416.179 597.75C405.179 597.75 396.929 589.25 396.929 578.5C396.929 567.75 405.179 559.25 416.179 559.25L514.179 559.25C524.929 559.25 533.429 567.75 533.429 578.5C533.429 589.25 524.929 597.75 514.179 597.75ZM466.929 159C442.679 159 419.679 153.75 398.929 140.75C387.429 134.25 386.679 121.75 391.679 113.75C396.429 106.5 405.929 102.75 415.429 108.25C433.929 118.5 448.929 122.75 466.929 122.75C538.679 122.75 583.179 53.5 668.679 53.5C692.929 53.5 715.179 59.5 736.179 71.75C748.429 78.75 749.179 91 743.679 99C739.179 105.75 730.179 109.75 719.679 104C701.429 94 686.679 90 668.679 90C594.929 90 549.929 159 466.929 159ZM467.179 245.75C442.929 245.75 419.929 240.5 399.179 227.5C387.429 220.75 386.679 208.5 391.679 200.5C396.429 193 406.179 189.5 415.679 195C433.929 205.25 448.929 209.5 467.179 209.5C538.929 209.5 583.429 140.25 668.679 140.25C692.929 140.25 715.429 146.25 736.679 158.5C748.679 165.5 749.179 177.75 743.929 185.75C739.429 192.5 730.179 196.5 719.929 190.75C701.679 180.5 686.929 176.75 668.679 176.75C595.179 176.75 549.929 245.75 467.179 245.75ZM466.929 332.25C442.679 332.25 419.679 327.25 398.929 314.25C387.429 307.5 386.679 295.25 391.679 287.25C396.429 279.75 405.929 276.25 415.429 281.75C433.929 292 448.929 296.25 466.929 296.25C538.679 296.25 583.179 227 668.679 227C692.929 227 715.179 233 736.179 245.25C748.429 252.25 749.179 264.5 743.679 272.5C739.179 279.25 730.179 283.25 719.679 277.5C701.429 267.25 686.679 263.5 668.679 263.5C594.929 263.5 549.929 332.25 466.929 332.25ZM225.429 735C238.429 735 247.679 726 247.679 713L247.679 653.75L203.179 653.75L203.179 713C203.179 726 212.179 735 225.429 735ZM521.679 735C534.679 735 543.679 726 543.679 713L543.679 653.75L499.429 653.75L499.429 713C499.429 726 508.429 735 521.679 735Z" fill="black" fill-opacity="0.85"/>
 </g>
</svg>
