<?xml version="1.0" encoding="UTF-8"?>
<!--Generator: Apple Native CoreSVG 326-->
<!DOCTYPE svg
PUBLIC "-//W3C//DTD SVG 1.1//EN"
       "http://www.w3.org/Graphics/SVG/1.1/DTD/svg11.dtd">
<svg version="1.1" xmlns="http://www.w3.org/2000/svg" xmlns:xlink="http://www.w3.org/1999/xlink" viewBox="0 0 651.25 651.75">
 <g>
  <rect height="651.75" opacity="0" width="651.25" x="0" y="0"/>
  <path d="M325.5 651.25C505.25 651.25 651.25 505.5 651.25 325.75C651.25 146 505.25 0 325.5 0C145.75 0 0 146 0 325.75C0 505.5 145.75 651.25 325.5 651.25ZM325.5 604.75C171.25 604.75 46.5 480 46.5 325.75C46.5 171.5 171.25 46.75 325.5 46.75C479.75 46.75 604.5 171.5 604.5 325.75C604.5 480 479.75 604.75 325.5 604.75Z" fill="black" fill-opacity="0.85"/>
  <path d="M232.5 232.75C174.25 290.75 144.75 382.25 167 456.5C172.25 474 177.5 479 194.75 484C269 506.25 360.5 477.25 418.75 419C477 360.75 506 269.25 483.75 195C478.75 177.75 473.75 172.5 456.25 167.25C382 145 290.5 174.5 232.5 232.75ZM360.25 255.5L395.5 290.5C398.5 293.5 398.25 298.5 395.5 301.75C392.75 304.25 387.75 304.25 384.75 301.5L372.5 289.25L359.75 302L372 314.5C374.75 317 375 321.75 372 325C369.25 327.75 364.5 327.25 361.5 324.75L349 312.5L336.5 325.25L348.5 337.5C351.25 340.5 351.75 345.5 348.5 348C346 351.25 341 350.75 338.25 348L326 336.25L313 348.75L325.25 360.75C328.25 363.75 328.5 368.5 325.25 371.5C322.5 374.25 318 374.25 314.75 371.25L302.75 359.25L290 372L302 384.25C304.75 387.25 304.75 391.75 302 395C299 397.75 294.25 397.75 291.5 394.75L256 359.75C253 357 253.25 352.25 256 349C259.25 346.25 263.75 346.25 266.75 349L279 361.25L292 348.5L279.5 336.5C276.25 333.5 276.5 328.5 279.5 325.75C282.5 322.5 287.5 322.5 290.25 325.5L302.5 338L315.25 325.25L303 312.75C300 309.75 299.75 305.25 303 302.5C305.5 299.5 310.25 299.75 313.5 302.5L325.75 314.75L338.75 302L326.25 289.5C323.25 286.75 323.25 282 326.25 279.25C329.5 276.25 333.75 276.25 336.5 279.25L349 291.25L362.25 278.75L349.5 266.25C346.5 263.5 346.75 258.5 349.5 255.5C352.75 253 357.25 252.75 360.25 255.5Z" fill="black" fill-opacity="0.85"/>
 </g>
</svg>
