<?xml version="1.0" encoding="UTF-8"?>
<!--Generator: Apple Native CoreSVG 326-->
<!DOCTYPE svg
PUBLIC "-//W3C//DTD SVG 1.1//EN"
       "http://www.w3.org/Graphics/SVG/1.1/DTD/svg11.dtd">
<svg version="1.1" xmlns="http://www.w3.org/2000/svg" xmlns:xlink="http://www.w3.org/1999/xlink" viewBox="0 0 647.949 648.192">
 <g>
  <rect height="648.192" opacity="0" width="647.949" x="0" y="0"/>
  <path d="M506.225 506.221C630.475 381.971 674.225 206.721 632.725 69.721C622.225 35.721 612.225 25.721 578.225 15.221C441.475-26.279 265.975 17.471 141.475 141.721C17.4746 265.971-26.2754 441.471 15.2246 578.221C25.4746 612.221 35.7246 622.471 69.7246 632.721C206.725 674.221 381.725 630.471 506.225 506.221ZM473.975 473.971C363.225 585.221 217.475 625.971 84.7246 589.221C66.4746 584.471 63.4746 581.471 58.2246 562.221C22.4746 430.221 62.9746 284.471 173.725 173.971C284.475 62.721 429.975 22.221 561.975 58.221C581.475 63.471 584.475 66.721 589.475 84.971C625.975 217.471 584.975 363.471 473.975 473.971ZM185.475 391.971L255.725 462.221C261.475 467.721 269.975 467.721 275.725 462.221C280.975 456.471 280.975 447.721 275.725 442.221L205.725 371.971C199.975 366.721 190.975 366.721 185.475 371.971C180.225 377.721 180.225 386.221 185.475 391.971ZM232.475 344.721L302.725 415.221C308.225 420.721 317.225 420.721 322.475 415.221C328.225 409.721 328.225 400.721 322.475 395.471L252.475 325.221C246.975 319.721 237.975 319.721 232.475 325.221C227.225 330.721 227.225 339.471 232.475 344.721ZM279.475 297.971L349.725 368.471C354.975 373.971 363.975 373.971 369.475 368.471C374.975 362.971 374.975 353.971 369.475 348.721L298.975 278.471C293.975 272.971 284.725 272.971 279.475 278.471C273.975 283.971 273.975 292.471 279.475 297.971ZM326.225 251.471L396.225 321.721C401.725 326.721 410.725 326.721 416.225 321.721C421.725 315.971 421.725 307.471 416.225 301.971L345.975 231.721C340.475 225.971 331.975 225.971 326.225 231.721C320.975 236.971 320.975 245.971 326.225 251.471ZM372.975 204.721L443.225 274.721C448.725 279.971 457.725 279.971 463.225 274.721C468.475 269.221 468.475 260.471 463.225 254.971L392.975 184.471C387.225 179.221 378.725 179.221 372.975 184.471C367.725 190.221 367.725 198.971 372.975 204.721ZM237.475 430.221L429.975 237.471L410.475 217.971L217.725 410.471Z" fill="black" fill-opacity="0.85"/>
 </g>
</svg>
