<?xml version="1.0" encoding="UTF-8"?>
<!--Generator: Apple Native CoreSVG 326-->
<!DOCTYPE svg
PUBLIC "-//W3C//DTD SVG 1.1//EN"
       "http://www.w3.org/Graphics/SVG/1.1/DTD/svg11.dtd">
<svg version="1.1" xmlns="http://www.w3.org/2000/svg" xmlns:xlink="http://www.w3.org/1999/xlink" viewBox="0 0 716.313 824.938">
 <g>
  <rect height="824.938" opacity="0" width="716.313" x="0" y="0"/>
  <path d="M379.281 435.844L379.281 682.844C379.281 697.094 371.031 706.594 358.031 706.594C345.531 706.594 337.031 696.844 337.031 682.844L337.031 393.594ZM121.445 178.007C87.8377 222.935 69.2814 278.442 69.2814 339.094C69.2814 409.594 94.5314 473.344 139.281 521.844C149.031 532.844 151.781 545.844 143.031 555.844C134.281 566.094 118.781 566.094 108.281 554.594C55.0314 497.594 24.5314 421.594 24.5314 339.094C24.5314 266.74 47.8494 199.546 89.3104 145.873ZM607.781 123.594C661.281 180.344 691.781 256.344 691.781 339.094C691.781 409.24 669.732 474.686 630.063 527.625L597.947 495.509C629.509 451.337 647.031 397.534 647.031 339.094C647.031 268.344 621.531 204.594 577.031 156.344C567.281 145.094 564.531 132.094 573.031 122.344C582.031 112.094 597.281 112.094 607.781 123.594ZM217.238 273.801C207.541 293.357 202.281 315.425 202.281 339.094C202.281 374.094 212.531 406.594 233.781 430.844C242.531 442.594 246.031 454.844 237.531 464.844C228.281 475.094 212.031 475.344 202.281 463.094C173.781 429.344 157.281 385.844 157.281 339.094C157.281 303.433 166.882 269.663 184.142 240.705ZM514.031 215.094C542.531 248.844 558.781 292.344 558.781 339.094C558.781 372.734 550.367 404.691 534.914 432.476L502.034 399.596C510.043 381.288 514.031 360.666 514.031 339.094C514.031 304.094 502.281 272.594 482.531 247.344C473.781 235.344 470.031 223.094 478.781 213.344C487.781 203.094 504.281 202.844 514.031 215.094Z" fill="black" fill-opacity="0.85"/>
  <path d="M645.031 652.094C653.281 660.594 667.031 660.594 675.281 652.094C683.531 643.594 683.531 630.344 675.281 622.094L94.2814 41.0939C86.0314 32.8439 72.2814 32.5939 63.7814 41.0939C55.7814 49.0939 55.7814 63.0939 63.7814 71.3439Z" fill="black" fill-opacity="0.85"/>
 </g>
</svg>
