<?xml version="1.0" encoding="UTF-8"?>
<!--Generator: Apple Native CoreSVG 326-->
<!DOCTYPE svg
PUBLIC "-//W3C//DTD SVG 1.1//EN"
       "http://www.w3.org/Graphics/SVG/1.1/DTD/svg11.dtd">
<svg version="1.1" xmlns="http://www.w3.org/2000/svg" xmlns:xlink="http://www.w3.org/1999/xlink" viewBox="0 0 667.25 595.326">
 <g>
  <rect height="595.326" opacity="0" width="667.25" x="0" y="0"/>
  <path d="M0 224.288C0 306.788 30.5 382.788 84 439.788C94.5 451.288 109.75 451.288 118.75 441.038C127.25 431.038 124.5 418.038 114.75 407.038C70.25 358.538 44.75 294.788 44.75 224.288C44.75 153.538 70.25 89.788 114.75 41.538C124.5 30.288 127.25 17.288 118.75 7.53799C109.75-2.71201 94.5-2.71201 84 8.78799C30.5 65.538 0 141.538 0 224.288ZM548.75 441.038C557.5 451.288 573 451.288 583.5 439.788C636.75 382.788 667.25 306.788 667.25 224.288C667.25 141.538 636.75 65.538 583.5 8.78799C573-2.71201 557.5-2.71201 548.75 7.53799C540 17.288 542.75 30.288 552.5 41.538C597.25 89.788 622.5 153.538 622.5 224.288C622.5 294.788 597.25 358.538 552.5 407.038C542.75 418.038 540 431.038 548.75 441.038Z" fill="black" fill-opacity="0.85"/>
  <path d="M133 224.288C133 271.038 149.25 314.538 177.75 348.288C187.5 360.538 204 360.288 213 350.038C221.75 340.038 218 327.788 209.25 316.038C188.25 291.788 177.75 259.288 177.75 224.288C177.75 189.288 189.5 157.788 209.25 132.538C218 120.538 221.75 108.288 213 98.538C204 88.288 187.5 88.038 177.75 100.288C149.25 134.038 133 177.538 133 224.288ZM454.25 350.038C463.5 360.288 479.75 360.538 489.75 348.288C518 314.538 534.5 271.038 534.5 224.288C534.5 177.538 518 134.038 489.75 100.288C479.75 88.038 463.5 88.288 454.25 98.538C445.75 108.288 449.5 120.538 458 132.538C478 157.788 489.5 189.288 489.5 224.288C489.5 259.288 479.25 291.788 458 316.038C449.25 327.788 445.75 340.038 454.25 350.038Z" fill="black" fill-opacity="0.85"/>
  <path d="M280 224.288C280 246.538 293.25 265.288 312.5 273.288L312.5 568.038C312.5 582.038 321.25 591.788 333.75 591.788C346.75 591.788 354.75 582.288 354.75 568.038L354.75 273.288C374 265.288 387.5 246.288 387.5 224.288C387.5 194.288 363.75 170.288 333.75 170.288C303.75 170.288 280 194.288 280 224.288Z" fill="black" fill-opacity="0.85"/>
 </g>
</svg>
