<?xml version="1.0" encoding="UTF-8"?>
<!--Generator: Apple Native CoreSVG 326-->
<!DOCTYPE svg
PUBLIC "-//W3C//DTD SVG 1.1//EN"
       "http://www.w3.org/Graphics/SVG/1.1/DTD/svg11.dtd">
<svg version="1.1" xmlns="http://www.w3.org/2000/svg" xmlns:xlink="http://www.w3.org/1999/xlink" viewBox="0 0 651.25 651.75">
 <g>
  <rect height="651.75" opacity="0" width="651.25" x="0" y="0"/>
  <path d="M325.5 651.25C505.25 651.25 651.25 505.5 651.25 325.75C651.25 146 505.25 0 325.5 0C145.75 0 0 146 0 325.75C0 505.5 145.75 651.25 325.5 651.25ZM325.5 604.75C171.25 604.75 46.5 480 46.5 325.75C46.5 171.5 171.25 46.75 325.5 46.75C479.75 46.75 604.5 171.5 604.5 325.75C604.5 480 479.75 604.75 325.5 604.75Z" fill="black" fill-opacity="0.85"/>
  <path d="M341 390L341 520.75C341 531 334.75 538 325.25 538C316 538 309.5 530.75 309.5 520.75L309.5 358.5ZM184 164.75L486.75 467.5C492 473 492 481 486.75 486.25C481.5 491.5 473 491.5 468 486.25L165 183.5C160 178.5 159.75 170 165 164.75C170.25 159.5 178.75 159.5 184 164.75ZM180.868 229.868C164.937 254.472 156.5 283.666 156.5 314.75C156.5 355.75 171 393.25 197.75 421.75C205 430.25 205.75 439.5 199.75 446.25C193 454 182 453.5 174.75 445.75C141.5 410.25 123.5 364.25 123.5 314.75C123.5 275.376 135.284 237.778 157.212 206.212ZM476 184C509 219.5 527.25 265.75 527.25 314.75C527.25 359.704 512.404 401.771 484.632 435.618L461.045 412.011C482.506 384.981 494 351.253 494 314.75C494 274 479.5 236.5 452.75 208.25C445.75 199.75 444.75 190.25 450.75 183.25C457.25 175.5 468.75 175.75 476 184ZM239.797 288.797C237.096 297.025 235.75 305.699 235.75 314.75C235.75 335.75 241.75 353.75 253.75 367.5C261 376.75 261.75 385.25 256 392.25C249.25 399.75 236.75 399.5 230 391C212.25 370 202.5 342.75 202.5 314.75C202.5 296.689 206.557 279.045 214.254 263.254ZM420.5 239C438.25 259.75 448 286.75 448 314.75C448 337.985 441.286 360.705 428.768 379.707L405.012 355.932C411.576 344.195 415 330.294 415 314.75C415 295.25 408.5 277.5 396.5 262C390 253 389 244.25 394.5 237.75C401.75 229.75 413.75 230.25 420.5 239Z" fill="black" fill-opacity="0.85"/>
 </g>
</svg>
