<?xml version="1.0" encoding="UTF-8"?>
<!--Generator: Apple Native CoreSVG 326-->
<!DOCTYPE svg
PUBLIC "-//W3C//DTD SVG 1.1//EN"
       "http://www.w3.org/Graphics/SVG/1.1/DTD/svg11.dtd">
<svg version="1.1" xmlns="http://www.w3.org/2000/svg" xmlns:xlink="http://www.w3.org/1999/xlink" viewBox="0 0 901.438 572.75">
 <g>
  <rect height="572.75" opacity="0" width="901.438" x="0" y="0"/>
  <path d="M130.094 572.75L771.344 572.75C864.594 572.75 911.594 515.25 899.594 414.25L864.344 122C854.844 42.75 809.844 0 736.344 0L165.094 0C91.8441 0 46.5941 42.75 37.0941 122L2.09414 414.25C-10.1559 515.25 36.8441 572.75 130.094 572.75ZM130.094 528.25C68.0941 528.25 37.3441 487 46.5941 410.25L80.8441 127C87.3441 73.25 116.594 44.5 165.094 44.5L736.344 44.5C785.094 44.5 814.094 73.25 820.594 127L854.844 410.25C864.344 487.25 833.344 528.25 771.344 528.25Z" fill="black" fill-opacity="0.85"/>
  <path d="M239.844 377.75C250.344 377.75 258.844 372.75 258.844 365.5L258.844 270.5C292.594 262.5 318.094 231.75 318.094 194.75C318.094 151.75 282.844 116.75 239.844 116.75C196.344 116.75 161.344 152 161.344 194.75C161.344 232 186.594 262.5 220.844 271L220.844 365.5C220.844 372.75 229.094 377.75 239.844 377.75ZM239.844 443C302.844 443 347.344 409.25 347.344 361C347.344 326.75 324.344 299.75 288.594 287.25L288.594 324C303.844 332 313.094 345.25 313.094 361C313.094 391 282.844 412 239.844 412C196.594 412 166.344 391 166.344 361C166.344 345 175.594 331.75 191.094 323.75L191.094 287.25C154.844 299.5 132.094 326.75 132.094 361C132.094 409.25 176.594 443 239.844 443ZM426.094 264C451.094 264 471.344 244 471.344 219C471.344 194 451.094 174 426.094 174C401.094 174 381.094 194 381.094 219C381.094 244 401.094 264 426.094 264ZM562.344 264C587.344 264 607.594 244 607.594 219C607.594 194 587.344 174 562.344 174C537.594 174 517.344 194 517.344 219C517.344 244 537.594 264 562.344 264ZM698.344 264C723.344 264 743.344 244 743.344 219C743.344 194 723.344 174 698.344 174C673.344 174 653.094 194 653.094 219C653.094 244 673.344 264 698.344 264ZM471.344 400C496.344 400 516.594 380 516.594 355C516.594 329.75 496.344 309.75 471.344 309.75C446.594 309.75 426.344 329.75 426.344 355C426.344 380 446.594 400 471.344 400ZM607.844 400C632.594 400 652.844 380 652.844 355C652.844 329.75 632.594 309.75 607.844 309.75C582.844 309.75 562.594 329.75 562.594 355C562.594 380 582.844 400 607.844 400ZM743.844 400C768.844 400 789.094 380 789.094 355C789.094 329.75 768.844 309.75 743.844 309.75C718.844 309.75 698.844 329.75 698.844 355C698.844 380 718.844 400 743.844 400Z" fill="black" fill-opacity="0.85"/>
 </g>
</svg>
