<?xml version="1.0" encoding="UTF-8"?>
<!--Generator: Apple Native CoreSVG 326-->
<!DOCTYPE svg
PUBLIC "-//W3C//DTD SVG 1.1//EN"
       "http://www.w3.org/Graphics/SVG/1.1/DTD/svg11.dtd">
<svg version="1.1" xmlns="http://www.w3.org/2000/svg" xmlns:xlink="http://www.w3.org/1999/xlink" viewBox="0 0 651.25 651.75">
 <g>
  <rect height="651.75" opacity="0" width="651.25" x="0" y="0"/>
  <path d="M325.5 651.25C505.25 651.25 651.25 505.5 651.25 325.75C651.25 146 505.25 0 325.5 0C145.75 0 0 146 0 325.75C0 505.5 145.75 651.25 325.5 651.25ZM325.5 604.75C171.25 604.75 46.5 480 46.5 325.75C46.5 171.5 171.25 46.75 325.5 46.75C479.75 46.75 604.5 171.5 604.5 325.75C604.5 480 479.75 604.75 325.5 604.75Z" fill="black" fill-opacity="0.85"/>
  <path d="M229.5 487.75L421.25 487.75C454.25 487.75 471.75 470.5 471.75 437.5L471.75 271.75L178.75 271.75L178.75 437.5C178.75 470.75 196.5 487.75 229.5 487.75ZM267.25 332.5C260.5 332.5 255.75 328 255.75 320.75L255.75 315.5C255.75 308.25 260.5 304 267.25 304L383.25 304C390.25 304 394.75 308.25 394.75 315.5L394.75 320.75C394.75 328 390.25 332.5 383.25 332.5ZM181.5 248L469 248C487.5 248 497.25 236.75 497.25 218.75L497.25 201.25C497.25 183 487.5 171.75 469 171.75L181.5 171.75C164 171.75 153.5 183 153.5 201.25L153.5 218.75C153.5 236.75 163 248 181.5 248Z" fill="black" fill-opacity="0.85"/>
 </g>
</svg>
