<?xml version="1.0" encoding="UTF-8"?>
<!--Generator: Apple Native CoreSVG 326-->
<!DOCTYPE svg
PUBLIC "-//W3C//DTD SVG 1.1//EN"
       "http://www.w3.org/Graphics/SVG/1.1/DTD/svg11.dtd">
<svg version="1.1" xmlns="http://www.w3.org/2000/svg" xmlns:xlink="http://www.w3.org/1999/xlink" viewBox="0 0 536.75 689.25">
 <g>
  <rect height="689.25" opacity="0" width="536.75" x="0" y="0"/>
  <path d="M96.25 689.25L440.5 689.25C504.5 689.25 536.75 656.25 536.75 592L536.75 292.75C536.75 255.5 532.25 239.25 509 215.75L323.75 28C301.75 5.25 283.75 0.25 250.5 0.25L96.25 0.25C32.75 0.25 0 33 0 97.5L0 592C0 656.5 32.25 689.25 96.25 689.25ZM98.5 645C62.75 645 44.25 626 44.25 591L44.25 98.5C44.25 64.25 62.75 44.5 98.75 44.5L246.75 44.5L246.75 236C246.75 274.25 266 292.75 303.5 292.75L492.5 292.75L492.5 591C492.5 626 474 645 438 645ZM308.25 251C294.25 251 288.5 245.5 288.5 231.25L288.5 53.25L483.75 251Z" fill="black" fill-opacity="0.85"/>
  <path d="M289.5 354C289.5 342.75 279.75 333.5 268.5 333.5C257 333.5 247.25 342.75 247.25 354L247.25 483.5L249 540L212.5 502.5L184 473.5C180.25 469.5 174.5 467.25 169.25 467.25C157.75 467.25 149.5 475.25 149.5 486.5C149.5 493.25 152.75 498 157.25 502.25L252.75 592C258.5 597.25 263 599.25 268.5 599.25C273.75 599.25 278.25 597.25 284 592L379.5 502.25C384 498 387.25 493.25 387.25 486.5C387.25 475.25 378.75 467.25 367.5 467.25C362 467.25 356.5 469.5 352.75 473.5L324.25 502.5L287.75 540L289.5 483.5Z" fill="black" fill-opacity="0.85"/>
 </g>
</svg>
