<?xml version="1.0" encoding="UTF-8"?>
<!--Generator: Apple Native CoreSVG 326-->
<!DOCTYPE svg
PUBLIC "-//W3C//DTD SVG 1.1//EN"
       "http://www.w3.org/Graphics/SVG/1.1/DTD/svg11.dtd">
<svg version="1.1" xmlns="http://www.w3.org/2000/svg" xmlns:xlink="http://www.w3.org/1999/xlink" viewBox="0 0 655 806.75">
 <g>
  <rect height="806.75" opacity="0" width="655" x="0" y="0"/>
  <path d="M655 97.25L655 550.5C655 615 622.75 647.75 558.75 647.75L498.75 647.75L498.75 255.25C498.75 191 466.5 158 402.5 158L156.25 158L156.25 97.25C156.25 32.5 188.75 0 252.75 0L558.75 0C622.75 0 655 32.5 655 97.25ZM329.25 64.25C316 64.25 309.75 72.75 309.75 82L309.75 88.25C309.75 97.5 316 106 329.25 106L482.25 106C495.25 106 501.5 97.5 501.5 88.25L501.5 82C501.5 72.75 495.25 64.25 482.25 64.25Z" fill="black" fill-opacity="0.85"/>
  <path d="M0 708.5C0 773.25 32.25 805.75 96.25 805.75L402.5 805.75C466.5 805.75 498.75 773 498.75 708.5L498.75 255.25C498.75 191 466.5 158 402.5 158L96.25 158C32.25 158 0 190.75 0 255.25ZM44.25 707.75L44.25 256.25C44.25 221.25 62.75 202.25 98.5 202.25L400 202.25C436 202.25 454.5 221.25 454.5 256.25L454.5 707.75C454.5 742.5 436 761.5 400 761.5L98.5 761.5C62.75 761.5 44.25 742.5 44.25 707.75Z" fill="black" fill-opacity="0.85"/>
  <path d="M387.5 482C387.5 477 385.5 472.5 381 467.5L292.75 377C289.25 373.25 285 371 279.75 371C269.5 371 261.75 379 261.75 389C261.75 393.75 264 399.5 268 403.25L315.5 448.25L330.5 463.25L295.25 462L130.75 462C120.5 462 111.25 471.25 111.25 482C111.25 492.5 120.5 501.75 130.75 501.75L295.25 501.75L330.5 500.75L315.5 515.5L268 560.5C264 564.25 261.75 569.75 261.75 574.25C261.75 584.25 269.5 592.5 279.75 592.5C285 592.5 289.25 590.5 292.75 586.5L381 496.25C385.5 491.25 387.5 486.5 387.5 482Z" fill="black" fill-opacity="0.85"/>
 </g>
</svg>
