<?xml version="1.0" encoding="UTF-8"?>
<!--Generator: Apple Native CoreSVG 326-->
<!DOCTYPE svg
PUBLIC "-//W3C//DTD SVG 1.1//EN"
       "http://www.w3.org/Graphics/SVG/1.1/DTD/svg11.dtd">
<svg version="1.1" xmlns="http://www.w3.org/2000/svg" xmlns:xlink="http://www.w3.org/1999/xlink" viewBox="0 0 772.25 588.25">
 <g>
  <rect height="588.25" opacity="0" width="772.25" x="0" y="0"/>
  <path d="M218.25 588.25L554 588.25C615.25 588.25 642.75 558.5 652 497.5L704.25 147.25L660 149.75L608 496.75C603 531.5 584.75 546.5 553 546.5L219.25 546.5C186.75 546.5 169.25 531.5 164.25 496.75L112.25 149.75L68 147.25L120.25 497.5C129.5 559 157 588.25 218.25 588.25ZM57.5 170L714.75 170C751.75 170 772.25 146.5 772.25 110L772.25 60.75C772.25 24 751.75 0.75 714.75 0.75L57.5 0.75C22 0.75 0 24 0 60.75L0 110C0 146.5 20.5 170 57.5 170ZM67.75 128.25C51.5 128.25 44.25 120.5 44.25 104L44.25 66.5C44.25 50.25 51.5 42.5 67.75 42.5L704.75 42.5C721 42.5 728 50.25 728 66.5L728 104C728 120.5 721 128.25 704.75 128.25Z" fill="black" fill-opacity="0.85"/>
  <path d="M408 463.5L408 335.75L406.25 279.25L442.75 316.75L469.75 344.25C473.5 348.25 479 350.5 484.5 350.5C495.5 350.5 504 342.5 504 331.25C504 324.25 501 319.5 496.25 315.5L402.5 227.25C396.75 222 392.25 220 387 220C381.5 220 377 222 371.25 227.25L277.5 315.5C272.75 319.5 269.75 324.25 269.75 331.25C269.75 342.5 278 350.5 289.25 350.5C294.5 350.5 300.25 348.25 304 344.25L331 316.75L367.5 279.25L365.75 335.75L365.75 463.5C365.75 475 375.5 484.25 387 484.25C398.25 484.25 408 475 408 463.5Z" fill="black" fill-opacity="0.85"/>
 </g>
</svg>
