<?xml version="1.0" encoding="UTF-8"?>
<!--Generator: Apple Native CoreSVG 326-->
<!DOCTYPE svg
PUBLIC "-//W3C//DTD SVG 1.1//EN"
       "http://www.w3.org/Graphics/SVG/1.1/DTD/svg11.dtd">
<svg version="1.1" xmlns="http://www.w3.org/2000/svg" xmlns:xlink="http://www.w3.org/1999/xlink" viewBox="0 0 619.75 768.75">
 <g>
  <rect height="768.75" opacity="0" width="619.75" x="0" y="0"/>
  <path d="M448.5 71.75L448.5 123L599 123C610.5 123 619.75 132.5 619.75 144C619.75 155.25 610.5 164.75 599 164.75L555.931 164.75L532.5 641.75C530.25 684.75 500 714 457 714L163.25 714C119.5 714 89.75 685 87.5 642L64.0691 164.75L20.75 164.75C9.75 164.75 0 155.5 0 144C0 132.75 9.75 123 20.75 123L170.75 123L170.75 71.75C170.75 27.25 199.75 0 247.25 0L372 0C419.75 0 448.5 27.25 448.5 71.75ZM294.75 283.75L202.25 374.25C198.25 377.75 196 382.25 196 387.5C196 398 204 406.25 214.5 406.25C219.5 406.25 225.25 403.75 229 399.75L275 351.25L290.25 335.75L289 372.25L289 540C289 550.5 298.75 559.75 309.5 559.75C320.5 559.75 330.25 550.5 330.25 540L330.25 372.25L328.75 336L343.75 351.25L390 399.75C393.75 403.75 399.25 406.25 404.25 406.25C414.5 406.25 423 398 423 387.5C423 382.25 420.75 377.75 416.75 374.25L324.5 283.75C319.25 279 314.5 277.25 309.5 277.25C304.5 277.25 300 279 294.75 283.75ZM249.75 41.25C228.25 41.25 214.5 54.25 214.5 74.25L214.5 123L404.75 123L404.75 74.25C404.75 54.25 391 41.25 369.5 41.25Z" fill="black" fill-opacity="0.85"/>
 </g>
</svg>
