<?xml version="1.0" encoding="UTF-8"?>
<!--Generator: Apple Native CoreSVG 326-->
<!DOCTYPE svg
PUBLIC "-//W3C//DTD SVG 1.1//EN"
       "http://www.w3.org/Graphics/SVG/1.1/DTD/svg11.dtd">
<svg version="1.1" xmlns="http://www.w3.org/2000/svg" xmlns:xlink="http://www.w3.org/1999/xlink" viewBox="0 0 655 806.75">
 <g>
  <rect height="806.75" opacity="0" width="655" x="0" y="0"/>
  <path d="M655 97.25L655 550.5C655 615.25 622.75 647.75 558.75 647.75L498.75 647.75L498.75 255.25C498.75 191 466.5 158 402.5 158L156.25 158L156.25 97.25C156.25 32.5 188.75 0 252.75 0L558.75 0C622.75 0 655 32.75 655 97.25ZM329.25 64.25C316 64.25 309.75 72.75 309.75 82L309.75 88.25C309.75 97.5 316 106 329.25 106L482.25 106C495.25 106 501.5 97.5 501.5 88.25L501.5 82C501.5 72.75 495.25 64.25 482.25 64.25Z" fill="black" fill-opacity="0.85"/>
  <path d="M0 708.5C0 773.25 32.25 805.75 96.25 805.75L402.5 805.75C466.5 805.75 498.75 773 498.75 708.5L498.75 255.25C498.75 191 466.5 158 402.5 158L96.25 158C32.25 158 0 190.75 0 255.25ZM44.25 707.75L44.25 256.25C44.25 221.25 62.75 202.25 98.5 202.25L400 202.25C436 202.25 454.5 221.25 454.5 256.25L454.5 707.75C454.5 742.5 436 761.5 400 761.5L98.5 761.5C62.75 761.5 44.25 742.5 44.25 707.75Z" fill="black" fill-opacity="0.85"/>
  <path d="M78.5 503L168.25 503C178.5 503 181 493.25 175.25 485.5L135.25 428.5C128.75 419 118 418.5 111 428.5L71.75 485.5C66 493.25 68.5 503 78.5 503ZM250 624.75C285.5 624.75 317.75 611.5 340.75 591.5C351.25 583.5 351.25 572.5 346 565.75C341 559.5 331.25 557 320.5 565C301.75 581 277.5 591.25 250 591.25C189.25 591.25 140 542 140 481.5L106.5 481.5C106.5 560.75 170.75 624.75 250 624.75ZM421.5 460L331.5 460C321.25 460 319 469.75 324.5 477.5L364.5 534.5C371 544 382 544.5 388.75 534.5L428.25 477.5C433.75 469.75 431.25 460 421.5 460ZM250 338.25C214.5 338.25 182 351.5 159 371.5C148.5 379.5 148.5 390.5 153.75 397.25C158.75 403.5 168.5 406 179.25 398C198 382 222.25 371.75 250 371.75C310.5 371.75 359.75 421 359.75 481.5L393.25 481.5C393.25 402.25 329 338.25 250 338.25Z" fill="black" fill-opacity="0.85"/>
 </g>
</svg>
