<?xml version="1.0" encoding="UTF-8"?>
<!--Generator: Apple Native CoreSVG 326-->
<!DOCTYPE svg
PUBLIC "-//W3C//DTD SVG 1.1//EN"
       "http://www.w3.org/Graphics/SVG/1.1/DTD/svg11.dtd">
<svg version="1.1" xmlns="http://www.w3.org/2000/svg" xmlns:xlink="http://www.w3.org/1999/xlink" viewBox="0 0 767.25 588.25">
 <g>
  <rect height="588.25" opacity="0" width="767.25" x="0" y="0"/>
  <path d="M647.25 495C638.25 555.5 612.75 588.25 551.5 588.25L215.75 588.25C154.25 588.25 129.25 556 120 495L73.25 185.75L693.75 185.75ZM367.75 253.25L271.5 343.25C266.75 347.5 263.5 352.25 263.5 359.25C263.5 371 272 379.25 284 379.25C289.5 379.25 295.25 376.75 299.25 372.75L326.75 344.75L363.75 306.75L361.75 364.25L361.75 494.75C361.75 506.5 372 516 383.75 516C395.75 516 405.75 506.5 405.75 494.75L405.75 364.25L403.75 306.75L440.75 344.75L468.25 372.75C472.25 376.75 477.75 379.25 483.5 379.25C495 379.25 504 371 504 359.25C504 352.25 500.75 347.5 496 343.25L399.75 253.25C393.75 247.75 389.25 245.75 383.75 245.75C378.25 245.75 373.75 247.75 367.75 253.25ZM767.25 55.75L767.25 91C767.25 125 749.25 146 714.75 146L52.25 146C18 146 0 125 0 91L0 55.75C0 21.5 19.5 0.75 52.25 0.75L714.75 0.75C749.25 0.75 767.25 21.5 767.25 55.75Z" fill="black" fill-opacity="0.85"/>
 </g>
</svg>
