<?xml version="1.0" encoding="UTF-8"?>
<!--Generator: Apple Native CoreSVG 326-->
<!DOCTYPE svg
PUBLIC "-//W3C//DTD SVG 1.1//EN"
       "http://www.w3.org/Graphics/SVG/1.1/DTD/svg11.dtd">
<svg version="1.1" xmlns="http://www.w3.org/2000/svg" xmlns:xlink="http://www.w3.org/1999/xlink" viewBox="0 0 651.25 651.75">
 <g>
  <rect height="651.75" opacity="0" width="651.25" x="0" y="0"/>
  <path d="M325.5 651.25C505.25 651.25 651.25 505.5 651.25 325.75C651.25 146 505.25 0 325.5 0C145.75 0 0 146 0 325.75C0 505.5 145.75 651.25 325.5 651.25ZM325.5 604.75C171.25 604.75 46.5 480 46.5 325.75C46.5 171.5 171.25 46.75 325.5 46.75C479.75 46.75 604.5 171.5 604.5 325.75C604.5 480 479.75 604.75 325.5 604.75Z" fill="black" fill-opacity="0.85"/>
  <path d="M232.5 232.25C182 282.75 153.5 356.75 160.25 420.75C164.25 459.75 191 486.5 229.75 490.5C294 497.5 368.25 469 418.75 418.75C469.25 368.25 497.5 294 490.5 229.75C486.5 190.75 459.75 164 420.75 160.25C356.75 153.5 282.75 182 232.5 232.25ZM360.25 255.25L395.5 290.25C398.5 293.25 398.25 298.25 395.5 301.25C392.75 304 387.75 304 384.75 301L372.5 289L359.75 301.75L372 314.25C374.75 316.75 375 321.5 372 324.5C369 327.5 364.5 327.25 361.5 324.25L349 312.25L336.5 324.75L348.5 337.25C351.5 340 351.75 345.25 348.5 347.75C345.75 351 341.25 350.25 338.25 347.75L326 336L313 348.25L325.25 360.5C328.5 363.25 328.5 368.25 325.25 371.25C322.5 374 318 374 314.75 371L302.75 359L290 371.5L302 384C305 386.75 304.75 391.5 302 394.75C298.75 397.5 294.5 397.5 291.5 394.5L256 359.25C253.25 356.5 253.25 352 256 348.75C259.25 346 264 346 266.75 348.75L279 361L292 348.25L279.5 336C276.5 332.75 276.5 328.25 279.5 325.5C282.5 322.25 287.5 322.25 290.25 325.25L302.5 337.75L315.25 324.75L303 312.5C300.25 309.25 299.75 305 303 302.25C305.5 299 310.5 299 313.25 302L325.75 314.5L338.75 301.5L326.25 289.25C323.5 286.25 323.25 281.75 326.25 278.75C329.25 275.75 333.75 275.75 336.5 278.75L349 291L362.25 278.25L349.5 266C346.75 263 346.75 258.25 349.5 255.25C352.5 252.5 357.75 252.25 360.25 255.25Z" fill="black" fill-opacity="0.85"/>
 </g>
</svg>
