<?xml version="1.0" encoding="UTF-8"?>
<!--Generator: Apple Native CoreSVG 326-->
<!DOCTYPE svg
PUBLIC "-//W3C//DTD SVG 1.1//EN"
       "http://www.w3.org/Graphics/SVG/1.1/DTD/svg11.dtd">
<svg version="1.1" xmlns="http://www.w3.org/2000/svg" xmlns:xlink="http://www.w3.org/1999/xlink" viewBox="0 0 651.25 651.75">
 <g>
  <rect height="651.75" opacity="0" width="651.25" x="0" y="0"/>
  <path d="M325.5 651.25C505.25 651.25 651.25 505.5 651.25 325.75C651.25 146 505.25 0 325.5 0C145.75 0 0 146 0 325.75C0 505.5 145.75 651.25 325.5 651.25ZM325.5 604.75C171.25 604.75 46.5 480 46.5 325.75C46.5 171.5 171.25 46.75 325.5 46.75C479.75 46.75 604.5 171.5 604.5 325.75C604.5 480 479.75 604.75 325.5 604.75Z" fill="black" fill-opacity="0.85"/>
  <path d="M274 522.5L376.5 522.5C433.5 522.5 461.5 494 461 436C460.25 368.75 459.75 319.75 458.25 283.25C453.5 176.5 424.25 145.75 325.25 145.75C226.5 145.75 197 176.5 192.5 283.25C190.75 319.75 190.25 368.75 189.5 436C189 494 217 522.5 274 522.5ZM270.75 456.5C256.5 456.5 247.5 447.25 247.5 433L247.5 349.25C247.5 335.25 256.5 325.75 270.75 325.75L380 325.75C394.25 325.75 403.25 335.25 403.25 349.25L403.25 433C403.25 447.25 394.25 456.5 380 456.5ZM247.5 390.5L403.25 390.5L403.25 370.75L247.5 370.75ZM325.25 107.5C295 107.5 273.25 129 273.25 157.75L295.75 157.75C295.75 141.75 308.25 130 325.25 130C342.25 130 354.75 141.75 354.75 157.75L377.25 157.75C377.25 129 355.5 107.5 325.25 107.5Z" fill="black" fill-opacity="0.85"/>
 </g>
</svg>
