<?xml version="1.0" encoding="UTF-8"?>
<!--Generator: Apple Native CoreSVG 326-->
<!DOCTYPE svg
PUBLIC "-//W3C//DTD SVG 1.1//EN"
       "http://www.w3.org/Graphics/SVG/1.1/DTD/svg11.dtd">
<svg version="1.1" xmlns="http://www.w3.org/2000/svg" xmlns:xlink="http://www.w3.org/1999/xlink" viewBox="0 0 404.5 860.25">
 <g>
  <rect height="860.25" opacity="0" width="404.5" x="0" y="0"/>
  <path d="M202 481.25C315.75 481.25 404.5 360.5 404.5 208.25C404.5 88.75 322.25 0 202 0C82 0 0 88.75 0 208.25C0 360.5 88.25 481.25 202 481.25ZM202 439.75C111 439.75 41.5 334.25 41.5 208.25C41.5 115.25 107.75 41.75 202 41.75C296 41.75 363 115.25 363 208.25C363 334.25 292.75 439.75 202 439.75ZM160.75 462.5L146.5 515.75C143 527.25 149.75 539 164 539L240.5 539C254.75 539 261.25 527.25 258 515.75L243.5 462.5ZM196 856.25C207 856.25 216 847.25 216 836.5C216 764.75 280.5 747.25 280.5 677C280.5 606.25 220.25 589.25 220.75 525.25L181.25 525.25C181 610.5 241.25 624 241.25 677C241.25 731.25 176.5 739.25 176.5 836.5C176.5 847.25 185.25 856.25 196 856.25Z" fill="black" fill-opacity="0.85"/>
 </g>
</svg>
