<?xml version="1.0" encoding="UTF-8"?>
<!--Generator: Apple Native CoreSVG 326-->
<!DOCTYPE svg
PUBLIC "-//W3C//DTD SVG 1.1//EN"
       "http://www.w3.org/Graphics/SVG/1.1/DTD/svg11.dtd">
<svg version="1.1" xmlns="http://www.w3.org/2000/svg" xmlns:xlink="http://www.w3.org/1999/xlink" viewBox="0 0 651.25 651.75">
 <g>
  <rect height="651.75" opacity="0" width="651.25" x="0" y="0"/>
  <path d="M325.5 651.25C505.25 651.25 651.25 505.5 651.25 325.75C651.25 146 505.25 0 325.5 0C145.75 0 0 146 0 325.75C0 505.5 145.75 651.25 325.5 651.25ZM325.5 604.75C171.25 604.75 46.5 480 46.5 325.75C46.5 171.5 171.25 46.75 325.5 46.75C479.75 46.75 604.5 171.5 604.5 325.75C604.5 480 479.75 604.75 325.5 604.75Z" fill="black" fill-opacity="0.85"/>
  <path d="M153 325.75C153 405 209.25 473.5 283.5 492.75C288 480.5 290.75 468 292.25 455L285.25 454.5C279.5 454 275.25 449 275.5 443.5C275.5 438 280.25 432.75 286.25 433L292.75 433.5C292.75 425.5 291.75 418 290.5 410L284.25 411.5C278.5 413 273 409 271.75 403.75C270.25 398 273.75 392 279 390.75L285.5 389.25C282.75 381.25 279.5 373.5 275.75 365.75L270.5 368.75C265.5 371.5 259.25 369.75 256.5 364.5C253.5 359.75 255.25 353.25 260.75 350.25L265.5 347.5C260.5 340.5 255 333.5 249 327.25L245.25 331.25C241.25 335.25 234.75 335 230.5 331C226.5 327.5 226 320.5 230 316.25L233.75 312.5C228.25 307.75 221.75 303.5 215.5 299.5L212 306.5C209 311.75 203 313.5 198.25 311C192.5 308.25 190.75 302 193.5 296.5L197 289.5C185.25 284 172.75 280.25 160 277.75C155.75 293 153 309.25 153 325.75ZM325.5 498.25C396.25 498.25 458.25 453.75 484.75 391.5C470.75 388.5 457.25 384.5 444.75 378.75L441.5 384.75C438.75 390 432.5 392 427.25 389.25C422.25 386.75 420.25 380.25 423 374.75L426 369C417.75 364 409.5 358.5 401.75 352.25L397 357.25C393 361.25 386.75 361 382.25 357C378.25 353.25 377.25 346.75 381.5 342.5L386.25 337.5C379.5 330 373 321.75 367.25 313.25L360.5 317C355 320 349 317.75 346.25 312.75C343.75 307.75 345 301.5 350.25 298.75L356.75 295C352 285.25 348 275.75 345.25 265.75L337 268C331 269.5 325.75 266 324.25 260.25C322.75 254.75 325.5 249 331.75 247.5L340.5 245.25C338.5 236 338 226.5 337.75 217.25L330.75 216.75C324.75 216.5 320.75 211.75 321 205.75C321.25 200.25 325.75 195.25 332 195.75L338.5 196C340 182 343.25 168.25 347.5 154.5C340.25 153.5 332.5 153.25 325.25 153.25C254.75 153.25 192.75 197.75 166.75 259.5C180.25 262.5 193.25 266.5 206 272.25L209 266.75C212 261.25 217.75 260 223.25 262.5C228 264.75 230.25 271.25 227.5 276.5L224.5 282.25C232.5 287 240.25 292.25 247.5 298.25L253.75 292.25C258 288.25 263.5 288.5 268.25 292.5C273 296.5 273 302.75 269 307L263 313C270.25 320.5 277 328.75 282.75 337.5L290 333.75C295.25 330.75 301.25 333 304 338.25C307.25 342.75 305.75 349.5 300.25 352.5L293.5 356.25C298.25 365.5 302 374.75 304.75 384.5L311.75 382.5C317.25 381.25 322.75 384.5 324.25 390C325.75 396 322.25 402 317 403.25L309.75 405.25C311.5 414.75 312.25 424.75 312.25 434.25L319.75 434.75C325.75 435 329.75 440 329.75 445.75C329.5 451.5 325 456.25 319 455.75L311.5 455.5C309.75 469.5 306.75 483.5 302.25 496.75C310 498 317.5 498.25 325.5 498.25ZM498 325.75C498 246 441.25 177.25 366.75 158.25C362.25 170.75 359.5 183.5 358 196.5L365.25 197C371 197.5 375.25 202.5 375.25 208C375 214 370.5 218.75 364.5 218.5L357.5 218C357.5 225.5 358.25 232.75 359.5 240.25L364.25 239.25C370 237.75 375.25 241.25 377 247.25C378.5 252.75 375.25 258.25 369.5 259.75L364.5 261C367.25 269 370.25 277 374.5 285L379.25 282.25C384.75 279.25 391 281.5 393.75 286.5C396.75 292 395 297.5 389.5 300.5L384.75 303.25C389.5 310.25 394.75 317 400.25 323.25L405.25 318.25C409.75 313.5 415.75 314 420.25 318C424.25 322 425 328.5 420.25 333.25L415.75 338C421.75 343.25 428.25 347.75 435.25 352L438.5 345.5C441.25 340.5 447.75 338 452.5 341C457.75 343.75 459.75 349.75 457 355L453.5 362C465.75 367.25 478.25 371 491.25 373.25C495.75 358 498 342.25 498 325.75Z" fill="black" fill-opacity="0.85"/>
 </g>
</svg>
