<?xml version="1.0" encoding="UTF-8"?>
<!--Generator: Apple Native CoreSVG 326-->
<!DOCTYPE svg
PUBLIC "-//W3C//DTD SVG 1.1//EN"
       "http://www.w3.org/Graphics/SVG/1.1/DTD/svg11.dtd">
<svg version="1.1" xmlns="http://www.w3.org/2000/svg" xmlns:xlink="http://www.w3.org/1999/xlink" viewBox="0 0 737.75 698.765">
 <g>
  <rect height="698.765" opacity="0" width="737.75" x="0" y="0"/>
  <path d="M0 308.508C0 336.508 17.25 353.758 45.5 353.758L692.25 353.758C720.5 353.758 737.75 336.508 737.75 308.508L737.75 265.508C737.75 237.508 720.5 219.758 692.25 219.758L45.5 219.758C17.25 219.758 0 237.508 0 265.508ZM55.25 263.508L682.25 263.508C690 263.508 694.25 268.008 694.25 275.758L694.25 298.008C694.25 305.508 690 310.258 682.25 310.258L55.25 310.258C47.75 310.258 43.5 305.508 43.5 298.008L43.5 275.758C43.5 268.008 47.75 263.508 55.25 263.508ZM194.25 676.258L543.5 676.258C610 676.258 633 637.758 642.25 593.008L694 341.758L650.25 336.258L601.5 577.258C593.5 615.508 580.75 632.258 536.5 632.258L201.25 632.258C157 632.258 144.25 615.508 136.5 577.258L87.5 336.258L44 341.758L95.75 593.008C104.75 637.758 127.75 676.258 194.25 676.258ZM233 595.258C243.25 593.508 249 586.008 247.25 576.758L219.5 401.508C217.75 392.008 209.75 386.758 199.75 388.508C189.5 390.258 183.5 397.758 185.25 406.758L213.5 582.258C215 591.508 222.75 596.758 233 595.258ZM325 594.008C335 593.258 341.75 586.258 341.25 577.008L329.5 402.508C328.75 393.008 321.75 386.508 311.5 387.508C301.25 388.008 294.5 395.008 295 404.758L306.75 579.008C307.5 588.508 314.75 594.758 325 594.008ZM413.25 594.008C423.25 594.758 430.75 588.508 431.25 579.008L443 404.758C443.75 395.008 436.75 388.008 426.75 387.508C416.5 386.508 409.25 393.008 408.75 402.508L397 577.008C396.25 586.258 403.25 593.258 413.25 594.008ZM504.75 595.258C514.75 596.758 522.75 591.508 524.5 582.258L552.75 406.758C554.25 397.758 548.25 390.258 538.25 388.508C528 386.758 520 392.008 518.5 401.508L490.5 576.758C489 586.008 494.5 593.508 504.75 595.258ZM102.75 230.758L157.25 230.758L270.75 33.2577C278.25 20.2577 272.25 8.50769 262.25 3.00769C252.25-2.24231 239-1.24231 231.75 11.0077ZM580.5 230.758L635.25 230.758L506 11.0077C499-0.992312 485.75-1.99231 475.5 3.00769C465.5 8.50769 459.5 20.2577 467 33.2577Z" fill="black" fill-opacity="0.85"/>
 </g>
</svg>
