<?xml version="1.0" encoding="UTF-8"?>
<!--Generator: Apple Native CoreSVG 326-->
<!DOCTYPE svg
PUBLIC "-//W3C//DTD SVG 1.1//EN"
       "http://www.w3.org/Graphics/SVG/1.1/DTD/svg11.dtd">
<svg version="1.1" xmlns="http://www.w3.org/2000/svg" xmlns:xlink="http://www.w3.org/1999/xlink" viewBox="0 0 651.25 651.75">
 <g>
  <rect height="651.75" opacity="0" width="651.25" x="0" y="0"/>
  <path d="M325.5 651.25C505.25 651.25 651.25 505.5 651.25 325.75C651.25 146 505.25 0 325.5 0C145.75 0 0 146 0 325.75C0 505.5 145.75 651.25 325.5 651.25ZM325.5 604.75C171.25 604.75 46.5 480 46.5 325.75C46.5 171.5 171.25 46.75 325.5 46.75C479.75 46.75 604.5 171.5 604.5 325.75C604.5 480 479.75 604.75 325.5 604.75Z" fill="black" fill-opacity="0.85"/>
  <path d="M153.25 316.25C167.75 298.25 184.25 281.75 203.25 267.25C202.5 254.75 195.5 232.5 183.5 228.5C166 253.75 154.25 287.25 153.25 316.25ZM221.75 254.25C227.25 250.5 232.5 247.25 238 244.25C235 216.5 235.75 193.25 239 177C222.75 186.5 208.5 198.5 196 212.5C210 218.75 218.5 239 221.75 254.25ZM256.75 235C265.5 230.75 274.75 227.25 284 223.75C283.75 220.75 283.75 217 283.75 213.25C283.75 189 295 167.75 314 153.5C299 154.5 277.5 159 260.5 166.25C256.75 179.75 253.25 203 256.75 235ZM304.25 218.25C326 212.25 349.25 209.25 373 209.25C404.5 209.25 436 214.75 464.25 224.75C437.75 189 398 163.25 353 155.75C320.75 167.75 301.75 188.75 304.25 218.25ZM154.5 349C160 385.75 177.25 419 202.25 445C187.75 398.25 200 342.25 203 293.75C184.5 310 168.25 328.25 154.5 349ZM223.5 277.25C224 350.5 193.25 433 252.75 478C274 490.75 299 498.25 325.5 498.25C333.25 498.25 341 497.75 349 496.5C285.5 416.5 253 332 241.5 266C235.25 269.25 229.25 273.25 223.5 277.25ZM259 256C269.75 320.25 302.5 408.5 371 491.75C411.25 480.75 446 454.75 468.25 420.25C456.5 341.5 320.25 315.25 289.5 243.25C279.25 246.75 269.25 251 259 256ZM309.25 237.25C336 292.75 451 318.75 482.75 395C492.25 373.5 498 350.25 498 325.75C498 300.5 492 276.25 481.5 254.5C447.25 237.75 412 229.25 373 229.25C351 229.25 329.75 232 309.25 237.25Z" fill="black" fill-opacity="0.85"/>
 </g>
</svg>
