<?xml version="1.0" encoding="UTF-8"?>
<!--Generator: Apple Native CoreSVG 326-->
<!DOCTYPE svg
PUBLIC "-//W3C//DTD SVG 1.1//EN"
       "http://www.w3.org/Graphics/SVG/1.1/DTD/svg11.dtd">
<svg version="1.1" xmlns="http://www.w3.org/2000/svg" xmlns:xlink="http://www.w3.org/1999/xlink" viewBox="0 0 808.75 494.25">
 <g>
  <rect height="494.25" opacity="0" width="808.75" x="0" y="0"/>
  <path d="M0 39.25C0 61 17.75 78.75 39.5 78.75L769.25 78.75C791 78.75 808.75 61 808.75 39.25C808.75 17.5 791 0 769.25 0L39.5 0C17.75 0 0 17.5 0 39.25ZM220 419.75L588.5 419.75C707 419.75 767.75 362.25 767.75 250L767.75 118.5L41 118.5L41 250C41 362.25 101.75 419.75 220 419.75ZM132.75 489.5C144.25 493.75 157.25 487.5 161.25 476.25L188 402.5L146.5 387.5L119.75 461C115.75 472.5 121.5 485.5 132.75 489.5ZM675.75 489.5C687.25 485.5 693 472.5 689 461L662.25 387.5L620.75 402.5L647.25 476.25C651.5 487.5 664.5 493.75 675.75 489.5Z" fill="black" fill-opacity="0.85"/>
 </g>
</svg>
