<?xml version="1.0" encoding="UTF-8"?>
<!--Generator: Apple Native CoreSVG 326-->
<!DOCTYPE svg
PUBLIC "-//W3C//DTD SVG 1.1//EN"
       "http://www.w3.org/Graphics/SVG/1.1/DTD/svg11.dtd">
<svg version="1.1" xmlns="http://www.w3.org/2000/svg" xmlns:xlink="http://www.w3.org/1999/xlink" viewBox="0 0 651.25 651.75">
 <g>
  <rect height="651.75" opacity="0" width="651.25" x="0" y="0"/>
  <path d="M651.25 325.75C651.25 505 505 651.25 325.5 651.25C146.25 651.25 0 505 0 325.75C0 146.25 146.25 0 325.5 0C505 0 651.25 146.25 651.25 325.75ZM204 224.5C178.25 224.5 156.75 227.5 141.25 242.5C126.5 258 123.75 279 123.75 304.5L123.75 346.75C123.75 372.25 126.5 393.5 141.25 408.75C156.75 423.75 177.75 426.25 204 426.25L426.25 426.25C452 426.25 473.25 423.75 488.25 408.75C503 393.5 506.25 372.25 506.25 346.75L506.25 304.5C506.25 279.25 503 258 488.25 242.5C473 227.5 451.75 224.5 426.25 224.5ZM464.5 266.75C470.25 272.25 473.5 284.5 473.5 300.5L473.5 351C473.5 366.75 470.25 379 464.5 384.5C458.25 391 446.5 393.75 430.5 393.75L199.5 393.75C183.25 393.75 171.75 391 165.5 384.75C159.5 379.25 157 367.5 157 351L157 300.5C157 283.75 159.5 272.25 165.5 266.5C172 260.25 183.5 257.25 199.5 257.25L430.5 257.25C446.25 257.25 458.25 260.5 464.5 266.75ZM200.75 275.25C190.75 275.25 184.25 276.5 180.25 280.5C176.75 284.25 175 290.5 175 301L175 350C175 360.5 176.75 366.75 180.25 370.75C184 374.25 190.75 375.75 200.75 375.75L429.25 375.75C439.75 375.75 446 374.25 449.75 370.75C453.75 366.75 455.75 360.25 455.75 350L455.75 301C455.75 291 453.75 284.5 449.75 280.5C445.75 276.75 439.75 275.25 429.25 275.25ZM521.25 365.5C533.25 364.75 549.5 349 549.5 325.75C549.5 302.5 533.25 287 521.25 285.75Z" fill="black" fill-opacity="0.85"/>
 </g>
</svg>
