<?xml version="1.0" encoding="UTF-8"?>
<!--Generator: Apple Native CoreSVG 326-->
<!DOCTYPE svg
PUBLIC "-//W3C//DTD SVG 1.1//EN"
       "http://www.w3.org/Graphics/SVG/1.1/DTD/svg11.dtd">
<svg version="1.1" xmlns="http://www.w3.org/2000/svg" xmlns:xlink="http://www.w3.org/1999/xlink" viewBox="0 0 936.75 425.25">
 <g>
  <rect height="425.25" opacity="0" width="936.75" x="0" y="0"/>
  <path d="M168.25 425.25L671.25 425.25C728.5 425.25 772 419.25 803 388.25C833.75 357.5 839.5 314.5 839.5 257.25L839.5 168.25C839.5 111 833.75 68 803 37C771.75 6.25 728.5 0 671.25 0L166.5 0C111.25 0 67.75 6.25 36.75 37.25C5.75 68.25 0 111.25 0 166.75L0 257.25C0 314.5 5.5 357.5 36.5 388.25C67.75 419.25 111 425.25 168.25 425.25ZM159.5 381C123.25 381 88.75 375.5 69 355.75C49.5 336.25 44.25 302.25 44.25 266L44.25 161.25C44.25 123.5 49.5 89 69 69.5C88.5 49.5 123.5 44.5 161 44.5L680 44.5C716.25 44.5 750.75 50 770.5 69.5C790 89.25 795.25 123.25 795.25 159.5L795.25 266C795.25 302.25 790 336.25 770.5 355.75C750.75 375.75 716.25 381 680 381ZM879.25 293C904 291.5 936.75 260 936.75 212.75C936.75 165.5 904 134 879.25 132.5Z" fill="black" fill-opacity="0.85"/>
  <path d="M146 346.25L196 346.25C222.75 346.25 238.25 342.25 248.5 332C258.75 321.75 263 306 263 279.5L263 146C263 119.25 258.75 103.75 248.75 93.5C238.25 83.25 222.5 79.25 196 79.25L147.5 79.25C119.5 79.25 103.5 83.25 93.5 93.25C83.25 103.5 79 119.75 79 147.5L79 279.5C79 306.25 83.25 321.75 93.5 332C103.75 342 119.75 346.25 146 346.25Z" fill="black" fill-opacity="0.85"/>
 </g>
</svg>
