<?xml version="1.0" encoding="UTF-8"?>
<!--Generator: Apple Native CoreSVG 326-->
<!DOCTYPE svg
PUBLIC "-//W3C//DTD SVG 1.1//EN"
       "http://www.w3.org/Graphics/SVG/1.1/DTD/svg11.dtd">
<svg version="1.1" xmlns="http://www.w3.org/2000/svg" xmlns:xlink="http://www.w3.org/1999/xlink" viewBox="0 0 936.75 519.888">
 <g>
  <rect height="519.888" opacity="0" width="936.75" x="0" y="0"/>
  <path d="M384.217 91.8191L161 91.8191C123.5 91.8191 88.5 96.8191 69 116.819C49.5 136.319 44.25 170.819 44.25 208.569L44.25 313.319C44.25 349.569 49.5 383.569 69 403.069C88.75 422.819 123.25 428.319 159.5 428.319L319.38 428.319L313.25 444.819C309.616 454.672 308.564 464.029 309.557 472.569L168.25 472.569C111 472.569 67.75 466.569 36.5 435.569C5.5 404.819 0 361.819 0 304.569L0 214.069C0 158.569 5.75 115.569 36.75 84.5691C67.75 53.5691 111.25 47.3191 166.5 47.3191L419.581 47.3191ZM803 84.3191C833.75 115.319 839.5 158.319 839.5 215.569L839.5 304.569C839.5 361.819 833.75 404.819 803 435.569C772 466.569 728.5 472.569 671.25 472.569L427.395 472.569L462.61 428.319L680 428.319C716.25 428.319 750.75 423.069 770.5 403.069C790 383.569 795.25 349.569 795.25 313.319L795.25 206.819C795.25 170.569 790 136.569 770.5 116.819C750.75 97.3191 716.25 91.8191 680 91.8191L527.409 91.8191L533.5 75.3191C537.17 65.369 538.213 55.9244 537.174 47.3191L671.25 47.3191C728.5 47.3191 771.75 53.5691 803 84.3191ZM936.75 260.069C936.75 307.319 904 338.819 879.25 340.319L879.25 179.819C904 181.319 936.75 212.819 936.75 260.069Z" fill="black" fill-opacity="0.85"/>
  <path d="M259.25 249.069C250.5 259.819 245.75 272.319 245.75 285.319C245.75 314.819 269.5 337.819 299.25 337.819L353 337.819L332.289 393.569L146 393.569C119.75 393.569 103.75 389.319 93.5 379.319C83.25 369.069 79 353.569 79 326.819L79 194.819C79 167.069 83.25 150.819 93.5 140.569C103.5 130.569 119.5 126.569 147.5 126.569L356.601 126.569ZM746 140.819C756.25 151.069 760.25 166.569 760.25 193.319L760.25 326.819C760.25 353.319 756.25 369.069 746 379.319C735.75 389.569 720 393.569 693.5 393.569L490.264 393.569L587.75 271.069C596.25 260.319 601.25 247.819 601.25 234.819C601.25 205.319 577.25 182.319 547.75 182.319L494 182.319L514.581 126.569L693.5 126.569C719.75 126.569 735.75 130.569 746 140.819Z" fill="black" fill-opacity="0.85"/>
  <path d="M285.25 285.319C285.25 292.819 291.25 298.069 299 298.069L410.25 298.069L350.5 458.569C343.5 477.569 363.75 488.069 376 472.569L556 246.819C559.25 242.319 561.25 238.569 561.25 234.819C561.25 227.319 555.25 222.069 547.5 222.069L436.25 222.069L495.75 61.5691C502.75 42.5691 482.75 32.0691 470.25 47.5691L290.5 273.319C287 277.819 285.25 281.569 285.25 285.319Z" fill="black" fill-opacity="0.85"/>
 </g>
</svg>
