<?xml version="1.0" encoding="UTF-8"?>
<!--Generator: Apple Native CoreSVG 326-->
<!DOCTYPE svg
PUBLIC "-//W3C//DTD SVG 1.1//EN"
       "http://www.w3.org/Graphics/SVG/1.1/DTD/svg11.dtd">
<svg version="1.1" xmlns="http://www.w3.org/2000/svg" xmlns:xlink="http://www.w3.org/1999/xlink" viewBox="0 0 651.25 651.75">
 <g>
  <rect height="651.75" opacity="0" width="651.25" x="0" y="0"/>
  <path d="M325.5 651.25C505.25 651.25 651.25 505.5 651.25 325.75C651.25 146 505.25 0 325.5 0C145.75 0 0 146 0 325.75C0 505.5 145.75 651.25 325.5 651.25ZM325.5 604.75C171.25 604.75 46.5 480 46.5 325.75C46.5 171.5 171.25 46.75 325.5 46.75C479.75 46.75 604.5 171.5 604.5 325.75C604.5 480 479.75 604.75 325.5 604.75Z" fill="black" fill-opacity="0.85"/>
  <path d="M207 423.75L424 423.75C449.25 423.75 470 421.25 484.5 406.75C499 391.75 502 371.25 502 346.25L502 305C502 280.25 499 259.5 484.5 244.5C469.75 230 448.75 227 424 227L207 227C182 227 161 230 146 244.5C131.5 259.5 129 280 129 305L129 346.25C129 371.25 131.5 391.75 146 406.75C161 421.25 181.75 423.75 207 423.75ZM203 392.25C186.75 392.25 175.5 389.5 169.5 383.5C163.5 377.75 161 366.5 161 350.25L161 301C161 284.75 163.5 273.5 169.5 267.75C175.75 261.75 187 258.75 203 258.75L428 258.75C443.75 258.75 455.5 262 461.5 268C467.25 273.5 470.25 285.5 470.25 301L470.25 350.25C470.25 365.75 467.25 377.75 461.5 383.25C455.5 389.5 444 392.25 428 392.25ZM204.25 374.75L427 374.75C437.25 374.75 443.25 373.25 447.25 369.75C451 366 453 359.5 453 349.5L453 301.5C453 291.75 451 285.25 447.25 281.5C443.25 277.75 437 276.25 427 276.25L204.25 276.25C194 276.25 187.75 277.5 183.75 281.5C180.25 285 178.5 291.25 178.5 301.5L178.5 349.5C178.5 359.75 180.25 366 183.75 369.75C187.5 373.25 194 374.75 204.25 374.75ZM516.75 364.5C528.5 363.75 544.25 348.5 544.25 325.75C544.25 303 528.5 287.75 516.75 286.75Z" fill="black" fill-opacity="0.85"/>
 </g>
</svg>
