<?xml version="1.0" encoding="UTF-8"?>
<!--Generator: Apple Native CoreSVG 326-->
<!DOCTYPE svg
PUBLIC "-//W3C//DTD SVG 1.1//EN"
       "http://www.w3.org/Graphics/SVG/1.1/DTD/svg11.dtd">
<svg version="1.1" xmlns="http://www.w3.org/2000/svg" xmlns:xlink="http://www.w3.org/1999/xlink" viewBox="0 0 643.02 750.406">
 <g>
  <rect height="750.406" opacity="0" width="643.02" x="0" y="0"/>
  <path d="M2.01004 259.078C-3.73996 274.828 3.76004 287.828 15.51 292.078C24.76 295.578 33.26 291.078 40.76 285.078C72.01 262.578 101.01 253.578 134.51 265.828C168.26 277.828 182.51 302.578 188.76 338.328C190.51 348.828 194.01 357.078 202.76 360.078C212.01 363.578 220.01 359.578 228.01 352.828C248.51 335.328 277.51 327.328 303.76 329.828L162.01 717.828C157.51 730.328 164.01 744.578 176.76 749.078C189.26 753.328 203.26 747.078 208.01 734.578L349.51 346.328C370.76 361.578 387.51 386.078 392.01 412.828C394.26 422.828 397.51 431.078 406.51 434.328C415.26 437.578 423.26 433.328 431.51 426.828C459.26 403.328 485.76 393.578 519.51 405.828C553.26 418.078 569.76 443.578 578.76 481.328C581.01 490.578 584.76 499.328 594.01 502.578C605.51 506.828 620.01 501.828 625.51 485.828C669.51 364.828 638.01 166.328 445.26 82.5778L462.76 34.5778C468.01 20.0778 462.26 7.07777 448.51 1.82777C435.01-3.17223 422.26 3.57777 417.01 17.5778L399.51 66.0778C198.01 6.07777 46.26 137.578 2.01004 259.078ZM65.76 227.328C119.26 137.328 228.51 74.3278 355.76 100.328C300.76 133.328 247.26 197.328 212.01 282.578C199.76 254.828 178.51 236.328 149.26 226.078C121.26 215.828 93.76 216.078 65.76 227.328ZM246.01 296.328C285.01 201.828 349.51 135.578 407.76 113.578C439.01 168.078 445.51 260.328 414.76 358.078C400.01 329.578 373.01 305.828 342.26 294.578C311.51 283.078 275.51 284.078 246.01 296.328ZM449.51 368.828C477.51 281.078 477.51 197.828 456.76 137.078C570.76 199.328 613.76 317.828 597.01 420.578C582.51 394.078 561.76 376.078 534.01 365.828C504.76 355.328 476.76 355.828 449.51 368.828Z" fill="black" fill-opacity="0.85"/>
 </g>
</svg>
