<?xml version="1.0" encoding="UTF-8"?>
<!--Generator: Apple Native CoreSVG 326-->
<!DOCTYPE svg
PUBLIC "-//W3C//DTD SVG 1.1//EN"
       "http://www.w3.org/Graphics/SVG/1.1/DTD/svg11.dtd">
<svg version="1.1" xmlns="http://www.w3.org/2000/svg" xmlns:xlink="http://www.w3.org/1999/xlink" viewBox="0 0 651.25 651.75">
 <g>
  <rect height="651.75" opacity="0" width="651.25" x="0" y="0"/>
  <path d="M651.25 325.75C651.25 505.5 505.25 651.25 325.5 651.25C145.75 651.25 0 505.5 0 325.75C0 146 145.75 0 325.5 0C505.25 0 651.25 146 651.25 325.75ZM46.5 325.75C46.5 480 171.25 604.75 325.5 604.75C479.75 604.75 604.5 480 604.5 325.75C604.5 171.5 479.75 46.75 325.5 46.75C171.25 46.75 46.5 171.5 46.5 325.75Z" fill="black" fill-opacity="0.85"/>
  <path d="M325.5 514.75C296 514.75 275 494.25 272.25 468L378.75 468C376.25 494.25 355 514.75 325.5 514.75ZM393.25 442.25L180.5 442.25C166.5 442.25 158.25 434.75 158.25 423.5C158.25 405.5 176 390.25 191 374C204.5 359 206.25 329 208.75 303.5C209.336 288.679 210.786 274.887 213.3 262.3ZM375.5 180C421.5 195.75 440 240.25 442.5 303.5C444.75 329 446 359 460 374C475.5 390 493 405.5 493 423.5C493 429.358 490.695 434.199 486.492 437.479L246.197 196.986C254.432 189.638 264.221 183.926 275.75 180C282 156.25 300.25 138.25 325.5 138.25C350.75 138.25 369 156.25 375.5 180Z" fill="black" fill-opacity="0.85"/>
  <path d="M468 486.25C473 491.5 481.5 491.5 486.75 486.25C492 481 492 473 486.75 467.5L184 164.75C178.75 159.5 170.25 159.5 165 164.75C159.75 170 160 178.5 165 183.5Z" fill="black" fill-opacity="0.85"/>
 </g>
</svg>
