<?xml version="1.0" encoding="UTF-8"?>
<!--Generator: Apple Native CoreSVG 326-->
<!DOCTYPE svg
PUBLIC "-//W3C//DTD SVG 1.1//EN"
       "http://www.w3.org/Graphics/SVG/1.1/DTD/svg11.dtd">
<svg version="1.1" xmlns="http://www.w3.org/2000/svg" xmlns:xlink="http://www.w3.org/1999/xlink" viewBox="0 0 725.188 702.626">
 <g>
  <rect height="702.626" opacity="0" width="725.188" x="0" y="0"/>
  <path d="M202.839 259.866C199.647 278.331 197.53 299.328 196.594 323.188C191.844 389.188 184.594 440.688 157.344 470.188C139.594 489.938 118.844 511.188 114.344 522.938L114.344 526.688L469.776 526.688L511.543 568.438L475.844 568.438C473.594 629.688 427.344 680.688 362.594 680.688C297.594 680.688 251.594 629.438 249.094 568.438L102.594 568.438C76.8439 568.438 61.0939 554.688 61.0939 534.188C61.0939 501.938 92.8439 473.188 120.344 444.688C144.844 418.438 148.594 364.938 152.844 319.188C154.156 283.217 158.185 250.917 165.602 222.645ZM292.344 568.438C294.594 613.188 323.094 641.938 362.594 641.938C401.844 641.938 430.344 613.188 432.844 568.438ZM451.844 96.438C535.344 124.688 567.844 202.688 572.344 319.188C576.594 364.938 580.344 418.438 604.844 444.688C632.094 473.188 664.094 501.938 664.094 534.188C664.094 542.299 661.629 549.353 657.003 554.892L555.835 453.81C538.268 423.342 532.521 378.325 528.344 323.188C523.594 195.688 484.844 149.938 428.844 134.688C420.094 132.438 415.094 128.188 414.344 119.688C412.594 86.188 393.344 62.188 362.594 62.188C331.844 62.188 312.594 86.188 310.594 119.688C310.094 128.188 305.094 132.438 296.094 134.688C281.398 138.708 267.884 144.847 255.901 154.133L224.649 122.907C238.343 111.584 254.452 102.764 273.094 96.438C282.844 53.688 316.594 21.438 362.594 21.438C408.344 21.438 442.094 53.688 451.844 96.438Z" fill="black" fill-opacity="0.85"/>
  <path d="M69.8439 77.938L653.844 661.438C662.344 669.938 676.094 669.938 684.094 661.438C692.344 652.938 692.344 639.688 684.094 631.438L100.344 47.688C92.0939 39.688 78.5939 39.188 69.8439 47.688C61.8439 55.938 61.8439 69.938 69.8439 77.938Z" fill="black" fill-opacity="0.85"/>
 </g>
</svg>
