<?xml version="1.0" encoding="UTF-8"?>
<!--Generator: Apple Native CoreSVG 326-->
<!DOCTYPE svg
PUBLIC "-//W3C//DTD SVG 1.1//EN"
       "http://www.w3.org/Graphics/SVG/1.1/DTD/svg11.dtd">
<svg version="1.1" xmlns="http://www.w3.org/2000/svg" xmlns:xlink="http://www.w3.org/1999/xlink" viewBox="0 0 1132.75 659.75">
 <g>
  <rect height="659.75" opacity="0" width="1132.75" x="0" y="0"/>
  <path d="M118.75 546.5C127.25 536.5 124.5 523.5 114.75 512.5C70.25 464 44.75 400.25 44.75 329.75C44.75 259 70.25 195.25 114.75 146.75C124.5 135.75 127.25 122.75 118.75 113C109.75 102.75 94.5 102.75 84 114.25C30.5 171.25 0 247 0 329.75C0 412.25 30.5 488.25 84 545C94.5 556.5 109.75 556.75 118.75 546.5ZM1014.25 546.5C1023 556.75 1038.5 556.5 1049 545C1102.25 488.25 1132.75 412.25 1132.75 329.75C1132.75 247 1102.25 171.25 1049 114.25C1038.5 102.75 1023 102.75 1014.25 113C1005.5 122.75 1008.25 135.75 1018 146.75C1062.75 195.25 1088 259 1088 329.75C1088 400.25 1062.75 464 1018 512.5C1008.25 523.5 1005.5 536.5 1014.25 546.5Z" fill="black" fill-opacity="0.85"/>
  <path d="M208 455.5C216.75 445.5 213 433 204.25 421.5C183 397.25 172.75 364.75 172.75 329.75C172.75 294.75 183 262 204.25 237.75C213 226.25 216.75 213.75 208 204C198.75 193.75 182.5 193.5 172.75 205.75C144.25 239.5 128 283 128 329.75C128 376.5 144.25 419.75 172.75 453.5C182.5 465.75 198.75 465.75 208 455.5ZM925 455.5C934 465.75 950.5 465.75 960.25 453.5C988.5 419.75 1005 376.5 1005 329.75C1005 283 988.5 239.5 960.25 205.75C950.5 193.5 934 193.75 925 204C916.25 213.75 919.75 226.25 928.5 237.75C949.75 262 960 294.75 960 329.75C960 364.75 949.75 397.25 928.5 421.5C919.75 433 916.25 445.5 925 455.5Z" fill="black" fill-opacity="0.85"/>
  <path d="M265 512.75C265 533.25 280.75 547 306.5 547L453 547C455.5 608 501.5 659.25 566.5 659.25C631.25 659.25 677.5 608.25 679.75 547L826.25 547C852.25 547 868 533.25 868 512.75C868 480.5 836 451.75 808.75 423.25C784.25 397 780.5 343.5 776.25 297.75C771.75 181.25 739.25 103.25 655.75 75C646 32.25 612.25 0 566.5 0C520.5 0 486.75 32.25 477 75C393.5 103.25 361 181.25 356.75 297.75C352.5 343.5 348.75 397 324.25 423.25C296.75 451.75 265 480.5 265 512.75ZM318 505.25L318 501.5C322.75 489.75 343.5 468.5 361.25 448.75C388.25 419.25 395.75 367.75 400.5 301.75C405.5 174.25 444.25 128.5 500 113.25C509 111 514 106.75 514.5 98.25C516.5 64.75 535.75 40.75 566.5 40.75C597.25 40.75 616.5 64.75 618.25 98.25C619 106.75 624 111 632.75 113.25C688.75 128.5 727.5 174.25 732.25 301.75C737 367.75 744.5 419.25 771.5 448.75C789.25 468.5 810.25 489.75 814.75 501.5L814.75 505.25ZM496 547L636.75 547C634.25 591.75 605.75 620.5 566.5 620.5C527 620.5 498.5 591.75 496 547Z" fill="black" fill-opacity="0.85"/>
 </g>
</svg>
