<?xml version="1.0" encoding="UTF-8"?>
<!--Generator: Apple Native CoreSVG 326-->
<!DOCTYPE svg
PUBLIC "-//W3C//DTD SVG 1.1//EN"
       "http://www.w3.org/Graphics/SVG/1.1/DTD/svg11.dtd">
<svg version="1.1" xmlns="http://www.w3.org/2000/svg" xmlns:xlink="http://www.w3.org/1999/xlink" viewBox="0 0 1132.75 669.25">
 <g>
  <rect height="669.25" opacity="0" width="1132.75" x="0" y="0"/>
  <path d="M118.75 551.25C127.25 541.25 124.5 528.25 114.75 517.25C70.25 468.75 44.75 405 44.75 334.5C44.75 263.75 70.25 200 114.75 151.5C124.5 140.5 127.25 127.5 118.75 117.75C109.75 107.5 94.5 107.5 84 119C30.5 176 0 251.75 0 334.5C0 417 30.5 493 84 549.75C94.5 561.25 109.75 561.5 118.75 551.25ZM1014.25 551.25C1023 561.5 1038.5 561.25 1049 549.75C1102.25 493 1132.75 417 1132.75 334.5C1132.75 251.75 1102.25 176 1049 119C1038.5 107.5 1023 107.5 1014.25 117.75C1005.5 127.5 1008.25 140.5 1018 151.5C1062.75 200 1088 263.75 1088 334.5C1088 405 1062.75 468.75 1018 517.25C1008.25 528.25 1005.5 541.25 1014.25 551.25Z" fill="black" fill-opacity="0.85"/>
  <path d="M208 460.25C216.75 450.25 213 437.75 204.25 426.25C183 402 172.75 369.5 172.75 334.5C172.75 299.5 183 266.75 204.25 242.5C213 231 216.75 218.5 208 208.75C198.75 198.5 182.5 198.25 172.75 210.5C144.25 244.25 128 287.75 128 334.5C128 381.25 144.25 424.5 172.75 458.25C182.5 470.5 198.75 470.5 208 460.25ZM925 460.25C934 470.5 950.5 470.5 960.25 458.25C988.5 424.5 1005 381.25 1005 334.5C1005 287.75 988.5 244.25 960.25 210.5C950.5 198.25 934 198.5 925 208.75C916.25 218.5 919.75 231 928.5 242.5C949.75 266.75 960 299.5 960 334.5C960 369.5 949.75 402 928.5 426.25C919.75 437.75 916.25 450.25 925 460.25Z" fill="black" fill-opacity="0.85"/>
  <path d="M306.5 547L826.25 547C852.25 547 868 533.25 868 512.75C868 480.25 836 451.75 808.75 423.25C784.25 397 780.5 343.5 776.25 297.75C771.75 183.75 739.25 103.25 655.75 75C645 32.25 612.25 0 566.5 0C520.5 0 487.75 32.25 477 75C393.5 103.25 361 183.75 356.75 297.75C352.5 343.5 348.75 397 324.25 423.25C296.75 451.75 265 480.25 265 512.75C265 533.25 280.75 547 306.5 547ZM566.5 669.25C619.5 669.25 657.75 630.75 663 586.75L469.75 586.75C475 630.75 513.25 669.25 566.5 669.25Z" fill="black" fill-opacity="0.85"/>
 </g>
</svg>
