<?xml version="1.0" encoding="UTF-8"?>
<!--Generator: Apple Native CoreSVG 326-->
<!DOCTYPE svg
PUBLIC "-//W3C//DTD SVG 1.1//EN"
       "http://www.w3.org/Graphics/SVG/1.1/DTD/svg11.dtd">
<svg version="1.1" xmlns="http://www.w3.org/2000/svg" xmlns:xlink="http://www.w3.org/1999/xlink" viewBox="0 0 603 659.75">
 <g>
  <rect height="659.75" opacity="0" width="603" x="0" y="0"/>
  <path d="M0 512.75C0 533.25 15.75 547 41.5 547L188.25 547C190.5 608 236.75 659.25 301.5 659.25C366.25 659.25 412.5 608.25 414.75 547L561.25 547C587.25 547 603 533.25 603 512.75C603 480.5 571 451.75 543.75 423.25C519.25 397 515.5 343.5 511.25 297.75C507 181.25 474.25 103.25 391 75C381 32.25 347.25 0 301.5 0C255.75 0 221.75 32.25 212 75C128.75 103.25 96 181.25 91.75 297.75C87.5 343.5 83.75 397 59.25 423.25C31.75 451.75 0 480.5 0 512.75ZM53.25 505.25L53.25 501.5C57.75 489.75 78.5 468.5 96.5 448.75C123.5 419.25 130.75 367.75 135.5 301.75C140.5 174.25 179.25 128.5 235 113.25C244 111 249 106.75 249.5 98.25C251.5 64.75 270.75 40.75 301.5 40.75C332.25 40.75 351.5 64.75 353.25 98.25C354 106.75 359 111 368 113.25C423.75 128.5 462.5 174.25 467.5 301.75C472.25 367.75 479.5 419.25 506.5 448.75C524.5 468.5 545.25 489.75 549.75 501.5L549.75 505.25ZM231.25 547L371.75 547C369.25 591.75 341 620.5 301.5 620.5C262 620.5 233.75 591.75 231.25 547Z" fill="black" fill-opacity="0.85"/>
 </g>
</svg>
