<?xml version="1.0" encoding="UTF-8"?>
<!--Generator: Apple Native CoreSVG 326-->
<!DOCTYPE svg
PUBLIC "-//W3C//DTD SVG 1.1//EN"
       "http://www.w3.org/Graphics/SVG/1.1/DTD/svg11.dtd">
<svg version="1.1" xmlns="http://www.w3.org/2000/svg" xmlns:xlink="http://www.w3.org/1999/xlink" viewBox="0 0 732.25 720.75">
 <g>
  <rect height="720.75" opacity="0" width="732.25" x="0" y="0"/>
  <path d="M366.25 119.25C388.75 119.25 406.5 99.25 406.5 73.5C406.5 47.25 398.25 30 382.5 11.5C372.75-0.5 361-0.5 351.25 10C335.5 28.75 326 46 326 73.5C326 99.25 344 119.25 366.25 119.25ZM349.75 266.25L381.5 266.25L381.5 88.75L349.75 88.75ZM159.5 423.75L204 423.75L204 342C204 311.25 221.75 294 251.5 294L481 294C510.75 294 528.5 311.25 528.5 342L528.5 423.75L573 423.75L573 339.75C573 281 541.5 249.75 482 249.75L250.5 249.75C191.25 249.75 159.5 281 159.5 339.75ZM50.75 701.25L95 701.25L95 503.75C95 473 112.75 455.75 142.5 455.75L590 455.75C619.75 455.75 637.5 473 637.5 503.75L637.5 701.25L681.75 701.25L681.75 501.5C681.75 442.5 650.5 411.5 590.75 411.5L141.75 411.5C82.25 411.5 50.75 442.5 50.75 501.5ZM365.75 566.5C394.25 566.5 416 602.5 462.5 602.5C508 602.5 528.5 566.5 555.5 566.5C582.5 566.5 603.25 602.5 652 602.5L659.25 602.5L659.25 559.5L652 559.5C620 559.5 599.25 523.5 555.5 523.5C511.5 523.5 494.75 559.5 462.5 559.5C425.5 559.5 410.25 523.5 365.75 523.5C321.25 523.5 305.75 559.5 268.75 559.5C236.5 559.5 220 523.5 176 523.5C132 523.5 111.5 559.5 79.5 559.5L70.75 559.5L70.75 602.5L79.5 602.5C128.25 602.5 149 566.5 176 566.5C202.75 566.5 223.25 602.5 268.75 602.5C315.5 602.5 337.25 566.5 365.75 566.5ZM22.25 720.75L710.25 720.75C722.25 720.75 732.25 710.75 732.25 698.5C732.25 686.5 722.25 676.5 710.25 676.5L22.25 676.5C10 676.5 0 686.5 0 698.5C0 710.75 10 720.75 22.25 720.75Z" fill="black" fill-opacity="0.85"/>
 </g>
</svg>
