<?xml version="1.0" encoding="UTF-8"?>
<!--Generator: Apple Native CoreSVG 326-->
<!DOCTYPE svg
PUBLIC "-//W3C//DTD SVG 1.1//EN"
       "http://www.w3.org/Graphics/SVG/1.1/DTD/svg11.dtd">
<svg version="1.1" xmlns="http://www.w3.org/2000/svg" xmlns:xlink="http://www.w3.org/1999/xlink" viewBox="0 0 708.75 588.25">
 <g>
  <rect height="588.25" opacity="0" width="708.75" x="0" y="0"/>
  <path d="M0 541.75C0 563.75 14.5 572.5 30.5 572.5C40.25 572.5 48.25 567.5 58.5 560.75C93.5 534 140.25 517.75 189.5 518C238.5 518.25 287.25 537 323.75 573.25C335.5 584.25 344.5 587.75 354.5 587.75C364.5 587.75 373.75 584.25 385 573.25C422 537.25 470.25 518.25 519.25 518C568.5 517.75 615.5 534 650.25 560.75C660.5 567.5 668.75 572.5 678.25 572.5C694.25 572.5 708.75 563.75 708.75 541.75L708.75 104.5C708.75 98.75 708.25 94.75 705 89.25C676 40.25 604 0 518.25 0C446.75 0 386.75 29 354.5 70.25C322 29 262 0 190.5 0C104.75 0 32.75 40.25 3.75 89.25C0.5 94.75 0 98.75 0 104.5ZM44.25 517L44.25 110C70.75 70.5 129.25 44.25 190.5 44.25C253.75 44.25 307.75 70.75 332.25 112.75L332.25 523C300.25 496.25 247.5 473.75 190.5 473.75C131 473.75 77.75 491 44.25 517ZM376.5 523L376.5 112.75C401 70.75 455.25 44.25 518.25 44.25C579.5 44.25 638 70.5 664.5 110L664.5 517C631.25 491 577.75 473.75 518.25 473.75C461.25 473.75 408.5 496.25 376.5 523Z" fill="black" fill-opacity="0.85"/>
 </g>
</svg>
