<?xml version="1.0" encoding="UTF-8"?>
<!--Generator: Apple Native CoreSVG 326-->
<!DOCTYPE svg
PUBLIC "-//W3C//DTD SVG 1.1//EN"
       "http://www.w3.org/Graphics/SVG/1.1/DTD/svg11.dtd">
<svg version="1.1" xmlns="http://www.w3.org/2000/svg" xmlns:xlink="http://www.w3.org/1999/xlink" viewBox="0 0 683.438 683.25">
 <g>
  <rect height="683.25" opacity="0" width="683.438" x="0" y="0"/>
  <path d="M554.844 632.75L554.844 646.75C554.844 669.25 543.094 682.5 523.844 682.5C509.844 682.5 501.344 674.5 476.844 651L344.594 518.75C343.094 517.25 340.344 517.25 338.844 518.75L206.594 651C182.344 674.75 173.594 682.5 159.844 682.5C140.344 682.5 128.844 669.25 128.844 646.75L128.844 206.75ZM554.844 88.5L554.844 473.901L133.716 52.4036C144.192 17.6712 172.021 0 216.344 0L467.094 0C525.094 0 554.844 30 554.844 88.5Z" fill="black" fill-opacity="0.85"/>
  <path d="M612.344 641C620.594 649.25 634.344 649.25 642.344 641C650.594 632.5 650.844 619.25 642.344 610.75L73.3439 41.5C65.0939 33.25 51.5939 33 42.8439 41.5C34.8439 49.5 34.8439 63.5 42.8439 71.75Z" fill="black" fill-opacity="0.85"/>
 </g>
</svg>
