<?xml version="1.0" encoding="UTF-8"?>
<!--Generator: Apple Native CoreSVG 326-->
<!DOCTYPE svg
PUBLIC "-//W3C//DTD SVG 1.1//EN"
       "http://www.w3.org/Graphics/SVG/1.1/DTD/svg11.dtd">
<svg version="1.1" xmlns="http://www.w3.org/2000/svg" xmlns:xlink="http://www.w3.org/1999/xlink" viewBox="0 0 651.25 651.75">
 <g>
  <rect height="651.75" opacity="0" width="651.25" x="0" y="0"/>
  <path d="M651.25 326C651.25 505.5 505 651.75 325.5 651.75C146.25 651.75 0 505.5 0 326C0 146.75 146.25 0.5 325.5 0.5C505 0.5 651.25 146.75 651.25 326ZM367.75 149.75C354.75 149.75 348.5 156.75 348.5 169.25L348.5 470C348.5 482 354.75 489 367.75 489L403.25 489C416.25 489 422.75 482 422.75 470L422.75 292.75L459.5 474C461.5 486 469.25 491.5 481.75 488.75L504 483.75C516.5 481.5 521.75 473 519.5 461L469.75 212.25C467.25 200 459.5 194 447.25 196.75L422.75 202.75L422.75 169.25C422.75 156.75 416.25 149.75 403.25 149.75ZM159.75 191C146.75 191 140 197.75 140 209.75L140 470C140 482 146.75 489 159.75 489L187.25 489C200 489 206.5 482 206.5 470L206.5 209.75C206.5 197.75 200 191 187.25 191ZM247 243C234.75 243 227.75 250.5 227.75 262.5L227.75 470C227.75 482 234.75 489 247 489L307.75 489C320.75 489 326.75 482 326.75 470L326.75 262.5C326.75 250.5 320.75 243 307.75 243ZM304.5 445.5C304.5 451 300.5 455 295.25 455L260 455C254.75 455 250.75 451 250.75 445.5C250.75 440.25 254.5 436.25 260 436.25L295.25 436.25C300.5 436.25 304.5 440.5 304.5 445.5ZM304.5 287C304.5 291.5 300.5 296.25 295.25 296.25L260 296.25C254.5 296.25 250.75 291.75 250.75 287C250.75 281.75 254.75 277.75 260 277.75L295.25 277.75C300.5 277.75 304.5 281.75 304.5 287Z" fill="black" fill-opacity="0.85"/>
 </g>
</svg>
