<?xml version="1.0" encoding="UTF-8"?>
<!--Generator: Apple Native CoreSVG 326-->
<!DOCTYPE svg
PUBLIC "-//W3C//DTD SVG 1.1//EN"
       "http://www.w3.org/Graphics/SVG/1.1/DTD/svg11.dtd">
<svg version="1.1" xmlns="http://www.w3.org/2000/svg" xmlns:xlink="http://www.w3.org/1999/xlink" viewBox="0 0 750.02 723.75">
 <g>
  <rect height="723.75" opacity="0" width="750.02" x="0" y="0"/>
  <path d="M40.3849 706.5L97.8849 706.5C124.385 706.5 138.135 692 138.135 666.25L138.135 125.5C138.135 99.75 124.385 85.25 97.8849 85.25L40.3849 85.25C13.6349 85.25 0.13494 99.75 0.13494 125.5L0.13494 666.25C0.13494 692 13.6349 706.5 40.3849 706.5ZM213.135 706.5L339.635 706.5C366.385 706.5 379.885 692 379.885 666.25L379.885 235C379.885 209.25 366.385 194.75 339.635 194.75L213.135 194.75C186.385 194.75 172.885 209.25 172.885 235L172.885 666.25C172.885 692 186.385 706.5 213.135 706.5ZM239.885 303C229.635 303 222.135 295.25 222.135 285.25C222.135 275.75 229.635 268.25 239.885 268.25L313.135 268.25C323.135 268.25 330.635 275.75 330.635 285.25C330.635 295.25 323.135 303 313.135 303ZM239.885 633.25C229.635 633.25 222.135 625.5 222.135 615.75C222.135 606 229.635 598.5 239.885 598.5L313.135 598.5C323.135 598.5 330.635 606 330.635 615.75C330.635 625.5 323.135 633.25 313.135 633.25ZM454.885 706.5L529.885 706.5C556.385 706.5 570.135 692 570.135 666.25L570.135 40.25C570.135 14.5 556.385 0 529.885 0L454.885 0C428.385 0 414.635 14.5 414.635 40.25L414.635 666.25C414.635 692 428.385 706.5 454.885 706.5ZM666.385 708L714.135 701.75C740.385 698.75 752.385 683 749.635 657.25L691.885 131.75C689.135 106 674.135 92.75 647.635 96L600.135 102.5C573.635 105.75 561.885 121.25 564.635 146.75L622.385 672.5C625.135 698 639.885 711 666.385 708Z" fill="black" fill-opacity="0.85"/>
 </g>
</svg>
