<?xml version="1.0" encoding="UTF-8"?>
<!--Generator: Apple Native CoreSVG 326-->
<!DOCTYPE svg
PUBLIC "-//W3C//DTD SVG 1.1//EN"
       "http://www.w3.org/Graphics/SVG/1.1/DTD/svg11.dtd">
<svg version="1.1" xmlns="http://www.w3.org/2000/svg" xmlns:xlink="http://www.w3.org/1999/xlink" viewBox="0 0 651.25 651.75">
 <g>
  <rect height="651.75" opacity="0" width="651.25" x="0" y="0"/>
  <path d="M651.25 326C651.25 505.5 505 651.75 325.5 651.75C146.25 651.75 0 505.5 0 326C0 146.75 146.25 0.5 325.5 0.5C505 0.5 651.25 146.75 651.25 326ZM238.25 150C205 150 188 167 188 201L188 453C188 485.5 205 502.25 237.25 502.25L450.5 502.25C457.25 502.25 463 496.75 463 489.75C463 484.5 459.25 479.5 455 477.75C433.5 467.75 430 441.75 449.5 421.75C456.25 414.5 463 405 463 389.75L463 201C463 167.25 446 150 412.75 150ZM418.5 477L238.5 477C222.25 477 213.25 468.25 213.25 452.75C213.25 438.5 223.5 429 239.5 429L410 429C412 429 413.75 428.75 415.5 428.5C408.75 445.5 410 462.75 418.5 477ZM243 188.25L243 391.5C243 397 238.75 401.25 233 401.25C227.75 401.25 223.5 397.25 223.5 391.5L223.5 188.25C223.5 182.75 227.75 178.5 233 178.5C238.75 178.5 243 183 243 188.25Z" fill="black" fill-opacity="0.85"/>
 </g>
</svg>
