<?xml version="1.0" encoding="UTF-8"?>
<!--Generator: Apple Native CoreSVG 326-->
<!DOCTYPE svg
PUBLIC "-//W3C//DTD SVG 1.1//EN"
       "http://www.w3.org/Graphics/SVG/1.1/DTD/svg11.dtd">
<svg version="1.1" xmlns="http://www.w3.org/2000/svg" xmlns:xlink="http://www.w3.org/1999/xlink" viewBox="0 0 536.75 689.25">
 <g>
  <rect height="689.25" opacity="0" width="536.75" x="0" y="0"/>
  <path d="M94.75 689.25L514.75 689.25C527 689.25 536.75 679.5 536.75 667C536.75 657.75 530.25 649.25 521.75 646C479.25 626.5 470 573 510.75 530.75C523.25 518 536.75 501 536.75 469.75L536.75 97.75C536.75 33.25 504.5 0.5 440.5 0.5L96.25 0.5C32.25 0.5 0 33 0 97.75L0 594.75C0 657 32.5 689.25 94.75 689.25ZM97 645C63 645 44.25 626.5 44.25 594.25C44.25 563.75 65.5 544.5 99.25 544.5L435 544.5C441.25 544.5 446.5 543.75 451.5 542.5C433.75 578.5 437.5 616.5 459.5 645ZM86.5 498.75C77.75 498.75 70.25 491.5 70.25 482.5L70.25 63.75C70.25 54.5 77.75 47.25 86.5 47.25C95.5 47.25 103 54.5 103 63.75L103 482.5C103 491.5 95.5 498.75 86.5 498.75Z" fill="black" fill-opacity="0.85"/>
 </g>
</svg>
