<?xml version="1.0" encoding="UTF-8"?>
<!--Generator: Apple Native CoreSVG 326-->
<!DOCTYPE svg
PUBLIC "-//W3C//DTD SVG 1.1//EN"
       "http://www.w3.org/Graphics/SVG/1.1/DTD/svg11.dtd">
<svg version="1.1" xmlns="http://www.w3.org/2000/svg" xmlns:xlink="http://www.w3.org/1999/xlink" viewBox="0 0 651.25 651.75">
 <g>
  <rect height="651.75" opacity="0" width="651.25" x="0" y="0"/>
  <path d="M325.5 651.25C505.25 651.25 651.25 505.5 651.25 325.75C651.25 146 505.25 0 325.5 0C145.75 0 0 146 0 325.75C0 505.5 145.75 651.25 325.5 651.25ZM325.5 604.75C171.25 604.75 46.5 480 46.5 325.75C46.5 171.5 171.25 46.75 325.5 46.75C479.75 46.75 604.5 171.5 604.5 325.75C604.5 480 479.75 604.75 325.5 604.75Z" fill="black" fill-opacity="0.85"/>
  <path d="M239.25 498L447.5 498C454.25 498 459.75 492.25 459.75 485.5C459.75 480.5 456.25 475.5 452 474C431 464 427.25 438.75 446.5 419C453.25 412 459.75 403 459.75 387.75L459.75 203.25C459.75 170.5 443.25 153.75 410.75 153.75L240.25 153.75C207.75 153.75 191.25 170.25 191.25 203.25L191.25 450C191.25 481.25 207.75 498 239.25 498ZM240.5 473.25C224.5 473.25 215.75 464.5 215.75 449.5C215.75 435.5 225.75 426.25 241.75 426.25L408 426.25C410 426.25 411.75 426 413.5 426C407 442.25 408.25 459.5 416.5 473.25ZM235.25 399C230 399 226 395.25 226 389.5L226 191C226 185.5 230 181.5 235.25 181.5C240.75 181.5 245 185.75 245 191L245 389.5C245 395 240.75 399 235.25 399Z" fill="black" fill-opacity="0.85"/>
 </g>
</svg>
