<?xml version="1.0" encoding="UTF-8"?>
<!--Generator: Apple Native CoreSVG 326-->
<!DOCTYPE svg
PUBLIC "-//W3C//DTD SVG 1.1//EN"
       "http://www.w3.org/Graphics/SVG/1.1/DTD/svg11.dtd">
<svg version="1.1" xmlns="http://www.w3.org/2000/svg" xmlns:xlink="http://www.w3.org/1999/xlink" viewBox="0 0 706 679.75">
 <g>
  <rect height="679.75" opacity="0" width="706" x="0" y="0"/>
  <path d="M390.75 10.75L667 170.25C677 176 681.5 183.25 681.5 191.5C681.5 202.75 673 213.5 657.75 213.5L628.75 213.5L628.75 595.25L649.25 595.25C660.25 595.25 666.75 601.75 666.75 612.5L666.75 635L683.75 635C696 635 706 645 706 657.25C706 669.25 696 679.25 683.75 679.25L22.25 679.25C10 679.25 0 669.25 0 657.25C0 645 10 635 22.25 635L39.25 635L39.25 612.5C39.25 601.75 45.75 595.25 57 595.25L77.5 595.25L77.5 213.5L48.25 213.5C33 213.5 24.5 202.75 24.5 191.5C24.5 183.25 28.75 176 39 170.25L315.25 10.75C327.25 3.75 340.5 0 353 0C365.5 0 378.5 3.75 390.75 10.75ZM434 223.75L434 247.25C399.75 249.75 374.5 271 374.5 305.5C374.5 337.25 392.75 354.25 424.75 369.5L434 374L434 455.5C412.75 452.75 402.75 439 399.25 417C398 409.25 392 405.5 385.75 405.5C377.75 405.5 371.75 410.25 371.75 418.75C371.75 421 372.25 424.5 372.75 427.25C379.75 462 403.75 477.75 434 480L434 504.5C434 509 436.75 512 441.5 512C446 512 449 509 449 504.5L449 480C487 477.5 511.25 454.5 511.25 419.25C511.25 384.25 489.5 369.25 460.25 355.5L449 350.25L449 271.75C469 274.75 477.25 290 479.75 308.5C481 314 485.5 319.75 493.5 319.75C501.75 319.75 507.25 314.5 507.25 306.5C507.25 304.5 506.75 300.5 506.25 298C499.75 264.25 477 249.25 449 247.25L449 223.75C449 219 446 216 441.5 216C436.75 216 434 219 434 223.75ZM221.5 243.25C212.25 243.25 206.75 249 206.75 258.75L206.75 471.25C206.75 480.5 211.5 487 222 487C231.25 487 237 481 237 471.25L237 386.25L276.5 386.25L315 476C318.25 483.5 322.75 487 330.25 487C339 487 345 481.25 345 473C345 469 343 465.25 341.75 461.75L305.75 379.5C332.75 369 345 342.25 345 314C345 269 317 243.25 273.25 243.25ZM482.75 422C482.75 442.5 469.75 454 449 455.75L449 381.25C468 390.75 482.75 401 482.75 422ZM314.75 314.75C314.75 342.5 300.5 361.75 271 361.75L237 361.75L237 268.5L270.5 268.5C299.25 268.5 314.75 286.75 314.75 314.75ZM434 342.75C416.25 333.75 403 322.75 403 304C403 284.5 416.25 273.75 434 271.5Z" fill="black" fill-opacity="0.85"/>
 </g>
</svg>
