<?xml version="1.0" encoding="UTF-8"?>
<!--Generator: Apple Native CoreSVG 326-->
<!DOCTYPE svg
PUBLIC "-//W3C//DTD SVG 1.1//EN"
       "http://www.w3.org/Graphics/SVG/1.1/DTD/svg11.dtd">
<svg version="1.1" xmlns="http://www.w3.org/2000/svg" xmlns:xlink="http://www.w3.org/1999/xlink" viewBox="0 0 651.25 651.75">
 <g>
  <rect height="651.75" opacity="0" width="651.25" x="0" y="0"/>
  <path d="M651.25 326C651.25 505.5 505 651.75 325.5 651.75C146.25 651.75 0 505.5 0 326C0 146.75 146.25 0.5 325.5 0.5C505 0.5 651.25 146.75 651.25 326ZM370.25 330.75L370.25 344.5C370.25 356 363.5 362.75 352.25 362.75L299.25 362.75C288 362.75 281.5 356 281.5 344.5L281.5 330.75C234.25 327.75 188 319.25 138.5 301.75L138.5 426C138.5 459.5 155 475.75 188.5 475.75L463 475.75C496.5 475.75 513.25 459.5 513.25 426L513.25 301.75C463.5 319.25 417.25 327.75 370.25 330.75ZM270 147C243.5 147 226.75 162.5 226.75 188.25L226.75 208.25L188.5 208.25C155 208.25 138.5 224.25 138.5 257.75L138.5 274.25C200.5 299.25 260.25 307.75 325.75 307.75C391.5 307.75 451 299.25 513.25 274.25L513.25 257.75C513.25 224.25 496.5 208.25 463 208.25L424.75 208.25L424.75 188.25C424.75 162.5 408 147 381.75 147ZM396 189.5L396 208.25L255.5 208.25L255.5 189.5C255.5 180 261.25 174.25 271.5 174.25L379.75 174.25C390 174.25 396 180 396 189.5Z" fill="black" fill-opacity="0.85"/>
 </g>
</svg>
