<?xml version="1.0" encoding="UTF-8"?>
<!--Generator: Apple Native CoreSVG 326-->
<!DOCTYPE svg
PUBLIC "-//W3C//DTD SVG 1.1//EN"
       "http://www.w3.org/Graphics/SVG/1.1/DTD/svg11.dtd">
<svg version="1.1" xmlns="http://www.w3.org/2000/svg" xmlns:xlink="http://www.w3.org/1999/xlink" viewBox="0 0 651.25 651.75">
 <g>
  <rect height="651.75" opacity="0" width="651.25" x="0" y="0"/>
  <path d="M651.25 326C651.25 505.5 505 651.75 325.5 651.75C146.25 651.75 0 505.5 0 326C0 146.75 146.25 0.5 325.5 0.5C505 0.5 651.25 146.75 651.25 326ZM156.5 180.5C134.25 180.5 121.25 194.5 121.25 218L121.25 516.25C172 571 244.25 605 325.5 605C354 605 381.25 601 407 593L407 218C407 194.5 394.5 180.5 371.75 180.5ZM430.5 263.5L430.5 584.75C483.25 563.5 528 526.25 558.25 479L558.25 301C558.25 277.5 545.5 263.5 523 263.5ZM240.5 496L240.5 530.75C240.5 535 237.5 538 233.5 538L197.5 538C193.5 538 190.75 535 190.75 530.75L190.75 496C190.75 491.75 193.5 488.75 197.5 488.75L233.5 488.75C237.5 488.75 240.5 491.75 240.5 496ZM336.25 496L336.25 530.75C336.25 535 333.5 538 329.5 538L293.5 538C289.5 538 286.75 535 286.75 530.75L286.75 496C286.75 491.75 289.5 488.75 293.5 488.75L329.5 488.75C333.5 488.75 336.25 491.75 336.25 496ZM515.25 475L515.25 505.25C515.25 508.5 513 511 509.75 511L478.5 511C475.25 511 472.5 508.5 472.5 505.25L472.5 475C472.5 471.75 475.25 469 478.5 469L509.75 469C513 469 515.25 471.75 515.25 475ZM240.5 412.25L240.5 447.25C240.5 451 237.5 454.25 233.5 454.25L197.5 454.25C193.5 454.25 190.75 451 190.75 447.25L190.75 412.25C190.75 408.25 193.5 405 197.5 405L233.5 405C237.5 405 240.5 408.25 240.5 412.25ZM336.25 412.25L336.25 447.25C336.25 451 333.5 454.25 329.5 454.25L293.5 454.25C289.5 454.25 286.75 451 286.75 447.25L286.75 412.25C286.75 408.25 289.5 405 293.5 405L329.5 405C333.5 405 336.25 408.25 336.25 412.25ZM515.25 399.25L515.25 429.5C515.25 433 513 435.5 509.75 435.5L478.5 435.5C475.25 435.5 472.5 433 472.5 429.5L472.5 399.25C472.5 396 475.25 393.75 478.5 393.75L509.75 393.75C513 393.75 515.25 396 515.25 399.25ZM240.5 328.25L240.5 363.5C240.5 367.25 237.5 370.5 233.5 370.5L197.5 370.5C193.5 370.5 190.75 367.25 190.75 363.5L190.75 328.25C190.75 324.5 193.5 321.25 197.5 321.25L233.5 321.25C237.5 321.25 240.5 324.5 240.5 328.25ZM336.25 328.25L336.25 363.5C336.25 367.25 333.5 370.5 329.5 370.5L293.5 370.5C289.5 370.5 286.75 367.25 286.75 363.5L286.75 328.25C286.75 324.5 289.5 321.25 293.5 321.25L329.5 321.25C333.5 321.25 336.25 324.5 336.25 328.25ZM515.25 323.75L515.25 354.25C515.25 357.5 513 360 509.75 360L478.5 360C475.25 360 472.5 357.5 472.5 354.25L472.5 323.75C472.5 320.75 475.25 318 478.5 318L509.75 318C513 318 515.25 320.75 515.25 323.75ZM240.5 245.25L240.5 280.25C240.5 284.25 237.5 287.25 233.5 287.25L197.5 287.25C193.5 287.25 190.75 284.25 190.75 280.25L190.75 245.25C190.75 241 193.5 238.25 197.5 238.25L233.5 238.25C237.5 238.25 240.5 241 240.5 245.25ZM336.25 245.25L336.25 280.25C336.25 284.25 333.5 287.25 329.5 287.25L293.5 287.25C289.5 287.25 286.75 284.25 286.75 280.25L286.75 245.25C286.75 241 289.5 238.25 293.5 238.25L329.5 238.25C333.5 238.25 336.25 241 336.25 245.25Z" fill="black" fill-opacity="0.85"/>
 </g>
</svg>
