<?xml version="1.0" encoding="UTF-8"?>
<!--Generator: Apple Native CoreSVG 326-->
<!DOCTYPE svg
PUBLIC "-//W3C//DTD SVG 1.1//EN"
       "http://www.w3.org/Graphics/SVG/1.1/DTD/svg11.dtd">
<svg version="1.1" xmlns="http://www.w3.org/2000/svg" xmlns:xlink="http://www.w3.org/1999/xlink" viewBox="0 0 431.25 743.25">
 <g>
  <rect height="743.25" opacity="0" width="431.25" x="0" y="0"/>
  <path d="M91 200.5L91 134.25C91 126.25 95.75 120.75 103.75 120.75L171.75 120.75C179.75 120.75 185 126.25 185 134.25L185 200.5C185 208.5 179.75 213.75 171.75 213.75L103.75 213.75C95.75 213.75 91 208.5 91 200.5ZM246.5 200.5L246.5 134.25C246.5 126.25 251.5 120.75 259.25 120.75L327.5 120.75C335.25 120.75 340.5 126.25 340.5 134.25L340.5 200.5C340.5 208.5 335.25 213.75 327.5 213.75L259.25 213.75C251.5 213.75 246.5 208.5 246.5 200.5ZM91 338L91 271.5C91 263.5 95.75 258.5 103.75 258.5L171.75 258.5C179.75 258.5 185 263.5 185 271.5L185 338C185 346 179.75 351.25 171.75 351.25L103.75 351.25C95.75 351.25 91 346 91 338ZM246.5 338L246.5 271.5C246.5 263.5 251.5 258.5 259.25 258.5L327.5 258.5C335.25 258.5 340.5 263.5 340.5 271.5L340.5 338C340.5 346 335.25 351.25 327.5 351.25L259.25 351.25C251.5 351.25 246.5 346 246.5 338ZM91 475.25L91 409C91 401.25 95.75 395.75 103.75 395.75L171.75 395.75C179.75 395.75 185 401.25 185 409L185 475.25C185 483.25 179.75 488.75 171.75 488.75L103.75 488.75C95.75 488.75 91 483.25 91 475.25ZM246.5 475.25L246.5 409C246.5 401.25 251.5 395.75 259.25 395.75L327.5 395.75C335.25 395.75 340.5 401.25 340.5 409L340.5 475.25C340.5 483.25 335.25 488.75 327.5 488.75L259.25 488.75C251.5 488.75 246.5 483.25 246.5 475.25ZM48.25 743L383 743C413.25 743 431.25 723.25 431.25 691L431.25 52C431.25 19.5 413.25 0 383 0L48.25 0C18 0 0 19.5 0 52L0 691C0 723.25 18 743 48.25 743ZM139.25 700.75L139.25 607.25C139.25 589.5 149.25 579.75 167 579.75L264.5 579.75C282.75 579.75 292 589.5 292 607.25L292 700.75Z" fill="black" fill-opacity="0.85"/>
 </g>
</svg>
