<?xml version="1.0" encoding="UTF-8"?>
<!--Generator: Apple Native CoreSVG 326-->
<!DOCTYPE svg
PUBLIC "-//W3C//DTD SVG 1.1//EN"
       "http://www.w3.org/Graphics/SVG/1.1/DTD/svg11.dtd">
<svg version="1.1" xmlns="http://www.w3.org/2000/svg" xmlns:xlink="http://www.w3.org/1999/xlink" viewBox="0 0 1042 667.75">
 <g>
  <rect height="667.75" opacity="0" width="1042" x="0" y="0"/>
  <path d="M841.25 136.75L841.25 179.686C830.919 176.731 820.087 175.25 809 175.25C791.045 175.25 773.772 179.156 757.991 186.256C754.543 185.749 750.874 185.5 747 185.5L294.5 185.5C262.5 185.5 245 202.25 245 235.5L245 533.75C245 566.75 262.5 583.75 294.5 583.75L576.481 583.75C575.803 588.55 575.5 593.303 575.5 598C575.5 609.024 577.839 619.138 582.185 628L298 628C233.5 628 200.75 595.75 200.75 531.75L200.75 136.75C200.75 72.75 233.5 40.5 298 40.5L743.75 40.5C808.5 40.5 841.25 73 841.25 136.75ZM381.5 482L381.5 501C381.5 511.5 378.25 514.25 367.75 514.25L348.75 514.25C338.25 514.25 335 511.5 335 501L335 482C335 471.5 338.25 468.75 348.75 468.75L367.75 468.75C378.25 468.75 381.5 471.5 381.5 482ZM490 482L490 501C490 511.5 487 514.25 476.25 514.25L457.25 514.25C446.75 514.25 443.75 511.5 443.75 501L443.75 482C443.75 471.5 446.75 468.75 457.25 468.75L476.25 468.75C487 468.75 490 471.5 490 482ZM598.5 482L598.5 501C598.5 511.5 595.5 514.25 585 514.25L566 514.25C555.25 514.25 552.25 511.5 552.25 501L552.25 482C552.25 471.5 555.25 468.75 566 468.75L585 468.75C595.5 468.75 598.5 471.5 598.5 482ZM381.5 375L381.5 394C381.5 404.5 378.25 407.25 367.75 407.25L348.75 407.25C338.25 407.25 335 404.5 335 394L335 375C335 364.75 338.25 361.75 348.75 361.75L367.75 361.75C378.25 361.75 381.5 364.75 381.5 375ZM490 375L490 394C490 404.5 487 407.25 476.25 407.25L457.25 407.25C446.75 407.25 443.75 404.5 443.75 394L443.75 375C443.75 364.75 446.75 361.75 457.25 361.75L476.25 361.75C487 361.75 490 364.75 490 375ZM598.5 375L598.5 394C598.5 404.5 595.5 407.25 585 407.25L566 407.25C555.25 407.25 552.25 404.5 552.25 394L552.25 375C552.25 364.75 555.25 361.75 566 361.75L585 361.75C595.5 361.75 598.5 364.75 598.5 375ZM706.073 401.944C704.37 405.997 700.586 407.25 693.5 407.25L674.5 407.25C664 407.25 660.75 404.5 660.75 394L660.75 375C660.75 364.75 664 361.75 674.5 361.75L685.264 361.75C690.021 376.535 697.125 390.075 706.073 401.944ZM490 268.25L490 287C490 297.5 487 300.5 476.25 300.5L457.25 300.5C446.75 300.5 443.75 297.5 443.75 287L443.75 268.25C443.75 257.75 446.75 255 457.25 255L476.25 255C487 255 490 257.75 490 268.25ZM598.5 268.25L598.5 287C598.5 297.5 595.5 300.5 585 300.5L566 300.5C555.25 300.5 552.25 297.5 552.25 287L552.25 268.25C552.25 257.75 555.25 255 566 255L585 255C595.5 255 598.5 257.75 598.5 268.25ZM678.126 300.5L674.5 300.5C664 300.5 660.75 297.5 660.75 287L660.75 268.25C660.75 257.75 664 255 674.5 255L690.154 255C683.712 268.945 679.573 284.286 678.126 300.5Z" fill="black" fill-opacity="0.85"/>
  <path d="M653 627.75L964.75 627.75C987.75 627.75 1002.25 616.5 1002.25 598C1002.25 538.5 928 456.5 808.75 456.5C689.25 456.5 615.25 538.5 615.25 598C615.25 616.5 629.75 627.75 653 627.75ZM809 415.25C858.5 415.25 900.75 371.25 900.75 313.75C900.75 258 858.25 215.25 809 215.25C759.75 215.25 717.25 258.5 717.25 314.25C717.25 371.25 759.25 415.25 809 415.25Z" fill="black" fill-opacity="0.85"/>
 </g>
</svg>
