<?xml version="1.0" encoding="UTF-8"?>
<!--Generator: Apple Native CoreSVG 326-->
<!DOCTYPE svg
PUBLIC "-//W3C//DTD SVG 1.1//EN"
       "http://www.w3.org/Graphics/SVG/1.1/DTD/svg11.dtd">
<svg version="1.1" xmlns="http://www.w3.org/2000/svg" xmlns:xlink="http://www.w3.org/1999/xlink" viewBox="0 0 651.25 651.75">
 <g>
  <rect height="651.75" opacity="0" width="651.25" x="0" y="0"/>
  <path d="M325.5 651.25C505.25 651.25 651.25 505.5 651.25 325.75C651.25 146 505.25 0 325.5 0C145.75 0 0 146 0 325.75C0 505.5 145.75 651.25 325.5 651.25ZM325.5 604.75C171.25 604.75 46.5 480 46.5 325.75C46.5 171.5 171.25 46.75 325.5 46.75C479.75 46.75 604.5 171.5 604.5 325.75C604.5 480 479.75 604.75 325.5 604.75Z" fill="black" fill-opacity="0.85"/>
  <path d="M179.25 471.25L471 471.25C503.5 471.25 520.5 454.75 520.5 422.25L520.5 250.5C520.5 217.75 503.5 201.25 471 201.25L427.25 201.25C414.25 201.25 410.5 199.25 402.5 190.5L389.25 175.5C380.75 166.5 373 162.25 356.5 162.25L292 162.25C275.75 162.25 267.5 166.25 259.25 175.5L245.75 190.5C237.75 198.75 234.25 201.25 221.25 201.25L179.25 201.25C146.5 201.25 129.75 217.75 129.75 250.5L129.75 422.25C129.75 454.75 146.5 471.25 179.25 471.25ZM325.5 431.25C271.75 431.25 228.75 388.5 228.75 334.5C228.75 280.75 271.75 237.75 325.5 237.75C379 237.75 422 280.75 422 334.5C422 389.25 379 431.25 325.5 431.25ZM325.25 406.75C365 406.75 397.25 374.75 397.25 334.5C397.25 294.75 365 262.5 325.25 262.5C285.5 262.5 253.25 294.75 253.25 334.5C253.25 374.75 285.5 406.75 325.25 406.75ZM460.5 282.25C449.25 282.25 440 273 440 261.5C440 250.25 449.25 241 460.5 241C471.75 241 481 250.25 481 261.5C481 273 471.75 282.25 460.5 282.25Z" fill="black" fill-opacity="0.85"/>
 </g>
</svg>
