<?xml version="1.0" encoding="UTF-8"?>
<!--Generator: Apple Native CoreSVG 326-->
<!DOCTYPE svg
PUBLIC "-//W3C//DTD SVG 1.1//EN"
       "http://www.w3.org/Graphics/SVG/1.1/DTD/svg11.dtd">
<svg version="1.1" xmlns="http://www.w3.org/2000/svg" xmlns:xlink="http://www.w3.org/1999/xlink" viewBox="0 0 622.5 623.25">
 <g>
  <rect height="623.25" opacity="0" width="622.5" x="0" y="0"/>
  <path d="M22.25 201C36.5 201 44.25 192.75 44.25 178.5L44.25 99.5C44.25 63.5 63.25 45 98.25 45L178.75 45C193 45 201.25 37 201.25 23C201.25 8.75 193 0.75 178.75 0.75L97.25 0.75C32.75 0.75 0 33 0 97L0 178.5C0 192.75 8 201 22.25 201ZM600.25 201C614.75 201 622.5 192.75 622.5 178.5L622.5 97C622.5 33.5 590 0.75 525.25 0.75L443.75 0.75C429.5 0.75 421.25 8.75 421.25 23C421.25 37 429.5 45 443.75 45L524.25 45C558.5 45 578.25 63.5 578.25 99.5L578.25 178.5C578.25 192.75 586.25 201 600.25 201ZM97.25 623.25L178.75 623.25C193 623.25 201.25 615.25 201.25 601C201.25 587 193 579 178.75 579L98.25 579C63.25 579 44.25 560.5 44.25 524.5L44.25 445.5C44.25 431.25 36.25 423 22.25 423C7.75 423 0 431.25 0 445.5L0 527C0 591 32.75 623.25 97.25 623.25ZM443.75 623.25L525.25 623.25C590 623.25 622.5 590.5 622.5 527L622.5 445.5C622.5 431.25 614.5 423 600.25 423C586 423 578.25 431.25 578.25 445.5L578.25 524.5C578.25 560.5 558.5 579 524.25 579L443.75 579C429.5 579 421.25 587 421.25 601C421.25 615.25 429.5 623.25 443.75 623.25Z" fill="black" fill-opacity="0.85"/>
  <path d="M165.5 457.5L457.25 457.5C489.75 457.5 506.75 441 506.75 408.5L506.75 236.75C506.75 204 489.75 187.5 457.25 187.5L413.25 187.5C400.5 187.5 396.75 185.5 388.75 176.75L375.25 161.75C366.75 152.75 359.25 148.5 342.5 148.5L278 148.5C261.75 148.5 253.75 152.5 245.25 161.75L231.75 176.75C224 185.25 220.25 187.5 207.25 187.5L165.5 187.5C132.75 187.5 116 204 116 236.75L116 408.5C116 441 132.75 457.5 165.5 457.5ZM311.75 417.75C258 417.75 214.75 374.75 214.75 320.75C214.75 267 258 224 311.75 224C365.25 224 408.25 267 408.25 320.75C408.25 375.5 365.25 417.75 311.75 417.75ZM311.5 393C351 393 383.25 361 383.25 320.75C383.25 281 351 248.75 311.5 248.75C271.75 248.75 239.5 281 239.5 320.75C239.5 361 271.75 393 311.5 393ZM446.75 268.5C435.25 268.5 426 259.25 426 248C426 236.5 435.25 227.25 446.75 227.25C458 227.25 467.25 236.5 467.25 248C467.25 259.25 458 268.5 446.75 268.5Z" fill="black" fill-opacity="0.85"/>
 </g>
</svg>
