<?xml version="1.0" encoding="UTF-8"?>
<!--Generator: Apple Native CoreSVG 326-->
<!DOCTYPE svg
PUBLIC "-//W3C//DTD SVG 1.1//EN"
       "http://www.w3.org/Graphics/SVG/1.1/DTD/svg11.dtd">
<svg version="1.1" xmlns="http://www.w3.org/2000/svg" xmlns:xlink="http://www.w3.org/1999/xlink" viewBox="0 0 732.259 744.298">
 <g>
  <rect height="744.298" opacity="0" width="732.259" x="0" y="0"/>
  <path d="M526.129 204.524C574.879 168.774 620.379 27.0241 565.379 15.0241C509.379 3.52413 494.879 152.274 526.129 204.524ZM532.129 214.274C606.879 212.274 754.379 93.7741 703.379 42.5241C652.629-8.22587 534.379 139.274 532.129 214.274ZM542.129 220.024C593.879 251.774 743.129 237.024 731.629 181.524C719.629 125.774 577.629 171.774 542.129 220.024ZM534.379 182.274C454.379 101.274 347.129 121.774 279.129 229.524L9.87939 657.774C-7.12061 684.774-0.12061 709.524 17.6294 727.274C33.3794 743.024 57.6294 752.524 86.1294 734.524L515.129 465.274C622.129 398.024 641.879 291.274 561.879 210.274ZM505.129 211.774L532.629 239.774C593.879 302.024 581.129 374.024 493.629 429.024L65.3794 698.274C51.6294 706.774 37.1294 692.774 45.6294 679.024L315.129 250.524C370.629 162.524 443.629 149.524 505.129 211.774ZM395.129 310.524C401.879 303.024 401.879 292.024 394.129 284.524L322.129 215.024L297.129 241.774L368.879 311.024C376.629 318.524 388.129 317.774 395.129 310.524ZM326.629 351.774C334.129 344.774 334.129 333.274 326.379 325.524L271.129 272.024L246.129 299.024L300.879 351.774C308.629 359.274 319.379 358.774 326.629 351.774ZM251.629 503.524C244.629 510.524 244.379 522.024 252.379 529.524L302.629 577.774L334.629 557.774L277.879 503.024C270.129 495.524 258.879 496.024 251.629 503.524ZM200.879 560.524C193.629 568.024 193.629 579.274 201.379 586.774L235.129 619.774L267.379 599.774L226.879 560.524C219.129 553.024 207.879 553.524 200.879 560.524Z" fill="black" fill-opacity="0.85"/>
 </g>
</svg>
