<?xml version="1.0" encoding="UTF-8"?>
<!--Generator: Apple Native CoreSVG 326-->
<!DOCTYPE svg
PUBLIC "-//W3C//DTD SVG 1.1//EN"
       "http://www.w3.org/Graphics/SVG/1.1/DTD/svg11.dtd">
<svg version="1.1" xmlns="http://www.w3.org/2000/svg" xmlns:xlink="http://www.w3.org/1999/xlink" viewBox="0 0 690.25 599.25">
 <g>
  <rect height="599.25" opacity="0" width="690.25" x="0" y="0"/>
  <path d="M683.5 212C683.5 241.75 659.5 266 629.75 266C617.774 266 606.729 262.07 597.845 255.385L440.027 351.663C440.677 354.922 441 358.297 441 361.75C441 391.5 417 415.5 387.25 415.5C357.5 415.5 333.5 391.5 333.5 361.75C333.5 353.86 335.188 346.375 338.264 339.658L270.256 280.348C260.801 288.861 248.266 294 234.5 294C218.91 294 204.83 287.409 195.001 276.814L44.25 364.318L44.25 325.355L180.873 246.367C180.618 244.366 180.5 242.322 180.5 240.25C180.5 210.5 204.75 186.5 234.5 186.5C264.25 186.5 288.25 210.5 288.25 240.25C288.25 244.291 287.807 248.226 286.932 251.995L359.848 315.538C367.839 310.729 377.217 308 387.25 308C401.251 308 413.979 313.316 423.489 322.09L578.275 227.499C576.787 222.593 576 217.387 576 212C576 182.25 600 158.25 629.75 158.25C659.5 158.25 683.5 182.25 683.5 212Z" fill="black" fill-opacity="0.85"/>
  <path d="M0 576C0 590 9.25 599.25 23.25 599.25L668 599.25C680 599.25 690.25 589.75 690.25 577.25C690.25 564.75 680 555.25 668 555.25L52.5 555.25C46.25 555.25 44.25 553.25 44.25 547L44.25 25.25C44.25 13.5 34.75 3 22.25 3C9.75 3 0 13.5 0 25.25Z" fill="black" fill-opacity="0.85"/>
 </g>
</svg>
