<?xml version="1.0" encoding="UTF-8"?>
<!--Generator: Apple Native CoreSVG 326-->
<!DOCTYPE svg
PUBLIC "-//W3C//DTD SVG 1.1//EN"
       "http://www.w3.org/Graphics/SVG/1.1/DTD/svg11.dtd">
<svg version="1.1" xmlns="http://www.w3.org/2000/svg" xmlns:xlink="http://www.w3.org/1999/xlink" viewBox="0 0 536.75 689.25">
 <g>
  <rect height="689.25" opacity="0" width="536.75" x="0" y="0"/>
  <path d="M94.75 689.25L514.75 689.25C527 689.25 536.75 679.5 536.75 667C536.75 657.75 530.25 649.25 521.75 646C479.25 626.5 470 573 510.75 530.75C523.25 518 536.75 501 536.75 469.75L536.75 97.75C536.75 33.25 504.5 0.5 440.5 0.5L96.25 0.5C32.25 0.5 0 33 0 97.75L0 594.75C0 657 32.5 689.25 94.75 689.25ZM44.25 516.25L44.25 98.75C44.25 63.75 62.75 44.75 98.5 44.75L438 44.75C474 44.75 492.5 63.75 492.5 98.75L492.5 464C492.5 487.5 479.5 500.25 455.75 500.25L99 500.25C76 500.25 58.5 505.75 44.25 516.25ZM97 645C63 645 44.25 626.5 44.25 594.25C44.25 563.75 65.5 544.5 99.25 544.5L435 544.5C441.25 544.5 446.5 543.75 451.5 542.5C433.75 578.5 437.5 616.5 459.5 645ZM83 523.75L119.75 523.75L119.75 33L83 33ZM212.5 407.75C221.5 407.75 227.75 403.5 231.5 391.75L254.5 327L359.75 327L382.75 391.75C386.5 403.5 392.75 407.75 402 407.75C412.75 407.75 420.25 400.75 420.25 390.75C420.25 386.75 419.5 383.25 417.5 378L334.5 155.75C329.75 142.75 320.25 136.25 307 136.25C293.75 136.25 284.5 142.75 279.75 155.75L196.75 378C194.75 383.25 194 386.75 194 390.5C194 400.75 201.25 407.75 212.5 407.75ZM264.75 296.5L305.75 180.25L308.5 180.25L349.5 296.5Z" fill="black" fill-opacity="0.85"/>
 </g>
</svg>
