<?xml version="1.0" encoding="UTF-8"?>
<!--Generator: Apple Native CoreSVG 326-->
<!DOCTYPE svg
PUBLIC "-//W3C//DTD SVG 1.1//EN"
       "http://www.w3.org/Graphics/SVG/1.1/DTD/svg11.dtd">
<svg version="1.1" xmlns="http://www.w3.org/2000/svg" xmlns:xlink="http://www.w3.org/1999/xlink" viewBox="0 0 536.75 878.75">
 <g>
  <rect height="878.75" opacity="0" width="536.75" x="0" y="0"/>
  <path d="M536.75 217.5L536.75 712C536.75 776.75 504.5 809.25 440.5 809.25L96.25 809.25C32.25 809.25 0 776.75 0 712L0 217.5C0 152.75 32.25 120 96.25 120L106.858 120C106.615 122.361 106.5 124.782 106.5 127.25L106.5 160.75C106.5 198.25 132.75 224.75 169.5 224.75L367.25 224.75C404 224.75 430.25 198.25 430.25 160.75L430.25 127.25C430.25 124.782 430.135 122.361 429.892 120L440.5 120C504.5 120 536.75 152.75 536.75 217.5Z" fill="black" fill-opacity="0.85"/>
  <path d="M169.5 189.75L367.25 189.75C384.75 189.75 395.5 179 395.5 160.75L395.5 127.25C395.5 109 384.75 98.25 367.25 98.25L335 98.25C333.25 63.25 304 34.75 268.5 34.75C232.75 34.75 203.5 63.25 201.75 98.25L169.5 98.25C152 98.25 141.25 109 141.25 127.25L141.25 160.75C141.25 179 152 189.75 169.5 189.75ZM268.5 128.75C252.5 128.75 239.75 115.5 239.75 100.25C239.75 84.25 252.5 71.5 268.5 71.5C284.25 71.5 297 84.25 297 100.25C297 115.5 284.25 128.75 268.5 128.75Z" fill="black" fill-opacity="0.85"/>
 </g>
</svg>
