<?xml version="1.0" encoding="UTF-8"?>
<!--Generator: Apple Native CoreSVG 326-->
<!DOCTYPE svg
PUBLIC "-//W3C//DTD SVG 1.1//EN"
       "http://www.w3.org/Graphics/SVG/1.1/DTD/svg11.dtd">
<svg version="1.1" xmlns="http://www.w3.org/2000/svg" xmlns:xlink="http://www.w3.org/1999/xlink" viewBox="0 0 870.279 802.25">
 <g>
  <rect height="802.25" opacity="0" width="870.279" x="0" y="0"/>
  <path d="M256.765 801.75L613.015 801.75C669.015 801.75 704.515 764.5 702.015 708.75L695.515 573L695.265 516L677.015 372.5C676.015 365 671.765 361.25 666.265 361.25C660.265 361.25 655.515 366.25 655.765 374.5L663.765 707.5C664.765 737.5 645.515 759.25 613.515 759.25L256.515 759.25C224.515 759.25 205.265 737.5 206.015 707.5L214.265 374.5C214.515 366.25 209.765 361.25 203.515 361.25C198.265 361.25 193.765 365 192.765 372.5L174.515 510.75L174.515 569.5L167.765 708.75C165.265 764.5 201.015 801.75 256.765 801.75ZM125.265 647.75C157.015 657 183.015 651.5 189.765 619.25L199.265 573.5L182.515 469.5L153.265 594.75C150.765 605.5 145.265 608.25 136.515 605.75L57.5147 584C46.2647 580.75 42.2647 573.25 46.2647 559.25L157.015 154.75C162.765 134.25 172.515 121.75 190.015 115.25L287.265 79.25L311.515 29.25L174.265 80C143.015 91.5 127.015 111.5 119.765 137L3.01472 551.75C-6.23528 584.5 5.76472 613 39.5147 622.75ZM743.765 647.75L830.765 622.5C864.515 612.75 876.515 584.5 867.015 551.5L750.265 137C743.015 111.5 727.265 91.5 695.765 80L558.765 29.25L582.515 79.25L680.015 115C697.515 121.5 707.015 134.25 712.765 154.75L824.015 559C828.015 573 824.015 580.5 812.515 583.75L732.515 605.75C723.515 608.25 717.765 605.5 715.515 594.75L687.515 469.5L670.765 573.5L679.265 619.25C684.765 651.75 711.765 657 743.765 647.75ZM492.015 560.75C509.515 560.75 523.515 546.75 523.515 529.25C523.515 511.75 509.765 497.75 492.015 497.75C474.515 497.75 460.765 511.25 460.765 529.25C460.515 546.75 474.265 560.75 492.015 560.75ZM492.015 699.25C509.515 699.25 523.515 685.25 523.515 667.75C523.515 650.25 509.765 636.25 492.015 636.25C474.515 636.25 460.765 650 460.765 667.75C460.515 685.25 474.265 699.25 492.015 699.25ZM380.265 783L422.515 783L422.515 448.5L418.265 469.25L592.265 183.25C611.515 151.25 612.515 135.25 599.765 103.5L574.265 40.25C562.265 10.5 542.015 0 509.515 0L360.765 0C328.265 0 308.015 10.5 296.015 40.25L270.515 103.5C258.765 133 259.265 150.5 278.015 183.25L385.265 374.25L380.265 357.25ZM423.015 395.75L486.765 63C490.515 45 499.515 37.25 513.515 37.25C527.015 37.25 535.015 45.5 541.265 61L559.265 107C568.515 130.25 571.015 144.25 556.765 168.5ZM400.765 329.75L313.265 168.5C299.765 143.75 301.765 130.25 310.765 107L329.015 61C335.265 45.25 343.265 37.25 356.765 37.25C370.515 37.25 380.015 44.75 383.265 63L415.515 238.5Z" fill="black" fill-opacity="0.85"/>
 </g>
</svg>
