<?xml version="1.0" encoding="UTF-8"?>
<!--Generator: Apple Native CoreSVG 326-->
<!DOCTYPE svg
PUBLIC "-//W3C//DTD SVG 1.1//EN"
       "http://www.w3.org/Graphics/SVG/1.1/DTD/svg11.dtd">
<svg version="1.1" xmlns="http://www.w3.org/2000/svg" xmlns:xlink="http://www.w3.org/1999/xlink" viewBox="0 0 823.259 799.75">
 <g>
  <rect height="799.75" opacity="0" width="823.259" x="0" y="0"/>
  <path d="M394.504 794.75L587.754 794.75C643.504 794.75 678.504 757.5 676.754 701.75L669.754 510.75L633.754 518.25L658.004 625.25C664.254 653.75 685.004 658.75 713.004 650.75L789.504 628.5C817.754 620.25 829.254 598 820.254 565.75L698.254 125.25C691.254 100 675.004 83 648.504 73L566.504 41.75L591.004 102.25C600.754 126 598.004 145.5 583.004 169.5L394.254 475.75ZM486.504 577C467.504 577 453.004 562 453.254 543.25C453.254 524.25 467.754 509.25 486.504 509.25C505.504 509.25 520.004 524.5 520.004 543.25C520.004 562 505.254 577 486.504 577ZM486.504 722.5C467.504 722.5 453.004 707.25 453.254 688.25C453.254 669.5 467.754 654.75 486.504 654.75C505.504 654.75 520.004 669.75 520.004 688.25C520.004 707.25 505.254 722.5 486.504 722.5ZM396.254 405.25L545.004 158.5C556.754 139.5 558.004 123.5 549.754 103.25L518.504 25C511.504 7.25 502.004 0 487.754 0C471.504 0 460.504 12.5 457.254 32.75ZM240.254 169.5C225.254 145.75 222.504 126 232.254 102.25L256.754 41.75L174.754 73.25C147.754 83.5 132.004 100 125.004 125.5L3.00432 566C-5.74568 598 4.75432 620.5 33.7543 628.75L111.254 650.75C139.754 658.75 160.004 653.75 166.254 625.25L190.504 518.25L154.754 497.75L147.504 701.75C145.504 757.5 180.754 794.75 236.504 794.75L355.254 794.75L355.254 356ZM374.004 315.5L393.254 175.25L366.004 32.75C362.504 10.75 351.004 0 335.504 0C321.254 0 312.254 6 304.504 25L273.504 103.25C265.254 123.5 266.754 139.75 278.254 158.5Z" fill="black" fill-opacity="0.85"/>
 </g>
</svg>
