<?xml version="1.0" encoding="UTF-8"?>
<!--Generator: Apple Native CoreSVG 326-->
<!DOCTYPE svg
PUBLIC "-//W3C//DTD SVG 1.1//EN"
       "http://www.w3.org/Graphics/SVG/1.1/DTD/svg11.dtd">
<svg version="1.1" xmlns="http://www.w3.org/2000/svg" xmlns:xlink="http://www.w3.org/1999/xlink" viewBox="0 0 634.5 635.25">
 <g>
  <rect height="635.25" opacity="0" width="634.5" x="0" y="0"/>
  <path d="M0 426.5C0 439.5 9 448.5 22.25 448.5L57 448.5L57 555C57 569 66.25 578.25 80.25 578.25L186.5 578.25L186.5 613C186.5 626.25 195.5 635.25 208.5 635.25C221.75 635.25 230.75 626.25 230.75 613L230.75 578.25L295 578.25L295 613C295 626.25 304.25 635.25 317.25 635.25C330.5 635.25 339.5 626.25 339.5 613L339.5 578.25L403.75 578.25L403.75 613C403.75 626.25 412.75 635.25 426 635.25C439 635.25 448 626.25 448 613L448 578.25L554.25 578.25C568.25 578.25 577.5 569 577.5 555L577.5 448.25L612.25 448.25C625.5 448.25 634.5 439.25 634.5 426.25C634.5 413 625.5 404 612.25 404L577.5 404L577.5 339.5L612.25 339.5C625.5 339.5 634.5 330.5 634.5 317.5C634.5 304.25 625.5 295.25 612.25 295.25L577.5 295.25L577.5 230.75L612.25 230.75C625.5 230.75 634.5 221.75 634.5 208.75C634.5 195.5 625.5 186.5 612.25 186.5L577.5 186.5L577.5 81C577.5 67 568.25 57.75 554.25 57.75L448 57.75L448 23C448 9.75 439 0.75 426 0.75C412.75 0.75 403.75 9.75 403.75 23L403.75 57.75L339.5 57.75L339.5 23C339.5 9.75 330.5 0.75 317.25 0.75C304.25 0.75 295 9.75 295 23L295 57.75L230.75 57.75L230.75 23C230.75 9.75 221.75 0.75 208.5 0.75C195.5 0.75 186.5 9.75 186.5 23L186.5 57.75L80.25 57.75C66.25 57.75 57 67 57 81L57 186.75L22.25 186.75C9 186.75 0 195.75 0 209C0 222 9 231 22.25 231L57 231L57 295.5L22.25 295.5C9 295.5 0 304.5 0 317.75C0 330.75 9 339.75 22.25 339.75L57 339.75L57 404.25L22.25 404.25C9 404.25 0 413.25 0 426.5ZM101.25 525.25L101.25 110.75C101.25 104.5 103.75 102 110 102L524.5 102C530.75 102 533.25 104.5 533.25 110.75L533.25 525.25C533.25 531.5 530.75 534 524.5 534L110 534C103.75 534 101.25 531.5 101.25 525.25ZM192.25 465.5L442.75 465.5C457.5 465.5 465 458.25 465 443L465 193C465 177.75 457.5 170.5 442.75 170.5L192.25 170.5C177.25 170.5 170 177.75 170 193L170 443C170 458.25 177.25 465.5 192.25 465.5ZM206.5 421.5L206.5 214.5C206.5 210 209.5 207.25 214 207.25L420.75 207.25C425.25 207.25 428.25 210 428.25 214.5L428.25 421.5C428.25 425.75 425.25 428.75 420.75 428.75L214 428.75C209.5 428.75 206.5 425.75 206.5 421.5Z" fill="black" fill-opacity="0.85"/>
 </g>
</svg>
