<?xml version="1.0" encoding="UTF-8"?>
<!--Generator: Apple Native CoreSVG 326-->
<!DOCTYPE svg
PUBLIC "-//W3C//DTD SVG 1.1//EN"
       "http://www.w3.org/Graphics/SVG/1.1/DTD/svg11.dtd">
<svg version="1.1" xmlns="http://www.w3.org/2000/svg" xmlns:xlink="http://www.w3.org/1999/xlink" viewBox="0 0 651.25 651.75">
 <g>
  <rect height="651.75" opacity="0" width="651.25" x="0" y="0"/>
  <path d="M325.5 651.25C505.25 651.25 651.25 505.5 651.25 325.75C651.25 146 505.25 0 325.5 0C145.75 0 0 146 0 325.75C0 505.5 145.75 651.25 325.5 651.25ZM325.5 604.75C171.25 604.75 46.5 480 46.5 325.75C46.5 171.5 171.25 46.75 325.5 46.75C479.75 46.75 604.5 171.5 604.5 325.75C604.5 480 479.75 604.75 325.5 604.75Z" fill="black" fill-opacity="0.85"/>
  <path d="M189.5 457.75L461 457.75C492.25 457.75 508.25 442 508.25 411L508.25 289.75L142.5 289.75L142.5 411C142.5 442 158.25 457.75 189.5 457.75ZM205.5 410.25C196.5 410.25 190.25 404 190.25 395.25L190.25 366.25C190.25 357.25 196.5 351.25 205.5 351.25L244 351.25C253.25 351.25 259.25 357.25 259.25 366.25L259.25 395.25C259.25 404 253.25 410.25 244 410.25ZM142.5 254.5L508.25 254.5L508.25 240.75C508.25 210 492.25 194 461 194L189.5 194C158.25 194 142.5 209.75 142.5 240.75Z" fill="black" fill-opacity="0.85"/>
 </g>
</svg>
