<?xml version="1.0" encoding="UTF-8"?>
<!--Generator: Apple Native CoreSVG 326-->
<!DOCTYPE svg
PUBLIC "-//W3C//DTD SVG 1.1//EN"
       "http://www.w3.org/Graphics/SVG/1.1/DTD/svg11.dtd">
<svg version="1.1" xmlns="http://www.w3.org/2000/svg" xmlns:xlink="http://www.w3.org/1999/xlink" viewBox="0 0 651.25 651.75">
 <g>
  <rect height="651.75" opacity="0" width="651.25" x="0" y="0"/>
  <path d="M325.5 651.25C505.25 651.25 651.25 505.5 651.25 325.75C651.25 146 505.25 0 325.5 0C145.75 0 0 146 0 325.75C0 505.5 145.75 651.25 325.5 651.25ZM325.5 604.75C171.25 604.75 46.5 480 46.5 325.75C46.5 171.5 171.25 46.75 325.5 46.75C479.75 46.75 604.5 171.5 604.5 325.75C604.5 480 479.75 604.75 325.5 604.75Z" fill="black" fill-opacity="0.85"/>
  <path d="M422.75 185L390.25 217C386.25 221 380.25 221 376.25 217C372 212.75 372.25 206.75 376.25 202.75L404.75 173.75C380.75 161 353.75 153.75 325.25 153.75C231.5 153.75 153 232.25 153 326C153 354.25 160.25 381.25 173.25 405L202.25 376.5C206.25 372.5 212.5 372.5 216.5 376.5C220.5 380.5 220.75 386.75 216.5 390.75L184.25 423.25C187.75 428.75 191.75 433.5 196.25 438.5L438 196.75C433.25 192.5 428 188.5 422.75 185ZM364.25 242.75L340.75 266.25C336.75 270.5 330.75 270.5 326.75 266.25C322.75 262.5 322.75 256.25 326.75 252.25L350 228.75C354.25 224.75 360.5 224.75 364.25 228.75C368.25 232.75 368.25 239 364.25 242.75ZM315.25 292.25L291.5 316C287.75 319.75 281.25 319.75 277.5 316C273.25 311.75 273.25 305.5 277.5 301.5L301 278C304.75 274 311.25 274 315.25 278C319 282 319 288.5 315.25 292.25ZM265.75 341.25L242.5 365C238.75 369 232.25 368.75 228.25 365C224.25 361 224.25 354.75 228.25 350.5L251.75 327.25C255.75 323.25 262 323.25 265.75 327.25C269.75 331.25 269.5 337.25 265.75 341.25ZM477.25 246.75L448.75 274.75C444.75 278.75 438.75 278.75 434.5 274.75C430.5 270.75 430.5 264.25 434.5 260.5L466.5 228.75C462.75 223.5 459 218.25 454.5 213.5L212.75 455C217.5 459.25 222.5 463.25 227.75 467L260.75 434.5C264.75 430.5 270.75 430.5 275 434.5C279 438.5 279 444.5 275 448.75L246 478C269.75 491 297 498.25 325.25 498.25C419.25 498.25 497.5 419.75 497.5 326C497.5 297.75 490.25 270.5 477.25 246.75ZM422.75 301L399.25 324.25C395 328.25 389.25 328.25 385 324.25C381 320.25 381.25 314.25 385 310.25L408.75 286.5C412.25 282.25 418.75 282.5 422.75 286.5C426.75 290.5 426.75 296.75 422.75 301ZM373.5 350L349.75 373.5C346 377.75 339.5 377.75 335.5 373.5C331.75 369.75 331.75 363.25 335.5 359.5L359.25 335.75C363 332 369.5 332 373.5 335.75C377.5 339.75 377.5 346.25 373.5 350ZM324.25 399.25L300.75 422.75C296.75 426.75 290.5 426.75 286.75 422.75C282.75 418.75 282.75 412.5 286.75 408.5L310.25 385.25C314.25 381 320.25 381 324.25 385.25C328.25 388.75 328.25 395.25 324.25 399.25Z" fill="black" fill-opacity="0.85"/>
 </g>
</svg>
