<?xml version="1.0" encoding="UTF-8"?>
<!--Generator: Apple Native CoreSVG 326-->
<!DOCTYPE svg
PUBLIC "-//W3C//DTD SVG 1.1//EN"
       "http://www.w3.org/Graphics/SVG/1.1/DTD/svg11.dtd">
<svg version="1.1" xmlns="http://www.w3.org/2000/svg" xmlns:xlink="http://www.w3.org/1999/xlink" viewBox="0 0 697.5 715.25">
 <g>
  <rect height="715.25" opacity="0" width="697.5" x="0" y="0"/>
  <path d="M697.5 537.25C697.5 524.25 688.75 516.5 675.5 516.5L210 516.5C204 516.5 201.5 514 201.5 507.75L201.5 43.25C201.5 29.75 192.75 20.25 179.5 20.25C166.25 20.25 157 29.75 157 43.25L157 535C157 549 166.25 558.25 180.5 558.25L675.5 558.25C688.75 558.25 697.5 550.25 697.5 537.25ZM0 198.25C0 211.25 8.75 219 22 219L487.25 219C493.5 219 496 221.5 496 227.75L496 692.25C496 705.75 504.75 715.25 518 715.25C531.25 715.25 540.25 705.75 540.25 692.25L540.25 200.5C540.25 186.5 531.25 177.25 517 177.25L22 177.25C8.75 177.25 0 185.5 0 198.25Z" fill="black" fill-opacity="0.85"/>
 </g>
</svg>
