<?xml version="1.0" encoding="UTF-8"?>
<!--Generator: Apple Native CoreSVG 326-->
<!DOCTYPE svg
PUBLIC "-//W3C//DTD SVG 1.1//EN"
       "http://www.w3.org/Graphics/SVG/1.1/DTD/svg11.dtd">
<svg version="1.1" xmlns="http://www.w3.org/2000/svg" xmlns:xlink="http://www.w3.org/1999/xlink" viewBox="0 0 706 679.75">
 <g>
  <rect height="679.75" opacity="0" width="706" x="0" y="0"/>
  <path d="M39.25 610.25L666.75 610.25L666.75 591C666.75 580.25 660.25 573.75 649.25 573.75L628.75 573.75L628.75 213.5L657.75 213.5C673 213.5 681.5 202.75 681.5 191.5C681.5 183.25 677 176 667 170.25L390.75 10.75C378.5 3.75 365.5 0 353 0C340.5 0 327.25 3.75 315.25 10.75L39 170.25C28.75 176 24.5 183.25 24.5 191.5C24.5 202.75 33 213.5 48.25 213.5L77.5 213.5L77.5 573.75L57 573.75C45.75 573.75 39.25 580.25 39.25 591ZM119.25 573.75L119.25 175.5L338.5 52C342.75 49.5 348 48 353 48C357.75 48 362.75 49.5 367.5 52L587 175.5L587 573.75ZM22.25 679.25L683.75 679.25C696 679.25 706 669.25 706 657.25C706 645 696 635 683.75 635L22.25 635C10 635 0 645 0 657.25C0 669.25 10 679.25 22.25 679.25Z" fill="black" fill-opacity="0.85"/>
  <path d="M355.5 481C404.5 481 448.25 456.5 461.75 414C463.5 409.75 464 405.5 464 401.5C464 392.25 458 386.75 448.75 386.75C440 386.75 435 391.75 432.5 400C422.5 434.25 390.75 452 355.75 452C294.75 452 266.75 398.5 266.75 338.5C266.75 278.25 295.5 226.25 355.75 226.25C391.25 226.25 421.5 247.25 430.75 278.75C433.75 287.25 437.75 292 446.25 292C455.25 292 462 286 462 277.25C462 274 461.25 269 459.5 264.75C445.5 223 403.5 196.75 355.5 196.75C276.75 196.75 231.75 256.75 231.75 338.5C231.75 417.25 273.5 481 355.5 481ZM339 465.75L359.25 465.75L359.25 403C359.25 371.5 380.25 349.25 411.5 349.25C417.75 349.25 422.5 351 425.25 351C431.25 351 435.25 348 435.25 341.25C435.25 337.25 433.25 334 429.5 331.75C425.25 328.75 417 327.5 411.25 327.5C385.25 327.5 365.75 344.5 359.5 364.5L358.75 364.5L358.75 338.5C358.75 332.25 354.75 328 349 328C343 328 339 332.25 339 338.5Z" fill="black" fill-opacity="0.85"/>
 </g>
</svg>
