<?xml version="1.0" encoding="UTF-8"?>
<!--Generator: Apple Native CoreSVG 326-->
<!DOCTYPE svg
PUBLIC "-//W3C//DTD SVG 1.1//EN"
       "http://www.w3.org/Graphics/SVG/1.1/DTD/svg11.dtd">
<svg version="1.1" xmlns="http://www.w3.org/2000/svg" xmlns:xlink="http://www.w3.org/1999/xlink" viewBox="0 0 681.25 691.726">
 <g>
  <rect height="691.726" opacity="0" width="681.25" x="0" y="0"/>
  <path d="M575.75 332.488L575.75 333.998C641.118 336.561 681.25 373.987 681.25 432.988C681.25 494.488 638.25 532.488 568.25 532.488L547.25 532.488C505.017 622.336 417.565 678.488 301.25 678.488L274.25 678.488C107.5 678.488 0 562.988 0 397.988L4.74016e-07 332.488C0 275.775 65.0124 232.009 169.114 213.477C161.505 226.539 155 240.996 155 258.488C155 259.312 155.009 260.129 155.09 260.899C86.9227 275.627 44.25 301.877 44.25 332.488C44.25 379.738 147 416.738 287.75 416.738C428.75 416.738 531.5 379.738 531.5 332.488C531.5 296.617 472.903 266.734 383.439 254.28C384.318 240.005 393.597 227.094 402.726 212.827C509.157 230.953 575.75 275.09 575.75 332.488ZM287.75 460.988C179.87 460.988 93.4449 439.932 44.5352 405.283C47.3319 542.314 133.769 634.238 274.25 634.238L301.25 634.238C441.235 634.238 528.385 541.838 531.212 405.276C482.283 439.929 395.796 460.988 287.75 460.988ZM575.75 397.988C575.75 430.128 571.659 460.402 563.712 488.238L568.25 488.238C611 488.238 637 466.988 637 432.988C637 401.027 614.025 380.553 575.75 378.222ZM253.998 248.809C229.929 249.775 207.354 251.941 186.625 255.117C187.278 238.889 198.88 224.471 209.064 207.933C229.127 205.612 250.517 204.28 273.069 204.024C264.847 217.207 256.342 231.477 253.998 248.809ZM368.774 208.163C361.082 220.715 353.731 234.401 351.923 250.802C331.774 248.93 310.249 247.988 287.75 247.988C287.2 247.988 286.651 247.989 286.129 248.015C289.461 233.392 300.643 219.826 309.8 204.166C330.521 204.604 350.227 205.957 368.774 208.163Z" fill="black" fill-opacity="0.85"/>
  <path d="M224.5 161.988C224.5 120.988 186.5 96.988 186.5 66.488C186.5 50.238 191 40.988 202 25.988C215.5 7.73801 190.25-10.512 176.5 7.23801C161.25 26.238 155 43.488 155 64.738C155 107.488 192.5 130.988 192.5 161.988C192.5 191.988 155 216.488 155 258.488C155 280.238 161.25 297.488 176.25 315.988C189.75 333.238 215 315.238 201.5 296.988C191 282.738 186.5 273.488 186.5 256.738C186.5 226.738 224.5 203.238 224.5 161.988ZM323 161.988C323 120.988 285 96.988 285 66.488C285 50.238 289.25 40.988 300.25 25.988C314 7.73801 288.75-10.512 274.75 7.23801C259.75 26.238 253.25 43.488 253.25 64.738C253.25 107.488 290.75 130.988 290.75 161.988C290.75 191.988 253.25 216.488 253.25 258.488C253.25 280.238 259.75 297.488 274.5 315.988C288 333.238 313.5 315.238 300 296.988C289.25 282.738 285 273.488 285 256.738C285 226.738 323 203.238 323 161.988ZM421.25 161.988C421.25 120.988 383.25 96.988 383.25 66.488C383.25 50.238 387.75 40.988 398.75 25.988C412.25 7.73801 387-10.512 373.25 7.23801C358 26.238 351.5 43.488 351.5 64.738C351.5 107.488 389 130.988 389 161.988C389 191.988 351.5 216.488 351.5 258.488C351.5 280.238 358 297.488 372.75 315.988C386.5 333.238 411.75 315.238 398.25 296.988C387.75 282.738 383.25 273.488 383.25 256.738C383.25 226.738 421.25 203.238 421.25 161.988Z" fill="black" fill-opacity="0.85"/>
 </g>
</svg>
