<?xml version="1.0" encoding="UTF-8"?>
<!--Generator: Apple Native CoreSVG 326-->
<!DOCTYPE svg
PUBLIC "-//W3C//DTD SVG 1.1//EN"
       "http://www.w3.org/Graphics/SVG/1.1/DTD/svg11.dtd">
<svg version="1.1" xmlns="http://www.w3.org/2000/svg" xmlns:xlink="http://www.w3.org/1999/xlink" viewBox="0 0 820.75 612.75">
 <g>
  <rect height="612.75" opacity="0" width="820.75" x="0" y="0"/>
  <path d="M398.5 464.25L424.75 464.25C587.5 464.25 692.25 356 692.25 190.75L692.25 126.5C692.25 52.75 578.25 1.25 411.5 1.25C244.75 1.25 130.75 52.75 130.75 126.5L130.75 190.75C130.75 351.5 235.5 464.25 398.5 464.25ZM411.5 209C274 209 173.75 173 173.75 126.5C173.75 80.25 274 44.25 411.5 44.25C549.25 44.25 649.5 80.25 649.5 126.5C649.5 173 549.25 209 411.5 209ZM659.25 321.5L685 321.5C753.25 321.5 795.25 284.5 795.25 224.75C795.25 165 753 128.25 685 128.25L668.25 128.25L668.25 170.75L685 170.75C727 170.75 752.5 191.25 752.5 224.75C752.5 258 727 278.75 685 278.75L659.25 278.75ZM410.25 612.75C649.75 612.75 820.75 545 820.75 447C820.75 408 792.25 373 742 345.75C725.25 352.25 707.5 355.75 687 356.25C637 446.5 543.75 499.25 424.75 499.25L398.5 499.25C267.5 499.25 166.75 432 121.5 325.25C44.25 354.75 0 397.25 0 447C0 545 171.25 612.75 410.25 612.75Z" fill="black" fill-opacity="0.85"/>
 </g>
</svg>
