<?xml version="1.0" encoding="UTF-8"?>
<!--Generator: Apple Native CoreSVG 326-->
<!DOCTYPE svg
PUBLIC "-//W3C//DTD SVG 1.1//EN"
       "http://www.w3.org/Graphics/SVG/1.1/DTD/svg11.dtd">
<svg version="1.1" xmlns="http://www.w3.org/2000/svg" xmlns:xlink="http://www.w3.org/1999/xlink" viewBox="0 0 820.75 611.75">
 <g>
  <rect height="611.75" opacity="0" width="820.75" x="0" y="0"/>
  <path d="M626.25 347.5C720.5 370.25 778 407 778 446C778 511 617.75 568.75 410.25 568.75C203 568.75 42.75 511 42.75 446C42.75 407.25 98.75 371 192.25 347.75L171 308.5C63.75 337.25 0 386.5 0 446C0 544 171.25 611.75 410.25 611.75C649.75 611.75 820.75 544 820.75 446C820.75 385.25 754 335 643.75 306.5ZM653.75 129L653.75 194.75C653.75 335.25 566.25 431 423.75 431L396.75 431C253.75 431 166.75 335.5 166.75 194.75L166.75 129L122.5 129L122.5 194.75C122.5 359.5 229.75 475.25 396.75 475.25L423.75 475.25C590.5 475.25 698.25 359.25 698.25 194.75L698.25 129ZM410.25 257.5C581.25 257.5 698.25 204.75 698.25 129C698.25 53.25 581.5 0.5 410.25 0.5C239.25 0.5 122.5 53.25 122.5 129C122.5 204.75 239.5 257.5 410.25 257.5ZM410.25 213.25C269.5 213.25 166.75 176.5 166.75 129C166.75 81.5 269.5 44.75 410.25 44.75C551 44.75 653.75 81.5 653.75 129C653.75 176.5 551 213.25 410.25 213.25ZM664 329L690.5 329C760.75 329 803.5 291.25 803.5 229.5C803.5 168.25 760.5 130.5 690.5 130.5L673 130.5L673 174.5L690.5 174.5C733.25 174.5 759.5 195.5 759.5 229.5C759.5 263.5 733.25 285 690.5 285L664 285Z" fill="black" fill-opacity="0.85"/>
 </g>
</svg>
