<?xml version="1.0" encoding="UTF-8"?>
<!--Generator: Apple Native CoreSVG 326-->
<!DOCTYPE svg
PUBLIC "-//W3C//DTD SVG 1.1//EN"
       "http://www.w3.org/Graphics/SVG/1.1/DTD/svg11.dtd">
<svg version="1.1" xmlns="http://www.w3.org/2000/svg" xmlns:xlink="http://www.w3.org/1999/xlink" viewBox="0 0 675 663.25">
 <g>
  <rect height="663.25" opacity="0" width="675" x="0" y="0"/>
  <path d="M518.75 97L518.75 144.5L474.25 144.5L474.25 99.5C474.25 63.5 454.75 45 420.5 45L98.25 45C63.25 45 44.25 63.5 44.25 99.5L44.25 420.75C44.25 456.75 63.25 475.25 98.25 475.25L156.5 475.25L156.5 519.5L97.25 519.5C32.5 519.5 0 487 0 423L0 97C0 33.25 32.5 0.75 97.25 0.75L421.25 0.75C485.75 0.75 518.75 33.5 518.75 97Z" fill="black" fill-opacity="0.85"/>
  <path d="M253.75 663.25L577.75 663.25C642.25 663.25 675 630.5 675 566.75L675 241C675 177.25 642.25 144.5 577.75 144.5L253.75 144.5C189 144.5 156.5 177 156.5 241L156.5 566.75C156.5 630.75 189 663.25 253.75 663.25ZM254.75 619C219.75 619 200.75 600.5 200.75 564.5L200.75 243.25C200.75 207.25 219.75 188.75 254.75 188.75L577 188.75C611.25 188.75 630.75 207.25 630.75 243.25L630.75 564.5C630.75 600.5 611.25 619 577 619Z" fill="black" fill-opacity="0.85"/>
  <path d="M287.25 320.25C311.75 320.5 332 300.25 332 275C332 250.5 311.75 230.5 287.25 230.5C262.5 230.5 242.25 250.5 242.25 275C242.25 300.25 262.5 319.75 287.25 320.25ZM544.5 320.25C569 320.5 589.25 300.25 589.25 275C589.25 250.5 569 230.5 544.5 230.5C519.75 230.5 499.5 250.5 499.5 275C499.5 300.25 519.75 319.75 544.5 320.25ZM415.75 449.25C440.25 449.25 460.5 429 460.5 404C460.5 379.5 440.25 359.5 415.75 359.5C391 359.5 371.25 379.5 371.25 404C371.25 429 391 449.25 415.75 449.25ZM287.25 578C311.75 578 331.75 557.75 331.75 533C331.75 508.25 311.75 488.25 287.25 488.25C262.5 488.25 242.5 508.25 242.5 533C242.5 557.75 262.5 578 287.25 578ZM544.5 578C569 578 589.25 557.75 589.25 533C589.25 508.25 569 488.25 544.5 488.25C519.75 488.25 500 508.25 500 533C500 557.75 519.75 578 544.5 578Z" fill="black" fill-opacity="0.85"/>
 </g>
</svg>
