<?xml version="1.0" encoding="UTF-8"?>
<!--Generator: Apple Native CoreSVG 326-->
<!DOCTYPE svg
PUBLIC "-//W3C//DTD SVG 1.1//EN"
       "http://www.w3.org/Graphics/SVG/1.1/DTD/svg11.dtd">
<svg version="1.1" xmlns="http://www.w3.org/2000/svg" xmlns:xlink="http://www.w3.org/1999/xlink" viewBox="0 0 587.75 587.75">
 <g>
  <rect height="587.75" opacity="0" width="587.75" x="0" y="0"/>
  <path d="M587.75 96.5L587.75 491.5C587.75 555 555 587.75 490.25 587.75L97.25 587.75C32.75 587.75 0 555.5 0 491.5L0 96.5C0 32.5 32.75 0 97.25 0L490.25 0C555 0 587.75 32.75 587.75 96.5ZM90.25 445.5C90.25 474.5 113.75 498.25 142.75 498.25C171.5 498.25 195.25 474.5 195.25 445.5C195.25 416.25 171.5 393 142.75 393C113.75 393 90.25 416.25 90.25 445.5ZM392.75 445.5C392.75 474.5 416.25 498.25 445.25 498.25C474 498.25 497.75 474.5 497.75 445.5C497.75 416.25 474 393 445.25 393C416.25 393 392.75 416.25 392.75 445.5ZM241.25 293.75C241.25 323.25 264.75 347 294 347C322.75 347 346.5 323.25 346.5 293.75C346.5 265 322.75 241.5 294 241.5C264.75 241.5 241.25 265 241.25 293.75ZM90 142.25C90 171.75 113.75 194.75 142.75 195.25C171.5 195.75 195.5 171.75 195.5 142.25C195.5 113 171.5 89.75 142.75 89.75C113.75 89.75 90 113 90 142.25ZM392.25 142.25C392.25 171.75 416.25 194.75 445.25 195.25C474 195.75 497.75 171.75 497.75 142.25C497.75 113 474 89.75 445.25 89.75C416.25 89.75 392.25 113 392.25 142.25Z" fill="black" fill-opacity="0.85"/>
 </g>
</svg>
