<?xml version="1.0" encoding="UTF-8"?>
<!--Generator: Apple Native CoreSVG 326-->
<!DOCTYPE svg
PUBLIC "-//W3C//DTD SVG 1.1//EN"
       "http://www.w3.org/Graphics/SVG/1.1/DTD/svg11.dtd">
<svg version="1.1" xmlns="http://www.w3.org/2000/svg" xmlns:xlink="http://www.w3.org/1999/xlink" viewBox="0 0 720.5 777.75">
 <g>
  <rect height="777.75" opacity="0" width="720.5" x="0" y="0"/>
  <path d="M329.673 715.75L156.75 715.75C114.75 715.75 86.25 686.25 86.25 642L86.25 637.5L287.737 637.5C295.164 667.228 309.765 693.938 329.673 715.75ZM634.25 431.733C605.089 412.847 570.235 402 532.75 402C521.869 402 511.218 402.905 500.938 404.847C490.689 402.905 480.079 402 469.25 402C364.75 402 281.5 485.5 281.5 589.75C281.5 592.368 281.552 594.973 281.885 597.5L86.25 597.5L86.25 250.25L634.25 250.25ZM283.5 297.75C274.75 297.75 268.75 304 268.75 312.75C268.75 321.75 274.75 328 283.5 328L437 328C446 328 452 321.75 452 312.75C452 304 446 297.75 437 297.75ZM634.25 125.5L634.25 210.5L86.25 210.5L86.25 125.5C86.25 81.25 114.75 52 156.75 52L563.75 52C605.75 52 634.25 81.25 634.25 125.5ZM170 145.75C170 161.5 183 174.75 199.25 174.75C215 174.75 228 161.5 228 145.75C228 129.5 215 116.5 199.25 116.5C183 116.5 170 129.5 170 145.75ZM254.5 145.75C254.5 161.5 267.25 174.75 283.5 174.75C299.25 174.75 312.25 161.5 312.25 145.75C312.25 129.5 299.25 116.5 283.5 116.5C267.25 116.5 254.5 129.5 254.5 145.75Z" fill="black" fill-opacity="0.85"/>
  <path d="M685.5 589.75C685.5 675 617.75 742.75 532.75 742.75C521.825 742.75 511.188 741.637 500.958 739.484C524.612 734.615 546.168 724.325 564.251 709.866C618.554 696.727 656.5 649.474 656.5 589.75C656.5 530.308 618.644 483.128 564.444 469.93C546.317 455.435 524.694 445.124 500.958 440.255C511.188 438.108 521.825 437 532.75 437C617.75 437 685.5 504.5 685.5 589.75Z" fill="black" fill-opacity="0.85"/>
  <path d="M469.25 742.75C554.25 742.75 622 675 622 589.75C622 504.5 554.25 437 469.25 437C384 437 316.25 504.5 316.25 589.75C316.25 675 384 742.75 469.25 742.75ZM469.25 713.75C398.25 713.75 345.5 660.5 345.5 589.75C345.5 519.25 398.25 466 469.25 466C539.75 466 593 519.25 593 589.75C593 660.5 539.75 713.75 469.25 713.75ZM469.25 685.75C522.25 685.75 565 643 565 589.75C565 536.75 522.25 494 469.25 494C416 494 373 536.75 373 589.75C373 643 416 685.75 469.25 685.75ZM469.25 659.25C428.5 659.25 399.75 630.5 399.75 589.75C399.75 549.25 428.5 520.5 469.25 520.5C510 520.5 538.5 549 538.5 589.75C538.5 630.5 509.75 659.25 469.25 659.25Z" fill="black" fill-opacity="0.85"/>
 </g>
</svg>
