<?xml version="1.0" encoding="UTF-8"?>
<!--Generator: Apple Native CoreSVG 326-->
<!DOCTYPE svg
PUBLIC "-//W3C//DTD SVG 1.1//EN"
       "http://www.w3.org/Graphics/SVG/1.1/DTD/svg11.dtd">
<svg version="1.1" xmlns="http://www.w3.org/2000/svg" xmlns:xlink="http://www.w3.org/1999/xlink" viewBox="0 0 651.25 651.75">
 <g>
  <rect height="651.75" opacity="0" width="651.25" x="0" y="0"/>
  <path d="M325.5 651.25C505.25 651.25 651.25 505.5 651.25 325.75C651.25 146 505.25 0 325.5 0C145.75 0 0 146 0 325.75C0 505.5 145.75 651.25 325.5 651.25ZM325.5 604.75C171.25 604.75 46.5 480 46.5 325.75C46.5 171.5 171.25 46.75 325.5 46.75C479.75 46.75 604.5 171.5 604.5 325.75C604.5 480 479.75 604.75 325.5 604.75Z" fill="black" fill-opacity="0.85"/>
  <path d="M433.5 147.5L215.5 147.5C193 147.5 178 163.25 178 186.75L178 234L471 234L471 186.75C471 163.25 456 147.5 433.5 147.5ZM229 204.25C225.5 199 226.5 192 231.5 188.25C236.75 184.75 243.75 186 247.25 191.25C250.75 196 249.75 203.25 244.5 206.75C239.5 210.5 232.75 209 229 204.25ZM283.5 213.25C274.75 213.25 268 206.25 268 197.75C268 189 274.75 181.75 283.5 181.75C292 181.75 298.75 189 298.75 197.75C298.75 206.25 292 213.25 283.5 213.25ZM178 438.5L471 438.5L471 255.5L178 255.5ZM284 303.75C278.75 303.75 275 299.75 275 294.5C275 289.25 278.75 285.5 284 285.5L366 285.5C371.5 285.5 375 289.25 375 294.5C375 299.75 371.5 303.75 366 303.75ZM471 460L178 460L178 463.5C178 487 193 502.75 215.5 502.75L433.5 502.75C456 502.75 471 487 471 463.5Z" fill="black" fill-opacity="0.85"/>
 </g>
</svg>
