<?xml version="1.0" encoding="UTF-8"?>
<!--Generator: Apple Native CoreSVG 326-->
<!DOCTYPE svg
PUBLIC "-//W3C//DTD SVG 1.1//EN"
       "http://www.w3.org/Graphics/SVG/1.1/DTD/svg11.dtd">
<svg version="1.1" xmlns="http://www.w3.org/2000/svg" xmlns:xlink="http://www.w3.org/1999/xlink" viewBox="0 0 536.75 689.25">
 <g>
  <rect height="689.25" opacity="0" width="536.75" x="0" y="0"/>
  <path d="M96.25 689.25L440.5 689.25C504.5 689.25 536.75 656.25 536.75 592L536.75 292L305 292C266 292 247.5 273.25 247.5 234.25L247.5 0.25L96.25 0.25C32.75 0.25 0 33 0 97.5L0 592C0 656.5 32.25 689.25 96.25 689.25ZM306.5 252L532.75 252C530.75 240.25 522.25 229 509 215.75L323.75 28C311 14.75 299 6 287.5 4L287.5 233C287.5 245.75 293.75 252 306.5 252Z" fill="black" fill-opacity="0.85"/>
 </g>
</svg>
