<?xml version="1.0" encoding="UTF-8"?>
<!--Generator: Apple Native CoreSVG 326-->
<!DOCTYPE svg
PUBLIC "-//W3C//DTD SVG 1.1//EN"
       "http://www.w3.org/Graphics/SVG/1.1/DTD/svg11.dtd">
<svg version="1.1" xmlns="http://www.w3.org/2000/svg" xmlns:xlink="http://www.w3.org/1999/xlink" viewBox="0 0 734.75 884.75">
 <g>
  <rect height="884.75" opacity="0" width="734.75" x="0" y="0"/>
  <path d="M461 230.5C461 262.75 479.75 281.5 512.25 281.5L695 281.5L695 589.5C695 654 662.75 686.75 598.75 686.75L578.5 686.75L578.5 485.75C578.75 444.75 566 411.75 538.5 383.75L360 202.75C329.5 171.5 297.25 157.25 249.75 157.25L196.25 157.25L196.25 134.25C196.25 72.75 229 39 292.75 39L461 39ZM525.25 68.25L672 217.5C682 227.5 688.5 235.5 690 244.5L517.5 244.5C503.75 244.5 498.5 238.75 498.5 225.25L498 50.25C507 51.75 515.5 58.25 525.25 68.25Z" fill="black" fill-opacity="0.85"/>
  <path d="M315.75 445.75L532.5 445.75C529.5 434.75 522.5 424.25 510 411.5L331.75 230.75C319.25 218 308.5 209.25 297.5 206.25L297.5 427.5C297.5 439.75 303.5 445.75 315.75 445.75ZM136.25 844.75L442.25 844.75C506.25 844.75 538.5 812 538.5 747.5L538.5 485.75L315.25 485.75C276.25 485.75 257.5 467 257.5 428L257.5 197L136.25 197C72.5 197 39.75 230 39.75 294.25L39.75 747.5C39.75 812.25 72.25 844.75 136.25 844.75Z" fill="black" fill-opacity="0.85"/>
 </g>
</svg>
