<?xml version="1.0" encoding="UTF-8"?>
<!--Generator: Apple Native CoreSVG 326-->
<!DOCTYPE svg
PUBLIC "-//W3C//DTD SVG 1.1//EN"
       "http://www.w3.org/Graphics/SVG/1.1/DTD/svg11.dtd">
<svg version="1.1" xmlns="http://www.w3.org/2000/svg" xmlns:xlink="http://www.w3.org/1999/xlink" viewBox="0 0 772 677.25">
 <g>
  <rect height="677.25" opacity="0" width="772" x="0" y="0"/>
  <path d="M22.25 676.75C34.5 676.75 44.5 666.75 44.5 654.5L44.5 61.5C44.5 51.25 51 44.5 60.75 44.5L711.25 44.5C720.75 44.5 727.5 51.25 727.5 61.5L727.5 654.5C727.5 666.75 737.25 676.75 749.75 676.75C762 676.75 772 666.75 772 654.5L772 58.5C772 23.5 748 0 712 0L60 0C24 0 0 23.5 0 58.5L0 654.5C0 666.75 9.75 676.75 22.25 676.75Z" fill="black" fill-opacity="0.85"/>
  <path d="M88.75 214.25L683.25 214.25C688.5 214.25 692.5 210 692.5 204.75L692.5 88.75C692.5 83.5 688.5 79.25 683.25 79.25L88.75 79.25C83.5 79.25 79.25 83.5 79.25 88.75L79.25 204.75C79.25 210 83.5 214.25 88.75 214.25ZM321.5 161.5C312.75 161.5 306.75 155.5 306.75 146.75C306.75 138 312.75 131.75 321.5 131.75L450.25 131.75C459 131.75 465.25 138 465.25 146.75C465.25 155.5 459 161.5 450.25 161.5Z" fill="black" fill-opacity="0.85"/>
 </g>
</svg>
