<?xml version="1.0" encoding="UTF-8"?>
<!--Generator: Apple Native CoreSVG 326-->
<!DOCTYPE svg
PUBLIC "-//W3C//DTD SVG 1.1//EN"
       "http://www.w3.org/Graphics/SVG/1.1/DTD/svg11.dtd">
<svg version="1.1" xmlns="http://www.w3.org/2000/svg" xmlns:xlink="http://www.w3.org/1999/xlink" viewBox="0 0 772 677.25">
 <g>
  <rect height="677.25" opacity="0" width="772" x="0" y="0"/>
  <path d="M22.25 676.75C34.5 676.75 44.5 666.75 44.5 654.5L44.5 61.5C44.5 51.25 51 44.5 60.75 44.5L711.25 44.5C720.75 44.5 727.5 51.25 727.5 61.5L727.5 654.5C727.5 666.75 737.25 676.75 749.75 676.75C762 676.75 772 666.75 772 654.5L772 58.5C772 23.5 748 0 712 0L60 0C24 0 0 23.5 0 58.5L0 654.5C0 666.75 9.75 676.75 22.25 676.75Z" fill="black" fill-opacity="0.85"/>
  <path d="M88.75 666L683.25 666C688.5 666 692.5 661.75 692.5 656.5L692.5 88.75C692.5 83.5 688.5 79.25 683.25 79.25L88.75 79.25C83.5 79.25 79.25 83.5 79.25 88.75L79.25 656.5C79.25 661.75 83.5 666 88.75 666ZM321.5 610.75C312.75 610.75 306.75 604.75 306.75 596C306.75 587.25 312.75 581 321.5 581L450.25 581C459 581 465.25 587.25 465.25 596C465.25 604.75 459 610.75 450.25 610.75ZM132.5 256.5C126.5 256.5 122 252 122 246.25L122 129.75C122 124 126.5 119.5 132.5 119.5L262.25 119.5C268 119.5 272.5 124 272.5 129.75L272.5 246.25C272.5 252 268 256.5 262.25 256.5ZM321.5 256.5C315.75 256.5 311.25 252 311.25 246.25L311.25 129.75C311.25 124 315.75 119.5 321.5 119.5L451.25 119.5C457 119.5 461.5 124 461.5 129.75L461.5 246.25C461.5 252 457 256.5 451.25 256.5ZM510.5 256.5C504.75 256.5 500.25 252 500.25 246.25L500.25 129.75C500.25 124 504.75 119.5 510.5 119.5L639.75 119.5C645.5 119.5 650 124 650 129.75L650 246.25C650 252 645.5 256.5 641.75 256.5Z" fill="black" fill-opacity="0.85"/>
 </g>
</svg>
