<?xml version="1.0" encoding="UTF-8"?>
<!--Generator: Apple Native CoreSVG 326-->
<!DOCTYPE svg
PUBLIC "-//W3C//DTD SVG 1.1//EN"
       "http://www.w3.org/Graphics/SVG/1.1/DTD/svg11.dtd">
<svg version="1.1" xmlns="http://www.w3.org/2000/svg" xmlns:xlink="http://www.w3.org/1999/xlink" viewBox="0 0 927.75 677.25">
 <g>
  <rect height="677.25" opacity="0" width="927.75" x="0" y="0"/>
  <path d="M22.25 676.75C34.5 676.75 44.5 666.75 44.5 654.5L44.5 61.5C44.5 51.25 51 44.5 60.75 44.5L867 44.5C876.75 44.5 883.25 51.25 883.25 61.5L883.25 654.5C883.25 666.75 893 676.75 905.5 676.75C917.75 676.75 927.75 666.75 927.75 654.5L927.75 58.5C927.75 23.5 903.75 0 867.75 0L60 0C24 0 0 23.5 0 58.5L0 654.5C0 666.75 9.75 676.75 22.25 676.75Z" fill="black" fill-opacity="0.85"/>
  <path d="M88.75 666L839 666C844.25 666 848.5 661.75 848.5 656.5L848.5 88.75C848.5 83.5 844.25 79.25 839 79.25L88.75 79.25C83.5 79.25 79.25 83.5 79.25 88.75L79.25 656.5C79.25 661.75 83.5 666 88.75 666ZM132.5 256.5C126.5 256.5 122 252 122 246.25L122 129.75C122 124 126.5 119.5 132.5 119.5L254 119.5C259.75 119.5 264.25 124 264.25 129.75L264.25 246.25C264.25 252 259.75 256.5 254 256.5ZM313.5 256.5C307.75 256.5 303.25 252 303.25 246.25L303.25 129.75C303.25 124 307.75 119.5 313.5 119.5L435 119.5C440.75 119.5 445.25 124 445.25 129.75L445.25 246.25C445.25 252 440.75 256.5 435 256.5ZM494.25 256.5C488.25 256.5 483.75 252 483.75 246.25L483.75 129.75C483.75 124 488.25 119.5 494.25 119.5L615 119.5C621 119.5 625.5 124 625.5 129.75L625.5 246.25C625.5 252 621 256.5 617 256.5ZM674.5 256.5C668.5 256.5 664 252 664 246.25L664 129.75C664 124 668.5 119.5 674.5 119.5L795.25 119.5C801.25 119.5 805.75 124 805.75 129.75L805.75 246.25C805.75 252 801.25 256.5 797.25 256.5ZM394.5 610.75C385.75 610.75 379.5 604.75 379.5 596C379.5 587.25 385.75 581 394.5 581L533.25 581C542.25 581 548.25 587.25 548.25 596C548.25 604.75 542.25 610.75 533.25 610.75Z" fill="black" fill-opacity="0.85"/>
 </g>
</svg>
