<?xml version="1.0" encoding="UTF-8"?>
<!--Generator: Apple Native CoreSVG 326-->
<!DOCTYPE svg
PUBLIC "-//W3C//DTD SVG 1.1//EN"
       "http://www.w3.org/Graphics/SVG/1.1/DTD/svg11.dtd">
<svg version="1.1" xmlns="http://www.w3.org/2000/svg" xmlns:xlink="http://www.w3.org/1999/xlink" viewBox="0 0 995 727.25">
 <g>
  <rect height="727.25" opacity="0" width="995" x="0" y="0"/>
  <path d="M325.25 415.25L669.5 415.25C695.25 415.25 703.5 395.25 690 371.25L588.25 192.75C576.75 172.5 559.75 163.25 540.75 163.25L458.5 163.25C433.5 163.25 418 172.5 406.5 192.75L304.75 371.25C291.25 395.25 299.5 415.25 325.25 415.25ZM195.25 662.5L385.5 580.5L348 502.25L180.75 574.5C172.25 578.25 168.75 574 168.75 567L168.75 513.5C168.75 496.5 159 486.75 142 486.75L106.75 486.75C90.5 486.75 80.75 496.5 80.75 513.5L80.75 597.25C80.75 661.25 122.25 694.25 195.25 662.5ZM99.25 496.5L149.25 496.5L149.25 409.75C149.25 396 138.25 384.25 124 384.25C110 384.25 99.25 396 99.25 409.75ZM18.5 454.25L230.5 454.25C241.5 454.25 249 444.75 249 434.75C249 424.75 241.5 415 230.5 415L18.5 415C7.5 415 0 424.75 0 434.75C0 444.75 7.5 454.25 18.5 454.25ZM454 727.25L541 727.25C559.5 727.25 570.75 713.25 570.75 694.75L570.75 623.25L424.25 623.25L424.25 694.75C424.25 713.25 435.5 727.25 454 727.25ZM497.75 695.75C484.75 695.75 473.75 685.25 473.75 671.75C473.75 659.5 484.75 649 497.75 649C510.5 649 521.5 659.5 521.5 671.75C521.5 685.25 510.5 695.75 497.75 695.75ZM430.5 637.25L564.5 637.25C584.75 637.25 602.5 631.75 612 613.5L684 476.75C690.75 464.25 684.75 455 673.25 455L321.75 455C310.25 455 304.5 464.25 311 476.75L383 613.5C392.25 631.25 410.25 637.25 430.5 637.25ZM308.25 293.5L351 218.5L317.25 197.25C311.5 193.5 309.5 191.25 309.5 185.25L309.5 145.5C309.5 128.25 299.75 119 283 119L247.75 119C231.5 119 221.5 128.25 221.5 145.5L221.5 199.25C221.5 231.25 228.75 244.5 249.5 257.75ZM799.75 662.5C873.25 694.5 914.25 661.25 914.25 597.25L914.25 513.5C914.25 496.5 904.5 486.75 888.25 486.75L853 486.75C836 486.75 826.25 496.5 826.25 513.5L826.25 567C826.25 574 822.75 578.25 814.25 574.5L650.75 503.75L607.75 579.75ZM239.75 131.5L289.75 131.5L289.75 45.25C289.75 31.5 278.75 20 264.5 20C250.75 20 239.75 31.5 239.75 45.25ZM158.75 87.25L370.75 87.25C381.75 87.25 389.25 77.75 389.25 67.75C389.25 57.75 381.75 48.25 370.75 48.25L158.75 48.25C147.75 48.25 140.25 57.75 140.25 67.75C140.25 77.75 147.75 87.25 158.75 87.25ZM764.5 454.25L976.75 454.25C987.75 454.25 995 444.75 995 434.75C995 424.75 987.75 415 976.75 415L764.5 415C753.5 415 746 424.75 746 434.75C746 444.75 753.5 454.25 764.5 454.25ZM845.75 491.75L895.75 491.75L895.75 409.75C895.75 396 885 384.25 871 384.25C856.75 384.25 845.75 396 845.75 409.75ZM687.25 296L746 259.75C767.5 246 774.75 232.5 774.75 199.75L774.75 146.75C774.75 128.75 764.5 119 747.75 119L711.25 119C693.75 119 683.75 128.75 683.75 146.75L683.75 185C683.75 191.25 681.75 193.5 675.75 197.5L642.75 218ZM705 131.5L755 131.5L755 45.25C755 31.5 744 20 730.25 20C716 20 705 31.5 705 45.25ZM624 87.25L836 87.25C847 87.25 854.5 77.75 854.5 67.75C854.5 57.75 847 48.25 836 48.25L624 48.25C613 48.25 605.5 57.75 605.5 67.75C605.5 77.75 613 87.25 624 87.25Z" fill="black" fill-opacity="0.85"/>
 </g>
</svg>
