<?xml version="1.0" encoding="UTF-8"?>
<!--Generator: Apple Native CoreSVG 326-->
<!DOCTYPE svg
PUBLIC "-//W3C//DTD SVG 1.1//EN"
       "http://www.w3.org/Graphics/SVG/1.1/DTD/svg11.dtd">
<svg version="1.1" xmlns="http://www.w3.org/2000/svg" xmlns:xlink="http://www.w3.org/1999/xlink" viewBox="0 0 1129 738.25">
 <g>
  <rect height="738.25" opacity="0" width="1129" x="0" y="0"/>
  <path d="M422 510.5L705.25 510.5C788.25 510.5 805.75 445 778 390L696.25 228.75C679.5 195.5 658 177.25 610.75 177.25L517.75 177.25C470.5 177.25 449.5 195.5 432.25 228.75L349.25 390C321.5 444.5 339 510.5 422 510.5ZM214 597.25L398 532L390.75 495.75L206 561.25C144 583.25 111.75 558 111.75 512L111.75 450.25C111.75 443.25 113.75 441.75 121.75 441.75L137 441.75C145.75 441.75 147.5 443 147.5 450.25L147.5 501.25C147.5 527.75 163 537.25 192 526.75L363.5 465L369.25 425.25L195.5 488.5C187.25 491.5 184 486.25 184 478.5L184 442.25C184 420.75 172 409 151 409L107.25 409C87 409 75 420.75 75 442.25L75 514.75C75 575.75 122 630 214 597.25ZM515 738.25L611.75 738.25C632.25 738.25 645 722.75 645 702.5L645 628.5L482 628.5L482 702.5C482 722.75 494.75 738.25 515 738.25ZM563.5 707.5C549 707.5 537 696.25 537 681C537 666 549 655 563.5 655C578 655 590 666.5 590 681C590 696.25 577.75 707.5 563.5 707.5ZM484 647.5L643 647.5C665.25 647.5 684.25 639.75 695 621.25L782 472.5L720 495L661.25 594.75C656 603.75 649 607 635.75 607L491 607C478 607 471 603.75 465.5 594.75L405 491.75L343.5 469.5L432 621.25C442.75 639.75 461.75 647.5 484 647.5ZM391.5 348.5L406 314L316 265.75C286 249.75 279 240 279 202L279 158.75C279 152 280.75 150.25 288.75 150.25L304.25 150.25C312.75 150.25 314.5 151.75 314.5 158.75L314.5 201C314.5 222 320.75 228.75 335.25 236.25L421.25 281.25L439.5 248L359.5 205C353.75 201.75 351.25 197.75 351.25 193.5L351.25 151C351.25 129.5 339.25 117.75 318.25 117.75L274.25 117.75C254.25 117.75 242 129.5 242 151L242 207.25C242 259.5 254.75 276.5 301.5 301.25ZM428.5 469.75C382.75 469.75 372.25 438.25 391.25 401L468.75 248.5C480 226.25 491 218.5 518 218.5L610.5 218.5C637.75 218.5 648.5 226.25 659.75 248.5L736.5 401C755.5 438.25 745.25 469.75 699.5 469.75ZM407.5 90.25C418.5 90.25 426 80.75 426 70.75C426 60.75 418.5 51 407.5 51L185.25 51C174.25 51 167 60.75 167 70.75C167 80.75 174.25 90.25 185.25 90.25ZM914.25 597.25C1006.5 630 1053.5 575.75 1053.5 514.75L1053.5 442.25C1053.5 420.75 1041.5 409 1021.25 409L977.5 409C956.5 409 944.5 420.75 944.5 442.25L944.5 478.5C944.5 486.25 941.25 491.5 933 488.5L759.25 425.25L765 465L936.5 526.75C965.5 537.25 981 527.75 981 501.25L981 450.25C981 443 982.75 441.75 991.25 441.75L1006.75 441.75C1014.75 441.75 1016.75 443.25 1016.75 450.25L1016.75 512C1016.75 558 984.5 583.25 922.5 561.25L737.5 495.75L730.5 532ZM737 348.5L827 301.25C873.75 276.5 886.5 259.5 886.5 207.25L886.5 151C886.5 129.5 874.25 117.75 854.25 117.75L810.25 117.75C789.25 117.75 777.25 129.5 777.25 151L777.25 193.5C777.25 197.75 774.75 201.75 769 205L689 248L707.25 281.25L793.25 236.25C807.75 228.75 814 222 814 201L814 158.75C814 151.75 815.75 150.25 824.25 150.25L839.75 150.25C847.75 150.25 849.5 152 849.5 158.75L849.5 202C849.5 240 842.5 249.75 812.5 265.75L722.5 314ZM720 90.25L942.25 90.25C953.25 90.25 960.5 80.75 960.5 70.75C960.5 60.75 953.25 51 942.25 51L720 51C709 51 701.5 60.75 701.5 70.75C701.5 80.75 709 90.25 720 90.25ZM240.75 381.5C251.75 381.5 259 372 259 362C259 352 251.75 342.25 240.75 342.25L18.5 342.25C7.5 342.25 0 352 0 362C0 372 7.5 381.5 18.5 381.5ZM888.25 381.5L1110.5 381.5C1121.5 381.5 1129 372 1129 362C1129 352 1121.5 342.25 1110.5 342.25L888.25 342.25C877.25 342.25 870 352 870 362C870 372 877.25 381.5 888.25 381.5ZM807 130.25L857 130.25L857 48.25C857 34.5 846.25 22.75 831.75 22.75C818 22.75 807 34.5 807 48.25ZM321.5 130.25L321.5 48.25C321.5 34.5 310.5 22.75 296.25 22.75C282.25 22.75 271.25 34.5 271.25 48.25L271.25 130.25ZM974.25 419L1024.25 419L1024.25 337C1024.25 323.25 1013.25 311.5 998.75 311.5C985 311.5 974.25 323.25 974.25 337ZM154.25 419L154.25 337C154.25 323.25 143.5 311.5 129 311.5C115.25 311.5 104.25 323.25 104.25 337L104.25 419Z" fill="black" fill-opacity="0.85"/>
 </g>
</svg>
