<?xml version="1.0" encoding="UTF-8"?>
<!--Generator: Apple Native CoreSVG 326-->
<!DOCTYPE svg
PUBLIC "-//W3C//DTD SVG 1.1//EN"
       "http://www.w3.org/Graphics/SVG/1.1/DTD/svg11.dtd">
<svg version="1.1" xmlns="http://www.w3.org/2000/svg" xmlns:xlink="http://www.w3.org/1999/xlink" viewBox="0 0 701 513.25">
 <g>
  <rect height="513.25" opacity="0" width="701" x="0" y="0"/>
  <path d="M701 97.25L701 416.75C701 480.5 668.5 513.25 603.75 513.25L97.25 513.25C32.75 513.25 0 480.75 0 416.75L0 97.25C0 33.25 32.75 0.75 97.25 0.75L603.75 0.75C668.5 0.75 701 33.5 701 97.25ZM394.25 358.5C394.25 379.25 410.75 396 431.5 396C452.25 396 468.75 379.25 468.75 358.5C468.75 338 452.25 321.25 431.5 321.25C410.75 321.25 394.25 338 394.25 358.5ZM508 358.5C508 379.25 524.75 396 545.5 396C566 396 582.75 379.25 582.75 358.5C582.75 338 566 321.25 545.5 321.25C524.75 321.25 508 338 508 358.5ZM216.75 129.75C196 161.75 172.75 200 158 231.75C148.75 252 138 276.5 138 302C138 355.75 175 391.75 230.25 391.75C285.5 391.75 322.5 355.75 322.5 302C322.5 276.5 311.75 252 302.5 231.75C287.75 200 264.5 161.75 243.75 129.75C240 123.75 235.75 121 230.25 121C224.75 121 220.5 123.75 216.75 129.75ZM394.25 256.5C394.25 277 410.75 293.75 431.5 293.75C452.25 293.75 468.75 277 468.75 256.5C468.75 235.75 452.25 219 431.5 219C410.75 219 394.25 235.75 394.25 256.5ZM508 256.5C508 277 524.75 293.75 545.5 293.75C566 293.75 582.75 277 582.75 256.5C582.75 235.75 566 219 545.5 219C524.75 219 508 235.75 508 256.5ZM394.25 154.25C394.25 175 410.75 191.5 431.5 191.5C452.25 191.5 468.75 175 468.75 154.25C468.75 133.5 452.25 117 431.5 117C410.75 117 394.25 133.5 394.25 154.25ZM508 154.25C508 175 524.75 191.5 545.5 191.5C566 191.5 582.75 175 582.75 154.25C582.75 133.5 566 117 545.5 117C524.75 117 508 133.5 508 154.25Z" fill="black" fill-opacity="0.85"/>
 </g>
</svg>
