<?xml version="1.0" encoding="UTF-8"?>
<!--Generator: Apple Native CoreSVG 326-->
<!DOCTYPE svg
PUBLIC "-//W3C//DTD SVG 1.1//EN"
       "http://www.w3.org/Graphics/SVG/1.1/DTD/svg11.dtd">
<svg version="1.1" xmlns="http://www.w3.org/2000/svg" xmlns:xlink="http://www.w3.org/1999/xlink" viewBox="0 0 709 798.003">
 <g>
  <rect height="798.003" opacity="0" width="709" x="0" y="0"/>
  <path d="M628.5 140.377L628.5 432.156C613.959 427.186 597.824 428.274 584 435.332L584 267.877L125 267.877L125 656.877C125 674.627 136 686.377 152.75 686.377L412.027 686.377C412.509 688.722 412.75 691.049 412.75 693.377C412.75 700.127 411 704.877 406.75 712.877C403.42 718.653 401.248 724.635 400.169 730.627L151 730.627C109 730.627 80.5 701.377 80.5 657.127L80.5 140.377C80.5 96.1265 109 66.8765 151 66.8765L558 66.8765C600 66.8765 628.5 96.1265 628.5 140.377ZM520.25 370.627L520.25 429.513C509.298 429.232 498.309 432.104 488.75 438.122L488.75 375.127C488.75 364.627 482.25 358.127 472 358.127L237 358.127C226.75 358.127 220.25 364.627 220.25 375.127L220.25 579.127C220.25 589.877 226.75 596.377 237 596.377L368.346 596.377C372.273 608.206 377.102 618.581 382.096 627.877L232.5 627.877C206 627.877 188.75 610.377 188.75 583.877L188.75 370.627C188.75 343.877 206 326.377 232.5 326.377L476.5 326.377C503 326.377 520.25 343.877 520.25 370.627ZM152.75 111.127C136 111.127 125 122.877 125 140.627L125 231.127L584 231.127L584 140.627C584 122.877 573 111.127 556.25 111.127ZM225.75 171.127C225.75 186.877 212.75 199.627 197.25 199.627C181.5 199.627 168.75 186.877 168.75 171.127C168.75 155.627 181.5 142.877 197.25 142.877C212.75 142.877 225.75 155.627 225.75 171.127ZM307.75 171.127C307.75 186.877 295 199.627 279.5 199.627C263.75 199.627 251.25 186.877 251.25 171.127C251.25 155.627 263.75 142.877 279.5 142.877C295 142.877 307.75 155.627 307.75 171.127ZM538.75 171.127C538.75 179.627 533 185.627 524.25 185.627L444.5 185.627C436 185.627 430 179.627 430 171.127C430 162.627 436 156.627 444.5 156.627L524.25 156.627C533 156.627 538.75 162.627 538.75 171.127Z" fill="black" fill-opacity="0.85"/>
  <path d="M445.5 756.877C453.75 762.127 467 761.877 474.25 749.627C484 732.377 489.25 712.877 489.25 693.377C489.25 622.627 434.5 587.377 434.5 534.127C434.5 519.877 437.25 509.627 445.5 495.377C451 485.627 447 475.127 439.25 470.377C430.75 465.127 418 466.127 411 477.877C400.75 494.627 396.25 514.377 396.25 534.127C396.25 602.377 450.75 638.377 450.75 693.377C450.75 707.627 447.75 717.377 439.75 731.627C434 741.877 438.75 752.127 445.5 756.877ZM536.5 756.627C545.25 762.127 558.5 761.377 565 749.377C574.75 732.127 580.25 712.877 580.25 693.377C580.25 622.377 525.25 587.127 525.25 533.877C525.25 519.877 528.25 509.627 536.25 495.127C542 485.377 537.75 475.127 529.75 470.377C521.5 465.377 508.75 466.127 501.75 477.627C491.75 494.627 487.25 514.127 487.25 533.877C487.25 602.377 541.75 638.127 541.75 693.377C541.75 707.377 538.75 717.127 530.75 731.377C524.75 741.877 529.5 751.877 536.5 756.627ZM627.25 756.377C636 761.877 649.25 761.127 655.75 749.127C665.75 731.877 671 712.627 671 693.127C671 622.127 616.25 586.877 616.25 533.627C616.25 519.627 619 509.377 627 494.877C632.75 485.127 628.5 474.877 620.75 470.127C612.25 465.127 599.5 465.877 592.5 477.377C582.5 494.377 578 513.877 578 533.627C578 602.127 632.5 637.877 632.5 693.127C632.5 707.127 629.5 716.877 621.5 731.127C615.75 741.627 620.25 751.627 627.25 756.377Z" fill="black" fill-opacity="0.85"/>
 </g>
</svg>
