<?xml version="1.0" encoding="UTF-8"?>
<!--Generator: Apple Native CoreSVG 326-->
<!DOCTYPE svg
PUBLIC "-//W3C//DTD SVG 1.1//EN"
       "http://www.w3.org/Graphics/SVG/1.1/DTD/svg11.dtd">
<svg version="1.1" xmlns="http://www.w3.org/2000/svg" xmlns:xlink="http://www.w3.org/1999/xlink" viewBox="0 0 865 618.25">
 <g>
  <rect height="618.25" opacity="0" width="865" x="0" y="0"/>
  <path d="M225 213L269.5 213L269.5 127.5C269.5 75.75 308.25 45.25 368 45.25L497 45.25C557 45.25 595.75 75.75 595.75 127.5L595.75 213L640.25 213L640.25 127.5C640.25 49 584 1 497 1L368 1C281.25 1 225 49 225 127.5ZM102.5 618.25L762.5 618.25C825.5 618.25 865 579.25 865 517.25L865 340C865 246.75 801 183.5 707.25 183.5L157.75 183.5C64 183.5 0 246.75 0 340L0 517.25C0 579.25 39.5 618.25 102.5 618.25ZM103 574C66.75 574 44.25 551.25 44.25 515.25L44.25 342C44.25 273.75 90 228 158.25 228L706.75 228C775 228 820.75 273.75 820.75 342L820.75 515.25C820.75 551.25 798.25 574 762 574ZM185.25 599.5L222 599.5L222 203L185.25 203ZM272.5 599.5L309.25 599.5L309.25 203L272.5 203ZM556 599.5L592.75 599.5L592.75 203L556 203ZM643.25 599.5L680 599.5L680 203L643.25 203ZM290.75 392.75L573.75 392.75L573.75 356L290.75 356Z" fill="black" fill-opacity="0.85"/>
 </g>
</svg>
