<?xml version="1.0" encoding="UTF-8"?>
<!--Generator: Apple Native CoreSVG 326-->
<!DOCTYPE svg
PUBLIC "-//W3C//DTD SVG 1.1//EN"
       "http://www.w3.org/Graphics/SVG/1.1/DTD/svg11.dtd">
<svg version="1.1" xmlns="http://www.w3.org/2000/svg" xmlns:xlink="http://www.w3.org/1999/xlink" viewBox="0 0 576.5 664.25">
 <g>
  <rect height="664.25" opacity="0" width="576.5" x="0" y="0"/>
  <path d="M511 96.25L511 419.25L466.75 419.25L466.75 98.75C466.75 62.75 447 44.25 412.75 44.25L163.75 44.25C129 44.25 110 62.75 110 98.75L110 564.5C110 600.25 129 618.75 163.75 618.75L412.75 618.75C447 618.75 466.75 600.25 466.75 564.5L466.75 550.75L511 550.75L511 566.75C511 630.5 478.25 663 413.5 663L163 663C98.5 663 65.5 630.75 65.5 566.75L65.5 96.25C65.5 32.25 98.5 0 163 0L413.5 0C478.25 0 511 32.75 511 96.25Z" fill="black" fill-opacity="0.85"/>
  <path d="M228 310.5C228 332 211.25 348.5 190.25 348.5C169.25 348.5 152.75 332 152.75 310.5C152.75 290 169.25 272.75 190.25 272.75C211.25 272.75 228 290 228 310.5ZM326.25 310.5C326.25 332 309.5 348.5 288.25 348.5C267.25 348.5 250.5 332 250.5 310.5C250.5 290 267.25 272.75 288.25 272.75C309.5 272.75 326.25 290 326.25 310.5ZM424.25 310.5C424.25 332 407.5 348.5 386.5 348.5C365.5 348.5 349 332 349 310.5C349 290 365.5 272.75 386.5 272.75C407.5 272.75 424.25 290 424.25 310.5ZM228 216.25C228 237.25 211.25 253.75 190.25 253.75C169.25 253.75 152.75 237.25 152.75 216.25C152.75 194.75 169.25 178.25 190.25 178.25C211.25 178.25 228 194.75 228 216.25ZM326.25 216.25C326.25 237.25 309.5 253.75 288.25 253.75C267.25 253.75 250.5 237.25 250.5 216.25C250.5 194.75 267.25 178.25 288.25 178.25C309.5 178.25 326.25 194.75 326.25 216.25ZM424.25 216.25C424.25 237.25 407.5 253.75 386.5 253.75C365.5 253.75 349 237.25 349 216.25C349 194.75 365.5 178.25 386.5 178.25C407.5 178.25 424.25 194.75 424.25 216.25ZM228 122.25C228 142.5 211.25 159.5 190.25 159.5C169.25 159.5 152.75 142.5 152.75 122.25C152.75 101 169.25 84.25 190.25 84.25C211.25 84.25 228 101 228 122.25ZM326.25 122.25C326.25 142.5 309.5 159.5 288.25 159.5C267.25 159.5 250.5 142.5 250.5 122.25C250.5 101 267.25 84.25 288.25 84.25C309.5 84.25 326.25 101 326.25 122.25ZM424.25 122.25C424.25 142.5 407.5 159.5 386.5 159.5C365.5 159.5 349 142.5 349 122.25C349 101 365.5 84.25 386.5 84.25C407.5 84.25 424.25 101 424.25 122.25Z" fill="black" fill-opacity="0.85"/>
  <path d="M288.25 577.5C339.5 577.5 380.75 536.25 380.75 484.75C380.75 434 339.5 392.75 288.25 392.75C237 392.75 195.75 434 195.75 484.75C195.75 536.25 237 577.5 288.25 577.5ZM298.5 520.75L511 520.75C530.5 520.75 546.75 504.75 546.75 484.75C546.75 465 530.5 449 511 449L298.5 449C278.75 449 262.5 465 262.5 484.75C262.5 504.75 278.75 520.75 298.5 520.75Z" fill="black" fill-opacity="0.85"/>
 </g>
</svg>
