<?xml version="1.0" encoding="UTF-8"?>
<!--Generator: Apple Native CoreSVG 326-->
<!DOCTYPE svg
PUBLIC "-//W3C//DTD SVG 1.1//EN"
       "http://www.w3.org/Graphics/SVG/1.1/DTD/svg11.dtd">
<svg version="1.1" xmlns="http://www.w3.org/2000/svg" xmlns:xlink="http://www.w3.org/1999/xlink" viewBox="0 0 897.019 718.63">
 <g>
  <rect height="718.63" opacity="0" width="897.019" x="0" y="0"/>
  <path d="M600.01 634.94C600.01 646.94 590.01 656.94 577.76 656.94L384.249 656.94L428.463 612.69L577.76 612.69C590.01 612.69 600.01 622.69 600.01 634.94Z" fill="black" fill-opacity="0.85"/>
  <path d="M856.76 634.94C856.76 646.94 846.76 656.94 834.76 656.94L665.76 656.94C653.76 656.94 643.76 646.94 643.76 634.94C643.76 622.69 653.76 612.69 665.76 612.69L834.76 612.69C846.76 612.69 856.76 622.69 856.76 634.94Z" fill="black" fill-opacity="0.85"/>
  <path d="M133.26 312.94L397.01 576.44L646.01 327.19C673.26 300.19 672.76 261.69 645.01 234.19L475.76 64.4399C448.26 36.6899 409.51 36.4399 382.51 63.6899ZM75.0097 515.19L194.51 634.94C239.51 679.69 292.01 681.19 335.01 638.44L368.76 604.69L105.26 341.19L71.2597 374.69C28.2597 417.44 30.0097 470.19 75.0097 515.19Z" fill="black" fill-opacity="0.85"/>
 </g>
</svg>
