<?xml version="1.0" encoding="UTF-8"?>
<!--Generator: Apple Native CoreSVG 326-->
<!DOCTYPE svg
PUBLIC "-//W3C//DTD SVG 1.1//EN"
       "http://www.w3.org/Graphics/SVG/1.1/DTD/svg11.dtd">
<svg version="1.1" xmlns="http://www.w3.org/2000/svg" xmlns:xlink="http://www.w3.org/1999/xlink" viewBox="0 0 589.75 588.25">
 <g>
  <rect height="588.25" opacity="0" width="589.75" x="0" y="0"/>
  <path d="M0 492C0 556 32.75 588.25 97.25 588.25L492.5 588.25C557.25 588.25 589.75 555.75 589.75 492L589.75 97C589.75 33.25 557.25 0.75 492.5 0.75L97.25 0.75C32.75 0.75 0 33 0 97ZM44.25 489.75L44.25 99.25C44.25 63.5 63.25 45 98.25 45L131.5 45L131.5 92C131.5 101.75 138.75 109 148.5 109C158.25 109 165.5 101.75 165.5 92L165.5 45L229.25 45L229.25 92C229.25 101.75 236.5 109 246.25 109C256 109 263.25 101.75 263.25 92L263.25 45L327 45L327 92C327 101.75 334.25 109 344 109C353.75 109 361.25 101.75 361.25 92L361.25 45L424.75 45L424.75 92C424.75 101.75 432 109 441.75 109C451.5 109 459 101.75 459 92L459 45L491.75 45C526 45 545.5 63.5 545.5 99.25L545.5 489.75C545.5 525.5 526 544 491.75 544L459 544L459 497C459 487.25 451.5 479.75 441.75 479.75C432 479.75 424.75 487.25 424.75 497L424.75 544L361.25 544L361.25 497C361.25 487.25 353.75 479.75 344 479.75C334.25 479.75 327 487.25 327 497L327 544L263.25 544L263.25 497C263.25 487.25 256 479.75 246.25 479.75C236.5 479.75 229.25 487.25 229.25 497L229.25 544L165.5 544L165.5 497C165.5 487.25 158.25 479.75 148.5 479.75C138.75 479.75 131.5 487.25 131.5 497L131.5 544L98.25 544C63.25 544 44.25 525.5 44.25 489.75ZM131.75 392.5C131.75 409.5 143.5 420.5 160.75 420.5L429.25 420.5C446.5 420.5 458 409.5 458 392.5L458 196.5C458 179.5 446.5 168.5 429.25 168.5L160.75 168.5C143.5 168.5 131.75 179.5 131.75 196.5Z" fill="black" fill-opacity="0.85"/>
 </g>
</svg>
