<?xml version="1.0" encoding="UTF-8"?>
<!--Generator: Apple Native CoreSVG 326-->
<!DOCTYPE svg
PUBLIC "-//W3C//DTD SVG 1.1//EN"
       "http://www.w3.org/Graphics/SVG/1.1/DTD/svg11.dtd">
<svg version="1.1" xmlns="http://www.w3.org/2000/svg" xmlns:xlink="http://www.w3.org/1999/xlink" viewBox="0 0 706 679.75">
 <g>
  <rect height="679.75" opacity="0" width="706" x="0" y="0"/>
  <path d="M39.25 610.25L666.75 610.25L666.75 591C666.75 580.25 660.25 573.75 649.25 573.75L628.75 573.75L628.75 213.5L657.75 213.5C673 213.5 681.5 202.75 681.5 191.5C681.5 183.25 677 176 667 170.25L390.75 10.75C378.5 3.75 365.5 0 353 0C340.5 0 327.25 3.75 315.25 10.75L39 170.25C28.75 176 24.5 183.25 24.5 191.5C24.5 202.75 33 213.5 48.25 213.5L77.5 213.5L77.5 573.75L57 573.75C45.75 573.75 39.25 580.25 39.25 591ZM119.25 573.75L119.25 175.5L338.5 52C342.75 49.5 348 48 353 48C357.75 48 362.75 49.5 367.5 52L587 175.5L587 573.75ZM22.25 679.25L683.75 679.25C696 679.25 706 669.25 706 657.25C706 645 696 635 683.75 635L22.25 635C10 635 0 645 0 657.25C0 669.25 10 679.25 22.25 679.25Z" fill="black" fill-opacity="0.85"/>
  <path d="M392.5 478.25C401.25 478.25 412.25 477.75 420.75 475.75C429.5 473.5 436.25 469.5 436.25 460.75C436.25 451.75 430 447.25 421 447.25C411.75 447.25 407 448.75 394 448.75C323.5 448.75 281 408 281 336.75C281 266.75 321.5 224.75 393.25 224.75C405 224.75 414.75 226.25 421 226.25C430 226.25 436.25 221.5 436.25 212.5C436.25 204.5 431 199.5 420.75 197C413.25 195.5 403 194.75 392.5 194.75C311.5 194.75 246.75 241.75 246.75 336.5C246.75 427.25 306 478.25 392.5 478.25ZM202.25 308C202.25 313.5 206.75 317.75 212 317.75L388.25 317.75C393.75 317.75 398 313.5 398 308C398 302.75 393.75 298.5 388.25 298.5L212 298.5C206.75 298.5 202.25 302.75 202.25 308ZM202.25 364.75C202.25 370.25 206.75 374.5 212 374.5L388.25 374.5C393.75 374.5 398 370.25 398 364.75C398 359.5 393.75 355.25 388.25 355.25L212 355.25C206.75 355.25 202.25 359.5 202.25 364.75Z" fill="black" fill-opacity="0.85"/>
 </g>
</svg>
