<?xml version="1.0" encoding="UTF-8"?>
<!--Generator: Apple Native CoreSVG 326-->
<!DOCTYPE svg
PUBLIC "-//W3C//DTD SVG 1.1//EN"
       "http://www.w3.org/Graphics/SVG/1.1/DTD/svg11.dtd">
<svg version="1.1" xmlns="http://www.w3.org/2000/svg" xmlns:xlink="http://www.w3.org/1999/xlink" viewBox="0 0 864.25 712.25">
 <g>
  <rect height="712.25" opacity="0" width="864.25" x="0" y="0"/>
  <path d="M164.5 690.75L208.25 690.75L208.5 82.25C208.5 57.5 220.75 44.5 246.25 44.5L508.75 44.5C533.25 44.5 546.75 57.5 546.75 82.25L546.75 690.75L591 690.75L591 81.5C591 29 562.25 0 509.75 0L245.25 0C192.25 0 164.5 28.75 164.5 81.5ZM259 290.75L496 290.75C508.25 290.75 517 281.75 517 269.75L517 95.25C517 83 508 74.25 496 74.25L259 74.25C247 74.25 238.25 83 238.25 95.25L238.25 269.75C238.25 281.75 246.75 290.75 259 290.75ZM116.25 689.5C116.25 702 126.25 712 138.25 712L616.75 712C628.75 712 638.75 702 638.75 689.5C638.75 677.75 628.75 667.75 616.75 667.75L138.25 667.75C126.5 667.75 116.25 677.5 116.25 689.5ZM763.5 329L763.5 529.25C763.5 571.75 744 596.75 711 596.75C680.5 596.75 661 575.75 661 542C661 496.5 668.75 433.75 668.75 376.75C668.75 322.5 641.25 281 578 259L564 290C613.5 306 634.75 337.75 634.75 376.75C634.75 428 627 490.5 627 542C627 596.5 659.25 630.75 711 630.75C765.75 630.75 797.5 593.5 797.5 529.25L797.5 329C797.5 300 818.5 291.75 833.5 279.75C852.75 265 864.25 245.75 864.25 220.5L864.25 176.5C864.25 169.5 860 164.75 854 164.75L833.25 164.75L833.25 107.25C833.25 99 826.5 92.25 818 92.25C810.25 92.25 803.25 99 803.25 107.25L803.5 164.75L760 164.75L760.25 107.25C760.25 99 753.75 92.25 745.75 92.25C737.25 92.25 731 99 731 107.25L731 164.75L707 164.75C700.75 164.75 696.5 169.5 696.5 176.5L696.5 220.5C696.5 245.75 708.25 265 727.25 279.75C742.5 291.75 763.5 300 763.5 329Z" fill="black" fill-opacity="0.85"/>
 </g>
</svg>
