<?xml version="1.0" encoding="UTF-8"?>
<!--Generator: Apple Native CoreSVG 326-->
<!DOCTYPE svg
PUBLIC "-//W3C//DTD SVG 1.1//EN"
       "http://www.w3.org/Graphics/SVG/1.1/DTD/svg11.dtd">
<svg version="1.1" xmlns="http://www.w3.org/2000/svg" xmlns:xlink="http://www.w3.org/1999/xlink" viewBox="0 0 843.25 861.315">
 <g>
  <rect height="861.315" opacity="0" width="843.25" x="0" y="0"/>
  <path d="M204.826 337.656C207.148 352.068 216.778 361.663 231.612 364.413L570 702.436L570 742.032L595.5 742.032C607.5 742.032 617.75 752.032 617.75 763.782C617.75 776.032 607.5 786.282 595.5 786.282L127.5 786.282C115.75 786.282 105.75 776.032 105.75 763.782C105.75 751.782 116 742.032 127.5 742.032L153.75 742.032L153.75 286.635ZM812 181.782L812 239.282L833 239.282C839 239.282 843.25 244.032 843.25 251.032L843.25 295.032C843.25 320.282 831.75 339.532 812.25 354.282C797.5 366.282 776.5 374.532 776.5 403.532L776.5 603.782C776.5 652.58 758.185 685.803 725.352 698.908L697.241 670.807C725.844 667.392 742.5 643.061 742.5 603.782L742.5 403.532C742.5 374.532 721.5 366.282 706.25 354.282C687.25 339.532 675.5 320.282 675.5 295.032L675.5 251.032C675.5 244.032 679.75 239.282 685.75 239.282L709.75 239.282L709.75 181.782C709.75 173.532 716.25 166.782 724.75 166.782C732.75 166.782 739.25 173.532 739.25 181.782L739 239.282L782.5 239.282L782.25 181.782C782.25 173.532 789.25 166.782 797 166.782C805.5 166.782 812 173.532 812 181.782ZM570 156.032L570 338.588C624.051 361.546 647.75 400.921 647.75 451.282C647.75 507.127 640.311 568.49 640.054 613.641L606.99 580.589C608.975 537.685 613.5 491.09 613.5 451.282C613.5 420.329 600.272 393.943 570 376.408L570 543.612L391.606 365.282L482.25 365.282C505.25 365.282 519.5 352.032 519.5 330.532L519.5 160.032C519.5 138.532 505.25 125.032 482.25 125.032L241 125.032C218.25 125.032 204.25 138.532 204.25 160.032L204.25 177.994L156.42 130.181C164.442 93.9486 190.945 74.5325 234.5 74.5325L488.75 74.5325C541.25 74.5325 570 103.532 570 156.032Z" fill="black" fill-opacity="0.85"/>
  <path d="M737.25 820.282C745.75 828.782 759.25 828.782 767.25 820.282C775.75 811.782 776 798.282 767.25 790.032L72.5 95.7825C64.5 87.5325 50.75 87.2825 42.25 95.7825C34 103.782 34 117.782 42.25 125.782Z" fill="black" fill-opacity="0.85"/>
 </g>
</svg>
