<?xml version="1.0" encoding="UTF-8"?>
<!--Generator: Apple Native CoreSVG 326-->
<!DOCTYPE svg
PUBLIC "-//W3C//DTD SVG 1.1//EN"
       "http://www.w3.org/Graphics/SVG/1.1/DTD/svg11.dtd">
<svg version="1.1" xmlns="http://www.w3.org/2000/svg" xmlns:xlink="http://www.w3.org/1999/xlink" viewBox="0 0 651.25 651.75">
 <g>
  <rect height="651.75" opacity="0" width="651.25" x="0" y="0"/>
  <path d="M325.5 651.25C505.25 651.25 651.25 505.5 651.25 325.75C651.25 146 505.25 0 325.5 0C145.75 0 0 146 0 325.75C0 505.5 145.75 651.25 325.5 651.25ZM325.5 604.75C171.25 604.75 46.5 480 46.5 325.75C46.5 171.5 171.25 46.75 325.5 46.75C479.75 46.75 604.5 171.5 604.5 325.75C604.5 480 479.75 604.75 325.5 604.75Z" fill="black" fill-opacity="0.85"/>
  <path d="M200 422C253 422 296.25 379 296.25 325.75C296.25 272.5 253 229.5 200 229.5C146.75 229.5 103.5 272.5 103.5 325.75C103.5 379 146.75 422 200 422ZM451.25 422C504.5 422 547.5 379 547.5 325.75C547.5 272.5 504.5 229.5 451.25 229.5C398 229.5 355 272.5 355 325.75C355 379 398 422 451.25 422ZM277.25 205.75C282.5 211 290.75 211 296.25 205.75L325.25 176.5L354.5 205.75C359.75 211 368 211 373.25 205.75C379 200.25 379 192.5 373.25 186.75L344.25 157.75L373.25 128.5C379 123 379 115 373.25 109.5C368 104 360 104 354.5 109.5L325.25 138.75L296.25 109.5C290.5 104 282.5 104 277.25 109.5C272 115 272 123.25 277.25 128.5L306.5 157.75L277.25 186.75C272 192.25 272 200.25 277.25 205.75ZM277.25 541.5C282.5 547 290.75 546.75 296.25 541.5L325.25 512.25L354.5 541.5C359.75 546.75 368 547 373.25 541.5C379 536 378.75 528 373.25 522.5L344.25 493.5L373.25 464.25C378.75 459 379 450.75 373.25 445.25C368 439.75 359.75 440 354.5 445.25L325.25 474.5L296.25 445.25C290.75 440 282.5 439.75 277.25 445.25C271.75 450.75 272 459 277.25 464.25L306.5 493.5L277.25 522.5C272 528 271.75 536 277.25 541.5Z" fill="black" fill-opacity="0.85"/>
 </g>
</svg>
