<?xml version="1.0" encoding="UTF-8"?>
<!--Generator: Apple Native CoreSVG 326-->
<!DOCTYPE svg
PUBLIC "-//W3C//DTD SVG 1.1//EN"
       "http://www.w3.org/Graphics/SVG/1.1/DTD/svg11.dtd">
<svg version="1.1" xmlns="http://www.w3.org/2000/svg" xmlns:xlink="http://www.w3.org/1999/xlink" viewBox="0 0 666.75 587.75">
 <g>
  <rect height="587.75" opacity="0" width="666.75" x="0" y="0"/>
  <path d="M333.5 587.25C520 587.25 666.75 440.5 666.75 264.75C666.75 171.75 626.25 87.75 567.5 32.25C544 10.25 518.25 0 483 0L183.75 0C148.75 0 123 10.25 99.25 32.25C40.75 87.75 0 171.75 0 264.75C0 440.5 146.75 587.25 333.5 587.25ZM333.5 540.5C166.25 540.5 46.75 421 46.75 264.75C46.75 182.5 79 115.75 131.5 66.5C148 50.75 158.5 47 183.75 47L483 47C508.25 47 518.75 50.75 535.25 66.5C587.75 115.75 620 182.5 620 264.75C620 421 500.5 540.5 333.5 540.5Z" fill="black" fill-opacity="0.85"/>
  <path d="M248 189.25C276.5 189.25 300 165.75 300 137C300 108.25 276.5 85 248 85C219.25 85 195.75 108.25 195.75 137C195.75 165.75 219.25 189.25 248 189.25ZM419 189.25C447.75 189.25 471 165.75 471 137C471 108.25 447.75 85 419 85C390.25 85 366.75 108.25 366.75 137C366.75 165.75 390.25 189.25 419 189.25ZM162 337.5C202.25 337.5 235 305 235 264.75C235 224.5 202.25 191.75 162 191.75C121.75 191.75 89.25 224.5 89.25 264.75C89.25 305 121.75 337.5 162 337.5ZM333.5 337.5C373.75 337.5 406.25 305 406.25 264.75C406.25 224.5 373.75 191.75 333.5 191.75C293.25 191.75 260.5 224.5 260.5 264.75C260.5 305 293.25 337.5 333.5 337.5ZM504.75 337.5C545 337.5 577.5 305 577.5 264.75C577.5 224.5 545 191.75 504.75 191.75C464.5 191.75 432 224.5 432 264.75C432 305 464.5 337.5 504.75 337.5ZM247.75 487.75C288 487.75 320.5 455 320.5 414.75C320.5 374.5 288 342 247.75 342C207.5 342 174.75 374.5 174.75 414.75C174.75 455 207.5 487.75 247.75 487.75ZM419 487.75C459.25 487.75 492 455 492 414.75C492 374.5 459.25 342 419 342C378.75 342 346.25 374.5 346.25 414.75C346.25 455 378.75 487.75 419 487.75Z" fill="black" fill-opacity="0.85"/>
 </g>
</svg>
