<?xml version="1.0" encoding="UTF-8"?>
<!--Generator: Apple Native CoreSVG 326-->
<!DOCTYPE svg
PUBLIC "-//W3C//DTD SVG 1.1//EN"
       "http://www.w3.org/Graphics/SVG/1.1/DTD/svg11.dtd">
<svg version="1.1" xmlns="http://www.w3.org/2000/svg" xmlns:xlink="http://www.w3.org/1999/xlink" viewBox="0 0 720.75 680.25">
 <g>
  <rect height="680.25" opacity="0" width="720.75" x="0" y="0"/>
  <path d="M360.5 679.5C559.25 679.5 720.75 518 720.75 319.25C720.75 189.5 652 75.75 554.75 16.5C536.5 5.25 518 0 496 0L225 0C202.75 0 184.5 5.25 166.25 16.5C68.75 75.75 0 189.5 0 319.25C0 518 161.75 679.5 360.5 679.5ZM360.5 632.75C185.25 632.75 46.75 494.25 46.75 319.25C46.75 207.25 103.25 110.75 188.5 57.25C199.25 49.5 210.5 47 225 47L496 47C510.25 47 521.5 49.5 532.25 57.25C617.5 110.75 674 207.25 674 319.25C674 494.25 535.5 632.75 360.5 632.75Z" fill="black" fill-opacity="0.85"/>
  <path d="M254.25 186.5C278.75 186.5 298.25 167 298.25 142.5C298.25 118.25 278.75 98.5 254.25 98.5C230 98.5 210.25 118.25 210.25 142.5C210.25 167 230 186.5 254.25 186.5ZM360.5 186.5C384.75 186.5 404.5 167 404.5 142.5C404.5 118.25 384.75 98.5 360.5 98.5C336 98.5 316.5 118.25 316.5 142.5C316.5 167 336 186.5 360.5 186.5ZM466.5 186.5C491 186.5 510.5 167 510.5 142.5C510.5 118.25 491 98.5 466.5 98.5C442.25 98.5 422.5 118.25 422.5 142.5C422.5 167 442.25 186.5 466.5 186.5ZM360.5 292.75C384.75 292.75 404.5 273 404.5 248.75C404.5 224.25 384.75 204.75 360.5 204.75C336 204.75 316.5 224.25 316.5 248.75C316.5 273 336 292.75 360.5 292.75ZM198.25 415.5C251.5 415.5 294.5 372.5 294.5 319.25C294.5 266 251.5 222.75 198.25 222.75C145 222.75 102 266 102 319.25C102 372.5 145 415.5 198.25 415.5ZM522.5 415.5C575.75 415.5 619 372.5 619 319.25C619 266 575.75 222.75 522.5 222.75C469.5 222.75 426.25 266 426.25 319.25C426.25 372.5 469.5 415.5 522.5 415.5ZM223.75 536.25C245.5 536.25 263.5 518.25 263.5 496.25C263.5 474.25 245.5 456.25 223.75 456.25C201.75 456.25 183.75 474.25 183.75 496.25C183.75 518.25 201.75 536.25 223.75 536.25ZM360.5 564C397.5 564 428.25 533.5 428.25 496.25C428.25 459 397.5 428.5 360.5 428.5C323.25 428.5 292.75 459 292.75 496.25C292.75 533.5 323.25 564 360.5 564ZM497.25 536.25C519 536.25 537 518.25 537 496.25C537 474.25 519 456.25 497.25 456.25C475.25 456.25 457.25 474.25 457.25 496.25C457.25 518.25 475.25 536.25 497.25 536.25Z" fill="black" fill-opacity="0.85"/>
 </g>
</svg>
