<?xml version="1.0" encoding="UTF-8"?>
<!--Generator: Apple Native CoreSVG 326-->
<!DOCTYPE svg
PUBLIC "-//W3C//DTD SVG 1.1//EN"
       "http://www.w3.org/Graphics/SVG/1.1/DTD/svg11.dtd">
<svg version="1.1" xmlns="http://www.w3.org/2000/svg" xmlns:xlink="http://www.w3.org/1999/xlink" viewBox="0 0 521.5 648.75">
 <g>
  <rect height="648.75" opacity="0" width="521.5" x="0" y="0"/>
  <path d="M286.5 16.25C329.25 30.75 437 70.75 479.75 87.75C508.25 99.5 521.5 110.5 521.5 144.25L521.5 387.5C521.5 499.25 463.75 543.75 282 642.25C274.25 646.25 266.5 648.75 260.75 648.75C255 648.75 247 646.5 239.5 642.25C60.75 538.75 0 499.25 0 387.5L0 144.25C0 110.5 13.25 99 41.75 87.75C84.5 71 192.25 30.75 235 16.25C243.5 13.75 252 11.5 260.75 11.5C269.5 11.5 278 13.5 286.5 16.25ZM228.25 449.5C228.25 466.75 243.25 480.75 261 480.75C278.5 480.75 293.75 467 293.75 449.5C293.75 431.75 278.75 417.75 261 417.75C243 417.75 228.25 432 228.25 449.5ZM234.25 177.25L238.25 353.25C238.5 368.25 246.5 376.5 261 376.5C274.75 376.5 283 368.5 283.25 353.25L287.25 177.5C287.5 162.5 276.25 151.5 260.75 151.5C245 151.5 234 162.25 234.25 177.25Z" fill="black" fill-opacity="0.85"/>
 </g>
</svg>
