<?xml version="1.0" encoding="UTF-8"?>
<!--Generator: Apple Native CoreSVG 326-->
<!DOCTYPE svg
PUBLIC "-//W3C//DTD SVG 1.1//EN"
       "http://www.w3.org/Graphics/SVG/1.1/DTD/svg11.dtd">
<svg version="1.1" xmlns="http://www.w3.org/2000/svg" xmlns:xlink="http://www.w3.org/1999/xlink" viewBox="0 0 438.75 645.75">
 <g>
  <rect height="645.75" opacity="0" width="438.75" x="0" y="0"/>
  <path d="M381.75 177.5L381.75 254.124C418.379 258.769 438.75 284.111 438.75 327L438.75 554.5C438.75 602.5 413.5 628.5 368.75 628.5L70 628.5C25 628.5 0 602.5 0 554.5L0 327C0 283.991 20.2818 258.628 57.25 254.087L57.25 177.5C57.25 61 133 0 219.25 0C305.75 0 381.75 61 381.75 177.5ZM193.5 528C193.5 541.75 205.25 553 219 553C233.5 553 245.25 541.75 245.25 528C245.25 513.75 233.5 502.5 219 502.5C205 502.5 193.5 514 193.5 528ZM198.75 342.5L201.75 459C202 470.75 208.25 477.5 219.25 477.5C230.25 477.5 236.5 470.75 236.75 459L240 342.75C240.25 331.25 231.25 322.5 219.25 322.5C207.25 322.5 198.5 331 198.75 342.5ZM101.25 172.25L101.25 253.25L337.75 253.25L337.75 172.25C337.75 89 284.5 41.75 219.25 41.75C154 41.75 101.25 89 101.25 172.25Z" fill="black" fill-opacity="0.85"/>
 </g>
</svg>
