<?xml version="1.0" encoding="UTF-8"?>
<!--Generator: Apple Native CoreSVG 326-->
<!DOCTYPE svg
PUBLIC "-//W3C//DTD SVG 1.1//EN"
       "http://www.w3.org/Graphics/SVG/1.1/DTD/svg11.dtd">
<svg version="1.1" xmlns="http://www.w3.org/2000/svg" xmlns:xlink="http://www.w3.org/1999/xlink" viewBox="0 0 737.5 533.75">
 <g>
  <rect height="533.75" opacity="0" width="737.5" x="0" y="0"/>
  <path d="M126 533.75L611.5 533.75C685 533.75 737.5 481.5 737.5 408.5C737.5 335.75 685 283.25 611.5 283.25L126 283.25C52.5 283.25 0 335.75 0 408.5C0 481.5 52.5 533.75 126 533.75ZM126 243.25L611.5 243.25C641.25 243.25 668.25 250.25 691.75 262.5L610.25 71.75C590.75 25.25 551.25 0.5 498.5 0.5L239 0.5C186.25 0.5 146.5 25.25 127.25 71.75L45.5 262.5C69 250.25 96.25 243.25 126 243.25ZM566.5 409.25C566.5 387.75 585.25 369 607.5 369C629 369 647.5 387.75 647.5 409.25C647.5 431.5 629 449.5 607.5 449.5C585.25 449.5 566.5 432 566.5 409.25Z" fill="black" fill-opacity="0.85"/>
 </g>
</svg>
