<?xml version="1.0" encoding="UTF-8"?>
<!--Generator: Apple Native CoreSVG 326-->
<!DOCTYPE svg
PUBLIC "-//W3C//DTD SVG 1.1//EN"
       "http://www.w3.org/Graphics/SVG/1.1/DTD/svg11.dtd">
<svg version="1.1" xmlns="http://www.w3.org/2000/svg" xmlns:xlink="http://www.w3.org/1999/xlink" viewBox="0 0 649.5 692.75">
 <g>
  <rect height="692.75" opacity="0" width="649.5" x="0" y="0"/>
  <path d="M346.75 553.108C367.715 560.036 384.474 576.628 391.614 597.5L588 597.5C600 597.5 610 607.5 610 619.5C610 631.75 600 641.75 588 641.75L392.12 641.75C382.965 670.357 356.061 691.25 324.75 691.25C293.439 691.25 266.371 670.357 257.154 641.75L61.5 641.75C49.5 641.75 39.25 631.75 39.25 619.5C39.25 607.5 49.5 597.5 61.5 597.5L257.663 597.5C264.825 576.703 281.59 560.156 302.5 553.191L302.5 470L346.75 470Z" fill="black" fill-opacity="0.85"/>
  <path d="M110.75 213.75L538.5 213.75C564.5 213.75 588.75 219.75 609.25 230.5L538 63C520.75 21.75 485.5 0 439 0L210.5 0C163.75 0 128.5 21.75 111.5 63L40.25 230.5C60.75 219.75 84.75 213.75 110.75 213.75ZM110.75 470L538.5 470C603.5 470 649.5 424.25 649.5 360C649.5 295.5 603.5 249 538.5 249L110.75 249C46 249 0 295.5 0 360C0 424.25 46 470 110.75 470ZM498.75 360C498.75 340.75 515.25 324.25 534.75 324.25C553.75 324.25 570.5 340.75 570.5 360C570.5 379.5 553.75 395.5 534.75 395.5C515.25 395.5 498.75 380 498.75 360Z" fill="black" fill-opacity="0.85"/>
 </g>
</svg>
