<?xml version="1.0" encoding="UTF-8"?>
<!--Generator: Apple Native CoreSVG 326-->
<!DOCTYPE svg
PUBLIC "-//W3C//DTD SVG 1.1//EN"
       "http://www.w3.org/Graphics/SVG/1.1/DTD/svg11.dtd">
<svg version="1.1" xmlns="http://www.w3.org/2000/svg" xmlns:xlink="http://www.w3.org/1999/xlink" viewBox="0 0 667.5 678.25">
 <g>
  <rect height="678.25" opacity="0" width="667.5" x="0" y="0"/>
  <path d="M431.75 290.5L286.75 435C274.25 447.5 258.25 451.75 245.5 438C232.25 423.5 235.25 410 249 395.75L393 251L368.5 226.75L105.75 489.5C7.5 587.75 53.5 574 0 649.5L27 678.25C100.25 625.25 91.25 676 191.25 576.5L455.25 314ZM502.5 348.5L510.75 339.5C525.75 323.25 526.75 304.5 510.25 288.5L500.5 278.75C549.25 235 604 228.25 637.5 194.5C684.75 146.5 669.5 79.75 636.25 46.25C603 12.75 536.75-1.5 488 45C453.75 78 447.5 133.25 403.75 182L394 172.25C378 155.75 359.25 156.75 343 171.75L334 180C314.5 198.25 318.5 215 334.75 231.5L451 347.75C467.5 364 484.25 368 502.5 348.5Z" fill="black" fill-opacity="0.85"/>
 </g>
</svg>
