<?xml version="1.0" encoding="UTF-8"?>
<!--Generator: Apple Native CoreSVG 326-->
<!DOCTYPE svg
PUBLIC "-//W3C//DTD SVG 1.1//EN"
       "http://www.w3.org/Graphics/SVG/1.1/DTD/svg11.dtd">
<svg version="1.1" xmlns="http://www.w3.org/2000/svg" xmlns:xlink="http://www.w3.org/1999/xlink" viewBox="0 0 1011.5 398.75">
 <g>
  <rect height="398.75" opacity="0" width="1011.5" x="0" y="0"/>
  <path d="M259.5 398.5C369.5 398.5 458.5 309.25 458.5 199.25C458.5 89.25 369.5 0 259.5 0C149.5 0 60 89.25 60 199.25C60 309.25 149.5 398.5 259.5 398.5ZM259.5 352.25C175 352.25 106.5 283.75 106.5 199.25C106.5 114.75 175 46.5 259.5 46.5C343.75 46.5 412.25 115 412.25 199.25C412.25 283.5 343.75 352.25 259.5 352.25ZM752.25 398.5C862 398.5 951.25 309.25 951.25 199.25C951.25 89.25 862 0 752.25 0C642 0 552.75 89.25 552.75 199.25C552.75 309.25 642 398.5 752.25 398.5ZM752.25 352.25C667.75 352.25 599.25 283.5 599.25 199.25C599.25 115 667.75 46.5 752.25 46.5C836.5 46.5 905 114.75 905 199.25C905 283.75 836.5 352.25 752.25 352.25ZM78.75 162.5L22.5 162.5C7.75 162.5 0 170 0 184.75L0 196.25C0 211 7.75 218.5 22.5 218.5L78.75 218.5ZM932.75 218.5L989 218.5C1003.75 218.5 1011.5 211 1011.5 196.25L1011.5 184.75C1011.5 170 1003.75 162.5 989 162.5L932.75 162.5ZM445.25 206.5C462.25 196.25 485 191.25 505.75 191.25C526.5 191.25 549.25 196.25 566.25 206.5L566.25 154C548 145.25 524 141.75 505.75 141.75C487.5 141.75 463.5 145.25 445.25 154Z" fill="black" fill-opacity="0.85"/>
 </g>
</svg>
