<?xml version="1.0" encoding="UTF-8"?>
<!--Generator: Apple Native CoreSVG 326-->
<!DOCTYPE svg
PUBLIC "-//W3C//DTD SVG 1.1//EN"
       "http://www.w3.org/Graphics/SVG/1.1/DTD/svg11.dtd">
<svg version="1.1" xmlns="http://www.w3.org/2000/svg" xmlns:xlink="http://www.w3.org/1999/xlink" viewBox="0 0 1011.5 732.126">
 <g>
  <rect height="732.126" opacity="0" width="1011.5" x="0" y="0"/>
  <path d="M284.883 215.724C276.664 214.163 268.165 213.438 259.5 213.438C175 213.438 106.5 281.688 106.5 366.188C106.5 450.688 175 519.188 259.5 519.188C343.75 519.188 412.25 450.438 412.25 366.188C412.25 357.481 411.518 348.943 409.945 340.686L457.259 387.962C446.489 487.739 362.135 565.438 259.5 565.438C155.999 565.438 70.6465 486.422 60.9755 385.438L22.5 385.438C7.75 385.438 0 377.938 0 363.188L0 351.688C0 336.938 7.75 329.438 22.5 329.438L63.5409 329.438C79.3914 244.063 149.939 177.838 237.358 168.238ZM947.719 329.438L989 329.438C1003.75 329.438 1011.5 336.938 1011.5 351.688L1011.5 363.188C1011.5 377.938 1003.75 385.438 989 385.438L950.277 385.438C941.847 473.786 875.638 545.318 790.021 561.739L747.197 518.932C748.844 519.16 750.544 519.188 752.25 519.188C836.5 519.188 905 450.688 905 366.188C905 281.688 836.5 213.438 752.25 213.438C667.75 213.438 599.25 281.938 599.25 366.188C599.25 367.915 599.279 369.635 599.509 371.304L540.72 312.539C546.968 313.851 553.133 315.61 558.918 317.817C580.355 231.128 658.751 166.938 752.25 166.938C849.458 166.938 930.584 236.955 947.719 329.438Z" fill="black" fill-opacity="0.85"/>
  <path d="M809.75 690.938C818.25 699.188 831.75 699.188 840 690.938C848.25 682.438 848.25 669.188 840 660.688L220.75 41.938C212.5 33.688 198.75 33.438 190.25 41.938C182.25 49.938 182.25 63.938 190.25 71.938Z" fill="black" fill-opacity="0.85"/>
 </g>
</svg>
