<?xml version="1.0" encoding="UTF-8"?>
<!--Generator: Apple Native CoreSVG 326-->
<!DOCTYPE svg
PUBLIC "-//W3C//DTD SVG 1.1//EN"
       "http://www.w3.org/Graphics/SVG/1.1/DTD/svg11.dtd">
<svg version="1.1" xmlns="http://www.w3.org/2000/svg" xmlns:xlink="http://www.w3.org/1999/xlink" viewBox="0 0 834.655 763.25">
 <g>
  <rect height="763.25" opacity="0" width="834.655" x="0" y="0"/>
  <path d="M417.452 571.25C470.952 571.25 508.202 553.75 508.202 531.5C508.202 509 471.202 491.75 417.452 491.75C363.702 491.75 326.452 509 326.452 531.5C326.452 553.75 363.702 571.25 417.452 571.25ZM417.452 168.5C491.452 168.5 566.202 118.25 566.202 54.5C566.202 33.75 555.202 21.5 530.702 13.75C500.202 4.25 458.952 0 417.452 0C375.702 0 334.452 4.25 303.952 13.75C279.702 21.5 268.702 33.5 268.702 54.5C268.702 118.25 343.202 168.5 417.452 168.5ZM417.452 131.75C359.202 131.75 311.702 99 305.452 56.25C305.202 53.5 306.202 51.25 311.452 49.25C341.702 41 378.952 36.25 417.452 36.25C455.702 36.25 492.952 41 523.202 49.25C528.702 51.25 529.702 53.5 529.452 56.25C522.952 99 475.452 131.75 417.452 131.75ZM395.202 147.25L395.202 368.5L439.452 368.5L439.452 147.25ZM417.452 387.25C449.202 387.25 479.452 396 499.702 408.25L534.202 385.5C506.952 362.75 464.452 348 417.452 348C370.702 348 328.702 362.5 301.452 384.75L337.452 407C357.452 395.25 386.452 387.25 417.452 387.25ZM417.452 629.5C507.202 629.5 566.452 590 566.452 531.5C566.452 472.75 507.202 433.5 417.452 433.5C327.702 433.5 268.202 472.75 268.202 531.5C268.202 590 327.702 629.5 417.452 629.5ZM417.452 590.25C350.952 590.25 307.452 566.25 307.452 531.5C307.452 496.5 350.952 472.75 417.452 472.75C483.702 472.75 527.202 496.5 527.202 531.5C527.202 566.25 483.702 590.25 417.452 590.25ZM417.452 433.5L113.952 278.25C14.7024 227.25-44.7976 356.5 41.9524 399L290.202 520.75L298.202 483.25L57.9524 365.5C11.9524 342.75 40.4524 282.5 96.9524 311.25L366.452 449.25ZM279.952 549.5L279.952 508.25L101.452 591C5.2024 636 73.7024 761.75 160.702 717.5L356.702 617.25L320.452 593.75L143.702 684.25C98.7024 707.25 67.9524 647.75 117.702 624.5ZM417.452 433.5L468.202 449.25L737.702 311.25C794.202 282.5 822.702 342.75 776.702 365.5L536.452 483.25L544.702 520.75L792.702 399C879.452 356.5 819.952 227.25 720.702 278.25ZM554.702 549.5L716.952 624.5C766.952 647.75 735.952 707.25 690.952 684.25L514.202 593.75L477.952 617.25L673.952 717.5C760.952 761.75 829.452 636 733.202 591L554.702 508.25Z" fill="black" fill-opacity="0.85"/>
 </g>
</svg>
