<?xml version="1.0" encoding="UTF-8"?>
<!--Generator: Apple Native CoreSVG 326-->
<!DOCTYPE svg
PUBLIC "-//W3C//DTD SVG 1.1//EN"
       "http://www.w3.org/Graphics/SVG/1.1/DTD/svg11.dtd">
<svg version="1.1" xmlns="http://www.w3.org/2000/svg" xmlns:xlink="http://www.w3.org/1999/xlink" viewBox="0 0 510.5 732.25">
 <g>
  <rect height="732.25" opacity="0" width="510.5" x="0" y="0"/>
  <path d="M510.5 255.25C510.5 388.75 408.25 498.25 277.5 509.5L277.5 678L368.75 678C395.75 678 412.5 693 412.5 714C412.5 724.75 405.75 732.25 395.25 732.25L115.25 732.25C104.75 732.25 98 724.75 98 714C98 693 114.75 678 141.75 678L233.25 678L233.25 509.5C102.5 498.25 0 389 0 255.25C0 114.25 114.25 0 255.25 0C396.25 0 510.5 114.25 510.5 255.25ZM91 171.75C91 211 122.75 232 182.5 251.5C182.25 257.5 182.5 263 183.5 267.75L122.25 267.75C92.75 267.75 76.75 282.75 76.75 311.5C76.75 365.5 125 419.5 172 419.5C211 419.5 232 387.75 251.5 328C257.5 328.25 263 328 268 327L268 388.5C268 417.75 282.75 433.75 311.5 433.75C365.75 433.75 419.5 385.5 419.5 338.5C419.5 299.5 387.75 278.5 328.25 259C328.5 253 328 247.5 327 242.5L388.5 242.5C417.75 242.5 434 227.75 434 199C434 144.75 385.75 91 338.75 91C299.5 91 278.5 122.75 259 182.25C253 182 247.5 182.5 242.75 183.5L242.75 122C242.75 92.75 227.75 76.5 199 76.5C145 76.5 91 125 91 171.75ZM293.5 255.25C293.5 276.25 276.5 293.25 255.5 293.25C234.5 293.25 217.5 276.25 217.5 255.25C217.5 234.25 234.5 217.25 255.5 217.25C276.5 217.25 293.5 234.25 293.5 255.25Z" fill="black" fill-opacity="0.85"/>
 </g>
</svg>
