<?xml version="1.0" encoding="UTF-8"?>
<!--Generator: Apple Native CoreSVG 326-->
<!DOCTYPE svg
PUBLIC "-//W3C//DTD SVG 1.1//EN"
       "http://www.w3.org/Graphics/SVG/1.1/DTD/svg11.dtd">
<svg version="1.1" xmlns="http://www.w3.org/2000/svg" xmlns:xlink="http://www.w3.org/1999/xlink" viewBox="0 0 640.75 732.25">
 <g>
  <rect height="732.25" opacity="0" width="640.75" x="0" y="0"/>
  <path d="M640.75 320.25C640.75 490 509 628.5 342.5 640L342.5 678L458 678C485 678 501.75 693 501.75 714C501.75 724.75 495 732.25 484.5 732.25L156.5 732.25C146 732.25 139.25 724.75 139.25 714C139.25 693 156 678 183 678L298.25 678L298.25 640C131.5 628.75 0 490 0 320.25C0 143.25 143.25 0 320.25 0C497.5 0 640.75 143.5 640.75 320.25ZM110.75 214.25C110.75 264 152 291 229.25 316.25C229 323 229.5 330 230.5 336.5L151 336.5C113 336.5 92.75 355.25 92.75 392.25C92.75 461 154.25 529.5 214 529.5C264 529.5 290.75 488.25 316.25 411.25C323.25 411.5 330.25 411 336.5 410L336.5 489.5C336.5 527.25 355.25 547.5 392.25 547.5C460.75 547.5 529.5 486.25 529.5 426.25C529.5 376.5 488.25 349.5 411.25 324.25C411.5 317 411.25 310 410.25 303.75L489.25 303.75C527.25 303.75 547.5 285.25 547.5 248C547.5 179.5 486.25 111 426.25 111C376.25 111 349.5 152.25 324 229.25C317.25 229 310.25 229.25 303.75 230.5L303.75 151C303.75 113 285 93 248 93C179.5 93 110.75 154.25 110.75 214.25ZM369.5 320.25C369.5 347.25 347.5 369.25 320.25 369.25C293.25 369.25 271.25 347.25 271.25 320.25C271.25 293 293.25 271 320.25 271C347.5 271 369.5 293 369.5 320.25Z" fill="black" fill-opacity="0.85"/>
 </g>
</svg>
