<?xml version="1.0" encoding="UTF-8"?>
<!--Generator: Apple Native CoreSVG 326-->
<!DOCTYPE svg
PUBLIC "-//W3C//DTD SVG 1.1//EN"
       "http://www.w3.org/Graphics/SVG/1.1/DTD/svg11.dtd">
<svg version="1.1" xmlns="http://www.w3.org/2000/svg" xmlns:xlink="http://www.w3.org/1999/xlink" viewBox="0 0 757.5 589.25">
 <g>
  <rect height="589.25" opacity="0" width="757.5" x="0" y="0"/>
  <path d="M59.75 589.25L697.75 589.25C734.5 589.25 757.5 566.5 757.5 530.5L757.5 59.75C757.5 24 734.5 1.25 697.75 1.25L59.75 1.25C23 1.25 0 24 0 59.75L0 530.5C0 566.5 23 589.25 59.75 589.25ZM60 544.75C48.75 544.75 41.75 537.75 41.75 527L41.75 486.25C41.75 477.25 48.25 470.5 58 470.5L105 470.5C114.25 470.5 120.75 477.25 120.75 486.25L120.75 529C120.75 538.25 114.25 544.75 105 544.75ZM58 437C48.25 437 41.75 430 41.75 421.5L41.75 380C41.75 370.25 48 363.75 58 363.75L105 363.75C114.25 363.75 120.75 370.25 120.75 380L120.75 421.5C120.75 430 114.25 437 105 437ZM58 331.75C48.25 331.75 41.75 324.75 41.75 316.25L41.75 274.75C41.75 265 48 258.75 58 258.75L105 258.75C114.25 258.75 120.75 265 120.75 274.75L120.75 316.25C120.75 324.75 114.25 331.75 105 331.75ZM58 227C48.25 227 41.75 219.75 41.75 211.75L41.75 169.75C41.75 160.25 48 153.75 58 153.75L105 153.75C114.25 153.75 120.75 160.25 120.75 169.75L120.75 211.75C120.75 219.75 114.25 227 105 227ZM58 119.75C48.25 119.75 41.75 113 41.75 104.5L41.75 63.75C41.75 52.75 48.75 45.5 60 45.5L105 45.5C114.25 45.5 120.75 52 120.75 61.5L120.75 104.5C120.75 113 114.25 119.75 105 119.75ZM652.5 544.75C643.25 544.75 636.75 538.25 636.75 529L636.75 486.25C636.75 477.25 643.25 470.5 652.5 470.5L699.5 470.5C709.25 470.5 715.75 477.25 715.75 486.25L715.75 527C715.75 537.75 708.75 544.75 697.5 544.75ZM652.5 437C643.25 437 636.75 430 636.75 421.5L636.75 380C636.75 370.25 643.25 363.75 652.5 363.75L699.5 363.75C709.5 363.75 715.75 370.25 715.75 380L715.75 421.5C715.75 430 709.25 437 699.5 437ZM652.5 331.75C643.25 331.75 636.75 324.75 636.75 316.25L636.75 274.75C636.75 265 643.25 258.75 652.5 258.75L699.5 258.75C709.5 258.75 715.75 265 715.75 274.75L715.75 316.25C715.75 324.75 709.25 331.75 699.5 331.75ZM652.5 227C643.25 227 636.75 219.75 636.75 211.75L636.75 169.75C636.75 160.25 643.25 153.75 652.5 153.75L699.5 153.75C709.5 153.75 715.75 160.25 715.75 169.75L715.75 211.75C715.75 219.75 709.25 227 699.5 227ZM152.5 295.25C152.5 283.5 161.75 274.25 173.25 274.25L584.25 274.25C595.75 274.25 605 283.5 605 295.25C605 306.75 595.75 316 584.25 316L173.25 316C161.75 316 152.5 306.75 152.5 295.25ZM652.5 119.75C643.25 119.75 636.75 113 636.75 104.5L636.75 61.5C636.75 52 643.25 45.5 652.5 45.5L697.5 45.5C708.75 45.5 715.75 52.75 715.75 63.75L715.75 104.5C715.75 113 709.25 119.75 699.5 119.75Z" fill="black" fill-opacity="0.85"/>
 </g>
</svg>
