<?xml version="1.0" encoding="UTF-8"?>
<!--Generator: Apple Native CoreSVG 326-->
<!DOCTYPE svg
PUBLIC "-//W3C//DTD SVG 1.1//EN"
       "http://www.w3.org/Graphics/SVG/1.1/DTD/svg11.dtd">
<svg version="1.1" xmlns="http://www.w3.org/2000/svg" xmlns:xlink="http://www.w3.org/1999/xlink" viewBox="0 0 822.75 785.25">
 <g>
  <rect height="785.25" opacity="0" width="822.75" x="0" y="0"/>
  <path d="M670.5 282.25C675.75 282.25 679.75 278.5 680.75 273.5C694.75 198.5 693.5 202 766.75 187.75C771.75 186.75 775.5 183.25 775.5 177.25C775.5 172 771.5 168.25 766.75 167C693.25 152.5 694.75 155.25 680.75 81C679.75 76.25 675.75 72.25 670.5 72.25C664.5 72.25 661 76 660 81C645.75 155.75 644.5 153.25 574.25 167C569.25 168.25 565.5 172 565.5 177.25C565.5 183.25 569 186.75 574.25 187.75C644.5 201.5 645.75 198.75 660 273.5C661 278.75 664.5 282.25 670.5 282.25ZM343.5 785.25C348.25 785.25 351.25 782.25 352 777.5C365 716.75 365 716.75 425.25 704.5C429.75 703.75 433 700.75 433 696C433 691.25 429.75 688 425.25 687.25C365 675 365 675 352 614.25C351.25 609.5 348.25 606.5 343.5 606.5C339 606.5 336 609.5 335 614.25C322.25 674.75 322.5 675 262 687.25C257.5 688 254.25 691.25 254.25 696C254.25 700.75 257.5 703.75 262 704.5C322.5 716.75 322.25 717 335 777.5C336 782.25 339 785.25 343.5 785.25ZM178.75 682.75C182.75 682.75 185.25 680.5 185.75 676.5C196 626.75 196 626.75 245.25 617C249.25 616.25 251.75 614 251.75 609.75C251.75 605.75 249.25 603 245.25 602.5C196 592.75 196 592.75 185.75 543C185.25 539.25 182.75 536.75 178.75 536.75C174.5 536.75 172.25 539.25 171.75 543C161.25 592.5 161.25 592.75 112 602.5C108.25 603 105.5 605.75 105.5 609.75C105.5 614 108.25 616.25 112 617C161.25 626.75 161.25 627 171.75 676.5C172.25 680.5 174.5 682.75 178.75 682.75Z" fill="black" fill-opacity="0.85"/>
  <path d="M645.75 654.25C654.75 654.25 662.25 647 662.25 638L662.25 583.75L691.75 613C698 619.5 708 619.75 714.25 613C721.25 606.5 721.25 596.5 714.5 590L685.25 560.75L739.25 560.75C748.25 560.75 755.75 553.5 755.75 544.25C755.75 535.5 748.25 528.25 739.25 528.25L685 528.25L714.5 498.75C721 492.25 721 482.25 714.25 476C708 469.25 698 469.25 691.5 475.75L662.25 505.25L662.25 451C662.25 442 654.75 434.75 645.75 434.75C636.75 434.75 629.5 442 629.5 451L629.5 505.25L600.25 475.75C593.75 469.25 583.75 469.25 577 476C570.5 482.25 570.5 492.25 577 498.75L606.5 528.25L552 528.25C543.25 528.25 536 535.5 536 544.25C536 553.5 543.25 560.75 552 560.75L606.25 560.75L577.25 590C570.5 596.75 570.5 606.5 577.25 613C583.5 619.75 593.5 619.75 600 613L629.5 583.75L629.5 638C629.5 647 636.75 654.25 645.75 654.25ZM646 413C658.5 413 668.5 403 668.5 390.25C668.5 377.5 658.5 367.5 646 367.5C633.25 367.5 623.25 377.5 623.25 390.25C623.25 403 633.25 413 646 413ZM751.5 459.75C763.25 459.75 772.75 450.5 772.75 438.5C772.75 426.5 763.25 417.25 751.5 417.25C739.5 417.25 730.25 426.5 730.25 438.5C730.25 450.5 739.5 459.75 751.5 459.75ZM800.25 567.25C812.75 567.25 822.75 557 822.75 544.5C822.75 532 812.75 522 800.25 522C787.25 522 777.5 532 777.5 544.5C777.5 557 787.25 567.25 800.25 567.25ZM751.5 671.75C763.25 671.75 772.75 662.25 772.75 650.5C772.75 638.5 763.25 629.25 751.5 629.25C739.5 629.25 730.25 638.5 730.25 650.5C730.25 662.25 739.5 671.75 751.5 671.75ZM646 721.5C658.5 721.5 668.5 711.5 668.5 698.75C668.5 686 658.5 676 646 676C633.25 676 623.25 686 623.25 698.75C623.25 711.5 633.25 721.5 646 721.5ZM540.25 671.5C552.25 671.5 561.5 662.25 561.5 650.5C561.5 638.5 552.25 629.25 540.25 629.25C528.5 629.25 519 638.5 519 650.5C519 662.25 528.5 671.5 540.25 671.5ZM491.5 567.25C504.5 567.25 514.5 557 514.25 544.5C514.5 532 504.5 522 491.5 522C479 522 469 532 469 544.5C469 557 479 567.25 491.5 567.25ZM540.25 459.75C552.25 459.75 561.5 450.5 561.5 438.5C561.5 426.5 552.25 417.25 540.25 417.25C528.5 417.25 519 426.5 519 438.5C519 450.5 528.5 459.75 540.25 459.75Z" fill="black" fill-opacity="0.85"/>
  <path d="M247.75 343.5C257 343.5 264.75 336.5 264.75 326.75L264.5 286.25L293 315.25C299.5 322 310.5 322 317.25 315.25C323.5 308.75 323.75 297.75 317.25 291.25L287.75 262.75L328.5 262.75C338 262.75 345.5 255.25 345.5 246C345.5 236.75 338 229.25 328.5 229.25L288.25 229.25L316.75 201C323.75 194.25 323.5 183.5 316.75 176.75C310.25 170.5 299.5 170 292.5 176.75L264.75 205.5L264.5 165.25C264.5 155.75 257.25 148.5 247.5 148.5C238.5 148.5 230.75 155.75 230.75 165.25L231 205.5L202.5 176.75C196 170.25 185 170.25 178.25 176.75C172 183.25 171.75 194.5 178.25 201L207.25 229.25L166.75 229.25C157.5 229.25 150 236.75 150 246C150 255.25 157.5 262.75 166.75 262.75L207.5 262.75L178.25 291.25C171.75 298 171.75 308.5 178.25 315.25C185 321.75 196 322.25 202.5 315.25L230.75 286.25L231 326.75C231 336.5 238 343.5 247.75 343.5ZM248 106.5C258 106.5 266.25 98.25 266.25 88L266.25 18.75C266.25 8.75 258 0.5 248 0.5C237.75 0.5 229.5 8.75 229.5 18.75L229.5 88C229.5 98.25 237.75 106.5 248 106.5ZM318.75 125.5C327.75 130.75 338.75 127.5 343.75 118.75L378.5 58.75C383.75 49.75 380.5 38.5 372 33.75C363 28.5 352.25 31.5 347 40.5L312 100.25C307 109.25 310 120.5 318.75 125.5ZM370.75 177.25C376 186.25 387.25 188.75 395.75 184L456 149.5C464.5 144.5 467.5 133 462.5 124.25C457.5 115.5 446.25 112.75 437.5 117.75L377.25 152.25C368.75 157 365.75 168.75 370.75 177.25ZM389.5 248C389.5 258.5 398 266.5 408 266.5L477.25 266.75C487.5 266.75 496 258.25 496 248.25C496 238 487.5 230 477.5 230L408 229.75C398 229.75 389.5 238.25 389.5 248ZM370.75 319C365.75 328 369 339 377.25 344L437.25 378.75C446.25 384 457.5 380.75 462.5 372.25C467.5 363.25 464.25 352.25 456 347.25L395.75 312.25C387.5 307.5 375.5 310.25 370.75 319ZM318.75 370.75C309.75 376.25 307.25 387.5 312 395.75L346.75 456C351.75 464.75 363.25 468 372 463C380.75 457.75 383.25 446.5 378.25 438L343.75 377.5C339 369.25 327.25 365.75 318.75 370.75ZM248 390C237.75 390 229.5 398.25 229.5 408.25L229.5 477.75C229.5 487.75 237.75 496 248 496C258 496 266.25 487.75 266.25 477.75L266.25 408.25C266.25 398.25 258 390 248 390ZM177.25 371C168.25 365.75 157.25 369 152 377.75L117.25 437.75C112 446.5 115.25 457.75 124 462.75C133 468 143.75 465 149 456L183.75 396C189 387.25 185.75 376 177.25 371ZM125.25 319.25C120 310.25 108.75 307.75 100.25 312.5L40 347C31.25 352 28.25 363.5 33.25 372C38.5 381 49.75 383.75 58.5 378.75L118.5 344.25C127 339.25 130.25 327.75 125.25 319.25ZM106.25 248.25C106.25 237.75 97.75 230 88 230L18.5 229.75C8.5 229.75 0 238.25 0 248C0 258.5 8.5 266.5 18.25 266.5L88 266.75C97.75 266.75 106.5 258.25 106.25 248.25ZM125.25 177.5C130.25 168.25 126.75 157.25 118.5 152.5L58.75 117.75C49.75 112.5 38.5 115.75 33.25 124C28.25 133.25 31.5 144.25 40 149.25L100.25 184.25C108.5 189 120.5 186.25 125.25 177.5ZM177.25 125.75C186 120.25 188.75 109 183.75 100.5L149.25 40.5C144.25 31.75 132.75 28.5 124 33.5C115 38.5 112.5 49.75 117.5 58.5L152 119C157 127.25 168.5 130.75 177.25 125.75Z" fill="black" fill-opacity="0.85"/>
 </g>
</svg>
