<?xml version="1.0" encoding="UTF-8"?>
<!--Generator: Apple Native CoreSVG 326-->
<!DOCTYPE svg
PUBLIC "-//W3C//DTD SVG 1.1//EN"
       "http://www.w3.org/Graphics/SVG/1.1/DTD/svg11.dtd">
<svg version="1.1" xmlns="http://www.w3.org/2000/svg" xmlns:xlink="http://www.w3.org/1999/xlink" viewBox="0 0 717 625.75">
 <g>
  <rect height="625.75" opacity="0" width="717" x="0" y="0"/>
  <path d="M32.5 134.75L684.25 134.75C703.75 134.75 717 121.5 717 102L717 32.5C717 13 703.75 0 684.25 0L32.5 0C13 0 0 13 0 32.5L0 102C0 121.5 13 134.75 32.5 134.75ZM71.75 600.5L645.25 600.5L645.25 169.5L71.75 169.5ZM174.75 580L174.75 270C174.75 242.25 191.75 225 219.5 225L497.5 225C525 225 542.25 242.25 542.25 270L542.25 580L506.75 580L506.75 279C506.75 267.25 499.75 260.25 488.5 260.25L228.5 260.25C217 260.25 210.25 267.25 210.25 279L210.25 580ZM355.75 547.75C305.25 547.75 272 519 272 475.25C272 437 290.25 423.75 290.25 395.75C290.25 391.75 289.75 386 289.75 383.25C289.75 379.75 292 377.5 295.5 377.5C304.75 377.5 317 385.75 323.25 397.75C325.25 372.25 314.25 352.25 299.25 333.25C292.5 324.75 297.75 316.75 310.75 316.75C368 316.75 449.25 356.75 449.25 452.5C449.25 509.75 412 547.75 355.75 547.75ZM358.5 517.5C383.5 517.5 395.5 499.25 395.5 478.5C395.5 453.25 377.75 431.5 359.25 423.75C362.5 442 359.25 457 353.25 466C350.5 459.25 346.75 453.5 341.25 450C339 463 325.75 469.5 325.75 488C325.75 505.75 339 517.5 358.5 517.5ZM24 624.25L693 624.25C705.25 624.25 715.25 614.25 715.25 602.25C715.25 590 705.25 580 693 580L24 580C12 580 2 590 2 602.25C2 614.25 12 624.25 24 624.25Z" fill="black" fill-opacity="0.85"/>
 </g>
</svg>
