<?xml version="1.0" encoding="UTF-8"?>
<!--Generator: Apple Native CoreSVG 326-->
<!DOCTYPE svg
PUBLIC "-//W3C//DTD SVG 1.1//EN"
       "http://www.w3.org/Graphics/SVG/1.1/DTD/svg11.dtd">
<svg version="1.1" xmlns="http://www.w3.org/2000/svg" xmlns:xlink="http://www.w3.org/1999/xlink" viewBox="0 0 709.876 820.25">
 <g>
  <rect height="820.25" opacity="0" width="709.876" x="0" y="0"/>
  <path d="M520.273 558.545C410.918 556.486 338.483 500.75 222.563 500.75C173.313 500.75 143.313 513.25 134.063 516L134.063 700.5C134.063 712.25 124.813 721.75 113.063 721.75C101.813 721.75 92.063 712 92.063 700.5L92.063 166.25C92.063 154.886 94.6399 145.584 99.2751 137.924ZM522.813 157.25C578.313 157.25 608.063 143.25 623.563 143.25C640.313 143.25 653.313 152.25 653.313 168.5L653.313 491.75C653.313 504.882 649.872 515.261 643.834 523.544L219.375 99.2745C336.906 99.5218 409.829 157.25 522.813 157.25Z" fill="black" fill-opacity="0.85"/>
  <path d="M638.563 627.75C647.063 636 660.813 636 668.813 627.75C677.063 619.25 677.063 606 668.813 597.5L112.063 41C103.813 32.75 90.063 32.5 81.563 41C73.563 49.25 73.563 63 81.563 71.25Z" fill="black" fill-opacity="0.85"/>
 </g>
</svg>
