<?xml version="1.0" encoding="UTF-8"?>
<!--Generator: Apple Native CoreSVG 326-->
<!DOCTYPE svg
PUBLIC "-//W3C//DTD SVG 1.1//EN"
       "http://www.w3.org/Graphics/SVG/1.1/DTD/svg11.dtd">
<svg version="1.1" xmlns="http://www.w3.org/2000/svg" xmlns:xlink="http://www.w3.org/1999/xlink" viewBox="0 0 651.25 651.75">
 <g>
  <rect height="651.75" opacity="0" width="651.25" x="0" y="0"/>
  <path d="M325.5 651.25C505.25 651.25 651.25 505.5 651.25 325.75C651.25 146 505.25 0 325.5 0C145.75 0 0 146 0 325.75C0 505.5 145.75 651.25 325.5 651.25ZM325.5 604.75C171.25 604.75 46.5 480 46.5 325.75C46.5 171.5 171.25 46.75 325.5 46.75C479.75 46.75 604.5 171.5 604.5 325.75C604.5 480 479.75 604.75 325.5 604.75Z" fill="black" fill-opacity="0.85"/>
  <path d="M201.75 498.25C209.75 498.25 215 492.25 215 485L215 387.75C221.25 385.25 234.5 381 255.25 381C313.25 381 349 409.75 405.75 409.75C429.25 409.75 440 407.25 452.25 401.5C465.25 395.5 471 387 471 374L471 214.25C471 205.25 466.5 199.25 454.5 199.25C445.5 199.25 431 206.25 404 206.25C348.5 206.25 312.25 177.25 253.5 177.25C229.25 177.25 218.5 180.25 207.25 185.25C194.5 190.75 188.25 200.25 188.25 212.75L188.25 485C188.25 492 194.5 498.25 201.75 498.25Z" fill="black" fill-opacity="0.85"/>
 </g>
</svg>
