<?xml version="1.0" encoding="UTF-8"?>
<!--Generator: Apple Native CoreSVG 326-->
<!DOCTYPE svg
PUBLIC "-//W3C//DTD SVG 1.1//EN"
       "http://www.w3.org/Graphics/SVG/1.1/DTD/svg11.dtd">
<svg version="1.1" xmlns="http://www.w3.org/2000/svg" xmlns:xlink="http://www.w3.org/1999/xlink" viewBox="0 0 651.25 651.75">
 <g>
  <rect height="651.75" opacity="0" width="651.25" x="0" y="0"/>
  <path d="M325.5 651.25C505.25 651.25 651.25 505.5 651.25 325.75C651.25 146 505.25 0 325.5 0C145.75 0 0 146 0 325.75C0 505.5 145.75 651.25 325.5 651.25ZM325.5 604.75C171.25 604.75 46.5 480 46.5 325.75C46.5 171.5 171.25 46.75 325.5 46.75C479.75 46.75 604.5 171.5 604.5 325.75C604.5 480 479.75 604.75 325.5 604.75Z" fill="black" fill-opacity="0.85"/>
  <path d="M400.5 462.75C406.75 459.5 408.75 451.75 405.25 445.75L261.75 197.5C255.75 187.25 247.25 184.75 237.5 184.75C228.25 184.75 217 190.25 207 195.5C173.25 215.75 161 244.75 128.75 263C114.75 271.25 102.5 274.25 96.5 277.75C88.75 282 84.75 290.5 89.5 299L143.5 392C148.5 401 155.5 405.5 166.25 405.5C177.5 405.5 189 399.75 198.5 394.25C232.75 374.25 245.25 344.75 277 326.75C286.5 321 295.25 318 301.75 315.75L383.75 458C387.25 464.25 394.5 466.25 400.5 462.75ZM484.25 405.5C494.75 405.5 501.75 401 507 392.25L560.75 299.25C565.75 290.5 561.75 282.25 554 278C548 274.25 535.75 271.25 521.75 263C489.5 244.75 477.25 215.75 443.25 195.75C433.5 190.25 422.25 184.75 413 184.75C403.25 184.75 394.75 187.25 388.75 197.75L337.75 286L356.75 318.75C395.75 332.25 418.75 375 452 394.25C461.5 399.75 473 405.5 484.25 405.5ZM250 463C255.75 466.75 263 464.25 266.75 458L313 378L298.75 353.5L245.25 446C242 451.75 243.75 459.75 250 463Z" fill="black" fill-opacity="0.85"/>
 </g>
</svg>
