<?xml version="1.0" encoding="UTF-8"?>
<!--Generator: Apple Native CoreSVG 326-->
<!DOCTYPE svg
PUBLIC "-//W3C//DTD SVG 1.1//EN"
       "http://www.w3.org/Graphics/SVG/1.1/DTD/svg11.dtd">
<svg version="1.1" xmlns="http://www.w3.org/2000/svg" xmlns:xlink="http://www.w3.org/1999/xlink" viewBox="0 0 651.25 651.75">
 <g>
  <rect height="651.75" opacity="0" width="651.25" x="0" y="0"/>
  <path d="M651.25 325.75C651.25 505.5 505.25 651.25 325.5 651.25C145.75 651.25 0 505.5 0 325.75C0 146 145.75 0 325.5 0C505.25 0 651.25 146 651.25 325.75ZM46.5 325.75C46.5 480 171.25 604.75 325.5 604.75C479.75 604.75 604.5 480 604.5 325.75C604.5 171.5 479.75 46.75 325.5 46.75C171.25 46.75 46.5 171.5 46.5 325.75Z" fill="black" fill-opacity="0.85"/>
  <path d="M352.843 401.843C321.739 393.358 293.276 381 255.25 381C234.5 381 221.25 385.25 215 387.75L215 485C215 492.25 209.75 498.25 201.75 498.25C194.5 498.25 188.25 492 188.25 485L188.25 237.25ZM404 206.25C431 206.25 445.5 199.25 454.5 199.25C466.5 199.25 471 205.25 471 214.25L471 374C471 387 465.25 395.5 452.25 401.5C451.856 401.685 451.464 401.866 451.077 402.035L228.136 178.909C234.769 177.831 242.827 177.25 253.5 177.25C312.25 177.25 348.5 206.25 404 206.25Z" fill="black" fill-opacity="0.85"/>
  <path d="M468 486.25C473 491.5 481.5 491.5 486.75 486.25C492 481 492 473 486.75 467.5L184 164.75C178.75 159.5 170.25 159.5 165 164.75C159.75 170 160 178.5 165 183.5Z" fill="black" fill-opacity="0.85"/>
 </g>
</svg>
