<?xml version="1.0" encoding="UTF-8"?>
<!--Generator: Apple Native CoreSVG 326-->
<!DOCTYPE svg
PUBLIC "-//W3C//DTD SVG 1.1//EN"
       "http://www.w3.org/Graphics/SVG/1.1/DTD/svg11.dtd">
<svg version="1.1" xmlns="http://www.w3.org/2000/svg" xmlns:xlink="http://www.w3.org/1999/xlink" viewBox="0 0 651.25 651.75">
 <g>
  <rect height="651.75" opacity="0" width="651.25" x="0" y="0"/>
  <path d="M651.25 326C651.25 505.5 505 651.75 325.5 651.75C146.25 651.75 0 505.5 0 326C0 146.75 146.25 0.5 325.5 0.5C505 0.5 651.25 146.75 651.25 326ZM204.5 182C191.5 187.75 185 197.25 185 210.25L185 489C185 496.25 191.25 502.75 199 502.75C207 502.75 212.5 496.5 212.5 489L212.5 389.5C219 386.75 232.5 382.75 253.75 382.75C313 382.75 349.75 412 407.75 412C432 412 443 409.5 455.5 403.75C468.75 397.25 475 388.75 475 375L475 211.75C475 202.5 470 196 458 196C448.5 196 433.75 203.5 406 203.5C349.25 203.5 312 173.5 252 173.5C227 173.5 216 176.75 204.5 182Z" fill="black" fill-opacity="0.85"/>
 </g>
</svg>
