<?xml version="1.0" encoding="UTF-8"?>
<!--Generator: Apple Native CoreSVG 326-->
<!DOCTYPE svg
PUBLIC "-//W3C//DTD SVG 1.1//EN"
       "http://www.w3.org/Graphics/SVG/1.1/DTD/svg11.dtd">
<svg version="1.1" xmlns="http://www.w3.org/2000/svg" xmlns:xlink="http://www.w3.org/1999/xlink" viewBox="0 0 1206.75 731.71">
 <g>
  <rect height="731.71" opacity="0" width="1206.75" x="0" y="0"/>
  <path d="M583.224 463.504L455.749 684.23C449.999 694.23 437.499 697.73 427.499 691.98C417.499 686.23 413.999 673.23 419.749 663.23L559.176 421.891ZM819.249 35.2299C838.499 37.4799 864.249 47.7299 886.749 60.9799C966.499 107.48 996.999 178.98 1076.25 224.98C1111 244.73 1141 251.98 1155.25 259.73C1170 268.48 1176.5 282.98 1167.5 298.48L1036.5 525.73C1023.75 547.73 1005.5 553.98 984.499 551.98C964.999 549.98 939.499 539.48 916.999 526.23C837.249 479.73 806.749 408.23 727.499 362.23C698.999 345.98 673.499 337.73 658.749 332.73L647.527 352.162L623.485 310.577L767.249 61.7299C779.999 39.4799 798.249 33.2299 819.249 35.2299ZM680.749 294.73C705.249 302.23 730.249 315.48 748.249 325.98C832.749 374.48 861.499 445.98 937.999 489.98C946.249 494.98 972.749 509.98 996.999 510.48L1122.75 292.48C1098.25 284.98 1073.5 271.48 1055.5 261.23C971.249 212.48 942.249 141.23 865.999 97.2299C857.249 92.2299 831.249 77.2299 806.749 76.4799Z" fill="black" fill-opacity="0.85"/>
  <path d="M786.999 663.23L439.249 61.7299C426.499 39.4799 408.499 33.2299 387.249 35.2299C367.999 37.4799 342.499 47.7299 319.749 60.9799C239.999 107.48 209.749 178.98 130.249 224.98C95.7494 244.73 65.4994 251.98 51.4994 259.73C36.4994 268.48 29.9994 282.98 38.9994 298.48L170.249 525.73C182.999 547.73 201.249 553.98 222.249 551.98C241.499 549.98 267.249 539.48 289.499 526.23C369.499 479.73 399.999 408.23 479.249 362.23C507.499 345.98 532.999 337.73 547.749 332.73L750.999 684.23C756.749 694.23 768.999 697.73 779.249 691.98C788.999 686.23 792.749 673.23 786.999 663.23ZM525.749 294.73C501.249 302.23 476.499 315.48 458.249 325.98C373.999 374.48 345.249 445.98 268.749 489.98C260.249 494.98 233.999 509.98 209.749 510.48L83.7494 292.48C108.499 284.98 132.999 271.48 151.249 261.23C235.499 212.48 264.499 141.23 340.749 97.2299C349.249 92.2299 375.499 77.2299 399.749 76.4799Z" fill="black" fill-opacity="0.85"/>
 </g>
</svg>
