<?xml version="1.0" encoding="UTF-8"?>
<!--Generator: Apple Native CoreSVG 326-->
<!DOCTYPE svg
PUBLIC "-//W3C//DTD SVG 1.1//EN"
       "http://www.w3.org/Graphics/SVG/1.1/DTD/svg11.dtd">
<svg version="1.1" xmlns="http://www.w3.org/2000/svg" xmlns:xlink="http://www.w3.org/1999/xlink" viewBox="0 0 587.75 587.75">
 <g>
  <rect height="587.75" opacity="0" width="587.75" x="0" y="0"/>
  <path d="M97.25 587.75L490.25 587.75C555 587.75 587.75 555 587.75 491.5L587.75 96.5C587.75 32.75 555 0 490.25 0L97.25 0C32.75 0 0 32.5 0 96.5L0 491.5C0 555.5 32.75 587.75 97.25 587.75ZM98.25 543.5C63.25 543.5 44.25 525 44.25 489L44.25 98.75C44.25 63 63.25 44.25 98.25 44.25L489.5 44.25C523.75 44.25 543.5 63 543.5 98.75L543.5 489C543.5 525 523.75 543.5 489.5 543.5Z" fill="black" fill-opacity="0.85"/>
  <path d="M170.5 466.25C178.25 466.25 183.75 460.25 183.75 453L183.75 355.75C190 353.25 203.25 349 224 349C281.75 349 317.5 377.75 374.5 377.75C398 377.75 408.75 375.25 421 369.5C434 363.5 439.75 355 439.75 342L439.75 182.25C439.75 173.25 435 167.25 423.25 167.25C414.25 167.25 399.75 174.25 372.75 174.25C317.25 174.25 281 145.25 222.25 145.25C198 145.25 187.25 148.25 176 153.25C163.25 158.75 157 168.25 157 180.75L157 453C157 460 163 466.25 170.5 466.25Z" fill="black" fill-opacity="0.85"/>
 </g>
</svg>
