<?xml version="1.0" encoding="UTF-8"?>
<!--Generator: Apple Native CoreSVG 326-->
<!DOCTYPE svg
PUBLIC "-//W3C//DTD SVG 1.1//EN"
       "http://www.w3.org/Graphics/SVG/1.1/DTD/svg11.dtd">
<svg version="1.1" xmlns="http://www.w3.org/2000/svg" xmlns:xlink="http://www.w3.org/1999/xlink" viewBox="0 0 587.75 587.75">
 <g>
  <rect height="587.75" opacity="0" width="587.75" x="0" y="0"/>
  <path d="M587.75 96.5L587.75 491.5C587.75 555 555 587.75 490.25 587.75L97.25 587.75C32.75 587.75 0 555.5 0 491.5L0 96.5C0 32.5 32.75 0 97.25 0L490.25 0C555 0 587.75 32.75 587.75 96.5ZM173 149.5C160 155.25 153.5 165 153.5 177.75L153.5 456.75C153.5 464 159.75 470.5 167.5 470.5C175.5 470.5 181 464.25 181 456.75L181 357C187.5 354.5 201 350.25 222.25 350.25C281.25 350.25 318 379.5 376.25 379.5C400.5 379.5 411.5 377 424 371.25C437.25 365 443.5 356.25 443.5 342.75L443.5 179.25C443.5 170 438.5 163.75 426.25 163.75C417 163.75 402.25 171 374.5 171C317.75 171 280.5 141.25 220.5 141.25C195.5 141.25 184.5 144.25 173 149.5Z" fill="black" fill-opacity="0.85"/>
 </g>
</svg>
