<?xml version="1.0" encoding="UTF-8"?>
<!--Generator: Apple Native CoreSVG 326-->
<!DOCTYPE svg
PUBLIC "-//W3C//DTD SVG 1.1//EN"
       "http://www.w3.org/Graphics/SVG/1.1/DTD/svg11.dtd">
<svg version="1.1" xmlns="http://www.w3.org/2000/svg" xmlns:xlink="http://www.w3.org/1999/xlink" viewBox="0 0 596.25 661.25">
 <g>
  <rect height="661.25" opacity="0" width="596.25" x="0" y="0"/>
  <path d="M439 23C439 35.5 429.5 46.25 416 46.25L412.5 46.25L412.5 287L574.25 519.25C589.5 541.25 596.25 562 596.25 577.75C596.25 624 564.75 660.75 512.5 660.75L83.5 660.75C31.5 660.75 0 624 0 577.75C0 562 5.75 542.5 19.75 522.5L183.75 287L183.75 46.25L180.25 46.25C166.5 46.25 157 35.5 157 23C157 10.25 166.5 0 180.25 0L416 0C429.5 0 439 10.25 439 23ZM228 277.25L228 310.5L289.75 310.5C299 310.5 306.25 303.25 306.25 293.75C306.25 284.75 298.75 277.25 289.75 277.25ZM228 188.25L228 221.25L289.75 221.25C299 221.25 306.25 214 306.25 204.5C306.25 195.75 298.5 188.25 289.5 188.25ZM228 99L228 132.25L289.5 132.25C298.75 132.25 306 125 306 115.5C306 106.5 298.25 99 289.25 99Z" fill="black" fill-opacity="0.85"/>
 </g>
</svg>
