<?xml version="1.0" encoding="UTF-8"?>
<!--Generator: Apple Native CoreSVG 326-->
<!DOCTYPE svg
PUBLIC "-//W3C//DTD SVG 1.1//EN"
       "http://www.w3.org/Graphics/SVG/1.1/DTD/svg11.dtd">
<svg version="1.1" xmlns="http://www.w3.org/2000/svg" xmlns:xlink="http://www.w3.org/1999/xlink" viewBox="0 0 757.5 628.25">
 <g>
  <rect height="628.25" opacity="0" width="757.5" x="0" y="0"/>
  <path d="M97.25 607.75L660 607.75C724.75 607.75 757.5 575 757.5 511.5L757.5 198.75C757.5 135 724.75 102.5 660 102.5L613.75 102.5L613.75 146.75L659.25 146.75C693.5 146.75 713 165.25 713 201L713 509C713 545 693.5 563.5 659.25 563.5L98.25 563.5C63.25 563.5 44.25 545 44.25 509L44.25 201C44.25 165.25 63.25 146.75 98.25 146.75L469.75 146.75L469.75 102.5L97.25 102.5C32.75 102.5 0 134.75 0 198.75L0 511.5C0 575.5 32.75 607.75 97.25 607.75ZM79 586.75L680 586.75C716.75 586.75 742.25 558.5 742.25 518.75L742.25 385C708.5 383.75 682.25 370.75 664.75 350.5C657.75 342.25 650.25 342.5 643.25 350.5C623.75 372.75 594.5 385.25 562.5 385.25C530.25 385.25 501 372.75 481.5 350.5C474.5 342.5 467 342.25 460 350.5C441.5 372 411.5 385.25 378.75 385.25C345.75 385.25 315.75 372 297.5 350.5C290.5 342.25 283 342.5 275.75 350.5C256.5 372.75 227 385.25 195 385.25C163 385.25 133.5 372.75 114.25 350.5C107.25 342.5 99.5 342.25 92.5 350.5C75.25 370.75 49 383.75 15.25 385L15.25 518.75C15.25 558.5 40.75 586.75 79 586.75ZM446 145.5L487.75 145.5L487.75 24.5L446 24.5ZM589.25 145.5L631 145.5L631 24.5L589.25 24.5ZM413 44.25L663.75 44.25C676.5 44.25 686 34.25 686 22C686 10 676.5 0 663.75 0L413 0C401 0 391 10 391 22C391 34.25 401 44.25 413 44.25Z" fill="black" fill-opacity="0.85"/>
 </g>
</svg>
