<?xml version="1.0" encoding="UTF-8"?>
<!--Generator: Apple Native CoreSVG 326-->
<!DOCTYPE svg
PUBLIC "-//W3C//DTD SVG 1.1//EN"
       "http://www.w3.org/Graphics/SVG/1.1/DTD/svg11.dtd">
<svg version="1.1" xmlns="http://www.w3.org/2000/svg" xmlns:xlink="http://www.w3.org/1999/xlink" viewBox="0 0 651.25 651.75">
 <g>
  <rect height="651.75" opacity="0" width="651.25" x="0" y="0"/>
  <path d="M651.25 326C651.25 505.5 505 651.75 325.5 651.75C146.25 651.75 0 505.5 0 326C0 146.75 146.25 0.5 325.5 0.5C505 0.5 651.25 146.75 651.25 326ZM139.25 286.5L139.25 427.75C139.25 459.75 156 476 188.5 476L467.25 476C496 476 512.5 459.5 512.5 427.75L512.5 286.5ZM181.75 170C154.5 170 139.25 185.25 139.25 215.5L139.25 261.75L512.5 261.75L512.5 248C512.5 216 495.75 199.5 463.25 199.5L301.5 199.5C289.25 199.5 283.25 196.5 275 189.75L265 181.75C254 172.75 246.5 170 230.75 170Z" fill="black" fill-opacity="0.85"/>
 </g>
</svg>
