<?xml version="1.0" encoding="UTF-8"?>
<!--Generator: Apple Native CoreSVG 326-->
<!DOCTYPE svg
PUBLIC "-//W3C//DTD SVG 1.1//EN"
       "http://www.w3.org/Graphics/SVG/1.1/DTD/svg11.dtd">
<svg version="1.1" xmlns="http://www.w3.org/2000/svg" xmlns:xlink="http://www.w3.org/1999/xlink" viewBox="0 0 726.25 587.25">
 <g>
  <rect height="587.25" opacity="0" width="726.25" x="0" y="0"/>
  <path d="M97.25 583.75L636.5 583.75C693.75 583.75 726.25 551 726.25 487.5L726.25 155.75C726.25 92 693.5 59.5 629 59.5L317.75 59.5C294.25 59.5 281.5 54.5 264.75 40L245.75 24C224.5 5.5 209.25 0 177 0L85.25 0C30.5 0 0 30.25 0 91.5L0 487.5C0 551.25 32.75 583.75 97.25 583.75ZM98.25 539.5C63.25 539.5 44.25 521 44.25 485L44.25 94.25C44.25 60.75 61.5 44 94 44L166 44C189 44 201.5 49 218.5 64L237.5 80C258 97.75 274.5 103.75 306.75 103.75L628.25 103.75C662.5 103.75 682 122.25 682 158L682 485.25C682 521 662.5 539.5 628.25 539.5ZM26.75 222.25L699.75 222.25L699.75 180.5L26.75 180.5Z" fill="black" fill-opacity="0.85"/>
 </g>
</svg>
