<?xml version="1.0" encoding="UTF-8"?>
<!--Generator: Apple Native CoreSVG 326-->
<!DOCTYPE svg
PUBLIC "-//W3C//DTD SVG 1.1//EN"
       "http://www.w3.org/Graphics/SVG/1.1/DTD/svg11.dtd">
<svg version="1.1" xmlns="http://www.w3.org/2000/svg" xmlns:xlink="http://www.w3.org/1999/xlink" viewBox="0 0 434.25 787.75">
 <g>
  <rect height="787.75" opacity="0" width="434.25" x="0" y="0"/>
  <path d="M108 742.5C134.25 742.5 151.25 727.5 150.75 701.75L144.5 341C144.25 329.25 148.75 321.25 158.75 316.75C201 298.25 218 278.25 215.75 222.5L207 26.25C206.25 12.75 198.25 4.75 185.5 4.75C173 4.75 165.5 13 165.5 26.75L167.75 217.75C167.75 229.25 160.5 236 150 236C139.5 236 132 229.5 132 218.5L128.75 21C128.5 7.75 120.75 0 108 0C95.25 0 87.5 7.75 87.25 21L83.75 218.5C83.75 229.5 76.25 236 65.75 236C55.5 236 48.25 229.25 48.25 217.75L50.25 26.75C50.25 13 43 4.75 30.5 4.75C17.75 4.75 9.75 12.75 9 26.25L0.25 222.5C-2.25 278.25 15 298.25 57 316.75C67 321.25 71.75 329.25 71.5 341L65.25 701.75C64.75 727.5 81.75 742.5 108 742.5ZM355.5 467.75L348 698.75C347 727.5 364.5 742.5 390.5 742.5C417.25 742.5 434.25 728.5 434.25 703L434.25 23.25C434.25 7.5 424 0 412.25 0C400.5 0 393 6.5 383.25 20.5C331.5 93 298 226.75 298 357.5L298 375.25C298 398.5 306 414 322 425L339.75 437.25C351 445.25 356 454.75 355.5 467.75Z" fill="black" fill-opacity="0.85"/>
 </g>
</svg>
