<?xml version="1.0" encoding="UTF-8"?>
<!--Generator: Apple Native CoreSVG 326-->
<!DOCTYPE svg
PUBLIC "-//W3C//DTD SVG 1.1//EN"
       "http://www.w3.org/Graphics/SVG/1.1/DTD/svg11.dtd">
<svg version="1.1" xmlns="http://www.w3.org/2000/svg" xmlns:xlink="http://www.w3.org/1999/xlink" viewBox="0 0 706 679.75">
 <g>
  <rect height="679.75" opacity="0" width="706" x="0" y="0"/>
  <path d="M39.25 610.25L666.75 610.25L666.75 591C666.75 580.25 660.25 573.75 649.25 573.75L628.75 573.75L628.75 213.5L657.75 213.5C673 213.5 681.5 202.75 681.5 191.5C681.5 183.25 677 176 667 170.25L390.75 10.75C378.5 3.75 365.5 0 353 0C340.5 0 327.25 3.75 315.25 10.75L39 170.25C28.75 176 24.5 183.25 24.5 191.5C24.5 202.75 33 213.5 48.25 213.5L77.5 213.5L77.5 573.75L57 573.75C45.75 573.75 39.25 580.25 39.25 591ZM119.25 573.75L119.25 175.5L338.5 52C342.75 49.5 348 48 353 48C357.75 48 362.75 49.5 367.5 52L587 175.5L587 573.75ZM22.25 679.25L683.75 679.25C696 679.25 706 669.25 706 657.25C706 645 696 635 683.75 635L22.25 635C10 635 0 645 0 657.25C0 669.25 10 679.25 22.25 679.25Z" fill="black" fill-opacity="0.85"/>
  <path d="M300 486.25C309.75 486.25 316.75 479 316.75 469L316.75 432.25L387.75 432.25C393.25 432.25 397.5 428.25 397.5 422.75C397.5 417 393.25 413 387.75 413L316.75 413L316.75 352.75L426 352.75C434.5 352.75 441 346.5 441 338C441 329.75 434.5 323.5 426 323.5L316.75 323.5L316.75 227.25L437.25 227.25C446 227.25 452.5 221 452.5 212.5C452.5 203.75 446 197.5 437.25 197.5L300 197.5C289.5 197.5 283 204.25 283 215L283 413L252 413C246.5 413 242.25 417 242.25 422.75C242.25 428.25 246.5 432.25 252 432.25L283 432.25L283 469C283 479 290 486.25 300 486.25Z" fill="black" fill-opacity="0.85"/>
 </g>
</svg>
