<?xml version="1.0" encoding="UTF-8"?>
<!--Generator: Apple Native CoreSVG 326-->
<!DOCTYPE svg
PUBLIC "-//W3C//DTD SVG 1.1//EN"
       "http://www.w3.org/Graphics/SVG/1.1/DTD/svg11.dtd">
<svg version="1.1" xmlns="http://www.w3.org/2000/svg" xmlns:xlink="http://www.w3.org/1999/xlink" viewBox="0 0 980.75 633.75">
 <g>
  <rect height="633.75" opacity="0" width="980.75" x="0" y="0"/>
  <path d="M0 352.25C0 521.25 158.25 633.75 399.5 633.75C641 633.75 799.25 521.25 799.25 352.25C799.25 281.75 631 225.75 399.5 225.75C168.25 225.75 0 281.75 0 352.25ZM44.25 352.25C44.25 311 228.5 267.5 399.5 267.5C570.25 267.5 755 311 755 352.25C755 390.25 589.5 435.5 399.5 435.5C209.75 435.5 44.25 390.25 44.25 352.25ZM736 315L944.75 185C1030 132 949.75 8.25 847 83.25L605.75 260.5ZM210.5 438.75L561.5 440.75C562.25 374.75 508 330 443 330C400.25 330 362.5 349.5 341 380.25C328.25 375.5 317.75 373.75 304 373.75C258 373.5 219.75 401.75 210.5 438.75Z" fill="black" fill-opacity="0.85"/>
 </g>
</svg>
