<?xml version="1.0" encoding="UTF-8"?>
<!--Generator: Apple Native CoreSVG 326-->
<!DOCTYPE svg
PUBLIC "-//W3C//DTD SVG 1.1//EN"
       "http://www.w3.org/Graphics/SVG/1.1/DTD/svg11.dtd">
<svg version="1.1" xmlns="http://www.w3.org/2000/svg" xmlns:xlink="http://www.w3.org/1999/xlink" viewBox="0 0 737.25 712.25">
 <g>
  <rect height="712.25" opacity="0" width="737.25" x="0" y="0"/>
  <path d="M101 690.75L144.75 690.75L145 82.25C145 57.5 157.25 44.5 182.75 44.5L445.25 44.5C469.75 44.5 483.25 57.5 483.25 82.25L483.25 690.75L527.5 690.75L527.5 81.5C527.5 29 498.75 0 446.25 0L181.75 0C128.75 0 101 28.75 101 81.5ZM195.5 290.75L432.5 290.75C444.75 290.75 453.5 281.75 453.5 269.75L453.5 95.25C453.5 83 444.5 74.25 432.5 74.25L195.5 74.25C183.5 74.25 174.75 83 174.75 95.25L174.75 269.75C174.75 281.75 183.25 290.75 195.5 290.75ZM52.75 689.5C52.75 702 62.75 712 74.75 712L553.25 712C565.25 712 575.25 702 575.25 689.5C575.25 677.75 565.25 667.75 553.25 667.75L74.75 667.75C63 667.75 52.75 677.5 52.75 689.5ZM648.25 630.75C705.25 630.75 737.25 592.75 737.25 525C737.25 445.25 721.75 353 691.75 207.5L683.75 169C677.75 140.25 669.5 118.25 651.75 96L614 48.75C599.5 30.5 571.75 51.75 587.25 71L633.5 129C636.5 133 636.5 138 634.25 142.25L606.25 194.25C599.75 206 601.25 214.5 611 225L672.25 290.5C692.75 383.75 703.25 461 703.25 525C703.25 571 683.5 596.75 648.25 596.75C617.75 596.75 597.5 576.25 597.5 542C597.5 496.5 605.25 433.75 605.25 376.75C605.25 322.5 577.75 281 514.5 259L500.5 290C550 306 571.25 337.75 571.25 376.75C571.25 428 563.5 490.5 563.5 542C563.5 597 597 630.75 648.25 630.75Z" fill="black" fill-opacity="0.85"/>
 </g>
</svg>
