<?xml version="1.0" encoding="UTF-8"?>
<!--Generator: Apple Native CoreSVG 326-->
<!DOCTYPE svg
PUBLIC "-//W3C//DTD SVG 1.1//EN"
       "http://www.w3.org/Graphics/SVG/1.1/DTD/svg11.dtd">
<svg version="1.1" xmlns="http://www.w3.org/2000/svg" xmlns:xlink="http://www.w3.org/1999/xlink" viewBox="0 0 840.813 861.315">
 <g>
  <rect height="861.315" opacity="0" width="840.813" x="0" y="0"/>
  <path d="M203.607 337.656C205.93 352.068 215.559 361.663 230.393 364.413L568.781 702.436L568.781 742.032L594.281 742.032C606.281 742.032 616.531 752.032 616.531 763.782C616.531 776.032 606.281 786.282 594.281 786.282L126.281 786.282C114.531 786.282 104.531 776.032 104.531 763.782C104.531 751.782 114.781 742.032 126.281 742.032L152.531 742.032L152.531 286.635ZM655.281 123.282L693.031 170.532C710.781 192.782 719.031 214.782 725.031 243.532L733.031 282.032C763.031 427.532 778.531 519.782 778.531 599.532C778.531 651.793 759.491 686.352 724.552 699.327L696.166 670.951C727.252 667.868 744.531 642.559 744.531 599.532C744.531 535.532 733.781 458.282 713.531 365.032L652.281 299.532C642.531 289.032 641.031 280.532 647.281 268.782L675.281 216.782C677.781 212.532 677.781 207.532 674.781 203.532L628.531 145.532C613.031 126.282 640.781 105.032 655.281 123.282ZM568.781 156.032L568.781 338.588C622.832 361.547 646.531 400.921 646.531 451.282C646.531 507.127 639.092 568.49 638.835 613.641L605.772 580.589C607.757 537.685 612.281 491.09 612.281 451.282C612.281 420.329 599.053 393.943 568.781 376.408L568.781 543.612L390.387 365.282L481.031 365.282C504.031 365.282 518.281 352.032 518.281 330.532L518.281 160.032C518.281 138.532 504.031 125.032 481.031 125.032L239.781 125.032C217.031 125.032 203.031 138.532 203.031 160.032L203.031 177.994L155.202 130.181C163.224 93.9486 189.726 74.5325 233.281 74.5325L487.531 74.5325C540.031 74.5325 568.781 103.532 568.781 156.032Z" fill="black" fill-opacity="0.85"/>
  <path d="M736.031 820.282C744.531 828.782 758.031 828.782 766.031 820.282C774.531 811.782 774.781 798.282 766.031 790.032L71.2814 95.7825C63.2814 87.5325 49.5314 87.2825 41.0314 95.7825C32.7814 103.782 32.7814 117.782 41.0314 125.782Z" fill="black" fill-opacity="0.85"/>
 </g>
</svg>
