<?xml version="1.0" encoding="UTF-8"?>
<!--Generator: Apple Native CoreSVG 326-->
<!DOCTYPE svg
PUBLIC "-//W3C//DTD SVG 1.1//EN"
       "http://www.w3.org/Graphics/SVG/1.1/DTD/svg11.dtd">
<svg version="1.1" xmlns="http://www.w3.org/2000/svg" xmlns:xlink="http://www.w3.org/1999/xlink" viewBox="0 0 908.502 712.25">
 <g>
  <rect height="712.25" opacity="0" width="908.502" x="0" y="0"/>
  <path d="M698.751 690.5L698.751 81.5C698.751 29 670.001 0 617.501 0L363.251 0C310.251 0 282.501 28.75 282.501 81.5L282.501 690.5ZM369.751 290.75C347.001 290.75 333.001 277.5 333.001 256L333.001 85.5C333.001 64 347.001 50.5 369.751 50.5L611.001 50.5C634.001 50.5 648.251 64 648.251 85.5L648.251 256C648.251 277.5 634.001 290.75 611.001 290.75ZM234.501 689.25C234.501 701.5 244.251 711.75 256.251 711.75L724.251 711.75C736.251 711.75 746.501 701.5 746.501 689.25C746.501 677.5 736.251 667.5 724.251 667.5L256.251 667.5C244.501 667.5 234.501 677.25 234.501 689.25ZM819.501 630.75C876.501 630.75 908.501 592.75 908.501 525C908.501 445.25 893.001 353 863.001 207.5L855.001 169C849.001 140.25 840.751 118.25 823.001 96L785.251 48.75C770.751 30.5 743.001 51.75 758.501 71L804.501 129C807.751 133 807.751 138 805.251 142.25L777.251 194.25C771.001 206 772.501 214.5 782.251 225L843.501 290.5C863.751 383.75 874.501 461 874.501 525C874.501 571 854.751 596.75 819.501 596.75C789.001 596.75 768.751 576.25 768.751 542C768.751 496.5 776.251 433.75 776.251 376.75C776.251 322.5 749.001 281 685.751 259L671.751 290C721.001 306 742.251 337.75 742.251 376.75C742.251 428 734.751 490.5 734.751 542C734.751 597 768.251 630.75 819.501 630.75Z" fill="black" fill-opacity="0.85"/>
  <path d="M9.00098 341C-2.74902 348-3.24902 364 9.00098 371L175.751 470C188.501 477.5 203.251 471.5 203.251 458.5L203.251 253C203.251 240.25 187.751 234.5 175.751 241.25Z" fill="black" fill-opacity="0.85"/>
 </g>
</svg>
