<?xml version="1.0" encoding="UTF-8"?>
<!--Generator: Apple Native CoreSVG 326-->
<!DOCTYPE svg
PUBLIC "-//W3C//DTD SVG 1.1//EN"
       "http://www.w3.org/Graphics/SVG/1.1/DTD/svg11.dtd">
<svg version="1.1" xmlns="http://www.w3.org/2000/svg" xmlns:xlink="http://www.w3.org/1999/xlink" viewBox="0 0 651.25 651.75">
 <g>
  <rect height="651.75" opacity="0" width="651.25" x="0" y="0"/>
  <path d="M325.5 651.25C505.25 651.25 651.25 505.5 651.25 325.75C651.25 146 505.25 0 325.5 0C145.75 0 0 146 0 325.75C0 505.5 145.75 651.25 325.5 651.25ZM325.5 604.75C171.25 604.75 46.5 480 46.5 325.75C46.5 171.5 171.25 46.75 325.5 46.75C479.75 46.75 604.5 171.5 604.5 325.75C604.5 480 479.75 604.75 325.5 604.75Z" fill="black" fill-opacity="0.85"/>
  <path d="M239.25 287.5C227.5 287.5 220.5 280.75 220.5 269.75L220.5 182C220.5 170.75 227.5 163.75 239.25 163.75L363.75 163.75C375.25 163.75 382.75 170.75 382.75 182L382.75 269.75C382.75 280.75 375.25 287.5 363.75 287.5ZM169 492.25C169 499.25 174.25 504.75 181.25 504.75L421.5 504.75C428.25 504.75 434 499.25 434 492.25C434 485.5 428.25 479.75 421.5 479.75L408.5 479.75L408.5 294.5C423.25 303 429.75 316 429.75 331.75C429.75 358 426 390 426 416.5C426 445.5 443.5 463 470.5 463C500.25 463 517.25 443 517.25 407.75C517.25 366.75 508.75 319 493.75 244.5L489.5 224C487 209.75 482.25 198.5 473.25 187.25L453.75 162.75C445.25 151.75 429 164.25 438 175.25L462 205C463 206.5 463.5 208.75 462.25 210.75L447.75 237.5C444 244 445.25 249 450.5 254.5L481.75 288C492.25 336 497.75 374.75 497.75 407.75C497.75 431.25 488 443.5 470.5 443.5C455.25 443.5 445.5 433.5 445.5 416.5C445.5 393.25 449.25 361.25 449.25 331.75C449.25 305 436.75 283.75 408.5 272.5L408.5 180C408.5 153 393.75 138.25 366.75 138.25L236.25 138.25C209.25 138.25 195 153 195 180L195 479.75L181.25 479.75C174.25 479.75 169 485.25 169 492.25Z" fill="black" fill-opacity="0.85"/>
 </g>
</svg>
