<?xml version="1.0" encoding="UTF-8"?>
<!--Generator: Apple Native CoreSVG 326-->
<!DOCTYPE svg
PUBLIC "-//W3C//DTD SVG 1.1//EN"
       "http://www.w3.org/Graphics/SVG/1.1/DTD/svg11.dtd">
<svg version="1.1" xmlns="http://www.w3.org/2000/svg" xmlns:xlink="http://www.w3.org/1999/xlink" viewBox="0 0 561.25 867.75">
 <g>
  <rect height="867.75" opacity="0" width="561.25" x="0" y="0"/>
  <path d="M21.25 867.75C33.25 867.75 42.5 858.25 42.5 846.75L42.5 592.5C42.5 580.75 33.25 571.25 21.25 571.25C9.25 571.25 0 580.75 0 592.5L0 846.75C0 858.25 9.25 867.75 21.25 867.75ZM120 685.75C136 685.75 148.5 673.25 148.5 657.5C148.5 641.5 136 629 120 629C104.5 629 91.75 641.75 91.75 657.5C91.75 673.25 104.5 685.75 120 685.75ZM226 685.75C242 685.75 254.5 673.25 254.5 657.5C254.5 641.5 242 629 226 629C210.25 629 197.25 641.75 197.25 657.5C197.25 673.25 210.25 685.75 226 685.75ZM332 685.75C347.75 685.75 360.25 673.25 360.25 657.5C360.25 641.5 347.75 629 332 629C316.25 629 303.25 641.75 303.25 657.5C303.25 673.25 316.25 685.75 332 685.75ZM437.5 685.75C453.5 685.75 466 673.25 466 657.5C466 641.5 453.5 629 437.5 629C422 629 409 641.75 409 657.5C409 673.25 422 685.75 437.5 685.75ZM120 812.5C136 812.5 148.5 799.5 148.5 783.75C148.5 767.75 136 755.25 120 755.25C104.5 755.25 91.75 768 91.75 783.75C91.75 799.5 104.5 812.5 120 812.5ZM226 812.5C242 812.5 254.5 799.5 254.5 783.75C254.5 767.75 242 755.25 226 755.25C210.25 755.25 197.25 768 197.25 783.75C197.25 799.5 210.25 812.5 226 812.5ZM332 812.5C347.75 812.5 360.25 799.5 360.25 783.75C360.25 767.75 347.75 755.25 332 755.25C316.25 755.25 303.25 768 303.25 783.75C303.25 799.5 316.25 812.5 332 812.5ZM437.5 812.5C453.5 812.5 466 799.5 466 783.75C466 767.75 453.5 755.25 437.5 755.25C422 755.25 409 768 409 783.75C409 799.5 422 812.5 437.5 812.5ZM536.25 865.75C548.25 865.75 557.75 856.25 557.75 844.5L557.75 594.25C557.75 582.5 548.25 573 536.25 573C524.75 573 515.25 582.5 515.25 594.25L515.25 844.5C515.25 856.25 524.75 865.75 536.25 865.75Z" fill="black" fill-opacity="0.85"/>
  <path d="M408.25 509L408.25 71C408.25 33.25 387.5 12.5 349.75 12.5L166.75 12.5C128.75 12.5 109 33.25 109 71L109 509ZM171.75 221.5C155.25 221.5 145.25 212 145.25 196.5L145.25 74C145.25 58.5 155.25 49 171.75 49L345 49C361.75 49 372 58.5 372 74L372 196.5C372 212 361.75 221.5 345 221.5ZM72 508C72 518.5 80.5 526.5 90 526.5L426.75 526.5C436.5 526.5 444.75 518.5 444.75 508C444.75 498.25 436.75 490.25 426.75 490.25L90 490.25C80.5 490.25 72 498 72 508ZM495 468.5C537.5 468.5 561.25 439.75 561.25 390C561.25 332.5 550.25 265.75 528.25 161.25L522.75 133.5C518.5 112.75 512.25 96.25 499.25 80L472 46.25C460 30.75 436.25 48.75 449.5 64.75L482.5 106.75C484.25 108.5 484.25 111.25 482.75 114L462.75 150.75C457.5 160.75 459.25 167.75 466.5 176L510.25 222.5C524.5 288.75 532.25 344.25 532.25 390C532.25 422.25 519.25 439.25 495 439.25C474 439.25 460.75 426 460.75 402C460.75 369.75 466.25 324.75 466.25 283.5C466.25 242.5 445.5 211.75 397.75 195.75L386 222.5C422.25 233.25 437.25 255.25 437.25 283.5C437.25 320 431.75 365 431.75 402C431.75 442.75 457 468.5 495 468.5Z" fill="black" fill-opacity="0.85"/>
 </g>
</svg>
