<?xml version="1.0" encoding="UTF-8"?>
<!--Generator: Apple Native CoreSVG 326-->
<!DOCTYPE svg
PUBLIC "-//W3C//DTD SVG 1.1//EN"
       "http://www.w3.org/Graphics/SVG/1.1/DTD/svg11.dtd">
<svg version="1.1" xmlns="http://www.w3.org/2000/svg" xmlns:xlink="http://www.w3.org/1999/xlink" viewBox="0 0 716.25 712.25">
 <g>
  <rect height="712.25" opacity="0" width="716.25" x="0" y="0"/>
  <path d="M506.5 690.5L506.5 81.5C506.5 29 477.75 0 425.25 0L171 0C118 0 90.25 28.75 90.25 81.5L90.25 690.5ZM177.5 290.75C154.75 290.75 140.75 277.5 140.75 256L140.75 85.5C140.75 64 154.75 50.5 177.5 50.5L418.75 50.5C441.75 50.5 456 64 456 85.5L456 256C456 277.5 441.75 290.75 418.75 290.75ZM42.25 689.25C42.25 701.5 52.25 711.75 64 711.75L532 711.75C544 711.75 554.25 701.5 554.25 689.25C554.25 677.5 544 667.5 532 667.5L64 667.5C52.5 667.5 42.25 677.25 42.25 689.25ZM627.25 630.75C684.25 630.75 716.25 592.75 716.25 525C716.25 445.25 700.75 353 670.75 207.5L662.75 169C656.75 140.25 648.5 118.25 630.75 96L593 48.75C578.5 30.5 550.75 51.75 566.25 71L612.5 129C615.5 133 615.5 138 613 142.25L585 194.25C578.75 206 580.25 214.5 590 225L651.25 290.5C671.5 383.75 682.25 461 682.25 525C682.25 571 662.5 596.75 627.25 596.75C596.75 596.75 576.5 576.25 576.5 542C576.5 496.5 584.25 433.75 584.25 376.75C584.25 322.5 556.75 281 493.5 259L479.5 290C529 306 550 337.75 550 376.75C550 428 542.5 490.5 542.5 542C542.5 597 576 630.75 627.25 630.75Z" fill="black" fill-opacity="0.85"/>
 </g>
</svg>
