<?xml version="1.0" encoding="UTF-8"?>
<!--Generator: Apple Native CoreSVG 326-->
<!DOCTYPE svg
PUBLIC "-//W3C//DTD SVG 1.1//EN"
       "http://www.w3.org/Graphics/SVG/1.1/DTD/svg11.dtd">
<svg version="1.1" xmlns="http://www.w3.org/2000/svg" xmlns:xlink="http://www.w3.org/1999/xlink" viewBox="0 0 670.5 670.75">
 <g>
  <rect height="670.75" opacity="0" width="670.5" x="0" y="0"/>
  <path d="M305 670.75L365.5 670.75C382.75 670.75 394.75 660.75 398.75 643.5L415.25 573.75C426.75 569.75 438.25 565.25 448.5 560.5L509.5 598.25C524 607.5 540 606 551.75 594L594.25 551.75C606.25 539.75 608 523.5 598.25 508.75L560.75 448.25C565.5 437.5 570 426.5 573.5 415.5L643.75 399C661 395 670.5 383 670.5 365.75L670.5 306C670.5 289 661 277.25 643.75 273L574 256.25C570 244.25 565.25 233.25 561.25 223.5L598.75 162C608 147.25 607 132 594.75 119.75L551.75 77.25C539.5 66 524.75 63.5 510.25 72.75L448.5 111C438.5 106 427.25 101.75 415.25 97.75L398.75 27.25C394.75 10 382.75 0 365.5 0L305 0C287.75 0 275.75 10 271.75 27.25L255.25 97.25C243.75 101.25 232.25 105.5 221.75 110.75L160.25 72.75C145.75 63.5 130.5 65.5 118.75 77.25L75.75 119.75C63.5 132 62.5 147.25 71.75 162L109.25 223.5C105.25 233.25 100.5 244.25 96.5 256.25L26.75 273C9.75 277.25 0 289 0 306L0 365.75C0 383 9.75 395 26.75 399L97 415.5C100.5 426.5 105 437.5 109.75 448.25L72.25 508.75C62.5 523.5 64.25 539.75 76.25 551.75L118.75 594C130.5 606 146.5 607.5 161 598.25L222 560.5C232.5 565.25 243.75 569.75 255.25 573.75L271.75 643.5C275.75 660.75 287.75 670.75 305 670.75ZM335.25 450C272 450 220.5 398.5 220.5 335.25C220.5 272 272 220.5 335.25 220.5C398.5 220.5 450 272 450 335.25C450 398.5 398.5 450 335.25 450Z" fill="black" fill-opacity="0.85"/>
 </g>
</svg>
