<?xml version="1.0" encoding="UTF-8"?>
<!--Generator: Apple Native CoreSVG 326-->
<!DOCTYPE svg
PUBLIC "-//W3C//DTD SVG 1.1//EN"
       "http://www.w3.org/Graphics/SVG/1.1/DTD/svg11.dtd">
<svg version="1.1" xmlns="http://www.w3.org/2000/svg" xmlns:xlink="http://www.w3.org/1999/xlink" viewBox="0 0 651.25 651.75">
 <g>
  <rect height="651.75" opacity="0" width="651.25" x="0" y="0"/>
  <path d="M651.25 326C651.25 505.5 505 651.75 325.5 651.75C146.25 651.75 0 505.5 0 326C0 146.75 146.25 0.5 325.5 0.5C505 0.5 651.25 146.75 651.25 326ZM191 340.5L191 449.25C191 475.75 207 490.25 233.25 490.25L313 490.25L313 340.5ZM338.25 340.5L338.25 490.25L417.75 490.25C444.25 490.25 460 475.75 460 449.25L460 340.5ZM325.5 181.5C317.25 158.25 298 145 274.25 145C243.25 145 219.5 166.75 219.5 198C219.5 213 225.5 226 236 235L193 235C176.25 235 166.25 243 166.25 259.75L166.25 298.75C166.25 316 175.75 323.5 193 323.5L313 323.5L313 235L288.75 235C261.25 235 244.5 218.75 244.5 198.75C244.5 181.25 257.75 170.25 275.5 170.25C297 170.25 313 186.75 313 212.5L313 235L338.25 235L338.25 212.5C338.25 186.75 354.25 170.25 375.5 170.25C393.5 170.25 406.5 181.25 406.5 198.75C406.5 218.75 389.75 235 362.5 235L338.25 235L338.25 323.5L458 323.5C475.5 323.5 485 316 485 298.75L485 259.75C485 243 475.5 235 458 235L415 235C425.5 226 431.5 213 431.5 198C431.5 166.75 407.75 145 376.75 145C353 145 333.75 158.25 325.5 181.5Z" fill="black" fill-opacity="0.85"/>
 </g>
</svg>
