<?xml version="1.0" encoding="UTF-8"?>
<!--Generator: Apple Native CoreSVG 326-->
<!DOCTYPE svg
PUBLIC "-//W3C//DTD SVG 1.1//EN"
       "http://www.w3.org/Graphics/SVG/1.1/DTD/svg11.dtd">
<svg version="1.1" xmlns="http://www.w3.org/2000/svg" xmlns:xlink="http://www.w3.org/1999/xlink" viewBox="0 0 651.25 651.75">
 <g>
  <rect height="651.75" opacity="0" width="651.25" x="0" y="0"/>
  <path d="M325.5 651.25C505.25 651.25 651.25 505.5 651.25 325.75C651.25 146 505.25 0 325.5 0C145.75 0 0 146 0 325.75C0 505.5 145.75 651.25 325.5 651.25ZM325.5 604.75C171.25 604.75 46.5 480 46.5 325.75C46.5 171.5 171.25 46.75 325.5 46.75C479.75 46.75 604.5 171.5 604.5 325.75C604.5 480 479.75 604.75 325.5 604.75Z" fill="black" fill-opacity="0.85"/>
  <path d="M518.25 252.5L366 183C350.25 175.75 338 172.5 325.25 172.75C312.75 172.5 300.25 175.75 284.5 183L132.25 252.5C123.25 256.5 119 264 119 271.25C119 278.5 123.25 285.5 132.25 289.5L199 320L293.25 275.25C292.25 274 292 272.5 292 271.25C292 260.75 309 253.5 325.75 253.5C342.75 253.5 359.25 260.75 359.25 271.25C359.25 281.75 343 289.25 325.75 289.25C320.25 289.25 315.25 288.75 310.5 287.25L221 330.25L284.5 359.5C300.5 367 312.75 369.75 325.25 369.5C338 369.75 350.25 366.75 366 359.5L518.25 289.5C527.25 285.5 531.5 278.5 531.5 271.25C531.5 264 527.25 256.5 518.25 252.5ZM325.25 468.25C415.25 468.25 471.25 428.25 471.25 386.75L471.25 333.5L374 378C356.25 386 340.25 390.25 325.25 389.75C310.25 390.25 294.25 386 276.75 378L220.25 352.25L220.25 443.5C245.5 458.5 281.25 468.25 325.25 468.25ZM179.25 333.5L179.25 386.75C179.25 399.5 186.75 414.75 200 428L200 343ZM200 472.75L220.25 472.75L220.25 443.5C212.5 439 206 433.75 200 428ZM189.75 471.25L189.75 505.75C189.75 517 196.5 524.25 208 524.25L212 524.25C223.25 524.25 230.5 517 230.5 505.75L230.5 471.25C230.5 460 223.25 453 212 453L208 453C196.5 453 189.75 460 189.75 471.25Z" fill="black" fill-opacity="0.85"/>
 </g>
</svg>
