<?xml version="1.0" encoding="UTF-8"?>
<!--Generator: Apple Native CoreSVG 326-->
<!DOCTYPE svg
PUBLIC "-//W3C//DTD SVG 1.1//EN"
       "http://www.w3.org/Graphics/SVG/1.1/DTD/svg11.dtd">
<svg version="1.1" xmlns="http://www.w3.org/2000/svg" xmlns:xlink="http://www.w3.org/1999/xlink" viewBox="0 0 528.5 717.878">
 <g>
  <rect height="717.878" opacity="0" width="528.5" x="0" y="0"/>
  <path d="M60.5 651.564L424.75 715.814C489 727.064 528.5 691.814 528.5 622.564L528.5 222.814C528.5 161.064 496.5 136.814 433.25 125.814L78.5 63.314C30.75 54.564 0 79.814 0 125.814L0 581.564C0 621.314 20 644.564 60.5 651.564ZM70.75 607.814C53 604.814 44.25 594.564 44.25 575.564L44.25 133.314C44.25 113.564 57.5 103.814 79 107.564L431 169.314C466.25 175.564 484.25 190.814 484.25 221.564L484.25 618.314C484.25 657.314 461 676.814 423.75 670.314ZM455.5 161.814L499.75 161.814L499.75 85.314C499.75 21.064 456.5-9.68598 384 3.31402L46.5 62.814L62.5 101.314L399.25 44.814C434.5 38.814 455.5 53.314 455.5 84.064ZM88.75 257.064C88.75 280.564 125.25 280.814 125.25 258.314L125.25 213.064C125.25 202.564 131.5 198.064 143.5 200.064L188 208.064C211.75 212.064 216.75 176.314 195 172.314L130 161.064C104.5 156.564 88.75 167.064 88.75 191.564ZM403.25 311.564C403.25 335.064 439.75 337.314 439.75 311.564L439.75 259.314C439.75 228.814 424.5 212.814 388 206.314L355.5 200.564C330 196.064 323.5 231.814 349.75 236.564L376.5 241.064C398 245.064 403.25 256.814 403.25 269.314ZM125.25 470.814C125.25 447.314 88.75 444.814 88.75 470.814L88.75 523.064C88.75 553.564 104 569.814 140.5 576.064L173 581.814C198.5 586.064 205 550.314 178.75 545.814L152 541.314C130.5 537.314 125.25 525.564 125.25 512.814ZM439.75 525.314C439.75 501.814 403.25 501.564 403.25 524.064L403.25 569.064C403.25 579.814 397 584.064 385 582.064L340.5 574.314C317 570.064 311.75 606.064 333.5 610.064L398.5 621.314C424 625.814 439.75 615.314 439.75 590.814Z" fill="black" fill-opacity="0.85"/>
 </g>
</svg>
