<?xml version="1.0" encoding="UTF-8"?>
<!--Generator: Apple Native CoreSVG 326-->
<!DOCTYPE svg
PUBLIC "-//W3C//DTD SVG 1.1//EN"
       "http://www.w3.org/Graphics/SVG/1.1/DTD/svg11.dtd">
<svg version="1.1" xmlns="http://www.w3.org/2000/svg" xmlns:xlink="http://www.w3.org/1999/xlink" viewBox="0 0 841.351 713.25">
 <g>
  <rect height="713.25" opacity="0" width="841.351" x="0" y="0"/>
  <path d="M721.051 28.25L726.051 108C726.301 113.75 723.801 117 717.551 121.25C709.801 126.5 708.301 130.5 708.301 143.75L708.301 335.75C760.301 341.75 791.051 369 791.051 411C791.051 437.25 781.301 456.75 781.301 479C781.301 507.75 824.801 525 824.801 590C824.801 654.25 770.301 695 683.801 695C632.615 695 592.634 680.731 568.653 655.678C575.66 646.569 581.345 636.43 585.535 625.352C601.586 649.171 635.842 662.75 683.801 662.75C752.051 662.75 792.551 635.25 792.551 590C792.551 537.5 749.051 517.5 749.051 478.25C749.051 455.75 758.801 432.25 758.801 411C758.801 377 728.051 365.5 683.801 365.5C639.551 365.5 608.801 377 608.801 411C608.801 432.25 618.551 455.75 618.551 478.25C618.551 500.602 604.443 516.712 592.305 536.149C589.443 520.988 584.834 508.739 579.841 498.729C583.744 492.264 586.301 485.97 586.301 479C586.301 456.75 576.551 437.25 576.551 411C576.551 369 607.051 341.75 659.051 335.75L659.051 143.75C659.051 130.75 657.801 126.75 649.801 121.25C643.801 117 641.301 113.75 641.551 108L646.301 28.25C646.801 22 651.551 17.25 657.051 17.25L710.051 17.25C716.051 17.25 720.551 22 721.051 28.25ZM737.301 582C737.301 589 731.551 594.5 724.551 594.5L642.551 594.5C635.551 594.5 629.801 589 629.801 582C629.801 575 635.801 569 642.551 569L724.551 569C731.551 569 737.301 574.75 737.301 582ZM717.801 469.75C717.801 488.5 702.551 504 683.801 504C664.801 504 649.301 488.5 649.301 469.75C649.301 450.75 665.051 435.25 683.801 435.25C702.551 435.25 717.801 450.75 717.801 469.75Z" fill="black" fill-opacity="0.85"/>
  <path d="M450.551 22.25L478.301 46.25C482.801 50.5 485.051 56 484.801 61.75L478.301 127.75C477.301 137 475.051 140.75 468.051 143C462.551 144.75 462.301 146 462.301 155.75L462.051 351C462.051 365.75 464.051 381 472.051 381C476.301 381 481.551 375 487.051 366C494.801 353.75 506.801 341 526.301 341C546.551 341 560.801 356.5 560.801 378.75C560.801 410.25 539.051 430.5 539.051 456.75C539.051 478.5 579.051 505.25 579.051 571C579.051 646.75 522.801 696.75 437.551 696.75C411.455 696.75 388.101 692.065 368.294 683.344C372.795 672.973 373.838 660.749 371.036 648.388C388.477 658.577 410.98 664 437.551 664C505.051 664 546.301 629 546.301 571C546.301 511.25 506.801 492 506.801 456.75C506.801 423.75 529.051 404.5 529.051 378.5C529.051 375.25 526.801 372.75 523.801 372.75C509.051 372.75 502.051 412 471.051 412C456.301 412 443.551 401.5 439.801 379.5L435.551 379.5C432.051 401.25 419.551 412 404.551 412C373.051 412 366.051 372.75 351.301 372.75C348.551 372.75 346.301 375.25 346.301 378.5C346.301 404.5 368.301 423.75 368.301 456.75C368.301 488.102 337.054 506.797 330.209 552.659L310.567 508.191C321.95 484.432 336.051 469.704 336.051 456.75C336.051 430.5 314.301 410.25 314.301 378.75C314.301 356.5 328.801 341 349.051 341C368.301 341 380.301 353.75 388.051 366C393.551 375 398.801 381 403.551 381C411.301 381 413.551 365 413.551 351L413.051 155.75C413.051 146.25 412.301 144.5 407.301 143C400.301 140.75 397.801 136.75 397.051 127.75L390.551 61.75C390.301 56.25 392.801 50.25 397.051 46.25L424.801 22.25C428.301 19.25 432.801 17.25 437.551 17.25C442.551 17.25 447.051 19.25 450.551 22.25ZM409.551 468C415.801 470 419.051 477.25 416.801 483.5L389.551 558.5C387.051 564.75 380.301 568 374.051 565.75C367.801 563.75 364.551 556.5 366.801 550.5L394.051 475C396.551 469 403.301 465.75 409.551 468ZM481.301 475L508.551 550.5C510.801 556.5 507.551 563.75 501.301 565.75C495.051 568 488.301 564.75 485.801 558.5L458.551 483.5C456.301 477.25 459.551 470 465.801 468C472.051 465.75 478.801 469 481.301 475Z" fill="black" fill-opacity="0.85"/>
  <path d="M21.0507 642C10.0507 667 19.5507 696 51.3007 696C62.3007 696 71.8007 691.75 86.8007 679.5L177.051 604.25C181.551 600.5 184.051 599.25 186.301 599.25C188.301 599.25 190.801 600.5 195.301 604.25L285.801 679.5C300.551 691.75 310.301 696 321.301 696C353.051 696 362.551 667 351.551 642L211.051 323.5L211.051 170.75C211.051 97.25 223.551 42.25 223.551 32C223.551 23 218.051 17.25 209.301 17.25C203.801 17.25 198.801 20.5 190.801 29.25L119.801 110.75C113.801 117.75 115.051 126 122.801 129.75C151.051 142.5 161.801 147 161.801 170.75L161.801 322.5ZM50.3007 653.75L183.051 349.5L189.551 349.5L322.301 653.75C325.801 662.25 318.801 666.25 313.051 661.25L212.551 577.75C202.301 569.25 194.051 565 186.301 565C178.551 565 170.051 569.25 159.801 577.75L59.5507 661.25C53.5507 666.25 46.5507 662.25 50.3007 653.75ZM222.051 507.5C230.051 507.5 236.801 501.25 236.801 493.25C236.801 485 230.301 478.25 222.051 478.25C214.301 478.25 207.551 485.5 207.551 493.25C207.551 501 214.301 507.5 222.051 507.5ZM238.801 547.5C247.051 547.5 253.801 541 253.801 533C253.801 524.75 247.051 518 238.801 518C231.051 518 224.051 525.25 224.051 533C224.051 541 231.051 547.5 238.801 547.5ZM255.301 587.25C263.301 587.25 270.551 580.5 270.551 572.75C270.551 564.75 263.551 558 255.301 558C247.801 558 241.051 565 241.051 572.75C241.051 580.75 247.551 587.25 255.301 587.25Z" fill="black" fill-opacity="0.85"/>
 </g>
</svg>
