<?xml version="1.0" encoding="UTF-8"?>
<!--Generator: Apple Native CoreSVG 326-->
<!DOCTYPE svg
PUBLIC "-//W3C//DTD SVG 1.1//EN"
       "http://www.w3.org/Graphics/SVG/1.1/DTD/svg11.dtd">
<svg version="1.1" xmlns="http://www.w3.org/2000/svg" xmlns:xlink="http://www.w3.org/1999/xlink" viewBox="0 0 651.25 651.75">
 <g>
  <rect height="651.75" opacity="0" width="651.25" x="0" y="0"/>
  <path d="M121.5 530.25C174.5 583.5 294.75 536.5 415.75 416C536.5 295 583.25 174.75 530 121.75C476 67.75 356.75 114.75 235.5 235.75C114.5 357 67.5 476.25 121.5 530.25ZM151.25 500.25C115.75 464.75 162.75 368.5 265.25 265.75C368.5 162.5 464.75 116 500 151.5C535.5 186.75 488.75 282.75 385.5 386.25C283 488.75 186.75 535.75 151.25 500.25ZM529.5 530.25C583.5 476.25 536.75 357 415.75 235.75C294.75 114.75 175 67.75 121 121.75C68 174.75 114.75 295 235.75 415.75C356.75 536.75 476.5 583.25 529.5 530.25ZM499.75 500.25C464.5 535.75 368.25 488.75 265.25 385.75C162.25 282.75 115.75 186.75 151 151.5C186.5 116 282.75 162.5 385.5 265.75C488.5 368.5 535.5 464.75 499.75 500.25ZM555.25 126.75L636.5 45.5C644.75 37.25 644.75 23.5 636.5 15.25C627.75 6.75 614.25 7 606 15.25L523.5 97.75ZM98 523.5L15 606.5C6.75 615 6.5 628.25 15 636.75C23.25 645 36.75 645.25 45.25 637L131.5 550.5ZM325.5 651.25C505.25 651.25 651.25 505.5 651.25 325.75C651.25 146 505.25 0 325.5 0C145.75 0 0 146 0 325.75C0 505.5 145.75 651.25 325.5 651.25ZM325.5 604.75C171.25 604.75 46.5 480 46.5 325.75C46.5 171.5 171.25 46.75 325.5 46.75C479.75 46.75 604.5 171.5 604.5 325.75C604.5 480 479.75 604.75 325.5 604.75Z" fill="black" fill-opacity="0.85"/>
 </g>
</svg>
