<?xml version="1.0" encoding="UTF-8"?>
<!--Generator: Apple Native CoreSVG 326-->
<!DOCTYPE svg
PUBLIC "-//W3C//DTD SVG 1.1//EN"
       "http://www.w3.org/Graphics/SVG/1.1/DTD/svg11.dtd">
<svg version="1.1" xmlns="http://www.w3.org/2000/svg" xmlns:xlink="http://www.w3.org/1999/xlink" viewBox="0 0 651.25 651.75">
 <g>
  <rect height="651.75" opacity="0" width="651.25" x="0" y="0"/>
  <path d="M651.25 326C651.25 505.5 505 651.75 325.5 651.75C146.25 651.75 0 505.5 0 326C0 146.75 146.25 0.5 325.5 0.5C505 0.5 651.25 146.75 651.25 326ZM149.5 427C132.25 442.25 131 458.25 146.25 473.5L173.75 501.25C189 516.25 205.5 515.25 220.25 498.25L380.75 317.25L331 268ZM261.5 156.25C253.75 164 254.75 172.5 259.5 178.25C263.5 181.75 269.5 184 275.25 181.75C308.25 173 337.25 171.75 362 187.5L348.75 221.25C343.5 235 346 245 355 254L393.25 292.25C400 299.25 407.25 300.5 417.75 298.5L443.75 293.25L457.5 307.25L456 324.75C455.25 333 456.25 337.75 463 344L476 356.25C482.5 362.5 489.75 363 496.5 356.75L548 305.5C554.25 299.5 554 291.75 547.75 285L534.75 272.25C527.5 265.25 524 264.25 515.5 265L498 266.75L484 253L489.5 230.25C492.25 218.5 488.5 207.25 476.5 195.75L441.25 160.75C394.25 114 308.75 109 261.5 156.25Z" fill="black" fill-opacity="0.85"/>
 </g>
</svg>
