<?xml version="1.0" encoding="UTF-8"?>
<!--Generator: Apple Native CoreSVG 326-->
<!DOCTYPE svg
PUBLIC "-//W3C//DTD SVG 1.1//EN"
       "http://www.w3.org/Graphics/SVG/1.1/DTD/svg11.dtd">
<svg version="1.1" xmlns="http://www.w3.org/2000/svg" xmlns:xlink="http://www.w3.org/1999/xlink" viewBox="0 0 788.899 736.715">
 <g>
  <rect height="736.715" opacity="0" width="788.899" x="0" y="0"/>
  <path d="M72.4497 716.482C100.45 744.732 131.95 742.482 160.45 709.982L470.7 359.482L377.95 266.732L25.9497 575.732C-6.55029 604.232-8.30029 635.732 19.4497 663.732ZM643.95 442.232C656.45 454.232 670.7 454.982 682.7 442.982L780.45 345.732C792.2 333.982 791.45 318.982 779.45 306.982L755.2 282.982C741.95 269.982 734.2 268.232 719.2 269.232L685.7 272.732L659.45 246.732L669.7 202.982C674.7 180.982 667.45 159.482 645.2 137.482L578.45 71.2323C489.45-17.2677 327.7-27.0177 237.7 62.9823C223.2 77.4823 225.45 93.9823 234.45 104.232C241.7 111.732 253.2 115.482 264.45 112.232C326.95 95.2323 381.2 92.9823 428.45 122.732L403.2 186.232C392.95 211.982 398.2 230.482 415.2 247.732L487.95 320.482C500.45 333.232 513.2 336.482 533.45 332.482L583.2 322.482L609.2 348.732L606.45 381.982C605.45 397.732 606.45 405.982 619.95 418.732Z" fill="black" fill-opacity="0.85"/>
 </g>
</svg>
