<?xml version="1.0" encoding="UTF-8"?>
<!--Generator: Apple Native CoreSVG 326-->
<!DOCTYPE svg
PUBLIC "-//W3C//DTD SVG 1.1//EN"
       "http://www.w3.org/Graphics/SVG/1.1/DTD/svg11.dtd">
<svg version="1.1" xmlns="http://www.w3.org/2000/svg" xmlns:xlink="http://www.w3.org/1999/xlink" viewBox="0 0 799.25 689.75">
 <g>
  <rect height="689.75" opacity="0" width="799.25" x="0" y="0"/>
  <path d="M0 573.75C0 607.5 22.75 636.75 64.5 636.75L734.5 636.75C776.5 636.75 799.25 607.5 799.25 573.75C799.25 549 785.5 523.25 759 508.5L399.5 307L40 508.5C13.5 523.25 0 549 0 573.75ZM44.5 571.5C44.5 561.5 50 552.75 62.25 545.75L399.5 357.5L737 545.75C749.25 552.75 754.5 561.5 754.5 571.5C754.5 583.5 746.5 593 729.5 593L69.5 593C52.75 593 44.5 583.5 44.5 571.5ZM378.25 328.25L421 328.25L421 297.75C421 266.5 437.25 253.75 462.75 233.25C489.5 212 528 183.5 528 121C528 48.5 477.25 0 401.25 0C326 0 275.75 53.25 275.75 133C275.75 146.25 285 155.25 296.75 155.25C308.5 155.25 317.5 146.25 317.5 135.5C317.5 79.5 351.25 42 401.25 42C452.5 42 486.5 73.75 486.5 121C486.5 162 464.5 181 441.75 199C413.25 222 378.25 242.5 378.25 297.75Z" fill="black" fill-opacity="0.85"/>
 </g>
</svg>
