<?xml version="1.0" encoding="UTF-8"?>
<!--Generator: Apple Native CoreSVG 326-->
<!DOCTYPE svg
PUBLIC "-//W3C//DTD SVG 1.1//EN"
       "http://www.w3.org/Graphics/SVG/1.1/DTD/svg11.dtd">
<svg version="1.1" xmlns="http://www.w3.org/2000/svg" xmlns:xlink="http://www.w3.org/1999/xlink" viewBox="0 0 884.874 511.25">
 <g>
  <rect height="511.25" opacity="0" width="884.874" x="0" y="0"/>
  <path d="M39.0621 480.25C225.312 469.5 584.062 390 670.062 311.25C604.312 153.5 526.812 7 259.062 52C48.3121 87.5-34.1879 264.25 13.0621 461C16.3121 474.5 24.8121 481 39.0621 480.25ZM54.3121 436.5C17.0621 267.5 87.5621 123.5 267.312 94C485.062 58.25 556.562 159.5 615.062 294.5C536.812 354.25 213.062 428.25 54.3121 436.5ZM214.812 69.5L304.062 57.25L301.312 36.25C299.312 20.25 283.312 10.75 262.812 14L239.812 18C220.812 21 209.812 36.25 212.312 52.75ZM725.812 511.25C803.562 511.25 861.062 442 877.562 403.25C891.812 367.25 883.812 354 865.812 348.5L641.812 280.75L628.812 320.25L832.562 381.75C823.562 421.5 775.812 466.75 722.562 466.75C651.312 466.75 567.562 434 462.812 382.5L402.062 400.5C503.812 449.25 619.062 511.25 725.812 511.25Z" fill="black" fill-opacity="0.85"/>
 </g>
</svg>
