<?xml version="1.0" encoding="UTF-8"?>
<!--Generator: Apple Native CoreSVG 326-->
<!DOCTYPE svg
PUBLIC "-//W3C//DTD SVG 1.1//EN"
       "http://www.w3.org/Graphics/SVG/1.1/DTD/svg11.dtd">
<svg version="1.1" xmlns="http://www.w3.org/2000/svg" xmlns:xlink="http://www.w3.org/1999/xlink" viewBox="0 0 648.5 674.25">
 <g>
  <rect height="674.25" opacity="0" width="648.5" x="0" y="0"/>
  <path d="M0 349C0 445.75 28 552 75 634.5C81.75 646.25 94.75 649.5 107 642.75C118.75 636.25 121.75 623.5 114.5 610.5C71 531.25 46.5 436.5 46.5 349C46.5 167.75 157.75 46.5 324.25 46.5C490.5 46.5 602 167.75 602 349C602 436.5 577.25 531.25 533.75 610.5C526.5 623.5 529.75 636.25 541.25 642.75C553.5 649.5 566.5 646.25 573.25 634.5C620.25 552 648.5 445.75 648.5 349C648.5 139 519.5 0 324.25 0C128.75 0 0 139 0 349ZM94 626.25C104.5 661 133.75 676.75 169 666.5C203.75 656.25 220 626.25 209.5 591.25L162.5 434.25C152 399.5 123 383.75 87.5 394C52.75 404.25 36.5 434 47 469ZM554.25 626.25L601.25 469C611.75 433.75 595.5 404.25 560.75 394C525.5 383.75 496.25 399.5 486 434.25L438.75 591.25C428.25 626.5 444.5 656.25 479.25 666.5C514.75 676.75 543.75 661 554.25 626.25Z" fill="black" fill-opacity="0.85"/>
 </g>
</svg>
