<?xml version="1.0" encoding="UTF-8"?>
<!--Generator: Apple Native CoreSVG 326-->
<!DOCTYPE svg
PUBLIC "-//W3C//DTD SVG 1.1//EN"
       "http://www.w3.org/Graphics/SVG/1.1/DTD/svg11.dtd">
<svg version="1.1" xmlns="http://www.w3.org/2000/svg" xmlns:xlink="http://www.w3.org/1999/xlink" viewBox="0 0 724.251 743.315">
 <g>
  <rect height="743.315" opacity="0" width="724.251" x="0" y="0"/>
  <path d="M120.647 222.929C97.1767 267.883 84.5005 322.282 84.5005 383.532C84.5005 406.725 86.2217 430.426 89.6752 454.216C96.8978 442.348 109.032 433.316 125.251 428.532C160.751 418.282 189.751 434.032 200.251 468.782L247.251 625.782C257.751 660.782 241.751 690.782 207.001 701.032C178.612 709.229 154.379 700.799 140.471 679.282C129.461 683.125 118.717 679.366 113.001 669.032C65.7505 586.532 37.7505 480.282 37.7505 383.532C37.7505 307.866 54.4985 241.417 85.2844 187.566ZM580.863 683.145C566.616 701.776 543.638 708.724 517.001 701.032C482.251 690.782 466.251 661.032 476.751 625.782L487.521 589.803ZM686.501 383.532C686.501 451.833 672.422 524.868 647.285 590.794L524.156 467.614C534.925 433.67 563.663 418.401 598.751 428.532C615.099 433.355 627.297 442.437 634.499 454.412C638.002 430.556 639.751 406.788 639.751 383.532C639.751 202.282 528.501 81.0324 362.001 81.0324C295.304 81.0324 237.513 100.489 192.416 135.738L158.218 101.526C211.644 58.3717 281.141 34.5324 362.001 34.5324C557.251 34.5324 686.501 173.532 686.501 383.532Z" fill="black" fill-opacity="0.85"/>
  <path d="M649.251 702.282C657.501 710.532 671.251 710.532 679.251 702.282C687.501 693.782 687.751 680.282 679.251 672.032L71.7505 64.0324C63.5005 55.7824 49.7505 55.5324 41.2505 64.0324C33.2505 72.2824 33.0005 86.0324 41.2505 94.2824Z" fill="black" fill-opacity="0.85"/>
 </g>
</svg>
