<?xml version="1.0" encoding="UTF-8"?>
<!--Generator: Apple Native CoreSVG 326-->
<!DOCTYPE svg
PUBLIC "-//W3C//DTD SVG 1.1//EN"
       "http://www.w3.org/Graphics/SVG/1.1/DTD/svg11.dtd">
<svg version="1.1" xmlns="http://www.w3.org/2000/svg" xmlns:xlink="http://www.w3.org/1999/xlink" viewBox="0 0 536.75 809.25">
 <g>
  <rect height="809.25" opacity="0" width="536.75" x="0" y="0"/>
  <path d="M96.25 774.5L440.5 774.5C504.5 774.5 536.75 742 536.75 677.25L536.75 183C536.75 119.5 505.5 85.5 443.25 85.5L430 85.5C430.25 87.75 430.25 90.5 430.25 92.75L430.25 117.5C430.25 121.75 430 126.25 429.25 130L442.25 130C475.5 130 492.5 150.25 492.5 183.75L492.5 676.5C492.5 711.25 474 730.25 438 730.25L98.75 730.25C62.75 730.25 44.25 711.25 44.25 676.5L44.25 183.75C44.25 150.25 61.25 130 94.5 130L107.5 130C106.75 126.25 106.5 121.75 106.5 117.5L106.5 92.75C106.5 90.5 106.5 87.75 106.75 85.5L93.5 85.5C31.25 85.5 0 119.5 0 183L0 677.25C0 742 32.25 774.5 96.25 774.5ZM169.5 155L367.25 155C384.75 155 395.5 144.25 395.5 126L395.5 92.5C395.5 74.25 384.75 63.5 367.25 63.5L335 63.5C333.25 28.5 304 0 268.5 0C232.75 0 203.5 28.5 201.75 63.5L169.5 63.5C152 63.5 141.25 74.25 141.25 92.5L141.25 126C141.25 144.25 152 155 169.5 155ZM268.5 94C252.5 94 239.75 80.75 239.75 65.5C239.75 49.5 252.5 36.75 268.5 36.75C284.25 36.75 297 49.5 297 65.5C297 80.75 284.25 94 268.5 94Z" fill="black" fill-opacity="0.85"/>
  <path d="M123.5 504L413.25 504C423 504 430.75 496.25 430.75 486.5C430.75 477 423 469.25 413.25 469.25L123.5 469.25C113.75 469.25 106 477 106 486.5C106 496.25 113.75 504 123.5 504ZM123.5 626.25L289 626.25C298.75 626.25 306.75 618.25 306.75 608.75C306.75 599 299 591.25 289 591.25L123.5 591.25C113.75 591.25 106 599 106 608.75C106 618.25 114 626.25 123.5 626.25Z" fill="black" fill-opacity="0.85"/>
  <path d="M192.25 406.25C194.25 406.25 196.75 404.5 199.5 402.75C231.25 383.5 277.75 343.5 277.75 299.75C277.75 271.75 257.75 250.75 230.5 250.75C213.75 250.75 199.75 261.25 192 275.75C184 261.25 170.25 250.75 152.75 250.75C125.75 250.75 106.25 271.75 106.25 299.75C106.25 343.5 153 382 184.75 402.75C187.25 404.75 190.25 406.25 192.25 406.25Z" fill="black" fill-opacity="0.85"/>
 </g>
</svg>
