<?xml version="1.0" encoding="UTF-8"?>
<!--Generator: Apple Native CoreSVG 326-->
<!DOCTYPE svg
PUBLIC "-//W3C//DTD SVG 1.1//EN"
       "http://www.w3.org/Graphics/SVG/1.1/DTD/svg11.dtd">
<svg version="1.1" xmlns="http://www.w3.org/2000/svg" xmlns:xlink="http://www.w3.org/1999/xlink" viewBox="0 0 650.5 490.25">
 <g>
  <rect height="490.25" opacity="0" width="650.5" x="0" y="0"/>
  <path d="M325 489.75C509.5 489.75 650.5 408.25 650.5 308.25L650.5 145.75L606.25 183.5L606.25 308.25C606.25 384 497 445.5 325 445.5C153 445.5 44 384 44 308.25L44 183.5L0 145.75L0 308.25C0 408.25 140.25 489.75 325 489.75ZM325 291C507.25 291 650.5 226 650.5 143.5C650.5 63.5 507.25 0 325 0C142.75 0 0 63.5 0 143.5C0 226 142.75 291 325 291ZM325 246.75C165.75 246.75 44 201 44 143.5C44 88.25 165.75 44.25 325 44.25C484.25 44.25 606.25 88.25 606.25 143.5C606.25 201 484.25 246.75 325 246.75Z" fill="black" fill-opacity="0.85"/>
 </g>
</svg>
