<?xml version="1.0" encoding="UTF-8"?>
<!--Generator: Apple Native CoreSVG 326-->
<!DOCTYPE svg
PUBLIC "-//W3C//DTD SVG 1.1//EN"
       "http://www.w3.org/Graphics/SVG/1.1/DTD/svg11.dtd">
<svg version="1.1" xmlns="http://www.w3.org/2000/svg" xmlns:xlink="http://www.w3.org/1999/xlink" viewBox="0 0 777.25 592.859">
 <g>
  <rect height="592.859" opacity="0" width="777.25" x="0" y="0"/>
  <path d="M22.25 393.805L310.25 393.805C346 393.805 384 399.055 422 409.805C511 433.555 587.5 487.305 671.75 569.555C712.5 612.555 777.25 592.555 777.25 530.305L777.25 62.0547C777.25-0.195293 712.5-19.9453 671.75 22.8047C553.25 140.805 436.25 198.555 310.25 198.555L22.25 198.555L22.25 242.805L310.25 242.805C447.25 242.805 575 180.805 701.5 55.8047C718.5 38.8047 733 41.3047 733 62.0547L733 530.305C733 551.055 718.5 553.555 701.5 536.805C575 411.555 447.25 349.555 310.25 349.555L22.25 349.555ZM22.25 429.805C34.25 429.805 44.25 419.805 44.25 407.805L44.25 184.305C44.25 172.305 34.25 162.305 22.25 162.305C10 162.305 0 172.305 0 184.305L0 407.805C0 419.805 10 429.805 22.25 429.805ZM79.75 446.805C79.75 497.055 121 538.305 171.25 538.305L354 538.305C404.25 538.305 445.75 497.055 445.75 446.805C445.75 396.555 404.25 355.055 354 355.055L171.25 355.055C121 355.055 79.75 396.555 79.75 446.805ZM124 446.805C124 421.055 145.5 399.305 171.25 399.305L354 399.305C380 399.305 401.5 421.055 401.5 446.805C401.5 472.555 380 493.805 354 493.805L171.25 493.805C145.5 493.805 124 472.555 124 446.805Z" fill="black" fill-opacity="0.85"/>
 </g>
</svg>
