<?xml version="1.0" encoding="UTF-8"?>
<!--Generator: Apple Native CoreSVG 326-->
<!DOCTYPE svg
PUBLIC "-//W3C//DTD SVG 1.1//EN"
       "http://www.w3.org/Graphics/SVG/1.1/DTD/svg11.dtd">
<svg version="1.1" xmlns="http://www.w3.org/2000/svg" xmlns:xlink="http://www.w3.org/1999/xlink" viewBox="0 0 651.25 651.75">
 <g>
  <rect height="651.75" opacity="0" width="651.25" x="0" y="0"/>
  <path d="M651.25 325.75C651.25 505 505 651.25 325.5 651.25C146.25 651.25 0 505 0 325.75C0 146.25 146.25 0 325.5 0C505 0 651.25 146.25 651.25 325.75ZM234.75 132.25C214.75 132.25 202.25 144 202.25 165L202.25 169.5C202.25 219.5 256.5 275.25 288.25 307C300.25 318.5 301 331.25 288.25 344C256.5 375.75 202.25 431.5 202.25 481L202.25 486.5C202.25 507.25 214.75 519 234.75 519L416.25 519C436.25 519 449 507.25 449 486.5L449 481C449 431.5 394.75 375.75 362.75 344C350 331.25 351 318.5 362.75 307C394.75 275.25 449 219.5 449 169.5L449 165C449 144 436.25 132.25 416.25 132.25ZM390.25 246.5C376.5 261.75 360.25 277.75 344.5 293.75C338.5 299.75 336.75 303.5 336.75 311.75L336.75 403.25C336.75 406.5 337.75 407.75 340.25 410.25L405.5 478C411.5 483.25 409.5 492.75 401 492.75L250 492.75C241.75 492.75 239.75 483.25 245.5 478L311 410.25C313.25 407.75 314.25 406.5 314.25 403.25L314.25 311.75C314.25 303.5 312.5 299.75 306.75 293.75C290.75 277.75 274.5 261.75 261 246.5C255.75 241 258.5 235.25 264.75 235.25L386.25 235.25C392.5 235.25 395.25 241 390.25 246.5Z" fill="black" fill-opacity="0.85"/>
 </g>
</svg>
