<?xml version="1.0" encoding="UTF-8"?>
<!--Generator: Apple Native CoreSVG 326-->
<!DOCTYPE svg
PUBLIC "-//W3C//DTD SVG 1.1//EN"
       "http://www.w3.org/Graphics/SVG/1.1/DTD/svg11.dtd">
<svg version="1.1" xmlns="http://www.w3.org/2000/svg" xmlns:xlink="http://www.w3.org/1999/xlink" viewBox="0 0 651.25 651.75">
 <g>
  <rect height="651.75" opacity="0" width="651.25" x="0" y="0"/>
  <path d="M651.25 326C651.25 505.5 505 651.75 325.5 651.75C146.25 651.75 0 505.5 0 326C0 146.75 146.25 0.5 325.5 0.5C505 0.5 651.25 146.75 651.25 326ZM428.75 167C423.75 168.75 421 173.25 421 178.5L421 302.25L291.75 234.75C281.25 229.25 272.5 229.5 262 235L126.5 305.5C115 311.5 122.25 329.25 137.25 322L271.75 253C275 251.5 278.5 251.5 282 253L413.5 320.25C416.25 321.5 418.5 322.5 421 323L421 453L394.5 453C395.5 450.25 395.75 447.5 395.75 444L395.75 329.5C393.5 328.5 391 327 388.75 326.25L276.75 268.5L164.5 326.25C162.25 327.25 160 328.5 158 329.5L158 444C158 447.5 158.25 450.5 159.25 453L133 453C127.75 453 123.25 457.5 123.25 463C123.25 468.75 127.75 473 133 473L483.75 473C489 473 493.5 468.75 493.5 463C493.5 457.5 489.25 453 483.75 453L440.75 453L440.75 244.25C442.5 243.75 444.75 243.75 447.25 243.75C469 243.75 482.75 254.5 505 254.5C514 254.5 518.25 253.5 523 251C528.25 248.75 530.75 245.25 530.75 239.75L530.75 178.75C530.75 174.75 528.25 172 523.75 172C519.5 172 514.5 175 504 175C483.25 175 469.5 163.75 446.75 163.75C437.25 163.75 433.25 165 428.75 167ZM318 363L318 453L235.25 453L235.25 363C235.25 356.75 239.5 353.25 245.25 353.25L308 353.25C314 353.25 318 356.75 318 363Z" fill="black" fill-opacity="0.85"/>
 </g>
</svg>
