<?xml version="1.0" encoding="UTF-8"?>
<!--Generator: Apple Native CoreSVG 326-->
<!DOCTYPE svg
PUBLIC "-//W3C//DTD SVG 1.1//EN"
       "http://www.w3.org/Graphics/SVG/1.1/DTD/svg11.dtd">
<svg version="1.1" xmlns="http://www.w3.org/2000/svg" xmlns:xlink="http://www.w3.org/1999/xlink" viewBox="0 0 1286.25 550.75">
 <g>
  <rect height="550.75" opacity="0" width="1286.25" x="0" y="0"/>
  <path d="M382.195 189L250 189C242.5 189 239.25 189.5 234.5 192.5L74.5002 298.75L241.889 298.75L241.25 299.25C219.25 316.5 246 351.25 272.5 330.5L299.75 309.5L299.75 337L100.5 337L100.5 473C100.5 496.25 112 507.75 134.75 507.75L302.897 507.75C310.685 535.643 333.238 550.75 367.75 550.75L126 550.75C82.2502 550.75 57.2502 526.75 57.2502 483.5L57.2502 337L23.0002 337C-0.74977 337-6.99977 310.25 8.50023 299.25L212.5 161.25C223.25 154 235 150.75 250 150.75L431.095 150.75Z" fill="black" fill-opacity="0.85"/>
  <path d="M1073.75 161.25L1277.75 299.25C1293.25 310.25 1287 337 1263.5 337L1229 337L1229 483.5C1229 526.75 1204 550.75 1160.25 550.75L918 550.75C952.711 550.75 975.305 535.643 983.101 507.75L1151.5 507.75C1174.25 507.75 1185.75 496.25 1185.75 473L1185.75 337L986.25 337L986.25 309.5L1013.5 330.5C1040 351.25 1066.75 316.5 1044.75 299.25L1044.11 298.75L1211.75 298.75L1051.75 192.5C1047 189.5 1043.75 189 1036.25 189L903.805 189L854.906 150.75L1036.75 150.75C1051.25 150.75 1063 154 1073.75 161.25Z" fill="black" fill-opacity="0.85"/>
  <path d="M272.5 330.5L627.25 53.5C631.75 49.75 637.5 47.25 643 47.25C648.5 47.25 654.25 49.75 659 53.5L1013.5 330.5C1040 351.25 1066.75 316.5 1044.75 299.25L682 15.5C669.25 5.5 656.25 0 643 0C629.5 0 616.75 5.5 604 15.5L241.25 299.25C219.25 316.5 246 351.25 272.5 330.5ZM368 550.75L918 550.75C961.75 550.75 986.25 526.75 986.25 483.5L986.25 270.25L943.25 265.25L943.25 473C943.25 496.25 931.75 507.75 909.25 507.75L376.75 507.75C354 507.75 342.75 496.25 342.75 473L342.75 265.25L299.75 270.25L299.75 483.5C299.75 526.75 324.5 550.75 368 550.75ZM558.5 521.25L727.5 521.25L727.5 359.5C727.5 347.5 719.25 339.25 707 339.25L579 339.25C567.25 339.25 558.5 347.5 558.5 359.5Z" fill="black" fill-opacity="0.85"/>
 </g>
</svg>
