<?xml version="1.0" encoding="UTF-8"?>
<!--Generator: Apple Native CoreSVG 326-->
<!DOCTYPE svg
PUBLIC "-//W3C//DTD SVG 1.1//EN"
       "http://www.w3.org/Graphics/SVG/1.1/DTD/svg11.dtd">
<svg version="1.1" xmlns="http://www.w3.org/2000/svg" xmlns:xlink="http://www.w3.org/1999/xlink" viewBox="0 0 651.25 651.75">
 <g>
  <rect height="651.75" opacity="0" width="651.25" x="0" y="0"/>
  <path d="M325.5 651.25C505.25 651.25 651.25 505.5 651.25 325.75C651.25 146 505.25 0 325.5 0C145.75 0 0 146 0 325.75C0 505.5 145.75 651.25 325.5 651.25ZM325.5 604.75C171.25 604.75 46.5 480 46.5 325.75C46.5 171.5 171.25 46.75 325.5 46.75C479.75 46.75 604.5 171.5 604.5 325.75C604.5 480 479.75 604.75 325.5 604.75Z" fill="black" fill-opacity="0.85"/>
  <path d="M175 333L319.75 220C321.5 218.5 323.5 217.75 325.25 217.75C327 217.75 329.25 218.5 330.75 220L475.5 333C487.5 342.5 500 326.5 489.75 318.25L342.25 202.5C337.5 198.75 331 196 325.25 196C319.5 196 313.5 198.5 308.5 202.5L161 318.25C150.5 326.5 163 342.5 175 333ZM213.75 421.25L436.75 421.25C454.25 421.25 464.25 411.5 464.25 393.75L464.25 345.5C459.75 343 455.5 340.25 450.5 336.75L325.25 238.5L199.75 336.75C195 340.25 191 343 186.25 345.5L186.25 393.75C186.25 411.5 196.25 421.25 213.75 421.25ZM291 401.5L290.75 343.5C290.75 338.75 294.5 335.5 299.5 335.5L351.5 335.5C356.5 335.5 359.75 338.75 359.75 343.5L359.75 401.5ZM149.75 304L206.75 259.5L180.5 259.5C174.5 259.5 169.75 260.75 165.5 263.75L82.5 319.25C76.5 323.75 79 334.25 88.25 334.25L141 334.25C137.5 324.25 138.5 312.5 149.75 304ZM168 393.75L168 350.5L102 350.75L102 393.75C102 411.5 112.25 421.25 129.75 421.25L175.75 421.25C170.75 413.75 168 404.5 168 393.75ZM500.75 304C512 312.5 513.25 324.25 509.75 334.25L562.5 334.25C571.5 334.25 574.25 324.25 567.75 319.25L485 263.75C480.75 260.75 476.25 259.5 470 259.5L443.75 259.5ZM482.5 393.75C482.5 404.5 479.75 413.75 474.75 421.25L520.75 421.25C538.5 421.25 548.5 411.5 548.5 393.75L548.5 350.75L482.5 350.5Z" fill="black" fill-opacity="0.85"/>
 </g>
</svg>
