<?xml version="1.0" encoding="UTF-8"?>
<!--Generator: Apple Native CoreSVG 326-->
<!DOCTYPE svg
PUBLIC "-//W3C//DTD SVG 1.1//EN"
       "http://www.w3.org/Graphics/SVG/1.1/DTD/svg11.dtd">
<svg version="1.1" xmlns="http://www.w3.org/2000/svg" xmlns:xlink="http://www.w3.org/1999/xlink" viewBox="0 0 1002.01 697.75">
 <g>
  <rect height="697.75" opacity="0" width="1002.01" x="0" y="0"/>
  <path d="M35.0057 354.5L338.256 199.75C346.006 195.75 354.256 195.75 362.506 199.75L665.756 354.5C697.256 370.75 713.756 332.75 688.256 319L383.756 160C360.256 147.75 340.756 147.75 317.006 160.25L12.5057 319C-12.9943 332.75 3.50569 370.75 35.0057 354.5ZM148.256 696.5L552.756 696.5C595.256 696.5 619.506 672.5 619.506 630.75L619.506 374.25C614.006 371.75 609.006 368.75 603.256 366L350.256 236.75L96.5057 366.5C91.5057 369 86.7557 371.5 81.7557 374L81.7557 630.75C81.7557 672.75 106.006 696.5 148.256 696.5ZM257.506 654L257.506 447.75C257.506 434.5 266.506 425.5 279.756 425.5L420.506 425.5C434.006 425.5 443.006 434.5 443.006 447.75L443.006 654ZM777.756 696.5C789.506 696.5 799.006 686.75 799.006 675L799.006 179.25C803.006 178.5 808.006 177.5 815.006 177.5C865.256 177.5 896.256 202.25 945.006 202.25C965.756 202.25 975.006 200 985.506 195.25C996.756 189.75 1002.01 182.25 1002.01 170.25L1002.01 32.5C1002.01 24.5 998.006 19 987.506 19C979.256 19 967.006 25 943.756 25C895.756 25 864.256 0 813.756 0C792.506 0 783.506 2.75 773.506 7C762.256 11.5 756.756 20 756.756 31.5L756.756 675C756.756 686.75 766.256 696.5 777.756 696.5ZM26.2557 696.5L901.006 696.5C912.756 696.5 922.256 686.75 922.256 675C922.256 663.5 912.756 654 901.006 654L26.2557 654C14.7557 654 5.00569 663.5 5.00569 675C5.00569 686.75 14.7557 696.5 26.2557 696.5Z" fill="black" fill-opacity="0.85"/>
 </g>
</svg>
