<?xml version="1.0" encoding="UTF-8"?>
<!--Generator: Apple Native CoreSVG 326-->
<!DOCTYPE svg
PUBLIC "-//W3C//DTD SVG 1.1//EN"
       "http://www.w3.org/Graphics/SVG/1.1/DTD/svg11.dtd">
<svg version="1.1" xmlns="http://www.w3.org/2000/svg" xmlns:xlink="http://www.w3.org/1999/xlink" viewBox="0 0 706 679.75">
 <g>
  <rect height="679.75" opacity="0" width="706" x="0" y="0"/>
  <path d="M390.75 10.75L667 170.25C677 176 681.5 183.25 681.5 191.5C681.5 202.75 673 213.5 657.75 213.5L628.75 213.5L628.75 595.25L649.25 595.25C660.25 595.25 666.75 601.75 666.75 612.5L666.75 635L683.75 635C696 635 706 645 706 657.25C706 669.25 696 679.25 683.75 679.25L22.25 679.25C10 679.25 0 669.25 0 657.25C0 645 10 635 22.25 635L39.25 635L39.25 612.5C39.25 601.75 45.75 595.25 57 595.25L77.5 595.25L77.5 213.5L48.25 213.5C33 213.5 24.5 202.75 24.5 191.5C24.5 183.25 28.75 176 39 170.25L315.25 10.75C327.25 3.75 340.5 0 353 0C365.5 0 378.5 3.75 390.75 10.75ZM246 377C240.25 377 236 381 236 387.25C236 393 240.25 397.25 246 397.25L276.25 397.25C263 407.75 255 423.25 255 439.75C255 488.25 305 512 353.25 512C391.75 512 426.75 498 443.5 467.5C447 461.5 450 453.5 450 447.25C450 438.5 443.75 432.75 434.5 432.75C426.75 432.75 422 436.75 418.75 444C408 471.25 383 482.75 352.75 482.75C319.75 482.75 288.75 466.25 288.75 438C288.75 419.5 298.5 405.5 314.25 397.25L459.75 397.25C465.75 397.25 470 393 470 387.25C470 381 465.75 377 459.75 377ZM269.5 257.25C265.25 264 263.25 270 263.25 277.25C263.25 285.75 269 291.5 278.25 291.5C285.75 291.5 289.75 288.25 293.25 281.5C304.25 257.25 327.25 246.75 352.25 246.75C383 246.75 412.25 260.75 412.25 291C412.25 302.25 407 316.5 394 324.25L246 324.25C240.25 324.25 236 328.25 236 334.5C236 340.25 240.25 344.25 246 344.25L459.75 344.25C465.75 344.25 470 340.25 470 334.5C470 328.25 465.75 324.25 459.75 324.25L430.25 324.25C440 314.75 445.75 301.75 445.75 288.75C445.75 240.75 399 217.5 351.5 217.5C323.25 217.5 289.5 226.25 269.5 257.25Z" fill="black" fill-opacity="0.85"/>
 </g>
</svg>
