<?xml version="1.0" encoding="UTF-8"?>
<!--Generator: Apple Native CoreSVG 326-->
<!DOCTYPE svg
PUBLIC "-//W3C//DTD SVG 1.1//EN"
       "http://www.w3.org/Graphics/SVG/1.1/DTD/svg11.dtd">
<svg version="1.1" xmlns="http://www.w3.org/2000/svg" xmlns:xlink="http://www.w3.org/1999/xlink" viewBox="0 0 571 610.25">
 <g>
  <rect height="610.25" opacity="0" width="571" x="0" y="0"/>
  <path d="M104.5 149.75L466.25 149.75C442.5 112.5 416 74.25 387.5 35.75C369.75 12.25 357.75 0 327.25 0L243.75 0C213.25 0 201 12.25 183.5 35.75C155 74.25 128.25 112.5 104.5 149.75ZM285.5 325.25C322.75 325.25 353.5 349.5 363.25 383.75L570 383.75C563 331 535.75 265.75 495 195.5L75.75 195.5C35.25 265.75 7.75 331 1 383.75L207.75 383.75C217.5 349.5 248.25 325.25 285.5 325.25ZM285.5 446.75C308.25 446.75 325.75 429.25 325.75 406.25C325.75 383.75 308.25 365.75 285.5 365.75C262.75 365.75 245 383.75 245 406.25C245 429.25 262.75 446.75 285.5 446.75ZM210.25 609.75L360.75 609.75C492.75 609.75 563.5 541.75 571 429.5L363.25 429.5C353.75 463 323 487.25 285.5 487.25C248.25 487.25 217.25 463 207.75 429.5L0 429.5C7.25 541.75 78.25 609.75 210.25 609.75Z" fill="black" fill-opacity="0.85"/>
 </g>
</svg>
