<?xml version="1.0" encoding="UTF-8"?>
<!--Generator: Apple Native CoreSVG 326-->
<!DOCTYPE svg
PUBLIC "-//W3C//DTD SVG 1.1//EN"
       "http://www.w3.org/Graphics/SVG/1.1/DTD/svg11.dtd">
<svg version="1.1" xmlns="http://www.w3.org/2000/svg" xmlns:xlink="http://www.w3.org/1999/xlink" viewBox="0 0 572.5 610.25">
 <g>
  <rect height="610.25" opacity="0" width="572.5" x="0" y="0"/>
  <path d="M211 609.75L361.5 609.75C501.5 609.75 572.5 534 572.5 409C572.5 312.75 491.75 175.25 388.25 35.75C370.5 12.25 358.5 0 328 0L244.5 0C214 0 201.75 12.25 184.25 35.75C80.5 175.25 0 312.75 0 409C0 534 71 609.75 211 609.75ZM44.25 409C44.25 328 112 208.25 220 58.75C227.5 48.5 232.75 44.25 245.5 44.25L326.75 44.25C339.75 44.25 345 48.5 352.25 58.75C460.5 208.25 528.25 328 528.25 409C528.25 506 473.25 565.5 361.5 565.5L211 565.5C99.25 565.5 44.25 506 44.25 409ZM124.25 154L116.75 198.25L455.75 198.25L448.25 154ZM35 426.5L223 426.5L223 382L35 382ZM286.25 483C330.5 483 365 448.25 365 404C365 360 330.5 325.25 286.25 325.25C242 325.25 207.25 360 207.25 404C207.25 448.25 242 483 286.25 483ZM286.25 443.75C264 443.75 246.5 426.5 246.5 404C246.5 381.75 264 364.5 286.25 364.5C308.5 364.5 325.75 381.75 325.75 404C325.75 426.5 308.5 443.75 286.25 443.75ZM349.25 426.5L540.5 426.5L540.5 382L349.25 382Z" fill="black" fill-opacity="0.85"/>
 </g>
</svg>
