<?xml version="1.0" encoding="UTF-8"?>
<!--Generator: Apple Native CoreSVG 326-->
<!DOCTYPE svg
PUBLIC "-//W3C//DTD SVG 1.1//EN"
       "http://www.w3.org/Graphics/SVG/1.1/DTD/svg11.dtd">
<svg version="1.1" xmlns="http://www.w3.org/2000/svg" xmlns:xlink="http://www.w3.org/1999/xlink" viewBox="0 0 706 679.75">
 <g>
  <rect height="679.75" opacity="0" width="706" x="0" y="0"/>
  <path d="M390.75 10.75L667 170.25C677 176 681.5 183.25 681.5 191.5C681.5 202.75 673 213.5 657.75 213.5L628.75 213.5L628.75 595.25L649.25 595.25C660.25 595.25 666.75 601.75 666.75 612.5L666.75 635L683.75 635C696 635 706 645 706 657.25C706 669.25 696 679.25 683.75 679.25L22.25 679.25C10 679.25 0 669.25 0 657.25C0 645 10 635 22.25 635L39.25 635L39.25 612.5C39.25 601.75 45.75 595.25 57 595.25L77.5 595.25L77.5 213.5L48.25 213.5C33 213.5 24.5 202.75 24.5 191.5C24.5 183.25 28.75 176 39 170.25L315.25 10.75C327.25 3.75 340.5 0 353 0C365.5 0 378.5 3.75 390.75 10.75ZM260.75 220C253.25 220 248.75 225.25 248.75 233.5L248.75 235.5C248.75 243.5 253.25 248.75 260.75 248.75L315.75 248.75C349.5 248.75 376.5 262.75 381 296.5L259.25 296.5C253.75 296.5 249 301 249 306.5C249 312 253.75 316.5 259.25 316.5L380.75 316.5C376.5 351.25 349.25 363.75 314.5 363.75L267.75 363.75C256.75 363.75 249.5 370.75 249.5 380.5L249.5 381.5C249.5 390 253.25 395.25 260 401.25L375.5 509C380.5 513.75 384.75 517.5 392.25 517.5C401 517.5 407.5 510.25 407.5 502.25C407.5 496.5 404.5 492.5 400.25 488.5L297.5 392.75L317.5 392.75C368.75 392.75 409.75 367.25 416 316.5L442.5 316.5C448.25 316.5 452.75 312 452.75 306.5C452.75 301 448.25 296.5 442.5 296.5L416.75 296.5C414.75 274.75 405.75 253.75 387.5 240.25L442.5 240.25C448.25 240.25 452.75 235.75 452.75 230.25C452.75 224.25 448.25 220 442.5 220Z" fill="black" fill-opacity="0.85"/>
 </g>
</svg>
