<?xml version="1.0" encoding="UTF-8"?>
<!--Generator: Apple Native CoreSVG 326-->
<!DOCTYPE svg
PUBLIC "-//W3C//DTD SVG 1.1//EN"
       "http://www.w3.org/Graphics/SVG/1.1/DTD/svg11.dtd">
<svg version="1.1" xmlns="http://www.w3.org/2000/svg" xmlns:xlink="http://www.w3.org/1999/xlink" viewBox="0 0 508.75 741.491">
 <g>
  <rect height="741.491" opacity="0" width="508.75" x="0" y="0"/>
  <path d="M350.75 739.12C379.25 744.62 395.25 740.62 410.5 726.37L494.25 645.87C505.25 635.62 508.75 626.37 508.75 607.87L508.75 525.12C508.75 501.12 501.25 492.12 483.5 488.37L365.25 463.87C358.5 462.37 354.5 459.12 351.75 448.12L276.5 165.37C264.5 120.87 234.25 105.37 195 127.87C147.75 154.87 95.5 165.62 57.5 166.12C17 166.62-8 200.37 4 244.12L114.5 645.62C124.25 679.62 143.75 698.37 184.25 706.37ZM337.25 715.62L358.5 696.87L195 665.62C168.5 660.37 160 651.12 154 629.37L46.75 242.12C40.5 219.62 46.5 208.87 64.5 208.62C107.75 207.87 169.75 192.12 207 170.87C225.25 160.37 233.5 162.87 239 183.37L314.25 471.12C319.25 490.62 327.5 498.12 344.5 501.62L442.5 520.87L437.25 501.37L347.25 581.87C332.75 594.87 330.75 602.87 331.75 619.87ZM393 691.87C387.75 697.12 383.25 695.12 382.75 688.62L380.25 627.12C379.75 616.37 381.5 610.12 390.75 601.62L462.25 534.12C465 531.37 469.75 532.12 469.75 537.37L469.75 609.62C469.75 614.62 467.5 620.37 464.75 622.87ZM30.25 191.87L65 177.37L49.25 121.37C88.5 124.62 147.5 108.37 173.5 86.8703L190.25 143.87L227.25 134.12L198 33.1203C188.5 0.12027 138.25-3.37973 79.75 12.6203C15 31.3703-7 63.8703 2 94.8703ZM68.75 80.1203C52.5 79.8703 48.5 71.3703 70 60.3703C86.75 50.6203 116.5 42.3703 132.75 42.8703C149.5 45.1203 144.5 55.1203 129.5 63.8703C113.5 72.6203 85.5 81.8703 68.75 80.1203Z" fill="black" fill-opacity="0.85"/>
 </g>
</svg>
