<?xml version="1.0" encoding="UTF-8"?>
<!--Generator: Apple Native CoreSVG 326-->
<!DOCTYPE svg
PUBLIC "-//W3C//DTD SVG 1.1//EN"
       "http://www.w3.org/Graphics/SVG/1.1/DTD/svg11.dtd">
<svg version="1.1" xmlns="http://www.w3.org/2000/svg" xmlns:xlink="http://www.w3.org/1999/xlink" viewBox="0 0 752.5 542.75">
 <g>
  <rect height="542.75" opacity="0" width="752.5" x="0" y="0"/>
  <path d="M285.25 435.5C285.25 445.25 292.75 452.5 302.25 452.5C311.5 452.5 318.75 445.25 318.75 435.5L318.75 369.25C318.75 360 311.5 352.5 302.25 352.5C292.75 352.5 285.25 360 285.25 369.25ZM359.5 435.5C359.5 445.25 366.75 452.5 376.25 452.5C385.5 452.5 393 445.25 393 435.5L393 369.25C393 360 385.5 352.5 376.25 352.5C366.75 352.5 359.5 360 359.5 369.25ZM433.5 435.5C433.5 445.25 441 452.5 450.5 452.5C459.75 452.5 467 445.25 467 435.5L467 369.25C467 360 459.75 352.5 450.5 352.5C441 352.5 433.5 360 433.5 369.25ZM507.75 435.5C507.75 445.25 515 452.5 524.5 452.5C533.75 452.5 541.25 445.25 541.25 435.5L541.25 369.25C541.25 360 533.75 352.5 524.5 352.5C515 352.5 507.75 360 507.75 369.25ZM581.75 435.5C581.75 445.25 589.25 452.5 598.75 452.5C608 452.5 615.25 445.25 615.25 435.5L615.25 369.25C615.25 360 608 352.5 598.75 352.5C589.25 352.5 581.75 360 581.75 369.25ZM0 402.75C0 481.25 61.25 542.75 146 542.75L606.75 542.75C691.25 542.75 752.5 481.25 752.5 402.75C752.5 379.5 745.5 358.25 737.5 338.5L624.5 74.75C604 26 563 0.75 508.75 0.75L243.75 0.75C189.75 0.75 148.75 26 128.25 74.75L15 338.5C7 358 0 379.5 0 402.75ZM44.25 402.75C44.25 348.75 85.75 307.25 146 307.25L606.75 307.25C666.75 307.25 708.25 348.75 708.25 402.75C708.25 461.75 666.75 498.25 606.75 498.25L146 498.25C85.75 498.25 44.25 456.75 44.25 402.75ZM92.75 274L170.75 86.5C183.5 55.5 209.5 39.75 245.25 39.75L507.5 39.75C543 39.75 569.25 55.5 581.75 86.5L659.5 273.75C643.75 267 625.75 262.75 606.75 262.75L146 262.75C126.75 262.75 108.75 267 92.75 274Z" fill="black" fill-opacity="0.85"/>
 </g>
</svg>
