<?xml version="1.0" encoding="UTF-8"?>
<!--Generator: Apple Native CoreSVG 326-->
<!DOCTYPE svg
PUBLIC "-//W3C//DTD SVG 1.1//EN"
       "http://www.w3.org/Graphics/SVG/1.1/DTD/svg11.dtd">
<svg version="1.1" xmlns="http://www.w3.org/2000/svg" xmlns:xlink="http://www.w3.org/1999/xlink" viewBox="0 0 462 827.25">
 <g>
  <rect height="827.25" opacity="0" width="462" x="0" y="0"/>
  <path d="M288 57.25L288 60.75L378 60.75C431.5 60.75 462 91.75 462 146.25L462 598C462 652.25 431.5 683.5 378 683.5L247.75 683.5L247.75 728.25C247.75 766 267.25 782.75 305.5 782.75L441.75 782.75C452.75 782.75 462 791.75 462 803.25C462 814.25 452.75 823.25 441.75 823.25L305.5 823.25C245 823.25 207 788.25 207 728.25L207 683.5L83.75 683.5C30.25 683.5 0 652.25 0 598L0 146.25C0 91.75 30.25 60.75 83.75 60.75L173.75 60.75L173.75 57.25C173.75 23.75 197 0.25 231 0C264.75 0.25 288 23.75 288 57.25ZM86 106.5C59.75 106.5 45.75 121 45.75 146.75L45.75 597.5C45.75 623.5 59.75 638 86 638L376 638C402 638 416.25 623.5 416.25 597.5L416.25 146.75C416.25 121 402 106.5 376 106.5ZM209.75 57.75C209.75 69.5 219 79.25 231 79.25C242.75 79.25 252 69.5 252 57.75C252 45.75 242.75 36.25 231 36.25C219 36.25 209.75 45.75 209.75 57.75Z" fill="black" fill-opacity="0.85"/>
  <path d="M369 217.75L369 559.25C369 578 356.25 590.25 337.25 590.25L125.25 590.25C106 590.25 93.25 578 93.25 559.25L93.25 217.75C93.25 199 106 186.5 125.25 186.5L337.25 186.5C356.25 186.5 369 199 369 217.75ZM190.25 499.5C181.75 499.5 176 505.75 176 513.75C176 521.75 181.75 528 190.25 528L272.25 528C280.5 528 286.5 521.75 286.5 513.75C286.5 505.75 280.5 499.5 272.25 499.5ZM166.5 434.25C158 434.25 152 440.5 152 448.5C152 456.5 158 462.75 166.5 462.75L297.5 462.75C305.75 462.75 311.75 456.5 311.75 448.5C311.75 440.5 305.75 434.25 297.5 434.25ZM222.75 246L196 295.75C188.25 309.5 180.25 324.75 180.25 340.25C180.25 368.25 203.5 389.75 231 389.75C258.75 389.75 281.5 368.25 281.5 340.25C281.5 324.75 273.5 309.5 265.75 295.75L239.25 246.25C234.25 236.75 227.75 237 222.75 246Z" fill="black" fill-opacity="0.85"/>
 </g>
</svg>
