<?xml version="1.0" encoding="UTF-8"?>
<!--Generator: Apple Native CoreSVG 326-->
<!DOCTYPE svg
PUBLIC "-//W3C//DTD SVG 1.1//EN"
       "http://www.w3.org/Graphics/SVG/1.1/DTD/svg11.dtd">
<svg version="1.1" xmlns="http://www.w3.org/2000/svg" xmlns:xlink="http://www.w3.org/1999/xlink" viewBox="0 0 413.25 689.25">
 <g>
  <rect height="689.25" opacity="0" width="413.25" x="0" y="0"/>
  <path d="M413.25 95L413.25 594.5C413.25 646.25 382 689.25 309.25 689.25L104 689.25C31.25 689.25 0 646.25 0 594.5L0 95C0 43.25 31.25 0.25 104 0.25L309.25 0.25C382 0.25 413.25 43.25 413.25 95ZM109.75 306.75C109.75 347.25 133.75 382.75 171.75 397.25L171.75 545.25C171.75 549.25 173 552 175.75 555.25L200.75 580.5C203.75 583.25 209 583.75 213 580.5L260.75 533.25C264.25 529.5 263.75 524.5 260.75 520.75L231.75 492.5L271.5 452.5C274.5 449.25 274.5 444.25 271.25 440.75L232.25 401.25C278 382.5 303.75 348.25 303.75 306.75C303.75 253.5 260.25 210.25 206.75 210.25C152.75 210.25 109.75 253 109.75 306.75ZM234 277.5C234 292.5 221.5 304.75 206.5 304.75C191.5 304.75 179 292.5 179 277.5C179 262.25 191 250 206.5 250C221.5 250 234 262.25 234 277.5ZM101.5 74.75C88.5 74.75 77.25 85.75 77.25 98.75L77.25 109.5C77.25 114 81.25 118 85.75 118L327.25 118C332 118 335.75 114 335.75 109.5L335.75 98.75C335.75 85.75 324.75 74.75 311.75 74.75Z" fill="black" fill-opacity="0.85"/>
 </g>
</svg>
