<?xml version="1.0" encoding="UTF-8"?>
<!--Generator: Apple Native CoreSVG 326-->
<!DOCTYPE svg
PUBLIC "-//W3C//DTD SVG 1.1//EN"
       "http://www.w3.org/Graphics/SVG/1.1/DTD/svg11.dtd">
<svg version="1.1" xmlns="http://www.w3.org/2000/svg" xmlns:xlink="http://www.w3.org/1999/xlink" viewBox="0 0 706 679.75">
 <g>
  <rect height="679.75" opacity="0" width="706" x="0" y="0"/>
  <path d="M390.75 10.75L667 170.25C677 176 681.5 183.25 681.5 191.5C681.5 202.75 673 213.5 657.75 213.5L628.75 213.5L628.75 595.25L649.25 595.25C660.25 595.25 666.75 601.75 666.75 612.5L666.75 635L683.75 635C696 635 706 645 706 657.25C706 669.25 696 679.25 683.75 679.25L22.25 679.25C10 679.25 0 669.25 0 657.25C0 645 10 635 22.25 635L39.25 635L39.25 612.5C39.25 601.75 45.75 595.25 57 595.25L77.5 595.25L77.5 213.5L48.25 213.5C33 213.5 24.5 202.75 24.5 191.5C24.5 183.25 28.75 176 39 170.25L315.25 10.75C327.25 3.75 340.5 0 353 0C365.5 0 378.5 3.75 390.75 10.75ZM423.75 225.25L319.5 355.25L297.25 355.25L297.25 234.25C297.25 223.5 290.5 216.75 280.25 216.75C269.5 216.75 263 223.5 263 234.25L263 355.25L239.5 355.25C233.5 355.25 229.25 359.25 229.25 365.5C229.25 371 233.5 375.25 239.5 375.25L263 375.25L263 499.25C263 510 269.5 517 280.25 517C290.5 517 297.25 510 297.25 499.25L297.25 375.25L319.25 375.25L423.25 508.25C427.5 513.5 431.75 517 438.25 517C449.25 517 454.25 508.5 454.25 502C454.25 497.25 452.5 493.75 449.25 489.5L356.75 375.25L451.5 375.25C457.25 375.25 462 370.75 462 365.25C462 359.25 457.25 355.25 451.5 355.25L357.25 355.25L449.5 243C452.5 239.5 454 235.75 454 232C454 223.25 447 216.75 438.25 216.75C432.25 216.75 427.5 221 423.75 225.25Z" fill="black" fill-opacity="0.85"/>
 </g>
</svg>
