<?xml version="1.0" encoding="UTF-8"?>
<!--Generator: Apple Native CoreSVG 326-->
<!DOCTYPE svg
PUBLIC "-//W3C//DTD SVG 1.1//EN"
       "http://www.w3.org/Graphics/SVG/1.1/DTD/svg11.dtd">
<svg version="1.1" xmlns="http://www.w3.org/2000/svg" xmlns:xlink="http://www.w3.org/1999/xlink" viewBox="0 0 599.607 757.75">
 <g>
  <rect height="757.75" opacity="0" width="599.607" x="0" y="0"/>
  <path d="M334.053 409.25L584.803 158.25C612.303 130.75 599.303 91 563.803 79.75C497.053 58.5 428.553 53.25 349.553 58L338.803 46.5C305.053 11 256.303 9 220.053 44.25C184.803 80.75 186.303 131 222.303 163.75L233.803 174.25C229.053 253 234.053 321 255.053 388C266.303 423.75 306.303 437 334.053 409.25ZM306.303 381.5C300.803 387 295.303 385.75 290.553 371.25C272.053 312.25 268.303 249 273.303 172.5C273.803 162.75 270.053 154 263.053 147.75L248.803 134.75C229.553 117.25 228.053 93 247.803 72C268.553 52 292.553 53.25 310.553 73.25L323.553 87.25C330.053 94.5 339.303 98.5 349.553 97.75C424.803 92.75 488.553 96.5 547.053 115.5C561.303 120 562.303 125.25 557.053 130.5ZM447.053 375.5C503.803 375.25 550.803 328.75 550.803 272C550.803 244.25 539.803 218 519.553 198L498.553 236C506.553 245.75 511.303 258.5 511.303 272C511.303 307.5 482.053 336 447.053 336.25C433.303 336.25 420.303 331.25 410.553 323.5L375.803 347.25C395.053 365.75 420.553 375.5 447.053 375.5ZM221.803 76L250.553 45.75L212.303 7.75C203.803-0.5 191.053-0.5 183.053 7.75C174.803 15.5 174.553 28.5 183.053 36.75ZM54.8034 433.25L256.803 247.25L243.053 200L24.5534 401.25ZM44.5534 458.25C69.5534 458.25 89.3034 438.75 89.3034 413.5C89.3034 388.75 69.5534 369 44.5534 369C19.5534 369 0.0534047 388.75 0.0534047 413.5C0.0534047 438.75 19.5534 458.25 44.5534 458.25ZM173.303 572.25L204.553 541L53.0534 389.75L21.8034 421ZM182.553 602.75C207.553 602.75 227.053 584.25 227.053 558C227.053 533.25 207.303 513.5 182.553 513.5C157.303 513.5 137.803 533.25 137.803 558C137.803 583.25 157.303 602.75 182.553 602.75ZM160.303 719L204.553 719L204.553 560.5L160.303 560.5ZM37.5534 757.75L359.303 757.75C369.553 757.75 376.803 750.25 376.803 739.5C376.803 718.5 359.053 703.5 330.303 703.5L66.5534 703.5C38.0534 703.5 20.3034 718.5 20.3034 739.5C20.3034 750.25 27.3034 757.75 37.5534 757.75Z" fill="black" fill-opacity="0.85"/>
 </g>
</svg>
