<?xml version="1.0" encoding="UTF-8"?>
<!--Generator: Apple Native CoreSVG 326-->
<!DOCTYPE svg
PUBLIC "-//W3C//DTD SVG 1.1//EN"
       "http://www.w3.org/Graphics/SVG/1.1/DTD/svg11.dtd">
<svg version="1.1" xmlns="http://www.w3.org/2000/svg" xmlns:xlink="http://www.w3.org/1999/xlink" viewBox="0 0 476.883 775.75">
 <g>
  <rect height="775.75" opacity="0" width="476.883" x="0" y="0"/>
  <path d="M238.566 428.75C308.316 428.75 376.066 424.75 429.316 416.75C472.066 410.25 485.316 379.5 471.816 336L388.316 65.75C374.316 20.5 339.316 0 290.816 0L186.066 0C137.566 0 102.816 20.5 88.5665 65.75L5.31647 336C-8.43353 379.5 5.06647 410.25 47.5665 416.75C100.816 424.75 168.566 428.75 238.566 428.75ZM216.316 413.5L216.316 752L260.566 752L260.566 413.5ZM98.5665 772.75L378.316 772.75C388.816 772.75 395.816 765.5 395.816 754.5C395.816 733.5 378.816 718.5 351.816 718.5L125.066 718.5C98.0665 718.5 81.0665 733.5 81.0665 754.5C81.0665 765.5 88.0665 772.75 98.5665 772.75Z" fill="black" fill-opacity="0.85"/>
 </g>
</svg>
