<?xml version="1.0" encoding="UTF-8"?>
<!--Generator: Apple Native CoreSVG 326-->
<!DOCTYPE svg
PUBLIC "-//W3C//DTD SVG 1.1//EN"
       "http://www.w3.org/Graphics/SVG/1.1/DTD/svg11.dtd">
<svg version="1.1" xmlns="http://www.w3.org/2000/svg" xmlns:xlink="http://www.w3.org/1999/xlink" viewBox="0 0 737 618.75">
 <g>
  <rect height="618.75" opacity="0" width="737" x="0" y="0"/>
  <path d="M0 311.25L0 269.75L132.75 269.75L132.75 259.25C132.75 237.75 145.25 225.5 167 225.5L249.25 225.5C271 225.5 283.5 237.75 283.5 259.25L283.5 269.75L453.25 269.75L453.25 259.25C453.25 237.75 465.75 225.5 487.5 225.5L569.75 225.5C591.5 225.5 604 237.75 604 259.25L604 269.75L737 269.75L737 311.25L604 311.25L604 322C604 343.5 591.5 355.75 569.75 355.75L487.5 355.75C465.75 355.75 453.25 343.5 453.25 322L453.25 311.25L283.5 311.25L283.5 322C283.5 343.5 271 355.75 249.25 355.75L167 355.75C145.25 355.75 132.75 343.5 132.75 322L132.75 311.25ZM94.75 618.5L642.25 618.5C705.75 618.5 737 587.75 737 525L737 208.25C737 145.25 705.75 114.5 642.25 114.5L94.75 114.5C31.5 114.5 0 145.25 0 208.25L0 525C0 587.75 31.5 618.5 94.75 618.5ZM208 139L250.75 139L250.75 79.5C250.75 54.75 265.75 40.5 291.75 40.5L445 40.5C471.25 40.5 486.25 54.75 486.25 79.5L486.25 138.5L529 138.5L529 82.5C529 27 498.75 0 444.25 0L292.75 0C240.75 0 208 27 208 82.5Z" fill="black" fill-opacity="0.85"/>
 </g>
</svg>
