<?xml version="1.0" encoding="UTF-8"?>
<!--Generator: Apple Native CoreSVG 326-->
<!DOCTYPE svg
PUBLIC "-//W3C//DTD SVG 1.1//EN"
       "http://www.w3.org/Graphics/SVG/1.1/DTD/svg11.dtd">
<svg version="1.1" xmlns="http://www.w3.org/2000/svg" xmlns:xlink="http://www.w3.org/1999/xlink" viewBox="0 0 779.75 339.25">
 <g>
  <rect height="339.25" opacity="0" width="779.75" x="0" y="0"/>
  <path d="M160.5 295L132.75 295L132.75 44.25L160.5 44.25ZM647 295L619 295L619 44.25L647 44.25ZM390 181.5C298.835 181.5 230.334 127.789 217.422 44.25L247.903 44.25C259.372 111.754 315.593 155 390 155C463.936 155 520.13 111.754 531.598 44.25L562.114 44.25C549.44 127.789 481.165 181.5 390 181.5Z" fill="black" fill-opacity="0.85"/>
  <path d="M84.75 339.25L694.75 339.25C750.5 339.25 779.75 310 779.75 255L779.75 84.25C779.75 29.25 750.25 0 694.5 0L84.5 0C29 0 0 29.25 0 84.25L0 255C0 310 29.25 339.25 84.75 339.25ZM91 295C61.25 295 44.25 278.5 44.25 247.75L44.25 91.75C44.25 61 61.25 44.25 91.25 44.25L688.5 44.25C718 44.25 735 61 735 91.75L735 247.75C735 278.5 718 295 688.25 295ZM390 108C435.25 108 468.5 79.5 472 36.5L307.5 36.5C311.25 79.5 344.5 108 390 108Z" fill="black" fill-opacity="0.85"/>
 </g>
</svg>
