<?xml version="1.0" encoding="UTF-8"?>
<!--Generator: Apple Native CoreSVG 326-->
<!DOCTYPE svg
PUBLIC "-//W3C//DTD SVG 1.1//EN"
       "http://www.w3.org/Graphics/SVG/1.1/DTD/svg11.dtd">
<svg version="1.1" xmlns="http://www.w3.org/2000/svg" xmlns:xlink="http://www.w3.org/1999/xlink" viewBox="0 0 651.25 651.75">
 <g>
  <rect height="651.75" opacity="0" width="651.25" x="0" y="0"/>
  <path d="M325.75 453.25C255 453.25 198 396.25 198 325.75C198 255 255 198 325.75 198C396.25 198 453.25 255 453.25 325.75C453.25 396.25 396.25 453.25 325.75 453.25ZM103.25 158C118.5 137 136.75 118.5 157.5 103L226.25 172C204.5 186 185.75 204.5 171.75 226.25ZM547.75 158.75L479.25 227C465.25 205.5 446.5 186.75 424.75 172.75L493.5 104C514.25 119.25 532.5 137.75 547.75 158.75ZM548 492.25C532.75 513.25 514.75 531.75 494 547L425.25 478.25C446.75 464.25 465.75 445.5 479.5 424ZM103.75 493L172.25 424.75C186 446.25 205 465 226.5 479L157.75 548C137 532.5 118.75 514 103.75 493ZM325.5 651.75C505 651.75 651.25 505.5 651.25 326C651.25 146.75 505 0.5 325.5 0.5C146.25 0.5 0 146.75 0 326C0 505.5 146.25 651.75 325.5 651.75Z" fill="black" fill-opacity="0.85"/>
 </g>
</svg>
