<?xml version="1.0" encoding="UTF-8"?>
<!--Generator: Apple Native CoreSVG 326-->
<!DOCTYPE svg
PUBLIC "-//W3C//DTD SVG 1.1//EN"
       "http://www.w3.org/Graphics/SVG/1.1/DTD/svg11.dtd">
<svg version="1.1" xmlns="http://www.w3.org/2000/svg" xmlns:xlink="http://www.w3.org/1999/xlink" viewBox="0 0 651.25 651.75">
 <g>
  <rect height="651.75" opacity="0" width="651.25" x="0" y="0"/>
  <path d="M325.5 498.5C420.75 498.5 498.25 421 498.25 325.75C498.25 230.5 420.75 153 325.5 153C230.25 153 152.75 230.5 152.75 325.75C152.75 421 230.25 498.5 325.5 498.5ZM325.5 452C255.75 452 199.25 395.5 199.25 325.75C199.25 255.75 255.75 199.25 325.5 199.25C395.5 199.25 452 255.75 452 325.75C452 395.5 395.5 452 325.5 452ZM73.75 517.25L136.25 579.5L258 457.5L195.75 395.25ZM71.25 134L195.5 258.25L258 196L133.75 71.5ZM580.75 134.75L518.25 72.5L394.75 196L457.25 258.25ZM578.25 516.5L457.25 395.75L395 458L516 579ZM325.5 651.25C505.25 651.25 651.25 505.5 651.25 325.75C651.25 146 505.25 0 325.5 0C145.75 0 0 146 0 325.75C0 505.5 145.75 651.25 325.5 651.25ZM325.5 604.75C171.25 604.75 46.5 480 46.5 325.75C46.5 171.5 171.25 46.75 325.5 46.75C479.75 46.75 604.5 171.5 604.5 325.75C604.5 480 479.75 604.75 325.5 604.75Z" fill="black" fill-opacity="0.85"/>
 </g>
</svg>
