<?xml version="1.0" encoding="UTF-8"?>
<!--Generator: Apple Native CoreSVG 326-->
<!DOCTYPE svg
PUBLIC "-//W3C//DTD SVG 1.1//EN"
       "http://www.w3.org/Graphics/SVG/1.1/DTD/svg11.dtd">
<svg version="1.1" xmlns="http://www.w3.org/2000/svg" xmlns:xlink="http://www.w3.org/1999/xlink" viewBox="0 0 671.938 789.569">
 <g>
  <rect height="789.569" opacity="0" width="671.938" x="0" y="0"/>
  <path d="M335.969 754.91C285.969 754.91 245.469 730.91 243.219 694.66L428.719 694.66C425.719 730.91 385.719 754.91 335.969 754.91ZM453.719 645.91C453.719 655.66 445.969 663.41 436.219 663.41L235.719 663.41C225.969 663.41 218.219 655.66 218.219 645.91C218.219 636.16 225.969 628.41 235.719 628.41L436.219 628.41C445.969 628.41 453.719 636.16 453.719 645.91ZM168.793 248.234C183.5 314.478 232.011 362.899 254.969 555.41L416.969 555.41C419.183 536.848 421.632 519.625 424.284 503.725L459.956 539.397C458.254 551.901 456.751 565.147 455.469 579.16C454.219 590.41 448.219 597.16 435.969 597.16L235.969 597.16C223.469 597.16 217.469 590.41 216.469 579.16C196.219 360.66 122.719 328.41 122.719 208.16C122.719 206.237 122.748 204.321 123.026 202.467ZM548.969 208.16C548.969 287.411 517.044 328.439 489.579 410.019L455.403 375.844C481.221 300.007 507.219 268.062 507.219 208.16C507.219 119.91 428.969 53.6596 335.969 53.6596C279.401 53.6596 228.199 78.1701 196.884 117.325L167.316 87.7568C205.948 41.4935 266.775 11.9096 335.969 11.9096C454.969 11.9096 548.969 99.4096 548.969 208.16Z" fill="black" fill-opacity="0.85"/>
  <path d="M571.969 602.41C580.719 610.91 593.969 610.66 602.219 602.41C610.469 594.16 610.469 580.41 602.219 572.16L71.2189 40.9096C62.9689 32.6596 48.9689 32.9096 40.9689 40.9096C32.7189 49.1596 32.9689 63.1596 40.9689 71.1596Z" fill="black" fill-opacity="0.85"/>
 </g>
</svg>
