<?xml version="1.0" encoding="UTF-8"?>
<!--Generator: Apple Native CoreSVG 326-->
<!DOCTYPE svg
PUBLIC "-//W3C//DTD SVG 1.1//EN"
       "http://www.w3.org/Graphics/SVG/1.1/DTD/svg11.dtd">
<svg version="1.1" xmlns="http://www.w3.org/2000/svg" xmlns:xlink="http://www.w3.org/1999/xlink" viewBox="0 0 887 533.25">
 <g>
  <rect height="533.25" opacity="0" width="887" x="0" y="0"/>
  <path d="M443 533C705.25 533 887 413.25 887 266.5C887 119.75 705.25 0 443 0C181.5 0 0 119.75 0 266.5C0 413.25 181.5 533 443 533ZM443 491.5C207.25 491.5 41.5 388.75 41.5 266.5C41.5 144 207.25 41.5 443 41.5C679.5 41.5 845.5 144 845.5 266.5C845.5 388.75 679.5 491.5 443 491.5ZM443 439.25C611 439.25 738.5 369.25 738.5 275.25C738.5 181 611.5 111.25 443 111.25C275.5 111.25 148.75 181 148.75 275.25C148.75 369.5 275.5 439.25 443 439.25ZM443 397.5C302.25 397.5 190.5 342.25 190.5 275.25C190.5 208 301.75 153 443 153C584.75 153 696.75 208 696.75 275.25C696.75 342.25 584.25 397.5 443 397.5ZM442.5 290.75C540 290.75 625 246.5 656.25 184.25C596.5 154.25 518.75 138.25 443 136.5C365.75 138.25 288 154.5 228.25 184.75C259.75 246.75 344.5 290.75 442.5 290.75Z" fill="black" fill-opacity="0.85"/>
 </g>
</svg>
