<?xml version="1.0" encoding="UTF-8"?>
<!--Generator: Apple Native CoreSVG 326-->
<!DOCTYPE svg
PUBLIC "-//W3C//DTD SVG 1.1//EN"
       "http://www.w3.org/Graphics/SVG/1.1/DTD/svg11.dtd">
<svg version="1.1" xmlns="http://www.w3.org/2000/svg" xmlns:xlink="http://www.w3.org/1999/xlink" viewBox="0 0 426.25 765.75">
 <g>
  <rect height="765.75" opacity="0" width="426.25" x="0" y="0"/>
  <path d="M46.25 303.25L380 303.25L380 266.5L46.25 266.5ZM0 196.25C0 316.5 73.5 348.75 93.75 567.25C94.75 578.5 100.75 585.25 113 585.25L313.25 585.25C325.5 585.25 331.5 578.5 332.5 567.25C352.75 348.75 426.25 316.5 426.25 196.25C426.25 87.5 332.25 0 213 0C94 0 0 87.5 0 196.25ZM41.75 196.25C41.75 108 120.25 41.75 213 41.75C306 41.75 384.5 108 384.5 196.25C384.5 289.5 321.25 315 294 543.5L132.25 543.5C104.75 315 41.75 289.5 41.75 196.25ZM112.75 651.5L313.5 651.5C323.25 651.5 330.75 643.75 330.75 634C330.75 624.25 323.25 616.5 313.5 616.5L112.75 616.5C103 616.5 95.5 624.25 95.5 634C95.5 643.75 103 651.5 112.75 651.5ZM213 743C262.75 743 303 719 305.75 682.75L120.5 682.75C122.75 719 163 743 213 743Z" fill="black" fill-opacity="0.85"/>
 </g>
</svg>
