<?xml version="1.0" encoding="UTF-8"?>
<!--Generator: Apple Native CoreSVG 326-->
<!DOCTYPE svg
PUBLIC "-//W3C//DTD SVG 1.1//EN"
       "http://www.w3.org/Graphics/SVG/1.1/DTD/svg11.dtd">
<svg version="1.1" xmlns="http://www.w3.org/2000/svg" xmlns:xlink="http://www.w3.org/1999/xlink" viewBox="0 0 652.25 622.25">
 <g>
  <rect height="622.25" opacity="0" width="652.25" x="0" y="0"/>
  <path d="M30.75 356.5C47.75 356.5 61.5 343 61.5 325.75C61.5 308.75 47.75 295.25 30.75 295.25C13.5 295.25 0 308.75 0 325.75C0 343 13.5 356.5 30.75 356.5ZM106.5 136.75C123.5 136.75 137.25 123.25 137.25 106.25C137.25 89 123.5 75.5 106.5 75.5C89.25 75.5 75.75 89 75.75 106.25C75.75 123.25 89.25 136.75 106.5 136.75ZM326 61.5C343.25 61.5 356.75 47.75 356.75 30.75C356.75 13.5 343.25 0 326 0C309 0 295.25 13.5 295.25 30.75C295.25 47.75 309 61.5 326 61.5ZM545.75 136.75C562.75 136.75 576.5 123.25 576.5 106.25C576.5 89 562.75 75.5 545.75 75.5C528.5 75.5 515 89 515 106.25C515 123.25 528.5 136.75 545.75 136.75ZM621.5 356.5C638.5 356.5 652.25 343 652.25 325.75C652.25 308.75 638.5 295.25 621.5 295.25C604.25 295.25 590.75 308.75 590.75 325.75C590.75 343 604.25 356.5 621.5 356.5Z" fill="black" fill-opacity="0.85"/>
  <path d="M485.75 569.25L530 569.25L530 330.5C530 214.5 442 126.5 326 126.5C210.5 126.5 122.75 214.5 122.75 330.5L122.75 569.25L167 569.25L167 330.5C167 239 235 170.75 326 170.75C417.5 170.75 485.75 239 485.75 330.5ZM570.75 591.5C583 591.5 593.25 581.75 593.25 569.5C593.25 557.25 583 547 570.75 547L81.5 547C69.25 547 59.5 557.25 59.5 569.5C59.5 581.75 69.25 591.5 81.5 591.5ZM348.5 334.5C348.5 322.5 338.25 312 326 312C314 312 304.25 322.5 304.25 334.5L304.25 569.25L348.5 569.25Z" fill="black" fill-opacity="0.85"/>
 </g>
</svg>
