<?xml version="1.0" encoding="UTF-8"?>
<!--Generator: Apple Native CoreSVG 326-->
<!DOCTYPE svg
PUBLIC "-//W3C//DTD SVG 1.1//EN"
       "http://www.w3.org/Graphics/SVG/1.1/DTD/svg11.dtd">
<svg version="1.1" xmlns="http://www.w3.org/2000/svg" xmlns:xlink="http://www.w3.org/1999/xlink" viewBox="0 0 1048.75 752.75">
 <g>
  <rect height="752.75" opacity="0" width="1048.75" x="0" y="0"/>
  <path d="M524.5 752.75C663.25 752.75 769.5 687.5 769.5 601.5C769.5 515.25 663.25 449.75 524.5 449.75C385 449.75 278.75 515 278.75 601.5C278.75 687.75 385 752.75 524.5 752.75ZM524 690.5C435.25 690.5 370.25 654.5 370.25 605.25C370.25 556 435.25 519.75 524 519.75C613.25 519.75 678.25 556 678.25 605.25C678.25 654.5 613.25 690.5 524 690.5ZM524.25 618C571 618 613.25 599.5 633 571.75C610 555 569 544.5 524.25 544.5C478.75 544.5 437.75 555.25 415 572.5C435 599.5 477.25 618 524.25 618Z" fill="black" fill-opacity="0.85"/>
  <path d="M803.75 438.25C942.25 438.25 1048.75 373 1048.75 286.75C1048.75 200.75 942.25 135 803.75 135C664.25 135 558 200.5 558 286.75C558 373.25 664.25 438.25 803.75 438.25ZM803.25 376C714.25 376 649.5 339.75 649.5 290.75C649.5 241.25 714.25 205 803.25 205C892.5 205 957.25 241.25 957.25 290.75C957.25 339.75 892.5 376 803.25 376ZM803.5 303.5C850.25 303.5 892.5 284.75 912.25 257C889.25 240.5 848.25 229.75 803.5 229.75C757.75 229.75 717 240.75 694.25 257.75C714.25 284.75 756.25 303.5 803.5 303.5Z" fill="black" fill-opacity="0.85"/>
  <path d="M245.75 438.25C384.5 438.25 490.75 373 490.75 286.75C490.75 200.75 384.5 135 245.75 135C106.5 135 0 200.5 0 286.75C0 373.25 106.5 438.25 245.75 438.25ZM245.25 376C156.5 376 91.75 339.75 91.75 290.75C91.75 241.25 156.5 205 245.25 205C334.75 205 399.5 241.25 399.5 290.75C399.5 339.75 334.75 376 245.25 376ZM245.5 303.5C292.5 303.5 334.5 284.75 354.25 257C331.25 240.5 290.5 229.75 245.5 229.75C200 229.75 159 240.75 136.25 257.75C156.5 284.75 198.5 303.5 245.5 303.5Z" fill="black" fill-opacity="0.85"/>
 </g>
</svg>
