<?xml version="1.0" encoding="UTF-8"?>
<!--Generator: Apple Native CoreSVG 326-->
<!DOCTYPE svg
PUBLIC "-//W3C//DTD SVG 1.1//EN"
       "http://www.w3.org/Graphics/SVG/1.1/DTD/svg11.dtd">
<svg version="1.1" xmlns="http://www.w3.org/2000/svg" xmlns:xlink="http://www.w3.org/1999/xlink" viewBox="0 0 651.25 651.75">
 <g>
  <rect height="651.75" opacity="0" width="651.25" x="0" y="0"/>
  <path d="M325.5 651.25C505.25 651.25 651.25 505.5 651.25 325.75C651.25 146 505.25 0 325.5 0C145.75 0 0 146 0 325.75C0 505.5 145.75 651.25 325.5 651.25ZM325.5 604.75C171.25 604.75 46.5 480 46.5 325.75C46.5 171.5 171.25 46.75 325.5 46.75C479.75 46.75 604.5 171.5 604.5 325.75C604.5 480 479.75 604.75 325.5 604.75Z" fill="black" fill-opacity="0.85"/>
  <path d="M168.25 476.5C207.5 515.25 256.5 512.25 301.25 467.5L354 415C399.25 369.75 402.75 320.5 363.25 281.25C351 268.75 338 261.25 327.25 259.5C319.25 265.25 309.5 276 305 286.25C320.5 287.75 332.5 293 342 302.5C367.75 328.25 364.25 362.25 332 394L280.25 446C249.25 477 215.5 480 189.75 454.5C164 429 166.5 395 198.25 364L237 325.5C232.75 314.25 232.5 297.5 238 282.5L176.75 343.25C132 388 128.75 437.25 168.25 476.5ZM470.5 173.5C431.25 134.75 382.5 137.75 337.75 182.5L285 235C239.5 280.25 236 329.5 275.75 368.75C287.75 381.25 300.75 388.75 311.5 390.5C319.75 384.75 329.5 374 333.75 363.75C318.5 362.25 306.25 357 297 347.5C271.25 321.75 274.5 287.75 306.75 256L358.5 204C389.75 173 423.25 170 449 195.5C475 221 472.5 255 440.5 286L402 324.5C406 335.75 406.25 352.25 401 367.5L462 306.75C506.75 262 510 212.75 470.5 173.5Z" fill="black" fill-opacity="0.85"/>
 </g>
</svg>
