<?xml version="1.0" encoding="UTF-8"?>
<!--Generator: Apple Native CoreSVG 326-->
<!DOCTYPE svg
PUBLIC "-//W3C//DTD SVG 1.1//EN"
       "http://www.w3.org/Graphics/SVG/1.1/DTD/svg11.dtd">
<svg version="1.1" xmlns="http://www.w3.org/2000/svg" xmlns:xlink="http://www.w3.org/1999/xlink" viewBox="0 0 536.75 878.75">
 <g>
  <rect height="878.75" opacity="0" width="536.75" x="0" y="0"/>
  <path d="M536.75 217.75L536.75 712C536.75 776.75 504.5 809.25 440.5 809.25L96.25 809.25C32.25 809.25 0 776.75 0 712L0 217.75C0 153 32.25 120.25 96.25 120.25L106.824 120.25C106.607 122.535 106.5 124.87 106.5 127.25L106.5 160.75C106.5 162.109 106.534 163.454 106.676 164.75L98.75 164.75C62.75 164.75 44.25 183.75 44.25 218.5L44.25 711.25C44.25 746 62.75 765 98.75 765L438 765C474 765 492.5 746 492.5 711.25L492.5 218.5C492.5 183.75 474 164.75 438 164.75L430.074 164.75C430.216 163.454 430.25 162.109 430.25 160.75L430.25 127.25C430.25 124.87 430.143 122.535 429.926 120.25L440.5 120.25C504.5 120.25 536.75 153 536.75 217.75Z" fill="black" fill-opacity="0.85"/>
  <path d="M169.5 189.75L367.25 189.75C384.75 189.75 395.5 179 395.5 160.75L395.5 127.25C395.5 109 384.75 98.25 367.25 98.25L335 98.25C333.25 63.25 304 34.75 268.5 34.75C232.75 34.75 203.5 63.25 201.75 98.25L169.5 98.25C152 98.25 141.25 109 141.25 127.25L141.25 160.75C141.25 179 152 189.75 169.5 189.75ZM268.5 128.75C252.5 128.75 239.75 115.5 239.75 100.25C239.75 84.25 252.5 71.5 268.5 71.5C284.25 71.5 297 84.25 297 100.25C297 115.5 284.25 128.75 268.5 128.75Z" fill="black" fill-opacity="0.85"/>
  <path d="M123.5 607.75L274 607.75C283.5 607.75 291.5 599.75 291.5 590.25C291.5 580.5 283.75 572.75 274 572.75L123.5 572.75C113.75 572.75 106 580.5 106 590.25C106 599.75 114 607.75 123.5 607.75Z" fill="black" fill-opacity="0.85"/>
  <path d="M123.5 485.5L413.25 485.5C423 485.5 430.75 477.75 430.75 468C430.75 458.5 423 450.75 413.25 450.75L123.5 450.75C113.75 450.75 106 458.5 106 468C106 477.75 113.75 485.5 123.5 485.5Z" fill="black" fill-opacity="0.85"/>
  <path d="M123.5 370L413.25 370C422.75 370 430.75 362 430.75 352.5C430.75 343 422.75 335 413.25 335L123.5 335C114 335 106 343 106 352.5C106 362 114 370 123.5 370Z" fill="black" fill-opacity="0.85"/>
 </g>
</svg>
