<?xml version="1.0" encoding="UTF-8"?>
<!--Generator: Apple Native CoreSVG 326-->
<!DOCTYPE svg
PUBLIC "-//W3C//DTD SVG 1.1//EN"
       "http://www.w3.org/Graphics/SVG/1.1/DTD/svg11.dtd">
<svg version="1.1" xmlns="http://www.w3.org/2000/svg" xmlns:xlink="http://www.w3.org/1999/xlink" viewBox="0 0 783 808.75">
 <g>
  <rect height="808.75" opacity="0" width="783" x="0" y="0"/>
  <path d="M595.336 89L187.911 89C189.513 66.3493 204.219 53.25 228.25 53.25L554.75 53.25C578.781 53.25 593.709 66.3493 595.336 89Z" fill="black" fill-opacity="0.85"/>
  <path d="M659.857 176.496C650.895 175.126 641.402 174.5 631.5 174.5L151.5 174.5C141.595 174.5 132.102 175.121 123.144 176.48C126.545 149.898 144.861 135 174.25 135L608.75 135C638.145 135 656.463 149.904 659.857 176.496Z" fill="black" fill-opacity="0.85"/>
  <path d="M728.75 325L728.75 658.25C728.75 722 696 754.75 631.5 754.75L151.5 754.75C86.75 754.75 54.25 722.25 54.25 658.25L54.25 325C54.25 261 86.75 228.75 151.5 228.75L631.5 228.75C696 228.75 728.75 261.25 728.75 325ZM297.5 412.5L297.5 453.5C277 454.5 266.75 466 266.75 490.25L266.75 623.5C266.75 648.75 278 660.25 301.25 660.25L471.75 660.25C495 660.25 506.25 648.75 506.25 623.5L506.25 490.25C506.25 466 496 454.5 475.5 453.5L475.5 412.5C475.5 353 439.5 313.5 386.5 313.5C333.5 313.5 297.5 353 297.5 412.5ZM444.5 409.5L444.5 453.25L328.25 453.25L328.25 409.5C328.25 369.75 351.75 343.25 386.5 343.25C421.25 343.25 444.5 369.75 444.5 409.5Z" fill="black" fill-opacity="0.85"/>
 </g>
</svg>
