<?xml version="1.0" encoding="UTF-8"?>
<!--Generator: Apple Native CoreSVG 326-->
<!DOCTYPE svg
PUBLIC "-//W3C//DTD SVG 1.1//EN"
       "http://www.w3.org/Graphics/SVG/1.1/DTD/svg11.dtd">
<svg version="1.1" xmlns="http://www.w3.org/2000/svg" xmlns:xlink="http://www.w3.org/1999/xlink" viewBox="0 0 783 808.75">
 <g>
  <rect height="808.75" opacity="0" width="783" x="0" y="0"/>
  <path d="M595.336 89L187.911 89C189.513 66.3493 204.219 53.25 228.25 53.25L554.75 53.25C578.781 53.25 593.709 66.3493 595.336 89Z" fill="black" fill-opacity="0.85"/>
  <path d="M659.857 176.496C650.895 175.126 641.402 174.5 631.5 174.5L151.5 174.5C141.595 174.5 132.102 175.121 123.144 176.48C126.545 149.898 144.861 135 174.25 135L608.75 135C638.145 135 656.463 149.904 659.857 176.496Z" fill="black" fill-opacity="0.85"/>
  <path d="M151.5 754.75L631.5 754.75C696 754.75 728.75 722 728.75 658.25L728.75 325C728.75 261.25 696 228.75 631.5 228.75L151.5 228.75C86.75 228.75 54.25 261 54.25 325L54.25 658.25C54.25 722.25 86.75 754.75 151.5 754.75ZM152.25 710.5C117.5 710.5 98.5 692 98.5 656L98.5 327.25C98.5 291.5 117.5 273 152.25 273L630.75 273C665 273 684.5 291.5 684.5 327.25L684.5 656C684.5 692 665 710.5 630.75 710.5Z" fill="black" fill-opacity="0.85"/>
  <path d="M274.5 619.75C274.5 644.5 285.5 655.75 308.25 655.75L474.75 655.75C497.5 655.75 508.5 644.5 508.5 619.75L508.5 489.75C508.5 466.25 498.5 454.75 478.25 453.75L478.25 413.5C478.25 355.75 443.25 317 391.5 317C339.75 317 304.75 355.75 304.75 413.5L304.75 453.75C284.5 454.75 274.5 466.25 274.5 489.75ZM334.75 453.5L334.75 410.75C334.75 372 357.5 346.25 391.5 346.25C425.5 346.25 448.5 372 448.5 410.75L448.5 453.5Z" fill="black" fill-opacity="0.85"/>
 </g>
</svg>
