<?xml version="1.0" encoding="UTF-8"?>
<!--Generator: Apple Native CoreSVG 326-->
<!DOCTYPE svg
PUBLIC "-//W3C//DTD SVG 1.1//EN"
       "http://www.w3.org/Graphics/SVG/1.1/DTD/svg11.dtd">
<svg version="1.1" xmlns="http://www.w3.org/2000/svg" xmlns:xlink="http://www.w3.org/1999/xlink" viewBox="0 0 551.75 741.75">
 <g>
  <rect height="741.75" opacity="0" width="551.75" x="0" y="0"/>
  <path d="M448.25 99.75L485.25 99.75C500 99.75 507.25 108 507.25 124.75L507.25 620C507.25 639.25 503.75 647 485.75 655C424.25 683 330.75 700.5 245.75 700.75C193.5 700.5 144.5 697 96.5 688.25L96.5 691.75C230.5 693 364.75 658.75 427.25 610.75C448 594.75 454 584 454 557.5L454 43.75C454 13.5 438.5 0 412.5 0C403.75 0 393.25 2 380.75 6C281.25 37.75 186.25 56.75 75.25 56.75L51.75 56.75C18.75 56.75 0 75.75 0 106.5L0 656.5C0 681.5 6 695 28.75 705C88 728.5 169 741.25 245.75 741.5C335.5 741.25 439 727.25 507.25 693.5C542.5 676 551.75 659.75 551.75 623L551.75 124.25C551.75 77.5 530.25 55.5 485.25 55.5L448.25 55.5ZM44.25 637.5L44.25 117.5C44.25 106.75 49.75 100.5 60 100.5L77.25 100.5C189.25 100.5 296.25 79.5 390.25 50.5C401.75 47 409.75 49.5 409.75 60.25L409.75 547.75C409.75 565 407.5 571.75 392.25 581.75C325.75 627.25 211.75 654.75 56.25 649.75C47.75 649.5 44.25 645.75 44.25 637.5ZM112 185.75L112 292.25C112 297.25 115.75 299.5 120 299.5C195.75 300 274.5 287 332.5 263.5C335.5 262.25 337 259.25 337 256.5L337 146.75C337 139.5 330.5 138 326.75 139.25C260 162.25 192 175.25 120 177.5C115.25 177.75 112 181.25 112 185.75Z" fill="black" fill-opacity="0.85"/>
 </g>
</svg>
