<?xml version="1.0" encoding="UTF-8"?>
<!--Generator: Apple Native CoreSVG 326-->
<!DOCTYPE svg
PUBLIC "-//W3C//DTD SVG 1.1//EN"
       "http://www.w3.org/Graphics/SVG/1.1/DTD/svg11.dtd">
<svg version="1.1" xmlns="http://www.w3.org/2000/svg" xmlns:xlink="http://www.w3.org/1999/xlink" viewBox="0 0 706 679.75">
 <g>
  <rect height="679.75" opacity="0" width="706" x="0" y="0"/>
  <path d="M39.25 610.25L666.75 610.25L666.75 591C666.75 580.25 660.25 573.75 649.25 573.75L628.75 573.75L628.75 213.5L657.75 213.5C673 213.5 681.5 202.75 681.5 191.5C681.5 183.25 677 176 667 170.25L390.75 10.75C378.5 3.75 365.5 0 353 0C340.5 0 327.25 3.75 315.25 10.75L39 170.25C28.75 176 24.5 183.25 24.5 191.5C24.5 202.75 33 213.5 48.25 213.5L77.5 213.5L77.5 573.75L57 573.75C45.75 573.75 39.25 580.25 39.25 591ZM119.25 573.75L119.25 175.5L338.5 52C342.75 49.5 348 48 353 48C357.75 48 362.75 49.5 367.5 52L587 175.5L587 573.75ZM22.25 679.25L683.75 679.25C696 679.25 706 669.25 706 657.25C706 645 696 635 683.75 635L22.25 635C10 635 0 645 0 657.25C0 669.25 10 679.25 22.25 679.25Z" fill="black" fill-opacity="0.85"/>
  <path d="M178.5 465.25C188 465.25 193.75 459 193.75 449.5L193.75 361.25L234.5 361.25L274.5 454.25C277.5 461.5 282.5 465.25 289.75 465.25C299.25 465.25 305 459 305 451.5C305 447.75 304 444.75 301.75 439.5L264.5 354.5C288.25 344.75 305.25 321.75 305.25 287C305.25 241.75 277.5 214 231.5 214L178 214C169 214 162.75 220.25 162.75 229.75L162.75 449.5C162.75 459 168.75 465.25 178.5 465.25ZM193.75 336.25L193.75 239.75L228.5 239.75C257.75 239.75 274.25 258.5 274.25 287.75C274.25 316.75 259 336.25 229 336.25ZM357.25 465.5C365.5 465.5 371.25 459.5 371.25 451L371.25 261.5L373.25 261.5L425.5 446.25C428 454.75 433.25 461.75 443.5 461.75C453.5 461.75 458.75 455.5 461.75 445.5L513.75 261.5L515.75 261.5L515.75 451C515.75 459.5 521.5 465.5 530 465.5C538.25 465.5 543.75 459.5 543.75 451L543.75 232.75C543.75 219.25 535.25 210.75 521.75 210.75C510 210.75 502 217.75 498.75 229.5L445.5 420.75L442.5 420.75L388.25 229.5C385.25 218 377 210.75 365.75 210.75C351.75 210.75 343.25 219.25 343.25 232.75L343.25 451C343.25 459.5 348.75 465.5 357.25 465.5Z" fill="black" fill-opacity="0.85"/>
 </g>
</svg>
