<?xml version="1.0" encoding="UTF-8"?>
<!--Generator: Apple Native CoreSVG 326-->
<!DOCTYPE svg
PUBLIC "-//W3C//DTD SVG 1.1//EN"
       "http://www.w3.org/Graphics/SVG/1.1/DTD/svg11.dtd">
<svg version="1.1" xmlns="http://www.w3.org/2000/svg" xmlns:xlink="http://www.w3.org/1999/xlink" viewBox="0 0 706 679.75">
 <g>
  <rect height="679.75" opacity="0" width="706" x="0" y="0"/>
  <path d="M39.25 610.25L666.75 610.25L666.75 591C666.75 580.25 660.25 573.75 649.25 573.75L628.75 573.75L628.75 213.5L657.75 213.5C673 213.5 681.5 202.75 681.5 191.5C681.5 183.25 677 176 667 170.25L390.75 10.75C378.5 3.75 365.5 0 353 0C340.5 0 327.25 3.75 315.25 10.75L39 170.25C28.75 176 24.5 183.25 24.5 191.5C24.5 202.75 33 213.5 48.25 213.5L77.5 213.5L77.5 573.75L57 573.75C45.75 573.75 39.25 580.25 39.25 591ZM119.25 573.75L119.25 175.5L338.5 52C342.75 49.5 348 48 353 48C357.75 48 362.75 49.5 367.5 52L587 175.5L587 573.75ZM22.25 679.25L683.75 679.25C696 679.25 706 669.25 706 657.25C706 645 696 635 683.75 635L22.25 635C10 635 0 645 0 657.25C0 669.25 10 679.25 22.25 679.25Z" fill="black" fill-opacity="0.85"/>
  <path d="M260.75 476.75C271.25 476.75 277.75 470.25 277.75 459.5L277.75 360.5C277.75 302.25 298.75 255.5 353.5 255.5C409.75 255.5 429.75 302.75 429.75 360.5L429.75 459.5C429.75 470.25 436 476.75 446.5 476.75C456.75 476.75 463.25 470.25 463.25 459.5L463.25 358.5C463.25 282 427.75 225.25 353.5 225.25C279 225.25 244.25 282.75 244.25 358.5L244.25 459.5C244.25 470.25 250.5 476.75 260.75 476.75ZM353.25 476.75C360.25 476.75 365 472 365 464.5L365 188.75C365 181.5 360.25 176.75 353.25 176.75C345.5 176.75 341 181.5 341 188.75L341 464.5C341 472 345.5 476.75 353.25 476.75Z" fill="black" fill-opacity="0.85"/>
 </g>
</svg>
