<?xml version="1.0" encoding="UTF-8"?>
<!--Generator: Apple Native CoreSVG 326-->
<!DOCTYPE svg
PUBLIC "-//W3C//DTD SVG 1.1//EN"
       "http://www.w3.org/Graphics/SVG/1.1/DTD/svg11.dtd">
<svg version="1.1" xmlns="http://www.w3.org/2000/svg" xmlns:xlink="http://www.w3.org/1999/xlink" viewBox="0 0 453 788.57">
 <g>
  <rect height="788.57" opacity="0" width="453" x="0" y="0"/>
  <path d="M453 75.6602L453 265.16C453 289.91 445.75 304.66 426.75 317.66L283.847 416.776L276.75 394.66C274.682 388.236 271.816 382.617 268.352 377.805L273.75 373.933L273.75 68.6602L179 68.6602L179 373.89L184.866 378.103C181.512 382.843 178.746 388.365 176.75 394.66L169.472 417.137L26.25 317.66C7.5 304.66 0 290.41 0 265.16L0 75.6602C0 47.1602 20.25 26.9102 48.75 26.9102L404 26.9102C432.5 26.9102 453 47.1602 453 75.6602ZM315.5 68.6602L315.5 343.989L402.75 281.41C408 277.66 411.25 272.41 411.25 264.66L411.25 83.9102C411.25 75.1602 404.75 68.6602 396 68.6602ZM56.75 68.6602C48.25 68.6602 41.75 75.1602 41.75 83.9102L41.75 264.66C41.75 272.41 44.75 277.66 50.25 281.41L137.25 343.901L137.25 68.6602Z" fill="black" fill-opacity="0.85"/>
  <path d="M132.25 748.91L226.75 679.66L321.25 748.91C337.75 761.16 355.5 748.41 349 728.91L311.75 617.41L407.25 549.41C421.75 538.66 417.5 515.91 396.5 516.16L279.25 516.91L243.5 404.91C237.75 386.41 215.75 386.41 209.75 404.91L174 516.91L57 516.16C36.25 515.91 31 538.16 46.5 549.41L141.5 617.41L104.5 728.91C98 748.41 115.75 761.16 132.25 748.91Z" fill="black" fill-opacity="0.85"/>
 </g>
</svg>
