<?xml version="1.0" encoding="UTF-8"?>
<!--Generator: Apple Native CoreSVG 326-->
<!DOCTYPE svg
PUBLIC "-//W3C//DTD SVG 1.1//EN"
       "http://www.w3.org/Graphics/SVG/1.1/DTD/svg11.dtd">
<svg version="1.1" xmlns="http://www.w3.org/2000/svg" xmlns:xlink="http://www.w3.org/1999/xlink" viewBox="0 0 705.5 676.75">
 <g>
  <rect height="676.75" opacity="0" width="705.5" x="0" y="0"/>
  <path d="M0 339.25C0 420.25 44.5 464 128.75 464L243.75 464C356.25 476.5 479 513 574 576.5L574 527C480.25 464.75 361.75 432.25 242.25 419.75L128.75 419.75C70 419.75 44.25 395.5 44.25 339.25L44.25 289C44.25 232.75 70 208.5 128.75 208.5L240 208.5C361.25 196.25 481.75 162.75 574 101.25L574 51.75C482.25 115 349.75 153.25 245.5 164.25L128.75 164.25C44.5 164.25 0 207.75 0 289ZM294.25 460L252.25 460L279.5 599C282.75 616.25 274.25 627 262.25 631.25C249.5 635.75 232.75 632 224 613L150.25 454.25L104.75 454.25L180 620.75C205.5 677 248 681 278.75 671.5C309 662.25 328 634.5 319.75 592.25ZM206.25 185.75L206.25 442.75L250.75 442.75L250.75 185.75ZM558 553C558 597.25 587.75 626.5 631.75 626.5C676 626.5 705.5 597.25 705.5 553L705.5 73.75C705.5 29.5 676 0 631.75 0C587.75 0 558 29.5 558 73.75ZM602.5 553L602.5 73.75C602.5 56 614 44.25 631.75 44.25C649.5 44.25 661.25 56 661.25 73.75L661.25 553C661.25 570.5 649.5 582.25 631.75 582.25C614 582.25 602.5 570.5 602.5 553Z" fill="black" fill-opacity="0.85"/>
 </g>
</svg>
