<?xml version="1.0" encoding="UTF-8"?>
<!--Generator: Apple Native CoreSVG 326-->
<!DOCTYPE svg
PUBLIC "-//W3C//DTD SVG 1.1//EN"
       "http://www.w3.org/Graphics/SVG/1.1/DTD/svg11.dtd">
<svg version="1.1" xmlns="http://www.w3.org/2000/svg" xmlns:xlink="http://www.w3.org/1999/xlink" viewBox="0 0 512.25 728.306">
 <g>
  <rect height="728.306" opacity="0" width="512.25" x="0" y="0"/>
  <path d="M58.25 663.778L411.75 726.278C474 737.278 512.25 703.028 512.25 635.778L512.25 243.528C512.25 183.778 481.5 160.278 420.25 149.528L76 88.7781C29.75 80.7781 0 104.778 0 149.528L0 596.278C0 634.528 19.25 657.028 58.25 663.778ZM114.25 263.028C104.5 261.278 98.75 254.278 98.75 244.028C98.75 232.278 108 224.278 121.5 226.528L382.25 272.028C392.5 274.028 398.25 279.778 398.25 291.028C398.25 302.778 389.75 311.278 376 309.028ZM114.25 390.528C104.5 388.778 98.75 381.778 98.75 371.528C98.75 360.028 108 352.028 121.5 354.278L382.25 399.778C392.5 401.528 398.25 407.528 398.25 418.528C398.25 430.528 389.75 439.028 376 436.778ZM143.25 60.2781L427.25 110.278C452.75 114.778 474 121.778 491.5 131.278L491.5 101.278C491.5 37.0281 448.5 6.27808 375.75 19.2781Z" fill="black" fill-opacity="0.85"/>
 </g>
</svg>
