<?xml version="1.0" encoding="UTF-8"?>
<!--Generator: Apple Native CoreSVG 326-->
<!DOCTYPE svg
PUBLIC "-//W3C//DTD SVG 1.1//EN"
       "http://www.w3.org/Graphics/SVG/1.1/DTD/svg11.dtd">
<svg version="1.1" xmlns="http://www.w3.org/2000/svg" xmlns:xlink="http://www.w3.org/1999/xlink" viewBox="0 0 681.626 616.25">
 <g>
  <rect height="616.25" opacity="0" width="681.626" x="0" y="0"/>
  <path d="M411.938 41.5L664.688 483.5C672.938 497.75 677.188 513.25 677.188 528.25C677.188 574.5 645.688 611 593.688 611L87.938 611C35.688 611 4.43796 574.5 4.43796 528.25C4.43796 513.25 8.18796 498 16.688 483.5L120.644 301.706L152.445 333.507L102.55 420.75L82.938 420.75L56.938 463.5L78.1111 463.481L54.938 504C50.688 512 48.938 520.5 48.938 528C48.938 549 63.688 567.75 88.438 567.75L592.938 567.75C617.688 567.75 632.688 549 632.688 528C632.688 520.5 630.688 512.25 626.188 504.25L602.645 463.02L625.188 463L599.188 420.75L578.507 420.75L373.938 62.5C366.438 49.25 353.438 44 340.688 44C327.938 44 314.938 49.25 307.438 62.5L216.33 221.804L184.514 190.013L269.438 41.5C285.438 13.75 312.938 0 340.688 0C368.688 0 396.188 13.75 411.938 41.5Z" fill="black" fill-opacity="0.85"/>
  <path d="M362.688 153.75L362.688 368.044L318.938 324.329L318.938 153.75C318.938 140.25 327.188 131 340.688 131C354.438 131 362.688 140.25 362.688 153.75Z" fill="black" fill-opacity="0.85"/>
  <path d="M625.188 463L56.938 463.5L82.938 420.75L296.378 420.75L330.188 454.5L361.188 423L358.936 420.75L599.188 420.75Z" fill="black" fill-opacity="0.85"/>
  <path d="M330.188 454.5L361.188 423L78.188 140.25C68.938 130.75 56.688 130.75 46.938 140C37.188 149.75 37.688 162.5 46.938 171.75Z" fill="black" fill-opacity="0.85"/>
 </g>
</svg>
