<?xml version="1.0" encoding="UTF-8"?>
<!--Generator: Apple Native CoreSVG 326-->
<!DOCTYPE svg
PUBLIC "-//W3C//DTD SVG 1.1//EN"
       "http://www.w3.org/Graphics/SVG/1.1/DTD/svg11.dtd">
<svg version="1.1" xmlns="http://www.w3.org/2000/svg" xmlns:xlink="http://www.w3.org/1999/xlink" viewBox="0 0 684.75 616.25">
 <g>
  <rect height="616.25" opacity="0" width="684.75" x="0" y="0"/>
  <path d="M666.5 483.5C674.75 497.75 679 513.25 679 528.25C679 574.5 647.5 611 595.25 611L89.5 611C37.5 611 6 574.5 6 528.25C6 513.25 10 498 18.5 483.5L31.7951 460.25L653.205 460.25ZM243.965 423.5L52.81 423.5L122.31 301.962ZM413.75 41.5L632.19 423.5L419.697 423.5L364 367.883L364 141C364 127.5 356 118.5 342.25 118.5C328.5 118.5 320.25 127.5 320.25 141L320.25 324.195L186.162 190.299L271.25 41.5C287 13.75 314.5 0 342.5 0C370.25 0 398 13.75 413.75 41.5Z" fill="black" fill-opacity="0.85"/>
  <path d="M305.5 428.5L367.5 428L79.5 140.25C70.25 130.75 58 130.75 48.25 140C38.75 149.75 39.25 162.5 48.5 171.75Z" fill="black" fill-opacity="0.85"/>
 </g>
</svg>
