<?xml version="1.0" encoding="UTF-8"?>
<!--Generator: Apple Native CoreSVG 326-->
<!DOCTYPE svg
PUBLIC "-//W3C//DTD SVG 1.1//EN"
       "http://www.w3.org/Graphics/SVG/1.1/DTD/svg11.dtd">
<svg version="1.1" xmlns="http://www.w3.org/2000/svg" xmlns:xlink="http://www.w3.org/1999/xlink" viewBox="0 0 915.5 915.25">
 <g>
  <rect height="915.25" opacity="0" width="915.5" x="0" y="0"/>
  <path d="M915.5 451.5L915.5 759.75C915.5 787.75 898 803.75 868.25 803.75L227.5 803.75C201.434 803.75 186.086 790.469 185.1 767.25L860.5 767.25C872.25 767.25 879 761 879 748.75L879 412.768C902.021 414.728 915.5 428.835 915.5 451.5Z" fill="black" fill-opacity="0.85"/>
  <path d="M835.75 348L835.75 680.25C835.75 708.25 818.25 724 788.5 724L133.5 724C106.5 724 91 709.75 91 685.25L91 684.5L777.5 684.5C789.25 684.5 796 678.25 796 666.25L796 309.086C821 309.931 835.75 324.049 835.75 348Z" fill="black" fill-opacity="0.85"/>
  <path d="M97.25 633L647.25 633C720.5 633 744.5 609.25 744.5 536.75L744.5 274.25C744.5 210.5 711.5 178 647 178L633 178L633 139.5C633 118.5 621 106.25 599.75 106.25L532.5 106.25C511.25 106.25 499.25 118.5 499.25 139.5L499.25 178L243.75 178L243.75 139.5C243.75 118.5 231.75 106.25 210.5 106.25L143.25 106.25C122 106.25 110 118.5 110 139.5L110 178L97.25 178C32.75 178 0 210.5 0 274.25L0 536.75C0 600.5 32.75 633 97.25 633ZM107.75 422.5C98 422.5 90.25 414.5 90.25 404.75C90.25 395 98 387 107.75 387L214.75 387C224.25 387 232.25 395 232.25 404.75C232.25 414.5 224.25 422.5 214.75 422.5ZM580.5 481.25C570.75 481.25 563 473.5 563 463L563 422.75L522.25 422.75C512.25 422.75 504.25 414.75 504.25 404.75C504.25 395.25 512.25 387.25 522.25 387.25L563 387.25L563 346.75C563 336.25 570.75 328.5 580.5 328.5C590.75 328.5 598.5 336.25 598.5 346.75L598.5 387.25L639 387.25C648.75 387.25 656.75 395.25 656.75 404.75C656.75 414.75 648.75 422.75 639 422.75L598.5 422.75L598.5 463C598.5 473.5 590.75 481.25 580.5 481.25ZM375.25 353.25C360.75 353.25 350.25 342.75 349.5 327.75L343.75 31.5C343.25 12.5 355.5 0 375.25 0C394.5 0 407.25 12.5 406.5 31.5L400.5 327.75C400 342.75 389.75 353.25 375.25 353.25ZM375.25 493.75C352.75 493.75 334 475.25 334 454.25C334 432.25 352.25 414.75 375.25 414.75C397.75 414.75 416.25 432.25 416.25 454.25C416.25 475.25 397.5 493.75 375.25 493.75Z" fill="black" fill-opacity="0.85"/>
 </g>
</svg>
