<?xml version="1.0" encoding="UTF-8"?>
<!--Generator: Apple Native CoreSVG 326-->
<!DOCTYPE svg
PUBLIC "-//W3C//DTD SVG 1.1//EN"
       "http://www.w3.org/Graphics/SVG/1.1/DTD/svg11.dtd">
<svg version="1.1" xmlns="http://www.w3.org/2000/svg" xmlns:xlink="http://www.w3.org/1999/xlink" viewBox="0 0 757.5 787.75">
 <g>
  <rect height="787.75" opacity="0" width="757.5" x="0" y="0"/>
  <path d="M243.75 167L243.75 205.5L312.664 205.5L313.547 250L98.25 250C64 250 44.25 268.5 44.25 304.25L44.25 568.75C44.25 604.75 63.25 623.25 98.25 623.25L659 623.25C693.25 623.25 712.75 604.75 712.75 568.75L712.75 304.25C712.75 268.5 693.25 250 659 250L446.953 250L447.836 205.5L512.25 205.5L512.25 167C512.25 146.25 524 134 545.25 134L612.5 134C634 134 645.75 146.25 645.75 167L645.75 205.5L659.75 205.5C724.25 205.5 757.5 238.25 757.5 302L757.5 571.25C757.5 634.75 724.5 667.5 660 667.5L97.25 667.5C32.75 667.5 0 635.25 0 571.25L0 302C0 238.25 32.75 205.5 97.25 205.5L110 205.5L110 167C110 146.25 122 134 143.25 134L210.5 134C231.75 134 243.75 146.25 243.75 167ZM580.5 382.5L580.5 422.25L620.25 422.25C630 422.25 637.75 430 637.75 439.25C637.75 449 630 456.75 620.25 456.75L580.5 456.75L580.5 496.25C580.5 506.25 573 513.75 563.25 513.75C553.75 513.75 546.25 506.25 546.25 496.25L546.25 456.75L506.25 456.75C496.75 456.75 489 449 489 439.25C489 430 496.5 422.25 506.25 422.25L546.25 422.25L546.25 382.5C546.25 372.75 553.75 365.25 563.25 365.25C573 365.25 580.5 372.75 580.5 382.5ZM245.5 439.25C245.5 448.75 237.75 456.5 228.25 456.5L124 456.5C114.5 456.5 107 448.75 107 439.25C107 430 114.5 422.25 124 422.25L228.25 422.25C237.75 422.25 245.5 430 245.5 439.25Z" fill="black" fill-opacity="0.85"/>
  <path d="M380 527.75C401.75 527.75 419.75 509.5 419.75 489C419.75 467.75 402 450.75 380 450.75C357.75 450.75 340.25 467.75 340.25 489C340.25 509.5 358.25 527.75 380 527.75ZM380 390.5C394 390.5 404.25 380.25 404.75 366L410.5 71C411 53 399 40.75 380 40.75C361 40.75 349 53 349.5 71L355.25 366C355.75 380.25 366 390.5 380 390.5Z" fill="black" fill-opacity="0.85"/>
 </g>
</svg>
