<?xml version="1.0" encoding="UTF-8"?>
<!--Generator: Apple Native CoreSVG 326-->
<!DOCTYPE svg
PUBLIC "-//W3C//DTD SVG 1.1//EN"
       "http://www.w3.org/Graphics/SVG/1.1/DTD/svg11.dtd">
<svg version="1.1" xmlns="http://www.w3.org/2000/svg" xmlns:xlink="http://www.w3.org/1999/xlink" viewBox="0 0 651.25 651.75">
 <g>
  <rect height="651.75" opacity="0" width="651.25" x="0" y="0"/>
  <path d="M651.25 325.75C651.25 505 505 651.25 325.5 651.25C146.25 651.25 0 505 0 325.75C0 146.25 146.25 0 325.5 0C505 0 651.25 146.25 651.25 325.75ZM331.5 244.75L170.25 418.25C162.5 426.5 162.5 436.5 170 445.25L148.5 472.25C145.5 476.25 145.5 481.75 149.25 485L154.5 490C158.25 493.25 162.75 493.75 167 490.75L194.5 469.25C202.5 476.25 212.75 476.25 221 468.75L307.75 388.75L307.75 483.75C307.75 493.75 315.25 501.5 325.75 501.5C335.75 501.5 343.25 493.75 343.25 483.75L343.25 355L394 308.75C415.25 311.5 437.25 302 456.25 282.75L356.75 182.75C337 202.5 328.5 223.25 331.5 244.75ZM352.5 286.75C356.25 291 360.75 294.5 364.75 297.5L206 447.75L191.75 433.5L342.5 273.25C345 278.25 348.25 282.25 352.5 286.75ZM372.25 167.25L472.25 267C504.25 234.75 505.5 194.5 475 164.25C444.25 133.75 404.25 135.25 372.25 167.25Z" fill="black" fill-opacity="0.85"/>
 </g>
</svg>
