<?xml version="1.0" encoding="UTF-8"?>
<!--Generator: Apple Native CoreSVG 326-->
<!DOCTYPE svg
PUBLIC "-//W3C//DTD SVG 1.1//EN"
       "http://www.w3.org/Graphics/SVG/1.1/DTD/svg11.dtd">
<svg version="1.1" xmlns="http://www.w3.org/2000/svg" xmlns:xlink="http://www.w3.org/1999/xlink" viewBox="0 0 651.25 651.75">
 <g>
  <rect height="651.75" opacity="0" width="651.25" x="0" y="0"/>
  <path d="M325.5 651.25C505.25 651.25 651.25 505.5 651.25 325.75C651.25 146 505.25 0 325.5 0C145.75 0 0 146 0 325.75C0 505.5 145.75 651.25 325.5 651.25ZM325.5 604.75C171.25 604.75 46.5 480 46.5 325.75C46.5 171.5 171.25 46.75 325.5 46.75C479.75 46.75 604.5 171.5 604.5 325.75C604.5 480 479.75 604.75 325.5 604.75Z" fill="black" fill-opacity="0.85"/>
  <path d="M331.25 246.5L173.75 416.25C166.25 424.25 166.25 434 173.5 442.5L152.25 469C149.25 472.75 149.5 478 153.25 481.25L158.25 486.25C161.75 489.5 166.5 490 170.5 487L197.25 465.75C205.25 472.75 215.25 473 223 465.5L308 387L308 480.25C308 489.75 315.5 497.5 325.5 497.5C335 497.5 342.75 489.75 342.75 480.25L342.75 354.25L392 309C413 311.75 434.25 302.5 453.25 283.5L355.75 186C336.75 205.25 328.25 225.5 331.25 246.5ZM194.5 431L342 274.25C344.5 279 347.75 283 351.75 287.5C355.5 291.75 359.75 295.25 364 298L208.5 445ZM471.25 167.75C441.5 138 402.5 139.5 371 171L468.5 268.25C500 236.75 501.25 197.5 471.25 167.75Z" fill="black" fill-opacity="0.85"/>
 </g>
</svg>
