<?xml version="1.0" encoding="UTF-8"?>
<!--Generator: Apple Native CoreSVG 326-->
<!DOCTYPE svg
PUBLIC "-//W3C//DTD SVG 1.1//EN"
       "http://www.w3.org/Graphics/SVG/1.1/DTD/svg11.dtd">
<svg version="1.1" xmlns="http://www.w3.org/2000/svg" xmlns:xlink="http://www.w3.org/1999/xlink" viewBox="0 0 721.5 689.25">
 <g>
  <rect height="689.25" opacity="0" width="721.5" x="0" y="0"/>
  <path d="M0 598.25C0 657.5 30 689.25 90.75 689.25L624.25 689.25C689 689.25 721.5 656.75 721.5 593L721.5 96.5C721.5 32.5 689 0.25 624.25 0.25L234.25 0.25C169.5 0.25 137 32.5 137 96.5L137 257.75L61 257.75C22.75 257.75 0 278.75 0 314.5ZM44.25 598.25L44.25 322.5C44.25 309.75 52.25 302 65.25 302L137 302L137 598.25C137 625.5 117 645 90.75 645C64.25 645 44.25 624.75 44.25 598.25ZM168.25 645C176.75 631.5 181.25 615 181.25 595.75L181.25 99C181.25 63 200.25 44.5 235 44.5L623.25 44.5C658.25 44.5 677.25 63 677.25 99L677.25 590.5C677.25 626.5 658.25 645 623.25 645ZM268.25 187.25L590.75 187.25C600.75 187.25 608.25 179.5 608.25 169.75C608.25 160 600.75 152.5 590.75 152.5L268.25 152.5C258 152.5 250.5 160 250.5 169.75C250.5 179.5 258 187.25 268.25 187.25ZM268.25 302L590.75 302C600.75 302 608.25 294.5 608.25 285C608.25 275.25 600.75 267.5 590.75 267.5L268.25 267.5C258 267.5 250.5 275.25 250.5 285C250.5 294.5 258 302 268.25 302ZM288 534L372 534C395.75 534 410.25 519.5 410.25 495.75L410.25 420.75C410.25 397.25 395.75 382.5 372 382.5L288 382.5C264.25 382.5 249.5 397.25 249.5 420.75L249.5 495.75C249.5 519.5 264.25 534 288 534ZM469 417.25L590.5 417.25C600.5 417.25 608 409.75 608 400.25C608 390.25 600.5 382.5 590.5 382.5L469 382.5C458.75 382.5 451.25 390.25 451.25 400.25C451.25 409.75 458.75 417.25 469 417.25ZM469 534L590.5 534C600.5 534 608 526.5 608 517C608 507.25 600.5 499.5 590.5 499.5L469 499.5C458.75 499.5 451.25 507.25 451.25 517C451.25 526.5 458.75 534 469 534Z" fill="black" fill-opacity="0.85"/>
 </g>
</svg>
