<?xml version="1.0" encoding="UTF-8"?>
<!--Generator: Apple Native CoreSVG 326-->
<!DOCTYPE svg
PUBLIC "-//W3C//DTD SVG 1.1//EN"
       "http://www.w3.org/Graphics/SVG/1.1/DTD/svg11.dtd">
<svg version="1.1" xmlns="http://www.w3.org/2000/svg" xmlns:xlink="http://www.w3.org/1999/xlink" viewBox="0 0 651.25 651.75">
 <g>
  <rect height="651.75" opacity="0" width="651.25" x="0" y="0"/>
  <path d="M651.25 326C651.25 505.5 505 651.75 325.5 651.75C146.25 651.75 0 505.5 0 326C0 146.75 146.25 0.5 325.5 0.5C505 0.5 651.25 146.75 651.25 326ZM266.5 161C235.5 161 220 176.25 220 207.25L220 461.25C220 477.25 215.75 485.75 203.5 491.75L449.5 491.75C480.5 491.75 496 476.5 496 445.75L496 207.25C496 176.25 480.5 161 449.5 161ZM182.75 284.75C165.25 284.75 154.25 294.75 154.25 311.75L154.25 452C154.25 463.75 162.75 470.75 173.75 470.75C184.25 470.5 193 463.75 193 452L193 284.75ZM443.75 409.25C443.75 414.75 439.75 418.75 434 418.75L378.75 418.75C372.75 418.75 368.75 414.75 368.75 409.25C368.75 403.5 372.75 399.25 378.75 399.25L434 399.25C439.75 399.25 443.75 403.5 443.75 409.25ZM346.75 362.75L346.75 401C346.75 412.25 340 418.75 328.5 418.75L289.25 418.75C278.25 418.75 271.75 412.25 271.75 401L271.75 362.75C271.75 351.5 278.25 344.75 289.25 344.75L328.5 344.75C340 344.75 346.75 351.5 346.75 362.75ZM443.75 354.5C443.75 359.75 439.75 364.25 434 364.25L378.75 364.25C372.75 364.25 368.75 359.75 368.75 354.5C368.75 349.25 372.75 344.75 378.75 344.75L434 344.75C439.75 344.75 443.75 349.25 443.75 354.5ZM444 297.75C444 303.25 439.75 307.5 434 307.5L282 307.5C276.25 307.5 272 303.25 272 297.75C272 292 276.25 287.75 282 287.75L434 287.75C439.75 287.75 444 292 444 297.75ZM444 242.25C444 247.75 439.75 252.25 434 252.25L282 252.25C276.25 252.25 272 247.75 272 242.25C272 236.75 276.25 232.75 282 232.75L434 232.75C439.75 232.75 444 236.75 444 242.25Z" fill="black" fill-opacity="0.85"/>
 </g>
</svg>
