<?xml version="1.0" encoding="UTF-8"?>
<!--Generator: Apple Native CoreSVG 326-->
<!DOCTYPE svg
PUBLIC "-//W3C//DTD SVG 1.1//EN"
       "http://www.w3.org/Graphics/SVG/1.1/DTD/svg11.dtd">
<svg version="1.1" xmlns="http://www.w3.org/2000/svg" xmlns:xlink="http://www.w3.org/1999/xlink" viewBox="0 0 651.25 651.75">
 <g>
  <rect height="651.75" opacity="0" width="651.25" x="0" y="0"/>
  <path d="M325.5 651.25C505.25 651.25 651.25 505.5 651.25 325.75C651.25 146 505.25 0 325.5 0C145.75 0 0 146 0 325.75C0 505.5 145.75 651.25 325.5 651.25ZM325.5 604.75C171.25 604.75 46.5 480 46.5 325.75C46.5 171.5 171.25 46.75 325.5 46.75C479.75 46.75 604.5 171.5 604.5 325.75C604.5 480 479.75 604.75 325.5 604.75Z" fill="black" fill-opacity="0.85"/>
  <path d="M463 189.75L431.25 158C427.25 153.75 421.25 154 417.25 158C413.25 162 413 168.25 417.25 172.25L448.75 203.5C452.75 207.75 458.75 207.5 463 203.5C467 199.5 467.25 193.75 463 189.75ZM239.75 366.75L254 381L448.75 186.5L434.5 172ZM160 460.75C174.5 475.25 191.25 478.5 200.75 468.75L268.5 400.75C279.5 389.75 284.75 380 286.75 369L291.5 337.25L283.5 329L251.75 334.25C241 336 231 341.25 220.25 352.25L152.25 420C142.5 429.5 145.5 446.25 160 460.75ZM187 189.75C182.75 193.75 183 199.5 187 203.5C191 207.5 197.25 207.75 201 203.5L232.5 172.25C236.75 168.25 236.5 162 232.5 158C228.5 154 222.5 153.75 218.5 158ZM410 366.75L215.25 172L201.25 186.5L395.75 381ZM489.75 460.75C504.5 446.25 507.5 429.5 497.75 420L429.75 352.25C419 341.25 409 336 398.25 334.25L366.5 329L358.25 337.25L363.25 369C365.25 380 370.25 389.75 381.5 400.75L449.25 468.75C458.5 478.5 475.25 475.25 489.75 460.75Z" fill="black" fill-opacity="0.85"/>
 </g>
</svg>
