<?xml version="1.0" encoding="UTF-8"?>
<!--Generator: Apple Native CoreSVG 326-->
<!DOCTYPE svg
PUBLIC "-//W3C//DTD SVG 1.1//EN"
       "http://www.w3.org/Graphics/SVG/1.1/DTD/svg11.dtd">
<svg version="1.1" xmlns="http://www.w3.org/2000/svg" xmlns:xlink="http://www.w3.org/1999/xlink" viewBox="0 0 651.25 651.75">
 <g>
  <rect height="651.75" opacity="0" width="651.25" x="0" y="0"/>
  <path d="M202.75 375.75L196 351.5L20.75 403L28.25 427.5ZM221 416L205.75 395.5L60.75 497.5L75.75 518.25ZM301 460.25L277.5 450.5L225.75 625L250.25 632.75ZM350.75 194.5L375 201.75L425.5 30.25L401.25 22.5ZM429.5 240.25L444.75 260.25L590.5 157.75L575.5 137.25ZM449 279.5L456.75 303.25L630.75 252.25L623.25 228ZM325.5 474.75C408 474.75 474.5 408 474.5 325.75C474.5 243.25 408 176.75 325.5 176.75C243.25 176.75 176.5 243.25 176.5 325.75C176.5 408 243.25 474.75 325.5 474.75ZM325.5 445C259.75 445 206.25 391.5 206.25 325.75C206.25 259.75 259.75 206.25 325.5 206.25C391.5 206.25 445 259.75 445 325.75C445 391.5 391.5 445 325.5 445ZM325.5 403.25C368.5 403.25 403.25 368.5 403.25 325.75C403.25 282.75 368.5 248 325.5 248C282.75 248 248 282.75 248 325.75C248 368.5 282.75 403.25 325.5 403.25ZM325.5 371.25C300.25 371.25 280 351 280 325.75C280 300.5 300.25 280 325.5 280C350.75 280 371.25 300.5 371.25 325.75C371.25 351 350.75 371.25 325.5 371.25ZM325.5 651.25C505.25 651.25 651.25 505.5 651.25 325.75C651.25 146 505.25 0 325.5 0C145.75 0 0 146 0 325.75C0 505.5 145.75 651.25 325.5 651.25ZM325.5 604.75C171.25 604.75 46.5 480 46.5 325.75C46.5 171.5 171.25 46.75 325.5 46.75C479.75 46.75 604.5 171.5 604.5 325.75C604.5 480 479.75 604.75 325.5 604.75Z" fill="black" fill-opacity="0.85"/>
 </g>
</svg>
