<?xml version="1.0" encoding="UTF-8"?>
<!--Generator: Apple Native CoreSVG 326-->
<!DOCTYPE svg
PUBLIC "-//W3C//DTD SVG 1.1//EN"
       "http://www.w3.org/Graphics/SVG/1.1/DTD/svg11.dtd">
<svg version="1.1" xmlns="http://www.w3.org/2000/svg" xmlns:xlink="http://www.w3.org/1999/xlink" viewBox="0 0 651.25 651.75">
 <g>
  <rect height="651.75" opacity="0" width="651.25" x="0" y="0"/>
  <path d="M247.5 640.5C272.75 647.5 298.75 651.25 325.5 651.25C505.25 651.25 651.25 505.5 651.25 325.75C651.25 299.25 647.75 273.5 641 249L472 298.5C473.75 307.25 474.75 316.25 474.75 325.75C474.75 408.25 408 474.75 326 475C316 475 306.5 474.25 297.25 472ZM633.5 224.5C625.25 198.5 614 174 599.5 150.75L455.25 253C459 259.75 462.25 267 464.5 274.5ZM584.75 130.25C546.25 77.5 492.5 38.5 429.5 18.75L379.25 188.25C403.5 196.75 424.75 212 440.25 232.25ZM405 11.25C379.5 4 352.75 0 325.5 0C145.75 0 0 146 0 325.75C0 353.5 4 380.5 11.5 406.25L180.25 356.5C178 346.5 176.75 336.5 176.75 325.75C176.75 244.25 244.25 177.5 326.25 177.5C336 177.5 345.5 178.75 355 180.75ZM19 430.5C27.5 456 39.25 480 53.25 502.75L197.5 401.5C193.75 394.75 190.75 387.5 188.25 380.25ZM68.5 523.5C106.75 575 161.25 614.75 223.25 633.25L272.75 464.75C249.25 456.5 228 441.5 213 422ZM325.5 445C391.5 445 445 391.5 445 325.75C445 259.75 391.5 206.25 325.5 206.25C259.75 206.25 206.25 259.75 206.25 325.75C206.25 391.5 259.75 445 325.5 445ZM325.5 403.5C282.5 403.5 247.75 368.75 247.75 325.75C247.75 282.5 282.5 248 325.5 248C368.75 248 403.25 282.5 403.25 325.75C403.25 368.75 368.75 403.5 325.5 403.5ZM325.5 371.75C350.75 371.75 371.75 351 371.75 325.75C371.75 300.5 350.75 279.5 325.5 279.5C300.25 279.5 279.5 300.5 279.5 325.75C279.5 351 300.25 371.75 325.5 371.75Z" fill="black" fill-opacity="0.85"/>
 </g>
</svg>
