<?xml version="1.0" encoding="UTF-8"?>
<!--Generator: Apple Native CoreSVG 326-->
<!DOCTYPE svg
PUBLIC "-//W3C//DTD SVG 1.1//EN"
       "http://www.w3.org/Graphics/SVG/1.1/DTD/svg11.dtd">
<svg version="1.1" xmlns="http://www.w3.org/2000/svg" xmlns:xlink="http://www.w3.org/1999/xlink" viewBox="0 0 752.5 542.75">
 <g>
  <rect height="542.75" opacity="0" width="752.5" x="0" y="0"/>
  <path d="M134 402.75C134 413.5 142.75 422.25 153.5 422.25L599 422.25C609.75 422.25 618.75 413.5 618.75 402.75C618.75 392 609.75 383.25 599 383.25L153.5 383.25C142.75 383.25 134 392 134 402.75ZM0 402.75C0 481.25 61.25 542.75 146 542.75L606.75 542.75C691.25 542.75 752.5 481.25 752.5 402.75C752.5 379.5 745.5 358.25 737.5 338.5L624.5 74.75C604 26 563 0.75 508.75 0.75L243.75 0.75C189.75 0.75 148.75 26 128.25 74.75L15 338.5C7 358 0 379.5 0 402.75ZM44.25 402.75C44.25 348.75 85.75 307.25 146 307.25L606.75 307.25C666.75 307.25 708.25 348.75 708.25 402.75C708.25 461.75 666.75 498.25 606.75 498.25L146 498.25C85.75 498.25 44.25 456.75 44.25 402.75ZM92.75 274L170.75 86.5C183.5 55.5 209.5 39.75 245.25 39.75L507.5 39.75C543 39.75 569.25 55.5 581.75 86.5L659.5 273.75C643.75 267 625.75 262.75 606.75 262.75L146 262.75C126.75 262.75 108.75 267 92.75 274Z" fill="black" fill-opacity="0.85"/>
 </g>
</svg>
