<?xml version="1.0" encoding="UTF-8"?>
<!--Generator: Apple Native CoreSVG 326-->
<!DOCTYPE svg
PUBLIC "-//W3C//DTD SVG 1.1//EN"
       "http://www.w3.org/Graphics/SVG/1.1/DTD/svg11.dtd">
<svg version="1.1" xmlns="http://www.w3.org/2000/svg" xmlns:xlink="http://www.w3.org/1999/xlink" viewBox="0 0 768.5 644.25">
 <g>
  <rect height="644.25" opacity="0" width="768.5" x="0" y="0"/>
  <path d="M768.5 213.25C768.5 346.25 581 351.5 581 408C581 448 635.75 460.25 635.75 522.75C635.75 591.25 546.25 637.75 413.25 637.75C166.75 637.75 0 511.75 0 324.5C0 130 176 0 437.25 0C635.5 0 768.5 84.75 768.5 213.25ZM320.5 432.25C320.5 479.25 358.75 517.75 405.5 517.75C452.75 517.75 491 479.25 491 432.25C491 385.25 452.75 347 405.5 347C358.75 347 320.5 385.25 320.5 432.25ZM99.25 309.5C99.25 337.75 122.5 361.25 150.5 361.25C178.75 361.25 201.75 337.75 201.75 309.5C201.75 281 179 258.5 150.5 258.5C123.25 258.5 99.25 282 99.25 309.5ZM204.75 182.75C204.75 220.5 234.75 249.75 272.25 249.75C309 249.75 339 220.5 339 182.75C339 146 309 116.75 272.25 116.75C234.75 116.75 204.75 146 204.75 182.75ZM550.75 184.25C550.75 207.75 569.75 226.5 593.5 226.5C616.5 226.5 635 208 635 184.25C635 161.25 616.25 142.25 593.5 142.25C570 142.25 550.75 161.25 550.75 184.25ZM391.25 146.25C391.25 175.25 415.25 198.75 444.25 198.75C473.5 198.75 496.75 175.5 496.75 146.25C496.75 117 473.5 93.5 444.25 93.5C415.25 93.5 391.25 117.25 391.25 146.25Z" fill="black" fill-opacity="0.85"/>
 </g>
</svg>
