<?xml version="1.0" encoding="UTF-8"?>
<!--Generator: Apple Native CoreSVG 326-->
<!DOCTYPE svg
PUBLIC "-//W3C//DTD SVG 1.1//EN"
       "http://www.w3.org/Graphics/SVG/1.1/DTD/svg11.dtd">
<svg version="1.1" xmlns="http://www.w3.org/2000/svg" xmlns:xlink="http://www.w3.org/1999/xlink" viewBox="0 0 699.052 654.066">
 <g>
  <rect height="654.066" opacity="0" width="699.052" x="0" y="0"/>
  <path d="M10.526 582.408C70.276 660.408 195.526 677.658 269.026 619.658C330.776 571.408 344.026 496.158 293.776 433.408C248.776 375.658 181.776 362.408 131.526 402.158C84.776 439.158 101.026 489.408 74.026 510.908C52.026 527.908 28.026 518.158 11.026 532.158C-1.47404 542.408-5.47404 561.658 10.526 582.408ZM65.026 576.158C59.276 569.658 59.776 563.408 63.526 559.908C69.276 554.408 88.776 555.658 103.776 540.658C134.276 510.408 123.526 466.658 158.026 438.658C188.276 413.158 232.276 421.658 261.526 457.408C296.526 499.658 285.776 551.158 243.526 585.658C194.276 626.908 111.526 626.158 65.026 576.158ZM316.026 503.158C350.526 499.908 378.526 483.658 411.026 451.158C512.276 349.658 673.776 116.158 687.776 96.1582C725.526 42.6582 660.776-21.5918 607.276 15.6582C587.526 29.6582 353.526 190.408 252.276 292.408C220.276 324.658 204.026 352.408 200.276 386.408L244.026 397.908C244.276 373.658 257.026 349.908 283.526 323.658C385.026 223.408 613.026 65.6582 628.526 54.1582C643.276 43.4082 659.776 59.6582 649.026 75.1582C639.276 89.4082 478.526 320.908 379.526 419.908C352.026 447.408 331.526 457.408 308.526 459.158ZM377.776 427.908L413.526 419.158C408.526 357.658 346.776 295.408 286.526 289.908L275.026 325.658C318.776 326.158 376.526 383.908 377.776 427.908Z" fill="black" fill-opacity="0.85"/>
 </g>
</svg>
