<?xml version="1.0" encoding="UTF-8"?>
<!--Generator: Apple Native CoreSVG 326-->
<!DOCTYPE svg
PUBLIC "-//W3C//DTD SVG 1.1//EN"
       "http://www.w3.org/Graphics/SVG/1.1/DTD/svg11.dtd">
<svg version="1.1" xmlns="http://www.w3.org/2000/svg" xmlns:xlink="http://www.w3.org/1999/xlink" viewBox="0 0 675.571 758.568">
 <g>
  <rect height="758.568" opacity="0" width="675.571" x="0" y="0"/>
  <path d="M39.2854 719.409C91.2854 771.159 152.035 771.659 203.285 720.659C244.535 679.409 284.785 584.159 316.535 547.159L389.035 619.909C411.785 642.909 440.035 642.909 462.535 620.409L502.785 579.909C525.035 557.159 525.035 529.909 502.035 506.909L251.785 256.659C228.535 233.409 201.285 233.159 178.535 255.909L138.285 296.159C115.785 318.659 115.535 346.409 138.535 369.659L211.035 441.909C174.535 473.659 79.2854 514.159 38.0354 555.159C-12.9646 606.409-12.7146 667.159 39.2854 719.409ZM175.785 321.159L204.035 293.659C212.285 285.409 221.535 285.159 229.785 293.409L465.035 528.659C473.285 536.909 473.035 546.159 464.785 554.659L437.535 582.409C429.035 591.159 419.285 591.159 411.035 582.659L332.535 503.659C321.535 492.659 307.535 493.409 295.035 505.409C267.785 532.409 222.785 641.159 173.285 690.659C141.035 723.409 102.035 722.909 68.5354 689.909C35.5354 656.659 35.2854 617.159 67.7854 585.159C117.285 535.659 226.285 490.659 253.035 463.409C265.035 450.909 266.035 436.909 255.035 426.159L175.785 347.409C167.535 338.909 167.535 329.409 175.785 321.159ZM118.785 678.909C140.285 678.909 157.535 661.659 157.535 639.909C157.535 618.659 140.285 601.159 118.785 601.159C97.2854 601.159 79.7854 618.659 79.7854 639.909C79.7854 661.659 97.2854 678.909 118.785 678.909ZM499.035 533.409L650.035 382.409C684.535 348.159 684.035 306.409 648.785 271.159L397.285 19.409C364.785-13.091 310.285-0.590956 299.035 49.659C270.535 174.659 266.285 196.909 219.285 262.409L251.285 294.159C304.035 222.909 310.035 187.409 340.035 71.909C344.785 52.409 361.035 48.159 372.785 59.659L615.535 302.159C631.785 318.659 631.785 338.909 616.035 354.659L468.285 502.659ZM452.285 349.909C469.285 366.659 563.535 314.409 596.035 273.659L525.035 202.909C519.035 260.159 489.285 301.159 453.035 337.409C449.035 341.659 449.535 346.909 452.285 349.909Z" fill="black" fill-opacity="0.85"/>
 </g>
</svg>
