<?xml version="1.0" encoding="UTF-8"?>
<!--Generator: Apple Native CoreSVG 326-->
<!DOCTYPE svg
PUBLIC "-//W3C//DTD SVG 1.1//EN"
       "http://www.w3.org/Graphics/SVG/1.1/DTD/svg11.dtd">
<svg version="1.1" xmlns="http://www.w3.org/2000/svg" xmlns:xlink="http://www.w3.org/1999/xlink" viewBox="0 0 701.25 705.75">
 <g>
  <rect height="705.75" opacity="0" width="701.25" x="0" y="0"/>
  <path d="M400 705.75C421.25 705.75 436.25 688.25 447 659.75L660.5 102C665.5 89 668.25 77.5 668.25 68C668.25 49 656.75 37.25 637.75 37.25C628 37.25 616.75 40.25 603.75 45.25L43.5 259.5C18.25 269.25 0 284.25 0 305.75C0 332 19.5 341.5 49 350.5L285.75 419.75L354.75 654.5C363.75 685 373.25 705.75 400 705.75ZM298.25 377.75L69.5 309C61.5 306.5 59.75 304.75 59.75 302C59.75 299 61.5 296.5 68 294.25L531.75 118.25C553.75 109.75 575 99 594.75 90C576.75 104.5 552.75 123.25 538.25 137.75ZM404 646.5C401 646.5 399.25 644 396.75 636.25L327.75 407.5L568 167.25C582.25 153 601.5 128.75 616 110.5C607 130.25 596 151.75 587.5 173.75L411.5 637.5C409 644.25 407 646.5 404 646.5Z" fill="black" fill-opacity="0.85"/>
 </g>
</svg>
