<?xml version="1.0" encoding="UTF-8"?>
<!--Generator: Apple Native CoreSVG 326-->
<!DOCTYPE svg
PUBLIC "-//W3C//DTD SVG 1.1//EN"
       "http://www.w3.org/Graphics/SVG/1.1/DTD/svg11.dtd">
<svg version="1.1" xmlns="http://www.w3.org/2000/svg" xmlns:xlink="http://www.w3.org/1999/xlink" viewBox="0 0 651.25 651.75">
 <g>
  <rect height="651.75" opacity="0" width="651.25" x="0" y="0"/>
  <path d="M651.25 325.75C651.25 505 505 651.25 325.5 651.25C146.25 651.25 0 505 0 325.75C0 146.25 146.25 0 325.5 0C505 0 651.25 146.25 651.25 325.75ZM452.25 152.25L126.25 277C111.75 282.25 101.25 291 101.25 303.5C101.25 318.5 112.5 324 129.5 329.25L237.25 361.75C247.75 365 254 364.5 261 358L464.25 166.25C466.75 164.25 469.25 164.5 471 166C473.25 167.5 472.75 170.25 470.75 172.75L279.75 376.75C273.25 383.5 272.25 389.5 275.25 400.5L307.5 506C313 523.75 318 535.75 333.5 535.75C345.75 535.75 354.5 525.75 360.75 509.5L484.75 184.75C487.5 177.25 489.25 171 489.25 165.25C489.25 154.5 482.5 147.75 471.75 147.75C466 147.75 459.75 149.5 452.25 152.25Z" fill="black" fill-opacity="0.85"/>
 </g>
</svg>
