<?xml version="1.0" encoding="UTF-8"?>
<!--Generator: Apple Native CoreSVG 326-->
<!DOCTYPE svg
PUBLIC "-//W3C//DTD SVG 1.1//EN"
       "http://www.w3.org/Graphics/SVG/1.1/DTD/svg11.dtd">
<svg version="1.1" xmlns="http://www.w3.org/2000/svg" xmlns:xlink="http://www.w3.org/1999/xlink" viewBox="0 0 651.25 651.75">
 <g>
  <rect height="651.75" opacity="0" width="651.25" x="0" y="0"/>
  <path d="M325.5 651.25C505.25 651.25 651.25 505.5 651.25 325.75C651.25 146 505.25 0 325.5 0C145.75 0 0 146 0 325.75C0 505.5 145.75 651.25 325.5 651.25ZM325.5 604.75C171.25 604.75 46.5 480 46.5 325.75C46.5 171.5 171.25 46.75 325.5 46.75C479.75 46.75 604.5 171.5 604.5 325.75C604.5 480 479.75 604.75 325.5 604.75Z" fill="black" fill-opacity="0.85"/>
  <path d="M332.5 531C344.25 531 352.75 521.5 358.75 505.5L480 188.25C482.75 181 484.5 174.75 484.5 169.25C484.5 158.75 478 152.25 467.5 152.25C462 152.25 455.75 154 448.5 156.75L130 278.5C115.75 283.75 105.75 292.25 105.75 304.25C105.75 319 116.5 324.25 133 329.5L238.5 361.25C248.75 364.5 255.25 364 261.75 357.5L460.25 170.25C462.5 168.25 464.75 168.75 466.75 170C469 171.5 468.5 174.25 466.5 176.5L279.75 375.75C273.5 382.25 272.75 388.25 275.5 398.75L307 502.25C312.5 519.25 317.25 531 332.5 531Z" fill="black" fill-opacity="0.85"/>
 </g>
</svg>
