<?xml version="1.0" encoding="UTF-8"?>
<!--Generator: Apple Native CoreSVG 326-->
<!DOCTYPE svg
PUBLIC "-//W3C//DTD SVG 1.1//EN"
       "http://www.w3.org/Graphics/SVG/1.1/DTD/svg11.dtd">
<svg version="1.1" xmlns="http://www.w3.org/2000/svg" xmlns:xlink="http://www.w3.org/1999/xlink" viewBox="0 0 651.25 651.75">
 <g>
  <rect height="651.75" opacity="0" width="651.25" x="0" y="0"/>
  <path d="M325.5 651.25C505.25 651.25 651.25 505.5 651.25 325.75C651.25 146 505.25 0 325.5 0C145.75 0 0 146 0 325.75C0 505.5 145.75 651.25 325.5 651.25ZM325.5 604.75C171.25 604.75 46.5 480 46.5 325.75C46.5 171.5 171.25 46.75 325.5 46.75C479.75 46.75 604.5 171.5 604.5 325.75C604.5 480 479.75 604.75 325.5 604.75Z" fill="black" fill-opacity="0.85"/>
  <path d="M185.5 485C229.75 528.5 290.5 527 333.5 484.5L466.25 352C472 346 472.75 335 466.5 329C460 323 449.25 323.25 443 329.5L311.75 461C281.5 491.25 238.5 491 209.25 462C179 432.25 179.75 389.75 210 359.25L387 182.25C406.25 162.75 433.25 162 450.75 179.25C468.75 197.25 467.5 223.5 448 243.25L274.75 416.25C268.25 423 260.25 423 254 417C247.25 411 247.5 402.25 254.5 395.75L376.75 273.25C383.5 266.5 384.25 257.25 377.5 250.75C370.75 244.25 361.5 244.75 355 251.25L232.25 374C213.5 393 212.5 422 230.5 440.25C248.75 459 276.75 458.25 296.5 438.75L470.25 265.25C502.75 232.25 504 187.5 473.25 156.5C441.75 126 397 126.5 364 159L186.5 336.75C143.5 380 143.25 443.25 185.5 485Z" fill="black" fill-opacity="0.85"/>
 </g>
</svg>
