<?xml version="1.0" encoding="UTF-8"?>
<!--Generator: Apple Native CoreSVG 326-->
<!DOCTYPE svg
PUBLIC "-//W3C//DTD SVG 1.1//EN"
       "http://www.w3.org/Graphics/SVG/1.1/DTD/svg11.dtd">
<svg version="1.1" xmlns="http://www.w3.org/2000/svg" xmlns:xlink="http://www.w3.org/1999/xlink" viewBox="0 0 651.25 651.75">
 <g>
  <rect height="651.75" opacity="0" width="651.25" x="0" y="0"/>
  <path d="M651.25 326C651.25 505.5 505 651.75 325.5 651.75C146.25 651.75 0 505.5 0 326C0 146.75 146.25 0.5 325.5 0.5C505 0.5 651.25 146.75 651.25 326ZM365.75 155.25L183.5 337.5C139.25 381.5 139.25 446.75 182.5 489.5C228 534 290.25 532.75 334.5 489L470.25 353.25C476.5 347.25 477 335.75 470.5 329.75C463.75 323.5 453 323.75 446.5 330.25L312 464.75C281 495.5 237.25 495.5 207 465.5C176 435.25 176.75 391.75 207.75 360.25L389 179C408.75 159 436.5 158.5 454.5 176.25C472.75 194.25 471.75 221.25 451.5 241.75L274.25 418.75C267.25 425.75 259.5 425.75 252.75 419.75C246.25 413.5 246.25 404.75 253.25 397.75L378.75 272.5C385.75 265.75 386.25 256 379.25 249.25C372.25 242.75 362.75 243 356 249.75L230.5 375.5C211.25 394.75 210.25 425 228.75 443.75C247.5 463 276.25 462.25 296.5 442L474.5 264C508.25 230.25 509.25 184.5 477.5 152.75C445.5 121.25 399.25 121.75 365.75 155.25Z" fill="black" fill-opacity="0.85"/>
 </g>
</svg>
