<?xml version="1.0" encoding="UTF-8"?>
<!--Generator: Apple Native CoreSVG 326-->
<!DOCTYPE svg
PUBLIC "-//W3C//DTD SVG 1.1//EN"
       "http://www.w3.org/Graphics/SVG/1.1/DTD/svg11.dtd">
<svg version="1.1" xmlns="http://www.w3.org/2000/svg" xmlns:xlink="http://www.w3.org/1999/xlink" viewBox="0 0 549.5 718.25">
 <g>
  <rect height="718.25" opacity="0" width="549.5" x="0" y="0"/>
  <path d="M0 76.75L73.5 76.75L73.5 34C73.5 11.75 62.25 0 42.75 0L30 0C10.75 0 0 12.75 0 34ZM0 637L27.25 707.75C30 714.5 40.5 715 43.5 708L73.5 637L73.5 111.75L0 111.75ZM316.75 714L472.5 714C518.75 714 549.5 683 549.5 637L549.5 81C549.5 34.75 518.75 3.5 472.5 3.5L316.75 3.5C270.75 3.5 240 34.5 240 80.75L240 636.75C240 683 270.75 714 316.75 714ZM323.75 673.5C297.25 673.5 280.75 657 280.75 631L280.75 86.75C280.75 61 297.25 44.25 323.75 44.25L465.5 44.25C492 44.25 508.75 61 508.75 86.75L508.75 630.75C508.75 656.75 492 673.5 465.5 673.5ZM523.5 110L523.5 87.5L371.75 87.5C365.5 87.5 360.75 92.25 360.75 98.75C360.75 105 365.25 110 371.5 110ZM523.5 162L523.5 139.75L423.25 139.75C416.5 139.75 412 144.25 412 151C412 157.25 416.25 162 423 162ZM523.5 214L523.5 191.75L423.25 191.75C416.5 191.75 412 196.5 412 203.25C412 209.5 416.25 214 423 214ZM523.5 266L523.5 243.75L423.25 243.75C416.5 243.75 412 248 412 254.75C412 261.25 416.25 266 423 266ZM523.5 318L523.5 295.5L423.25 295.5C416.5 295.5 412 300.25 412 307.25C412 313 416.25 318 423 318ZM523.5 369.75L523.5 347.75L371.75 347.75C365.5 347.75 360.75 352.25 360.75 359C360.75 365.5 365.25 369.75 371.5 369.75ZM523.5 422.25L523.5 399.75L423.25 399.75C416.5 399.75 412 404.25 412 410.75C412 417.25 416.25 422.25 423 422.25ZM523.5 474.25L523.5 451.75L423.25 451.75C416.5 451.75 412 456.25 412 463.25C412 469.25 416.25 474.25 423 474.25ZM523.5 526L523.5 503.75L423.25 503.75C416.5 503.75 412 508.25 412 514.75C412 521 416.25 526 423 526ZM523.5 577.75L523.5 555.5L423.25 555.5C416.5 555.5 412 559.75 412 566.5C412 573.25 416.25 577.75 423 577.75ZM523.5 629.75L523.5 607.25L371.75 607.25C365.5 607.25 360.75 612 360.75 618.75C360.75 625 365.25 629.75 371.5 629.75Z" fill="black" fill-opacity="0.85"/>
 </g>
</svg>
