<?xml version="1.0" encoding="UTF-8"?>
<!--Generator: Apple Native CoreSVG 326-->
<!DOCTYPE svg
PUBLIC "-//W3C//DTD SVG 1.1//EN"
       "http://www.w3.org/Graphics/SVG/1.1/DTD/svg11.dtd">
<svg version="1.1" xmlns="http://www.w3.org/2000/svg" xmlns:xlink="http://www.w3.org/1999/xlink" viewBox="0 0 544.5 718.25">
 <g>
  <rect height="718.25" opacity="0" width="544.5" x="0" y="0"/>
  <path d="M0 76.75L73.5 76.75L73.5 34C73.5 11.75 62.25 0 42.75 0L30 0C10.75 0 0 12.75 0 34ZM0 637L27.25 707.75C30 714.5 40.5 715 43.5 708L73.5 637L73.5 111.75L0 111.75ZM311.75 714.25L467.5 714.25C513.5 714.25 544.5 683.25 544.5 637L544.5 81C544.5 34.75 513.5 3.5 467.5 3.5L311.75 3.5C265.5 3.5 234.75 34.75 234.75 81.25L234.75 637C234.75 683.25 265.5 714.25 311.75 714.25ZM500.75 91L367 91C360.5 91 355.5 86.25 355.5 79.5C355.5 73.5 360.25 68.5 366.75 68.5L500.75 68.5ZM500.75 146.75L418 146.75C411.5 146.75 407 142.5 407 135.5C407 129.25 411.25 124.5 417.75 124.5L500.75 124.5ZM500.75 202.75L418 202.75C411.5 202.75 407 198.25 407 191.5C407 185.25 411.25 180.5 417.75 180.5L500.75 180.5ZM500.75 258.25L418 258.25C411.5 258.25 407 254.25 407 247.5C407 241 411.25 236 417.75 236L500.75 236ZM500.75 314.25L418 314.25C411.5 314.25 407 310 407 303.25C407 297.25 411.25 292 417.75 292L500.75 292ZM500.75 370.25L367 370.25C360.5 370.25 355.5 366 355.5 359.25C355.5 353 360.25 347.75 366.75 347.75L500.75 347.75ZM500.75 426.25L418 426.25C411.5 426.25 407 421.75 407 415C407 408.75 411.25 403.75 417.75 403.75L500.75 403.75ZM500.75 482.25L418 482.25C411.5 482.25 407 477.75 407 471C407 464.75 411.25 460 417.75 460L500.75 460ZM500.75 538L418 538C411.5 538 407 533.25 407 526.5C407 520.5 411.25 515.5 417.75 515.5L500.75 515.5ZM500.75 593.75L418 593.75C411.5 593.75 407 589.5 407 582.5C407 576.25 411.25 571.5 417.75 571.5L500.75 571.5ZM500.75 649.25L367 649.25C360.5 649.25 355.5 645 355.5 638.5C355.5 632 360.25 627 366.75 627L500.75 627Z" fill="black" fill-opacity="0.85"/>
 </g>
</svg>
