<?xml version="1.0" encoding="UTF-8"?>
<!--Generator: Apple Native CoreSVG 326-->
<!DOCTYPE svg
PUBLIC "-//W3C//DTD SVG 1.1//EN"
       "http://www.w3.org/Graphics/SVG/1.1/DTD/svg11.dtd">
<svg version="1.1" xmlns="http://www.w3.org/2000/svg" xmlns:xlink="http://www.w3.org/1999/xlink" viewBox="0 0 651.25 651.75">
 <g>
  <rect height="651.75" opacity="0" width="651.25" x="0" y="0"/>
  <path d="M325.5 651.25C505.25 651.25 651.25 505.5 651.25 325.75C651.25 146 505.25 0 325.5 0C145.75 0 0 146 0 325.75C0 505.5 145.75 651.25 325.5 651.25ZM325.5 604.75C171.25 604.75 46.5 480 46.5 325.75C46.5 171.5 171.25 46.75 325.5 46.75C479.75 46.75 604.5 171.5 604.5 325.75C604.5 480 479.75 604.75 325.5 604.75Z" fill="black" fill-opacity="0.85"/>
  <path d="M107.75 291.75C107.75 344.25 145 381.75 197.5 381.75L213.5 381.75C211.75 373.75 211 360 212.25 350.75L199.75 350.75C164.5 350.75 140.25 326.5 140.25 291.75C140.25 257 164.5 232.25 199.75 232.25L330.75 232.25C366 232.25 390.25 257 390.25 291.75C390.25 326.5 366 350.75 330.75 350.75L278.5 350.75C275.5 359 276.25 372.25 284.5 381.75L332.75 381.75C385.25 381.75 422.5 344.25 422.5 291.75C422.5 239.25 385 201.5 332.75 201.5L197.5 201.5C145.25 201.5 107.75 239.25 107.75 291.75ZM228.25 362C228.25 414.5 265.75 452.25 318 452.25L453.25 452.25C505.5 452.25 543 414.5 543 362C543 309.5 505.75 272 453.25 272L437.25 272C438.75 280.5 440 289.5 438.5 303L451 303C486.25 303 510.5 327 510.5 362C510.5 396.75 486 421.5 451 421.5L320 421.5C284.75 421.5 260.5 396.75 260.5 362C260.5 327 284.75 303 320 303L372 303C375.25 295 374.5 280.25 366.5 272L318 272C265.5 272 228.25 309.5 228.25 362Z" fill="black" fill-opacity="0.85"/>
 </g>
</svg>
