<?xml version="1.0" encoding="UTF-8"?>
<!--Generator: Apple Native CoreSVG 326-->
<!DOCTYPE svg
PUBLIC "-//W3C//DTD SVG 1.1//EN"
       "http://www.w3.org/Graphics/SVG/1.1/DTD/svg11.dtd">
<svg version="1.1" xmlns="http://www.w3.org/2000/svg" xmlns:xlink="http://www.w3.org/1999/xlink" viewBox="0 0 706 679.75">
 <g>
  <rect height="679.75" opacity="0" width="706" x="0" y="0"/>
  <path d="M39.25 610.25L666.75 610.25L666.75 591C666.75 580.25 660.25 573.75 649.25 573.75L628.75 573.75L628.75 213.5L657.75 213.5C673 213.5 681.5 202.75 681.5 191.5C681.5 183.25 677 176 667 170.25L390.75 10.75C378.5 3.75 365.5 0 353 0C340.5 0 327.25 3.75 315.25 10.75L39 170.25C28.75 176 24.5 183.25 24.5 191.5C24.5 202.75 33 213.5 48.25 213.5L77.5 213.5L77.5 573.75L57 573.75C45.75 573.75 39.25 580.25 39.25 591ZM119.25 573.75L119.25 175.5L338.5 52C342.75 49.5 348 48 353 48C357.75 48 362.75 49.5 367.5 52L587 175.5L587 573.75ZM22.25 679.25L683.75 679.25C696 679.25 706 669.25 706 657.25C706 645 696 635 683.75 635L22.25 635C10 635 0 645 0 657.25C0 669.25 10 679.25 22.25 679.25Z" fill="black" fill-opacity="0.85"/>
  <path d="M289.75 484C300 484 306.75 477.25 306.75 467L306.75 384.75L366.25 384.75C423.75 384.75 460.25 343.75 460.25 289.5C460.25 236.5 425.25 194.75 367 194.75L290 194.75C279.5 194.75 273.25 201.5 273.25 212L273.25 467C273.25 477.25 279.75 484 289.75 484ZM306.75 356.75L306.75 222.75L359 222.75C400 222.75 426.25 246.75 426.25 289.5C426.25 331.5 400.5 356.75 359 356.75ZM241.5 264.5C241.5 270.25 246 274.25 251.5 274.25L476.25 274.25C481.75 274.25 486.25 270 486.25 264.5C486.25 259.25 481.75 254.75 476.25 254.75L251.5 254.75C246 254.75 241.5 259.25 241.5 264.5ZM241.5 315.25C241.5 321 246 325 251.5 325L476.25 325C481.75 325 486.25 320.5 486.25 315.25C486.25 309.75 481.75 305.5 476.25 305.5L251.5 305.5C246 305.5 241.5 309.75 241.5 315.25Z" fill="black" fill-opacity="0.85"/>
 </g>
</svg>
