<?xml version="1.0" encoding="UTF-8"?>
<!--Generator: Apple Native CoreSVG 326-->
<!DOCTYPE svg
PUBLIC "-//W3C//DTD SVG 1.1//EN"
       "http://www.w3.org/Graphics/SVG/1.1/DTD/svg11.dtd">
<svg version="1.1" xmlns="http://www.w3.org/2000/svg" xmlns:xlink="http://www.w3.org/1999/xlink" viewBox="0 0 757.5 587.75">
 <g>
  <rect height="587.75" opacity="0" width="757.5" x="0" y="0"/>
  <path d="M23.25 0C9.25 0 0 9.25 0 23.25L0 564.5C0 578.5 9.25 587.75 23.25 587.75L734.25 587.75C748.25 587.75 757.5 578.5 757.5 564.5L757.5 23.25C757.5 9.25 748.25 0 734.25 0ZM53 44.25L704.5 44.25C710.75 44.25 713 46.75 713 53L713 534.75C713 541 710.75 543.5 704.5 543.5L53 543.5C46.75 543.5 44.25 541 44.25 534.75L44.25 53C44.25 46.75 46.75 44.25 53 44.25Z" fill="black" fill-opacity="0.85"/>
  <path d="M97.5 80.5C86.75 80.5 80.5 86.75 80.5 97.25L80.5 490.5C80.5 501 86.75 507.25 97.5 507.25L660 507.25C670.75 507.25 677 501 677 490.5L677 97.25C677 86.75 670.75 80.5 660 80.5ZM116.25 109.5L641.25 109.5C645.75 109.5 648 111.75 648 116.25L648 471.5C648 476 645.75 478.25 641.25 478.25L116.25 478.25C111.75 478.25 109.5 476 109.5 471.5L109.5 116.25C109.5 111.75 111.75 109.5 116.25 109.5ZM656.5 434L502.75 291C490.75 280 478 274.75 463.25 274.75C448.5 274.75 436 279.5 424 290.5L307.5 395L259.5 351C248.75 341 237 336 224.5 336C212.5 336 202.25 341 191.5 350.75L94.25 439.5L94.25 468.25C94.25 486.25 104.5 494.5 119.75 494.5L631 494.5C646 494.5 656.5 486.25 656.5 468.25Z" fill="black" fill-opacity="0.85"/>
  <path d="M266.25 290.25C299.25 290.25 326.5 262.75 326.5 229.5C326.5 196.25 299.25 168.75 266.25 168.75C232.75 168.75 205.75 196.25 205.75 229.5C205.75 262.75 232.75 290.25 266.25 290.25Z" fill="black" fill-opacity="0.85"/>
 </g>
</svg>
