<?xml version="1.0" encoding="UTF-8"?>
<!--Generator: Apple Native CoreSVG 326-->
<!DOCTYPE svg
PUBLIC "-//W3C//DTD SVG 1.1//EN"
       "http://www.w3.org/Graphics/SVG/1.1/DTD/svg11.dtd">
<svg version="1.1" xmlns="http://www.w3.org/2000/svg" xmlns:xlink="http://www.w3.org/1999/xlink" viewBox="0 0 587.75 587.75">
 <g>
  <rect height="587.75" opacity="0" width="587.75" x="0" y="0"/>
  <path d="M587.75 96.5L587.75 491.5C587.75 555 555 587.75 490.25 587.75L97.25 587.75C32.75 587.75 0 555.5 0 491.5L0 96.5C0 32.5 32.75 0 97.25 0L490.25 0C555 0 587.75 32.75 587.75 96.5ZM206.25 114.25C195.25 114.25 187.5 121 187.5 130.75C187.5 136 190.5 142 195 148.25C204.25 160 224.25 175 246.25 188L240.75 267.75C193.25 284.25 164.5 322.25 164.5 358.5C164.5 372 173.5 380.5 187.25 380.5L276 380.5L276 444.75C276 477 288.5 504.25 294 504.25C299.75 504.25 312.5 477 312.5 444.75L312.5 380.5L401 380.5C415 380.5 424 372 424 358.5C424 322.25 395 284.25 347.75 267.75L342.25 188C364.5 175 384.75 159.5 394 147.75C398.25 141.75 400.75 136 400.75 130.75C400.75 121 393.5 114.25 382 114.25Z" fill="black" fill-opacity="0.85"/>
 </g>
</svg>
