<?xml version="1.0" encoding="UTF-8"?>
<!--Generator: Apple Native CoreSVG 326-->
<!DOCTYPE svg
PUBLIC "-//W3C//DTD SVG 1.1//EN"
       "http://www.w3.org/Graphics/SVG/1.1/DTD/svg11.dtd">
<svg version="1.1" xmlns="http://www.w3.org/2000/svg" xmlns:xlink="http://www.w3.org/1999/xlink" viewBox="0 0 651.25 651.75">
 <g>
  <rect height="651.75" opacity="0" width="651.25" x="0" y="0"/>
  <path d="M325.5 651.25C505.25 651.25 651.25 505.5 651.25 325.75C651.25 146 505.25 0 325.5 0C145.75 0 0 146 0 325.75C0 505.5 145.75 651.25 325.5 651.25ZM325.5 604.75C171.25 604.75 46.5 480 46.5 325.75C46.5 171.5 171.25 46.75 325.5 46.75C479.75 46.75 604.5 171.5 604.5 325.75C604.5 480 479.75 604.75 325.5 604.75Z" fill="black" fill-opacity="0.85"/>
  <path d="M198.75 389.5C198.75 402.5 207.5 410.75 221 410.75L307.75 410.75L307.75 473.75C307.75 505.25 320 531.5 325.5 531.5C330.75 531.5 343.25 505.25 343.25 473.75L343.25 410.75L429.75 410.75C443.5 410.75 452.25 402.5 452.25 389.5C452.25 354 423.75 317 377.75 300.75L372.25 222.75C394 210.25 413.75 195 422.75 183.5C427 177.75 429.25 172 429.25 167C429.25 157.75 422.25 151 411 151L240 151C229 151 221.75 157.75 221.75 167C221.75 172.25 224.25 178.25 229 184C238 195.5 257.25 210.5 278.75 222.75L273.25 300.75C227.25 317 198.75 354 198.75 389.5Z" fill="black" fill-opacity="0.85"/>
 </g>
</svg>
