<?xml version="1.0" encoding="UTF-8"?>
<!--Generator: Apple Native CoreSVG 326-->
<!DOCTYPE svg
PUBLIC "-//W3C//DTD SVG 1.1//EN"
       "http://www.w3.org/Graphics/SVG/1.1/DTD/svg11.dtd">
<svg version="1.1" xmlns="http://www.w3.org/2000/svg" xmlns:xlink="http://www.w3.org/1999/xlink" viewBox="0 0 587.75 587.75">
 <g>
  <rect height="587.75" opacity="0" width="587.75" x="0" y="0"/>
  <path d="M97.25 587.75L490.25 587.75C555 587.75 587.75 555 587.75 491.5L587.75 96.5C587.75 32.75 555 0 490.25 0L97.25 0C32.75 0 0 32.5 0 96.5L0 491.5C0 555.5 32.75 587.75 97.25 587.75ZM98.25 543.5C63.25 543.5 44.25 525 44.25 489L44.25 98.75C44.25 63 63.25 44.25 98.25 44.25L489.5 44.25C523.75 44.25 543.5 63 543.5 98.75L543.5 489C543.5 525 523.75 543.5 489.5 543.5Z" fill="black" fill-opacity="0.85"/>
  <path d="M167.5 357.5C167.5 370.5 176.25 378.75 189.75 378.75L276.5 378.75L276.5 441.75C276.5 473.25 288.75 499.5 294 499.5C299.5 499.5 312 473.25 312 441.75L312 378.75L398.5 378.75C412.25 378.75 421 370.5 421 357.5C421 322 392.5 285 346.5 268.75L341 190.75C362.75 178.25 382.25 163 391.5 151.5C395.75 145.75 398 140 398 135C398 125.75 390.75 119 379.75 119L208.5 119C197.75 119 190.5 125.75 190.5 135C190.5 140.25 193 146.25 197.5 152C206.75 163.5 226 178.5 247.5 190.75L242 268.75C195.75 285 167.5 322 167.5 357.5Z" fill="black" fill-opacity="0.85"/>
 </g>
</svg>
