<?xml version="1.0" encoding="UTF-8"?>
<!--Generator: Apple Native CoreSVG 326-->
<!DOCTYPE svg
PUBLIC "-//W3C//DTD SVG 1.1//EN"
       "http://www.w3.org/Graphics/SVG/1.1/DTD/svg11.dtd">
<svg version="1.1" xmlns="http://www.w3.org/2000/svg" xmlns:xlink="http://www.w3.org/1999/xlink" viewBox="0 0 708.875 766.25">
 <g>
  <rect height="766.25" opacity="0" width="708.875" x="0" y="0"/>
  <path d="M247.58 356.817C191.947 382.364 157.632 426.215 154.062 467.75C153.062 476.5 156.812 480.75 164.312 480.75L371.621 480.75L413.407 522.5L379.562 522.5L379.562 685.75C379.562 729.25 361.562 766.25 354.562 766.25C347.312 766.25 329.562 729.25 329.562 685.75L329.563 522.5L154.062 522.5C127.312 522.5 110.312 506 110.312 481.25C110.312 421.463 151.54 362.276 217.675 326.938ZM555.312 54.25C555.312 63 551.562 73 543.812 83.25C527.562 105.75 488.312 136 450.062 161L460.42 312.986C544.375 344.805 598.812 412.632 598.812 481.25C598.812 500.784 588.067 515.179 570.356 520.338L530.751 480.75L544.812 480.75C552.312 480.75 556.062 476.5 555.062 467.75C550.079 409.755 484.945 347.243 386.145 336.207L344.099 294.179C347.487 293.809 351.013 293.75 354.562 293.75C375.949 293.75 396.466 295.889 415.75 300.075L406.062 141.5C405.562 137 406.312 135.5 409.062 134C455.312 110 495.812 77.25 497.812 68.75C499.812 64.5 497.312 61.75 493.312 61.75L215.812 61.75C211.812 61.75 209.062 64.5 211.312 68.75C213.312 77.25 253.812 110 300.062 134C302.812 135.5 303.312 137 303.062 141.5L296.502 246.603L255.755 205.873L258.812 161C220.812 136 181.562 105.75 165.062 83.25C157.312 73 153.812 63 153.812 54.25C153.812 36 167.562 22.5 188.812 22.5L520.062 22.5C541.312 22.5 555.312 36 555.312 54.25Z" fill="black" fill-opacity="0.85"/>
  <path d="M41.0625 101L617.562 677.25C626.062 685.75 639.812 685.75 647.812 677.25C656.062 668.75 656.062 655.5 647.812 647.25L71.3125 71C63.3125 62.75 49.5625 62.5 41.0625 71C32.8125 79 32.8125 93 41.0625 101Z" fill="black" fill-opacity="0.85"/>
 </g>
</svg>
