<?xml version="1.0" encoding="UTF-8"?>
<!--Generator: Apple Native CoreSVG 326-->
<!DOCTYPE svg
PUBLIC "-//W3C//DTD SVG 1.1//EN"
       "http://www.w3.org/Graphics/SVG/1.1/DTD/svg11.dtd">
<svg version="1.1" xmlns="http://www.w3.org/2000/svg" xmlns:xlink="http://www.w3.org/1999/xlink" viewBox="0 0 488.5 766.25">
 <g>
  <rect height="766.25" opacity="0" width="488.5" x="0" y="0"/>
  <path d="M244.25 766.25C251.5 766.25 269.25 729.25 269.25 685.75L269.25 500.25L219.25 500.25L219.25 685.75C219.25 729.25 237.25 766.25 244.25 766.25ZM44 522.5L444.75 522.5C471.5 522.5 488.5 506 488.5 481.25C488.5 386.75 385.5 293.75 244.25 293.75C103.25 293.75 0 386.75 0 481.25C0 506 17.25 522.5 44 522.5ZM54 480.75C46.5 480.75 42.75 476.5 43.75 467.75C49.25 403.75 128 334.25 244.25 334.25C360.75 334.25 439.25 403.75 444.75 467.75C445.75 476.5 442 480.75 434.5 480.75ZM43.5 54.25C43.5 63 47.25 73 54.75 83.25C71.25 105.75 110.5 136 148.75 161L137.25 329.75L181.25 329.75L192.75 141.5C193.25 137 192.5 135.5 189.75 134C143.5 110 103 77.25 101 68.75C99 64.5 101.5 61.75 105.5 61.75L383 61.75C387 61.75 389.5 64.5 387.5 68.75C385.5 77.25 345 110 298.75 134C296 135.5 295.25 137 295.75 141.5L307.5 329.75L351.5 329.75L339.75 161C378 136 417.25 105.75 433.75 83.25C441.5 73 445 63 445 54.25C445 36 431.25 22.5 410 22.5L78.75 22.5C57.5 22.5 43.5 36 43.5 54.25Z" fill="black" fill-opacity="0.85"/>
 </g>
</svg>
