<?xml version="1.0" encoding="UTF-8"?>
<!--Generator: Apple Native CoreSVG 326-->
<!DOCTYPE svg
PUBLIC "-//W3C//DTD SVG 1.1//EN"
       "http://www.w3.org/Graphics/SVG/1.1/DTD/svg11.dtd">
<svg version="1.1" xmlns="http://www.w3.org/2000/svg" xmlns:xlink="http://www.w3.org/1999/xlink" viewBox="0 0 1086.5 730.25">
 <g>
  <rect height="730.25" opacity="0" width="1086.5" x="0" y="0"/>
  <path d="M534 326.5C534 412.5 584.75 462.5 671.25 462.5L906.5 462.5L906.5 559C906.5 622.5 873.75 655.25 816.75 655.25L277.5 655.25C213 655.25 180 622.75 180 559L180 291.25L534 291.25ZM426 95.5L445 111.5C461.5 126 474.25 131 498 131L534.197 131C534.022 132.671 534 134.452 534 136.25L534 254.5L180 254.5L180 163C180 101.75 210.75 71.5 265.25 71.5L357.25 71.5C389.25 71.5 404.75 77 426 95.5Z" fill="black" fill-opacity="0.85"/>
  <path d="M1046.5 136.25L1046.5 326.5C1046.5 390.5 1013.75 422.75 949.25 422.75L671.25 422.75C606.5 422.75 574 390.5 574 326.5L574 136.25C574 72.25 606.5 40 671.25 40L949.25 40C1013.75 40 1046.5 72.25 1046.5 136.25ZM792.25 147.5L792.25 213L726.5 213C715.75 213 708.25 220 708.25 231.25C708.25 242.25 715.75 249.25 726.5 249.25L792.25 249.25L792.25 315C792.25 326 799.25 333.25 810.5 333.25C821.5 333.25 828.5 326 828.5 315L828.5 249.25L894.25 249.25C905 249.25 912.25 242.25 912.25 231.25C912.25 220 905 213 894.25 213L828.5 213L828.5 147.5C828.5 136.75 821.5 129.25 810.5 129.25C799.25 129.25 792.25 136.75 792.25 147.5Z" fill="black" fill-opacity="0.85"/>
 </g>
</svg>
