<?xml version="1.0" encoding="UTF-8"?>
<!--Generator: Apple Native CoreSVG 326-->
<!DOCTYPE svg
PUBLIC "-//W3C//DTD SVG 1.1//EN"
       "http://www.w3.org/Graphics/SVG/1.1/DTD/svg11.dtd">
<svg version="1.1" xmlns="http://www.w3.org/2000/svg" xmlns:xlink="http://www.w3.org/1999/xlink" viewBox="0 0 706 679.75">
 <g>
  <rect height="679.75" opacity="0" width="706" x="0" y="0"/>
  <path d="M390.75 10.75L667 170.25C677 176 681.5 183.25 681.5 191.5C681.5 202.75 673 213.5 657.75 213.5L628.75 213.5L628.75 595.25L649.25 595.25C660.25 595.25 666.75 601.75 666.75 612.5L666.75 635L683.75 635C696 635 706 645 706 657.25C706 669.25 696 679.25 683.75 679.25L22.25 679.25C10 679.25 0 669.25 0 657.25C0 645 10 635 22.25 635L39.25 635L39.25 612.5C39.25 601.75 45.75 595.25 57 595.25L77.5 595.25L77.5 213.5L48.25 213.5C33 213.5 24.5 202.75 24.5 191.5C24.5 183.25 28.75 176 39 170.25L315.25 10.75C327.25 3.75 340.5 0 353 0C365.5 0 378.5 3.75 390.75 10.75ZM413.25 236.25L413.25 349.75L386.25 364.25C380.25 367.5 377.5 372.5 377.5 377.25C377.5 386.25 387 394.25 398.5 388L413.25 379.75L413.25 489.5C413.25 500.5 419.5 507 429.75 507C439.75 507 446.25 500.5 446.25 489.5L446.25 362.25L475.5 346.5C481.5 343.25 484 338.5 484 334C484 325 474.5 316.5 463.75 322L446.25 331.75L446.25 236.5C446.25 225.25 439.75 218.75 429.75 218.75C419.5 218.75 413.25 225.25 413.25 236.25ZM242.75 301.5C235 301.5 229 307.25 229 314.75C229 322.5 235 328 242.75 328L324.25 328L324.25 331.25L234.25 474.5C231.5 479 229 483.5 229 488.25C229 497.25 235.25 503.5 244.25 503.5L350.75 503.5C358.75 503.5 364.75 497.75 364.75 490C364.75 482.75 358.75 477.25 350.75 477.25L270.75 477.25L270.75 474L357.25 333.75C360.75 327.75 363.25 323.75 363.25 317.5C363.25 309.5 358.75 301.5 346.5 301.5Z" fill="black" fill-opacity="0.85"/>
 </g>
</svg>
