<?xml version="1.0" encoding="UTF-8"?>
<!--Generator: Apple Native CoreSVG 326-->
<!DOCTYPE svg
PUBLIC "-//W3C//DTD SVG 1.1//EN"
       "http://www.w3.org/Graphics/SVG/1.1/DTD/svg11.dtd">
<svg version="1.1" xmlns="http://www.w3.org/2000/svg" xmlns:xlink="http://www.w3.org/1999/xlink" viewBox="0 0 719.25 695.75">
 <g>
  <rect height="695.75" opacity="0" width="719.25" x="0" y="0"/>
  <path d="M592.5 93.75L592.5 115.5L549.25 115.5L549.25 91C549.25 61.75 535.75 48.25 506.5 48.25L212.75 48.25C183.5 48.25 170 61.75 170 91L170 115.5L126.75 115.5L126.75 93.75C126.75 34.25 158.5 7.75 213.25 7.75L506 7.75C563.25 7.75 592.5 34.25 592.5 93.75Z" fill="black" fill-opacity="0.85"/>
  <path d="M719.25 206.25L719.25 508.75C719.25 569 687.75 599.5 627.25 599.5L590.75 599.5L590.75 557.75L627.75 557.75C659.25 557.75 674.5 542 674.5 510.75L674.5 204.25C674.5 173 659.25 157.5 627.75 157.5L91.5 157.5C60 157.5 44.5 173 44.5 204.25L44.5 510.75C44.5 542 60 557.75 91.5 557.75L128.5 557.75L128.5 599.5L92 599.5C31.5 599.5 0 569 0 508.75L0 206.25C0 146 34.25 115.5 92 115.5L627.25 115.5C687.75 115.5 719.25 146 719.25 206.25ZM592.5 235.75C592.5 257.25 574.75 275 553.5 275C531.75 275 514 257.75 514 235.75C514 214.5 531.75 196.5 553.5 196.5C574.75 196.5 592.5 214.5 592.5 235.75Z" fill="black" fill-opacity="0.85"/>
  <path d="M191.75 695.75L527.5 695.75C569.75 695.75 590.75 676.5 590.75 632.75L590.75 374.25C590.75 330.5 569.75 311.25 527.5 311.25L191.75 311.25C151 311.25 128.5 330.5 128.5 374.25L128.5 632.75C128.5 676.5 149.5 695.75 191.75 695.75ZM250.75 437.75C235 437.75 222 425.25 222 409C222 392.75 235 380.25 250.75 380.25C267 380.25 279.75 392.75 279.75 409C279.75 425.25 267 437.75 250.75 437.75ZM250.75 532.25C235 532.25 222 519.75 222 503.5C222 487.25 235 474.75 250.75 474.75C267 474.75 279.75 487.25 279.75 503.5C279.75 519.75 267 532.25 250.75 532.25ZM250.75 626.5C235 626.5 222 614 222 597.75C222 581.75 235 569 250.75 569C267 569 279.75 581.75 279.75 597.75C279.75 614 267 626.5 250.75 626.5ZM468.75 437.75C453 437.75 440 425.25 440 409C440 392.75 453 380.25 468.75 380.25C484.75 380.25 498 392.75 498 409C498 425.25 484.75 437.75 468.75 437.75ZM468.75 532.25C453 532.25 440 519.75 440 503.5C440 487.25 453 474.75 468.75 474.75C484.75 474.75 498 487.25 498 503.5C498 519.75 484.75 532.25 468.75 532.25ZM468.75 626.5C453 626.5 440 614 440 597.75C440 581.75 453 569 468.75 569C484.75 569 498 581.75 498 597.75C498 614 484.75 626.5 468.75 626.5Z" fill="black" fill-opacity="0.85"/>
 </g>
</svg>
