<?xml version="1.0" encoding="UTF-8"?>
<!--Generator: Apple Native CoreSVG 326-->
<!DOCTYPE svg
PUBLIC "-//W3C//DTD SVG 1.1//EN"
       "http://www.w3.org/Graphics/SVG/1.1/DTD/svg11.dtd">
<svg version="1.1" xmlns="http://www.w3.org/2000/svg" xmlns:xlink="http://www.w3.org/1999/xlink" viewBox="0 0 942.75 617.25">
 <g>
  <rect height="617.25" opacity="0" width="942.75" x="0" y="0"/>
  <path d="M289 616L397 616C421.75 616 437.75 600 437.75 579.25C437.75 568 433 556.75 422.5 545C408 528.5 398.25 510.5 398.25 489.25C398.25 448.75 426.5 418.25 471.25 418.25C516.25 418.25 544.25 448.75 544.25 489.25C544.25 510.5 534.75 528.5 520 545C509.5 556.75 505 568 505 579.25C505 600 521 616 545.5 616L653.5 616C713.5 616 746.25 583.75 746.25 524.75L746.25 405.25C746.25 399.25 750.75 396 757.25 400.5C777.25 414.75 800.25 427.25 830.75 427.25C891.25 427.25 942.75 380 942.75 310.25C942.75 240.5 891.25 193.25 830.75 193.25C800.25 193.25 777.25 205.75 757.25 219.75C750.75 224.5 746.25 221.25 746.25 215.25L746.25 91.25C746.25 32.25 713.5 0 653.5 0L545.5 0C521 0 505 16 505 36.75C505 48 509.5 59.25 520 71C534.75 87.5 544.25 105.5 544.25 126.75C544.25 166.25 515.25 197.75 471.25 197.75C427.5 197.75 398.25 166.25 398.25 126.75C398.25 105.5 408 87.5 422.5 71C433 59.25 437.75 48 437.75 36.75C437.75 16 421.75 0 397 0L289 0C229 0 196.5 32.25 196.5 91.25L196.5 215.25C196.5 221.25 192 224.5 185.5 219.75C165.5 205.75 142.5 193.25 112 193.25C51.5 193.25 0 240.5 0 310.25C0 380 51.5 427.25 112 427.25C142.5 427.25 165.5 414.75 185.5 400.5C192 396 196.5 399.25 196.5 405.25L196.5 524.75C196.5 583.75 229 616 289 616ZM290 571.5C259.25 571.5 240.75 553.75 240.75 522.75L240.75 384.5C240.75 359.75 224.75 343.75 204 343.75C192.75 343.75 181.5 348.5 169.75 359C153.25 373.75 135.25 383.25 114 383.25C74.5 383.25 43 354.25 43 310.25C43 266.25 74.5 237.25 114 237.25C135.25 237.25 153.25 246.75 169.75 261.5C181.5 272 192.75 276.75 204 276.75C224.75 276.75 240.75 260.75 240.75 236L240.75 93.25C240.75 62.25 259.25 44.5 290 44.5L372 44.5C385.75 44.5 383.25 52 378.75 58.75C366 78.25 354.25 99.5 354.25 128.75C354.25 189.25 401.5 240.75 471.25 240.75C541 240.75 588.25 189.25 588.25 128.75C588.25 99.5 576.75 78.25 564 58.75C559.5 52 556.75 44.5 570.75 44.5L652.75 44.5C683.25 44.5 702 62.25 702 93.25L702 236C702 260.75 718 276.75 738.75 276.75C749.75 276.75 761.25 272 773 261.5C789.5 246.75 807.5 237.25 828.75 237.25C868.25 237.25 899.75 266.25 899.75 310.25C899.75 354.25 868.25 383.25 828.75 383.25C807.5 383.25 789.5 373.75 773 359C761.25 348.5 749.75 343.75 738.75 343.75C718 343.75 702 359.75 702 384.5L702 522.75C702 553.75 683.25 571.5 652.75 571.5L570.75 571.5C556.75 571.5 559.5 564 564 557.25C576.75 538 588.25 516.5 588.25 487.25C588.25 425.5 542.25 375.25 471.25 375.25C400.5 375.25 354.25 425.5 354.25 487.25C354.25 516.5 366 538 378.75 557.25C383.25 564 385.75 571.5 372 571.5Z" fill="black" fill-opacity="0.85"/>
 </g>
</svg>
