<?xml version="1.0" encoding="UTF-8"?>
<!--Generator: Apple Native CoreSVG 326-->
<!DOCTYPE svg
PUBLIC "-//W3C//DTD SVG 1.1//EN"
       "http://www.w3.org/Graphics/SVG/1.1/DTD/svg11.dtd">
<svg version="1.1" xmlns="http://www.w3.org/2000/svg" xmlns:xlink="http://www.w3.org/1999/xlink" viewBox="0 0 808.75 617.25">
 <g>
  <rect height="617.25" opacity="0" width="808.75" x="0" y="0"/>
  <path d="M24.75 524.75C24.75 583.75 57.5 616 117.5 616L519.5 616C579.5 616 612.25 583.75 612.25 524.75L612.25 405.25C612.25 399.25 616.75 396 623.25 400.5C643.25 414.75 666.25 427.25 696.75 427.25C757.25 427.25 808.75 380 808.75 310.25C808.75 240.5 757.25 193.25 696.75 193.25C666.25 193.25 643.25 205.75 623.25 219.75C616.75 224.5 612.25 221.25 612.25 215.25L612.25 91.25C612.25 32.25 579.5 0 519.5 0L117.5 0C57.5 0 24.75 32.25 24.75 91.25L24.75 235.75C24.75 260.5 40.75 274.75 61.5 274.75C72.75 274.75 84 270.25 95.75 259.75C112.25 245 130.25 235.5 151.5 235.5C191 235.5 222.5 264.5 222.5 308.5C222.5 352.25 191 381.5 151.5 381.5C130.25 381.5 112.25 372 95.75 357.25C84 346.75 72.75 342 61.5 342C40.75 342 24.75 356.5 24.75 381ZM69.25 522.75L69.25 406.25C69.25 392.25 76.75 396.5 83.5 401C103 413.75 124.25 425.5 153.5 425.5C214 425.5 265.5 378.25 265.5 308.5C265.5 238.75 214 191.5 153.5 191.5C124.25 191.5 103 203 83.5 215.75C76.75 220.25 69.25 224.5 69.25 210.5L69.25 93.25C69.25 62.25 87.75 44.5 118.5 44.5L518.75 44.5C549.25 44.5 568 62.25 568 93.25L568 236C568 260.75 584 276.75 604.75 276.75C615.75 276.75 627.25 272 638.75 261.5C655.5 246.75 673.25 237.25 694.75 237.25C734.25 237.25 765.75 266.25 765.75 310.25C765.75 354.25 734.25 383.25 694.75 383.25C673.25 383.25 655.5 373.75 638.75 359C627.25 348.5 615.75 343.75 604.75 343.75C584 343.75 568 359.75 568 384.5L568 522.75C568 553.75 549.25 571.5 518.75 571.5L118.5 571.5C87.75 571.5 69.25 553.75 69.25 522.75Z" fill="black" fill-opacity="0.85"/>
 </g>
</svg>
