<?xml version="1.0" encoding="UTF-8"?>
<!--Generator: Apple Native CoreSVG 326-->
<!DOCTYPE svg
PUBLIC "-//W3C//DTD SVG 1.1//EN"
       "http://www.w3.org/Graphics/SVG/1.1/DTD/svg11.dtd">
<svg version="1.1" xmlns="http://www.w3.org/2000/svg" xmlns:xlink="http://www.w3.org/1999/xlink" viewBox="0 0 930.5 612.25">
 <g>
  <rect height="612.25" opacity="0" width="930.5" x="0" y="0"/>
  <path d="M0 305.5C0 371.5 46.5 407.5 98.75 407.5C121.5 407.5 138 401.5 159.5 387.5C177.25 376.5 190.25 383.5 190.25 398.75L190.25 521.75C190.25 580 222.5 611.25 281.5 611.25L372 611.25C387.25 611.25 394.5 598.25 383.25 580.5C369.25 559 363.25 542.5 363.25 519.75C363.25 467.5 399.5 421 465.25 421C531.25 421 567.5 467.5 567.5 519.75C567.5 542.5 561.25 559 547.25 580.5C536.25 598.25 543.25 611.25 558.5 611.25L649 611.25C708.25 611.25 740.25 580 740.25 521.75L740.25 398.75C740.25 383.5 753.25 376.5 771 387.5C792.75 401.5 809 407.5 831.75 407.5C884 407.5 930.5 371.5 930.5 305.5C930.5 239.75 884 203.5 831.75 203.5C809 203.5 792.75 209.5 771 223.5C753.25 234.75 740.25 227.5 740.25 212.25L740.25 89.5C740.25 31.5 708.25 0 649 0L558.5 0C543.25 0 536.25 13 547.25 30.75C561.25 52.5 567.5 69 567.5 91.5C567.5 143.75 531.25 190.25 465.25 190.25C399.5 190.25 363.25 143.75 363.25 91.5C363.25 69 369.25 52.5 383.25 30.75C394.5 13 387.25 0 372 0L281.5 0C222.5 0 190.25 31.5 190.25 89.5L190.25 212.25C190.25 227.5 177.25 234.75 159.5 223.5C138 209.5 121.5 203.5 98.75 203.5C46.5 203.5 0 239.75 0 305.5Z" fill="black" fill-opacity="0.85"/>
 </g>
</svg>
