<?xml version="1.0" encoding="UTF-8"?>
<!--Generator: Apple Native CoreSVG 326-->
<!DOCTYPE svg
PUBLIC "-//W3C//DTD SVG 1.1//EN"
       "http://www.w3.org/Graphics/SVG/1.1/DTD/svg11.dtd">
<svg version="1.1" xmlns="http://www.w3.org/2000/svg" xmlns:xlink="http://www.w3.org/1999/xlink" viewBox="0 0 844.5 614.25">
 <g>
  <rect height="614.25" opacity="0" width="844.5" x="0" y="0"/>
  <path d="M156 441C174.5 441 183.5 428.25 183.5 410.75C183.5 405.25 183.5 399.75 183.5 394.5C184 350.25 199.25 330.75 252.25 294C309.75 254.25 342.25 212.5 342.25 152.25C342.25 58.5 266.25 1.75 170.25 1.75C97 1.75 34.25 39 8.75 101.75C2.5 116.5 0 130.25 0 141.5C0 157 9 167.75 25.25 167.75C39.25 167.75 48.5 159.5 52.5 145.75C67.5 81.75 111.5 52.25 168.5 52.25C234.5 52.25 286.5 91.75 286.5 152C286.5 198 259 225.75 213.75 258.25C160.75 295.75 127.75 331.5 127.75 387.75C127.75 395.75 127.75 403.5 127.75 411.5C127.75 429 137.25 441 156 441ZM156.25 614.25C178.75 614.25 196.5 596 196.5 574C196.5 551.5 178.75 533.75 156.25 533.75C134.25 533.75 116 551.5 116 574C116 596 134.25 614.25 156.25 614.25Z" fill="black" fill-opacity="0.85"/>
  <path d="M844.5 306.5C844.5 236.25 788.25 180 718.25 180C665.5 180 619.25 211.25 600 260.25L408.75 260.25C403.5 260.25 399.25 261.75 395.25 265.75L362.5 298.25C358.25 302.5 357.75 310 362.5 315L424 377C428.75 381.75 436 381.5 440.75 377L477.25 340L528.5 391.25C533 395.75 540 395.75 545.25 390.75L595.5 340.75C620 400 664.75 433.25 718.25 433.25C787.75 433.25 844.5 376.5 844.5 306.5ZM727.25 311.75C727.25 292 743 276 762.75 276C782.5 276 798.5 291.75 798.5 311.75C798.5 331.25 782.25 347.25 762.75 347.25C743 347.25 727.25 331.25 727.25 311.75Z" fill="black" fill-opacity="0.85"/>
 </g>
</svg>
