<?xml version="1.0" encoding="UTF-8"?>
<!--Generator: Apple Native CoreSVG 326-->
<!DOCTYPE svg
PUBLIC "-//W3C//DTD SVG 1.1//EN"
       "http://www.w3.org/Graphics/SVG/1.1/DTD/svg11.dtd">
<svg version="1.1" xmlns="http://www.w3.org/2000/svg" xmlns:xlink="http://www.w3.org/1999/xlink" viewBox="0 0 726.25 587.25">
 <g>
  <rect height="587.25" opacity="0" width="726.25" x="0" y="0"/>
  <path d="M97.25 583.75L636.5 583.75C693.75 583.75 726.25 551 726.25 487.5L726.25 155.75C726.25 92 693.5 59.5 629 59.5L317.75 59.5C294.25 59.5 281.5 54.5 264.75 40L245.75 24C224.5 5.5 209.25 0 177 0L85.25 0C30.5 0 0 30.25 0 91.5L0 487.5C0 551.25 32.75 583.75 97.25 583.75ZM98.25 539.5C63.25 539.5 44.25 521 44.25 485L44.25 94.25C44.25 60.75 61.5 44 94 44L166 44C189 44 201.5 49 218.5 64L237.5 80C258 97.75 274.5 103.75 306.75 103.75L628.25 103.75C662.5 103.75 682 122.25 682 158L682 485.25C682 521 662.5 539.5 628.25 539.5Z" fill="black" fill-opacity="0.85"/>
  <path d="M358 382.25C371 382.25 378.75 374 378.75 363.5C378.75 361.75 378.75 360 378.75 358.25C378.75 340.5 388.5 329.5 410.5 315C440.5 295 459.5 277 459.5 242.75C459.5 195.25 417.25 168 366.5 168C315.5 168 282.25 193.5 274.75 222.5C273.5 227 272.75 231.5 272.75 236.5C272.75 248.25 282 254.75 290.75 254.75C300 254.75 306 250.5 310.25 243.5L314.5 237.25C323 217.5 341 203.75 364.75 203.75C395 203.75 414.25 220.5 414.25 244.75C414.25 265.5 402 276.5 374.5 295.5C352 311.25 337 327.5 337 355.75C337 357.75 337 359.75 337 361.75C337 375.25 344.75 382.25 358 382.25ZM357.25 470.75C373.5 470.75 387.25 457.75 387.25 441.75C387.25 425.5 373.75 412.75 357.25 412.75C341 412.75 327.25 425.75 327.25 441.75C327.25 457.5 341.25 470.75 357.25 470.75Z" fill="black" fill-opacity="0.85"/>
 </g>
</svg>
