<?xml version="1.0" encoding="UTF-8"?>
<!--Generator: Apple Native CoreSVG 326-->
<!DOCTYPE svg
PUBLIC "-//W3C//DTD SVG 1.1//EN"
       "http://www.w3.org/Graphics/SVG/1.1/DTD/svg11.dtd">
<svg version="1.1" xmlns="http://www.w3.org/2000/svg" xmlns:xlink="http://www.w3.org/1999/xlink" viewBox="0 0 1043.75 731.221">
 <g>
  <rect height="731.221" opacity="0" width="1043.75" x="0" y="0"/>
  <path d="M670.446 261.735L138.125 261.735C109.625 261.735 93.8754 277.485 93.8754 306.235L93.8754 572.235C93.8754 600.735 109.625 616.735 138.125 616.735L768.375 616.735C796.875 616.735 812.625 600.735 812.625 572.235L812.625 342.235L856.77 298.091C857.012 301.287 857.125 304.59 857.125 307.985L857.125 570.235C857.125 627.235 825.125 658.235 768.125 658.235L138.375 658.235C81.3754 658.235 49.3754 627.235 49.3754 570.235L49.3754 307.985C49.3754 250.985 81.3754 219.985 138.375 219.985L712.227 219.985Z" fill="black" fill-opacity="0.85"/>
  <path d="M596.125 455.235L659.125 425.985L939.375 145.985L897.625 104.735L617.875 384.235L586.875 445.735C584.375 450.985 590.625 457.735 596.125 455.235ZM962.125 123.235L985.375 99.7355C996.875 87.9855 997.125 73.7355 986.125 62.7355L979.875 56.2355C969.875 46.4855 954.625 47.4855 944.125 58.2355L920.625 81.2355Z" fill="black" fill-opacity="0.85"/>
  <path d="M487.625 482.735C511.625 482.735 531.375 463.235 531.375 438.985C531.375 414.985 511.625 395.485 487.625 395.485C463.625 395.485 444.125 414.985 444.125 438.985C444.125 463.235 463.625 482.735 487.625 482.735Z" fill="black" fill-opacity="0.85"/>
  <path d="M352.125 482.735C376.125 482.735 395.625 463.235 395.625 438.985C395.625 414.985 376.125 395.485 352.125 395.485C327.875 395.485 308.375 414.985 308.375 438.985C308.375 463.235 327.875 482.735 352.125 482.735Z" fill="black" fill-opacity="0.85"/>
  <path d="M216.375 482.735C240.375 482.735 259.875 463.235 259.875 438.985C259.875 414.985 240.375 395.485 216.375 395.485C192.125 395.485 172.625 414.985 172.625 438.985C172.625 463.235 192.125 482.735 216.375 482.735Z" fill="black" fill-opacity="0.85"/>
 </g>
</svg>
