<?xml version="1.0" encoding="UTF-8"?>
<!--Generator: Apple Native CoreSVG 326-->
<!DOCTYPE svg
PUBLIC "-//W3C//DTD SVG 1.1//EN"
       "http://www.w3.org/Graphics/SVG/1.1/DTD/svg11.dtd">
<svg version="1.1" xmlns="http://www.w3.org/2000/svg" xmlns:xlink="http://www.w3.org/1999/xlink" viewBox="0 0 506.001 715.25">
 <g>
  <rect height="715.25" opacity="0" width="506.001" x="0" y="0"/>
  <path d="M0.000408614 253.75C0.000408614 327 31.7504 393.75 82.2504 440L82.5004 690.5C82.5004 707.25 91.2504 715 103.25 715C113.75 715 121.5 708.5 129.5 700.75L237 593.75C244 587 248.75 584.75 253.25 584.75C257.75 584.75 262.5 587 269.5 593.75L376.75 700.75C385.25 709.25 393.25 715 403 715C415.5 715 424.25 707.25 424.25 690.5L424.25 439C474.25 393 505.75 326.75 506 253.75C506.25 114 391.75 0 253 0C114 0 0.000408614 114 0.000408614 253.75ZM44.7504 253.75C44.7504 137.25 136.5 43.75 253.25 43.75C369.75 43.75 461.25 137.25 461.5 253.75C461.75 370 369.75 464 253.25 463.75C136.5 463.5 44.7504 370 44.7504 253.75Z" fill="black" fill-opacity="0.85"/>
 </g>
</svg>
