<?xml version="1.0" encoding="UTF-8"?>
<!--Generator: Apple Native CoreSVG 326-->
<!DOCTYPE svg
PUBLIC "-//W3C//DTD SVG 1.1//EN"
       "http://www.w3.org/Graphics/SVG/1.1/DTD/svg11.dtd">
<svg version="1.1" xmlns="http://www.w3.org/2000/svg" xmlns:xlink="http://www.w3.org/1999/xlink" viewBox="0 0 706 679.75">
 <g>
  <rect height="679.75" opacity="0" width="706" x="0" y="0"/>
  <path d="M390.75 10.75L667 170.25C677 176 681.5 183.25 681.5 191.5C681.5 202.75 673 213.5 657.75 213.5L628.75 213.5L628.75 595.25L649.25 595.25C660.25 595.25 666.75 601.75 666.75 612.5L666.75 635L683.75 635C696 635 706 645 706 657.25C706 669.25 696 679.25 683.75 679.25L22.25 679.25C10 679.25 0 669.25 0 657.25C0 645 10 635 22.25 635L39.25 635L39.25 612.5C39.25 601.75 45.75 595.25 57 595.25L77.5 595.25L77.5 213.5L48.25 213.5C33 213.5 24.5 202.75 24.5 191.5C24.5 183.25 28.75 176 39 170.25L315.25 10.75C327.25 3.75 340.5 0 353 0C365.5 0 378.5 3.75 390.75 10.75ZM297 220.5C286.75 220.5 279.75 228 279.75 238.75L279.75 379.5L245 379.5C238.75 379.5 234.75 383.5 234.75 389.75C234.75 396 238.75 399.75 245 399.75L279.75 399.75L279.75 443.25L245 443.25C238.75 443.25 234.75 447.25 234.75 453C234.75 459.5 238.75 463.5 245 463.5L279.75 463.5L279.75 498.5C279.75 509.5 286 516.25 296.75 516.25C307.5 516.25 314 509.5 314 498.5L314 463.5L393.75 463.5C399.75 463.5 403.5 459.5 403.5 453C403.5 447.25 399.75 443.25 393.75 443.25L314 443.25L314 399.75L374.25 399.75C434 399.75 469 360.5 469 310.25C469 258.75 432.75 220.5 374.75 220.5ZM433.5 310.25C433.5 349.25 408 371 366 371L314 371L314 250.25L366 250.25C412.75 250.25 433.5 276 433.5 310.25Z" fill="black" fill-opacity="0.85"/>
 </g>
</svg>
