<?xml version="1.0" encoding="UTF-8"?>
<!--Generator: Apple Native CoreSVG 326-->
<!DOCTYPE svg
PUBLIC "-//W3C//DTD SVG 1.1//EN"
       "http://www.w3.org/Graphics/SVG/1.1/DTD/svg11.dtd">
<svg version="1.1" xmlns="http://www.w3.org/2000/svg" xmlns:xlink="http://www.w3.org/1999/xlink" viewBox="0 0 647.949 648.192">
 <g>
  <rect height="648.192" opacity="0" width="647.949" x="0" y="0"/>
  <path d="M506.225 506.221C630.475 382.221 674.225 206.721 632.725 69.721C622.225 35.721 612.225 25.721 578.225 15.221C441.475-26.279 265.725 17.471 141.475 141.721C17.4746 265.721-26.2754 441.471 15.2246 578.221C25.4746 612.221 35.7246 622.471 69.7246 632.721C206.725 674.221 381.975 630.471 506.225 506.221ZM473.975 473.971C362.975 584.721 217.475 625.971 84.7246 589.221C66.4746 584.471 63.4746 581.471 58.2246 562.221C22.4746 430.221 63.2246 284.721 173.725 173.971C284.725 62.971 429.975 22.221 561.975 58.221C581.475 63.471 584.475 66.721 589.475 84.971C625.975 217.471 584.725 363.221 473.975 473.971ZM193.475 387.971L259.975 454.471C265.225 459.721 272.975 459.471 278.225 454.471C283.225 449.221 283.225 440.971 278.225 435.721L211.975 369.471C206.725 364.221 198.475 364.471 193.475 369.471C188.225 374.721 188.225 382.721 193.475 387.971ZM237.475 343.471L304.225 410.221C309.225 415.221 317.475 415.221 322.475 410.221C327.475 404.971 327.475 396.721 322.475 391.471L256.225 325.221C250.975 319.971 242.725 320.221 237.475 325.221C232.725 330.471 232.725 338.471 237.475 343.471ZM281.975 299.221L348.475 365.971C353.475 370.971 361.725 370.971 366.975 365.971C371.725 360.721 371.725 352.721 366.975 347.471L300.225 280.971C295.225 275.971 286.975 275.971 281.975 280.971C276.975 286.221 276.725 294.221 281.975 299.221ZM326.225 255.471L392.475 321.721C397.725 326.471 405.975 326.471 411.225 321.721C416.225 316.471 416.475 308.471 411.225 303.221L344.725 236.721C339.475 231.471 331.475 231.721 326.225 236.721C321.225 241.721 321.225 250.221 326.225 255.471ZM370.475 210.971L436.725 277.221C441.975 282.221 450.225 282.221 455.475 277.221C460.475 272.221 460.475 263.971 455.475 258.971L388.725 192.221C383.975 187.221 375.725 187.471 370.475 192.221C365.475 197.471 365.225 205.721 370.475 210.971ZM420.725 245.471L604.725 61.471L586.475 43.221L402.725 226.971ZM55.2246 611.221L245.725 420.721L227.225 402.721L37.2246 592.721Z" fill="black" fill-opacity="0.85"/>
 </g>
</svg>
