<?xml version="1.0" encoding="UTF-8"?>
<!--Generator: Apple Native CoreSVG 326-->
<!DOCTYPE svg
PUBLIC "-//W3C//DTD SVG 1.1//EN"
       "http://www.w3.org/Graphics/SVG/1.1/DTD/svg11.dtd">
<svg version="1.1" xmlns="http://www.w3.org/2000/svg" xmlns:xlink="http://www.w3.org/1999/xlink" viewBox="0 0 651.25 651.75">
 <g>
  <rect height="651.75" opacity="0" width="651.25" x="0" y="0"/>
  <path d="M325.5 651.25C505.25 651.25 651.25 505.5 651.25 325.75C651.25 146 505.25 0 325.5 0C145.75 0 0 146 0 325.75C0 505.5 145.75 651.25 325.5 651.25ZM325.5 604.75C171.25 604.75 46.5 480 46.5 325.75C46.5 171.5 171.25 46.75 325.5 46.75C479.75 46.75 604.5 171.5 604.5 325.75C604.5 480 479.75 604.75 325.5 604.75Z" fill="black" fill-opacity="0.85"/>
  <path d="M479.25 182.75L383.5 278.5L395.5 290.5C398.5 293.25 398.25 298.5 395.5 301.25C392.75 304 387.75 304.25 384.75 301.25L349.75 266C346.75 263 346.75 258.25 349.75 255.5C352.75 252.5 357.5 252.5 360.25 255.5L372.25 267.75L468.75 172.25C465.5 170.5 461.5 169 456.25 167.25C382 145 290.5 174.5 232.5 232.75C174.25 290.75 144.25 382.5 167.25 456.5C168.5 461.25 170 465 171.75 468.5L268.25 372.25L256 359.75C253 356.75 253 352 256 349.25C259 346.25 263.75 346.25 266.5 349.25L301.75 384.25C304.75 387 304.5 392.25 301.75 395C299 397.75 294 398 291 395L278.75 382.75L182.5 479.25C185.75 481.25 189.75 482.5 194.75 484C269 506.25 360.5 477.25 418.75 419C477 360.75 506 269.25 483.75 195C482.5 190 481 186 479.25 182.75ZM371.75 314C374.75 316.75 374.5 321.75 371.75 324.5C369 327.5 364.25 327.5 361.25 324.5L326 289.5C323 286.5 323 281.5 326 279C329 276 333.75 276 336.5 279ZM349 337.5C351.75 340.25 351.5 345.25 349 348C346 351 341.25 351 338.25 348L303 313C300 310 300 305 303 302.5C306 299.5 310.75 299.5 313.75 302.5ZM325.25 360.75C328.25 363.5 328 368.75 325.25 371.5C322.5 374.25 317.5 374.5 314.5 371.5L279.5 336.25C276.5 333.25 276.5 328.5 279.5 325.75C282.5 322.75 287.25 322.75 290 325.75Z" fill="black" fill-opacity="0.85"/>
 </g>
</svg>
