<?xml version="1.0" encoding="UTF-8"?>
<!--Generator: Apple Native CoreSVG 326-->
<!DOCTYPE svg
PUBLIC "-//W3C//DTD SVG 1.1//EN"
       "http://www.w3.org/Graphics/SVG/1.1/DTD/svg11.dtd">
<svg version="1.1" xmlns="http://www.w3.org/2000/svg" xmlns:xlink="http://www.w3.org/1999/xlink" viewBox="0 0 651.25 651.75">
 <g>
  <rect height="651.75" opacity="0" width="651.25" x="0" y="0"/>
  <path d="M325.5 651.25C505.25 651.25 651.25 505.5 651.25 325.75C651.25 146 505.25 0 325.5 0C145.75 0 0 146 0 325.75C0 505.5 145.75 651.25 325.5 651.25ZM325.5 604.75C171.25 604.75 46.5 480 46.5 325.75C46.5 171.5 171.25 46.75 325.5 46.75C479.75 46.75 604.5 171.5 604.5 325.75C604.5 480 479.75 604.75 325.5 604.75Z" fill="black" fill-opacity="0.85"/>
  <path d="M291.25 445.5L315.25 445.5L341 147C341.25 144.5 343.75 144.5 344.5 146.75C355.5 179.25 362.25 220.5 362.25 258.25C362.25 309.75 346.75 355.75 317 384.75L314.75 407C357.25 411.5 400.25 409.75 427.5 405.5C447.75 402.25 457.75 394.25 464.25 376.5C472.75 354.75 475.75 332.25 475.75 308C475.75 244.25 447.75 172.5 361 126.75C354.5 123 348.25 121.5 342.75 121.5C330.25 121.5 319 129.75 318 143.25ZM197.5 407C231 410.5 271.25 410.5 304.75 407.25L321.75 197.25L188.25 383.5C180.25 395 184.25 405.5 197.5 407ZM220.5 510.75L397 510.75C408 510.75 416.25 507.75 424.25 500C440.75 484.25 461 452.5 461 440C461 432.25 455.75 426.25 444.75 427.5C366.25 438.5 276.75 438.5 194.5 438.5C182.5 438.5 176.5 447.75 180.5 458.25L192.75 491.25C197.5 504.75 206.5 510.75 220.5 510.75Z" fill="black" fill-opacity="0.85"/>
 </g>
</svg>
