<?xml version="1.0" encoding="UTF-8"?>
<!--Generator: Apple Native CoreSVG 326-->
<!DOCTYPE svg
PUBLIC "-//W3C//DTD SVG 1.1//EN"
       "http://www.w3.org/Graphics/SVG/1.1/DTD/svg11.dtd">
<svg version="1.1" xmlns="http://www.w3.org/2000/svg" xmlns:xlink="http://www.w3.org/1999/xlink" viewBox="0 0 750 581.25">
 <g>
  <rect height="581.25" opacity="0" width="750" x="0" y="0"/>
  <path d="M0 484.75C0 548.75 32.75 581.25 97.25 581.25L652.5 581.25C717 581.25 750 548.5 750 484.75L750 383.25C750 363 744.5 342.75 729.25 326.25L603.25 192.5C574.5 162 554 145.75 511 145.75L231.75 145.75C196 145.75 175.5 162 146.5 192.5L20.75 326.25C5.25 342.75 0 363 0 383.25ZM61.25 349.75L183.75 214.75C200.5 196.5 213 186.75 234.25 186.75L515.75 186.75C536.75 186.75 549.25 196.25 566.25 214.75L688.75 349.75C696.25 358 692.25 370.5 678.75 370.5L71.5 370.5C58 370.5 53.75 358 61.25 349.75ZM50.5 41.25L149.5 142.5C178.25 171.75 192.75 181.75 227.5 181.75L517.75 181.75C557.25 181.75 572 171.75 600.5 142.5L699.5 41.25C714 26.5 706.5 0.5 681.5 0.5L68.5 0.5C43.75 0.5 36 26.5 50.5 41.25ZM180.25 322C182.75 329.25 190.75 332.5 197.75 329.75L348.75 274.75C356.25 272.25 359.75 265 357.25 257.5C354.5 250.5 347.25 247.25 339.75 249.75L188.75 305C181.25 307.75 177.75 314.75 180.25 322ZM185.75 265C188.5 272.5 196.25 275.25 203.25 272.75L308 234.75C315.25 232.25 319 224.75 316.5 217.5C313.75 210.25 306.25 207.25 299 209.75L194.25 247.75C187 250.5 183.25 257.75 185.75 265ZM518.25 475.5C518.25 466.5 525.25 460 534.75 460L623.25 460C632.25 460 639.25 466.5 639.25 475.25C639.25 484.5 632.25 491 623.25 491L534.75 491C526 491 518.25 484.75 518.25 475.5Z" fill="black" fill-opacity="0.85"/>
 </g>
</svg>
