<?xml version="1.0" encoding="UTF-8"?>
<!--Generator: Apple Native CoreSVG 326-->
<!DOCTYPE svg
PUBLIC "-//W3C//DTD SVG 1.1//EN"
       "http://www.w3.org/Graphics/SVG/1.1/DTD/svg11.dtd">
<svg version="1.1" xmlns="http://www.w3.org/2000/svg" xmlns:xlink="http://www.w3.org/1999/xlink" viewBox="0 0 878.75 695.75">
 <g>
  <rect height="695.75" opacity="0" width="878.75" x="0" y="0"/>
  <path d="M848.25 514.25C833.25 557 782.75 562.25 710.75 536.5L451.038 441.909L581.837 372.212ZM286 174C286 202.25 285.25 214 305.25 224.75L391.172 270.559C372.155 283.494 359.809 300.261 351.719 322.785C347.151 319.038 341.17 315.341 333.25 311.25L274 279.5C266.5 275.75 262 274.5 256.25 274.5C229.75 274.5 217.5 301.75 158 301.75C87.25 301.75 30.5 244.75 30.5 174C30.5 102.75 87.25 45.25 158 45.25C229 45.25 286 102.5 286 174ZM77.25 174C77.25 219 113.25 255.5 158 255.5C203.75 255.5 239.75 219 239.75 174C239.75 128.25 203.75 91.75 158 91.75C113.25 91.75 77.25 128.25 77.25 174Z" fill="black" fill-opacity="0.85"/>
  <path d="M158 669C229 669 286 612 286 540.25C286 512 285.25 500.5 305.25 489.5L848.25 200C833.25 157.5 782.75 152 710.75 177.75L435.5 278C398.25 291.5 382.25 309.25 373 343.25L366.75 367C362.75 382.75 356 391.25 333.25 403L274 434.75C266.5 438.5 262 439.75 256.25 439.75C229.75 439.75 217.5 412.5 158 412.5C87.25 412.5 30.5 469.5 30.5 540.25C30.5 611.5 87.25 669 158 669ZM158 622.5C113.25 622.5 77.25 586 77.25 540.25C77.25 495.25 113.25 458.75 158 458.75C203.75 458.75 239.75 495.25 239.75 540.25C239.75 586 203.75 622.5 158 622.5ZM441.75 366.75C428.25 366.75 416.5 355.25 416.5 341.25C416.5 326.75 428.25 315.75 441.75 315.75C456.25 315.75 468 326.75 468 341.25C468 355.25 456.25 366.75 441.75 366.75Z" fill="black" fill-opacity="0.85"/>
 </g>
</svg>
