<?xml version="1.0" encoding="UTF-8"?>
<!--Generator: Apple Native CoreSVG 326-->
<!DOCTYPE svg
PUBLIC "-//W3C//DTD SVG 1.1//EN"
       "http://www.w3.org/Graphics/SVG/1.1/DTD/svg11.dtd">
<svg version="1.1" xmlns="http://www.w3.org/2000/svg" xmlns:xlink="http://www.w3.org/1999/xlink" viewBox="0 0 802.587 812.197">
 <g>
  <rect height="812.197" opacity="0" width="802.587" x="0" y="0"/>
  <path d="M314.044 313.973C296.794 330.973 297.544 352.973 313.794 369.223L443.544 498.973C460.044 515.473 481.294 515.223 498.544 498.223L547.294 449.973C535.044 434.223 536.044 413.723 550.544 399.223C564.794 384.973 585.294 383.473 601.044 395.973L768.544 228.473C813.794 183.473 813.794 132.973 768.794 88.2234L724.294 43.9734C679.044-1.02657 629.044-1.02657 584.044 43.9734L416.794 211.723C428.794 227.473 428.044 247.973 413.294 261.973C398.294 276.473 378.544 277.473 362.544 265.223ZM349.294 329.223L370.544 307.723C394.044 313.223 416.294 305.973 435.544 286.723C454.794 267.723 461.294 245.473 455.544 222.973L611.294 67.2234C638.794 39.9734 670.294 40.4734 698.044 67.9734L744.544 114.473C772.294 141.973 772.544 173.973 745.294 201.223L589.544 357.473C567.044 351.473 545.294 357.973 526.044 377.223C506.794 396.223 499.294 418.223 504.544 442.223L483.294 463.723C475.794 471.223 466.294 471.473 458.294 463.723L349.044 354.473C341.044 346.723 341.544 337.223 349.294 329.223ZM523.544 230.473C518.544 235.473 518.294 243.223 523.794 248.473C527.794 252.223 536.044 252.723 540.544 248.223L651.044 136.723C655.544 132.473 655.794 124.973 651.044 119.973C646.544 115.723 639.044 115.223 634.044 119.973ZM564.794 272.223C560.044 276.973 560.044 284.973 564.794 289.223C569.544 293.723 577.044 293.723 582.044 288.973L692.544 178.473C697.544 173.723 697.294 166.723 692.544 161.473C688.044 156.723 680.294 157.223 675.794 161.473ZM78.5437 620.723L4.54367 729.473C-0.956335 737.473-1.95633 745.473 4.29367 751.723L60.7937 807.973C66.7937 813.973 74.7937 813.223 82.7937 807.973L191.794 733.473C201.044 727.223 207.044 718.223 208.544 708.223L213.794 673.723L429.044 459.223L404.544 434.473L178.794 660.473L172.044 700.473L75.5437 773.973L38.5437 736.973L111.794 640.223L151.794 633.223L377.794 407.723L353.544 383.473L138.544 598.473L104.044 603.973C94.0437 605.473 84.7937 611.473 78.5437 620.723Z" fill="black" fill-opacity="0.85"/>
 </g>
</svg>
