<?xml version="1.0" encoding="UTF-8"?>
<!--Generator: Apple Native CoreSVG 326-->
<!DOCTYPE svg
PUBLIC "-//W3C//DTD SVG 1.1//EN"
       "http://www.w3.org/Graphics/SVG/1.1/DTD/svg11.dtd">
<svg version="1.1" xmlns="http://www.w3.org/2000/svg" xmlns:xlink="http://www.w3.org/1999/xlink" viewBox="0 0 677.75 677.75">
 <g>
  <rect height="677.75" opacity="0" width="677.75" x="0" y="0"/>
  <path d="M0 152.25C0 169.5 11.25 180.5 29.25 180.5L115.5 180.5L115.5 580C115.5 644.75 147.75 677.5 212.5 677.5L580 677.5C639 677.5 677.75 637.25 677.75 575.75L677.75 488.25C677.75 470.75 666.5 459.75 648.75 459.75L619.25 459.75L619.25 97.25C619.25 32.75 586.75 0 523 0L79.75 0C32.75 0 0 31.75 0 83.5ZM159.75 580L159.75 83.5C159.75 68.25 157.5 55 153 44.25L520.5 44.25C556.5 44.25 575 63.25 575 98L575 459.75L294 459.75C276.25 459.75 264.75 470.75 264.75 488.25L264.75 580C264.75 612.75 244 633 212.5 633.25C180.5 633 159.75 612 159.75 580ZM44.25 136.25L44.25 83.5C44.25 58.75 59.75 44.25 79.75 44.25C101.5 44.25 115.5 58.75 115.5 83.5L115.5 136.25ZM293.5 633.25C303.75 619 309.25 600.5 309.25 577.5L309.25 504L633.5 504L633.5 575.75C633.5 609.75 611.5 633.25 580 633.25ZM251.25 293.75L371 293.75C381 293.75 388.5 286.25 388.5 276.5C388.5 266.75 381 259 371 259L251.25 259C241 259 233.5 266.75 233.5 276.5C233.5 286.25 241 293.75 251.25 293.75ZM251.25 180.75L483.75 180.75C493.75 180.75 501.25 173 501.25 163.25C501.25 153.5 493.75 146 483.75 146L251.25 146C241 146 233.5 153.5 233.5 163.25C233.5 173 241 180.75 251.25 180.75Z" fill="black" fill-opacity="0.85"/>
 </g>
</svg>
