<?xml version="1.0" encoding="UTF-8"?>
<!--Generator: Apple Native CoreSVG 326-->
<!DOCTYPE svg
PUBLIC "-//W3C//DTD SVG 1.1//EN"
       "http://www.w3.org/Graphics/SVG/1.1/DTD/svg11.dtd">
<svg version="1.1" xmlns="http://www.w3.org/2000/svg" xmlns:xlink="http://www.w3.org/1999/xlink" viewBox="0 0 536.75 689.75">
 <g>
  <rect height="689.75" opacity="0" width="536.75" x="0" y="0"/>
  <path d="M96.25 689.75L440.5 689.75C504.5 689.75 536.75 657 536.75 592.5L536.75 98C536.75 33.5 504 0.75 440.5 0.75L226.75 0.75C200.25 0.75 182 8 165.25 25L22.5 167.5C5.75 184 0 199.75 0 228.75L0 592.5C0 656.75 32.25 689.75 96.25 689.75ZM213.25 123C213.25 112.75 221.25 104.75 231.5 104.75C241.75 104.75 249.75 112.5 249.75 123L249.75 233.25C249.75 243.5 241.75 251.5 231.5 251.5C221.25 251.5 213.25 243.5 213.25 233.25ZM279 123C279 112.75 287 104.75 297.75 104.75C308 104.75 316 112.75 316 123L316 233.25C316 243.5 307.75 251.5 297.75 251.5C287.25 251.5 279 243.5 279 233.25ZM345.5 123C345.5 112.75 353.25 104.75 363.5 104.75C374 104.75 382 112.5 382 123L382.25 233.25C382.25 243.25 373.75 251.5 363.5 251.5C353.5 251.5 345.5 243.5 345.5 233.25ZM411.75 123C411.75 112.75 419.5 104.75 429.75 104.75C440 104.75 447.75 112.5 447.75 123L447.75 233C447.75 243.5 440 251.5 429.75 251.5C419.75 251.5 411.75 243.5 411.75 233Z" fill="black" fill-opacity="0.85"/>
 </g>
</svg>
