<?xml version="1.0" encoding="UTF-8"?>
<!--Generator: Apple Native CoreSVG 326-->
<!DOCTYPE svg
PUBLIC "-//W3C//DTD SVG 1.1//EN"
       "http://www.w3.org/Graphics/SVG/1.1/DTD/svg11.dtd">
<svg version="1.1" xmlns="http://www.w3.org/2000/svg" xmlns:xlink="http://www.w3.org/1999/xlink" viewBox="0 0 706 679.75">
 <g>
  <rect height="679.75" opacity="0" width="706" x="0" y="0"/>
  <path d="M39.25 610.25L666.75 610.25L666.75 591C666.75 580.25 660.25 573.75 649.25 573.75L628.75 573.75L628.75 213.5L657.75 213.5C673 213.5 681.5 202.75 681.5 191.5C681.5 183.25 677 176 667 170.25L390.75 10.75C378.5 3.75 365.5 0 353 0C340.5 0 327.25 3.75 315.25 10.75L39 170.25C28.75 176 24.5 183.25 24.5 191.5C24.5 202.75 33 213.5 48.25 213.5L77.5 213.5L77.5 573.75L57 573.75C45.75 573.75 39.25 580.25 39.25 591ZM119.25 573.75L119.25 175.5L338.5 52C342.75 49.5 348 48 353 48C357.75 48 362.75 49.5 367.5 52L587 175.5L587 573.75ZM22.25 679.25L683.75 679.25C696 679.25 706 669.25 706 657.25C706 645 696 635 683.75 635L22.25 635C10 635 0 645 0 657.25C0 669.25 10 679.25 22.25 679.25Z" fill="black" fill-opacity="0.85"/>
  <path d="M235.5 480.5C244 480.5 249.25 474.75 249.25 465.75L249.25 229.75L323.5 229.75C360.75 229.75 378.25 240.25 378.25 282.5L378.25 382C378.25 391.25 383.75 397.25 392.5 397.25C401.25 397.25 406.75 391.25 406.75 382L406.75 276.75C406.75 225.5 385.25 198.75 333 198.75L242.5 198.75C229.25 198.75 221 207 221 220.25L221 465.75C221 474.75 226.75 480.5 235.5 480.5ZM320.25 477.75L413 477.75C467.25 477.75 485.25 449 485.25 394.5L485.25 211.25C485.25 201.75 479.75 196 471.25 196C462.25 196 456.75 201.75 456.75 211.25L456.75 393.5C456.75 435.25 446.75 446.75 405 446.75L328 446.75L328 294C328 284.75 322.5 279 314 279C305.25 279 299.75 284.75 299.75 294L299.75 457.25C299.75 470.25 308.25 477.75 320.25 477.75Z" fill="black" fill-opacity="0.85"/>
 </g>
</svg>
