<?xml version="1.0" encoding="UTF-8"?>
<!--Generator: Apple Native CoreSVG 326-->
<!DOCTYPE svg
PUBLIC "-//W3C//DTD SVG 1.1//EN"
       "http://www.w3.org/Graphics/SVG/1.1/DTD/svg11.dtd">
<svg version="1.1" xmlns="http://www.w3.org/2000/svg" xmlns:xlink="http://www.w3.org/1999/xlink" viewBox="0 0 741.819 708.194">
 <g>
  <rect height="708.194" opacity="0" width="741.819" x="0" y="0"/>
  <path d="M376.035 455.171L376.035 634.722C380.535 633.972 385.535 631.472 390.285 628.222C429.201 604.062 461.501 584.422 487.84 566.882L521.564 600.578C487.963 623.404 445.351 648.281 392.535 678.472C384.785 682.972 376.535 685.222 371.035 685.222C365.285 685.222 357.035 682.972 349.535 678.472C168.285 573.722 106.785 533.722 106.785 420.472L106.785 186.146ZM397.035 44.9722C440.035 59.7222 549.785 99.9722 592.785 117.222C621.535 129.222 635.035 140.222 635.035 174.472L635.035 420.472C635.035 463.39 626.274 495.931 605.457 525.431L571.474 491.462C585.327 469.376 591.285 444.313 591.285 410.972L591.285 182.972C591.285 168.722 588.535 162.972 577.535 158.972C531.535 142.722 430.535 105.472 385.535 87.7222C381.535 86.2222 378.535 85.2222 376.035 84.9722L376.035 296.105L183.619 103.77C234.989 84.0065 310.77 55.6511 344.785 44.9722C353.285 42.4722 362.035 39.9722 371.035 39.9722C379.785 39.9722 388.535 41.9722 397.035 44.9722Z" fill="black" fill-opacity="0.85"/>
  <path d="M637.285 666.972C645.535 675.222 659.285 674.972 667.535 666.972C675.785 658.722 675.785 644.972 667.535 636.722L71.5345 40.9722C63.2845 32.7222 49.7845 32.7222 41.0345 40.9722C32.7845 48.9722 33.0345 62.9722 41.0345 71.2222Z" fill="black" fill-opacity="0.85"/>
 </g>
</svg>
