<?xml version="1.0" encoding="UTF-8"?>
<!--Generator: Apple Native CoreSVG 326-->
<!DOCTYPE svg
PUBLIC "-//W3C//DTD SVG 1.1//EN"
       "http://www.w3.org/Graphics/SVG/1.1/DTD/svg11.dtd">
<svg version="1.1" xmlns="http://www.w3.org/2000/svg" xmlns:xlink="http://www.w3.org/1999/xlink" viewBox="0 0 649.5 698.25">
 <g>
  <rect height="698.25" opacity="0" width="649.5" x="0" y="0"/>
  <path d="M344.75 698.25C347 697.75 349.25 696.5 351.5 695.25L607 551.25C635.25 535.25 649.5 518.75 649.5 477L649.5 222C649.5 213 648.75 206 647 199.75L344.75 370.75ZM304.75 698.25L304.75 370.75L2.5 199.75C0.75 206 0 213 0 222L0 477C0 518.75 14.25 535.25 42.5 551.25L298 695.25C300.25 696.5 302.5 697.75 304.75 698.25ZM324.75 335.75L464.25 257.25L157.75 84.25L37.25 152.5C30.25 156.25 25 160 20.75 164.25ZM505 234.25L628.75 164.25C624.5 160 619.5 156.25 612.25 152.5L377.5 19.25C359.5 9 342 3.75 324.75 3.75C307.5 3.75 290 9 272 19.25L198 61.25Z" fill="black" fill-opacity="0.85"/>
 </g>
</svg>
