<?xml version="1.0" encoding="UTF-8"?>
<!--Generator: Apple Native CoreSVG 326-->
<!DOCTYPE svg
PUBLIC "-//W3C//DTD SVG 1.1//EN"
       "http://www.w3.org/Graphics/SVG/1.1/DTD/svg11.dtd">
<svg version="1.1" xmlns="http://www.w3.org/2000/svg" xmlns:xlink="http://www.w3.org/1999/xlink" viewBox="0 0 651.25 651.75">
 <g>
  <rect height="651.75" opacity="0" width="651.25" x="0" y="0"/>
  <path d="M325.5 651.25C505.25 651.25 651.25 505.5 651.25 325.75C651.25 146 505.25 0 325.5 0C145.75 0 0 146 0 325.75C0 505.5 145.75 651.25 325.5 651.25ZM325.5 604.75C171.25 604.75 46.5 480 46.5 325.75C46.5 171.5 171.25 46.75 325.5 46.75C479.75 46.75 604.5 171.5 604.5 325.75C604.5 480 479.75 604.75 325.5 604.75Z" fill="black" fill-opacity="0.85"/>
  <path d="M336 509.25C337.5 509 338.5 508.25 339.5 507.75L475 431.5C489.75 423 497.5 414.25 497.5 392.75L497.5 257.5C497.5 252.75 497.25 249 496.25 245.75L336 336ZM315 509.25L315 336L155 245.75C153.75 249 153.75 252.75 153.75 257.5L153.75 392.75C153.75 414.25 161.25 423 176 431.5L311.5 507.75C312.5 508.25 313.5 509 315 509.25ZM325.5 317.75L399.25 276.25L237.25 184.75L173.25 221C169.5 222.75 166.75 224.75 164.5 227ZM421 264L486.5 227C484.5 224.75 481.5 222.75 477.75 221L353.25 150.25C343.75 144.75 334.5 142.25 325.5 142.25C316.75 142.25 307.25 144.75 298 150.25L258.5 172.5Z" fill="black" fill-opacity="0.85"/>
 </g>
</svg>
