<?xml version="1.0" encoding="UTF-8"?>
<!--Generator: Apple Native CoreSVG 326-->
<!DOCTYPE svg
PUBLIC "-//W3C//DTD SVG 1.1//EN"
       "http://www.w3.org/Graphics/SVG/1.1/DTD/svg11.dtd">
<svg version="1.1" xmlns="http://www.w3.org/2000/svg" xmlns:xlink="http://www.w3.org/1999/xlink" viewBox="0 0 963 446.75">
 <g>
  <rect height="446.75" opacity="0" width="963" x="0" y="0"/>
  <path d="M458.75 34.25C399.25-0.5 345 4.25 299.25 63.25C261.75 111.25 223 132 182.75 132C147.5 132 123.25 125.5 97.25 113C51.5 92 0 113.5 0 168.75L0 317.25C0 416.25 58 446.75 120.5 446.75L636.25 446.75C734.25 446.75 792.25 431.5 872 387.25C935 352.25 963 310 963 260.25C963 189 914.25 141.25 841 141.25C806.5 141.25 728.25 154 698.25 154C668.5 154 661.25 152.25 630.5 134.5ZM45 327.25C44.5 324.25 44.25 320.75 44.25 317.25L44.25 168.5C44.25 150.25 60 144.25 74.75 151.5C105.25 165.75 138.25 176.25 182.75 176.25C236 176.25 289.75 147.75 334.25 90.25C367 48.5 390.5 46.25 436.25 72.75L608.5 172.75C646.75 195 663.25 198.25 698.25 198.25C731.25 198.25 809.75 185.5 840.75 185.5C872.25 185.5 901.5 198 901.5 225.25C901.5 237.75 889.5 255.25 855.5 273L787 307.25C745.25 329.25 711 337.25 636.25 337.25L96.75 337.25C70.25 337.25 54.75 334.5 45 327.25ZM50.25 361.25C63.25 367 77 369.25 96.75 369.25L636.25 369.25C713.25 369.25 754 359.5 802.25 334.75L870.75 301C900.25 285.5 911.75 274 916.5 255C917.25 260 917.5 265 917.25 270.5C914.25 300.75 894.25 324.5 850.75 348.5C777.25 389.25 728.25 402.5 636.25 402.5L120.25 402.5C85 402.5 60.5 392.75 50.25 361.25ZM464.75 65.75L408.25 143.75C403 150.75 404 160.75 410.75 166C417.5 171.5 428 170.75 433 163.75L489.75 85.25ZM536.5 103.5L481.75 179.25C476.25 187 477.25 196 484 201.25C491.75 207.5 501 206.75 506.5 199L561.75 122.75ZM608 141L554.5 215C549 222.5 549.75 231.75 556.5 237C563.75 243.25 573.25 242.25 579 234.75L633 160.25Z" fill="black" fill-opacity="0.85"/>
 </g>
</svg>
