<?xml version="1.0" encoding="UTF-8"?>
<!--Generator: Apple Native CoreSVG 326-->
<!DOCTYPE svg
PUBLIC "-//W3C//DTD SVG 1.1//EN"
       "http://www.w3.org/Graphics/SVG/1.1/DTD/svg11.dtd">
<svg version="1.1" xmlns="http://www.w3.org/2000/svg" xmlns:xlink="http://www.w3.org/1999/xlink" viewBox="0 0 1116 563.25">
 <g>
  <rect height="563.25" opacity="0" width="1116" x="0" y="0"/>
  <path d="M458.75 34L630.5 134.25C661.25 152 668.5 153.5 698.25 153.5C728.25 153.5 806.5 141 841 141C914.09 141 962.787 188.293 962.98 259.541C948.841 260.81 932.905 262.619 917.325 264.384C917.263 260.996 916.987 257.748 916.5 254.5C915.571 258.217 914.383 261.656 912.841 264.892C892.877 267.151 873.827 269.249 860.255 269.949C890.637 253.288 901.5 236.643 901.5 224.75C901.5 197.75 872.25 185.25 840.75 185.25C809.75 185.25 731.25 197.75 698.25 197.75C696.082 197.75 693.984 197.738 691.95 197.708L611.5 150.75C584.554 135.013 558.685 127.325 534.209 129.228L436.25 72.5C390.5 46 367 48 334.25 90C289.75 147.5 236 176 182.75 176C138.25 176 105.25 165.25 74.75 151.25C60 143.75 44.25 149.75 44.25 168L44.25 316.75C44.25 320.25 44.5 323.75 45 326.75C54.75 334.25 70.25 337 96.75 337L152.75 337L152.75 368.75L96.75 368.75C77 368.75 63.25 366.75 50.25 361C60.5 392.5 85 402 120.25 402L152.75 402L152.75 433.5C152.75 437.9 152.864 442.165 153.127 446.25L120.5 446.25C58 446.25 0 416 0 316.75L0 168.25C0 113 51.5 91.75 97.25 112.75C123.25 125 147.5 131.5 182.75 131.5C223 131.5 261.75 110.75 299.25 63C345 3.75 399.25-0.75 458.75 34Z" fill="black" fill-opacity="0.85"/>
  <path d="M611.5 150.75C552 116 497.75 120.5 452 179.75C414.5 227.75 375.75 248.25 335.5 248.25C300.25 248.25 276 241.75 250 229.5C204.5 208.5 152.75 230 152.75 285.25L152.75 433.5C152.75 532.75 210.75 563.25 273.5 563.25L789.25 563.25C887.25 563.25 945 547.75 1025 503.5C1087.75 468.5 1116 426.25 1116 376.75C1116 305.25 1067.25 257.75 993.75 257.75C959.25 257.75 881 270.25 851.25 270.25C821.25 270.25 814.25 268.75 783.25 251ZM197.75 443.5C197.25 440.5 197.25 437 197.25 433.5L197.25 285C197.25 266.5 213 260.5 227.5 268C258 282.25 291.25 292.75 335.5 292.75C389 292.75 442.75 264.25 487 206.75C519.75 164.75 543.5 162.75 589.25 189.25L761.5 289.25C799.5 311.25 816 314.5 851.25 314.5C884 314.5 962.5 302 993.5 302C1025 302 1054.25 314.5 1054.25 341.75C1054.25 354 1042.5 371.75 1008.5 389.25L940 423.75C898 445.75 863.75 453.75 789.25 453.75L249.75 453.75C223.25 453.75 207.75 451 197.75 443.5ZM203 477.75C216.25 483.5 230 485.75 249.75 485.75L789.25 485.75C866.25 485.75 906.75 476 955 451L1023.5 417.5C1053 402 1064.5 390.25 1069.5 371.25C1070 376.25 1070.5 381.5 1070 387C1067.25 417.25 1047 440.75 1003.75 465C930.25 505.75 881.25 518.75 789.25 518.75L273.25 518.75C237.75 518.75 213.5 509.25 203 477.75ZM617.75 182L561.25 260.25C556 267.25 556.75 277.25 563.5 282.5C570.25 288 580.75 287.25 586 280.25L642.75 201.5ZM689.5 219.75L634.5 295.75C629 303.5 630 312.5 636.75 317.75C644.5 323.75 653.75 323 659.5 315.25L714.5 239.25ZM760.75 257.5L707.25 331.5C701.75 339 702.5 348 709.25 353.5C716.5 359.5 726 358.5 731.75 351L785.75 276.5Z" fill="black" fill-opacity="0.85"/>
 </g>
</svg>
