<?xml version="1.0" encoding="UTF-8"?>
<!--Generator: Apple Native CoreSVG 326-->
<!DOCTYPE svg
PUBLIC "-//W3C//DTD SVG 1.1//EN"
       "http://www.w3.org/Graphics/SVG/1.1/DTD/svg11.dtd">
<svg version="1.1" xmlns="http://www.w3.org/2000/svg" xmlns:xlink="http://www.w3.org/1999/xlink" viewBox="0 0 963 446.75">
 <g>
  <rect height="446.75" opacity="0" width="963" x="0" y="0"/>
  <path d="M77.75 352.75L640 352.75C716.5 352.75 752 344.25 795 321.75L892.25 271.75C941.5 245.75 955.25 210.5 936.25 188C921.75 165.75 889.75 141.25 841 141.25C806.5 141.25 728.25 154 698.25 154C675.75 154 666.25 153 648.25 144L594.25 218C588.75 225.5 578.75 227 571.25 220.5C564.5 215 563.25 205.75 569 197.75L619.25 128L576.25 102.75L520.25 181.5C514.25 189.5 504.5 190.5 496.75 183.75C489.75 178.5 488.5 169.25 494.5 161L548 86.5L505 61.5L445 145.25C439.5 152.5 428.75 153.25 421.75 147.75C414.75 142.25 414.25 131.75 419.25 124.75L476.75 44.75L458.75 34.25C399-0.25 345 4.25 299.25 63.25C261.75 111.25 223 132 182.75 132C147.5 132 123.25 125.5 97.25 113C51.5 92 0 113.5 0 168.75L0 317.25C0 320.5 0.25 323.5 0.25 326.5C19.75 346.25 40.25 352.75 77.75 352.75ZM907.5 300.75L810.5 350.25C760.5 376.25 719.25 385.75 640 385.75L77.75 385.75C49 385.75 28.5 381.75 5.5 365.75C21.75 426.75 69.75 446.75 120.5 446.75L636.25 446.75C734.25 446.75 792.25 431.5 872 387.25C935 352.25 963 310 963 260.25C963 254.75 962.5 249.5 962 244.5C955.5 267 941 283.25 907.5 300.75Z" fill="black" fill-opacity="0.85"/>
 </g>
</svg>
