<?xml version="1.0" encoding="UTF-8"?>
<!--Generator: Apple Native CoreSVG 326-->
<!DOCTYPE svg
PUBLIC "-//W3C//DTD SVG 1.1//EN"
       "http://www.w3.org/Graphics/SVG/1.1/DTD/svg11.dtd">
<svg version="1.1" xmlns="http://www.w3.org/2000/svg" xmlns:xlink="http://www.w3.org/1999/xlink" viewBox="0 0 651.25 651.75">
 <g>
  <rect height="651.75" opacity="0" width="651.25" x="0" y="0"/>
  <path d="M651.25 325.75C651.25 505 505 651.25 325.5 651.25C146.25 651.25 0 505 0 325.75C0 146.25 146.25 0 325.5 0C505 0 651.25 146.25 651.25 325.75ZM537.5 365.5L488.75 390.25C464 402.75 443.5 407.25 404.5 407.25L123.5 407.25C109.25 407.25 99 405.5 87.75 397.75C96 427.5 119.5 437.75 144.75 437.75L402.75 437.75C451.25 437.75 479.75 430.5 519.5 408.25C551 391 565 370 564.75 345.5C565 342.5 564.75 340.25 564.5 338C561.25 349 553.75 357.25 537.5 365.5ZM237.75 242.75C215.5 271.5 196.25 281.25 176 281.5C158 281.25 146.25 276.75 133.25 269.75C107.5 256 85.25 269 85.25 294.75L85.5 373C85.5 374.25 85 376 85.25 376.75C94.75 386.5 104.75 388.75 123 388.75L404.25 388.5C442.25 388.5 459.5 384.25 480.5 373.5L529.25 349.25C553.75 336.5 561.25 321.25 552 309.5C545 299 529.25 286.5 504.25 286C487.25 286 448 292.5 433.25 292.5C422.25 292.5 417.5 292.25 409 288L382.25 324.75C379 329 373.25 329.75 369 326.25C365 322.75 364.5 317.75 367.5 313.25L392.5 278.75L373 267.5L345.25 306.75C342 311.25 336.25 311.75 331.75 308.25C327.75 305.25 326.75 299.75 330 295.25L356.75 258.25L337.5 246.75L308 288.5C304.75 292.75 298.5 293 294.75 290C290.75 287 290 280.75 292.75 277L321.5 237.25L308.25 230C281.5 214.5 257 218 237.75 242.75Z" fill="black" fill-opacity="0.85"/>
 </g>
</svg>
