<?xml version="1.0" encoding="UTF-8"?>
<!--Generator: Apple Native CoreSVG 326-->
<!DOCTYPE svg
PUBLIC "-//W3C//DTD SVG 1.1//EN"
       "http://www.w3.org/Graphics/SVG/1.1/DTD/svg11.dtd">
<svg version="1.1" xmlns="http://www.w3.org/2000/svg" xmlns:xlink="http://www.w3.org/1999/xlink" viewBox="0 0 725.5 686.25">
 <g>
  <rect height="686.25" opacity="0" width="725.5" x="0" y="0"/>
  <path d="M704 108.5C715.75 108.5 725.5 98.75 725.5 87C725.5 75.25 715.75 65.5 704 65.5C692.25 65.5 682.5 75.25 682.5 87C682.5 98.75 692.25 108.5 704 108.5ZM668 303.25C679.75 303.25 689.5 293.75 689.5 281.75C689.5 270 679.75 260.25 668 260.25C656 260.25 646.5 270 646.5 281.75C646.5 293.75 656 303.25 668 303.25ZM570.75 476C582.5 476 592.25 466.25 592.25 454.25C592.25 442.5 582.5 432.75 570.75 432.75C559 432.75 549.25 442.5 549.25 454.25C549.25 466.25 559 476 570.75 476Z" fill="black" fill-opacity="0.85"/>
  <path d="M617.25 121C629 121 638.75 111.25 638.75 99.5C638.75 87.75 629 78 617.25 78C605.25 78 595.75 87.75 595.75 99.5C595.75 111.25 605.25 121 617.25 121ZM579.5 270.75C591.25 270.75 601 261 601 249.25C601 237.5 591.25 227.75 579.5 227.75C567.5 227.75 558 237.5 558 249.25C558 261 567.5 270.75 579.5 270.75ZM512 410.5C523.75 410.5 533.5 400.75 533.5 389C533.5 377 523.75 367.5 512 367.5C500 367.5 490.5 377 490.5 389C490.5 400.75 500 410.5 512 410.5Z" fill="black" fill-opacity="0.85"/>
  <path d="M529.5 133.25C541.5 133.25 551.25 123.5 551.25 111.75C551.25 100 541.5 90.25 529.5 90.25C517.75 90.25 508 100 508 111.75C508 123.5 517.75 133.25 529.5 133.25ZM490.5 238.75C502.25 238.75 512 229.25 512 217.25C512 205.5 502.25 195.75 490.5 195.75C478.75 195.75 469 205.5 469 217.25C469 229.25 478.75 238.75 490.5 238.75ZM453.5 344.75C465.25 344.75 475 335 475 323.25C475 311.5 465.25 301.75 453.5 301.75C441.5 301.75 432 311.5 432 323.25C432 335 441.5 344.75 453.5 344.75Z" fill="black" fill-opacity="0.85"/>
  <path d="M315.5 340.25L432.75 16C372 1 313 14.75 270 53.5L263.25 51C224.5 37 189.75 56.25 173.5 100.5L35.5 480.5C25.5 508 37.25 533 64.5 543.5C92.5 553 118 541.75 127.75 514.75L233.25 223.75L220.5 231.75C234 277.75 267 316.5 315.5 340.25ZM83.5 538L54 527.25L0 675.5L29.75 686.25ZM453.25 18L331.75 352.5C328 363 333.25 374.75 344 378.75C354.75 382.75 366.5 377 370 366.75L492 32.25C495.75 21.5 490.25 9.75 479.75 5.75C469 2 457 7.75 453.25 18Z" fill="black" fill-opacity="0.85"/>
 </g>
</svg>
