<?xml version="1.0" encoding="UTF-8"?>
<!--Generator: Apple Native CoreSVG 326-->
<!DOCTYPE svg
PUBLIC "-//W3C//DTD SVG 1.1//EN"
       "http://www.w3.org/Graphics/SVG/1.1/DTD/svg11.dtd">
<svg version="1.1" xmlns="http://www.w3.org/2000/svg" xmlns:xlink="http://www.w3.org/1999/xlink" viewBox="0 0 502.5 680.25">
 <g>
  <rect height="680.25" opacity="0" width="502.5" x="0" y="0"/>
  <path d="M93.75 671.25C105.75 671.25 115.25 661.5 115.25 649.75C115.25 638 105.75 628.25 93.75 628.25C82 628.25 72.25 638 72.25 649.75C72.25 661.5 82 671.25 93.75 671.25ZM198.75 671.25C210.5 671.25 220.25 661.5 220.25 649.75C220.25 638 210.5 628.25 198.75 628.25C186.75 628.25 177 638 177 649.75C177 661.5 186.75 671.25 198.75 671.25ZM303.5 671.25C315.25 671.25 325 661.5 325 649.75C325 638 315.25 628.25 303.5 628.25C291.5 628.25 282 638 282 649.75C282 661.5 291.5 671.25 303.5 671.25Z" fill="black" fill-opacity="0.85"/>
  <path d="M93.75 577C105.75 577 115.25 567.5 115.25 555.5C115.25 543.75 105.75 534 93.75 534C82 534 72.25 543.75 72.25 555.5C72.25 567.5 82 577 93.75 577ZM198.75 577C210.5 577 220.25 567.5 220.25 555.5C220.25 543.75 210.5 534 198.75 534C186.75 534 177 543.75 177 555.5C177 567.5 186.75 577 198.75 577ZM303.5 577C315.25 577 325 567.5 325 555.5C325 543.75 315.25 534 303.5 534C291.5 534 282 543.75 282 555.5C282 567.5 291.5 577 303.5 577Z" fill="black" fill-opacity="0.85"/>
  <path d="M93.75 482.75C105.75 482.75 115.25 473.25 115.25 461.25C115.25 449.5 105.75 439.75 93.75 439.75C82 439.75 72.25 449.5 72.25 461.25C72.25 473.25 82 482.75 93.75 482.75ZM198.75 482.75C210.5 482.75 220.25 473.25 220.25 461.25C220.25 449.5 210.5 439.75 198.75 439.75C186.75 439.75 177 449.5 177 461.25C177 473.25 186.75 482.75 198.75 482.75ZM303.5 482.75C315.25 482.75 325 473.25 325 461.25C325 449.5 315.25 439.75 303.5 439.75C291.5 439.75 282 449.5 282 461.25C282 473.25 291.5 482.75 303.5 482.75Z" fill="black" fill-opacity="0.85"/>
  <path d="M348 0L260.5 0C209.75 0 178.25 31 178.25 80.5L178.25 135.75L220 135.75L220 80.5C220 56.5 235.5 42 260.5 42L348 42C416.25 42 460.75 90 460.75 163.25L460.75 658.5C460.75 670.75 469.5 679.75 481.75 679.75C493.75 679.75 502.5 670.75 502.5 658.5L502.5 163.25C502.5 64.5 441.75 0 348 0ZM0 380.75C0 390.75 8.5 399 18.25 399L379.75 399C389.75 399 398 390.75 398 380.75C398 370.75 390 362.25 380.25 362.25L377.5 362.25C375.25 295.25 332.25 236 272.75 209.25L272.75 183.5C272.75 141.5 241.75 110.25 199 110.25C156.5 110.25 125.5 141.5 125.5 183.5L125.5 209.25C65.75 236 22.75 295.25 20.5 362.25L17.75 362.25C8.25 362.25 0 370.75 0 380.75Z" fill="black" fill-opacity="0.85"/>
 </g>
</svg>
