<?xml version="1.0" encoding="UTF-8"?>
<!--Generator: Apple Native CoreSVG 326-->
<!DOCTYPE svg
PUBLIC "-//W3C//DTD SVG 1.1//EN"
       "http://www.w3.org/Graphics/SVG/1.1/DTD/svg11.dtd">
<svg version="1.1" xmlns="http://www.w3.org/2000/svg" xmlns:xlink="http://www.w3.org/1999/xlink" viewBox="0 0 651.25 651.75">
 <g>
  <rect height="651.75" opacity="0" width="651.25" x="0" y="0"/>
  <path d="M651.25 326C651.25 505.5 505 651.75 325.5 651.75C146.25 651.75 0 505.5 0 326C0 146.75 146.25 0.5 325.5 0.5C505 0.5 651.25 146.75 651.25 326ZM309 137.25L309 168.25L268.5 168.25C253.75 168.25 244.75 176.5 244.75 191.5L244.75 258.75C244.75 273.5 253.75 282 268.5 282L309 282L309 310.75L222 310.75C212.5 310.75 206 313.25 200 319L167.5 350.25C155 361.75 154.75 373.5 167.25 385.25L200 416C206 422.25 212.75 424.5 222 424.5L309 424.5L309 486.5L262.75 486.5C254 486.5 246.75 493.75 246.75 502.75C246.75 511.75 254 519.25 262.75 519.25L387.25 519.25C396.25 519.25 403.5 511.75 403.5 502.75C403.5 493.75 396.25 486.5 387.25 486.5L341.5 486.5L341.5 424.5L381.75 424.5C396.5 424.5 405.5 416 405.5 401.25L405.5 334C405.5 319.25 396.5 310.75 381.75 310.75L341.5 310.75L341.5 282L428 282C437.5 282 444.25 279.5 450 273.5L483 242.5C495.25 231.25 495.25 219.5 482.5 207.5L450 176.25C444.25 170.75 437.75 168.25 428 168.25L341.5 168.25L341.5 137.25C341.5 128.25 334.25 120.75 325.25 120.75C316 120.75 309 128.5 309 137.25Z" fill="black" fill-opacity="0.85"/>
 </g>
</svg>
