<?xml version="1.0" encoding="UTF-8"?>
<!--Generator: Apple Native CoreSVG 326-->
<!DOCTYPE svg
PUBLIC "-//W3C//DTD SVG 1.1//EN"
       "http://www.w3.org/Graphics/SVG/1.1/DTD/svg11.dtd">
<svg version="1.1" xmlns="http://www.w3.org/2000/svg" xmlns:xlink="http://www.w3.org/1999/xlink" viewBox="0 0 651.25 651.75">
 <g>
  <rect height="651.75" opacity="0" width="651.25" x="0" y="0"/>
  <path d="M651.25 326C651.25 505.5 505 651.75 325.5 651.75C146.25 651.75 0 505.5 0 326C0 146.75 146.25 0.5 325.5 0.5C505 0.5 651.25 146.75 651.25 326ZM309.75 160.25L309.75 199.5L226.25 199.5C212 199.5 204.75 203.5 197 211.5L152.25 253.75C134.25 270.25 134.75 287.5 152 303.75L197 346C204.75 353.5 212 358 226.25 358L309.75 358L309.75 475.5L261.25 475.5C252.5 475.5 245 482.75 245 492C245 500.75 252.5 508.25 261.25 508.25L390.25 508.25C399.25 508.25 406.75 500.75 406.75 492C406.75 482.75 399.25 475.5 390.25 475.5L342.25 475.5L342.25 358L447.75 358.25C469.5 358.25 481.75 346 481.75 324.75L481.75 232.5C481.75 211.25 469.5 199.5 447.75 199.5L342.25 199.5L342.25 160.25C342.25 151 335 143.75 325.75 143.75C317 143.75 309.75 151 309.75 160.25Z" fill="black" fill-opacity="0.85"/>
 </g>
</svg>
