<?xml version="1.0" encoding="UTF-8"?>
<!--Generator: Apple Native CoreSVG 326-->
<!DOCTYPE svg
PUBLIC "-//W3C//DTD SVG 1.1//EN"
       "http://www.w3.org/Graphics/SVG/1.1/DTD/svg11.dtd">
<svg version="1.1" xmlns="http://www.w3.org/2000/svg" xmlns:xlink="http://www.w3.org/1999/xlink" viewBox="0 0 561.75 667.75">
 <g>
  <rect height="667.75" opacity="0" width="561.75" x="0" y="0"/>
  <path d="M258.75 110.75L303 110.75L303 22.25C303 10 293 0 280.75 0C268.75 0 258.75 10 258.75 22.25ZM0 332.5C0 373 23.25 396 64.5 396L497.25 396C538.5 396 561.75 373 561.75 332.5L561.75 143C561.75 102.5 538.5 79.75 497.25 79.75L64.5 79.75C23.25 79.75 0 102.5 0 143ZM65.5 124L496 124C508.75 124 516.5 131.75 516.5 144.25L516.5 331.25C516.5 343.75 508.75 351.5 496 351.5L65.5 351.5C53 351.5 45.25 343.75 45.25 331.25L45.25 144.25C45.25 131.75 53 124 65.5 124ZM258.75 379.75L258.75 664L303 664L303 379.75ZM137.25 645.25C137.25 657.25 147.5 667.25 159.5 667.25L402.5 667.25C414.75 667.25 424.5 657.25 424.5 645.25C424.5 633 414.75 623 402.5 623L159.5 623C147.5 623 137.25 633 137.25 645.25Z" fill="black" fill-opacity="0.85"/>
  <path d="M205.5 305.25L356.5 305.25C376.75 305.25 383 291 371.5 274.5L297.75 169.5C288 155.75 274 155.75 264.5 169.5L191 274.25C179 291.25 184.5 305.25 205.5 305.25Z" fill="black" fill-opacity="0.85"/>
 </g>
</svg>
