<?xml version="1.0" encoding="UTF-8"?>
<!--Generator: Apple Native CoreSVG 326-->
<!DOCTYPE svg
PUBLIC "-//W3C//DTD SVG 1.1//EN"
       "http://www.w3.org/Graphics/SVG/1.1/DTD/svg11.dtd">
<svg version="1.1" xmlns="http://www.w3.org/2000/svg" xmlns:xlink="http://www.w3.org/1999/xlink" viewBox="0 0 663.064 667.75">
 <g>
  <rect height="667.75" opacity="0" width="663.064" x="0" y="0"/>
  <path d="M375.157 128.5L375.157 22.25C375.157 10 365.157 0 352.907 0C340.907 0 330.907 10 330.907 22.25L330.907 128.5ZM581.907 396C623.407 396 646.657 373 646.657 332.5L646.657 158.25C646.657 117.75 623.407 95 581.907 95L165.407 95C138.157 95 125.157 103.25 109.407 118L25.157 197.75C-8.84296 230-7.84296 262 24.907 292.75L109.407 372.75C125.157 387.5 138.157 395.75 165.657 395.75ZM375.157 379.75L330.907 379.75L330.907 664L375.157 664ZM496.407 645.25C496.407 633 486.407 623 474.407 623L231.407 623C219.157 623 209.157 633 209.157 645.25C209.157 657.25 219.157 667.25 231.407 667.25L474.407 667.25C486.407 667.25 496.407 657.25 496.407 645.25Z" fill="black" fill-opacity="0.85"/>
 </g>
</svg>
