<?xml version="1.0" encoding="UTF-8"?>
<!--Generator: Apple Native CoreSVG 326-->
<!DOCTYPE svg
PUBLIC "-//W3C//DTD SVG 1.1//EN"
       "http://www.w3.org/Graphics/SVG/1.1/DTD/svg11.dtd">
<svg version="1.1" xmlns="http://www.w3.org/2000/svg" xmlns:xlink="http://www.w3.org/1999/xlink" viewBox="0 0 651.25 651.75">
 <g>
  <rect height="651.75" opacity="0" width="651.25" x="0" y="0"/>
  <path d="M325.5 651.25C505.25 651.25 651.25 505.5 651.25 325.75C651.25 146 505.25 0 325.5 0C145.75 0 0 146 0 325.75C0 505.5 145.75 651.25 325.5 651.25ZM325.5 604.75C171.25 604.75 46.5 480 46.5 325.75C46.5 171.5 171.25 46.75 325.5 46.75C479.75 46.75 604.5 171.5 604.5 325.75C604.5 480 479.75 604.75 325.5 604.75Z" fill="black" fill-opacity="0.85"/>
  <path d="M444.75 356.75C465.75 356.75 477.75 344.75 477.75 324L477.75 234C477.75 213.5 465.75 202 444.75 202L341.5 202L341.5 163.5C341.5 154.75 334.5 147.5 325.25 147.5C317 147.5 309.75 154.75 309.75 163.5L309.75 202L228.25 202C214.5 202 207.5 206 199.5 213.5L155.75 254.75C138.25 271 139 287.75 155.5 303.5L199.5 344.75C207.5 352.25 214.5 356.5 228.25 356.5L309.75 356.5L309.75 472L262.5 472C253.75 472 246.75 479 246.75 487.75C246.75 496.5 253.75 503.5 262.5 503.5L388.5 503.5C397 503.5 404.25 496.5 404.25 487.75C404.25 479 397 472 388.5 472L341.5 472L341.5 356.5Z" fill="black" fill-opacity="0.85"/>
 </g>
</svg>
