<?xml version="1.0" encoding="UTF-8"?>
<!--Generator: Apple Native CoreSVG 326-->
<!DOCTYPE svg
PUBLIC "-//W3C//DTD SVG 1.1//EN"
       "http://www.w3.org/Graphics/SVG/1.1/DTD/svg11.dtd">
<svg version="1.1" xmlns="http://www.w3.org/2000/svg" xmlns:xlink="http://www.w3.org/1999/xlink" viewBox="0 0 663.064 667.75">
 <g>
  <rect height="667.75" opacity="0" width="663.064" x="0" y="0"/>
  <path d="M287.907 128.5L332.157 128.5L332.157 22.25C332.157 10 322.157 0 310.157 0C297.907 0 287.907 10 287.907 22.25ZM81.157 396L497.407 395.5C524.907 395.5 537.907 387.5 553.657 372.75L638.157 292.75C670.907 262 671.907 230 637.907 197.75L553.657 118C537.907 103.25 524.907 95 497.657 95L81.157 95C39.657 95 16.407 117.75 16.407 158.25L16.407 332.5C16.407 373 39.657 396 81.157 396ZM287.907 379.75L287.907 664L332.157 664L332.157 379.75ZM166.657 645.25C166.657 657.25 176.657 667.25 188.657 667.25L431.657 667.25C443.907 667.25 453.907 657.25 453.907 645.25C453.907 633 443.907 623 431.657 623L188.657 623C176.657 623 166.657 633 166.657 645.25Z" fill="black" fill-opacity="0.85"/>
 </g>
</svg>
