<?xml version="1.0" encoding="UTF-8"?>
<!--Generator: Apple Native CoreSVG 326-->
<!DOCTYPE svg
PUBLIC "-//W3C//DTD SVG 1.1//EN"
       "http://www.w3.org/Graphics/SVG/1.1/DTD/svg11.dtd">
<svg version="1.1" xmlns="http://www.w3.org/2000/svg" xmlns:xlink="http://www.w3.org/1999/xlink" viewBox="0 0 651.25 651.75">
 <g>
  <rect height="651.75" opacity="0" width="651.25" x="0" y="0"/>
  <path d="M325.5 651.25C505.25 651.25 651.25 505.5 651.25 325.75C651.25 146 505.25 0 325.5 0C145.75 0 0 146 0 325.75C0 505.5 145.75 651.25 325.5 651.25ZM325.5 604.75C171.25 604.75 46.5 480 46.5 325.75C46.5 171.5 171.25 46.75 325.5 46.75C479.75 46.75 604.5 171.5 604.5 325.75C604.5 480 479.75 604.75 325.5 604.75Z" fill="black" fill-opacity="0.85"/>
  <path d="M269.75 282.5L309.25 282.5L309.25 310.5L224.25 310.5C214.75 310.5 208.5 313.25 202.75 318.5L170.75 349.25C158.75 360.5 158.75 372 170.75 383.5L202.75 413.25C208.5 419.25 215 421.75 224.25 421.75L309.25 421.75L309.25 482.5L264 482.5C255.25 482.5 248.5 489.5 248.5 498.5C248.5 507 255.25 514.25 264 514.25L385.75 514.25C394.75 514.25 401.75 507 401.75 498.5C401.75 489.5 394.75 482.5 385.75 482.5L341 482.5L341 421.75L380.25 421.75C394.5 421.75 403.25 413.5 403.25 398.75L403.25 333.5C403.25 318.75 394.5 310.5 380.25 310.5L341 310.5L341 282.5L425.75 282.5C434.75 282.5 441.25 279.75 447.25 274L479.25 243.75C491 232.75 491.25 221.25 479 209.5L447.25 179.25C441.25 173.75 435 171.25 425.75 171.25L341 171.25L341 140.75C341 132.25 334 125 325 125C316 125 309.25 132.5 309.25 140.75L309.25 171.25L269.75 171.25C255.25 171.25 246.75 179.25 246.75 194L246.75 259.5C246.75 274 255.25 282.5 269.75 282.5Z" fill="black" fill-opacity="0.85"/>
 </g>
</svg>
