<?xml version="1.0" encoding="UTF-8"?>
<!--Generator: Apple Native CoreSVG 326-->
<!DOCTYPE svg
PUBLIC "-//W3C//DTD SVG 1.1//EN"
       "http://www.w3.org/Graphics/SVG/1.1/DTD/svg11.dtd">
<svg version="1.1" xmlns="http://www.w3.org/2000/svg" xmlns:xlink="http://www.w3.org/1999/xlink" viewBox="0 0 643.75 689.25">
 <g>
  <rect height="689.25" opacity="0" width="643.75" x="0" y="0"/>
  <path d="M328 22L386.618 80.5L327.345 80.5L304 57C294.75 48 285 44.25 271.5 44.25L88.5 44.25C59.25 44.25 44.25 59.5 44.25 88L44.25 517.25C44.25 546.25 59 561 88.25 561L171 561L171 598.25C171 600.655 171.052 603.013 171.231 605.25L86.75 605.25C29.5 605.25 0 575.25 0 517.75L0 88C0 30 29.5 0 86.75 0L272.5 0C296.5 0 313 7 328 22ZM171 514.5L141.75 514.5C115.75 514.5 99.75 498.5 99.75 472.25L99.75 369.5L171 369.5ZM99.75 340.25L99.75 303.25C99.75 276.75 115.75 261 141.75 261L171 261L171 340.25Z" fill="black" fill-opacity="0.85"/>
  <path d="M257.75 685.75L557 685.75C614.25 685.75 643.75 655.75 643.75 598.25L643.75 282C643.75 256 638.25 241.5 623.25 226.5L499 102.5C484 87.5 467.25 80.5 443.5 80.5L257.75 80.5C200.5 80.5 171 110.5 171 168.5L171 598.25C171 655.75 200.5 685.75 257.75 685.75ZM259.25 641.5C230 641.5 215.25 626.75 215.25 597.75L215.25 168.75C215.25 140 230.25 125 259.5 125L442.5 125C456 125 465.75 128.5 475 137.75L588 251.25C596.25 259.75 599.5 268.25 599.5 284.5L599.5 597.75C599.5 626.75 584.5 641.5 555.25 641.5ZM270.75 552.75C270.75 579.25 286.75 595 312.75 595L351.5 595L351.5 454.5C351.5 451.75 349.75 450 346.75 450L270.75 450ZM270.75 421L362.75 421C374.25 421 380.5 427.5 380.5 438.5L380.5 595L437 595L437 341.5L312.75 341.5C286.75 341.5 270.75 357.25 270.75 384ZM466.25 595L500.25 595C526.5 595 542.25 579.25 542.25 552.75L542.25 384C542.25 357.25 526.5 341.5 500.25 341.5L466.25 341.5Z" fill="black" fill-opacity="0.85"/>
 </g>
</svg>
