<?xml version="1.0" encoding="UTF-8"?>
<!--Generator: Apple Native CoreSVG 326-->
<!DOCTYPE svg
PUBLIC "-//W3C//DTD SVG 1.1//EN"
       "http://www.w3.org/Graphics/SVG/1.1/DTD/svg11.dtd">
<svg version="1.1" xmlns="http://www.w3.org/2000/svg" xmlns:xlink="http://www.w3.org/1999/xlink" viewBox="0 0 706 679.75">
 <g>
  <rect height="679.75" opacity="0" width="706" x="0" y="0"/>
  <path d="M390.75 10.75L667 170.25C677 176 681.5 183.25 681.5 191.5C681.5 202.75 673 213.5 657.75 213.5L628.75 213.5L628.75 595.25L649.25 595.25C660.25 595.25 666.75 601.75 666.75 612.5L666.75 635L683.75 635C696 635 706 645 706 657.25C706 669.25 696 679.25 683.75 679.25L22.25 679.25C10 679.25 0 669.25 0 657.25C0 645 10 635 22.25 635L39.25 635L39.25 612.5C39.25 601.75 45.75 595.25 57 595.25L77.5 595.25L77.5 213.5L48.25 213.5C33 213.5 24.5 202.75 24.5 191.5C24.5 183.25 28.75 176 39 170.25L315.25 10.75C327.25 3.75 340.5 0 353 0C365.5 0 378.5 3.75 390.75 10.75ZM438 208.75L438 234.75C401.75 237.75 372.5 260 372.5 299.75C372.5 336.5 394.25 354.5 428.25 370.75L438 375.75L438 466.25C414.5 463.25 403.25 447.75 400 423.5C398.75 416.5 393.25 410.75 384.5 410.75C376 410.75 369.25 416.75 369.25 425.75C369.25 428 369.5 431.5 370.25 435C377.75 473.75 405.25 490.75 438 493.5L438 520.5C438 525.25 442 529.25 446.75 529.25C451.25 529.25 455.5 525.25 455.5 520.5L455.5 493.5C496 490.75 524.5 466 524.5 426C524.5 387.5 500 370.5 467.5 355.25L455.5 349.5L455.5 262.25C476.75 265.5 486 281.75 489.25 303C491 310.5 495.75 315.5 505 315.5C514 315.5 519.75 310 519.75 300.75C519.75 297 519.5 294.25 519 291.25C511.5 253.75 486.5 237.5 455.5 235L455.5 208.75C455.5 204 451.25 200 446.75 200C442 200 438 204 438 208.75ZM187.5 297.75C187.5 337.75 210.5 359.25 247.75 373L266.75 380C292 389.25 309.5 402.75 309.5 429.75C309.5 454 294.25 474.75 264 474.75C237.25 474.75 220 459 214.5 432.5C212.75 424.25 207.5 420.5 199.25 420.5C190.5 420.5 184.25 427 184.25 436.25C184.25 440 185.25 444.75 186.25 448.25C196.5 483 224 503.25 263.25 503.25C316.5 503.25 342.5 470.25 342.5 426.5C342.5 381.75 315.5 364.75 280.25 350.75L261.75 343.75C237 334 220.5 322.5 220.5 295.75C220.5 271.5 235 253.25 261.5 253.25C285.75 253.25 301 268 306.75 293.25C308.75 301.75 314.25 305.25 322.5 305.25C331.25 305.25 336.5 299.25 336.5 290.5C336.5 287.75 336 284.5 335.25 281.25C327.75 247 299.75 224.75 261.75 224.75C214.25 224.75 187.5 257.25 187.5 297.75ZM492.5 429C492.5 450.75 478.5 464 455.5 466.5L455.5 384C476.25 394.25 492.5 405.5 492.5 429ZM438 341C418.75 330.75 404 318.5 404 298C404 276.5 418.25 264.25 438 262Z" fill="black" fill-opacity="0.85"/>
 </g>
</svg>
