<?xml version="1.0" encoding="UTF-8"?>
<!--Generator: Apple Native CoreSVG 326-->
<!DOCTYPE svg
PUBLIC "-//W3C//DTD SVG 1.1//EN"
       "http://www.w3.org/Graphics/SVG/1.1/DTD/svg11.dtd">
<svg version="1.1" xmlns="http://www.w3.org/2000/svg" xmlns:xlink="http://www.w3.org/1999/xlink" viewBox="0 0 650.25 608.75">
 <g>
  <rect height="608.75" opacity="0" width="650.25" x="0" y="0"/>
  <path d="M300 337.75L344.25 337.75L344.25 85C344.25 60.25 360 44.5 384.5 44.5C409.25 44.5 425 60.25 425 85L425 134.5C425 146.5 435.25 156.5 447.25 156.5C459.25 156.5 469.5 146.5 469.5 134.5L469.5 85C469.5 33.75 435.75 0 384.5 0C333.5 0 300 33.75 300 85ZM211.75 337.75L248.25 337.75L248.25 260C248.25 243.5 238.25 233.5 221.75 233.5L133.5 233.5C123.5 233.5 115.25 241.75 115.25 252C115.25 262 123.5 270.25 133.5 270.25L204 270.25C209 270.25 211.75 273 211.75 277.75ZM395.75 337.75L432.5 337.75L432.5 277.75C432.5 273 435.25 270.25 440 270.25L510.75 270.25C520.75 270.25 529 262 529 252C529 241.75 520.75 233.5 510.75 233.5L422.5 233.5C406 233.5 395.75 243.5 395.75 260ZM22.25 365L32.5 365L32.5 472C32.5 559.25 85 607.75 179.25 607.75L471 607.75C565.25 607.75 618 559.25 618 472L618 365L628.25 365C640.25 365 650.25 355 650.25 343C650.25 330.75 640.25 320.75 628.25 320.75L22.25 320.75C10 320.75 0 330.75 0 343C0 355 10 365 22.25 365Z" fill="black" fill-opacity="0.85"/>
 </g>
</svg>
