<?xml version="1.0" encoding="UTF-8"?>
<!--Generator: Apple Native CoreSVG 326-->
<!DOCTYPE svg
PUBLIC "-//W3C//DTD SVG 1.1//EN"
       "http://www.w3.org/Graphics/SVG/1.1/DTD/svg11.dtd">
<svg version="1.1" xmlns="http://www.w3.org/2000/svg" xmlns:xlink="http://www.w3.org/1999/xlink" viewBox="0 0 651.25 651.75">
 <g>
  <rect height="651.75" opacity="0" width="651.25" x="0" y="0"/>
  <path d="M246.5 602.25C178.5 582.5 120.5 538.25 83 479.5L198 478L241.25 422.25L205.75 311.75L124.5 279L37.5 327.75C37.75 256.25 62.5 192.75 104 143L136.25 249.5L214.75 281.5L309.25 208.75L309.25 127.25L223 57.25C254.75 44.75 289.5 38 325.25 38C361.25 38 395.75 44.75 427.5 57.25L341.5 127L341.5 208.75L436 281.5L514.25 249.5L546.75 143C588 192.75 613 256.25 613.25 327.75L526 279L445 311.75L409.25 422.25L452.75 478L567.5 479.5C530.25 538.25 472.25 582.5 404 602.25L428 497.75L389 448L261.75 448L222.5 497.75ZM325.5 651.25C505.25 651.25 651.25 505.5 651.25 325.75C651.25 146 505.25 0 325.5 0C145.75 0 0 146 0 325.75C0 505.5 145.75 651.25 325.5 651.25Z" fill="black" fill-opacity="0.85"/>
 </g>
</svg>
