<?xml version="1.0" encoding="UTF-8"?>
<!--Generator: Apple Native CoreSVG 326-->
<!DOCTYPE svg
PUBLIC "-//W3C//DTD SVG 1.1//EN"
       "http://www.w3.org/Graphics/SVG/1.1/DTD/svg11.dtd">
<svg version="1.1" xmlns="http://www.w3.org/2000/svg" xmlns:xlink="http://www.w3.org/1999/xlink" viewBox="0 0 651.25 651.75">
 <g>
  <rect height="651.75" opacity="0" width="651.25" x="0" y="0"/>
  <path d="M325.5 651.25C505.25 651.25 651.25 505.5 651.25 325.75C651.25 146 505.25 0 325.5 0C145.75 0 0 146 0 325.75C0 505.5 145.75 651.25 325.5 651.25ZM325.5 604.75C171.25 604.75 46.5 480 46.5 325.75C46.5 171.5 171.25 46.75 325.5 46.75C479.75 46.75 604.5 171.5 604.5 325.75C604.5 480 479.75 604.75 325.5 604.75Z" fill="black" fill-opacity="0.85"/>
  <path d="M325.25 498C420.5 498 497.5 421 497.5 325.75C497.5 230.25 420.5 153.5 325.25 153.5C230 153.5 153 230.25 153 325.75C153 421 230 498 325.25 498ZM201 406.5C186 383.25 177.25 356.25 177 326.5L216 304.5L262 323.25L278 373.25L252.75 405.75ZM208.75 233.5C226 212.25 248.5 195.5 274.5 186.25L312.75 217L312.75 265L269 298.5L223 280ZM442 233.5L428.25 280L382 298.5L338.25 265L338.25 216.25L376.25 186.25C402.5 195.5 425.25 212.25 442 233.5ZM450 407L398 406.25L373 373.5L389 323.25L435.25 304.5L474 326.5C473.75 356.25 465 383.75 450 407ZM325.5 474C311 474 297.5 472 284.25 468.25L273.25 421L295.25 392.25L355.25 392.25L378 421.75L367 468.25C353.75 472.25 340 474 325.5 474Z" fill="black" fill-opacity="0.85"/>
 </g>
</svg>
