<?xml version="1.0" encoding="UTF-8"?>
<!--Generator: Apple Native CoreSVG 326-->
<!DOCTYPE svg
PUBLIC "-//W3C//DTD SVG 1.1//EN"
       "http://www.w3.org/Graphics/SVG/1.1/DTD/svg11.dtd">
<svg version="1.1" xmlns="http://www.w3.org/2000/svg" xmlns:xlink="http://www.w3.org/1999/xlink" viewBox="0 0 651.25 651.75">
 <g>
  <rect height="651.75" opacity="0" width="651.25" x="0" y="0"/>
  <path d="M651.25 325.75C651.25 505 505 651.25 325.5 651.25C146.25 651.25 0 505 0 325.75C0 146.25 146.25 0 325.5 0C505 0 651.25 146.25 651.25 325.75ZM153.75 325.75C153.75 420 231.5 497.75 325.75 497.75C420 497.75 497.75 420 497.75 325.75C497.75 231.5 420 153.75 325.5 153.75C231.25 153.75 153.75 231.5 153.75 325.75ZM378.75 187.5L335.25 222L335.25 266.5L381.5 301.75L423.5 285L440 231.5C461.25 257.25 474.25 290 474.25 326.75L431.25 302.75L386.75 320.75L369.5 374L393.25 404.25L450.75 405C431.25 435.5 401.5 458.25 366.25 468.25L378.25 416.75L356.5 388.75L295 388.75L273 416.5L285 468.25C250 458.25 220 435.5 200.75 405L258.25 404.25L282 374.25L264.75 320.75L220.25 302.75L177.25 326.75C177.25 290 190.25 257.25 211.5 231.5L227.75 284.75L270 301.75L316 266.5L316 222L272.75 187.5C289.25 181 307.5 177.5 325.75 177.5C344.25 177.5 362 180.75 378.75 187.5Z" fill="black" fill-opacity="0.85"/>
 </g>
</svg>
