<?xml version="1.0" encoding="UTF-8"?>
<!--Generator: Apple Native CoreSVG 326-->
<!DOCTYPE svg
PUBLIC "-//W3C//DTD SVG 1.1//EN"
       "http://www.w3.org/Graphics/SVG/1.1/DTD/svg11.dtd">
<svg version="1.1" xmlns="http://www.w3.org/2000/svg" xmlns:xlink="http://www.w3.org/1999/xlink" viewBox="0 0 967.5 547.75">
 <g>
  <rect height="547.75" opacity="0" width="967.5" x="0" y="0"/>
  <path d="M94.25 179L140.5 179L140.5 76.25C140.5 58 152 46 169 46L432.25 46C449.25 46 460.5 58 460.5 76.25L460.5 326.5L507 326.5L507 76C507 30.25 477.5 0 434 0L167.25 0C123.5 0 94.25 30.25 94.25 76ZM879 179L879 76C879 30.25 849.75 0 806 0L533.75 0C490 0 460.5 30.25 460.5 76L460.5 326.5L507 326.5L507 76.25C507 58 518.25 46 535.25 46L804.25 46C821.25 46 832.75 58 832.75 76.25L832.75 179ZM0 412.5C0 454.75 28.25 483 70.5 483L897 483C939.25 483 967.5 454.75 967.5 412.5L967.5 217C967.5 174.75 939.25 146.5 897 146.5L852.25 146.5C810 146.5 781.75 174.75 781.75 217L781.75 299.75L185.75 299.75L185.75 217C185.75 174.75 157.5 146.5 115.25 146.5L70.5 146.5C28.25 146.5 0 174.75 0 217ZM46.75 412L46.75 217.5C46.75 202.5 57 192.75 72.5 192.75L113 192.75C128.75 192.75 139.25 202.5 139.25 217.5L139.25 345.75L828.25 345.75L828.25 217.5C828.25 202.5 838.75 192.75 854.5 192.75L895 192.75C910.5 192.75 921 202.5 921 217.5L921 412C921 427 910.5 436.75 895 436.75L72.5 436.75C57 436.75 46.75 427 46.75 412ZM110.5 547.25L129 547.25C145.25 547.25 155.75 537.25 155.75 520.75L155.75 457.25L83.75 457.25L83.75 520.75C83.75 537.25 94 547.25 110.5 547.25ZM838.5 547.25L857 547.25C873.5 547.25 883.75 537.25 883.75 520.75L883.75 457.25L811.75 457.25L811.75 520.75C811.75 537.25 822.25 547.25 838.5 547.25Z" fill="black" fill-opacity="0.85"/>
 </g>
</svg>
