<?xml version="1.0" encoding="UTF-8"?>
<!--Generator: Apple Native CoreSVG 326-->
<!DOCTYPE svg
PUBLIC "-//W3C//DTD SVG 1.1//EN"
       "http://www.w3.org/Graphics/SVG/1.1/DTD/svg11.dtd">
<svg version="1.1" xmlns="http://www.w3.org/2000/svg" xmlns:xlink="http://www.w3.org/1999/xlink" viewBox="0 0 774 561.75">
 <g>
  <rect height="561.75" opacity="0" width="774" x="0" y="0"/>
  <path d="M478.75 280.75C478.75 294 488.5 303.25 502.5 303.25L603.5 303.25L603.5 404.5C603.5 418.25 612.75 428 626 428C639.75 428 649.5 418.5 649.5 404.5L649.5 303.25L750.75 303.25C764.5 303.25 774 294 774 280.75C774 266.75 764.5 257.25 750.75 257.25L649.5 257.25L649.5 156.25C649.5 142.25 639.75 132.5 626 132.5C612.75 132.5 603.5 142.25 603.5 156.25L603.5 257.25L502.5 257.25C488.25 257.25 478.75 266.75 478.75 280.75Z" fill="black" fill-opacity="0.85"/>
  <path d="M60 407.75L154.5 407.75C157.75 407.75 160.75 409 163.25 411.25L311.5 543.5C324.75 555.5 335.75 561.75 349.75 561.75C368.75 561.75 382.5 547.5 382.5 528.5L382.5 34.75C382.5 15.75 368.75 0 349.25 0C335.25 0 326 7 311.5 19.75L163.25 152.25C160.75 154.5 157.75 155.25 154.5 155.25L60 155.25C19.75 155.25 0 175.75 0 218.25L0 345.25C0 388 19.75 407.75 60 407.75ZM61.75 367.5C48.5 367.5 43 361.75 43 348.5L43 214.75C43 201.5 48.5 195.75 61.75 195.75L164.5 195.75C173.25 195.75 179.75 194.25 187.25 187.5L328.75 58.5C330.75 56.75 332.5 55.25 335 55.25C337.5 55.25 339.5 57.25 339.5 60.25L339.5 501.25C339.5 504.5 337.5 506.25 335 506.25C333.25 506.25 331.25 505.5 329 503.25L187.25 376C179.75 369.25 173.25 367.5 164.5 367.5Z" fill="black" fill-opacity="0.85"/>
 </g>
</svg>
