<?xml version="1.0" encoding="UTF-8"?>
<!--Generator: Apple Native CoreSVG 326-->
<!DOCTYPE svg
PUBLIC "-//W3C//DTD SVG 1.1//EN"
       "http://www.w3.org/Graphics/SVG/1.1/DTD/svg11.dtd">
<svg version="1.1" xmlns="http://www.w3.org/2000/svg" xmlns:xlink="http://www.w3.org/1999/xlink" viewBox="0 0 651.25 651.75">
 <g>
  <rect height="651.75" opacity="0" width="651.25" x="0" y="0"/>
  <path d="M651.25 326C651.25 505.5 505 651.75 325.5 651.75C146.25 651.75 0 505.5 0 326C0 146.75 146.25 0.5 325.5 0.5C505 0.5 651.25 146.75 651.25 326ZM295.75 187.25L221.5 257.75C220.25 258.75 218.5 259.25 216.5 259.25L166 259.25C145.25 259.25 132.5 271.75 132.5 294L132.5 358.5C132.5 380.5 145.25 393.25 166 393.25L216.5 393.25C218.5 393.25 220.25 393.75 221.5 395L295.75 465.5C302.5 471.75 308.5 475 316 475C326 475 333 467.25 333 457.5L333 195C333 185 326 176.75 315.5 176.75C308.25 176.75 303.25 180.25 295.75 187.25ZM452 206.75C445 212 443.75 221.25 448.75 228.75C468 255.75 478.25 289.75 478.25 325.75C478.25 362.25 467.75 397.75 448.5 422.5C443.25 430 444.5 439.75 452 444.5C459.5 449 468 447.5 473 440.75C495.5 410.25 508.75 370.25 508.75 325.75C508.75 284.5 496.5 244.25 473.25 211C468.25 203.5 459.25 201.75 452 206.75ZM391.75 251.5C384.5 257 382.75 266 388.25 274C397.75 286 403.5 305 403.5 325.75C403.5 345.5 397.75 364.5 388 378C382.75 385.75 384.25 394.25 391.75 400C398 405.25 407.5 403.25 413 396.5C426.75 378.75 434.5 352.5 434.5 325.75C434.5 299.5 426.5 273.5 413 255C407.75 248.25 398 246.25 391.75 251.5Z" fill="black" fill-opacity="0.85"/>
 </g>
</svg>
