<?xml version="1.0" encoding="UTF-8"?>
<!--Generator: Apple Native CoreSVG 326-->
<!DOCTYPE svg
PUBLIC "-//W3C//DTD SVG 1.1//EN"
       "http://www.w3.org/Graphics/SVG/1.1/DTD/svg11.dtd">
<svg version="1.1" xmlns="http://www.w3.org/2000/svg" xmlns:xlink="http://www.w3.org/1999/xlink" viewBox="0 0 651.25 651.75">
 <g>
  <rect height="651.75" opacity="0" width="651.25" x="0" y="0"/>
  <path d="M651.25 326C651.25 505.5 505 651.75 325.5 651.75C146.25 651.75 0 505.5 0 326C0 146.75 146.25 0.5 325.5 0.5C505 0.5 651.25 146.75 651.25 326ZM366.25 179L288 253.75C286.75 255 284.25 255.75 282.25 255.75L229.25 255.75C206.25 255.75 193.5 268.75 193.5 292.5L193.5 360.75C193.5 384.75 206.25 397.75 229.25 397.75L282.25 397.75C284.25 397.75 286.75 398.5 288 399.75L366.25 474.25C373.5 481.5 380 484.5 388 484.5C398.5 484.5 406 476.75 406 466L406 187.5C406 177 398.5 168.25 387.75 168.25C379.75 168.25 374.5 171.5 366.25 179Z" fill="black" fill-opacity="0.85"/>
 </g>
</svg>
