<?xml version="1.0" encoding="UTF-8"?>
<!--Generator: Apple Native CoreSVG 326-->
<!DOCTYPE svg
PUBLIC "-//W3C//DTD SVG 1.1//EN"
       "http://www.w3.org/Graphics/SVG/1.1/DTD/svg11.dtd">
<svg version="1.1" xmlns="http://www.w3.org/2000/svg" xmlns:xlink="http://www.w3.org/1999/xlink" viewBox="0 0 587.75 587.75">
 <g>
  <rect height="587.75" opacity="0" width="587.75" x="0" y="0"/>
  <path d="M97.25 587.75L490.25 587.75C555 587.75 587.75 555 587.75 491.5L587.75 96.5C587.75 32.75 555 0 490.25 0L97.25 0C32.75 0 0 32.5 0 96.5L0 491.5C0 555.5 32.75 587.75 97.25 587.75ZM98.25 543.5C63.25 543.5 44.25 525 44.25 489L44.25 98.75C44.25 63 63.25 44.25 98.25 44.25L489.5 44.25C523.75 44.25 543.5 63 543.5 98.75L543.5 489C543.5 525 523.75 543.5 489.5 543.5Z" fill="black" fill-opacity="0.85"/>
  <path d="M354.25 447.75C364.75 447.75 372 440.5 372 430L372 158C372 147.75 364.75 139.25 354 139.25C346.5 139.25 341.25 142.5 333.25 150L256.75 222.75C255.5 224 253.25 224.75 251.25 224.75L199 224.75C177 224.75 164.5 237.5 164.5 260.75L164.5 327.25C164.5 350.5 177 363.25 199 363.25L251.25 363.25C253.25 363.25 255.5 364 256.75 365.25L333.25 438C340.5 445 346.75 447.75 354.25 447.75Z" fill="black" fill-opacity="0.85"/>
 </g>
</svg>
