<?xml version="1.0" encoding="UTF-8"?>
<!--Generator: Apple Native CoreSVG 326-->
<!DOCTYPE svg
PUBLIC "-//W3C//DTD SVG 1.1//EN"
       "http://www.w3.org/Graphics/SVG/1.1/DTD/svg11.dtd">
<svg version="1.1" xmlns="http://www.w3.org/2000/svg" xmlns:xlink="http://www.w3.org/1999/xlink" viewBox="0 0 651.25 651.75">
 <g>
  <rect height="651.75" opacity="0" width="651.25" x="0" y="0"/>
  <path d="M325.5 651.25C505.25 651.25 651.25 505.5 651.25 325.75C651.25 146 505.25 0 325.5 0C145.75 0 0 146 0 325.75C0 505.5 145.75 651.25 325.5 651.25ZM325.5 604.75C171.25 604.75 46.5 480 46.5 325.75C46.5 171.5 171.25 46.75 325.5 46.75C479.75 46.75 604.5 171.5 604.5 325.75C604.5 480 479.75 604.75 325.5 604.75Z" fill="black" fill-opacity="0.85"/>
  <path d="M385.75 479.75C396 479.75 403.25 472.5 403.25 462L403.25 190C403.25 179.75 396 171.25 385.5 171.25C377.75 171.25 372.5 174.5 364.5 182L288 254.75C286.75 256 284.5 256.75 282.5 256.75L230.5 256.75C208.25 256.75 195.75 269.5 195.75 292.75L195.75 359.25C195.75 382.5 208.25 395.25 230.5 395.25L282.5 395.25C284.5 395.25 286.75 396 288 397.25L364.5 470C371.75 477 378 479.75 385.75 479.75Z" fill="black" fill-opacity="0.85"/>
 </g>
</svg>
