<?xml version="1.0" encoding="UTF-8"?>
<!--Generator: Apple Native CoreSVG 326-->
<!DOCTYPE svg
PUBLIC "-//W3C//DTD SVG 1.1//EN"
       "http://www.w3.org/Graphics/SVG/1.1/DTD/svg11.dtd">
<svg version="1.1" xmlns="http://www.w3.org/2000/svg" xmlns:xlink="http://www.w3.org/1999/xlink" viewBox="0 0 664.126 711.626">
 <g>
  <rect height="711.626" opacity="0" width="664.126" x="0" y="0"/>
  <path d="M484.581 611.408C481.437 626.294 469.342 636.688 452.688 636.688C438.938 636.688 427.688 630.688 414.688 618.438L274.938 486.188C272.688 483.938 269.688 482.688 265.938 482.688L171.188 482.688C131.188 482.688 107.938 459.438 107.938 417.188L107.938 296.188C107.938 276.34 113.009 260.69 122.548 249.708ZM485.438 109.688L485.438 453.513L262.26 230.438L265.938 230.438C269.688 230.438 272.688 229.438 274.938 227.188L414.688 94.688C428.938 81.188 438.438 75.188 452.188 75.188C472.188 75.188 485.438 90.688 485.438 109.688Z" fill="black" fill-opacity="0.85"/>
  <path d="M592.938 670.438C601.188 678.938 614.938 678.938 623.188 670.438C631.438 661.938 631.438 648.688 623.188 640.438L80.688 98.188C72.438 89.938 58.688 89.688 50.188 98.188C42.188 106.188 42.188 120.188 50.188 128.188Z" fill="black" fill-opacity="0.85"/>
 </g>
</svg>
