<?xml version="1.0" encoding="UTF-8"?>
<!--Generator: Apple Native CoreSVG 326-->
<!DOCTYPE svg
PUBLIC "-//W3C//DTD SVG 1.1//EN"
       "http://www.w3.org/Graphics/SVG/1.1/DTD/svg11.dtd">
<svg version="1.1" xmlns="http://www.w3.org/2000/svg" xmlns:xlink="http://www.w3.org/1999/xlink" viewBox="0 0 702.5 702.75">
 <g>
  <rect height="702.75" opacity="0" width="702.5" x="0" y="0"/>
  <path d="M249.75 93.25C243.5 99.5 241 106 241 112.25C241 123.75 250.5 133.25 264.5 133.25L437.75 133.25C452.25 133.25 461.5 123.75 461.5 112.25C461.5 106 458.75 99.5 452.75 93.25L372.5 9.5C366.25 3 358.75 0 351.25 0C344 0 336.5 3 330.25 9.5ZM249.75 609L330.25 692.75C336.5 699.5 344 702.5 351.25 702.5C358.75 702.5 366.25 699.5 372.5 692.75L452.75 609C458.75 603 461.5 596.25 461.5 590C461.5 578.5 452.25 569 437.75 569L264.5 569C250.5 569 241 578.5 241 590C241 596.25 243.5 603 249.75 609ZM609 250C603 244 596.25 241.5 590 241.5C578.75 241.5 569 250.75 569 265L569 438.25C569 452.5 578.75 461.75 590 461.75C596.25 461.75 603 459.25 609 453L692.75 372.75C699.5 366.5 702.5 359 702.5 351.5C702.5 344.25 699.5 336.75 692.75 330.5ZM93.25 250L9.5 330.5C3 336.75 0 344.25 0 351.5C0 359 3 366.5 9.5 372.75L93.25 453C99.5 459.25 106 461.75 112.25 461.75C123.75 461.75 133.5 452.5 133.5 438.25L133.5 265C133.5 250.75 123.75 241.5 112.25 241.5C106 241.5 99.5 244 93.25 250Z" fill="black" fill-opacity="0.85"/>
  <path d="M384.25 491C393.75 491 400.5 484 400.5 474.5L400.5 228.75C400.5 219 393.75 211.25 384 211.25C377 211.25 372.25 214.75 365 221.25L295.75 287.25C294.25 288.5 293 288.5 291.25 288.5L243.75 288.5C224.25 288.5 212.5 300.25 212.5 321.25L212.5 381.75C212.5 402.75 224.25 414.5 243.75 414.5L291.25 414.5C293 414.5 294.25 415 295.75 416L365 482.25C371.5 488.25 377.25 491 384.25 491Z" fill="black" fill-opacity="0.85"/>
  <path d="M455 421.5C461.25 426 470.5 424.5 476 417.5C488.75 401 496 376.25 496 351.25C496 326.5 488.5 302 476 284.75C470.75 277.75 461.25 276.25 455 280.75C447.75 286 446 295 452 303C460.5 314.5 466 332.5 466 351.25C466 369.5 460.5 387.25 452 399.25C446 407.5 447.75 416.25 455 421.5Z" fill="black" fill-opacity="0.85"/>
 </g>
</svg>
