<?xml version="1.0" encoding="UTF-8"?>
<!--Generator: Apple Native CoreSVG 326-->
<!DOCTYPE svg
PUBLIC "-//W3C//DTD SVG 1.1//EN"
       "http://www.w3.org/Graphics/SVG/1.1/DTD/svg11.dtd">
<svg version="1.1" xmlns="http://www.w3.org/2000/svg" xmlns:xlink="http://www.w3.org/1999/xlink" viewBox="0 0 708.75 561.75">
 <g>
  <rect height="561.75" opacity="0" width="708.75" x="0" y="0"/>
  <path d="M612.25 501.25C622.5 508.25 635.25 506 642.5 495.5C684 439.5 708.75 360.75 708.75 280.75C708.75 200.5 684.25 121.25 642.5 66C635.25 55.5 622.5 53 612.25 60C602.25 67 600.5 79.75 608.5 91.25C645.25 142.25 666 210 666 280.75C666 351.5 644.75 419 608.5 470.25C600.75 481.5 602.25 494.5 612.25 501.25Z" fill="black" fill-opacity="0.85"/>
  <path d="M496.75 417C506.25 423.5 519.25 421.25 526.5 410.75C551.25 378.25 566.75 331 566.75 280.75C566.75 230.25 551.25 183.25 526.5 150.5C519.25 140 506.25 138 496.75 144.5C485.75 152.25 484 165.75 492.5 177.25C513 205.25 524 241 524 280.75C524 320.25 512.75 355.75 492.5 384.25C484.25 395.75 485.75 409 496.75 417Z" fill="black" fill-opacity="0.85"/>
  <path d="M344.75 561.75C364.25 561.75 377.5 547.5 377.5 528.5L377.5 34.75C377.5 15.75 364.25 0.25 344.25 0.25C330.5 0.25 321.25 6.5 306.75 19.75L167 152.25C164.75 154.5 161.75 155.5 158 155.5L63.25 155.5C23.25 155.5 0 178.75 0 221.25L0 342.25C0 384.5 23.25 407.75 63.25 407.75L158 407.75C161.75 407.75 164.75 409 167 411.25L306.75 543.5C319.75 555.75 331 561.75 344.75 561.75Z" fill="black" fill-opacity="0.85"/>
 </g>
</svg>
