<?xml version="1.0" encoding="UTF-8"?>
<!--Generator: Apple Native CoreSVG 326-->
<!DOCTYPE svg
PUBLIC "-//W3C//DTD SVG 1.1//EN"
       "http://www.w3.org/Graphics/SVG/1.1/DTD/svg11.dtd">
<svg version="1.1" xmlns="http://www.w3.org/2000/svg" xmlns:xlink="http://www.w3.org/1999/xlink" viewBox="0 0 654.25 510.25">
 <g>
  <rect height="510.25" opacity="0" width="654.25" x="0" y="0"/>
  <path d="M255.5 129.25L398.5 129.25C420.75 129.25 435.75 114.25 435.75 92.25L435.75 63.75C435.75 26 408.75 0.25 368.75 0.25L285.25 0.25C245.5 0.25 218.5 26 218.5 63.75L218.5 92.25C218.5 114.25 233.5 129.25 255.5 129.25ZM264.5 90C260.5 90 257.75 87.25 257.75 83.25L257.75 63.75C257.75 48 268 39.5 285.25 39.5L368.75 39.5C386.5 39.5 396.5 48 396.5 63.75L396.5 83.25C396.5 87.25 393.75 90 389.5 90ZM255.75 312L398.5 312C420.75 312 435.75 297 435.75 275L435.75 217.5C435.75 195.5 420.75 180.5 398.5 180.5L255.75 180.5C233.75 180.5 218.75 195.5 218.75 217.5L218.75 275C218.75 297 233.75 312 255.75 312ZM264.75 272.75C260.5 272.75 258 270 258 266L258 226.75C258 222.5 260.5 219.75 264.75 219.75L389.5 219.75C393.75 219.75 396.5 222.5 396.5 226.75L396.5 266C396.5 270 393.75 272.75 389.5 272.75ZM269 202L308.25 202L308.25 112.75L269 112.75ZM346.25 202L385.5 202L385.5 112.75L346.25 112.75ZM269 483.5L308.25 483.5L308.25 299.75L269 299.75ZM346.25 483.5L385.5 483.5L385.5 299.75L346.25 299.75ZM22.25 510.25L632.25 510.25C644.25 510.25 654.25 500.25 654.25 488C654.25 476 644.25 466 632.25 466L22.25 466C10 466 0 476 0 488C0 500.25 10 510.25 22.25 510.25Z" fill="black" fill-opacity="0.85"/>
 </g>
</svg>
