<?xml version="1.0" encoding="UTF-8"?>
<!--Generator: Apple Native CoreSVG 326-->
<!DOCTYPE svg
PUBLIC "-//W3C//DTD SVG 1.1//EN"
       "http://www.w3.org/Graphics/SVG/1.1/DTD/svg11.dtd">
<svg version="1.1" xmlns="http://www.w3.org/2000/svg" xmlns:xlink="http://www.w3.org/1999/xlink" viewBox="0 0 654.25 510.25">
 <g>
  <rect height="510.25" opacity="0" width="654.25" x="0" y="0"/>
  <path d="M255.5 129.25L398.5 129.25C420.75 129.25 435.75 114.25 435.75 92.25L435.75 63.75C435.75 26 408.75 0.25 368.75 0.25L285.25 0.25C245.5 0.25 218.5 26 218.5 63.75L218.5 92.25C218.5 114.25 233.5 129.25 255.5 129.25ZM280.75 202L373.75 202L373.75 112.75L280.75 112.75ZM255.75 312L398.5 312C420.75 312 435.75 297 435.75 275L435.75 217.5C435.75 195.5 420.75 180.5 398.5 180.5L255.75 180.5C233.75 180.5 218.75 195.5 218.75 217.5L218.75 275C218.75 297 233.75 312 255.75 312ZM280.75 483.5L373.75 483.5L373.75 294.75L280.75 294.75ZM0 488C0 500.25 10 510.25 22.25 510.25L632.25 510.25C644.25 510.25 654.25 500.25 654.25 488C654.25 476 644.25 466 632.25 466L22.25 466C10 466 0 476 0 488Z" fill="black" fill-opacity="0.85"/>
 </g>
</svg>
