<?xml version="1.0" encoding="UTF-8"?>
<!--Generator: Apple Native CoreSVG 326-->
<!DOCTYPE svg
PUBLIC "-//W3C//DTD SVG 1.1//EN"
       "http://www.w3.org/Graphics/SVG/1.1/DTD/svg11.dtd">
<svg version="1.1" xmlns="http://www.w3.org/2000/svg" xmlns:xlink="http://www.w3.org/1999/xlink" viewBox="0 0 651.25 651.75">
 <g>
  <rect height="651.75" opacity="0" width="651.25" x="0" y="0"/>
  <path d="M651.25 326C651.25 505.5 505 651.75 325.5 651.75C146.25 651.75 0 505.5 0 326C0 146.75 146.25 0.5 325.5 0.5C505 0.5 651.25 146.75 651.25 326ZM223 181C187.75 181 168.5 200.5 168.5 235.25L168.5 429.75C168.5 464.75 187.75 483.75 223 483.75L420 483.75C451.25 483.75 470.5 464.75 470.5 429.75L470.5 252.5L440 283.25L440 428.25C440 444.5 431.5 452.75 419.75 452.75L223.5 452.75C207.75 452.75 199.25 444.5 199.25 428.25L199.25 236.75C199.25 220.25 207.75 212 223.5 212L370 212L400.75 181ZM294 332.75L279.5 362.5C276.5 368.75 283 374.5 289 372.25L319.75 359L473.25 205.5L446.75 179.5ZM474.5 152L460.75 165.5L487.25 191.5L500.5 177C507.25 170 507 160.75 501 155L497.25 151.5C491.25 145.25 481.25 145 474.5 152Z" fill="black" fill-opacity="0.85"/>
 </g>
</svg>
