<?xml version="1.0" encoding="UTF-8"?>
<!--Generator: Apple Native CoreSVG 326-->
<!DOCTYPE svg
PUBLIC "-//W3C//DTD SVG 1.1//EN"
       "http://www.w3.org/Graphics/SVG/1.1/DTD/svg11.dtd">
<svg version="1.1" xmlns="http://www.w3.org/2000/svg" xmlns:xlink="http://www.w3.org/1999/xlink" viewBox="0 0 607 615.75">
 <g>
  <rect height="615.75" opacity="0" width="607" x="0" y="0"/>
  <path d="M0 165.75L607 165.75L607 66C607 26.5 581.75 0 544 0L63 0C25.25 0 0 26.5 0 66ZM127.5 122.5C110 122.5 95.5 108.5 95.5 91C95.5 73.25 110 59.25 127.5 59.25C145 59.25 159.5 73.25 159.5 91C159.5 108.5 145 122.5 127.5 122.5ZM244.5 122.5C226.75 122.5 212.25 108.5 212.25 91C212.25 73.25 226.75 59.25 244.5 59.25C261.75 59.25 276.25 73.25 276.25 91C276.25 108.5 261.75 122.5 244.5 122.5ZM360.75 122.5C343.5 122.5 329 108.5 329 91C329 73.25 343.5 59.25 360.75 59.25C378.5 59.25 393 73.25 393 91C393 108.5 378.5 122.5 360.75 122.5ZM477.75 122.5C460.25 122.5 445.75 108.5 445.75 91C445.75 73.25 460.25 59.25 477.75 59.25C495.25 59.25 509.75 73.25 509.75 91C509.75 108.5 495.25 122.5 477.75 122.5ZM63 559.75L544 559.75C581.75 559.75 607 533.5 607 493.75L607 197.5L0 197.5L0 493.75C0 533.5 25.25 559.75 63 559.75ZM110 482.75C90.75 482.75 78.25 470.25 78.25 451L78.25 284.25C78.25 265 90.75 252.5 110 252.5L497 252.5C516.25 252.5 528.75 265 528.75 284.25L528.75 451C528.75 470.25 516.25 482.75 497 482.75ZM120.25 451L486.75 451C492.75 451 497 446.5 497 440.25L497 294.75C497 288.5 492.75 284 486.75 284L120.25 284C114.25 284 110 288.5 110 294.75L110 440.25C110 446.5 114.25 451 120.25 451ZM86 615.75C99.25 615.75 108.25 606.75 108.25 593.75L108.25 532.5L64 532.5L64 593.75C64 606.75 73 615.75 86 615.75ZM520.75 615.75C534 615.75 543 606.75 543 593.75L543 532.5L498.75 532.5L498.75 593.75C498.75 606.75 507.75 615.75 520.75 615.75Z" fill="black" fill-opacity="0.85"/>
 </g>
</svg>
