<?xml version="1.0" encoding="UTF-8"?>
<!--Generator: Apple Native CoreSVG 326-->
<!DOCTYPE svg
PUBLIC "-//W3C//DTD SVG 1.1//EN"
       "http://www.w3.org/Graphics/SVG/1.1/DTD/svg11.dtd">
<svg version="1.1" xmlns="http://www.w3.org/2000/svg" xmlns:xlink="http://www.w3.org/1999/xlink" viewBox="0 0 675.25 686.25">
 <g>
  <rect height="686.25" opacity="0" width="675.25" x="0" y="0"/>
  <path d="M364.75 213.25L648.5 213.25C637.5 108.75 553.75 1.25 404 1.25C380.5 1.25 364.75 17.25 364.75 41.5ZM276 450.5L482.5 450.5C604.5 450.5 644.5 371.5 649.25 288L655.75 288C666.5 288 675.25 279.25 675.25 268.5C675.25 257.5 666.5 248.75 655.75 248.75L99.25 248.75C88.5 248.75 79.75 257.5 79.75 268.5C79.75 279.25 88.5 288 99.25 288L109 288L122.75 346.5C138.5 410.75 188.75 450.5 276 450.5ZM217.5 269.5L276.25 269.5L111.5 104.75C104.5 98 97.75 95.25 88.25 95.25L21 95.25C9.5 95.25 0 104.75 0 116C0 127.25 9.5 137 21 137L84.75 137ZM212.25 534L241.5 564.25L362.5 443.25L332.5 413.75ZM514.75 567.5L545 538.25L425.25 418.5L392 444.75ZM254.25 616.5L501 616.5L501 579.75L254.25 579.75ZM182.5 686.25C231.75 686.25 270.25 647.5 270.25 598.25C270.25 549 231.75 510.25 182.5 510.25C133.25 510.25 94.5 549 94.5 598.25C94.5 647.5 133.25 686.25 182.5 686.25ZM182.5 649.5C154 649.5 131.25 626.75 131.25 598.25C131.25 569.5 154 547 182.5 547C211.25 547 233.75 569.5 233.75 598.25C233.75 626.75 211.25 649.5 182.5 649.5ZM570.5 681C616.25 681 653 644.25 653 598.25C653 552.25 616.25 515.5 570.5 515.5C524.25 515.5 487.5 552.25 487.5 598.25C487.5 644.25 524.5 681 570.5 681ZM570.5 649.5C541.75 649.5 519 626.75 519 598.25C519 569.5 541.75 547 570.5 547C599 547 621.5 569.5 621.5 598.25C621.5 626.75 599 649.5 570.5 649.5Z" fill="black" fill-opacity="0.85"/>
 </g>
</svg>
