<?xml version="1.0" encoding="UTF-8"?>
<!--Generator: Apple Native CoreSVG 326-->
<!DOCTYPE svg
PUBLIC "-//W3C//DTD SVG 1.1//EN"
       "http://www.w3.org/Graphics/SVG/1.1/DTD/svg11.dtd">
<svg version="1.1" xmlns="http://www.w3.org/2000/svg" xmlns:xlink="http://www.w3.org/1999/xlink" viewBox="0 0 653 693.25">
 <g>
  <rect height="693.25" opacity="0" width="653" x="0" y="0"/>
  <path d="M147 273L107.5 273L122.75 353.5C134.75 418.5 188.75 457.75 276 457.75L482.5 457.75C614.75 457.75 649.75 355 649.75 258.75C649.75 119 556 8.5 404 8.5C380.5 8.5 364.75 24.5 364.75 48.5L364.75 246.75L404 246.75L404 63.25C404 54.75 409.75 49 418.5 49C503.75 49 610.25 111.25 610.25 258.75C610.25 334.75 585.25 418.5 482.5 418.5L276 418.5C209.75 418.5 170.5 391.5 161.75 346.5ZM616.5 240.75L99.25 240.75C88.5 240.75 79.75 249.5 79.75 260.25C79.75 271.25 88.5 280 99.25 280L616.75 280ZM204 263.25L262.75 263.25L111.5 112C104.5 105 97.75 102.25 88.25 102.25L21 102.25C9.5 102.25 0 111.75 0 123C0 134.5 9.5 144 21 144L84.75 144ZM212.25 541L241.5 571.5L362.5 450.5L332.5 420.75ZM514.75 574.75L545 545.25L425.25 425.5L392 452ZM182.5 693.25C231.75 693.25 270.25 654.75 270.25 605.25C270.25 556 231.75 517.5 182.5 517.5C133.25 517.5 94.5 556 94.5 605.25C94.5 654.75 133.25 693.25 182.5 693.25ZM182.5 656.5C154 656.5 131.25 633.75 131.25 605.25C131.25 576.75 154 554.25 182.5 554.25C211.25 554.25 233.75 576.75 233.75 605.25C233.75 633.75 211.25 656.5 182.5 656.5ZM570.5 688.25C616.25 688.25 653 651.25 653 605.25C653 559.25 616.25 522.5 570.5 522.5C524.25 522.5 487.5 559.25 487.5 605.25C487.5 651.25 524.5 688.25 570.5 688.25ZM570.5 656.5C541.75 656.5 519 633.75 519 605.25C519 576.75 541.75 554.25 570.5 554.25C599 554.25 621.5 576.75 621.5 605.25C621.5 633.75 599 656.5 570.5 656.5ZM254.25 623.5L501 623.5L501 587L254.25 587Z" fill="black" fill-opacity="0.85"/>
 </g>
</svg>
