<?xml version="1.0" encoding="UTF-8"?>
<!--Generator: Apple Native CoreSVG 326-->
<!DOCTYPE svg
PUBLIC "-//W3C//DTD SVG 1.1//EN"
       "http://www.w3.org/Graphics/SVG/1.1/DTD/svg11.dtd">
<svg version="1.1" xmlns="http://www.w3.org/2000/svg" xmlns:xlink="http://www.w3.org/1999/xlink" viewBox="0 0 614.75 719.75">
 <g>
  <rect height="719.75" opacity="0" width="614.75" x="0" y="0"/>
  <path d="M107 702.5C119.5 702.5 125 695.75 128 684L155.25 582L463.75 582L490.75 684C493.75 695.75 500 702.5 511.75 702.5C525.75 702.5 533.25 694.5 533.25 682.25C533.25 679.75 533 677 532.25 673.75L480 478.75L503.75 478.75C521.25 478.75 534 467.5 534 452C534 435.5 522.5 424.75 505 424.75L135.75 424.75C107.75 424.75 92.75 410.75 92.75 383.5L92.75 293.25L148 293.25L148 321C148 357 165.75 374 202.75 374L415.25 374C452 374 469.75 357 469.75 321L469.75 293.25L590.75 293.25C605.25 293.25 614.75 285 614.75 272C614.75 259 605.5 250.5 591.75 250.5L21.5 250.5C8.5 250.5 0 259.25 0 272C0 285 9 293.25 22.75 293.25L50.25 293.25L50.25 409C50.25 453.25 76.25 478.75 120.75 478.75L138.75 478.75L86.75 673.75C86 676.75 85.5 679.25 85.5 682.5C85.5 694 92 702.5 107 702.5ZM166.75 539L182.75 478.75L436.25 478.75L452 539ZM200.5 198.75L417.5 198.75C455 198.75 473.25 181.25 473.25 144.75L473.25 54.25C473.25 17.25 455 0 417.5 0L200.5 0C163 0 144.75 17.25 144.75 54.25L144.75 144.75C144.75 181.25 163 198.75 200.5 198.75Z" fill="black" fill-opacity="0.85"/>
 </g>
</svg>
