<?xml version="1.0" encoding="UTF-8"?>
<!--Generator: Apple Native CoreSVG 326-->
<!DOCTYPE svg
PUBLIC "-//W3C//DTD SVG 1.1//EN"
       "http://www.w3.org/Graphics/SVG/1.1/DTD/svg11.dtd">
<svg version="1.1" xmlns="http://www.w3.org/2000/svg" xmlns:xlink="http://www.w3.org/1999/xlink" viewBox="0 0 883.75 754.25">
 <g>
  <rect height="754.25" opacity="0" width="883.75" x="0" y="0"/>
  <path d="M762.5 587.5C774.5 587.5 784.75 578 784.75 565.5C784.75 552.75 774.5 543.25 762.5 543.25L184.25 543.25C155.75 543.25 141.5 529 141.5 500L141.5 177.25C141.5 120.25 115.25 94.25 57.5 94.25L22.25 94.25C10.25 94.25 0 104.5 0 116.25C0 128.25 10.25 138.5 22.25 138.5L54.5 138.5C83 138.5 97.25 152.75 97.25 181.75L97.25 504.5C97.25 561.75 123.75 587.5 181.25 587.5ZM648 753.75C678.75 753.75 704.5 728 704.5 697.5C704.5 666.5 678.75 640.75 648 640.75C617.5 640.75 591.75 666.5 591.75 697.5C591.75 728 617.5 753.75 648 753.75ZM302.25 753.75C332.75 753.75 358.5 728 358.5 697.5C358.5 666.5 332.75 640.75 302.25 640.75C271.75 640.75 246 666.5 246 697.5C246 728 271.75 753.75 302.25 753.75Z" fill="black" fill-opacity="0.85"/>
  <path d="M714 489.5C759 489.5 784.75 465 784.75 422.25L784.75 160.5C784.75 117.5 759 93.25 714 93.25L269 93.25C224 93.25 198.25 117.5 198.25 160.5L198.25 422.25C198.25 465 224 489.5 269 489.5ZM713.75 449.25L269.25 449.25C249.5 449.25 238.75 439 238.75 420.75L238.75 162C238.75 143.5 249.5 133.5 269.25 133.5L713.75 133.5C733.5 133.5 744.25 143.5 744.25 162L744.25 420.75C744.25 439 733.5 449.25 713.75 449.25ZM679.25 472.25L679.25 121.75L639 121.75L639 472.25ZM344 472.25L344 111.5L303.75 111.5L303.75 472.25ZM624.25 116.5L624.25 69.5C624.25 24.5 599.25 0 552.75 0L430.5 0C382.75 0 358.75 23.5 358.75 69.5L358.75 116L397.75 116L397.75 67.25C397.75 48 409 37.5 429.5 37.5L553.5 37.5C574.25 37.5 585 48 585 67.25L585 116.5Z" fill="black" fill-opacity="0.85"/>
 </g>
</svg>
