<?xml version="1.0" encoding="UTF-8"?>
<!--Generator: Apple Native CoreSVG 326-->
<!DOCTYPE svg
PUBLIC "-//W3C//DTD SVG 1.1//EN"
       "http://www.w3.org/Graphics/SVG/1.1/DTD/svg11.dtd">
<svg version="1.1" xmlns="http://www.w3.org/2000/svg" xmlns:xlink="http://www.w3.org/1999/xlink" viewBox="0 0 737 618.75">
 <g>
  <rect height="618.75" opacity="0" width="737" x="0" y="0"/>
  <path d="M135.5 133.5L135.5 591.25L179.75 591.25L179.75 133.5ZM557.25 133.5L557.25 591.25L601.5 591.25L601.5 133.5ZM94.75 618.5L642.25 618.5C705.75 618.5 737 587.75 737 525L737 208.25C737 145.25 705.75 114.5 642.25 114.5L94.75 114.5C31.5 114.5 0 145.25 0 208.25L0 525C0 587.75 31.5 618.5 94.75 618.5ZM95.25 574.5C61.5 574.5 44.25 557.75 44.25 523L44.25 210.25C44.25 175.25 61.5 158.5 95.25 158.5L641.75 158.5C675.75 158.5 692.75 175.25 692.75 210.25L692.75 523C692.75 557.75 675.75 574.5 641.75 574.5ZM208 139L250.75 139L250.75 79.5C250.75 54.75 265.75 40.5 291.75 40.5L445 40.5C471.25 40.5 486.25 54.75 486.25 79.5L486.25 138.5L529 138.5L529 82.5C529 27 498.75 0 444.25 0L292.75 0C240.75 0 208 27 208 82.5Z" fill="black" fill-opacity="0.85"/>
 </g>
</svg>
