<?xml version="1.0" encoding="UTF-8"?>
<!--Generator: Apple Native CoreSVG 326-->
<!DOCTYPE svg
PUBLIC "-//W3C//DTD SVG 1.1//EN"
       "http://www.w3.org/Graphics/SVG/1.1/DTD/svg11.dtd">
<svg version="1.1" xmlns="http://www.w3.org/2000/svg" xmlns:xlink="http://www.w3.org/1999/xlink" viewBox="0 0 979.25 327.25">
 <g>
  <rect height="327.25" opacity="0" width="979.25" x="0" y="0"/>
  <path d="M979.25 23.25C979.25 41 954.25 55.5 948.5 96L942.5 138.25C925.25 259.25 847 326.75 735.75 326.75C659.25 326.75 591 292 553.25 209.75L518.5 133.25C512.75 120.25 502.5 113 489.75 113C477 113 466.75 120.25 460.75 133.25L426 209.75C388.5 292 320 326.75 243.75 326.75C132.25 326.75 54 259.25 37 138.25L31 96C25 55.5 0 41 0 23.25C0 9 10.5 0 30.25 0C130.75 0 221.25 5 275.25 13.25C388.75 30 433.75 59.25 489.75 59.25C545.5 59.25 590.5 30 704 13.25C758.25 5 848.75 0 949 0C969 0 979.25 9 979.25 23.25ZM77.5 106.5C77.5 211.25 136.75 285 244 285C339 285 395 218 395 134.75C395 79.5 322.25 50.5 178.5 50.5C109.25 50.5 77.5 68.25 77.5 106.5ZM584.25 134.75C584.25 218 640.25 285 735.25 285C842.75 285 902 211.25 902 106.5C902 68.25 870 50.5 801 50.5C657.25 50.5 584.25 79.5 584.25 134.75Z" fill="black" fill-opacity="0.85"/>
 </g>
</svg>
