<?xml version="1.0" encoding="UTF-8"?>
<!--Generator: Apple Native CoreSVG 326-->
<!DOCTYPE svg
PUBLIC "-//W3C//DTD SVG 1.1//EN"
       "http://www.w3.org/Graphics/SVG/1.1/DTD/svg11.dtd">
<svg version="1.1" xmlns="http://www.w3.org/2000/svg" xmlns:xlink="http://www.w3.org/1999/xlink" viewBox="0 0 979.25 327.25">
 <g>
  <rect height="327.25" opacity="0" width="979.25" x="0" y="0"/>
  <path d="M489.75 113C502.5 113 512.75 120.25 518.5 133.25L553.25 209.75C591 292 659.25 326.75 735.75 326.75C847 326.75 925.25 259.25 942.5 138.25L948.5 96C954.25 55.5 979.25 41 979.25 23.25C979.25 9 969 0 949 0C848.75 0 758.25 5 704 13.25C590.5 30 545.5 59.25 489.75 59.25C433.75 59.25 388.75 30 275.25 13.25C221.25 5 130.75 0 30.25 0C10.5 0 0 9 0 23.25C0 41 25 55.5 31 96L37 138.25C54 259.25 132.25 326.75 243.75 326.75C320 326.75 388.5 292 426 209.75L460.75 133.25C466.75 120.25 477 113 489.75 113Z" fill="black" fill-opacity="0.85"/>
 </g>
</svg>
