<?xml version="1.0" encoding="UTF-8"?>
<!--Generator: Apple Native CoreSVG 326-->
<!DOCTYPE svg
PUBLIC "-//W3C//DTD SVG 1.1//EN"
       "http://www.w3.org/Graphics/SVG/1.1/DTD/svg11.dtd">
<svg version="1.1" xmlns="http://www.w3.org/2000/svg" xmlns:xlink="http://www.w3.org/1999/xlink" viewBox="0 0 781.438 822.199">
 <g>
  <rect height="822.199" opacity="0" width="781.438" x="0" y="0"/>
  <path d="M35.094 787.224C73.844 825.974 123.344 832.474 189.594 806.974C299.344 764.724 425.344 673.724 543.344 555.724C763.594 335.474 832.594 167.224 743.844 78.4745C655.094-10.2755 486.594 58.7245 266.594 278.974C148.594 396.974 57.594 522.974 15.094 632.474C-10.156 698.974-3.65604 748.474 35.094 787.224ZM66.094 756.224C37.844 727.724 35.844 687.224 59.094 635.724C109.094 527.974 195.594 411.974 297.594 309.724C493.594 113.724 642.594 39.2245 712.844 109.474C783.094 179.724 708.594 328.724 512.344 524.724C410.344 626.724 294.344 713.224 186.594 762.974C135.094 786.474 94.594 784.474 66.094 756.224ZM43.094 761.474L60.594 778.974L732.844 106.974L715.344 89.4745Z" fill="black" fill-opacity="0.85"/>
 </g>
</svg>
