<?xml version="1.0" encoding="UTF-8"?>
<!--Generator: Apple Native CoreSVG 326-->
<!DOCTYPE svg
PUBLIC "-//W3C//DTD SVG 1.1//EN"
       "http://www.w3.org/Graphics/SVG/1.1/DTD/svg11.dtd">
<svg version="1.1" xmlns="http://www.w3.org/2000/svg" xmlns:xlink="http://www.w3.org/1999/xlink" viewBox="0 0 706 679.75">
 <g>
  <rect height="679.75" opacity="0" width="706" x="0" y="0"/>
  <path d="M39.25 610.25L666.75 610.25L666.75 591C666.75 580.25 660.25 573.75 649.25 573.75L628.75 573.75L628.75 213.5L657.75 213.5C673 213.5 681.5 202.75 681.5 191.5C681.5 183.25 677 176 667 170.25L390.75 10.75C378.5 3.75 365.5 0 353 0C340.5 0 327.25 3.75 315.25 10.75L39 170.25C28.75 176 24.5 183.25 24.5 191.5C24.5 202.75 33 213.5 48.25 213.5L77.5 213.5L77.5 573.75L57 573.75C45.75 573.75 39.25 580.25 39.25 591ZM119.25 573.75L119.25 175.5L338.5 52C342.75 49.5 348 48 353 48C357.75 48 362.75 49.5 367.5 52L587 175.5L587 573.75ZM22.25 679.25L683.75 679.25C696 679.25 706 669.25 706 657.25C706 645 696 635 683.75 635L22.25 635C10 635 0 645 0 657.25C0 669.25 10 679.25 22.25 679.25Z" fill="black" fill-opacity="0.85"/>
  <path d="M247.75 472C256.75 472 263.25 465.25 263.25 455.25L263.25 396.5L283 376.75L345.25 464C348.5 469 353 472 359 472C367.5 472 374 466 374 458C374 454 372.25 450.5 369.75 446.75L305.5 357.25L365.75 293.25C369.5 289 371.25 286.75 371.25 281.75C371.25 274.5 365.25 268.25 357.25 268.25C353 268.25 348 270.75 345.25 274.25L264.25 363L263.25 363L263.25 207.75C263.25 198 256.75 191 247.75 191C238.5 191 231.75 197.75 231.75 207.5L231.75 455.25C231.75 465.25 238.5 472 247.75 472ZM427 472C434.25 472 442 467.5 442 455.25L442 350.25C442 326.25 451.25 298.5 480 298.5C486 298.5 492 298 496.5 295.75C500.75 294 503.25 290.25 503.25 285C503.25 274 494 268.25 483 268.25C461.75 268.25 447.75 286.25 442.75 307.75L440.75 307.75L440.75 284C440.75 275 434.5 268.25 426.5 268.25C418 268.25 412 275 412 284L412 455.25C412 465.25 417.25 472 427 472Z" fill="black" fill-opacity="0.85"/>
 </g>
</svg>
