<?xml version="1.0" encoding="UTF-8"?>
<!--Generator: Apple Native CoreSVG 326-->
<!DOCTYPE svg
PUBLIC "-//W3C//DTD SVG 1.1//EN"
       "http://www.w3.org/Graphics/SVG/1.1/DTD/svg11.dtd">
<svg version="1.1" xmlns="http://www.w3.org/2000/svg" xmlns:xlink="http://www.w3.org/1999/xlink" viewBox="0 0 726.875 719.375">
 <g>
  <rect height="719.375" opacity="0" width="726.875" x="0" y="0"/>
  <path d="M6.0625 713.312C13.3125 720.562 25.3125 720.312 32.8125 712.812L187.562 557.812L161.062 531.062L6.0625 686.062C-1.6875 693.562-2.1875 705.812 6.0625 713.312ZM420.062 134.062L374.562 179.812L453.062 258.312C458.062 263.562 458.312 272.812 453.062 277.562C447.312 282.812 439.562 282.812 433.812 277.562L355.062 198.812L307.312 246.812L386.062 325.062C391.312 330.812 391.312 339.312 386.312 344.562C380.562 349.812 372.562 349.562 366.812 344.562L288.562 265.812L240.312 313.812L318.812 392.562C324.062 397.812 324.312 406.312 319.062 411.562C313.562 417.062 305.312 417.062 299.812 411.562L221.062 333.062L173.312 381.062L251.812 459.312C257.062 464.312 257.062 472.812 252.062 478.312C246.812 484.062 238.562 484.062 232.562 478.562L154.312 399.812L116.562 437.312C85.0625 469.062 84.5625 507.062 114.562 537.312L182.312 605.312C212.562 635.562 251.062 634.562 282.562 602.812L585.812 299.812ZM408.562 77.5625L642.562 311.562C651.312 320.312 665.312 320.312 673.812 311.562C682.562 303.062 682.562 288.812 673.812 280.312L639.562 245.812L654.812 230.562C663.562 222.062 663.812 208.062 655.062 199.562L604.812 149.562L649.812 104.812L689.062 144.312C697.812 152.812 712.062 152.812 720.312 144.312C729.062 135.812 729.062 121.562 720.312 112.812L614.062 6.5625C605.312-2.1875 591.312-2.1875 582.562 6.5625C574.062 14.8125 574.062 29.0625 582.562 37.8125L622.062 77.3125L577.562 121.812L520.562 65.0625C512.312 56.8125 498.062 56.5625 489.312 65.0625L474.062 80.3125L440.062 46.3125C431.062 37.3125 417.312 37.8125 408.562 46.3125C400.062 55.0625 399.562 68.5625 408.562 77.5625Z" fill="black" fill-opacity="0.85"/>
 </g>
</svg>
