<?xml version="1.0" encoding="UTF-8"?>
<!--Generator: Apple Native CoreSVG 326-->
<!DOCTYPE svg
PUBLIC "-//W3C//DTD SVG 1.1//EN"
       "http://www.w3.org/Graphics/SVG/1.1/DTD/svg11.dtd">
<svg version="1.1" xmlns="http://www.w3.org/2000/svg" xmlns:xlink="http://www.w3.org/1999/xlink" viewBox="0 0 726.875 719.375">
 <g>
  <rect height="719.375" opacity="0" width="726.875" x="0" y="0"/>
  <path d="M6.0625 713.312C13.3125 720.562 25.3125 720.312 32.8125 712.812L172.062 573.562L145.062 546.812L6.0625 686.062C-1.6875 693.562-2.1875 705.812 6.0625 713.312ZM118.062 541.312L179.062 601.562C210.562 632.812 253.562 632.062 286.312 599.312L624.312 261.312L593.062 229.812L254.562 568.312C240.812 582.312 222.312 581.812 207.812 567.562L152.062 511.812C137.812 497.812 137.812 479.312 151.812 465.062L490.062 127.062L458.562 95.5625L120.562 433.812C87.3125 467.312 86.5625 510.062 118.062 541.312ZM169.812 397.812L248.062 476.562C253.812 482.062 262.062 481.812 267.562 476.312C272.562 471.062 272.312 462.312 267.312 457.312L188.812 379.062ZM237.062 331.312L315.312 409.562C320.812 414.812 329.062 414.812 334.562 409.562C339.562 404.312 339.312 395.812 334.312 390.562L255.812 312.062ZM304.062 263.812L382.312 342.562C387.812 347.562 396.062 347.812 401.562 342.562C406.812 337.062 406.812 328.812 401.312 323.062L323.062 245.062ZM371.062 197.062L449.312 275.562C454.812 280.812 463.062 280.812 468.312 275.562C473.812 270.562 473.562 261.562 468.312 256.312L390.062 178.062ZM408.562 77.5625L642.562 311.562C651.312 320.312 665.312 320.312 673.812 311.562C682.562 303.062 682.562 288.812 673.812 280.312L440.062 46.3125C431.062 37.3125 417.312 37.8125 408.562 46.3125C400.062 55.0625 399.562 68.5625 408.562 77.5625ZM465.562 88.8125L630.812 254.812L654.812 230.562C663.562 222.062 663.812 208.062 655.062 199.562L604.812 149.562L649.812 104.812L689.062 144.312C697.812 152.812 712.062 152.812 720.312 144.312C729.062 135.812 729.062 121.562 720.312 112.812L614.062 6.5625C605.312-2.1875 591.312-2.1875 582.562 6.5625C574.062 14.8125 574.062 29.0625 582.562 37.8125L622.062 77.3125L577.562 121.812L520.562 65.0625C512.312 56.8125 498.062 56.5625 489.312 65.0625Z" fill="black" fill-opacity="0.85"/>
 </g>
</svg>
