<?xml version="1.0" encoding="UTF-8"?>
<!--Generator: Apple Native CoreSVG 326-->
<!DOCTYPE svg
PUBLIC "-//W3C//DTD SVG 1.1//EN"
       "http://www.w3.org/Graphics/SVG/1.1/DTD/svg11.dtd">
<svg version="1.1" xmlns="http://www.w3.org/2000/svg" xmlns:xlink="http://www.w3.org/1999/xlink" viewBox="0 0 715.25 750.188">
 <g>
  <rect height="750.188" opacity="0" width="715.25" x="0" y="0"/>
  <path d="M374.75 716.469L690.5 399.969C713.5 377.219 715.25 364.969 715.25 330.969L715.25 208.219C715.25 175.719 708.25 165.969 683.75 141.719L609 66.7188C584.5 42.2188 574.75 35.4688 542.25 35.4688L419.75 35.4688C385.5 35.4688 373.5 37.2188 350.5 59.9688L33.75 375.719C-11 420.219-11.5 466.719 34 511.719L238.75 716.219C284.25 761.719 330.25 761.219 374.75 716.469ZM345 683.469C320 708.469 293.75 708.719 268.25 683.219L67 481.969C41.75 456.469 42 429.969 66.75 405.469L381.75 91.2188C389.25 83.9688 397 79.7188 408.5 79.7188L544.5 79.7188C555.5 79.7188 563 83.7188 570.75 91.2188L659.25 179.719C667 187.469 670.75 195.219 670.75 206.219L670.75 341.969C670.75 353.719 666.75 361.469 659.25 368.719ZM505.5 286.219C528.75 286.219 546.5 268.219 546.5 245.219C546.5 222.219 528.75 204.219 505.5 204.219C482 204.219 464.25 222.219 464.25 245.219C464.25 268.219 482 286.219 505.5 286.219Z" fill="black" fill-opacity="0.85"/>
 </g>
</svg>
