<?xml version="1.0" encoding="UTF-8"?>
<!--Generator: Apple Native CoreSVG 326-->
<!DOCTYPE svg
PUBLIC "-//W3C//DTD SVG 1.1//EN"
       "http://www.w3.org/Graphics/SVG/1.1/DTD/svg11.dtd">
<svg version="1.1" xmlns="http://www.w3.org/2000/svg" xmlns:xlink="http://www.w3.org/1999/xlink" viewBox="0 0 676.772 787.75">
 <g>
  <rect height="787.75" opacity="0" width="676.772" x="0" y="0"/>
  <path d="M338.136 444.5C457.386 444.5 554.136 347.75 554.136 228.5C554.136 223 553.886 217.75 553.386 212.25C607.136 208 649.136 163.25 649.136 108.5C649.136 51 602.386 4.5 544.886 4.5C509.386 4.5 477.886 22.5 459.136 49.75C424.636 26.25 383.136 12.5 338.136 12.5C293.386 12.5 251.886 26.25 217.136 49.75C198.386 22.5 167.136 4.5 131.386 4.5C73.886 4.5 27.136 51 27.136 108.5C27.136 163.25 69.386 208 122.886 212.25C122.386 217.75 122.136 223 122.136 228.5C122.136 347.75 218.886 444.5 338.136 444.5ZM256.136 213.5C241.886 213.5 229.636 201.5 229.636 186.75C229.636 172 241.886 159.75 256.136 159.75C270.886 159.75 283.136 172 283.136 186.75C283.136 201.5 270.886 213.5 256.136 213.5ZM420.386 213.5C405.886 213.5 393.386 201.5 393.386 186.75C393.386 172 405.886 159.75 420.386 159.75C434.886 159.75 447.136 172 447.136 186.75C447.136 201.5 434.886 213.5 420.386 213.5ZM131.386 46C154.136 46 174.136 58 184.886 76.75C159.386 102.25 139.886 134.75 130.136 170.5C128.136 170.5 126.386 170.25 124.636 170C93.386 166.75 69.136 140.5 69.136 108.5C69.136 74 97.136 46 131.386 46ZM544.886 46C579.386 46 607.386 74 607.386 108.5C607.386 140.25 583.136 167 551.636 170C549.886 170.25 547.386 170.5 546.386 170.5C536.386 134.75 517.136 102.25 491.636 76.75C502.136 58 522.386 46 544.886 46ZM338.636 420.5C283.636 420.5 239.386 376.25 239.386 321C239.386 266.75 283.886 221.75 338.636 221.75C393.386 221.75 437.886 266.5 437.886 321C437.886 376 393.136 420.5 338.636 420.5ZM338.136 334C356.886 334 388.886 304.75 388.886 296.75C388.886 283.5 367.386 264.75 338.136 264.75C308.636 264.75 286.636 283.5 286.636 296.75C286.636 304.75 319.886 334 338.136 334ZM613.636 405.5L494.136 351.25L367.136 433.25L309.386 433.25L182.886 351.25L63.136 405.5C8.38601 430.25-14.864 495.75 10.136 550C23.386 578.25 47.636 598.5 76.636 606.5C93.136 545.75 138.386 502.75 193.136 502.75C262.386 502.75 316.386 572 316.386 658.25C316.386 696.75 305.636 731.75 287.636 759C321.136 764.25 355.136 764 389.136 759C371.386 731.75 360.386 696.75 360.386 658.25C360.386 572 414.636 502.75 483.886 502.75C538.636 502.75 583.636 545.75 600.136 606.5C628.886 598.25 653.386 578.25 666.636 550C691.886 495.75 668.386 430.25 613.636 405.5ZM193.136 787.75C247.386 787.75 289.886 729.5 289.886 658.25C289.886 587.5 247.386 529.25 193.136 529.25C138.886 529.25 96.386 587.5 96.386 658.25C96.386 729.5 138.886 787.75 193.136 787.75ZM483.886 787.75C538.136 787.75 580.636 729.5 580.636 658.25C580.636 587.5 538.136 529.25 483.886 529.25C429.386 529.25 386.886 587.5 386.886 658.25C386.886 729.5 429.386 787.75 483.886 787.75Z" fill="black" fill-opacity="0.85"/>
 </g>
</svg>
