<?xml version="1.0" encoding="UTF-8"?>
<!--Generator: Apple Native CoreSVG 326-->
<!DOCTYPE svg
PUBLIC "-//W3C//DTD SVG 1.1//EN"
       "http://www.w3.org/Graphics/SVG/1.1/DTD/svg11.dtd">
<svg version="1.1" xmlns="http://www.w3.org/2000/svg" xmlns:xlink="http://www.w3.org/1999/xlink" viewBox="0 0 706 679.75">
 <g>
  <rect height="679.75" opacity="0" width="706" x="0" y="0"/>
  <path d="M39.25 610.25L666.75 610.25L666.75 591C666.75 580.25 660.25 573.75 649.25 573.75L628.75 573.75L628.75 213.5L657.75 213.5C673 213.5 681.5 202.75 681.5 191.5C681.5 183.25 677 176 667 170.25L390.75 10.75C378.5 3.75 365.5 0 353 0C340.5 0 327.25 3.75 315.25 10.75L39 170.25C28.75 176 24.5 183.25 24.5 191.5C24.5 202.75 33 213.5 48.25 213.5L77.5 213.5L77.5 573.75L57 573.75C45.75 573.75 39.25 580.25 39.25 591ZM119.25 573.75L119.25 175.5L338.5 52C342.75 49.5 348 48 353 48C357.75 48 362.75 49.5 367.5 52L587 175.5L587 573.75ZM22.25 679.25L683.75 679.25C696 679.25 706 669.25 706 657.25C706 645 696 635 683.75 635L22.25 635C10 635 0 645 0 657.25C0 669.25 10 679.25 22.25 679.25Z" fill="black" fill-opacity="0.85"/>
  <path d="M353.5 486.75C363 486.75 370 479.5 370 469.75L370 279.25L449 279.25C456.75 279.25 462.25 273.25 462.25 266C462.25 258.5 456.75 253 449 253L257.5 253C249.75 253 244.25 258.5 244.25 266C244.25 273.25 249.75 279.25 257.5 279.25L336.75 279.25L336.75 469.75C336.75 479.5 344 486.75 353.5 486.75ZM243.25 205.25C243.25 211 247.75 215 253.25 215L452.25 215C458 215 462.25 210.75 462.25 205.25C462.25 200 458 195.5 452.25 195.5L253.25 195.5C247.75 195.5 243.25 200 243.25 205.25Z" fill="black" fill-opacity="0.85"/>
 </g>
</svg>
