<?xml version="1.0" encoding="UTF-8"?>
<!--Generator: Apple Native CoreSVG 326-->
<!DOCTYPE svg
PUBLIC "-//W3C//DTD SVG 1.1//EN"
       "http://www.w3.org/Graphics/SVG/1.1/DTD/svg11.dtd">
<svg version="1.1" xmlns="http://www.w3.org/2000/svg" xmlns:xlink="http://www.w3.org/1999/xlink" viewBox="0 0 706 679.75">
 <g>
  <rect height="679.75" opacity="0" width="706" x="0" y="0"/>
  <path d="M390.75 10.75L667 170.25C677 176 681.5 183.25 681.5 191.5C681.5 202.75 673 213.5 657.75 213.5L628.75 213.5L628.75 595.25L649.25 595.25C660.25 595.25 666.75 601.75 666.75 612.5L666.75 635L683.75 635C696 635 706 645 706 657.25C706 669.25 696 679.25 683.75 679.25L22.25 679.25C10 679.25 0 669.25 0 657.25C0 645 10 635 22.25 635L39.25 635L39.25 612.5C39.25 601.75 45.75 595.25 57 595.25L77.5 595.25L77.5 213.5L48.25 213.5C33 213.5 24.5 202.75 24.5 191.5C24.5 183.25 28.75 176 39 170.25L315.25 10.75C327.25 3.75 340.5 0 353 0C365.5 0 378.5 3.75 390.75 10.75ZM255.25 279.5C247.25 279.5 241.5 285.25 241.5 293C241.5 300.5 247.25 306.5 255.25 306.5L336.25 306.5L336.25 501.75C336.25 512 343.75 519.5 353.5 519.5C363.25 519.5 370.5 512 370.5 501.75L370.5 306.5L451.25 306.5C459.25 306.5 465 300.5 465 293C465 285.25 459.25 279.5 451.25 279.5ZM250.75 220.75C245.25 220.75 240.5 225.25 240.5 230.75C240.5 236.5 245.25 240.75 250.75 240.75L454.75 240.75C460.5 240.75 465 236.25 465 230.75C465 225.25 460.5 220.75 454.75 220.75Z" fill="black" fill-opacity="0.85"/>
 </g>
</svg>
