<?xml version="1.0" encoding="UTF-8"?>
<!--Generator: Apple Native CoreSVG 326-->
<!DOCTYPE svg
PUBLIC "-//W3C//DTD SVG 1.1//EN"
       "http://www.w3.org/Graphics/SVG/1.1/DTD/svg11.dtd">
<svg version="1.1" xmlns="http://www.w3.org/2000/svg" xmlns:xlink="http://www.w3.org/1999/xlink" viewBox="0 0 651.25 651.75">
 <g>
  <rect height="651.75" opacity="0" width="651.25" x="0" y="0"/>
  <path d="M651.25 325.75C651.25 505 505 651.25 325.5 651.25C146.25 651.25 0 505 0 325.75C0 146.25 146.25 0 325.5 0C505 0 651.25 146.25 651.25 325.75ZM309.5 150.25C313.5 162.75 315.25 176.25 315.25 190.25C315.25 264.25 256 323.75 181.75 323.75C170.5 323.75 159.25 322.5 148.5 319.75C148.5 322 148.25 324 148.25 326.5C148.25 423.25 228.25 503.25 325 503.25C330.5 503.25 336.5 503 342 502.25C337.5 489.5 335.75 475.5 335.75 461.5C335.75 387.25 394.75 327.75 469 327.75C480.25 327.75 491 329 501.75 332C501.75 330 501.75 328.25 501.75 326.5C501.75 229.25 421.75 149.75 325 149.75C319.75 149.75 314.75 149.75 309.5 150.25ZM358.75 461.5C358.75 474.5 360.75 487.25 365.25 498.5C434 482 488 425 499.5 355.25C490 352.5 480 351 469 351C406.25 351 358.75 398.5 358.75 461.5ZM151 296.25C160.5 299 171 300.5 181.75 300.5C244.25 300.5 292 253 292 190.25C292 177.5 290 165.25 286 154.25C217.25 169.75 163.25 226.5 151 296.25Z" fill="black" fill-opacity="0.85"/>
 </g>
</svg>
