<?xml version="1.0" encoding="UTF-8"?>
<!--Generator: Apple Native CoreSVG 326-->
<!DOCTYPE svg
PUBLIC "-//W3C//DTD SVG 1.1//EN"
       "http://www.w3.org/Graphics/SVG/1.1/DTD/svg11.dtd">
<svg version="1.1" xmlns="http://www.w3.org/2000/svg" xmlns:xlink="http://www.w3.org/1999/xlink" viewBox="0 0 952.75 658.25">
 <g>
  <rect height="658.25" opacity="0" width="952.75" x="0" y="0"/>
  <path d="M189.5 658.25L763 658.25C799.5 658.25 810.25 626.25 795.75 597.25L617.75 239.75L905.75 643.75C912.5 653.5 921.25 657 929.5 657C941.5 657 952.75 649.75 952.75 633.5L952.75 540C952.75 529.5 944.25 521 933.75 521C923.5 521 915 529.5 915 540L915 592.75L512 27.75C492.5 1 459.75 1.25 440.75 27.75L37.75 592.75L37.75 540C37.75 529.5 29.25 521 18.75 521C8.5 521 0 529.5 0 540L0 633.5C0 649.75 11.25 657 23.25 657C31.5 657 40 653.5 47 643.75L335 239.75L157 597.25C142.25 626.25 153.25 658.25 189.5 658.25ZM318.75 616L457.75 318.75C461.5 310.5 468.75 306.5 476.25 306.5C483.75 306.5 490.75 310.5 494.75 318.75L633.75 616L527.25 616L476.25 387L425.25 616Z" fill="black" fill-opacity="0.85"/>
 </g>
</svg>
