<?xml version="1.0" encoding="UTF-8"?>
<!--Generator: Apple Native CoreSVG 326-->
<!DOCTYPE svg
PUBLIC "-//W3C//DTD SVG 1.1//EN"
       "http://www.w3.org/Graphics/SVG/1.1/DTD/svg11.dtd">
<svg version="1.1" xmlns="http://www.w3.org/2000/svg" xmlns:xlink="http://www.w3.org/1999/xlink" viewBox="0 0 651.25 651.75">
 <g>
  <rect height="651.75" opacity="0" width="651.25" x="0" y="0"/>
  <path d="M325.5 651.25C505.25 651.25 651.25 505.5 651.25 325.75C651.25 146 505.25 0 325.5 0C145.75 0 0 146 0 325.75C0 505.5 145.75 651.25 325.5 651.25ZM325.5 604.75C171.25 604.75 46.5 480 46.5 325.75C46.5 171.5 171.25 46.75 325.5 46.75C479.75 46.75 604.5 171.5 604.5 325.75C604.5 480 479.75 604.75 325.5 604.75Z" fill="black" fill-opacity="0.85"/>
  <path d="M243.75 460L513.5 460C530.25 460 535.25 445.25 528.75 432L396.75 167.25C392.75 159.75 386.25 155.25 378.75 155.25C371.25 155.25 364.5 159.5 361 167L228.75 432C222 445.25 227.25 460 243.75 460ZM306.25 437.75L370.25 301C373.75 293 383 293 387.25 301L451 437.75L402 437.75L378.75 332.75L355.5 437.75ZM231.25 387.5L214.75 312.5L197.75 387.5L162.75 387.5L208.75 289.25C211.5 282.75 218.5 284 221 289.25L263.25 380L293.5 320L229.75 192.5C226.5 186.5 220.75 182.25 214.75 182.25C208.25 182.25 202.5 186.5 199.5 192.5L103.25 385.75C97.75 397 102.25 410 116.25 410L248.25 410L259.25 387.5Z" fill="black" fill-opacity="0.85"/>
 </g>
</svg>
