<?xml version="1.0" encoding="UTF-8"?>
<!--Generator: Apple Native CoreSVG 326-->
<!DOCTYPE svg
PUBLIC "-//W3C//DTD SVG 1.1//EN"
       "http://www.w3.org/Graphics/SVG/1.1/DTD/svg11.dtd">
<svg version="1.1" xmlns="http://www.w3.org/2000/svg" xmlns:xlink="http://www.w3.org/1999/xlink" viewBox="0 0 651.25 651.75">
 <g>
  <rect height="651.75" opacity="0" width="651.25" x="0" y="0"/>
  <path d="M651.25 326C651.25 505.5 505 651.75 325.5 651.75C146.25 651.75 0 505.5 0 326C0 146.75 146.25 0.5 325.5 0.5C505 0.5 651.25 146.75 651.25 326ZM361.75 164.25L288.5 311.5L227.75 190.25C224.5 183.75 218.5 179.75 212.25 179.75C205.5 179.75 199.5 183.75 196.5 190.25L98 388C92.25 399.5 97 413 111.25 413L237.75 413L226.5 435.25C219.5 449 225 464 242 464L517.75 464C535.25 464 540.5 449 533.75 435.25L398.75 164.5C394.75 156.5 387.75 151.75 380.25 151.75C372.5 151.75 365.25 156.25 361.75 164.25ZM389 301L454.25 441.25L404 441.25L380.25 333.75L356.25 441.25L306 441.25L371.25 301C373 297 376.25 295 380.25 295C383.5 295 387 297 389 301ZM218.5 289.25L257.5 373L249.25 389.5L229.25 389.5L212.25 313L194.75 389.5L158.75 389.5L206 289.25C207.25 286.25 209 285 212.25 285C214.5 285 217.5 286.25 218.5 289.25Z" fill="black" fill-opacity="0.85"/>
 </g>
</svg>
