<?xml version="1.0" encoding="UTF-8"?>
<!--Generator: Apple Native CoreSVG 326-->
<!DOCTYPE svg
PUBLIC "-//W3C//DTD SVG 1.1//EN"
       "http://www.w3.org/Graphics/SVG/1.1/DTD/svg11.dtd">
<svg version="1.1" xmlns="http://www.w3.org/2000/svg" xmlns:xlink="http://www.w3.org/1999/xlink" viewBox="0 0 918.197 658.75">
 <g>
  <rect height="658.75" opacity="0" width="918.197" x="0" y="0"/>
  <path d="M276.349 88.5L401.481 339.683L377.963 386.866L246.099 121.75C245.349 120.5 244.099 119.5 243.099 119.5C241.849 119.5 240.849 120.5 240.099 121.75L49.8486 504.25C48.5986 507 49.0986 509.5 52.8486 509.5L128.599 509.5L229.849 293.5C232.599 287.5 237.599 284.5 243.099 284.5C248.599 284.5 253.349 287.5 256.349 293.5L337.843 467.355L295.777 551.75L33.8486 551.75C3.09857 551.75-7.15143 523.5 5.09857 499L209.849 88.5C216.599 75 229.099 66.25 243.099 66.25C256.849 66.25 269.349 75 276.349 88.5ZM205.47 509.5L280.499 509.5L243.099 343.25Z" fill="black" fill-opacity="0.85"/>
  <path d="M305.599 658.75L879.349 658.75C915.599 658.75 926.599 626.75 911.849 597.75L631.099 34.5C623.349 18 608.349 8.5 592.349 8.5C576.349 8.5 561.599 18 553.599 34.5L272.849 597.75C258.349 626.75 269.349 658.75 305.599 658.75ZM323.099 616.25C315.599 616.25 313.849 610.75 316.849 604.5L587.099 62C589.599 57 595.349 57 597.599 62L868.099 604.5C871.349 611.25 869.849 616.25 863.349 616.25ZM424.849 637L536.099 637L592.349 386.75L648.849 637L759.849 637L610.849 318.75C606.849 310.25 599.849 306.25 592.349 306.25C584.849 306.25 578.099 310.25 573.849 318.75Z" fill="black" fill-opacity="0.85"/>
 </g>
</svg>
