<?xml version="1.0" encoding="UTF-8"?>
<!--Generator: Apple Native CoreSVG 326-->
<!DOCTYPE svg
PUBLIC "-//W3C//DTD SVG 1.1//EN"
       "http://www.w3.org/Graphics/SVG/1.1/DTD/svg11.dtd">
<svg version="1.1" xmlns="http://www.w3.org/2000/svg" xmlns:xlink="http://www.w3.org/1999/xlink" viewBox="0 0 631.25 661.25">
 <g>
  <rect height="661.25" opacity="0" width="631.25" x="0" y="0"/>
  <path d="M560 543.75C560 587.25 531 616.25 487.5 616.25C443.75 616.25 414.5 587.25 414.5 543.75L414.5 515L560 515Z" fill="black" fill-opacity="0.85"/>
  <path d="M631.25 23C631.25 35.5 620.75 46.25 608 46.25L604 46.25L604 543.75C604 613.75 557.5 660.25 487.5 660.25C417 660.25 370.25 613.75 370.25 543.75L370.25 46.25L366.75 46.25C353 46.25 343.5 35.5 343.5 23C343.5 10.25 353 0 366.75 0L608 0C620.75 0 631.25 10.25 631.25 23ZM414.5 46.25L414.5 202.25L484.5 202.25C493.75 202.25 501.5 209.75 501.5 218.75C501.5 228.25 494.25 235.5 484.75 235.5L414.5 235.5L414.5 307.75L484.75 307.75C494 307.75 501.5 315.25 501.5 324C501.5 333.5 494.25 340.75 484.75 340.75L414.5 340.75L414.5 413L484.5 413C493.75 413 501.25 420.5 501.25 429.25C501.5 438.75 494.5 446 484.5 446L414.5 446L414.5 543.75C414.5 587.25 443.75 616.25 487.5 616.25C531 616.25 560 587.25 560 543.75L560 46.25Z" fill="black" fill-opacity="0.85"/>
  <path d="M216.25 130.25L216.25 543.75C216.25 587.25 187.25 616.25 144 616.25C100 616.25 71 587.25 71 543.75L71 446L141 446C151 446 157.75 438.75 157.5 429.25C157.5 420.5 150 413 141 413L71 413L71 340.75L141.25 340.75C150.75 340.75 157.75 333.5 157.75 324C157.75 315.25 150.25 307.75 141.25 307.75L71 307.75L71 235.5L141.25 235.5C150.75 235.5 157.75 228.25 157.75 218.75C157.75 209.75 150 202.25 141 202.25L71 202.25L71 130.25Z" fill="black" fill-opacity="0.85"/>
  <path d="M287.75 23C287.75 35.5 277.25 46.25 264.5 46.25L260.5 46.25L260.5 543.75C260.5 613.75 214 660.25 144 660.25C73.5 660.25 26.75 613.75 26.75 543.75L26.75 46.25L23.25 46.25C9.5 46.25 0 35.5 0 23C0 10.25 9.5 0 23.25 0L264.5 0C277.25 0 287.75 10.25 287.75 23ZM71 46.25L71 543.75C71 587.25 100 616.25 144 616.25C187.25 616.25 216.25 587.25 216.25 543.75L216.25 46.25Z" fill="black" fill-opacity="0.85"/>
 </g>
</svg>
