<?xml version="1.0" encoding="UTF-8"?>
<!--Generator: Apple Native CoreSVG 326-->
<!DOCTYPE svg
PUBLIC "-//W3C//DTD SVG 1.1//EN"
       "http://www.w3.org/Graphics/SVG/1.1/DTD/svg11.dtd">
<svg version="1.1" xmlns="http://www.w3.org/2000/svg" xmlns:xlink="http://www.w3.org/1999/xlink" viewBox="0 0 536.75 689.25">
 <g>
  <rect height="689.25" opacity="0" width="536.75" x="0" y="0"/>
  <path d="M140.5 432.25C129.25 432.25 121.25 424.25 121.25 413.75C121.25 403.5 129.25 395.5 140.5 395.5L397.5 395.5C408.25 395.5 416.5 403.5 416.5 413.75C416.5 424.25 408.25 432.25 397.5 432.25ZM140.5 552.75C129.25 552.75 121.25 544.75 121.25 534.25C121.25 524 129.25 516 140.5 516L397.5 516C408.25 516 416.5 524 416.5 534.25C416.5 544.75 408.25 552.75 397.5 552.75ZM96.25 689.25L440.5 689.25C504.5 689.25 536.75 656.25 536.75 592L536.75 292L305 292C266 292 247.5 273.25 247.5 234.25L247.5 0.25L96.25 0.25C32.75 0.25 0 33 0 97.5L0 592C0 656.5 32.25 689.25 96.25 689.25ZM306.5 252L532.75 252C530.75 240.25 522.25 229 509 215.75L323.75 28C311 14.75 299 6 287.5 4L287.5 233C287.5 245.75 293.75 252 306.5 252Z" fill="black" fill-opacity="0.85"/>
 </g>
</svg>
