<?xml version="1.0" encoding="UTF-8"?>
<!--Generator: Apple Native CoreSVG 326-->
<!DOCTYPE svg
PUBLIC "-//W3C//DTD SVG 1.1//EN"
       "http://www.w3.org/Graphics/SVG/1.1/DTD/svg11.dtd">
<svg version="1.1" xmlns="http://www.w3.org/2000/svg" xmlns:xlink="http://www.w3.org/1999/xlink" viewBox="0 0 624.75 630.75">
 <g>
  <rect height="630.75" opacity="0" width="624.75" x="0" y="0"/>
  <path d="M0 253C0 392.25 113.5 505.75 253 505.75C309.25 505.75 361 487.25 403 456L567.75 621C574 627.5 582.75 630.75 591.75 630.75C611.5 630.75 624.75 615.75 624.75 597C624.75 587.75 621.5 579.75 615.5 573.5L451.5 408.75C485.5 366 506 311.75 506 253C506 113.5 392.5 0 253 0C113.5 0 0 113.5 0 253ZM46.75 253C46.75 139.25 139.25 46.75 253 46.75C366.75 46.75 459 139.25 459 253C459 366.5 366.75 459 253 459C139.25 459 46.75 366.5 46.75 253ZM150.25 230.5L357.5 230.5C368.25 230.5 376.75 221.75 376.75 210.75C376.75 200 368.25 191.5 357.5 191.5L150.25 191.5C139 191.5 130.75 200 130.75 210.75C130.75 221.75 139 230.5 150.25 230.5ZM150.25 314L300.25 314C311 314 320 305.5 320 294.5C320 283.75 311 275 300.25 275L150.25 275C139 275 130.75 283.75 130.75 294.5C130.75 305.5 139 314 150.25 314Z" fill="black" fill-opacity="0.85"/>
 </g>
</svg>
