<?xml version="1.0" encoding="UTF-8"?>
<!--Generator: Apple Native CoreSVG 326-->
<!DOCTYPE svg
PUBLIC "-//W3C//DTD SVG 1.1//EN"
       "http://www.w3.org/Graphics/SVG/1.1/DTD/svg11.dtd">
<svg version="1.1" xmlns="http://www.w3.org/2000/svg" xmlns:xlink="http://www.w3.org/1999/xlink" viewBox="0 0 1077.43 737.672">
 <g>
  <rect height="737.672" opacity="0" width="1077.43" x="0" y="0"/>
  <path d="M685.588 87.961L1007.09 174.961C1066.09 190.711 1087.84 227.961 1072.84 285.711L1012.09 512.711C967.838 676.711 849.588 748.211 692.338 706.711C598.888 681.414 537.236 627.952 512.214 554.223C526.974 540.274 539.148 524.558 548.79 507.302C561.889 583.493 615.385 638.769 704.088 662.961C833.338 697.211 930.838 636.961 967.588 501.211L1027.84 276.461C1036.59 245.461 1025.59 226.211 994.838 217.961L674.338 132.211C643.588 124.211 625.088 134.961 617.088 165.961L572.825 330.39C570.965 318.874 568.326 307.033 565.088 294.961L549.995 238.627L573.338 152.211C589.338 93.711 626.588 72.211 685.588 87.961ZM754.838 466.211C817.338 482.211 859.088 530.211 860.588 588.461C861.338 604.211 846.588 611.211 834.838 600.461C802.088 570.961 771.338 553.711 734.338 544.211C697.588 533.961 660.088 533.711 618.588 542.711C603.088 545.961 593.588 532.211 601.838 519.211C632.588 470.211 692.338 449.461 754.838 466.211ZM893.338 333.961C916.838 340.211 930.588 364.211 924.588 387.711C918.088 410.961 894.088 424.961 870.838 418.711C847.338 412.461 833.588 388.211 840.088 364.711C846.088 341.461 870.088 327.461 893.338 333.961ZM703.838 283.211C727.588 289.961 741.088 313.961 735.338 337.461C728.838 360.961 704.588 374.711 681.588 368.211C658.088 361.961 644.088 338.211 650.338 314.461C656.838 291.211 680.838 277.211 703.838 283.211Z" fill="black" fill-opacity="0.85"/>
  <path d="M385.338 622.961C542.338 580.211 609.088 458.961 565.088 294.961L504.338 68.211C488.588 10.211 450.838-10.539 391.838 4.96096L70.0876 90.461C11.0876 106.211-10.6624 143.211 5.0876 202.211L65.3376 428.711C108.838 592.461 228.088 664.711 385.338 622.961ZM373.588 578.961C244.088 612.961 146.088 552.711 109.838 416.961L49.5876 191.961C41.3376 161.211 51.8376 142.461 82.3376 134.211L403.088 48.211C433.588 39.961 452.588 51.211 460.838 82.461L520.838 306.961C557.088 443.211 502.838 544.211 373.588 578.961ZM196.588 302.711C219.088 296.711 230.588 307.461 240.088 304.961C246.588 303.461 250.088 294.711 246.838 282.961C240.088 254.961 209.588 237.461 181.588 245.711C152.838 252.961 135.338 282.711 143.088 310.461C146.588 322.711 154.088 328.461 160.338 326.711C169.838 324.211 174.088 308.961 196.588 302.711ZM388.838 250.711C411.588 244.711 422.588 255.461 432.338 253.461C438.838 251.461 442.338 242.461 439.088 230.961C432.338 202.711 402.088 185.461 373.838 193.961C345.088 200.961 327.588 230.961 335.338 258.711C338.838 269.961 345.838 276.461 352.588 274.461C362.088 271.711 366.338 256.711 388.838 250.711ZM355.338 509.961C424.338 490.961 468.338 438.711 470.088 372.961C470.338 357.711 457.338 351.711 444.588 361.461C398.338 394.461 351.338 406.961 329.338 412.711C307.088 418.711 260.588 431.711 203.338 426.211C187.588 424.211 179.088 435.711 187.338 448.461C221.838 504.461 286.088 527.711 355.338 509.961Z" fill="black" fill-opacity="0.85"/>
 </g>
</svg>
