<?xml version="1.0" encoding="UTF-8"?>
<!--Generator: Apple Native CoreSVG 326-->
<!DOCTYPE svg
PUBLIC "-//W3C//DTD SVG 1.1//EN"
       "http://www.w3.org/Graphics/SVG/1.1/DTD/svg11.dtd">
<svg version="1.1" xmlns="http://www.w3.org/2000/svg" xmlns:xlink="http://www.w3.org/1999/xlink" viewBox="0 0 651.25 651.75">
 <g>
  <rect height="651.75" opacity="0" width="651.25" x="0" y="0"/>
  <path d="M325.5 651.25C505.25 651.25 651.25 505.5 651.25 325.75C651.25 146 505.25 0 325.5 0C145.75 0 0 146 0 325.75C0 505.5 145.75 651.25 325.5 651.25ZM325.5 604.75C171.25 604.75 46.5 480 46.5 325.75C46.5 171.5 171.25 46.75 325.5 46.75C479.75 46.75 604.5 171.5 604.5 325.75C604.5 480 479.75 604.75 325.5 604.75Z" fill="black" fill-opacity="0.85"/>
  <path d="M285.75 443.5C353.75 425 383.25 372.25 364 301L337.25 202.75C330.5 177.75 314.25 168.75 289.25 175.25L149 212.5C123.5 219.25 114.5 235.25 121.25 260.75L147.25 359.5C166 430.25 217.75 461.25 285.75 443.5ZM273 395C243.5 402.75 214.75 392.75 199.5 368.25C196.75 363.5 199.25 359.75 204.75 360.25C226 362 247.5 358.25 262 354.25C276.5 350.5 297.25 343 314.5 330.75C319.25 327.5 323.75 330 323.25 335.25C322.25 364.25 303 387 273 395ZM202.25 302.75C192 306 190.75 312.5 186.25 313.25C184 314 181.5 311.5 180.25 307.75C176.75 295.5 184.25 282.75 196.5 280C208.5 276.75 220.5 284.25 224 295.5C225.25 300 224 303.25 221.75 304C216.75 305.25 211.75 300.25 202.25 302.75ZM287.75 280C278 282.25 276 289.5 272 290C269.75 290.75 267.25 288 265.5 284.25C262.5 272.75 270 259.75 281.75 256.5C294.25 253.75 306.5 260.25 309.25 272.75C311 276.75 309 280.25 307.5 281C302.5 282.25 297.5 277 287.75 280ZM509.75 249.5L369.75 211.75C367.25 211 364.75 210.75 362.5 210.5L385.75 295C393.75 325 394 352.75 387.5 377C391.25 377.5 395.5 378 399.25 379C424.25 385.25 441.25 404.75 442 428C442 433.5 437 436 433.25 432C419.75 419.75 406.5 413 391.25 408.75C386 407.25 380.25 406 375 405.5C363.5 425.75 345.5 442 322.25 453.75C335 465.25 352.25 474.25 373 479.75C440.75 497.75 492.25 466.75 511.25 395.75L537.5 297.25C544.5 272 535 255.75 509.75 249.5ZM450.75 353.5C441.5 351.5 435.75 341.25 438.5 331.75C440.5 322.25 450.5 317 460 319.5C469.5 322 475 331.75 472.5 341C469.75 350.5 460 356.25 450.75 353.5Z" fill="black" fill-opacity="0.85"/>
 </g>
</svg>
