<?xml version="1.0" encoding="UTF-8"?>
<!--Generator: Apple Native CoreSVG 326-->
<!DOCTYPE svg
PUBLIC "-//W3C//DTD SVG 1.1//EN"
       "http://www.w3.org/Graphics/SVG/1.1/DTD/svg11.dtd">
<svg version="1.1" xmlns="http://www.w3.org/2000/svg" xmlns:xlink="http://www.w3.org/1999/xlink" viewBox="0 0 651.25 651.75">
 <g>
  <rect height="651.75" opacity="0" width="651.25" x="0" y="0"/>
  <path d="M651.25 326C651.25 505.5 505 651.75 325.5 651.75C146.25 651.75 0 505.5 0 326C0 146.75 146.25 0.5 325.5 0.5C505 0.5 651.25 146.75 651.25 326ZM387.25 294.75C395.75 325.5 396 353.75 389 378.75C393 379.25 397.25 379.75 401 380.75C426.75 387 444 407 444.75 430.75C444.75 436.5 439.75 438.75 436 434.75C422.25 422 408.75 415.25 393 411C387.75 409.25 381.75 408.25 376.25 407.75C364.5 428.25 346.25 445.25 322.25 457.25C335.5 469 353.25 478.25 374 484C443.75 502.25 496.5 470.25 516 397.75L542.75 297C550 271.25 540.25 254.5 514.25 247.75L370.75 209.25C368.25 208.5 365.75 208 363.75 207.75ZM288.25 171.75L144.75 210.25C118.5 217 109.25 233.5 116.25 259.75L142.75 360.5C162.25 433 215 465 285 446.75C354.25 427.75 384.75 373.75 364.75 300.75L337.75 200C330.75 174.5 313.75 165.25 288.25 171.75ZM323 336C322.25 365.25 302.25 389 271.75 397C241.5 405 212.25 394.5 196.5 369.75C193.5 364.75 196.25 361 201.75 361.25C223.75 363.25 245.5 359.5 260.5 355.25C275.25 351.5 296.5 343.5 314.25 331C319 328 323.5 330.5 323 336ZM463.5 319.5C473.25 322 478.75 332 476 341.75C473.25 351.25 463.5 357.25 453.75 354.5C444.25 352.5 438.5 342 441.5 332C443.5 322.5 453.5 317.25 463.5 319.5ZM221.5 295C222.75 299.5 221.5 303 219.25 304C214 305.25 209 299.75 199.25 302.75C189 305.75 187.5 312.75 183 313.5C180.75 314 178 311.5 177 307.5C173 295 180.75 282.25 193.25 279.25C205.5 276 217.75 283.5 221.5 295ZM309 271.75C310.5 276 308.5 279.5 307 280.5C301.75 281.75 296.75 276.25 286.75 279.25C276.75 281.75 275 288.75 270.5 289.5C268.5 290.25 265.75 287.5 264 283.75C261 271.75 268.5 258.25 280.75 255.25C293.25 252.5 306 259.25 309 271.75Z" fill="black" fill-opacity="0.85"/>
 </g>
</svg>
