<?xml version="1.0" encoding="UTF-8"?>
<!--Generator: Apple Native CoreSVG 326-->
<!DOCTYPE svg
PUBLIC "-//W3C//DTD SVG 1.1//EN"
       "http://www.w3.org/Graphics/SVG/1.1/DTD/svg11.dtd">
<svg version="1.1" xmlns="http://www.w3.org/2000/svg" xmlns:xlink="http://www.w3.org/1999/xlink" viewBox="0 0 1156.03 816.76">
 <g>
  <rect height="816.76" opacity="0" width="1156.03" x="0" y="0"/>
  <path d="M724.767 127.755L1046.52 214.505C1104.77 230.505 1127.27 267.255 1111.77 325.005L1051.02 551.755C1007.27 715.755 888.517 787.255 731.767 745.505C655.404 724.922 600.342 685.413 569.227 631.31C649.357 561.008 677.186 452.543 642.767 324.255L610.034 202.58L613.017 191.505C628.767 133.005 666.017 111.755 724.767 127.755ZM652.017 562.755C645.767 573.005 652.517 583.005 664.767 580.255C704.767 571.755 739.767 572.255 774.767 581.755C809.767 590.755 839.017 606.755 870.517 635.505C879.517 643.505 890.767 638.505 890.267 626.255C888.767 572.505 850.017 528.255 792.767 513.755C737.767 499.005 680.517 517.005 652.017 562.755ZM882.517 405.005C876.267 427.005 889.267 449.755 911.017 455.255C933.017 461.255 955.267 448.255 961.267 426.505C967.017 404.505 954.267 382.005 932.267 376.505C910.267 370.505 888.017 383.255 882.517 405.005ZM692.517 354.755C686.767 377.255 699.767 399.255 721.767 404.755C743.517 410.755 765.767 398.255 772.017 376.255C777.517 354.505 764.767 331.755 742.767 325.755C720.767 319.755 698.517 333.005 692.517 354.755Z" fill="black" fill-opacity="0.85"/>
  <path d="M424.517 662.005C581.017 619.505 648.267 498.255 604.267 334.505L543.267 107.755C527.767 50.0051 490.017 29.5051 431.517 44.7551L109.517 130.505C50.7672 146.005 29.0172 182.755 44.7672 241.505L105.017 468.255C148.517 631.755 267.517 703.755 424.517 662.005ZM232.517 338.255C208.767 345.005 205.517 360.755 195.267 362.755C190.767 363.505 184.267 358.505 181.517 348.755C173.767 321.505 191.017 292.255 218.517 285.505C246.267 278.755 275.017 295.005 282.017 321.505C285.017 331.505 282.017 339.005 277.017 340.755C266.017 344.505 254.267 332.505 232.517 338.255ZM429.267 285.255C405.767 291.755 402.267 307.505 392.017 309.255C387.517 310.255 381.267 305.005 378.267 295.505C370.767 268.505 387.767 239.255 415.267 232.255C443.267 225.005 471.767 241.505 479.017 268.255C482.017 278.505 478.767 285.755 473.767 287.505C462.767 291.255 451.017 279.255 429.267 285.255ZM395.267 550.505C327.017 568.255 261.267 545.005 226.267 488.755C220.017 478.255 225.267 469.005 237.767 470.255C286.017 474.505 336.267 465.755 370.017 456.755C403.267 448.005 450.517 430.755 490.767 402.505C501.017 395.255 510.767 400.505 510.267 413.005C508.517 479.255 463.517 531.755 395.267 550.505Z" fill="black" fill-opacity="0.85"/>
 </g>
</svg>
