<?xml version="1.0" encoding="UTF-8"?>
<!--Generator: Apple Native CoreSVG 326-->
<!DOCTYPE svg
PUBLIC "-//W3C//DTD SVG 1.1//EN"
       "http://www.w3.org/Graphics/SVG/1.1/DTD/svg11.dtd">
<svg version="1.1" xmlns="http://www.w3.org/2000/svg" xmlns:xlink="http://www.w3.org/1999/xlink" viewBox="0 0 841.054 862.907">
 <g>
  <rect height="862.907" opacity="0" width="841.054" x="0" y="0"/>
  <path d="M494.402 87.5785L544.13 273.428C512.118 310.232 479.436 349.518 450.17 386.744C454.262 375.255 456.579 362.732 456.902 349.329C457.652 335.829 446.152 331.329 435.152 339.079C409.152 358.579 376.402 372.829 332.902 384.829C289.402 396.079 253.902 400.329 221.902 396.329C208.152 395.079 200.402 404.579 207.902 416.079C240.152 469.079 300.402 484.329 355.652 469.829C375.228 464.514 393.455 455.652 408.841 443.59C395.415 466.859 385.95 493.749 383.402 524.329C360.902 530.329 339.902 541.829 322.902 559.329C311.008 571.281 302.567 583.75 296.661 595.95C201.254 587.56 127.979 519.491 98.9018 411.079L44.6518 207.829C30.4018 155.579 51.6518 119.829 104.152 105.579L391.402 28.5785C443.902 14.8285 480.152 35.0785 494.402 87.5785ZM194.902 234.079C167.652 241.329 152.152 267.579 159.402 293.579C162.402 304.829 169.402 310.329 175.152 308.829C183.902 306.329 187.402 291.829 208.652 286.079C230.152 280.579 240.152 291.329 249.402 289.079C255.152 287.579 258.402 279.079 255.402 267.829C248.402 241.579 222.152 226.579 194.902 234.079ZM376.902 185.079C349.902 192.329 334.402 218.579 341.402 244.579C344.652 255.829 351.402 261.579 357.402 260.079C366.152 257.579 369.652 243.079 391.152 237.329C412.402 231.579 422.652 242.579 431.652 240.079C437.402 238.579 440.652 230.329 437.652 219.079C430.402 192.829 404.402 177.829 376.902 185.079Z" fill="black" fill-opacity="0.85"/>
  <path d="M708.402 158.829C690.152 174.829 567.152 297.329 481.402 411.329C555.652 419.829 620.902 464.579 654.652 533.079C731.902 409.579 787.402 247.579 796.152 224.079C819.402 160.329 755.902 117.579 708.402 158.829ZM511.902 552.579C538.902 571.579 560.652 598.579 569.652 623.329C593.402 614.329 611.902 597.579 627.402 575.579C630.152 571.579 632.902 567.329 635.402 563.329C608.652 489.579 535.652 440.329 459.652 439.829C456.152 443.829 452.652 448.829 449.152 453.829C434.402 475.829 425.652 499.829 425.402 523.329C451.402 522.329 484.652 533.329 511.902 552.579ZM253.902 770.829C319.402 836.329 439.152 841.829 504.152 777.329C559.902 722.079 561.902 650.829 509.152 598.079C461.902 550.079 390.652 547.079 351.152 587.079C305.902 633.079 335.902 680.079 307.902 708.579C284.652 732.329 263.152 723.829 250.652 736.079C241.902 744.829 241.402 758.079 253.902 770.829Z" fill="black" fill-opacity="0.85"/>
 </g>
</svg>
