<?xml version="1.0" encoding="UTF-8"?>
<!--Generator: Apple Native CoreSVG 326-->
<!DOCTYPE svg
PUBLIC "-//W3C//DTD SVG 1.1//EN"
       "http://www.w3.org/Graphics/SVG/1.1/DTD/svg11.dtd">
<svg version="1.1" xmlns="http://www.w3.org/2000/svg" xmlns:xlink="http://www.w3.org/1999/xlink" viewBox="0 0 651.25 651.75">
 <g>
  <rect height="651.75" opacity="0" width="651.25" x="0" y="0"/>
  <path d="M325.5 651.25C505.25 651.25 651.25 505.5 651.25 325.75C651.25 146 505.25 0 325.5 0C145.75 0 0 146 0 325.75C0 505.5 145.75 651.25 325.5 651.25ZM325.5 604.75C171.25 604.75 46.5 480 46.5 325.75C46.5 171.5 171.25 46.75 325.5 46.75C479.75 46.75 604.5 171.5 604.5 325.75C604.5 480 479.75 604.75 325.5 604.75Z" fill="black" fill-opacity="0.85"/>
  <path d="M325.5 508C425.5 508 508 425.5 508 325.75C508 225.75 425.5 143.25 325.75 143.25C313.25 143.25 307 151 307 162L307 214C307 223.75 313.75 231.75 324 231.75C334 231.75 341 223.75 341 214L341 181C415 188.5 471 249.5 471 325.75C471 407.25 407 471.25 325.5 471.25C244 471.25 179.75 407.25 179.75 325.75C179.75 288 193.75 255.5 216.5 229.5C222.75 221.75 223.5 211.25 216 204C208.75 196 196.75 196.75 189 205.75C160.75 237.5 143.25 280 143.25 325.75C143.25 425.5 225.5 508 325.5 508ZM354.5 351.5C369.5 336 366.5 315 348.75 302.75L263.25 244C251.5 236.25 239 248 247.25 259.75L306 345.5C318 363.25 339.25 366.5 354.5 351.5Z" fill="black" fill-opacity="0.85"/>
 </g>
</svg>
