<?xml version="1.0" encoding="UTF-8"?>
<!--Generator: Apple Native CoreSVG 326-->
<!DOCTYPE svg
PUBLIC "-//W3C//DTD SVG 1.1//EN"
       "http://www.w3.org/Graphics/SVG/1.1/DTD/svg11.dtd">
<svg version="1.1" xmlns="http://www.w3.org/2000/svg" xmlns:xlink="http://www.w3.org/1999/xlink" viewBox="0 0 651.25 651.75">
 <g>
  <rect height="651.75" opacity="0" width="651.25" x="0" y="0"/>
  <path d="M651.25 325.75C651.25 505 505 651.25 325.5 651.25C146.25 651.25 0 505 0 325.75C0 146.25 146.25 0 325.5 0C505 0 651.25 146.25 651.25 325.75ZM306.5 158L306.5 211.25C306.5 221.25 313.5 229.5 324 229.5C334.25 229.5 341.5 221.25 341.5 211.25L341.5 177.75C417.25 185.5 474.25 247.5 474.25 325.75C474.25 409 409 474.75 325.5 474.75C242.25 474.75 176.5 409 176.5 325.75C176.5 287.25 190.75 254 214 227.5C220.5 219.5 221.25 208.25 213.5 201C206 192.75 193.5 193.75 185.5 203C156.5 235.5 138.5 279 138.5 325.75C138.5 428 223 512.5 325.5 512.5C428 512.5 512.5 428 512.5 325.75C512.5 223.25 428 138.75 325.75 138.75C313 138.75 306.5 146.75 306.5 158ZM245.5 258.25L305.5 346C317.75 364.25 339.75 367.75 355.25 352.25C370.75 336.25 367.5 314.75 349.5 302.25L262 242C249.75 234.25 237 246.25 245.5 258.25Z" fill="black" fill-opacity="0.85"/>
 </g>
</svg>
