<?xml version="1.0" encoding="UTF-8"?>
<!--Generator: Apple Native CoreSVG 326-->
<!DOCTYPE svg
PUBLIC "-//W3C//DTD SVG 1.1//EN"
       "http://www.w3.org/Graphics/SVG/1.1/DTD/svg11.dtd">
<svg version="1.1" xmlns="http://www.w3.org/2000/svg" xmlns:xlink="http://www.w3.org/1999/xlink" viewBox="0 0 651.25 651.75">
 <g>
  <rect height="651.75" opacity="0" width="651.25" x="0" y="0"/>
  <path d="M325.5 651.25C503.75 651.25 651.25 503.75 651.25 325.75C651.25 147.5 504 0 325.75 0C309.5 0 302.25 9.25 302.25 24.25L302.25 150.25C302.25 162.5 310.25 172 322.75 172C335 172 343 162.5 343 150.25L343 21.5L324.75 46.75C480.5 46.75 604.25 171 604.25 325.75C604.25 480.25 480.25 604.75 325.5 604.75C171 604.75 46.25 480.25 46.5 325.75C46.75 255 73 190.75 116 141.75C124.5 131.25 125.25 118.25 116 108.75C107 99 92 99.75 82 111.75C31.25 169.25 0 244.25 0 325.75C0 503.75 147.5 651.25 325.5 651.25Z" fill="black" fill-opacity="0.85"/>
  <path d="M325.5 375C353 375 375 353 375 325.75C375 309 366.75 294.5 353.75 285.25L192 169.75C177.5 159.5 162.5 174.25 172.75 189.25L282.5 350.25C292.5 365 307.5 375 325.5 375Z" fill="black" fill-opacity="0.85"/>
 </g>
</svg>
