<?xml version="1.0" encoding="UTF-8"?>
<!--Generator: Apple Native CoreSVG 326-->
<!DOCTYPE svg
PUBLIC "-//W3C//DTD SVG 1.1//EN"
       "http://www.w3.org/Graphics/SVG/1.1/DTD/svg11.dtd">
<svg version="1.1" xmlns="http://www.w3.org/2000/svg" xmlns:xlink="http://www.w3.org/1999/xlink" viewBox="0 0 447.75 759.25">
 <g>
  <rect height="759.25" opacity="0" width="447.75" x="0" y="0"/>
  <path d="M30.75 44.25L416.75 44.25C428.75 44.25 438.75 34.25 438.75 22C438.75 10 428.75 0 416.75 0L30.75 0C18.75 0 8.5 10 8.5 22C8.5 34.25 18.75 44.25 30.75 44.25ZM46.5 307L89.5 290.25L79.5 115.25L368 115.25L358 290.25L400.75 307L415.75 75.75L31.75 75.75ZM223.75 423.75C355.75 423.75 447.75 389.25 447.75 339.75C447.75 292 355.75 259 223.75 259C92 259 0 292 0 339.75C0 389.25 92 423.75 223.75 423.75ZM223.75 385.75C122.5 385.75 54 367 54 339.75C54 314.5 122.5 296.75 223.75 296.75C325.25 296.75 393.75 314.5 393.75 339.75C393.75 367 325.25 385.75 223.75 385.75ZM212.5 568L235.5 568C362 568 447.75 476 447.75 339.75L406.5 339.75C406.5 451 338 525.75 235.5 525.75L212.5 525.75C110 525.75 41.25 451 41.25 339.75L0 339.75C0 476 85.75 568 212.5 568ZM228.25 759.25C286.5 759.25 352.5 745 381 717.25C389.5 709 389.5 698.75 386.25 686.75L335.75 517.75L296 540.25L347.75 713.5L350 685.25C328.75 704 279.75 715 228.25 715C176.75 715 127.75 704 106.75 685.25L108.75 713.5L160.5 540.25L121.25 517.75L70.5 686.75C67 698.75 67.25 709 75.75 717.25C104.25 745 170 759.25 228.25 759.25Z" fill="black" fill-opacity="0.85"/>
 </g>
</svg>
