<?xml version="1.0" encoding="UTF-8"?>
<!--Generator: Apple Native CoreSVG 326-->
<!DOCTYPE svg
PUBLIC "-//W3C//DTD SVG 1.1//EN"
       "http://www.w3.org/Graphics/SVG/1.1/DTD/svg11.dtd">
<svg version="1.1" xmlns="http://www.w3.org/2000/svg" xmlns:xlink="http://www.w3.org/1999/xlink" viewBox="0 0 651.25 651.75">
 <g>
  <rect height="651.75" opacity="0" width="651.25" x="0" y="0"/>
  <path d="M651.25 326C651.25 505.5 505 651.75 325.5 651.75C146.25 651.75 0 505.5 0 326C0 146.75 146.25 0.5 325.5 0.5C505 0.5 651.25 146.75 651.25 326ZM291.75 124C264 124 246.5 141 246.5 166.75L246.5 194.5L164 194.5C157 194.5 151.25 200.5 151.25 207.75C151.25 214.75 157 220.25 164 220.25L192.75 220.25L205 486.5C205.75 508.25 219.5 521 241.25 521L410.75 521C432 521 446.5 508.25 447.25 486.5L459.25 220.25L486.5 220.25C494 220.25 499.25 214.75 499.5 207.75C499.75 200.5 494 194.5 486.5 194.5L405.25 194.5L405.25 166.75C405.25 141 387.25 124 359.5 124ZM272.25 263L279.75 459C280 465.25 276 469.75 269 469.75C262.75 469.75 258 465.5 257.75 459.25L249.5 263.25C249.25 256.5 253.5 252.25 261 252.25C267.5 252.25 272 256.25 272.25 263ZM400.5 263.25L392 459.25C392 465.5 387.25 469.75 380.75 469.75C374 469.75 370 465.25 370.25 459L377.75 263C378 256.25 382.5 252.25 389.25 252.25C396.25 252.25 400.5 256.5 400.5 263.25ZM336.5 263.25L336.5 459C336.5 465 331.75 469.5 325 469.5C318.25 469.5 313.75 465 313.75 459L313.75 263.25C313.75 256.5 317.75 252.25 325 252.25C332 252.25 336.5 256.5 336.5 263.25ZM374.25 168.5L374.25 194.5L276.25 194.5L276.25 168.5C276.25 159 283 153 292.75 153L357.5 153C367.5 153 374.25 159 374.25 168.5Z" fill="black" fill-opacity="0.85"/>
 </g>
</svg>
