<?xml version="1.0" encoding="UTF-8"?>
<!--Generator: Apple Native CoreSVG 326-->
<!DOCTYPE svg
PUBLIC "-//W3C//DTD SVG 1.1//EN"
       "http://www.w3.org/Graphics/SVG/1.1/DTD/svg11.dtd">
<svg version="1.1" xmlns="http://www.w3.org/2000/svg" xmlns:xlink="http://www.w3.org/1999/xlink" viewBox="0 0 651.25 651.75">
 <g>
  <rect height="651.75" opacity="0" width="651.25" x="0" y="0"/>
  <path d="M651.25 325.75C651.25 505.5 505.25 651.25 325.5 651.25C145.75 651.25 0 505.5 0 325.75C0 146 145.75 0 325.5 0C505.25 0 651.25 146 651.25 325.75ZM46.5 325.75C46.5 480 171.25 604.75 325.5 604.75C479.75 604.75 604.5 480 604.5 325.75C604.5 171.5 479.75 46.75 325.5 46.75C171.25 46.75 46.5 171.5 46.5 325.75Z" fill="black" fill-opacity="0.85"/>
  <path d="M252.657 301.572L259.5 455.75C259.5 461.75 264 465.75 270 465.75C277 465.75 280.75 461.5 280.5 455.25L275.548 324.444L313.75 362.615L313.75 455.25C313.75 461.25 318.25 465.75 324.75 465.75C331.25 465.75 336 461.25 336 455.25L336 384.847L370.365 419.184L369 455.25C368.75 461.5 372.5 465.75 379.5 465.75C385.5 465.75 390 461.75 390 455.75L390.72 439.522L442.668 491.426C438.712 506.85 426.009 515.75 408.5 515.75L243 515.75C221.75 515.75 208.5 503.25 207.75 482.25L196.837 245.798ZM403 170L403 197.25L482.5 197.25C489.5 197.25 495.5 202.75 495.25 209.75C495 216.5 489.5 222.25 482.5 222.25L455.75 222.25L447.774 398.73L394.881 345.792L398.5 264.25C398.5 257.75 394.25 253.5 387.5 253.5C381 253.5 376.5 257.5 376.25 263.75L373.938 324.832L336 286.863L336 264C336 257.5 331.5 253.5 324.75 253.5C318 253.5 313.75 257.5 313.75 264L313.75 264.595L246.461 197.25L248.25 197.25L248.25 170C248.25 144.75 265.25 128.25 292.25 128.25L358.5 128.25C385.75 128.25 403 144.75 403 170ZM293.25 156.5C283.75 156.5 277 162.5 277 171.5L277 197.25L373 197.25L373 171.5C373 162.5 366.25 156.5 356.5 156.5Z" fill="black" fill-opacity="0.85"/>
  <path d="M468 486.25C473 491.5 481.75 491.5 486.75 486.25C492 481 492 473 486.75 467.5L184.25 164.75C178.75 159.5 170.5 159.5 165.25 164.75C160 170 160 178.5 165.25 183.5Z" fill="black" fill-opacity="0.85"/>
 </g>
</svg>
