<?xml version="1.0" encoding="UTF-8"?>
<!--Generator: Apple Native CoreSVG 326-->
<!DOCTYPE svg
PUBLIC "-//W3C//DTD SVG 1.1//EN"
       "http://www.w3.org/Graphics/SVG/1.1/DTD/svg11.dtd">
<svg version="1.1" xmlns="http://www.w3.org/2000/svg" xmlns:xlink="http://www.w3.org/1999/xlink" viewBox="0 0 619.75 768.75">
 <g>
  <rect height="768.75" opacity="0" width="619.75" x="0" y="0"/>
  <path d="M213.75 612.75C224.5 612.75 231.5 605.75 231.25 596L221 243.25C220.75 233.5 213.5 227 203.5 227C192.75 227 185.75 233.75 186 243.75L196.25 596C196.5 606 203.5 612.75 213.75 612.75ZM310 612.75C320.5 612.75 328 605.75 328 596L328 243.75C328 233.75 320.5 227 310 227C299.5 227 292 233.75 292 243.75L292 596C292 605.75 299.5 612.75 310 612.75ZM406 612.75C416.25 612.75 423.25 606.25 423.5 596.25L433.75 243.75C434 233.75 427 227.25 416.5 227.25C406.5 227.25 399.25 233.5 399 243.5L388.75 596C388.5 605.75 395.25 612.75 406 612.75ZM170.75 143L214.5 143L214.5 74.25C214.5 54.25 228.25 41.25 249.75 41.25L369.5 41.25C391 41.25 404.75 54.25 404.75 74.25L404.75 143L448.5 143L448.5 71.75C448.5 27.25 419.75 0 372 0L247.25 0C199.75 0 170.75 27.25 170.75 71.75ZM20.75 164.75L599 164.75C610.5 164.75 619.75 155.25 619.75 144C619.75 132.5 610.5 123 599 123L20.75 123C9.75 123 0 132.75 0 144C0 155.5 9.75 164.75 20.75 164.75ZM163.25 714L457 714C500 714 530.25 684.75 532.5 641.75L556.25 159L511.5 159L489 637.25C488 657.5 472.75 672.25 452.75 672.25L166.75 672.25C147.25 672.25 131.75 657.25 130.75 637.25L107 159.25L63.75 159.25L87.5 642C89.75 685 119.5 714 163.25 714Z" fill="black" fill-opacity="0.85"/>
 </g>
</svg>
