<?xml version="1.0" encoding="UTF-8"?>
<!--Generator: Apple Native CoreSVG 326-->
<!DOCTYPE svg
PUBLIC "-//W3C//DTD SVG 1.1//EN"
       "http://www.w3.org/Graphics/SVG/1.1/DTD/svg11.dtd">
<svg version="1.1" xmlns="http://www.w3.org/2000/svg" xmlns:xlink="http://www.w3.org/1999/xlink" viewBox="0 0 689.438 768.75">
 <g>
  <rect height="768.75" opacity="0" width="689.438" x="0" y="0"/>
  <path d="M220.199 313.606L228.344 600.25C228.594 610.5 235.844 617.25 246.594 617.25C257.594 617.25 264.844 610.25 264.594 600L257.161 350.567L326.594 420L326.594 600C326.594 610.25 334.094 617.25 345.094 617.25C355.844 617.25 363.594 610.25 363.594 600L363.594 457L427.702 521.108L425.344 600.25C425.094 610.25 432.344 617.25 443.344 617.25C454.094 617.25 461.344 610.75 461.594 600.25L462.845 556.251L565.104 658.51C556.85 692.185 529.195 714 491.844 714L198.094 714C154.594 714 124.594 685 122.594 642L100.599 194.005ZM483.594 71.75L483.594 123L634.094 123C645.344 123 654.844 132.5 654.844 144C654.844 155.25 645.594 164.75 634.094 164.75L590.778 164.75L574.073 508.437L467.243 401.56L471.844 239.75C472.094 229.25 465.094 222.5 454.094 222.5C443.844 222.5 436.344 229 436.094 239.5L432.306 366.608L363.594 297.866L363.594 239.5C363.594 229.25 355.844 222.5 345.094 222.5C334.094 222.5 326.594 229.25 326.594 239.5L326.594 260.85L188.804 123L205.844 123L205.844 71.75C205.844 27.25 234.594 0 282.344 0L407.094 0C454.844 0 483.594 27.25 483.594 71.75ZM284.594 41.25C263.344 41.25 249.594 54.25 249.594 74.25L249.594 123L439.844 123L439.844 74.25C439.844 54.25 426.094 41.25 404.594 41.25Z" fill="black" fill-opacity="0.85"/>
  <path d="M618.344 662.5C626.594 670.75 640.344 670.75 648.344 662.5C656.844 654 656.844 640.5 648.344 632.25L71.3439 55C63.3439 46.75 49.5939 46.5 41.0939 55C32.8439 63 32.8439 77 41.0939 85.25Z" fill="black" fill-opacity="0.85"/>
 </g>
</svg>
