<?xml version="1.0" encoding="UTF-8"?>
<!--Generator: Apple Native CoreSVG 326-->
<!DOCTYPE svg
PUBLIC "-//W3C//DTD SVG 1.1//EN"
       "http://www.w3.org/Graphics/SVG/1.1/DTD/svg11.dtd">
<svg version="1.1" xmlns="http://www.w3.org/2000/svg" xmlns:xlink="http://www.w3.org/1999/xlink" viewBox="0 0 587.75 595.25">
 <g>
  <rect height="595.25" opacity="0" width="587.75" x="0" y="0"/>
  <path d="M97.25 595.25L490.25 595.25C555 595.25 587.75 562.5 587.75 499L587.75 103.75C587.75 40.25 555 7.5 490.25 7.5L97.25 7.5C32.75 7.5 0 40 0 103.75L0 499C0 562.75 32.75 595.25 97.25 595.25ZM98.25 551C63.25 551 44.25 532.5 44.25 496.5L44.25 106.25C44.25 70.25 63.25 51.75 98.25 51.75L489.5 51.75C523.75 51.75 543.5 70.25 543.5 106.25L543.5 496.5C543.5 532.5 523.75 551 489.5 551Z" fill="black" fill-opacity="0.85"/>
  <path d="M211.75 491.25L377.25 491.25C398 491.25 412 478.5 412.75 457.75L424.5 197.5L451.25 197.5C458.25 197.5 463.75 192 464 185.25C464.25 178.25 458.25 172.5 451.25 172.5L371.75 172.5L371.75 145.25C371.75 120.25 354.25 103.75 327.25 103.75L261 103.75C234 103.75 217 120.25 217 145.25L217 172.5L136.25 172.5C129.5 172.5 123.75 178.25 123.75 185.25C123.75 192 129.5 197.5 136.25 197.5L164.5 197.5L176.5 457.75C177.25 478.5 190.5 491.25 211.75 491.25ZM238.75 441.25C232.75 441.25 228.25 437.25 228 431L219.75 239.75C219.5 233.25 223.75 228.75 231 228.75C237.25 228.75 241.75 232.75 241.75 239.25L249.25 430.75C249.5 437 245.75 441.25 238.75 441.25ZM293.5 441C287 441 282.5 436.75 282.5 430.75L282.5 239.5C282.5 233 286.5 228.75 293.5 228.75C300.25 228.75 304.75 233 304.75 239.5L304.75 430.75C304.75 436.75 300 441 293.5 441ZM348 441.25C341.25 441.25 337.5 437 337.75 430.75L345 239.25C345.25 232.75 349.75 228.75 356.25 228.75C363 228.75 367.25 233.25 367 239.75L358.75 431C358.5 437.25 354.25 441.25 348 441.25ZM245.75 172.5L245.75 147C245.75 138 252.5 131.75 262 131.75L325.25 131.75C335 131.75 341.75 138 341.75 147L341.75 172.5Z" fill="black" fill-opacity="0.85"/>
 </g>
</svg>
