<?xml version="1.0" encoding="UTF-8"?>
<!--Generator: Apple Native CoreSVG 326-->
<!DOCTYPE svg
PUBLIC "-//W3C//DTD SVG 1.1//EN"
       "http://www.w3.org/Graphics/SVG/1.1/DTD/svg11.dtd">
<svg version="1.1" xmlns="http://www.w3.org/2000/svg" xmlns:xlink="http://www.w3.org/1999/xlink" viewBox="0 0 587.75 587.75">
 <g>
  <rect height="587.75" opacity="0" width="587.75" x="0" y="0"/>
  <path d="M587.75 96.5L587.75 491.5C587.75 555 555 587.75 490.25 587.75L97.25 587.75C32.75 587.75 0 555.5 0 491.5L0 96.5C0 32.5 32.75 0 97.25 0L490.25 0C555 0 587.75 32.75 587.75 96.5ZM260.25 91.5C232.5 91.5 215 108.5 215 134.25L215 162L132.5 162C125.5 162 119.75 168 119.75 175.25C119.75 182.25 125.5 187.75 132.5 187.75L161.25 187.75L173.5 454C174.25 475.75 188 488.5 209.75 488.5L379.25 488.5C400.5 488.5 415 475.75 415.75 454L427.75 187.75L455 187.75C462.25 187.75 467.75 182.25 468 175.25C468.25 168 462.25 162 455 162L373.75 162L373.75 134.25C373.75 108.5 355.75 91.5 328 91.5ZM240.5 230.5L248.25 426.5C248.5 432.75 244.5 437.25 237.5 437.25C231.25 437.25 226.5 433 226.25 427L218 231C217.75 224.25 222 220 229.5 220C236 220 240.5 224 240.5 230.5ZM305 230.75L305 426.5C305 432.75 300.25 437.25 293.5 437.25C286.75 437.25 282.25 432.75 282.25 426.5L282.25 230.75C282.25 224 286.25 220 293.5 220C300.5 220 305 224 305 230.75ZM369 231L360.5 427C360.5 433 355.75 437.25 349.25 437.25C342.5 437.25 338.5 432.75 338.75 426.5L346.25 230.5C346.5 224 351 220 357.75 220C364.75 220 369 224.25 369 231ZM342.75 136L342.75 162L244.75 162L244.75 136C244.75 126.75 251.5 120.5 261.25 120.5L326 120.5C336 120.5 342.75 126.75 342.75 136Z" fill="black" fill-opacity="0.85"/>
 </g>
</svg>
