<?xml version="1.0" encoding="UTF-8"?>
<!--Generator: Apple Native CoreSVG 326-->
<!DOCTYPE svg
PUBLIC "-//W3C//DTD SVG 1.1//EN"
       "http://www.w3.org/Graphics/SVG/1.1/DTD/svg11.dtd">
<svg version="1.1" xmlns="http://www.w3.org/2000/svg" xmlns:xlink="http://www.w3.org/1999/xlink" viewBox="0 0 587.75 595.25">
 <g>
  <rect height="595.25" opacity="0" width="587.75" x="0" y="0"/>
  <path d="M587.75 103.75L587.75 499C587.75 562.5 555 595.25 490.25 595.25L97.25 595.25C32.75 595.25 0 562.75 0 499L0 103.75C0 40 32.75 7.5 97.25 7.5L490.25 7.5C555 7.5 587.75 40.25 587.75 103.75ZM98.25 51.75C63.25 51.75 44.25 70.25 44.25 106.25L44.25 496.5C44.25 532.5 63.25 551 98.25 551L489.5 551C523.75 551 543.5 532.5 543.5 496.5L543.5 106.25C543.5 70.25 523.75 51.75 489.5 51.75Z" fill="black" fill-opacity="0.85"/>
  <path d="M221.217 278.382L228 431C228 437.25 232.5 441.25 238.75 441.25C245.5 441.25 249.25 437 249 430.75L244.097 301.243L282.25 339.364L282.25 430.75C282.25 436.75 286.75 441 293.25 441C299.75 441 304.5 436.75 304.5 430.75L304.5 361.596L338.82 395.887L337.5 430.75C337.25 437 341 441.25 348 441.25C354 441.25 358.5 437.25 358.5 431L359.157 416.208L410.892 467.9C406.625 482.585 394.106 491.25 377 491.25L211.5 491.25C190.25 491.25 177 478.5 176.25 457.75L165.408 222.619ZM371.5 145.25L371.5 172.5L451 172.5C458.25 172.5 464 178.25 463.75 185.25C463.5 192 458.25 197.5 451 197.5L424.25 197.5L416.217 375.423L363.323 322.485L367 239.75C367 233.25 363 228.75 356 228.75C349.5 228.75 345 232.75 344.75 239.25L342.392 301.537L304.5 263.614L304.5 239.5C304.5 233 300.25 228.75 293.25 228.75C286.5 228.75 282.25 233 282.25 239.5L282.25 241.345L213.462 172.5L216.75 172.5L216.75 145.25C216.75 120.25 233.75 103.75 260.75 103.75L327 103.75C354.25 103.75 371.5 120.25 371.5 145.25ZM262 131.75C252.25 131.75 245.5 138 245.5 147L245.5 172.5L341.5 172.5L341.5 147C341.5 138 334.75 131.75 325 131.75Z" fill="black" fill-opacity="0.85"/>
  <path d="M435.75 462.5C440.75 467.5 449.5 467.5 454.5 462.5C459.75 457 459.75 449 454.5 443.5L152 140.75C146.5 135.5 138.25 135.5 133 140.75C127.75 146 127.75 154.5 133 159.5Z" fill="black" fill-opacity="0.85"/>
 </g>
</svg>
