<?xml version="1.0" encoding="UTF-8"?>
<!--Generator: Apple Native CoreSVG 326-->
<!DOCTYPE svg
PUBLIC "-//W3C//DTD SVG 1.1//EN"
       "http://www.w3.org/Graphics/SVG/1.1/DTD/svg11.dtd">
<svg version="1.1" xmlns="http://www.w3.org/2000/svg" xmlns:xlink="http://www.w3.org/1999/xlink" viewBox="0 0 651.25 651.75">
 <g>
  <rect height="651.75" opacity="0" width="651.25" x="0" y="0"/>
  <path d="M325.5 651.25C505.25 651.25 651.25 505.5 651.25 325.75C651.25 146 505.25 0 325.5 0C145.75 0 0 146 0 325.75C0 505.5 145.75 651.25 325.5 651.25ZM325.5 604.75C171.25 604.75 46.5 480 46.5 325.75C46.5 171.5 171.25 46.75 325.5 46.75C479.75 46.75 604.5 171.5 604.5 325.75C604.5 480 479.75 604.75 325.5 604.75Z" fill="black" fill-opacity="0.85"/>
  <path d="M184.5 454.75L466.5 454.75C498.75 454.75 515.25 438.25 515.25 406.5L515.25 318C515.25 304.75 513 298.75 506.75 290.5L446.75 210C429.25 186.75 419 181.25 392.5 181.25L258.5 181.25C232 181.25 221.5 186.75 204.25 210L144.25 290.5C138.25 298.75 136 304.75 136 318L136 406.5C136 438.25 152.5 454.75 184.5 454.75ZM176.25 308C171.75 308 171 304.5 173.25 301.5L231.5 222.25C238 213.25 244.5 209.5 256.5 209.5L395 209.5C406.75 209.5 413.25 213.5 419.75 222.25L478.25 301.5C480.25 304.25 479.25 308 475 308L377 308C369.5 308 366 313.75 366 320L366 323.25C366 346.75 349.5 362 325.5 362C301.5 362 285.5 346.75 285.5 323.25L285.5 320C285.5 313.75 281.5 308 274 308Z" fill="black" fill-opacity="0.85"/>
 </g>
</svg>
