<?xml version="1.0" encoding="UTF-8"?>
<!--Generator: Apple Native CoreSVG 326-->
<!DOCTYPE svg
PUBLIC "-//W3C//DTD SVG 1.1//EN"
       "http://www.w3.org/Graphics/SVG/1.1/DTD/svg11.dtd">
<svg version="1.1" xmlns="http://www.w3.org/2000/svg" xmlns:xlink="http://www.w3.org/1999/xlink" viewBox="0 0 757.5 825.75">
 <g>
  <rect height="825.75" opacity="0" width="757.5" x="0" y="0"/>
  <path d="M623.25 264L740.75 411C753.75 427.25 757.5 440 757.5 466.5L757.5 653.5C757.5 717.25 724.75 750 660 750L97.25 750C32.75 750 0 717.5 0 653.5L0 466.5C0 440 3.75 427.25 16.5 411L134.25 264C169 221 185.5 208 239.25 208L300.5 208L300.5 247L235.5 247C211 247 193.25 255 177.5 275L52.25 433.75C47.5 439.75 49.5 447.75 58.75 447.75L278.25 447.75C293 447.75 300.25 458.75 300.25 471L300.25 472.5C300.25 513.5 331.75 553 378.75 553C425.5 553 457.25 513.5 457.25 472.5L457.25 471C457.25 458.75 464.25 447.75 479.25 447.75L698.75 447.75C708 447.75 710 439.75 705.25 433.75L580 275C564.25 255 546.5 247 522 247L457 247L457 208L518.25 208C572 208 588.5 221 623.25 264ZM44.25 488.25L44.25 651.25C44.25 687 63.25 705.5 98.25 705.5L659.25 705.5C693.5 705.5 713 687 713 651.25L713 488.25L499.25 488.25C493 549.25 443 594 378.75 594C314.5 594 264.25 549.5 258 488.25Z" fill="black" fill-opacity="0.85"/>
  <path d="M378.75 440.25C390.5 440.25 400.5 430.25 400.5 418.75L400.5 108.5L399 61.25L418.75 81.75L473 138.75C477 143.25 482.75 145.5 488 145.5C499.25 145.5 508 137.25 508 126C508 120 505.75 115.75 501.5 111.5L394.5 7.25C389.25 2 384.25 0 378.75 0C373 0 368.25 2 362.75 7.25L255.75 111.5C251.5 115.75 249.25 120 249.25 126C249.25 137.25 257.5 145.5 269 145.5C274.25 145.5 280.25 143.25 284.25 138.75L338.5 81.75L358.5 61L356.75 108.5L356.75 418.75C356.75 430.25 366.75 440.25 378.75 440.25Z" fill="black" fill-opacity="0.85"/>
 </g>
</svg>
