<?xml version="1.0" encoding="UTF-8"?>
<!--Generator: Apple Native CoreSVG 326-->
<!DOCTYPE svg
PUBLIC "-//W3C//DTD SVG 1.1//EN"
       "http://www.w3.org/Graphics/SVG/1.1/DTD/svg11.dtd">
<svg version="1.1" xmlns="http://www.w3.org/2000/svg" xmlns:xlink="http://www.w3.org/1999/xlink" viewBox="0 0 757.5 822.75">
 <g>
  <rect height="822.75" opacity="0" width="757.5" x="0" y="0"/>
  <path d="M623.25 262.5L740.75 409.5C753.75 425.75 757.5 438.5 757.5 465L757.5 652C757.5 715.75 724.75 748.5 660 748.5L97.25 748.5C32.75 748.5 0 716 0 652L0 465C0 438.5 3.75 425.75 16.5 409.5L134.25 262.5C169 219.5 185.5 206.5 239.25 206.5L300.5 206.5L300.5 245.5L235.5 245.5C211 245.5 193.25 253.5 177.5 273.5L52.25 432.25C47.5 438.25 49.5 446.25 58.75 446.25L278.25 446.25C293 446.25 300.25 457.25 300.25 469.5L300.25 471C300.25 512 331.75 551.5 378.75 551.5C425.5 551.5 457.25 512 457.25 471L457.25 469.5C457.25 457.25 464.25 446.25 479.25 446.25L698.75 446.25C708 446.25 710 438.25 705.25 432.25L580 273.5C564.25 253.5 546.5 245.5 522 245.5L457 245.5L457 206.5L518.25 206.5C572 206.5 588.5 219.5 623.25 262.5ZM44.25 486.75L44.25 649.75C44.25 685.5 63.25 704 98.25 704L659.25 704C693.5 704 713 685.5 713 649.75L713 486.75L499.25 486.75C493 547.75 443 592.5 378.75 592.5C314.5 592.5 264.25 548 258 486.75Z" fill="black" fill-opacity="0.85"/>
  <path d="M378.75 0C366.75 0 356.75 9.75 356.75 21.25L356.75 331.5L358.5 379L338.5 358.5L284.25 301.5C280.25 297 274.25 294.75 269 294.75C257.5 294.75 249.25 303 249.25 314.25C249.25 320 251.5 324.5 255.75 328.75L362.75 432.75C368.25 438.25 373 440 378.75 440C384.25 440 389.25 438.25 394.5 432.75L501.5 328.75C505.75 324.5 508 320 508 314.25C508 303 499.25 294.75 488 294.75C482.75 294.75 477 297 473 301.5L418.75 358.5L399 379L400.5 331.5L400.5 21.25C400.5 9.75 390.5 0 378.75 0Z" fill="black" fill-opacity="0.85"/>
 </g>
</svg>
