<?xml version="1.0" encoding="UTF-8"?>
<!--Generator: Apple Native CoreSVG 326-->
<!DOCTYPE svg
PUBLIC "-//W3C//DTD SVG 1.1//EN"
       "http://www.w3.org/Graphics/SVG/1.1/DTD/svg11.dtd">
<svg version="1.1" xmlns="http://www.w3.org/2000/svg" xmlns:xlink="http://www.w3.org/1999/xlink" viewBox="0 0 651.25 651.75">
 <g>
  <rect height="651.75" opacity="0" width="651.25" x="0" y="0"/>
  <path d="M651.25 326C651.25 505.5 505 651.75 325.5 651.75C146.25 651.75 0 505.5 0 326C0 146.75 146.25 0.5 325.5 0.5C505 0.5 651.25 146.75 651.25 326ZM257.25 178C230 178 219.25 184 201.5 208L140.25 290C134 298.75 131.75 304.75 131.75 318.5L131.75 409.25C131.75 441.75 148.5 458.5 181.5 458.5L470 458.5C503.25 458.5 520 441.5 520 409.25L520 318.5C520 304.75 517.75 298.75 511.25 290L450 208C432 184 421.5 178 394.25 178ZM422.25 220.5L482.25 301.5C484.25 304 483 308.25 478.5 308.25L378.5 308.25C370.75 308.25 367.25 314.25 367.25 320.25L367.25 323.75C367.25 347.75 350.5 363.5 325.75 363.5C301.25 363.5 285 347.75 285 323.75L285 320.25C285 314.25 280.75 308.25 273 308.25L173.25 308.25C168.5 308.25 167.5 304.5 169.75 301.5L229.5 220.5C236.25 211.25 243 207.25 255.25 207.25L396.75 207.25C408.75 207.25 415.5 211.5 422.25 220.5Z" fill="black" fill-opacity="0.85"/>
 </g>
</svg>
