<?xml version="1.0" encoding="UTF-8"?>
<!--Generator: Apple Native CoreSVG 326-->
<!DOCTYPE svg
PUBLIC "-//W3C//DTD SVG 1.1//EN"
       "http://www.w3.org/Graphics/SVG/1.1/DTD/svg11.dtd">
<svg version="1.1" xmlns="http://www.w3.org/2000/svg" xmlns:xlink="http://www.w3.org/1999/xlink" viewBox="0 0 757.5 542.75">
 <g>
  <rect height="542.75" opacity="0" width="757.5" x="0" y="0"/>
  <path d="M241 116L516.5 116C524.25 116 530.25 110 530.25 102C530.25 94.25 524.25 88 516.5 88L241 88C233 88 227 94.25 227 102C227 110 233 116 241 116ZM195.5 192.25L562 192.25C570 192.25 576.25 185.75 576.25 177.75C576.25 170 570 163 562 163L195.5 163C187.25 163 181 170 181 177.75C181 185.75 187.25 192.25 195.5 192.25ZM97.25 542.75L660 542.75C724.75 542.75 757.5 510 757.5 446.25L757.5 269.25C757.5 243 753.25 230.75 740.75 214L623.25 56.75C590.5 12.5 572 0.75 518.25 0.75L239.25 0.75C185.5 0.75 167 12.5 134.25 56.75L16.5 214C4.25 230.75 0 243 0 269.25L0 446.25C0 510.25 32.75 542.75 97.25 542.75ZM378.75 360.75C329.5 360.75 296.75 319.5 296.75 277L296.75 275.5C296.75 262.5 289 250.75 273.25 250.75L59.25 250.75C50 250.75 48 243 52.5 236.5L177.5 67.75C192.5 47.25 211 39.75 235.5 39.75L522 39.75C546.5 39.75 565 47.25 580 67.75L704.75 236.5C709.25 243 707.25 250.75 698 250.75L484.25 250.75C468.5 250.75 460.75 262.5 460.75 275.5L460.75 277C460.75 319.5 428 360.75 378.75 360.75Z" fill="black" fill-opacity="0.85"/>
 </g>
</svg>
