<?xml version="1.0" encoding="UTF-8"?>
<!--Generator: Apple Native CoreSVG 326-->
<!DOCTYPE svg
PUBLIC "-//W3C//DTD SVG 1.1//EN"
       "http://www.w3.org/Graphics/SVG/1.1/DTD/svg11.dtd">
<svg version="1.1" xmlns="http://www.w3.org/2000/svg" xmlns:xlink="http://www.w3.org/1999/xlink" viewBox="0 0 757.5 825.75">
 <g>
  <rect height="825.75" opacity="0" width="757.5" x="0" y="0"/>
  <path d="M623.25 264L740.75 421.25C753.25 438 757.5 450.25 757.5 476.5L757.5 653.5C757.5 717.25 724.75 750 660 750L97.25 750C32.75 750 0 717.5 0 653.5L0 476.5C0 450.25 4.25 438 16.5 421.25L134.25 264C167 219.75 185.5 208 239.25 208L300.5 208L300.5 247L235.5 247C211 247 192.5 254.5 177.5 275L52.5 443.75C48 450.25 50 458 59.25 458L273.25 458C289 458 296.75 469.75 296.75 482.75L296.75 484.25C296.75 526.75 329.5 568.25 378.75 568.25C428 568.25 460.75 526.75 460.75 484.25L460.75 482.75C460.75 469.75 468.5 458 484.25 458L698 458C707.25 458 709.25 450.25 704.75 443.75L580 275C565 254.5 546.5 247 522 247L457 247L457 208L518.25 208C572 208 590.5 219.75 623.25 264Z" fill="black" fill-opacity="0.85"/>
  <path d="M378.75 440.25C390.5 440.25 400.5 430.25 400.5 418.75L400.5 108.5L399 61.25L418.75 81.75L473 138.75C477 143.25 482.75 145.5 488 145.5C499.25 145.5 508 137.25 508 126C508 120 505.75 115.75 501.5 111.5L394.5 7.25C389.25 2 384.25 0 378.75 0C373 0 368.25 2 362.75 7.25L255.75 111.5C251.5 115.75 249.25 120 249.25 126C249.25 137.25 257.5 145.5 269 145.5C274.25 145.5 280.25 143.25 284.25 138.75L338.5 81.75L358.5 61L356.75 108.5L356.75 418.75C356.75 430.25 366.75 440.25 378.75 440.25Z" fill="black" fill-opacity="0.85"/>
 </g>
</svg>
