<?xml version="1.0" encoding="UTF-8"?>
<!--Generator: Apple Native CoreSVG 326-->
<!DOCTYPE svg
PUBLIC "-//W3C//DTD SVG 1.1//EN"
       "http://www.w3.org/Graphics/SVG/1.1/DTD/svg11.dtd">
<svg version="1.1" xmlns="http://www.w3.org/2000/svg" xmlns:xlink="http://www.w3.org/1999/xlink" viewBox="0 0 651.25 651.75">
 <g>
  <rect height="651.75" opacity="0" width="651.25" x="0" y="0"/>
  <path d="M325.5 651.25C505.25 651.25 651.25 505.5 651.25 325.75C651.25 146 505.25 0 325.5 0C145.75 0 0 146 0 325.75C0 505.5 145.75 651.25 325.5 651.25ZM325.5 604.75C171.25 604.75 46.5 480 46.5 325.75C46.5 171.5 171.25 46.75 325.5 46.75C479.75 46.75 604.5 171.5 604.5 325.75C604.5 480 479.75 604.75 325.5 604.75Z" fill="black" fill-opacity="0.85"/>
  <path d="M245.5 497.5L404.25 497.5C432 497.5 445.75 484.25 446 456.75L448 301L488.5 309.75C501.75 312.75 510.5 307.5 514.25 293.5L528.5 239.75C532 225.75 526.5 216 513.25 210.25L402.75 162C396.75 159.5 391.75 159.5 386.25 162.25C366.75 171.75 348 177.25 324.75 177.25C301.75 177.25 282.75 171.75 263.25 162.25C258 159.5 252.75 159.5 246.75 162L136.25 210.25C123 216 117.75 225.75 121.25 239.75L135.75 293.5C139 307.5 147.75 312.75 161 309.75L201.5 301L203.5 456.75C204 484.25 217.5 497.5 245.5 497.5ZM324.75 222C300.75 222 281.25 210.75 274.25 190.5C290 196 307.75 198.75 324.75 198.75C341.75 198.75 359.5 196 375.25 190.5C368.25 210.5 349.25 222 324.75 222Z" fill="black" fill-opacity="0.85"/>
 </g>
</svg>
