<?xml version="1.0" encoding="UTF-8"?>
<!--Generator: Apple Native CoreSVG 326-->
<!DOCTYPE svg
PUBLIC "-//W3C//DTD SVG 1.1//EN"
       "http://www.w3.org/Graphics/SVG/1.1/DTD/svg11.dtd">
<svg version="1.1" xmlns="http://www.w3.org/2000/svg" xmlns:xlink="http://www.w3.org/1999/xlink" viewBox="0 0 837.845 692.75">
 <g>
  <rect height="692.75" opacity="0" width="837.845" x="0" y="0"/>
  <path d="M256.547 692.75L581.297 692.75C638.797 692.75 666.547 665.5 667.547 608.5L671.547 290.5L753.547 309C781.547 315.25 799.297 304 806.547 275.25L835.547 164C843.047 135.5 832.047 115.5 804.547 103.75L578.547 5.5C566.297 0 555.547 0.5 544.547 6C504.047 25.5 466.547 36.25 419.047 36.25C371.297 36.25 333.797 25.5 293.547 6C282.297 0.5 271.547 0 259.297 5.5L33.2973 103.75C5.79734 115.5-4.95266 135.5 2.29734 164L31.2973 275.25C38.7973 304 56.5473 315.25 84.2973 309L166.297 290.5L170.547 608.5C171.297 665.5 199.047 692.75 256.547 692.75ZM419.047 135C363.297 135 321.297 103.75 306.297 54C341.297 67.75 380.797 75.5 419.047 75.5C457.047 75.5 496.547 67.75 531.547 54C517.047 103.25 475.297 135 419.047 135Z" fill="black" fill-opacity="0.85"/>
 </g>
</svg>
