<?xml version="1.0" encoding="UTF-8"?>
<!--Generator: Apple Native CoreSVG 326-->
<!DOCTYPE svg
PUBLIC "-//W3C//DTD SVG 1.1//EN"
       "http://www.w3.org/Graphics/SVG/1.1/DTD/svg11.dtd">
<svg version="1.1" xmlns="http://www.w3.org/2000/svg" xmlns:xlink="http://www.w3.org/1999/xlink" viewBox="0 0 706 679.75">
 <g>
  <rect height="679.75" opacity="0" width="706" x="0" y="0"/>
  <path d="M390.75 10.75L667 170.25C677 176 681.5 183.25 681.5 191.5C681.5 202.75 673 213.5 657.75 213.5L628.75 213.5L628.75 595.25L649.25 595.25C660.25 595.25 666.75 601.75 666.75 612.5L666.75 635L683.75 635C696 635 706 645 706 657.25C706 669.25 696 679.25 683.75 679.25L22.25 679.25C10 679.25 0 669.25 0 657.25C0 645 10 635 22.25 635L39.25 635L39.25 612.5C39.25 601.75 45.75 595.25 57 595.25L77.5 595.25L77.5 213.5L48.25 213.5C33 213.5 24.5 202.75 24.5 191.5C24.5 183.25 28.75 176 39 170.25L315.25 10.75C327.25 3.75 340.5 0 353 0C365.5 0 378.5 3.75 390.75 10.75ZM254.25 226.75C244.25 226.75 237.75 232.75 237.75 242C237.75 251 244.5 257 254.25 257L336.25 257L336.25 357.25L281 379.5C276 382 273.75 385.25 273.75 389.75C273.75 395 277.5 399.75 283.5 399.75C285.25 399.75 287.25 399.25 289.25 398.5L336.25 379.25L336.25 421.5L281 443.75C276 446 273.75 449 273.75 453.75C273.75 459 277.5 463.5 283.5 463.5C285.25 463.5 287.25 463.25 289.25 462.5L336.25 443.5L336.25 504.25C336.25 515.25 343 521.5 353.5 521.5C364 521.5 370.5 515.25 370.5 504.25L370.5 429.25L425.5 407C430.75 404.5 433 401.75 433 396.75C433 390 428.5 387 423.5 387C421.75 387 419.75 387.25 417.75 388L370.5 407.25L370.5 365.25L425.5 342.75C430.75 340.5 433 337.75 433 332.75C433 326 428.5 323 423.5 323C421.75 323 419.75 323.5 417.75 324L370.5 343.25L370.5 257L452.5 257C462.5 257 468.75 250.5 468.75 242C468.75 232.75 462.25 226.75 452.5 226.75Z" fill="black" fill-opacity="0.85"/>
 </g>
</svg>
