<?xml version="1.0" encoding="UTF-8"?>
<!--Generator: Apple Native CoreSVG 326-->
<!DOCTYPE svg
PUBLIC "-//W3C//DTD SVG 1.1//EN"
       "http://www.w3.org/Graphics/SVG/1.1/DTD/svg11.dtd">
<svg version="1.1" xmlns="http://www.w3.org/2000/svg" xmlns:xlink="http://www.w3.org/1999/xlink" viewBox="0 0 672.377 674.75">
 <g>
  <rect height="674.75" opacity="0" width="672.377" x="0" y="0"/>
  <path d="M176.064 337.25L175.814 459.5L46.0636 589.5L85.0636 628.25L213.064 500.75L339.064 500C360.564 500 382.314 493 398.814 476.75L664.314 214C675.314 203.25 674.814 186 664.314 175C653.814 164.25 635.814 164.25 625.314 175.25L368.064 433.25C358.064 443.25 345.314 449.5 330.314 449.5L234.064 449.5L230.064 444.5L230.064 343C230.064 328 236.064 315.25 246.064 305L501.064 50.75C511.814 40.25 511.314 22.5 501.064 11.75C490.564 1 472.564 0.75 462.064 11.75L199.564 277.5C182.814 294.5 176.314 315.75 176.064 337.25ZM55.5636 674.75C86.0636 674.75 111.064 649.75 111.064 619.25C111.064 588.25 86.0636 563.25 55.3136 563.5C24.8136 563.75 0.0635898 588.25 0.0635898 619.25C0.0635898 649.75 24.8136 674.75 55.5636 674.75Z" fill="black" fill-opacity="0.85"/>
 </g>
</svg>
