<?xml version="1.0" encoding="UTF-8"?>
<!--Generator: Apple Native CoreSVG 326-->
<!DOCTYPE svg
PUBLIC "-//W3C//DTD SVG 1.1//EN"
       "http://www.w3.org/Graphics/SVG/1.1/DTD/svg11.dtd">
<svg version="1.1" xmlns="http://www.w3.org/2000/svg" xmlns:xlink="http://www.w3.org/1999/xlink" viewBox="0 0 701.75 753.75">
 <g>
  <rect height="753.75" opacity="0" width="701.75" x="0" y="0"/>
  <path d="M317 92.25L364.5 92.25L364.5 23.75C364.5 10.5 354.25 0 340.75 0C327.25 0 317 10.5 317 23.75ZM46.5 401.5C55.25 401.5 62.75 395.75 69 386.25C91 353 114.75 339 146 339C176.75 339 197.75 352.75 216.5 385.75C223 396.75 229.25 401.5 237.5 401.5C246.25 401.5 252.5 396.5 258.25 385.75C275.75 356 309.25 337.5 340.75 337.5C372.25 337.5 405.75 356 423.25 385.75C429 396.5 435.25 401.5 444 401.5C452.25 401.5 458.5 396.75 465 385.75C483.75 352.75 504.75 339 535.5 339C566.75 339 590.5 353 612.5 386.25C618.75 395.75 626.25 401.5 635 401.5C649 401.5 658.25 390.25 658.25 374.75C658.25 246.75 557.25 70.75 340.75 70.75C124.25 70.75 23.25 246.75 23.25 374.75C23.25 390.25 32.5 401.5 46.5 401.5ZM340.75 294.5C301.5 294.5 262.75 313.25 240 342.75C238.5 344.5 237.5 344.5 236.25 342.75C214.5 311.5 184.75 296 146 296C105.25 296 71.5 313.25 43.5 348.5L68 350.5C80.5 225.5 185.5 113.75 340.75 113.75C495.5 113.75 600.5 224.75 613.5 349.5L637.25 347.5C609.5 313 576 296 535.5 296C496.75 296 467 311.5 445.25 342.75C444 344.5 443 344.5 441.5 342.75C418.75 313.25 380 294.5 340.75 294.5ZM265.25 737C321.5 737 364.5 694 364.5 637.5L364.5 323.5L317 323.5L317 637.5C317 667.25 295.25 688.75 265.25 688.75C235.25 688.75 214 667.25 214 637.5C214 620.75 204 609.5 189.25 609.5C175 609.5 165.75 620.5 165.75 637.5C165.75 694.25 208.5 737 265.25 737Z" fill="black" fill-opacity="0.85"/>
  <path d="M491.75 606.75C524.5 606.75 545.5 580 545.5 538.25C545.5 496.25 524.25 469.5 491.75 469.5C459.25 469.5 438.5 496.25 438.5 538.25C438.5 580 459 606.75 491.75 606.75ZM491.75 572.5C481.25 572.5 475 559.75 475 538.25C475 517 481.5 503.75 491.75 503.75C502 503.75 509 517 509 538.25C509 559.75 502.25 572.5 491.75 572.5ZM483 734C491.5 739 503 736.25 509 728L661.75 497.5C668.75 487.5 665.75 475.25 656.5 470.25C648 465.5 637.25 468 631 477L477.5 707C470.5 717.25 473.25 728.75 483 734ZM648.25 735C680.75 735 701.75 707.75 701.75 666C701.75 624.25 680.75 597.25 648.25 597.25C615.5 597.25 594.75 624 594.75 666C594.75 707.75 615.5 735 648.25 735ZM648.25 700.25C637.5 700.25 631.25 687.75 631.25 666C631.25 644.75 637.75 631.75 648.25 631.75C658.25 631.75 665.25 645 665.25 666C665.25 687.75 658.75 700.25 648.25 700.25Z" fill="black" fill-opacity="0.85"/>
 </g>
</svg>
