<?xml version="1.0" encoding="UTF-8"?>
<!--Generator: Apple Native CoreSVG 326-->
<!DOCTYPE svg
PUBLIC "-//W3C//DTD SVG 1.1//EN"
       "http://www.w3.org/Graphics/SVG/1.1/DTD/svg11.dtd">
<svg version="1.1" xmlns="http://www.w3.org/2000/svg" xmlns:xlink="http://www.w3.org/1999/xlink" viewBox="0 0 411 720.75">
 <g>
  <rect height="720.75" opacity="0" width="411" x="0" y="0"/>
  <path d="M411 195.75L411 524.75C411 639.5 326.5 720.25 205.75 720.25C85 720.25 0 639.5 0 524.75L0 195.75C0 80.75 85 0 205.75 0C326.5 0 411 80.75 411 195.75ZM86 508.5C86 575.5 138.5 628.25 205.75 628.25C272.5 628.25 325 575.5 325 508.5C325 441.75 272.5 389 205.75 389C138.5 389 86 441.75 86 508.5ZM287 508.5C287 555.25 252 590.25 205.75 590.25C159 590.25 124 555.25 124 508.5C124 462 159 426.75 205.75 426.75C252 426.75 287 462 287 508.5ZM86 210.25C86 277 138.5 329.75 205.75 329.75C272.5 329.75 325 277 325 210.25C325 143.25 272.5 90.5 205.75 90.5C138.5 90.5 86 143.25 86 210.25ZM249.75 210.25C249.75 235.25 230.25 254.75 205.75 254.75C180.75 254.75 161 235.25 161 210.25C161 185 180.75 165.5 205.75 165.5C230.25 165.5 249.75 185 249.75 210.25Z" fill="black" fill-opacity="0.85"/>
 </g>
</svg>
