<?xml version="1.0" encoding="UTF-8"?>
<!--Generator: Apple Native CoreSVG 326-->
<!DOCTYPE svg
PUBLIC "-//W3C//DTD SVG 1.1//EN"
       "http://www.w3.org/Graphics/SVG/1.1/DTD/svg11.dtd">
<svg version="1.1" xmlns="http://www.w3.org/2000/svg" xmlns:xlink="http://www.w3.org/1999/xlink" viewBox="0 0 536.75 689.25">
 <g>
  <rect height="689.25" opacity="0" width="536.75" x="0" y="0"/>
  <path d="M96.25 689.25L440.5 689.25C504 689.25 536.75 656.25 536.75 592L536.75 97.5C536.75 32.75 504.5 0.25 440.5 0.25L355.5 0.25C346.25 0.25 340 6.75 340 16.75C340 17.75 340 19.25 340 20.5C340 61.75 311 88 268.5 88C225.75 88 196.75 61.75 196.75 20.5C196.75 19.25 196.75 17.75 196.75 16.75C196.75 6.75 190.5 0.25 181.25 0.25L96.25 0.25C32.25 0.25 0 32.75 0 97.5L0 592C0 656.25 32.75 689.25 96.25 689.25ZM143.5 233.75C133.25 233.75 125.75 226 125.75 216C125.75 206.25 133.25 198.75 143.5 198.75L393.75 198.75C403.5 198.75 411 206.25 411 216C411 226 403.5 233.75 393.75 233.75ZM143.5 350.25C133.25 350.25 125.75 342.75 125.75 333C125.75 323.25 133.25 315.5 143.5 315.5L263.25 315.5C273.25 315.5 280.75 323.25 280.75 333C280.75 342.75 273.25 350.25 263.25 350.25Z" fill="black" fill-opacity="0.85"/>
 </g>
</svg>
