<?xml version="1.0" encoding="UTF-8"?>
<!--Generator: Apple Native CoreSVG 326-->
<!DOCTYPE svg
PUBLIC "-//W3C//DTD SVG 1.1//EN"
       "http://www.w3.org/Graphics/SVG/1.1/DTD/svg11.dtd">
<svg version="1.1" xmlns="http://www.w3.org/2000/svg" xmlns:xlink="http://www.w3.org/1999/xlink" viewBox="0 0 765.75 657.75">
 <g>
  <rect height="657.75" opacity="0" width="765.75" x="0" y="0"/>
  <path d="M93.75 657.75L616.75 657.75C679 657.75 710.5 626 710.5 565L710.5 476.25L665.75 476.25L665.75 562.75C665.75 596.25 647.75 613 616 613L94.5 613C62.25 613 44.75 596.25 44.75 562.75L44.75 234C44.75 200.75 62.25 183.5 94.5 183.5L616 183.5C647.75 183.5 665.75 200.75 665.75 234L665.75 311.25L710.5 311.25L710.5 231.75C710.5 170.75 679 139 616.75 139L233.25 139C227.75 139 227 133.75 232.75 132.5L509 57C542.5 47.5 560.5 61.25 560.5 91.25L560.5 158L605.5 154.5L605.5 94.75C605.5 24.5 557.5-0.25 489.5 19L67 139.5C21.5 153 0 181.5 0 231.75L0 565C0 626.25 32 657.75 93.75 657.75ZM585 431.25C603.5 431.25 618.5 416.25 618.5 397.75C618.5 379.25 603.5 364.25 585 364.25C566.25 364.25 551.25 379.25 551.25 397.75C551.25 416.25 566.25 431.25 585 431.25ZM586.25 499L702.5 499C741.5 499 765.75 472.75 765.75 435.75L765.75 360.25C765.75 323.25 741.5 297 702.5 297L586.25 297C519 297 475.75 331 475.75 398C475.75 465 519 499 586.25 499ZM588.75 461.5C539.75 461.5 515.25 437.75 515.25 398C515.25 358 539.75 334.5 588.75 334.5L694.5 334.5C716.75 334.5 728.25 347 728.25 368.25L728.25 427.75C728.25 449 716.75 461.5 694.5 461.5Z" fill="black" fill-opacity="0.85"/>
 </g>
</svg>
