<?xml version="1.0" encoding="UTF-8"?>
<!--Generator: Apple Native CoreSVG 326-->
<!DOCTYPE svg
PUBLIC "-//W3C//DTD SVG 1.1//EN"
       "http://www.w3.org/Graphics/SVG/1.1/DTD/svg11.dtd">
<svg version="1.1" xmlns="http://www.w3.org/2000/svg" xmlns:xlink="http://www.w3.org/1999/xlink" viewBox="0 0 686.5 689.25">
 <g>
  <rect height="689.25" opacity="0" width="686.5" x="0" y="0"/>
  <path d="M655.75 658.75C667.75 646 668 626.75 655.75 614.25L347.5 305.25C335.5 292.75 314.75 292.75 303 305.25C291 317.75 291.25 337.5 303 349.75L611.25 658.75C623.75 671.5 644 671.25 655.75 658.75ZM637.75 641.25C633.25 645.75 627 645 621.75 639.75L420 437.5L434.75 423L636.5 625.25C641.25 630.25 642.75 636.25 637.75 641.25Z" fill="black" fill-opacity="0.85"/>
  <path d="M662.5 367.25C675.5 367.25 686.5 356.25 686.5 343.25C686.5 330.25 675.5 319 662.5 319L562.75 319C549.75 319 538.5 330.25 538.5 343.25C538.5 356.25 549.75 367.25 562.75 367.25Z" fill="black" fill-opacity="0.85"/>
  <path d="M480.75 171.75C471.5 181.25 471.5 196.5 480.75 205.75C490 215 505.5 215 514.75 205.75L585.25 135.25C594.5 126 594.5 110.5 585.25 101.25C576 91.75 560.75 91.75 551.5 101.25Z" fill="black" fill-opacity="0.85"/>
  <path d="M367.5 24C367.5 11 356.25 0 343.25 0C330.25 0 319.25 11 319.25 24L319.25 123.75C319.25 136.75 330.25 148 343.25 148C356.25 148 367.5 136.75 367.5 123.75Z" fill="black" fill-opacity="0.85"/>
  <path d="M171.5 205.75C180.75 215 196.25 215 205.5 205.75C214.75 196.75 214.75 181.25 205.5 171.75L135.5 101.5C126.25 92.25 110.75 91.75 101.5 101.25C92.25 110.25 92.25 125.75 101.5 135Z" fill="black" fill-opacity="0.85"/>
  <path d="M24.25 319C11 319 0 330.25 0 343.25C0 356.25 11 367.25 24.25 367.25L124 367.25C137.25 367.25 148.25 356.25 148.25 343.25C148.25 330.25 137.25 319 124 319Z" fill="black" fill-opacity="0.85"/>
  <path d="M101 551C92 560.25 91.75 575.75 100.75 585C110 594 125.75 594.5 135 585.25L205.5 515C214.5 505.75 214.75 490.25 205.5 481C196.5 472 180.75 471.75 171.5 481Z" fill="black" fill-opacity="0.85"/>
  <path d="M367.5 562.75C367.5 549.75 356.25 538.75 343.25 538.75C330.25 538.75 319.25 549.75 319.25 562.75L319.25 662.5C319.25 675.5 330.25 686.75 343.25 686.75C356.25 686.75 367.5 675.5 367.5 662.5Z" fill="black" fill-opacity="0.85"/>
 </g>
</svg>
