<?xml version="1.0" encoding="UTF-8"?>
<!--Generator: Apple Native CoreSVG 326-->
<!DOCTYPE svg
PUBLIC "-//W3C//DTD SVG 1.1//EN"
       "http://www.w3.org/Graphics/SVG/1.1/DTD/svg11.dtd">
<svg version="1.1" xmlns="http://www.w3.org/2000/svg" xmlns:xlink="http://www.w3.org/1999/xlink" viewBox="0 0 528.25 753.25">
 <g>
  <rect height="753.25" opacity="0" width="528.25" x="0" y="0"/>
  <path d="M123 166.25L249 157.25L375 166L375 32.5C375 13.5 361.25 0.25 341.5 0.25L156.5 0.5C136.75 0.5 123 13.75 123 33ZM156.5 753L341.5 753.25C361.25 753.25 375 740 375 721L375 586.5L249 594.75L123 586.25L123 720.75C123 739.75 136.75 753 156.5 753ZM249 625.5C389.5 625.5 498 517 498 376.5C498 235.75 389.5 127.5 249 127.5C108.5 127.5 0 235.75 0 376.5C0 517 108.5 625.5 249 625.5ZM249 583.75C125.75 583.75 41.75 499.75 41.75 376.5C41.75 253.25 125.75 169.25 249 169.25C372.25 169.25 456.25 253.25 456.25 376.5C456.25 499.75 372.25 583.75 249 583.75ZM482 425L512.5 425C521.5 425 528.25 418 528.25 408.75L528.25 343.75C528.25 334.25 521.25 327.5 512.25 327.5L482 327.5Z" fill="black" fill-opacity="0.85"/>
  <path d="M268 392L371.5 302C379.5 294.75 379.5 282.25 371.5 274C364.25 267 352.5 267 344 274.25L249 356.75L190.25 307C182.5 300.5 170.25 301.5 163 309.75C156.25 318 157.25 330.25 165.75 337.25L230.75 392C243.5 403 255.75 403 268 392Z" fill="black" fill-opacity="0.85"/>
 </g>
</svg>
