<?xml version="1.0" encoding="UTF-8"?>
<!--Generator: Apple Native CoreSVG 326-->
<!DOCTYPE svg
PUBLIC "-//W3C//DTD SVG 1.1//EN"
       "http://www.w3.org/Graphics/SVG/1.1/DTD/svg11.dtd">
<svg version="1.1" xmlns="http://www.w3.org/2000/svg" xmlns:xlink="http://www.w3.org/1999/xlink" viewBox="0 0 349.75 757.25">
 <g>
  <rect height="757.25" opacity="0" width="349.75" x="0" y="0"/>
  <path d="M87 81.5L263 81.5C278.75 81.5 290.25 70.5 290.25 54.25L290.25 27.25C290.25 11.25 278.75 0 263 0L87 0C70.75 0 59.75 11.25 59.75 27.25L59.75 54.25C59.75 70.5 70.75 81.5 87 81.5ZM0.25 238.25L349.5 238.25C348.5 200.25 342.75 173.75 321.5 145.25L312.5 133C304.25 121.5 291 114 276.75 114L73 114C58.75 114 45.5 121.5 37 133L28.25 145.25C7 173.75 1.25 200.25 0.25 238.25ZM0 277L0 605.25L349.75 605.25L349.75 277ZM174.75 551C128.25 551 97.75 521.25 97.75 476.5C97.75 453.5 108.25 435 113.5 423C125.75 396.75 145.75 362.75 163 336.75C166.25 331.5 170.75 328.75 174.75 328.75C179.25 328.75 183.25 331.5 186.5 336.75C203.75 362.75 224.25 396.75 236 423C241.75 435 251.75 453.5 251.75 476.5C251.75 521.25 221.25 551 174.75 551ZM0 644L0 652.25C0 720.5 33.75 756.75 96.25 756.75L253.25 756.75C316 756.75 349.75 720.5 349.75 652.25L349.75 644Z" fill="black" fill-opacity="0.85"/>
 </g>
</svg>
