<?xml version="1.0" encoding="UTF-8"?>
<!--Generator: Apple Native CoreSVG 326-->
<!DOCTYPE svg
PUBLIC "-//W3C//DTD SVG 1.1//EN"
       "http://www.w3.org/Graphics/SVG/1.1/DTD/svg11.dtd">
<svg version="1.1" xmlns="http://www.w3.org/2000/svg" xmlns:xlink="http://www.w3.org/1999/xlink" viewBox="0 0 509.5 639.25">
 <g>
  <rect height="639.25" opacity="0" width="509.5" x="0" y="0"/>
  <path d="M509.5 254.75C509.5 388.212 407.363 497.484 277.25 508.625L277.25 594.5L365.75 594.5C378 594.5 388 604.5 388 616.75C388 628.75 378 638.75 365.75 638.75L144 638.75C132 638.75 122 628.75 122 616.75C122 604.5 132 594.5 144.25 594.5L232.75 594.5L232.75 508.627C102.381 497.506 0 388.226 0 254.75C0 114 114.25 0 255 0C395.5 0 509.5 114 509.5 254.75ZM103.75 254.75C103.75 339.5 170.5 406.25 255 406.25C339.5 406.25 405.75 339.5 405.75 254.75C405.75 170.5 339.5 103.5 255 103.5C170.5 103.5 103.75 170.5 103.75 254.75ZM325 254.75C325 294.25 294.25 325.5 255 325.5C215.75 325.5 184.5 294.25 184.5 254.75C184.5 215.5 215.75 184.5 255 184.5C294.25 184.5 325 215.5 325 254.75Z" fill="black" fill-opacity="0.85"/>
 </g>
</svg>
