<?xml version="1.0" encoding="UTF-8"?>
<!--Generator: Apple Native CoreSVG 326-->
<!DOCTYPE svg
PUBLIC "-//W3C//DTD SVG 1.1//EN"
       "http://www.w3.org/Graphics/SVG/1.1/DTD/svg11.dtd">
<svg version="1.1" xmlns="http://www.w3.org/2000/svg" xmlns:xlink="http://www.w3.org/1999/xlink" viewBox="0 0 461.25 754.75">
 <g>
  <rect height="754.75" opacity="0" width="461.25" x="0" y="0"/>
  <path d="M230.5 463.75C369.25 463.75 461.25 381.75 461.25 257C461.25 191.75 434 106.25 394 44.75C375.5 16.25 315.25 0 230.75 0C145.75 0 85.5 16.25 67 44.75C27 106.25 0 191.75 0 257C0 381.75 91.75 463.75 230.5 463.75ZM230.5 422C114.5 422 41.75 358.5 41.75 257C41.75 207.75 59.5 143.5 88.5 91C115 106.5 166.75 116 230.75 116C294.25 116 346 106.5 372.5 91C401.5 143.5 419.5 207.75 419.5 257C419.5 358.5 346.5 422 230.5 422ZM230.75 76.75C165.75 76.75 105.5 66 105.5 58C105.5 50.25 166.75 39.5 230.75 39.5C294.5 39.5 355.75 50.25 355.75 58C355.75 66 295.25 76.75 230.75 76.75ZM230.5 682C241.75 682 251.5 672.25 251.5 661L251.5 442.5L210 442.5L210 661C210 672.5 219.25 682 230.5 682ZM230.5 754.25C343 754 411.5 726.75 411.5 681C411.5 635.5 342.75 607.75 230.5 607.75C118.25 607.75 50 635.5 50 681C50 726.75 118 754 230.5 754.25ZM230.5 713.5C148.25 713.5 94.25 699.25 94.25 681C94.25 663 148.75 648.25 230.5 648.25C312.5 648.25 367.25 663 367.25 681C367.25 699 312.75 713.5 230.5 713.5Z" fill="black" fill-opacity="0.85"/>
 </g>
</svg>
