<?xml version="1.0" encoding="UTF-8"?>
<!--Generator: Apple Native CoreSVG 326-->
<!DOCTYPE svg
PUBLIC "-//W3C//DTD SVG 1.1//EN"
       "http://www.w3.org/Graphics/SVG/1.1/DTD/svg11.dtd">
<svg version="1.1" xmlns="http://www.w3.org/2000/svg" xmlns:xlink="http://www.w3.org/1999/xlink" viewBox="0 0 756.278 770.889">
 <g>
  <rect height="770.889" opacity="0" width="756.278" x="0" y="0"/>
  <path d="M603.389 564.069L633.639 568.569C644.139 570.069 653.389 576.569 659.889 585.819L728.139 686.319C734.389 695.319 735.139 704.819 728.389 711.569L674.139 765.569C667.389 772.319 658.389 772.819 648.639 766.069L548.389 697.319C539.139 690.819 532.639 681.569 531.139 671.069L526.389 640.819L382.011 496.904C389.628 487.219 397.963 477.03 407.103 466.299L565.389 624.819L572.139 661.569L657.639 726.319L688.889 695.319L624.139 609.319L587.389 603.319L426.946 443.348C435.138 434.05 443.899 424.379 453.351 414.265ZM206.139 69.0694L411.318 274.248C411.475 274.699 411.681 275.135 411.889 275.569C402.53 284.875 393.434 293.756 384.684 302.088L177.139 94.3194C153.639 70.8194 126.389 70.8194 102.389 94.8194L57.889 140.069C33.889 164.569 33.389 190.819 56.889 214.569L255.557 413.024C244.293 421.433 233.664 428.976 223.647 435.747L31.639 243.319C-10.611 201.319-10.111 154.069 31.889 112.069L74.639 69.3194C116.639 27.3194 163.889 26.8194 206.139 69.0694ZM118.639 180.819L240.889 303.069C245.639 307.569 245.389 314.319 241.139 318.569C236.889 323.069 229.639 323.319 225.139 318.819L102.639 196.819C98.139 192.569 98.639 185.319 102.639 180.819C107.139 176.319 114.889 176.819 118.639 180.819ZM158.889 140.569L281.389 262.569C285.639 266.819 285.639 273.819 281.139 278.819C277.389 282.819 269.639 283.319 265.389 278.819L143.389 156.069C139.139 151.819 138.889 145.069 143.389 140.569C147.389 136.319 154.389 136.069 158.889 140.569Z" fill="black" fill-opacity="0.85"/>
  <path d="M47.639 729.069C102.139 783.069 175.389 783.569 229.139 729.569C298.389 659.819 281.389 585.319 501.139 364.569C568.639 396.819 650.889 386.069 705.389 331.569C761.889 275.319 772.139 187.069 732.139 115.819L647.139 200.819C637.139 210.819 625.389 211.069 614.889 200.819L576.139 161.819C565.889 151.319 565.139 139.319 575.139 129.319L660.389 44.5694C589.389 4.31944 501.639 14.5694 445.139 71.3194C390.389 125.819 379.639 208.069 411.889 275.569C191.139 495.069 116.639 478.069 46.889 547.069C-7.11102 601.069-6.61102 674.319 47.639 729.069ZM474.889 301.569C417.389 243.819 415.639 152.319 471.139 97.0694C504.139 64.3194 550.889 51.5694 594.639 60.0694L545.639 108.819C522.389 132.319 522.889 160.819 546.889 184.319L592.139 229.569C615.889 253.069 644.389 253.319 667.139 230.819L716.639 181.069C725.139 225.569 712.389 272.319 679.139 305.569C623.639 360.819 532.889 358.819 474.889 301.569ZM75.139 701.319C37.139 662.569 37.389 612.819 74.389 575.819C148.139 502.319 196.889 535.319 430.889 306.569C436.139 313.819 442.139 320.819 448.639 327.569C455.389 334.069 462.389 340.319 470.139 345.569C241.139 579.569 274.139 628.319 200.639 702.069C163.639 739.069 113.639 739.569 75.139 701.319ZM137.139 679.069C158.639 679.069 175.889 661.819 175.889 640.319C175.889 618.819 158.639 601.569 137.139 601.569C115.639 601.569 98.389 618.819 98.389 640.319C98.389 661.819 115.639 679.069 137.139 679.069Z" fill="black" fill-opacity="0.85"/>
 </g>
</svg>
