<?xml version="1.0" encoding="UTF-8"?>
<!--Generator: Apple Native CoreSVG 326-->
<!DOCTYPE svg
PUBLIC "-//W3C//DTD SVG 1.1//EN"
       "http://www.w3.org/Graphics/SVG/1.1/DTD/svg11.dtd">
<svg version="1.1" xmlns="http://www.w3.org/2000/svg" xmlns:xlink="http://www.w3.org/1999/xlink" viewBox="0 0 747.128 768.945">
 <g>
  <rect height="768.945" opacity="0" width="747.128" x="0" y="0"/>
  <path d="M38.8138 730.348C91.0638 782.598 166.564 783.348 219.564 723.098C277.564 657.098 346.564 529.098 439.314 436.098C513.064 362.598 591.564 436.348 692.314 339.598C730.064 303.348 751.064 251.848 745.314 213.098L624.564 245.848C600.814 252.098 585.564 237.848 579.064 214.598L569.564 181.598C562.814 158.598 570.064 138.598 593.814 132.098L714.064 99.5977C710.314 89.3477 700.564 75.3477 688.314 62.8477C615.314-11.6523 492.564-11.6523 421.064 56.0977C314.814 157.348 397.064 264.348 323.314 338.098C239.814 421.598 111.814 491.598 45.8138 549.598C-14.4362 602.348-13.6862 678.098 38.8138 730.348ZM65.5638 703.598C29.5638 666.848 29.8138 612.348 71.8138 575.598C139.064 517.098 275.314 439.598 350.064 364.848C433.814 281.098 348.314 175.098 448.064 82.8477C507.064 28.3477 609.564 31.0977 667.064 91.5977L676.064 74.3477L585.814 98.0977C540.314 110.098 520.564 144.598 534.314 192.348L543.314 223.598C558.564 276.098 589.814 291.098 632.064 279.598L724.314 254.348L707.564 244.848C701.314 268.598 689.314 294.348 666.314 316.848C583.814 397.348 493.814 328.098 412.564 409.348C328.814 492.848 252.314 630.098 193.564 697.348C156.314 740.348 101.314 740.348 65.5638 703.598ZM455.314 319.848L524.564 301.098C530.064 299.598 533.564 293.598 532.064 287.848C530.564 282.348 525.064 278.848 519.064 280.598L449.814 299.098C444.064 300.598 440.814 306.348 442.064 312.098C443.314 318.348 449.564 321.348 455.314 319.848ZM446.814 284.098L515.564 265.848C521.314 264.348 524.814 258.348 523.064 252.348C521.564 246.598 515.814 243.348 510.314 244.848L440.814 263.348C435.064 264.848 431.814 270.848 433.314 276.348C435.064 282.598 440.564 285.848 446.814 284.098ZM438.314 248.348L507.064 230.098C512.814 228.598 516.314 222.598 514.564 216.598C513.064 210.848 507.314 207.598 501.814 209.098L432.314 227.598C426.564 229.098 423.314 235.098 424.814 240.598C426.564 246.848 432.064 250.098 438.314 248.348ZM584.814 372.598L611.064 366.848L569.814 218.348L543.314 223.598ZM128.064 680.348C149.314 680.348 166.564 663.098 166.564 641.348C166.564 620.098 149.314 602.598 128.064 602.598C106.564 602.598 89.0638 620.098 89.0638 641.348C89.0638 663.098 106.564 680.348 128.064 680.348Z" fill="black" fill-opacity="0.85"/>
 </g>
</svg>
