<?xml version="1.0" encoding="UTF-8"?>
<!--Generator: Apple Native CoreSVG 326-->
<!DOCTYPE svg
PUBLIC "-//W3C//DTD SVG 1.1//EN"
       "http://www.w3.org/Graphics/SVG/1.1/DTD/svg11.dtd">
<svg version="1.1" xmlns="http://www.w3.org/2000/svg" xmlns:xlink="http://www.w3.org/1999/xlink" viewBox="0 0 756.278 768.752">
 <g>
  <rect height="768.752" opacity="0" width="756.278" x="0" y="0"/>
  <path d="M599.389 570.751L633.889 573.001C643.639 573.501 653.389 580.001 659.139 589.751L720.389 695.501C725.389 705.001 726.389 712.251 720.389 718.251L682.139 756.751C675.889 763.001 668.639 762.001 659.389 757.001L553.389 695.501C543.139 689.751 537.139 679.751 536.639 670.501L534.139 636.251L387.184 489.296C404.246 468.069 424.124 444.886 447.586 419.399ZM206.139 68.0009L411.318 273.18C411.475 273.631 411.681 274.066 411.889 274.501C332.33 353.61 271.767 401.999 223.647 434.679L31.639 242.251C-10.611 200.251-10.111 153.001 31.889 111.001L74.639 68.2509C116.639 26.2509 163.889 25.7509 206.139 68.0009ZM98.389 177.251C94.139 182.001 93.639 189.501 98.389 194.251L226.639 322.001C231.389 326.751 239.139 326.751 243.639 321.751C248.139 317.251 248.389 310.251 243.389 305.501L115.139 177.251C110.889 173.001 103.139 172.501 98.389 177.251ZM140.889 135.251C136.139 140.001 136.389 147.001 140.889 151.501L268.889 280.251C273.389 285.001 281.639 284.501 285.389 280.251C290.389 275.001 290.389 267.501 285.639 263.001L157.389 135.251C152.639 130.251 145.139 130.501 140.889 135.251Z" fill="black" fill-opacity="0.85"/>
  <path d="M47.639 728.001C102.139 782.001 175.389 782.501 229.139 728.501C298.389 658.751 281.389 584.251 501.139 363.501C568.639 395.751 650.889 385.001 705.389 330.501C761.889 274.251 772.139 186.001 732.139 114.751L647.139 199.751C637.139 209.751 625.389 210.001 614.889 199.751L576.139 160.751C565.889 150.251 565.139 138.251 575.139 128.251L660.389 43.5009C589.389 3.25087 501.639 13.5009 445.139 70.2509C390.389 124.751 379.639 207.001 411.889 274.501C191.139 494.001 116.639 477.001 46.889 546.001C-7.11102 600.001-6.61102 673.251 47.639 728.001ZM474.889 300.501C417.389 242.751 415.639 151.251 471.139 96.0009C504.139 63.2509 550.889 50.5009 594.639 59.0009L545.639 107.751C522.389 131.251 522.889 159.751 546.889 183.251L592.139 228.501C615.889 252.001 644.389 252.251 667.139 229.751L716.639 180.001C725.139 224.501 712.389 271.251 679.139 304.501C623.639 359.751 532.889 357.751 474.889 300.501ZM75.139 700.251C37.139 661.501 37.389 611.751 74.389 574.751C148.139 501.251 196.889 534.251 430.889 305.501C436.139 312.751 442.139 319.751 448.639 326.501C455.389 333.001 462.389 339.251 470.139 344.501C241.139 578.501 274.139 627.251 200.639 701.001C163.639 738.001 113.639 738.501 75.139 700.251ZM137.139 678.001C158.639 678.001 175.889 660.751 175.889 639.251C175.889 617.751 158.639 600.501 137.139 600.501C115.639 600.501 98.389 617.751 98.389 639.251C98.389 660.751 115.639 678.001 137.139 678.001Z" fill="black" fill-opacity="0.85"/>
 </g>
</svg>
