<?xml version="1.0" encoding="UTF-8"?>
<!--Generator: Apple Native CoreSVG 326-->
<!DOCTYPE svg
PUBLIC "-//W3C//DTD SVG 1.1//EN"
       "http://www.w3.org/Graphics/SVG/1.1/DTD/svg11.dtd">
<svg version="1.1" xmlns="http://www.w3.org/2000/svg" xmlns:xlink="http://www.w3.org/1999/xlink" viewBox="0 0 767.25 588.25">
 <g>
  <rect height="588.25" opacity="0" width="767.25" x="0" y="0"/>
  <path d="M647.25 495C638.25 555.5 612.75 588.25 551.5 588.25L215.75 588.25C154.25 588.25 129.25 556 120 495L73.25 185.75L693.75 185.75ZM466.5 263.75L383.5 346.25L301 264C296.5 260 292 257.25 286 257.25C274.25 257.25 264 267.25 264 279C264 285 266.75 290.25 270.75 294.25L352.75 376.75L270.75 459.25C266.75 463 264 468 264 474.25C264 486.25 274 496.5 286 496.5C292 496.5 297.25 493.5 301.25 489.75L383.5 407.5L466 489.75C470 493.25 475 496.5 481.5 496.5C493.25 496.5 503.25 486 503.25 474.25C503.25 467.75 500.5 463 496.5 459L414.5 376.75L496.75 294C501 289.25 503.5 284.75 503.5 279C503.5 266.75 493.75 256.75 481.5 256.75C475.75 256.75 471.25 259.5 466.5 263.75ZM767.25 55.75L767.25 91C767.25 125 749.25 146 714.75 146L52.25 146C18 146 0 125 0 91L0 55.75C0 21.5 19.5 0.75 52.25 0.75L714.75 0.75C749.25 0.75 767.25 21.5 767.25 55.75Z" fill="black" fill-opacity="0.85"/>
 </g>
</svg>
