<?xml version="1.0" encoding="UTF-8"?>
<!--Generator: Apple Native CoreSVG 326-->
<!DOCTYPE svg
PUBLIC "-//W3C//DTD SVG 1.1//EN"
       "http://www.w3.org/Graphics/SVG/1.1/DTD/svg11.dtd">
<svg version="1.1" xmlns="http://www.w3.org/2000/svg" xmlns:xlink="http://www.w3.org/1999/xlink" viewBox="0 0 651.25 653.25">
 <g>
  <rect height="653.25" opacity="0" width="651.25" x="0" y="0"/>
  <path d="M325.5 653.25C505.25 653.25 651.25 507.5 651.25 327.75C651.25 148 505.25 2 325.5 2C145.75 2 0 148 0 327.75C0 507.5 145.75 653.25 325.5 653.25ZM325.5 606.75C171.25 606.75 46.5 482 46.5 327.75C46.5 173.5 171.25 48.75 325.5 48.75C479.75 48.75 604.5 173.5 604.5 327.75C604.5 482 479.75 606.75 325.5 606.75Z" fill="black" fill-opacity="0.85"/>
  <path d="M236 505L414.5 505C447 505 460.75 487.25 465.5 455.25L489 293.75L161.5 293.75L185.25 455.25C189.75 487.5 203.5 505 236 505ZM275.25 457.25C268.25 457.25 262.5 451.25 262.5 444.5C262.5 441 264 438 266.5 435.5L307 394.5L266.5 353.5C264 351 262.5 348 262.5 344.5C262.5 337.75 268.25 332 275.25 332C278.75 332 281.75 333.25 284 335.75L325 376.75L366.5 335.75C369 333.25 371.75 331.75 375.25 331.75C382.5 331.75 388.25 337.25 388.25 344.5C388.25 347.75 387 350.75 384.25 353.5L343.5 394.5L384.25 435.5C386.25 438 388 441 388 444.5C388 451.25 382 457.25 375.25 457.25C371.5 457.25 368.5 455.5 366.25 453.5L325 412.5L284.25 453.5C282 455.75 278.75 457.25 275.25 457.25ZM149.25 269.5L501.25 269.5C519.75 269.5 529.25 258.5 529.25 240.5L529.25 221.75C529.25 203.5 519.75 192.25 501.25 192.25L149.25 192.25C131.75 192.25 121.25 203.5 121.25 221.75L121.25 240.5C121.25 258.5 131 269.5 149.25 269.5Z" fill="black" fill-opacity="0.85"/>
 </g>
</svg>
