<?xml version="1.0" encoding="UTF-8"?>
<!--Generator: Apple Native CoreSVG 326-->
<!DOCTYPE svg
PUBLIC "-//W3C//DTD SVG 1.1//EN"
       "http://www.w3.org/Graphics/SVG/1.1/DTD/svg11.dtd">
<svg version="1.1" xmlns="http://www.w3.org/2000/svg" xmlns:xlink="http://www.w3.org/1999/xlink" viewBox="0 0 651.25 651.75">
 <g>
  <rect height="651.75" opacity="0" width="651.25" x="0" y="0"/>
  <path d="M651.25 326C651.25 505.5 505 651.75 325.5 651.75C146.25 651.75 0 505.5 0 326C0 146.75 146.25 0.5 325.5 0.5C505 0.5 651.25 146.75 651.25 326ZM157.75 290.75L182 456.25C186.75 489.5 200.75 507.25 234 507.25L417 507.25C450.25 507.25 464.25 489.25 469.25 456.25L493.25 290.75ZM390 343C390 346.5 388.75 349.25 386 352.25L344.25 394.25L386 436.25C388 438.75 389.75 441.75 389.75 445.5C389.75 452.25 383.5 458.5 376.75 458.5C372.75 458.5 369.75 456.75 367.5 454.75L325.25 412.75L283.5 454.75C281.25 457 278 458.5 274.25 458.5C267 458.5 261.25 452.25 261.25 445.5C261.25 441.75 262.75 438.75 265.25 436.25L306.75 394.25L265.25 352.25C262.75 349.75 261.25 346.75 261.25 343C261.25 336 267 330.25 274.25 330.25C278 330.25 281 331.5 283.25 334L325.25 375.75L367.75 334C370.25 331.5 373 330 376.75 330C384.25 330 390 335.5 390 343ZM145.25 187C127 187 116.5 198.25 116.5 217L116.5 236.25C116.5 254.5 126.25 266 145.25 266L506 266C524.75 266 534.75 254.5 534.75 236.25L534.75 217C534.75 198.25 524.75 187 506 187Z" fill="black" fill-opacity="0.85"/>
 </g>
</svg>
