<?xml version="1.0" encoding="UTF-8"?>
<!--Generator: Apple Native CoreSVG 326-->
<!DOCTYPE svg
PUBLIC "-//W3C//DTD SVG 1.1//EN"
       "http://www.w3.org/Graphics/SVG/1.1/DTD/svg11.dtd">
<svg version="1.1" xmlns="http://www.w3.org/2000/svg" xmlns:xlink="http://www.w3.org/1999/xlink" viewBox="0 0 772.25 588.25">
 <g>
  <rect height="588.25" opacity="0" width="772.25" x="0" y="0"/>
  <path d="M218.25 588.25L554 588.25C615.25 588.25 642.75 558.5 652 497.5L704.25 147.25L660 149.75L608 496.75C603 531.5 584.75 546.5 553 546.5L219.25 546.5C186.75 546.5 169.25 531.5 164.25 496.75L112.25 149.75L68 147.25L120.25 497.5C129.5 559 157 588.25 218.25 588.25ZM57.5 170L714.75 170C751.75 170 772.25 146.5 772.25 110L772.25 60.75C772.25 24 751.75 0.75 714.75 0.75L57.5 0.75C22 0.75 0 24 0 60.75L0 110C0 146.5 20.5 170 57.5 170ZM67.75 128.25C51.5 128.25 44.25 120.5 44.25 104L44.25 66.5C44.25 50.25 51.5 42.5 67.75 42.5L704.75 42.5C721 42.5 728 50.25 728 66.5L728 104C728 120.5 721 128.25 704.75 128.25Z" fill="black" fill-opacity="0.85"/>
  <path d="M291 472C296.75 472 301.5 469.25 305.5 465.5L386 385L466.75 465.5C470.75 469 475.5 472 481.75 472C493.25 472 502.75 462 502.75 450.5C502.75 444.25 500.25 439.75 496.25 435.75L416 355.25L496.5 274C500.75 269.75 503 265.25 503 259.75C503 247.75 493.75 238.25 481.75 238.25C476.25 238.25 471.75 240.75 467.25 245L386 325.75L305.25 245.25C301 241.25 296.75 238.75 291 238.75C279.25 238.75 269.5 248.25 269.5 259.75C269.5 265.5 272 270.5 276 274.25L356.25 355.25L276 436C272 439.75 269.5 444.5 269.5 450.5C269.5 462.25 279 472 291 472Z" fill="black" fill-opacity="0.85"/>
 </g>
</svg>
