<?xml version="1.0" encoding="UTF-8"?>
<!--Generator: Apple Native CoreSVG 326-->
<!DOCTYPE svg
PUBLIC "-//W3C//DTD SVG 1.1//EN"
       "http://www.w3.org/Graphics/SVG/1.1/DTD/svg11.dtd">
<svg version="1.1" xmlns="http://www.w3.org/2000/svg" xmlns:xlink="http://www.w3.org/1999/xlink" viewBox="0 0 587.75 485.75">
 <g>
  <rect height="485.75" opacity="0" width="587.75" x="0" y="0"/>
  <path d="M0 463.5C0 475.75 10 485.75 22.25 485.75C34.25 485.75 44.25 475.75 44.25 463.5L44.25 23C44.25 10.75 34.25 0.75 22.25 0.75C10 0.75 0 10.75 0 23ZM543.5 463.5C543.5 475.75 553.5 485.75 565.5 485.75C577.75 485.75 587.75 475.75 587.75 463.5L587.75 23C587.75 10.75 577.75 0.75 565.5 0.75C553.5 0.75 543.5 10.75 543.5 23Z" fill="black" fill-opacity="0.85"/>
  <path d="M203.5 383.25C216.5 383.25 224.5 374 224.5 361.25L224.5 136.25C224.5 121.5 215.25 113 200.5 113C188.5 113 180.25 118.25 170.75 125.25L127.75 157C121.75 161.5 118 166.5 118 174C118 182.75 124.25 189.5 133.25 189.5C137.5 189.5 140.75 188.25 144.25 185.75L182 157.5L182.5 157.5L182.5 361.25C182.5 374.25 190.5 383.25 203.5 383.25ZM374.5 385.5C442 385.5 465 314.75 465 247.75C465 180.75 441.5 110.75 374.5 110.75C306.75 110.75 284 181.5 284 247.75C284 315.5 307.5 385.5 374.5 385.5ZM374.5 351C341 351 326.25 303.25 326.25 247.75C326.25 192.75 341 145.25 374.5 145.25C408 145.25 422.75 193 422.75 247.75C422.75 303.25 408.5 351 374.5 351Z" fill="black" fill-opacity="0.85"/>
 </g>
</svg>
