<?xml version="1.0" encoding="UTF-8"?>
<!--Generator: Apple Native CoreSVG 326-->
<!DOCTYPE svg
PUBLIC "-//W3C//DTD SVG 1.1//EN"
       "http://www.w3.org/Graphics/SVG/1.1/DTD/svg11.dtd">
<svg version="1.1" xmlns="http://www.w3.org/2000/svg" xmlns:xlink="http://www.w3.org/1999/xlink" viewBox="0 0 587.75 485.75">
 <g>
  <rect height="485.75" opacity="0" width="587.75" x="0" y="0"/>
  <path d="M0 463.5C0 475.75 10 485.75 22.25 485.75C34.25 485.75 44.25 475.75 44.25 463.5L44.25 23C44.25 10.75 34.25 0.75 22.25 0.75C10 0.75 0 10.75 0 23ZM543.5 463.5C543.5 475.75 553.5 485.75 565.5 485.75C577.75 485.75 587.75 475.75 587.75 463.5L587.75 23C587.75 10.75 577.75 0.75 565.5 0.75C553.5 0.75 543.5 10.75 543.5 23Z" fill="black" fill-opacity="0.85"/>
  <path d="M212.5 383.25C225.5 383.25 233.5 374 233.5 361.25L233.5 136.25C233.5 121.5 224.25 113 209.5 113C197.5 113 189.25 118.25 179.75 125.25L136.75 157C130.75 161.5 127 166.5 127 174C127 182.75 133.25 189.5 142.25 189.5C146.5 189.5 149.75 188.25 153.25 185.75L191 157.5L191.5 157.5L191.5 361.25C191.5 374.25 199.5 383.25 212.5 383.25ZM311.75 382.25L441 382.25C451.5 382.25 458.25 375.75 458.25 365C458.25 354.5 451.5 348 441 348L345.25 348L345.25 346L400.5 283.75C413 269.75 423 257.25 430.5 247C443.5 228.75 451.5 211 451.5 188.5C451.5 142.5 417.5 113.25 371.25 113.25C330.75 113.25 299 141.5 293.25 173C292.75 176.25 292.5 179.25 292.5 182.25C292.5 193 299.25 200.25 310 200.25C319.5 200.25 325.5 195.25 328.75 186.25C334.25 163.25 348 147 371.25 147C396 147 410.75 166 410.75 190.25C410.75 207.5 404.75 220.25 395 234.5C389.25 243 380.75 253.75 370 266.25L303 342.25C297 348.75 291.75 355.25 291.75 364.75C291.75 373.5 296.75 382.25 311.75 382.25Z" fill="black" fill-opacity="0.85"/>
 </g>
</svg>
