<?xml version="1.0" encoding="UTF-8"?>
<!--Generator: Apple Native CoreSVG 326-->
<!DOCTYPE svg
PUBLIC "-//W3C//DTD SVG 1.1//EN"
       "http://www.w3.org/Graphics/SVG/1.1/DTD/svg11.dtd">
<svg version="1.1" xmlns="http://www.w3.org/2000/svg" xmlns:xlink="http://www.w3.org/1999/xlink" viewBox="0 0 587.75 485.75">
 <g>
  <rect height="485.75" opacity="0" width="587.75" x="0" y="0"/>
  <path d="M0 463.5C0 475.75 10 485.75 22.25 485.75C34.25 485.75 44.25 475.75 44.25 463.5L44.25 23C44.25 10.75 34.25 0.75 22.25 0.75C10 0.75 0 10.75 0 23ZM543.5 463.5C543.5 475.75 553.5 485.75 565.5 485.75C577.75 485.75 587.75 475.75 587.75 463.5L587.75 23C587.75 10.75 577.75 0.75 565.5 0.75C553.5 0.75 543.5 10.75 543.5 23Z" fill="black" fill-opacity="0.85"/>
  <path d="M227.75 390.25L364.5 390.25C375.75 390.25 382.75 383.25 382.75 372C382.75 360.75 375.75 354 364.5 354L263.25 354L263.25 351.75L321.75 286C335 271.25 345.5 258.25 353.5 247.25C367.25 228 375.75 209.25 375.75 185.5C375.75 136.75 339.5 105.75 291 105.75C249 105.75 216.25 134.25 209 166.5C208 170.75 207.5 174.75 207.5 178.75C207.5 190.25 214.5 197.75 226.25 197.75C236.25 197.75 242.5 192.25 246 183C251.5 158.75 266.25 141.5 290.75 141.5C317 141.5 332.75 161.5 332.75 187.25C332.75 205.25 326.25 219 316 233.75C309.75 243 301 254.25 289.5 267.5L218.75 347.75C212.25 354.75 206.75 361.5 206.75 371.75C206.75 381 212.25 390.25 227.75 390.25Z" fill="black" fill-opacity="0.85"/>
 </g>
</svg>
