<?xml version="1.0" encoding="UTF-8"?>
<!--Generator: Apple Native CoreSVG 326-->
<!DOCTYPE svg
PUBLIC "-//W3C//DTD SVG 1.1//EN"
       "http://www.w3.org/Graphics/SVG/1.1/DTD/svg11.dtd">
<svg version="1.1" xmlns="http://www.w3.org/2000/svg" xmlns:xlink="http://www.w3.org/1999/xlink" viewBox="0 0 587.75 485.75">
 <g>
  <rect height="485.75" opacity="0" width="587.75" x="0" y="0"/>
  <path d="M0 463.5C0 475.75 10 485.75 22.25 485.75C34.25 485.75 44.25 475.75 44.25 463.5L44.25 23C44.25 10.75 34.25 0.75 22.25 0.75C10 0.75 0 10.75 0 23ZM543.5 463.5C543.5 475.75 553.5 485.75 565.5 485.75C577.75 485.75 587.75 475.75 587.75 463.5L587.75 23C587.75 10.75 577.75 0.75 565.5 0.75C553.5 0.75 543.5 10.75 543.5 23Z" fill="black" fill-opacity="0.85"/>
  <path d="M292.75 393.5C345.75 393.5 387.5 362 387.5 311C387.5 269.5 360.25 246.75 325.5 243.5L325.5 243.25C357.5 236 377.75 210.25 377.75 177.75C377.75 131.5 340.25 104.25 291.75 104.25C251.5 104.25 218 126.75 209.5 159C208 163.25 207.5 168.25 207.5 173C207.5 183 212.75 191.5 226 191.5C237 191.5 242.5 186.5 246 176.25C252.75 152.75 268.5 139.75 292 139.75C318.25 139.75 335.75 156.5 335.75 183C335.75 211.25 315.5 228.25 286.75 228.25L273.5 228.25C262.5 228.25 256 234.75 256 244.75C256 255.5 263 261.25 273.5 261.25L287.25 261.25C319.5 261.25 343 275.5 343 309.5C343 337.5 322.75 357 293.25 357C265.5 357 248.25 342.5 241.75 320.25C238 311.25 231 305.5 221.75 305.5C209.75 305.5 202 313 202 324.75C202 329.5 202.75 334.25 204.25 338.75C214 375.25 254.5 393.5 292.75 393.5Z" fill="black" fill-opacity="0.85"/>
 </g>
</svg>
