<?xml version="1.0" encoding="UTF-8"?>
<!--Generator: Apple Native CoreSVG 326-->
<!DOCTYPE svg
PUBLIC "-//W3C//DTD SVG 1.1//EN"
       "http://www.w3.org/Graphics/SVG/1.1/DTD/svg11.dtd">
<svg version="1.1" xmlns="http://www.w3.org/2000/svg" xmlns:xlink="http://www.w3.org/1999/xlink" viewBox="0 0 587.75 485.75">
 <g>
  <rect height="485.75" opacity="0" width="587.75" x="0" y="0"/>
  <path d="M0 463.5C0 475.75 10 485.75 22.25 485.75C34.25 485.75 44.25 475.75 44.25 463.5L44.25 23C44.25 10.75 34.25 0.75 22.25 0.75C10 0.75 0 10.75 0 23ZM543.5 463.5C543.5 475.75 553.5 485.75 565.5 485.75C577.75 485.75 587.75 475.75 587.75 463.5L587.75 23C587.75 10.75 577.75 0.75 565.5 0.75C553.5 0.75 543.5 10.75 543.5 23Z" fill="black" fill-opacity="0.85"/>
  <path d="M298.5 394C352.5 394 389.25 352.75 389.25 296.5C389.25 245.25 358.75 205.5 310.75 205.5C277 205.5 252.25 226 243.25 256L242.25 256C242.25 228.5 244.25 208.75 248.5 192C255.75 164.5 270.25 139.5 298.75 139.5C318.75 139.5 333 150.5 341.25 168.75C346 177.25 351.75 183.25 361.75 183.25C374.75 183.25 380.25 174.25 380.25 164.75C380.25 158.75 378.75 152.75 376 147C364.5 120.25 334.25 103.5 299.25 103.5C235.75 103.5 209.75 160.75 204.5 221.75C199.25 253.75 201.25 291.5 209.5 319.5C222.75 362 252.25 394 298.5 394ZM297.75 357.75C267 357.75 249 327.25 249 296.25C249 265.5 268.75 239.5 298 239.5C328.5 239.5 346.25 266.75 346.25 298C346.25 329.25 327.75 357.75 297.75 357.75Z" fill="black" fill-opacity="0.85"/>
 </g>
</svg>
