<?xml version="1.0" encoding="UTF-8"?>
<!--Generator: Apple Native CoreSVG 326-->
<!DOCTYPE svg
PUBLIC "-//W3C//DTD SVG 1.1//EN"
       "http://www.w3.org/Graphics/SVG/1.1/DTD/svg11.dtd">
<svg version="1.1" xmlns="http://www.w3.org/2000/svg" xmlns:xlink="http://www.w3.org/1999/xlink" viewBox="0 0 587.75 485.75">
 <g>
  <rect height="485.75" opacity="0" width="587.75" x="0" y="0"/>
  <path d="M0 463.5C0 475.75 10 485.75 22.25 485.75C34.25 485.75 44.25 475.75 44.25 463.5L44.25 23C44.25 10.75 34.25 0.75 22.25 0.75C10 0.75 0 10.75 0 23ZM543.5 463.5C543.5 475.75 553.5 485.75 565.5 485.75C577.75 485.75 587.75 475.75 587.75 463.5L587.75 23C587.75 10.75 577.75 0.75 565.5 0.75C553.5 0.75 543.5 10.75 543.5 23Z" fill="black" fill-opacity="0.85"/>
  <path d="M258.25 391.25C268.75 391.25 274.25 386.75 278.25 377.25L372.75 159.25C376.5 151 379.5 142.75 379.5 133.75C379.5 118 368.25 110 354.5 110L225.25 110C214.75 110 207.5 117.25 207.5 127.75C207.5 138.5 214.75 145.75 225.25 145.75L335.25 145.75L335.25 147.75L241.75 356.75C239.25 362 237.75 367 237.75 373C237.75 384.25 246.25 391.25 258.25 391.25Z" fill="black" fill-opacity="0.85"/>
 </g>
</svg>
