<?xml version="1.0" encoding="UTF-8"?>
<!--Generator: Apple Native CoreSVG 326-->
<!DOCTYPE svg
PUBLIC "-//W3C//DTD SVG 1.1//EN"
       "http://www.w3.org/Graphics/SVG/1.1/DTD/svg11.dtd">
<svg version="1.1" xmlns="http://www.w3.org/2000/svg" xmlns:xlink="http://www.w3.org/1999/xlink" viewBox="0 0 587.75 485.75">
 <g>
  <rect height="485.75" opacity="0" width="587.75" x="0" y="0"/>
  <path d="M0 463.5C0 475.75 10 485.75 22.25 485.75C34.25 485.75 44.25 475.75 44.25 463.5L44.25 23C44.25 10.75 34.25 0.75 22.25 0.75C10 0.75 0 10.75 0 23ZM543.5 463.5C543.5 475.75 553.5 485.75 565.5 485.75C577.75 485.75 587.75 475.75 587.75 463.5L587.75 23C587.75 10.75 577.75 0.75 565.5 0.75C553.5 0.75 543.5 10.75 543.5 23Z" fill="black" fill-opacity="0.85"/>
  <path d="M288.25 393.75C364.25 393.75 388.25 318 388.25 244.5C388.25 172 360 103.25 289.75 103.25C236 103.25 199 144.5 199 201C199 250.25 229.5 292 278 292C312.5 292 337.25 270 345.75 241.25L346 241.25C346 242.25 346 243.5 346 245.25C346.5 292.25 336.25 357.5 289.75 357.5C267.75 357.5 254.75 345.75 246.5 328C241.25 318.5 235.75 313.75 225.5 313.75C213.75 313.75 207.25 322 207.25 332.25C207.25 341.25 213 352 220 360.25C233.75 380 258 393.75 288.25 393.75ZM290 257.5C259.25 257.5 242 229.5 242 199.25C242 168.75 259.5 139.5 290.5 139.5C320.5 139.5 339.25 168.75 339.25 200.5C339.25 231 319.5 257.5 290 257.5Z" fill="black" fill-opacity="0.85"/>
 </g>
</svg>
