<?xml version="1.0" encoding="UTF-8"?>
<!--Generator: Apple Native CoreSVG 326-->
<!DOCTYPE svg
PUBLIC "-//W3C//DTD SVG 1.1//EN"
       "http://www.w3.org/Graphics/SVG/1.1/DTD/svg11.dtd">
<svg version="1.1" xmlns="http://www.w3.org/2000/svg" xmlns:xlink="http://www.w3.org/1999/xlink" viewBox="0 0 647.949 648.192">
 <g>
  <rect height="648.192" opacity="0" width="647.949" x="0" y="0"/>
  <path d="M506.225 506.221C630.475 381.971 674.225 206.721 632.725 69.721C622.225 35.721 612.225 25.721 578.225 15.221C441.475-26.279 265.975 17.471 141.475 141.721C17.4746 265.971-26.2754 441.471 15.2246 578.221C25.4746 612.221 35.7246 622.471 69.7246 632.721C206.725 674.221 381.725 630.471 506.225 506.221ZM272.975 465.471C267.475 470.721 258.475 470.721 252.975 465.221L180.975 393.221C175.725 387.971 175.725 378.971 180.975 373.471C186.725 367.721 195.725 367.721 201.225 373.221L227.225 399.471L255.225 371.221L228.975 345.471C223.475 339.971 223.475 331.221 228.975 325.471C234.475 319.721 243.725 319.721 249.475 325.221L274.975 351.221L302.975 323.221L276.975 297.471C271.475 291.971 271.225 283.221 276.975 277.221C282.475 271.971 291.975 271.971 296.975 276.971L322.975 303.221L350.975 275.221L324.975 249.471C319.725 243.971 319.225 234.971 324.975 229.471C330.725 223.721 339.475 223.721 344.975 229.221L371.225 255.471L398.975 227.471L372.975 201.471C367.475 195.971 367.225 187.221 372.975 181.221C378.475 176.221 387.725 176.221 392.725 180.971L464.975 253.221C470.225 258.721 470.225 267.971 464.975 273.221C459.225 279.221 450.225 278.971 444.725 272.971L418.975 247.471L390.975 275.221L416.975 301.221C422.725 306.971 422.725 315.721 416.975 321.471C411.225 327.221 402.225 326.971 396.975 321.221L371.225 295.471L343.225 323.221L369.225 349.221C374.475 354.471 374.475 363.721 369.225 369.471C363.225 374.971 354.475 374.721 348.975 369.221L322.975 343.721L295.225 371.221L320.975 397.221C326.725 402.471 326.725 411.721 320.975 417.471C315.225 422.721 306.475 422.721 300.725 417.221L274.975 391.471L247.475 419.221L272.975 444.971C278.725 450.721 278.725 459.721 272.975 465.471Z" fill="black" fill-opacity="0.85"/>
 </g>
</svg>
