<?xml version="1.0" encoding="UTF-8"?>
<!--Generator: Apple Native CoreSVG 326-->
<!DOCTYPE svg
PUBLIC "-//W3C//DTD SVG 1.1//EN"
       "http://www.w3.org/Graphics/SVG/1.1/DTD/svg11.dtd">
<svg version="1.1" xmlns="http://www.w3.org/2000/svg" xmlns:xlink="http://www.w3.org/1999/xlink" viewBox="0 0 651.25 651.75">
 <g>
  <rect height="651.75" opacity="0" width="651.25" x="0" y="0"/>
  <path d="M651.25 325.75C651.25 505 505 651.25 325.5 651.25C146.25 651.25 0 505 0 325.75C0 146.25 146.25 0 325.5 0C505 0 651.25 146.25 651.25 325.75ZM163.25 459.5C169 477.25 174 482.5 191.75 488C223.5 497.5 259.25 498.25 294.5 491L160.25 356.75C153 392 154 427.75 163.25 459.5ZM230 230.25C201.25 258.75 181 291.75 169 326.25L325 482.25C359.5 470.25 392.75 450 421 421.25C449.75 393 470 359.75 482 325.25L326.25 169.25C291.5 181.25 258.25 201.5 230 230.25ZM361 254L397 289.75C400.25 293 400 297.75 397 301.25C394 304.25 389.25 304 385.75 301L373.5 288.75L360.75 301.5L373 314C376.25 316.75 376.25 321.75 373 325C370 328 365.25 327.75 362 324.75L349.5 312.5L336.5 325.25L349 337.75C352 340.75 352.5 346 349 348.75C346.25 352 341.25 351.75 338.5 348.75L325.75 336.75L312.5 349.25L325.25 361.75C328.5 364.5 328.5 370 325.25 372.75C322.5 375.75 317.5 376.25 314.25 372.5L302 360.25L289 373L301.75 385.75C304.25 388.75 304.25 393.5 301.75 396.5C298.25 399.75 293.75 399.25 290.5 396.25L254.5 361C251.5 358 251.25 353 254.5 349.75C258 346.75 262.75 347 265.75 349.75L278.25 362.25L291 349.25L278.5 337.25C275.25 334.25 275.25 328.75 278.5 326C281.5 322.75 286.5 322.75 289.5 325.75L302 338.5L314.75 325.25L302.5 312.75C299.5 310.25 299.25 304.75 302.5 302.25C305.25 298.75 310.25 298.75 313 302L325.75 314.75L339 301.5L326.25 289C323.25 286.5 323.25 281 326.25 278C329.5 275 334.5 275 337 278L349.5 290.5L362.75 277.75L350.25 265.25C347.5 262 347.25 257.25 350 254C353.25 251.25 358 251 361 254ZM356.75 160.75L490.75 294.75C498.25 259.25 497.25 223.75 488 192C482 174.25 477 169.25 459.5 163.5C427.75 154 392.25 153.25 356.75 160.75Z" fill="black" fill-opacity="0.85"/>
 </g>
</svg>
