<?xml version="1.0" encoding="UTF-8"?>
<!--Generator: Apple Native CoreSVG 326-->
<!DOCTYPE svg
PUBLIC "-//W3C//DTD SVG 1.1//EN"
       "http://www.w3.org/Graphics/SVG/1.1/DTD/svg11.dtd">
<svg version="1.1" xmlns="http://www.w3.org/2000/svg" xmlns:xlink="http://www.w3.org/1999/xlink" viewBox="0 0 645.364 645.243">
 <g>
  <rect height="645.243" opacity="0" width="645.364" x="0" y="0"/>
  <path d="M68.6818 629.997C129.182 647.997 196.682 649.747 263.682 635.497L9.68176 381.497C-4.56824 448.747-3.06824 516.247 15.4318 576.497C25.4318 609.997 35.4318 619.747 68.6818 629.997ZM503.932 503.747C557.682 449.997 596.432 386.747 619.432 321.247L323.932 25.9966C258.182 48.7466 195.182 87.4966 141.432 141.247C87.6818 194.997 49.1818 258.247 25.9318 323.497L321.432 618.997C387.182 596.247 450.182 557.497 503.932 503.747ZM275.932 455.747C270.682 460.997 262.432 460.997 257.182 455.497L189.182 387.747C184.182 382.747 184.182 374.497 189.182 369.247C194.432 363.997 202.932 363.997 208.182 368.997L232.682 393.747L259.432 366.997L234.432 342.497C229.682 337.497 229.682 329.247 234.432 323.997C239.682 318.747 248.182 318.747 253.432 323.747L277.932 348.497L304.682 321.747L279.932 297.247C274.932 292.247 274.432 283.997 279.932 278.497C284.932 273.497 293.682 273.497 298.432 278.247L323.182 303.247L349.932 276.497L325.182 251.997C320.182 246.997 319.932 238.497 325.182 233.247C330.432 227.997 338.682 227.997 343.682 232.997L368.682 257.997L395.182 231.247L370.432 206.497C365.432 201.497 365.182 193.247 370.432 187.997C375.682 182.997 383.932 182.997 388.932 187.747L456.932 255.997C462.182 260.997 462.182 269.497 456.932 274.497C451.932 279.997 443.432 279.747 438.182 274.247L413.932 249.997L386.932 276.497L411.682 301.247C417.182 306.497 417.182 314.747 411.682 319.997C406.432 325.247 398.182 324.997 393.182 319.747L368.682 295.247L341.932 321.747L366.432 346.497C371.682 351.497 371.682 359.997 366.432 365.247C361.182 370.497 352.932 370.247 347.932 364.997L323.182 340.747L296.682 366.997L321.182 391.747C326.432 396.747 326.432 405.247 321.182 410.747C315.932 415.497 307.682 415.497 302.432 410.497L277.932 385.997L251.432 412.497L275.932 436.997C281.182 441.997 281.182 450.497 275.932 455.747ZM630.182 68.4966C619.932 34.9966 610.182 25.2466 576.682 14.9966C516.432-3.00341 448.932-4.75341 381.682 9.49659L635.682 263.497C650.182 196.497 648.432 128.747 630.182 68.4966Z" fill="black" fill-opacity="0.85"/>
 </g>
</svg>
