<?xml version="1.0" encoding="UTF-8"?>
<!--Generator: Apple Native CoreSVG 326-->
<!DOCTYPE svg
PUBLIC "-//W3C//DTD SVG 1.1//EN"
       "http://www.w3.org/Graphics/SVG/1.1/DTD/svg11.dtd">
<svg version="1.1" xmlns="http://www.w3.org/2000/svg" xmlns:xlink="http://www.w3.org/1999/xlink" viewBox="0 0 648.46 648.461">
 <g>
  <rect height="648.461" opacity="0" width="648.46" x="0" y="0"/>
  <path d="M141.855 141.605C39.1051 244.355-8.89487 382.355 1.35513 491.605C8.10513 587.855 59.8551 640.355 154.355 646.855C265.855 657.105 403.605 609.105 506.605 506.355C609.355 403.605 657.105 265.605 646.855 154.355C640.605 59.6053 587.855 7.8553 491.855 1.3553C382.605-8.8947 244.605 39.1053 141.855 141.605ZM182.355 393.855C176.605 388.105 176.855 379.105 182.355 373.355C188.355 367.605 197.605 367.855 203.105 373.355L228.855 399.105L256.605 371.355L230.605 345.355C225.105 339.855 224.855 330.605 230.605 325.605C236.105 319.355 245.855 319.605 251.355 325.355L277.105 351.105L304.605 323.605L278.605 297.605C273.105 291.855 272.855 282.855 278.605 277.355C283.855 271.605 293.605 271.855 298.605 277.355L324.855 303.355L352.605 275.855L326.605 249.855C321.105 244.105 321.105 234.855 326.355 229.355C332.355 223.605 341.105 223.855 346.855 229.605L372.855 255.355L400.605 227.855L374.605 202.105C368.855 196.355 369.105 186.855 374.355 181.105C380.355 175.855 389.605 175.605 395.105 180.855L467.105 253.105C472.605 258.605 472.355 267.855 466.855 273.605C461.355 279.105 451.855 279.355 446.105 273.605L420.605 247.855L392.855 275.605L418.855 301.355C424.355 307.105 424.355 315.605 418.855 321.605C413.105 326.855 404.105 327.105 398.355 321.605L372.605 295.855L345.105 323.605L370.855 349.105C376.355 354.605 376.355 363.855 370.605 369.355C365.105 375.105 356.105 375.105 350.605 369.605L324.855 343.855L297.355 371.355L322.855 396.855C328.355 402.355 328.605 411.855 322.605 417.605C317.355 423.105 308.105 423.105 302.605 417.605L276.855 391.605L249.105 419.355L274.855 445.105C280.105 450.605 280.355 459.605 274.855 465.855C269.105 471.355 260.105 471.605 254.355 465.855Z" fill="black" fill-opacity="0.85"/>
 </g>
</svg>
