<?xml version="1.0" encoding="UTF-8"?>
<!--Generator: Apple Native CoreSVG 326-->
<!DOCTYPE svg
PUBLIC "-//W3C//DTD SVG 1.1//EN"
       "http://www.w3.org/Graphics/SVG/1.1/DTD/svg11.dtd">
<svg version="1.1" xmlns="http://www.w3.org/2000/svg" xmlns:xlink="http://www.w3.org/1999/xlink" viewBox="0 0 810.375 635.75">
 <g>
  <rect height="635.75" opacity="0" width="810.375" x="0" y="0"/>
  <path d="M14.0625 323.25L147.812 416C161.562 425.75 181.562 425.5 197.312 414.5L328.562 323.25C347.562 310 347.562 289.75 328.562 276.75L196.312 184.75C181.312 174.25 161.562 174.25 147.812 183.75L14.0625 276.75C-4.6875 289.5-4.6875 310.25 14.0625 323.25ZM247.812 148L381.562 240.75C395.812 250.75 415.562 250.25 431.562 239.25L562.562 148C581.312 135 581.312 114.5 562.562 101.5L430.312 9.5C415.312-0.75 395.812-1.25 381.562 8.75L247.812 101.5C229.062 114.5 229.062 135 247.812 148ZM481.812 323.25L614.062 415.25C629.312 425.75 649.062 425.75 664.062 415.25L796.062 323.25C815.062 309.75 815.062 289.75 796.062 276.75L664.062 184.75C649.062 174.25 629.562 173.75 615.062 183.75L481.812 276.75C462.812 290 462.812 309.75 481.812 323.25ZM122.562 635.75C161.562 635.75 193.312 604 193.312 565C193.312 526 161.562 494.25 122.562 494.25C83.5625 494.25 51.8125 526 51.8125 565C51.8125 604 83.5625 635.75 122.562 635.75ZM405.312 635.75C444.562 635.75 476.062 604 476.062 565C476.062 526 444.562 494.25 405.312 494.25C366.312 494.25 334.562 526 334.562 565C334.562 604 366.312 635.75 405.312 635.75ZM688.312 635.75C727.062 635.75 758.812 604 758.812 565C758.812 526 727.062 494.25 688.312 494.25C649.062 494.25 617.312 526 617.312 565C617.312 604 649.062 635.75 688.312 635.75Z" fill="black" fill-opacity="0.85"/>
 </g>
</svg>
