<?xml version="1.0" encoding="UTF-8"?>
<!--Generator: Apple Native CoreSVG 326-->
<!DOCTYPE svg
PUBLIC "-//W3C//DTD SVG 1.1//EN"
       "http://www.w3.org/Graphics/SVG/1.1/DTD/svg11.dtd">
<svg version="1.1" xmlns="http://www.w3.org/2000/svg" xmlns:xlink="http://www.w3.org/1999/xlink" viewBox="0 0 651.25 651.75">
 <g>
  <rect height="651.75" opacity="0" width="651.25" x="0" y="0"/>
  <path d="M651.25 325.75C651.25 505 505 651.25 325.5 651.25C146.25 651.25 0 505 0 325.75C0 146.25 146.25 0 325.5 0C505 0 651.25 146.25 651.25 325.75ZM221.25 276C221.5 351.25 190.25 436.25 251.75 482.25C273.5 495 298.75 502.5 325.75 502.5C333.75 502.5 342 502 350 500.75C284.5 418.75 251.5 332.25 239.5 264.5C233 268 227.25 272 221.25 276ZM257.75 254.25C268.75 320.25 302.25 410.5 372.5 495.75C413.5 484.5 449 458 472.25 423C460.25 342 320.5 315 288.75 241.25C278.5 245 268.25 249.25 257.75 254.25ZM150.5 350C156 387.25 174 421.5 199.5 448C184.75 400.25 197.25 342.75 200.25 293C181.25 309.75 164.75 328.5 150.5 350ZM309.25 235.25C336.5 292 454.5 318.5 486.75 396.75C496.75 374.75 502.5 351 502.5 325.75C502.5 300 496.25 275.25 485.75 253C450.5 235.75 414.5 227 374.25 227C351.75 227 330 229.75 309.25 235.25ZM149.25 316C164.25 297.5 181 280.75 200.5 265.75C199.75 251.75 192.5 230.25 180.25 226C162.25 251.75 150 286.5 149.25 316ZM193 209.5C207.5 216 216.25 236.75 219.5 252.5C225.25 248.75 230.5 245.25 236.25 242.25C233 213.75 234 190 237.25 173.25C220.5 183 206 195.25 193 209.5ZM259.25 162.25C255.5 176 251.75 200 255.5 232.75C264.25 228.5 273.75 224.75 283.25 221.25C283 218 283 214.5 283 210.5C283 185.75 294.5 164 314 149.25C294.75 150.5 276.5 155.25 259.25 162.25ZM304 215.5C326.25 209.25 350 206.5 374.25 206.5C407 206.5 439 212 468 222.5C441 185.75 400.25 159.25 354.25 151.5C320.75 164.25 302.5 183 304 215.5Z" fill="black" fill-opacity="0.85"/>
 </g>
</svg>
