<?xml version="1.0" encoding="UTF-8"?>
<!--Generator: Apple Native CoreSVG 326-->
<!DOCTYPE svg
PUBLIC "-//W3C//DTD SVG 1.1//EN"
       "http://www.w3.org/Graphics/SVG/1.1/DTD/svg11.dtd">
<svg version="1.1" xmlns="http://www.w3.org/2000/svg" xmlns:xlink="http://www.w3.org/1999/xlink" viewBox="0 0 865 619.75">
 <g>
  <rect height="619.75" opacity="0" width="865" x="0" y="0"/>
  <path d="M223.5 215.25L271 215.25L271 128.25C271 77.5 308.75 47.5 368 47.5L497 47.5C556.5 47.5 594.25 77.5 594.25 128.25L594.25 215.25L641.75 215.25L641.75 128.25C641.75 48.75 584.75 0 497 0L368 0C280.5 0 223.5 48.75 223.5 128.25ZM102.5 619L762.5 619C825.5 619 865 580 865 518L865 340.75C865 247.5 801 184.25 707.25 184.25L157.75 184.25C64 184.25 0 247.5 0 340.75L0 518C0 580 39.5 619 102.5 619ZM186.75 619L186.75 184.25L223.5 184.25L223.5 619ZM271 619L271 184.25L307.75 184.25L307.75 619ZM307.75 393.5L307.75 356.75L557.5 356.75L557.5 393.5ZM557.5 619L557.5 184.25L594.25 184.25L594.25 619ZM641.75 619L641.75 184.25L678.5 184.25L678.5 619Z" fill="black" fill-opacity="0.85"/>
 </g>
</svg>
