<?xml version="1.0" encoding="UTF-8"?>
<!--Generator: Apple Native CoreSVG 326-->
<!DOCTYPE svg
PUBLIC "-//W3C//DTD SVG 1.1//EN"
       "http://www.w3.org/Graphics/SVG/1.1/DTD/svg11.dtd">
<svg version="1.1" xmlns="http://www.w3.org/2000/svg" xmlns:xlink="http://www.w3.org/1999/xlink" viewBox="0 0 780.5 466.75">
 <g>
  <rect height="466.75" opacity="0" width="780.5" x="0" y="0"/>
  <path d="M56.75 396L94.75 396L94.75 356.75L57.25 356.75C46.75 356.75 39.25 349.25 39.25 338.75L39.25 127C39.25 116.5 46.75 108.5 57.25 108.5L94.75 108.5L94.75 69.25L56.75 69.25C24.5 69.25 0 94 0 126.25L0 339.75C0 371.5 24.5 396 56.75 396ZM154.5 465.75L177.25 465.75C226.75 465.75 256.5 435.75 256.5 385.25L256.5 81.25C256.5 30.25 227.5 0 178.5 0L150.75 0C104.75 0 77.5 30.25 77.5 81.25L77.5 385.25C77.5 435.75 106.25 465.75 154.5 465.75ZM155.25 424C133 424 119.25 409.25 119.25 385.25L119.25 81.25C119.25 56.75 131.75 41.75 151.75 41.75L177.5 41.75C200.5 41.75 214.75 56.75 214.75 81.25L214.75 385.25C214.75 409.25 200 424 176.25 424ZM247.75 203.5L532.75 203.5L532.75 161.75L247.75 161.75ZM247.75 303.75L532.75 303.75L532.75 262L247.75 262ZM603.25 465.75L626 465.75C674.25 465.75 703 435.75 703 385.25L703 81.25C703 30.25 675.75 0 629.75 0L602 0C553 0 524 30.25 524 81.25L524 385.25C524 435.75 553.75 465.75 603.25 465.75ZM604.25 424C580.5 424 565.75 409.25 565.75 385.25L565.75 81.25C565.75 56.75 580 41.75 603 41.75L628.75 41.75C648.75 41.75 661.25 56.75 661.25 81.25L661.25 385.25C661.25 409.25 647.5 424 625.25 424ZM685.75 396L723.75 396C756 396 780.5 371.5 780.5 339.75L780.5 126.25C780.5 94 756 69.25 723.75 69.25L685.75 69.25L685.75 108.5L723.25 108.5C733.75 108.5 741.25 116.5 741.25 127L741.25 338.75C741.25 349.25 733.75 356.75 723.25 356.75L685.75 356.75Z" fill="black" fill-opacity="0.85"/>
 </g>
</svg>
