<?xml version="1.0" encoding="UTF-8"?>
<!--Generator: Apple Native CoreSVG 326-->
<!DOCTYPE svg
PUBLIC "-//W3C//DTD SVG 1.1//EN"
       "http://www.w3.org/Graphics/SVG/1.1/DTD/svg11.dtd">
<svg version="1.1" xmlns="http://www.w3.org/2000/svg" xmlns:xlink="http://www.w3.org/1999/xlink" viewBox="0 0 651.25 651.75">
 <g>
  <rect height="651.75" opacity="0" width="651.25" x="0" y="0"/>
  <path d="M325.5 651.25C505.25 651.25 651.25 505.5 651.25 325.75C651.25 146 505.25 0 325.5 0C145.75 0 0 146 0 325.75C0 505.5 145.75 651.25 325.5 651.25ZM325.5 604.75C171.25 604.75 46.5 480 46.5 325.75C46.5 171.5 171.25 46.75 325.5 46.75C479.75 46.75 604.5 171.5 604.5 325.75C604.5 480 479.75 604.75 325.5 604.75Z" fill="black" fill-opacity="0.85"/>
  <path d="M325.25 208.25C347 208.25 364.25 190.75 364.25 169.25C364.25 148 347 130.25 325.25 130.25C303.75 130.25 286.5 148 286.5 169.25C286.5 190.75 303.75 208.25 325.25 208.25ZM473.75 242.25C466.25 235.25 455.25 235 447.75 242.25L404.5 285.5L361 241.75C352.5 233 338.75 227.75 325.25 227.75L208.5 227.75C200.25 227.75 193.75 232.5 191.25 240.5L163.25 324.25C158.75 337.25 166.25 346.25 175 348.25C183.75 350.75 193.5 347.25 197.25 335.5L221.5 264L260.25 264C263.5 264 266.25 267.25 265 271L241.5 342.25C233.5 365.25 240.5 387.25 266.5 398.75L342.5 432.25L367.5 519C370.75 530.25 381 533.5 389.75 531.25C398.5 529 406 520.75 402.75 509L375 413.75C373.5 408.5 371 404.75 365.25 402.25L305.75 376L337.25 281C338.5 277.25 343.25 275.5 346.25 278.75L391.25 324.25C398.5 331.5 410.25 331.5 417.5 324.25L473.75 268.25C481 260.75 480.75 249.75 473.75 242.25ZM247.5 406L238.5 458.5L170.25 496.5C158.75 502.75 159 514 163.75 522C168.5 529.25 177.5 534.5 188.5 528.5L264.25 486.25C269.5 483.25 271.25 480 273 474.5L289 426L260.25 413.25C254.5 410.75 250.25 408.25 247.5 406ZM488.5 212.5C494 209.5 497.5 204 497.5 198L497.5 140.5C497.5 131 490.75 123.5 481.25 123.5L439.75 123.5C430.5 123.5 423.25 131 423.25 140.5L423.25 198C423.25 204 427.25 209.5 432.75 212.5L460.75 226.5ZM450.75 256.25L470.75 256.25L470.75 206.25L450.75 206.25Z" fill="black" fill-opacity="0.85"/>
 </g>
</svg>
