<?xml version="1.0" encoding="UTF-8"?>
<!--Generator: Apple Native CoreSVG 326-->
<!DOCTYPE svg
PUBLIC "-//W3C//DTD SVG 1.1//EN"
       "http://www.w3.org/Graphics/SVG/1.1/DTD/svg11.dtd">
<svg version="1.1" xmlns="http://www.w3.org/2000/svg" xmlns:xlink="http://www.w3.org/1999/xlink" viewBox="0 0 651.25 651.75">
 <g>
  <rect height="651.75" opacity="0" width="651.25" x="0" y="0"/>
  <path d="M651.25 325.75C651.25 505 505 651.25 325.5 651.25C146.25 651.25 0 505 0 325.75C0 146.25 146.25 0 325.5 0C505 0 651.25 146.25 651.25 325.75ZM335 446.5C332.5 453.25 334 460.75 339.5 466.25L410.25 536.75C417.5 544.25 429.25 544.25 436.75 536.75C444 529.5 443.75 517.75 436.75 510.25L376.25 449L398.75 405.25C392 405.75 384.75 405.5 377.25 404.5L351.75 400.5ZM221 205.5C211 205.5 202 214.25 202 224.25C202 234.75 210.5 243.25 221 243.25L359.5 243.25C365.25 243.25 369 247.75 369 252.75L369 337.25L177.25 337.25C166.75 337.25 158.25 345.75 158.25 356.25C158.25 366.75 166.75 375.25 177.25 375.25L282.25 375.25L379.5 389.25C416 394.25 441.75 378.25 441.75 343.75L441.75 278C441.75 274.5 445.25 273.25 448 275.75L465.5 293.75L465.5 356.25C465.5 366.75 474.25 375.25 484.5 375.25C495 375.25 503.5 366.75 503.5 356.25L503.5 285.75C503.5 280.75 501.75 276.25 498 272.5L451.75 226.5C438.25 212.75 420.5 205.5 401 205.5ZM111 234.5C101 244.25 98.75 270.75 122.5 294.75C146 318.25 172.75 315.75 183 305.75C192.25 295.75 193.5 271.25 169.5 247.5C145.75 223.5 120.75 224 111 234.5ZM335.5 145.75C335.5 168 353.25 185.5 375 185.5C397.25 185.5 414.75 168 414.75 145.75C414.75 124 397.25 106.25 375 106.25C353.25 106.25 335.5 124 335.5 145.75Z" fill="black" fill-opacity="0.85"/>
 </g>
</svg>
