<?xml version="1.0" encoding="UTF-8"?>
<!--Generator: Apple Native CoreSVG 326-->
<!DOCTYPE svg
PUBLIC "-//W3C//DTD SVG 1.1//EN"
       "http://www.w3.org/Graphics/SVG/1.1/DTD/svg11.dtd">
<svg version="1.1" xmlns="http://www.w3.org/2000/svg" xmlns:xlink="http://www.w3.org/1999/xlink" viewBox="0 0 651.25 651.75">
 <g>
  <rect height="651.75" opacity="0" width="651.25" x="0" y="0"/>
  <path d="M651.25 325.75C651.25 505 505 651.25 325.5 651.25C146.25 651.25 0 505 0 325.75C0 146.25 146.25 0 325.5 0C505 0 651.25 146.25 651.25 325.75ZM296.75 436.5L269.25 526.75C266.5 536.5 272.5 547 282.25 550C290.75 552.75 302.5 548.75 305.75 537.5L333.5 444.25C334.5 441.75 334.5 439.25 334.5 436.5L334.5 405.5L295.5 397.25C293.25 396.75 293.25 396.75 292.5 396.75ZM213 133.25L184.75 227C181 239 187.5 251 203 251L262.25 251C265 251 267 253.25 266.75 256.25L261.25 333.25C259 360.5 275.25 377.25 298.5 382.5L374.75 398.5L391.25 480.25C393.25 491.25 404.75 496.5 413 495C423.25 493 430 482.75 427.75 472.75L409.5 378.75C408.25 371.5 401.75 366 394.75 364L336 345.75L341 274.5C341.25 269 346.75 267 350.75 270.25L378.75 293.5C382 296.5 386 298 390.75 298L475.25 298C485.75 298 494 289.75 494 279.25C494 268.75 485.75 260.5 475.25 260.5L397.75 260.5L356.75 226.75C346.75 218.25 337.5 213.25 322.5 213.25L228.25 213.25L249 144C252.25 133.75 246.25 123.25 236.5 120.5C226.5 117.25 215.75 123.25 213 133.25ZM286 156.5C286 178.5 304 196.5 326 196.5C347.75 196.5 365.75 178.5 365.75 156.5C365.75 135 347.75 117 326 117C304 117 286 135 286 156.5Z" fill="black" fill-opacity="0.85"/>
 </g>
</svg>
