<?xml version="1.0" encoding="UTF-8"?>
<!--Generator: Apple Native CoreSVG 326-->
<!DOCTYPE svg
PUBLIC "-//W3C//DTD SVG 1.1//EN"
       "http://www.w3.org/Graphics/SVG/1.1/DTD/svg11.dtd">
<svg version="1.1" xmlns="http://www.w3.org/2000/svg" xmlns:xlink="http://www.w3.org/1999/xlink" viewBox="0 0 651.25 651.75">
 <g>
  <rect height="651.75" opacity="0" width="651.25" x="0" y="0"/>
  <path d="M651.25 325.75C651.25 505 505 651.25 325.5 651.25C146.25 651.25 0 505 0 325.75C0 146.25 146.25 0 325.5 0C505 0 651.25 146.25 651.25 325.75ZM487.5 468.75L142.25 490.25C137.25 490.75 133.75 494.25 133.75 499.25C133.75 503.75 137.5 507.5 142.25 507.5L491.25 507.5C502 507.5 510.5 499 510.5 487.75C510.5 475 500.75 467.75 487.5 468.75ZM239.5 380L182 437.25C173.5 446 174.75 456.25 181.5 462.25C188 468.25 197.5 468.25 206 460L261 405.5C265.5 401 266.25 400 269.25 393L292.5 332L287.75 329.5C279.5 325 267.25 317.25 260.5 304.75ZM549 248.25L464 288C458 290.75 456 297 458.5 302.5C460.5 307.25 466.75 309.5 472.5 307L495 296.25L467.25 454.5L482.5 453.75C485.75 453.5 486.5 453.5 488.75 453.5L518 285.75L557.75 267C563 264.75 565.25 258 563 253.25C560.75 248 554.25 245.75 549 248.25ZM299 179L239 183.25C230 184 223.5 190 222.25 199.75L214.25 260C213 270.75 217.75 278 227.25 279C236.75 279.5 242 274 243.5 263.75L251 214.25L275.5 212.75C280.75 212.25 286 216.25 284.25 222.75L270.25 271.5C262.25 299.75 280.5 307.75 295.25 316L360.25 352.5L318.5 388.5C309.5 396.5 309.25 406 314.75 412C320.5 418.5 330.5 419.5 339.5 411.75L398.25 362C406 355.25 404.75 341 395.5 334.75L332 292.75L344.5 248.75C346.25 242 353.5 241 357.5 247L376 274C380.25 280.75 388 282.75 395.5 279.5L449.25 255.75C458.5 251.5 462 243.25 457.75 235C454 226.25 445.75 223.75 436 228L393.5 247L364.25 206.5C348.75 185.5 329.75 176.75 299 179ZM316.25 131.75C316.25 152 332.75 168 353 168C373.25 168 389.75 152 389.75 131.75C389.75 111 373.25 94.5 353 94.5C332.75 94.5 316.25 111 316.25 131.75Z" fill="black" fill-opacity="0.85"/>
 </g>
</svg>
