<?xml version="1.0" encoding="UTF-8"?>
<!--Generator: Apple Native CoreSVG 326-->
<!DOCTYPE svg
PUBLIC "-//W3C//DTD SVG 1.1//EN"
       "http://www.w3.org/Graphics/SVG/1.1/DTD/svg11.dtd">
<svg version="1.1" xmlns="http://www.w3.org/2000/svg" xmlns:xlink="http://www.w3.org/1999/xlink" viewBox="0 0 651.25 651.75">
 <g>
  <rect height="651.75" opacity="0" width="651.25" x="0" y="0"/>
  <path d="M325.5 651.25C505.25 651.25 651.25 505.5 651.25 325.75C651.25 146 505.25 0 325.5 0C145.75 0 0 146 0 325.75C0 505.5 145.75 651.25 325.5 651.25ZM325.5 604.75C171.25 604.75 46.5 480 46.5 325.75C46.5 171.5 171.25 46.75 325.5 46.75C479.75 46.75 604.5 171.5 604.5 325.75C604.5 480 479.75 604.75 325.5 604.75Z" fill="black" fill-opacity="0.85"/>
  <path d="M339.75 179C361 179 378.5 161.5 378.5 140C378.5 118.75 361 101.25 339.75 101.25C318 101.25 300.75 118.75 300.75 140C300.75 161.5 318 179 339.75 179ZM381.25 284C389 291.75 402.75 291.25 409 281.25L452.5 211.5C465.5 190.25 434.25 173.5 422.25 192.75L390.75 243.25L366.25 218.5C342.75 195 316.75 190.25 281 194.25L217.5 201.5C209.25 202.25 202.75 209 201.75 216.75L193 286.75C190 309.25 225.25 315 228.25 291L235.25 235L268.25 231.25C273 231 276.25 234.25 275.5 239.25L267 307.5C263 340 281.75 358.75 313.75 356.5L379.25 351.75L359.5 423C353 447.25 387.75 455.5 394 432.5L419.75 337.25C423 325.25 414.75 315 401.25 315L333.5 315L342.25 256.5C343 250.75 348 250.75 351.25 254ZM284.75 367.25L280.25 433.25L247 517.25C241 532 251.75 542.5 262.75 542.5C269.75 542.5 276.5 538.5 280 529.75L314.25 444C314.75 442.5 315 441.25 315.5 440L326 370.5L315 371.5C304 372.25 295.5 371.25 284.75 367.25Z" fill="black" fill-opacity="0.85"/>
 </g>
</svg>
