<?xml version="1.0" encoding="UTF-8"?>
<!--Generator: Apple Native CoreSVG 326-->
<!DOCTYPE svg
PUBLIC "-//W3C//DTD SVG 1.1//EN"
       "http://www.w3.org/Graphics/SVG/1.1/DTD/svg11.dtd">
<svg version="1.1" xmlns="http://www.w3.org/2000/svg" xmlns:xlink="http://www.w3.org/1999/xlink" viewBox="0 0 448.879 738.75">
 <g>
  <rect height="738.75" opacity="0" width="448.879" x="0" y="0"/>
  <path d="M224.064 140.25C263.064 140.25 294.314 109 294.314 70C294.314 31.25 263.064 0 224.064 0C185.314 0 154.064 31.25 154.064 70C154.064 109 185.314 140.25 224.064 140.25ZM71.8145 390.5L121.314 390.5C147.064 390.5 166.814 372 166.814 348.25L166.814 171.5C166.814 147.5 147.064 129.25 121.314 129.25L87.0645 129.25C51.5645 129.25 29.8145 151 29.8145 187L29.8145 348.25C29.8145 373 47.3145 390.5 71.8145 390.5ZM56.3145 714.5L147.564 606C156.564 595 160.314 589 167.064 574.75L224.314 450.5C242.064 412.25 245.314 389 248.064 349.75L251.814 297.5L302.064 346C313.564 356.75 322.314 360.25 341.814 360.25L415.564 360.25C435.564 360.25 448.814 348.75 448.814 330.5C448.814 312.5 435.314 301 415.564 301L336.564 301L239.314 194.75C224.814 179.25 205.814 170.25 183.564 170.25C163.564 170.25 147.064 176.25 131.064 187L116.564 377.5C114.314 407 119.064 424 133.564 445.75L104.314 559.5L10.0645 671C-21.9355 709 30.3145 745.25 56.3145 714.5ZM354.564 675.25L289.314 543C284.064 532.25 276.814 521 270.314 511.75L245.314 476.75L213.064 546.25C221.064 556.75 224.564 562.5 227.564 568.5L294.564 704.5C315.314 746 376.814 720.25 354.564 675.25ZM416.064 212C407.814 212 401.064 218.5 401.064 226.75L401.064 271.25L415.564 271.25C419.814 271.25 425.064 272 430.814 272.75L430.814 226.75C430.814 218.5 424.314 212 416.064 212ZM415.814 725.75C424.064 725.75 430.814 719 430.814 710.75L430.814 388.25C425.064 389.5 419.564 390 415.564 390L401.064 390L401.064 710.75C401.064 719 407.564 725.75 415.814 725.75Z" fill="black" fill-opacity="0.85"/>
 </g>
</svg>
