<?xml version="1.0" encoding="UTF-8"?>
<!--Generator: Apple Native CoreSVG 326-->
<!DOCTYPE svg
PUBLIC "-//W3C//DTD SVG 1.1//EN"
       "http://www.w3.org/Graphics/SVG/1.1/DTD/svg11.dtd">
<svg version="1.1" xmlns="http://www.w3.org/2000/svg" xmlns:xlink="http://www.w3.org/1999/xlink" viewBox="0 0 651.25 651.75">
 <g>
  <rect height="651.75" opacity="0" width="651.25" x="0" y="0"/>
  <path d="M325.5 651.25C505.25 651.25 651.25 505.5 651.25 325.75C651.25 146 505.25 0 325.5 0C145.75 0 0 146 0 325.75C0 505.5 145.75 651.25 325.5 651.25ZM325.5 604.75C171.25 604.75 46.5 480 46.5 325.75C46.5 171.5 171.25 46.75 325.5 46.75C479.75 46.75 604.5 171.5 604.5 325.75C604.5 480 479.75 604.75 325.5 604.75Z" fill="black" fill-opacity="0.85"/>
  <path d="M374 203.5C395.75 203.5 412.75 186 412.75 164.75C412.75 143.5 395.75 126 374 126C352.75 126 335.5 143.5 335.5 164.75C335.5 186 352.75 203.5 374 203.5ZM313.5 358.5L382 397L337.5 435C328.75 442.75 328.5 453.25 334.25 459.75C340.25 466.5 350.75 467.5 360 459.25L421.5 407C430 400 428.5 385 418.75 378.5L351.5 334.5L364.75 288C366.75 281.25 374.5 280.5 378.5 286L398.25 315C402.75 321.5 411.25 324 418.75 320.75L475 295.5C485 291 488.75 282.5 484.5 273.5C480.25 264.75 471.75 262 461.75 266.25L416.75 286.25L385.75 243.5C370 221.25 350 212.75 317.25 215L254.75 219.25C245 220 238 226.5 236.75 236.5L228.5 300.25C227 311 232.25 318.75 242 319.75C251.5 320.75 257.75 315 259.5 304L267 251.75L292.5 250C298.25 249.75 304 254 301.75 260.5L287.25 311.75C278.5 341.75 298 350 313.5 358.5ZM194.25 512.75C201 518.25 210.75 518.75 219.5 510.25L277.5 453C282.25 448 283.5 447.25 286.25 439.5L312 375L306 371.5C294.5 365 283.25 358.5 276.75 348.75L254.5 426.25L194.25 485.75C185.5 494.75 187 506 194.25 512.75Z" fill="black" fill-opacity="0.85"/>
 </g>
</svg>
