<?xml version="1.0" encoding="UTF-8"?>
<!--Generator: Apple Native CoreSVG 326-->
<!DOCTYPE svg
PUBLIC "-//W3C//DTD SVG 1.1//EN"
       "http://www.w3.org/Graphics/SVG/1.1/DTD/svg11.dtd">
<svg version="1.1" xmlns="http://www.w3.org/2000/svg" xmlns:xlink="http://www.w3.org/1999/xlink" viewBox="0 0 651.25 651.75">
 <g>
  <rect height="651.75" opacity="0" width="651.25" x="0" y="0"/>
  <path d="M651.25 325.75C651.25 505 505 651.25 325.5 651.25C146.25 651.25 0 505 0 325.75C0 146.25 146.25 0 325.5 0C505 0 651.25 146.25 651.25 325.75ZM276.25 453.25L201.25 495.25C189.5 501.5 189 514.25 194.75 522C199.75 529 208.75 532.5 218.75 527L300.75 481.5C304.75 479.5 307.75 475.75 309.5 471L325.75 422.25L297.25 410C290.5 406.75 287.5 405 287 404ZM148 173.5C148 188.25 158.5 205 172.75 212.75L172.75 227L166.75 227C156.5 227 148 235.25 148 245.75C148 255.5 156.5 263.75 166.75 263.75L291.75 263.75C297.25 263.75 302.25 268 299.75 275.5L278.25 339.25C270.25 362.25 281.25 385.75 303.25 395.5L377.25 428.25L403 515.75C406.75 528.5 418.25 531.75 427.5 528.25C435.25 525 441.25 517 438 506L410.75 409.75C409.5 405.25 406.75 401.75 402.25 399.25L344.75 365.5L372 284.25C374 278 380.75 277.25 385.25 281.75L425.75 322.25C429.25 326.25 434 327.75 438.75 327.75C443.5 327.75 448.25 326.25 452 322.25L506.75 267.5C513.75 260.25 514 248.75 506.75 241.75C499.5 234.5 488.5 234.25 480.75 241.75L438.75 284L403.5 247.25C387.25 230.25 370.25 227 336.25 227L192 227L192 212.75C206.5 204.75 216.75 188 216.75 173.5C216.75 154.25 201.75 139 182.25 139C163.25 139 148 154.25 148 173.5ZM447.75 347.5C442.25 347.5 437.5 352.25 437.5 357.75C437.5 363 442.5 368 447.75 368L556.25 368L556.25 347.5ZM336.25 172.25C336.25 194.25 354 212.25 376 212.25C398 212.25 416 194.25 416 172.25C416 150.75 398 132.5 376 132.5C354 132.5 336.25 150.75 336.25 172.25Z" fill="black" fill-opacity="0.85"/>
 </g>
</svg>
