<?xml version="1.0" encoding="UTF-8"?>
<!--Generator: Apple Native CoreSVG 326-->
<!DOCTYPE svg
PUBLIC "-//W3C//DTD SVG 1.1//EN"
       "http://www.w3.org/Graphics/SVG/1.1/DTD/svg11.dtd">
<svg version="1.1" xmlns="http://www.w3.org/2000/svg" xmlns:xlink="http://www.w3.org/1999/xlink" viewBox="0 0 707.75 730.75">
 <g>
  <rect height="730.75" opacity="0" width="707.75" x="0" y="0"/>
  <path d="M343.75 137.5C382 137.5 413 106.5 413 68.75C413 30.75 382 0 343.75 0C306 0 275.25 30.75 275.25 68.75C275.25 106.5 306 137.5 343.75 137.5ZM97.25 654.5C80.25 671.5 83.75 692.5 96.25 704C107.75 714.25 127.75 716.25 143.5 700.5L264.25 579.75C266.5 577.25 267.75 576 269.75 572.25L330 459.25C338 443.75 360.75 442.25 375 453L511.25 556.25L511.25 695.75C511.25 717.25 524.25 730.5 544 730.5C564 730.5 577 717.25 577 695.75L577 540.5C577 531 573.5 522.75 564.75 515L412.75 384.5L412.75 242.25C412.75 234.5 417.75 228 427.5 226.5L680 188.25C697.75 185.5 710 168.25 707.25 150.5C704.5 132.75 687.75 120.5 670 123.25L167.25 199.25L167.25 98.25L102 98.25L102 237.75C102 258.25 118.75 272.75 139.5 269.75L248.5 253.25C258.25 251.75 265.25 257.75 265.25 267.75L265.25 396L213.25 538.5ZM110.25 134.25C147.5 134.25 189.75 117 214.75 88.25C222.25 79.5 222.25 68.5 214.5 59.5C189.75 31 147.5 13.5 110.25 13.5C73 13.5 30.5 31 6 59.5C-2 68.5-2 79.5 6 88.5C30.5 117 73 134.25 110.25 134.25Z" fill="black" fill-opacity="0.85"/>
 </g>
</svg>
