<?xml version="1.0" encoding="UTF-8"?>
<!--Generator: Apple Native CoreSVG 326-->
<!DOCTYPE svg
PUBLIC "-//W3C//DTD SVG 1.1//EN"
       "http://www.w3.org/Graphics/SVG/1.1/DTD/svg11.dtd">
<svg version="1.1" xmlns="http://www.w3.org/2000/svg" xmlns:xlink="http://www.w3.org/1999/xlink" viewBox="0 0 594.377 758.75">
 <g>
  <rect height="758.75" opacity="0" width="594.377" x="0" y="0"/>
  <path d="M224.813 277C263.313 277 294.063 246 294.063 207.75C294.063 169.25 263.313 138.5 224.813 138.5C186.563 138.5 155.563 169.25 155.563 207.75C155.563 246 186.563 277 224.813 277ZM56.3134 694.25L246.813 742.25C273.563 749 291.813 729.25 288.313 704.25L270.563 582.75L421.313 582.75L539.313 702.25C551.563 714.5 572.063 714.5 584.813 702.25C597.813 690 597.313 669 584.813 656.25L460.063 531.25C451.313 522.5 448.063 520 433.813 518.5L297.063 504.75L262.563 400.5C260.063 393 265.813 385.75 273.563 387.5L523.313 437.5C539.563 440.5 557.813 431.75 561.063 412.5C563.813 395 553.563 378.25 536.063 374.75L190.813 306C160.563 300 144.313 295.5 130.813 282.25L64.3134 216.25L64.3134 68.75C64.3134 51 49.8134 36.75 32.5634 36.75C14.0634 36.75 0.0634189 51 0.0634189 68.75L0.0634189 224.25C0.0634189 237.5 1.56342 245 11.0634 254.5L85.3134 328.5C100.563 344 102.563 349.5 107.813 365L208.063 666.25L71.8134 631.75C54.5634 627.5 37.3134 638 33.3134 655.5C29.3134 672.5 39.3134 690 56.3134 694.25ZM125.313 79.25C146.563 79.25 164.813 61.75 164.813 39.5C164.813 17.75 146.563 0 125.313 0C102.563 0 85.5634 17.75 85.5634 39.5C85.5634 61.75 102.563 79.25 125.313 79.25Z" fill="black" fill-opacity="0.85"/>
 </g>
</svg>
