<?xml version="1.0" encoding="UTF-8"?>
<!--Generator: Apple Native CoreSVG 326-->
<!DOCTYPE svg
PUBLIC "-//W3C//DTD SVG 1.1//EN"
       "http://www.w3.org/Graphics/SVG/1.1/DTD/svg11.dtd">
<svg version="1.1" xmlns="http://www.w3.org/2000/svg" xmlns:xlink="http://www.w3.org/1999/xlink" viewBox="0 0 651.25 651.75">
 <g>
  <rect height="651.75" opacity="0" width="651.25" x="0" y="0"/>
  <path d="M651.25 325.75C651.25 505 505 651.25 325.5 651.25C146.25 651.25 0 505 0 325.75C0 146.25 146.25 0 325.5 0C505 0 651.25 146.25 651.25 325.75ZM224.25 205C219 205 214 206.75 210.5 210.5L155 266.25C147.5 273.75 147.75 285.25 155 292.75C162.25 300 174 300 181.25 292.75L231.75 242L264.5 242C268.25 242 269.5 245.5 267.25 247.75L216.75 297.75C192.5 321.75 205.25 363.5 243.75 363.5L332 363.5L317.25 444.75C312.75 469.25 349.5 475.25 354 450.25L372.75 347.75C374.5 338.25 368.25 328 357.25 326.25L295.75 317.5L334.25 279.75C337.75 276 342.75 275.75 346.75 279.75L441.75 374.75C449 382 461 382.25 468.25 374.75C475.25 367.25 475.5 356 468.25 348.5L338.25 218.5C329.75 210 318.25 205 305.5 205ZM207 428.75L141.5 428.75C130.75 428.75 122.75 437.25 122.75 447C122.75 457.5 130.75 465.75 141.5 465.75L224.25 465.75C233.25 465.75 240.5 458.75 242.25 449.25L255.75 378.75L243.75 378.75C231 378.75 220 375 211.5 369.5ZM473.75 387.25C469.5 387.25 466 390.5 466 395C466 399.5 469.5 403 473.75 403L493.5 403C499.25 403 503.75 406.75 503.75 413L503.75 421L464.5 421C452 421 442.25 431 442.25 443.5C442.25 455.75 452 465.75 464.5 465.75L520.25 465.75C532.75 465.75 542.5 455.75 542.5 443.5C542.5 431 532.75 421 520.25 421L519 421L519 413C519 398.25 508 387.25 493.5 387.25ZM343 179.25C343 201 360.75 218.75 382.75 218.75C404.75 218.75 422.25 201 422.25 179.25C422.25 157.25 404.75 139.75 382.75 139.75C360.75 139.75 343 157.25 343 179.25Z" fill="black" fill-opacity="0.85"/>
 </g>
</svg>
