<?xml version="1.0" encoding="UTF-8"?>
<!--Generator: Apple Native CoreSVG 326-->
<!DOCTYPE svg
PUBLIC "-//W3C//DTD SVG 1.1//EN"
       "http://www.w3.org/Graphics/SVG/1.1/DTD/svg11.dtd">
<svg version="1.1" xmlns="http://www.w3.org/2000/svg" xmlns:xlink="http://www.w3.org/1999/xlink" viewBox="0 0 753.25 769.75">
 <g>
  <rect height="769.75" opacity="0" width="753.25" x="0" y="0"/>
  <path d="M377 138.75C415 138.75 446.25 107.75 446.25 69C446.25 31 415 0 377 0C338.5 0 307.75 31 307.75 69C307.75 107.75 338.5 138.75 377 138.75ZM307.25 378.25L447 378.25L447 299.75C447 294.5 455.25 292 458.25 298.5L547 478.5C555 494.25 574 501 589.75 492.5C604.75 485 611.75 465.75 603.75 449.75L487.25 214.5C473.5 186.25 447.25 170 414.75 170L339 170C306.5 170 280.5 186.25 266.5 214.5L150 449.75C142 465.75 149 485 164 492.5C179.75 501 198.75 494.25 206.75 478.5L295.75 298.5C299 292 307.25 294 307.25 299.5ZM248.25 766.5C263.5 769.75 281 761.75 285.75 740L315.5 603.75L377 489L438.25 603.75L468 740C472.75 762.75 491.75 770.25 507.5 766.25C522.25 762 534.25 747.75 529.75 726.25L499.5 585.75C499.25 583 498.75 581 497.5 578.25L459 469.25L295.25 469.25L256 578.25C255 581 254.5 583 254.25 585.75L224.25 726.25C219.25 748.75 232.75 763.5 248.25 766.5ZM61.75 530.25L83.25 530.25C94.75 530.25 103 521.75 103 510L103 337C103 325.25 94.75 317.25 83.25 317.25L61.75 317.25C50 317.25 42 325.25 42 337L42 510C42 521.75 50 530.25 61.75 530.25ZM670.25 530.25L691.5 530.25C703.25 530.25 711.25 521.75 711.25 510L711.25 337C711.25 325.25 703.25 317.25 691.5 317.25L670.25 317.25C658.5 317.25 650.5 325.25 650.5 337L650.5 510C650.5 521.75 658.5 530.25 670.25 530.25ZM15.75 439.5L737.5 439.5C746.25 439.5 753.25 432.5 753.25 423.75C753.25 415 746.25 408 737.5 408L15.75 408C7 408 0 415 0 423.75C0 432.5 7 439.5 15.75 439.5Z" fill="black" fill-opacity="0.85"/>
 </g>
</svg>
