<?xml version="1.0" encoding="UTF-8"?>
<!--Generator: Apple Native CoreSVG 326-->
<!DOCTYPE svg
PUBLIC "-//W3C//DTD SVG 1.1//EN"
       "http://www.w3.org/Graphics/SVG/1.1/DTD/svg11.dtd">
<svg version="1.1" xmlns="http://www.w3.org/2000/svg" xmlns:xlink="http://www.w3.org/1999/xlink" viewBox="0 0 651.25 651.75">
 <g>
  <rect height="651.75" opacity="0" width="651.25" x="0" y="0"/>
  <path d="M325.5 651.25C505.25 651.25 651.25 505.5 651.25 325.75C651.25 146 505.25 0 325.5 0C145.75 0 0 146 0 325.75C0 505.5 145.75 651.25 325.5 651.25ZM325.5 604.75C171.25 604.75 46.5 480 46.5 325.75C46.5 171.5 171.25 46.75 325.5 46.75C479.75 46.75 604.5 171.5 604.5 325.75C604.5 480 479.75 604.75 325.5 604.75Z" fill="black" fill-opacity="0.85"/>
  <path d="M371.75 185.5C393.5 185.5 410.75 168 410.75 146.5C410.75 125 393.5 107.75 371.75 107.75C350.25 107.75 333 125 333 146.5C333 168 350.25 185.5 371.75 185.5ZM193.5 315C204.25 319.75 214.25 315 218.5 306.75L251.25 241.5L290 241.5C294.25 241.5 296.75 245.5 295 249.25L260.75 317.25C248 342.25 263.5 373.75 296.75 371.75L388.5 366L354.75 441.75C350.75 451 354.5 463 364 466.25C374.5 470.5 384 467.25 388.5 457L436 353.25C441.25 341.75 434 326.5 419.25 326.5L336 326.5L373 252.5C374.5 249.25 378 248.75 380.75 251L424.5 292.75C433.25 301 449 299.75 454.75 288L492.25 212.25C497 202.75 494 191.5 484 187C474.5 182.5 463.75 186.25 458.75 195.75L432.5 247.5L411.25 226.25C396.75 211.5 381.5 204 357.75 204L239.5 204C232.25 204 226.25 208.25 222.75 214.5L185 290C180.5 299.5 183.75 310.25 193.5 315ZM159.75 490.25C165.5 502.25 178.25 502.25 184.5 500L261.5 466.75C265.25 465 268.5 462 270.5 457.75L305.75 387L297.5 387.5C283 388.5 269 384.25 260.5 376.75L239 435.25L169.25 465C159.75 469 154.75 480.25 159.75 490.25ZM453 515.25C475 515.25 492.25 498.5 492.25 476.5C492.25 455 475 437.5 453 437.5C431.75 437.5 414.5 455 414.5 476.5C414.5 498.5 431.75 515.25 453 515.25Z" fill="black" fill-opacity="0.85"/>
 </g>
</svg>
