<?xml version="1.0" encoding="UTF-8"?>
<!--Generator: Apple Native CoreSVG 326-->
<!DOCTYPE svg
PUBLIC "-//W3C//DTD SVG 1.1//EN"
       "http://www.w3.org/Graphics/SVG/1.1/DTD/svg11.dtd">
<svg version="1.1" xmlns="http://www.w3.org/2000/svg" xmlns:xlink="http://www.w3.org/1999/xlink" viewBox="0 0 651.25 651.75">
 <g>
  <rect height="651.75" opacity="0" width="651.25" x="0" y="0"/>
  <path d="M651.25 325.75C651.25 505 505 651.25 325.5 651.25C146.25 651.25 0 505 0 325.75C0 146.25 146.25 0 325.5 0C505 0 651.25 146.25 651.25 325.75ZM230.75 110.5L170.75 267C167.75 274.75 170.25 281.75 174.75 286.25L221 333C228.25 340 240.25 340 247.5 333L268.25 312.25C271.25 309.5 275.25 309.5 276.25 313.75L287.5 358.25L223.25 406.5C218.5 410 216.25 415.25 215.5 420.75L198 515.25C196.5 525.25 203.25 535.5 213.75 537.5C223.75 539.25 233.25 532.75 235.25 522L251.25 434.25L324.25 394.5C326 393.5 328 394 329 395.75L365.5 484.5C367.5 489 371 492.5 375 494.5L450 536.25C460.75 542 471.25 537.5 475.5 529.25C481 520 477.75 508.5 468.5 503.25L399.25 465L347.25 256.75C344.5 244.5 333.5 235.25 320 235.25L208.5 235.25L260.5 124.5C267.75 109.5 257.25 99.75 246.25 99.75C240 99.75 234 103 230.75 110.5ZM234.5 292.75L215 273.25L253.5 273.25ZM273 175.75C273 198 291.25 215.5 313 215.5C334.75 215.5 352.75 198 352.75 175.75C352.75 154 334.75 136.5 313 136.5C291.25 136.5 273 154 273 175.75Z" fill="black" fill-opacity="0.85"/>
 </g>
</svg>
