<?xml version="1.0" encoding="UTF-8"?>
<!--Generator: Apple Native CoreSVG 326-->
<!DOCTYPE svg
PUBLIC "-//W3C//DTD SVG 1.1//EN"
       "http://www.w3.org/Graphics/SVG/1.1/DTD/svg11.dtd">
<svg version="1.1" xmlns="http://www.w3.org/2000/svg" xmlns:xlink="http://www.w3.org/1999/xlink" viewBox="0 0 651.25 651.75">
 <g>
  <rect height="651.75" opacity="0" width="651.25" x="0" y="0"/>
  <path d="M651.25 325.75C651.25 505 505 651.25 325.5 651.25C146.25 651.25 0 505 0 325.75C0 146.25 146.25 0 325.5 0C505 0 651.25 146.25 651.25 325.75ZM213.25 196L213.25 261.5C213.25 271.5 221.5 280 231.75 280L308.75 280C312.25 280 314.5 283 313.75 286.5L299 344C296.25 353.25 290.25 360.25 281 363.5L200.5 391.75L112.5 391.75C102 391.75 94 400.25 94 410.25C94 421 102 428.75 112.5 428.75L201 428.75C206.5 428.75 209 428 213 427L314 402.75C315.75 402.5 317 403.5 316.75 405.25L310.25 460.5L270.5 432.25C262 426.25 250.75 428.25 244.75 436.75C238.5 445.25 240.25 456.75 248.75 463L309.75 506C323.25 515.75 340 512 343.5 498.25L393.75 296.5C394.5 294 396.5 292.75 399 293.25L550.75 323.5C565 326.5 573 315.75 573 305.25C573 297.25 568.5 289.25 558 287L408.5 256.75C360.75 247 330.5 243 296.25 243L250.75 243L250.75 196C250.75 185.5 242 177.75 231.75 177.75C221.5 177.75 213.25 185.5 213.25 196ZM335.25 190.75C335.25 212.75 353.25 231 375.5 231C397.25 231 415.25 212.75 415.25 190.75C415.25 169 397.25 151 375.5 151C353.25 151 335.25 169 335.25 190.75ZM243 152.25C243 168 255.75 180.25 271.25 180.25C287 180.25 299.25 168 299.25 152.25C299.25 137 287 124.25 271.25 124.25C255.75 124.25 243 137 243 152.25Z" fill="black" fill-opacity="0.85"/>
 </g>
</svg>
