<?xml version="1.0" encoding="UTF-8"?>
<!--Generator: Apple Native CoreSVG 326-->
<!DOCTYPE svg
PUBLIC "-//W3C//DTD SVG 1.1//EN"
       "http://www.w3.org/Graphics/SVG/1.1/DTD/svg11.dtd">
<svg version="1.1" xmlns="http://www.w3.org/2000/svg" xmlns:xlink="http://www.w3.org/1999/xlink" viewBox="0 0 651.25 651.75">
 <g>
  <rect height="651.75" opacity="0" width="651.25" x="0" y="0"/>
  <path d="M651.25 325.75C651.25 505 505 651.25 325.5 651.25C146.25 651.25 0 505 0 325.75C0 146.25 146.25 0 325.5 0C505 0 651.25 146.25 651.25 325.75ZM186 141C186 153 191.25 163.5 199.75 170.75L149.5 258.5C145.25 266.25 146.75 274.25 153 280.5L210.25 337.75C215.25 342.75 224.5 345.5 234 340.75L298.75 308.25C303.5 305.75 307.75 308 308.5 311.75L328.25 390L296.75 467.75L223.75 467.75C213 467.75 204.75 476 204.75 487.25C204.75 497.5 213 506 223.75 506L308.75 506C316 506 322.75 502.75 326.75 495.75L365.5 424.75C367 421.75 370 422 371.25 425L391.75 479.5L318.25 528.25C309.75 534 307.25 546 313 555C318.5 563.75 330.25 566 339.5 560L423 504.25C431.5 499 435.5 490 433 480.25L382 277.25C380.5 270.5 382 266.75 386.75 264.25L507.5 204C517.5 199.25 520.75 187.5 516 178.25C511.5 169 500.25 165 490.5 169.75L227.75 301.25L183 256.5C181 254 178.25 252.25 175.75 251L216.5 179C219.5 179.75 222.5 180 225.25 180C246.75 180 264.25 162.5 264.25 141C264.25 119 246.75 101.75 225.25 101.75C203.25 101.75 186 119 186 141ZM280 189.25C280 211 297.5 228.75 319.5 228.75C341.5 228.75 359 211 359 189.25C359 167.25 341.5 149.5 319.5 149.5C297.5 149.5 280 167.25 280 189.25ZM245.25 141C245.25 152.5 236.75 161.25 225.25 161.25C213.5 161.25 204.75 152.5 204.75 141C204.75 129.25 213.5 120.75 225.25 120.75C236.75 120.75 245.25 129.25 245.25 141Z" fill="black" fill-opacity="0.85"/>
 </g>
</svg>
