<?xml version="1.0" encoding="UTF-8"?>
<!--Generator: Apple Native CoreSVG 326-->
<!DOCTYPE svg
PUBLIC "-//W3C//DTD SVG 1.1//EN"
       "http://www.w3.org/Graphics/SVG/1.1/DTD/svg11.dtd">
<svg version="1.1" xmlns="http://www.w3.org/2000/svg" xmlns:xlink="http://www.w3.org/1999/xlink" viewBox="0 0 791.5 584.25">
 <g>
  <rect height="584.25" opacity="0" width="791.5" x="0" y="0"/>
  <path d="M470.25 137.75C508 137.75 539 107 539 69C539 31 508 5.68434e-14 470.25 5.68434e-14C432.25 5.68434e-14 401.25 31 401.25 69C401.25 107 432.25 137.75 470.25 137.75ZM356.25 530.5C348.25 573.25 412.5 583.75 420.5 540L453 362C456 345.25 445.5 327.5 426.25 324.75L319.25 309.75L385.75 243.25C392 236.75 401.25 236.75 407.75 243.25L592.5 428C604.75 440.25 625.5 441.5 638.25 428C650.5 415 650.75 395.25 638.25 382.5L393.25 137.5C378.25 122.5 358 113.75 336 113.75L194.5 113.75C185.75 113.75 177.5 117.25 171.5 123.25L74.5 220.5C61.75 233.25 61.75 253.5 74.5 266.25C87 278.75 107.25 278.75 120 266.25L208 178.25L264.75 178.25C270.75 178.25 273.25 183.75 269.25 187.75L181.75 275.25C139.75 317 162 388.75 228.75 388.75L382 388.75ZM172.75 403.25L164.25 502.5L32.5 502.5C14.5 502.5 0 517 0 534.5C0 552.25 14.5 567 32.5 567L194.5 567C210.75 567 223.5 554.75 226.5 538.5L248.25 418.75L228.75 418.75C206.75 418.75 187.75 413 172.75 403.25ZM655.75 567L752.5 567C774 567 791.5 549.75 791.5 528.25C791.5 506.75 774 489.25 752.5 489.25L655.75 489.25C633.5 489.25 616.5 506.75 616.5 528.25C616.5 549.75 633.5 567 655.75 567ZM723.25 506L750 506L750 475C750 449.75 731 430.75 705.75 430.75L671.75 430.75C664.25 430.75 658.25 436.5 658.25 444.25C658.25 451.75 664.25 457.75 671.75 457.75L705.75 457.75C716 457.75 723.25 465 723.25 475Z" fill="black" fill-opacity="0.85"/>
 </g>
</svg>
