<?xml version="1.0" encoding="UTF-8"?>
<!--Generator: Apple Native CoreSVG 326-->
<!DOCTYPE svg
PUBLIC "-//W3C//DTD SVG 1.1//EN"
       "http://www.w3.org/Graphics/SVG/1.1/DTD/svg11.dtd">
<svg version="1.1" xmlns="http://www.w3.org/2000/svg" xmlns:xlink="http://www.w3.org/1999/xlink" viewBox="0 0 611.843 755.25">
 <g>
  <rect height="755.25" opacity="0" width="611.843" x="0" y="0"/>
  <path d="M69.5463 138.75C107.546 138.75 138.546 107.75 138.546 69C138.546 31 107.546 0 69.5463 0C31.0463 0 0.0463423 31 0.0463423 69C0.0463423 107.75 31.0463 138.75 69.5463 138.75ZM33.2963 398L164.546 398L172.546 406C188.296 421.75 209.796 429.75 230.796 429.75C248.296 429.75 265.046 424.5 279.796 413.5L438.546 294.75L596.046 200C611.296 191 616.296 171.5 607.546 156C598.046 141 578.796 136.25 563.296 145.5L263.296 325L179.796 241.5C177.546 239.5 178.796 236.75 181.546 236.75L258.046 236.75C275.796 236.75 290.546 222.5 290.546 204.75L290.546 64.75C290.546 46.5 275.796 32.25 258.046 32.25C240.296 32.25 226.046 46.5 226.046 64.75L226.046 173.25L64.7963 173.25C30.0463 173.25 1.04634 201.5 1.04634 236.75L1.04634 366C1.04634 383.25 15.2963 398 33.2963 398ZM62.7963 335.5L62.7963 305C62.7963 300.5 67.7963 298 71.0463 301.25L104.796 335.5ZM235.546 751.25C252.046 754.25 270.296 743.5 273.796 725.75L306.046 565C306.796 561.25 306.796 557.75 306.296 553.5L300.296 435.25C277.796 452.25 254.296 459.5 230.796 459.5C227.796 459.5 224.546 459.25 221.546 459L241.296 558.75L210.546 713C207.046 730.5 218.546 747.75 235.546 751.25ZM274.296 112.5C300.796 112.5 322.546 91.25 322.546 64.75C322.546 37.75 300.796 16.25 274.296 16.25C247.796 16.25 226.046 37.75 226.046 64.75C226.046 91.25 247.796 112.5 274.296 112.5Z" fill="black" fill-opacity="0.85"/>
 </g>
</svg>
