<?xml version="1.0" encoding="UTF-8"?>
<!--Generator: Apple Native CoreSVG 326-->
<!DOCTYPE svg
PUBLIC "-//W3C//DTD SVG 1.1//EN"
       "http://www.w3.org/Graphics/SVG/1.1/DTD/svg11.dtd">
<svg version="1.1" xmlns="http://www.w3.org/2000/svg" xmlns:xlink="http://www.w3.org/1999/xlink" viewBox="0 0 651.25 651.75">
 <g>
  <rect height="651.75" opacity="0" width="651.25" x="0" y="0"/>
  <path d="M325.5 651.25C505.25 651.25 651.25 505.5 651.25 325.75C651.25 146 505.25 0 325.5 0C145.75 0 0 146 0 325.75C0 505.5 145.75 651.25 325.5 651.25ZM325.5 604.75C171.25 604.75 46.5 480 46.5 325.75C46.5 171.5 171.25 46.75 325.5 46.75C479.75 46.75 604.5 171.5 604.5 325.75C604.5 480 479.75 604.75 325.5 604.75Z" fill="black" fill-opacity="0.85"/>
  <path d="M325.25 242.25C346.75 242.25 364 224.5 364 203C364 181.75 346.75 164.25 325.25 164.25C303.75 164.25 286.25 181.75 286.25 203C286.25 224.5 303.75 242.25 325.25 242.25ZM159.75 407.5L249.25 415C265 416.25 268.5 417.5 283.75 421.5L392.75 452.25L479 484C487.25 487 499.25 484 502.5 473.25C505.5 463.75 500.75 453 491.75 449.75L405.5 418.5C404 418 400.75 416.75 399.5 416.25L323.75 388.75C333.5 369.25 347.25 338.25 350.75 304.5C351.25 300.5 353.75 298.5 357.5 298.5L487.75 298.5C498 298.5 506 290.25 506 280.25C506 270.25 498 262.25 487.75 262.25L344.75 262.25C320.75 262.25 318.5 262.25 292.25 255L156.75 217.5C147.25 215 137.25 220.5 134.5 230C131.75 239.75 137.5 249.75 147.25 252.5L273.5 287.25C276.75 288.25 278.75 290.75 278.5 294.25C274.5 326.5 258.75 357.25 250.5 371.25L179.25 371.25L179.25 298.5C179.25 288.5 170.75 280.25 161.25 280.25C151 280.25 142.75 288.5 142.75 298.5L142.75 389.25C142.75 399.75 147.5 406.5 159.75 407.5Z" fill="black" fill-opacity="0.85"/>
 </g>
</svg>
