<?xml version="1.0" encoding="UTF-8"?>
<!--Generator: Apple Native CoreSVG 326-->
<!DOCTYPE svg
PUBLIC "-//W3C//DTD SVG 1.1//EN"
       "http://www.w3.org/Graphics/SVG/1.1/DTD/svg11.dtd">
<svg version="1.1" xmlns="http://www.w3.org/2000/svg" xmlns:xlink="http://www.w3.org/1999/xlink" viewBox="0 0 651.25 651.75">
 <g>
  <rect height="651.75" opacity="0" width="651.25" x="0" y="0"/>
  <path d="M651.25 325.75C651.25 505 505 651.25 325.5 651.25C146.25 651.25 0 505 0 325.75C0 146.25 146.25 0 325.5 0C505 0 651.25 146.25 651.25 325.75ZM104.25 381.25C100.25 385 99 391.75 105 397C114.75 406 126 414.75 137.5 423.25C130.5 431.5 123.25 436.75 112.25 442C106.75 445.25 105.25 449.5 106.25 453.75C107.25 457.25 110.5 460.5 115.75 460.5C130.5 460.5 151 455.25 169 444.5C242.25 489.5 338 525.25 442.25 538C449.5 539 454 533 454 527.75C454 523.5 451 519.75 444.75 518.75C316.25 504.25 191 447.25 117.25 381.75C113 377.25 107.5 378.25 104.25 381.25ZM293.25 95.25L226.75 143C215.5 151 215.5 167 226.75 174.5L283.75 213.25C287.25 216 288 220 285.75 223.25L237.75 292.5C218 321 230.5 360.25 269.5 366.75L283.75 369L250.75 415.25C244.75 423.75 246.25 436 255.25 442.25C263.5 448 276 445.75 281.75 437.75L325.75 376.25L367.5 383L326.25 444.5C320.75 453.25 322.75 465.75 332 470.75C342.75 477.5 353.25 474 358.5 465.75L414.25 382C421.5 370.75 417.5 353.75 401.5 349.75L325 331.25C317.75 329.5 314.75 323.25 319.25 316.75L351.5 268.25C353.5 265 358 264.25 361.5 266.5L408.25 298.75C410.75 300.75 412.75 301.75 416 302.25L520.75 320.75C530.25 323 541.25 316.75 543.25 305.5C545.25 295.25 538 285 528 283.5L426.75 265L270.75 158.5L315 126.5C324 120.25 326 108.5 320.25 99.75C313.75 91 301.75 89 293.25 95.25ZM340.75 160C340.75 182.5 359.25 201 381.75 201C404.25 201 422.5 182.5 422.5 160C422.5 137.5 404.25 119.5 381.75 119.5C359.25 119.5 340.75 137.5 340.75 160Z" fill="black" fill-opacity="0.85"/>
 </g>
</svg>
