<?xml version="1.0" encoding="UTF-8"?>
<!--Generator: Apple Native CoreSVG 326-->
<!DOCTYPE svg
PUBLIC "-//W3C//DTD SVG 1.1//EN"
       "http://www.w3.org/Graphics/SVG/1.1/DTD/svg11.dtd">
<svg version="1.1" xmlns="http://www.w3.org/2000/svg" xmlns:xlink="http://www.w3.org/1999/xlink" viewBox="0 0 651.25 651.75">
 <g>
  <rect height="651.75" opacity="0" width="651.25" x="0" y="0"/>
  <path d="M651.25 325.75C651.25 505 505 651.25 325.5 651.25C146.25 651.25 0 505 0 325.75C0 146.25 146.25 0 325.5 0C505 0 651.25 146.25 651.25 325.75ZM433.75 483L433.75 498.75C433.75 506.5 446.5 512.75 463 512.75C479.75 512.75 492.75 506.5 492.75 498.75L492.75 483C492.75 475.25 479.75 469.5 463 469.5C446.5 469.5 433.75 475.25 433.75 483ZM322.25 469.25C318 469.25 314.5 473 314.5 477C314.5 481 318.25 484.75 322.25 484.75L394.25 484.75C398.5 484.75 402.25 481 402.25 477C402.25 473 398.75 469.25 394.25 469.25ZM109.75 390.5L109.75 462.25C109.75 466.75 113.5 470.25 117.5 470.25C121.75 470.25 125.25 467 125.25 462.25L125.25 390.5C125.25 386.25 121.75 382.75 117.5 382.75C113.25 382.75 109.75 386.25 109.75 390.5ZM211.75 385.75L149 385.75C141.5 385.75 137.75 390.25 137.75 397.5L137.75 448C137.75 461 156 461.25 159.5 450.25L168.25 422.75L225.75 422.75C233.25 422.75 239 418 241.75 412.75L261.5 374L247.25 370.5C237 367.75 227.75 363.25 221 358.25ZM270.25 192.25L212.25 216C194.75 223.25 197.75 242.5 211.75 250L233.75 261.5L221.5 285.75C205.5 318 217.75 346.25 251.25 354.75L317.75 371.5L317.75 445.75C317.75 452.75 322 456.75 329.75 456.75L380 456.75C393.25 456.75 393.25 438.5 382.5 435L354.5 426L354.5 354.25C354.5 346.75 349.5 340.25 342.25 337L291.25 313.5L306 284.75L379 352.5C378.25 367 390 373.5 399.75 372L477.75 444.5C481.5 448 483.75 448.25 487.75 448.25L541.5 448.25C546.25 448.25 551 444 551 439L551 429.75C551 425 546.25 420.25 541.5 420.25L480.75 420.25L414.5 359.25C415 357.5 415.25 356.25 415.25 354.25L415.25 274.25C415.25 267.25 413.5 264 407 259.25L328.25 200C311 187.25 290.25 184 270.25 192.25ZM329 252.75L379 285.25L379 326.5L314.75 267.75L321 255C322.5 252 326 250.75 329 252.75ZM310.5 145.5C310.5 167.5 328.5 185.5 350.5 185.5C372.5 185.5 390.25 167.5 390.25 145.5C390.25 123.5 372.5 105.75 350.5 105.75C328.5 105.75 310.5 123.5 310.5 145.5Z" fill="black" fill-opacity="0.85"/>
 </g>
</svg>
