<?xml version="1.0" encoding="UTF-8"?>
<!--Generator: Apple Native CoreSVG 326-->
<!DOCTYPE svg
PUBLIC "-//W3C//DTD SVG 1.1//EN"
       "http://www.w3.org/Graphics/SVG/1.1/DTD/svg11.dtd">
<svg version="1.1" xmlns="http://www.w3.org/2000/svg" xmlns:xlink="http://www.w3.org/1999/xlink" viewBox="0 0 651.25 651.75">
 <g>
  <rect height="651.75" opacity="0" width="651.25" x="0" y="0"/>
  <path d="M325.5 651.25C505.25 651.25 651.25 505.5 651.25 325.75C651.25 146 505.25 0 325.5 0C145.75 0 0 146 0 325.75C0 505.5 145.75 651.25 325.5 651.25ZM325.5 604.75C171.25 604.75 46.5 480 46.5 325.75C46.5 171.5 171.25 46.75 325.5 46.75C479.75 46.75 604.5 171.5 604.5 325.75C604.5 480 479.75 604.75 325.5 604.75Z" fill="black" fill-opacity="0.85"/>
  <path d="M132.25 373.25C153.5 373.25 171 355.5 171 334.25C171 313 153.5 295.25 132.25 295.25C110.75 295.25 93.25 313 93.25 334.25C93.25 355.5 110.75 373.25 132.25 373.25ZM175.25 386.5C168.25 404.25 175 422.5 190 433C214 449.5 236.5 455.5 272.25 455.5L329 455.5C372.5 455.5 384.5 421.5 369.75 392.5L323.75 304.25L323.75 176C323.75 165.25 315.5 157.5 304.75 157.5C294.75 157.5 286.75 165.25 286.75 176L286.75 308.75C286.75 311.25 287 313.25 287.5 315L313.5 389L279.75 389C258.25 389 246 383 229 372.5C224.5 370 223 365.75 225 361L266.5 254.5C270.25 245 265.5 234.25 256.25 230.5C246 226.75 235.5 231.5 232 241.25ZM391.75 427.75L459.75 405.25L550 389.25C560 387.5 566.75 378 564.75 367.5C563 357.25 553.25 350.75 543 352.75L446.5 370.25L383 381.75L384.5 384.75C391.75 399.5 394.5 413.5 391.75 427.75Z" fill="black" fill-opacity="0.85"/>
 </g>
</svg>
