<?xml version="1.0" encoding="UTF-8"?>
<!--Generator: Apple Native CoreSVG 326-->
<!DOCTYPE svg
PUBLIC "-//W3C//DTD SVG 1.1//EN"
       "http://www.w3.org/Graphics/SVG/1.1/DTD/svg11.dtd">
<svg version="1.1" xmlns="http://www.w3.org/2000/svg" xmlns:xlink="http://www.w3.org/1999/xlink" viewBox="0 0 651.25 651.75">
 <g>
  <rect height="651.75" opacity="0" width="651.25" x="0" y="0"/>
  <path d="M651.25 325.75C651.25 505 505 651.25 325.5 651.25C146.25 651.25 0 505 0 325.75C0 146.25 146.25 0 325.5 0C505 0 651.25 146.25 651.25 325.75ZM208.5 519C202.75 519 198.5 523.75 198.5 529.25C198.5 534.5 203 539.5 208.5 539.5L285 539.5C290.75 539.5 295.75 534.5 295.75 529.25C295.75 523.5 290.75 519 285 519ZM428.25 263.75L415.5 265.25L415.5 483.5L350.5 505C343 507.5 341.5 514 343.25 519C345 523.25 350.25 527 356.5 524.5L428.25 500.75C433.25 499 436 495.5 436 489.5L436 262.25C432.75 263.25 431.75 263.5 428.25 263.75ZM253 405L208.25 471.5C200.25 483.5 206 495.25 215 499.5C222.5 503.25 232.25 502.5 238.75 492.5L287 420.5C288.5 418 289.75 414.75 290 410.75L292 378.25L250.25 353.5ZM235.75 227.75L230 291.25C228.5 310.5 238.75 329.25 255 338.75L329.75 382.25L359.25 455.75C364 468.25 376.5 471.25 385.5 467.25C393.5 463.5 398.5 454.5 393.75 442L361.5 361.5C360.5 359 358.75 357 354.5 354L296 310.5L300.5 245.75C300.75 242.25 303.25 241 307 242.25L344.75 255.5C348.75 256.5 353 256.75 357 256.5L427.75 248.25C453 245.5 448.25 208.75 423.75 211.75L354.75 219.5L285 196.25C259.75 187.75 237.75 202.25 235.75 227.75ZM251.25 137.25C251.25 159.25 269 176.75 291 176.75C312.75 176.75 331 159.25 331 137.25C331 115.25 312.75 97.5 291 97.5C269 97.5 251.25 115.25 251.25 137.25Z" fill="black" fill-opacity="0.85"/>
 </g>
</svg>
