<?xml version="1.0" encoding="UTF-8"?>
<!--Generator: Apple Native CoreSVG 326-->
<!DOCTYPE svg
PUBLIC "-//W3C//DTD SVG 1.1//EN"
       "http://www.w3.org/Graphics/SVG/1.1/DTD/svg11.dtd">
<svg version="1.1" xmlns="http://www.w3.org/2000/svg" xmlns:xlink="http://www.w3.org/1999/xlink" viewBox="0 0 651.25 651.75">
 <g>
  <rect height="651.75" opacity="0" width="651.25" x="0" y="0"/>
  <path d="M651.25 325.75C651.25 505 505 651.25 325.5 651.25C146.25 651.25 0 505 0 325.75C0 146.25 146.25 0 325.5 0C505 0 651.25 146.25 651.25 325.75ZM202.5 264.25L202.5 392.25C202.5 399.5 207.25 406.75 214.25 409C223.25 412 233.25 407 236.75 397.75C242.25 381.75 255.25 345.25 277.25 303.75C278.5 302 281.25 302.5 281.25 304.5L281.25 556.25C281.25 566 289.5 573.75 298.5 573.75C308.25 573.75 316.5 566 316.5 556.25L316.5 463.5L325.25 392.25L334.25 463.5L334.25 556.25C334.25 566 342.5 573.75 352 573.75C361 573.75 369.25 566 369.25 556.25L369.25 304.5C369.25 302.5 372 302 373.25 303.75C395.5 345.25 408.5 381.75 413.75 397.75C417.25 407 427.25 412 436.25 409C443.25 406.75 448 399.5 448 392.25L448 264.25C448 147.75 404.5 80.75 325.25 80.75C246.25 80.75 202.5 147.75 202.5 264.25ZM427.25 264.25L427.25 335.75C415.25 307.25 397.5 271 377.5 248.75C369.5 239.75 357.75 234.25 345 234.25L305.75 234.25C292.75 234.25 281 239.75 273 248.75C253 271 235.25 307.25 223.25 335.75L223.25 264.25C223.25 160.75 259.5 101.25 325.25 101.25C391 101.25 427.25 160.75 427.25 264.25ZM285.75 175C285.75 196.75 303.25 214.5 325.25 214.5C346.75 214.5 364.5 196.75 364.5 175C364.5 153.25 346.75 135.5 325.25 135.5C303.25 135.5 285.75 153.25 285.75 175Z" fill="black" fill-opacity="0.85"/>
 </g>
</svg>
