<?xml version="1.0" encoding="UTF-8"?>
<!--Generator: Apple Native CoreSVG 326-->
<!DOCTYPE svg
PUBLIC "-//W3C//DTD SVG 1.1//EN"
       "http://www.w3.org/Graphics/SVG/1.1/DTD/svg11.dtd">
<svg version="1.1" xmlns="http://www.w3.org/2000/svg" xmlns:xlink="http://www.w3.org/1999/xlink" viewBox="0 0 651.25 651.75">
 <g>
  <rect height="651.75" opacity="0" width="651.25" x="0" y="0"/>
  <path d="M325.5 651.25C505.25 651.25 651.25 505.5 651.25 325.75C651.25 146 505.25 0 325.5 0C145.75 0 0 146 0 325.75C0 505.5 145.75 651.25 325.5 651.25ZM325.5 604.75C171.25 604.75 46.5 480 46.5 325.75C46.5 171.5 171.25 46.75 325.5 46.75C479.75 46.75 604.5 171.5 604.5 325.75C604.5 480 479.75 604.75 325.5 604.75Z" fill="black" fill-opacity="0.85"/>
  <path d="M294.5 264.25C315.75 264.25 333 247 333 225.25C333 204 315.75 186.75 294.5 186.75C272.75 186.75 255.5 204 255.5 225.25C255.5 247 272.75 264.25 294.5 264.25ZM208.5 535.25L295 535.25C306.25 535.25 311.5 529.75 313.25 520.25L328.75 434.25L401.25 434.25L387 513.5C385 526.25 393.25 534.5 402.75 535.25C411.5 536 421.25 532 423.25 520.25L441.25 421C443.75 407.25 435.75 398.75 425.5 397.5L361 390.5L366.5 329.25C367 326.25 369.25 324.25 372 324.25L423.5 324.25C433.5 324.25 441.75 315.75 441.75 305.75L441.75 205C441.75 197.25 437.25 190.75 430.25 188C423.5 185.25 416 186.5 410.5 191.75L309.75 292.5C300.75 301.75 295.25 312.75 294 326.25L278.25 498.5L208.5 498.5C198 498.5 190.25 506.5 190.25 516.75C190.25 527 198 535.25 208.5 535.25ZM405.25 249L405.25 287.5L367 287.5ZM369.25 195.5L409.75 231.5L418.75 221.5L378.5 185.25ZM266.25 120.25L360.5 205.5C366.5 210.75 373.25 210 378.75 204.25L388.75 194C394.5 188.5 393.5 180.75 388 176L293 90C287.25 85.25 279.5 85.5 274.5 91.25L265 102.25C260 108 260.25 115 266.25 120.25Z" fill="black" fill-opacity="0.85"/>
 </g>
</svg>
