<?xml version="1.0" encoding="UTF-8"?>
<!--Generator: Apple Native CoreSVG 326-->
<!DOCTYPE svg
PUBLIC "-//W3C//DTD SVG 1.1//EN"
       "http://www.w3.org/Graphics/SVG/1.1/DTD/svg11.dtd">
<svg version="1.1" xmlns="http://www.w3.org/2000/svg" xmlns:xlink="http://www.w3.org/1999/xlink" viewBox="0 0 622 822.668">
 <g>
  <rect height="822.668" opacity="0" width="622" x="0" y="0"/>
  <path d="M553.25 303.959C591 303.959 622 272.959 622 234.209C622 196.459 591 165.209 553.25 165.209C514.5 165.209 483.5 196.459 483.5 234.209C483.5 272.959 514.5 303.959 553.25 303.959ZM269 552.959L386.5 638.959L318 775.709C310 791.209 316.5 811.209 332.5 819.459C347.25 826.459 367 822.209 375.5 804.709L455.75 644.459C462.75 630.209 460 615.709 449 605.209L388.25 548.209L491.25 548.209C510 548.209 523.75 533.959 523.75 516.209L523.75 387.209C523.75 334.209 481 290.459 427.25 290.459L308.5 290.459L329 218.459C333.75 201.459 324.5 183.709 307.25 178.959C290.25 173.709 272.5 183.709 267.75 200.709L235.5 313.459C229.5 334.959 242.25 354.709 265 354.709L380.75 354.709C382 354.709 383 356.709 381.75 357.459L280.75 408.459C224.25 436.959 217 515.209 269 552.959ZM390.75 485.459L455 454.709C457.75 453.709 461.25 455.709 461.25 458.709L461.25 485.459ZM222.25 546.459L194.5 628.709L33 628.709C14.75 628.709 0 643.209 0 660.959C0 679.209 14.75 693.959 33 693.959L217.5 693.959C229.5 693.959 241.5 686.959 247 675.459L284 600.959L251.5 577.209C239.5 568.209 229.75 557.959 222.25 546.459ZM286.25 138.709L310.5 138.709C329.25 115.709 350.25 77.9588 350.25 52.7088C350.25 21.4588 329.25 0.20881 298.5 0.20881C267.5 0.20881 246 21.4588 246 52.7088C246 80.7088 267 118.209 286.25 138.709ZM282 471.709L314.25 471.709L314.25 128.959L282 128.959Z" fill="black" fill-opacity="0.85"/>
 </g>
</svg>
