<?xml version="1.0" encoding="UTF-8"?>
<!--Generator: Apple Native CoreSVG 326-->
<!DOCTYPE svg
PUBLIC "-//W3C//DTD SVG 1.1//EN"
       "http://www.w3.org/Graphics/SVG/1.1/DTD/svg11.dtd">
<svg version="1.1" xmlns="http://www.w3.org/2000/svg" xmlns:xlink="http://www.w3.org/1999/xlink" viewBox="0 0 765 717.75">
 <g>
  <rect height="717.75" opacity="0" width="765" x="0" y="0"/>
  <path d="M311.5 127.5C347 127.5 375.75 99.25 375.75 64C375.75 28.25 347 0 311.5 0C276.25 0 247.75 28.25 247.75 64C247.75 99.25 276.25 127.5 311.5 127.5ZM370.25 607.75C388.25 644.5 441.75 622 422.5 582.25L371 478C366.25 468.75 360.25 459 354.25 451L316.25 397L319 388.75C329.25 358.5 333.25 340 335.25 310.25L340.75 225C343.5 184.75 320.25 154.25 279.25 154.25C248.25 154.25 227.5 170 198.75 198.25L154 242.25C139.75 256.5 135 268.25 133.25 287.25L127.75 356.75C126.25 374.5 136 386.25 152 386.75C168.25 388 178 378.25 179.5 360L186 283.5L208 264.25C215.75 257.25 226.5 261.5 226 270L221.25 334.25C219 367 226.25 382.5 248.5 410.25L308.25 485C314.25 492.25 314.75 495.5 317.25 500.25ZM480.75 269L412.75 269L369.5 221.25L364.5 291.25L382.25 309.25C392 318.75 400 321.5 417.5 321.5L480.75 321.5C498.5 321.5 510 311.25 510 295.25C510 279.25 498.25 269 480.75 269ZM161.25 635.5L251.5 528.5C260.25 518 261.5 516 264.75 505L271 485.75L224 427.75L210.5 492.5L121.25 597.5C94 630.25 138.25 662.5 161.25 635.5ZM585.75 359.5C588.75 366.75 598.5 370.75 607.5 366.75L755.5 297.5C763.75 293.5 767 284.25 763.5 276C760.25 268.25 751 264.75 741.75 268.75L593.75 338C585.25 342 581.75 351.5 585.75 359.5ZM602.25 622.25L627.25 620.75C631.5 620.5 632.75 620.25 634.75 620.5L688.25 313.75L653.75 329ZM14.75 717.5L641.25 717.5C660.25 717.5 674.5 703 674.5 683.5C674.5 661.25 657.75 648.75 634.25 650.25L15 687.5C6.5 688 0 694.25 0 702.75C0 711 6.5 717.5 14.75 717.5Z" fill="black" fill-opacity="0.85"/>
 </g>
</svg>
