<?xml version="1.0" encoding="UTF-8"?>
<!--Generator: Apple Native CoreSVG 326-->
<!DOCTYPE svg
PUBLIC "-//W3C//DTD SVG 1.1//EN"
       "http://www.w3.org/Graphics/SVG/1.1/DTD/svg11.dtd">
<svg version="1.1" xmlns="http://www.w3.org/2000/svg" xmlns:xlink="http://www.w3.org/1999/xlink" viewBox="0 0 651.25 651.75">
 <g>
  <rect height="651.75" opacity="0" width="651.25" x="0" y="0"/>
  <path d="M325.5 651.25C505.25 651.25 651.25 505.5 651.25 325.75C651.25 146 505.25 0 325.5 0C145.75 0 0 146 0 325.75C0 505.5 145.75 651.25 325.5 651.25ZM325.5 604.75C171.25 604.75 46.5 480 46.5 325.75C46.5 171.5 171.25 46.75 325.5 46.75C479.75 46.75 604.5 171.5 604.5 325.75C604.5 480 479.75 604.75 325.5 604.75Z" fill="black" fill-opacity="0.85"/>
  <path d="M142.5 311.75L202.25 371.5C210.25 379.75 223.5 379.75 231.5 370L269 323.75C271.5 321 275.75 322.25 275.75 326L275.75 405L208.25 397.25C185.25 394.75 177.5 428.75 199.75 435.75L276.25 461.25C272.5 477 286.5 490.5 301.75 485.75L325.5 477.75L349 485.75C364.5 490.5 378.25 477 374.5 461.25L451 435.75C473.25 428.75 465.75 394.75 442.5 397.25L375.25 405L375.25 326C375.25 322.25 379.25 321 381.75 323.75L419.25 370C427.25 379.75 440.75 379.75 448.75 371.5L508.25 311.75C516.25 303.75 516.5 291.5 508.25 283.75C500.75 275.75 488 275.75 480.25 283.75L436.25 327.75L391.25 273C384 263.75 372.75 258 361 258L290 258C278.25 258 267 263.75 259.25 273L214.5 327.75L170.5 283.75C162.75 275.75 150 275.75 142.5 283.75C134.25 291.5 134.5 303.75 142.5 311.75ZM325.5 238.5C346.75 238.5 364.25 221 364.25 199.25C364.25 178 346.75 160.5 325.5 160.5C303.75 160.5 286.5 178 286.5 199.25C286.5 221 303.75 238.5 325.5 238.5Z" fill="black" fill-opacity="0.85"/>
 </g>
</svg>
