<?xml version="1.0" encoding="UTF-8"?>
<!--Generator: Apple Native CoreSVG 326-->
<!DOCTYPE svg
PUBLIC "-//W3C//DTD SVG 1.1//EN"
       "http://www.w3.org/Graphics/SVG/1.1/DTD/svg11.dtd">
<svg version="1.1" xmlns="http://www.w3.org/2000/svg" xmlns:xlink="http://www.w3.org/1999/xlink" viewBox="0 0 651.25 651.75">
 <g>
  <rect height="651.75" opacity="0" width="651.25" x="0" y="0"/>
  <path d="M325.5 651.25C505.25 651.25 651.25 505.5 651.25 325.75C651.25 146 505.25 0 325.5 0C145.75 0 0 146 0 325.75C0 505.5 145.75 651.25 325.5 651.25ZM325.5 604.75C171.25 604.75 46.5 480 46.5 325.75C46.5 171.5 171.25 46.75 325.5 46.75C479.75 46.75 604.5 171.5 604.5 325.75C604.5 480 479.75 604.75 325.5 604.75Z" fill="black" fill-opacity="0.85"/>
  <path d="M326.5 180.5C347.75 180.5 365 163 365 141.5C365 120.25 347.75 103 326.5 103C305 103 287.75 120.25 287.75 141.5C287.75 163 305 180.5 326.5 180.5ZM172.5 520.5C179.75 526.75 191.25 526.25 198.25 518.5L256.75 452C260.25 447.75 262 443.75 262.5 438.75L270.75 360C271 357.75 273.5 356.75 275 358.75L326.5 418.25L326.5 509.75C326.5 519.75 334.75 528.25 345 528.25C355 528.25 363.5 519.75 363.5 509.75L363.5 412C363.5 407 362 403.75 359.5 400.5L305.25 321.25L332 242.5C333.25 238.5 336 236.75 340.25 236.75L482.75 236.75C492.75 236.75 501.25 228.5 501.25 218.25C501.25 208.25 492.75 199.75 482.75 199.75L268.25 199.75C253.5 199.75 241 204.25 229 216.25L194 251.5C182.25 263.25 188.75 282.75 204.75 282.75L238.25 282.75L230.75 304C227 315.5 225.5 327.25 225.5 338.75L225.5 432L170.75 494.25C163.75 502 164.5 513.5 172.5 520.5ZM482.75 255.25C497.75 255.25 510.25 243 510.25 227.5C510.25 212.5 497.75 199.75 482.75 199.75C467.25 199.75 454.75 212.5 454.75 227.5C454.75 243 467.25 255.25 482.75 255.25Z" fill="black" fill-opacity="0.85"/>
 </g>
</svg>
