<?xml version="1.0" encoding="UTF-8"?>
<!--Generator: Apple Native CoreSVG 326-->
<!DOCTYPE svg
PUBLIC "-//W3C//DTD SVG 1.1//EN"
       "http://www.w3.org/Graphics/SVG/1.1/DTD/svg11.dtd">
<svg version="1.1" xmlns="http://www.w3.org/2000/svg" xmlns:xlink="http://www.w3.org/1999/xlink" viewBox="0 0 651.25 651.75">
 <g>
  <rect height="651.75" opacity="0" width="651.25" x="0" y="0"/>
  <path d="M325.5 651.25C505.25 651.25 651.25 505.5 651.25 325.75C651.25 146 505.25 0 325.5 0C145.75 0 0 146 0 325.75C0 505.5 145.75 651.25 325.5 651.25ZM325.5 604.75C171.25 604.75 46.5 480 46.5 325.75C46.5 171.5 171.25 46.75 325.5 46.75C479.75 46.75 604.5 171.5 604.5 325.75C604.5 480 479.75 604.75 325.5 604.75Z" fill="black" fill-opacity="0.85"/>
  <path d="M332 199.75C353.25 199.75 370.5 182.5 370.5 160.75C370.5 139.25 353.25 122 332 122C310.25 122 293 139.25 293 160.75C293 182.5 310.25 199.75 332 199.75ZM480.5 255.5C490.5 255.5 498.75 247.5 498.75 237.25C498.75 227 490.5 219.25 480.5 219.25L294.5 219.25C277 219.25 262 228.25 253.75 244.25L173 405.5L127.5 360.25C120.25 353 109 353.25 102 360.25C95 367.25 94.75 378.5 102 385.75L166 450C173.75 457.75 186 456.5 192 447.5L244.75 370.5C247.75 366.25 253.75 365.5 258 368.5L322.75 418L322.75 508.5C322.75 518.5 330.75 526.5 340.75 526.5C350.75 526.5 359 518.5 359 508.5L359 408.75C359 404.25 357 399.75 353.75 396.5L290.5 333L324.5 265.25C327.75 258.75 333.5 255.5 340.5 255.5ZM368 336.75L435.5 336.75C445.5 336.75 453.25 328.5 453.25 318.75C453.25 308.75 445.5 300.5 435.5 300.5L375.5 300.5L345.25 270.25L340.5 270.25C338.75 270.25 338.75 270.25 338 272L323.75 299.75L355.25 331.5C358.75 334.75 363.25 336.75 368 336.75ZM466.75 298.25C466.75 315.75 487 330 512 330C537 330 557.25 315.75 557.25 298.25C557.25 280.75 537 266.75 512 266.75C487 266.75 466.75 280.75 466.75 298.25Z" fill="black" fill-opacity="0.85"/>
 </g>
</svg>
