<?xml version="1.0" encoding="UTF-8"?>
<!--Generator: Apple Native CoreSVG 326-->
<!DOCTYPE svg
PUBLIC "-//W3C//DTD SVG 1.1//EN"
       "http://www.w3.org/Graphics/SVG/1.1/DTD/svg11.dtd">
<svg version="1.1" xmlns="http://www.w3.org/2000/svg" xmlns:xlink="http://www.w3.org/1999/xlink" viewBox="0 0 651.25 651.75">
 <g>
  <rect height="651.75" opacity="0" width="651.25" x="0" y="0"/>
  <path d="M651.25 325.75C651.25 505 505 651.25 325.5 651.25C146.25 651.25 0 505 0 325.75C0 146.25 146.25 0 325.5 0C505 0 651.25 146.25 651.25 325.75ZM111.75 435C111.75 440.75 116.25 445.25 121.75 445.25C127.25 445.25 131.5 440.75 131.5 435C131.5 429.75 127.25 425.25 121.75 425.25C116.25 425.25 111.75 429.75 111.75 435ZM519.5 435C519.5 440.75 523.75 445.25 529.5 445.25C534.75 445.25 539.25 440.75 539.25 435C539.25 429.75 534.75 425.25 529.5 425.25C523.75 425.25 519.5 429.75 519.5 435ZM315.5 435C315.5 440.75 320 445.25 325.5 445.25C331.25 445.25 335.5 440.75 335.5 435C335.5 429.75 331.25 425.25 325.5 425.25C320 425.25 315.5 429.75 315.5 435ZM146.25 429C146.25 434.25 150.75 438.75 156.25 438.75C161.75 438.75 166.25 434.25 166.25 429C166.25 423.25 161.75 419 156.25 419C150.75 419 146.25 423.25 146.25 429ZM281 429C281 434.25 285.25 438.75 291 438.75C296.5 438.75 300.75 434.25 300.75 429C300.75 423.25 296.5 419 291 419C285.25 419 281 423.25 281 429ZM485 429C485 434.25 489.25 438.75 495 438.75C500.25 438.75 504.75 434.25 504.75 429C504.75 423.25 500.25 419 495 419C489.25 419 485 423.25 485 429ZM350.25 429C350.25 434.25 354.75 438.75 360.25 438.75C365.75 438.75 370 434.25 370 429C370 423.25 365.75 419 360.25 419C354.75 419 350.25 423.25 350.25 429ZM179 413.5C179 419.25 183.5 423.75 189 423.75C194.5 423.75 199 419.25 199 413.5C199 408.25 194.5 403.75 189 403.75C183.5 403.75 179 408.25 179 413.5ZM248.5 413.5C248.5 419.25 252.75 423.75 258.25 423.75C264 423.75 268.25 419.25 268.25 413.5C268.25 408.25 264 403.75 258.25 403.75C252.75 403.75 248.5 408.25 248.5 413.5ZM452.25 413.5C452.25 419.25 456.5 423.75 462.25 423.75C467.5 423.75 472.25 419.25 472.25 413.5C472.25 408.25 467.5 403.75 462.25 403.75C456.5 403.75 452.25 408.25 452.25 413.5ZM382.75 413.5C382.75 419.25 387.5 423.75 392.75 423.75C398.5 423.75 402.75 419.25 402.75 413.5C402.75 408.25 398.5 403.75 392.75 403.75C387.5 403.75 382.75 408.25 382.75 413.5ZM213.75 405.75C213.75 411.25 218 415.75 223.75 415.75C229.25 415.75 233.75 411.25 233.75 405.75C233.75 400.25 229.25 395.75 223.75 395.75C218 395.75 213.75 400.25 213.75 405.75ZM417.5 405.75C417.5 411.25 422 415.75 427.25 415.75C433 415.75 437.25 411.25 437.25 405.75C437.25 400.25 433 395.75 427.25 395.75C422 395.75 417.5 400.25 417.5 405.75ZM325.25 374.75C289.75 374.75 277.25 344.25 229.75 344.25C182.5 344.25 170.25 374.75 134.75 374.75L116.5 374.75C111 374.75 106.25 379.25 106.25 385C106.25 390.5 111 395.25 116.5 395.25L134.75 395.25C184.25 395.25 195.75 364.5 229.75 364.5C264.25 364.5 275.75 395.25 325.25 395.25C375 395.25 386.5 364.5 420.75 364.5C455 364.5 466.5 395.25 515.75 395.25L534 395.25C539.5 395.25 544.25 390.5 544.25 385C544.25 379.25 539.5 374.75 534 374.75L515.75 374.75C480.5 374.75 468.25 344.25 420.75 344.25C373.25 344.25 360.75 374.75 325.25 374.75ZM261.5 213L190 263.75C177.75 272.25 179 285.5 186.25 293.25C192 299.5 202.5 302.25 212.75 295.25L271 254.25L303.75 287.75C307.5 291.5 308.5 297.5 303 301.25L267 325C287.25 333.75 299 347.75 325.25 347.75C355.5 347.75 365.5 328.75 393.25 321L291.75 215.25C283.5 207 271.5 206 261.5 213ZM381.5 259.75C381.5 282.25 399.25 299.75 421.5 299.75C443.25 299.75 461 282.25 461 259.75C461 237.75 443.25 220.25 421.5 220.25C399.25 220.25 381.5 237.75 381.5 259.75Z" fill="black" fill-opacity="0.85"/>
 </g>
</svg>
