<?xml version="1.0" encoding="UTF-8"?>
<!--Generator: Apple Native CoreSVG 326-->
<!DOCTYPE svg
PUBLIC "-//W3C//DTD SVG 1.1//EN"
       "http://www.w3.org/Graphics/SVG/1.1/DTD/svg11.dtd">
<svg version="1.1" xmlns="http://www.w3.org/2000/svg" xmlns:xlink="http://www.w3.org/1999/xlink" viewBox="0 0 593.75 679.25">
 <g>
  <rect height="679.25" opacity="0" width="593.75" x="0" y="0"/>
  <path d="M110 138.5C148.25 138.5 179.25 107.5 179.25 69.25C179.25 31 148.25 0 110 0C71.75 0 40.75 31 40.75 69.25C40.75 107.5 71.75 138.5 110 138.5ZM219.25 674.25C234.5 678.75 253.25 670.75 258.25 651.75L306.25 478C312.25 455.75 303.25 440 281 433.75L141.25 394L152.25 271.75C152.75 267.75 157 265.75 160.25 268L224.75 314.5C236.25 322.75 250.75 322.75 262.25 314.5L375 234C389.75 223.75 393 203.75 382.75 189C372.25 174.25 352.25 171.25 337.5 181.5L243.75 248.75L166.5 193.25C150.25 181.5 130.5 173 106.25 173C65.25 173 34.5 199 32 235.25L21.25 386.25C18 431.25 39.75 464.5 90 471.75L235 492.75L196.25 634.75C191 653.75 201.75 669.5 219.25 674.25ZM509.5 280C555.5 280 593.75 242 593.75 195.75C593.75 149.25 555.5 111.75 509.5 111.75C462.75 111.75 425.25 149.25 425.25 195.75C425.25 242 462.75 280 509.5 280ZM509.5 248.25C479.25 248.25 456.75 225.75 456.75 195.75C456.75 166 479.25 143.5 509.5 143.5C539.5 143.5 562 166 562 195.75C562 225.75 539.5 248.25 509.5 248.25ZM299.75 675.5L478.5 675.5C494.75 675.5 499 654.75 486 646.25L421.75 603.5C428.5 593 432.5 582 435.75 569.25L509.75 273.75L478.25 266.25L404.5 562C392.5 610.25 350 643 299.75 643C290.5 643 283.75 650.5 283.75 659.25C283.75 668 290.5 675.5 299.75 675.5ZM64 555.5L127.25 542.25C134.75 540.75 139 534.25 139 526.75C139 518.75 133.75 513 126.5 512L19.75 493.75C3 491-2 505 3.25 516.25L9.25 528.25C20 550.5 37.5 561.25 64 555.5ZM17.75 675.5L155 675.5C164.5 675.5 171.25 668.25 171.25 659.25C171.25 650.5 164.5 643 155 643C133.5 643 117.5 634.5 112 608.75L93.75 526.25L62.5 533L77.25 601L8.75 646.25C-4.25 654.75-0.25 675.5 17.75 675.5Z" fill="black" fill-opacity="0.85"/>
 </g>
</svg>
