<?xml version="1.0" encoding="UTF-8"?>
<!--Generator: Apple Native CoreSVG 326-->
<!DOCTYPE svg
PUBLIC "-//W3C//DTD SVG 1.1//EN"
       "http://www.w3.org/Graphics/SVG/1.1/DTD/svg11.dtd">
<svg version="1.1" xmlns="http://www.w3.org/2000/svg" xmlns:xlink="http://www.w3.org/1999/xlink" viewBox="0 0 651.25 651.75">
 <g>
  <rect height="651.75" opacity="0" width="651.25" x="0" y="0"/>
  <path d="M651.25 325.75C651.25 505 505 651.25 325.5 651.25C146.25 651.25 0 505 0 325.75C0 146.25 146.25 0 325.5 0C505 0 651.25 146.25 651.25 325.75ZM263.25 189.25L189.25 231C180.75 236 178.75 248.25 184.5 256.5C190.5 264.5 200.75 266.5 210.25 261.25L278 225.5L318 236C326 238 328.75 243.75 326 251L305.25 309.5C295.5 336.5 311.75 359.75 338 359.75L408 359.75C422.5 359.75 432.5 368.5 432.5 382.75C432.5 447.5 389.5 490.5 325.25 490.5C260.25 490.5 217 447.5 217 382.5C217 362 223 343.25 232.75 328C243.75 310.75 221.25 298 210 314.75C198.5 334.25 191 357.25 191 382.5C191 463 244.75 516.75 325 516.75C405 516.75 458.5 463 458.5 382.75C458.5 340.25 438.5 316.25 401.25 316.25L376.25 316.25C372 316.25 369.5 313.25 371 308L387.75 256.5C395.5 233 384.25 211.5 358.75 205.5L282.5 186C275.25 184.5 269.75 185.25 263.25 189.25ZM439.75 496.5C439.75 507.5 448.75 516.75 460 516.75C471 516.75 480 507.5 480 496.5C480 485.5 471 476.5 460 476.5C448.75 476.5 439.75 485.5 439.75 496.5ZM353 153.25C353 175 371 192.75 393 192.75C414.75 192.75 432.5 175 432.5 153.25C432.5 131.25 414.75 113.25 393 113.25C371 113.25 353 131.25 353 153.25Z" fill="black" fill-opacity="0.85"/>
 </g>
</svg>
