<?xml version="1.0" encoding="UTF-8"?>
<!--Generator: Apple Native CoreSVG 326-->
<!DOCTYPE svg
PUBLIC "-//W3C//DTD SVG 1.1//EN"
       "http://www.w3.org/Graphics/SVG/1.1/DTD/svg11.dtd">
<svg version="1.1" xmlns="http://www.w3.org/2000/svg" xmlns:xlink="http://www.w3.org/1999/xlink" viewBox="0 0 651.25 651.75">
 <g>
  <rect height="651.75" opacity="0" width="651.25" x="0" y="0"/>
  <path d="M651.25 325.75C651.25 505 505 651.25 325.5 651.25C146.25 651.25 0 505 0 325.75C0 146.25 146.25 0 325.5 0C505 0 651.25 146.25 651.25 325.75ZM249 453C240.75 453 235.5 458.25 235.5 466.25L235.5 523C235.5 530.75 240.75 535.75 249 535.75L387.5 535.75C395.25 535.75 401 530.75 401 523L401 466.25C401 458.25 395.25 453 387.5 453ZM293.5 206.25C280.75 206.25 268 213 260.25 224L219.25 280.75C197.75 310.75 216.75 351.25 259.5 344.75L326.25 334.75L300.25 412.75C291.5 438.25 327.25 449 335.25 424.75L370 319.5C374.5 306.75 366.5 294.25 351.5 294.25L285.5 294.25L320.25 248C323.75 243.5 326 242.75 330.5 242.75L467 242.75C476.75 242.75 485.25 235 485.25 224.75C485.25 214.75 477 206.25 467 206.25ZM285.25 147C285.25 169 302.75 186.25 324.75 186.25C346.5 186.25 364.5 169 364.5 147C364.5 125 346.5 107.25 324.75 107.25C302.75 107.25 285.25 125 285.25 147Z" fill="black" fill-opacity="0.85"/>
 </g>
</svg>
