<?xml version="1.0" encoding="UTF-8"?>
<!--Generator: Apple Native CoreSVG 326-->
<!DOCTYPE svg
PUBLIC "-//W3C//DTD SVG 1.1//EN"
       "http://www.w3.org/Graphics/SVG/1.1/DTD/svg11.dtd">
<svg version="1.1" xmlns="http://www.w3.org/2000/svg" xmlns:xlink="http://www.w3.org/1999/xlink" viewBox="0 0 651.25 651.75">
 <g>
  <rect height="651.75" opacity="0" width="651.25" x="0" y="0"/>
  <path d="M325.5 651.25C505.25 651.25 651.25 505.5 651.25 325.75C651.25 146 505.25 0 325.5 0C145.75 0 0 146 0 325.75C0 505.5 145.75 651.25 325.5 651.25ZM325.5 604.75C171.25 604.75 46.5 480 46.5 325.75C46.5 171.5 171.25 46.75 325.5 46.75C479.75 46.75 604.5 171.5 604.5 325.75C604.5 480 479.75 604.75 325.5 604.75Z" fill="black" fill-opacity="0.85"/>
  <path d="M400.5 220.25C421.75 220.25 439.25 203 439.25 181.5C439.25 160 421.75 142.5 400.5 142.5C379 142.5 361.25 160 361.25 181.5C361.25 203 379 220.25 400.5 220.25ZM253 245.25L348 334C355 340.75 366 340.25 372.75 333.5C379.25 326.5 379 315.75 371.75 309L337.75 277.5L352 270C355.25 268.25 359 268.75 361.5 271.25L392.5 300.25L392.5 369.75C392.5 379.5 400.5 387.25 409.75 387.25C419.5 387.25 427.25 379.5 427.25 369.75L427.25 292.25C427.25 287.25 425 283 420.5 278.75L347 210.5C333.25 197.75 312.5 196 295 202.75L257.75 216.75C247 220.5 242 234.5 253 245.25ZM239 252.25L235.25 254.25C205 270 197.75 306.75 226.75 329.5L290.5 380L251.25 450.5C246.5 458.75 250.25 469 258.5 473.75C265.25 477.75 276.5 476 281.75 466.25L327.5 382.75C331.25 376 329.75 368.5 324.75 362.75L274.75 308.75L290 300.25L243.5 257C242.25 255.5 240.25 253.5 239 252.25ZM120.25 408L203.5 408C210.5 408 216.25 404 219 398.75L239 358.25L217.25 341.25C212.25 337 208 333 205.75 329.5L191.25 373.5L120.25 373.5C110.5 373.5 103 381.25 103 391C103 400.25 110.5 408 120.25 408ZM512.75 459.75C529.75 459.25 541.75 447.5 541.25 431.25C541.25 423.5 535.5 416.25 528 416.5C522.25 416.5 518.25 420.25 518.25 426.25L518.25 430.75C518.25 437.75 510.75 441.5 503.25 434.5L315 267.75L302 276.75L487 449.25C494.5 456 503.25 459.75 512.75 459.75ZM428.75 489.75C441.5 489.75 452.25 479.25 452.25 466.25C452.25 453 441.5 442.25 428.75 442.25C415.5 442.25 405 453 405 466.25C405 479.25 415.5 489.75 428.75 489.75Z" fill="black" fill-opacity="0.85"/>
 </g>
</svg>
