<?xml version="1.0" encoding="UTF-8"?>
<!--Generator: Apple Native CoreSVG 326-->
<!DOCTYPE svg
PUBLIC "-//W3C//DTD SVG 1.1//EN"
       "http://www.w3.org/Graphics/SVG/1.1/DTD/svg11.dtd">
<svg version="1.1" xmlns="http://www.w3.org/2000/svg" xmlns:xlink="http://www.w3.org/1999/xlink" viewBox="0 0 651.25 651.75">
 <g>
  <rect height="651.75" opacity="0" width="651.25" x="0" y="0"/>
  <path d="M325.5 651.25C505.25 651.25 651.25 505.5 651.25 325.75C651.25 146 505.25 0 325.5 0C145.75 0 0 146 0 325.75C0 505.5 145.75 651.25 325.5 651.25ZM325.5 604.75C171.25 604.75 46.5 480 46.5 325.75C46.5 171.5 171.25 46.75 325.5 46.75C479.75 46.75 604.5 171.5 604.5 325.75C604.5 480 479.75 604.75 325.5 604.75Z" fill="black" fill-opacity="0.85"/>
  <path d="M360 233C381.25 233 398.75 215.75 398.75 194C398.75 172.75 381.25 155.25 360 155.25C338.5 155.25 321 172.75 321 194C321 215.75 338.5 233 360 233ZM387 356C397.5 356 405.75 347.75 405.75 337.5C405.75 327.25 397.5 318.75 387 318.75L321.75 318.75L321.75 251.75C321.75 229.5 303 215.25 282.5 219.75L172.25 242.25C132.75 250.5 121.75 297.75 150.5 323L219 383.5L219 477.75C219 487.75 227.5 496.25 237.75 496.25C247.75 496.25 256.5 487.75 256.5 477.75L256.5 376.5C256.5 369.5 255 366 250.75 361.5L198.25 308.5C195.25 305.5 196.75 301.25 200.25 300.75L274.25 287C281.5 285.75 284.5 288 284.5 294.5L284.5 337.5C284.5 347.75 292.75 356 303 356ZM487.75 426.75L513.5 426.75C522.75 426.75 528.75 420.75 528.75 412L528.75 251.75C528.75 243.5 522.75 237.5 514.5 237.5L487 237.5C422.25 237.5 383.5 254.75 341.75 303.75L368.25 303.75C369.25 303.75 370.25 303.75 370.75 303.75C403.25 270.5 436 258.5 487 258.5L507.75 258.5L507.75 405.75L487.75 405.75C480.75 405.75 476.25 402.5 473.75 397L457.25 364.75C454.5 359.25 448.75 358 444.5 359.25C439.25 361.25 435 367 438.25 374.25L454.75 406.75C461 419 473.5 426.75 487.75 426.75ZM271.25 419C290.75 405.5 305.25 388.5 318.75 370.75L303.25 370.75C300 370.75 296.25 370 293 369C286.25 377.5 279.25 384.5 271.25 391.5ZM144.25 445.5L175 445.5C185.25 445.5 195 445 204.25 443.5L204.25 422.25C195 423.75 185.5 424.5 175 424.5L144.25 424.5C138.5 424.5 133.75 429.5 133.75 435.25C133.75 440.75 138.75 445.5 144.25 445.5Z" fill="black" fill-opacity="0.85"/>
 </g>
</svg>
