<?xml version="1.0" encoding="UTF-8"?>
<!--Generator: Apple Native CoreSVG 326-->
<!DOCTYPE svg
PUBLIC "-//W3C//DTD SVG 1.1//EN"
       "http://www.w3.org/Graphics/SVG/1.1/DTD/svg11.dtd">
<svg version="1.1" xmlns="http://www.w3.org/2000/svg" xmlns:xlink="http://www.w3.org/1999/xlink" viewBox="0 0 651.25 651.75">
 <g>
  <rect height="651.75" opacity="0" width="651.25" x="0" y="0"/>
  <path d="M325.5 651.25C505.25 651.25 651.25 505.5 651.25 325.75C651.25 146 505.25 0 325.5 0C145.75 0 0 146 0 325.75C0 505.5 145.75 651.25 325.5 651.25ZM325.5 604.75C171.25 604.75 46.5 480 46.5 325.75C46.5 171.5 171.25 46.75 325.5 46.75C479.75 46.75 604.5 171.5 604.5 325.75C604.5 480 479.75 604.75 325.5 604.75Z" fill="black" fill-opacity="0.85"/>
  <path d="M202.5 216.25C223.75 216.25 241.25 199 241.25 177.5C241.25 156 223.75 138.75 202.5 138.75C181 138.75 163.5 156 163.5 177.5C163.5 199 181 216.25 202.5 216.25ZM163.25 448C172 442 182.75 435.5 200.5 431.75L203.25 405.25C203.5 403.25 206.25 403 206.75 404.25L219 429C223.75 428.5 228.5 428.25 233.5 428.25C243.75 428.25 252.25 429.25 260.25 430.25L240.75 379.25L240.75 272C240.75 252.25 227.25 235.75 202.5 235.75L194.25 235.75C179.5 235.75 163.25 237.75 148.5 252.25L108 292.5C101.25 299 101.5 310.5 108 317.25L163.25 371.5ZM163.25 323.5L144.75 304.75L157.75 291.75C160 289.75 163.25 290.75 163.25 293.75ZM129.75 398.5L474.75 187C479.5 184.25 480.5 178 477.75 173.5C474.75 169 469.25 167.75 464.75 170.5L119.75 382.25C115.25 385 114.25 390.75 116.75 395.25C119.75 399.75 125 401.25 129.75 398.5ZM326.75 503C375.25 503 386.5 473 420 473C453.25 473 464.75 503 513.25 503L514 503C519.25 503 524 498.25 524 493C524 487.75 519.5 483 514 483L513.25 483C478.25 483 466.25 453 420 453C373.5 453 361.5 483 326.75 483C292 483 280 453 233.5 453C187.25 453 175 483 140.5 483L139.5 483C133.5 483 129.5 487.75 129.5 493C129.5 498.25 133.75 503 139.5 503L140.5 503C188.75 503 200.5 473 233.5 473C267 473 278.25 503 326.75 503Z" fill="black" fill-opacity="0.85"/>
 </g>
</svg>
