<?xml version="1.0" encoding="UTF-8"?>
<!--Generator: Apple Native CoreSVG 326-->
<!DOCTYPE svg
PUBLIC "-//W3C//DTD SVG 1.1//EN"
       "http://www.w3.org/Graphics/SVG/1.1/DTD/svg11.dtd">
<svg version="1.1" xmlns="http://www.w3.org/2000/svg" xmlns:xlink="http://www.w3.org/1999/xlink" viewBox="0 0 448.75 738.75">
 <g>
  <rect height="738.75" opacity="0" width="448.75" x="0" y="0"/>
  <path d="M55.5 714L155.5 594.75C165.5 583.25 166.75 580.5 170.5 568.25L179.25 542L126 475.5L109 554L10 671.25C-21.5 708.25 29.5 744.75 55.5 714ZM300 704.25C320.25 745.5 381.25 720.25 359 675.5L291 537.5C286 527.25 278.75 516.25 272.25 507.25L229 445.75L232 436.5C243.75 402.25 248 381.25 250.25 347.25L257.25 251C260.5 204.75 233.25 170.5 186.75 170.5C152 170.5 128.25 188.5 95.75 220L45 270.25C28.5 286.5 22.75 299.75 21.25 321.25L15.25 400.25C13.75 419.75 24.5 433.75 42.75 434.25C61.25 435.5 72.25 424.75 74 403.75L81.5 317.25L106 295.25C115 287 127.5 292.25 126.5 301.75L121 375C118 411.75 126.75 429.25 152.25 461L219.75 545.5C226.5 554.25 227.25 557.5 230 563ZM415.5 301L338.5 301L287 244L282 324L304 346C315 357 324 360.25 343.75 360.25L415.5 360.25C435.5 360.25 448.75 348.75 448.75 330.5C448.75 312.5 435.25 301 415.5 301ZM223.75 140.25C262.75 140.25 294 109 294 70C294 31.25 262.75 0 223.75 0C185 0 153.5 31.25 153.5 70C153.5 109 185 140.25 223.75 140.25Z" fill="black" fill-opacity="0.85"/>
 </g>
</svg>
