<?xml version="1.0" encoding="UTF-8"?>
<!--Generator: Apple Native CoreSVG 326-->
<!DOCTYPE svg
PUBLIC "-//W3C//DTD SVG 1.1//EN"
       "http://www.w3.org/Graphics/SVG/1.1/DTD/svg11.dtd">
<svg version="1.1" xmlns="http://www.w3.org/2000/svg" xmlns:xlink="http://www.w3.org/1999/xlink" viewBox="0 0 651.25 651.75">
 <g>
  <rect height="651.75" opacity="0" width="651.25" x="0" y="0"/>
  <path d="M651.25 325.75C651.25 505 505 651.25 325.5 651.25C146.25 651.25 0 505 0 325.75C0 146.25 146.25 0 325.5 0C505 0 651.25 146.25 651.25 325.75ZM281.25 217.25L168.5 240.25C128 248.75 116.75 297 145.75 323L216.25 385L216.25 481.5C216.25 491.75 225 500.5 235.5 500.5C245.75 500.5 254.75 491.75 254.75 481.5L254.75 377.75C254.75 370.5 253.25 367 248.75 362.25L195 308C192 305 193.5 300.75 197 300.25L272.75 286C280.25 284.75 283.25 287 283.25 293.75L283.25 337.75C283.25 348.25 291.75 356.75 302.25 356.75L388.25 356.75C399 356.75 407.5 348.25 407.5 337.75C407.5 327.25 399 318.5 388.25 318.5L321.5 318.5L321.5 250C321.5 227.25 302.25 212.5 281.25 217.25ZM171.25 427L139.75 427C133.75 427 129 432 129 438C129 443.5 133.75 448.5 139.75 448.5L171.25 448.5C181.75 448.5 191.75 448 201 446.5L201 424.5C191.75 426 182 427 171.25 427ZM490.75 235.25C424.5 235.25 384.75 253 342 303.25L369.25 303.25C370.25 303.25 371.25 303.25 371.75 303.25C405 269.25 438.75 257 490.75 257L512 257L512 407.5L491.5 407.5C484.75 407.5 479.75 404.25 477.25 398.75L460.75 365.75C457.5 360 451.75 358.75 447.25 360C441.75 362 437.5 368 440.75 375.5L457.75 408.75C464 421.25 477 429.25 491.5 429.25L518 429.25C527.5 429.25 533.5 423 533.5 414L533.5 250C533.5 241.5 527.5 235.25 519 235.25ZM269.75 393L269.75 421.25C289.75 407.5 304.75 390 318.5 371.75L302.5 371.75C299.25 371.75 295.25 371 292 370C285 378.75 278 385.75 269.75 393ZM320.75 190.75C320.75 213 338.75 230.75 360.75 230.75C382.5 230.75 400.25 213 400.25 190.75C400.25 169 382.5 151 360.75 151C338.75 151 320.75 169 320.75 190.75Z" fill="black" fill-opacity="0.85"/>
 </g>
</svg>
