<?xml version="1.0" encoding="UTF-8"?>
<!--Generator: Apple Native CoreSVG 326-->
<!DOCTYPE svg
PUBLIC "-//W3C//DTD SVG 1.1//EN"
       "http://www.w3.org/Graphics/SVG/1.1/DTD/svg11.dtd">
<svg version="1.1" xmlns="http://www.w3.org/2000/svg" xmlns:xlink="http://www.w3.org/1999/xlink" viewBox="0 0 566.53 761.25">
 <g>
  <rect height="761.25" opacity="0" width="566.53" x="0" y="0"/>
  <path d="M227.015 138.5C265.015 138.5 296.015 107.5 296.015 69C296.015 31 265.015 0 227.015 0C188.265 0 157.265 31 157.265 69C157.265 107.5 188.265 138.5 227.015 138.5ZM372.265 756.25C390.515 756.25 404.765 741.5 404.765 723.75L404.765 544C404.765 536 400.765 525.25 390.515 518.75L274.765 441.75L274.765 246C274.765 241.5 278.515 238 282.765 238L534.265 238C552.515 238 566.515 223.25 566.515 205.5C566.515 187.75 552.515 173 534.265 173L176.765 173C146.265 173 129.765 184 114.265 203.25L29.7648 306.75C9.76484 331.75 26.0148 367.5 52.2648 367.5L145.515 367.5L145.515 412.25C145.515 441.75 162.015 469.25 188.515 483.5L339.765 565L339.765 723.75C339.765 741.5 354.515 756.25 372.265 756.25ZM112.515 305L147.265 261.5L147.265 305ZM7.76484 745.25C20.0148 759 40.0148 760 54.0148 748L181.015 636.75C187.265 631 189.765 628.25 192.265 622.5L226.265 537.25L174.515 509.5C169.265 506.75 164.265 503.25 159.515 499.75L133.515 592.25L10.7648 699.5C-2.23516 711-3.73516 732 7.76484 745.25Z" fill="black" fill-opacity="0.85"/>
 </g>
</svg>
