<?xml version="1.0" encoding="UTF-8"?>
<!--Generator: Apple Native CoreSVG 326-->
<!DOCTYPE svg
PUBLIC "-//W3C//DTD SVG 1.1//EN"
       "http://www.w3.org/Graphics/SVG/1.1/DTD/svg11.dtd">
<svg version="1.1" xmlns="http://www.w3.org/2000/svg" xmlns:xlink="http://www.w3.org/1999/xlink" viewBox="0 0 651.25 651.75">
 <g>
  <rect height="651.75" opacity="0" width="651.25" x="0" y="0"/>
  <path d="M325.5 651.25C505.25 651.25 651.25 505.5 651.25 325.75C651.25 146 505.25 0 325.5 0C145.75 0 0 146 0 325.75C0 505.5 145.75 651.25 325.5 651.25ZM325.5 604.75C171.25 604.75 46.5 480 46.5 325.75C46.5 171.5 171.25 46.75 325.5 46.75C479.75 46.75 604.5 171.5 604.5 325.75C604.5 480 479.75 604.75 325.5 604.75Z" fill="black" fill-opacity="0.85"/>
  <path d="M279.75 194.75C301 194.75 318.5 177.5 318.5 155.75C318.5 134.5 301 117.25 279.75 117.25C258.25 117.25 241 134.5 241 155.75C241 177.5 258.25 194.75 279.75 194.75ZM293 362L391 392.25L484.75 434.5C508.5 445.25 522.75 411.5 500 401L339 328.25L339 241.75C339 234.75 340.5 233.75 345.75 231.75L394.5 212C400.5 209.5 400.75 208.25 404 204.5L455 145.25C461.75 137.5 460.75 126 453 119.5C445.25 113 433.75 114.25 427.25 121.5L378.5 178.25L154 270C146 273.25 142.25 276.25 139.5 280L226.75 280L259.75 266.75C265.5 264.5 267.5 266.75 267.5 270L267.5 326.75C267.5 345.25 275.75 356.75 293 362ZM276.5 517.25C272.75 531.25 284 539.75 294.75 539.75C302 539.75 309.75 535.75 312.25 526.75L338.25 432C338.75 430 339 428.5 339 427L339 391.75L296 378.25L301.75 426ZM112.25 314.75L252.5 314.75L252.5 294.75L112.25 294.75C106.75 294.75 102.25 299.5 102.25 304.75C102.25 310.25 106.75 314.75 112.25 314.75ZM353.75 314.75L518 314.75C523.5 314.75 528 310.25 528 304.75C528 299.5 523.5 294.75 518 294.75L353.75 294.75L353.75 306Z" fill="black" fill-opacity="0.85"/>
 </g>
</svg>
