<?xml version="1.0" encoding="UTF-8"?>
<!--Generator: Apple Native CoreSVG 326-->
<!DOCTYPE svg
PUBLIC "-//W3C//DTD SVG 1.1//EN"
       "http://www.w3.org/Graphics/SVG/1.1/DTD/svg11.dtd">
<svg version="1.1" xmlns="http://www.w3.org/2000/svg" xmlns:xlink="http://www.w3.org/1999/xlink" viewBox="0 0 651.25 651.75">
 <g>
  <rect height="651.75" opacity="0" width="651.25" x="0" y="0"/>
  <path d="M325.5 651.25C505.25 651.25 651.25 505.5 651.25 325.75C651.25 146 505.25 0 325.5 0C145.75 0 0 146 0 325.75C0 505.5 145.75 651.25 325.5 651.25ZM325.5 604.75C171.25 604.75 46.5 480 46.5 325.75C46.5 171.5 171.25 46.75 325.5 46.75C479.75 46.75 604.5 171.5 604.5 325.75C604.5 480 479.75 604.75 325.5 604.75Z" fill="black" fill-opacity="0.85"/>
  <path d="M325.25 256C346.5 256 363.75 238.75 363.75 217.25C363.75 195.5 346.5 178.25 325.25 178.25C303.25 178.25 286 195.5 286 217.25C286 238.75 303.25 256 325.25 256ZM138.5 232.5L264.5 300.5C269 302.75 271.25 307 270.25 312L257 359.75C292 366 301 386.75 325.25 386.75C332.5 386.75 338.25 384.5 343.75 381.75L361.5 316.75C363 310.5 365 306.75 371.75 303.5L503.75 232.5C513.75 227.25 517.5 215 512.5 205.5C506.75 195.5 494.75 191.5 485 197L353.5 266.75C332.25 278 312.25 279.5 286.5 265.75L157.25 197C147.5 191.5 135 195.5 130.25 205.5C124.75 215 128.5 227.25 138.5 232.5ZM325.25 431.75C373.75 431.75 384.75 401.75 418.5 401.75C452 401.75 463 431.75 511.5 431.75L523.5 431.75C529 431.75 533.5 427.25 533.5 421.75C533.5 416.5 529 411.75 523.5 411.75L511.5 411.75C477 411.75 465 381.75 418.5 381.75C372.25 381.75 360 411.75 325.25 411.75C290.5 411.75 278.25 381.75 232.25 381.75C185.75 381.75 173.75 411.75 139.25 411.75L127.75 411.75C122.5 411.75 118 416.5 118 421.75C118 427.25 122.5 431.75 127.75 431.75L139.25 431.75C187.5 431.75 198.75 401.75 232.25 401.75C265.75 401.75 277 431.75 325.25 431.75ZM128.75 471.5C135 471.5 139.75 466.75 139.75 460.5C139.75 454.25 135 449.5 128.75 449.5C122.5 449.5 118 454.25 118 460.5C118 466.75 122.5 471.5 128.75 471.5ZM160.25 471.5C166.5 471.5 171.25 466.75 171.25 460.5C171.25 454.25 166.5 449.5 160.25 449.5C154 449.5 149.25 454.25 149.25 460.5C149.25 466.75 154 471.5 160.25 471.5ZM192.25 461C198.5 461 203 456.25 203 450C203 444 198.5 439.25 192.25 439.25C186 439.25 181.25 444 181.25 450C181.25 456.25 186 461 192.25 461ZM226 453C232.25 453 237 448.25 237 442C237 435.75 232.25 431 226 431C219.75 431 215 435.75 215 442C215 448.25 219.75 453 226 453ZM259.75 461C266 461 270.75 456.25 270.75 450C270.75 444 266 439.25 259.75 439.25C253.75 439.25 249 444 249 450C249 456.25 253.75 461 259.75 461ZM291.75 475.5C298 475.5 302.5 470.75 302.5 464.75C302.5 458.5 298 453.75 291.75 453.75C285.5 453.75 280.75 458.5 280.75 464.75C280.75 470.75 285.5 475.5 291.75 475.5ZM325.25 481.5C331.5 481.5 336.25 477 336.25 470.75C336.25 464.5 331.5 459.75 325.25 459.75C319 459.75 314.25 464.5 314.25 470.75C314.25 477 319 481.5 325.25 481.5ZM359.25 475.5C365.5 475.5 370.25 470.75 370.25 464.75C370.25 458.5 365.5 453.75 359.25 453.75C353 453.75 348.5 458.5 348.5 464.75C348.5 470.75 353 475.5 359.25 475.5ZM391.25 461C397.25 461 402 456.25 402 450C402 444 397.25 439.25 391.25 439.25C385 439.25 380.25 444 380.25 450C380.25 456.25 385 461 391.25 461ZM425.25 453C431.5 453 436.25 448.25 436.25 442C436.25 435.75 431.5 431 425.25 431C419 431 414.25 435.75 414.25 442C414.25 448.25 419 453 425.25 453ZM459 461C465.25 461 470 456.25 470 450C470 444 465.25 439.25 459 439.25C452.75 439.25 448.25 444 448.25 450C448.25 456.25 452.75 461 459 461ZM490.75 471.5C497 471.5 501.75 466.75 501.75 460.5C501.75 454.25 497 449.5 490.75 449.5C484.5 449.5 479.75 454.25 479.75 460.5C479.75 466.75 484.5 471.5 490.75 471.5ZM522.75 471.5C528.75 471.5 533.5 466.75 533.5 460.5C533.5 454.25 528.75 449.5 522.75 449.5C516.5 449.5 511.75 454.25 511.75 460.5C511.75 466.75 516.5 471.5 522.75 471.5Z" fill="black" fill-opacity="0.85"/>
 </g>
</svg>
