<?xml version="1.0" encoding="UTF-8"?>
<!--Generator: Apple Native CoreSVG 326-->
<!DOCTYPE svg
PUBLIC "-//W3C//DTD SVG 1.1//EN"
       "http://www.w3.org/Graphics/SVG/1.1/DTD/svg11.dtd">
<svg version="1.1" xmlns="http://www.w3.org/2000/svg" xmlns:xlink="http://www.w3.org/1999/xlink" viewBox="0 0 651.25 651.75">
 <g>
  <rect height="651.75" opacity="0" width="651.25" x="0" y="0"/>
  <path d="M651.25 325.75C651.25 505 505 651.25 325.5 651.25C146.25 651.25 0 505 0 325.75C0 146.25 146.25 0 325.5 0C505 0 651.25 146.25 651.25 325.75ZM349.25 355.25L349.25 545.25C349.25 550.75 353.75 555.5 359.5 555.5C365.25 555.5 369.75 550.75 369.75 545.25L369.75 355.25C369.75 349.5 365.25 344.75 359.5 344.75C353.75 344.75 349.25 349.5 349.25 355.25ZM194 180.25L147.5 226.5C140 234 140.5 245 147.5 252.75C154 259.5 166.5 260.25 173.75 252.75L213.5 212.75L256.75 218.25C261 218.75 262.25 222.75 259.5 225.75L218.75 266.25C202.75 282 202.25 307 218.75 324L254.75 360.25L179 360.25C168.5 360.25 160.75 368.25 160.75 378.5C160.75 388.5 168.5 397 179 397L299.5 397C315.75 397 323.25 378.5 314 367L276.25 320.5L384 313.5L484.75 313.5C495 313.5 503.75 305.5 503.75 295.25C503.75 285.25 495 276.75 484.75 276.75L298.25 276.75L342.5 232.25C344 230.25 346.5 229.25 349.5 229.75L481.75 246.5C492.5 247.75 502.5 239.75 502.5 228.5C502.5 219.5 495.5 211.5 486.5 210.25L209.25 175.25C203.5 174.25 198 176.25 194 180.25ZM316.5 137.25C316.5 159.5 334.25 177.5 356.5 177.5C378.5 177.5 396.25 159.5 396.25 137.25C396.25 115.5 378.5 97.75 356.5 97.75C334.25 97.75 316.5 115.5 316.5 137.25Z" fill="black" fill-opacity="0.85"/>
 </g>
</svg>
