<?xml version="1.0" encoding="UTF-8"?>
<!--Generator: Apple Native CoreSVG 326-->
<!DOCTYPE svg
PUBLIC "-//W3C//DTD SVG 1.1//EN"
       "http://www.w3.org/Graphics/SVG/1.1/DTD/svg11.dtd">
<svg version="1.1" xmlns="http://www.w3.org/2000/svg" xmlns:xlink="http://www.w3.org/1999/xlink" viewBox="0 0 651.25 651.75">
 <g>
  <rect height="651.75" opacity="0" width="651.25" x="0" y="0"/>
  <path d="M325.5 651.25C505.25 651.25 651.25 505.5 651.25 325.75C651.25 146 505.25 0 325.5 0C145.75 0 0 146 0 325.75C0 505.5 145.75 651.25 325.5 651.25ZM325.5 604.75C171.25 604.75 46.5 480 46.5 325.75C46.5 171.5 171.25 46.75 325.5 46.75C479.75 46.75 604.5 171.5 604.5 325.75C604.5 480 479.75 604.75 325.5 604.75Z" fill="black" fill-opacity="0.85"/>
  <path d="M391.25 238C413 238 430.25 220.75 430.25 198.75C430.25 177.5 413 160.25 391.25 160.25C369.75 160.25 352.5 177.5 352.5 198.75C352.5 220.75 369.75 238 391.25 238ZM266.5 509C274.25 512 284.25 509.75 289.5 499L335.25 408C338.5 401.25 338 393 331.75 386.75L276.75 331.75L346.25 297.25C349.75 295.5 353.25 296.25 355.75 298.75L397 340C400.25 343.25 405 345.25 409.75 345.25L489.5 345.25C499.25 345.25 507.5 337.25 507.5 327.25C507.5 316.75 499.25 308.75 489.5 308.75L417.5 308.75L340.5 231.75C331.5 222.75 319.25 217.75 306 217.75L154.75 217.75C144.5 217.75 136.5 226 136.5 236C136.5 245.75 144.5 254 154.75 254L269 254C270.75 254 271.5 257.25 269.75 258.25L235.5 275C217.75 284 208.5 300.75 208.5 317.75C208.5 332.5 215.25 347.25 228.75 357L295.25 405.75L256.75 483C250.5 495.5 257.25 505.25 266.5 509ZM115.5 436.25L200.25 436.25C207.25 436.25 213.75 432.5 216.75 426.5L238.25 382.5L219.75 369C210.5 362.25 206 356 203 351L187.25 400L115.5 400C105.75 400 97.75 408 97.75 418.25C97.75 428 105.75 436.25 115.5 436.25ZM497.75 169.25C474.25 169.25 456.25 187 456.25 210.75C456.25 245.25 486.5 284 490.75 288.5L505 288.5C509 284 539.5 245.25 539.5 210.75C539.5 187 521.5 169.25 497.75 169.25ZM497.75 189C511 189 519.5 198.25 519.5 210.75C519.5 228 506.25 251.75 497.75 265.25C489.25 251.75 476 228 476 210.75C476 198.25 485 189 497.75 189ZM487.75 327.25L507.5 327.25L507.5 280.25L487.75 280.25Z" fill="black" fill-opacity="0.85"/>
 </g>
</svg>
