<?xml version="1.0" encoding="UTF-8"?>
<!--Generator: Apple Native CoreSVG 326-->
<!DOCTYPE svg
PUBLIC "-//W3C//DTD SVG 1.1//EN"
       "http://www.w3.org/Graphics/SVG/1.1/DTD/svg11.dtd">
<svg version="1.1" xmlns="http://www.w3.org/2000/svg" xmlns:xlink="http://www.w3.org/1999/xlink" viewBox="0 0 651.25 651.75">
 <g>
  <rect height="651.75" opacity="0" width="651.25" x="0" y="0"/>
  <path d="M325.5 651.25C505.25 651.25 651.25 505.5 651.25 325.75C651.25 146 505.25 0 325.5 0C145.75 0 0 146 0 325.75C0 505.5 145.75 651.25 325.5 651.25ZM325.5 604.75C171.25 604.75 46.5 480 46.5 325.75C46.5 171.5 171.25 46.75 325.5 46.75C479.75 46.75 604.5 171.5 604.5 325.75C604.5 480 479.75 604.75 325.5 604.75Z" fill="black" fill-opacity="0.85"/>
  <path d="M393.25 184.5C415 184.5 432.25 167 432.25 145.5C432.25 124.25 415 106.5 393.25 106.5C372 106.5 354.75 124.25 354.75 145.5C354.75 167 372 184.5 393.25 184.5ZM270 326L336.5 392.5L336.5 493L373 493L373 387C373 382 371.5 377 368 372.25L323.25 315.5L361.5 257.25C364 253.25 369.25 253.25 371.25 257.75L384.25 283C387 289 393.25 293 400.25 293L473.5 293C483.75 293 491.75 285.25 491.75 275C491.75 264.75 483.75 256.5 473.5 256.5L411.75 256.5L392.25 217.75C384.75 202.5 369 192.75 351.5 192.75L254 192.75C248.25 192.75 242 195.5 238.75 201L202.25 255.75C197 264 198.75 275.5 207.5 280.75C215.5 286.5 227.25 284 232.75 275.75L263.75 229L293.75 229C296.25 229 297.5 231.25 296.25 233.5L265.25 280C256 294 257.75 313.5 270 326ZM159.75 352.75L231.5 415.5C242.75 425.5 255.5 420.25 261.25 411.5L289.75 366.75L259.5 336.25C258.75 335.5 258.75 335.5 258.25 335L239 373.75L183.75 325C176 318.75 164.5 319 158 326.75C151.5 334.5 152 346 159.75 352.75ZM250.5 506.5L375.75 506.5C395.75 506.5 412 502.75 425 491.75C430 487 429.75 481.25 426.75 477.25C423.75 473.25 417.5 471.75 412 476C402.25 483.5 392.75 486.75 375.75 486.75L250.5 486.75C233.75 486.75 224.25 483.5 214.5 476C209.25 472.25 203.25 473.25 200 477.25C197 481 196.25 487 201.5 491.75C214.25 502.75 230.5 506.5 250.5 506.5ZM250.5 547.25C258.75 547.25 265.75 540.25 265.75 532C265.75 523.75 258.75 516.75 250.5 516.75C242 516.75 235.25 523.75 235.25 532C235.25 540.25 242 547.25 250.5 547.25ZM375.75 547.25C384.25 547.25 391.25 540.25 391.25 532C391.25 523.75 384.25 516.75 375.75 516.75C367.75 516.75 360.75 523.75 360.75 532C360.75 540.25 367.75 547.25 375.75 547.25Z" fill="black" fill-opacity="0.85"/>
 </g>
</svg>
