<?xml version="1.0" encoding="UTF-8"?>
<!--Generator: Apple Native CoreSVG 326-->
<!DOCTYPE svg
PUBLIC "-//W3C//DTD SVG 1.1//EN"
       "http://www.w3.org/Graphics/SVG/1.1/DTD/svg11.dtd">
<svg version="1.1" xmlns="http://www.w3.org/2000/svg" xmlns:xlink="http://www.w3.org/1999/xlink" viewBox="0 0 782.437 708.75">
 <g>
  <rect height="708.75" opacity="0" width="782.437" x="0" y="0"/>
  <path d="M213.968 144C249.968 144 279.468 114.5 279.468 78.5C279.468 42.25 249.968 13 213.968 13C177.718 13 148.218 42.25 148.218 78.5C148.218 114.5 177.718 144 213.968 144ZM594.968 131C631.218 131 660.718 101.5 660.718 65.5C660.718 29.25 631.218 0 594.968 0C558.968 0 529.468 29.25 529.468 65.5C529.468 101.5 558.968 131 594.968 131ZM30.4685 226L96.7185 231.25C101.718 231.5 104.968 234.75 104.968 240.25L104.968 361.5C104.968 385.5 112.968 409.25 127.718 428.25L205.968 529L165.968 661.75C160.718 679.25 170.718 698 187.718 702.75C204.218 707.25 222.968 699.25 228.468 680.5L273.218 531.25C274.218 528.5 274.468 526 274.468 523.25L395.468 676.5C406.718 690.5 427.718 693 440.968 682C455.468 670.25 457.968 650.25 446.718 636L230.468 362.75L240.468 265.5C241.218 258.5 247.468 255 253.468 258L328.718 295.5C333.968 298.25 342.968 300.25 350.468 300.25L465.968 300.25C473.468 300.25 481.468 297.75 486.968 292.75L541.718 245.75C547.218 241 553.968 243.5 556.218 249.75L587.218 335.25L457.218 370.75C444.218 374.25 434.468 385.5 433.218 399.25L418.468 548.75C416.468 570 435.218 584.25 450.968 584.25C467.718 584.25 481.968 572 483.468 555L495.718 430.5L586.968 416.75L543.218 504.25C538.468 513.75 535.968 524 539.968 534L599.718 683.25C607.218 701.5 626.968 707.75 642.218 701.5C658.718 694.75 667.218 675.5 660.468 659L606.968 526L680.718 421.5C699.218 395.25 705.968 361.75 700.468 330.5L688.968 267.5C687.468 259.25 694.218 253.75 701.968 256.5L739.468 269C765.468 277.75 784.718 262 782.218 236.25L767.218 85.5C765.468 66.25 748.718 54 731.718 55.75C714.468 57.5 700.468 73 702.218 92.25L712.218 191.5L622.468 161.5C585.718 149 546.468 156 515.968 182L454.218 235.5L353.968 235.5L257.468 187.25C242.968 179.75 228.468 175.75 212.218 174.5L76.7185 164.25L108.468 69.75C114.468 52.25 104.968 33.75 87.9685 28C70.9685 22.5 52.4685 31.5 46.7185 48.75L1.71845 182.75C-5.03155 203 9.21845 224.25 30.4685 226Z" fill="black" fill-opacity="0.85"/>
 </g>
</svg>
