<?xml version="1.0" encoding="UTF-8"?>
<!--Generator: Apple Native CoreSVG 326-->
<!DOCTYPE svg
PUBLIC "-//W3C//DTD SVG 1.1//EN"
       "http://www.w3.org/Graphics/SVG/1.1/DTD/svg11.dtd">
<svg version="1.1" xmlns="http://www.w3.org/2000/svg" xmlns:xlink="http://www.w3.org/1999/xlink" viewBox="0 0 651.25 651.75">
 <g>
  <rect height="651.75" opacity="0" width="651.25" x="0" y="0"/>
  <path d="M651.25 325.75C651.25 505 505 651.25 325.5 651.25C146.25 651.25 0 505 0 325.75C0 146.25 146.25 0 325.5 0C505 0 651.25 146.25 651.25 325.75ZM295 199.75C277.75 199.75 268 206 259.25 217L210.5 276.5C198.75 290.75 208 311.25 223.5 311.25L277 311.25L277 337.25C277 354.25 286.5 370.25 301.75 378.25L388.75 425L388.75 516.25C388.75 526.75 397.25 535.25 407.5 535.25C418 535.25 426.25 526.75 426.25 516.25L426.25 413C426.25 408.5 423.75 402 418 398.25L351.5 354.25L351.5 241.5C351.5 238.75 353.5 236.75 356 236.75L500.75 236.75C511.25 236.75 519.25 228.25 519.25 218.25C519.25 208.25 511.25 199.75 500.75 199.75ZM270 440.75L199.5 502.25C192 509 191 521.25 198 528.75C205 536.5 216.5 537.25 224.5 530L297.5 466.5C301.25 463.25 302.5 461.75 303.75 458L324.25 407.75L294.5 391.5C289.75 389 286.5 386.75 285.5 385.75ZM278.25 275.5L258.25 275.5L278.25 250.5ZM284 139.5C284 161.5 301.75 179.75 324 179.75C345.75 179.75 363.75 161.5 363.75 139.5C363.75 118 345.75 99.75 324 99.75C301.75 99.75 284 118 284 139.5Z" fill="black" fill-opacity="0.85"/>
 </g>
</svg>
