<?xml version="1.0" encoding="UTF-8"?>
<!--Generator: Apple Native CoreSVG 326-->
<!DOCTYPE svg
PUBLIC "-//W3C//DTD SVG 1.1//EN"
       "http://www.w3.org/Graphics/SVG/1.1/DTD/svg11.dtd">
<svg version="1.1" xmlns="http://www.w3.org/2000/svg" xmlns:xlink="http://www.w3.org/1999/xlink" viewBox="0 0 651.25 651.75">
 <g>
  <rect height="651.75" opacity="0" width="651.25" x="0" y="0"/>
  <path d="M325.5 651.25C505.25 651.25 651.25 505.5 651.25 325.75C651.25 146 505.25 0 325.5 0C145.75 0 0 146 0 325.75C0 505.5 145.75 651.25 325.5 651.25ZM325.5 604.75C171.25 604.75 46.5 480 46.5 325.75C46.5 171.5 171.25 46.75 325.5 46.75C479.75 46.75 604.5 171.5 604.5 325.75C604.5 480 479.75 604.75 325.5 604.75Z" fill="black" fill-opacity="0.85"/>
  <path d="M445.5 245C467 245 484.25 227.75 484.25 206C484.25 184.5 467 167.25 445.5 167.25C423.75 167.25 406.5 184.5 406.5 206C406.5 227.75 423.75 245 445.5 245ZM132.75 428L237.25 401.75L237.25 426.25C237.25 436 245.5 444 255.5 444C265.5 444 273.5 436 273.5 426.25L273.5 395L349.75 383.5C363.5 381.5 377.25 375.5 389 366.75L454.5 317.5C457 315.75 460.75 316 462 319L481.25 358.25L481.25 426.25C481.25 437 489.25 444 499.75 444C510.5 444 517.5 437 517.5 426.25L517.5 354C517.5 351 517 348.25 515.75 345.75L484.5 283.5C478.5 271 466 263.5 452.25 263.5L436.5 263.5C420.75 263.5 405.5 268.5 393 278L341.5 316.5L265.75 301.25C249.75 298 237.25 305 237.25 321.75L237.25 364.25L124 393C112.25 396 107.75 405 109.25 413.5C110.75 422.75 119.25 431.25 132.75 428ZM273.5 355.5L273.5 342L298.25 349.5ZM359.5 444L431.75 444C446.5 444 458.75 432.25 458.75 417C458.75 402 446.5 389.75 431.75 389.75L359.5 389.75C344.25 389.75 332.25 402 332.25 417C332.25 432.25 344.25 444 359.5 444ZM431.5 429.75C424.5 429.75 418.75 424 418.75 417C418.75 410 424.5 404.25 431.5 404.25C438.5 404.25 444.25 410 444.25 417C444.25 424 438.5 429.75 431.5 429.75Z" fill="black" fill-opacity="0.85"/>
 </g>
</svg>
