<?xml version="1.0" encoding="UTF-8"?>
<!--Generator: Apple Native CoreSVG 326-->
<!DOCTYPE svg
PUBLIC "-//W3C//DTD SVG 1.1//EN"
       "http://www.w3.org/Graphics/SVG/1.1/DTD/svg11.dtd">
<svg version="1.1" xmlns="http://www.w3.org/2000/svg" xmlns:xlink="http://www.w3.org/1999/xlink" viewBox="0 0 952.75 338.25">
 <g>
  <rect height="338.25" opacity="0" width="952.75" x="0" y="0"/>
  <path d="M126.5 137.75C164.75 137.75 195.5 107 195.5 69C195.5 30.75 164.75 0 126.5 0C88.25 0 57.75 30.75 57.75 69C57.75 107 88.25 137.75 126.5 137.75ZM334.5 329.75L425 329.75C500.25 329.75 521.5 287 515.25 237.5L494.25 71.25L657 71.25C675 71.25 689.5 56.5 689.5 38.25C689.5 20.25 675 5.75 657 5.75L453.75 5.75C435.25 5.75 421 19 421 41L421 209L367 209C338 209 313.5 198.75 299.5 176.5C296.25 171.25 296.25 163.75 302.25 156.75L383.75 60.25C402.75 38 387.75 5.75 360 5.75L245.75 5.75C227.5 5.75 213 20.25 213 38.25C213 57 227 71.25 245.75 71.25L292 71.25L244.5 127.5C210.5 167.5 180.5 195.5 129.75 218.25L80.25 240.25L95.75 185.25C100.75 167.25 89 149.5 72.25 145.75C54.5 141.25 36.75 152 32.25 169L1.5 289C-6.75 321.5 21.75 337.75 49.75 325.5L152.25 280.25C162.5 275.75 168.5 276.25 176.5 282.5C209.75 310.75 262.25 329.75 334.5 329.75ZM684.25 256L920 256C938 256 952.75 241.5 952.75 223.25C952.75 205 938 190.5 920 190.5L681.25 190.5C678.75 190.5 675.75 190.5 672.25 190.75L540.5 201.75L545 233.5C547.25 251.75 546.75 269 543 284.5Z" fill="black" fill-opacity="0.85"/>
 </g>
</svg>
