<?xml version="1.0" encoding="UTF-8"?>
<!--Generator: Apple Native CoreSVG 326-->
<!DOCTYPE svg
PUBLIC "-//W3C//DTD SVG 1.1//EN"
       "http://www.w3.org/Graphics/SVG/1.1/DTD/svg11.dtd">
<svg version="1.1" xmlns="http://www.w3.org/2000/svg" xmlns:xlink="http://www.w3.org/1999/xlink" viewBox="0 0 1206.75 731.71">
 <g>
  <rect height="731.71" opacity="0" width="1206.75" x="0" y="0"/>
  <path d="M583.224 463.504L455.749 684.23C449.999 694.23 437.499 697.73 427.499 691.98C417.499 686.23 413.999 673.23 419.749 663.23L559.176 421.891ZM819.249 35.2299C838.499 37.4799 864.249 47.7299 886.749 60.9799C966.499 107.48 996.999 178.98 1076.25 224.98C1111 244.73 1141 251.98 1155.25 259.73C1170 268.48 1176.5 282.98 1167.5 298.48L1036.5 525.73C1023.75 547.73 1005.5 553.98 984.499 551.98C964.999 549.98 939.499 539.48 916.999 526.23C837.249 479.73 806.749 408.23 727.499 362.23C698.999 345.98 673.499 337.73 658.749 332.73L647.527 352.162L623.485 310.577L767.249 61.7299C779.999 39.4799 798.249 33.2299 819.249 35.2299ZM838.999 401.98C861.999 426.98 883.999 451.98 911.999 472.73L954.999 397.98C925.999 377.23 905.249 357.48 880.749 330.48ZM954.999 397.98C960.249 401.98 966.749 405.73 974.249 410.23C996.999 423.23 1018 432.23 1039 437.48L1083.5 360.48C1070 356.73 1045.5 348.73 1018.75 332.98C1012 329.23 1005.75 324.73 999.499 320.98ZM719.999 226.98L680.749 294.73C705.249 302.23 730.249 315.48 748.249 325.98C753.749 328.98 758.749 331.98 763.749 335.48L806.749 260.73C798.999 255.23 793.999 251.73 783.499 245.73C754.749 229.48 731.749 224.73 719.999 226.98ZM806.749 260.73C835.749 281.98 855.499 303.98 880.749 330.48L925.249 252.98C901.499 228.23 881.249 205.23 851.499 183.73ZM925.249 252.98C948.499 278.48 971.749 301.98 999.499 320.98L1039.5 251.23C1009 230.98 985.999 207.98 964.499 184.73ZM764.499 149.98C776.499 147.48 799.499 152.23 827.749 168.23C834.749 172.73 843.749 178.23 851.499 183.73L891.499 113.98C883.749 108.23 874.999 102.73 865.999 97.2299C857.249 92.2299 831.249 77.2299 806.749 76.4799Z" fill="black" fill-opacity="0.85"/>
  <path d="M779.249 691.98C788.999 686.23 792.749 673.23 786.999 663.23L439.249 61.7299C426.499 39.4799 408.499 33.2299 387.249 35.2299C367.999 37.4799 342.499 47.7299 319.749 60.9799C239.999 107.48 209.749 178.98 130.249 224.98C95.7494 244.73 65.4994 251.98 51.4994 259.73C36.4994 268.48 29.9994 282.98 38.9994 298.48L170.249 525.73C182.999 547.73 201.249 553.98 222.249 551.98C241.499 549.98 267.249 539.48 289.499 526.23C369.499 479.73 399.999 408.23 479.249 362.23C507.499 345.98 532.999 337.73 547.749 332.73L750.999 684.23C756.749 694.23 768.999 697.73 779.249 691.98ZM354.999 183.73L314.999 113.98C322.999 108.23 331.499 102.73 340.749 97.2299C349.249 92.2299 375.499 77.2299 399.749 76.4799L441.999 149.98C430.249 147.48 406.999 152.23 378.999 168.23C371.749 172.73 362.999 178.23 354.999 183.73ZM442.999 335.48L399.749 260.73C407.499 255.23 412.499 251.73 423.249 245.73C451.749 229.48 474.999 224.73 486.499 226.98L525.749 294.73C501.249 302.23 476.499 315.48 458.249 325.98C452.999 328.98 447.999 331.98 442.999 335.48ZM325.999 330.48L281.499 252.98C304.999 228.23 325.499 205.23 354.999 183.73L399.749 260.73C370.749 281.98 351.249 303.98 325.999 330.48ZM206.999 320.98L167.249 251.23C197.749 230.98 220.499 207.98 242.249 184.73L281.499 252.98C258.249 278.48 234.749 301.98 206.999 320.98ZM294.499 472.73L251.499 397.98C280.499 377.23 301.499 357.48 325.999 330.48L367.499 401.98C344.499 426.98 322.749 451.98 294.499 472.73ZM167.499 437.48L122.999 360.48C136.499 356.73 161.249 348.73 187.999 332.98C194.749 329.23 200.999 324.73 206.999 320.98L251.499 397.98C246.249 401.98 239.999 405.73 232.499 410.23C209.499 423.23 188.749 432.23 167.499 437.48Z" fill="black" fill-opacity="0.85"/>
 </g>
</svg>
