<?xml version="1.0" encoding="UTF-8"?>
<!--Generator: Apple Native CoreSVG 326-->
<!DOCTYPE svg
PUBLIC "-//W3C//DTD SVG 1.1//EN"
       "http://www.w3.org/Graphics/SVG/1.1/DTD/svg11.dtd">
<svg version="1.1" xmlns="http://www.w3.org/2000/svg" xmlns:xlink="http://www.w3.org/1999/xlink" viewBox="0 0 651.25 651.75">
 <g>
  <rect height="651.75" opacity="0" width="651.25" x="0" y="0"/>
  <path d="M651.25 326C651.25 505.5 505 651.75 325.5 651.75C146.25 651.75 0 505.5 0 326C0 146.75 146.25 0.5 325.5 0.5C505 0.5 651.25 146.75 651.25 326ZM204.5 182C191.5 187.75 185 197.25 185 210.25L185 489C185 496.25 191.25 502.75 199 502.75C207 502.75 212.5 496.5 212.5 489L212.5 389.5C219 386.75 232.5 382.75 253.75 382.75C313 382.75 349.75 412 407.75 412C432 412 443 409.5 455.5 403.75C468.75 397.25 475 388.75 475 375L475 211.75C475 202.5 470 196 458 196C448.5 196 433.75 203.5 406 203.5C349.25 203.5 312 173.5 252 173.5C227 173.5 216 176.75 204.5 182ZM331 212.5L331 263.5C351.5 270 371.25 275 392.75 276.75L392.75 226C397.25 226.25 402 226.25 406.75 226.25C423.75 226.25 438.5 224.5 452 220.5L452 271.75C443.5 273.75 426.75 277.25 406.75 277.25C401.75 277.25 396.5 277 392.75 276.75L392.75 332.5C396.5 332.75 401.25 333.25 406.75 333.25C423.75 333.25 438.5 331.25 452 327.5L452 375C449.25 381 434.75 388.5 408.75 388.5C403 388.5 397.5 388.25 392.75 387L392.75 332.5C370.75 330.5 352.75 326.25 331 319L331 372.75C311.75 367 291.75 361.25 269 359.25L269 304.75C263.75 304.25 259.5 303.75 251.5 303.75C225.75 303.75 211.25 311 208.5 316.75L208.5 261C211.25 255.25 226 248 251.5 248C257 248 263.25 248.25 269 249L269 197.75C291.25 199.75 311 206.25 331 212.5ZM269 304.75C291.75 307 309 312.5 331 319L331 263.5C310.25 257 291.75 251.25 269 249Z" fill="black" fill-opacity="0.85"/>
 </g>
</svg>
