<?xml version="1.0" encoding="UTF-8"?>
<!--Generator: Apple Native CoreSVG 326-->
<!DOCTYPE svg
PUBLIC "-//W3C//DTD SVG 1.1//EN"
       "http://www.w3.org/Graphics/SVG/1.1/DTD/svg11.dtd">
<svg version="1.1" xmlns="http://www.w3.org/2000/svg" xmlns:xlink="http://www.w3.org/1999/xlink" viewBox="0 0 651.25 651.75">
 <g>
  <rect height="651.75" opacity="0" width="651.25" x="0" y="0"/>
  <path d="M651.25 326C651.25 505.5 505 651.75 325.5 651.75C146.25 651.75 0 505.5 0 326C0 146.75 146.25 0.5 325.5 0.5C505 0.5 651.25 146.75 651.25 326ZM209.25 185.75C178.25 192.5 172 204.25 159.25 231C143.5 264 127.25 306.5 117.75 337C112.25 357 108.25 374 108.25 388.75C108.25 423 130.75 445.25 164.25 445.25C183.75 445.25 198 438 210.25 422.75L238.25 388.75C242.5 384 246.75 381.75 251.75 381.75L398.75 381.75C404 381.75 408.25 384 412.25 388.75L440.25 422.75C452.5 438 467 445.25 486.25 445.25C520 445.25 542.25 423 542.25 388.75C542.25 374 538.5 357 532.75 337C523.25 306.5 507.25 264 491.5 231C478.75 204.25 472.5 192.5 441.25 185.75C412.25 179 372.75 175 325.25 175C278 175 238.25 179 209.25 185.75ZM264.75 238L264.75 267.25L293 267.25C301 267.25 306 272 306 279.25C306 287 301 292 293 292L264.75 292L264.75 321.5C264.75 329 260 333.5 252.75 333.5C245.5 333.5 241 329 241 321.5L241 292L211.75 292C204 292 199.25 287 199.25 279.25C199.25 272 204 267.25 211.75 267.25L241 267.25L241 238C241 230.5 245.5 225.5 252.75 225.5C260 225.5 264.75 230.5 264.75 238ZM396.5 301.75C396.5 313.75 386.75 323.25 374.75 323.25C363 323.25 353.25 313.75 353.25 301.75C353.25 289.75 363 280.25 374.75 280.25C386.75 280.25 396.5 289.75 396.5 301.75ZM443 255.25C443 267.5 433.5 277 421.5 277C409.75 277 399.75 267.5 399.75 255.25C399.75 243.5 409.75 234 421.5 234C433.5 234 443 243.5 443 255.25Z" fill="black" fill-opacity="0.85"/>
 </g>
</svg>
