<?xml version="1.0" encoding="UTF-8"?>
<!--Generator: Apple Native CoreSVG 326-->
<!DOCTYPE svg
PUBLIC "-//W3C//DTD SVG 1.1//EN"
       "http://www.w3.org/Graphics/SVG/1.1/DTD/svg11.dtd">
<svg version="1.1" xmlns="http://www.w3.org/2000/svg" xmlns:xlink="http://www.w3.org/1999/xlink" viewBox="0 0 651.25 651.75">
 <g>
  <rect height="651.75" opacity="0" width="651.25" x="0" y="0"/>
  <path d="M325.5 651.25C505.25 651.25 651.25 505.5 651.25 325.75C651.25 146 505.25 0 325.5 0C145.75 0 0 146 0 325.75C0 505.5 145.75 651.25 325.5 651.25ZM325.5 604.75C171.25 604.75 46.5 480 46.5 325.75C46.5 171.5 171.25 46.75 325.5 46.75C479.75 46.75 604.5 171.5 604.5 325.75C604.5 480 479.75 604.75 325.5 604.75Z" fill="black" fill-opacity="0.85"/>
  <path d="M325.5 350.5C423.25 350.5 499.75 315.75 499.75 271.75C499.75 228.75 423.25 194.75 325.5 194.75C227.75 194.75 151.25 228.75 151.25 271.75C151.25 315.75 227.75 350.5 325.5 350.5ZM325.5 456.5C424.5 456.5 499.75 412.75 499.75 359.25L499.75 319.5C467.5 352.75 399.25 372 325.5 372C252 372 183.75 352.75 151.25 319.5L151.25 359.25C151.25 412.75 226.25 456.5 325.5 456.5Z" fill="black" fill-opacity="0.85"/>
 </g>
</svg>
