<?xml version="1.0" encoding="UTF-8"?>
<!--Generator: Apple Native CoreSVG 326-->
<!DOCTYPE svg
PUBLIC "-//W3C//DTD SVG 1.1//EN"
       "http://www.w3.org/Graphics/SVG/1.1/DTD/svg11.dtd">
<svg version="1.1" xmlns="http://www.w3.org/2000/svg" xmlns:xlink="http://www.w3.org/1999/xlink" viewBox="0 0 689.5 689.688">
 <g>
  <rect height="689.688" opacity="0" width="689.5" x="0" y="0"/>
  <path d="M46.875 642.219C108.875 704.719 203.375 705.219 265.375 643.219L642.625 265.969C705.125 203.469 705.125 108.719 642.625 46.7188C580.625-15.5312 485.625-15.5312 423.625 46.4688L46.875 423.219C-15.375 485.469-15.375 580.219 46.875 642.219ZM481.875 151.469C473.125 142.719 473.125 128.469 481.875 119.719C490.875 110.719 505.375 110.719 514.125 119.719C522.875 128.469 522.875 142.469 514.125 151.469C505.375 160.219 490.625 160.219 481.875 151.469ZM537.875 207.219C528.875 198.469 528.875 183.719 537.875 174.969C546.375 166.219 560.625 166.219 569.375 174.969C578.375 183.719 578.375 198.469 569.375 207.219C560.625 215.969 546.375 215.969 537.875 207.219ZM426.625 206.969C418.125 198.219 418.125 183.719 426.875 174.719C435.625 166.219 449.875 166.219 458.625 174.719C467.125 183.469 467.125 198.219 458.625 206.969C449.625 215.719 435.625 215.719 426.625 206.969ZM482.125 262.219C473.125 253.719 473.125 239.219 482.125 230.469C490.875 221.469 505.625 221.469 514.375 230.469C523.125 239.219 523.125 253.719 514.375 262.219C505.625 271.219 490.875 271.219 482.125 262.219ZM177.375 455.969C168.625 447.219 168.625 432.969 177.625 423.969C186.375 415.469 200.875 415.469 209.625 423.969C218.125 432.719 218.125 447.219 209.625 455.969C200.625 464.969 186.375 464.969 177.375 455.969ZM233.125 511.469C224.375 502.719 224.375 488.469 233.125 479.219C241.875 470.469 256.375 470.469 265.125 479.219C273.875 488.469 273.875 502.719 265.125 511.469C256.375 520.469 241.875 520.469 233.125 511.469ZM122.125 511.469C113.375 502.719 113.375 488.219 122.125 479.219C131.125 470.469 145.375 470.469 154.125 479.219C162.875 488.219 162.875 502.469 154.125 511.469C145.375 520.219 130.875 520.219 122.125 511.469ZM177.875 566.969C168.875 558.219 168.875 543.719 177.875 534.969C186.375 526.219 200.875 526.219 209.625 534.969C218.625 543.719 218.625 558.219 209.625 566.969C200.875 575.719 186.375 575.719 177.875 566.969ZM317.875 103.969L327.375 113.469C337.625 123.719 353.375 123.719 363.875 113.469L420.375 56.7188C431.125 46.2188 431.125 30.7188 420.375 20.2188L411.125 10.7188C400.875 0.468797 384.875 0.468797 374.375 10.9688L317.875 67.4688C307.375 77.7188 307.375 93.7188 317.875 103.969ZM575.625 361.719L585.125 371.219C595.625 381.469 611.125 381.469 621.625 371.219L678.125 314.219C688.875 303.969 688.875 288.469 678.125 277.969L669.375 268.469C658.875 258.219 643.125 258.219 632.875 268.469L575.625 325.219C565.125 335.719 565.375 351.469 575.625 361.719ZM13.375 408.219L22.875 417.969C33.625 428.219 48.875 428.219 59.375 417.969L116.125 361.219C126.375 350.719 126.375 335.219 116.125 324.469L106.625 315.469C96.125 304.969 80.625 304.969 70.125 315.469L13.625 371.719C3.125 381.969 3.125 397.969 13.375 408.219ZM271.125 666.469L280.625 675.719C291.375 686.219 306.625 686.219 317.125 675.969L373.875 619.219C384.125 608.469 384.125 592.969 373.875 582.469L364.375 573.219C354.125 562.719 338.375 562.719 327.875 573.219L271.125 629.969C260.875 640.219 260.875 656.219 271.125 666.469Z" fill="black" fill-opacity="0.85"/>
 </g>
</svg>
