<?xml version="1.0" encoding="UTF-8"?>
<!--Generator: Apple Native CoreSVG 326-->
<!DOCTYPE svg
PUBLIC "-//W3C//DTD SVG 1.1//EN"
       "http://www.w3.org/Graphics/SVG/1.1/DTD/svg11.dtd">
<svg version="1.1" xmlns="http://www.w3.org/2000/svg" xmlns:xlink="http://www.w3.org/1999/xlink" viewBox="0 0 689.5 689.688">
 <g>
  <rect height="689.688" opacity="0" width="689.5" x="0" y="0"/>
  <path d="M46.875 642.219C108.875 704.719 203.375 705.219 265.375 643.219L642.625 265.969C705.125 203.469 705.125 108.719 642.625 46.7188C580.625-15.5312 485.625-15.5312 423.625 46.4688L46.875 423.219C-15.375 485.469-15.375 580.219 46.875 642.219ZM78.125 610.969C34.375 567.219 34.375 498.469 78.125 454.469L454.875 77.7188C498.625 33.9688 567.625 34.2188 611.375 77.9688C655.125 121.719 655.125 190.469 611.375 234.719L233.875 611.719C190.625 655.219 121.875 654.719 78.125 610.969ZM317.875 103.969L327.375 113.469C337.625 123.719 353.375 123.719 363.875 113.469L420.375 56.7188C431.125 46.2188 431.125 30.7188 420.375 20.2188L411.125 10.7188C400.875 0.468797 384.875 0.468797 374.375 10.9688L317.875 67.4688C307.375 77.7188 307.375 93.7188 317.875 103.969ZM575.625 361.719L585.125 371.219C595.625 381.469 611.125 381.469 621.625 371.219L678.125 314.219C688.875 303.969 688.875 288.469 678.125 277.969L669.375 268.469C658.875 258.219 643.125 258.219 632.875 268.469L575.625 325.219C565.125 335.719 565.375 351.469 575.625 361.719ZM13.375 408.219L22.875 417.969C33.625 428.219 48.875 428.219 59.375 417.969L116.125 361.219C126.375 350.719 126.375 335.219 116.125 324.469L106.625 315.469C96.125 304.969 80.625 304.969 70.125 315.469L13.625 371.719C3.125 381.969 3.125 397.969 13.375 408.219ZM271.125 666.469L280.625 675.719C291.375 686.219 306.625 686.219 317.125 675.969L373.875 619.219C384.125 608.469 384.125 592.969 373.875 582.469L364.375 573.219C354.125 562.719 338.375 562.719 327.875 573.219L271.125 629.969C260.875 640.219 260.875 656.219 271.125 666.469ZM482.375 152.469C490.875 160.969 505.125 160.969 513.625 152.469C522.125 143.719 522.125 129.969 513.625 121.469C505.125 112.719 491.125 112.719 482.375 121.469C473.875 129.969 473.875 143.969 482.375 152.469ZM536.875 206.719C545.125 215.219 559.125 215.219 567.625 206.719C576.375 198.219 576.375 183.969 567.625 175.469C559.125 166.969 545.125 166.969 536.875 175.469C528.125 183.969 528.125 198.219 536.875 206.719ZM428.375 206.469C437.125 214.969 450.875 214.969 459.625 206.469C467.875 197.969 467.875 183.719 459.625 175.219C451.125 166.969 437.125 166.969 428.625 175.219C420.125 183.969 420.125 197.969 428.375 206.469ZM482.625 260.469C491.125 269.219 505.375 269.219 513.875 260.469C522.375 252.219 522.375 237.969 513.875 229.469C505.375 220.719 491.125 220.719 482.625 229.469C473.875 237.969 473.875 252.219 482.625 260.469ZM177.875 456.969C186.625 465.719 200.375 465.719 209.125 456.969C217.375 448.469 217.375 434.219 209.125 425.969C200.625 417.469 186.625 417.469 178.125 425.969C169.375 434.469 169.375 448.469 177.875 456.969ZM232.125 510.969C240.625 519.719 254.625 519.719 263.375 510.969C271.875 502.469 271.875 488.719 263.375 479.719C254.625 471.219 240.625 471.219 232.125 479.719C223.625 488.719 223.625 502.469 232.125 510.969ZM123.875 510.969C132.375 519.469 146.625 519.469 155.125 510.969C163.625 502.219 163.625 488.469 155.125 479.719C146.625 471.219 132.625 471.219 123.875 479.719C115.375 488.469 115.375 502.469 123.875 510.969ZM178.375 565.219C186.625 573.719 200.625 573.719 209.125 565.219C217.875 556.719 217.875 542.469 209.125 533.969C200.625 525.469 186.625 525.469 178.375 533.969C169.625 542.469 169.625 556.719 178.375 565.219Z" fill="black" fill-opacity="0.85"/>
 </g>
</svg>
