<?xml version="1.0" encoding="UTF-8"?>
<!--Generator: Apple Native CoreSVG 326-->
<!DOCTYPE svg
PUBLIC "-//W3C//DTD SVG 1.1//EN"
       "http://www.w3.org/Graphics/SVG/1.1/DTD/svg11.dtd">
<svg version="1.1" xmlns="http://www.w3.org/2000/svg" xmlns:xlink="http://www.w3.org/1999/xlink" viewBox="0 0 770.498 771.748">
 <g>
  <rect height="771.748" opacity="0" width="770.498" x="0" y="0"/>
  <path d="M50.499 719.749C119.499 788.999 208.249 786.999 280.499 714.749C312.749 682.499 376.249 587.499 481.999 481.999C587.499 376.249 682.499 312.749 714.999 280.499C786.999 208.249 788.999 119.499 719.749 50.499C650.749-18.501 561.999-16.751 489.749 55.499C457.499 87.749 393.999 182.749 288.499 288.499C182.999 393.999 87.749 457.499 55.499 489.749C-16.751 561.999-18.501 650.749 50.499 719.749ZM80.749 689.499C29.749 639.249 31.749 573.499 85.249 519.749C116.499 488.999 210.749 425.499 317.999 317.749C425.499 210.749 488.999 115.999 519.749 85.249C573.499 31.749 639.249 29.749 689.749 80.749C740.499 131.249 738.499 196.749 684.999 250.499C654.249 281.499 559.499 344.999 452.499 452.499C344.999 559.499 281.499 653.999 250.499 684.999C196.999 738.499 131.249 740.499 80.749 689.499ZM288.249 439.999L330.499 482.249C342.499 494.249 361.249 494.249 372.999 482.249C385.249 470.249 384.999 452.499 372.999 440.499L329.999 397.499C317.999 385.499 299.749 385.249 287.999 396.999C275.999 408.999 275.999 427.749 288.249 439.999ZM396.999 330.999L439.499 373.499C451.749 385.749 469.999 385.499 481.999 373.499C493.749 361.749 493.749 343.249 481.749 331.249L439.249 288.499C427.249 276.499 408.249 276.749 396.499 288.499C384.499 300.249 384.999 318.999 396.999 330.999Z" fill="black" fill-opacity="0.85"/>
 </g>
</svg>
