<?xml version="1.0" encoding="UTF-8"?>
<!--Generator: Apple Native CoreSVG 326-->
<!DOCTYPE svg
PUBLIC "-//W3C//DTD SVG 1.1//EN"
       "http://www.w3.org/Graphics/SVG/1.1/DTD/svg11.dtd">
<svg version="1.1" xmlns="http://www.w3.org/2000/svg" xmlns:xlink="http://www.w3.org/1999/xlink" viewBox="0 0 651.25 651.75">
 <g>
  <rect height="651.75" opacity="0" width="651.25" x="0" y="0"/>
  <path d="M325.5 651.25C505.25 651.25 651.25 505.5 651.25 325.75C651.25 146 505.25 0 325.5 0C145.75 0 0 146 0 325.75C0 505.5 145.75 651.25 325.5 651.25ZM325.5 604.75C171.25 604.75 46.5 480 46.5 325.75C46.5 171.5 171.25 46.75 325.5 46.75C479.75 46.75 604.5 171.5 604.5 325.75C604.5 480 479.75 604.75 325.5 604.75Z" fill="black" fill-opacity="0.85"/>
  <path d="M126.75 378.5L162.75 378.5C175.25 378.5 181 372.25 181 360.25L181 292C181 279.75 175.25 273.75 162.75 273.75L126.75 273.75ZM180.25 461.5L314.25 461.5L314.25 398.5C278.75 393 251.5 362.75 251.5 325.75C251.5 289 278.75 258.25 314.25 253.25L314.25 190.25L180.25 190.25C145.5 190.25 126.75 209.5 126.75 244.25L126.75 252.25L162.5 252.25C188.25 252.25 202.25 266.75 202.25 292.25L202.25 360C202.25 385.25 188.25 399.75 162.5 399.75L126.75 399.75L126.75 407.75C126.75 442.5 145.5 461.5 180.25 461.5ZM314.25 377.5L314.25 274C290 278.75 272.25 300 272.25 325.75C272.25 351.75 290 372.5 314.25 377.5ZM336.25 377.5C360.75 372.5 378.25 351.75 378.25 325.75C378.25 300 360.75 278.75 336.25 274ZM336.25 461.5L470.25 461.5C505 461.5 524 442.5 524 407.75L524 399.75L488 399.75C462.25 399.75 448.25 385.25 448.25 360L448.25 292.25C448.25 266.75 462.25 252.25 488 252.25L524 252.25L524 244.25C524 209.5 505 190.25 470.25 190.25L336.25 190.25L336.25 253.25C371.75 258.25 399 289 399 325.75C399 362.75 371.75 393 336.25 398.5ZM524 378.5L524 273.75L487.75 273.75C475.5 273.75 469.5 279.75 469.5 292L469.5 360.25C469.5 372.25 475.5 378.5 487.75 378.5Z" fill="black" fill-opacity="0.85"/>
 </g>
</svg>
