<?xml version="1.0" encoding="UTF-8"?>
<!--Generator: Apple Native CoreSVG 326-->
<!DOCTYPE svg
PUBLIC "-//W3C//DTD SVG 1.1//EN"
       "http://www.w3.org/Graphics/SVG/1.1/DTD/svg11.dtd">
<svg version="1.1" xmlns="http://www.w3.org/2000/svg" xmlns:xlink="http://www.w3.org/1999/xlink" viewBox="0 0 858.75 587.75">
 <g>
  <rect height="587.75" opacity="0" width="858.75" x="0" y="0"/>
  <path d="M119 587.75L739.75 587.75C815.5 587.75 858.75 544.75 858.75 469L858.75 119C858.75 43 815.5 0.25 739.75 0.25L119 0.25C43.25 0.25 0 43 0 119L0 469C0 544.75 43.25 587.75 119 587.75ZM122 543.5C70.75 543.5 44.25 517 44.25 465.75L44.25 122.25C44.25 71 70.75 44.5 122 44.5L736.5 44.5C787.75 44.5 814.5 71 814.5 122.25L814.5 465.75C814.5 517 787.75 543.5 736.5 543.5ZM28.5 438L100.75 438C153.75 438 182.75 409.25 182.75 356L182.75 231.75C182.75 178.5 153.75 149.75 100.75 149.75L28.5 149.75L28.5 189L101 189C128.5 189 143.5 203.75 143.5 231.5L143.5 356.25C143.5 384 128.5 398.75 101 398.75L28.5 398.75ZM758 438L830.25 438L830.25 398.75L757.75 398.75C730 398.75 715.25 384 715.25 356.25L715.25 231.5C715.25 203.75 730 189 757.75 189L830.25 189L830.25 149.75L758 149.75C704.75 149.75 676 178.5 676 231.75L676 356C676 409.25 704.75 438 758 438ZM409.75 569L449 569L449 19L409.75 19ZM429.25 444.25C512.5 444.25 580 376.75 580 293.75C580 210.5 512.5 143 429.25 143C346.25 143 278.75 210.5 278.75 293.75C278.75 376.75 346.25 444.25 429.25 444.25ZM429.25 407.5C366.25 407.5 315.5 356.75 315.5 293.75C315.5 230.5 366.25 179.75 429.25 179.75C492.5 179.75 543.25 230.5 543.25 293.75C543.25 356.75 492.5 407.5 429.25 407.5ZM429.25 343C456.5 343 478.5 321 478.5 293.75C478.5 266.5 456.5 244.5 429.25 244.5C402 244.5 380 266.5 380 293.75C380 321 402 343 429.25 343Z" fill="black" fill-opacity="0.85"/>
 </g>
</svg>
