<?xml version="1.0" encoding="UTF-8"?>
<!--Generator: Apple Native CoreSVG 326-->
<!DOCTYPE svg
PUBLIC "-//W3C//DTD SVG 1.1//EN"
       "http://www.w3.org/Graphics/SVG/1.1/DTD/svg11.dtd">
<svg version="1.1" xmlns="http://www.w3.org/2000/svg" xmlns:xlink="http://www.w3.org/1999/xlink" viewBox="0 0 651.25 651.75">
 <g>
  <rect height="651.75" opacity="0" width="651.25" x="0" y="0"/>
  <path d="M4.25 273.5C22.5 278.25 42 280.75 62 280.75C178.5 280.75 267.25 192 267.25 75C267.25 51.5 263.25 28.25 256.25 7.75C127.5 35.5 25.25 141.25 4.25 273.5ZM325.5 651.25C337 651.25 347.75 650.5 358.75 649.25C351 625.5 347.25 601 347.25 574.5C347.25 439.25 455.5 331 590.5 331C611.5 331 631 333.25 650.75 338.5C651 334.25 651.25 330 651.25 325.75C651.25 146.25 505.25 0 325.5 0C314.75 0 304.25 0.75 294.25 1.75C301.75 24.75 305.25 49.25 305.25 75C305.25 210.25 197 318.75 62 318.75C41 318.75 20 316 0.75 311.25C0.25 316 0 320.75 0 325.75C0 505.5 145.75 651.25 325.5 651.25ZM396.75 643.25C525.25 614.25 626 507.5 647.25 376.25C629.5 371.5 610.75 368.75 590.5 368.75C473.75 368.75 385.25 457.5 385.25 574.5C385.25 599 388.75 622.25 396.75 643.25Z" fill="black" fill-opacity="0.85"/>
 </g>
</svg>
