<?xml version="1.0" encoding="UTF-8"?>
<!--Generator: Apple Native CoreSVG 326-->
<!DOCTYPE svg
PUBLIC "-//W3C//DTD SVG 1.1//EN"
       "http://www.w3.org/Graphics/SVG/1.1/DTD/svg11.dtd">
<svg version="1.1" xmlns="http://www.w3.org/2000/svg" xmlns:xlink="http://www.w3.org/1999/xlink" viewBox="0 0 651.25 651.75">
 <g>
  <rect height="651.75" opacity="0" width="651.25" x="0" y="0"/>
  <path d="M325.5 651.25C505.25 651.25 651.25 505.5 651.25 325.75C651.25 146 505.25 0 325.5 0C145.75 0 0 146 0 325.75C0 505.5 145.75 651.25 325.5 651.25ZM325.5 604.75C171.25 604.75 46.5 480 46.5 325.75C46.5 171.5 171.25 46.75 325.5 46.75C479.75 46.75 604.5 171.5 604.5 325.75C604.5 480 479.75 604.75 325.5 604.75Z" fill="black" fill-opacity="0.85"/>
  <path d="M155.25 297.25C164.5 299.75 174.75 301 185.25 301C246.5 301 292.75 254.75 292.75 193.5C292.75 181 290.75 169 287.25 158.25C219.75 173.5 167 228.75 155.25 297.25ZM325 499C330.5 499 336.25 498.5 341.75 498C337.25 485.25 335.5 472 335.5 458.25C335.5 385.75 393.25 327.75 465.5 327.75C476.5 327.75 487 329 497.5 332C497.5 330 497.5 328.25 497.5 326.5C497.5 231.75 419.5 154 325 154C319.75 154 315 154 309.75 154.75C313.75 166.75 315.5 179.75 315.5 193.5C315.5 265.75 257.5 323.75 185.25 323.75C174.25 323.75 163.25 322.5 152.75 319.75C152.75 322 152.5 324 152.5 326.5C152.5 421 230.5 499 325 499ZM364.25 494.5C431.5 478.25 484 422.75 495.25 354.5C486 352 476.25 350.5 465.5 350.5C404.25 350.5 358 396.75 358 458.25C358 471 360 483.25 364.25 494.5Z" fill="black" fill-opacity="0.85"/>
 </g>
</svg>
