<?xml version="1.0" encoding="UTF-8"?>
<!--Generator: Apple Native CoreSVG 326-->
<!DOCTYPE svg
PUBLIC "-//W3C//DTD SVG 1.1//EN"
       "http://www.w3.org/Graphics/SVG/1.1/DTD/svg11.dtd">
<svg version="1.1" xmlns="http://www.w3.org/2000/svg" xmlns:xlink="http://www.w3.org/1999/xlink" viewBox="0 0 650.25 651.75">
 <g>
  <rect height="651.75" opacity="0" width="650.25" x="0" y="0"/>
  <path d="M434.25 172C465.25 117.75 475.75 67.75 457.25 29C416.5 10.5 371.5 0 324.5 0C228.5 0 141.5 43.25 82.25 111C197 62 356.75 107.75 434.25 172ZM306 324C349.75 284.25 386.75 243.5 414.25 204.25C327.75 132 141.75 86 36.75 175.25C15.25 214.75 2.25 259.5 0 307.75C76.25 253.25 203 279.5 306 324ZM105 312.5C61.25 312.5 24 324 0 352.25C11.25 489 110 603.25 239.25 638C178 571.25 110.25 451.5 105 312.5ZM293.75 359C243.5 336.5 190 320.25 141.75 316C150 489.25 258.75 626.75 314 651C357.25 652.5 401.5 644.5 439.25 629.5C357.25 584 298.25 459.75 293.75 359ZM486.5 607.5C583.75 551 650.25 445 650.25 325.75C650.25 284.25 642 245 627.5 208.75C610 294.75 547.75 421.75 391.5 535.5C418.75 574.75 451.75 602.5 486.5 607.5ZM372.5 504.25C564 361.75 606.75 204.25 597.75 150C572.25 110.5 538.5 77 499 51.75C513 141.5 435.25 256.25 330 351.75C331.5 403 347.75 458 372.5 504.25Z" fill="black" fill-opacity="0.85"/>
 </g>
</svg>
