<?xml version="1.0" encoding="UTF-8"?>
<!--Generator: Apple Native CoreSVG 326-->
<!DOCTYPE svg
PUBLIC "-//W3C//DTD SVG 1.1//EN"
       "http://www.w3.org/Graphics/SVG/1.1/DTD/svg11.dtd">
<svg version="1.1" xmlns="http://www.w3.org/2000/svg" xmlns:xlink="http://www.w3.org/1999/xlink" viewBox="0 0 651.25 651.75">
 <g>
  <rect height="651.75" opacity="0" width="651.25" x="0" y="0"/>
  <path d="M325.5 651.25C505.25 651.25 651.25 505.5 651.25 325.75C651.25 146 505.25 0 325.5 0C145.75 0 0 146 0 325.75C0 505.5 145.75 651.25 325.5 651.25ZM325.5 604.75C171.25 604.75 46.5 480 46.5 325.75C46.5 171.5 171.25 46.75 325.5 46.75C479.75 46.75 604.5 171.5 604.5 325.75C604.5 480 479.75 604.75 325.5 604.75Z" fill="black" fill-opacity="0.85"/>
  <path d="M383 242.5C399.5 213.5 404.25 187.25 393.5 167.25C372.5 158.25 349.75 153 325.5 153C275.5 153 230 175 198.25 209.25C259.5 185.5 341.25 208.75 383 242.5ZM315.25 323.25C338 302.5 357 281.75 371.25 261.25C324.5 223.25 224.25 199.5 170.25 250C160.25 270 154.5 292 152.75 315C193.75 286.5 261 300 315.25 323.25ZM207.5 320.25C185 320.5 165.5 326.75 153.25 342C160 412.75 210.75 472 277.75 491.25C245.25 455.5 210.5 392.5 207.5 320.25ZM307.75 344.25C281.75 332.75 254.5 324.5 229.75 321.75C234.75 414 292.75 486 322 498.5C346.25 498.5 366.25 494.75 384.75 487.5C341.5 463 310.5 397.75 307.75 344.25ZM413 474.5C463.5 444.25 498 388.5 498 325.75C498 305 494 284.75 487.25 266.5C477 312.5 443 378.25 362.75 437.5C376.75 458 394.5 471.75 413 474.5ZM351.25 418.5C452.5 342.75 473.75 259.25 469.25 230.75C456 211 439.25 194.5 419.5 181.5C425.75 229.75 384.75 290.5 329.75 340.25C330.5 366.75 339 395 351.25 418.5Z" fill="black" fill-opacity="0.85"/>
 </g>
</svg>
