<?xml version="1.0" encoding="UTF-8"?>
<!--Generator: Apple Native CoreSVG 326-->
<!DOCTYPE svg
PUBLIC "-//W3C//DTD SVG 1.1//EN"
       "http://www.w3.org/Graphics/SVG/1.1/DTD/svg11.dtd">
<svg version="1.1" xmlns="http://www.w3.org/2000/svg" xmlns:xlink="http://www.w3.org/1999/xlink" viewBox="0 0 682.625 681.251">
 <g>
  <rect height="681.251" opacity="0" width="682.625" x="0" y="0"/>
  <path d="M270.562 515.251C292.812 532.251 311.312 546.001 341.312 546.001C371.312 546.001 389.562 532.251 411.812 515.251C416.299 511.966 420.94 508.526 425.853 505.181L454.368 533.671C426.096 552.828 401.406 585.251 341.312 585.251C255.562 585.251 241.812 519.751 188.062 519.751C133.062 519.751 124.562 585.251 26.5625 585.251L25.0625 585.251C14.0625 585.251 5.3125 576.501 5.3125 565.501C5.3125 554.751 14.0625 546.001 25.0625 546.001L26.5625 546.001C62.3125 546.001 82.5625 531.001 107.062 513.751C128.062 498.501 153.312 480.501 188.062 480.501C224.062 480.501 249.562 499.751 270.562 515.251Z" fill="black" fill-opacity="0.85"/>
  <path d="M575.562 321.001C599.812 338.001 620.062 353.001 655.812 353.001L657.562 353.001C668.312 353.001 677.062 361.751 677.062 372.751C677.062 383.501 668.312 392.251 657.562 392.251L655.812 392.251C558.062 392.251 549.562 326.751 494.312 326.751C469.681 326.751 453.45 340.505 434.833 355.421L406.161 326.735C408.017 325.358 409.9 323.94 411.812 322.501C432.812 306.751 458.562 287.501 494.312 287.501C529.312 287.501 554.562 305.751 575.562 321.001ZM210.651 290.168L309.191 388.622C250.899 375.109 234.247 326.751 188.062 326.751C133.062 326.751 124.562 392.251 26.5625 392.251L25.0625 392.251C14.0625 392.251 5.3125 383.501 5.3125 372.751C5.3125 361.751 14.0625 353.001 25.0625 353.001L26.5625 353.001C62.3125 353.001 82.5625 338.001 107.062 321.001C128.062 305.751 153.312 287.501 188.062 287.501C196.102 287.501 203.618 288.461 210.651 290.168Z" fill="black" fill-opacity="0.85"/>
  <path d="M575.562 128.001C599.812 145.251 620.062 160.251 655.812 160.251L657.562 160.251C668.312 160.251 677.062 169.001 677.062 179.751C677.062 190.751 668.312 199.501 657.562 199.501L655.812 199.501C558.062 199.501 549.562 134.001 494.312 134.001C440.562 134.001 426.812 199.501 341.312 199.501C279.325 199.501 254.962 165.272 225.89 146.385L175.159 95.6316C179.292 95.0493 183.595 94.7505 188.062 94.7505C224.062 94.7505 249.562 114.001 270.562 129.501C292.812 146.501 311.312 160.251 341.312 160.251C371.312 160.251 389.562 146.501 411.812 129.501C432.812 114.001 458.562 94.7505 494.312 94.7505C529.312 94.7505 554.562 112.751 575.562 128.001Z" fill="black" fill-opacity="0.85"/>
  <path d="M609.312 639.501C617.562 647.751 631.312 647.751 639.562 639.501C647.812 631.001 647.812 617.501 639.562 609.251L71.3125 41.2505C63.3125 33.0005 49.5625 32.7505 41.0625 41.2505C32.8125 49.2505 32.8125 63.2505 41.0625 71.2505Z" fill="black" fill-opacity="0.85"/>
 </g>
</svg>
