<?xml version="1.0" encoding="UTF-8"?>
<!--Generator: Apple Native CoreSVG 326-->
<!DOCTYPE svg
PUBLIC "-//W3C//DTD SVG 1.1//EN"
       "http://www.w3.org/Graphics/SVG/1.1/DTD/svg11.dtd">
<svg version="1.1" xmlns="http://www.w3.org/2000/svg" xmlns:xlink="http://www.w3.org/1999/xlink" viewBox="0 0 651.25 651.75">
 <g>
  <rect height="651.75" opacity="0" width="651.25" x="0" y="0"/>
  <path d="M651.25 325.75C651.25 505 505 651.25 325.5 651.25C146.25 651.25 0 505 0 325.75C0 146.25 146.25 0 325.5 0C505 0 651.25 146.25 651.25 325.75ZM472 200.25C439.75 205.25 372.75 213.25 325.5 213.25C278.5 213.25 211 205.25 178.75 200.25C176 199.75 173 199 169.75 199C161.5 199 152.75 206 152.75 218C152.75 227 158.25 234.75 166.75 236.75C177.5 239.75 253.25 248.75 262.75 250.5C272.25 252.25 278 260.25 278.5 271.75C278.5 289 278.5 344.25 274 369.5C270 394.5 241 514.75 239.75 519.75C236.25 532.5 243.75 544.5 257 544.5C266 544.5 272.75 539 276 526.75C282 502.5 302.75 419.25 309.75 399C313.75 384.75 317.25 379.25 325.5 379.25C333.5 379.25 337 384.75 341.75 399C347.5 419 369 502.5 374.75 526.75C378 539 384.75 544.5 393.75 544.5C407 544.5 414.25 532.5 411 519.75C410 514.75 380.5 394.5 376.75 369.5C372.75 344.25 372.75 289 372.75 271.75C372.75 260.25 378.5 252.5 388 250.5C397.5 248.5 473.25 240 484 236.75C492.5 234.5 498 227 498 218C498 206 488.75 199 481 199C477.75 199 474.75 199.75 472 200.25ZM282.25 148.25C282.25 171.75 301.5 191.25 325.5 191.25C349.25 191.25 368.5 171.75 368.5 148.25C368.5 124 349.25 104.75 325.5 104.75C301.5 104.75 282.25 124 282.25 148.25Z" fill="black" fill-opacity="0.85"/>
 </g>
</svg>
