<?xml version="1.0" encoding="UTF-8"?>
<!--Generator: Apple Native CoreSVG 326-->
<!DOCTYPE svg
PUBLIC "-//W3C//DTD SVG 1.1//EN"
       "http://www.w3.org/Graphics/SVG/1.1/DTD/svg11.dtd">
<svg version="1.1" xmlns="http://www.w3.org/2000/svg" xmlns:xlink="http://www.w3.org/1999/xlink" viewBox="0 0 651.25 651.75">
 <g>
  <rect height="651.75" opacity="0" width="651.25" x="0" y="0"/>
  <path d="M325.5 651.25C505.25 651.25 651.25 505.5 651.25 325.75C651.25 146 505.25 0 325.5 0C145.75 0 0 146 0 325.75C0 505.5 145.75 651.25 325.5 651.25ZM325.5 604.75C171.25 604.75 46.5 480 46.5 325.75C46.5 171.5 171.25 46.75 325.5 46.75C479.75 46.75 604.5 171.5 604.5 325.75C604.5 480 479.75 604.75 325.5 604.75Z" fill="black" fill-opacity="0.85"/>
  <path d="M325.25 215.75C279.25 215.75 213.5 208 182 203.25C179.25 202.75 176.25 202 173.25 202C165 202 156.75 208.75 156.75 220.5C156.75 229.25 162 236.75 170.5 238.75C180.75 241.75 254.75 250.5 264 252.25C273.25 254 278.75 261.75 279.25 273C279.25 290 279.25 343.75 275 368.5C271 392.75 242.75 510.25 241.5 515.25C238 527.75 245.75 539 258.25 539C267.25 539 273.75 534 277 522C282.75 498.25 303 417 309.75 397.25C313.75 383.25 317.25 378 325.25 378C333 378 336.5 383.25 341 397.25C346.75 416.75 367.5 498 373.25 522C376.5 534 383 539 392 539C404.75 539 412 527.75 408.75 515.25C407.75 510.25 379 392.75 375.25 368.5C371.5 343.75 371.5 290 371.5 273C371.5 261.75 377 254.25 386.25 252.25C395.5 250.5 469.5 242.25 479.75 238.75C488.25 236.5 493.5 229.25 493.5 220.5C493.5 208.75 484.75 202 477 202C474 202 471 202.75 468.25 203.25C436.75 208 371.5 215.75 325.25 215.75ZM325.25 194.5C348.5 194.5 367.25 175.25 367.25 152.25C367.25 128.75 348.5 110 325.25 110C301.75 110 283 128.75 283 152.25C283 175.25 301.75 194.5 325.25 194.5Z" fill="black" fill-opacity="0.85"/>
 </g>
</svg>
