<?xml version="1.0" encoding="UTF-8"?>
<!--Generator: Apple Native CoreSVG 326-->
<!DOCTYPE svg
PUBLIC "-//W3C//DTD SVG 1.1//EN"
       "http://www.w3.org/Graphics/SVG/1.1/DTD/svg11.dtd">
<svg version="1.1" xmlns="http://www.w3.org/2000/svg" xmlns:xlink="http://www.w3.org/1999/xlink" viewBox="0 0 729.632 734.127">
 <g>
  <rect height="734.127" opacity="0" width="729.632" x="0" y="0"/>
  <path d="M10.1909 388.688L113.691 482.438C133.441 500.938 159.941 486.688 159.941 461.188L159.941 391.188L340.691 391.188L340.691 572.938L270.191 572.938C244.691 572.938 230.441 599.438 249.191 619.188L342.941 722.688C355.691 736.688 374.941 735.938 387.191 722.438L480.691 619.188C499.191 599.438 484.941 572.938 459.441 572.938L389.441 572.938L389.441 391.188L569.691 391.188L569.691 461.188C569.691 486.688 596.191 500.938 615.941 482.438L719.191 388.938C732.941 376.188 733.191 357.188 719.441 344.438L615.941 250.688C596.191 232.188 569.691 246.438 569.691 271.938L569.691 342.188L389.441 342.188L389.441 160.188L459.441 160.188C484.941 160.188 499.191 133.688 480.691 113.688L386.941 10.1884C374.441-3.56165 355.191-3.31165 342.691 10.4384L249.191 113.688C230.441 133.688 244.691 160.188 270.191 160.188L340.691 160.188L340.691 342.188L159.941 342.188L159.941 271.938C159.941 246.438 133.441 232.188 113.691 250.688L10.4409 344.188C-3.05909 356.688-3.80909 375.688 10.1909 388.688Z" fill="black" fill-opacity="0.85"/>
 </g>
</svg>
