<?xml version="1.0" encoding="UTF-8"?>
<!--Generator: Apple Native CoreSVG 326-->
<!DOCTYPE svg
PUBLIC "-//W3C//DTD SVG 1.1//EN"
       "http://www.w3.org/Graphics/SVG/1.1/DTD/svg11.dtd">
<svg version="1.1" xmlns="http://www.w3.org/2000/svg" xmlns:xlink="http://www.w3.org/1999/xlink" viewBox="0 0 794 617.75">
 <g>
  <rect height="617.75" opacity="0" width="794" x="0" y="0"/>
  <path d="M176.5 308.75C176.5 319.9 177.114 330.926 178.395 341.771C111.692 347.112 75.5 376.915 75.5 422.75C75.5 471.25 116 503.25 174 503.25C196.772 503.25 217.89 498.455 236.504 489.463C243.238 499.204 250.762 508.339 259.021 516.792C232.174 535.367 198.793 546.25 164 546.25C81.25 546.25 24.5 496.75 24.5 423.5C24.5 352.5 78 310.25 175 302L176.857 301.838ZM245.25 116.133C234.686 128.979 225.255 142.763 217.151 157.381C212.407 156.959 207.513 156.75 202.5 156.75C145.75 156.75 106.75 180.25 86.75 233.5C82.5 243 75.75 247.25 65.5 247.25C52.5 247.25 43.5 238.5 43.5 224.5C43.5 217 46 207 50.25 197.75C71.75 147 129.75 112.25 203.5 112.25C218.36 112.25 232.301 113.538 245.25 116.133Z" fill="black" fill-opacity="0.85"/>
  <path d="M485.25 617.5C653.75 617.5 794 477.25 794 308.75C794 140.25 653.5 0 484.75 0C316.5 0 176.5 140 176.5 308.75C176.5 477.25 316.75 617.5 485.25 617.5ZM485.25 572.75C338.5 572.75 221.75 455.75 221.75 308.75C221.75 161.75 338 44.75 484.75 44.75C631.75 44.75 748.75 161.75 749.25 308.75C749.75 455.5 632.25 572.75 485.25 572.75ZM511.5 591L569.75 590.5L569.75 225.5C569.75 127.25 509 62.25 406.5 51.25C393.25 50 379.5 49.5 366.25 50L305.25 111.5C325 105.25 346.5 102.25 372 102.25C457.75 102.25 508.5 150.5 508.5 231.25L508.5 279L337.25 290C285.5 293.25 244 305.5 213.75 325.25L225.75 389.5C247 360 288 342.25 345 338.25L508.5 326.75L508.5 391C508.5 470.25 444.75 534.5 360.25 544.75L408 583.25C454 566 490.75 535.25 507.75 496.75L511.5 496.75Z" fill="black" fill-opacity="0.85"/>
 </g>
</svg>
