<?xml version="1.0" encoding="UTF-8"?>
<!--Generator: Apple Native CoreSVG 326-->
<!DOCTYPE svg
PUBLIC "-//W3C//DTD SVG 1.1//EN"
       "http://www.w3.org/Graphics/SVG/1.1/DTD/svg11.dtd">
<svg version="1.1" xmlns="http://www.w3.org/2000/svg" xmlns:xlink="http://www.w3.org/1999/xlink" viewBox="0 0 679.25 630.75">
 <g>
  <rect height="630.75" opacity="0" width="679.25" x="0" y="0"/>
  <path d="M222.75 212C281.25 212 328.5 164.5 328.5 106C328.5 47.5 281.25 0 222.75 0C164 0 116.75 47.5 116.75 106C116.75 164.5 164 212 222.75 212ZM222.75 167.75C188.75 167.75 161 140 161 106C161 72 188.75 44.5 222.75 44.5C256.5 44.5 284.25 72 284.25 106C284.25 140 256.5 167.75 222.75 167.75ZM456.5 212C515.25 212 562.5 164.5 562.5 106C562.5 47.5 515.25 0 456.5 0C398 0 350.75 47.5 350.75 106C350.75 164.5 398 212 456.5 212ZM456.5 167.75C422.75 167.75 395 140 395 106C395 72 422.75 44.5 456.5 44.5C490.5 44.5 518.25 72 518.25 106C518.25 140 490.5 167.75 456.5 167.75ZM106 421C164.5 421 211.75 373.75 211.75 315.25C211.75 256.5 164.5 209.25 106 209.25C47.25 209.25 0 256.5 0 315.25C0 373.75 47.25 421 106 421ZM106 376.75C72 376.75 44.25 349 44.25 315.25C44.25 281.25 72 253.5 106 253.5C139.75 253.5 167.5 281.25 167.5 315.25C167.5 349 139.75 376.75 106 376.75ZM573.25 421C632 421 679.25 373.75 679.25 315.25C679.25 256.5 632 209.25 573.25 209.25C514.75 209.25 467.5 256.5 467.5 315.25C467.5 373.75 514.75 421 573.25 421ZM573.25 376.75C539.5 376.75 511.75 349 511.75 315.25C511.75 281.25 539.5 253.5 573.25 253.5C607.25 253.5 635 281.25 635 315.25C635 349 607.25 376.75 573.25 376.75ZM222.75 630.5C281.25 630.5 328.5 583.25 328.5 524.5C328.5 466 281.25 418.75 222.75 418.75C164 418.75 116.75 466 116.75 524.5C116.75 583.25 164 630.5 222.75 630.5ZM222.75 586.25C188.75 586.25 161 558.5 161 524.5C161 490.75 188.75 463 222.75 463C256.5 463 284.25 490.75 284.25 524.5C284.25 558.5 256.5 586.25 222.75 586.25ZM456.5 630.5C515.25 630.5 562.5 583.25 562.5 524.5C562.5 466 515.25 418.75 456.5 418.75C398 418.75 350.75 466 350.75 524.5C350.75 583.25 398 630.5 456.5 630.5ZM456.5 586.25C422.75 586.25 395 558.5 395 524.5C395 490.75 422.75 463 456.5 463C490.5 463 518.25 490.75 518.25 524.5C518.25 558.5 490.5 586.25 456.5 586.25Z" fill="black" fill-opacity="0.85"/>
 </g>
</svg>
