<?xml version="1.0" encoding="UTF-8"?>
<!--Generator: Apple Native CoreSVG 326-->
<!DOCTYPE svg
PUBLIC "-//W3C//DTD SVG 1.1//EN"
       "http://www.w3.org/Graphics/SVG/1.1/DTD/svg11.dtd">
<svg version="1.1" xmlns="http://www.w3.org/2000/svg" xmlns:xlink="http://www.w3.org/1999/xlink" viewBox="0 0 936.323 781.351">
 <g>
  <rect height="781.351" opacity="0" width="936.323" x="0" y="0"/>
  <path d="M701.036 354.3L700.465 365.635C699.038 366.389 697.645 367.195 696.286 368.05C683.751 359.861 669.428 356.029 654.422 356.582C654.533 355.84 654.536 355.071 654.536 354.3C654.536 200.05 529.786 75.3004 375.536 75.3004C221.286 75.3004 96.5365 200.05 96.5365 354.3C96.5365 508.8 221.286 633.55 375.536 633.55C412.904 633.55 448.541 626.229 481.027 612.806L510.887 650.292C469.789 669.502 423.893 680.05 375.536 680.05C195.786 680.05 50.0365 534.3 50.0365 354.3C50.0365 174.55 195.786 28.8004 375.536 28.8004C555.286 28.8004 701.036 174.55 701.036 354.3Z" fill="black" fill-opacity="0.85"/>
  <path d="M473.786 354.3C473.786 408.55 429.786 452.8 375.536 452.8C321.286 452.8 277.286 408.55 277.286 354.3C277.286 300.3 321.286 256.05 375.536 256.05C429.786 256.05 473.786 300.3 473.786 354.3Z" fill="black" fill-opacity="0.85"/>
  <path d="M784.036 729.8C886.786 692.55 920.286 610.05 880.036 498.05L864.286 453.8C849.286 412.05 819.536 394.05 796.786 402.05C791.286 404.3 789.786 408.05 791.286 413.05L799.286 434.3C802.536 443.05 799.286 448.8 794.036 450.8C788.536 452.8 782.286 450.05 779.286 441.3L774.036 426.8C765.286 402.55 743.536 391.8 722.036 399.8C712.036 403.55 709.286 408.8 712.286 417.3L722.786 445.8C726.036 454.05 723.036 460.3 718.036 462.05C712.286 464.3 706.036 461.55 703.036 453.05L693.536 426.3C683.286 398.3 662.036 391.3 641.536 398.8C632.536 402.05 629.036 408.3 632.036 416.05L651.786 471.55C655.036 480.3 652.036 486.05 647.036 488.05C641.536 490.05 635.286 487.3 632.036 478.55L567.286 299.8C560.536 281.8 545.036 274.8 530.286 280.3C514.286 285.8 507.286 301.55 513.786 319.05L608.036 577.3C610.036 583.3 607.036 588.55 603.036 589.8C599.286 591.05 595.036 590.05 590.036 584.8L525.536 515.55C515.286 505.05 505.536 502.8 495.286 506.8C478.786 512.8 473.036 527.55 477.786 541.3C479.286 546.3 482.286 550.55 485.286 554.3L566.786 656.8C631.786 738.55 709.286 757.05 784.036 729.8Z" fill="black" fill-opacity="0.85"/>
 </g>
</svg>
