<?xml version="1.0" encoding="UTF-8"?>
<!--Generator: Apple Native CoreSVG 326-->
<!DOCTYPE svg
PUBLIC "-//W3C//DTD SVG 1.1//EN"
       "http://www.w3.org/Graphics/SVG/1.1/DTD/svg11.dtd">
<svg version="1.1" xmlns="http://www.w3.org/2000/svg" xmlns:xlink="http://www.w3.org/1999/xlink" viewBox="0 0 989.25 756.25">
 <g>
  <rect height="756.25" opacity="0" width="989.25" x="0" y="0"/>
  <path d="M683 681.25C745.25 681.25 770.5 650.25 770.5 614.75C770.5 548.5 708.25 510.5 594.25 510.5C567 510.5 551.5 512 538.75 514L516 460C464.75 340.5 387.5 302 308.5 302C295.5 302 280.5 302.5 268.25 305.25C254.5 308.5 249 315.5 249 325C249 335.75 257 342.5 268.25 342C281.25 341.25 291.5 339.75 306.75 339.75C379.75 339.75 435 377 484.25 486.75L514.25 555C538 550.25 559 546.25 595.25 546.25C664.75 546.25 729.5 567.25 729.5 611.75C729.5 628.75 712.25 640.75 683 640.75C653 640.75 629.25 632.25 600.75 632.25C561.5 632.25 537.25 639.5 517 639.5C500.5 639.5 482.75 636 465 622L324.25 506.25C223.25 511 146.75 484.75 102 419.25C67.5 422.5 43.5 408.5 43.5 380.75C43.5 355.5 65 338.5 100.5 340.5C135 230.75 208.25 178.5 309.5 178.5C413.25 178.5 514.5 256.25 596.5 303.75C621.5 318.75 644.25 324 662 324C694.5 324 720.25 303 748.25 259.25L537.5 130.75C507.25 113 476.5 89 476.5 79.25C476.5 59.25 521.75 42.75 557.75 42.75C610.25 42.75 655.75 73.5 694.5 122.5L790.25 241.75C879.75 235.25 951.25 307.75 951.25 399C951.25 456.75 925 474.75 854.25 474.75C810 474.75 761.75 456.25 723.5 428.25C662.25 448 600.75 478.5 552.5 515L583.5 534.5C630.75 506.25 682 481.75 716 466.75C754.75 495 809.75 511.75 853 511.5C940.5 511 989.25 484 989.25 398.75C989.25 290.25 905.75 206.5 809.5 207.5L737.75 108.25C687 39 628.75 0 557.25 0C500 0 427 31.5 427 74C427 108 466.75 133.75 512.5 162.25C563.25 193.5 627.25 230.5 687.5 265.5C675.75 276.5 668.5 281.25 659 281.25C647 281.25 632.75 276 611.75 263.5C489.25 193.25 411 134.75 310 134.75C193 134.75 107.5 196 66.25 312.25C26.75 319.5 0 344.75 0 384C0 431.25 37.75 456.75 80 459C115 513.5 199.75 553.75 306 545.5L443.25 656.5C463.5 672.5 485.25 681.25 516 681.25C541.75 681.25 564.75 672 602 672C637 672 654.75 681.25 683 681.25ZM290.75 715.5C355.5 715.5 415.25 699.25 463 647L428.75 623.5C397 660.75 347.75 677.5 289.5 677.5C241.75 677.5 211.5 660.25 211.5 632.5C211.5 618.25 221 607.5 241.25 607.5C260.5 607.5 281.25 614.25 306 614.25C342.25 614.25 364.75 609.5 387.5 588.25L356.75 561.25C340.25 575.25 328.5 578.75 312.5 578.75C288.75 578.5 267.75 570.5 243.5 570.5C200.75 570.5 171.5 595.5 171.5 632.25C171.5 685.25 218.75 715.5 290.75 715.5ZM834.25 376.75C849.5 376.75 862 364.25 862 349C862 333.75 849.5 321.25 834.25 321.25C819.25 321.25 806.75 333.75 806.75 349C806.75 364.25 819.25 376.75 834.25 376.75Z" fill="black" fill-opacity="0.85"/>
 </g>
</svg>
