<?xml version="1.0" encoding="UTF-8"?>
<!--Generator: Apple Native CoreSVG 326-->
<!DOCTYPE svg
PUBLIC "-//W3C//DTD SVG 1.1//EN"
       "http://www.w3.org/Graphics/SVG/1.1/DTD/svg11.dtd">
<svg version="1.1" xmlns="http://www.w3.org/2000/svg" xmlns:xlink="http://www.w3.org/1999/xlink" viewBox="0 0 651.25 651.75">
 <g>
  <rect height="651.75" opacity="0" width="651.25" x="0" y="0"/>
  <path d="M325.5 651.25C505.25 651.25 651.25 505.5 651.25 325.75C651.25 146 505.25 0 325.5 0C145.75 0 0 146 0 325.75C0 505.5 145.75 651.25 325.5 651.25ZM325.5 604.75C171.25 604.75 46.5 480 46.5 325.75C46.5 171.5 171.25 46.75 325.5 46.75C479.75 46.75 604.5 171.5 604.5 325.75C604.5 480 479.75 604.75 325.5 604.75Z" fill="black" fill-opacity="0.85"/>
  <path d="M336.5 463.5C347 463.5 357 458.5 376.75 458.5C396.25 458.5 402 463.5 417 463.5C439.5 463.5 451.5 454.75 451.5 439.5C451.5 413.25 421.5 395.5 376.5 395.5C354 395.5 343.75 397.5 331.25 400.75L315.25 363.75C299 326.5 272.5 304.25 236 304.25L218 304.25C212.25 304.25 208.5 301.75 208.5 296C208.5 287.25 221 284.75 234.5 284.75C278.75 284.75 311.5 309.5 331.5 358L342 384C352 381.75 363.75 380.75 375 380.75C384 380.75 391.25 381.25 400 382.5C409.25 375.75 419.75 368.25 434.5 359.75C451.75 372.5 472.25 380.5 493.5 380.5C534.75 380.5 553.75 371.25 553.75 332.75C553.75 283.75 516.75 247.25 472.25 248.75L431.75 193.75C409.75 164 382 149.25 354.5 149.25C332.25 149.25 300.25 162.25 300.25 180C300.25 192.25 324.25 208.5 343.75 220L432 273C423.25 281.25 416.5 285 409 285C397.5 285 386 279 368 268.25C321.25 241.5 285 215.25 236.25 215.25C185.5 215.25 147 244 126.5 300C110 300.5 97.5 311 97.5 326.5C97.5 344.25 111.75 355 131 355.5C152.75 386.5 189 399 232.5 399C235 399 237.25 398.75 239.25 398.75L300.5 448.25C315.75 460.75 324.75 463.5 336.5 463.5ZM224.75 474.25C253.75 474.25 272 468.75 287 459L239.75 420.25C237.25 420.25 234.75 420.5 231.5 420.5C224.5 420.5 211.75 418.75 199.25 418.75C182.25 418.75 172.5 427.5 172.5 440.5C172.5 460.75 192 474.25 224.75 474.25ZM489 325C482.5 325 477.5 319 477.5 312.75C477.5 306 483 300.25 489.25 300.25C496.25 300.25 501.25 305.5 501.25 312C501.25 318.5 495.75 325 489 325Z" fill="black" fill-opacity="0.85"/>
 </g>
</svg>
