<?xml version="1.0" encoding="UTF-8"?>
<!--Generator: Apple Native CoreSVG 326-->
<!DOCTYPE svg
PUBLIC "-//W3C//DTD SVG 1.1//EN"
       "http://www.w3.org/Graphics/SVG/1.1/DTD/svg11.dtd">
<svg version="1.1" xmlns="http://www.w3.org/2000/svg" xmlns:xlink="http://www.w3.org/1999/xlink" viewBox="0 0 704.25 701.25">
 <g>
  <rect height="701.25" opacity="0" width="704.25" x="0" y="0"/>
  <path d="M704.25 183L704.25 438C704.25 527 653.75 578.5 563.25 578.5L333.5 578.5L216.75 683.75C204 695.5 195.75 701.25 184.75 701.25C168.75 701.25 159.5 689.75 159.5 672.25L159.5 578.5L141 578.5C50.25 578.5 0 527.5 0 438L0 183C0 93.5 50.25 42 141 42L563.25 42C653.75 42 704.25 93.75 704.25 183ZM196.25 340.5C174.5 340.5 163.5 351.25 163.5 373.25L163.5 422.5C163.5 445 174.5 455.5 196.25 455.5L326.5 455.5C348.25 455.5 359.25 445 359.25 422.5L359.25 373.25C359.25 351.25 348.25 340.5 326.5 340.5ZM433.25 188.25C411.5 188.25 400.25 199 400.25 221L400.25 402.25C400.25 424.5 411.5 435 433.25 435L541.25 435C563.25 435 574.25 424.5 574.25 402.25L574.25 221C574.25 199 563.25 188.25 541.25 188.25ZM155.75 165.25C133.75 165.25 122.5 175.5 122.5 197.75L122.5 268.25C122.5 290.25 133.75 301 155.75 301L306.25 301C328 301 339.5 290.25 339.5 268.25L339.5 197.75C339.5 175.5 328 165.25 306.25 165.25Z" fill="black" fill-opacity="0.85"/>
 </g>
</svg>
