<?xml version="1.0" encoding="UTF-8"?>
<!--Generator: Apple Native CoreSVG 326-->
<!DOCTYPE svg
PUBLIC "-//W3C//DTD SVG 1.1//EN"
       "http://www.w3.org/Graphics/SVG/1.1/DTD/svg11.dtd">
<svg version="1.1" xmlns="http://www.w3.org/2000/svg" xmlns:xlink="http://www.w3.org/1999/xlink" viewBox="0 0 632 615.75">
 <g>
  <rect height="615.75" opacity="0" width="632" x="0" y="0"/>
  <path d="M504.5 615.25L579 615.25C612.5 615.25 632 596.25 632 561.25L632 488.75C632 453.75 612.5 434.75 579 434.75L504.5 434.75C471 434.75 451.5 453.75 451.5 488.75L451.5 561.25C451.5 596.25 471 615.25 504.5 615.25ZM509.25 576.75C496.25 576.75 489.75 570.25 489.75 556.75L489.75 493C489.75 479.5 496.25 473 509.25 473L574 473C587 473 593.5 479.5 593.5 493L593.5 556.75C593.5 570.25 587 576.75 574 576.75Z" fill="black" fill-opacity="0.85"/>
  <path d="M278.5 615.25L353.25 615.25C386.75 615.25 406 596.25 406 561.25L406 488.75C406 453.75 386.75 434.75 353.25 434.75L278.5 434.75C245 434.75 225.75 453.75 225.75 488.75L225.75 561.25C225.75 596.25 245 615.25 278.5 615.25ZM283.25 576.75C270.25 576.75 264 570.25 264 556.75L264 493C264 479.5 270.25 473 283.25 473L348.25 473C361.25 473 367.75 479.5 367.75 493L367.75 556.75C367.75 570.25 361.25 576.75 348.25 576.75Z" fill="black" fill-opacity="0.85"/>
  <path d="M53 615.25L127.5 615.25C161 615.25 180.25 596.25 180.25 561.25L180.25 488.75C180.25 453.75 161 434.75 127.5 434.75L53 434.75C19.5 434.75 0 453.75 0 488.75L0 561.25C0 596.25 19.5 615.25 53 615.25ZM57.75 576.75C44.5 576.75 38.5 570.25 38.5 556.75L38.5 493C38.5 479.5 44.5 473 57.75 473L122.25 473C135.5 473 142 479.5 142 493L142 556.75C142 570.25 135.5 576.75 122.25 576.75Z" fill="black" fill-opacity="0.85"/>
  <path d="M504.5 397.75L579 397.75C612.5 397.75 632 379 632 344L632 271.25C632 236.25 612.5 217.5 579 217.5L504.5 217.5C471 217.5 451.5 236.25 451.5 271.25L451.5 344C451.5 379 471 397.75 504.5 397.75ZM509.25 359.5C496.25 359.5 489.75 353 489.75 339.5L489.75 275.5C489.75 262.25 496.25 255.75 509.25 255.75L574 255.75C587 255.75 593.5 262.25 593.5 275.5L593.5 339.5C593.5 353 587 359.5 574 359.5Z" fill="black" fill-opacity="0.85"/>
  <path d="M278.5 397.75L353.25 397.75C386.75 397.75 406 379 406 344L406 271.25C406 236.25 386.75 217.5 353.25 217.5L278.5 217.5C245 217.5 225.75 236.25 225.75 271.25L225.75 344C225.75 379 245 397.75 278.5 397.75ZM283.25 359.5C270.25 359.5 264 353 264 339.5L264 275.5C264 262.25 270.25 255.75 283.25 255.75L348.25 255.75C361.25 255.75 367.75 262.25 367.75 275.5L367.75 339.5C367.75 353 361.25 359.5 348.25 359.5Z" fill="black" fill-opacity="0.85"/>
  <path d="M53 397.75L127.5 397.75C161 397.75 180.25 379 180.25 344L180.25 271.25C180.25 236.25 161 217.5 127.5 217.5L53 217.5C19.5 217.5 0 236.25 0 271.25L0 344C0 379 19.5 397.75 53 397.75ZM57.75 359.5C44.5 359.5 38.5 353 38.5 339.5L38.5 275.5C38.5 262.25 44.5 255.75 57.75 255.75L122.25 255.75C135.5 255.75 142 262.25 142 275.5L142 339.5C142 353 135.5 359.5 122.25 359.5Z" fill="black" fill-opacity="0.85"/>
  <path d="M504.5 180.5L579 180.5C612.5 180.5 632 161.5 632 126.5L632 54C632 19 612.5 0 579 0L504.5 0C471 0 451.5 19 451.5 54L451.5 126.5C451.5 161.5 471 180.5 504.5 180.5ZM509.25 142.25C496.25 142.25 489.75 135.75 489.75 122L489.75 58.25C489.75 45 496.25 38.5 509.25 38.5L574 38.5C587 38.5 593.5 45 593.5 58.25L593.5 122C593.5 135.75 587 142.25 574 142.25Z" fill="black" fill-opacity="0.85"/>
  <path d="M278.5 180.5L353 180.5C386.5 180.5 406 161.5 406 126.5L406 54C406 19 386.5 0 353 0L278.5 0C245 0 225.5 19 225.5 54L225.5 126.5C225.5 161.5 245 180.5 278.5 180.5Z" fill="black" fill-opacity="0.85"/>
  <path d="M53 180.5L127.5 180.5C161 180.5 180.25 161.5 180.25 126.5L180.25 54C180.25 19 161 0 127.5 0L53 0C19.5 0 0 19 0 54L0 126.5C0 161.5 19.5 180.5 53 180.5ZM57.75 142.25C44.5 142.25 38.5 135.75 38.5 122L38.5 58.25C38.5 45 44.5 38.5 57.75 38.5L122.25 38.5C135.5 38.5 142 45 142 58.25L142 122C142 135.75 135.5 142.25 122.25 142.25Z" fill="black" fill-opacity="0.85"/>
 </g>
</svg>
