<?xml version="1.0" encoding="UTF-8"?>
<!--Generator: Apple Native CoreSVG 326-->
<!DOCTYPE svg
PUBLIC "-//W3C//DTD SVG 1.1//EN"
       "http://www.w3.org/Graphics/SVG/1.1/DTD/svg11.dtd">
<svg version="1.1" xmlns="http://www.w3.org/2000/svg" xmlns:xlink="http://www.w3.org/1999/xlink" viewBox="0 0 660 592.25">
 <g>
  <rect height="592.25" opacity="0" width="660" x="0" y="0"/>
  <path d="M25.75 592.25L182.5 592.25C209 592.25 230.75 577.5 241.25 553.75L458.75 65.5C463.75 54.75 472.5 49.5 485.75 49.5L634.25 49.5C648.5 49.5 660 38.25 660 24.75C660 11 648.5 0 634.25 0L474.5 0C446 0 427.25 12.25 416.25 37.25L198.25 526C193.25 536.75 183.75 542.75 172 542.75L25.75 542.75C11.25 542.75 0 553.75 0 567.5C0 581.5 11.25 592.25 25.75 592.25ZM416 592.25L634.25 592.25C648.75 592.25 659.75 581.75 659.75 567.75C659.75 554 648.75 543.25 634.25 543.25L416 543.25C401.5 543.25 390.5 554 390.5 567.75C390.5 581.75 401.5 592.25 416 592.25Z" fill="black" fill-opacity="0.85"/>
 </g>
</svg>
