<?xml version="1.0" encoding="UTF-8"?>
<!--Generator: Apple Native CoreSVG 326-->
<!DOCTYPE svg
PUBLIC "-//W3C//DTD SVG 1.1//EN"
       "http://www.w3.org/Graphics/SVG/1.1/DTD/svg11.dtd">
<svg version="1.1" xmlns="http://www.w3.org/2000/svg" xmlns:xlink="http://www.w3.org/1999/xlink" viewBox="0 0 484 656.25">
 <g>
  <rect height="656.25" opacity="0" width="484" x="0" y="0"/>
  <path d="M484 291.75C484 285.25 481.75 279.75 476.5 274.25L260.25 58C255 52.5 248.75 49.75 242 49.75C235.25 49.75 229 52.5 223.75 58L7.5 274.25C2.25 279.75 0 285.25 0 291.75C0 305.5 10 315.75 23.5 315.75C30 315.75 36.5 313.5 40.75 309.25L129.5 221.5L235.25 106.75L220.5 101.5L217.75 192.5L217.75 632.25C217.75 646.25 227.75 656.25 242 656.25C256.25 656.25 266.25 646.25 266.25 632.25L266.25 192.5L263.5 101.5L249 106.75L354.5 221.5L443.25 309.25C447.5 313.5 454 315.75 460.5 315.75C474 315.75 484 305.5 484 291.75ZM484 25.75C484 11.5 474.25 1.25 460.25 1.25L24.25 1.25C10 1.25 0 11.5 0 25.75C0 39.75 10 50 24.25 50L460.25 50C474.25 50 484 39.75 484 25.75Z" fill="black" fill-opacity="0.85"/>
 </g>
</svg>
