<?xml version="1.0" encoding="UTF-8"?>
<!--Generator: Apple Native CoreSVG 326-->
<!DOCTYPE svg
PUBLIC "-//W3C//DTD SVG 1.1//EN"
       "http://www.w3.org/Graphics/SVG/1.1/DTD/svg11.dtd">
<svg version="1.1" xmlns="http://www.w3.org/2000/svg" xmlns:xlink="http://www.w3.org/1999/xlink" viewBox="0 0 484 656.25">
 <g>
  <rect height="656.25" opacity="0" width="484" x="0" y="0"/>
  <path d="M484 365.5C484 352 474 341.75 460.5 341.75C454 341.75 447.5 344 443.25 348.25L354.5 436L249 550.75L263.5 556L266.25 465L266.25 25C266.25 11 256.25 1 242 1C227.75 1 217.75 11 217.75 25L217.75 465L220.5 556L235.25 550.75L129.5 436L40.75 348.25C36.5 344 30 341.75 23.5 341.75C10 341.75 0 352 0 365.5C0 372 2.25 377.75 7.5 383.25L223.75 599.5C229 604.75 235.25 607.75 242 607.75C248.75 607.75 255 604.75 260.25 599.5L476.5 383.25C481.75 377.75 484 372 484 365.5ZM484 631.75C484 617.75 474.25 607.25 460.25 607.25L24.25 607.25C10 607.25 0 617.75 0 631.75C0 646 10 656.25 24.25 656.25L460.25 656.25C474.25 656.25 484 646 484 631.75Z" fill="black" fill-opacity="0.85"/>
 </g>
</svg>
