<?xml version="1.0" encoding="UTF-8"?>
<!--Generator: Apple Native CoreSVG 326-->
<!DOCTYPE svg
PUBLIC "-//W3C//DTD SVG 1.1//EN"
       "http://www.w3.org/Graphics/SVG/1.1/DTD/svg11.dtd">
<svg version="1.1" xmlns="http://www.w3.org/2000/svg" xmlns:xlink="http://www.w3.org/1999/xlink" viewBox="0 0 488 565.25">
 <g>
  <rect height="565.25" opacity="0" width="488" x="0" y="0"/>
  <path d="M244 0C229.75 0 219.75 10 219.75 24.25L219.75 373L221.75 442.5L130.5 343.75L44 258C39.5 253.25 32.75 250.75 26 250.75C12.25 250.75 2.25 261.25 2.25 274.75C2.25 282 5.25 288 10.75 293.75L225.75 508.75C231 514.25 237.25 517.25 244 517.25C250.75 517.25 257.25 514.25 262.5 508.75L477.5 293.75C483 288 486 282 486 274.75C486 261.25 476 250.75 462.25 250.75C455.5 250.75 449 253.25 444.25 258L357.75 343.75L266.5 442.25L268.5 373L268.5 24.25C268.5 10 258.25 0 244 0ZM23.75 516.25C9.5 516.25 0 526.5 0 540.75C0 555 9.5 565.25 23.75 565.25L464 565.25C478.25 565.25 488 555 488 540.75C488 526.5 478.25 516.25 464 516.25Z" fill="black" fill-opacity="0.85"/>
 </g>
</svg>
