<?xml version="1.0" encoding="UTF-8"?>
<!--Generator: Apple Native CoreSVG 326-->
<!DOCTYPE svg
PUBLIC "-//W3C//DTD SVG 1.1//EN"
       "http://www.w3.org/Graphics/SVG/1.1/DTD/svg11.dtd">
<svg version="1.1" xmlns="http://www.w3.org/2000/svg" xmlns:xlink="http://www.w3.org/1999/xlink" viewBox="0 0 565 501.25">
 <g>
  <rect height="501.25" opacity="0" width="565" x="0" y="0"/>
  <path d="M48.75 464.5L48.75 24.25C48.75 10 38.75 0 24.5 0C10 0 0 10 0 24.25L0 464.5C0 478.5 10 488.25 24.5 488.25C38.75 488.25 48.75 478.5 48.75 464.5ZM565 244C565 229.75 555.25 219.75 541 219.75L192.25 219.75L123 221.75L221.25 130.5L307.25 44C312 39.25 314.5 32.5 314.5 26C314.5 12.25 304 2 290.5 2C283.25 2 277.25 5 271.5 10.75L56.5 225.75C51 231 48 237.25 48 244C48 251 51 257.25 56.5 262.5L271.5 477.25C277.25 483 283.25 486 290.5 486C304 486 314.5 476 314.5 462.25C314.5 455.5 312 448.75 307.25 444.25L221.25 357.75L122.75 266.5L192.25 268.5L541 268.5C555.25 268.5 565 258.5 565 244Z" fill="black" fill-opacity="0.85"/>
 </g>
</svg>
