<?xml version="1.0" encoding="UTF-8"?>
<!--Generator: Apple Native CoreSVG 326-->
<!DOCTYPE svg
PUBLIC "-//W3C//DTD SVG 1.1//EN"
       "http://www.w3.org/Graphics/SVG/1.1/DTD/svg11.dtd">
<svg version="1.1" xmlns="http://www.w3.org/2000/svg" xmlns:xlink="http://www.w3.org/1999/xlink" viewBox="0 0 674 667.25">
 <g>
  <rect height="667.25" opacity="0" width="674" x="0" y="0"/>
  <path d="M220.25 470.75L453.75 470.75C487.75 470.75 504.5 454.25 504.5 420.25L504.5 344.25L631.25 344.25C655.25 344.25 674 329.75 674 307.75C674 294 667.25 283.25 654.25 272L375.25 26C361 13.5 350.25 6.5 337 6.5C323.75 6.5 313 13.5 298.75 26L19.75 272.25C6.25 284 0 294 0 307.75C0 329.75 18.75 344.25 42.75 344.25L169.5 344.25L169.5 420.25C169.5 454.25 186.25 470.75 220.25 470.75ZM217.75 667.25L456.25 667.25C486.5 667.25 504.5 649.5 504.5 619.25L504.5 572.25C504.5 542.25 486.5 524.25 456.25 524.25L217.75 524.25C187.5 524.25 169.5 542.25 169.5 572.25L169.5 619.25C169.5 649.5 187.5 667.25 217.75 667.25Z" fill="black" fill-opacity="0.85"/>
 </g>
</svg>
