<?xml version="1.0" encoding="UTF-8"?>
<!--Generator: Apple Native CoreSVG 326-->
<!DOCTYPE svg
PUBLIC "-//W3C//DTD SVG 1.1//EN"
       "http://www.w3.org/Graphics/SVG/1.1/DTD/svg11.dtd">
<svg version="1.1" xmlns="http://www.w3.org/2000/svg" xmlns:xlink="http://www.w3.org/1999/xlink" viewBox="0 0 674 667.25">
 <g>
  <rect height="667.25" opacity="0" width="674" x="0" y="0"/>
  <path d="M233.5 469.5L440.5 469.5C481.5 469.5 504.5 444.75 504.5 405.75L504.5 344.25L631.25 344.25C655.25 344.25 674 329.75 674 307.75C674 294 667.25 283.25 654.25 272L375.25 26C361 13.5 350.25 6.5 337 6.5C323.75 6.5 313 13.5 298.75 26L19.75 272.25C6.25 284 0 294 0 307.75C0 329.75 18.75 344.25 42.75 344.25L169.5 344.25L169.5 405.75C169.5 444.75 192.25 469.5 233.5 469.5ZM237.5 427.75C224.5 427.75 215.25 418.75 215.25 405.75L215.25 312.75C215.25 305.25 212.5 302.5 205 302.5L63 302.5C60 302.5 58.5 301 58.5 299C58.5 297.5 59 296 61 294.25L327.5 62C331.75 58 334 56.75 337 56.75C340 56.75 342.25 58 346.5 62L613 294.25C615 296 615.5 297.5 615.5 299C615.5 301 614 302.5 611 302.5L469 302.5C461.5 302.5 458.5 305.25 458.5 312.75L458.5 405.75C458.5 418.5 449.25 427.75 436.5 427.75ZM221 667.25L450.5 667.25C485 667.25 504.75 648.25 504.75 613.75L504.75 570.25C504.75 535.75 485 515.5 450.5 515.5L221 515.5C186.75 515.5 166.75 536 166.75 570.25L166.75 613.75C166.75 648 186.75 667.25 221 667.25ZM227 628C215.25 628 208.5 622 208.5 610.25L208.5 574C208.5 562 215.25 554.75 227 554.75L444.75 554.75C456.5 554.75 463 562 463 574L463 610.25C463 622 456.5 628 444.75 628Z" fill="black" fill-opacity="0.85"/>
 </g>
</svg>
