<?xml version="1.0" encoding="UTF-8"?>
<!--Generator: Apple Native CoreSVG 326-->
<!DOCTYPE svg
PUBLIC "-//W3C//DTD SVG 1.1//EN"
       "http://www.w3.org/Graphics/SVG/1.1/DTD/svg11.dtd">
<svg version="1.1" xmlns="http://www.w3.org/2000/svg" xmlns:xlink="http://www.w3.org/1999/xlink" viewBox="0 0 587.75 587.75">
 <g>
  <rect height="587.75" opacity="0" width="587.75" x="0" y="0"/>
  <path d="M587.75 96.5L587.75 491.5C587.75 555 555 587.75 490.25 587.75L97.25 587.75C32.75 587.75 0 555.5 0 491.5L0 96.5C0 32.5 32.75 0 97.25 0L490.25 0C555 0 587.75 32.75 587.75 96.5ZM325.75 192.25L325.75 221L258.5 221L258.5 192.25C258.5 154.75 228 124.25 190.5 124.25C152.75 124.25 122.5 154.5 122.5 192.25C122.5 229.5 153 259.75 190.5 259.75L219 259.75L219 327.75L190.5 327.75C153 327.75 122.5 358 122.5 395.5C122.5 433 152.75 463.5 190.5 463.5C228 463.5 258.5 432.75 258.5 395.5L258.5 366.75L325.75 366.75L325.75 395.5C325.75 432.75 356.25 463.5 393.75 463.5C431.5 463.5 461.75 433 461.75 395.5C461.75 358 431.25 327.75 393.75 327.75L365.25 327.75L365.25 259.75L393.75 259.75C431.25 259.75 461.75 229.5 461.75 192.25C461.75 154.5 431.5 124.25 393.75 124.25C356.25 124.25 325.75 154.75 325.75 192.25ZM219 395C219 411 206 424 190.5 424C174.5 424 161.5 411 161.5 395C161.5 379.5 174.75 366.25 190.5 366.25L219 366.25ZM422.75 395C422.75 411 409.75 424 393.75 424C378.25 424 365.25 411 365.25 395L365.25 366.25L393.75 366.25C409.5 366.25 422.75 379.5 422.75 395ZM325.75 328L258.5 328L258.5 259.5L325.75 259.5ZM219 192.25L219 221.25L190.5 221.25C174.5 221.25 161.5 208.25 161.5 192.25C161.5 176.5 174.75 163.25 190.5 163.25C206 163.25 219 176.75 219 192.25ZM422.75 192.25C422.75 208.25 409.75 221.25 393.75 221.25L365.25 221.25L365.25 192.25C365.25 176.75 378.25 163.25 393.75 163.25C409.5 163.25 422.75 176.5 422.75 192.25Z" fill="black" fill-opacity="0.85"/>
 </g>
</svg>
