<?xml version="1.0" encoding="UTF-8"?>
<!--Generator: Apple Native CoreSVG 326-->
<!DOCTYPE svg
PUBLIC "-//W3C//DTD SVG 1.1//EN"
       "http://www.w3.org/Graphics/SVG/1.1/DTD/svg11.dtd">
<svg version="1.1" xmlns="http://www.w3.org/2000/svg" xmlns:xlink="http://www.w3.org/1999/xlink" viewBox="0 0 587.75 587.75">
 <g>
  <rect height="587.75" opacity="0" width="587.75" x="0" y="0"/>
  <path d="M97.25 587.75L490.25 587.75C555 587.75 587.75 555 587.75 491.5L587.75 96.5C587.75 32.75 555 0 490.25 0L97.25 0C32.75 0 0 32.5 0 96.5L0 491.5C0 555.5 32.75 587.75 97.25 587.75ZM98.25 543.5C63.25 543.5 44.25 525 44.25 489L44.25 98.75C44.25 63 63.25 44.25 98.25 44.25L489.5 44.25C523.75 44.25 543.5 63 543.5 98.75L543.5 489C543.5 525 523.75 543.5 489.5 543.5Z" fill="black" fill-opacity="0.85"/>
  <path d="M220.75 260.25L220.75 327.25L192.75 327.25C156.25 327.25 126.5 356.75 126.5 393C126.5 429.75 156.25 459.5 192.75 459.5C229.25 459.5 259 429.5 259 393L259 365L325.25 365L325.25 393C325.25 429.5 355 459.5 391.5 459.5C428 459.5 457.75 429.75 457.75 393C457.75 356.75 428 327.25 391.5 327.25L363.5 327.25L363.5 260.25L391.5 260.25C428 260.25 457.75 230.75 457.75 194.5C457.75 157.75 428 128.25 391.5 128.25C355 128.25 325.25 158 325.25 194.5L325.25 222.75L259 222.75L259 194.5C259 158 229.25 128.25 192.75 128.25C156.25 128.25 126.5 157.75 126.5 194.5C126.5 230.75 156.25 260.25 192.75 260.25ZM259 327.5L259 260L325.25 260L325.25 327.5ZM192.75 223C177 223 164.5 210.25 164.5 194.5C164.5 179 177.25 166 192.75 166C208.25 166 220.75 179.25 220.75 194.5L220.75 223ZM391.5 223L363.5 223L363.5 194.5C363.5 179.25 376 166 391.5 166C407 166 419.75 179 419.75 194.5C419.75 210.25 407.25 223 391.5 223ZM192.75 364.5L220.75 364.5L220.75 392.75C220.75 408.5 208.25 421.25 192.75 421.25C177 421.25 164.5 408.5 164.5 392.75C164.5 377.5 177.25 364.5 192.75 364.5ZM391.5 364.5C407 364.5 419.75 377.5 419.75 392.75C419.75 408.5 407.25 421.25 391.5 421.25C376 421.25 363.5 408.5 363.5 392.75L363.5 364.5Z" fill="black" fill-opacity="0.85"/>
 </g>
</svg>
