<?xml version="1.0" encoding="UTF-8"?>
<!--Generator: Apple Native CoreSVG 326-->
<!DOCTYPE svg
PUBLIC "-//W3C//DTD SVG 1.1//EN"
       "http://www.w3.org/Graphics/SVG/1.1/DTD/svg11.dtd">
<svg version="1.1" xmlns="http://www.w3.org/2000/svg" xmlns:xlink="http://www.w3.org/1999/xlink" viewBox="0 0 651.25 651.75">
 <g>
  <rect height="651.75" opacity="0" width="651.25" x="0" y="0"/>
  <path d="M651.25 326C651.25 505.5 505 651.75 325.5 651.75C146.25 651.75 0 505.5 0 326C0 146.75 146.25 0.5 325.5 0.5C505 0.5 651.25 146.75 651.25 326ZM357.25 224.75L357.25 253.25L290 253.25L290 224.75C290 187.25 259.5 156.5 222 156.5C184.5 156.5 154 187 154 224.75C154 262 184.5 292.25 222 292.25L250.5 292.25L250.5 360.25L222 360.25C184.5 360.25 154 390.5 154 427.75C154 465.5 184.5 495.75 222 495.75C259.5 495.75 290 465.25 290 427.75L290 399L357.25 399L357.25 427.75C357.25 465.25 387.75 495.75 425.25 495.75C463 495.75 493.25 465.5 493.25 427.75C493.25 390.5 462.75 360.25 425.25 360.25L396.75 360.25L396.75 292.25L425.25 292.25C462.75 292.25 493.25 262 493.25 224.75C493.25 187 463 156.5 425.25 156.5C387.75 156.5 357.25 187.25 357.25 224.75ZM250.5 427.5C250.5 443.25 237.75 456.5 222 456.5C206 456.5 193.25 443.5 193.25 427.5C193.25 411.75 206.25 398.5 222 398.5L250.5 398.5ZM454.25 427.5C454.25 443.5 441.25 456.5 425.25 456.5C409.75 456.5 396.75 443.25 396.75 427.5L396.75 398.5L425.25 398.5C441 398.5 454.25 411.75 454.25 427.5ZM357.25 360.5L290 360.5L290 292L357.25 292ZM250.5 224.75L250.5 253.5L222 253.5C206 253.5 193.25 240.5 193.25 224.75C193.25 209 206.25 195.75 222 195.75C237.75 195.75 250.5 209 250.5 224.75ZM454.25 224.75C454.25 240.5 441.25 253.5 425.25 253.5L396.75 253.5L396.75 224.75C396.75 209 409.75 195.75 425.25 195.75C441 195.75 454.25 209 454.25 224.75Z" fill="black" fill-opacity="0.85"/>
 </g>
</svg>
