<?xml version="1.0" encoding="UTF-8"?>
<!--Generator: Apple Native CoreSVG 326-->
<!DOCTYPE svg
PUBLIC "-//W3C//DTD SVG 1.1//EN"
       "http://www.w3.org/Graphics/SVG/1.1/DTD/svg11.dtd">
<svg version="1.1" xmlns="http://www.w3.org/2000/svg" xmlns:xlink="http://www.w3.org/1999/xlink" viewBox="0 0 705.5 588.25">
 <g>
  <rect height="588.25" opacity="0" width="705.5" x="0" y="0"/>
  <path d="M484.25 36.25L676.5 234.75C696.75 255.5 705.5 274 705.5 293.75C705.5 313.5 697 332.25 676.5 353L484 549.25C458.5 575.75 428 588 391 588L113.75 588.25C49.25 588.25 16.25 556 16.25 492L16.25 97C16.25 33 49.25 0.75 113.75 0.75L391.25 0.75C428.25 0.75 458.75 9.5 484.25 36.25ZM395.75 170L303 262.5L210.5 170.25C205.75 166 200.75 163.5 194.25 163.5C181.5 163.5 171.5 173.25 171.5 186.25C171.5 192.25 173.75 198 178.25 202.5L270.5 294.75L178.25 387C173.75 391.5 171.5 397 171.5 403.25C171.5 416 181.5 426.25 194.25 426.25C200.75 426.25 206.5 424 211.25 419.25L303 327L394.75 419.25C399.25 424 405 426.25 411.5 426.25C424.5 426.25 434.5 416 434.5 403.25C434.5 396.75 432.5 391.25 427.75 386.75L335.5 294.75L428 202.25C433 197.25 434.75 192 434.75 185.75C434.75 173 424.75 163 412 163C405.75 163 400.75 165.25 395.75 170Z" fill="black" fill-opacity="0.85"/>
 </g>
</svg>
