<?xml version="1.0" encoding="UTF-8"?>
<!--Generator: Apple Native CoreSVG 326-->
<!DOCTYPE svg
PUBLIC "-//W3C//DTD SVG 1.1//EN"
       "http://www.w3.org/Graphics/SVG/1.1/DTD/svg11.dtd">
<svg version="1.1" xmlns="http://www.w3.org/2000/svg" xmlns:xlink="http://www.w3.org/1999/xlink" viewBox="0 0 624.25 603.75">
 <g>
  <rect height="603.75" opacity="0" width="624.25" x="0" y="0"/>
  <path d="M49.5 371.5L575.25 371.5C602.25 371.5 617.25 357.75 617.75 334C618 322.5 612.25 311 602.75 300.5L353.25 22.5C342.5 10.75 328.5 2.25 312.5 2.25C296 2.25 282.5 10.25 271.25 22.5L22 300.5C12.5 311.25 7.25 322.5 7.25 334C7.25 357.75 22.5 371.5 49.5 371.5ZM77.25 330C70.25 330 67 326.75 67 322C67 319 68 316.5 70.25 314L300.75 58.75C304.25 55 307.75 52.5 312.5 52.5C317.25 52.5 320.75 55 324 58.75L554.25 314C556.75 316.75 558 319 558 322C558 326.75 554.25 330 547.5 330ZM63.75 603.75L560.5 603.75C601.25 603.75 624.25 582 624.25 542L624.25 503.75C624.25 463.75 601.25 442 560.5 442L63.75 442C23 442 0 463.5 0 503.75L0 542C0 582.25 23 603.75 63.75 603.75ZM67 563C52.25 563 44.25 554 44.25 539.5L44.25 506.25C44.25 491.75 52.25 482.75 67 482.75L557.25 482.75C572.25 482.75 580 491.75 580 506.25L580 539.5C580 554 572.25 563 557.25 563Z" fill="black" fill-opacity="0.85"/>
 </g>
</svg>
