<?xml version="1.0" encoding="UTF-8"?>
<!--Generator: Apple Native CoreSVG 326-->
<!DOCTYPE svg
PUBLIC "-//W3C//DTD SVG 1.1//EN"
       "http://www.w3.org/Graphics/SVG/1.1/DTD/svg11.dtd">
<svg version="1.1" xmlns="http://www.w3.org/2000/svg" xmlns:xlink="http://www.w3.org/1999/xlink" viewBox="0 0 651.25 651.75">
 <g>
  <rect height="651.75" opacity="0" width="651.25" x="0" y="0"/>
  <path d="M651.25 325.75C651.25 505 505 651.25 325.5 651.25C146.25 651.25 0 505 0 325.75C0 146.25 146.25 0 325.5 0C505 0 651.25 146.25 651.25 325.75ZM193.75 382.25C174.75 382.25 163.75 392.75 163.75 411.75L163.75 432.5C163.75 451.5 174.75 462 193.75 462L457.25 462C476.25 462 487.25 451.5 487.25 432.5L487.25 411.75C487.25 392.75 476.25 382.25 457.25 382.25ZM306.25 158L173.75 305.75C168.75 310.75 166.5 316 166.75 321.75C167.5 332.75 173.75 339.5 186.5 339.5L464.25 339.5C476.75 339.5 484.5 332.75 484.5 321.75C484.5 316 481.75 311 477 305.75L345 158C340 151.75 333.25 148.25 325.5 148.25C317.75 148.25 311 152.5 306.25 158Z" fill="black" fill-opacity="0.85"/>
 </g>
</svg>
