<?xml version="1.0" encoding="UTF-8"?>
<!--Generator: Apple Native CoreSVG 326-->
<!DOCTYPE svg
PUBLIC "-//W3C//DTD SVG 1.1//EN"
       "http://www.w3.org/Graphics/SVG/1.1/DTD/svg11.dtd">
<svg version="1.1" xmlns="http://www.w3.org/2000/svg" xmlns:xlink="http://www.w3.org/1999/xlink" viewBox="0 0 1025 504.75">
 <g>
  <rect height="504.75" opacity="0" width="1025" x="0" y="0"/>
  <path d="M317.25 504L927.75 504C992.25 504 1025 471.25 1025 407.5L1025 96.5C1025 32.75 992.25 0 927.75 0L317.25 0C252.5 0 219.75 32.5 219.75 96.5L219.75 407.5C219.75 471.5 252.5 504 317.25 504ZM341 174C332 174 326.75 168.5 326.75 159.5L326.75 130.5C326.75 121.5 332 116 341 116L370 116C379 116 384.75 121.5 384.75 130.5L384.75 159.5C384.75 168.5 379 174 370 174ZM447.25 174C438.25 174 433 168.5 433 159.5L433 130.5C433 121.5 438.25 116 447.25 116L476.25 116C485.5 116 491 121.5 491 130.5L491 159.5C491 168.5 485.5 174 476.25 174ZM553.75 174C544.75 174 539.25 168.5 539.25 159.5L539.25 130.5C539.25 121.5 544.75 116 553.75 116L582.5 116C591.75 116 597.25 121.5 597.25 130.5L597.25 159.5C597.25 168.5 591.75 174 582.5 174ZM660.25 174C651 174 645.5 168.5 645.5 159.5L645.5 130.5C645.5 121.5 651 116 660.25 116L689 116C698 116 703.5 121.5 703.5 130.5L703.5 159.5C703.5 168.5 698 174 689 174ZM766.5 174C757.25 174 751.75 168.5 751.75 159.5L751.75 130.5C751.75 121.5 757.25 116 766.5 116L795.25 116C804.5 116 809.75 121.5 809.75 130.5L809.75 159.5C809.75 168.5 804.5 174 795.25 174ZM872.75 174C863.75 174 858 168.5 858 159.5L858 130.5C858 121.5 863.75 116 872.75 116L901.75 116C910.75 116 916 121.5 916 130.5L916 159.5C916 168.5 910.75 174 901.75 174ZM341 280.5C332 280.5 326.75 274.75 326.75 266L326.75 236.75C326.75 228 332 222.25 341 222.25L370 222.25C379 222.25 384.75 228 384.75 236.75L384.75 266C384.75 274.75 379 280.5 370 280.5ZM447.25 280.5C438.25 280.5 433 274.75 433 266L433 236.75C433 228 438.25 222.25 447.25 222.25L476.25 222.25C485.5 222.25 491 228 491 236.75L491 266C491 274.75 485.5 280.5 476.25 280.5ZM553.75 280.5C544.75 280.5 539.25 274.75 539.25 266L539.25 236.75C539.25 228 544.75 222.25 553.75 222.25L582.5 222.25C591.75 222.25 597.25 228 597.25 236.75L597.25 266C597.25 274.75 591.75 280.5 582.5 280.5ZM660.25 280.5C651 280.5 645.5 274.75 645.5 266L645.5 236.75C645.5 228 651 222.25 660.25 222.25L689 222.25C698 222.25 703.5 228 703.5 236.75L703.5 266C703.5 274.75 698 280.5 689 280.5ZM766.5 280.5C757.25 280.5 751.75 274.75 751.75 266L751.75 236.75C751.75 228 757.25 222.25 766.5 222.25L795.25 222.25C804.5 222.25 809.75 228 809.75 236.75L809.75 266C809.75 274.75 804.5 280.5 795.25 280.5ZM872.75 280.5C863.75 280.5 858 274.75 858 266L858 236.75C858 228 863.75 222.25 872.75 222.25L901.75 222.25C910.75 222.25 916 228 916 236.75L916 266C916 274.75 910.75 280.5 901.75 280.5ZM341 386.75C332 386.75 326.75 381.25 326.75 372.25L326.75 343.25C326.75 334.25 332 328.75 341 328.75L370 328.75C379 328.75 384.75 334.25 384.75 343.25L384.75 372.25C384.75 381.25 379 386.75 370 386.75ZM450.25 386.75C439.25 386.75 433 380.25 433 369.5L433 346C433 335 439.25 328.75 450.25 328.75L792.5 328.75C803.5 328.75 809.75 335 809.75 346L809.75 369.5C809.75 380.25 803.5 386.75 792.5 386.75ZM872.75 386.75C863.75 386.75 858 381.25 858 372.25L858 343.25C858 334.25 863.75 328.75 872.75 328.75L901.75 328.75C910.75 328.75 916 334.25 916 343.25L916 372.25C916 381.25 910.75 386.75 901.75 386.75Z" fill="black" fill-opacity="0.85"/>
  <path d="M96.75 399C116.5 426.25 150.75 400.75 134.5 377.5L46 252.25L134.5 127.25C150.75 104.25 116.5 78.5 96.75 105.75L6.75 232C-2.25 244.75-2.25 260 6.75 272.75Z" fill="black" fill-opacity="0.85"/>
 </g>
</svg>
