<?xml version="1.0" encoding="UTF-8"?>
<!--Generator: Apple Native CoreSVG 326-->
<!DOCTYPE svg
PUBLIC "-//W3C//DTD SVG 1.1//EN"
       "http://www.w3.org/Graphics/SVG/1.1/DTD/svg11.dtd">
<svg version="1.1" xmlns="http://www.w3.org/2000/svg" xmlns:xlink="http://www.w3.org/1999/xlink" viewBox="0 0 805.25 504.75">
 <g>
  <rect height="504.75" opacity="0" width="805.25" x="0" y="0"/>
  <path d="M97.25 504L708 504C772.5 504 805.25 471.25 805.25 407.5L805.25 96.5C805.25 32.75 772.5 0 708 0L97.25 0C32.5 0 0 32.5 0 96.5L0 407.5C0 471.5 32.5 504 97.25 504ZM98.25 459.75C63.25 459.75 44.25 441 44.25 405.25L44.25 98.75C44.25 63 63.25 44.5 98.25 44.5L707 44.5C741.25 44.5 761 63 761 98.75L761 405.25C761 441 741.25 459.75 707 459.75Z" fill="black" fill-opacity="0.85"/>
  <path d="M304.75 174.25L327 174.25C332.75 174.25 335.75 170.75 335.75 164.25L335.75 131C335.75 124.5 332.75 121 327 121L304.75 121C299 121 295.75 124.5 295.75 131L295.75 164.25C295.75 170.75 299 174.25 304.75 174.25ZM375.5 174.25L397.75 174.25C403.5 174.25 406.75 170.75 406.75 164.25L406.75 131C406.75 124.5 403.5 121 397.75 121L375.5 121C369.75 121 366.5 124.5 366.5 131L366.5 164.25C366.5 170.75 369.75 174.25 375.5 174.25ZM446.5 174.25L468.75 174.25C474.25 174.25 477.5 170.75 477.5 164.25L477.5 131C477.5 124.5 474.25 121 468.75 121L446.5 121C440.75 121 437.25 124.5 437.25 131L437.25 164.25C437.25 170.75 440.75 174.25 446.5 174.25ZM517 174.25L539.25 174.25C544.75 174.25 548.25 170.75 548.25 164.25L548.25 131C548.25 124.5 544.75 121 539.25 121L517 121C511.25 121 508 124.5 508 131L508 164.25C508 170.75 511.25 174.25 517 174.25ZM587.5 174.25L610.25 174.25C615.75 174.25 619 170.75 619 164.25L619 131C619 124.5 615.75 121 610.25 121L587.5 121C582 121 578.75 124.5 578.75 131L578.75 164.25C578.75 170.75 582 174.25 587.5 174.25ZM658.75 174.25L680.75 174.25C686.5 174.25 689.75 170.75 689.75 164.25L689.75 131C689.75 124.5 686.5 121 680.75 121L658.75 121C652.75 121 649.75 124.5 649.75 131L649.75 164.25C649.75 170.75 652.75 174.25 658.75 174.25ZM304.75 278L327 278C332.75 278 335.75 274.5 335.75 268L335.75 234.75C335.75 228.25 332.75 224.75 327 224.75L304.75 224.75C299 224.75 295.75 228.25 295.75 234.75L295.75 268C295.75 274.5 299 278 304.75 278ZM375.5 278L397.75 278C403.5 278 406.75 274.5 406.75 268L406.75 234.75C406.75 228.25 403.5 224.75 397.75 224.75L375.5 224.75C369.75 224.75 366.5 228.25 366.5 234.75L366.5 268C366.5 274.5 369.75 278 375.5 278ZM446.5 278L468.75 278C474.25 278 477.5 274.5 477.5 268L477.5 234.75C477.5 228.25 474.25 224.75 468.75 224.75L446.5 224.75C440.75 224.75 437.25 228.25 437.25 234.75L437.25 268C437.25 274.5 440.75 278 446.5 278ZM517 278L539.25 278C544.75 278 548.25 274.5 548.25 268L548.25 234.75C548.25 228.25 544.75 224.75 539.25 224.75L517 224.75C511.25 224.75 508 228.25 508 234.75L508 268C508 274.5 511.25 278 517 278ZM587.5 278L610.25 278C615.75 278 619 274.5 619 268L619 234.75C619 228.25 615.75 224.75 610.25 224.75L587.5 224.75C582 224.75 578.75 228.25 578.75 234.75L578.75 268C578.75 274.5 582 278 587.5 278ZM658.75 278L680.75 278C686.5 278 689.75 274.5 689.75 268L689.75 234.75C689.75 228.25 686.5 224.75 680.75 224.75L658.75 224.75C652.75 224.75 649.75 228.25 649.75 234.75L649.75 268C649.75 274.5 652.75 278 658.75 278ZM304.75 381.75L327 381.75C332.75 381.75 335.75 378.25 335.75 371.75L335.75 338.5C335.75 332 332.75 328.5 327 328.5L304.75 328.5C299 328.5 295.75 332 295.75 338.5L295.75 371.75C295.75 378.25 299 381.75 304.75 381.75ZM375.5 381.75L610.25 381.75C615.75 381.75 619 378.25 619 371.75L619 338.5C619 332 615.75 328.5 610.25 328.5L375.5 328.5C369.75 328.5 366.5 332 366.5 338.5L366.5 371.75C366.5 378.25 369.75 381.75 375.5 381.75ZM658.75 381.75L680.75 381.75C686.5 381.75 689.75 378.25 689.75 371.75L689.75 338.5C689.75 332 686.5 328.5 680.75 328.5L658.75 328.5C652.75 328.5 649.75 332 649.75 338.5L649.75 371.75C649.75 378.25 652.75 381.75 658.75 381.75ZM240.5 235.75L142.5 141.75C132.25 132.25 115.5 136.5 115.5 152L115.5 352C115.5 367.5 132.25 371.75 142.5 362.25L240.5 268.25C251 257.75 251 246.25 240.5 235.75Z" fill="black" fill-opacity="0.85"/>
 </g>
</svg>
