<?xml version="1.0" encoding="UTF-8"?>
<!--Generator: Apple Native CoreSVG 326-->
<!DOCTYPE svg
PUBLIC "-//W3C//DTD SVG 1.1//EN"
       "http://www.w3.org/Graphics/SVG/1.1/DTD/svg11.dtd">
<svg version="1.1" xmlns="http://www.w3.org/2000/svg" xmlns:xlink="http://www.w3.org/1999/xlink" viewBox="0 0 805.25 504.75">
 <g>
  <rect height="504.75" opacity="0" width="805.25" x="0" y="0"/>
  <path d="M805.25 96.5L805.25 407.5C805.25 471.25 772.5 504 708 504L97.25 504C32.5 504 0 471.5 0 407.5L0 96.5C0 32.5 32.5 0 97.25 0L708 0C772.5 0 805.25 32.75 805.25 96.5ZM302.25 330.25C296.5 330.25 293 334 293 340.5L293 374.75C293 381.5 296.5 385 302.25 385L325.25 385C331 385 334.25 381.5 334.25 374.75L334.25 340.5C334.25 334 331 330.25 325.25 330.25ZM374.75 330.25C369 330.25 365.5 334 365.5 340.5L365.5 374.75C365.5 381.5 369 385 374.75 385L615.25 385C621 385 624.25 381.5 624.25 374.75L624.25 340.5C624.25 334 621 330.25 615.25 330.25ZM665 330.25C659 330.25 655.75 334 655.75 340.5L655.75 374.75C655.75 381.5 659 385 665 385L687.5 385C693.5 385 697 381.5 697 374.75L697 340.5C697 334 693.5 330.25 687.5 330.25ZM108.5 149.75L108.5 354.5C108.5 370.5 125.5 374.75 136.25 364.75L236.5 268.75C247.25 258 247.25 246 236.5 235.25L136.25 139.25C125.5 129.25 108.5 133.75 108.5 149.75ZM302.25 224C296.5 224 293 227.5 293 234.25L293 268.5C293 275.25 296.5 278.75 302.25 278.75L325.25 278.75C331 278.75 334.25 275.25 334.25 268.5L334.25 234.25C334.25 227.5 331 224 325.25 224ZM374.75 224C369 224 365.5 227.5 365.5 234.25L365.5 268.5C365.5 275.25 369 278.75 374.75 278.75L397.75 278.75C403.5 278.75 407 275.25 407 268.5L407 234.25C407 227.5 403.5 224 397.75 224ZM447.5 224C441.5 224 438 227.5 438 234.25L438 268.5C438 275.25 441.5 278.75 447.5 278.75L470.5 278.75C476 278.75 479.5 275.25 479.5 268.5L479.5 234.25C479.5 227.5 476 224 470.5 224ZM519.75 224C514 224 510.5 227.5 510.5 234.25L510.5 268.5C510.5 275.25 514 278.75 519.75 278.75L542.5 278.75C548.5 278.75 551.75 275.25 551.75 268.5L551.75 234.25C551.75 227.5 548.5 224 542.5 224ZM592 224C586.25 224 583.25 227.5 583.25 234.25L583.25 268.5C583.25 275.25 586.25 278.75 592 278.75L615.25 278.75C621 278.75 624.25 275.25 624.25 268.5L624.25 234.25C624.25 227.5 621 224 615.25 224ZM665 224C659 224 655.75 227.5 655.75 234.25L655.75 268.5C655.75 275.25 659 278.75 665 278.75L687.5 278.75C693.5 278.75 697 275.25 697 268.5L697 234.25C697 227.5 693.5 224 687.5 224ZM302.25 117.75C296.5 117.75 293 121.25 293 128L293 162.25C293 168.75 296.5 172.5 302.25 172.5L325.25 172.5C331 172.5 334.25 168.75 334.25 162.25L334.25 128C334.25 121.25 331 117.75 325.25 117.75ZM374.75 117.75C369 117.75 365.5 121.25 365.5 128L365.5 162.25C365.5 168.75 369 172.5 374.75 172.5L397.75 172.5C403.5 172.5 407 168.75 407 162.25L407 128C407 121.25 403.5 117.75 397.75 117.75ZM447.5 117.75C441.5 117.75 438 121.25 438 128L438 162.25C438 168.75 441.5 172.5 447.5 172.5L470.5 172.5C476 172.5 479.5 168.75 479.5 162.25L479.5 128C479.5 121.25 476 117.75 470.5 117.75ZM519.75 117.75C514 117.75 510.5 121.25 510.5 128L510.5 162.25C510.5 168.75 514 172.5 519.75 172.5L542.5 172.5C548.5 172.5 551.75 168.75 551.75 162.25L551.75 128C551.75 121.25 548.5 117.75 542.5 117.75ZM592 117.75C586.25 117.75 583.25 121.25 583.25 128L583.25 162.25C583.25 168.75 586.25 172.5 592 172.5L615.25 172.5C621 172.5 624.25 168.75 624.25 162.25L624.25 128C624.25 121.25 621 117.75 615.25 117.75ZM665 117.75C659 117.75 655.75 121.25 655.75 128L655.75 162.25C655.75 168.75 659 172.5 665 172.5L687.5 172.5C693.5 172.5 697 168.75 697 162.25L697 128C697 121.25 693.5 117.75 687.5 117.75Z" fill="black" fill-opacity="0.85"/>
 </g>
</svg>
