<?xml version="1.0" encoding="UTF-8"?>
<!--Generator: Apple Native CoreSVG 326-->
<!DOCTYPE svg
PUBLIC "-//W3C//DTD SVG 1.1//EN"
       "http://www.w3.org/Graphics/SVG/1.1/DTD/svg11.dtd">
<svg version="1.1" xmlns="http://www.w3.org/2000/svg" xmlns:xlink="http://www.w3.org/1999/xlink" viewBox="0 0 810.5 440.25">
 <g>
  <rect height="440.25" opacity="0" width="810.5" x="0" y="0"/>
  <path d="M24 429.5L131 429.5C144.25 429.5 155.5 418.5 155.5 405.25C155.5 392.5 144 381.25 131 381.25L24 381.25C11.25 381.25 0 392.5 0 405.25C0 418.25 11.25 429.5 24 429.5ZM226 226.75C235.25 217.25 235.25 202 225.75 192.5L150.75 116.75C141.75 107.5 126 107.5 116.5 116.75C107.25 126 107.5 141.25 116.75 151L191.75 226.75C201 236.25 216.5 236 226 226.75ZM405.25 155C418.25 155 429.5 143.75 429.5 131L429.5 24.25C429.5 11 418.25 0 405.25 0C392.25 0 381 11 381 24.25L381 131C381 143.75 392.25 155 405.25 155ZM584.5 226.75C593.75 236.25 609.25 236.25 618.5 226.75L693.75 151C703.25 141.25 703.25 126.25 693.75 116.75C684.5 107.25 669 107.5 659.75 117L584.5 192.5C575 202 575 217 584.5 226.75ZM679.5 429.5L786.5 429.5C799.25 429.5 810.5 418.25 810.5 405.25C810.5 392.5 799.25 381.25 786.5 381.25L679.5 381.25C666.5 381.25 655 392.5 655 405.25C655 418.5 666.25 429.5 679.5 429.5Z" fill="black" fill-opacity="0.85"/>
  <path d="M280.5 429.75L530 429.75C543.25 429.75 554.75 418.75 554.75 405.75C554.75 392.75 543.5 381.5 530 381.5L280.5 381.5C267 381.5 255.75 392.75 255.75 405.75C255.75 418.75 267.25 429.75 280.5 429.75Z" fill="black" fill-opacity="0.85"/>
 </g>
</svg>
