<?xml version="1.0" encoding="UTF-8"?>
<!--Generator: Apple Native CoreSVG 326-->
<!DOCTYPE svg
PUBLIC "-//W3C//DTD SVG 1.1//EN"
       "http://www.w3.org/Graphics/SVG/1.1/DTD/svg11.dtd">
<svg version="1.1" xmlns="http://www.w3.org/2000/svg" xmlns:xlink="http://www.w3.org/1999/xlink" viewBox="0 0 623.75 752.5">
 <g>
  <rect height="752.5" opacity="0" width="623.75" x="0" y="0"/>
  <path d="M45 277.625L578.5 277.625C620 277.625 625.25 231.625 599.5 211.625L352.75 17.625C322.25-5.875 301.25-5.875 270.75 17.625L24.25 211.625C-1.75 231.625 3.5 277.625 45 277.625ZM86 236.375C77 236.375 74.25 226.375 81.5 220.375L293.75 52.375C303.75 44.625 319.75 44.875 329.75 52.375L542.25 220.375C549.5 226.375 546.75 236.375 537.75 236.375ZM23.5 399.875L600.5 399.875C613 399.875 623.75 388.875 623.75 376.125C623.75 363.125 613 352.125 600.5 352.125L23.5 352.125C10.75 352.125 0 363.125 0 376.125C0 388.875 10.75 399.875 23.5 399.875ZM45 474.375C3.5 474.375-1.75 520.375 24.25 540.375L270.75 734.625C301.25 757.875 322.25 757.875 352.75 734.625L599.5 540.375C625.25 520.375 620 474.375 578.5 474.375ZM86 515.625L537.75 515.625C546.75 515.625 549.5 525.875 542.25 531.625L329.75 699.625C319.75 707.375 303.75 707.625 293.75 699.625L81.5 531.625C74.25 525.875 77 515.625 86 515.625Z" fill="black" fill-opacity="0.85"/>
 </g>
</svg>
