<?xml version="1.0" encoding="UTF-8"?>
<!--Generator: Apple Native CoreSVG 326-->
<!DOCTYPE svg
PUBLIC "-//W3C//DTD SVG 1.1//EN"
       "http://www.w3.org/Graphics/SVG/1.1/DTD/svg11.dtd">
<svg version="1.1" xmlns="http://www.w3.org/2000/svg" xmlns:xlink="http://www.w3.org/1999/xlink" viewBox="0 0 651.25 690.25">
 <g>
  <rect height="690.25" opacity="0" width="651.25" x="0" y="0"/>
  <path d="M325.5 670.5C505.25 670.5 651.25 524.75 651.25 345C651.25 241.25 604.25 158 542.75 103.25C518.5 81 487.5 114.75 511.75 137.25C569.25 188.5 604.5 262.25 604.5 345C604.5 499.25 479.75 624 325.5 624C171.25 624 46.5 499.25 46.5 345C46.5 261.75 82.25 188.25 139.5 137C164 114.25 133.25 81.75 108.5 103.5C46.75 157 0 243.5 0 345C0 524.75 145.75 670.5 325.5 670.5ZM325.5 340.75C338.75 340.75 347.75 331.25 347.75 317.75L347.75 23.5C347.75 9.75 338.75 0 325.5 0C312.5 0 303.5 9.75 303.5 23.5L303.5 317.75C303.5 331.25 312.5 340.75 325.5 340.75Z" fill="black" fill-opacity="0.85"/>
 </g>
</svg>
