<?xml version="1.0" encoding="UTF-8"?>
<!--Generator: Apple Native CoreSVG 326-->
<!DOCTYPE svg
PUBLIC "-//W3C//DTD SVG 1.1//EN"
       "http://www.w3.org/Graphics/SVG/1.1/DTD/svg11.dtd">
<svg version="1.1" xmlns="http://www.w3.org/2000/svg" xmlns:xlink="http://www.w3.org/1999/xlink" viewBox="0 0 651.25 651.75">
 <g>
  <rect height="651.75" opacity="0" width="651.25" x="0" y="0"/>
  <path d="M651.25 325.75C651.25 505 505 651.25 325.5 651.25C146.25 651.25 0 505 0 325.75C0 146.25 146.25 0 325.5 0C505 0 651.25 146.25 651.25 325.75ZM211.75 198.75C175.5 230.5 154.25 277.75 154.25 325.75C154.25 419 232 497 325.75 497C419.5 497 497.25 419 497.25 325.75C497.25 278 476 231 439.75 198.75C420 180.5 393.25 208.75 413.5 227.75C441.25 252.75 457.25 287.75 457.5 325.75C457.5 399 398.75 457.5 325.75 457.5C252.75 457.5 194.25 399 194.25 325.75C194.25 287.75 210 252.75 238 227.5C258.25 208.5 231.5 180.25 211.75 198.75ZM306.75 164.5L306.75 312C306.75 323.5 314.5 331.75 325.75 331.75C337 331.75 345 323.5 345 312L345 164.5C345 153 337 145 325.75 145C314.5 145 306.75 153 306.75 164.5Z" fill="black" fill-opacity="0.85"/>
 </g>
</svg>
