<?xml version="1.0" encoding="UTF-8"?>
<!--Generator: Apple Native CoreSVG 326-->
<!DOCTYPE svg
PUBLIC "-//W3C//DTD SVG 1.1//EN"
       "http://www.w3.org/Graphics/SVG/1.1/DTD/svg11.dtd">
<svg version="1.1" xmlns="http://www.w3.org/2000/svg" xmlns:xlink="http://www.w3.org/1999/xlink" viewBox="0 0 651.25 651.75">
 <g>
  <rect height="651.75" opacity="0" width="651.25" x="0" y="0"/>
  <path d="M325.5 651.25C505.25 651.25 651.25 505.5 651.25 325.75C651.25 146 505.25 0 325.5 0C145.75 0 0 146 0 325.75C0 505.5 145.75 651.25 325.5 651.25ZM325.5 604.75C171.25 604.75 46.5 480 46.5 325.75C46.5 171.5 171.25 46.75 325.5 46.75C479.75 46.75 604.5 171.5 604.5 325.75C604.5 480 479.75 604.75 325.5 604.75Z" fill="black" fill-opacity="0.85"/>
  <path d="M325.5 492.25C417 492.25 492.75 416.5 492.75 325.25C492.75 278.75 472 233 436.75 201.5C417.5 183.75 391.75 211 411.25 229.5C438.5 254 454 288 454.25 325.25C454.25 397 397 454 325.5 454C254 454 197 397 197 325.25C197 288 212.25 254 239.75 229.25C259.5 210.75 233.5 183.5 214.25 201.5C179 232.5 158.5 278.25 158.5 325.25C158.5 416.5 234.25 492.25 325.5 492.25ZM325.5 331C336.5 331 344.25 323.25 344.25 312L344.25 168C344.25 156.75 336.5 149 325.5 149C314.5 149 307 156.75 307 168L307 312C307 323.25 314.5 331 325.5 331Z" fill="black" fill-opacity="0.85"/>
 </g>
</svg>
