<?xml version="1.0" encoding="UTF-8"?>
<!--Generator: Apple Native CoreSVG 326-->
<!DOCTYPE svg
PUBLIC "-//W3C//DTD SVG 1.1//EN"
       "http://www.w3.org/Graphics/SVG/1.1/DTD/svg11.dtd">
<svg version="1.1" xmlns="http://www.w3.org/2000/svg" xmlns:xlink="http://www.w3.org/1999/xlink" viewBox="0 0 546 594.25">
 <g>
  <rect height="594.25" opacity="0" width="546" x="0" y="0"/>
  <path d="M25 356C31.75 356 37.75 353.75 42.5 349L290.5 91L255.75 91L503.25 349C508 353.5 514.25 356 521 356C535.5 356 546 345.25 546 331C546 324 543.25 318.5 538.5 313.5L292 56.5C286.75 51.25 280.5 48 273 48C265.75 48 259.5 51.25 254 56.5L7.5 313.25C2.75 318.5 0 324 0 331C0 345.25 10.75 356 25 356ZM33.25 49L512 49C526.25 49 536.25 38.5 536.25 24.5C536.25 10.25 526.25 0 512 0L33.25 0C19.5 0 9.75 10.25 9.75 24.5C9.75 38.5 19.5 49 33.25 49Z" fill="black" fill-opacity="0.85"/>
 </g>
</svg>
