<?xml version="1.0" encoding="UTF-8"?>
<!--Generator: Apple Native CoreSVG 326-->
<!DOCTYPE svg
PUBLIC "-//W3C//DTD SVG 1.1//EN"
       "http://www.w3.org/Graphics/SVG/1.1/DTD/svg11.dtd">
<svg version="1.1" xmlns="http://www.w3.org/2000/svg" xmlns:xlink="http://www.w3.org/1999/xlink" viewBox="0 0 691.5 598.75">
 <g>
  <rect height="598.75" opacity="0" width="691.5" x="0" y="0"/>
  <path d="M242.25 593.5L449.25 593.5C490.5 593.5 513.25 569 513.25 529.75L513.25 379.75L649.75 379.75C673.5 379.75 691.5 365.5 691.5 343.5C691.5 329.75 684.75 319.5 674 308.75L384.25 19.25C370.75 6 359 0 345.75 0C332.5 0 320.75 6 307.5 19.25L17.5 308.75C6.25 320.25 0 329.75 0 343.5C0 365.5 18.25 379.75 41.75 379.75L178.25 379.75L178.25 529.75C178.25 569 201.25 593.5 242.25 593.5ZM246.5 550.75C233.25 550.75 224.25 541.75 224.25 528.75L224.25 348.25C224.25 340.75 221.25 338 214 338L62.75 338C59.5 338 58 336.75 58 334.75C58 333 58.5 331.75 60.5 329.75L336.25 55.25C340.25 51.25 342.75 50 345.75 50C348.75 50 351.5 51.25 355.25 55.25L631 329.75C633 331.75 633.5 333 633.5 334.75C633.5 336.75 632 338 628.75 338L477.75 338C470.25 338 467.5 340.75 467.5 348.25L467.5 528.75C467.5 541.5 458 550.75 445.25 550.75Z" fill="black" fill-opacity="0.85"/>
 </g>
</svg>
