<?xml version="1.0" encoding="UTF-8"?>
<!--Generator: Apple Native CoreSVG 326-->
<!DOCTYPE svg
PUBLIC "-//W3C//DTD SVG 1.1//EN"
       "http://www.w3.org/Graphics/SVG/1.1/DTD/svg11.dtd">
<svg version="1.1" xmlns="http://www.w3.org/2000/svg" xmlns:xlink="http://www.w3.org/1999/xlink" viewBox="0 0 768.5 640.75">
 <g>
  <rect height="640.75" opacity="0" width="768.5" x="0" y="0"/>
  <path d="M768.5 384.25C768.5 290 734.5 203.75 678 136.75C671.5 129 660.5 129.25 653.25 136.5L581 208.75C574.75 215 574.5 223.75 580 230.75C613.25 273.25 633 326.25 633 384.25C633 442.25 613.25 495.5 578.5 539.5C573.75 545.5 574 553 579.25 558.25L653.25 632.5C660.5 640 671.25 639.75 678 632C734.5 565 768.5 478.25 768.5 384.25Z" fill="black" fill-opacity="0.85"/>
  <path d="M384.25 135.25C442.25 135.25 495.75 155.25 538.25 189C545 194 553.25 193.5 559.5 187.25L632 114.75C639.5 107.5 639.25 96.75 631.5 90C564.75 34 478.25 0 384.25 0C290.25 0 203.75 34 137 90C129.25 96.75 129 107.5 136.25 114.75L209 187.25C215 193.5 224 193.75 231 188.25C273.25 155.25 326.5 135.25 384.25 135.25Z" fill="black" fill-opacity="0.85"/>
  <path d="M0 384.25C0 478.25 34 565 90.5 632C97 639.75 108 640 115.25 632.5L189.25 558.25C194.25 553 194.75 545.5 190 539.5C155.25 495.5 135.25 442.25 135.25 384.25C135.25 326.25 155 273.25 188.5 230.75C193.75 223.75 193.75 215 187.5 208.75L115 136.5C107.75 129.25 97 129 90.25 136.75C33.75 203.75 0 290 0 384.25Z" fill="black" fill-opacity="0.85"/>
  <path d="M291 535.75C299.75 535.75 304.5 531.5 307 523.25L383 281.25L384.5 281.25L460.75 523.5C463 531 467.5 535.75 477 535.75C485.5 535.75 493.5 530.75 493.5 521.25C493.5 518 492.75 515 491.75 511.75L406.25 257.25C402.75 246 396 240.25 384 240.25C372 240.25 364.5 246.75 361 257.25L276 512.75C275 515.75 274.25 518.5 274.25 521.25C274.25 530.25 281.5 535.75 291 535.75ZM262.25 394.75C262.25 400 266.75 404.5 272 404.5L495.75 404.5C501 404.5 505.5 400 505.5 394.75C505.5 389.5 501 385 495.75 385L272 385C266.75 385 262.25 389.5 262.25 394.75ZM262.25 452C262.25 457.25 266.75 461.75 272 461.75L495.75 461.75C501 461.75 505.5 457.25 505.5 452C505.5 446.5 501 442.25 495.75 442.25L272 442.25C266.75 442.25 262.25 446.5 262.25 452Z" fill="black" fill-opacity="0.85"/>
 </g>
</svg>
