<?xml version="1.0" encoding="UTF-8"?>
<!--Generator: Apple Native CoreSVG 326-->
<!DOCTYPE svg
PUBLIC "-//W3C//DTD SVG 1.1//EN"
       "http://www.w3.org/Graphics/SVG/1.1/DTD/svg11.dtd">
<svg version="1.1" xmlns="http://www.w3.org/2000/svg" xmlns:xlink="http://www.w3.org/1999/xlink" viewBox="0 0 851.5 723.75">
 <g>
  <rect height="723.75" opacity="0" width="851.5" x="0" y="0"/>
  <path d="M26.5 661.75C41 661.75 49 654.75 53.25 640.5L103.75 479.75L322.25 479.75L372.75 640.5C377 654.75 385 661.75 399.75 661.75C414.5 661.75 426.25 652.5 426.25 637.5C426.25 633.5 424.5 626.25 423.25 621.75L250.75 89.25C245 70.25 233.5 58.5 213.5 58.5C193.25 58.5 181.75 70 175.75 89.75L3.5 621.75C1.75 626.5 0 632.5 0 637.5C0 652.5 11.5 661.75 26.5 661.75ZM117.25 433.5L211.5 130.75L214.25 130.75L308.75 433.5ZM673 645.25C772.25 645.25 851.5 592.75 851.5 496C851.5 407.25 786.5 371.25 712.5 343.5L657.5 323C605.5 304.25 553.25 274.25 553.25 216C553.25 154.75 608.5 121.75 671 121.75C735.5 121.75 779.5 156.75 790.5 220.5C793.25 233.25 800.75 243.25 816.5 243.25C832.75 243.25 842.75 232.5 842.5 217.25C842.5 212.5 842 206.5 840.75 200.75C823.5 116.25 754.5 74.75 671 74.75C579.75 74.75 500.5 127.5 500.5 218.75C500.5 300.75 562 341.5 635.75 369L690.75 389.75C749.25 410.75 799.25 437.5 799.25 500.25C799.25 566.25 743.5 598.25 673.25 598.25C600 598.25 552.25 562.75 541.75 493.5C538.75 479.5 529.75 470.25 515.5 470.25C500.25 470.25 490.25 481 490.25 495.75C490.25 501.75 491 508.25 492 513.25C509 602.25 584 645.25 673 645.25ZM670.75 723.5C680.5 723.5 688.75 715.25 688.75 705.5L688.75 18C688.75 8.25 680.5 0 670.75 0C660.75 0 652.5 8.25 652.5 18L652.5 705.5C652.5 715.25 660.75 723.5 670.75 723.5Z" fill="black" fill-opacity="0.85"/>
 </g>
</svg>
