<?xml version="1.0" encoding="UTF-8"?>
<!--Generator: Apple Native CoreSVG 326-->
<!DOCTYPE svg
PUBLIC "-//W3C//DTD SVG 1.1//EN"
       "http://www.w3.org/Graphics/SVG/1.1/DTD/svg11.dtd">
<svg version="1.1" xmlns="http://www.w3.org/2000/svg" xmlns:xlink="http://www.w3.org/1999/xlink" viewBox="0 0 651.25 651.75">
 <g>
  <rect height="651.75" opacity="0" width="651.25" x="0" y="0"/>
  <path d="M651.25 325.75C651.25 505 505 651.25 325.5 651.25C146.25 651.25 0 505 0 325.75C0 146.25 146.25 0 325.5 0C505 0 651.25 146.25 651.25 325.75ZM302 191.25L258.5 322.25L211 322.25C205.25 322.25 201 326.75 201 332.25C201 337.75 205.25 342.25 211 342.25L251.75 342.25L239 380.75L211 380.75C205.25 380.75 201 385.5 201 391C201 396.25 205.25 401 211 401L232.25 401L214.75 453C213.75 456.5 213 459.25 213 461.75C213 471 220.75 477 230.25 477C239.25 477 244.25 472.5 246.75 463.75L266.75 401L384.25 401L404.25 464C406.5 471.75 411.25 477 420.75 477C429.75 477 437.75 471.75 437.75 461.75C437.75 458.75 437.25 455.25 436 452.25L418.75 401L440 401C445.75 401 450.25 396.25 450.25 391C450.25 385.5 445.75 380.75 440 380.75L412 380.75L399.25 342.25L440 342.25C445.75 342.25 450.25 337.75 450.25 332.25C450.25 326.75 445.75 322.25 440 322.25L392.5 322.25L348.75 191.25C345 180 338 173.75 325.5 173.75C313.5 173.75 305.5 180.5 302 191.25ZM378 380.75L272.75 380.75L285 342.25L366 342.25ZM359.5 322.25L291.5 322.25L324.75 216.25L326 216.25Z" fill="black" fill-opacity="0.85"/>
 </g>
</svg>
