<?xml version="1.0" encoding="UTF-8"?>
<!--Generator: Apple Native CoreSVG 326-->
<!DOCTYPE svg
PUBLIC "-//W3C//DTD SVG 1.1//EN"
       "http://www.w3.org/Graphics/SVG/1.1/DTD/svg11.dtd">
<svg version="1.1" xmlns="http://www.w3.org/2000/svg" xmlns:xlink="http://www.w3.org/1999/xlink" viewBox="0 0 479.25 592.25">
 <g>
  <rect height="592.25" opacity="0" width="479.25" x="0" y="0"/>
  <path d="M48.25 591.75C62.5 591.75 70.25 584.25 74.25 571L238 70.25L240.75 70.25L405 571.25C409.25 585.25 416.75 591.75 431 591.75C445.75 591.75 458 583 458 567.75C458 564.25 456.75 558.25 455 552.5L274.25 26.5C268.5 8.75 257.25 0 239.5 0C221.75 0 210.75 8.75 204.75 26.5L24.25 552.75C22.5 558.25 21.5 562.5 21.5 568C21.5 583 33.75 591.75 48.25 591.75ZM0 306.5C0 316.25 8.25 324.5 18.25 324.5L461 324.5C471 324.5 479.25 316.25 479.25 306.5C479.25 296.5 471 288.25 461 288.25L18.25 288.25C8.25 288.25 0 296.5 0 306.5ZM0 420.5C0 430.5 8.25 438.75 18.25 438.75L461 438.75C471 438.75 479.25 430.5 479.25 420.5C479.25 410.75 471 402.5 461 402.5L18.25 402.5C8.25 402.5 0 410.75 0 420.5Z" fill="black" fill-opacity="0.85"/>
 </g>
</svg>
