<?xml version="1.0" encoding="UTF-8"?>
<!--Generator: Apple Native CoreSVG 326-->
<!DOCTYPE svg
PUBLIC "-//W3C//DTD SVG 1.1//EN"
       "http://www.w3.org/Graphics/SVG/1.1/DTD/svg11.dtd">
<svg version="1.1" xmlns="http://www.w3.org/2000/svg" xmlns:xlink="http://www.w3.org/1999/xlink" viewBox="0 0 706 679.75">
 <g>
  <rect height="679.75" opacity="0" width="706" x="0" y="0"/>
  <path d="M39.25 610.25L666.75 610.25L666.75 591C666.75 580.25 660.25 573.75 649.25 573.75L628.75 573.75L628.75 213.5L657.75 213.5C673 213.5 681.5 202.75 681.5 191.5C681.5 183.25 677 176 667 170.25L390.75 10.75C378.5 3.75 365.5 0 353 0C340.5 0 327.25 3.75 315.25 10.75L39 170.25C28.75 176 24.5 183.25 24.5 191.5C24.5 202.75 33 213.5 48.25 213.5L77.5 213.5L77.5 573.75L57 573.75C45.75 573.75 39.25 580.25 39.25 591ZM119.25 573.75L119.25 175.5L338.5 52C342.75 49.5 348 48 353 48C357.75 48 362.75 49.5 367.5 52L587 175.5L587 573.75ZM22.25 679.25L683.75 679.25C696 679.25 706 669.25 706 657.25C706 645 696 635 683.75 635L22.25 635C10 635 0 645 0 657.25C0 669.25 10 679.25 22.25 679.25Z" fill="black" fill-opacity="0.85"/>
  <path d="M197 462.25C204.75 462.25 209.75 458 211.75 449.5L226.25 392.75L304.25 392.75L319.25 449.5C321.75 458 326 462.25 334.75 462.25C342.25 462.25 349.25 457.75 349.25 448.25C349.25 445.25 348.75 442.25 347.75 439L288.25 229C284.75 216.75 278.25 210.5 265.5 210.5C253 210.5 246.25 217.25 242.75 229.25L183.75 439C182.75 441.75 182.25 445 182.25 448.25C182.25 457.75 189 462.25 197 462.25ZM232.75 368.5L263.75 247.75L266.25 247.75L298 368.5ZM444.75 455C485.5 455 515 432.75 515 393.25C515 357.25 493.25 342.75 462.75 328L441.75 318C422.5 308.75 405 296.75 405 275.5C405 253 422.5 241.75 444 241.75C468.5 241.75 478.75 256.75 483.5 280.25C485.25 287.25 489.75 291.5 496.75 291.5C505.25 291.5 511 286.5 511 277.75C511 275 510.5 271.25 509.5 267C502.5 235 478 217.5 444 217.5C406 217.5 376.25 239 376.25 277.25C376.25 309.75 395.25 327.25 427 342.25L448.25 352.25C469 362 486.25 373 486.25 395.75C486.25 419.25 469.75 430.5 444.75 430.5C416.5 430.5 405 413.5 401.25 391.75C399.25 382.75 394 379 387.25 379C379.5 379 373.25 384.25 373.25 393C373.25 396 373.5 398.75 374 402.25C379.5 433 407.25 455 444.75 455ZM444.25 487.5C448.5 487.5 452.25 483.75 452.25 479.5L452.25 193.75C452.25 189.5 448.5 185.75 444.25 185.75C440 185.75 436.25 189.5 436.25 193.75L436.25 479.5C436.25 483.75 440 487.5 444.25 487.5Z" fill="black" fill-opacity="0.85"/>
 </g>
</svg>
