<?xml version="1.0" encoding="UTF-8"?>
<!--Generator: Apple Native CoreSVG 326-->
<!DOCTYPE svg
PUBLIC "-//W3C//DTD SVG 1.1//EN"
       "http://www.w3.org/Graphics/SVG/1.1/DTD/svg11.dtd">
<svg version="1.1" xmlns="http://www.w3.org/2000/svg" xmlns:xlink="http://www.w3.org/1999/xlink" viewBox="0 0 768.5 637.929">
 <g>
  <rect height="637.929" opacity="0" width="768.5" x="0" y="0"/>
  <path d="M768.5 382.839C768.5 181.589 613.75 16.5894 417.25 0.089388C407-0.910612 399 6.58939 399 17.0894L399 119.339C399 127.839 405.25 134.589 414 135.339C537.25 150.339 633 255.339 633 382.839C633 440.839 613.25 494.089 578.25 538.089C573.5 544.089 573.75 551.589 579 556.839L653.25 631.089C660.75 638.339 671.5 638.339 678 630.339C734.5 563.339 768.5 476.839 768.5 382.839Z" fill="black" fill-opacity="0.85"/>
  <path d="M0 382.839C0 477.089 34 563.839 90.75 630.839C97 638.339 107.5 638.339 115 631.089L189.25 556.839C194.5 551.589 194.75 544.089 190 538.089C155 494.089 135.25 440.839 135.25 382.839C135.25 255.339 231.25 150.339 354.25 135.339C363.25 134.589 369.25 127.839 369.25 119.339L369.25 17.0894C369.25 6.58939 361.5-0.910612 351.25 0.089388C154.5 16.5894 0 181.589 0 382.839Z" fill="black" fill-opacity="0.85"/>
  <path d="M291 534.339C299.75 534.339 304.5 530.089 307 521.839L383 279.839L384.5 279.839L460.75 522.089C463 529.589 467.5 534.339 477 534.339C485.5 534.339 493.5 529.339 493.5 519.839C493.5 516.589 492.75 513.589 491.75 510.339L406.25 255.839C402.75 244.589 396 238.839 384 238.839C372 238.839 364.5 245.339 361 255.839L276 511.339C275 514.339 274.25 517.089 274.25 519.839C274.25 528.839 281.5 534.339 291 534.339ZM262.25 393.339C262.25 398.589 266.75 403.089 272 403.089L495.75 403.089C501 403.089 505.5 398.589 505.5 393.339C505.5 388.089 501 383.589 495.75 383.589L272 383.589C266.75 383.589 262.25 388.089 262.25 393.339ZM262.25 450.589C262.25 455.839 266.75 460.339 272 460.339L495.75 460.339C501 460.339 505.5 455.839 505.5 450.589C505.5 445.089 501 440.839 495.75 440.839L272 440.839C266.75 440.839 262.25 445.089 262.25 450.589Z" fill="black" fill-opacity="0.85"/>
 </g>
</svg>
