<?xml version="1.0" encoding="UTF-8"?>
<!--Generator: Apple Native CoreSVG 326-->
<!DOCTYPE svg
PUBLIC "-//W3C//DTD SVG 1.1//EN"
       "http://www.w3.org/Graphics/SVG/1.1/DTD/svg11.dtd">
<svg version="1.1" xmlns="http://www.w3.org/2000/svg" xmlns:xlink="http://www.w3.org/1999/xlink" viewBox="0 0 775.551 651.75">
 <g>
  <rect height="651.75" opacity="0" width="775.551" x="0" y="0"/>
  <path d="M387.775 651.25C567.525 651.25 713.275 505.5 713.275 325.75C713.275 146 567.525 0 387.775 0C208.025 0 62.2754 146 62.2754 325.75L108.775 325.75C108.775 171.5 233.525 46.75 387.775 46.75C542.025 46.75 666.775 171.5 666.775 325.75C666.775 480 542.025 604.75 387.775 604.75C292.275 604.75 207.025 556.25 158.275 483.25C150.025 472 137.025 468.5 125.525 475.5C114.525 482 111.275 497.25 120.275 509.5C178.525 595.25 277.025 651.25 387.775 651.25ZM20.5254 265.25C0.0253627 265.25-5.72464 279.25 6.02536 295.5L77.0254 396.5C86.5254 410.25 100.275 410 109.525 396.5L180.525 295.25C191.775 279.25 186.275 265.25 166.025 265.25Z" fill="black" fill-opacity="0.85"/>
  <path d="M323.775 466.25L403.525 466.25C457.275 466.25 500.025 441.5 500.025 388.25C500.025 348.75 472.025 323 433.775 318.5L433.775 316.5C463.525 312 485.525 284.25 485.525 254C485.525 207.25 446.275 184 403.025 184L323.775 184C310.525 184 303.025 193 303.025 205.25L303.025 445.25C303.025 457.5 310.775 466.25 323.775 466.25ZM336.275 307.25L336.275 212.25L395.025 212.25C427.275 212.25 452.525 225.75 452.525 258C452.525 293.5 423.275 307.25 386.775 307.25ZM336.275 438.25L336.275 334.75L394.275 334.75C433.275 334.75 466.025 347.5 466.025 386.25C466.025 424.25 435.775 438.25 397.525 438.25ZM387.775 503.25C393.775 503.25 397.525 499.25 397.525 493.25L397.525 155C397.525 148.75 393.525 144.75 387.775 144.75C381.775 144.75 377.775 148.75 377.775 155L377.775 493.25C377.775 499.25 381.775 503.25 387.775 503.25Z" fill="black" fill-opacity="0.85"/>
 </g>
</svg>
