<?xml version="1.0" encoding="UTF-8"?>
<!--Generator: Apple Native CoreSVG 326-->
<!DOCTYPE svg
PUBLIC "-//W3C//DTD SVG 1.1//EN"
       "http://www.w3.org/Graphics/SVG/1.1/DTD/svg11.dtd">
<svg version="1.1" xmlns="http://www.w3.org/2000/svg" xmlns:xlink="http://www.w3.org/1999/xlink" viewBox="0 0 706 679.75">
 <g>
  <rect height="679.75" opacity="0" width="706" x="0" y="0"/>
  <path d="M390.75 10.75L667 170.25C677 176 681.5 183.25 681.5 191.5C681.5 202.75 673 213.5 657.75 213.5L628.75 213.5L628.75 595.25L649.25 595.25C660.25 595.25 666.75 601.75 666.75 612.5L666.75 635L683.75 635C696 635 706 645 706 657.25C706 669.25 696 679.25 683.75 679.25L22.25 679.25C10 679.25 0 669.25 0 657.25C0 645 10 635 22.25 635L39.25 635L39.25 612.5C39.25 601.75 45.75 595.25 57 595.25L77.5 595.25L77.5 213.5L48.25 213.5C33 213.5 24.5 202.75 24.5 191.5C24.5 183.25 28.75 176 39 170.25L315.25 10.75C327.25 3.75 340.5 0 353 0C365.5 0 378.5 3.75 390.75 10.75ZM342.75 191.75L342.75 221.75L287.5 221.75C273.5 221.75 265.75 230.75 265.75 243.75L265.75 489.5C265.75 501.75 273.75 511 287.5 511L342.75 511L342.75 538.75C342.75 544.75 346.75 549 353 549C359.25 549 363 544.75 363 538.75L363 511L368.75 511C424.25 511 468 485.5 468 430.75C468 390.5 439.25 364 400 359.5L400 357.5C430.5 353 453.25 324.25 453.25 293.5C453.25 245.25 412.75 221.75 368.25 221.75L363 221.75L363 191.75C363 185.5 359 181.5 353 181.5C346.75 181.5 342.75 185.5 342.75 191.75ZM342.75 482.25L300 482.25L300 376L342.75 376ZM433 429C433 466.5 403.75 482.25 366.5 482.25L363 482.25L363 376.25L365 376.25C402.25 376.25 433 391.25 433 429ZM342.75 347.75L300 347.75L300 251L342.75 251ZM419 297.5C419 329.75 395 344.75 363 347L363 251C395.5 252.25 419 266.25 419 297.5Z" fill="black" fill-opacity="0.85"/>
 </g>
</svg>
