<?xml version="1.0" encoding="UTF-8"?>
<!--Generator: Apple Native CoreSVG 326-->
<!DOCTYPE svg
PUBLIC "-//W3C//DTD SVG 1.1//EN"
       "http://www.w3.org/Graphics/SVG/1.1/DTD/svg11.dtd">
<svg version="1.1" xmlns="http://www.w3.org/2000/svg" xmlns:xlink="http://www.w3.org/1999/xlink" viewBox="0 0 587.75 587.75">
 <g>
  <rect height="587.75" opacity="0" width="587.75" x="0" y="0"/>
  <path d="M97.25 587.75L490.25 587.75C555 587.75 587.75 555 587.75 491.5L587.75 96.5C587.75 32.75 555 0 490.25 0L97.25 0C32.75 0 0 32.5 0 96.5L0 491.5C0 555.5 32.75 587.75 97.25 587.75ZM98.25 543.5C63.25 543.5 44.25 525 44.25 489L44.25 98.75C44.25 63 63.25 44.25 98.25 44.25L489.5 44.25C523.75 44.25 543.5 63 543.5 98.75L543.5 489C543.5 525 523.75 543.5 489.5 543.5Z" fill="black" fill-opacity="0.85"/>
  <path d="M230 434.25L309.75 434.25C363.5 434.25 406.25 409.5 406.25 356.25C406.25 316.75 378.25 291 340 286.5L340 284.5C369.75 280 391.75 252.25 391.75 222C391.75 175.25 352.25 152 309.25 152L230 152C216.75 152 209 161 209 173.25L209 413.25C209 425.5 217 434.25 230 434.25ZM242.25 275.25L242.25 180.25L301.25 180.25C333.5 180.25 358.75 193.75 358.75 226C358.75 261.5 329.5 275.25 293 275.25ZM242.25 406.25L242.25 302.75L300.5 302.75C339.5 302.75 372.25 315.5 372.25 354.25C372.25 392.25 342 406.25 303.75 406.25ZM294 471.25C300 471.25 303.75 467.25 303.75 461.25L303.75 123C303.75 116.75 299.75 112.75 294 112.75C288 112.75 284 116.75 284 123L284 461.25C284 467.25 288 471.25 294 471.25Z" fill="black" fill-opacity="0.85"/>
 </g>
</svg>
