<?xml version="1.0" encoding="UTF-8"?>
<!--Generator: Apple Native CoreSVG 326-->
<!DOCTYPE svg
PUBLIC "-//W3C//DTD SVG 1.1//EN"
       "http://www.w3.org/Graphics/SVG/1.1/DTD/svg11.dtd">
<svg version="1.1" xmlns="http://www.w3.org/2000/svg" xmlns:xlink="http://www.w3.org/1999/xlink" viewBox="0 0 836 521.75">
 <g>
  <rect height="521.75" opacity="0" width="836" x="0" y="0"/>
  <path d="M86.75 427.75C86.75 432.5 89.25 434.75 93.75 434.75L349 434.75C313 401.5 291.5 339.5 291.5 260.5C291.5 181.75 312.75 120.25 348.5 87L93.75 87C89.25 87 86.75 89.25 86.75 94ZM325.25 260.5C325.25 361.75 362 429.5 417 429.5C473.25 429.5 511 361.75 511 260.5C511 159.25 473.25 91.75 417 91.75C362 91.75 325.25 159.25 325.25 260.5ZM486.5 434.75L742 434.75C746.5 434.75 749 432.5 749 427.75L749 94C749 89.25 746.5 87 742 87L486.75 87C523 120.25 544.5 181.75 544.5 260.5C544.5 339.5 522.75 401.5 486.5 434.75Z" fill="black" fill-opacity="0.85"/>
  <path d="M0 498.25C0 512.5 9.25 521.5 23.25 521.5L812.5 521.5C826.75 521.5 836 512.5 836 498.25L836 23.25C836 9.25 826.75 0 812.5 0L23.25 0C9.25 0 0 9.25 0 23.25ZM57 447L57 74.75C57 63.25 63.5 57 74.25 57L761.5 57C772.5 57 779 63.25 779 74.75L779 447C779 458.25 772.5 464.5 761.5 464.5L74.25 464.5C63.5 464.5 57 458.25 57 447Z" fill="black" fill-opacity="0.85"/>
 </g>
</svg>
