<?xml version="1.0" encoding="UTF-8"?>
<!--Generator: Apple Native CoreSVG 326-->
<!DOCTYPE svg
PUBLIC "-//W3C//DTD SVG 1.1//EN"
       "http://www.w3.org/Graphics/SVG/1.1/DTD/svg11.dtd">
<svg version="1.1" xmlns="http://www.w3.org/2000/svg" xmlns:xlink="http://www.w3.org/1999/xlink" viewBox="0 0 706 679.75">
 <g>
  <rect height="679.75" opacity="0" width="706" x="0" y="0"/>
  <path d="M39.25 610.25L666.75 610.25L666.75 591C666.75 580.25 660.25 573.75 649.25 573.75L628.75 573.75L628.75 213.5L657.75 213.5C673 213.5 681.5 202.75 681.5 191.5C681.5 183.25 677 176 667 170.25L390.75 10.75C378.5 3.75 365.5 0 353 0C340.5 0 327.25 3.75 315.25 10.75L39 170.25C28.75 176 24.5 183.25 24.5 191.5C24.5 202.75 33 213.5 48.25 213.5L77.5 213.5L77.5 573.75L57 573.75C45.75 573.75 39.25 580.25 39.25 591ZM119.25 573.75L119.25 175.5L338.5 52C342.75 49.5 348 48 353 48C357.75 48 362.75 49.5 367.5 52L587 175.5L587 573.75ZM22.25 679.25L683.75 679.25C696 679.25 706 669.25 706 657.25C706 645 696 635 683.75 635L22.25 635C10 635 0 645 0 657.25C0 669.25 10 679.25 22.25 679.25Z" fill="black" fill-opacity="0.85"/>
  <path d="M286.25 478.25L366.25 478.25C421.5 478.25 462.75 452.5 462.75 400.75C462.75 362.75 435.5 336.25 396 331.75L396 329.75C427.5 324.75 448.25 297 448.25 268C448.25 223.5 411.5 199 365.25 199L286.25 199C273.75 199 265.5 207.5 265.5 220L265.5 457.25C265.5 469.75 273.75 478.25 286.25 478.25ZM298.75 320.5L298.75 226.75L357.25 226.75C389 226.75 414.75 240 414.75 272C414.75 307.25 384.75 320.5 349 320.5ZM298.75 450L298.75 348L356.75 348C395.5 348 428.75 360.75 428.75 399C428.75 436.5 397.75 450 360.25 450ZM306.25 215.25L326 215.25L326 167.75C326 161.75 321.75 157.75 316.25 157.75C310.5 157.75 306.25 161.75 306.25 167.75ZM357 215.25L376.75 215.25L376.75 167.75C376.75 161.75 372.5 157.75 366.75 157.75C361.25 157.75 357 161.75 357 167.75ZM306.25 461.25L306.25 510.75C306.25 516.25 310.5 520.5 316.25 520.5C321.75 520.5 326 516.25 326 510.75L326 461.25ZM357 461.25L357 510.75C357 516.25 361.25 520.5 366.75 520.5C372.5 520.5 376.75 516.25 376.75 510.75L376.75 461.25Z" fill="black" fill-opacity="0.85"/>
 </g>
</svg>
