<?xml version="1.0" encoding="UTF-8"?>
<!--Generator: Apple Native CoreSVG 326-->
<!DOCTYPE svg
PUBLIC "-//W3C//DTD SVG 1.1//EN"
       "http://www.w3.org/Graphics/SVG/1.1/DTD/svg11.dtd">
<svg version="1.1" xmlns="http://www.w3.org/2000/svg" xmlns:xlink="http://www.w3.org/1999/xlink" viewBox="0 0 587.75 587.75">
 <g>
  <rect height="587.75" opacity="0" width="587.75" x="0" y="0"/>
  <path d="M97.25 587.75L490.25 587.75C555 587.75 587.75 555 587.75 491.5L587.75 96.5C587.75 32.75 555 0 490.25 0L97.25 0C32.75 0 0 32.5 0 96.5L0 491.5C0 555.5 32.75 587.75 97.25 587.75ZM98.25 543.5C63.25 543.5 44.25 525 44.25 489L44.25 98.75C44.25 63 63.25 44.25 98.25 44.25L489.5 44.25C523.75 44.25 543.5 63 543.5 98.75L543.5 489C543.5 525 523.75 543.5 489.5 543.5Z" fill="black" fill-opacity="0.85"/>
  <path d="M151.75 424C162 424 168 417.25 168 407L168 314.25L211 314.25L253 412.25C256.5 420.25 261.25 424 269.5 424C278.75 424 285 417.75 285 408.75C285 404.5 283.25 400.5 281.75 396.75L242.5 307.25C271.75 295.75 285 266.75 285 236.25C285 187.25 254.75 159.25 207.5 159.25L151.5 159.25C141.5 159.25 135.5 165.75 135.5 176L135.5 407C135.5 416.75 140.5 424 151.75 424ZM168 288L168 186.5L204.5 186.5C235.75 186.5 252.5 206.5 252.5 236.75C252.5 267 237.25 288 204.75 288ZM390.5 416.75C435.75 416.75 465.5 391.25 465.5 350.75C465.5 312.5 441.75 296.25 410 281.25L387.5 270.5C365.25 260 348 247.75 348 225.25C348 201.5 366.25 189.25 389.75 189.25C417.5 189.25 428.25 207.5 431.5 230.25C432.75 236.25 437.75 242.25 446.5 242.25C455.25 242.25 461 236.75 461 228C461 225.75 460.5 221.75 460 218.75C452.5 178.75 423.75 163.5 389.75 163.5C348.75 163.5 317.5 186.75 317.5 227C317.5 261.25 337 279.75 371.75 296.5L394.25 307.25C416.25 317.75 434.5 329.25 434.5 353.5C434.5 378.25 417.75 390.5 390.75 390.5C361.5 390.5 348.25 374.75 344 347.75C342.5 339.5 336.25 335.5 329.5 335.5C320.75 335.5 314.5 340.5 314.5 350C314.5 352.25 315 356 315.5 359C323.5 400 354 416.75 390.5 416.75ZM389.75 451.25C394.75 451.25 398 448 398 443L398 138C398 133.25 394.75 130 389.75 130C385 130 381.75 133.25 381.75 138L381.75 443C381.75 448 385 451.25 389.75 451.25Z" fill="black" fill-opacity="0.85"/>
 </g>
</svg>
