<?xml version="1.0" encoding="UTF-8"?>
<!--Generator: Apple Native CoreSVG 326-->
<!DOCTYPE svg
PUBLIC "-//W3C//DTD SVG 1.1//EN"
       "http://www.w3.org/Graphics/SVG/1.1/DTD/svg11.dtd">
<svg version="1.1" xmlns="http://www.w3.org/2000/svg" xmlns:xlink="http://www.w3.org/1999/xlink" viewBox="0 0 805.5 724.25">
 <g>
  <rect height="724.25" opacity="0" width="805.5" x="0" y="0"/>
  <path d="M27.5 661.25C44.25 661.25 54.75 650.25 54.75 633L54.75 409.25L172.5 409.25C177 409.25 181.75 409 185 408.5L300.75 644C306.5 656.5 314.5 661.25 327.75 661.25C343.25 661.25 354 650.5 354 636.25C354 631 352 624.25 348.5 617.25L239 397.5C314.25 373.75 352.25 312 352.25 236C352.25 130 280.5 66 172.5 66L26.75 66C10.5 66 0 77 0 94L0 633C0 650.25 10.5 661.25 27.5 661.25ZM54.75 361.5L54.75 114.5L166.5 114.5C246.25 114.5 297 157.75 297 237.5C297 314.75 250.5 361.5 168.25 361.5ZM627 645.5C725.5 645.5 805.5 593.25 805.5 496.25C805.5 408.5 742.25 372 666.25 343.75L611.5 323.25C556.75 302.25 507 275 507 216.25C507 155 562.75 122 625 122C691 122 734.25 158.5 744.5 220.75C747.75 235 757 243.5 771.25 243.5C787 243.5 796.5 233.25 796.5 218.75C796.5 214.25 795.75 206 793.75 196.75C776 116.25 706.75 75 625 75C535 75 454.75 126.25 454.75 219C454.75 300 513.75 341.5 589.5 369.25L644.75 390C703.5 411 753 437.5 753 500.5C753 567 697.25 598.5 627.25 598.5C554 598.5 506.75 563.75 495.75 493.75C492.75 479.5 484 470.5 469.5 470.5C454.25 470.5 444.25 480.75 444.25 496C444.25 502.25 445 507.5 446 513.5C462.75 601.75 537.75 645.5 627 645.5ZM625 723.75C635.5 723.75 643.25 716.25 643.25 705.75L643.25 18.25C643.25 7.5 635.5 0 625 0C614 0 606.5 7.5 606.5 18.25L606.5 705.75C606.5 716.25 614 723.75 625 723.75Z" fill="black" fill-opacity="0.85"/>
 </g>
</svg>
