<?xml version="1.0" encoding="UTF-8"?>
<!--Generator: Apple Native CoreSVG 326-->
<!DOCTYPE svg
PUBLIC "-//W3C//DTD SVG 1.1//EN"
       "http://www.w3.org/Graphics/SVG/1.1/DTD/svg11.dtd">
<svg version="1.1" xmlns="http://www.w3.org/2000/svg" xmlns:xlink="http://www.w3.org/1999/xlink" viewBox="0 0 651.25 651.75">
 <g>
  <rect height="651.75" opacity="0" width="651.25" x="0" y="0"/>
  <path d="M651.25 325.75C651.25 505 505 651.25 325.5 651.25C146.25 651.25 0 505 0 325.75C0 146.25 146.25 0 325.5 0C505 0 651.25 146.25 651.25 325.75ZM315.5 154.75L315.5 182C244.25 187.75 204 246 204 323C204 399.25 242.25 459 315.5 465L315.5 493.5C315.5 499 319.75 503.25 325.5 503.25C331.25 503.25 335.25 499.25 335.25 493.5L335.25 465.5C380 463.5 420 442.25 434 401.75C436 396.75 437 392.25 437 386.75C437 377.5 430.75 371.75 421.5 371.75C412.75 371.75 408 376.5 405.25 385C396.75 414.75 369 433.25 335.25 435.75L335.25 211.25C368 214 395.75 235.25 403.25 263C406.25 271.5 410.25 276.25 419.5 276.25C428.5 276.25 435 270.5 435 260.75C435 254.25 433 248.75 430.75 243C415 205.5 377.5 183.5 335.25 181.5L335.25 154.75C335.25 149 331.25 144.75 325.5 144.75C319.75 144.75 315.5 149 315.5 154.75ZM315.5 435C262.75 428.25 238.75 378.75 238.75 323C238.75 267.25 264 218.5 315.5 212Z" fill="black" fill-opacity="0.85"/>
 </g>
</svg>
