<?xml version="1.0" encoding="UTF-8"?>
<!--Generator: Apple Native CoreSVG 326-->
<!DOCTYPE svg
PUBLIC "-//W3C//DTD SVG 1.1//EN"
       "http://www.w3.org/Graphics/SVG/1.1/DTD/svg11.dtd">
<svg version="1.1" xmlns="http://www.w3.org/2000/svg" xmlns:xlink="http://www.w3.org/1999/xlink" viewBox="0 0 706 679.75">
 <g>
  <rect height="679.75" opacity="0" width="706" x="0" y="0"/>
  <path d="M390.75 10.75L667 170.25C677 176 681.5 183.25 681.5 191.5C681.5 202.75 673 213.5 657.75 213.5L628.75 213.5L628.75 595.25L649.25 595.25C660.25 595.25 666.75 601.75 666.75 612.5L666.75 635L683.75 635C696 635 706 645 706 657.25C706 669.25 696 679.25 683.75 679.25L22.25 679.25C10 679.25 0 669.25 0 657.25C0 645 10 635 22.25 635L39.25 635L39.25 612.5C39.25 601.75 45.75 595.25 57 595.25L77.5 595.25L77.5 213.5L48.25 213.5C33 213.5 24.5 202.75 24.5 191.5C24.5 183.25 28.75 176 39 170.25L315.25 10.75C327.25 3.75 340.5 0 353 0C365.5 0 378.5 3.75 390.75 10.75ZM343.25 196L343.25 223.25C271.75 228.75 231.5 287 231.5 364.25C231.5 440.5 270 500 343.25 506.25L343.25 534.5C343.25 540.25 347.5 544.5 353.25 544.5C359 544.5 363 540.5 363 534.5L363 506.5C407.5 504.5 447.75 483.25 461.75 442.75C463.5 438 464.5 433.5 464.5 428C464.5 418.75 458.5 412.75 449.25 412.75C440.25 412.75 435.5 417.75 433 426.25C424.25 455.75 396.5 474.25 363 476.75L363 252.5C395.75 255.25 423.25 276.5 431 304C433.75 312.75 438 317.25 447 317.25C456.25 317.25 462.5 311.5 462.5 302C462.5 295.5 460.75 290 458.25 284.25C442.75 246.75 405.25 224.75 363 222.75L363 196C363 190.25 359 186 353.25 186C347.5 186 343.25 190.25 343.25 196ZM343.25 476.25C290.5 469.25 266.25 420 266.25 364.25C266.25 308.25 291.75 259.75 343.25 253.25Z" fill="black" fill-opacity="0.85"/>
 </g>
</svg>
