<?xml version="1.0" encoding="UTF-8"?>
<!--Generator: Apple Native CoreSVG 326-->
<!DOCTYPE svg
PUBLIC "-//W3C//DTD SVG 1.1//EN"
       "http://www.w3.org/Graphics/SVG/1.1/DTD/svg11.dtd">
<svg version="1.1" xmlns="http://www.w3.org/2000/svg" xmlns:xlink="http://www.w3.org/1999/xlink" viewBox="0 0 381.5 598.75">
 <g>
  <rect height="598.75" opacity="0" width="381.5" x="0" y="0"/>
  <path d="M202.75 522.25C255.25 522.25 307.25 505.75 344 469.5C362.25 451 381.5 419.5 381.5 396.75C381.5 382.75 372 373.5 357.25 373.5C347 373.5 338.25 380 333.5 390.5C312.75 444.75 266.25 476.25 203 476.25C102.75 476.25 53.25 400 53.25 299.25C53.25 198.5 103.5 122.25 202.5 122.25C266.25 122.25 312.25 153.5 333 207.75C337.5 218.5 346.75 225.25 357.75 225.25C371.25 225.25 381 216 381 201.5C381 179.5 362.5 148 343.5 129C307.25 92.75 254.25 76.25 202.25 76.25C74.75 76.25 0 170.25 0 299.25C0 428.5 73.25 522.25 202.75 522.25ZM200.25 598.5C210.5 598.5 218.75 590.25 218.75 580.25L218.75 18.25C218.75 8.25 210.5 0 200.25 0C190.25 0 182 8.25 182 18.25L182 580.25C182 590.25 190.25 598.5 200.25 598.5Z" fill="black" fill-opacity="0.85"/>
 </g>
</svg>
