<?xml version="1.0" encoding="UTF-8"?>
<!--Generator: Apple Native CoreSVG 326-->
<!DOCTYPE svg
PUBLIC "-//W3C//DTD SVG 1.1//EN"
       "http://www.w3.org/Graphics/SVG/1.1/DTD/svg11.dtd">
<svg version="1.1" xmlns="http://www.w3.org/2000/svg" xmlns:xlink="http://www.w3.org/1999/xlink" viewBox="0 0 706 679.75">
 <g>
  <rect height="679.75" opacity="0" width="706" x="0" y="0"/>
  <path d="M39.25 610.25L666.75 610.25L666.75 591C666.75 580.25 660.25 573.75 649.25 573.75L628.75 573.75L628.75 213.5L657.75 213.5C673 213.5 681.5 202.75 681.5 191.5C681.5 183.25 677 176 667 170.25L390.75 10.75C378.5 3.75 365.5 0 353 0C340.5 0 327.25 3.75 315.25 10.75L39 170.25C28.75 176 24.5 183.25 24.5 191.5C24.5 202.75 33 213.5 48.25 213.5L77.5 213.5L77.5 573.75L57 573.75C45.75 573.75 39.25 580.25 39.25 591ZM119.25 573.75L119.25 175.5L338.5 52C342.75 49.5 348 48 353 48C357.75 48 362.75 49.5 367.5 52L587 175.5L587 573.75ZM22.25 679.25L683.75 679.25C696 679.25 706 669.25 706 657.25C706 645 696 635 683.75 635L22.25 635C10 635 0 645 0 657.25C0 669.25 10 679.25 22.25 679.25Z" fill="black" fill-opacity="0.85"/>
  <path d="M353.25 447.75C380.5 447.75 407.25 438.25 424.75 421.25C434.5 411.75 443 396.25 443 385.5C443 376.25 435.75 371 428.25 371C420 371 416.5 376.25 413.5 382.25C401.25 406.75 382.5 420 353.5 420C306.5 420 283.75 384.25 283.75 336.5C283.75 288.5 307.25 253 353.25 253C381 253 402.5 265.5 413.25 291.25C416 298.25 421.25 302.25 428 302.25C436.75 302.25 442.75 296.5 442.75 287.5C442.75 275.75 433.75 261.75 424.25 252C407 234.75 381.25 225.25 353 225.25C288 225.25 250.75 272 250.75 336.5C250.75 405.25 291 447.75 353.25 447.75ZM352 485.25C357.5 485.25 362 480.75 362 475.25L362 197.75C362 192.25 357.5 188 352 188C346.25 188 342 192.25 342 197.75L342 475.25C342 480.75 346.25 485.25 352 485.25Z" fill="black" fill-opacity="0.85"/>
 </g>
</svg>
