<?xml version="1.0" encoding="UTF-8"?>
<!--Generator: Apple Native CoreSVG 326-->
<!DOCTYPE svg
PUBLIC "-//W3C//DTD SVG 1.1//EN"
       "http://www.w3.org/Graphics/SVG/1.1/DTD/svg11.dtd">
<svg version="1.1" xmlns="http://www.w3.org/2000/svg" xmlns:xlink="http://www.w3.org/1999/xlink" viewBox="0 0 443 593.75">
 <g>
  <rect height="593.75" opacity="0" width="443" x="0" y="0"/>
  <path d="M221.5 593.25C237.5 593.25 248 582.75 248 566L248 341L437 42.25C440.75 36.5 443 30.5 443 24.25C443 9.5 430.5 0 416 0C406.25 0 397.5 5.75 392.5 14.25L223 291.25L220.25 291.25L51 14.75C45.75 5.75 36.75 0 27 0C12.5 0 0 9.25 0 24.25C0 31 2 36.5 5.75 42.25L195 341L195 566C195 582.75 205.25 593.25 221.5 593.25ZM48 328C48 338 56.25 346.25 66.25 346.25L381.25 346.25C391.25 346.25 399.5 338 399.5 328C399.5 318 391.25 309.75 381.25 309.75L66.25 309.75C56.25 309.75 48 318 48 328ZM48 436.25C48 446.25 56.25 454.5 66.25 454.5L381.25 454.5C391.25 454.5 399.5 446.25 399.5 436.25C399.5 426.25 391.25 418 381.25 418L66.25 418C56.25 418 48 426.25 48 436.25Z" fill="black" fill-opacity="0.85"/>
 </g>
</svg>
