<?xml version="1.0" encoding="UTF-8"?>
<!--Generator: Apple Native CoreSVG 326-->
<!DOCTYPE svg
PUBLIC "-//W3C//DTD SVG 1.1//EN"
       "http://www.w3.org/Graphics/SVG/1.1/DTD/svg11.dtd">
<svg version="1.1" xmlns="http://www.w3.org/2000/svg" xmlns:xlink="http://www.w3.org/1999/xlink" viewBox="0 0 587.75 587.75">
 <g>
  <rect height="587.75" opacity="0" width="587.75" x="0" y="0"/>
  <path d="M587.75 96.5L587.75 491.5C587.75 555 555 587.75 490.25 587.75L97.25 587.75C32.75 587.75 0 555.5 0 491.5L0 96.5C0 32.5 32.75 0 97.25 0L490.25 0C555 0 587.75 32.75 587.75 96.5ZM179.25 157C179.25 160.5 180.5 164.5 183 168.5L266.25 301.75L212.5 301.75C206.75 301.75 202.25 306 202.25 312C202.25 317.75 206.75 322.25 212.5 322.25L277 322.25L277 357.5L212.5 357.5C206.75 357.5 202.25 362 202.25 368C202.25 373.5 206.75 378 212.5 378L277 378L277 428.5C277 438.75 284 446 294 446C304 446 311 438.75 311 428.5L311 378L377 378C383 378 387.25 373.5 387.25 368C387.25 362 383 357.5 377 357.5L311 357.5L311 322.25L377 322.25C383 322.25 387.25 317.75 387.25 312C387.25 306 383 301.75 377 301.75L321.75 301.75L405.5 168C407.75 164 408.75 161.75 408.75 157C408.75 147.75 401.5 141.5 391.75 141.5C385.5 141.5 380.25 144.75 376.5 151.25L294.75 287.5L293.5 287.5L212 151.25C208.25 144.75 204 141.25 196.25 141.25C186.5 141.25 179.25 147.5 179.25 157Z" fill="black" fill-opacity="0.85"/>
 </g>
</svg>
