<?xml version="1.0" encoding="UTF-8"?>
<!--Generator: Apple Native CoreSVG 326-->
<!DOCTYPE svg
PUBLIC "-//W3C//DTD SVG 1.1//EN"
       "http://www.w3.org/Graphics/SVG/1.1/DTD/svg11.dtd">
<svg version="1.1" xmlns="http://www.w3.org/2000/svg" xmlns:xlink="http://www.w3.org/1999/xlink" viewBox="0 0 706 679.75">
 <g>
  <rect height="679.75" opacity="0" width="706" x="0" y="0"/>
  <path d="M390.75 10.75L667 170.25C677 176 681.5 183.25 681.5 191.5C681.5 202.75 673 213.5 657.75 213.5L628.75 213.5L628.75 595.25L649.25 595.25C660.25 595.25 666.75 601.75 666.75 612.5L666.75 635L683.75 635C696 635 706 645 706 657.25C706 669.25 696 679.25 683.75 679.25L22.25 679.25C10 679.25 0 669.25 0 657.25C0 645 10 635 22.25 635L39.25 635L39.25 612.5C39.25 601.75 45.75 595.25 57 595.25L77.5 595.25L77.5 213.5L48.25 213.5C33 213.5 24.5 202.75 24.5 191.5C24.5 183.25 28.75 176 39 170.25L315.25 10.75C327.25 3.75 340.5 0 353 0C365.5 0 378.5 3.75 390.75 10.75ZM421.75 188L410.5 230.75C398.75 225 385.5 221.5 372 220L378.25 195C379.25 192 379.5 190.5 379.5 189.5C379.5 184 375.5 179.75 369.25 179.75C363.5 179.75 360.25 182.25 358.75 188L350.75 219.25C272.75 222.25 229.25 283 229.25 364.5C229.25 417 247.25 462.25 282 487.75L268.75 540C268.25 542 268 543.75 268 545.5C268 551 272.5 555.25 278.25 555.25C283.75 555.25 287 553 288.75 547L301 498.75C312.5 504.25 325.5 507.75 339.75 509.5L331.75 540C331.25 542 331 543.75 331 545.5C331 551 335.5 555.25 341.25 555.25C346.75 555.25 350 553 351.75 547L361 510.5L361.5 510.5C409.75 510.5 451 485.25 465.5 443.75C467.5 438.5 468.25 433.5 468.25 428.25C468.25 417.25 460.75 412.5 452.5 412.5C443.25 412.5 438.5 418 435.75 426.25C426.5 456.75 400.5 475.5 369 479L420.25 278.75C426.75 285.75 431.5 294.25 433.75 304C436.25 312.25 440 317.5 450.25 317.5C460.5 317.5 466.25 311.5 466.25 301.75C466.25 297.25 465 291.25 463 286.5C456 268 444 253 429.25 242L441.25 195C442.25 192 442.5 190.5 442.5 189.5C442.5 184 438.5 179.75 432.25 179.75C426.5 179.75 423.25 182.25 421.75 188ZM402.5 262.75L347 479.25C332.5 478.25 319.75 473.25 309 466.5L364.25 250C378.5 251.25 391.5 255.75 402.5 262.75ZM291.5 450C274 428.25 265.5 397.25 265.5 364.5C265.5 307.5 290.75 258.5 342.5 250.75Z" fill="black" fill-opacity="0.85"/>
 </g>
</svg>
