<?xml version="1.0" encoding="UTF-8"?>
<!--Generator: Apple Native CoreSVG 326-->
<!DOCTYPE svg
PUBLIC "-//W3C//DTD SVG 1.1//EN"
       "http://www.w3.org/Graphics/SVG/1.1/DTD/svg11.dtd">
<svg version="1.1" xmlns="http://www.w3.org/2000/svg" xmlns:xlink="http://www.w3.org/1999/xlink" viewBox="0 0 768.5 637.929">
 <g>
  <rect height="637.929" opacity="0" width="768.5" x="0" y="0"/>
  <path d="M768.5 382.839C768.5 181.589 613.75 16.5894 417.25 0.089388C407-0.910612 399 6.58939 399 17.0894L399 119.339C399 127.839 405.25 134.589 414 135.339C537.25 150.339 633 255.339 633 382.839C633 440.839 613.25 494.089 578.25 538.089C573.5 544.089 573.75 551.589 579 556.839L653.25 631.089C660.75 638.339 671.5 638.339 678 630.339C734.5 563.339 768.5 476.839 768.5 382.839Z" fill="black" fill-opacity="0.85"/>
  <path d="M0 382.839C0 477.089 34 563.839 90.75 630.839C97 638.339 107.5 638.339 115 631.089L189.25 556.839C194.5 551.589 194.75 544.089 190 538.089C155 494.089 135.25 440.839 135.25 382.839C135.25 255.339 231.25 150.339 354.25 135.339C363.25 134.589 369.25 127.839 369.25 119.339L369.25 17.0894C369.25 6.58939 361.5-0.910612 351.25 0.089388C154.5 16.5894 0 181.589 0 382.839Z" fill="black" fill-opacity="0.85"/>
  <path d="M387.5 527.089C436.25 527.089 478.75 503.839 493.25 461.839C495.25 456.839 496 451.839 496 446.839C496 436.089 488.75 431.589 480.75 431.589C471.75 431.589 467.25 436.839 464.5 444.839C454.25 478.589 423.75 497.339 387.5 497.339C325.75 497.339 298 444.089 298 384.589C298 324.089 327.25 272.589 387.25 272.589C423 272.589 454.25 294.839 462.5 325.589C465 333.589 468.75 338.839 478.5 338.839C488.5 338.839 494 332.839 494 323.589C494 319.089 493 313.339 491 308.589C474.25 265.589 432 242.839 387.25 242.839C307.75 242.839 263 303.089 263 384.589C263 464.589 305.75 527.089 387.5 527.089ZM311 570.839C316 570.839 319.25 568.589 320.75 562.839L408.25 219.339C409.25 216.589 409.5 214.839 409.5 213.839C409.5 208.589 405.5 204.589 399.5 204.589C394 204.589 390.75 207.089 389.25 212.339L301.5 555.589C301 557.839 300.75 559.589 300.75 561.339C300.75 566.589 305 570.839 311 570.839ZM372.25 570.839C377.5 570.839 380.75 568.589 382.25 562.839L469.75 219.339C470.75 216.589 471 214.839 471 213.839C471 208.589 467 204.589 461 204.589C455.5 204.589 452 207.089 450.75 212.339L363 555.589C362.5 557.839 362.25 559.589 362.25 561.339C362.25 566.589 366.5 570.839 372.25 570.839Z" fill="black" fill-opacity="0.85"/>
 </g>
</svg>
