<?xml version="1.0" encoding="UTF-8"?>
<!--Generator: Apple Native CoreSVG 326-->
<!DOCTYPE svg
PUBLIC "-//W3C//DTD SVG 1.1//EN"
       "http://www.w3.org/Graphics/SVG/1.1/DTD/svg11.dtd">
<svg version="1.1" xmlns="http://www.w3.org/2000/svg" xmlns:xlink="http://www.w3.org/1999/xlink" viewBox="0 0 768.5 640.75">
 <g>
  <rect height="640.75" opacity="0" width="768.5" x="0" y="0"/>
  <path d="M768.5 384.25C768.5 290 734.5 203.75 678 136.75C671.5 129 660.5 129.25 653.25 136.5L581 208.75C574.75 215 574.5 223.75 580 230.75C613.25 273.25 633 326.25 633 384.25C633 442.25 613.25 495.5 578.5 539.5C573.75 545.5 574 553 579.25 558.25L653.25 632.5C660.5 640 671.25 639.75 678 632C734.5 565 768.5 478.25 768.5 384.25Z" fill="black" fill-opacity="0.85"/>
  <path d="M384.25 135.25C442.25 135.25 495.75 155.25 538.25 189C545 194 553.25 193.5 559.5 187.25L632 114.75C639.5 107.5 639.25 96.75 631.5 90C564.75 34 478.25 0 384.25 0C290.25 0 203.75 34 137 90C129.25 96.75 129 107.5 136.25 114.75L209 187.25C215 193.5 224 193.75 231 188.25C273.25 155.25 326.5 135.25 384.25 135.25Z" fill="black" fill-opacity="0.85"/>
  <path d="M0 384.25C0 478.25 34 565 90.5 632C97 639.75 108 640 115.25 632.5L189.25 558.25C194.25 553 194.75 545.5 190 539.5C155.25 495.5 135.25 442.25 135.25 384.25C135.25 326.25 155 273.25 188.5 230.75C193.75 223.75 193.75 215 187.5 208.75L115 136.5C107.75 129.25 97 129 90.25 136.75C33.75 203.75 0 290 0 384.25Z" fill="black" fill-opacity="0.85"/>
  <path d="M387.5 528.5C436.25 528.5 478.75 505.25 493.25 463.25C495.25 458.25 496 453.25 496 448.25C496 437.5 488.75 433 480.75 433C471.75 433 467.25 438.25 464.5 446.25C454.25 480 423.75 498.75 387.5 498.75C325.75 498.75 298 445.5 298 386C298 325.5 327.25 274 387.25 274C423 274 454.25 296.25 462.5 327C465 335 468.75 340.25 478.5 340.25C488.5 340.25 494 334.25 494 325C494 320.5 493 314.75 491 310C474.25 267 432 244.25 387.25 244.25C307.75 244.25 263 304.5 263 386C263 466 305.75 528.5 387.5 528.5ZM311 572.25C316 572.25 319.25 570 320.75 564.25L408.25 220.75C409.25 218 409.5 216.25 409.5 215.25C409.5 210 405.5 206 399.5 206C394 206 390.75 208.5 389.25 213.75L301.5 557C301 559.25 300.75 561 300.75 562.75C300.75 568 305 572.25 311 572.25ZM372.25 572.25C377.5 572.25 380.75 570 382.25 564.25L469.75 220.75C470.75 218 471 216.25 471 215.25C471 210 467 206 461 206C455.5 206 452 208.5 450.75 213.75L363 557C362.5 559.25 362.25 561 362.25 562.75C362.25 568 366.5 572.25 372.25 572.25Z" fill="black" fill-opacity="0.85"/>
 </g>
</svg>
