<?xml version="1.0" encoding="UTF-8"?>
<!--Generator: Apple Native CoreSVG 326-->
<!DOCTYPE svg
PUBLIC "-//W3C//DTD SVG 1.1//EN"
       "http://www.w3.org/Graphics/SVG/1.1/DTD/svg11.dtd">
<svg version="1.1" xmlns="http://www.w3.org/2000/svg" xmlns:xlink="http://www.w3.org/1999/xlink" viewBox="0 0 587.75 587.75">
 <g>
  <rect height="587.75" opacity="0" width="587.75" x="0" y="0"/>
  <path d="M97.25 587.75L490.25 587.75C555 587.75 587.75 555 587.75 491.5L587.75 96.5C587.75 32.75 555 0 490.25 0L97.25 0C32.75 0 0 32.5 0 96.5L0 491.5C0 555.5 32.75 587.75 97.25 587.75ZM98.25 543.5C63.25 543.5 44.25 525 44.25 489L44.25 98.75C44.25 63 63.25 44.25 98.25 44.25L489.5 44.25C523.75 44.25 543.5 63 543.5 98.75L543.5 489C543.5 525 523.75 543.5 489.5 543.5Z" fill="black" fill-opacity="0.85"/>
  <path d="M297.5 433.75C346.25 433.75 388.75 410.75 403.5 368.5C405.25 363.75 406.25 358.5 406.25 353.75C406.25 342.75 398.75 338.25 390.75 338.25C382 338.25 377.5 343.5 374.5 351.5C364.5 385.25 333.75 404 297.5 404C236 404 208.25 350.75 208.25 291.25C208.25 230.75 237.5 179.25 297.25 179.25C333.25 179.25 364.5 201.5 372.5 232.25C375 240.25 378.75 245.75 388.75 245.75C398.5 245.75 404.25 239.5 404.25 230.5C404.25 225.75 403 220.25 401.25 215.5C384.5 172.25 342.25 149.5 297.25 149.5C217.75 149.5 173.25 209.75 173.25 291.25C173.25 371.5 216 433.75 297.5 433.75ZM221 477.5C226 477.5 229.25 475.25 230.75 469.75L318.5 126C319.25 123.25 319.5 121.75 319.5 120.5C319.5 115.5 315.5 111.25 309.75 111.25C304 111.25 300.75 113.75 299.25 119.25L211.75 462.5C211 464.5 210.75 466.25 210.75 468C210.75 473.25 215 477.5 221 477.5ZM282.5 477.5C287.5 477.5 290.75 475.25 292.25 469.75L380 126C380.75 123.25 381 121.75 381 120.5C381 115.5 377 111.25 371 111.25C365.5 111.25 362.25 113.75 360.75 119.25L273.25 462.5C272.5 464.5 272.25 466.25 272.25 468C272.25 473.25 276.5 477.5 282.5 477.5Z" fill="black" fill-opacity="0.85"/>
 </g>
</svg>
