<?xml version="1.0" encoding="UTF-8"?>
<!--Generator: Apple Native CoreSVG 326-->
<!DOCTYPE svg
PUBLIC "-//W3C//DTD SVG 1.1//EN"
       "http://www.w3.org/Graphics/SVG/1.1/DTD/svg11.dtd">
<svg version="1.1" xmlns="http://www.w3.org/2000/svg" xmlns:xlink="http://www.w3.org/1999/xlink" viewBox="0 0 775.551 651.75">
 <g>
  <rect height="651.75" opacity="0" width="775.551" x="0" y="0"/>
  <path d="M387.775 651.25C567.525 651.25 713.275 505.5 713.275 325.75C713.275 146 567.525 0 387.775 0C208.025 0 62.2754 146 62.2754 325.75L108.775 325.75C108.775 171.5 233.525 46.75 387.775 46.75C542.025 46.75 666.775 171.5 666.775 325.75C666.775 480 542.025 604.75 387.775 604.75C292.275 604.75 207.025 556.25 158.275 483.25C150.025 472 137.025 468.5 125.525 475.5C114.525 482 111.275 497.25 120.275 509.5C178.525 595.25 277.025 651.25 387.775 651.25ZM20.5254 265.25C0.0253627 265.25-5.72464 279.25 6.02536 295.5L77.0254 396.5C86.5254 410.25 100.275 410 109.525 396.5L180.525 295.25C191.775 279.25 186.275 265.25 166.025 265.25Z" fill="black" fill-opacity="0.85"/>
  <path d="M391.275 465.75C440.025 465.75 482.525 442.75 497.275 400.5C499.025 395.75 500.025 390.5 500.025 385.75C500.025 374.75 492.525 370.25 484.525 370.25C475.775 370.25 471.275 375.5 468.275 383.5C458.275 417.25 427.525 436 391.275 436C329.775 436 302.025 382.75 302.025 323.25C302.025 262.75 331.275 211.25 391.025 211.25C427.025 211.25 458.275 233.5 466.275 264.25C468.775 272.25 472.525 277.75 482.525 277.75C492.275 277.75 498.025 271.5 498.025 262.5C498.025 257.75 496.775 252.25 495.025 247.5C478.275 204.25 436.025 181.5 391.025 181.5C311.525 181.5 267.025 241.75 267.025 323.25C267.025 403.5 309.775 465.75 391.275 465.75ZM314.775 509.5C319.775 509.5 323.275 507.25 324.775 501.75L412.275 158C413.025 155.25 413.275 153.75 413.275 152.5C413.275 147.5 409.275 143.25 403.525 143.25C397.775 143.25 394.525 145.75 393.025 151.25L305.525 494.5C305.025 496.5 304.775 498.25 304.775 500C304.775 505.25 308.775 509.5 314.775 509.5ZM376.275 509.5C381.275 509.5 384.525 507.25 386.025 501.75L473.775 158C474.525 155.25 474.775 153.75 474.775 152.5C474.775 147.5 470.775 143.25 465.025 143.25C459.275 143.25 456.025 145.75 454.525 151.25L367.025 494.5C366.275 496.5 366.025 498.25 366.025 500C366.025 505.25 370.275 509.5 376.275 509.5Z" fill="black" fill-opacity="0.85"/>
 </g>
</svg>
