<?xml version="1.0" encoding="UTF-8"?>
<!--Generator: Apple Native CoreSVG 326-->
<!DOCTYPE svg
PUBLIC "-//W3C//DTD SVG 1.1//EN"
       "http://www.w3.org/Graphics/SVG/1.1/DTD/svg11.dtd">
<svg version="1.1" xmlns="http://www.w3.org/2000/svg" xmlns:xlink="http://www.w3.org/1999/xlink" viewBox="0 0 651.25 651.75">
 <g>
  <rect height="651.75" opacity="0" width="651.25" x="0" y="0"/>
  <path d="M651.25 325.75C651.25 505 505 651.25 325.5 651.25C146.25 651.25 0 505 0 325.75C0 146.25 146.25 0 325.5 0C505 0 651.25 146.25 651.25 325.75ZM201 326C201 407 244 472.25 328.25 472.25C378.5 472.25 423.25 447.25 437 403.75C439 399 439.25 395 439.25 390.5C439.25 381.25 433.25 375.75 423.75 375.75C414.5 375.75 409.5 380.75 407 389.25C397 423 366.5 441.25 331.75 442.25L331.75 392.25C331.75 359.75 353.25 337.25 385.5 337.25C392 337.25 396.5 338.75 399.5 338.75C405.75 338.75 409.75 335.75 409.75 328.75C409.75 325 407.5 321.25 404 319C399.5 316.25 391.25 315 385 315C358.5 315 338.75 332 332 352.75L331.25 352.75L331.25 326.25C331.25 319.75 327.5 315.5 321.5 315.5C315.25 315.5 311.25 319.75 311.25 326.25L311.25 440.5C260.5 431.5 237.25 381.75 237.25 326C237.25 264.25 266.75 211.25 328.5 211.25C364.75 211.25 395.75 232.75 405.25 265C408 273.5 412.5 278.5 421.25 278.5C430.5 278.5 437.25 272.5 437.25 263.25C437.25 260 436.5 255 434.75 250.5C420.25 207.5 377.25 180.75 328.25 180.75C247.25 180.75 201 242.25 201 326Z" fill="black" fill-opacity="0.85"/>
 </g>
</svg>
