<?xml version="1.0" encoding="UTF-8"?>
<!--Generator: Apple Native CoreSVG 326-->
<!DOCTYPE svg
PUBLIC "-//W3C//DTD SVG 1.1//EN"
       "http://www.w3.org/Graphics/SVG/1.1/DTD/svg11.dtd">
<svg version="1.1" xmlns="http://www.w3.org/2000/svg" xmlns:xlink="http://www.w3.org/1999/xlink" viewBox="0 0 587.75 587.75">
 <g>
  <rect height="587.75" opacity="0" width="587.75" x="0" y="0"/>
  <path d="M97.25 587.75L490.25 587.75C555 587.75 587.75 555 587.75 491.5L587.75 96.5C587.75 32.75 555 0 490.25 0L97.25 0C32.75 0 0 32.5 0 96.5L0 491.5C0 555.5 32.75 587.75 97.25 587.75ZM98.25 543.5C63.25 543.5 44.25 525 44.25 489L44.25 98.75C44.25 63 63.25 44.25 98.25 44.25L489.5 44.25C523.75 44.25 543.5 63 543.5 98.75L543.5 489C543.5 525 523.75 543.5 489.5 543.5Z" fill="black" fill-opacity="0.85"/>
  <path d="M296.5 436.5C345.5 436.5 389 412.25 402.5 369.75C404.25 365.25 404.75 361.25 404.75 357C404.75 348 398.75 342.5 389.5 342.5C380.75 342.5 376 347.5 373.5 355.75C363.5 390 331.75 407.75 296.75 407.75C235.5 407.75 207.5 354.25 207.5 294C207.5 233.75 236.5 182 296.75 182C332.25 182 362.5 203 371.75 234.5C374.5 242.75 378.75 247.75 387.25 247.75C396 247.75 402.75 241.75 402.75 232.75C402.75 229.75 402 224.75 400.5 220.5C386.25 178.5 344.5 152.25 296.5 152.25C217.5 152.25 172.5 212.25 172.5 294C172.5 373 214.25 436.5 296.5 436.5ZM280 421.5L300 421.5L300 358.75C300 327 321 305 352.25 305C358.75 305 363.25 306.5 366.25 306.5C372.25 306.5 376 303.5 376 296.75C376 293 374 289.5 370.25 287.25C366.25 284.5 358 283.25 352 283.25C326 283.25 306.5 300 300.25 320.25L299.5 320.25L299.5 294.25C299.5 288 295.75 283.75 290 283.75C284 283.75 280 288 280 294.25Z" fill="black" fill-opacity="0.85"/>
 </g>
</svg>
