<?xml version="1.0" encoding="UTF-8"?>
<!--Generator: Apple Native CoreSVG 326-->
<!DOCTYPE svg
PUBLIC "-//W3C//DTD SVG 1.1//EN"
       "http://www.w3.org/Graphics/SVG/1.1/DTD/svg11.dtd">
<svg version="1.1" xmlns="http://www.w3.org/2000/svg" xmlns:xlink="http://www.w3.org/1999/xlink" viewBox="0 0 768.5 637.929">
 <g>
  <rect height="637.929" opacity="0" width="768.5" x="0" y="0"/>
  <path d="M768.5 382.839C768.5 181.589 613.75 16.5894 417.25 0.089388C407-0.910612 399 6.58939 399 17.0894L399 119.339C399 127.839 405.25 134.589 414 135.339C537.25 150.339 633 255.339 633 382.839C633 440.839 613.25 494.089 578.25 538.089C573.5 544.089 573.75 551.589 579 556.839L653.25 631.089C660.75 638.339 671.5 638.339 678 630.339C734.5 563.339 768.5 476.839 768.5 382.839Z" fill="black" fill-opacity="0.85"/>
  <path d="M0 382.839C0 477.089 34 563.839 90.75 630.839C97 638.339 107.5 638.339 115 631.089L189.25 556.839C194.5 551.589 194.75 544.089 190 538.089C155 494.089 135.25 440.839 135.25 382.839C135.25 255.339 231.25 150.339 354.25 135.339C363.25 134.589 369.25 127.839 369.25 119.339L369.25 17.0894C369.25 6.58939 361.5-0.910612 351.25 0.089388C154.5 16.5894 0 181.589 0 382.839Z" fill="black" fill-opacity="0.85"/>
  <path d="M264 520.839C273.25 520.839 279.5 514.089 279.5 504.339L279.5 445.339L299.25 425.839L361.5 513.089C365 517.839 369.5 520.839 375.5 520.839C383.75 520.839 390.25 514.839 390.25 506.839C390.25 502.839 388.75 499.339 386 495.839L321.75 406.339L382 342.089C385.75 338.089 387.5 335.839 387.5 330.839C387.5 323.589 381.5 317.089 373.75 317.089C369.25 317.089 364.5 319.839 361.5 323.089L280.75 411.839L279.5 411.839L279.5 256.839C279.5 246.839 273.25 239.839 264 239.839C254.75 239.839 248.25 246.589 248.25 256.589L248.25 504.339C248.25 514.089 254.75 520.839 264 520.839ZM443.5 520.839C450.75 520.839 458.5 516.339 458.5 504.339L458.5 399.089C458.5 375.089 467.75 347.339 496.25 347.339C502.5 347.339 508.25 346.839 513 344.589C517.25 342.839 519.75 339.089 519.75 333.839C519.75 322.839 510.5 317.089 499.5 317.089C478.25 317.089 464 335.089 459.25 356.589L457 356.589L457 333.089C457 324.089 451 317.089 442.75 317.089C434.5 317.089 428.25 324.089 428.25 333.089L428.25 504.339C428.25 514.339 433.75 520.839 443.5 520.839ZM532 517.589C544.25 517.589 553.25 509.089 553.25 496.839C553.25 484.589 544.25 475.839 532 475.839C519.75 475.839 510.75 484.589 510.75 496.839C510.75 509.089 519.75 517.589 532 517.589Z" fill="black" fill-opacity="0.85"/>
 </g>
</svg>
