<?xml version="1.0" encoding="UTF-8"?>
<!--Generator: Apple Native CoreSVG 326-->
<!DOCTYPE svg
PUBLIC "-//W3C//DTD SVG 1.1//EN"
       "http://www.w3.org/Graphics/SVG/1.1/DTD/svg11.dtd">
<svg version="1.1" xmlns="http://www.w3.org/2000/svg" xmlns:xlink="http://www.w3.org/1999/xlink" viewBox="0 0 706 679.75">
 <g>
  <rect height="679.75" opacity="0" width="706" x="0" y="0"/>
  <path d="M39.25 610.25L666.75 610.25L666.75 591C666.75 580.25 660.25 573.75 649.25 573.75L628.75 573.75L628.75 213.5L657.75 213.5C673 213.5 681.5 202.75 681.5 191.5C681.5 183.25 677 176 667 170.25L390.75 10.75C378.5 3.75 365.5 0 353 0C340.5 0 327.25 3.75 315.25 10.75L39 170.25C28.75 176 24.5 183.25 24.5 191.5C24.5 202.75 33 213.5 48.25 213.5L77.5 213.5L77.5 573.75L57 573.75C45.75 573.75 39.25 580.25 39.25 591ZM119.25 573.75L119.25 175.5L338.5 52C342.75 49.5 348 48 353 48C357.75 48 362.75 49.5 367.5 52L587 175.5L587 573.75ZM22.25 679.25L683.75 679.25C696 679.25 706 669.25 706 657.25C706 645 696 635 683.75 635L22.25 635C10 635 0 645 0 657.25C0 669.25 10 679.25 22.25 679.25Z" fill="black" fill-opacity="0.85"/>
  <path d="M241.25 463.75C249.75 463.75 255.75 457.5 255.75 448.25L255.75 393L274.25 374.5L332.75 456.5C335.75 461 340 463.75 345.75 463.75C353.5 463.75 359.75 458.25 359.75 450.75C359.75 447 358.25 443.5 355.75 440.25L295.25 356.25L352 296C355.5 292 357.25 290 357.25 285.25C357.25 278.5 351.5 272.5 344 272.5C340 272.5 335.5 275 332.75 278.25L256.75 361.5L255.75 361.5L255.75 215.75C255.75 206.5 249.75 200 241.25 200C232.5 200 226.25 206.25 226.25 215.75L226.25 448.25C226.25 457.5 232.5 463.75 241.25 463.75ZM409.5 463.75C416.25 463.75 423.5 459.5 423.5 448.25L423.5 349.5C423.5 327 432.25 301 459.25 301C465 301 470.5 300.5 474.75 298.5C478.75 296.75 481.25 293.25 481.25 288.25C481.25 278 472.5 272.5 462 272.5C442 272.5 428.75 289.5 424.25 309.5L422.25 309.5L422.25 287.5C422.25 279 416.5 272.5 409 272.5C401.25 272.5 395.25 279 395.25 287.5L395.25 448.25C395.25 457.5 400.5 463.75 409.5 463.75ZM492.75 460.75C504.25 460.75 512.5 452.5 512.5 441.25C512.5 429.75 504.25 421.5 492.75 421.5C481 421.5 472.75 429.75 472.75 441.25C472.75 452.5 481 460.75 492.75 460.75Z" fill="black" fill-opacity="0.85"/>
 </g>
</svg>
