<?xml version="1.0" encoding="UTF-8"?>
<!--Generator: Apple Native CoreSVG 326-->
<!DOCTYPE svg
PUBLIC "-//W3C//DTD SVG 1.1//EN"
       "http://www.w3.org/Graphics/SVG/1.1/DTD/svg11.dtd">
<svg version="1.1" xmlns="http://www.w3.org/2000/svg" xmlns:xlink="http://www.w3.org/1999/xlink" viewBox="0 0 706 679.75">
 <g>
  <rect height="679.75" opacity="0" width="706" x="0" y="0"/>
  <path d="M390.75 10.75L667 170.25C677 176 681.5 183.25 681.5 191.5C681.5 202.75 673 213.5 657.75 213.5L628.75 213.5L628.75 595.25L649.25 595.25C660.25 595.25 666.75 601.75 666.75 612.5L666.75 635L683.75 635C696 635 706 645 706 657.25C706 669.25 696 679.25 683.75 679.25L22.25 679.25C10 679.25 0 669.25 0 657.25C0 645 10 635 22.25 635L39.25 635L39.25 612.5C39.25 601.75 45.75 595.25 57 595.25L77.5 595.25L77.5 213.5L48.25 213.5C33 213.5 24.5 202.75 24.5 191.5C24.5 183.25 28.75 176 39 170.25L315.25 10.75C327.25 3.75 340.5 0 353 0C365.5 0 378.5 3.75 390.75 10.75ZM223.25 241.5L223.25 479.25C223.25 489 229.5 495.5 238.5 495.5C247.5 495.5 253.75 489 253.75 479.25L253.75 423.25L272.5 404.25L332.25 487.75C335.5 492.5 340 495.5 345.5 495.5C353.75 495.5 360 489.75 360 482C360 478.25 358.5 474.75 356 471.25L294.25 385.25L352 323.75C355.75 320 357.5 317.75 357.5 313C357.5 306 351.5 299.75 343.75 299.75C339.75 299.75 335 302.25 332.25 305.5L254.75 390.5L253.75 390.5L253.75 241.75C253.75 232 247.5 225.5 238.5 225.5C229.5 225.5 223.25 231.75 223.25 241.5ZM426.25 337.75L424.25 337.75L424.25 315C424.25 306.25 418.5 299.75 410.75 299.75C402.5 299.75 396.5 306.25 396.5 315L396.5 479.25C396.5 489.25 401.75 495.5 411.25 495.5C418 495.5 425.5 491.25 425.5 479.25L425.5 378.5C425.5 355.5 434.5 329 462 329C468 329 473.5 328.5 478.25 326.25C482.25 324.5 484.5 320.75 484.5 315.75C484.5 305.25 475.75 299.75 465 299.75C444.5 299.75 431 317 426.25 337.75ZM475.75 472.25C475.75 484 484.25 492.5 496.25 492.5C508 492.5 516.5 484 516.5 472.25C516.5 460.5 508 452 496.25 452C484.25 452 475.75 460.5 475.75 472.25Z" fill="black" fill-opacity="0.85"/>
 </g>
</svg>
