<?xml version="1.0" encoding="UTF-8"?>
<!--Generator: Apple Native CoreSVG 326-->
<!DOCTYPE svg
PUBLIC "-//W3C//DTD SVG 1.1//EN"
       "http://www.w3.org/Graphics/SVG/1.1/DTD/svg11.dtd">
<svg version="1.1" xmlns="http://www.w3.org/2000/svg" xmlns:xlink="http://www.w3.org/1999/xlink" viewBox="0 0 647.25 629.25">
 <g>
  <rect height="629.25" opacity="0" width="647.25" x="0" y="0"/>
  <path d="M26 629C42 629 52.75 617 52.75 601L52.75 454.75L103.5 406.75L271.25 619C276.25 625.5 283.5 629 292.75 629C306.75 629 317.5 619.25 317.5 606.5C317.5 600.25 315.25 594 310.25 587.75L140.75 373.75L300.25 216C306.75 209.5 309.75 203.25 309.75 196.5C309.75 183.5 298.75 174.25 286.75 174.25C279 174.25 272.75 177.5 266.5 183.75L54.5 396.75L52.75 396.75L52.75 27.75C52.75 11.5 41.75 0 26.25 0C10.75 0 0 11.5 0 27.75L0 601C0 618.25 12 629 26 629ZM424.75 629C439.5 629 450.25 617.25 450.25 601L450.25 350.5C450.25 291.25 475.75 224.75 552.25 224.75C566.5 224.75 584.75 226 591.5 222C598 219 602 213 602 204.25C602 192.75 596.5 185.5 587.75 181C578.75 176.5 566.25 174.75 555.25 174.75C508.25 174.75 465.5 206.5 452 262.5L448 262.5L448 201C448 185.5 437.75 174.25 423.75 174.25C409.5 174.25 399.5 185.5 399.5 201L399.5 601C399.5 617.25 410 629 424.75 629ZM607.75 624.75C629.75 624.75 647.25 607.25 647.25 585.25C647.25 563.25 629.75 545.75 607.75 545.75C585.5 545.75 568.25 563.25 568.25 585.25C568.25 607.25 585.5 624.75 607.75 624.75Z" fill="black" fill-opacity="0.85"/>
 </g>
</svg>
