<?xml version="1.0" encoding="UTF-8"?>
<!--Generator: Apple Native CoreSVG 326-->
<!DOCTYPE svg
PUBLIC "-//W3C//DTD SVG 1.1//EN"
       "http://www.w3.org/Graphics/SVG/1.1/DTD/svg11.dtd">
<svg version="1.1" xmlns="http://www.w3.org/2000/svg" xmlns:xlink="http://www.w3.org/1999/xlink" viewBox="0 0 587.75 587.75">
 <g>
  <rect height="587.75" opacity="0" width="587.75" x="0" y="0"/>
  <path d="M587.75 96.5L587.75 491.5C587.75 555 555 587.75 490.25 587.75L97.25 587.75C32.75 587.75 0 555.5 0 491.5L0 96.5C0 32.5 32.75 0 97.25 0L490.25 0C555 0 587.75 32.75 587.75 96.5ZM284 118.5L284 147C236.5 150.75 195 179 195 225.5C195 273.25 235.5 291.5 276 301.25L284 303.25L284 407C253.5 404.75 231 391 222 362C218.25 352.75 213.25 349 205.5 349C196.75 349 189.75 354.75 189.75 364.5C189.75 367.5 190.25 370.75 191.25 374C202.25 414.25 243.5 433.25 284 436L284 465.75C284 471.25 288.5 475.75 294 475.75C299.5 475.75 304 471.25 304 465.75L304 436C354.75 433.25 398.5 407.75 398.5 355.5C398.5 307.25 359.5 288.25 314.5 277.75L304 275.25L304 176.5C332.25 178.75 353.5 193.25 361 219.5C363.75 228.5 369.5 233 377.5 233C385.25 233 393.5 228 393.5 218C393.5 180.25 349 150.75 304 147L304 118.5C304 113.25 299.5 108.75 294 108.75C288.5 108.75 284 113.25 284 118.5ZM308.5 309C338.5 316.25 365.5 327.25 365.5 358C365.5 392 336 405 304 407.25L304 308ZM284 270.75L281.25 270C253.5 263.25 228 251 228 223C228 194 255.75 179.5 284 176.5Z" fill="black" fill-opacity="0.85"/>
 </g>
</svg>
