<?xml version="1.0" encoding="UTF-8"?>
<!--Generator: Apple Native CoreSVG 326-->
<!DOCTYPE svg
PUBLIC "-//W3C//DTD SVG 1.1//EN"
       "http://www.w3.org/Graphics/SVG/1.1/DTD/svg11.dtd">
<svg version="1.1" xmlns="http://www.w3.org/2000/svg" xmlns:xlink="http://www.w3.org/1999/xlink" viewBox="0 0 651.25 651.75">
 <g>
  <rect height="651.75" opacity="0" width="651.25" x="0" y="0"/>
  <path d="M325.5 651.25C505.25 651.25 651.25 505.5 651.25 325.75C651.25 146 505.25 0 325.5 0C145.75 0 0 146 0 325.75C0 505.5 145.75 651.25 325.5 651.25ZM325.5 604.75C171.25 604.75 46.5 480 46.5 325.75C46.5 171.5 171.25 46.75 325.5 46.75C479.75 46.75 604.5 171.5 604.5 325.75C604.5 480 479.75 604.75 325.5 604.75Z" fill="black" fill-opacity="0.85"/>
  <path d="M303.75 431.25C331.75 431.25 357.75 419.75 370.75 392.75L371.75 392.75L371.75 418.75C371.75 427.5 378.5 434.25 387.25 434.25C396.25 434.25 402.75 427.5 402.75 418.75L402.75 213.75L427.5 213.75C432.75 213.75 437.25 209.25 437.25 204C437.25 198.75 432.75 194.5 427.5 194.5L402.75 194.5L402.75 179.5C402.75 169.75 396.5 163.25 386.75 163.25C377 163.25 371 169.75 371 179.5L371 194.5L308.75 194.5C303.25 194.5 299 198.75 299 204C299 209.5 303.25 213.75 308.75 213.75L371 213.75L371 282.25L369.25 282.25C358 256.75 332.25 244.25 303.75 244.25C256.75 244.25 218.75 281 218.75 337.5C218.75 391 253.75 431.25 303.75 431.25ZM311.75 403.5C274 403.5 251.5 374.5 251.5 337.5C251.5 299 276.25 271.75 311.75 271.75C348.5 271.75 370.75 302 370.75 337.5C370.75 375.25 346.5 403.5 311.75 403.5ZM234.5 465.5C234.5 471.25 239.25 475.5 244.75 475.5L402 475.5C407.5 475.5 412.25 471.25 412.25 465.5C412.25 460 407.5 455.5 402 455.5L244.75 455.5C239.25 455.5 234.5 460 234.5 465.5Z" fill="black" fill-opacity="0.85"/>
 </g>
</svg>
