<?xml version="1.0" encoding="UTF-8"?>
<!--Generator: Apple Native CoreSVG 326-->
<!DOCTYPE svg
PUBLIC "-//W3C//DTD SVG 1.1//EN"
       "http://www.w3.org/Graphics/SVG/1.1/DTD/svg11.dtd">
<svg version="1.1" xmlns="http://www.w3.org/2000/svg" xmlns:xlink="http://www.w3.org/1999/xlink" viewBox="0 0 706 679.75">
 <g>
  <rect height="679.75" opacity="0" width="706" x="0" y="0"/>
  <path d="M39.25 610.25L666.75 610.25L666.75 591C666.75 580.25 660.25 573.75 649.25 573.75L628.75 573.75L628.75 213.5L657.75 213.5C673 213.5 681.5 202.75 681.5 191.5C681.5 183.25 677 176 667 170.25L390.75 10.75C378.5 3.75 365.5 0 353 0C340.5 0 327.25 3.75 315.25 10.75L39 170.25C28.75 176 24.5 183.25 24.5 191.5C24.5 202.75 33 213.5 48.25 213.5L77.5 213.5L77.5 573.75L57 573.75C45.75 573.75 39.25 580.25 39.25 591ZM119.25 573.75L119.25 175.5L338.5 52C342.75 49.5 348 48 353 48C357.75 48 362.75 49.5 367.5 52L587 175.5L587 573.75ZM22.25 679.25L683.75 679.25C696 679.25 706 669.25 706 657.25C706 645 696 635 683.75 635L22.25 635C10 635 0 645 0 657.25C0 669.25 10 679.25 22.25 679.25Z" fill="black" fill-opacity="0.85"/>
  <path d="M221.25 461.5L317.25 461.5C325.5 461.5 331 456.5 331 448.25C331 439.75 325.5 435 317.25 435L236.75 435L236.75 348.75L313.5 348.75C321.25 348.75 326.25 343.5 326.25 336C326.25 328.5 321.25 323.5 313.5 323.5L236.75 323.5L236.75 242.25L317.25 242.25C325.5 242.25 331 237.25 331 229C331 220.75 325.5 216 317.25 216L221.25 216C211.75 216 206.25 222 206.25 231.75L206.25 445.5C206.25 455.5 211.25 461.5 221.25 461.5ZM382.5 461.5L500.25 461.5C508 461.5 513 456 513 448.25C513 440.25 508 435 500.25 435L402.5 435L402.5 433.25L505.5 245C508 241 510 236.5 510 231C510 222.25 504 216 494.25 216L381.5 216C373.5 216 367.75 221 367.75 229C367.75 237 373.5 242.25 381.5 242.25L475.5 242.25L475.5 244L371.25 432.75C368.75 437 367 441.5 367 446.5C367 456.5 374.5 461.5 382.5 461.5Z" fill="black" fill-opacity="0.85"/>
 </g>
</svg>
