<?xml version="1.0" encoding="UTF-8"?>
<!--Generator: Apple Native CoreSVG 326-->
<!DOCTYPE svg
PUBLIC "-//W3C//DTD SVG 1.1//EN"
       "http://www.w3.org/Graphics/SVG/1.1/DTD/svg11.dtd">
<svg version="1.1" xmlns="http://www.w3.org/2000/svg" xmlns:xlink="http://www.w3.org/1999/xlink" viewBox="0 0 651.25 651.75">
 <g>
  <rect height="651.75" opacity="0" width="651.25" x="0" y="0"/>
  <path d="M651.25 325.75C651.25 505 505 651.25 325.5 651.25C146.25 651.25 0 505 0 325.75C0 146.25 146.25 0 325.5 0C505 0 651.25 146.25 651.25 325.75ZM181.25 192.5C170.75 192.5 164.75 199 164.75 209.75L164.75 442.75C164.75 453.75 170 460.25 181.25 460.25L285.75 460.25C295 460.25 301 454.75 301 445.75C301 436.75 295 431 285.75 431L198.25 431L198.25 337.5L281.75 337.5C290.25 337.5 295.75 331.75 295.75 323.5C295.75 315.25 290.25 309.5 281.75 309.5L198.25 309.5L198.25 221.5L285.75 221.5C295 221.5 301 215.75 301 206.75C301 197.75 295 192.5 285.75 192.5ZM356.25 192.5C347.5 192.5 341.25 198 341.25 206.75C341.25 215.5 347.5 221.5 356.25 221.5L458.5 221.5L458.5 223L344.75 428.75C342 433.5 340.25 438.25 340.25 443.5C340.25 455 348.5 460.25 357.25 460.25L485.75 460.25C494.5 460.25 499.5 454.25 499.5 445.75C499.5 437.25 494.5 431 485.75 431L379 431L379 429.5L491.5 224.25C494.25 219.75 496.5 214.75 496.5 209.25C496.5 199.5 490 192.5 479.25 192.5Z" fill="black" fill-opacity="0.85"/>
 </g>
</svg>
