<?xml version="1.0" encoding="UTF-8"?>
<!--Generator: Apple Native CoreSVG 326-->
<!DOCTYPE svg
PUBLIC "-//W3C//DTD SVG 1.1//EN"
       "http://www.w3.org/Graphics/SVG/1.1/DTD/svg11.dtd">
<svg version="1.1" xmlns="http://www.w3.org/2000/svg" xmlns:xlink="http://www.w3.org/1999/xlink" viewBox="0 0 775.551 651.75">
 <g>
  <rect height="651.75" opacity="0" width="775.551" x="0" y="0"/>
  <path d="M387.775 651.25C567.525 651.25 713.275 505.5 713.275 325.75C713.275 146 567.525 0 387.775 0C208.025 0 62.2754 146 62.2754 325.75L108.775 325.75C108.775 171.5 233.525 46.75 387.775 46.75C542.025 46.75 666.775 171.5 666.775 325.75C666.775 480 542.025 604.75 387.775 604.75C292.275 604.75 207.025 556.25 158.275 483.25C150.025 472 137.025 468.5 125.525 475.5C114.525 482 111.275 497.25 120.275 509.5C178.525 595.25 277.025 651.25 387.775 651.25ZM20.5254 265.25C0.0253627 265.25-5.72464 279.25 6.02536 295.5L77.0254 396.5C86.5254 410.25 100.275 410 109.525 396.5L180.525 295.25C191.775 279.25 186.275 265.25 166.025 265.25Z" fill="black" fill-opacity="0.85"/>
  <path d="M251.525 453L350.775 453C359.275 453 365.025 448 365.025 439.5C365.025 430.75 359.275 425.75 350.775 425.75L267.525 425.75L267.525 336.75L347.025 336.75C354.775 336.75 360.025 331.5 360.025 323.5C360.025 315.75 354.775 310.75 347.025 310.75L267.525 310.75L267.525 226.75L350.775 226.75C359.275 226.75 365.025 221.75 365.025 213.25C365.025 204.5 359.275 199.75 350.775 199.75L251.525 199.75C241.775 199.75 236.025 206 236.025 215.75L236.025 436.75C236.025 447 241.275 453 251.525 453ZM418.025 453L539.775 453C547.775 453 552.775 447.5 552.775 439.5C552.775 431.25 547.775 425.75 539.775 425.75L438.775 425.75L438.775 424L545.275 229.75C547.525 225.25 549.775 220.75 549.775 215.25C549.775 206.25 543.775 199.75 533.525 199.75L417.275 199.75C408.775 199.75 403.025 204.75 403.025 213.25C403.025 221.5 408.775 226.75 417.275 226.75L514.025 226.75L514.025 228.5L406.275 423.5C403.775 428 402.025 432.5 402.025 437.5C402.025 448 409.775 453 418.025 453Z" fill="black" fill-opacity="0.85"/>
 </g>
</svg>
