<?xml version="1.0" encoding="UTF-8"?>
<!--Generator: Apple Native CoreSVG 326-->
<!DOCTYPE svg
PUBLIC "-//W3C//DTD SVG 1.1//EN"
       "http://www.w3.org/Graphics/SVG/1.1/DTD/svg11.dtd">
<svg version="1.1" xmlns="http://www.w3.org/2000/svg" xmlns:xlink="http://www.w3.org/1999/xlink" viewBox="0 0 706 679.75">
 <g>
  <rect height="679.75" opacity="0" width="706" x="0" y="0"/>
  <path d="M390.75 10.75L667 170.25C677 176 681.5 183.25 681.5 191.5C681.5 202.75 673 213.5 657.75 213.5L628.75 213.5L628.75 595.25L649.25 595.25C660.25 595.25 666.75 601.75 666.75 612.5L666.75 635L683.75 635C696 635 706 645 706 657.25C706 669.25 696 679.25 683.75 679.25L22.25 679.25C10 679.25 0 669.25 0 657.25C0 645 10 635 22.25 635L39.25 635L39.25 612.5C39.25 601.75 45.75 595.25 57 595.25L77.5 595.25L77.5 213.5L48.25 213.5C33 213.5 24.5 202.75 24.5 191.5C24.5 183.25 28.75 176 39 170.25L315.25 10.75C327.25 3.75 340.5 0 353 0C365.5 0 378.5 3.75 390.75 10.75ZM249 326.25L209.25 326.25C204 326.25 199.25 330.5 199.25 336.25C199.25 341.75 204 346.25 209.25 346.25L245.75 346.25C245.25 352.25 244.75 358.75 244.75 365.5C244.75 372 245.25 378.5 245.75 384.5L209.25 384.5C204 384.5 199.25 389 199.25 394.5C199.25 399.75 204 404.5 209.25 404.5L249 404.5C263.75 472.75 318.75 510.5 394.25 510.5C403.25 510.5 414.5 510 423.25 508.25C432.25 506 439.25 501.5 439.25 492.75C439.25 483.25 432.75 478.75 423.5 478.75C414 478.75 409.25 480.25 395.75 480.25C337.75 480.25 298.25 452.75 285 404.5L390 404.5C395.5 404.5 400 399.75 400 394.5C400 389 395.5 384.5 390 384.5L281.25 384.5C280.5 378.5 280.25 372.25 280.25 365.75C280.25 359 280.5 352.25 281.25 346.25L390 346.25C395.5 346.25 400 341.75 400 336.25C400 330.5 395.5 326.25 390 326.25L285.25 326.25C298 278.5 336.25 251 395 251C407 251 417 252.5 423.5 252.5C432.75 252.5 439.25 247.5 439.25 238.25C439.25 230 433.75 224.75 423.25 222.25C415.5 220.75 405 220 394.25 220C323.5 220 264.25 255.25 249 326.25Z" fill="black" fill-opacity="0.85"/>
 </g>
</svg>
