<?xml version="1.0" encoding="UTF-8"?>
<!--Generator: Apple Native CoreSVG 326-->
<!DOCTYPE svg
PUBLIC "-//W3C//DTD SVG 1.1//EN"
       "http://www.w3.org/Graphics/SVG/1.1/DTD/svg11.dtd">
<svg version="1.1" xmlns="http://www.w3.org/2000/svg" xmlns:xlink="http://www.w3.org/1999/xlink" viewBox="0 0 768.5 637.929">
 <g>
  <rect height="637.929" opacity="0" width="768.5" x="0" y="0"/>
  <path d="M768.5 382.839C768.5 181.589 613.75 16.5894 417.25 0.089388C407-0.910612 399 6.58939 399 17.0894L399 119.339C399 127.839 405.25 134.589 414 135.339C537.25 150.339 633 255.339 633 382.839C633 440.839 613.25 494.089 578.25 538.089C573.5 544.089 573.75 551.589 579 556.839L653.25 631.089C660.75 638.339 671.5 638.339 678 630.339C734.5 563.339 768.5 476.839 768.5 382.839Z" fill="black" fill-opacity="0.85"/>
  <path d="M0 382.839C0 477.089 34 563.839 90.75 630.839C97 638.339 107.5 638.339 115 631.089L189.25 556.839C194.5 551.589 194.75 544.089 190 538.089C155 494.089 135.25 440.839 135.25 382.839C135.25 255.339 231.25 150.339 354.25 135.339C363.25 134.589 369.25 127.839 369.25 119.339L369.25 17.0894C369.25 6.58939 361.5-0.910612 351.25 0.089388C154.5 16.5894 0 181.589 0 382.839Z" fill="black" fill-opacity="0.85"/>
  <path d="M250.25 511.839L347.5 511.839C355.75 511.839 361.25 506.839 361.25 498.339C361.25 490.089 355.75 485.089 347.5 485.089L265.75 485.089L265.75 397.839L343.75 397.839C351.25 397.839 356.5 392.589 356.5 384.839C356.5 377.339 351.25 372.339 343.75 372.339L265.75 372.339L265.75 290.089L347.5 290.089C355.75 290.089 361.25 285.089 361.25 276.589C361.25 268.339 355.75 263.339 347.5 263.339L250.25 263.339C240.75 263.339 235 269.589 235 279.339L235 495.839C235 505.839 240.25 511.839 250.25 511.839ZM413.25 511.839L532.75 511.839C540.5 511.839 545.5 506.339 545.5 498.339C545.5 490.589 540.5 485.089 532.75 485.089L433.75 485.089L433.75 483.339L538 292.839C540.5 288.589 542.5 284.089 542.5 278.589C542.5 269.839 536.5 263.339 526.5 263.339L412.5 263.339C404.5 263.339 398.5 268.589 398.5 276.589C398.5 284.839 404.5 290.089 412.5 290.089L507.5 290.089L507.5 291.589L402 482.839C399.5 487.339 397.75 491.589 397.75 496.589C397.75 506.839 405.25 511.839 413.25 511.839Z" fill="black" fill-opacity="0.85"/>
 </g>
</svg>
