<?xml version="1.0" encoding="UTF-8"?>
<!--Generator: Apple Native CoreSVG 326-->
<!DOCTYPE svg
PUBLIC "-//W3C//DTD SVG 1.1//EN"
       "http://www.w3.org/Graphics/SVG/1.1/DTD/svg11.dtd">
<svg version="1.1" xmlns="http://www.w3.org/2000/svg" xmlns:xlink="http://www.w3.org/1999/xlink" viewBox="0 0 780.25 588.75">
 <g>
  <rect height="588.75" opacity="0" width="780.25" x="0" y="0"/>
  <path d="M26.5 588.25L293 588.25C308.25 588.25 318 578.25 318 564C318 549.75 308 539.75 293 539.75L54 539.75L54 311L281 311C296.5 311 305.5 300.25 305.5 286.75C305.5 274.25 297.25 263.25 281 263.25L54 263.25L54 49L293 49C307.5 49 318 38.75 318 24.25C318 10 308.25 0 293 0L26.5 0C10.75 0 0 10.75 0 28L0 560.25C0 578.25 11.25 588.25 26.5 588.25ZM429.75 588.25L755.75 588.25C771 588.25 780.25 577.5 780.25 564C780.25 549.5 770.5 539.75 755.75 539.75L467 539.75L467 537L763.75 55C769 46 772.75 38.75 772.75 28.25C772.75 12.25 761.5 0 743.25 0L431 0C416.25 0 405.75 9.25 405.75 24.25C405.75 38.75 415.75 49 431 49L708.75 49L708.75 51.5L410 534C404.75 542.75 401.25 550 401.25 560.25C401.25 579 414.75 588.25 429.75 588.25Z" fill="black" fill-opacity="0.85"/>
 </g>
</svg>
