<?xml version="1.0" encoding="UTF-8"?>
<!--Generator: Apple Native CoreSVG 326-->
<!DOCTYPE svg
PUBLIC "-//W3C//DTD SVG 1.1//EN"
       "http://www.w3.org/Graphics/SVG/1.1/DTD/svg11.dtd">
<svg version="1.1" xmlns="http://www.w3.org/2000/svg" xmlns:xlink="http://www.w3.org/1999/xlink" viewBox="0 0 651.25 651.75">
 <g>
  <rect height="651.75" opacity="0" width="651.25" x="0" y="0"/>
  <path d="M651.25 325.75C651.25 505 505 651.25 325.5 651.25C146.25 651.25 0 505 0 325.75C0 146.25 146.25 0 325.5 0C505 0 651.25 146.25 651.25 325.75ZM318.25 254.5L309.25 306.75L240.75 306.75C233.5 306.75 228.25 312 228.25 318.75C228.25 325.75 233.5 330.75 240.75 330.75L305.5 330.75L294.75 392.5C289 425 275.5 442.75 242.5 442.75C229.25 442.75 224.75 440.25 213.5 440.25C206 440.25 201.25 445.25 201.25 452C201.25 459.75 206 464.25 213.75 467.5C223.25 471.25 235.5 472 245.5 472C295.75 472 319.75 445.75 328 396.5L339.25 330.75L411.5 330.75C418.75 330.75 424.25 325.75 424.25 318.75C424.25 312 418.75 306.75 411.5 306.75L343 306.75L351.5 257.25C357 225.75 372.75 209.5 404.5 209.5C417 209.5 425 212.25 433.25 212.25C441 211.75 445.75 208 445.75 200.25C445.75 192.75 439.75 188 432.75 185C423.5 181.25 410 180 401.75 180C353 180 326.25 206 318.25 254.5Z" fill="black" fill-opacity="0.85"/>
 </g>
</svg>
