<?xml version="1.0" encoding="UTF-8"?>
<!--Generator: Apple Native CoreSVG 326-->
<!DOCTYPE svg
PUBLIC "-//W3C//DTD SVG 1.1//EN"
       "http://www.w3.org/Graphics/SVG/1.1/DTD/svg11.dtd">
<svg version="1.1" xmlns="http://www.w3.org/2000/svg" xmlns:xlink="http://www.w3.org/1999/xlink" viewBox="0 0 768.5 637.929">
 <g>
  <rect height="637.929" opacity="0" width="768.5" x="0" y="0"/>
  <path d="M768.5 382.839C768.5 181.589 613.75 16.5894 417.25 0.089388C407-0.910612 399 6.58939 399 17.0894L399 119.339C399 127.839 405.25 134.589 414 135.339C537.25 150.339 633 255.339 633 382.839C633 440.839 613.25 494.089 578.25 538.089C573.5 544.089 573.75 551.589 579 556.839L653.25 631.089C660.75 638.339 671.5 638.339 678 630.339C734.5 563.339 768.5 476.839 768.5 382.839Z" fill="black" fill-opacity="0.85"/>
  <path d="M0 382.839C0 477.089 34 563.839 90.75 630.839C97 638.339 107.5 638.339 115 631.089L189.25 556.839C194.5 551.589 194.75 544.089 190 538.089C155 494.089 135.25 440.839 135.25 382.839C135.25 255.339 231.25 150.339 354.25 135.339C363.25 134.589 369.25 127.839 369.25 119.339L369.25 17.0894C369.25 6.58939 361.5-0.910612 351.25 0.089388C154.5 16.5894 0 181.589 0 382.839Z" fill="black" fill-opacity="0.85"/>
  <path d="M330.75 535.089C340.5 535.089 347.5 528.089 347.5 518.089L347.5 481.339L418.5 481.339C424 481.339 428.25 477.089 428.25 471.589C428.25 466.089 424 461.839 418.5 461.839L347.5 461.839L347.5 401.589L456.75 401.589C465.25 401.589 471.75 395.339 471.75 386.839C471.75 378.839 465.25 372.589 456.75 372.589L347.5 372.589L347.5 276.089L468 276.089C476.75 276.089 483.25 269.839 483.25 261.339C483.25 252.839 476.75 246.589 468 246.589L330.75 246.589C320.25 246.589 313.75 253.089 313.75 263.839L313.75 461.839L282.75 461.839C277.25 461.839 273 466.089 273 471.589C273 477.089 277.25 481.339 282.75 481.339L313.75 481.339L313.75 518.089C313.75 528.089 320.75 535.089 330.75 535.089Z" fill="black" fill-opacity="0.85"/>
 </g>
</svg>
