<?xml version="1.0" encoding="UTF-8"?>
<!--Generator: Apple Native CoreSVG 326-->
<!DOCTYPE svg
PUBLIC "-//W3C//DTD SVG 1.1//EN"
       "http://www.w3.org/Graphics/SVG/1.1/DTD/svg11.dtd">
<svg version="1.1" xmlns="http://www.w3.org/2000/svg" xmlns:xlink="http://www.w3.org/1999/xlink" viewBox="0 0 775.551 651.75">
 <g>
  <rect height="651.75" opacity="0" width="775.551" x="0" y="0"/>
  <path d="M387.775 651.25C567.525 651.25 713.275 505.5 713.275 325.75C713.275 146 567.525 0 387.775 0C208.025 0 62.2754 146 62.2754 325.75L108.775 325.75C108.775 171.5 233.525 46.75 387.775 46.75C542.025 46.75 666.775 171.5 666.775 325.75C666.775 480 542.025 604.75 387.775 604.75C292.275 604.75 207.025 556.25 158.275 483.25C150.025 472 137.025 468.5 125.525 475.5C114.525 482 111.275 497.25 120.275 509.5C178.525 595.25 277.025 651.25 387.775 651.25ZM20.5254 265.25C0.0253627 265.25-5.72464 279.25 6.02536 295.5L77.0254 396.5C86.5254 410.25 100.275 410 109.525 396.5L180.525 295.25C191.775 279.25 186.275 265.25 166.025 265.25Z" fill="black" fill-opacity="0.85"/>
  <path d="M334.525 474C344.275 474 351.525 466.75 351.525 456.75L351.525 420L422.525 420C428.025 420 432.275 415.75 432.275 410.25C432.275 404.75 428.025 400.5 422.525 400.5L351.525 400.5L351.525 340.25L460.525 340.25C469.275 340.25 475.775 334 475.775 325.75C475.775 317.5 469.275 311.25 460.525 311.25L351.525 311.25L351.525 214.75L471.775 214.75C480.775 214.75 487.275 208.5 487.275 200.25C487.275 191.5 480.775 185.25 471.775 185.25L334.775 185.25C324.025 185.25 317.525 191.75 317.525 202.75L317.525 400.5L286.775 400.5C281.275 400.5 277.025 404.75 277.025 410.25C277.025 415.75 281.275 420 286.775 420L317.525 420L317.525 456.75C317.525 466.75 324.525 474 334.525 474Z" fill="black" fill-opacity="0.85"/>
 </g>
</svg>
