<?xml version="1.0" encoding="UTF-8"?>
<!--Generator: Apple Native CoreSVG 326-->
<!DOCTYPE svg
PUBLIC "-//W3C//DTD SVG 1.1//EN"
       "http://www.w3.org/Graphics/SVG/1.1/DTD/svg11.dtd">
<svg version="1.1" xmlns="http://www.w3.org/2000/svg" xmlns:xlink="http://www.w3.org/1999/xlink" viewBox="0 0 651.25 651.75">
 <g>
  <rect height="651.75" opacity="0" width="651.25" x="0" y="0"/>
  <path d="M651.25 325.75C651.25 505 505 651.25 325.5 651.25C146.25 651.25 0 505 0 325.75C0 146.25 146.25 0 325.5 0C505 0 651.25 146.25 651.25 325.75ZM271.5 181.5C260.25 181.5 253.5 188.25 253.5 199.75L253.5 402.25L222 402.25C216.25 402.25 212 406.75 212 412.25C212 418.25 216.25 422.25 222 422.25L253.5 422.25L253.5 459.75C253.5 470.25 260.75 477.75 271.25 477.75C281.25 477.75 288.75 470.25 288.75 459.75L288.75 422.25L361.25 422.25C367 422.25 371.25 418.25 371.25 412.25C371.25 406.75 367 402.25 361.25 402.25L288.75 402.25L288.75 340.75L400.25 340.75C409.25 340.75 416 334.25 416 325.75C416 317.25 409.25 310.75 400.25 310.75L288.75 310.75L288.75 212L411.75 212C421 212 427.75 205.5 427.75 197C427.75 188 421 181.5 411.75 181.5Z" fill="black" fill-opacity="0.85"/>
 </g>
</svg>
