<?xml version="1.0" encoding="UTF-8"?>
<!--Generator: Apple Native CoreSVG 326-->
<!DOCTYPE svg
PUBLIC "-//W3C//DTD SVG 1.1//EN"
       "http://www.w3.org/Graphics/SVG/1.1/DTD/svg11.dtd">
<svg version="1.1" xmlns="http://www.w3.org/2000/svg" xmlns:xlink="http://www.w3.org/1999/xlink" viewBox="0 0 587.75 587.75">
 <g>
  <rect height="587.75" opacity="0" width="587.75" x="0" y="0"/>
  <path d="M97.25 587.75L490.25 587.75C555 587.75 587.75 555 587.75 491.5L587.75 96.5C587.75 32.75 555 0 490.25 0L97.25 0C32.75 0 0 32.5 0 96.5L0 491.5C0 555.5 32.75 587.75 97.25 587.75ZM98.25 543.5C63.25 543.5 44.25 525 44.25 489L44.25 98.75C44.25 63 63.25 44.25 98.25 44.25L489.5 44.25C523.75 44.25 543.5 63 543.5 98.75L543.5 489C543.5 525 523.75 543.5 489.5 543.5Z" fill="black" fill-opacity="0.85"/>
  <path d="M240.75 442C250.5 442 257.75 434.75 257.75 424.75L257.75 388L328.75 388C334.25 388 338.25 383.75 338.25 378.25C338.25 372.75 334.25 368.5 328.75 368.5L257.75 368.5L257.75 308.25L366.75 308.25C375.5 308.25 382 302 382 293.75C382 285.5 375.5 279.25 366.75 279.25L257.75 279.25L257.75 182.75L378 182.75C387 182.75 393.5 176.5 393.5 168.25C393.5 159.5 387 153.25 378 153.25L241 153.25C230.25 153.25 223.75 159.75 223.75 170.75L223.75 368.5L193 368.5C187.25 368.5 183.25 372.75 183.25 378.25C183.25 383.75 187.25 388 193 388L223.75 388L223.75 424.75C223.75 434.75 230.75 442 240.75 442Z" fill="black" fill-opacity="0.85"/>
 </g>
</svg>
