<?xml version="1.0" encoding="UTF-8"?>
<!--Generator: Apple Native CoreSVG 326-->
<!DOCTYPE svg
PUBLIC "-//W3C//DTD SVG 1.1//EN"
       "http://www.w3.org/Graphics/SVG/1.1/DTD/svg11.dtd">
<svg version="1.1" xmlns="http://www.w3.org/2000/svg" xmlns:xlink="http://www.w3.org/1999/xlink" viewBox="0 0 587.75 587.75">
 <g>
  <rect height="587.75" opacity="0" width="587.75" x="0" y="0"/>
  <path d="M587.75 96.5L587.75 491.5C587.75 555 555 587.75 490.25 587.75L97.25 587.75C32.75 587.75 0 555.5 0 491.5L0 96.5C0 32.5 32.75 0 97.25 0L490.25 0C555 0 587.75 32.75 587.75 96.5ZM240 149.5C228.75 149.5 222 156.25 222 167.75L222 370.25L190.5 370.25C184.75 370.25 180.5 374.75 180.5 380.25C180.5 386.25 184.75 390.25 190.5 390.25L222 390.25L222 427.75C222 438.25 229.25 445.75 239.75 445.75C249.75 445.75 257.25 438.25 257.25 427.75L257.25 390.25L329.75 390.25C335.5 390.25 339.75 386.25 339.75 380.25C339.75 374.75 335.5 370.25 329.75 370.25L257.25 370.25L257.25 308.75L368.75 308.75C377.75 308.75 384.5 302.25 384.5 293.75C384.5 285.25 377.75 278.75 368.75 278.75L257.25 278.75L257.25 180L380.25 180C389.5 180 396.25 173.5 396.25 165C396.25 156 389.5 149.5 380.25 149.5Z" fill="black" fill-opacity="0.85"/>
 </g>
</svg>
