<?xml version="1.0" encoding="UTF-8"?>
<!--Generator: Apple Native CoreSVG 326-->
<!DOCTYPE svg
PUBLIC "-//W3C//DTD SVG 1.1//EN"
       "http://www.w3.org/Graphics/SVG/1.1/DTD/svg11.dtd">
<svg version="1.1" xmlns="http://www.w3.org/2000/svg" xmlns:xlink="http://www.w3.org/1999/xlink" viewBox="0 0 752.75 544.25">
 <g>
  <rect height="544.25" opacity="0" width="752.75" x="0" y="0"/>
  <path d="M15.75 266.25L15.75 297.5L332.75 297.5C309.75 344.75 243.25 404.5 199.25 409.75C184.25 411.25 176.25 420 176.25 433.75C176.25 445.75 186 457.5 202 455C250 447 330 391 357.25 318.5L359.25 318.5L359.25 538.5L393.25 538.5L393.25 318.5L395.25 318.5C422.5 391 502.5 447 550.5 455C566.5 457.5 576.25 445.75 576.25 433.75C576.25 420 568.25 411.25 553.25 409.75C509.25 404.5 442.75 344.75 419.75 297.5L734.5 297.5L734.5 266.25L497 266.25C540 248 572.25 213.25 572.25 171.25C572.25 125.25 539.5 92.5 495 92.5C453.25 92.5 414.25 121.75 393.25 166.25L393.25 5L359.25 5L359.25 166.25C338.25 121.75 299.25 92.5 257.5 92.5C213 92.5 180 125.25 180 171.25C180 213.25 212.5 248 255.5 266.25ZM344.25 262.5C278 262.5 219.25 217.25 219.25 174.25C219.25 148.25 235.25 132 259.5 132C309 132 354 189 354 253.75L354 262.5ZM408.25 262.5L398.5 262.5L398.5 253.75C398.5 189 443.5 132 493 132C517.25 132 533.25 148.25 533.25 174.25C533.25 217.25 474.5 262.5 408.25 262.5ZM97.25 544.25L655.25 544.25C720 544.25 752.75 511.5 752.75 447.75L752.75 97.25C752.75 33.5 720 0.75 655.25 0.75L97.25 0.75C32.75 0.75 0 33.25 0 97.25L0 447.75C0 511.75 32.75 544.25 97.25 544.25ZM98.25 499.75C63.25 499.75 44.25 481.25 44.25 445.5L44.25 99.5C44.25 63.5 63.25 45 98.25 45L654.5 45C688.75 45 708.25 63.5 708.25 99.5L708.25 445.5C708.25 481.25 688.75 499.75 654.5 499.75Z" fill="black" fill-opacity="0.85"/>
 </g>
</svg>
