<?xml version="1.0" encoding="UTF-8"?>
<!--Generator: Apple Native CoreSVG 326-->
<!DOCTYPE svg
PUBLIC "-//W3C//DTD SVG 1.1//EN"
       "http://www.w3.org/Graphics/SVG/1.1/DTD/svg11.dtd">
<svg version="1.1" xmlns="http://www.w3.org/2000/svg" xmlns:xlink="http://www.w3.org/1999/xlink" viewBox="0 0 768.5 637.929">
 <g>
  <rect height="637.929" opacity="0" width="768.5" x="0" y="0"/>
  <path d="M768.5 382.839C768.5 181.589 613.75 16.5894 417.25 0.089388C407-0.910612 399 6.58939 399 17.0894L399 119.339C399 127.839 405.25 134.589 414 135.339C537.25 150.339 633 255.339 633 382.839C633 440.839 613.25 494.089 578.25 538.089C573.5 544.089 573.75 551.589 579 556.839L653.25 631.089C660.75 638.339 671.5 638.339 678 630.339C734.5 563.339 768.5 476.839 768.5 382.839Z" fill="black" fill-opacity="0.85"/>
  <path d="M0 382.839C0 477.089 34 563.839 90.75 630.839C97 638.339 107.5 638.339 115 631.089L189.25 556.839C194.5 551.589 194.75 544.089 190 538.089C155 494.089 135.25 440.839 135.25 382.839C135.25 255.339 231.25 150.339 354.25 135.339C363.25 134.589 369.25 127.839 369.25 119.339L369.25 17.0894C369.25 6.58939 361.5-0.910612 351.25 0.089388C154.5 16.5894 0 181.589 0 382.839Z" fill="black" fill-opacity="0.85"/>
  <path d="M386.25 527.589C455 527.589 496.75 486.089 496.75 413.589L496.75 398.839C496.75 387.839 490 381.089 480 381.089L392 381.089L392 408.089L464.5 408.089L464.5 420.839C464.5 466.589 436.25 498.339 386.5 498.339C326.75 498.339 297.25 447.339 297.25 385.089C297.25 326.589 324.25 272.839 386 272.839C421.25 272.839 452.25 293.589 460.75 324.589C464 333.089 467.75 336.839 477 336.839C485.75 336.839 491.75 331.089 491.75 322.339C491.75 318.339 491.25 313.339 489 308.089C473.5 265.339 428.5 243.839 386 243.839C305.5 243.839 262.5 305.339 262.5 385.339C262.5 467.589 307.5 527.589 386.25 527.589ZM384.75 565.339C390.5 565.339 394.5 561.089 394.5 555.339L394.5 217.089C394.5 211.089 390.5 206.839 384.75 206.839C378.75 206.839 374.75 211.089 374.75 217.089L374.75 555.339C374.75 561.089 378.75 565.339 384.75 565.339Z" fill="black" fill-opacity="0.85"/>
 </g>
</svg>
