<?xml version="1.0" encoding="UTF-8"?>
<!--Generator: Apple Native CoreSVG 326-->
<!DOCTYPE svg
PUBLIC "-//W3C//DTD SVG 1.1//EN"
       "http://www.w3.org/Graphics/SVG/1.1/DTD/svg11.dtd">
<svg version="1.1" xmlns="http://www.w3.org/2000/svg" xmlns:xlink="http://www.w3.org/1999/xlink" viewBox="0 0 706 679.75">
 <g>
  <rect height="679.75" opacity="0" width="706" x="0" y="0"/>
  <path d="M390.75 10.75L667 170.25C677 176 681.5 183.25 681.5 191.5C681.5 202.75 673 213.5 657.75 213.5L628.75 213.5L628.75 595.25L649.25 595.25C660.25 595.25 666.75 601.75 666.75 612.5L666.75 635L683.75 635C696 635 706 645 706 657.25C706 669.25 696 679.25 683.75 679.25L22.25 679.25C10 679.25 0 669.25 0 657.25C0 645 10 635 22.25 635L39.25 635L39.25 612.5C39.25 601.75 45.75 595.25 57 595.25L77.5 595.25L77.5 213.5L48.25 213.5C33 213.5 24.5 202.75 24.5 191.5C24.5 183.25 28.75 176 39 170.25L315.25 10.75C327.25 3.75 340.5 0 353 0C365.5 0 378.5 3.75 390.75 10.75ZM343.75 192.75L343.75 220.5C268.75 226 228.75 287.25 228.75 365.25C228.75 445.25 270.25 505 343.75 510.5L343.75 539.5C343.75 545.25 348 549.75 354.25 549.75C360 549.75 364.25 545.25 364.25 539.5L364.25 511C429.5 507.5 469.25 465.75 469.25 394.25L469.25 379C469.25 367.75 462.25 360.75 451.75 360.75L364.25 360.75L364.25 250.5C397 253.5 424 274 432 302.75C435.25 311.75 439 315.5 448.75 315.5C458 315.5 463.75 309.75 463.75 300.5C463.75 296.5 463.25 291.5 461 286C446.25 245 405.25 223.25 364.25 220.5L364.25 192.75C364.25 186.75 360 182.25 354.25 182.25C348 182.25 343.75 186.75 343.75 192.75ZM435.75 401.75C435.75 445.75 409.75 477.5 364.25 480.5L364.25 388.75L435.75 388.75ZM343.75 480.25C291 473.5 264.5 424.25 264.5 365C264.5 309 288.75 257.25 343.75 251Z" fill="black" fill-opacity="0.85"/>
 </g>
</svg>
