<?xml version="1.0" encoding="UTF-8"?>
<!--Generator: Apple Native CoreSVG 326-->
<!DOCTYPE svg
PUBLIC "-//W3C//DTD SVG 1.1//EN"
       "http://www.w3.org/Graphics/SVG/1.1/DTD/svg11.dtd">
<svg version="1.1" xmlns="http://www.w3.org/2000/svg" xmlns:xlink="http://www.w3.org/1999/xlink" viewBox="0 0 775.551 651.75">
 <g>
  <rect height="651.75" opacity="0" width="775.551" x="0" y="0"/>
  <path d="M387.775 651.25C567.525 651.25 713.275 505.5 713.275 325.75C713.275 146 567.525 0 387.775 0C208.025 0 62.2754 146 62.2754 325.75L108.775 325.75C108.775 171.5 233.525 46.75 387.775 46.75C542.025 46.75 666.775 171.5 666.775 325.75C666.775 480 542.025 604.75 387.775 604.75C292.275 604.75 207.025 556.25 158.275 483.25C150.025 472 137.025 468.5 125.525 475.5C114.525 482 111.275 497.25 120.275 509.5C178.525 595.25 277.025 651.25 387.775 651.25ZM20.5254 265.25C0.0253627 265.25-5.72464 279.25 6.02536 295.5L77.0254 396.5C86.5254 410.25 100.275 410 109.525 396.5L180.525 295.25C191.775 279.25 186.275 265.25 166.025 265.25Z" fill="black" fill-opacity="0.85"/>
  <path d="M390.275 466.25C458.775 466.25 500.775 425 500.775 352.25L500.775 337.5C500.775 326.75 494.025 320 484.025 320L396.025 320L396.025 347L468.525 347L468.525 359.5C468.525 405.5 440.025 437.25 390.525 437.25C330.775 437.25 301.025 386 301.025 323.75C301.025 265.25 328.275 211.75 390.025 211.75C425.275 211.75 456.275 232.25 464.775 263.25C467.775 271.75 471.775 275.5 481.025 275.5C489.775 275.5 495.775 269.75 495.775 261C495.775 257 495.025 252 492.775 246.75C477.525 204 432.525 182.5 390.025 182.5C309.275 182.5 266.525 244.25 266.525 324C266.525 406.25 311.275 466.25 390.275 466.25ZM388.525 504C394.275 504 398.525 499.75 398.525 494.25L398.525 155.75C398.525 149.75 394.275 145.75 388.525 145.75C382.525 145.75 378.525 149.75 378.525 155.75L378.525 494.25C378.525 499.75 382.525 504 388.525 504Z" fill="black" fill-opacity="0.85"/>
 </g>
</svg>
