<?xml version="1.0" encoding="UTF-8"?>
<!--Generator: Apple Native CoreSVG 326-->
<!DOCTYPE svg
PUBLIC "-//W3C//DTD SVG 1.1//EN"
       "http://www.w3.org/Graphics/SVG/1.1/DTD/svg11.dtd">
<svg version="1.1" xmlns="http://www.w3.org/2000/svg" xmlns:xlink="http://www.w3.org/1999/xlink" viewBox="0 0 651.25 651.75">
 <g>
  <rect height="651.75" opacity="0" width="651.25" x="0" y="0"/>
  <path d="M325.5 651.25C505.25 651.25 651.25 505.5 651.25 325.75C651.25 146 505.25 0 325.5 0C145.75 0 0 146 0 325.75C0 505.5 145.75 651.25 325.5 651.25ZM325.5 604.75C171.25 604.75 46.5 480 46.5 325.75C46.5 171.5 171.25 46.75 325.5 46.75C479.75 46.75 604.5 171.5 604.5 325.75C604.5 480 479.75 604.75 325.5 604.75Z" fill="black" fill-opacity="0.85"/>
  <path d="M327.75 466.25C396.25 466.25 438.25 425 438.25 352.25L438.25 337.5C438.25 326.75 431.5 320 421.5 320L333.5 320L333.5 347L406 347L406 359.5C406 405.5 377.5 437.25 328 437.25C268.25 437.25 238.5 386 238.5 323.75C238.5 265.25 265.75 211.75 327.5 211.75C362.75 211.75 393.75 232.25 402.25 263.25C405.25 271.75 409.25 275.5 418.5 275.5C427.25 275.5 433.25 269.75 433.25 261C433.25 257 432.5 252 430.25 246.75C415 204 370 182.5 327.5 182.5C246.75 182.5 204 244.25 204 324C204 406.25 248.75 466.25 327.75 466.25ZM326 504C331.75 504 336 499.75 336 494.25L336 155.75C336 149.75 331.75 145.75 326 145.75C320 145.75 316 149.75 316 155.75L316 494.25C316 499.75 320 504 326 504Z" fill="black" fill-opacity="0.85"/>
 </g>
</svg>
