<?xml version="1.0" encoding="UTF-8"?>
<!--Generator: Apple Native CoreSVG 326-->
<!DOCTYPE svg
PUBLIC "-//W3C//DTD SVG 1.1//EN"
       "http://www.w3.org/Graphics/SVG/1.1/DTD/svg11.dtd">
<svg version="1.1" xmlns="http://www.w3.org/2000/svg" xmlns:xlink="http://www.w3.org/1999/xlink" viewBox="0 0 651.25 651.75">
 <g>
  <rect height="651.75" opacity="0" width="651.25" x="0" y="0"/>
  <path d="M651.25 325.75C651.25 505 505 651.25 325.5 651.25C146.25 651.25 0 505 0 325.75C0 146.25 146.25 0 325.5 0C505 0 651.25 146.25 651.25 325.75ZM218.25 335.75C212.75 335.75 208.25 340 208.25 346C208.25 351.75 212.75 356 218.25 356L248.5 356C235.5 366.5 227.25 382 227.25 398.5C227.25 447 277.5 470.75 325.5 470.75C364.25 470.75 399.25 456.75 415.75 426.25C419.25 420.25 422.25 412.25 422.25 406.25C422.25 397.5 416 391.5 406.75 391.5C399.25 391.5 394.5 395.5 391.25 402.75C380.25 430 355.5 441.75 325.25 441.75C292.25 441.75 261 425 261 397C261 378.25 271 364.5 286.75 356L432.25 356C438 356 442.5 351.75 442.5 346C442.5 340 438 335.75 432.25 335.75ZM242 216C237.5 222.75 235.75 229 235.75 236C235.75 244.5 241.25 250.5 250.5 250.5C258.25 250.5 262.25 247 265.75 240.25C276.75 216 299.75 205.5 324.5 205.5C355.25 205.5 384.75 219.75 384.75 250C384.75 261 379.5 275.25 366.5 283L218.25 283C212.75 283 208.25 287.25 208.25 293.25C208.25 299 212.75 303.25 218.25 303.25L432.25 303.25C438 303.25 442.5 299 442.5 293.25C442.5 287.25 438 283 432.25 283L402.5 283C412.5 273.75 418.25 260.75 418.25 247.75C418.25 199.5 371.25 176.5 324 176.5C295.5 176.5 261.75 185 242 216Z" fill="black" fill-opacity="0.85"/>
 </g>
</svg>
