<?xml version="1.0" encoding="UTF-8"?>
<!--Generator: Apple Native CoreSVG 326-->
<!DOCTYPE svg
PUBLIC "-//W3C//DTD SVG 1.1//EN"
       "http://www.w3.org/Graphics/SVG/1.1/DTD/svg11.dtd">
<svg version="1.1" xmlns="http://www.w3.org/2000/svg" xmlns:xlink="http://www.w3.org/1999/xlink" viewBox="0 0 775.551 651.75">
 <g>
  <rect height="651.75" opacity="0" width="775.551" x="0" y="0"/>
  <path d="M387.775 651.25C567.525 651.25 713.275 505.5 713.275 325.75C713.275 146 567.525 0 387.775 0C208.025 0 62.2754 146 62.2754 325.75L108.775 325.75C108.775 171.5 233.525 46.75 387.775 46.75C542.025 46.75 666.775 171.5 666.775 325.75C666.775 480 542.025 604.75 387.775 604.75C292.275 604.75 207.025 556.25 158.275 483.25C150.025 472 137.025 468.5 125.525 475.5C114.525 482 111.275 497.25 120.275 509.5C178.525 595.25 277.025 651.25 387.775 651.25ZM20.5254 265.25C0.0253627 265.25-5.72464 279.25 6.02536 295.5L77.0254 396.5C86.5254 410.25 100.275 410 109.525 396.5L180.525 295.25C191.775 279.25 186.275 265.25 166.025 265.25Z" fill="black" fill-opacity="0.85"/>
  <path d="M386.275 180C358.525 180 325.525 188.5 306.275 218.75C302.025 225.25 300.275 231.5 300.275 238.25C300.275 246.5 305.525 252.25 314.525 252.25C322.025 252.25 326.025 248.75 329.275 242.5C340.025 218.5 362.525 208.25 386.775 208.25C417.025 208.25 445.775 222.25 445.775 251.75C445.775 264.75 438.275 282 419.525 287.75L446.525 295C465.525 286.75 478.025 268.75 478.025 249.5C478.025 202.5 432.525 180 386.275 180ZM273.775 294C273.775 299.5 277.775 303.75 283.025 303.75L492.025 303.75C497.525 303.75 501.775 299.5 501.775 294C501.775 288.25 497.525 284 492.025 284L283.025 284C277.775 284 273.775 288.25 273.775 294ZM273.775 345.5C273.775 351 277.775 355.25 283.025 355.25L492.025 355.25C497.525 355.25 501.775 351 501.775 345.5C501.775 339.75 497.525 335.5 492.025 335.5L283.025 335.5C277.775 335.5 273.775 339.75 273.775 345.5ZM387.775 467.25C425.525 467.25 459.775 453.5 475.775 423.75C479.275 417.75 482.275 410 482.275 404C482.275 395.75 476.025 390 467.025 390C459.775 390 455.275 393.75 452.025 400.75C441.275 427.5 417.025 439 387.525 439C355.275 439 324.775 422.75 324.775 395.25C324.775 371.25 341.025 355.75 365.025 349.25L332.275 344.25C308.275 352.25 292.025 373.25 292.025 396.75C292.025 444 341.025 467.25 387.775 467.25Z" fill="black" fill-opacity="0.85"/>
 </g>
</svg>
