<?xml version="1.0" encoding="UTF-8"?>
<!--Generator: Apple Native CoreSVG 326-->
<!DOCTYPE svg
PUBLIC "-//W3C//DTD SVG 1.1//EN"
       "http://www.w3.org/Graphics/SVG/1.1/DTD/svg11.dtd">
<svg version="1.1" xmlns="http://www.w3.org/2000/svg" xmlns:xlink="http://www.w3.org/1999/xlink" viewBox="0 0 768.5 637.929">
 <g>
  <rect height="637.929" opacity="0" width="768.5" x="0" y="0"/>
  <path d="M768.5 382.839C768.5 181.589 613.75 16.5894 417.25 0.089388C407-0.910612 399 6.58939 399 17.0894L399 119.339C399 127.839 405.25 134.589 414 135.339C537.25 150.339 633 255.339 633 382.839C633 440.839 613.25 494.089 578.25 538.089C573.5 544.089 573.75 551.589 579 556.839L653.25 631.089C660.75 638.339 671.5 638.339 678 630.339C734.5 563.339 768.5 476.839 768.5 382.839Z" fill="black" fill-opacity="0.85"/>
  <path d="M0 382.839C0 477.089 34 563.839 90.75 630.839C97 638.339 107.5 638.339 115 631.089L189.25 556.839C194.5 551.589 194.75 544.089 190 538.089C155 494.089 135.25 440.839 135.25 382.839C135.25 255.339 231.25 150.339 354.25 135.339C363.25 134.589 369.25 127.839 369.25 119.339L369.25 17.0894C369.25 6.58939 361.5-0.910612 351.25 0.089388C154.5 16.5894 0 181.589 0 382.839Z" fill="black" fill-opacity="0.85"/>
  <path d="M349 412.089C399 412.089 439 387.589 445 337.839L471 337.839C476.5 337.839 481 333.339 481 328.089C481 322.839 476.5 318.339 471 318.339L445.75 318.339C444 297.089 435 276.839 417.25 263.339L471 263.339C476.5 263.339 481 259.089 481 253.839C481 248.089 476.5 244.089 471 244.089L294 244.089C286.5 244.089 282 248.839 282 256.839L282 258.839C282 266.839 286.5 271.589 294 271.589L347.5 271.589C380.5 271.589 406.75 285.589 411.25 318.339L292.25 318.339C286.75 318.339 282.25 322.839 282.25 328.089C282.25 333.339 286.75 337.839 292.25 337.839L411 337.839C406.75 371.839 380 384.089 346 384.089L300.75 384.089C289.75 384.089 282.75 390.839 282.75 400.339L282.75 401.339C282.75 409.589 286.5 414.589 293 420.339L405.75 525.589C410.75 530.339 414.75 533.589 422 533.589C430.5 533.589 436.75 526.839 436.75 519.089C436.75 513.589 434 509.589 429.75 505.839L329.5 412.089Z" fill="black" fill-opacity="0.85"/>
 </g>
</svg>
