<?xml version="1.0" encoding="UTF-8"?>
<!--Generator: Apple Native CoreSVG 326-->
<!DOCTYPE svg
PUBLIC "-//W3C//DTD SVG 1.1//EN"
       "http://www.w3.org/Graphics/SVG/1.1/DTD/svg11.dtd">
<svg version="1.1" xmlns="http://www.w3.org/2000/svg" xmlns:xlink="http://www.w3.org/1999/xlink" viewBox="0 0 768.5 637.929">
 <g>
  <rect height="637.929" opacity="0" width="768.5" x="0" y="0"/>
  <path d="M768.5 382.839C768.5 181.589 613.75 16.5894 417.25 0.089388C407-0.910612 399 6.58939 399 17.0894L399 119.339C399 127.839 405.25 134.589 414 135.339C537.25 150.339 633 255.339 633 382.839C633 440.839 613.25 494.089 578.25 538.089C573.5 544.089 573.75 551.589 579 556.839L653.25 631.089C660.75 638.339 671.5 638.339 678 630.339C734.5 563.339 768.5 476.839 768.5 382.839Z" fill="black" fill-opacity="0.85"/>
  <path d="M0 382.839C0 477.089 34 563.839 90.75 630.839C97 638.339 107.5 638.339 115 631.089L189.25 556.839C194.5 551.589 194.75 544.089 190 538.089C155 494.089 135.25 440.839 135.25 382.839C135.25 255.339 231.25 150.339 354.25 135.339C363.25 134.589 369.25 127.839 369.25 119.339L369.25 17.0894C369.25 6.58939 361.5-0.910612 351.25 0.089388C154.5 16.5894 0 181.589 0 382.839Z" fill="black" fill-opacity="0.85"/>
  <path d="M313 533.089C323 533.089 329.25 526.339 329.25 516.089L329.25 395.089L350.75 395.089L452.5 524.839C456.5 530.089 460.75 533.089 467 533.089C477.75 533.089 482.5 525.089 482.5 518.589C482.5 514.339 480.75 510.839 477.75 506.839L387.25 395.089L480 395.089C485.5 395.089 490 390.839 490 385.339C490 379.589 485.5 375.589 480 375.589L387.75 375.589L478 266.339C480.75 262.589 482.25 258.839 482.25 255.339C482.25 246.839 475.5 240.589 467 240.589C461.25 240.589 456.5 244.589 453 248.839L351 375.589L329.25 375.589L329.25 257.589C329.25 247.089 323 240.589 313 240.589C302.5 240.589 296 247.089 296 257.589L296 375.589L273 375.589C267.25 375.589 263.25 379.589 263.25 385.589C263.25 391.339 267.25 395.089 273 395.089L296 395.089L296 516.089C296 526.339 302.5 533.089 313 533.089Z" fill="black" fill-opacity="0.85"/>
 </g>
</svg>
