<?xml version="1.0" encoding="UTF-8"?>
<!--Generator: Apple Native CoreSVG 326-->
<!DOCTYPE svg
PUBLIC "-//W3C//DTD SVG 1.1//EN"
       "http://www.w3.org/Graphics/SVG/1.1/DTD/svg11.dtd">
<svg version="1.1" xmlns="http://www.w3.org/2000/svg" xmlns:xlink="http://www.w3.org/1999/xlink" viewBox="0 0 775.551 651.75">
 <g>
  <rect height="651.75" opacity="0" width="775.551" x="0" y="0"/>
  <path d="M387.775 651.25C567.525 651.25 713.275 505.5 713.275 325.75C713.275 146 567.525 0 387.775 0C208.025 0 62.2754 146 62.2754 325.75L108.775 325.75C108.775 171.5 233.525 46.75 387.775 46.75C542.025 46.75 666.775 171.5 666.775 325.75C666.775 480 542.025 604.75 387.775 604.75C292.275 604.75 207.025 556.25 158.275 483.25C150.025 472 137.025 468.5 125.525 475.5C114.525 482 111.275 497.25 120.275 509.5C178.525 595.25 277.025 651.25 387.775 651.25ZM20.5254 265.25C0.0253627 265.25-5.72464 279.25 6.02536 295.5L77.0254 396.5C86.5254 410.25 100.275 410 109.525 396.5L180.525 295.25C191.775 279.25 186.275 265.25 166.025 265.25Z" fill="black" fill-opacity="0.85"/>
  <path d="M268.525 466.75L488.025 466.75C496.275 466.75 502.525 461.25 502.525 453C502.525 445 496.275 439.5 488.025 439.5L415.275 439.5C338.775 439.5 286.525 383.5 286.525 317.75C286.525 252.25 331.775 214 389.775 214C446.025 214 490.275 252.25 492.025 304.5C492.275 314.25 498.025 321 507.525 321C517.025 321 523.025 314 523.025 304.5C522.525 234 459.525 184.5 389.775 184.5C312.775 184.5 254.025 237.75 254.025 312.5C254.025 366.25 281.775 416.5 329.775 438.5L329.775 439.75L268.525 439.75C260.025 439.75 254.275 445 254.275 453C254.275 461.25 260.025 466.75 268.525 466.75ZM357.775 317.25C363.525 317.25 367.775 313 367.775 307.25L367.775 156.25C367.775 150.5 363.525 146.5 357.775 146.5C352.275 146.5 348.025 150.5 348.025 156.25L348.025 307.25C348.025 313 352.275 317.25 357.775 317.25ZM422.775 317.25C428.525 317.25 432.775 313 432.775 307.25L432.775 156.25C432.775 150.5 428.525 146.5 422.775 146.5C417.275 146.5 413.025 150.5 413.025 156.25L413.025 307.25C413.025 313 417.275 317.25 422.775 317.25Z" fill="black" fill-opacity="0.85"/>
 </g>
</svg>
