<?xml version="1.0" encoding="UTF-8"?>
<!--Generator: Apple Native CoreSVG 326-->
<!DOCTYPE svg
PUBLIC "-//W3C//DTD SVG 1.1//EN"
       "http://www.w3.org/Graphics/SVG/1.1/DTD/svg11.dtd">
<svg version="1.1" xmlns="http://www.w3.org/2000/svg" xmlns:xlink="http://www.w3.org/1999/xlink" viewBox="0 0 540 728.75">
 <g>
  <rect height="728.75" opacity="0" width="540" x="0" y="0"/>
  <path d="M29 647.5L474.25 647.5C488 647.5 497.75 638 497.75 624.75C497.75 611.25 488 602 474.25 602L314 602C176 602 55.5 497.75 55.5 348.25C55.5 216.75 144.75 129.25 273 129.25C389.5 129.25 485.25 205 489 324C489.75 342.5 499 352.25 515 352.25C531.25 352.25 540 342 540 324.25C539 181 419.25 80.5 273 80.5C124.5 80.5 1.25 184 1.25 340.5C1.25 467.25 81.25 564.25 164.75 600.5L164.75 602L29 602C13.75 602 5 612.75 5 625C5 638.5 14.75 647.5 29 647.5ZM207.75 345C218.5 345 226.25 337.25 226.25 326.25L226.25 18.5C226.25 7.75 218.5 0 207.75 0C197 0 189.25 7.75 189.25 18.5L189.25 326.25C189.25 337.25 197 345 207.75 345ZM341 345C351.5 345 359.25 337.25 359.25 326.25L359.25 18.5C359.25 7.75 351.5 0 341 0C330.25 0 322.5 7.75 322.5 18.5L322.5 326.25C322.5 337.25 330.25 345 341 345Z" fill="black" fill-opacity="0.85"/>
 </g>
</svg>
