<?xml version="1.0" encoding="UTF-8"?>
<!--Generator: Apple Native CoreSVG 326-->
<!DOCTYPE svg
PUBLIC "-//W3C//DTD SVG 1.1//EN"
       "http://www.w3.org/Graphics/SVG/1.1/DTD/svg11.dtd">
<svg version="1.1" xmlns="http://www.w3.org/2000/svg" xmlns:xlink="http://www.w3.org/1999/xlink" viewBox="0 0 775.551 651.75">
 <g>
  <rect height="651.75" opacity="0" width="775.551" x="0" y="0"/>
  <path d="M387.775 651.25C567.525 651.25 713.275 505.5 713.275 325.75C713.275 146 567.525 0 387.775 0C208.025 0 62.2754 146 62.2754 325.75L108.775 325.75C108.775 171.5 233.525 46.75 387.775 46.75C542.025 46.75 666.775 171.5 666.775 325.75C666.775 480 542.025 604.75 387.775 604.75C292.275 604.75 207.025 556.25 158.275 483.25C150.025 472 137.025 468.5 125.525 475.5C114.525 482 111.275 497.25 120.275 509.5C178.525 595.25 277.025 651.25 387.775 651.25ZM20.5254 265.25C0.0253627 265.25-5.72464 279.25 6.02536 295.5L77.0254 396.5C86.5254 410.25 100.275 410 109.525 396.5L180.525 295.25C191.775 279.25 186.275 265.25 166.025 265.25Z" fill="black" fill-opacity="0.85"/>
  <path d="M290.775 463.5L482.025 463.5C490.275 463.5 496.525 457.25 496.525 449.25C496.525 441.5 490.275 435.25 482.025 435.25L329.025 435.25L329.025 433.5C352.025 426 365.525 401.25 367.525 374.75C367.775 371.25 368.025 367.75 367.775 364.25L449.025 364.25C455.025 364.25 460.275 359.5 460.275 353.25C460.275 347 455.025 342.25 449.025 342.25L365.775 342.25C363.275 328.5 359.025 316.75 355.775 304L449.025 304C455.025 304 460.275 299.25 460.275 293C460.275 286.75 455.025 282 449.025 282L352.025 282C351.525 278 351.275 273.75 351.275 269.25C351.275 230 382.275 209.75 421.775 209.75C434.775 209.75 449.025 212 457.525 214C462.025 215.5 467.025 216.5 470.275 216.5C479.275 216.5 482.775 211 482.775 204.5C482.775 196.75 477.775 192.5 470.525 189.25C454.275 182.25 434.775 181.25 418.525 181.25C358.275 181.25 317.275 213.25 317.275 270.25C317.275 274.25 317.525 278 317.775 282L288.025 282C281.775 282 276.775 286.75 276.775 293C276.775 299.25 281.775 304 288.025 304L321.525 304C324.525 317.5 329.025 329.5 332.025 342.25L288.025 342.25C281.775 342.25 276.775 347 276.775 353.25C276.775 359.5 281.775 364.25 288.025 364.25L334.775 364.25C335.025 368 334.525 373 334.025 377.25C330.775 406 311.775 425.5 289.275 432.25C281.025 435 276.025 439.75 276.025 448.5C276.025 458.25 282.525 463.5 290.775 463.5Z" fill="black" fill-opacity="0.85"/>
 </g>
</svg>
