<?xml version="1.0" encoding="UTF-8"?>
<!--Generator: Apple Native CoreSVG 326-->
<!DOCTYPE svg
PUBLIC "-//W3C//DTD SVG 1.1//EN"
       "http://www.w3.org/Graphics/SVG/1.1/DTD/svg11.dtd">
<svg version="1.1" xmlns="http://www.w3.org/2000/svg" xmlns:xlink="http://www.w3.org/1999/xlink" viewBox="0 0 706 679.75">
 <g>
  <rect height="679.75" opacity="0" width="706" x="0" y="0"/>
  <path d="M39.25 610.25L666.75 610.25L666.75 591C666.75 580.25 660.25 573.75 649.25 573.75L628.75 573.75L628.75 213.5L657.75 213.5C673 213.5 681.5 202.75 681.5 191.5C681.5 183.25 677 176 667 170.25L390.75 10.75C378.5 3.75 365.5 0 353 0C340.5 0 327.25 3.75 315.25 10.75L39 170.25C28.75 176 24.5 183.25 24.5 191.5C24.5 202.75 33 213.5 48.25 213.5L77.5 213.5L77.5 573.75L57 573.75C45.75 573.75 39.25 580.25 39.25 591ZM119.25 573.75L119.25 175.5L338.5 52C342.75 49.5 348 48 353 48C357.75 48 362.75 49.5 367.5 52L587 175.5L587 573.75ZM22.25 679.25L683.75 679.25C696 679.25 706 669.25 706 657.25C706 645 696 635 683.75 635L22.25 635C10 635 0 645 0 657.25C0 669.25 10 679.25 22.25 679.25Z" fill="black" fill-opacity="0.85"/>
  <path d="M256 475.75L447.5 475.75C455.75 475.75 461.75 469.75 461.75 461.75C461.75 453.75 455.75 447.75 447.5 447.75L294.25 447.75L294.25 446C317.5 438.25 331 413.5 333 387C333.25 383.5 333.25 380.25 333.25 376.5L414.25 376.5C420.5 376.5 425.5 371.75 425.5 365.5C425.5 359.25 420.5 354.75 414.25 354.75L331 354.75C328.75 341 324.25 329 321 316.25L414.25 316.25C420.5 316.25 425.5 311.5 425.5 305.25C425.5 299 420.5 294.25 414.25 294.25L317.5 294.25C316.75 290.5 316.5 286 316.5 281.5C316.5 242.25 347.5 222 387 222C400 222 414.25 224.5 423 226.5C427.25 227.75 432.25 229 435.5 229C444.5 229 448 223.5 448 217C448 209 443.25 204.75 435.75 201.75C419.5 194.75 400.25 193.5 383.75 193.5C323.75 193.5 282.75 225.75 282.75 282.5C282.75 286.5 282.75 290.5 283.25 294.25L253.25 294.25C247 294.25 242 299 242 305.25C242 311.5 247 316.25 253.25 316.25L286.75 316.25C290 329.75 294.5 342 297.5 354.75L253.25 354.75C247 354.75 242 359.25 242 365.5C242 371.75 247 376.5 253.25 376.5L300.25 376.5C300.25 380.25 300 385.5 299.5 389.75C296.25 418.5 277 437.75 254.75 444.5C246.5 447.25 241.25 452 241.25 461C241.25 470.5 248 475.75 256 475.75Z" fill="black" fill-opacity="0.85"/>
 </g>
</svg>
