<?xml version="1.0" encoding="UTF-8"?>
<!--Generator: Apple Native CoreSVG 326-->
<!DOCTYPE svg
PUBLIC "-//W3C//DTD SVG 1.1//EN"
       "http://www.w3.org/Graphics/SVG/1.1/DTD/svg11.dtd">
<svg version="1.1" xmlns="http://www.w3.org/2000/svg" xmlns:xlink="http://www.w3.org/1999/xlink" viewBox="0 0 768.5 640.75">
 <g>
  <rect height="640.75" opacity="0" width="768.5" x="0" y="0"/>
  <path d="M768.5 384.25C768.5 290 734.5 203.75 678 136.75C671.5 129 660.5 129.25 653.25 136.5L581 208.75C574.75 215 574.5 223.75 580 230.75C613.25 273.25 633 326.25 633 384.25C633 442.25 613.25 495.5 578.5 539.5C573.75 545.5 574 553 579.25 558.25L653.25 632.5C660.5 640 671.25 639.75 678 632C734.5 565 768.5 478.25 768.5 384.25Z" fill="black" fill-opacity="0.85"/>
  <path d="M384.25 135.25C442.25 135.25 495.75 155.25 538.25 189C545 194 553.25 193.5 559.5 187.25L632 114.75C639.5 107.5 639.25 96.75 631.5 90C564.75 34 478.25 0 384.25 0C290.25 0 203.75 34 137 90C129.25 96.75 129 107.5 136.25 114.75L209 187.25C215 193.5 224 193.75 231 188.25C273.25 155.25 326.5 135.25 384.25 135.25Z" fill="black" fill-opacity="0.85"/>
  <path d="M0 384.25C0 478.25 34 565 90.5 632C97 639.75 108 640 115.25 632.5L189.25 558.25C194.25 553 194.75 545.5 190 539.5C155.25 495.5 135.25 442.25 135.25 384.25C135.25 326.25 155 273.25 188.5 230.75C193.75 223.75 193.75 215 187.5 208.75L115 136.5C107.75 129.25 97 129 90.25 136.75C33.75 203.75 0 290 0 384.25Z" fill="black" fill-opacity="0.85"/>
  <path d="M286.75 526L478.25 526C486.5 526 492.5 520 492.5 512C492.5 504 486.5 498 478.25 498L325.25 498L325.25 496.25C348.25 488.75 361.75 464 363.75 437.5C364 434 364 430.5 364 427L445 427C451.25 427 456.25 422 456.25 416C456.25 409.75 451.25 405 445 405L361.75 405C359.5 391.25 355 379.25 351.75 366.75L445 366.75C451.25 366.75 456.25 361.75 456.25 355.5C456.25 349.25 451.25 344.75 445 344.75L348.25 344.75C347.75 340.75 347.25 336.25 347.25 331.75C347.25 292.5 378.25 272.25 417.75 272.25C430.75 272.25 445 274.75 453.75 276.75C458 278.25 463 279.25 466.25 279.25C475.25 279.25 478.75 273.75 478.75 267.25C478.75 259.5 474 255 466.5 252C450.25 245 431 243.75 414.5 243.75C354.5 243.75 313.5 276 313.5 332.75C313.5 337 313.5 340.75 314 344.75L284 344.75C277.75 344.75 272.75 349.25 272.75 355.5C272.75 361.75 277.75 366.75 284 366.75L317.5 366.75C320.75 380.25 325.25 392.25 328.25 405L284 405C277.75 405 272.75 409.75 272.75 416C272.75 422 277.75 427 284 427L331 427C331 430.75 330.75 435.75 330.25 440C327 468.75 308 488 285.5 495C277.25 497.75 272 502.25 272 511.25C272 521 278.75 526 286.75 526Z" fill="black" fill-opacity="0.85"/>
 </g>
</svg>
