<?xml version="1.0" encoding="UTF-8"?>
<!--Generator: Apple Native CoreSVG 326-->
<!DOCTYPE svg
PUBLIC "-//W3C//DTD SVG 1.1//EN"
       "http://www.w3.org/Graphics/SVG/1.1/DTD/svg11.dtd">
<svg version="1.1" xmlns="http://www.w3.org/2000/svg" xmlns:xlink="http://www.w3.org/1999/xlink" viewBox="0 0 651.25 651.75">
 <g>
  <rect height="651.75" opacity="0" width="651.25" x="0" y="0"/>
  <path d="M651.25 325.75C651.25 505 505 651.25 325.5 651.25C146.25 651.25 0 505 0 325.75C0 146.25 146.25 0 325.5 0C505 0 651.25 146.25 651.25 325.75ZM482 209L424.75 414.5L421.75 414.5L363.5 208.75C360.25 196.25 351.5 188.25 338.75 188.25C324 188.25 314.5 197.75 314.5 212.25L314.5 447.25C314.5 456.75 320.5 463.25 329.75 463.25C338.75 463.25 345 456.75 345 447.25L345 243.75L347.25 243.75L403.5 442C406 451.25 411.75 459 422.75 459C433.75 459 439.25 452 442.5 441.25L498.5 243.75L500.75 243.75L500.75 447.25C500.75 456.75 507 463.25 516 463.25C525 463.25 531.25 456.75 531.25 447.25L531.25 212.25C531.25 197.5 522 188.25 507.25 188.25C494.5 188.25 485.5 196 482 209ZM136.5 192C126.75 192 120 198.5 120 209.25L120 445.75C120 456 126.5 463 137 463C147.25 463 153.75 456 153.75 445.75L153.75 350.75L197.5 350.75L240.25 450.75C243.75 458.75 249 463 256.75 463C267.5 463 273.5 456.25 273.5 447.75C273.5 443.5 272.5 440.5 270 434.75L230 343.5C255.75 333 273.75 308 273.75 270.75C273.75 221.75 244 192 194.25 192ZM240 271.25C240 302.5 223.75 323.75 191.25 323.75L153.75 323.75L153.75 220L191 220C222.5 220 240 240.25 240 271.25Z" fill="black" fill-opacity="0.85"/>
 </g>
</svg>
