<?xml version="1.0" encoding="UTF-8"?>
<!--Generator: Apple Native CoreSVG 326-->
<!DOCTYPE svg
PUBLIC "-//W3C//DTD SVG 1.1//EN"
       "http://www.w3.org/Graphics/SVG/1.1/DTD/svg11.dtd">
<svg version="1.1" xmlns="http://www.w3.org/2000/svg" xmlns:xlink="http://www.w3.org/1999/xlink" viewBox="0 0 775.551 651.75">
 <g>
  <rect height="651.75" opacity="0" width="775.551" x="0" y="0"/>
  <path d="M387.775 651.25C567.525 651.25 713.275 505.5 713.275 325.75C713.275 146 567.525 0 387.775 0C208.025 0 62.2754 146 62.2754 325.75L108.775 325.75C108.775 171.5 233.525 46.75 387.775 46.75C542.025 46.75 666.775 171.5 666.775 325.75C666.775 480 542.025 604.75 387.775 604.75C292.275 604.75 207.025 556.25 158.275 483.25C150.025 472 137.025 468.5 125.525 475.5C114.525 482 111.275 497.25 120.275 509.5C178.525 595.25 277.025 651.25 387.775 651.25ZM20.5254 265.25C0.0253627 265.25-5.72464 279.25 6.02536 295.5L77.0254 396.5C86.5254 410.25 100.275 410 109.525 396.5L180.525 295.25C191.775 279.25 186.275 265.25 166.025 265.25Z" fill="black" fill-opacity="0.85"/>
  <path d="M233.525 438.25C242.025 438.25 247.275 432.5 247.275 424L247.275 346.25L283.275 346.25L318.275 428.25C321.025 434.75 325.275 438.25 331.775 438.25C340.275 438.25 345.525 432.75 345.525 425.75C345.525 422.5 344.525 420 342.525 415.5L309.525 340.5C330.525 331.75 345.525 311.5 345.525 280.75C345.525 241 321.025 216.25 280.525 216.25L233.275 216.25C225.275 216.25 219.775 221.75 219.775 230.25L219.775 424C219.775 432.5 225.025 438.25 233.525 438.25ZM247.275 324.25L247.275 239L277.775 239C303.775 239 318.275 255.75 318.275 281.25C318.275 307 304.775 324.25 278.275 324.25ZM391.525 438.25C398.775 438.25 403.775 433 403.775 425.5L403.775 258.25L405.525 258.25L451.775 421.25C454.025 428.75 458.525 435 467.525 435C476.525 435 481.025 429.5 483.525 420.75L529.775 258.25L531.525 258.25L531.525 425.5C531.525 433 536.525 438.25 543.775 438.25C551.275 438.25 556.275 433 556.275 425.5L556.275 232.75C556.275 220.75 548.525 213.5 536.525 213.5C526.275 213.5 519.275 219.5 516.275 230L469.275 398.75L466.775 398.75L418.775 230C416.025 219.75 409.025 213.5 398.775 213.5C386.775 213.5 379.025 221 379.025 232.75L379.025 425.5C379.025 433 384.025 438.25 391.525 438.25Z" fill="black" fill-opacity="0.85"/>
 </g>
</svg>
