<?xml version="1.0" encoding="UTF-8"?>
<!--Generator: Apple Native CoreSVG 326-->
<!DOCTYPE svg
PUBLIC "-//W3C//DTD SVG 1.1//EN"
       "http://www.w3.org/Graphics/SVG/1.1/DTD/svg11.dtd">
<svg version="1.1" xmlns="http://www.w3.org/2000/svg" xmlns:xlink="http://www.w3.org/1999/xlink" viewBox="0 0 587.75 587.75">
 <g>
  <rect height="587.75" opacity="0" width="587.75" x="0" y="0"/>
  <path d="M97.25 587.75L490.25 587.75C555 587.75 587.75 555 587.75 491.5L587.75 96.5C587.75 32.75 555 0 490.25 0L97.25 0C32.75 0 0 32.5 0 96.5L0 491.5C0 555.5 32.75 587.75 97.25 587.75ZM98.25 543.5C63.25 543.5 44.25 525 44.25 489L44.25 98.75C44.25 63 63.25 44.25 98.25 44.25L489.5 44.25C523.75 44.25 543.5 63 543.5 98.75L543.5 489C543.5 525 523.75 543.5 489.5 543.5Z" fill="black" fill-opacity="0.85"/>
  <path d="M110 427.5C120 427.5 126.25 421 126.25 411L126.25 318L169 318L211 416C214.25 423.75 219.5 427.5 227 427.5C237.25 427.5 243.25 421 243.25 413C243.25 409 242.25 406 239.75 400.5L200.5 311C225.5 300.75 243.25 276.5 243.25 240C243.25 192.5 214.25 163 165.75 163L109.5 163C100 163 93.5 169.75 93.5 179.75L93.5 411C93.5 421 99.75 427.5 110 427.5ZM126.25 291.75L126.25 190.25L162.75 190.25C193.5 190.25 210.75 210 210.75 240.5C210.75 271 194.75 291.75 163 291.75ZM298.25 428C307 428 313 421.75 313 412.5L313 213.25L315 213.25L370.25 407.5C372.75 416.5 378 424 389 424C399.75 424 405 417.25 408.25 406.75L463 213.25L465.25 213.25L465.25 412.5C465.25 421.75 471.25 428 480 428C488.75 428 494.5 421.75 494.5 412.5L494.5 182.75C494.5 168.5 485.75 159.5 471.25 159.5C459 159.5 450.5 167 447 179.5L391 380.5L388 380.5L331 179.25C327.5 167.25 319 159.5 307 159.5C292.5 159.5 283.25 168.75 283.25 182.75L283.25 412.5C283.25 421.75 289.25 428 298.25 428Z" fill="black" fill-opacity="0.85"/>
 </g>
</svg>
