<?xml version="1.0" encoding="UTF-8"?>
<!--Generator: Apple Native CoreSVG 326-->
<!DOCTYPE svg
PUBLIC "-//W3C//DTD SVG 1.1//EN"
       "http://www.w3.org/Graphics/SVG/1.1/DTD/svg11.dtd">
<svg version="1.1" xmlns="http://www.w3.org/2000/svg" xmlns:xlink="http://www.w3.org/1999/xlink" viewBox="0 0 706 679.75">
 <g>
  <rect height="679.75" opacity="0" width="706" x="0" y="0"/>
  <path d="M390.75 10.75L667 170.25C677 176 681.5 183.25 681.5 191.5C681.5 202.75 673 213.5 657.75 213.5L628.75 213.5L628.75 595.25L649.25 595.25C660.25 595.25 666.75 601.75 666.75 612.5L666.75 635L683.75 635C696 635 706 645 706 657.25C706 669.25 696 679.25 683.75 679.25L22.25 679.25C10 679.25 0 669.25 0 657.25C0 645 10 635 22.25 635L39.25 635L39.25 612.5C39.25 601.75 45.75 595.25 57 595.25L77.5 595.25L77.5 213.5L48.25 213.5C33 213.5 24.5 202.75 24.5 191.5C24.5 183.25 28.75 176 39 170.25L315.25 10.75C327.25 3.75 340.5 0 353 0C365.5 0 378.5 3.75 390.75 10.75ZM502 256L447.5 451.25L444.75 451.25L389.25 255.75C386.25 244 377.75 236.5 366 236.5C351.75 236.5 342.75 245.25 342.75 259.25L342.75 482.5C342.75 491.25 348.5 497.5 357.25 497.5C365.75 497.5 371.75 491.25 371.75 482.5L371.75 289L373.75 289L427.25 477.5C429.75 486.25 435 493.5 445.75 493.5C456 493.5 461.5 487 464.25 476.75L517.75 289L519.75 289L519.75 482.5C519.75 491.25 525.5 497.5 534.25 497.5C542.75 497.5 548.75 491.25 548.75 482.5L548.75 259.25C548.75 245 539.75 236.5 525.75 236.5C513.75 236.5 505.25 243.75 502 256ZM173.75 239.75C164.5 239.75 158 246.25 158 256.25L158 480.75C158 490.5 164.25 497.25 174 497.25C183.75 497.25 190 490.5 190 480.75L190 390.75L231.75 390.75L272.25 485.75C275.5 493.25 280.5 497.25 288 497.25C298 497.25 304 490.75 304 482.75C304 479 302.75 476 300.5 470.5L262.5 383.75C286.75 373.75 304 350.25 304 314.75C304 268.25 276 239.75 228.75 239.75ZM272 315.25C272 345 256.5 365 225.75 365L190 365L190 266.5L225.5 266.5C255.5 266.5 272 285.75 272 315.25Z" fill="black" fill-opacity="0.85"/>
 </g>
</svg>
