<?xml version="1.0" encoding="UTF-8"?>
<!--Generator: Apple Native CoreSVG 326-->
<!DOCTYPE svg
PUBLIC "-//W3C//DTD SVG 1.1//EN"
       "http://www.w3.org/Graphics/SVG/1.1/DTD/svg11.dtd">
<svg version="1.1" xmlns="http://www.w3.org/2000/svg" xmlns:xlink="http://www.w3.org/1999/xlink" viewBox="0 0 768.5 637.929">
 <g>
  <rect height="637.929" opacity="0" width="768.5" x="0" y="0"/>
  <path d="M768.5 382.839C768.5 181.589 613.75 16.5894 417.25 0.089388C407-0.910612 399 6.58939 399 17.0894L399 119.339C399 127.839 405.25 134.589 414 135.339C537.25 150.339 633 255.339 633 382.839C633 440.839 613.25 494.089 578.25 538.089C573.5 544.089 573.75 551.589 579 556.839L653.25 631.089C660.75 638.339 671.5 638.339 678 630.339C734.5 563.339 768.5 476.839 768.5 382.839Z" fill="black" fill-opacity="0.85"/>
  <path d="M0 382.839C0 477.089 34 563.839 90.75 630.839C97 638.339 107.5 638.339 115 631.089L189.25 556.839C194.5 551.589 194.75 544.089 190 538.089C155 494.089 135.25 440.839 135.25 382.839C135.25 255.339 231.25 150.339 354.25 135.339C363.25 134.589 369.25 127.839 369.25 119.339L369.25 17.0894C369.25 6.58939 361.5-0.910612 351.25 0.089388C154.5 16.5894 0 181.589 0 382.839Z" fill="black" fill-opacity="0.85"/>
  <path d="M291.5 525.589C302 525.589 308.5 519.089 308.5 508.589L308.5 409.339C308.5 351.089 329.5 304.589 384.25 304.589C440.5 304.589 460.5 351.839 460.5 409.339L460.5 508.589C460.5 519.089 466.75 525.589 477.25 525.589C487.5 525.589 494 519.089 494 508.589L494 407.339C494 330.839 458.5 274.339 384.25 274.339C309.75 274.339 275 331.839 275 407.339L275 508.589C275 519.089 281.25 525.589 291.5 525.589ZM384 525.589C391 525.589 395.75 521.089 395.75 513.589L395.75 237.839C395.75 230.339 391 225.839 384 225.839C376.25 225.839 371.75 230.339 371.75 237.839L371.75 513.589C371.75 521.089 376.25 525.589 384 525.589Z" fill="black" fill-opacity="0.85"/>
 </g>
</svg>
