<?xml version="1.0" encoding="UTF-8"?>
<!--Generator: Apple Native CoreSVG 326-->
<!DOCTYPE svg
PUBLIC "-//W3C//DTD SVG 1.1//EN"
       "http://www.w3.org/Graphics/SVG/1.1/DTD/svg11.dtd">
<svg version="1.1" xmlns="http://www.w3.org/2000/svg" xmlns:xlink="http://www.w3.org/1999/xlink" viewBox="0 0 587.75 587.75">
 <g>
  <rect height="587.75" opacity="0" width="587.75" x="0" y="0"/>
  <path d="M587.75 96.5L587.75 491.5C587.75 555 555 587.75 490.25 587.75L97.25 587.75C32.75 587.75 0 555.5 0 491.5L0 96.5C0 32.5 32.75 0 97.25 0L490.25 0C555 0 587.75 32.75 587.75 96.5ZM344.5 112.75L300.5 217.5C293.25 196.75 277.5 184.75 253.5 184.75C227.75 184.75 211.75 201.25 205.75 225L204.5 225L204.5 201.25C204.5 191.75 198.75 185.5 189.75 185.5C180.5 185.5 174.75 191.75 174.75 201.25L174.75 383.5C174.75 392.5 180.25 399.25 190.25 399.25C200.25 399.25 206 392.5 206 383.5L206 265C206 238.75 218.25 213.25 245 213.25C268.75 213.25 279.25 231.5 279.25 254.75L279.25 265.75L194.25 466.75C193 468.5 192.5 470.5 192.5 472.5C192.5 478.25 196.75 481.5 202.5 481.5C207.75 481.5 210 479.25 212.5 474L279.25 315.75L279.25 383.5C279.25 392.75 285.75 399.25 294.5 399.25C303.75 399.25 310 392.75 310 383.5L310 262C310 236.75 322.5 213.25 348.5 213.25C373.75 213.25 383.25 232.5 383.25 257.75L383.25 383.5C383.25 392.75 389.75 399.25 399 399.25C408 399.25 414.5 392.75 414.5 383.5L414.5 250C414.5 213.75 396.25 184.75 357.5 184.75C348.5 184.75 340.25 187 333.5 190L363 120.25C363.75 118.25 364.25 116.25 364.25 114.25C364.25 108.5 360.5 105 354.5 105C349.75 105 346.5 108.25 344.5 112.75Z" fill="black" fill-opacity="0.85"/>
 </g>
</svg>
