<?xml version="1.0" encoding="UTF-8"?>
<!--Generator: Apple Native CoreSVG 326-->
<!DOCTYPE svg
PUBLIC "-//W3C//DTD SVG 1.1//EN"
       "http://www.w3.org/Graphics/SVG/1.1/DTD/svg11.dtd">
<svg version="1.1" xmlns="http://www.w3.org/2000/svg" xmlns:xlink="http://www.w3.org/1999/xlink" viewBox="0 0 651.25 651.75">
 <g>
  <rect height="651.75" opacity="0" width="651.25" x="0" y="0"/>
  <path d="M651.25 325.75C651.25 505 505 651.25 325.5 651.25C146.25 651.25 0 505 0 325.75C0 146.25 146.25 0 325.5 0C505 0 651.25 146.25 651.25 325.75ZM376 144.75L332 249.5C325 228.75 309.25 216.75 285 216.75C259.25 216.75 243.25 233.25 237.5 257L236 257L236 233.25C236 223.75 230.25 217.5 221.25 217.5C212 217.5 206.25 223.75 206.25 233.25L206.25 415.5C206.25 424.5 211.75 431.25 221.75 431.25C231.75 431.25 237.5 424.5 237.5 415.5L237.5 297C237.5 270.75 249.75 245.25 276.5 245.25C300.25 245.25 310.75 263.5 310.75 286.75L310.75 297.75L225.75 498.75C224.5 500.5 224 502.5 224 504.5C224 510.25 228.25 513.5 234 513.5C239.25 513.5 241.5 511.25 244 506L310.75 347.75L310.75 415.5C310.75 424.75 317.25 431.25 326 431.25C335.25 431.25 341.5 424.75 341.5 415.5L341.5 294C341.5 268.75 354 245.25 380 245.25C405.25 245.25 414.75 264.5 414.75 289.75L414.75 415.5C414.75 424.75 421.25 431.25 430.5 431.25C439.75 431.25 446 424.75 446 415.5L446 282C446 245.75 427.75 216.75 389 216.75C380 216.75 372 219 365 222L394.5 152.25C395.5 150.25 395.75 148.25 395.75 146.25C395.75 140.5 392 137 386 137C381.25 137 378 140.25 376 144.75Z" fill="black" fill-opacity="0.85"/>
 </g>
</svg>
