<?xml version="1.0" encoding="UTF-8"?>
<!--Generator: Apple Native CoreSVG 326-->
<!DOCTYPE svg
PUBLIC "-//W3C//DTD SVG 1.1//EN"
       "http://www.w3.org/Graphics/SVG/1.1/DTD/svg11.dtd">
<svg version="1.1" xmlns="http://www.w3.org/2000/svg" xmlns:xlink="http://www.w3.org/1999/xlink" viewBox="0 0 768.5 637.929">
 <g>
  <rect height="637.929" opacity="0" width="768.5" x="0" y="0"/>
  <path d="M768.5 382.839C768.5 181.589 613.75 16.5894 417.25 0.089388C407-0.910612 399 6.58939 399 17.0894L399 119.339C399 127.839 405.25 134.589 414 135.339C537.25 150.339 633 255.339 633 382.839C633 440.839 613.25 494.089 578.25 538.089C573.5 544.089 573.75 551.589 579 556.839L653.25 631.089C660.75 638.339 671.5 638.339 678 630.339C734.5 563.339 768.5 476.839 768.5 382.839Z" fill="black" fill-opacity="0.85"/>
  <path d="M0 382.839C0 477.089 34 563.839 90.75 630.839C97 638.339 107.5 638.339 115 631.089L189.25 556.839C194.5 551.589 194.75 544.089 190 538.089C155 494.089 135.25 440.839 135.25 382.839C135.25 255.339 231.25 150.339 354.25 135.339C363.25 134.589 369.25 127.839 369.25 119.339L369.25 17.0894C369.25 6.58939 361.5-0.910612 351.25 0.089388C154.5 16.5894 0 181.589 0 382.839Z" fill="black" fill-opacity="0.85"/>
  <path d="M302.25 533.589C311.75 533.589 318.5 526.839 318.5 516.839L318.5 299.589L320.5 299.589L430.75 517.089C435.75 527.339 443.75 533.589 455 533.589C470.25 533.589 477.25 523.089 477.25 512.089L477.25 257.339C477.25 247.339 470.75 240.839 460.75 240.839C451 240.839 444.75 247.339 444.75 257.339L444.75 475.339L442.5 475.339L332.5 257.589C327.5 246.839 319.25 240.839 308 240.839C295 240.839 286 249.589 286 262.339L286 516.839C286 526.839 292.75 533.589 302.25 533.589ZM259 387.839C259 393.339 263.5 397.839 269 397.839L494.25 397.839C500 397.839 504.25 393.339 504.25 387.839C504.25 382.339 500 377.839 494.25 377.839L269 377.839C263.5 377.839 259 382.339 259 387.839Z" fill="black" fill-opacity="0.85"/>
 </g>
</svg>
