<?xml version="1.0" encoding="UTF-8"?>
<!--Generator: Apple Native CoreSVG 326-->
<!DOCTYPE svg
PUBLIC "-//W3C//DTD SVG 1.1//EN"
       "http://www.w3.org/Graphics/SVG/1.1/DTD/svg11.dtd">
<svg version="1.1" xmlns="http://www.w3.org/2000/svg" xmlns:xlink="http://www.w3.org/1999/xlink" viewBox="0 0 587.75 587.75">
 <g>
  <rect height="587.75" opacity="0" width="587.75" x="0" y="0"/>
  <path d="M587.75 96.5L587.75 491.5C587.75 555 555 587.75 490.25 587.75L97.25 587.75C32.75 587.75 0 555.5 0 491.5L0 96.5C0 32.5 32.75 0 97.25 0L490.25 0C555 0 587.75 32.75 587.75 96.5ZM356.5 160.75L356.5 284.25L303.75 284.25L241.5 161C236.5 150.25 228.5 143.75 216.25 143.75C202.5 143.75 193.5 152.75 193.5 166L193.5 284.25L176.25 284.25C170.5 284.25 165.75 288.75 165.75 294.5C165.75 300.25 170.5 304.75 176.25 304.75L193.5 304.75L193.5 427C193.5 437.25 200.5 444.25 210.25 444.25C220 444.25 227 437.25 227 427L227 304.75L280 304.75L341.75 427C347 437.5 354.75 444.25 366.75 444.25C383 444.25 389.75 433 389.75 421.75L389.75 304.75L407.25 304.75C413 304.75 417.75 300.25 417.75 294.5C417.75 288.75 413 284.25 407.25 284.25L389.75 284.25L389.75 160.75C389.75 150.5 383 143.75 373 143.75C363 143.75 356.5 150.5 356.5 160.75ZM356.5 384L354.25 384L314 304.75L356.5 304.75ZM269.75 284.25L227 284.25L227 204.75L229 204.75Z" fill="black" fill-opacity="0.85"/>
 </g>
</svg>
