<?xml version="1.0" encoding="UTF-8"?>
<!--Generator: Apple Native CoreSVG 326-->
<!DOCTYPE svg
PUBLIC "-//W3C//DTD SVG 1.1//EN"
       "http://www.w3.org/Graphics/SVG/1.1/DTD/svg11.dtd">
<svg version="1.1" xmlns="http://www.w3.org/2000/svg" xmlns:xlink="http://www.w3.org/1999/xlink" viewBox="0 0 651.25 651.75">
 <g>
  <rect height="651.75" opacity="0" width="651.25" x="0" y="0"/>
  <path d="M651.25 325.75C651.25 505 505 651.25 325.5 651.25C146.25 651.25 0 505 0 325.75C0 146.25 146.25 0 325.5 0C505 0 651.25 146.25 651.25 325.75ZM388 192.75L388 316.25L335.25 316.25L273 193C268 182.25 260 175.75 248 175.75C234 175.75 225 184.75 225 198L225 316.25L207.75 316.25C202 316.25 197.25 320.75 197.25 326.5C197.25 332.25 202 336.75 207.75 336.75L225 336.75L225 459C225 469.25 232 476.25 241.75 476.25C251.5 476.25 258.5 469.25 258.5 459L258.5 336.75L311.5 336.75L373.25 459C378.5 469.5 386.25 476.25 398.5 476.25C414.5 476.25 421.25 465 421.25 453.75L421.25 336.75L438.75 336.75C444.5 336.75 449.25 332.25 449.25 326.5C449.25 320.75 444.5 316.25 438.75 316.25L421.25 316.25L421.25 192.75C421.25 182.5 414.75 175.75 404.5 175.75C394.5 175.75 388 182.5 388 192.75ZM388 416L385.75 416L345.5 336.75L388 336.75ZM301.25 316.25L258.5 316.25L258.5 236.75L260.5 236.75Z" fill="black" fill-opacity="0.85"/>
 </g>
</svg>
