<?xml version="1.0" encoding="UTF-8"?>
<!--Generator: Apple Native CoreSVG 326-->
<!DOCTYPE svg
PUBLIC "-//W3C//DTD SVG 1.1//EN"
       "http://www.w3.org/Graphics/SVG/1.1/DTD/svg11.dtd">
<svg version="1.1" xmlns="http://www.w3.org/2000/svg" xmlns:xlink="http://www.w3.org/1999/xlink" viewBox="0 0 775.551 651.75">
 <g>
  <rect height="651.75" opacity="0" width="775.551" x="0" y="0"/>
  <path d="M387.775 651.25C567.525 651.25 713.275 505.5 713.275 325.75C713.275 146 567.525 0 387.775 0C208.025 0 62.2754 146 62.2754 325.75L108.775 325.75C108.775 171.5 233.525 46.75 387.775 46.75C542.025 46.75 666.775 171.5 666.775 325.75C666.775 480 542.025 604.75 387.775 604.75C292.275 604.75 207.025 556.25 158.275 483.25C150.025 472 137.025 468.5 125.525 475.5C114.525 482 111.275 497.25 120.275 509.5C178.525 595.25 277.025 651.25 387.775 651.25ZM20.5254 265.25C0.0253627 265.25-5.72464 279.25 6.02536 295.5L77.0254 396.5C86.5254 410.25 100.275 410 109.525 396.5L180.525 295.25C191.775 279.25 186.275 265.25 166.025 265.25Z" fill="black" fill-opacity="0.85"/>
  <path d="M306.025 472.25C315.525 472.25 322.275 465.5 322.275 455.75L322.275 238.5L324.275 238.5L434.525 455.75C439.775 466.25 447.775 472.25 459.025 472.25C474.275 472.25 481.025 461.75 481.025 450.75L481.025 196.25C481.025 186 474.525 179.5 464.775 179.5C455.025 179.5 448.775 186 448.775 196.25L448.775 414L446.525 414L336.275 196.25C331.275 185.75 323.025 179.5 312.025 179.5C298.775 179.5 289.775 188.25 289.775 201L289.775 455.75C289.775 465.5 296.525 472.25 306.025 472.25ZM262.775 326.5C262.775 332 267.275 336.5 272.775 336.5L498.275 336.5C503.775 336.5 508.275 332 508.275 326.5C508.275 321 503.775 316.5 498.275 316.5L272.775 316.5C267.275 316.5 262.775 321 262.775 326.5Z" fill="black" fill-opacity="0.85"/>
 </g>
</svg>
