<?xml version="1.0" encoding="UTF-8"?>
<!--Generator: Apple Native CoreSVG 326-->
<!DOCTYPE svg
PUBLIC "-//W3C//DTD SVG 1.1//EN"
       "http://www.w3.org/Graphics/SVG/1.1/DTD/svg11.dtd">
<svg version="1.1" xmlns="http://www.w3.org/2000/svg" xmlns:xlink="http://www.w3.org/1999/xlink" viewBox="0 0 768.5 637.929">
 <g>
  <rect height="637.929" opacity="0" width="768.5" x="0" y="0"/>
  <path d="M768.5 382.839C768.5 181.589 613.75 16.5894 417.25 0.089388C407-0.910612 399 6.58939 399 17.0894L399 119.339C399 127.839 405.25 134.589 414 135.339C537.25 150.339 633 255.339 633 382.839C633 440.839 613.25 494.089 578.25 538.089C573.5 544.089 573.75 551.589 579 556.839L653.25 631.089C660.75 638.339 671.5 638.339 678 630.339C734.5 563.339 768.5 476.839 768.5 382.839Z" fill="black" fill-opacity="0.85"/>
  <path d="M0 382.839C0 477.089 34 563.839 90.75 630.839C97 638.339 107.5 638.339 115 631.089L189.25 556.839C194.5 551.589 194.75 544.089 190 538.089C155 494.089 135.25 440.839 135.25 382.839C135.25 255.339 231.25 150.339 354.25 135.339C363.25 134.589 369.25 127.839 369.25 119.339L369.25 17.0894C369.25 6.58939 361.5-0.910612 351.25 0.089388C154.5 16.5894 0 181.589 0 382.839Z" fill="black" fill-opacity="0.85"/>
  <path d="M278.5 520.839C287.75 520.839 294 514.089 294 504.339L294 445.339L313.75 425.839L376 513.089C379.25 517.839 383.75 520.839 389.75 520.839C398.25 520.839 404.75 514.839 404.75 506.839C404.75 502.839 403 499.339 400.5 495.839L336.25 406.339L396.5 342.089C400.25 338.089 402 335.839 402 330.839C402 323.589 396 317.089 388 317.089C383.75 317.089 378.75 319.839 376 323.089L295 411.839L294 411.839L294 256.839C294 246.839 287.75 239.839 278.5 239.839C269.25 239.839 262.5 246.589 262.5 256.589L262.5 504.339C262.5 514.089 269.25 520.839 278.5 520.839ZM457.75 520.839C465 520.839 472.75 516.339 472.75 504.339L472.75 399.089C472.75 375.089 482 347.339 510.75 347.339C516.75 347.339 522.75 346.839 527.25 344.589C531.5 342.839 534 339.089 534 333.839C534 322.839 524.75 317.089 513.75 317.089C492.5 317.089 478.5 335.089 473.5 356.589L471.5 356.589L471.5 333.089C471.5 324.089 465.25 317.089 457.25 317.089C449 317.089 442.75 324.089 442.75 333.089L442.75 504.339C442.75 514.339 448 520.839 457.75 520.839Z" fill="black" fill-opacity="0.85"/>
 </g>
</svg>
