<?xml version="1.0" encoding="UTF-8"?>
<!--Generator: Apple Native CoreSVG 326-->
<!DOCTYPE svg
PUBLIC "-//W3C//DTD SVG 1.1//EN"
       "http://www.w3.org/Graphics/SVG/1.1/DTD/svg11.dtd">
<svg version="1.1" xmlns="http://www.w3.org/2000/svg" xmlns:xlink="http://www.w3.org/1999/xlink" viewBox="0 0 775.551 651.75">
 <g>
  <rect height="651.75" opacity="0" width="775.551" x="0" y="0"/>
  <path d="M387.775 651.25C567.525 651.25 713.275 505.5 713.275 325.75C713.275 146 567.525 0 387.775 0C208.025 0 62.2754 146 62.2754 325.75L108.775 325.75C108.775 171.5 233.525 46.75 387.775 46.75C542.025 46.75 666.775 171.5 666.775 325.75C666.775 480 542.025 604.75 387.775 604.75C292.275 604.75 207.025 556.25 158.275 483.25C150.025 472 137.025 468.5 125.525 475.5C114.525 482 111.275 497.25 120.275 509.5C178.525 595.25 277.025 651.25 387.775 651.25ZM20.5254 265.25C0.0253627 265.25-5.72464 279.25 6.02536 295.5L77.0254 396.5C86.5254 410.25 100.275 410 109.525 396.5L180.525 295.25C191.775 279.25 186.275 265.25 166.025 265.25Z" fill="black" fill-opacity="0.85"/>
  <path d="M313.775 447.5C365.525 447.5 391.025 415 391.025 372.5C391.025 328.75 364.775 312 330.275 298.75L312.025 291.75C287.775 282.25 271.775 270.75 271.775 244.75C271.775 220.75 286.025 203.25 311.775 203.25C335.525 203.25 350.525 217.5 356.275 242.25C358.275 250.5 363.525 254 371.275 254C379.775 254 385.025 248 385.025 239.75C385.025 237 384.525 233.5 384.025 230.75C376.525 197.25 349.025 175.5 312.275 175.5C266.025 175.5 239.525 207.25 239.525 246.75C239.525 285.5 262.275 306.5 298.775 320L317.025 326.75C342.025 336 358.775 349.25 358.775 375.75C358.775 399.5 343.775 419.75 314.275 419.75C288.025 419.75 271.275 404.5 266.025 378.5C264.025 370.5 259.025 366.75 251.275 366.75C242.775 366.75 236.775 373 236.775 381.75C236.775 385.5 237.525 390.25 238.525 393.5C248.525 427.75 275.525 447.5 313.775 447.5ZM416.775 509C425.775 509 430.025 504 431.525 494.75L483.025 199C483.525 197 484.275 193.75 484.275 189.75C484.275 181.75 478.775 176 470.525 176C461.525 176 457.275 181 455.775 190.25L404.275 486C403.775 488 403.025 491.25 403.025 495.25C403.025 503.5 408.525 509 416.775 509ZM526.025 444.75C538.025 444.75 547.275 436 547.275 424.25C547.275 412.75 538.025 403.5 526.025 403.5C514.275 403.5 505.525 412.75 505.525 424.25C505.525 436 514.275 444.75 526.025 444.75Z" fill="black" fill-opacity="0.85"/>
 </g>
</svg>
