<?xml version="1.0" encoding="UTF-8"?>
<!--Generator: Apple Native CoreSVG 326-->
<!DOCTYPE svg
PUBLIC "-//W3C//DTD SVG 1.1//EN"
       "http://www.w3.org/Graphics/SVG/1.1/DTD/svg11.dtd">
<svg version="1.1" xmlns="http://www.w3.org/2000/svg" xmlns:xlink="http://www.w3.org/1999/xlink" viewBox="0 0 706 679.75">
 <g>
  <rect height="679.75" opacity="0" width="706" x="0" y="0"/>
  <path d="M39.25 610.25L666.75 610.25L666.75 591C666.75 580.25 660.25 573.75 649.25 573.75L628.75 573.75L628.75 213.5L657.75 213.5C673 213.5 681.5 202.75 681.5 191.5C681.5 183.25 677 176 667 170.25L390.75 10.75C378.5 3.75 365.5 0 353 0C340.5 0 327.25 3.75 315.25 10.75L39 170.25C28.75 176 24.5 183.25 24.5 191.5C24.5 202.75 33 213.5 48.25 213.5L77.5 213.5L77.5 573.75L57 573.75C45.75 573.75 39.25 580.25 39.25 591ZM119.25 573.75L119.25 175.5L338.5 52C342.75 49.5 348 48 353 48C357.75 48 362.75 49.5 367.5 52L587 175.5L587 573.75ZM22.25 679.25L683.75 679.25C696 679.25 706 669.25 706 657.25C706 645 696 635 683.75 635L22.25 635C10 635 0 645 0 657.25C0 669.25 10 679.25 22.25 679.25Z" fill="black" fill-opacity="0.85"/>
  <path d="M279 459.75C330.75 459.75 356.25 427.5 356.25 384.75C356.25 341.25 330 324.5 295.5 311L277.5 304C253.25 294.5 237 283.25 237 257C237 233.25 251.5 215.75 277.25 215.75C301 215.75 316 230 321.5 254.5C323.5 262.75 328.75 266.25 336.75 266.25C345.25 266.25 350.5 260.5 350.5 252C350.5 249.25 350 246 349.25 243.25C341.75 209.5 314.5 187.75 277.5 187.75C231.25 187.75 205 219.5 205 259C205 298 227.5 319 264 332.5L282.5 339.25C307.25 348.25 324.25 361.5 324.25 388C324.25 411.75 309.25 432 279.75 432C253.5 432 236.5 416.75 231.5 390.75C229.5 382.75 224.5 379 216.5 379C208 379 202 385.25 202 394.25C202 398 202.75 402.5 203.75 406C213.75 440 240.75 459.75 279 459.75ZM382.25 521.5C391 521.5 395.5 516.25 397 507L448.5 211.5C448.75 209.25 449.5 206 449.5 202C449.5 194 444.25 188.25 435.75 188.25C427 188.25 422.5 193.5 421 202.75L369.5 498.25C369 500.5 368.5 503.75 368.5 507.75C368.5 515.75 373.75 521.5 382.25 521.5ZM491.5 457.25C503.5 457.25 512.5 448.25 512.5 436.5C512.5 425 503.5 416 491.5 416C479.75 416 470.75 425 470.75 436.5C470.75 448.25 479.75 457.25 491.5 457.25Z" fill="black" fill-opacity="0.85"/>
 </g>
</svg>
