<?xml version="1.0" encoding="UTF-8"?>
<!--Generator: Apple Native CoreSVG 326-->
<!DOCTYPE svg
PUBLIC "-//W3C//DTD SVG 1.1//EN"
       "http://www.w3.org/Graphics/SVG/1.1/DTD/svg11.dtd">
<svg version="1.1" xmlns="http://www.w3.org/2000/svg" xmlns:xlink="http://www.w3.org/1999/xlink" viewBox="0 0 768.5 640.75">
 <g>
  <rect height="640.75" opacity="0" width="768.5" x="0" y="0"/>
  <path d="M768.5 384.25C768.5 290 734.5 203.75 678 136.75C671.5 129 660.5 129.25 653.25 136.5L581 208.75C574.75 215 574.5 223.75 580 230.75C613.25 273.25 633 326.25 633 384.25C633 442.25 613.25 495.5 578.5 539.5C573.75 545.5 574 553 579.25 558.25L653.25 632.5C660.5 640 671.25 639.75 678 632C734.5 565 768.5 478.25 768.5 384.25Z" fill="black" fill-opacity="0.85"/>
  <path d="M384.25 135.25C442.25 135.25 495.75 155.25 538.25 189C545 194 553.25 193.5 559.5 187.25L632 114.75C639.5 107.5 639.25 96.75 631.5 90C564.75 34 478.25 0 384.25 0C290.25 0 203.75 34 137 90C129.25 96.75 129 107.5 136.25 114.75L209 187.25C215 193.5 224 193.75 231 188.25C273.25 155.25 326.5 135.25 384.25 135.25Z" fill="black" fill-opacity="0.85"/>
  <path d="M0 384.25C0 478.25 34 565 90.5 632C97 639.75 108 640 115.25 632.5L189.25 558.25C194.25 553 194.75 545.5 190 539.5C155.25 495.5 135.25 442.25 135.25 384.25C135.25 326.25 155 273.25 188.5 230.75C193.75 223.75 193.75 215 187.5 208.75L115 136.5C107.75 129.25 97 129 90.25 136.75C33.75 203.75 0 290 0 384.25Z" fill="black" fill-opacity="0.85"/>
  <path d="M309.75 510.25C361.5 510.25 387 477.75 387 435.25C387 391.5 360.75 374.75 326.25 361.25L308.25 354.25C284 345 267.75 333.5 267.75 307.25C267.75 283.5 282.25 266 308 266C331.75 266 346.75 280.25 352.25 305C354.25 313.25 359.5 316.75 367.5 316.75C376 316.75 381.25 310.75 381.25 302.25C381.25 299.75 380.75 296.25 380 293.5C372.5 260 345.25 238.25 308.25 238.25C262 238.25 235.75 269.75 235.75 309.5C235.75 348.25 258.25 369.25 294.75 382.75L313.25 389.5C338 398.75 355 411.75 355 438.25C355 462 340 482.5 310.5 482.5C284.25 482.5 267.25 467 262.25 441C260.25 433.25 255.25 429.25 247.25 429.25C238.75 429.25 232.75 435.75 232.75 444.5C232.75 448.25 233.5 452.75 234.5 456.25C244.5 490.5 271.5 510.25 309.75 510.25ZM413 571.75C421.75 571.75 426.25 566.75 427.75 557.5L479.25 261.75C479.75 259.75 480.25 256.5 480.25 252.5C480.25 244.25 475 238.75 466.5 238.75C457.75 238.75 453.25 243.75 451.75 253L400.25 548.75C399.75 550.75 399.25 554 399.25 558C399.25 566 404.5 571.75 413 571.75ZM522.25 507.5C534.25 507.5 543.25 498.75 543.25 487C543.25 475.25 534.25 466.25 522.25 466.25C510.5 466.25 501.5 475.25 501.5 487C501.5 498.75 510.5 507.5 522.25 507.5Z" fill="black" fill-opacity="0.85"/>
 </g>
</svg>
