<?xml version="1.0" encoding="UTF-8"?>
<!--Generator: Apple Native CoreSVG 326-->
<!DOCTYPE svg
PUBLIC "-//W3C//DTD SVG 1.1//EN"
       "http://www.w3.org/Graphics/SVG/1.1/DTD/svg11.dtd">
<svg version="1.1" xmlns="http://www.w3.org/2000/svg" xmlns:xlink="http://www.w3.org/1999/xlink" viewBox="0 0 651.25 651.75">
 <g>
  <rect height="651.75" opacity="0" width="651.25" x="0" y="0"/>
  <path d="M651.25 325.75C651.25 505 505 651.25 325.5 651.25C146.25 651.25 0 505 0 325.75C0 146.25 146.25 0 325.5 0C505 0 651.25 146.25 651.25 325.75ZM394.5 186.75L342 489.25C341.5 491.25 340.75 495 340.75 499C340.75 507.25 346.25 513.25 354.75 513.25C364 513.25 368.5 507.75 370.25 498.25L422.75 195.75C423.25 193.75 424 190.25 424 186.25C424 177.75 418.25 172 409.75 172C400.5 172 396.25 177.25 394.5 186.75ZM173.25 244.5C173.25 284.25 196.5 305.75 233.75 319.5L252.5 326.5C277.75 336 295.25 349.5 295.25 376.5C295.25 400.75 280 421.5 249.75 421.5C223 421.5 206 406 200.5 379.25C198.5 371 193.25 367.25 185 367.25C176.25 367.25 170.25 373.75 170.25 382.75C170.25 386.5 171 391.5 172.25 394.75C182.25 429.75 210 450 249.25 450C302.5 450 328.5 416.75 328.5 373.25C328.5 328.25 301.5 311.25 266.25 297.75L247.5 290.5C222.75 280.75 206.25 269 206.25 242.25C206.25 218 221 200.25 247.25 200.25C271.5 200.25 286.75 214.75 292.5 240C294.75 248.5 300.25 252 308.25 252C317 252 322.25 245.75 322.25 237C322.25 234.5 321.75 231 321.25 228C313.75 193.75 285.5 171.5 247.75 171.5C200.25 171.5 173.25 203.75 173.25 244.5ZM445.75 426C445.75 438.25 454.75 447.25 466.75 447.25C479.5 447.25 488.75 438.25 488.75 426C488.75 414.25 479.5 404.75 466.75 404.75C454.75 404.75 445.75 414.25 445.75 426Z" fill="black" fill-opacity="0.85"/>
 </g>
</svg>
