<?xml version="1.0" encoding="UTF-8"?>
<!--Generator: Apple Native CoreSVG 326-->
<!DOCTYPE svg
PUBLIC "-//W3C//DTD SVG 1.1//EN"
       "http://www.w3.org/Graphics/SVG/1.1/DTD/svg11.dtd">
<svg version="1.1" xmlns="http://www.w3.org/2000/svg" xmlns:xlink="http://www.w3.org/1999/xlink" viewBox="0 0 587.75 587.75">
 <g>
  <rect height="587.75" opacity="0" width="587.75" x="0" y="0"/>
  <path d="M587.75 96.5L587.75 491.5C587.75 555 555 587.75 490.25 587.75L97.25 587.75C32.75 587.75 0 555.5 0 491.5L0 96.5C0 32.5 32.75 0 97.25 0L490.25 0C555 0 587.75 32.75 587.75 96.5ZM362.75 154.75L310.25 457.25C310 459.25 309.25 463 309.25 467C309.25 475.25 314.75 481.25 323.25 481.25C332.5 481.25 337 475.75 338.5 466.25L391.25 163.75C391.75 161.75 392.5 158.25 392.5 154.25C392.5 145.75 386.75 140 378.25 140C369 140 364.75 145.25 362.75 154.75ZM141.75 212.5C141.75 252.25 165 273.75 202.25 287.5L221 294.5C246.25 304 263.75 317.5 263.75 344.5C263.75 368.75 248.5 389.5 218.25 389.5C191.5 389.5 174.5 374 169 347.25C167 339 161.75 335.25 153.5 335.25C144.75 335.25 138.75 341.75 138.75 350.75C138.75 354.5 139.5 359.5 140.75 362.75C150.75 397.75 178.5 418 217.5 418C271 418 296.75 384.75 296.75 341.25C296.75 296.25 270 279.25 234.75 265.75L216 258.5C191.25 248.75 174.75 237 174.75 210.25C174.75 186 189.5 168.25 215.75 168.25C240 168.25 255.25 182.75 261 208C263.25 216.5 268.75 220 276.75 220C285.5 220 290.75 213.75 290.75 205C290.75 202.5 290.25 199 289.75 196C282.25 161.75 254 139.5 216.25 139.5C168.75 139.5 141.75 171.75 141.75 212.5ZM414.25 394C414.25 406.25 423.25 415.25 435.25 415.25C447.75 415.25 457.25 406.25 457.25 394C457.25 382.25 447.75 372.75 435.25 372.75C423.25 372.75 414.25 382.25 414.25 394Z" fill="black" fill-opacity="0.85"/>
 </g>
</svg>
