<?xml version="1.0" encoding="UTF-8"?>
<!--Generator: Apple Native CoreSVG 326-->
<!DOCTYPE svg
PUBLIC "-//W3C//DTD SVG 1.1//EN"
       "http://www.w3.org/Graphics/SVG/1.1/DTD/svg11.dtd">
<svg version="1.1" xmlns="http://www.w3.org/2000/svg" xmlns:xlink="http://www.w3.org/1999/xlink" viewBox="0 0 768.5 640.75">
 <g>
  <rect height="640.75" opacity="0" width="768.5" x="0" y="0"/>
  <path d="M768.5 384.25C768.5 290 734.5 203.75 678 136.75C671.5 129 660.5 129.25 653.25 136.5L581 208.75C574.75 215 574.5 223.75 580 230.75C613.25 273.25 633 326.25 633 384.25C633 442.25 613.25 495.5 578.5 539.5C573.75 545.5 574 553 579.25 558.25L653.25 632.5C660.5 640 671.25 639.75 678 632C734.5 565 768.5 478.25 768.5 384.25Z" fill="black" fill-opacity="0.85"/>
  <path d="M384.25 135.25C442.25 135.25 495.75 155.25 538.25 189C545 194 553.25 193.5 559.5 187.25L632 114.75C639.5 107.5 639.25 96.75 631.5 90C564.75 34 478.25 0 384.25 0C290.25 0 203.75 34 137 90C129.25 96.75 129 107.5 136.25 114.75L209 187.25C215 193.5 224 193.75 231 188.25C273.25 155.25 326.5 135.25 384.25 135.25Z" fill="black" fill-opacity="0.85"/>
  <path d="M0 384.25C0 478.25 34 565 90.5 632C97 639.75 108 640 115.25 632.5L189.25 558.25C194.25 553 194.75 545.5 190 539.5C155.25 495.5 135.25 442.25 135.25 384.25C135.25 326.25 155 273.25 188.5 230.75C193.75 223.75 193.75 215 187.5 208.75L115 136.5C107.75 129.25 97 129 90.25 136.75C33.75 203.75 0 290 0 384.25Z" fill="black" fill-opacity="0.85"/>
  <path d="M319 534.5C329.25 534.5 335.75 528 335.75 517.75L335.75 428.25L395.5 428.25C450.75 428.25 489.25 391.5 489.25 336.5C489.25 280.75 450.25 245.5 396 245.5L319.25 245.5C309 245.5 302.25 252 302.25 262.5L302.25 517.75C302.25 528 308.75 534.5 319 534.5ZM335.75 400.25L335.75 273.25L387.75 273.25C427.75 273.25 455 294.25 455 336.5C455 378.25 429.25 400.25 387.5 400.25ZM271.25 334.75C271.25 340.5 275.5 344.5 281.25 344.5L505.25 344.5C511 344.5 515.5 340.25 515.5 334.75C515.5 329.25 511 325 505.25 325L281.25 325C275.5 325 271.25 329.25 271.25 334.75Z" fill="black" fill-opacity="0.85"/>
 </g>
</svg>
