<?xml version="1.0" encoding="UTF-8"?>
<!--Generator: Apple Native CoreSVG 326-->
<!DOCTYPE svg
PUBLIC "-//W3C//DTD SVG 1.1//EN"
       "http://www.w3.org/Graphics/SVG/1.1/DTD/svg11.dtd">
<svg version="1.1" xmlns="http://www.w3.org/2000/svg" xmlns:xlink="http://www.w3.org/1999/xlink" viewBox="0 0 706 679.75">
 <g>
  <rect height="679.75" opacity="0" width="706" x="0" y="0"/>
  <path d="M39.25 610.25L666.75 610.25L666.75 591C666.75 580.25 660.25 573.75 649.25 573.75L628.75 573.75L628.75 213.5L657.75 213.5C673 213.5 681.5 202.75 681.5 191.5C681.5 183.25 677 176 667 170.25L390.75 10.75C378.5 3.75 365.5 0 353 0C340.5 0 327.25 3.75 315.25 10.75L39 170.25C28.75 176 24.5 183.25 24.5 191.5C24.5 202.75 33 213.5 48.25 213.5L77.5 213.5L77.5 573.75L57 573.75C45.75 573.75 39.25 580.25 39.25 591ZM119.25 573.75L119.25 175.5L338.5 52C342.75 49.5 348 48 353 48C357.75 48 362.75 49.5 367.5 52L587 175.5L587 573.75ZM22.25 679.25L683.75 679.25C696 679.25 706 669.25 706 657.25C706 645 696 635 683.75 635L22.25 635C10 635 0 645 0 657.25C0 669.25 10 679.25 22.25 679.25Z" fill="black" fill-opacity="0.85"/>
  <path d="M288.25 484C298.5 484 305 477.5 305 467.25L305 377.75L364.75 377.75C420 377.75 458.5 341.25 458.5 286.25C458.5 230.25 419.5 195 365.25 195L288.5 195C278.25 195 271.5 201.75 271.5 212.25L271.5 467.25C271.5 477.5 278 484 288.25 484ZM305 349.75L305 223L357 223C397 223 424.25 244 424.25 286.25C424.25 327.75 398.5 349.75 356.75 349.75ZM240.5 284.5C240.5 290 244.75 294.25 250.5 294.25L474.5 294.25C480.25 294.25 484.75 289.75 484.75 284.5C484.75 279 480.25 274.75 474.5 274.75L250.5 274.75C244.75 274.75 240.5 279 240.5 284.5Z" fill="black" fill-opacity="0.85"/>
 </g>
</svg>
