<?xml version="1.0" encoding="UTF-8"?>
<!--Generator: Apple Native CoreSVG 326-->
<!DOCTYPE svg
PUBLIC "-//W3C//DTD SVG 1.1//EN"
       "http://www.w3.org/Graphics/SVG/1.1/DTD/svg11.dtd">
<svg version="1.1" xmlns="http://www.w3.org/2000/svg" xmlns:xlink="http://www.w3.org/1999/xlink" viewBox="0 0 775.551 651.75">
 <g>
  <rect height="651.75" opacity="0" width="775.551" x="0" y="0"/>
  <path d="M387.775 651.25C567.525 651.25 713.275 505.5 713.275 325.75C713.275 146 567.525 0 387.775 0C208.025 0 62.2754 146 62.2754 325.75L108.775 325.75C108.775 171.5 233.525 46.75 387.775 46.75C542.025 46.75 666.775 171.5 666.775 325.75C666.775 480 542.025 604.75 387.775 604.75C292.275 604.75 207.025 556.25 158.275 483.25C150.025 472 137.025 468.5 125.525 475.5C114.525 482 111.275 497.25 120.275 509.5C178.525 595.25 277.025 651.25 387.775 651.25ZM20.5254 265.25C0.0253627 265.25-5.72464 279.25 6.02536 295.5L77.0254 396.5C86.5254 410.25 100.275 410 109.525 396.5L180.525 295.25C191.775 279.25 186.275 265.25 166.025 265.25Z" fill="black" fill-opacity="0.85"/>
  <path d="M323.025 471.75C333.275 471.75 339.775 465.25 339.775 455L339.775 365.5L399.525 365.5C454.775 365.5 493.275 329 493.275 273.75C493.275 218 454.275 182.75 400.025 182.75L323.275 182.75C312.775 182.75 306.275 189.25 306.275 200L306.275 455C306.275 465.25 312.775 471.75 323.025 471.75ZM339.775 337.5L339.775 210.75L391.775 210.75C431.775 210.75 459.025 231.5 459.025 273.75C459.025 315.5 433.275 337.5 391.525 337.5ZM275.025 272C275.025 277.75 279.525 282 285.275 282L509.275 282C515.025 282 519.275 277.5 519.275 272C519.275 266.5 515.025 262.25 509.275 262.25L285.275 262.25C279.525 262.25 275.025 266.5 275.025 272Z" fill="black" fill-opacity="0.85"/>
 </g>
</svg>
