<?xml version="1.0" encoding="UTF-8"?>
<!--Generator: Apple Native CoreSVG 326-->
<!DOCTYPE svg
PUBLIC "-//W3C//DTD SVG 1.1//EN"
       "http://www.w3.org/Graphics/SVG/1.1/DTD/svg11.dtd">
<svg version="1.1" xmlns="http://www.w3.org/2000/svg" xmlns:xlink="http://www.w3.org/1999/xlink" viewBox="0 0 587.75 587.75">
 <g>
  <rect height="587.75" opacity="0" width="587.75" x="0" y="0"/>
  <path d="M97.25 587.75L490.25 587.75C555 587.75 587.75 555 587.75 491.5L587.75 96.5C587.75 32.75 555 0 490.25 0L97.25 0C32.75 0 0 32.5 0 96.5L0 491.5C0 555.5 32.75 587.75 97.25 587.75ZM98.25 543.5C63.25 543.5 44.25 525 44.25 489L44.25 98.75C44.25 63 63.25 44.25 98.25 44.25L489.5 44.25C523.75 44.25 543.5 63 543.5 98.75L543.5 489C543.5 525 523.75 543.5 489.5 543.5Z" fill="black" fill-opacity="0.85"/>
  <path d="M229.25 439.75C239.5 439.75 246 433.25 246 423L246 333.5L305.75 333.5C361 333.5 399.5 297 399.5 241.75C399.5 186 360.5 150.75 306.25 150.75L229.5 150.75C219 150.75 212.5 157.25 212.5 168L212.5 423C212.5 433.25 219 439.75 229.25 439.75ZM246 305.5L246 178.75L298 178.75C338 178.75 365.25 199.5 365.25 241.75C365.25 283.5 339.5 305.5 297.75 305.5ZM181.25 240C181.25 245.75 185.75 250 191.5 250L415.25 250C421 250 425.5 245.5 425.5 240C425.5 234.5 421 230.25 415.25 230.25L191.5 230.25C185.75 230.25 181.25 234.5 181.25 240Z" fill="black" fill-opacity="0.85"/>
 </g>
</svg>
