<?xml version="1.0" encoding="UTF-8"?>
<!--Generator: Apple Native CoreSVG 326-->
<!DOCTYPE svg
PUBLIC "-//W3C//DTD SVG 1.1//EN"
       "http://www.w3.org/Graphics/SVG/1.1/DTD/svg11.dtd">
<svg version="1.1" xmlns="http://www.w3.org/2000/svg" xmlns:xlink="http://www.w3.org/1999/xlink" viewBox="0 0 651.25 651.75">
 <g>
  <rect height="651.75" opacity="0" width="651.25" x="0" y="0"/>
  <path d="M325.5 651.25C505.25 651.25 651.25 505.5 651.25 325.75C651.25 146 505.25 0 325.5 0C145.75 0 0 146 0 325.75C0 505.5 145.75 651.25 325.5 651.25ZM325.5 604.75C171.25 604.75 46.5 480 46.5 325.75C46.5 171.5 171.25 46.75 325.5 46.75C479.75 46.75 604.5 171.5 604.5 325.75C604.5 480 479.75 604.75 325.5 604.75Z" fill="black" fill-opacity="0.85"/>
  <path d="M219.25 459L323.25 459C330.75 459 336.5 453.5 336.5 446C336.5 439 330.75 433.5 323.25 433.5L245 433.5L245 430.25L329.5 293C333 287.5 335.25 283.25 335.25 277.5C335.25 269.75 331 262 319 262L217.5 262C210.25 262 204.5 267.5 204.5 274.5C204.5 282 210.25 287.5 217.5 287.5L297.25 287.5L297.25 290.75L209.5 430.75C206.75 435.5 204.5 439.5 204.5 444.25C204.5 453 210.5 459 219.25 459ZM400.25 462.5C410 462.5 416 456 416 445.5L416 198C416 187.25 410 180.75 400.25 180.75C390 180.75 384 187.25 384 197.75L384 445.5C384 456 390 462.5 400.25 462.5ZM369.5 346L444.5 305.5C450.5 302.25 452.75 297.75 452.75 293.25C452.75 284.5 443.75 276.5 433.5 282L357.5 323C352 326.25 349.25 331 349.25 335.5C349.25 344.25 358.25 352 369.5 346Z" fill="black" fill-opacity="0.85"/>
 </g>
</svg>
