<?xml version="1.0" encoding="UTF-8"?>
<!--Generator: Apple Native CoreSVG 326-->
<!DOCTYPE svg
PUBLIC "-//W3C//DTD SVG 1.1//EN"
       "http://www.w3.org/Graphics/SVG/1.1/DTD/svg11.dtd">
<svg version="1.1" xmlns="http://www.w3.org/2000/svg" xmlns:xlink="http://www.w3.org/1999/xlink" viewBox="0 0 768.5 637.929">
 <g>
  <rect height="637.929" opacity="0" width="768.5" x="0" y="0"/>
  <path d="M768.5 382.839C768.5 181.589 613.75 16.5894 417.25 0.089388C407-0.910612 399 6.58939 399 17.0894L399 119.339C399 127.839 405.25 134.589 414 135.339C537.25 150.339 633 255.339 633 382.839C633 440.839 613.25 494.089 578.25 538.089C573.5 544.089 573.75 551.589 579 556.839L653.25 631.089C660.75 638.339 671.5 638.339 678 630.339C734.5 563.339 768.5 476.839 768.5 382.839Z" fill="black" fill-opacity="0.85"/>
  <path d="M0 382.839C0 477.089 34 563.839 90.75 630.839C97 638.339 107.5 638.339 115 631.089L189.25 556.839C194.5 551.589 194.75 544.089 190 538.089C155 494.089 135.25 440.839 135.25 382.839C135.25 255.339 231.25 150.339 354.25 135.339C363.25 134.589 369.25 127.839 369.25 119.339L369.25 17.0894C369.25 6.58939 361.5-0.910612 351.25 0.089388C154.5 16.5894 0 181.589 0 382.839Z" fill="black" fill-opacity="0.85"/>
  <path d="M278 520.339L381.75 520.339C389.5 520.339 395.25 514.839 395.25 507.339C395.25 500.089 389.5 494.839 381.75 494.839L303.5 494.839L303.5 491.589L388 354.339C391.5 348.839 394 344.589 394 338.589C394 330.839 389.5 323.339 377.75 323.339L276.25 323.339C268.75 323.339 263 328.839 263 335.839C263 343.339 268.75 348.839 276.25 348.839L356 348.839L356 351.839L268.25 492.089C265.25 496.589 263 500.839 263 505.589C263 514.339 269 520.339 278 520.339ZM458.75 523.839C468.5 523.839 474.75 517.339 474.75 506.839L474.75 259.339C474.75 248.589 468.5 242.089 458.75 242.089C448.75 242.089 442.75 248.589 442.75 259.089L442.75 506.839C442.75 517.339 448.75 523.839 458.75 523.839ZM428.25 407.339L503.25 366.839C509 363.589 511.25 359.089 511.25 354.589C511.25 345.839 502.5 337.839 492 343.089L416.25 384.339C410.5 387.339 407.75 392.339 407.75 396.839C407.75 405.589 417 413.339 428.25 407.339Z" fill="black" fill-opacity="0.85"/>
 </g>
</svg>
