<?xml version="1.0" encoding="UTF-8"?>
<!--Generator: Apple Native CoreSVG 326-->
<!DOCTYPE svg
PUBLIC "-//W3C//DTD SVG 1.1//EN"
       "http://www.w3.org/Graphics/SVG/1.1/DTD/svg11.dtd">
<svg version="1.1" xmlns="http://www.w3.org/2000/svg" xmlns:xlink="http://www.w3.org/1999/xlink" viewBox="0 0 587.75 587.75">
 <g>
  <rect height="587.75" opacity="0" width="587.75" x="0" y="0"/>
  <path d="M587.75 96.5L587.75 491.5C587.75 555 555 587.75 490.25 587.75L97.25 587.75C32.75 587.75 0 555.5 0 491.5L0 96.5C0 32.5 32.75 0 97.25 0L490.25 0C555 0 587.75 32.75 587.75 96.5ZM354 163L354 276.5L327 291C321.25 294.5 318.5 299.25 318.5 304C318.5 313 327.75 321 339.25 314.75L354 306.75L354 416.25C354 427.25 360.25 433.75 370.75 433.75C380.75 433.75 387 427.25 387 416.25L387 289L416.25 273.25C422.25 270 424.75 265.25 424.75 260.75C424.75 251.75 415.25 243.5 404.75 249L387 258.75L387 163.25C387 152 380.75 145.5 370.75 145.5C360.25 145.5 354 152 354 163ZM183.5 228.5C176 228.5 170 234.25 170 241.5C170 249.25 176 254.75 183.5 254.75L265 254.75L265 258.25L175.25 401.25C172.25 406 170 410.5 170 415C170 424 176.25 430.25 185.25 430.25L291.5 430.25C299.5 430.25 305.5 424.5 305.5 416.75C305.5 409.75 299.5 404 291.5 404L211.5 404L211.5 400.75L298.25 260.5C301.75 254.75 304 250.5 304 244.5C304 236.5 299.5 228.5 287.5 228.5Z" fill="black" fill-opacity="0.85"/>
 </g>
</svg>
