<?xml version="1.0" encoding="UTF-8"?>
<!--Generator: Apple Native CoreSVG 326-->
<!DOCTYPE svg
PUBLIC "-//W3C//DTD SVG 1.1//EN"
       "http://www.w3.org/Graphics/SVG/1.1/DTD/svg11.dtd">
<svg version="1.1" xmlns="http://www.w3.org/2000/svg" xmlns:xlink="http://www.w3.org/1999/xlink" viewBox="0 0 651.25 651.75">
 <g>
  <rect height="651.75" opacity="0" width="651.25" x="0" y="0"/>
  <path d="M651.25 325.75C651.25 505 505 651.25 325.5 651.25C146.25 651.25 0 505 0 325.75C0 146.25 146.25 0 325.5 0C505 0 651.25 146.25 651.25 325.75ZM269.25 179.25C259.25 179.25 252 186.75 252 197.5L252 338.25L217.25 338.25C211.25 338.25 207.25 342.25 207.25 348.5C207.25 354.75 211.25 358.5 217.25 358.5L252 358.5L252 402L217.25 402C211.25 402 207.25 406 207.25 412C207.25 418.25 211.25 422.25 217.25 422.25L252 422.25L252 457.5C252 468.25 258.5 475 269 475C279.75 475 286.25 468.25 286.25 457.5L286.25 422.25L366.25 422.25C372 422.25 375.75 418.25 375.75 412C375.75 406 372 402 366.25 402L286.25 402L286.25 358.5L346.5 358.5C406.5 358.5 441.5 319.5 441.5 269.25C441.5 217.5 405.25 179.25 347.25 179.25ZM405.75 269.25C405.75 308 380.5 330 338.25 330L286.25 330L286.25 209L338.25 209C385.25 209 405.75 234.75 405.75 269.25Z" fill="black" fill-opacity="0.85"/>
 </g>
</svg>
