<?xml version="1.0" encoding="UTF-8"?>
<!--Generator: Apple Native CoreSVG 326-->
<!DOCTYPE svg
PUBLIC "-//W3C//DTD SVG 1.1//EN"
       "http://www.w3.org/Graphics/SVG/1.1/DTD/svg11.dtd">
<svg version="1.1" xmlns="http://www.w3.org/2000/svg" xmlns:xlink="http://www.w3.org/1999/xlink" viewBox="0 0 450 580.25">
 <g>
  <rect height="580.25" opacity="0" width="450" x="0" y="0"/>
  <path d="M114.75 579.75C131.25 579.75 141.75 569 141.75 552L141.75 471.5L303.75 471.5C314.75 471.5 321.5 464.5 321.5 453.5C321.5 442.25 314.75 434.75 303.75 434.75L141.75 434.75L141.75 347.75L266.25 347.75C374.25 347.75 450 281.25 450 174C450 66.25 374.25 0 266.75 0L114.75 0C98 0 87.5 10.75 87.5 28.25L87.5 311L18 311C7 311 0 318.25 0 329.25C0 340.5 7 347.75 18 347.75L87.5 347.75L87.5 434.75L18 434.75C7 434.75 0.25 442.25 0.25 453.5C0.25 464.5 7 471.5 18 471.5L87.5 471.5L87.5 552C87.5 569 98 579.75 114.75 579.75ZM141.75 300.75L141.75 47.75L253.5 47.75C340 47.75 394.25 90.75 394.25 174C394.25 257.5 340 300.75 253.5 300.75Z" fill="black" fill-opacity="0.85"/>
 </g>
</svg>
