<?xml version="1.0" encoding="UTF-8"?>
<!--Generator: Apple Native CoreSVG 326-->
<!DOCTYPE svg
PUBLIC "-//W3C//DTD SVG 1.1//EN"
       "http://www.w3.org/Graphics/SVG/1.1/DTD/svg11.dtd">
<svg version="1.1" xmlns="http://www.w3.org/2000/svg" xmlns:xlink="http://www.w3.org/1999/xlink" viewBox="0 0 651.25 651.75">
 <g>
  <rect height="651.75" opacity="0" width="651.25" x="0" y="0"/>
  <path d="M325.5 651.25C505.25 651.25 651.25 505.5 651.25 325.75C651.25 146 505.25 0 325.5 0C145.75 0 0 146 0 325.75C0 505.5 145.75 651.25 325.5 651.25ZM325.5 604.75C171.25 604.75 46.5 480 46.5 325.75C46.5 171.5 171.25 46.75 325.5 46.75C479.75 46.75 604.5 171.5 604.5 325.75C604.5 480 479.75 604.75 325.5 604.75Z" fill="black" fill-opacity="0.85"/>
  <path d="M270 471.5C280.5 471.5 286.75 464.75 286.75 454.5L286.75 419.75L365 419.75C370.5 419.75 374.25 416 374.25 409.75C374.25 404 370.5 400.25 365 400.25L286.75 400.25L286.75 357.75L345.75 357.75C404.25 357.75 438 319.75 438 270.75C438 220 403 183 346.5 183L270.25 183C260.5 183 253.75 190.25 253.75 200.5L253.75 338L220 338C213.75 338 210 342 210 348C210 354 213.75 357.75 220 357.75L253.75 357.75L253.75 400.25L220 400.25C213.75 400.25 210 404 210 409.75C210 416 213.75 419.75 220 419.75L253.75 419.75L253.75 454.5C253.75 464.75 260 471.5 270 471.5ZM286.75 330L286.75 211.75L337.75 211.75C383.5 211.75 403.75 236.75 403.75 270.75C403.75 308.5 379 330 337.75 330Z" fill="black" fill-opacity="0.85"/>
 </g>
</svg>
