<?xml version="1.0" encoding="UTF-8"?>
<!--Generator: Apple Native CoreSVG 326-->
<!DOCTYPE svg
PUBLIC "-//W3C//DTD SVG 1.1//EN"
       "http://www.w3.org/Graphics/SVG/1.1/DTD/svg11.dtd">
<svg version="1.1" xmlns="http://www.w3.org/2000/svg" xmlns:xlink="http://www.w3.org/1999/xlink" viewBox="0 0 587.75 587.75">
 <g>
  <rect height="587.75" opacity="0" width="587.75" x="0" y="0"/>
  <path d="M587.75 96.5L587.75 491.5C587.75 555 555 587.75 490.25 587.75L97.25 587.75C32.75 587.75 0 555.5 0 491.5L0 96.5C0 32.5 32.75 0 97.25 0L490.25 0C555 0 587.75 32.75 587.75 96.5ZM237.75 147.25C227.75 147.25 220.5 154.75 220.5 165.5L220.5 306.25L185.75 306.25C179.75 306.25 175.75 310.25 175.75 316.5C175.75 322.75 179.75 326.5 185.75 326.5L220.5 326.5L220.5 370L185.75 370C179.75 370 175.75 374 175.75 380C175.75 386.25 179.75 390.25 185.75 390.25L220.5 390.25L220.5 425.5C220.5 436.25 227 443 237.5 443C248.25 443 254.75 436.25 254.75 425.5L254.75 390.25L334.5 390.25C340.5 390.25 344.25 386.25 344.25 380C344.25 374 340.5 370 334.5 370L254.75 370L254.75 326.5L315 326.5C375 326.5 409.75 287.5 409.75 237.25C409.75 185.5 373.75 147.25 315.75 147.25ZM374.25 237.25C374.25 276 349 298 306.75 298L254.75 298L254.75 177L306.75 177C353.75 177 374.25 202.75 374.25 237.25Z" fill="black" fill-opacity="0.85"/>
 </g>
</svg>
