<?xml version="1.0" encoding="UTF-8"?>
<!--Generator: Apple Native CoreSVG 326-->
<!DOCTYPE svg
PUBLIC "-//W3C//DTD SVG 1.1//EN"
       "http://www.w3.org/Graphics/SVG/1.1/DTD/svg11.dtd">
<svg version="1.1" xmlns="http://www.w3.org/2000/svg" xmlns:xlink="http://www.w3.org/1999/xlink" viewBox="0 0 587.75 587.75">
 <g>
  <rect height="587.75" opacity="0" width="587.75" x="0" y="0"/>
  <path d="M587.75 96.5L587.75 491.5C587.75 555 555 587.75 490.25 587.75L97.25 587.75C32.75 587.75 0 555.5 0 491.5L0 96.5C0 32.5 32.75 0 97.25 0L490.25 0C555 0 587.75 32.75 587.75 96.5ZM332.5 281C332.5 311.5 352.5 327.25 382 335.25L408.25 342.25C426 347 437.5 356.5 437.5 373.5C437.5 393.25 423 406 401.5 406C378.75 406 366 397.25 356 377C352.75 370.25 347.5 367.25 342.25 367.25C334.5 367.25 329 372.5 329 380.25C329 382.75 330 385.75 330.75 389.25C339.5 417.25 369.75 430.75 400 430.75C438.25 430.75 469.5 408.75 469.5 370.5C469.5 339.25 451 324.75 419.5 316.25L393.25 309C377.25 304.75 364.25 296.25 364.25 279.25C364.25 259.75 379.5 247.25 399 247.25C419.5 247.25 432 259.25 438.75 275.5C440.75 280.5 445.25 283.5 450.25 283.5C459.75 283.5 463.25 277.75 463.25 271.75C463.25 269.25 462.75 266.25 461.75 263.5C455.5 240 430.75 222.5 400 222.5C358.5 222.5 332.5 246.5 332.5 281ZM164 159.25C154 159.25 147.5 166 147.5 176.5L147.5 413C147.5 423.75 153.75 430.5 164.25 430.5C175 430.5 181.25 423.75 181.25 413L181.25 318.5L225 318.5L267.75 418.25C271 426.25 276.25 430.5 284.5 430.5C293.75 430.5 301.25 424.5 301.25 414.75C301.25 410.5 299.25 407.25 297.25 402.5L257.5 311.25C287.5 298.5 301.5 270 301.5 238.25C301.5 193.25 274.75 159.25 221.75 159.25ZM267.75 239C267.75 270.5 251 291 219 291L181.25 291L181.25 187.75L218.75 187.75C250 187.75 267.75 207.5 267.75 239Z" fill="black" fill-opacity="0.85"/>
 </g>
</svg>
