<?xml version="1.0" encoding="UTF-8"?>
<!--Generator: Apple Native CoreSVG 326-->
<!DOCTYPE svg
PUBLIC "-//W3C//DTD SVG 1.1//EN"
       "http://www.w3.org/Graphics/SVG/1.1/DTD/svg11.dtd">
<svg version="1.1" xmlns="http://www.w3.org/2000/svg" xmlns:xlink="http://www.w3.org/1999/xlink" viewBox="0 0 775.551 651.75">
 <g>
  <rect height="651.75" opacity="0" width="775.551" x="0" y="0"/>
  <path d="M387.775 651.25C567.525 651.25 713.275 505.5 713.275 325.75C713.275 146 567.525 0 387.775 0C208.025 0 62.2754 146 62.2754 325.75L108.775 325.75C108.775 171.5 233.525 46.75 387.775 46.75C542.025 46.75 666.775 171.5 666.775 325.75C666.775 480 542.025 604.75 387.775 604.75C292.275 604.75 207.025 556.25 158.275 483.25C150.025 472 137.025 468.5 125.525 475.5C114.525 482 111.275 497.25 120.275 509.5C178.525 595.25 277.025 651.25 387.775 651.25ZM20.5254 265.25C0.0253627 265.25-5.72464 279.25 6.02536 295.5L77.0254 396.5C86.5254 410.25 100.275 410 109.525 396.5L180.525 295.25C191.775 279.25 186.275 265.25 166.025 265.25Z" fill="black" fill-opacity="0.85"/>
  <path d="M261.775 459.25C271.775 459.25 277.775 452.75 277.775 442.25L277.775 349.75L320.775 349.75L362.775 447.5C365.775 455.25 370.775 459.25 378.775 459.25C387.775 459.25 395.025 453.5 395.025 444C395.025 440 393.275 436.75 391.275 432.25L352.275 342.75C381.525 330.5 395.275 302.5 395.275 271.5C395.275 227.5 369.275 194.75 317.775 194.75L261.525 194.75C251.525 194.75 245.275 201 245.275 211.25L245.275 442.25C245.275 452.75 251.525 459.25 261.775 459.25ZM277.775 323.25L277.775 222L314.525 222C345.275 222 362.525 241.5 362.525 272.25C362.525 303 346.275 323.25 314.775 323.25ZM491.525 459.5C529.025 459.5 559.275 438 559.275 400.75C559.275 370.25 541.025 356.25 510.525 347.75L485.025 340.75C469.275 336.5 456.525 328.25 456.525 311.5C456.525 292.5 471.525 280.25 490.525 280.25C510.775 280.25 523.025 292 529.525 308C531.525 312.75 535.775 315.75 540.775 315.75C549.775 315.75 553.275 310.25 553.275 304.25C553.275 302 552.775 299 551.775 296.25C545.775 273.5 521.775 256.25 491.525 256.25C451.025 256.25 425.775 279.75 425.775 313.25C425.775 343 445.525 358.5 474.025 366.25L499.775 373C517.025 377.75 528.275 387 528.275 403.75C528.275 423 514.025 435.5 493.025 435.5C470.775 435.5 458.275 427 448.775 407.25C445.275 400.5 440.275 397.75 435.275 397.75C427.775 397.75 422.275 402.75 422.275 410.25C422.275 412.75 423.275 415.75 424.275 418.75C432.525 446.5 462.275 459.5 491.525 459.5Z" fill="black" fill-opacity="0.85"/>
 </g>
</svg>
