<?xml version="1.0" encoding="UTF-8"?>
<!--Generator: Apple Native CoreSVG 326-->
<!DOCTYPE svg
PUBLIC "-//W3C//DTD SVG 1.1//EN"
       "http://www.w3.org/Graphics/SVG/1.1/DTD/svg11.dtd">
<svg version="1.1" xmlns="http://www.w3.org/2000/svg" xmlns:xlink="http://www.w3.org/1999/xlink" viewBox="0 0 651.25 651.75">
 <g>
  <rect height="651.75" opacity="0" width="651.25" x="0" y="0"/>
  <path d="M325.5 651.25C505.25 651.25 651.25 505.5 651.25 325.75C651.25 146 505.25 0 325.5 0C145.75 0 0 146 0 325.75C0 505.5 145.75 651.25 325.5 651.25ZM325.5 604.75C171.25 604.75 46.5 480 46.5 325.75C46.5 171.5 171.25 46.75 325.5 46.75C479.75 46.75 604.5 171.5 604.5 325.75C604.5 480 479.75 604.75 325.5 604.75Z" fill="black" fill-opacity="0.85"/>
  <path d="M199.25 459.25C209.25 459.25 215.25 452.75 215.25 442.25L215.25 349.75L258.25 349.75L300.25 447.5C303.25 455.25 308.25 459.25 316.25 459.25C325.25 459.25 332.5 453.5 332.5 444C332.5 440 330.75 436.75 328.75 432.25L289.75 342.75C319 330.5 332.75 302.5 332.75 271.5C332.75 227.5 306.75 194.75 255.25 194.75L199 194.75C189 194.75 182.75 201 182.75 211.25L182.75 442.25C182.75 452.75 189 459.25 199.25 459.25ZM215.25 323.25L215.25 222L252 222C282.75 222 300 241.5 300 272.25C300 303 283.75 323.25 252.25 323.25ZM429 459.5C466.5 459.5 496.75 438 496.75 400.75C496.75 370.25 478.5 356.25 448 347.75L422.5 340.75C406.75 336.5 394 328.25 394 311.5C394 292.5 409 280.25 428 280.25C448.25 280.25 460.5 292 467 308C469 312.75 473.25 315.75 478.25 315.75C487.25 315.75 490.75 310.25 490.75 304.25C490.75 302 490.25 299 489.25 296.25C483.25 273.5 459.25 256.25 429 256.25C388.5 256.25 363.25 279.75 363.25 313.25C363.25 343 383 358.5 411.5 366.25L437.25 373C454.5 377.75 465.75 387 465.75 403.75C465.75 423 451.5 435.5 430.5 435.5C408.25 435.5 395.75 427 386 407.25C382.75 400.5 377.75 397.75 372.75 397.75C365.25 397.75 359.75 402.75 359.75 410.25C359.75 412.75 360.75 415.75 361.75 418.75C370 446.5 399.75 459.5 429 459.5Z" fill="black" fill-opacity="0.85"/>
 </g>
</svg>
