<?xml version="1.0" encoding="UTF-8"?>
<!--Generator: Apple Native CoreSVG 326-->
<!DOCTYPE svg
PUBLIC "-//W3C//DTD SVG 1.1//EN"
       "http://www.w3.org/Graphics/SVG/1.1/DTD/svg11.dtd">
<svg version="1.1" xmlns="http://www.w3.org/2000/svg" xmlns:xlink="http://www.w3.org/1999/xlink" viewBox="0 0 523 572.75">
 <g>
  <rect height="572.75" opacity="0" width="523" x="0" y="0"/>
  <path d="M24.75 572.5C40 572.5 48.75 560.5 48.75 547L48.75 58L206 58C286.5 58 316.5 86 316.5 168.5L316.5 382C316.5 397.75 325.75 407.5 341.25 407.5C356 407.5 365 397.75 365 382L365 158.75C365 55.25 324.25 4.75 222 4.75L34.5 4.75C13.75 4.75 0 18 0 39.25L0 547C0 562 9.75 572.5 24.75 572.5ZM192.25 567.25L379 567.25C487 567.25 523 510.25 523 402.75L523 25C523 9.5 514 0 499.5 0C484 0 474.75 9.5 474.75 25L474.75 402.5C474.75 486.75 452.5 514 366.25 514L206.75 514L206.75 188.25C206.75 172.5 197.5 162.75 183 162.75C167.5 162.75 158.25 172.5 158.25 188.25L158.25 532.75C158.25 553.25 171.75 567.25 192.25 567.25Z" fill="black" fill-opacity="0.85"/>
 </g>
</svg>
