<?xml version="1.0" encoding="UTF-8"?>
<!--Generator: Apple Native CoreSVG 326-->
<!DOCTYPE svg
PUBLIC "-//W3C//DTD SVG 1.1//EN"
       "http://www.w3.org/Graphics/SVG/1.1/DTD/svg11.dtd">
<svg version="1.1" xmlns="http://www.w3.org/2000/svg" xmlns:xlink="http://www.w3.org/1999/xlink" viewBox="0 0 651.25 651.75">
 <g>
  <rect height="651.75" opacity="0" width="651.25" x="0" y="0"/>
  <path d="M325.5 651.25C505.25 651.25 651.25 505.5 651.25 325.75C651.25 146 505.25 0 325.5 0C145.75 0 0 146 0 325.75C0 505.5 145.75 651.25 325.5 651.25ZM325.5 604.75C171.25 604.75 46.5 480 46.5 325.75C46.5 171.5 171.25 46.75 325.5 46.75C479.75 46.75 604.5 171.5 604.5 325.75C604.5 480 479.75 604.75 325.5 604.75Z" fill="black" fill-opacity="0.85"/>
  <path d="M207.75 468C216 468 221.5 462.5 221.5 453.25L221.5 217.5L295.5 217.5C333 217.5 350.5 228 350.5 270.25L350.5 369.75C350.5 379 355.75 385 364.75 385C373.25 385 378.75 379 378.75 369.75L378.75 264.25C378.75 213.25 357.5 186.5 305 186.5L214.5 186.5C201.25 186.5 193.25 194.5 193.25 207.75L193.25 453.25C193.25 462.5 198.75 468 207.75 468ZM292.25 465.5L385 465.5C439.5 465.5 457.5 436.5 457.5 382.25L457.5 199C457.5 189.5 452 183.5 443.25 183.5C434.5 183.5 428.75 189.5 428.75 199L428.75 381C428.75 423 419 434.25 377.25 434.25L300.25 434.25L300.25 281.5C300.25 272.25 294.75 266.75 286.25 266.75C277.5 266.75 271.75 272.25 271.75 281.5L271.75 445C271.75 458 280.25 465.5 292.25 465.5Z" fill="black" fill-opacity="0.85"/>
 </g>
</svg>
