<?xml version="1.0" encoding="UTF-8"?>
<!--Generator: Apple Native CoreSVG 326-->
<!DOCTYPE svg
PUBLIC "-//W3C//DTD SVG 1.1//EN"
       "http://www.w3.org/Graphics/SVG/1.1/DTD/svg11.dtd">
<svg version="1.1" xmlns="http://www.w3.org/2000/svg" xmlns:xlink="http://www.w3.org/1999/xlink" viewBox="0 0 587.75 587.75">
 <g>
  <rect height="587.75" opacity="0" width="587.75" x="0" y="0"/>
  <path d="M587.75 96.5L587.75 491.5C587.75 555 555 587.75 490.25 587.75L97.25 587.75C32.75 587.75 0 555.5 0 491.5L0 96.5C0 32.5 32.75 0 97.25 0L490.25 0C555 0 587.75 32.75 587.75 96.5ZM378.75 135.5L378.75 161.75C342.75 164.5 313.5 186.75 313.5 226.5C313.5 263.25 335.25 281.25 369 297.75L378.75 302.5L378.75 393C355.5 390.25 344.25 374.5 341 350.25C339.75 343.5 334 337.75 325.5 337.75C316.75 337.75 310 343.5 310 352.75C310 355 310.25 358.25 311 361.75C318.5 400.5 346.25 417.75 378.75 420.25L378.75 447.25C378.75 452.25 382.75 456 387.5 456C392.25 456 396.25 452.25 396.25 447.25L396.25 420.5C437 417.5 465.25 393 465.25 353C465.25 314.25 440.75 297.25 408.25 282L396.25 276.25L396.25 189C417.5 192.25 426.75 208.5 430.25 229.75C432 237.5 436.5 242.25 445.75 242.25C455 242.25 460.75 236.75 460.75 227.5C460.75 224 460.5 221 459.75 218C452.25 180.5 427.25 164.25 396.25 161.75L396.25 135.5C396.25 130.75 392.25 127 387.5 127C382.75 127 378.75 130.75 378.75 135.5ZM128.25 224.5C128.25 264.5 151.5 286 188.75 299.75L207.5 306.75C232.75 316.25 250.25 329.5 250.25 356.5C250.25 380.75 235 401.75 204.75 401.75C178 401.75 161 385.75 155.5 359.25C153.5 351.25 148.25 347.25 140 347.25C131.25 347.25 125.25 354 125.25 363C125.25 366.75 126 371.5 127.25 375C137.25 410 165 430.25 204 430.25C257.5 430.25 283.25 397 283.25 353.5C283.25 308.5 256.5 291.5 221.25 277.5L202.5 270.5C177.75 261 161.25 249.25 161.25 222.5C161.25 198.25 176 180.25 202.25 180.25C226.5 180.25 241.75 194.75 247.5 220C249.75 228.5 255.25 232 263.25 232C272 232 277.25 226 277.25 217.25C277.25 214.75 276.75 211.25 276.25 208.25C268.75 174 240.5 151.5 202.75 151.5C155.25 151.5 128.25 184 128.25 224.5ZM433.25 356C433.25 377.75 419.5 391 396.25 393.25L396.25 311C417 321 433.25 332.25 433.25 356ZM378.75 268C359.5 257.75 345 245.25 345 224.75C345 203.25 359.25 191.25 378.75 188.75Z" fill="black" fill-opacity="0.85"/>
 </g>
</svg>
