<?xml version="1.0" encoding="UTF-8"?>
<!--Generator: Apple Native CoreSVG 326-->
<!DOCTYPE svg
PUBLIC "-//W3C//DTD SVG 1.1//EN"
       "http://www.w3.org/Graphics/SVG/1.1/DTD/svg11.dtd">
<svg version="1.1" xmlns="http://www.w3.org/2000/svg" xmlns:xlink="http://www.w3.org/1999/xlink" viewBox="0 0 712.876 713.377">
 <g>
  <rect height="713.377" opacity="0" width="712.876" x="0" y="0"/>
  <path d="M260.563 136.563C282.063 127.063 305.063 120.813 329.313 118.063C336.313 117.313 341.313 112.063 341.313 105.063L341.313 13.8133C341.313 5.56329 335.063-0.686706 326.813 0.313294C283.063 3.81329 241.813 15.5633 203.813 33.5633C196.313 37.0633 194.063 45.5633 198.063 52.5633L243.563 131.063C246.813 137.313 253.813 139.313 260.563 136.563Z" fill="black" fill-opacity="0.85"/>
  <path d="M163.313 213.813C177.563 194.813 194.313 177.813 213.563 163.313C219.563 159.063 220.813 152.063 217.313 146.063L172.063 67.8133C168.063 60.5633 159.563 58.5633 152.563 63.3133C117.563 87.8133 87.3132 118.063 63.3132 153.063C58.5632 160.063 60.3132 168.313 67.5632 172.563L146.313 217.563C152.313 221.313 159.063 219.813 163.313 213.813Z" fill="black" fill-opacity="0.85"/>
  <path d="M117.813 329.563C120.563 305.313 126.813 282.313 136.063 261.063C139.063 254.563 137.063 247.563 130.813 244.063L52.0632 198.813C44.8132 194.563 36.5632 197.063 33.0632 204.563C15.5632 242.313 3.81325 283.313 0.0632486 326.813C-0.186751 335.313 5.56325 341.563 13.8132 341.563L105.063 341.563C112.063 341.563 117.063 336.563 117.813 329.563Z" fill="black" fill-opacity="0.85"/>
  <path d="M136.063 452.563C127.063 431.313 120.813 408.063 117.813 383.563C117.313 376.563 111.813 371.563 105.063 371.563L13.8132 371.563C5.31325 371.563-0.686751 377.813 0.0632486 386.063C3.56325 430.063 15.3132 471.563 33.3132 509.313C36.8132 516.813 45.0632 519.563 52.3132 515.313L130.813 469.563C137.063 466.063 139.313 459.063 136.063 452.563Z" fill="black" fill-opacity="0.85"/>
  <path d="M213.813 550.063C194.813 535.813 177.563 519.063 163.563 499.563C159.313 494.063 152.313 492.313 146.063 496.063L67.8132 541.063C60.5632 545.313 58.5632 553.563 63.0632 560.563C87.3132 595.563 117.813 625.563 152.813 650.063C159.813 655.063 168.313 652.813 172.313 645.563L217.313 567.063C220.813 561.063 219.563 554.313 213.813 550.063Z" fill="black" fill-opacity="0.85"/>
  <path d="M329.313 595.313C305.313 592.813 282.313 586.313 260.813 577.063C254.313 574.063 247.313 576.313 243.813 582.313L198.563 660.813C194.563 667.813 196.813 676.563 204.313 680.063C242.063 697.813 283.063 709.563 326.563 713.313C335.063 713.813 341.313 707.813 341.313 699.563L341.313 608.313C341.313 601.313 336.313 596.063 329.313 595.313Z" fill="black" fill-opacity="0.85"/>
  <path d="M452.313 577.063C431.063 586.313 408.063 592.563 383.563 595.313C376.563 596.063 371.563 601.313 371.563 608.313L371.563 699.813C371.563 708.063 377.813 714.063 386.063 713.313C429.563 709.813 471.313 697.813 509.063 680.063C516.563 676.563 518.813 667.813 514.813 660.813L469.313 582.313C465.813 576.313 458.813 574.063 452.313 577.063Z" fill="black" fill-opacity="0.85"/>
  <path d="M549.813 499.563C535.563 518.563 518.563 535.313 499.313 550.063C493.563 554.313 491.813 561.313 495.313 567.063L540.813 645.313C544.813 652.563 553.313 655.063 560.313 650.063C595.313 625.563 625.313 595.313 649.813 560.563C654.563 553.563 652.313 545.313 645.313 541.063L566.813 495.563C560.813 492.063 554.063 493.813 549.813 499.563Z" fill="black" fill-opacity="0.85"/>
  <path d="M595.313 383.563C592.563 408.063 586.313 431.313 576.563 452.563C574.063 459.063 576.063 465.813 582.313 469.313L660.563 514.563C668.063 518.813 676.313 516.563 679.813 508.813C697.563 471.063 709.063 429.813 712.813 386.313C713.313 377.813 707.313 371.563 699.063 371.563L608.063 371.563C601.063 371.563 595.813 376.563 595.313 383.563Z" fill="black" fill-opacity="0.85"/>
  <path d="M576.563 260.813C585.813 282.313 592.563 305.563 595.063 329.563C595.813 336.563 601.063 341.563 608.063 341.563L699.313 341.563C707.563 341.563 713.313 335.313 712.813 327.063C709.313 283.563 697.563 241.813 679.813 204.313C676.313 196.813 667.813 194.313 660.563 198.563L581.813 244.313C575.813 247.813 574.063 254.313 576.563 260.813Z" fill="black" fill-opacity="0.85"/>
  <path d="M499.313 163.563C518.563 177.813 535.313 194.563 549.813 213.813C554.063 219.563 560.813 221.313 566.813 217.813L645.063 172.563C652.563 168.313 654.563 160.063 650.063 153.063C625.563 118.063 595.063 87.8133 560.313 63.3133C553.563 58.5633 544.813 60.5633 540.813 67.8133L495.563 146.063C492.063 152.313 493.563 159.313 499.313 163.563Z" fill="black" fill-opacity="0.85"/>
  <path d="M383.563 118.063C408.063 120.313 430.813 127.063 452.313 136.563C458.813 139.313 465.813 137.063 469.313 131.063L514.813 52.5633C518.813 45.5633 516.063 37.0633 508.563 33.5633C470.813 15.8133 429.813 3.81329 386.063 0.313294C377.813-0.186706 371.563 5.56329 371.563 13.8133L371.563 105.063C371.563 112.063 376.563 117.313 383.563 118.063Z" fill="black" fill-opacity="0.85"/>
  <path d="M268.563 489.813C320.313 489.813 345.813 457.313 345.813 414.813C345.813 371.063 319.563 354.313 285.063 340.813L266.813 333.813C242.563 324.563 226.563 313.063 226.563 286.813C226.563 263.063 240.813 245.563 266.563 245.563C290.313 245.563 305.563 259.813 311.063 284.563C313.063 292.563 318.313 296.063 326.063 296.063C334.563 296.063 339.813 290.313 339.813 281.813C339.813 279.313 339.563 275.813 338.813 273.063C331.313 239.563 303.813 217.813 267.063 217.813C220.813 217.813 194.313 249.313 194.313 289.063C194.313 327.813 217.063 348.813 253.563 362.313L271.813 369.063C296.813 378.313 313.563 391.313 313.563 417.813C313.563 441.563 298.813 461.813 269.063 461.813C242.813 461.813 226.063 446.563 220.813 420.563C219.063 412.813 214.063 408.813 206.063 408.813C197.563 408.813 191.563 415.063 191.563 424.063C191.563 427.813 192.313 432.313 193.313 435.813C203.313 470.063 230.313 489.813 268.563 489.813ZM448.063 480.563C492.063 480.563 523.063 455.813 523.063 414.563C523.063 376.563 499.313 360.063 467.563 345.063L444.813 334.313C423.063 323.813 405.813 311.313 405.813 289.063C405.813 265.063 423.563 253.063 447.313 253.063C474.563 253.063 485.313 270.563 489.313 294.063C490.813 301.563 495.313 306.063 504.313 306.063C513.313 306.063 518.813 300.813 518.813 291.813C518.813 288.313 518.563 285.563 517.813 282.563C510.063 242.563 481.313 227.313 447.313 227.313C408.063 227.313 375.063 249.063 375.063 291.063C375.063 326.563 396.313 344.313 429.313 360.313L451.813 371.063C473.813 381.563 492.063 392.563 492.063 417.313C492.063 440.813 475.563 454.313 448.313 454.313C418.563 454.313 405.313 438.563 401.813 411.563C400.563 405.063 395.313 399.563 386.813 399.563C378.313 399.563 372.063 405.063 372.063 414.063C372.063 416.313 372.313 419.313 372.813 422.813C380.813 464.313 412.313 480.563 448.063 480.563ZM447.313 515.063C452.063 515.063 455.813 511.063 455.813 506.563L455.813 202.063C455.813 197.313 452.063 193.563 447.313 193.563C442.813 193.563 439.063 197.313 439.063 202.063L439.063 506.563C439.063 511.063 442.813 515.063 447.313 515.063Z" fill="black" fill-opacity="0.85"/>
 </g>
</svg>
