<?xml version="1.0" encoding="UTF-8"?>
<!--Generator: Apple Native CoreSVG 326-->
<!DOCTYPE svg
PUBLIC "-//W3C//DTD SVG 1.1//EN"
       "http://www.w3.org/Graphics/SVG/1.1/DTD/svg11.dtd">
<svg version="1.1" xmlns="http://www.w3.org/2000/svg" xmlns:xlink="http://www.w3.org/1999/xlink" viewBox="0 0 651.25 651.25">
 <g>
  <rect height="651.25" opacity="0" width="651.25" x="0" y="0"/>
  <path d="M651.25 325.5C651.25 505 505 651.25 325.5 651.25C146.25 651.25 0 505 0 325.5C0 146.25 146.25 0 325.5 0C505 0 651.25 146.25 651.25 325.5ZM248.5 271C248.5 284.5 250.75 297.5 255.5 313.25L219.5 313.25C212 313.25 206.5 318.25 206.5 325C206.5 332 212 337 219.5 337L261.75 337C265 348.75 267 360 267 370.75C267 403 249.5 426.75 219.25 437C211.25 440 205.5 445.5 205.5 454C205.5 462.75 212 469 220.75 469L416.75 469C425.5 469 432.5 463 432.5 454.5C432.5 446 425.5 440 416.75 440L261 440L261 438.5C287.75 429.25 300.75 398.25 300.75 369.5C300.75 357 299.5 346.5 297.25 337L383.25 337C390.75 337 396.5 332 396.5 325C396.5 318.25 390.75 313.25 383.25 313.25L290.5 313.25C285.5 294.75 283.75 283.75 283.75 270C283.75 232.25 311.75 209 355.75 209C370.75 209 381.5 211 391.25 214C396.5 215.25 401.75 216.25 405.5 216.25C413.75 216.25 418.75 211.75 418.75 203.5C418.75 195.75 413 191.25 405.5 188.25C388 181.25 373.75 179.5 352.25 179.5C290.25 179.5 248.5 213.5 248.5 271Z" fill="black" fill-opacity="0.85"/>
 </g>
</svg>
