<?xml version="1.0" encoding="UTF-8"?>
<!--Generator: Apple Native CoreSVG 326-->
<!DOCTYPE svg
PUBLIC "-//W3C//DTD SVG 1.1//EN"
       "http://www.w3.org/Graphics/SVG/1.1/DTD/svg11.dtd">
<svg version="1.1" xmlns="http://www.w3.org/2000/svg" xmlns:xlink="http://www.w3.org/1999/xlink" viewBox="0 0 775.551 651.75">
 <g>
  <rect height="651.75" opacity="0" width="775.551" x="0" y="0"/>
  <path d="M387.775 651.25C567.525 651.25 713.275 505.5 713.275 325.75C713.275 146 567.525 0 387.775 0C208.025 0 62.2754 146 62.2754 325.75L108.775 325.75C108.775 171.5 233.525 46.75 387.775 46.75C542.025 46.75 666.775 171.5 666.775 325.75C666.775 480 542.025 604.75 387.775 604.75C292.275 604.75 207.025 556.25 158.275 483.25C150.025 472 137.025 468.5 125.525 475.5C114.525 482 111.275 497.25 120.275 509.5C178.525 595.25 277.025 651.25 387.775 651.25ZM20.5254 265.25C0.0253627 265.25-5.72464 279.25 6.02536 295.5L77.0254 396.5C86.5254 410.25 100.275 410 109.525 396.5L180.525 295.25C191.775 279.25 186.275 265.25 166.025 265.25Z" fill="black" fill-opacity="0.85"/>
  <path d="M285.275 465.75L476.775 465.75C485.275 465.75 492.025 460 492.025 451.5C492.025 443.5 485.275 437.25 476.775 437.25L324.525 437.25L324.525 435.75C350.525 427 363.275 396.5 363.275 368.5C363.275 356.5 362.025 346 359.775 337L444.025 337C451.275 337 456.775 331.75 456.775 325.25C456.775 318.5 451.275 313.5 444.025 313.5L353.275 313.5C348.775 295.75 346.775 284.75 346.775 271.5C346.775 234.75 374.025 212 417.025 212C431.775 212 442.275 213.75 451.775 216.5C457.025 218 462.025 219 465.775 219C473.775 219 478.275 214.5 478.275 206.75C478.275 199 473.025 194.5 465.275 191.5C448.525 185 434.525 183 413.775 183C353.275 183 312.525 216.25 312.525 272.25C312.525 285.75 314.775 298.5 319.275 313.5L284.275 313.5C277.025 313.5 271.525 318.75 271.525 325.25C271.525 331.75 277.025 337 284.275 337L325.525 337C328.525 348.5 330.525 359.25 330.525 370C330.525 401.25 313.525 424.75 283.775 434.5C276.025 437.25 270.775 442.75 270.775 451C270.775 459.5 276.775 465.75 285.275 465.75Z" fill="black" fill-opacity="0.85"/>
 </g>
</svg>
