<?xml version="1.0" encoding="UTF-8"?>
<!--Generator: Apple Native CoreSVG 326-->
<!DOCTYPE svg
PUBLIC "-//W3C//DTD SVG 1.1//EN"
       "http://www.w3.org/Graphics/SVG/1.1/DTD/svg11.dtd">
<svg version="1.1" xmlns="http://www.w3.org/2000/svg" xmlns:xlink="http://www.w3.org/1999/xlink" viewBox="0 0 587.75 587.75">
 <g>
  <rect height="587.75" opacity="0" width="587.75" x="0" y="0"/>
  <path d="M587.75 96.5L587.75 491.5C587.75 555 555 587.75 490.25 587.75L97.25 587.75C32.75 587.75 0 555.5 0 491.5L0 96.5C0 32.5 32.75 0 97.25 0L490.25 0C555 0 587.75 32.75 587.75 96.5ZM169.25 160.5L169.25 413.75C169.25 424.25 176 431 185.5 431C195 431 201.5 424.25 201.5 413.75L201.5 353.75L221.75 333.75L285.25 422.75C289 428 293.5 431 299.75 431C308.25 431 315 425 315 416.75C315 412.5 313.5 409 310.5 405L245 313.5L306.5 248C310.25 244 312.25 241.5 312.25 236.5C312.25 229 306 222.5 297.75 222.5C293.25 222.5 288.5 225 285.25 228.5L202.75 319.25L201.5 319.25L201.5 160.75C201.5 150.25 195 143.25 185.5 143.25C176 143.25 169.25 150 169.25 160.5ZM385.75 262.75L383.5 262.75L383.5 238.75C383.5 229.5 377.25 222.5 368.75 222.5C360.25 222.5 353.75 229.5 353.75 238.75L353.75 413.75C353.75 424.25 359.5 431 369.5 431C377 431 385 426.25 385 413.75L385 306.25C385 282 394.5 253.5 423.5 253.5C430 253.5 436 253.25 440.75 250.75C445.25 248.75 447.75 245 447.75 239.5C447.75 228.25 438.25 222.5 427 222.5C405.25 222.5 390.5 241 385.75 262.75Z" fill="black" fill-opacity="0.85"/>
 </g>
</svg>
