<?xml version="1.0" encoding="UTF-8"?>
<!--Generator: Apple Native CoreSVG 326-->
<!DOCTYPE svg
PUBLIC "-//W3C//DTD SVG 1.1//EN"
       "http://www.w3.org/Graphics/SVG/1.1/DTD/svg11.dtd">
<svg version="1.1" xmlns="http://www.w3.org/2000/svg" xmlns:xlink="http://www.w3.org/1999/xlink" viewBox="0 0 775.551 651.75">
 <g>
  <rect height="651.75" opacity="0" width="775.551" x="0" y="0"/>
  <path d="M387.775 651.25C567.525 651.25 713.275 505.5 713.275 325.75C713.275 146 567.525 0 387.775 0C208.025 0 62.2754 146 62.2754 325.75L108.775 325.75C108.775 171.5 233.525 46.75 387.775 46.75C542.025 46.75 666.775 171.5 666.775 325.75C666.775 480 542.025 604.75 387.775 604.75C292.275 604.75 207.025 556.25 158.275 483.25C150.025 472 137.025 468.5 125.525 475.5C114.525 482 111.275 497.25 120.275 509.5C178.525 595.25 277.025 651.25 387.775 651.25ZM20.5254 265.25C0.0253627 265.25-5.72464 279.25 6.02536 295.5L77.0254 396.5C86.5254 410.25 100.275 410 109.525 396.5L180.525 295.25C191.775 279.25 186.275 265.25 166.025 265.25Z" fill="black" fill-opacity="0.85"/>
  <path d="M388.275 474.5C397.775 474.5 404.775 467.25 404.775 457.5L404.775 266.75L483.775 266.75C491.275 266.75 497.025 261 497.025 253.5C497.025 246.25 491.275 240.5 483.775 240.5L292.025 240.5C284.525 240.5 278.775 246.25 278.775 253.5C278.775 261 284.525 266.75 292.025 266.75L371.525 266.75L371.525 457.5C371.525 467.25 378.775 474.5 388.275 474.5ZM278.025 193C278.025 198.75 282.275 202.75 287.775 202.75L487.025 202.75C492.525 202.75 497.025 198.25 497.025 193C497.025 187.75 492.525 183.25 487.025 183.25L287.775 183.25C282.275 183.25 278.025 187.75 278.025 193Z" fill="black" fill-opacity="0.85"/>
 </g>
</svg>
