<?xml version="1.0" encoding="UTF-8"?>
<!--Generator: Apple Native CoreSVG 326-->
<!DOCTYPE svg
PUBLIC "-//W3C//DTD SVG 1.1//EN"
       "http://www.w3.org/Graphics/SVG/1.1/DTD/svg11.dtd">
<svg version="1.1" xmlns="http://www.w3.org/2000/svg" xmlns:xlink="http://www.w3.org/1999/xlink" viewBox="0 0 651.25 651.75">
 <g>
  <rect height="651.75" opacity="0" width="651.25" x="0" y="0"/>
  <path d="M651.25 325.75C651.25 505 505 651.25 325.5 651.25C146.25 651.25 0 505 0 325.75C0 146.25 146.25 0 325.5 0C505 0 651.25 146.25 651.25 325.75ZM227.5 238.25C219.5 238.25 213.75 244.25 213.75 251.75C213.75 259.25 219.5 265.25 227.5 265.25L308.75 265.25L308.75 460.5C308.75 470.75 316.25 478.25 326 478.25C335.75 478.25 343 470.75 343 460.5L343 265.25L423.75 265.25C431.75 265.25 437.5 259.25 437.5 251.75C437.5 244.25 431.75 238.25 423.75 238.25ZM223 179.5C217.5 179.5 212.75 184.25 212.75 189.75C212.75 195.5 217.5 199.75 223 199.75L427.25 199.75C432.75 199.75 437.5 195 437.5 189.75C437.5 184.25 432.75 179.5 427.25 179.5Z" fill="black" fill-opacity="0.85"/>
 </g>
</svg>
