<?xml version="1.0" encoding="UTF-8"?>
<!--Generator: Apple Native CoreSVG 326-->
<!DOCTYPE svg
PUBLIC "-//W3C//DTD SVG 1.1//EN"
       "http://www.w3.org/Graphics/SVG/1.1/DTD/svg11.dtd">
<svg version="1.1" xmlns="http://www.w3.org/2000/svg" xmlns:xlink="http://www.w3.org/1999/xlink" viewBox="0 0 706 679.75">
 <g>
  <rect height="679.75" opacity="0" width="706" x="0" y="0"/>
  <path d="M39.25 610.25L666.75 610.25L666.75 591C666.75 580.25 660.25 573.75 649.25 573.75L628.75 573.75L628.75 213.5L657.75 213.5C673 213.5 681.5 202.75 681.5 191.5C681.5 183.25 677 176 667 170.25L390.75 10.75C378.5 3.75 365.5 0 353 0C340.5 0 327.25 3.75 315.25 10.75L39 170.25C28.75 176 24.5 183.25 24.5 191.5C24.5 202.75 33 213.5 48.25 213.5L77.5 213.5L77.5 573.75L57 573.75C45.75 573.75 39.25 580.25 39.25 591ZM119.25 573.75L119.25 175.5L338.5 52C342.75 49.5 348 48 353 48C357.75 48 362.75 49.5 367.5 52L587 175.5L587 573.75ZM22.25 679.25L683.75 679.25C696 679.25 706 669.25 706 657.25C706 645 696 635 683.75 635L22.25 635C10 635 0 645 0 657.25C0 669.25 10 679.25 22.25 679.25Z" fill="black" fill-opacity="0.85"/>
  <path d="M353.25 489C363.5 489 369.75 482.75 369.75 472.5L369.75 231L450 231C459.5 231 465.75 224.75 465.75 216.5C465.75 207.5 459.25 201.5 450 201.5L256.25 201.5C246.75 201.5 240.25 207.5 240.25 216.5C240.25 225.25 247 231 256.25 231L336.5 231L336.5 472.5C336.5 482.75 343 489 353.25 489ZM285 370C286.75 370 288.5 369.75 290.5 369L423.5 314.75C428.5 312.5 430.75 309.5 430.75 305C430.75 298.25 426.5 295.5 421.5 295.5C419.75 295.5 417.75 295.75 415.75 296.5L282.75 350.75C277.75 353 275.5 356 275.5 360.5C275.5 365.5 279 370 285 370ZM285 432.5C286.75 432.5 288.5 432 290.5 431.5L423.5 377C428.5 375 430.75 372 430.75 367.5C430.75 360.75 426.5 357.75 421.5 357.75C419.75 357.75 417.75 358.25 415.75 359L282.75 413.25C277.75 415.25 275.5 418.5 275.5 423C275.5 428 279 432.5 285 432.5Z" fill="black" fill-opacity="0.85"/>
 </g>
</svg>
