<?xml version="1.0" encoding="UTF-8"?>
<!--Generator: Apple Native CoreSVG 326-->
<!DOCTYPE svg
PUBLIC "-//W3C//DTD SVG 1.1//EN"
       "http://www.w3.org/Graphics/SVG/1.1/DTD/svg11.dtd">
<svg version="1.1" xmlns="http://www.w3.org/2000/svg" xmlns:xlink="http://www.w3.org/1999/xlink" viewBox="0 0 587.75 587.75">
 <g>
  <rect height="587.75" opacity="0" width="587.75" x="0" y="0"/>
  <path d="M587.75 96.5L587.75 491.5C587.75 555 555 587.75 490.25 587.75L97.25 587.75C32.75 587.75 0 555.5 0 491.5L0 96.5C0 32.5 32.75 0 97.25 0L490.25 0C555 0 587.75 32.75 587.75 96.5ZM195 153.75C185.25 153.75 178.75 159.5 178.75 168.75C178.75 177.75 185.5 184 195 184L277 184L277 284L222 306.5C216.75 308.75 214.5 312 214.5 316.75C214.5 321.75 218.25 326.5 224.25 326.5C226 326.5 228.25 326 230.25 325.5L277 306L277 348.25L222 370.75C216.75 372.75 214.5 376 214.5 380.5C214.5 386 218.25 390.5 224.25 390.5C226 390.5 228.25 390 230.25 389.25L277 370.25L277 431.25C277 442 283.75 448.25 294.25 448.25C305 448.25 311.5 442 311.5 431.25L311.5 356.25L366.5 333.75C371.75 331.25 374 328.5 374 323.5C374 317 369.25 313.75 364.5 313.75C362.75 313.75 360.5 314.25 358.5 314.75L311.5 334L311.5 292.25L366.5 269.5C371.75 267.5 374 264.5 374 259.5C374 252.75 369.25 249.75 364.5 249.75C362.75 249.75 360.5 250.25 358.5 251L311.5 270.25L311.5 184L393.5 184C403.5 184 409.75 177.25 409.75 168.75C409.75 159.5 403.25 153.75 393.5 153.75Z" fill="black" fill-opacity="0.85"/>
 </g>
</svg>
