<?xml version="1.0" encoding="UTF-8"?>
<!--Generator: Apple Native CoreSVG 326-->
<!DOCTYPE svg
PUBLIC "-//W3C//DTD SVG 1.1//EN"
       "http://www.w3.org/Graphics/SVG/1.1/DTD/svg11.dtd">
<svg version="1.1" xmlns="http://www.w3.org/2000/svg" xmlns:xlink="http://www.w3.org/1999/xlink" viewBox="0 0 416 573.25">
 <g>
  <rect height="573.25" opacity="0" width="416" x="0" y="0"/>
  <path d="M130.75 572.5L137.25 572.5C219 572.5 289.25 544.5 341 494.25C385.5 451.5 416 393 416 334C416 319.75 408.25 307.75 391.5 307.75C375 307.75 368 318.25 365.75 334C361.25 382.25 339.75 424.5 308 456.5C267.5 497.25 212.75 519.5 151.25 519.5L151.25 301.5L294.5 240C303.5 236.5 307.75 230.75 307.75 222.25C307.75 212.75 301.5 204.75 290.25 204.75C287 204.75 283.75 205.5 279.75 207.25L151.25 262.25L151.25 175.5L294.5 114.25C303.5 110.75 307.75 104.75 307.75 96.25C307.75 85.75 300.75 78.75 290.25 78.75C287 78.75 283.75 79.5 279.75 81.25L151.25 136.25L151.25 28C151.25 11.5 140 0 124 0C108 0 97.25 11.5 97.25 28L97.25 158.25L12.5 194.25C4.25 197.5 0 203.75 0 212C0 222.75 7.25 230 17 230C20.25 230 24 229.25 27.75 227.5L97.25 198L97.25 284.25L12.5 320.25C4.25 323.5 0 329.5 0 338C0 348.75 7.25 356 17 356C20.25 356 24 355.25 27.75 353.5L97.25 323.75L97.25 538.75C97.25 558.25 109 572.5 130.75 572.5Z" fill="black" fill-opacity="0.85"/>
 </g>
</svg>
