<?xml version="1.0" encoding="UTF-8"?>
<!--Generator: Apple Native CoreSVG 326-->
<!DOCTYPE svg
PUBLIC "-//W3C//DTD SVG 1.1//EN"
       "http://www.w3.org/Graphics/SVG/1.1/DTD/svg11.dtd">
<svg version="1.1" xmlns="http://www.w3.org/2000/svg" xmlns:xlink="http://www.w3.org/1999/xlink" viewBox="0 0 775.551 651.75">
 <g>
  <rect height="651.75" opacity="0" width="775.551" x="0" y="0"/>
  <path d="M387.775 651.25C567.525 651.25 713.275 505.5 713.275 325.75C713.275 146 567.525 0 387.775 0C208.025 0 62.2754 146 62.2754 325.75L108.775 325.75C108.775 171.5 233.525 46.75 387.775 46.75C542.025 46.75 666.775 171.5 666.775 325.75C666.775 480 542.025 604.75 387.775 604.75C292.275 604.75 207.025 556.25 158.275 483.25C150.025 472 137.025 468.5 125.525 475.5C114.525 482 111.275 497.25 120.275 509.5C178.525 595.25 277.025 651.25 387.775 651.25ZM20.5254 265.25C0.0253627 265.25-5.72464 279.25 6.02536 295.5L77.0254 396.5C86.5254 410.25 100.275 410 109.525 396.5L180.525 295.25C191.775 279.25 186.275 265.25 166.025 265.25Z" fill="black" fill-opacity="0.85"/>
  <path d="M305.525 472.5C316.025 472.5 324.275 465.75 327.025 455L386.775 235L388.775 235L448.275 455C451.525 466.25 459.025 472.5 470.525 472.5C482.275 472.5 490.275 466.25 492.525 454.5L544.525 204.25C544.775 201.75 545.025 198.75 545.025 196.25C545.025 185.75 537.275 181 528.525 181C521.525 181 514.275 185.25 512.525 194.5L469.525 428.25L467.525 428.25L405.275 196C403.025 186.5 397.525 181.5 388.025 181.5C379.025 181.5 373.275 187 370.525 196.5L308.025 428.25L306.275 428.25L263.275 194.5C261.775 186.25 255.275 181 246.775 181C237.275 181 230.275 186.5 230.275 195.75C230.275 197.75 230.525 201 231.525 204.75L283.025 454.5C285.275 465.5 293.525 472.5 305.525 472.5ZM208.275 324.75C208.275 330.5 212.525 335 218.275 335L557.525 335C563.275 335 567.525 330.5 567.525 324.75C567.525 319 563.275 315 557.525 315L218.275 315C212.525 315 208.275 319 208.275 324.75Z" fill="black" fill-opacity="0.85"/>
 </g>
</svg>
