<?xml version="1.0" encoding="UTF-8"?>
<!--Generator: Apple Native CoreSVG 326-->
<!DOCTYPE svg
PUBLIC "-//W3C//DTD SVG 1.1//EN"
       "http://www.w3.org/Graphics/SVG/1.1/DTD/svg11.dtd">
<svg version="1.1" xmlns="http://www.w3.org/2000/svg" xmlns:xlink="http://www.w3.org/1999/xlink" viewBox="0 0 651.25 651.75">
 <g>
  <rect height="651.75" opacity="0" width="651.25" x="0" y="0"/>
  <path d="M325.5 651.25C505.25 651.25 651.25 505.5 651.25 325.75C651.25 146 505.25 0 325.5 0C145.75 0 0 146 0 325.75C0 505.5 145.75 651.25 325.5 651.25ZM325.5 604.75C171.25 604.75 46.5 480 46.5 325.75C46.5 171.5 171.25 46.75 325.5 46.75C479.75 46.75 604.5 171.5 604.5 325.75C604.5 480 479.75 604.75 325.5 604.75Z" fill="black" fill-opacity="0.85"/>
  <path d="M243 472.5C253.5 472.5 261.75 465.75 264.5 455L324.25 235L326.25 235L385.75 455C389 466.25 396.5 472.5 408 472.5C419.75 472.5 427.75 466.25 430 454.5L482 204.25C482.25 201.75 482.5 198.75 482.5 196.25C482.5 185.75 474.75 181 466 181C459 181 451.75 185.25 450 194.5L407 428.25L405 428.25L342.75 196C340.5 186.5 335 181.5 325.5 181.5C316.5 181.5 310.75 187 308 196.5L245.5 428.25L243.75 428.25L200.75 194.5C199.25 186.25 192.75 181 184.25 181C174.75 181 167.75 186.5 167.75 195.75C167.75 197.75 168 201 169 204.75L220.5 454.5C222.75 465.5 231 472.5 243 472.5ZM145.75 324.75C145.75 330.5 150 335 155.75 335L495 335C500.75 335 505 330.5 505 324.75C505 319 500.75 315 495 315L155.75 315C150 315 145.75 319 145.75 324.75Z" fill="black" fill-opacity="0.85"/>
 </g>
</svg>
