<?xml version="1.0" encoding="UTF-8"?>
<!--Generator: Apple Native CoreSVG 326-->
<!DOCTYPE svg
PUBLIC "-//W3C//DTD SVG 1.1//EN"
       "http://www.w3.org/Graphics/SVG/1.1/DTD/svg11.dtd">
<svg version="1.1" xmlns="http://www.w3.org/2000/svg" xmlns:xlink="http://www.w3.org/1999/xlink" viewBox="0 0 768.5 640.75">
 <g>
  <rect height="640.75" opacity="0" width="768.5" x="0" y="0"/>
  <path d="M768.5 384.25C768.5 290 734.5 203.75 678 136.75C671.5 129 660.5 129.25 653.25 136.5L581 208.75C574.75 215 574.5 223.75 580 230.75C613.25 273.25 633 326.25 633 384.25C633 442.25 613.25 495.5 578.5 539.5C573.75 545.5 574 553 579.25 558.25L653.25 632.5C660.5 640 671.25 639.75 678 632C734.5 565 768.5 478.25 768.5 384.25Z" fill="black" fill-opacity="0.85"/>
  <path d="M384.25 135.25C442.25 135.25 495.75 155.25 538.25 189C545 194 553.25 193.5 559.5 187.25L632 114.75C639.5 107.5 639.25 96.75 631.5 90C564.75 34 478.25 0 384.25 0C290.25 0 203.75 34 137 90C129.25 96.75 129 107.5 136.25 114.75L209 187.25C215 193.5 224 193.75 231 188.25C273.25 155.25 326.5 135.25 384.25 135.25Z" fill="black" fill-opacity="0.85"/>
  <path d="M0 384.25C0 478.25 34 565 90.5 632C97 639.75 108 640 115.25 632.5L189.25 558.25C194.25 553 194.75 545.5 190 539.5C155.25 495.5 135.25 442.25 135.25 384.25C135.25 326.25 155 273.25 188.5 230.75C193.75 223.75 193.75 215 187.5 208.75L115 136.5C107.75 129.25 97 129 90.25 136.75C33.75 203.75 0 290 0 384.25Z" fill="black" fill-opacity="0.85"/>
  <path d="M301.5 535.25C312 535.25 320.25 528.5 323.25 517.5L383 297.75L385 297.75L444.5 517.5C447.5 529 455 535.25 466.5 535.25C478.25 535.25 486.5 528.75 488.75 517L540.5 267C541 264.5 541.25 261.5 541.25 258.75C541.25 248.5 533.5 243.5 524.75 243.5C517.75 243.5 510.25 248 508.5 257L465.5 491L463.5 491L401.5 258.75C399 249.25 393.75 244.25 384.25 244.25C375 244.25 369.25 249.75 366.5 259.25L304.25 491L302.5 491L259.25 257C257.75 248.75 251.25 243.5 243 243.5C233.5 243.5 226.5 249 226.5 258.5C226.5 260.5 226.75 263.75 227.5 267.5L279.25 517C281.5 528.25 289.75 535.25 301.5 535.25ZM204.25 387.5C204.25 393.25 208.75 397.75 214.5 397.75L553.5 397.75C559.25 397.75 563.75 393.25 563.75 387.5C563.75 381.75 559.25 377.75 553.5 377.75L214.5 377.75C208.75 377.75 204.25 381.75 204.25 387.5Z" fill="black" fill-opacity="0.85"/>
 </g>
</svg>
