<?xml version="1.0" encoding="UTF-8"?>
<!--Generator: Apple Native CoreSVG 326-->
<!DOCTYPE svg
PUBLIC "-//W3C//DTD SVG 1.1//EN"
       "http://www.w3.org/Graphics/SVG/1.1/DTD/svg11.dtd">
<svg version="1.1" xmlns="http://www.w3.org/2000/svg" xmlns:xlink="http://www.w3.org/1999/xlink" viewBox="0 0 651.25 651.75">
 <g>
  <rect height="651.75" opacity="0" width="651.25" x="0" y="0"/>
  <path d="M651.25 325.75C651.25 505 505 651.25 325.5 651.25C146.25 651.25 0 505 0 325.75C0 146.25 146.25 0 325.5 0C505 0 651.25 146.25 651.25 325.75ZM211 189C211 192.5 212 196.5 214.5 200.5L297.75 333.75L244 333.75C238.25 333.75 233.75 338 233.75 344C233.75 349.75 238.25 354.25 244 354.25L308.5 354.25L308.5 389.5L244 389.5C238.25 389.5 233.75 394 233.75 400C233.75 405.5 238.25 410 244 410L308.5 410L308.5 460.5C308.5 470.75 315.5 478 325.5 478C335.5 478 342.5 470.75 342.5 460.5L342.5 410L408.75 410C414.5 410 418.75 405.5 418.75 400C418.75 394 414.5 389.5 408.75 389.5L342.5 389.5L342.5 354.25L408.75 354.25C414.5 354.25 418.75 349.75 418.75 344C418.75 338 414.5 333.75 408.75 333.75L353.25 333.75L437 200C439.25 196 440.25 193.75 440.25 189C440.25 179.75 433 173.5 423.5 173.5C417.25 173.5 411.75 176.75 408 183.25L326.25 319.5L325 319.5L243.5 183.25C239.75 176.75 235.5 173.25 227.75 173.25C218 173.25 211 179.5 211 189Z" fill="black" fill-opacity="0.85"/>
 </g>
</svg>
