<?xml version="1.0" encoding="UTF-8"?>
<!--Generator: Apple Native CoreSVG 326-->
<!DOCTYPE svg
PUBLIC "-//W3C//DTD SVG 1.1//EN"
       "http://www.w3.org/Graphics/SVG/1.1/DTD/svg11.dtd">
<svg version="1.1" xmlns="http://www.w3.org/2000/svg" xmlns:xlink="http://www.w3.org/1999/xlink" viewBox="0 0 706 679.75">
 <g>
  <rect height="679.75" opacity="0" width="706" x="0" y="0"/>
  <path d="M39.25 610.25L666.75 610.25L666.75 591C666.75 580.25 660.25 573.75 649.25 573.75L628.75 573.75L628.75 213.5L657.75 213.5C673 213.5 681.5 202.75 681.5 191.5C681.5 183.25 677 176 667 170.25L390.75 10.75C378.5 3.75 365.5 0 353 0C340.5 0 327.25 3.75 315.25 10.75L39 170.25C28.75 176 24.5 183.25 24.5 191.5C24.5 202.75 33 213.5 48.25 213.5L77.5 213.5L77.5 573.75L57 573.75C45.75 573.75 39.25 580.25 39.25 591ZM119.25 573.75L119.25 175.5L338.5 52C342.75 49.5 348 48 353 48C357.75 48 362.75 49.5 367.5 52L587 175.5L587 573.75ZM22.25 679.25L683.75 679.25C696 679.25 706 669.25 706 657.25C706 645 696 635 683.75 635L22.25 635C10 635 0 645 0 657.25C0 669.25 10 679.25 22.25 679.25Z" fill="black" fill-opacity="0.85"/>
  <path d="M353.25 486.75C363 486.75 369.75 479.75 369.75 469.5L369.75 362.75L461.75 215.5C464.25 211.5 465.25 209.25 465.25 204.75C465.25 195.75 457.75 189.75 448.75 189.75C442.5 189.75 437.5 193 433.75 199L354 332.25L352.5 332.25L273 199C269.25 193 265 189.5 257.5 189.5C248.25 189.5 241.25 195.5 241.25 204.75C241.25 208 242.25 211.75 244.75 216L336.75 362.75L336.75 469.5C336.75 479.75 343.5 486.75 353.25 486.75ZM263.75 355.75C263.75 361.25 268 365.75 273.75 365.75L434.25 365.75C439.75 365.75 444.25 361.25 444.25 355.75C444.25 350.25 439.75 345.75 434.25 345.75L273.75 345.75C268 345.75 263.75 350.25 263.75 355.75ZM263.75 410.25C263.75 415.75 268 420.25 273.75 420.25L434.25 420.25C439.75 420.25 444.25 415.75 444.25 410.25C444.25 404.75 439.75 400.25 434.25 400.25L273.75 400.25C268 400.25 263.75 404.75 263.75 410.25Z" fill="black" fill-opacity="0.85"/>
 </g>
</svg>
