<?xml version="1.0" encoding="UTF-8"?>
<!--Generator: Apple Native CoreSVG 326-->
<!DOCTYPE svg
PUBLIC "-//W3C//DTD SVG 1.1//EN"
       "http://www.w3.org/Graphics/SVG/1.1/DTD/svg11.dtd">
<svg version="1.1" xmlns="http://www.w3.org/2000/svg" xmlns:xlink="http://www.w3.org/1999/xlink" viewBox="0 0 768.5 637.929">
 <g>
  <rect height="637.929" opacity="0" width="768.5" x="0" y="0"/>
  <path d="M768.5 382.839C768.5 181.589 613.75 16.5894 417.25 0.089388C407-0.910612 399 6.58939 399 17.0894L399 119.339C399 127.839 405.25 134.589 414 135.339C537.25 150.339 633 255.339 633 382.839C633 440.839 613.25 494.089 578.25 538.089C573.5 544.089 573.75 551.589 579 556.839L653.25 631.089C660.75 638.339 671.5 638.339 678 630.339C734.5 563.339 768.5 476.839 768.5 382.839Z" fill="black" fill-opacity="0.85"/>
  <path d="M0 382.839C0 477.089 34 563.839 90.75 630.839C97 638.339 107.5 638.339 115 631.089L189.25 556.839C194.5 551.589 194.75 544.089 190 538.089C155 494.089 135.25 440.839 135.25 382.839C135.25 255.339 231.25 150.339 354.25 135.339C363.25 134.589 369.25 127.839 369.25 119.339L369.25 17.0894C369.25 6.58939 361.5-0.910612 351.25 0.089388C154.5 16.5894 0 181.589 0 382.839Z" fill="black" fill-opacity="0.85"/>
  <path d="M384 535.589C393.75 535.589 400.5 528.589 400.5 518.339L400.5 411.589L492.5 264.339C495 260.339 496 258.339 496 253.589C496 244.589 488.5 238.589 479.5 238.589C473.25 238.589 468.25 241.839 464.5 248.089L384.75 381.089L383.25 381.089L303.75 248.089C300 241.839 295.75 238.339 288.25 238.339C279 238.339 272 244.339 272 253.589C272 256.839 273 260.839 275.5 264.839L367.5 411.589L367.5 518.339C367.5 528.589 374.25 535.589 384 535.589ZM294.5 404.589C294.5 410.339 298.75 414.589 304.5 414.589L465 414.589C470.5 414.589 475 410.339 475 404.589C475 399.089 470.5 394.589 465 394.589L304.5 394.589C298.75 394.589 294.5 399.089 294.5 404.589ZM294.5 459.089C294.5 464.589 298.75 469.089 304.5 469.089L465 469.089C470.5 469.089 475 464.589 475 459.089C475 453.589 470.5 449.089 465 449.089L304.5 449.089C298.75 449.089 294.5 453.589 294.5 459.089Z" fill="black" fill-opacity="0.85"/>
 </g>
</svg>
