<?xml version="1.0" encoding="UTF-8"?>
<!--Generator: Apple Native CoreSVG 326-->
<!DOCTYPE svg
PUBLIC "-//W3C//DTD SVG 1.1//EN"
       "http://www.w3.org/Graphics/SVG/1.1/DTD/svg11.dtd">
<svg version="1.1" xmlns="http://www.w3.org/2000/svg" xmlns:xlink="http://www.w3.org/1999/xlink" viewBox="0 0 673.5 774.25">
 <g>
  <rect height="774.25" opacity="0" width="673.5" x="0" y="0"/>
  <path d="M337.5 64C355.5 64 369.25 50.25 369.25 32C369.25 14.25 355 0 337.5 0C320 0 305.5 14.5 305.5 32C305.5 49.75 319.75 64 337.5 64ZM184.5 152C202.75 152 216.5 138.5 216.5 120C216.5 102.25 202.25 88.25 184.5 88.25C167.25 88.25 152.75 102.75 152.75 120C152.75 138 166.75 152 184.5 152ZM490.25 152C508.25 152 522 138.5 522 120C522 102.25 508 88.25 490.25 88.25C472.75 88.25 458.25 102.75 458.25 120C458.25 138 472.5 152 490.25 152ZM31.75 241.25C50 241.25 63.75 227.75 63.75 209.5C63.75 191.75 49.5 177.75 31.75 177.75C14.25 177.75 0 192 0 209.5C0 227.25 14 241.25 31.75 241.25ZM641.75 241.25C659.75 241.25 673.5 227.75 673.5 209.5C673.5 191.5 659.5 177.75 641.75 177.75C624.5 177.75 610 192.25 610 209.5C610 227.25 624 241.25 641.75 241.25ZM31.75 418.75C49.75 418.75 63.75 404.75 63.75 387C63.75 369.25 49.5 355 31.75 355C14.25 355 0 369.5 0 387C0 404.75 14 418.75 31.75 418.75ZM641.75 418.75C659.75 418.75 673.5 405 673.5 387C673.5 369 659.5 355 641.75 355C624.5 355 610 369.5 610 387C610 404.75 624 418.75 641.75 418.75ZM31.75 596.25C50 596.25 63.75 582.5 63.75 564.25C63.75 546.5 49.5 532.5 31.75 532.5C14.5 532.5 0 547 0 564.25C0 582.25 14 596.25 31.75 596.25ZM641.75 596.25C660 596.25 673.5 582.75 673.5 564.25C673.5 546.5 659.5 532.5 641.75 532.5C624.5 532.5 610 547 610 564.25C610 582 624 596.25 641.75 596.25ZM184.5 685.5C202.75 685.5 216.5 672 216.5 653.75C216.5 636 202.25 621.75 184.5 621.75C167.25 621.75 152.75 636.25 152.75 653.75C152.75 671.5 166.75 685.5 184.5 685.5ZM490.25 685.5C508.25 685.5 522 672 522 653.75C522 636 508 621.75 490.25 621.75C472.75 621.75 458.25 636.25 458.25 653.75C458.25 671.5 472.5 685.5 490.25 685.5ZM337.5 773.75C355.5 773.75 369.25 760 369.25 741.75C369.25 724 355 710 337.5 710C320 710 305.5 724.5 305.5 741.75C305.5 759.75 319.75 773.75 337.5 773.75Z" fill="black" fill-opacity="0.85"/>
  <path d="M337.5 252.75C361.75 252.75 380.75 233.75 380.75 209.5C380.75 185.75 361.25 166 337.5 166C313.75 166 294 186 294 209.5C294 233.25 313.5 252.75 337.5 252.75ZM184.5 341.5C209 341.5 228 322.25 228 298C228 274 208.5 254.5 184.5 254.5C161.25 254.5 141.25 274.5 141.25 298C141.25 322 160.5 341.5 184.5 341.5ZM490.25 341.5C514.5 341.5 533.5 322.25 533.5 298C533.5 274 514 254.5 490.25 254.5C466.75 254.5 446.75 274.5 446.75 298C446.75 322 466.25 341.5 490.25 341.5ZM184.5 519.25C208.75 519.25 228 500.25 228 476C228 452 208.5 432.5 184.5 432.5C161 432.5 141.25 452.25 141.25 476C141.25 499.75 160.75 519.25 184.5 519.25ZM490.25 519.25C514.5 519.25 533.5 500.25 533.5 476C533.5 452 514 432.5 490.25 432.5C466.5 432.5 446.75 452.25 446.75 476C446.75 499.75 466.25 519.25 490.25 519.25ZM337.5 607.75C361.75 607.75 380.75 588.5 380.75 564.25C380.75 540.5 361.25 521 337.5 521C314 521 294 541 294 564.25C294 588.25 313.5 607.75 337.5 607.75Z" fill="black" fill-opacity="0.85"/>
  <path d="M337.5 437.75C365.75 437.75 388.25 415.25 388.25 387C388.25 359 365.25 336 337.5 336C309.75 336 286.5 359.25 286.5 387C286.5 414.75 309.5 437.75 337.5 437.75Z" fill="black" fill-opacity="0.85"/>
 </g>
</svg>
