<?xml version="1.0" encoding="UTF-8"?>
<!--Generator: Apple Native CoreSVG 326-->
<!DOCTYPE svg
PUBLIC "-//W3C//DTD SVG 1.1//EN"
       "http://www.w3.org/Graphics/SVG/1.1/DTD/svg11.dtd">
<svg version="1.1" xmlns="http://www.w3.org/2000/svg" xmlns:xlink="http://www.w3.org/1999/xlink" viewBox="0 0 772 605.75">
 <g>
  <rect height="605.75" opacity="0" width="772" x="0" y="0"/>
  <path d="M159.5 605.25L581.25 605.25C688.5 605.25 772 524.25 772 420.5C772 316 686.5 237 571 237.25C528.25 151.5 451 98.5 353.5 98.5C229.25 98.5 125 196.25 113.75 324.25C49.5 342.25 4.25 395.5 4.25 464.25C4.25 542.25 61 605.25 159.5 605.25ZM159 561C89.5 561 48.5 521.75 48.5 465.5C48.5 416.75 80.5 380.75 134.75 366.25C151 362.25 156.75 355 158 338.5C165.5 227.75 251 142.75 353.5 142.75C435.5 142.75 497.25 188.75 533.5 263.5C540.5 278 548.75 282.75 566.75 282.75C666.75 282.75 727.5 345.75 727.5 421.75C727.5 499.5 664.75 561 584 561ZM45 292.25C69.5 292.25 89.25 272.5 89.25 247.5C89.25 222.75 69.5 203.25 45 203.25C19.75 203.25 0 222.75 0 247.5C0 272.5 19.75 292.25 45 292.25ZM517.25 84C540.25 84 559.25 65 559.25 42C559.25 19 540.25 0 517.25 0C494.25 0 475.25 19 475.25 42C475.25 65 494.25 84 517.25 84ZM651.75 194.5C686.25 194.5 714.25 166.75 714.25 131.75C714.25 96.75 686.25 69 651.75 69C616.5 69 588.5 96.75 588.5 131.75C588.5 166.75 616.5 194.5 651.75 194.5Z" fill="black" fill-opacity="0.85"/>
  <path d="M302.5 496.75C344.5 496.75 368.75 466 371 432.5C371.5 421.75 365 415 356 415C347.5 415 343 420 340.75 429.75C336.5 449.75 326 468 302.5 468C267.75 468 256.75 430.75 256.75 391.75C256.75 354 268.25 316.5 302.25 316.5C325.75 316.5 335.5 335 340 355C342.25 365 346.75 369.75 355.25 369.75C364.25 369.75 370.75 363 370.25 352.25C368 318.5 343.75 288 301.75 288C248.75 288 225.25 335.25 225.25 391.75C225.25 447 247 496.75 302.5 496.75ZM459 496.75C505.75 496.75 535.25 456.25 535.25 392.25C535.25 328.25 505.75 288 458.75 288C411.75 288 382 328.25 382 392.25C382 456.25 411.75 496.75 459 496.75ZM459 468C431.25 468 413.75 439.75 413.75 392.25C413.75 345 431 316.5 458.75 316.5C486.25 316.5 503.75 345 503.75 392.25C503.75 439.75 486.5 468 459 468Z" fill="black" fill-opacity="0.85"/>
 </g>
</svg>
