<?xml version="1.0" encoding="UTF-8"?>
<!--Generator: Apple Native CoreSVG 326-->
<!DOCTYPE svg
PUBLIC "-//W3C//DTD SVG 1.1//EN"
       "http://www.w3.org/Graphics/SVG/1.1/DTD/svg11.dtd">
<svg version="1.1" xmlns="http://www.w3.org/2000/svg" xmlns:xlink="http://www.w3.org/1999/xlink" viewBox="0 0 766 743.863">
 <g>
  <rect height="743.863" opacity="0" width="766" x="0" y="0"/>
  <path d="M544.75 734.556L588.75 658.056C594.25 649.056 591.5 639.306 583 634.306C574.5 629.556 565 632.306 559.5 641.056L515 718.056C510.25 726.556 512.5 736.306 521.25 741.306C529.75 746.056 539.75 743.306 544.75 734.556Z" fill="black" fill-opacity="0.85"/>
  <path d="M443.25 643.806L487.5 567.306C493 558.556 490.25 548.556 481.75 543.556C473.25 538.806 463.5 541.556 458.25 550.306L413.75 627.556C409 635.806 411.25 645.556 420 650.556C428.25 655.306 438.5 652.556 443.25 643.806Z" fill="black" fill-opacity="0.85"/>
  <path d="M288 734.806L332.25 658.306C337.5 649.306 334.75 639.556 326.25 634.556C317.75 629.806 308.25 632.556 303 641.306L258.5 718.306C253.5 726.806 255.75 736.556 264.5 741.556C273 746.306 283 743.556 288 734.806Z" fill="black" fill-opacity="0.85"/>
  <path d="M186.75 644.056L231 567.556C236.25 558.806 233.5 548.806 225 543.806C216.5 539.056 207 541.806 201.5 550.806L157.25 627.806C152.25 636.056 154.5 646.056 163.25 651.056C171.75 655.556 181.75 652.806 186.75 644.056Z" fill="black" fill-opacity="0.85"/>
  <path d="M181.75 491.806L583.5 491.806C687.75 491.806 766 412.806 766 314.806C766 213.556 683 139.556 575 139.556C534.5 59.0563 461 7.0563 366.5 7.0563C246.5 7.0563 147.75 102.306 137.25 222.056C78.25 238.806 33 288.556 33 356.556C33 431.056 87.5 491.806 181.75 491.806Z" fill="black" fill-opacity="0.85"/>
 </g>
</svg>
