<?xml version="1.0" encoding="UTF-8"?>
<!--Generator: Apple Native CoreSVG 326-->
<!DOCTYPE svg
PUBLIC "-//W3C//DTD SVG 1.1//EN"
       "http://www.w3.org/Graphics/SVG/1.1/DTD/svg11.dtd">
<svg version="1.1" xmlns="http://www.w3.org/2000/svg" xmlns:xlink="http://www.w3.org/1999/xlink" viewBox="0 0 876.75 595.75">
 <g>
  <rect height="595.75" opacity="0" width="876.75" x="0" y="0"/>
  <path d="M671 37.25C671 52.5 649.5 83.25 649.5 125.25C649.5 202.25 697 247.5 779 247.5C822.25 247.5 848 228.5 862 228.5C871.5 228.5 876.75 236.5 876.75 247.5C876.75 293.241 824.449 382.318 716.363 395.41C712.548 297.867 636.437 224.23 535 214.5C526.331 200.479 516.666 187.588 506.107 175.915C520.357 90.6086 589.851 26.2596 652 22.25C664.5 21.5 671 27.5 671 37.25Z" fill="black" fill-opacity="0.85"/>
  <path d="M169.75 559L520 559C610 559 679.75 491 679.75 403.5C679.75 316.25 608.5 250.5 513.25 250.25C475 176.75 408.75 135 330.75 135C227.25 135 139.5 216.5 130.25 322.25C74.5 338.25 39 384 39 440C39 510.5 92.25 559 169.75 559Z" fill="black" fill-opacity="0.85"/>
 </g>
</svg>
