<?xml version="1.0" encoding="UTF-8"?>
<!--Generator: Apple Native CoreSVG 326-->
<!DOCTYPE svg
PUBLIC "-//W3C//DTD SVG 1.1//EN"
       "http://www.w3.org/Graphics/SVG/1.1/DTD/svg11.dtd">
<svg version="1.1" xmlns="http://www.w3.org/2000/svg" xmlns:xlink="http://www.w3.org/1999/xlink" viewBox="0 0 996.5 904.25">
 <g>
  <rect height="904.25" opacity="0" width="996.5" x="0" y="0"/>
  <path d="M588.75 791.75C597.25 796.75 600 806.5 594.75 815.25L550.5 892C545.5 900.5 535.5 903.5 527 898.75C518.25 893.75 516 883.75 521 875.5L565.25 798.5C570.75 789.5 580.25 786.75 588.75 791.75Z" fill="black" fill-opacity="0.85"/>
  <path d="M487.5 701C496 706 498.75 715.75 493.25 724.75L449.25 801.25C444.25 809.75 434.25 812.75 425.75 808C417 803 414.75 793.25 419.75 784.75L464 707.75C469.5 698.75 479 696 487.5 701Z" fill="black" fill-opacity="0.85"/>
  <path d="M332 792C340.5 797 343.25 806.75 338 815.5L293.75 892.25C288.75 900.75 278.75 903.75 270.25 899C261.75 894 259.25 884 264.25 875.75L308.75 798.75C314 789.75 323.5 787 332 792Z" fill="black" fill-opacity="0.85"/>
  <path d="M230.75 701.25C239.25 706.25 242 716 236.75 725L192.5 801.5C187.5 810 177.5 813 169 808.25C160.5 803.25 158 793.5 163 785L207.5 708C212.75 699 222.25 696.25 230.75 701.25Z" fill="black" fill-opacity="0.85"/>
  <path d="M846.5 480.75L900 534.5C909 543.25 908.75 557.75 900 566.25C891.25 574.75 877 575.25 868.25 566.5L814.5 512.75C805.75 504 805.75 489.5 814.5 480.75C823.25 472.5 837.75 472.5 846.5 480.75ZM822.75 331.75C822.75 389.966 790.477 441.275 743.007 468.496C733.136 377.855 659.171 310.061 562.75 301C552.503 284.407 540.723 269.251 527.517 255.833C554.476 207.208 606.367 174 665.25 174C751.5 174 822.75 245.25 822.75 331.75ZM996.5 331.75C996.5 344.25 986.5 354.5 974 354.5L898.75 354.5C886.5 354.5 876 344.25 876 331.75C876 319.75 886.5 309.25 898.75 309.25L974 309.25C986.5 309.25 996.5 319.75 996.5 331.75ZM900 97.25C908.75 106 909 120.5 900 129.5L846.75 182.75C837.75 191.75 823.25 191.5 814.5 182.75C805.75 174 805.75 159.5 814.5 151L868.25 97.25C877 88.25 891.25 88.5 900 97.25ZM462.75 97.25L516.25 151C524.75 159.25 524.75 174.25 516 182.75C507.5 191.5 492.75 191.5 484.25 182.75L430.75 129.25C422.25 120.5 422.25 106 431 97.25C439.75 88.5 454.25 88.5 462.75 97.25ZM688.25 22.5L688.25 98C688.25 110 677.75 120.25 665.5 120.25C653.25 120.25 642.75 110 642.75 98L642.75 22.5C642.75 10.25 653.25 0 665.5 0C677.75 0 688.25 10.25 688.25 22.5Z" fill="black" fill-opacity="0.85"/>
  <path d="M198 646.25L548.25 646.25C639 646.25 709.5 577.5 709.5 489.5C709.5 401.75 637.75 335.75 542.25 335C505.25 264 439.75 219.75 359 219.75C254.75 219.75 167.25 301.75 157.5 407.5C103.75 423 66 468 66 526.25C66 595.5 118 646.25 198 646.25Z" fill="black" fill-opacity="0.85"/>
 </g>
</svg>
