<?xml version="1.0" encoding="UTF-8"?>
<!--Generator: Apple Native CoreSVG 326-->
<!DOCTYPE svg
PUBLIC "-//W3C//DTD SVG 1.1//EN"
       "http://www.w3.org/Graphics/SVG/1.1/DTD/svg11.dtd">
<svg version="1.1" xmlns="http://www.w3.org/2000/svg" xmlns:xlink="http://www.w3.org/1999/xlink" viewBox="0 0 651.25 651.75">
 <g>
  <rect height="651.75" opacity="0" width="651.25" x="0" y="0"/>
  <path d="M325.5 651.25C505.25 651.25 651.25 505.5 651.25 325.75C651.25 146 505.25 0 325.5 0C145.75 0 0 146 0 325.75C0 505.5 145.75 651.25 325.5 651.25ZM325.5 604.75C171.25 604.75 46.5 480 46.5 325.75C46.5 171.5 171.25 46.75 325.5 46.75C479.75 46.75 604.5 171.5 604.5 325.75C604.5 480 479.75 604.75 325.5 604.75Z" fill="black" fill-opacity="0.85"/>
  <path d="M184 404L348.25 404C392 404 425.75 370.5 425.75 327.75C425.75 286 392 254 346.75 252.75C329 219.75 298 198.75 259.5 198.75C210 198.75 168.25 237.75 162.75 287.25C137.75 295.5 119.75 317 119.75 345.25C119.75 378.5 145.25 404 184 404ZM195.25 476L215.25 441.75C218.5 436.5 216.5 430 210.75 426.75C206 423.75 199.25 425.75 196.25 430.75L176.5 465C173.5 470 175 477 180.5 479.75C185.75 482.75 192.25 481 195.25 476ZM236.25 508.25L254 477C257 472 255.5 465 249.75 462C244.5 459.25 238 461 235 466.25L216.75 497.25C213.5 502.5 215.75 509.25 221.5 512.25C226.25 515.25 233.25 513.25 236.25 508.25ZM299.25 475.75L319 442C322.25 436.5 320 430.25 314.75 427C309.5 423.75 302.75 425.5 299.75 430.75L280.25 464.75C277.25 470 278.5 477 284.25 480C289.75 482.75 296.25 481 299.25 475.75ZM339.75 508.25L358 477.25C360.75 472 359.25 465 353.5 462.25C348.25 459.5 342 461 338.75 466.5L320.5 497.25C317.5 502.75 319.5 509.5 325.25 512.25C330.25 515.5 336.75 513.5 339.75 508.25ZM533 246C533 240.5 530.5 237 526.25 237C519.5 237 506.25 245.75 486.5 245.75C447 245.75 422.25 222.25 422.25 186C422.25 165.75 432.75 151 432.75 143.5C432.75 139 429 136.25 423.25 136.5C389.75 139 354.75 177.25 350.5 221.25C353.75 224.75 356.25 228.75 359 232.5C407 238.25 442.75 273.25 446.75 319.25C502.75 312.75 533 271 533 246Z" fill="black" fill-opacity="0.85"/>
 </g>
</svg>
