<?xml version="1.0" encoding="UTF-8"?>
<!--Generator: Apple Native CoreSVG 326-->
<!DOCTYPE svg
PUBLIC "-//W3C//DTD SVG 1.1//EN"
       "http://www.w3.org/Graphics/SVG/1.1/DTD/svg11.dtd">
<svg version="1.1" xmlns="http://www.w3.org/2000/svg" xmlns:xlink="http://www.w3.org/1999/xlink" viewBox="0 0 881.051 558.436">
 <g>
  <rect height="558.436" opacity="0" width="881.051" x="0" y="0"/>
  <path d="M666.65 28.8431C666.65 46.0931 654.15 64.5931 654.15 103.843C654.15 180.093 699.4 226.343 782.15 226.343C817.9 226.343 835.4 216.843 853.4 216.843C874.9 216.843 886.65 236.343 878.4 258.093C859.523 315.966 793.512 384.945 686.205 385.761C686.013 371.431 683.792 357.744 679.791 344.888C681.196 345.074 682.669 345.093 684.15 345.093C763.15 345.093 819.65 298.093 837.65 257.593L835.65 255.593C819.4 261.343 796.65 265.343 773.4 265.343C679.9 265.343 614.4 204.093 614.4 111.593C614.4 84.8431 619.9 62.3431 625.9 46.8431L623.15 44.5931C580.65 63.8431 534.9 112.093 534.9 186.593C534.9 203.652 536.978 219.786 540.951 234.735C533.647 233.679 526.1 233.174 518.4 233.093C511.627 220.269 503.923 208.309 495.341 197.353C494.97 194.182 494.9 190.899 494.9 187.593C494.9 89.8431 558.9 21.3431 621.9 2.59312C646.9-5.40688 666.65 5.59312 666.65 28.8431Z" fill="black" fill-opacity="0.85"/>
  <path d="M172.9 547.843L523.15 547.843C614.9 547.843 686.4 478.593 686.4 389.593C686.4 300.843 614.15 234.093 518.4 233.093C480.9 162.093 414.9 117.593 334.15 117.593C228.65 117.593 140.9 200.343 130.65 306.093C76.9003 322.093 39.1503 367.343 39.1503 426.093C39.1503 496.093 91.9003 547.843 172.9 547.843ZM171.9 504.093C114.15 504.093 82.9003 470.093 82.9003 427.093C82.9003 390.093 105.9 358.593 153.9 345.343C167.9 341.593 172.9 335.593 174.15 321.343C181.4 229.593 251.4 161.593 334.15 161.593C400.9 161.593 450.9 199.093 481.15 259.343C487.4 271.843 494.65 276.093 509.4 276.093C592.15 276.093 642.4 327.843 642.4 390.843C642.4 453.593 590.9 504.093 523.9 504.093Z" fill="black" fill-opacity="0.85"/>
 </g>
</svg>
