<?xml version="1.0" encoding="UTF-8"?>
<!--Generator: Apple Native CoreSVG 326-->
<!DOCTYPE svg
PUBLIC "-//W3C//DTD SVG 1.1//EN"
       "http://www.w3.org/Graphics/SVG/1.1/DTD/svg11.dtd">
<svg version="1.1" xmlns="http://www.w3.org/2000/svg" xmlns:xlink="http://www.w3.org/1999/xlink" viewBox="0 0 766 805.25">
 <g>
  <rect height="805.25" opacity="0" width="766" x="0" y="0"/>
  <path d="M490.25 805.25C496.25 805.25 500 800 499.75 794L497.75 762.5L524.25 780C529 783.25 535.75 782 538.75 777.25C541.75 772.5 539.75 765.75 534 762.75L505.75 748.75L534.25 734.5C539.75 731.5 541.5 725 539 720.25C536.25 715.25 529 714.5 524.25 717.5L497.75 735.5L500 703.5C500.5 697.5 496.25 692.5 490.25 692.5C484 692.5 480.25 697.5 480.5 703.5L482.25 735.5L455.75 717.5C451 714.5 444.5 715 441.5 720.25C438.75 725 440.25 731.5 446 734.5L474.25 748.75L446 763C440 766 438.25 772.25 441 777.25C444 782.5 451 783.25 455.75 780.25L482.25 762.75L480.75 794C480.5 800 484 805.25 490.25 805.25Z" fill="black" fill-opacity="0.85"/>
  <path d="M311.75 805.25C317.5 805.25 321.25 800 321 794L319.25 762.5L345.5 780C350.25 783.25 357 782 360.25 777.25C363 772.5 361.25 765.75 355.25 762.75L327 748.75L355.5 734.5C361.25 731.5 362.75 725 360.5 720.25C357.5 715.25 350.25 714.5 345.5 717.5L319.25 735.5L321.25 703.5C321.75 697.5 317.5 692.5 311.75 692.5C305.25 692.5 301.5 697.5 301.75 703.5L303.75 735.5L277 717.5C272.25 714.5 265.75 715 262.75 720.25C260 725 261.5 731.5 267.25 734.5L295.75 748.75L267.25 763C261.5 766 259.75 772.25 262.5 777.25C265.25 782.5 272.25 783.25 277 780.25L303.75 762.75L302 794C301.75 800 305.25 805.25 311.75 805.25Z" fill="black" fill-opacity="0.85"/>
  <path d="M133 805.25C138.75 805.25 142.5 800 142.25 794L140.5 762.5L167 780C171.5 783.25 178.25 782 181.5 777.25C184.5 772.5 182.5 765.75 176.5 762.75L148.25 748.75L176.75 734.5C182.5 731.5 184.25 725 181.75 720.25C178.75 715.25 171.5 714.5 167 717.5L140.5 735.5L142.5 703.5C143 697.5 138.75 692.5 133 692.5C126.5 692.5 122.75 697.5 123 703.5L125 735.5L98.25 717.5C93.5 714.5 87 715 84 720.25C81.25 725 82.75 731.5 88.75 734.5L117 748.75L88.75 763C82.75 766 81 772.25 83.75 777.25C86.5 782.5 93.5 783.25 98.25 780.25L125 762.75L123.25 794C123 800 126.5 805.25 133 805.25Z" fill="black" fill-opacity="0.85"/>
  <path d="M560.25 684.25C566.25 684.25 570 679 569.75 673L567.75 641.5L594.25 659C599 662 605.75 661 608.75 656.25C611.75 651.5 609.75 644.75 604 641.75L575.75 627.75L604.25 613.25C609.75 610.5 611.5 604 609 599C606.25 594 599 593.25 594.25 596.5L567.75 614.25L570 582.5C570.5 576.5 566.25 571.25 560.25 571.25C554 571.25 550.25 576.5 550.5 582.5L552.25 614.25L525.75 596.5C521 593.25 514.5 593.75 511.5 599C508.75 604 510.25 610.25 516 613.25L544.25 627.75L516 642C510 644.75 508.25 651.25 511 656.25C514 661.5 521 662.25 525.75 659L552.25 641.75L550.75 673C550.5 679 554 684.25 560.25 684.25Z" fill="black" fill-opacity="0.85"/>
  <path d="M381.75 684.25C387.5 684.25 391.25 679 391 673L389.25 641.5L415.5 659C420.25 662 427 661 430.25 656.25C433 651.5 431.25 644.75 425.25 641.75L397 627.75L425.5 613.25C431.25 610.5 432.75 604 430.5 599C427.5 594 420.25 593.25 415.5 596.5L389.25 614.25L391.25 582.5C391.75 576.5 387.5 571.25 381.75 571.25C375.25 571.25 371.5 576.5 371.75 582.5L373.75 614.25L347 596.5C342.25 593.25 335.75 593.75 332.75 599C330 604 331.5 610.25 337.25 613.25L365.5 627.75L337.25 642C331.5 644.75 329.75 651.25 332.5 656.25C335.25 661.5 342.25 662.25 347 659L373.75 641.75L372 673C371.75 679 375.25 684.25 381.75 684.25Z" fill="black" fill-opacity="0.85"/>
  <path d="M203 684.25C208.75 684.25 212.5 679 212.25 673L210.5 641.5L237 659C241.5 662 248.25 661 251.5 656.25C254.5 651.5 252.5 644.75 246.5 641.75L218.25 627.75L246.75 613.25C252.5 610.5 254.25 604 251.75 599C248.75 594 241.5 593.25 237 596.5L210.5 614.25L212.5 582.5C213 576.5 208.75 571.25 203 571.25C196.5 571.25 192.75 576.5 193 582.5L195 614.25L168.25 596.5C163.5 593.25 157 593.75 154 599C151.25 604 152.75 610.25 158.75 613.25L187 627.75L158.75 642C152.75 644.75 151 651.25 153.75 656.25C156.5 661.5 163.5 662.25 168.25 659L195 641.75L193.25 673C193 679 196.5 684.25 203 684.25Z" fill="black" fill-opacity="0.85"/>
  <path d="M181.75 522.5L583.5 522.5C687.75 522.5 766 443.5 766 345.5C766 244.25 683 170.25 575 170.25C534.5 89.75 461 37.75 366.5 37.75C246.5 37.75 147.75 133 137.25 252.75C78.25 269.5 33 319.25 33 387.25C33 461.75 87.5 522.5 181.75 522.5Z" fill="black" fill-opacity="0.85"/>
 </g>
</svg>
