<?xml version="1.0" encoding="UTF-8"?>
<!--Generator: Apple Native CoreSVG 326-->
<!DOCTYPE svg
PUBLIC "-//W3C//DTD SVG 1.1//EN"
       "http://www.w3.org/Graphics/SVG/1.1/DTD/svg11.dtd">
<svg version="1.1" xmlns="http://www.w3.org/2000/svg" xmlns:xlink="http://www.w3.org/1999/xlink" viewBox="0 0 651.25 651.75">
 <g>
  <rect height="651.75" opacity="0" width="651.25" x="0" y="0"/>
  <path d="M325.5 651.25C505.25 651.25 651.25 505.5 651.25 325.75C651.25 146 505.25 0 325.5 0C145.75 0 0 146 0 325.75C0 505.5 145.75 651.25 325.5 651.25ZM325.5 604.75C171.25 604.75 46.5 480 46.5 325.75C46.5 171.5 171.25 46.75 325.5 46.75C479.75 46.75 604.5 171.5 604.5 325.75C604.5 480 479.75 604.75 325.5 604.75Z" fill="black" fill-opacity="0.85"/>
  <path d="M184 404L348.25 404C392 404 425.75 370.5 425.75 327.75C425.75 286 392 254 346.75 252.75C329 219.75 298 198.75 259.5 198.75C210 198.75 168.25 237.75 162.75 287.25C137.75 295.5 119.75 317 119.75 345.25C119.75 378.5 145.25 404 184 404ZM533 246C533 240.5 530.5 237 526.25 237C519.5 237 506.25 245.75 486.5 245.75C447 245.75 422.25 222.25 422.25 186C422.25 165.75 432.75 151 432.75 143.5C432.75 139 429 136.25 423.25 136.5C389.75 139 354.75 177.25 350.5 221.25C353.75 224.75 356.25 228.75 359 232.5C407 238.25 442.75 273.25 446.75 319.25C502.75 312.75 533 271 533 246ZM231.25 476.75C229.25 481.25 231.5 484.5 236.25 484.5L261.75 484.5L240.5 536.75C238.5 541.5 244.5 544.25 247.75 540.25L313 469C316.5 464.75 314.75 460 309.5 460L279 460L295.25 429C297.5 425 295.75 421.75 291.5 421.75L261.75 421.75C256.75 421.75 254.75 423.5 253 427.25Z" fill="black" fill-opacity="0.85"/>
 </g>
</svg>
