<?xml version="1.0" encoding="UTF-8"?>
<!--Generator: Apple Native CoreSVG 326-->
<!DOCTYPE svg
PUBLIC "-//W3C//DTD SVG 1.1//EN"
       "http://www.w3.org/Graphics/SVG/1.1/DTD/svg11.dtd">
<svg version="1.1" xmlns="http://www.w3.org/2000/svg" xmlns:xlink="http://www.w3.org/1999/xlink" viewBox="0 0 651.25 651.75">
 <g>
  <rect height="651.75" opacity="0" width="651.25" x="0" y="0"/>
  <path d="M325.5 651.25C505.25 651.25 651.25 505.5 651.25 325.75C651.25 146 505.25 0 325.5 0C145.75 0 0 146 0 325.75C0 505.5 145.75 651.25 325.5 651.25ZM325.5 604.75C171.25 604.75 46.5 480 46.5 325.75C46.5 171.5 171.25 46.75 325.5 46.75C479.75 46.75 604.5 171.5 604.5 325.75C604.5 480 479.75 604.75 325.5 604.75Z" fill="black" fill-opacity="0.85"/>
  <path d="M220.25 357.5L414.75 357.5C464.75 357.5 503.25 319.25 503.25 271.75C503.25 222.75 462.75 187 410.5 187C390.75 148 355.5 122.5 309.75 122.5C251.5 122.5 203.75 168.75 198.5 227C170 235 148 259 148 292C148 328 174.25 357.5 220.25 357.5ZM276 449.25C273.5 454.25 276 458.25 281.75 458.25L312.5 458.25L286.5 522C285 525.25 286 527.75 288.25 529C290 529.25 292.75 529 295 526.25L374 439.75C378 434.75 376.25 429 369.75 429L333.25 429L353.25 390.75C355.5 386 353.75 382.25 348.75 382.25L312.5 382.25C306.75 382.25 304.25 384.25 302.25 388.5Z" fill="black" fill-opacity="0.85"/>
 </g>
</svg>
