<?xml version="1.0" encoding="UTF-8"?>
<!--Generator: Apple Native CoreSVG 326-->
<!DOCTYPE svg
PUBLIC "-//W3C//DTD SVG 1.1//EN"
       "http://www.w3.org/Graphics/SVG/1.1/DTD/svg11.dtd">
<svg version="1.1" xmlns="http://www.w3.org/2000/svg" xmlns:xlink="http://www.w3.org/1999/xlink" viewBox="0 0 651.25 651.75">
 <g>
  <rect height="651.75" opacity="0" width="651.25" x="0" y="0"/>
  <path d="M651.25 326C651.25 505.5 505 651.75 325.5 651.75C146.25 651.75 0 505.5 0 326C0 146.75 146.25 0.5 325.5 0.5C505 0.5 651.25 146.75 651.25 326ZM283.75 458.5L258.75 501.75C254.75 508.25 257 516.75 263.75 520.5C270.25 524.5 278.5 522 282.25 515.5L307.25 472.5C311.25 465.75 309 457.25 302.25 453.5C295.75 449.75 287.5 452.25 283.75 458.5ZM424.75 458.5L399.75 501.75C396 508.25 398.25 516.75 404.75 520.5C411.25 524.5 419.75 522 423.25 515.5L448.5 472.5C452 465.75 450 457.25 443.25 453.5C436.75 449.75 428.25 452.25 424.75 458.5ZM227.75 409.25L202.75 452.25C199 458.75 201.25 467.25 208.25 471.25C214.5 474.75 222.75 472.5 226.5 466L251.5 422.75C255.5 416.5 253.25 408 246.5 404C240 400.5 231.75 402.75 227.75 409.25ZM369 409L344 452C340 458.5 342 467 349 471C355.5 474.5 363.75 472.25 367.5 465.75L392.5 422.5C396.5 416.25 394.25 407.75 387.5 403.75C381 400.25 372.75 402.5 369 409ZM195.5 236.25C166.5 244.5 144 269.25 144 302.75C144 339.5 171 370 218 370L417 370C468.25 370 507.75 330.75 507.75 282C507.75 231.75 466.25 195.25 412.75 195.25C392.75 155.5 356.5 129.5 309.5 129.5C250 129.5 201 176.75 195.5 236.25Z" fill="black" fill-opacity="0.85"/>
 </g>
</svg>
