<?xml version="1.0" encoding="UTF-8"?>
<!--Generator: Apple Native CoreSVG 326-->
<!DOCTYPE svg
PUBLIC "-//W3C//DTD SVG 1.1//EN"
       "http://www.w3.org/Graphics/SVG/1.1/DTD/svg11.dtd">
<svg version="1.1" xmlns="http://www.w3.org/2000/svg" xmlns:xlink="http://www.w3.org/1999/xlink" viewBox="0 0 651.25 651.75">
 <g>
  <rect height="651.75" opacity="0" width="651.25" x="0" y="0"/>
  <path d="M651.25 326C651.25 505.5 505 651.75 325.5 651.75C146.25 651.75 0 505.5 0 326C0 146.75 146.25 0.5 325.5 0.5C505 0.5 651.25 146.75 651.25 326ZM290.5 409L236 502.75C232.25 509.5 234.25 518 241.25 521.75C247.75 525.5 256 523 259.75 516.75L314.25 422.5C318 416 316 407.75 309 403.75C302.75 400.25 294.5 402.25 290.5 409ZM440.75 409L386.25 502.75C382.5 509.5 384.75 518 391.5 521.75C397.75 525.5 406 523 410 516.75L464.5 422.5C468.25 416 466.25 407.75 459.25 403.75C452.75 400.25 444.5 402.25 440.75 409ZM215.5 409L190.5 452C186.5 458.5 188.75 467 195.5 470.75C202 474.5 210.25 472.25 214.25 465.75L239.25 422.5C243 416.25 240.75 407.75 233.75 403.75C227.25 400.25 219 402.5 215.5 409ZM365.75 409L340.75 452C336.75 458.5 338.75 467 345.75 470.75C352.25 474.5 360.5 472.25 364.25 465.75L389.25 422.5C393.25 416.25 391 407.75 384.25 403.75C377.75 400.25 369.5 402.5 365.75 409ZM195.25 236.25C166.25 244.5 143.75 269.25 143.75 302.75C143.75 339.5 170.75 370 217.75 370L416.75 370C468 370 507.5 330.5 507.5 282C507.5 231.75 466 195 412.5 195C392.5 155.5 356.25 129.25 309.25 129.25C249.75 129.25 200.75 176.75 195.25 236.25Z" fill="black" fill-opacity="0.85"/>
 </g>
</svg>
