<?xml version="1.0" encoding="UTF-8"?>
<!--Generator: Apple Native CoreSVG 326-->
<!DOCTYPE svg
PUBLIC "-//W3C//DTD SVG 1.1//EN"
       "http://www.w3.org/Graphics/SVG/1.1/DTD/svg11.dtd">
<svg version="1.1" xmlns="http://www.w3.org/2000/svg" xmlns:xlink="http://www.w3.org/1999/xlink" viewBox="0 0 889.301 836.771">
 <g>
  <rect height="836.771" opacity="0" width="889.301" x="0" y="0"/>
  <path d="M410.9 625.761L380.002 684.261L441.15 684.261C450.15 684.261 452.65 692.511 446.65 699.511L322.4 832.761C319.4 836.511 315.65 837.511 312.65 836.261C309.65 835.011 308.65 831.511 310.4 827.011L351.477 728.511L300.15 728.511C292.15 728.511 288.4 723.761 291.65 715.761L332.4 623.261C335.15 616.761 338.15 613.511 347.15 613.511L404.65 613.511C411.9 613.511 414.65 618.761 410.9 625.761Z" fill="black" fill-opacity="0.85"/>
  <path d="M674.9 48.5106C674.9 65.7606 662.4 84.2606 662.4 123.511C662.4 200.011 707.65 246.011 790.4 246.011C826.15 246.011 843.65 236.511 861.65 236.511C883.15 236.511 894.9 256.011 886.65 278.011C867.773 335.635 801.762 404.612 694.455 405.428C694.263 391.098 692.042 377.412 688.041 364.555C689.446 364.742 690.919 364.761 692.4 364.761C771.4 364.761 827.9 317.761 845.9 277.261L843.9 275.261C827.65 281.011 804.9 285.011 781.65 285.011C688.15 285.011 622.65 223.761 622.65 131.261C622.65 104.511 628.15 82.0106 634.15 66.5106L631.4 64.2606C588.9 83.5106 543.15 131.761 543.15 206.261C543.15 223.319 545.228 239.453 549.201 254.403C541.897 253.347 534.35 252.841 526.65 252.761C519.877 239.937 512.174 227.985 503.592 217.044C503.22 213.865 503.15 210.575 503.15 207.261C503.15 109.511 567.15 41.0106 630.15 22.2606C655.15 14.2606 674.9 25.5106 674.9 48.5106Z" fill="black" fill-opacity="0.85"/>
  <path d="M181.15 567.511L531.4 567.511C623.15 567.511 694.65 498.261 694.65 409.261C694.65 320.511 622.4 253.761 526.65 252.761C489.15 181.761 423.15 137.511 342.4 137.511C236.9 137.511 149.15 220.011 138.9 325.761C85.1503 341.761 47.4003 387.011 47.4003 445.761C47.4003 515.761 100.15 567.511 181.15 567.511ZM180.15 523.761C122.4 523.761 91.1503 489.761 91.1503 447.011C91.1503 409.761 114.15 378.261 162.15 365.011C176.15 361.261 181.15 355.261 182.4 341.011C189.65 249.511 259.65 181.261 342.4 181.261C409.15 181.261 459.15 218.761 489.4 279.011C495.65 291.511 502.9 295.761 517.65 295.761C600.4 295.761 650.65 347.761 650.65 410.511C650.65 473.261 599.15 523.761 532.15 523.761Z" fill="black" fill-opacity="0.85"/>
 </g>
</svg>
