<?xml version="1.0" encoding="UTF-8"?>
<!--Generator: Apple Native CoreSVG 326-->
<!DOCTYPE svg
PUBLIC "-//W3C//DTD SVG 1.1//EN"
       "http://www.w3.org/Graphics/SVG/1.1/DTD/svg11.dtd">
<svg version="1.1" xmlns="http://www.w3.org/2000/svg" xmlns:xlink="http://www.w3.org/1999/xlink" viewBox="0 0 651.25 651.75">
 <g>
  <rect height="651.75" opacity="0" width="651.25" x="0" y="0"/>
  <path d="M651.25 326C651.25 505.5 505 651.75 325.5 651.75C146.25 651.75 0 505.5 0 326C0 146.75 146.25 0.5 325.5 0.5C505 0.5 651.25 146.75 651.25 326ZM260 424.25C254.75 424.25 252.75 425.75 251 429.5L228.75 480.5C226.75 484.75 229 488.5 233.75 488.5L260 488.5L238.25 541.75C236.25 546.75 242.25 549.5 245.75 545.5L312.75 472.5C316.5 468.25 314.75 463.25 309.25 463.25L278 463.25L294.5 431.75C296.75 427.5 295 424.25 290.75 424.25ZM158.75 286.5C133.25 295 115 316.75 115 345.75C115 380 141 405.75 180.75 405.75L348.75 405.75C393.5 405.75 428.25 371.75 428.25 328C428.25 285 393.5 252.25 347.25 251.25C329 217.25 297.25 195.75 258 195.75C207.25 195.75 164.5 235.75 158.75 286.5ZM425.5 132C391.5 134.5 355.5 173.75 351 218.75C354.25 222.5 357 226.5 359.75 230.5C409 236.25 445.5 272.25 449.5 319C506.75 312.75 537.75 270 537.75 244C537.75 238.5 535.25 235 531 235C524 235 510.75 244 490.25 244C450 244 424.5 220 424.5 183C424.5 162.25 435.25 146.75 435.25 139.25C435.25 134.5 431.5 131.75 425.5 132Z" fill="black" fill-opacity="0.85"/>
 </g>
</svg>
