<?xml version="1.0" encoding="UTF-8"?>
<!--Generator: Apple Native CoreSVG 326-->
<!DOCTYPE svg
PUBLIC "-//W3C//DTD SVG 1.1//EN"
       "http://www.w3.org/Graphics/SVG/1.1/DTD/svg11.dtd">
<svg version="1.1" xmlns="http://www.w3.org/2000/svg" xmlns:xlink="http://www.w3.org/1999/xlink" viewBox="0 0 707 583.25">
 <g>
  <rect height="583.25" opacity="0" width="707" x="0" y="0"/>
  <path d="M493.5 583.25C598.5 583.25 674.25 530 701.5 450.5C704.75 440.75 706.5 431 707 421.25C707 407 698 396.75 683 396.75C668.75 396.75 661.5 405 657 419.25C640.75 488.75 576.75 535.75 493.75 535.75C378 535.75 304.5 440.5 304.5 289.75C304.5 141.75 378 49 493.5 49C573 49 637 99.75 653.75 168.75C658.5 184.5 665.5 191 679.5 191C694.25 191 703.75 181 703.5 166.25C703 157 701.5 148.25 698.5 139.75C670 55.5 589.75 1.25 493.5 1.25C345.25 1.25 250.25 113 250.25 289.75C250.25 469.25 345 583.25 493.5 583.25ZM94.25 223C147 223 188.5 181.5 188.5 128.5C188.5 75.75 147 34.25 94.25 34.25C41.5 34.25 0 75.75 0 128.5C0 181.5 41.5 223 94.25 223ZM94.25 183.75C63.5 183.75 39.25 159.5 39.25 128.5C39.25 97.75 63.5 73.5 94.25 73.5C125 73.5 149.25 97.75 149.25 128.5C149.25 159.5 125 183.75 94.25 183.75Z" fill="black" fill-opacity="0.85"/>
 </g>
</svg>
