<?xml version="1.0" encoding="UTF-8"?>
<!--Generator: Apple Native CoreSVG 326-->
<!DOCTYPE svg
PUBLIC "-//W3C//DTD SVG 1.1//EN"
       "http://www.w3.org/Graphics/SVG/1.1/DTD/svg11.dtd">
<svg version="1.1" xmlns="http://www.w3.org/2000/svg" xmlns:xlink="http://www.w3.org/1999/xlink" viewBox="0 0 609.5 580.75">
 <g>
  <rect height="580.75" opacity="0" width="609.5" x="0" y="0"/>
  <path d="M302 579.75C317.75 579.75 329 568 329 552L329 305L561 305C575.5 305 585.75 294.75 585.75 280.75C585.75 266.75 575.5 256.75 561 256.75L329 256.75L329 49L584.5 49C599 49 609.5 39 609.5 24.75C609.5 10.25 599 0 584.5 0L302 0C285.25 0 274.5 11.5 274.5 28.25L274.5 552C274.5 567.75 285.25 579.75 302 579.75ZM94.25 221.75C147 221.75 188.5 180.25 188.5 127.25C188.5 74.5 147 33 94.25 33C41.5 33 0 74.5 0 127.25C0 180.25 41.5 221.75 94.25 221.75ZM94.25 182.5C63.5 182.5 39.25 158.25 39.25 127.25C39.25 96.5 63.5 72.25 94.25 72.25C125 72.25 149.25 96.5 149.25 127.25C149.25 158.25 125 182.5 94.25 182.5Z" fill="black" fill-opacity="0.85"/>
 </g>
</svg>
