<?xml version="1.0" encoding="UTF-8"?>
<!--Generator: Apple Native CoreSVG 326-->
<!DOCTYPE svg
PUBLIC "-//W3C//DTD SVG 1.1//EN"
       "http://www.w3.org/Graphics/SVG/1.1/DTD/svg11.dtd">
<svg version="1.1" xmlns="http://www.w3.org/2000/svg" xmlns:xlink="http://www.w3.org/1999/xlink" viewBox="0 0 651.25 651.75">
 <g>
  <rect height="651.75" opacity="0" width="651.25" x="0" y="0"/>
  <path d="M325.5 651.25C505.25 651.25 651.25 505.5 651.25 325.75C651.25 146 505.25 0 325.5 0C145.75 0 0 146 0 325.75C0 505.5 145.75 651.25 325.5 651.25ZM325.5 604.75C171.25 604.75 46.5 480 46.5 325.75C46.5 171.5 171.25 46.75 325.5 46.75C479.75 46.75 604.5 171.5 604.5 325.75C604.5 480 479.75 604.75 325.5 604.75Z" fill="black" fill-opacity="0.85"/>
  <path d="M223.25 325.75C223.25 381.75 269.75 428.25 325.5 428.25C344 428.25 361 422.5 375 412.5C345 467.5 286 501.5 214.75 501.5C205 501.5 197.75 509 197.75 518C197.75 526.75 205 534 214.75 534C333.75 534 428 449.5 428 325.75C428 269.75 381.25 223 325.5 223C307.25 223 290 229 276 239C305.75 184 365 149.75 436.5 149.75C446.25 149.75 453.25 142.5 453.25 133.5C453.25 124.5 446 117.25 436.5 117.25C317.25 117.25 223.25 201.75 223.25 325.75ZM294.5 325.75C294.5 308.75 308.75 294.75 325.5 294.75C342.5 294.75 356.5 308.75 356.5 325.75C356.5 342.25 342.5 356.75 325.5 356.75C308.75 356.75 294.5 342.5 294.5 325.75Z" fill="black" fill-opacity="0.85"/>
 </g>
</svg>
