<?xml version="1.0" encoding="UTF-8"?>
<!--Generator: Apple Native CoreSVG 326-->
<!DOCTYPE svg
PUBLIC "-//W3C//DTD SVG 1.1//EN"
       "http://www.w3.org/Graphics/SVG/1.1/DTD/svg11.dtd">
<svg version="1.1" xmlns="http://www.w3.org/2000/svg" xmlns:xlink="http://www.w3.org/1999/xlink" viewBox="0 0 622.25 634.25">
 <g>
  <rect height="634.25" opacity="0" width="622.25" x="0" y="0"/>
  <path d="M491.25 432.25C319 432.25 206.25 321.25 206.25 148.75C206.25 106.5 214.25 64 226 36C228.75 29.75 229.25 25.5 229.25 22.75C229.25 14.75 223 5.75 211.25 5.75C207.75 5.75 201.25 6.5 195 9C78.75 56.5 0 177 0 307.25C0 487.75 146.5 634.25 327.25 634.25C463.5 634.25 577.5 551.25 619 448.25C621.5 441.25 622.25 434.25 622.25 431.5C622.25 420.25 614 413 605 413C601.5 413 598.25 413.75 593 415.25C568.25 423.5 532.25 432.25 491.25 432.25Z" fill="black" fill-opacity="0.85"/>
 </g>
</svg>
