<?xml version="1.0" encoding="UTF-8"?>
<!--Generator: Apple Native CoreSVG 326-->
<!DOCTYPE svg
PUBLIC "-//W3C//DTD SVG 1.1//EN"
       "http://www.w3.org/Graphics/SVG/1.1/DTD/svg11.dtd">
<svg version="1.1" xmlns="http://www.w3.org/2000/svg" xmlns:xlink="http://www.w3.org/1999/xlink" viewBox="0 0 651.25 651.75">
 <g>
  <rect height="651.75" opacity="0" width="651.25" x="0" y="0"/>
  <path d="M325.5 651.25C505.25 651.25 651.25 505.5 651.25 325.75C651.25 146 505.25 0 325.5 0C145.75 0 0 146 0 325.75C0 505.5 145.75 651.25 325.5 651.25ZM325.5 604.75C171.25 604.75 46.5 480 46.5 325.75C46.5 171.5 171.25 46.75 325.5 46.75C479.75 46.75 604.5 171.5 604.5 325.75C604.5 480 479.75 604.75 325.5 604.75Z" fill="black" fill-opacity="0.85"/>
  <path d="M217.75 359L443.75 359C451.5 350.5 457.25 340.75 462.25 329.75C465.25 323.25 464.5 317.75 461 314C458 311.25 453.25 310.5 447 312.75C434.25 318 419 320.5 400.5 320.5C325.5 320.5 278.75 274.75 278.75 200.75C278.75 182 282 162.25 287.75 151C291 144.75 290.25 139.25 287.5 135.25C284.25 131.5 277.75 130.75 270.75 134C221 155.75 187 207.5 187 268.5C187 303.75 198.25 334.75 217.75 359ZM166.75 402.5L516.5 402.5C522.75 402.5 527.25 398 527.25 391.75C527.25 385.5 522.75 381.25 516.5 381.25L166.75 381.25C160.75 381.25 156 385.75 156 391.75C156 398 160.75 402.5 166.75 402.5ZM134.25 445.75L483.75 445.75C490 445.75 494.5 441.5 494.5 435.25C494.5 429 490 424.5 483.75 424.5L134.25 424.5C128 424.5 123.5 429.25 123.5 435.25C123.5 441.5 128 445.75 134.25 445.75ZM166.75 489.25L516.5 489.25C522.75 489.25 527.25 484.75 527.25 478.5C527.25 472.25 522.75 468 516.5 468L166.75 468C160.75 468 156 472.5 156 478.5C156 484.75 160.75 489.25 166.75 489.25Z" fill="black" fill-opacity="0.85"/>
 </g>
</svg>
