<?xml version="1.0" encoding="UTF-8"?>
<!--Generator: Apple Native CoreSVG 326-->
<!DOCTYPE svg
PUBLIC "-//W3C//DTD SVG 1.1//EN"
       "http://www.w3.org/Graphics/SVG/1.1/DTD/svg11.dtd">
<svg version="1.1" xmlns="http://www.w3.org/2000/svg" xmlns:xlink="http://www.w3.org/1999/xlink" viewBox="0 0 651.25 651.75">
 <g>
  <rect height="651.75" opacity="0" width="651.25" x="0" y="0"/>
  <path d="M325.5 651.25C505.25 651.25 651.25 505.5 651.25 325.75C651.25 146 505.25 0 325.5 0C145.75 0 0 146 0 325.75C0 505.5 145.75 651.25 325.5 651.25ZM325.5 604.75C171.25 604.75 46.5 480 46.5 325.75C46.5 171.5 171.25 46.75 325.5 46.75C479.75 46.75 604.5 171.5 604.5 325.75C604.5 480 479.75 604.75 325.5 604.75Z" fill="black" fill-opacity="0.85"/>
  <path d="M322 513.75C395.25 513.75 461 469 482.25 412.5C487 400.75 480 391.75 468.25 395.75C455.5 400.75 432.75 405.25 410.25 405.25C317.75 405.25 256.5 344.75 256.5 251.75C256.5 230 261.5 205.25 267 189.5C271.75 178.25 263.75 170 251 175C187.5 199 145.25 268.75 145.25 340.75C145.25 440.5 222.25 513.75 322 513.75ZM415.75 302C419 302 421.25 299.5 421.75 296.25C429 239 432.25 235.75 491 226.75C495 226.5 497.25 224.25 497.25 220.5C497.25 217 495 214.75 491.5 214.25C432.5 202.75 431.25 201.25 421.75 145C421.25 141.5 419 139 415.75 139C412.5 139 410.25 141.5 409.75 145C400.25 201.75 400 205 340 214.25C336.5 214.75 334.25 217 334.25 220.5C334.25 224 336.5 226.5 340 226.75C400 238.25 402 239.5 409.75 296.25C410.25 299.5 412.5 302 415.75 302Z" fill="black" fill-opacity="0.85"/>
 </g>
</svg>
