<?xml version="1.0" encoding="UTF-8"?>
<!--Generator: Apple Native CoreSVG 326-->
<!DOCTYPE svg
PUBLIC "-//W3C//DTD SVG 1.1//EN"
       "http://www.w3.org/Graphics/SVG/1.1/DTD/svg11.dtd">
<svg version="1.1" xmlns="http://www.w3.org/2000/svg" xmlns:xlink="http://www.w3.org/1999/xlink" viewBox="0 0 651.25 651.75">
 <g>
  <rect height="651.75" opacity="0" width="651.25" x="0" y="0"/>
  <path d="M325.5 651.25C505.25 651.25 651.25 505.5 651.25 325.75C651.25 146 505.25 0 325.5 0C145.75 0 0 146 0 325.75C0 505.5 145.75 651.25 325.5 651.25ZM325.5 604.75C171.25 604.75 46.5 480 46.5 325.75C46.5 171.5 171.25 46.75 325.5 46.75C479.75 46.75 604.5 171.5 604.5 325.75C604.5 480 479.75 604.75 325.5 604.75Z" fill="black" fill-opacity="0.85"/>
  <path d="M235.75 467.25L458.75 467.25C503.25 467.25 533.75 436.25 533.75 396C533.75 361.25 508.75 331.75 474.75 325.5C472.75 282 437.75 246.25 393.25 246.25C363.75 246.25 338.75 260.5 323.5 283.75C315 281 308.25 279.75 300.25 279.75C265.75 279.75 238 304.75 233 338.5C197.5 339.25 169.25 368.25 169.25 402.75C169.25 439 196.25 467.25 235.75 467.25ZM103.5 306C103.5 337 121.75 363 153.5 373C163.25 346.25 186.75 325.5 215.75 319.25C227.75 283.25 260.75 258.25 300.25 258.25C305 258.25 310.25 258.75 315.25 259.75C334.5 237 361.5 225.5 392 225.25C386.5 206.25 367.25 190.25 337.25 190.25C328.25 190.25 321.75 191.5 313.75 194C297.75 170.25 273.25 156.25 245 156.25C200.75 156.25 164.25 191.75 162.5 235.25C128 242.25 103.5 271.25 103.5 306Z" fill="black" fill-opacity="0.85"/>
 </g>
</svg>
