<?xml version="1.0" encoding="UTF-8"?>
<!--Generator: Apple Native CoreSVG 326-->
<!DOCTYPE svg
PUBLIC "-//W3C//DTD SVG 1.1//EN"
       "http://www.w3.org/Graphics/SVG/1.1/DTD/svg11.dtd">
<svg version="1.1" xmlns="http://www.w3.org/2000/svg" xmlns:xlink="http://www.w3.org/1999/xlink" viewBox="0 0 817.25 775.75">
 <g>
  <rect height="775.75" opacity="0" width="817.25" x="0" y="0"/>
  <path d="M581.5 372C581.5 397.026 575.983 420.942 565.976 442.5L251.524 442.5C241.517 420.942 236 397.026 236 372C236 277.5 314.25 199 408.75 199C503.25 199 581.5 277.5 581.5 372ZM173.5 364C173.75 376.5 163.25 386.25 149.25 386.25L60.5 386.25C46.75 386.25 36.5 376.25 36.5 364C36.5 351.75 46.75 341.75 60.5 341.75L149.25 341.75C163.25 341.75 173.25 352 173.5 364ZM781 364C781 376.5 770.75 386.5 756.75 386.25L668.25 386.25C654.25 386.25 644 376.25 643.75 364C643.5 351.75 654.25 341.75 668.25 341.75L756.75 341.75C770.75 342 781 352 781 364ZM178.25 110.25L241 173C250.75 182.75 250.75 197.25 242.25 206C234 214.75 219.25 214.5 209.25 204.5L146.75 142C136.5 131.75 136.75 117.75 145.5 109.25C154 100.75 168.25 100.25 178.25 110.25ZM671.75 109.25C680.5 118 680.75 131.75 670.75 142L608 204.5C598.25 214.5 583.75 214.5 575 206C566.25 197.5 566.5 182.75 576.5 173L639 110.25C649.25 100.25 663.5 100.5 671.75 109.25ZM431 24.25L431 112.75C431 126.75 421 137 408.75 137.25C396.5 137.5 386.5 126.75 386.5 112.75L386.5 24.25C386.5 10.25 396.5 0 408.75 0C421 0 431 10.25 431 24.25Z" fill="black" fill-opacity="0.85"/>
  <path d="M78.25 512.75L738.25 512.75C748.25 512.75 756 505 756 495C756 485 748.25 477.25 738.25 477.25L78.25 477.25C68.25 477.25 60.25 485 60.25 495C60.25 505 68.25 512.75 78.25 512.75ZM109.25 618.75C118 618.75 125 612 125 603.25C125 594.25 118 587.5 109.25 587.5C100.5 587.5 93.75 594.25 93.75 603.25C93.75 612 100.5 618.75 109.25 618.75ZM245.75 618.75C254.5 618.75 261.25 612 261.25 603.25C261.25 594.25 254.5 587.5 245.75 587.5C236.75 587.5 230 594.25 230 603.25C230 612 236.75 618.75 245.75 618.75ZM382 618.75C390.75 618.75 397.5 612 397.5 603.25C397.5 594.25 390.75 587.5 382 587.5C373.25 587.5 366.25 594.25 366.25 603.25C366.25 612 373.25 618.75 382 618.75ZM518.25 618.75C527 618.75 533.75 612 533.75 603.25C533.75 594.25 527 587.5 518.25 587.5C509.5 587.5 502.5 594.25 502.5 603.25C502.5 612 509.5 618.75 518.25 618.75ZM654.5 618.75C663.25 618.75 670.25 612 670.25 603.25C670.25 594.25 663.25 587.5 654.5 587.5C645.75 587.5 638.75 594.25 638.75 603.25C638.75 612 645.75 618.75 654.5 618.75ZM68.25 697C77 697 83.75 690.25 83.75 681.5C83.75 672.5 77 665.75 68.25 665.75C59.5 665.75 52.5 672.5 52.5 681.5C52.5 690.25 59.5 697 68.25 697ZM204.5 697C213.25 697 220 690.25 220 681.5C220 672.5 213.25 665.75 204.5 665.75C195.75 665.75 188.75 672.5 188.75 681.5C188.75 690.25 195.75 697 204.5 697ZM340.75 697C349.5 697 356.5 690.25 356.5 681.5C356.5 672.5 349.5 665.75 340.75 665.75C332 665.75 325 672.5 325 681.5C325 690.25 332 697 340.75 697ZM477 697C485.75 697 492.75 690.25 492.75 681.5C492.75 672.5 485.75 665.75 477 665.75C468.25 665.75 461.5 672.5 461.5 681.5C461.5 690.25 468.25 697 477 697ZM613.25 697C622 697 629 690.25 629 681.5C629 672.5 622 665.75 613.25 665.75C604.5 665.75 597.75 672.5 597.75 681.5C597.75 690.25 604.5 697 613.25 697ZM749.5 697C758.5 697 765.25 690.25 765.25 681.5C765.25 672.5 758.5 665.75 749.5 665.75C740.75 665.75 734 672.5 734 681.5C734 690.25 740.75 697 749.5 697ZM163.25 775.25C172 775.25 179 768.5 179 759.5C179 750.75 172 744 163.25 744C154.5 744 147.75 750.75 147.75 759.5C147.75 768.5 154.5 775.25 163.25 775.25ZM299.5 775.25C308.25 775.25 315.25 768.5 315.25 759.5C315.25 750.75 308.25 744 299.5 744C290.75 744 284 750.75 284 759.5C284 768.5 290.75 775.25 299.5 775.25ZM435.75 775.25C444.75 775.25 451.5 768.5 451.5 759.5C451.5 750.75 444.75 744 435.75 744C427 744 420.25 750.75 420.25 759.5C420.25 768.5 427 775.25 435.75 775.25ZM572.25 775.25C581 775.25 587.75 768.5 587.75 759.5C587.75 750.75 581 744 572.25 744C563.5 744 556.5 750.75 556.5 759.5C556.5 768.5 563.5 775.25 572.25 775.25ZM708.5 775.25C717.25 775.25 724 768.5 724 759.5C724 750.75 717.25 744 708.5 744C699.75 744 692.75 750.75 692.75 759.5C692.75 768.5 699.75 775.25 708.5 775.25Z" fill="black" fill-opacity="0.85"/>
 </g>
</svg>
