<?xml version="1.0" encoding="UTF-8"?>
<!--Generator: Apple Native CoreSVG 326-->
<!DOCTYPE svg
PUBLIC "-//W3C//DTD SVG 1.1//EN"
       "http://www.w3.org/Graphics/SVG/1.1/DTD/svg11.dtd">
<svg version="1.1" xmlns="http://www.w3.org/2000/svg" xmlns:xlink="http://www.w3.org/1999/xlink" viewBox="0 0 877 815.25">
 <g>
  <rect height="815.25" opacity="0" width="877" x="0" y="0"/>
  <path d="M613 392C613 431.296 599.694 467.771 577.248 497L514.989 497C547.53 473.336 568.75 434.971 568.75 392C568.75 320.5 510 261.75 438.5 261.75C367 261.75 308.25 320.5 308.25 392C308.25 434.971 329.47 473.336 362.011 497L299.984 497C277.556 467.771 264.25 431.296 264.25 392C264.25 296.5 343.25 217.5 438.5 217.5C534 217.5 613 296.5 613 392ZM203.5 383.75C203.75 396.25 193 406 179 406L90.5 406C76.5 406 66.25 396 66.25 383.75C66.25 371.5 76.5 361.5 90.5 361.5L179 361.5C193 361.5 203.25 371.75 203.5 383.75ZM810.75 383.75C810.75 396.25 800.75 406 786.75 406L698 406C684.25 406 674 396 673.75 383.75C673.5 371.5 684.25 361.5 698 361.5L786.75 361.5C800.75 361.5 810.75 371.75 810.75 383.75ZM208.25 130L270.75 192.75C280.75 202.5 280.75 217 272.25 225.75C263.75 234.5 249 234.25 239.25 224.25L176.5 161.75C166.5 151.5 166.5 137.5 175.5 129C184 120.5 198 120 208.25 130ZM701.75 129C710.25 137.75 710.75 151.5 700.5 161.75L637.75 224.25C628 234.25 613.5 234.25 605 225.75C596.25 217.25 596.5 202.5 606.25 192.75L669 130C679 120 693.25 120.25 701.75 129ZM460.75 44L460.75 132.5C460.75 146.5 450.75 157 438.5 157C426.25 157 416.25 146.5 416.25 132.5L416.25 44C416.25 30 426.25 19.75 438.5 19.75C450.75 19.75 460.75 30 460.75 44Z" fill="black" fill-opacity="0.85"/>
  <path d="M259.75 694.25C265.75 694.25 269.5 689 269.25 683L267.25 651.5L293.75 669C298.5 672 305.25 671 308.25 666.25C311.25 661.5 309.25 654.75 303.5 651.75L275.25 637.75L303.75 623.25C309.25 620.5 311 614 308.5 609.25C305.75 604 298.5 603.25 293.75 606.5L267.25 624.25L269.5 592.5C270 586.5 265.75 581.5 259.75 581.5C253.5 581.5 249.75 586.5 250 592.5L251.75 624.25L225.25 606.5C220.5 603.25 214 603.75 211 609.25C208.25 614 209.75 620.5 215.5 623.25L243.75 637.75L215.5 652C209.5 655 208 661.25 210.5 666.25C213.5 671.5 220.5 672.25 225.25 669L251.75 651.75L250.25 683C250 689 253.5 694.25 259.75 694.25ZM438.5 694.25C444.5 694.25 448.25 689 448 683L446 651.5L472.5 669C477.25 672 484 671 487 666.25C490 661.5 488 654.75 482 651.75L454 637.75L482.25 623.25C488 620.5 489.75 614 487.25 609.25C484.5 604 477.25 603.25 472.5 606.5L446 624.25L448.25 592.5C448.75 586.5 444.5 581.5 438.5 581.5C432.25 581.5 428.5 586.5 428.75 592.5L430.5 624.25L403.75 606.5C399.25 603.25 392.75 603.75 389.75 609.25C386.75 614 388.5 620.5 394.25 623.25L422.5 637.75L394.25 652C388.25 655 386.5 661.25 389.25 666.25C392.25 671.5 399.25 672.25 403.75 669L430.5 651.75L429 683C428.75 689 432.25 694.25 438.5 694.25ZM617.25 694.25C623 694.25 626.75 689 626.5 683L624.75 651.5L651.25 669C656 672 662.5 671 665.75 666.25C668.75 661.5 666.75 654.75 660.75 651.75L632.75 637.75L661 623.25C666.75 620.5 668.5 614 666 609.25C663 604 656 603.25 651.25 606.5L624.75 624.25L626.75 592.5C627.25 586.5 623 581.5 617.25 581.5C611 581.5 607.25 586.5 607.5 592.5L609.25 624.25L582.5 606.5C577.75 603.25 571.5 603.75 568.5 609.25C565.5 614 567.25 620.5 573 623.25L601.25 637.75L573 652C567 655 565.25 661.25 568 666.25C571 671.5 577.75 672.25 582.5 669L609.25 651.75L607.75 683C607.5 689 611 694.25 617.25 694.25ZM189.75 815.25C195.75 815.25 199.5 810 199.25 804L197.25 772.5L223.75 790C228.5 793.25 235.25 792.25 238.25 787.25C241.25 782.5 239.25 775.75 233.5 773L205.25 758.75L233.75 744.5C239.25 741.5 241 735.25 238.5 730.25C235.75 725.25 228.5 724.5 223.75 727.5L197.25 745.5L199.5 713.5C200 707.5 195.75 702.5 189.75 702.5C183.5 702.5 179.75 707.5 180 713.5L181.75 745.5L155.25 727.5C150.5 724.5 144 725 141 730.25C138.25 735.25 139.75 741.5 145.5 744.5L173.75 758.75L145.5 773C139.5 776 138 782.25 140.5 787.25C143.5 792.5 150.5 793.25 155.25 790.25L181.75 772.75L180.25 804C180 810 183.5 815.25 189.75 815.25ZM368.5 815.25C374.5 815.25 378.25 810 378 804L376 772.5L402.5 790C407.25 793.25 414 792.25 417 787.25C420 782.5 418 775.75 412 773L384 758.75L412.25 744.5C418 741.5 419.75 735.25 417.25 730.25C414.5 725.25 407.25 724.5 402.5 727.5L376 745.5L378.25 713.5C378.75 707.5 374.5 702.5 368.5 702.5C362.25 702.5 358.5 707.5 358.75 713.5L360.5 745.5L333.75 727.5C329.25 724.5 322.75 725 319.75 730.25C316.75 735.25 318.5 741.5 324.25 744.5L352.5 758.75L324.25 773C318.25 776 316.5 782.25 319.25 787.25C322.25 792.5 329.25 793.25 333.75 790.25L360.5 772.75L359 804C358.75 810 362.25 815.25 368.5 815.25ZM547.25 815.25C553 815.25 556.75 810 556.5 804L554.75 772.5L581.25 790C586 793.25 592.5 792.25 595.75 787.25C598.75 782.5 596.75 775.75 590.75 773L562.75 758.75L591 744.5C596.75 741.5 598.5 735.25 596 730.25C593 725.25 586 724.5 581.25 727.5L554.75 745.5L556.75 713.5C557.25 707.5 553 702.5 547.25 702.5C541 702.5 537.25 707.5 537.5 713.5L539.25 745.5L512.5 727.5C507.75 724.5 501.5 725 498.5 730.25C495.5 735.25 497.25 741.5 503 744.5L531.25 758.75L503 773C497 776 495.25 782.25 498 787.25C501 792.5 507.75 793.25 512.5 790.25L539.25 772.75L537.75 804C537.5 810 541 815.25 547.25 815.25ZM108 532.5L768 532.5C778 532.5 786 524.75 786 514.75C786 504.75 778 497 768 497L108 497C98 497 90 504.75 90 514.75C90 524.75 98 532.5 108 532.5Z" fill="black" fill-opacity="0.85"/>
 </g>
</svg>
