<?xml version="1.0" encoding="UTF-8"?>
<!--Generator: Apple Native CoreSVG 326-->
<!DOCTYPE svg
PUBLIC "-//W3C//DTD SVG 1.1//EN"
       "http://www.w3.org/Graphics/SVG/1.1/DTD/svg11.dtd">
<svg version="1.1" xmlns="http://www.w3.org/2000/svg" xmlns:xlink="http://www.w3.org/1999/xlink" viewBox="0 0 826.75 572.25">
 <g>
  <rect height="572.25" opacity="0" width="826.75" x="0" y="0"/>
  <path d="M586 371.75C586 277.25 508 198.75 413.5 198.75C318.75 198.75 240.75 277.25 240.75 371.75C240.75 397.25 246.75 421.5 257.5 443L569.25 443C580 421.5 586 397.25 586 371.75ZM65.25 386.25L154 386.25C168 386.25 178.5 376.25 178.25 364C178 351.75 168 341.75 154 341.75L65.25 341.75C51.5 341.75 41.25 351.75 41.25 364C41.25 376.25 51.5 386.25 65.25 386.25ZM214 204.5C224 214.25 238.5 214.5 247 205.75C255.5 197 255.5 182.75 245.75 172.75L183 110.25C173 100 158.75 100.5 150.25 109C141.5 117.5 141.25 131.75 151.5 141.75ZM579.75 205.75C588.5 214.25 603 214.25 612.75 204.5L675.5 141.75C685.5 131.75 685 117.75 676.5 109C668.25 100.25 654 100 643.75 110.25L581 172.75C571.25 182.75 571 197.25 579.75 205.75ZM672.75 386.25L761.5 386.25C775.5 386.25 785.5 376.25 785.5 364C785.5 351.75 775.5 341.75 761.5 341.75L672.75 341.75C659 341.75 648.25 351.75 648.5 364C648.75 376.25 659 386.25 672.75 386.25ZM413.5 137C425.5 136.75 435.75 126.5 435.75 112.75L435.75 24C435.75 10 425.5 0 413.5 0C401.25 0 391.25 10 391.25 24L391.25 112.75C391.25 126.5 401.25 137.25 413.5 137Z" fill="black" fill-opacity="0.85"/>
  <path d="M24 522L802.75 522C815.75 522 826.75 512 826.75 500C826.75 487.75 815.75 478 802.75 478L24 478C11 478 0 487.75 0 500C0 512 11 522 24 522Z" fill="black" fill-opacity="0.85"/>
 </g>
</svg>
