<?xml version="1.0" encoding="UTF-8"?>
<!--Generator: Apple Native CoreSVG 326-->
<!DOCTYPE svg
PUBLIC "-//W3C//DTD SVG 1.1//EN"
       "http://www.w3.org/Graphics/SVG/1.1/DTD/svg11.dtd">
<svg version="1.1" xmlns="http://www.w3.org/2000/svg" xmlns:xlink="http://www.w3.org/1999/xlink" viewBox="0 0 651.25 651.75">
 <g>
  <rect height="651.75" opacity="0" width="651.25" x="0" y="0"/>
  <path d="M651.25 326C651.25 505.5 505 651.75 325.5 651.75C146.25 651.75 0 505.5 0 326C0 146.75 146.25 0.5 325.5 0.5C505 0.5 651.25 146.75 651.25 326ZM290 435.5L235.5 529.25C231.75 536 234 544.5 240.75 548.25C247.25 552 255.5 549.75 259.25 543.25L314 449C317.5 442.5 315.5 434.25 308.5 430.25C302.25 426.75 294 428.75 290 435.5ZM440.5 435.5L385.75 529.25C382 536 384.25 544.5 391.25 548.25C397.5 552 405.5 549.75 409.5 543.25L464.25 449C468 442.5 465.75 434.25 458.75 430.25C452.5 426.75 444.25 428.75 440.5 435.5ZM215 435.5L190 478.5C186 485 188.5 493.5 195 497.5C201.5 501.25 209.75 499 213.75 492.25L238.75 449C242.5 442.75 240.25 434.25 233.5 430.25C227 426.75 218.75 429 215 435.5ZM365.25 435.5L340.25 478.5C336.25 485 338.5 493.5 345.25 497.5C351.75 501.25 360 499 363.75 492.25L388.75 449C392.75 442.75 390.5 434.25 383.75 430.25C377.25 426.75 369 429 365.25 435.5ZM135.75 364.25C126.5 364.25 118.5 371.25 118.5 380.25C118.5 389.5 126.75 396.5 135.75 396.5L515 396.5C524 396.5 532 389.5 532 380.25C532 371 524.25 364.25 515 364.25ZM227.25 307.5C227.25 319.25 229.75 331 234 341.75L416.5 341.75C420.75 331 423.5 319.25 423.5 307.5C423.5 253.5 379.25 209.25 325.25 209.25C271.5 209.25 227.25 253.5 227.25 307.5ZM136 287C126 287 118.5 294.5 118.5 303.25C118.5 312.25 126 319.5 136 319.5L184 319.5C194.5 319.5 202 312.75 202 303.25C202 294.25 194.25 287 184 287ZM466.5 287C456.25 287 448.5 294.25 448.5 303.25C448.5 312.5 456.75 319.5 466.5 319.5L514.75 319.5C524.75 319.5 532 312.5 532 303.25C532 294.25 524.75 287 514.75 287ZM178.75 161.75C173 168.5 173 178 180.25 185.5L214.25 219.5C221.25 226.25 231.5 227 238 220.25C244.75 213.75 244 203.25 237.25 196.5L202.5 162C195.5 154.5 185.25 155.75 178.75 161.75ZM448 162L413.5 196.5C406.25 203.5 406 213.75 412.75 220.25C419.25 226.75 429.5 226.5 436.5 219.5L470.25 185.5C477.5 178 477.75 168.5 471.75 161.75C465.25 155.25 454.75 154.75 448 162ZM309 107L309 155.25C309 165 316.25 173 325.25 173C334.5 173 341.5 164.75 341.5 155.25L341.5 107C341.5 96.75 334.25 89.5 325.25 89.5C316.25 89.5 309 96.75 309 107Z" fill="black" fill-opacity="0.85"/>
 </g>
</svg>
