<?xml version="1.0" encoding="UTF-8"?>
<!--Generator: Apple Native CoreSVG 326-->
<!DOCTYPE svg
PUBLIC "-//W3C//DTD SVG 1.1//EN"
       "http://www.w3.org/Graphics/SVG/1.1/DTD/svg11.dtd">
<svg version="1.1" xmlns="http://www.w3.org/2000/svg" xmlns:xlink="http://www.w3.org/1999/xlink" viewBox="0 0 877 775.75">
 <g>
  <rect height="775.75" opacity="0" width="877" x="0" y="0"/>
  <path d="M613 372.25C613 411.546 599.694 448.021 577.248 477.25L514.989 477.25C547.53 453.586 568.75 415.221 568.75 372.25C568.75 300.75 510 242 438.5 242C367 242 308.25 300.75 308.25 372.25C308.25 415.221 329.47 453.586 362.011 477.25L299.984 477.25C277.556 448.021 264.25 411.546 264.25 372.25C264.25 276.75 343.25 197.75 438.5 197.75C534 197.75 613 276.75 613 372.25ZM203.5 364C203.75 376.5 193 386.25 179 386.25L90.5 386.25C76.5 386.25 66.25 376.25 66.25 364C66.25 351.75 76.5 341.75 90.5 341.75L179 341.75C193 341.75 203.25 352 203.5 364ZM810.75 364C810.75 376.5 800.75 386.25 786.75 386.25L698 386.25C684.25 386.25 674 376.25 673.75 364C673.5 351.75 684.25 341.75 698 341.75L786.75 341.75C800.75 341.75 810.75 352 810.75 364ZM208.25 110.25L270.75 173C280.75 182.75 280.75 197.25 272.25 206C263.75 214.75 249 214.5 239.25 204.5L176.5 142C166.5 131.75 166.5 117.75 175.5 109.25C184 100.75 198 100.25 208.25 110.25ZM701.75 109.25C710.25 118 710.75 131.75 700.5 142L637.75 204.5C628 214.5 613.5 214.5 605 206C596.25 197.5 596.5 182.75 606.25 173L669 110.25C679 100.25 693.25 100.5 701.75 109.25ZM460.75 24.25L460.75 112.75C460.75 126.75 450.75 137 438.5 137.25C426.25 137.5 416.25 126.75 416.25 112.75L416.25 24.25C416.25 10.25 426.25 0 438.5 0C450.75 0 460.75 10.25 460.75 24.25Z" fill="black" fill-opacity="0.85"/>
  <path d="M108 512.75L768 512.75C778 512.75 786 505 786 495C786 485 778 477.25 768 477.25L108 477.25C98 477.25 90 485 90 495C90 505 98 512.75 108 512.75ZM139.25 618.75C148 618.75 154.75 612 154.75 603.25C154.75 594.25 148 587.5 139.25 587.5C130.5 587.5 123.5 594.25 123.5 603.25C123.5 612 130.5 618.75 139.25 618.75ZM275.5 618.75C284.25 618.75 291.25 612 291.25 603.25C291.25 594.25 284.25 587.5 275.5 587.5C266.75 587.5 259.75 594.25 259.75 603.25C259.75 612 266.75 618.75 275.5 618.75ZM411.75 618.75C420.5 618.75 427.5 612 427.5 603.25C427.5 594.25 420.5 587.5 411.75 587.5C403 587.5 396.25 594.25 396.25 603.25C396.25 612 403 618.75 411.75 618.75ZM548 618.75C556.75 618.75 563.75 612 563.75 603.25C563.75 594.25 556.75 587.5 548 587.5C539.25 587.5 532.5 594.25 532.5 603.25C532.5 612 539.25 618.75 548 618.75ZM684.25 618.75C693.25 618.75 700 612 700 603.25C700 594.25 693.25 587.5 684.25 587.5C675.5 587.5 668.75 594.25 668.75 603.25C668.75 612 675.5 618.75 684.25 618.75ZM98 697C106.75 697 113.75 690.25 113.75 681.5C113.75 672.5 106.75 665.75 98 665.75C89.25 665.75 82.5 672.5 82.5 681.5C82.5 690.25 89.25 697 98 697ZM234.25 697C243 697 250 690.25 250 681.5C250 672.5 243 665.75 234.25 665.75C225.5 665.75 218.75 672.5 218.75 681.5C218.75 690.25 225.5 697 234.25 697ZM370.5 697C379.5 697 386.25 690.25 386.25 681.5C386.25 672.5 379.5 665.75 370.5 665.75C361.75 665.75 355 672.5 355 681.5C355 690.25 361.75 697 370.5 697ZM507 697C515.75 697 522.5 690.25 522.5 681.5C522.5 672.5 515.75 665.75 507 665.75C498.25 665.75 491.25 672.5 491.25 681.5C491.25 690.25 498.25 697 507 697ZM643.25 697C652 697 658.75 690.25 658.75 681.5C658.75 672.5 652 665.75 643.25 665.75C634.5 665.75 627.5 672.5 627.5 681.5C627.5 690.25 634.5 697 643.25 697ZM779.5 697C788.25 697 795 690.25 795 681.5C795 672.5 788.25 665.75 779.5 665.75C770.75 665.75 763.75 672.5 763.75 681.5C763.75 690.25 770.75 697 779.5 697ZM193.25 775.25C202 775.25 208.75 768.5 208.75 759.5C208.75 750.75 202 744 193.25 744C184.5 744 177.5 750.75 177.5 759.5C177.5 768.5 184.5 775.25 193.25 775.25ZM329.5 775.25C338.25 775.25 345 768.5 345 759.5C345 750.75 338.25 744 329.5 744C320.75 744 313.75 750.75 313.75 759.5C313.75 768.5 320.75 775.25 329.5 775.25ZM465.75 775.25C474.5 775.25 481.25 768.5 481.25 759.5C481.25 750.75 474.5 744 465.75 744C457 744 450 750.75 450 759.5C450 768.5 457 775.25 465.75 775.25ZM602 775.25C610.75 775.25 617.75 768.5 617.75 759.5C617.75 750.75 610.75 744 602 744C593.25 744 586.5 750.75 586.5 759.5C586.5 768.5 593.25 775.25 602 775.25ZM738.25 775.25C747 775.25 754 768.5 754 759.5C754 750.75 747 744 738.25 744C729.5 744 722.75 750.75 722.75 759.5C722.75 768.5 729.5 775.25 738.25 775.25Z" fill="black" fill-opacity="0.85"/>
 </g>
</svg>
