<?xml version="1.0" encoding="UTF-8"?>
<!--Generator: Apple Native CoreSVG 326-->
<!DOCTYPE svg
PUBLIC "-//W3C//DTD SVG 1.1//EN"
       "http://www.w3.org/Graphics/SVG/1.1/DTD/svg11.dtd">
<svg version="1.1" xmlns="http://www.w3.org/2000/svg" xmlns:xlink="http://www.w3.org/1999/xlink" viewBox="0 0 651.25 651.75">
 <g>
  <rect height="651.75" opacity="0" width="651.25" x="0" y="0"/>
  <path d="M325.5 651.25C505.25 651.25 651.25 505.5 651.25 325.75C651.25 146 505.25 0 325.5 0C145.75 0 0 146 0 325.75C0 505.5 145.75 651.25 325.5 651.25ZM325.5 604.75C171.25 604.75 46.5 480 46.5 325.75C46.5 171.5 171.25 46.75 325.5 46.75C479.75 46.75 604.5 171.5 604.5 325.75C604.5 480 479.75 604.75 325.5 604.75Z" fill="black" fill-opacity="0.85"/>
  <path d="M421.25 321.75C421.25 269 378 225.75 325.25 225.75C272.75 225.75 229.5 269 229.5 321.75C229.5 333.25 232 344.75 236.25 355.25L414.25 355.25C418.5 344.75 421.25 333.25 421.25 321.75ZM140.25 333.25L187.5 333.25C197.5 333.25 204.75 326.75 204.75 317.5C204.75 308.75 197.25 301.75 187.5 301.75L140.25 301.75C130.75 301.75 123.5 309 123.5 317.5C123.5 326.25 130.75 333.25 140.25 333.25ZM217.25 235.75C223.75 242.25 233.75 243 240 236.75C246.75 230.25 245.75 220 239.25 213.5L205.5 179.75C198.5 172.5 188.5 173.5 182.5 179.25C176.5 185.75 176.5 195 183.5 202.25ZM341 173L341 125.75C341 115.75 334 108.75 325.25 108.75C316.5 108.75 309.5 115.75 309.5 125.75L309.5 173C309.5 182.5 316.5 190.25 325.25 190.25C334.25 190.25 341 182.25 341 173ZM410.75 236.75C417 242.75 427 242.5 433.75 235.75L467 202.25C474 195 474.25 185.75 468.25 179.25C462 173 452 172.75 445.25 179.75L411.25 213.5C404.5 220.25 404.25 230.25 410.75 236.75ZM463 333.25L510.25 333.25C520 333.25 527.25 326.5 527.25 317.5C527.25 308.75 520 301.75 510.25 301.75L463 301.75C453.25 301.75 445.75 308.75 445.75 317.5C445.75 326.5 453.75 333.25 463 333.25ZM140 408.5L510.5 408.5C519.25 408.5 527.25 401.75 527.25 392.75C527.25 383.75 519.5 377.25 510.5 377.25L140 377.25C131.25 377.25 123.5 384 123.5 392.75C123.5 401.75 131.5 408.5 140 408.5ZM219.25 519C224.5 519 227.75 514.5 227.5 509.5L226.5 489L243.5 500.5C247.25 503 253 501.75 255.5 498C258.5 494 257 488 251.75 485.5L233.75 476.5L251.75 467C256.75 464.5 258 459.5 255.75 455C253.5 450.5 247.5 450 243.5 452.5L226.5 464L227.5 443.75C227.75 438.25 224.5 434 219.25 434C214 434 210.75 438.25 211 443.5L211.75 464L194.75 452.5C190.75 449.75 185 450.25 182.75 455C180.25 459 181.5 464.5 186.75 467.25L204.5 476.5L186.75 485.5C181.25 488 180.25 493.5 182.25 497.75C184.5 502.25 190.5 503.25 194.75 500.5L211.75 489L211.25 509.5C211 514.5 214 519 219.25 519ZM325.25 519C330.25 519 333.75 514.5 333.5 509.5L332.5 489L349.25 500.5C353.25 503 359 501.75 361.5 498C364.5 494 363 488 357.5 485.5L339.75 476.5L357.5 467C362.75 464.5 364 459.5 361.75 455C359.5 450.5 353.25 450 349.25 452.5L332.5 464L333.5 443.75C333.75 438.25 330.25 434 325.25 434C320 434 316.5 438.25 316.75 443.5L317.75 464L300.5 452.5C296.75 449.75 291 450.25 288.75 455C286 459 287.5 464.5 292.75 467.25L310.5 476.5L292.75 485.5C287.25 488 286 493.5 288.25 497.75C290.5 502.25 296.5 503.25 300.5 500.5L317.75 489L317 509.5C316.75 514.5 320 519 325.25 519ZM431.25 519C436.25 519 439.5 514.5 439.25 509.5L438.5 489L455.25 500.5C459 503 465 501.75 467.5 498C470.5 494 468.75 488 463.5 485.5L445.5 476.5L463.5 467C468.5 464.5 470 459.5 467.75 455C465.5 450.5 459.25 449.75 455.25 452.5L438.5 464L439.25 443.75C439.5 438.25 436.25 434 431.25 434C425.75 434 422.5 438.25 422.75 443.5L423.75 464L406.5 452.5C402.5 449.75 397 450.25 394.75 455C392 459 393.5 464.5 398.5 467.25L416.5 476.5L398.5 485.5C393 488 392.25 493.5 394.25 497.75C396.5 502.25 402.5 503.25 406.5 500.5L423.75 489L423 509.5C422.75 514.5 425.75 519 431.25 519Z" fill="black" fill-opacity="0.85"/>
 </g>
</svg>
