<?xml version="1.0" encoding="UTF-8"?>
<!--Generator: Apple Native CoreSVG 326-->
<!DOCTYPE svg
PUBLIC "-//W3C//DTD SVG 1.1//EN"
       "http://www.w3.org/Graphics/SVG/1.1/DTD/svg11.dtd">
<svg version="1.1" xmlns="http://www.w3.org/2000/svg" xmlns:xlink="http://www.w3.org/1999/xlink" viewBox="0 0 826.75 570.75">
 <g>
  <rect height="570.75" opacity="0" width="826.75" x="0" y="0"/>
  <path d="M587.75 372.25C587.75 411.845 574.138 448.238 551.323 477.25L488.233 477.25C521.551 454.392 543.5 415.626 543.5 372.25C543.5 300.5 485 242 413.5 242C341.75 242 283.25 300.5 283.25 372.25C283.25 415.626 305.199 454.392 338.517 477.25L275.427 477.25C252.612 448.238 239 411.845 239 372.25C239 276.5 318 197.5 413.5 197.5C508.75 197.5 587.75 276.5 587.75 372.25ZM178.25 364C178.5 376.25 168 386.25 154 386.25L65.25 386.25C51.5 386.25 41.25 376.25 41.25 364C41.25 351.75 51.5 341.75 65.25 341.75L154 341.75C168 341.75 178 351.75 178.25 364ZM785.5 364C785.5 376.25 775.5 386.25 761.5 386.25L672.75 386.25C659 386.25 648.75 376.25 648.5 364C648.25 351.75 659 341.75 672.75 341.75L761.5 341.75C775.5 341.75 785.5 351.75 785.5 364ZM183 110.25L245.75 172.75C255.5 182.75 255.5 197 247 205.75C238.5 214.5 224 214.25 214 204.5L151.5 141.75C141.25 131.75 141.5 117.75 150.25 109C159 100.5 173 100 183 110.25ZM676.5 109C685 118 685.5 131.75 675.5 141.75L612.75 204.5C603 214.25 588.5 214.25 579.75 205.75C571 197.25 571.25 182.75 581 172.75L643.75 110.25C654 100 668 100.25 676.5 109ZM435.75 24L435.75 112.75C435.75 126.5 425.5 136.75 413.5 137C401.25 137.25 391.25 126.5 391.25 112.75L391.25 24C391.25 10 401.25 0 413.5 0C425.5 0 435.75 10 435.75 24Z" fill="black" fill-opacity="0.85"/>
  <path d="M24 521.25L802.75 521.25C815.75 521.25 826.75 511.25 826.75 499.25C826.75 487 815.75 477.25 802.75 477.25L24 477.25C11 477.25 0 487 0 499.25C0 511.25 11 521.25 24 521.25Z" fill="black" fill-opacity="0.85"/>
 </g>
</svg>
