<?xml version="1.0" encoding="UTF-8"?>
<!--Generator: Apple Native CoreSVG 326-->
<!DOCTYPE svg
PUBLIC "-//W3C//DTD SVG 1.1//EN"
       "http://www.w3.org/Graphics/SVG/1.1/DTD/svg11.dtd">
<svg version="1.1" xmlns="http://www.w3.org/2000/svg" xmlns:xlink="http://www.w3.org/1999/xlink" viewBox="0 0 651.25 651.75">
 <g>
  <rect height="651.75" opacity="0" width="651.25" x="0" y="0"/>
  <path d="M651.25 326C651.25 505.5 505 651.75 325.5 651.75C146.25 651.75 0 505.5 0 326C0 146.75 146.25 0.5 325.5 0.5C505 0.5 651.25 146.75 651.25 326ZM147 434.25C138.5 434.25 131 441 131 449.5C131 458 138.75 464.5 147 464.5L503.5 464.5C512 464.5 519.5 458 519.5 449.5C519.5 440.75 512.25 434.25 503.5 434.25ZM233 382C233 393.5 235.25 404.5 239.75 414.75L411 414.75C415.25 404.5 417.5 393.5 417.5 382C417.5 331.75 376 289.75 325.25 289.75C275 289.75 233 331.75 233 382ZM147.25 362.75C138 362.75 131 369.75 131 378.25C131 386.5 138 393.5 147.25 393.5L193 393.5C202.25 393.5 209.5 387 209.5 378.25C209.5 369.5 202.25 362.75 193 362.75ZM457.75 362.75C448.5 362.75 441.25 369.5 441.25 378.25C441.25 387 448.75 393.5 457.75 393.5L503.25 393.5C512.75 393.5 519.5 386.75 519.5 378.25C519.5 369.75 512.75 362.75 503.25 362.75ZM187.75 245.25C182 251.5 182 260.5 189 267.5L221.25 300C227.5 306.25 237.5 306.75 243.5 300.5C249.75 294 248.75 284.25 242.5 278L210.25 245.5C203.25 238.75 193.75 239.5 187.75 245.25ZM440.5 245.5L408.25 278C401.75 284.5 401 294 407.5 300.5C413.25 306.5 423.25 306.5 429.75 300L461.75 267.5C468.25 260.5 468.5 251.5 462.75 245.25C457 239 447 239 440.5 245.5ZM315 121.5L263.5 170.25C259.5 174 258.25 177.5 258.25 181.5C258.25 189.25 264 195 272 195C276 195 279.75 193.25 282.75 190.5L306.75 166.75L310.75 162.75L309.75 176L309.75 239.5C309.75 248.25 316.5 255.75 325.25 255.75C334 255.75 340.75 248.25 340.75 239.5L340.75 176L340 162L346 167.75L368 190.75C370.5 193.5 375 195 378.5 195C386.5 195 392.25 189.25 392.25 181.5C392.25 177.5 391.25 174.25 387.25 170.25L335.5 121.5C332.25 118.5 328.75 117 325.25 117C321.75 117 318.25 118.5 315 121.5Z" fill="black" fill-opacity="0.85"/>
 </g>
</svg>
