<?xml version="1.0" encoding="UTF-8"?>
<!--Generator: Apple Native CoreSVG 326-->
<!DOCTYPE svg
PUBLIC "-//W3C//DTD SVG 1.1//EN"
       "http://www.w3.org/Graphics/SVG/1.1/DTD/svg11.dtd">
<svg version="1.1" xmlns="http://www.w3.org/2000/svg" xmlns:xlink="http://www.w3.org/1999/xlink" viewBox="0 0 651.25 651.75">
 <g>
  <rect height="651.75" opacity="0" width="651.25" x="0" y="0"/>
  <path d="M651.25 326C651.25 505.5 505 651.75 325.5 651.75C146.25 651.75 0 505.5 0 326C0 146.75 146.25 0.5 325.5 0.5C505 0.5 651.25 146.75 651.25 326ZM208.5 217.25L208.5 379C208.5 384.25 208 386.25 204.25 389.25C182.75 407.75 172 431.5 172 457.75C172 508 212.5 548.5 263.25 548.5C313.75 548.5 354.25 508 354.25 457.75C354.25 431.5 343 407.75 321.75 389.25C318 386.25 317.5 384 317.5 379L317.75 217.25C317.75 182.5 295.25 158.25 263.25 158.25C230.5 158.25 208.5 182.5 208.5 217.25ZM292 218.25L292 388C292 396 294.25 400.25 300.5 404.25C319.25 417 329 436 329 457.75C329 494.5 299.5 523.75 263.25 523.75C226.25 523.75 197.25 494.5 197.25 457.75C197.25 436 207 417 225 404.25C231.25 400.25 233.75 396 233.75 388L233.75 218.25C233.75 197.25 245.25 183.75 263.25 183.75C280.5 183.75 292 197.25 292 218.25ZM249 233.75L249 404.75C249 413 248 415 241.75 417.75C227.75 425.5 217.5 440 217.5 457.5C217.5 483.25 237.75 503.5 263 503.5C288.5 503.5 308.75 483 308.75 457.5C308.75 440 298.5 425.75 283.75 417.75C278.5 415 277.25 413 277.25 404.75L277.25 233.75C277.25 224.5 270.75 218.5 263 218.5C254.75 218.5 249 224.5 249 233.75ZM425.25 354.5C419.25 360 418.75 370.25 425 376L454 405.25C459.75 410.5 469.25 410.75 475.25 405.25C481.5 399.25 481.5 388.75 475.5 383.25L446.75 354.5C440.75 348.5 431.25 348.5 425.25 354.5ZM336 189.5C339.25 198.25 340.75 207.5 340.75 217.25L340.5 362C391.5 364.75 433.25 327 433.25 275.5C433.25 227.25 394.75 188.25 346.5 188.25C343 188.25 339.5 188.75 336 189.5ZM472.75 260C464 260 457.25 267.25 457.25 275.5C457.25 283.25 464.25 291 472.75 291L513.25 291C521.75 291 528.5 283.25 528.5 275.5C528.5 267.25 521.75 260 513.25 260ZM454 146L425 175.25C418.75 181.25 419.25 191.25 425.25 197C431 202.75 441 202.75 447 197L475.5 168C481.25 162.25 481.5 152 475.25 146C469.25 140.25 459.75 140.25 454 146ZM331 108L331 148.75C331 157.25 338 164.25 346.5 164.25C355.25 164.25 362 156.75 362 148.75L362 108C362 100 355.25 93 346.5 93C337.75 93 331 100 331 108Z" fill="black" fill-opacity="0.85"/>
 </g>
</svg>
