<?xml version="1.0" encoding="UTF-8"?>
<!--Generator: Apple Native CoreSVG 326-->
<!DOCTYPE svg
PUBLIC "-//W3C//DTD SVG 1.1//EN"
       "http://www.w3.org/Graphics/SVG/1.1/DTD/svg11.dtd">
<svg version="1.1" xmlns="http://www.w3.org/2000/svg" xmlns:xlink="http://www.w3.org/1999/xlink" viewBox="0 0 651.25 651.75">
 <g>
  <rect height="651.75" opacity="0" width="651.25" x="0" y="0"/>
  <path d="M325.5 651.25C505.25 651.25 651.25 505.5 651.25 325.75C651.25 146 505.25 0 325.5 0C145.75 0 0 146 0 325.75C0 505.5 145.75 651.25 325.5 651.25ZM325.5 604.75C171.25 604.75 46.5 480 46.5 325.75C46.5 171.5 171.25 46.75 325.5 46.75C479.75 46.75 604.5 171.5 604.5 325.75C604.5 480 479.75 604.75 325.5 604.75Z" fill="black" fill-opacity="0.85"/>
  <path d="M265.25 542.75C314.5 542.75 354 503.25 354 454.5C354 428.5 343 405.25 322.25 387.25C318.75 384.25 318.25 382.25 318.25 377.25L318.5 219.25C318.5 185.25 296.75 161.75 265.25 161.75C233.5 161.75 212 185.25 212 219.25L212 377.25C212 382.5 211.5 384.25 207.75 387.25C186.75 405.25 176.25 428.5 176.25 454.5C176.25 503.25 215.75 542.75 265.25 542.75ZM265.25 518.75C229.25 518.75 200.75 490.25 200.75 454.5C200.75 433.25 210.25 414.25 228.25 402.25C234.25 398 236.5 393.75 236.5 386L236.5 220C236.5 199.75 247.75 186.5 265.25 186.5C282.25 186.5 293.5 199.75 293.5 220L293.5 386C293.5 393.75 295.75 398 301.75 402.25C320 414.25 329.5 433.25 329.5 454.5C329.5 490.25 300.75 518.75 265.25 518.75ZM265 499C290 499 309.75 478.75 309.75 454.25C309.75 437 299.75 422.75 285.5 415C280.25 412.25 279 410.25 279 402.25L279 235.5C279 226.5 272.75 220.25 265 220.25C257 220.25 251.25 226.5 251.25 235.5L251.25 402.25C251.25 410.25 250.25 412.25 244.25 415C230.5 422.75 220.5 437 220.5 454.25C220.5 479.25 240.25 499 265 499ZM346.5 167.25C355 167.25 361.5 160.25 361.5 152.5L361.5 112.5C361.5 104.75 355 97.75 346.5 97.75C338 97.75 331.5 104.75 331.5 112.5L331.5 152.5C331.5 160.5 338.25 167.25 346.5 167.25ZM423.5 199.5C428.75 205 438.75 205 444.5 199.5L472.5 171C478 165.25 478.25 155.5 472.25 149.75C466.5 144 457.25 144 451.75 149.75L423.25 178.25C417.25 184 417.75 193.75 423.5 199.5ZM469.75 291L509.5 291C517.75 291 524.25 283.75 524.25 276.25C524.25 268.25 517.75 261 509.5 261L469.75 261C461.25 261 454.75 268.25 454.75 276.25C454.75 283.75 461.5 291 469.75 291ZM451.75 402.5C457.25 408 466.5 408.25 472.25 402.5C478.25 396.75 478.25 386.5 472.5 381.5L444.25 353C438.5 347.25 429 347.25 423.5 353C417.75 358.75 417.25 368.25 423.25 374ZM340.5 360.25C390.5 363.25 431.25 326.25 431.25 276.25C431.25 228.75 393.75 191 346.5 191C343 191 339.5 191.5 336.25 192.25C339.25 200.5 340.75 209.75 340.75 219.25Z" fill="black" fill-opacity="0.85"/>
 </g>
</svg>
