<?xml version="1.0" encoding="UTF-8"?>
<!--Generator: Apple Native CoreSVG 326-->
<!DOCTYPE svg
PUBLIC "-//W3C//DTD SVG 1.1//EN"
       "http://www.w3.org/Graphics/SVG/1.1/DTD/svg11.dtd">
<svg version="1.1" xmlns="http://www.w3.org/2000/svg" xmlns:xlink="http://www.w3.org/1999/xlink" viewBox="0 0 651.25 651.75">
 <g>
  <rect height="651.75" opacity="0" width="651.25" x="0" y="0"/>
  <path d="M651.25 326C651.25 505.5 505 651.75 325.5 651.75C146.25 651.75 0 505.5 0 326C0 146.75 146.25 0.5 325.5 0.5C505 0.5 651.25 146.75 651.25 326ZM345.5 498.75C335.25 500 324.25 500.25 313.75 498.75C304.5 497.5 298.75 503 297.5 509.5C296.5 516.5 300.75 523.5 310.75 525.25C322.25 526.5 337 526.25 349 525C358.25 523.5 362.75 517 362 509.75C361 502.75 355.25 497.25 345.5 498.75ZM423 435C393.5 443 358.75 445.25 327.75 440.75C318.25 440 311.5 444.75 310.25 452.5C309.5 460 313.75 466.5 323.5 468C356.75 471.75 397.75 471.25 432.25 461.25C441.25 458.5 444.75 450.5 442.5 443.25C440 435.5 432.75 432.25 423 435ZM465 365.25C426 378.25 384.5 385.25 340.75 385.25C322 385.25 302.75 383.75 287.5 381.75C278.25 380.75 271.75 384.75 270.25 392C269 399.5 273 406.75 283 408.75C297.5 411.25 318.25 412.5 340.75 412.25C389.75 412 435 404.75 475.5 391C485.5 387.75 487.5 378.75 485 372C482.5 364.75 474.75 362 465 365.25ZM463.25 304.5C429.25 318 380.25 326.25 327.75 326.25C288.25 326.25 243 321.25 209 311.5C200.25 308.75 192.25 311.75 189.75 319.75C187.75 327.5 192 335.25 201 337.75C238 348.5 287 354 327.75 354C385.5 354 438.5 344.75 475.75 328.75C483.75 325.5 487.5 317.25 483.75 309.75C480 302.5 472.25 301 463.25 304.5ZM242.5 128.5C181.75 146.75 150.75 179.25 150.75 214C150.75 267.25 211.25 294.5 322.5 294.5C431.25 294.5 500.25 267.25 500.25 226.5C500.25 189.5 447.75 167.75 374.25 167.75C320.5 167.75 277 178.25 243.75 193.5C234.25 198.25 232 208 236 215C239.5 222.5 249.25 224.75 257.75 220.75C286.5 208.5 323.25 196.75 373 196.75C434.5 196.75 469.25 210.5 469.25 226.25C469.25 244.25 413 264.75 321.5 264.75C229 264.75 181.75 246.5 181.75 213.5C181.75 193.5 201 172.5 252.25 156.5C261.25 153.5 266 145.5 263.5 137C260.75 128.75 253 125.75 242.5 128.5Z" fill="black" fill-opacity="0.85"/>
 </g>
</svg>
