<?xml version="1.0" encoding="UTF-8"?>
<!--Generator: Apple Native CoreSVG 326-->
<!DOCTYPE svg
PUBLIC "-//W3C//DTD SVG 1.1//EN"
       "http://www.w3.org/Graphics/SVG/1.1/DTD/svg11.dtd">
<svg version="1.1" xmlns="http://www.w3.org/2000/svg" xmlns:xlink="http://www.w3.org/1999/xlink" viewBox="0 0 651.25 651.75">
 <g>
  <rect height="651.75" opacity="0" width="651.25" x="0" y="0"/>
  <path d="M651.25 326C651.25 505.5 505 651.75 325.5 651.75C146.25 651.75 0 505.5 0 326C0 146.75 146.25 0.5 325.5 0.5C505 0.5 651.25 146.75 651.25 326ZM114 407.75C105.25 411.25 100.75 419.25 104 426.5C106 434.5 114.25 439.25 123.75 436C156.25 424 193.5 417.25 231 417.25C304.5 417.25 341.75 435.25 341.75 464C341.75 481.75 330 492 314.5 492C299 492 290 483 287.5 466C286.25 458 280 451 270.75 451.75C259.75 452.25 255.75 461.5 257 470C260.5 499.5 282.75 521.75 314.5 521.75C346.5 521.75 371.5 498 371.5 464C371.5 414.5 321 387.5 231 387.5C192 387.5 149.25 395.5 114 407.75ZM444.25 443.5L444.75 446.25L442.75 444C441.5 443 438.75 443.5 438.25 445.5C437.75 446.25 437 449 439.25 450.5L441.75 451.25L439.25 451.75C437 452.75 437.5 455.5 438 457C438.25 458.75 441.5 459.5 442.75 458.5L444.75 456.5L444.5 458.75C444.25 460.25 445.75 462.25 448 462.25C449.75 462.25 451.5 460.25 451.25 458.75L450.5 456.5L452.25 458.5C453.25 459.25 456.5 458.5 457 457.5C458.25 456 458 452.5 456 451.75L453.25 451.25L456 450.25C458.25 449 457.5 447 457.5 445.5C456.75 443.75 453.5 443 452.25 444L450.5 446.25L451.25 443.75C451.5 441.75 449.75 440 448 440C445.75 440 444 441.75 444.25 443.5ZM381.75 295C380 304.25 386.25 312 394 313C402.25 314 409.75 308.5 411.25 298.75C414.25 277.5 431 262.5 452.75 262.5C477.25 262.5 496.25 280.25 496.25 306C496.25 332.5 476 349.75 442.75 349.75C381 349.75 314 314.25 231.25 314.25C189 314.25 150 322 113.75 335C105 338 101 346.5 104 354C106 362 114.25 366.5 123.75 363.25C156.25 349.75 190.75 344.5 231.25 344.5C311.5 344.5 373.5 379.75 442.75 379.75C492 379.75 526 349 526 306C526 264 493.25 232.5 452.75 232.5C415 232.5 386 259.75 381.75 295ZM262.25 198.5C259 205.5 261 214.75 269.5 218C276.75 221.25 285.25 218.5 289.25 209.75C293.5 198.75 303.5 190.25 317 190.25C333.25 190.25 345.25 201.25 345.25 219.25C345.25 237 333.5 248.25 314.25 248.25C279 248.25 251.75 241.25 211 241.25C177.75 241.25 144 248.25 114 258.5C104.75 261.25 101 269.5 104 277.25C106 285.25 114.25 289.5 123.5 286.5C152 276.5 181.75 271.5 211 271.5C249.75 271.5 277.25 277.75 314.25 277.75C351 277.75 375.25 252.5 375.25 219.25C375.25 185.5 349 160.5 317 160.5C291.5 160.5 269.75 177 262.25 198.5ZM444.25 131.25L445.5 152.25L427.75 140.5C423.75 137.5 418 138 415.75 143C413 146.75 414.5 152.5 419.75 155.5L438 165L419.75 174C414 176.75 413.25 182.5 415.25 186.5C417.5 191.5 423.75 192.5 427.75 189.75L445.5 177.75L444.5 198.75C444.25 204 447.75 208.5 453 208.5C458.25 208.5 461.5 204 461.25 198.75L460.5 177.75L477.75 189.75C481.75 192.25 487.75 191 490.25 187C493.25 183 491.5 176.75 486 174L468 165L486 155.25C491.25 152.5 493 147.25 490.5 143C488.25 138.5 481.75 137.5 477.75 140.5L460.5 152.25L461.25 131.5C461.5 125.75 458.25 121.5 453 121.5C447.75 121.5 444 125.75 444.25 131.25Z" fill="black" fill-opacity="0.85"/>
 </g>
</svg>
