<?xml version="1.0" encoding="UTF-8"?>
<!--Generator: Apple Native CoreSVG 326-->
<!DOCTYPE svg
PUBLIC "-//W3C//DTD SVG 1.1//EN"
       "http://www.w3.org/Graphics/SVG/1.1/DTD/svg11.dtd">
<svg version="1.1" xmlns="http://www.w3.org/2000/svg" xmlns:xlink="http://www.w3.org/1999/xlink" viewBox="0 0 651.25 775.962">
 <g>
  <rect height="775.962" opacity="0" width="651.25" x="0" y="0"/>
  <path d="M325.5 713.356C505.25 713.356 651.25 567.606 651.25 387.856C651.25 276.106 595.25 178.856 509.75 120.106C497.75 111.106 482 114.356 475.25 125.356C468.5 136.856 472 149.856 483.25 158.356C556.25 207.856 604.5 292.106 604.5 387.856C604.5 542.106 479.75 666.856 325.5 666.856C171.25 666.856 46.5 542.106 46.5 387.856C46.5 253.856 140.5 142.856 265.25 115.356L265.25 166.106C265.25 186.356 279.25 191.856 295.25 180.606L396.5 109.606C409.75 100.356 410 86.6061 396.5 76.8561L295.5 5.85614C279.25-5.64386 265.25 0.106141 265.25 20.3561L265.25 68.1061C115 95.8561 0 228.356 0 387.856C0 567.606 145.75 713.356 325.5 713.356Z" fill="black" fill-opacity="0.85"/>
  <path d="M240.75 519.356C253 519.356 260.25 510.856 260.25 498.606L260.25 288.356C260.25 274.606 251.75 266.606 238 266.606C226.75 266.606 218.75 271.356 210 278.106L169.75 307.606C164.25 311.856 160.75 316.606 160.75 323.606C160.75 331.856 166.75 338.106 175 338.106C179 338.106 182 336.856 185.25 334.606L220.75 308.106L221 308.106L221 498.606C221 510.856 228.5 519.356 240.75 519.356ZM400.75 521.356C463.75 521.356 485.25 455.356 485.25 392.606C485.25 329.856 463.25 264.356 400.75 264.356C337.25 264.356 316 330.606 316 392.606C316 455.856 338 521.356 400.75 521.356ZM400.75 489.356C369.25 489.356 355.5 444.606 355.5 392.606C355.5 341.106 369.25 296.856 400.75 296.856C432 296.856 445.75 341.356 445.75 392.606C445.75 444.356 432.25 489.356 400.75 489.356Z" fill="black" fill-opacity="0.85"/>
 </g>
</svg>
