<?xml version="1.0" encoding="UTF-8"?>
<!--Generator: Apple Native CoreSVG 326-->
<!DOCTYPE svg
PUBLIC "-//W3C//DTD SVG 1.1//EN"
       "http://www.w3.org/Graphics/SVG/1.1/DTD/svg11.dtd">
<svg version="1.1" xmlns="http://www.w3.org/2000/svg" xmlns:xlink="http://www.w3.org/1999/xlink" viewBox="0 0 651.25 775.962">
 <g>
  <rect height="775.962" opacity="0" width="651.25" x="0" y="0"/>
  <path d="M325.5 713.356C505.25 713.356 651.25 567.606 651.25 387.856C651.25 276.106 595.25 178.856 509.75 120.106C497.75 111.106 482 114.356 475.25 125.356C468.5 136.856 472 149.856 483.25 158.356C556.25 207.856 604.5 292.106 604.5 387.856C604.5 542.106 479.75 666.856 325.5 666.856C171.25 666.856 46.5 542.106 46.5 387.856C46.5 253.856 140.5 142.856 265.25 115.356L265.25 166.106C265.25 186.356 279.25 191.856 295.25 180.606L396.5 109.606C409.75 100.356 410 86.6061 396.5 76.8561L295.5 5.85614C279.25-5.64386 265.25 0.106141 265.25 20.3561L265.25 68.1061C115 95.8561 0 228.356 0 387.856C0 567.606 145.75 713.356 325.5 713.356Z" fill="black" fill-opacity="0.85"/>
  <path d="M251.25 519.606C261.25 519.606 269.75 513.606 269.75 500.356L269.75 465.606L285.75 465.606C296.75 465.606 301.5 458.606 301.5 450.106C301.5 440.606 296.25 434.106 285.75 434.106L269.75 434.106L269.75 295.606C269.75 277.106 257.75 267.106 239.25 267.106C221 267.106 211.75 277.356 203 293.606C182.25 328.356 150.75 383.856 133.5 417.106C129.75 426.106 126.5 434.856 126.5 444.606C126.5 457.106 135.5 465.606 148.5 465.606L233 465.606L233 500.356C233 513.606 241.5 519.606 251.25 519.606ZM233.75 435.106L160.25 435.106L160.25 433.106C178.75 393.856 208.25 341.606 232.25 301.106L233.75 301.106ZM417.5 522.106C467.25 522.106 498.5 484.606 498.5 435.106C498.5 391.356 473 354.606 430 354.606C408 354.606 389.5 364.356 379.75 381.606L378.75 381.606L385.5 302.606L471.25 302.606C480.75 302.606 487 296.356 487 286.606C487 276.856 480.75 270.606 471.25 270.606L376 270.606C361 270.606 353.75 278.356 352.75 293.856L345 391.856C344 404.606 350.75 413.856 363 413.856C372.75 413.856 377 409.856 382.75 402.856C391.25 391.106 403.75 383.856 418.25 383.856C445.75 383.856 460.75 408.356 460.75 435.856C460.75 465.356 445.25 489.856 417.75 489.856C396.25 489.856 381.5 476.106 375.25 457.356C371.5 449.106 365.75 444.856 358.25 444.856C348 444.856 341.75 451.356 341.75 461.356C341.75 465.106 342.25 468.856 343.5 472.356C351.75 503.356 385.75 522.106 417.5 522.106Z" fill="black" fill-opacity="0.85"/>
 </g>
</svg>
