<?xml version="1.0" encoding="UTF-8"?>
<!--Generator: Apple Native CoreSVG 326-->
<!DOCTYPE svg
PUBLIC "-//W3C//DTD SVG 1.1//EN"
       "http://www.w3.org/Graphics/SVG/1.1/DTD/svg11.dtd">
<svg version="1.1" xmlns="http://www.w3.org/2000/svg" xmlns:xlink="http://www.w3.org/1999/xlink" viewBox="0 0 651.25 775.962">
 <g>
  <rect height="775.962" opacity="0" width="651.25" x="0" y="0"/>
  <path d="M325.5 713.356C505.25 713.356 651.25 567.606 651.25 387.856C651.25 228.356 536 95.8561 386 68.1061L386 20.3561C386 0.106141 372-5.64386 355.75 5.85614L254.75 76.8561C241 86.6061 241.25 100.356 254.75 109.606L356 180.606C372 191.856 386 186.356 386 166.106L386 115.356C510.75 142.856 604.5 253.856 604.5 387.856C604.5 542.106 479.75 666.856 325.5 666.856C171.25 666.856 46.5 542.106 46.5 387.856C46.5 292.106 95 207.856 168 158.356C179.25 149.856 182.75 136.856 175.75 125.356C169.25 114.356 153.5 111.106 141.25 120.106C56 178.856 0 276.106 0 387.856C0 567.606 145.75 713.356 325.5 713.356Z" fill="black" fill-opacity="0.85"/>
  <path d="M222.25 521.356C289.5 521.356 310.5 454.606 310.5 389.606C310.5 325.356 285.5 264.606 223.5 264.606C176.25 264.606 143.5 301.106 143.5 350.856C143.5 394.856 170.5 431.356 213.25 431.356C243.75 431.356 266 412.106 273.25 386.356L273.25 386.356C273.25 387.356 273.5 388.606 273.5 389.856C273.75 431.856 264.75 489.356 223.75 489.356C204.25 489.356 192.75 478.856 185.25 463.356C180.75 454.856 176 450.606 167 450.606C156.5 450.606 150.75 458.106 150.75 466.856C150.75 475.106 155.75 484.606 162 491.856C174.25 509.356 195.75 521.356 222.25 521.356ZM223.75 400.856C196.5 400.856 181.5 376.106 181.5 349.606C181.5 322.356 197 296.606 224.25 296.606C250.75 296.606 267.5 322.356 267.5 350.606C267.5 377.606 249.75 400.856 223.75 400.856ZM434.75 521.356C497.75 521.356 519.25 455.106 519.25 392.606C519.25 329.856 497.25 264.356 434.75 264.356C371.25 264.356 350 330.606 350 392.606C350 456.106 372 521.356 434.75 521.356ZM434.75 489.106C403.25 489.106 389.5 444.606 389.5 392.606C389.5 340.856 403.25 296.856 434.75 296.856C466 296.856 479.75 341.106 479.75 392.606C479.75 444.606 466 489.106 434.75 489.106Z" fill="black" fill-opacity="0.85"/>
 </g>
</svg>
