<?xml version="1.0" encoding="UTF-8"?>
<!--Generator: Apple Native CoreSVG 326-->
<!DOCTYPE svg
PUBLIC "-//W3C//DTD SVG 1.1//EN"
       "http://www.w3.org/Graphics/SVG/1.1/DTD/svg11.dtd">
<svg version="1.1" xmlns="http://www.w3.org/2000/svg" xmlns:xlink="http://www.w3.org/1999/xlink" viewBox="0 0 951.25 612.75">
 <g>
  <rect height="612.75" opacity="0" width="951.25" x="0" y="0"/>
  <path d="M475.75 612.75C489.75 612.75 500 602.75 500 588.5L500 23.75C500 10 489.75 0.25 475.75 0.25C461.5 0.25 451.25 10 451.25 23.75L451.25 588.5C451.25 602.75 461.5 612.75 475.75 612.75Z" fill="black" fill-opacity="0.85"/>
  <path d="M392.75 306.25C392.75 292 382.75 282 368.5 282L144.25 282L78.5 283.75L189.5 175.75C194.5 171.25 196.75 164.5 196.75 157.75C196.75 144 186.25 134 172.75 134C165.5 134 159.25 137 153.75 142.75L8.5 288C3.25 293.25 0 299.5 0 306.25C0 313 3.25 319.5 8.5 324.75L153.75 469.75C159.25 475.5 165.5 478.5 172.75 478.5C186.25 478.5 196.75 468.5 196.75 454.75C196.75 448 194.5 441.25 189.5 436.75L78.5 329L144.25 330.75L368.5 330.75C382.75 330.75 392.75 320.75 392.75 306.25ZM558.5 306.25C558.5 320.75 568.5 330.75 582.75 330.75L807 330.75L872.75 329L761.75 436.75C756.75 441.25 754.5 448 754.5 454.75C754.5 468.5 765 478.5 778.5 478.5C785.75 478.5 792 475.5 797.5 469.75L942.75 324.75C948 319.5 951.25 313 951.25 306.25C951.25 299.5 948 293.25 942.75 288L797.5 142.75C792 137 785.75 134 778.5 134C765 134 754.5 144 754.5 157.75C754.5 164.5 756.75 171.25 761.75 175.75L872.75 283.75L807 282L582.75 282C568.5 282 558.5 292 558.5 306.25Z" fill="black" fill-opacity="0.85"/>
 </g>
</svg>
