<?xml version="1.0" encoding="UTF-8"?>
<!--Generator: Apple Native CoreSVG 326-->
<!DOCTYPE svg
PUBLIC "-//W3C//DTD SVG 1.1//EN"
       "http://www.w3.org/Graphics/SVG/1.1/DTD/svg11.dtd">
<svg version="1.1" xmlns="http://www.w3.org/2000/svg" xmlns:xlink="http://www.w3.org/1999/xlink" viewBox="0 0 651.25 782.821">
 <g>
  <rect height="782.821" opacity="0" width="651.25" x="0" y="0"/>
  <path d="M0 391.286C0 555.536 122.25 691.536 280.5 712.786L280.5 762.036C280.5 782.536 294.5 788.036 310.75 776.536L411.75 705.536C425.25 696.036 425 682.286 411.75 672.786L310.5 601.786C294.5 590.536 280.5 596.286 280.5 616.286L280.5 665.286C148 644.786 46.5 530.036 46.5 391.286C46.5 309.286 82 234.786 139.5 183.036C151.75 172.036 151.25 160.036 144.75 151.036C137.25 140.786 121.5 137.036 109 148.036C41.75 208.036 0 295.536 0 391.286ZM651.25 391.286C651.25 226.786 529 90.7857 370.75 69.5357L370.75 20.2857C370.75 0.0356752 356.75-5.71432 340.5 6.03568L239.5 77.0357C225.75 86.5357 226 100.286 239.5 109.536L340.75 180.536C356.75 191.786 370.75 186.286 370.75 166.036L370.75 117.286C503.25 137.786 604.5 252.286 604.5 391.286C604.5 473.286 569.25 547.786 511.5 599.286C499.5 610.286 499.75 622.536 506.5 631.536C513.75 641.786 529.75 645.536 542 634.286C609.5 574.536 651.25 487.036 651.25 391.286Z" fill="black" fill-opacity="0.85"/>
 </g>
</svg>
