<?xml version="1.0" encoding="UTF-8"?>
<!--Generator: Apple Native CoreSVG 326-->
<!DOCTYPE svg
PUBLIC "-//W3C//DTD SVG 1.1//EN"
       "http://www.w3.org/Graphics/SVG/1.1/DTD/svg11.dtd">
<svg version="1.1" xmlns="http://www.w3.org/2000/svg" xmlns:xlink="http://www.w3.org/1999/xlink" viewBox="0 0 533.801 687.75">
 <g>
  <rect height="687.75" opacity="0" width="533.801" x="0" y="0"/>
  <path d="M267.025 687C384.275 687 461.775 609.75 461.775 492L461.775 427.25C461.775 415 452.025 405.25 439.525 405.25C427.275 405.25 417.525 415 417.525 427.25L417.525 492C417.525 582 356.775 642.75 267.025 642.75C177.025 642.75 116.275 582 116.275 492L116.275 194.75C116.275 105 177.025 44.25 267.025 44.25C356.775 44.25 417.525 105 417.525 194.75L417.525 235L461.775 235L461.775 194.75C461.775 77.25 384.275 0 267.025 0C149.275 0 72.0254 77.25 72.0254 194.75L72.0254 492C72.0254 609.75 149.275 687 267.025 687ZM513.275 201.75L367.525 201.75C347.275 201.75 341.775 215.75 353.025 231.75L424.025 333C433.275 346.25 447.025 346.5 456.525 333L527.775 232C539.525 215.75 533.775 201.75 513.275 201.75Z" fill="black" fill-opacity="0.85"/>
 </g>
</svg>
