<?xml version="1.0" encoding="UTF-8"?>
<!--Generator: Apple Native CoreSVG 326-->
<!DOCTYPE svg
PUBLIC "-//W3C//DTD SVG 1.1//EN"
       "http://www.w3.org/Graphics/SVG/1.1/DTD/svg11.dtd">
<svg version="1.1" xmlns="http://www.w3.org/2000/svg" xmlns:xlink="http://www.w3.org/1999/xlink" viewBox="0 0 651.25 651.75">
 <g>
  <rect height="651.75" opacity="0" width="651.25" x="0" y="0"/>
  <path d="M651.25 325.75C651.25 505 505 651.25 325.5 651.25C146.25 651.25 0 505 0 325.75C0 146.25 146.25 0 325.5 0C505 0 651.25 146.25 651.25 325.75ZM449 201.75L449 449.5C449 460.5 457 468.25 468 468.25C479.5 468.25 487.5 460.5 487.5 449.5L487.5 201.75C487.5 190.5 479.5 182.75 468 182.75C457 182.75 449 190.5 449 201.75ZM266.5 209.75C266.5 215.25 268.25 220.5 272.5 224.25L298 249.25L364.25 309.5L303.5 306.75L144.25 306.75C133 306.75 125 314.75 125 325.75C125 337.5 133 345.5 144.25 345.5L303.5 345.5L364.75 342L298.5 402L272.5 426.75C268.25 430.25 266.5 435 266.5 441C266.5 452.25 274.5 459.75 285.5 459.75C290.75 459.75 296.75 457 300.75 453L415.25 340.25C419.75 336 421.75 331 421.75 325.75C421.75 320.5 419.25 315.5 415.25 311.25L300 197.5C296 193 291 191.25 285.75 191.25C275 191.25 266.5 198.75 266.5 209.75Z" fill="black" fill-opacity="0.85"/>
 </g>
</svg>
