<?xml version="1.0" encoding="UTF-8"?>
<!--Generator: Apple Native CoreSVG 326-->
<!DOCTYPE svg
PUBLIC "-//W3C//DTD SVG 1.1//EN"
       "http://www.w3.org/Graphics/SVG/1.1/DTD/svg11.dtd">
<svg version="1.1" xmlns="http://www.w3.org/2000/svg" xmlns:xlink="http://www.w3.org/1999/xlink" viewBox="0 0 651.25 651.75">
 <g>
  <rect height="651.75" opacity="0" width="651.25" x="0" y="0"/>
  <path d="M325.5 651.25C505.25 651.25 651.25 505.5 651.25 325.75C651.25 146 505.25 0 325.5 0C145.75 0 0 146 0 325.75C0 505.5 145.75 651.25 325.5 651.25ZM325.5 604.75C171.25 604.75 46.5 480 46.5 325.75C46.5 171.5 171.25 46.75 325.5 46.75C479.75 46.75 604.5 171.5 604.5 325.75C604.5 480 479.75 604.75 325.5 604.75Z" fill="black" fill-opacity="0.85"/>
  <path d="M295.25 464.75C305.75 464.75 313.25 456.5 313.25 446L313.25 376.5L319.25 376.5C391.25 376.5 435.5 395.25 464.75 452.25C470.25 462.5 477 464.75 484 464.75C492.5 464.75 500.5 457.25 500.5 443.75C500.5 310.5 441 234.75 319.25 234.75L313.25 234.75L313.25 165.25C313.25 154.75 305.75 146 295 146C287 146 281.75 149.75 274 157L134.75 286.75C127.5 293.5 125.5 299.75 125.5 305.25C125.5 311 127.5 317.25 134.75 324L274 454.5C281 461 287.25 464.75 295.25 464.75Z" fill="black" fill-opacity="0.85"/>
 </g>
</svg>
