<?xml version="1.0" encoding="UTF-8"?>
<!--Generator: Apple Native CoreSVG 326-->
<!DOCTYPE svg
PUBLIC "-//W3C//DTD SVG 1.1//EN"
       "http://www.w3.org/Graphics/SVG/1.1/DTD/svg11.dtd">
<svg version="1.1" xmlns="http://www.w3.org/2000/svg" xmlns:xlink="http://www.w3.org/1999/xlink" viewBox="0 0 651.25 651.75">
 <g>
  <rect height="651.75" opacity="0" width="651.25" x="0" y="0"/>
  <path d="M651.25 325.75C651.25 505 505 651.25 325.5 651.25C146.25 651.25 0 505 0 325.75C0 146.25 146.25 0 325.5 0C505 0 651.25 146.25 651.25 325.75ZM303.25 182.25L303.25 379.5L304.75 428.25L283.5 405.75L229 349C225.25 344.25 218.75 342 213.25 342C201.5 342 193 350.5 193 362C193 368 195.25 372.75 199.75 377L309.5 483.5C315 489.25 320 491.25 325.75 491.25C331.75 491.25 336.5 489.25 342.25 483.5L451.75 377C456.25 372.75 458.5 368 458.5 362C458.5 350.5 449.5 342 438 342C432.25 342 426.25 344.25 422.5 349L368 405.75L346.75 428L348.5 379.5L348.5 182.25C348.5 170.25 338.25 160.25 325.75 160.25C313.5 160.25 303.25 170.25 303.25 182.25Z" fill="black" fill-opacity="0.85"/>
 </g>
</svg>
