<?xml version="1.0" encoding="UTF-8"?>
<!--Generator: Apple Native CoreSVG 326-->
<!DOCTYPE svg
PUBLIC "-//W3C//DTD SVG 1.1//EN"
       "http://www.w3.org/Graphics/SVG/1.1/DTD/svg11.dtd">
<svg version="1.1" xmlns="http://www.w3.org/2000/svg" xmlns:xlink="http://www.w3.org/1999/xlink" viewBox="0 0 864.5 584.25">
 <g>
  <rect height="584.25" opacity="0" width="864.5" x="0" y="0"/>
  <path d="M344.75 36L344.75 98.1669L300.5 139.458L300.5 61.25C300.5 58.5 298.5 56.5 295.5 56.5C293 56.5 291 58 289.25 59.5L54.5 283C50.75 286.5 49.25 289.25 49.25 292C49.25 294.75 50.5 297.25 54.5 301L289.5 522.25C291.75 524.5 293.75 525.25 295.75 525.25C298.5 525.25 300.5 523.25 300.5 520.25L300.5 444.912L344.75 486.508L344.75 549.5C344.75 569.25 330.75 583.75 310.75 583.75C296.5 583.75 284.75 577.75 271.25 565L17 326C3.75 313.5 0 302 0 292C0 281.5 3.75 270.25 17 257.5L271.25 20.25C286 6.5 296 0 310.25 0C330.75 0 344.75 16.25 344.75 36Z" fill="black" fill-opacity="0.85"/>
  <path d="M467.75 583.75C487.75 583.75 501.75 569.25 501.75 549.5L501.75 422.75L512.25 422.75C643.25 422.75 724.75 456.5 778.25 561.25C788 580.25 801 583.75 813.75 583.75C829.5 583.75 844 570 844 545.25C844 301.75 736 162.25 512.25 162.25L501.75 162.25L501.75 36C501.75 16.25 487.75 0 467.25 0C452.75 0 443 6.5 428.25 20.25L174 257.5C160.75 270.25 157 281.5 157 292C157 302 160.75 313.5 174 326L428.25 565C441.75 577.75 453.25 583.75 467.75 583.75ZM452.5 525.25C450.75 525.25 448.75 524.5 446.25 522.25L211.5 301C207.5 297.25 206.25 294.75 206.25 292C206.25 289.25 207.5 286.5 211.5 283L446.25 59.5C448 58 450 56.5 452.5 56.5C455.5 56.5 457.25 58.5 457.25 61.25L457.25 193.75C457.25 200.75 460.5 204 467.75 204L506.25 204C721.25 204 799.5 347.5 804.75 519.75C804.75 522.25 803.75 523.75 801.75 523.75C800 523.75 799 522 798 519.25C758.75 432.5 661 381 506.25 381L467.75 381C460.5 381 457.25 384 457.25 391.25L457.25 520.25C457.25 523.25 455.5 525.25 452.5 525.25Z" fill="black" fill-opacity="0.85"/>
 </g>
</svg>
