<?xml version="1.0" encoding="UTF-8"?>
<!--Generator: Apple Native CoreSVG 326-->
<!DOCTYPE svg
PUBLIC "-//W3C//DTD SVG 1.1//EN"
       "http://www.w3.org/Graphics/SVG/1.1/DTD/svg11.dtd">
<svg version="1.1" xmlns="http://www.w3.org/2000/svg" xmlns:xlink="http://www.w3.org/1999/xlink" viewBox="0 0 651.25 651.75">
 <g>
  <rect height="651.75" opacity="0" width="651.25" x="0" y="0"/>
  <path d="M651.25 325.75C651.25 505 505 651.25 325.5 651.25C146.25 651.25 0 505 0 325.75C0 146.25 146.25 0 325.5 0C505 0 651.25 146.25 651.25 325.75ZM376.75 276.5C372 276.5 366.75 279 363 282.5C355.25 290.25 355.25 300.75 362.75 308.5C366.75 312 371.25 314 376.5 314L429.75 313.25L454.25 312.75L440.25 325.5L281 484.5C273.5 492.25 273.5 503.25 281.25 511C288.75 518.5 300 518.75 307.5 511L466.75 352.25L479.75 338.25L479 362.25L478.25 415.5C478.5 421 480 425.5 483.75 429.5C491.25 437 502.25 437 510 429.5C513.25 426.25 515 420.75 515.25 415.25L516.25 295.25C516.25 284 507.5 276 497 276ZM344 141L184.75 300L172.25 313.75L173 289.75L173.5 236.75C173.75 231.5 171.5 226.5 167.75 223C160.25 215.25 149.25 215.25 141.75 223C138.25 226.25 136.25 232 136.25 237L135 356.75C135 367.5 144.25 376.75 154.75 376.5L275 375.75C280.25 375.5 285.25 373.25 288.5 369.75C296.25 362.5 296.25 351.5 288.75 344C285 340 280.5 338.25 275.25 338.25L222 339L197.5 339.5L211.5 326.75L370.5 167.75C378 160 378.25 148.75 370.5 141.25C363 133.75 351.75 133.5 344 141Z" fill="black" fill-opacity="0.85"/>
 </g>
</svg>
