<?xml version="1.0" encoding="UTF-8"?>
<!--Generator: Apple Native CoreSVG 326-->
<!DOCTYPE svg
PUBLIC "-//W3C//DTD SVG 1.1//EN"
       "http://www.w3.org/Graphics/SVG/1.1/DTD/svg11.dtd">
<svg version="1.1" xmlns="http://www.w3.org/2000/svg" xmlns:xlink="http://www.w3.org/1999/xlink" viewBox="0 0 533.579 687.75">
 <g>
  <rect height="687.75" opacity="0" width="533.579" x="0" y="0"/>
  <path d="M266.664 0C149.414 0 72.1644 77.25 72.1644 195L72.1644 259.5C72.1644 272 81.9144 281.75 94.1644 281.75C106.664 281.75 116.414 272 116.414 259.5L116.414 195C116.414 105 176.914 44.25 266.664 44.25C356.664 44.25 417.664 105 417.664 195L417.664 492.25C417.664 582 356.664 642.75 266.664 642.75C176.914 642.75 116.414 582 116.414 492.25L116.414 452L72.1644 452L72.1644 492.25C72.1644 609.75 149.414 687 266.664 687C384.414 687 461.914 609.75 461.914 492.25L461.914 195C461.914 77.25 384.414 0 266.664 0ZM20.4144 485.25L166.164 485.25C186.414 485.25 192.164 471.25 180.664 455.25L109.664 353.75C100.414 340.5 86.6644 340.25 77.1644 353.75L5.91436 455C-5.58564 471.25-0.0856448 485.25 20.4144 485.25Z" fill="black" fill-opacity="0.85"/>
 </g>
</svg>
