<?xml version="1.0" encoding="UTF-8"?>
<!--Generator: Apple Native CoreSVG 326-->
<!DOCTYPE svg
PUBLIC "-//W3C//DTD SVG 1.1//EN"
       "http://www.w3.org/Graphics/SVG/1.1/DTD/svg11.dtd">
<svg version="1.1" xmlns="http://www.w3.org/2000/svg" xmlns:xlink="http://www.w3.org/1999/xlink" viewBox="0 0 651.25 651.75">
 <g>
  <rect height="651.75" opacity="0" width="651.25" x="0" y="0"/>
  <path d="M325.5 651.25C505.25 651.25 651.25 505.5 651.25 325.75C651.25 146 505.25 0 325.5 0C145.75 0 0 146 0 325.75C0 505.5 145.75 651.25 325.5 651.25ZM325.5 604.75C171.25 604.75 46.5 480 46.5 325.75C46.5 171.5 171.25 46.75 325.5 46.75C479.75 46.75 604.5 171.5 604.5 325.75C604.5 480 479.75 604.75 325.5 604.75Z" fill="black" fill-opacity="0.85"/>
  <path d="M488.5 364.75C488.5 290 434.75 243.75 360.5 243.75L256.75 243.75L219.5 244.75L242.75 226.5L283 187.25C286.75 183.75 289.5 178.5 289.5 172.75C289.5 161.25 280.75 152.25 269.25 152.25C263.5 152.25 258.75 154.25 255 158.5L169.25 245.5C164.5 250.25 161.75 256.5 161.75 263.25C161.75 270 164.5 275.75 169.25 280.5L255.25 368.25C259 372.25 263.75 374.25 269.5 374.25C280.75 374.25 289.5 365.5 289.5 354C289.5 348.5 287.25 343.25 283.25 339.25L237.5 295L219.5 281.5L256.75 282.75L360.5 282.75C410.75 282.75 447.75 312 447.75 362.75C447.75 414.25 411.5 446.75 360.25 446.75C355.25 446.75 315 446.75 313.5 446.75C301.75 446.75 292.75 454 292.75 466.75C292.75 479.5 301.75 486.5 314 486.5C315.75 486.5 355.25 486.5 360.25 486.5C434.5 486.5 488.5 439.5 488.5 364.75Z" fill="black" fill-opacity="0.85"/>
 </g>
</svg>
