<?xml version="1.0" encoding="UTF-8"?>
<!--Generator: Apple Native CoreSVG 326-->
<!DOCTYPE svg
PUBLIC "-//W3C//DTD SVG 1.1//EN"
       "http://www.w3.org/Graphics/SVG/1.1/DTD/svg11.dtd">
<svg version="1.1" xmlns="http://www.w3.org/2000/svg" xmlns:xlink="http://www.w3.org/1999/xlink" viewBox="0 0 711.031 712.438">
 <g>
  <rect height="712.438" opacity="0" width="711.031" x="0" y="0"/>
  <path d="M711.016 289.594C711.516 274.094 699.766 263.344 685.266 263.844L452.516 265.594C445.516 265.594 438.516 268.344 434.016 272.844C423.766 282.844 424.016 297.094 434.016 307.094C439.016 311.844 444.266 314.094 451.266 314.094L553.266 312.844L635.766 308.344L582.266 358.094L270.516 669.594C260.516 679.594 260.266 694.094 270.516 704.344C280.766 714.594 295.016 714.344 305.016 704.344L616.766 392.594L666.516 339.344L662.016 421.594L660.766 523.344C660.766 530.344 663.016 536.094 668.016 540.844C677.766 550.844 691.766 551.094 702.016 540.844C706.516 536.344 709.266 529.344 709.266 522.094Z" fill="black" fill-opacity="0.85"/>
  <path d="M0.015705 422.094C-0.484295 437.344 11.0157 448.844 25.7657 448.344L258.516 446.594C265.766 446.594 272.516 443.594 277.266 439.094C287.516 428.844 287.266 414.844 277.266 404.844C272.266 399.844 266.516 397.594 259.766 397.594L158.016 398.844L75.5157 403.594L129.016 353.844L440.516 42.094C450.516 32.094 450.766 17.594 440.516 7.59404C430.516-2.65596 415.766-2.40596 406.016 7.59404L94.2657 319.344L44.5157 372.594L49.0157 290.094L50.5157 188.344C50.5157 181.594 48.2657 175.844 43.2657 170.844C33.2657 161.094 19.0157 160.844 9.01571 170.844C4.51571 175.344 1.51571 182.594 1.51571 189.594Z" fill="black" fill-opacity="0.85"/>
 </g>
</svg>
