<?xml version="1.0" encoding="UTF-8"?>
<!--Generator: Apple Native CoreSVG 326-->
<!DOCTYPE svg
PUBLIC "-//W3C//DTD SVG 1.1//EN"
       "http://www.w3.org/Graphics/SVG/1.1/DTD/svg11.dtd">
<svg version="1.1" xmlns="http://www.w3.org/2000/svg" xmlns:xlink="http://www.w3.org/1999/xlink" viewBox="0 0 630 646.75">
 <g>
  <rect height="646.75" opacity="0" width="630" x="0" y="0"/>
  <path d="M52.5 289.5L240 289.5C267.75 289.5 284 273 284 245.25L284 58C284 43.75 273.5 32.5 258.75 32.5C244.5 32.5 234 43.5 234 58L234 102L239.75 212.25L146.75 116L44.25 12.5C39.5 7.75 33.5 5.25 26.75 5.25C11.5 5.25 0 15.5 0 31C0 38 2.5 44.75 7.5 49.5L110.75 152.75L207 245.25L96.5 239.5L52.5 239.5C38 239.5 27 249.5 26.75 264.25C26.75 279 37.75 289.5 52.5 289.5ZM367.25 622.25C381.75 622.25 392 611.25 392 596.75L392 546.25L386.25 436.25L479.25 532.5L585.75 639.5C590.25 644.5 596.5 646.75 603 646.75C618.5 646.75 630 636.75 630 621.25C630 614.25 627.25 607.5 622.25 602.5L515.5 495.75L419 403L529.5 409L580 409C594.25 409 605.5 398.75 605.75 384C605.75 369.5 594.75 359 580 359L386 359C358.25 359 342 375.25 342 403L342 596.75C342 611 352.5 622.25 367.25 622.25Z" fill="black" fill-opacity="0.85"/>
 </g>
</svg>
