<?xml version="1.0" encoding="UTF-8"?>
<!--Generator: Apple Native CoreSVG 326-->
<!DOCTYPE svg
PUBLIC "-//W3C//DTD SVG 1.1//EN"
       "http://www.w3.org/Graphics/SVG/1.1/DTD/svg11.dtd">
<svg version="1.1" xmlns="http://www.w3.org/2000/svg" xmlns:xlink="http://www.w3.org/1999/xlink" viewBox="0 0 651.25 651.75">
 <g>
  <rect height="651.75" opacity="0" width="651.25" x="0" y="0"/>
  <path d="M651.25 325.75C651.25 505 505 651.25 325.5 651.25C146.25 651.25 0 505 0 325.75C0 146.25 146.25 0 325.5 0C505 0 651.25 146.25 651.25 325.75ZM256 161.75L172 246.5C167 251.75 164.5 258.25 164.5 264.75C164.5 271.25 166.75 277.25 172 282.75L256.25 368.5C260 372.25 265 374.5 271.25 374.5C283 374.5 291.75 365.25 291.75 353.25C291.75 347.25 289.25 342 285.25 337.75L241.25 295L226.25 284.25L259 285.5L360 285.5C410.75 285.5 444.25 316 444.25 362C444.25 410.25 410.25 442.75 359.75 442.75L314.25 442.75C301.25 442.75 292.5 451 292.5 463.25C292.5 475.75 301.5 484 314.75 484L359.75 484C435 484 485.75 435.5 485.75 362C485.75 291.25 435.25 244.25 360 244.25L259 244.25L226 245.5L246.25 229.75L285.25 191.75C289.25 188 291.75 182.5 291.75 176.75C291.75 164.75 283.25 155.5 271 155.5C264.75 155.5 260 157.5 256 161.75Z" fill="black" fill-opacity="0.85"/>
 </g>
</svg>
