<?xml version="1.0" encoding="UTF-8"?>
<!--Generator: Apple Native CoreSVG 326-->
<!DOCTYPE svg
PUBLIC "-//W3C//DTD SVG 1.1//EN"
       "http://www.w3.org/Graphics/SVG/1.1/DTD/svg11.dtd">
<svg version="1.1" xmlns="http://www.w3.org/2000/svg" xmlns:xlink="http://www.w3.org/1999/xlink" viewBox="0 0 587.75 587.75">
 <g>
  <rect height="587.75" opacity="0" width="587.75" x="0" y="0"/>
  <path d="M587.75 96.5L587.75 491.5C587.75 555 555 587.75 490.25 587.75L97.25 587.75C32.75 587.75 0 555.5 0 491.5L0 96.5C0 32.5 32.75 0 97.25 0L490.25 0C555 0 587.75 32.75 587.75 96.5ZM420.75 170L420.75 417.75C420.75 428.75 428.75 436.75 439.5 436.75C451 436.75 459.25 428.75 459.25 417.75L459.25 170C459.25 158.75 451 151 439.5 151C428.75 151 420.75 158.75 420.75 170ZM238.25 178C238.25 183.5 240 188.75 244.25 192.75L269.75 217.75L336 277.75L275.25 275L116 275C104.5 275 96.5 283 96.5 294C96.5 305.75 104.5 313.75 116 313.75L275.25 313.75L336.25 310.25L270.25 370.5L244.25 395C240 398.5 238.25 403.25 238.25 409.5C238.25 420.5 246 428.25 257.25 428.25C262.25 428.25 268.25 425.25 272.25 421.25L386.75 308.5C391.25 304.5 393.5 299.5 393.5 294C393.5 288.75 390.75 283.75 386.75 279.5L271.75 165.75C267.75 161.25 262.5 159.5 257.25 159.5C246.5 159.5 238.25 167 238.25 178Z" fill="black" fill-opacity="0.85"/>
 </g>
</svg>
