<?xml version="1.0" encoding="UTF-8"?>
<!--Generator: Apple Native CoreSVG 326-->
<!DOCTYPE svg
PUBLIC "-//W3C//DTD SVG 1.1//EN"
       "http://www.w3.org/Graphics/SVG/1.1/DTD/svg11.dtd">
<svg version="1.1" xmlns="http://www.w3.org/2000/svg" xmlns:xlink="http://www.w3.org/1999/xlink" viewBox="0 0 651.25 651.75">
 <g>
  <rect height="651.75" opacity="0" width="651.25" x="0" y="0"/>
  <path d="M325.5 651.25C505.25 651.25 651.25 505.5 651.25 325.75C651.25 146 505.25 0 325.5 0C145.75 0 0 146 0 325.75C0 505.5 145.75 651.25 325.5 651.25ZM325.5 604.75C171.25 604.75 46.5 480 46.5 325.75C46.5 171.5 171.25 46.75 325.5 46.75C479.75 46.75 604.5 171.5 604.5 325.75C604.5 480 479.75 604.75 325.5 604.75Z" fill="black" fill-opacity="0.85"/>
  <path d="M251.25 460C261.75 460 269 453 269 445.75L269 431.75L166.5 337.25C155.5 327 150.5 316 150.5 304.25C150.5 292.5 155.5 281.25 166.5 271.25L269 177L269 163.25C269 155.5 261.75 148.5 251 148.5C243.25 148.5 238.25 151.75 230.5 159L94.75 286C87.5 292.75 85.75 298.5 85.75 304.25C85.75 309.75 87.5 315.75 94.75 322.5L230.5 449.5C238 456.5 243.5 460 251.25 460ZM337.5 460C347.5 460 355 452.25 355 441.5L355 373.5L360.75 373.5C431.5 373.5 476 392 503.25 448C508.25 457.75 515.25 460 522.25 460C531 460 538 452.5 538 439.75C538 309 479.5 235.75 360.75 235.75L355 235.75L355 167.5C355 157.25 347.5 148.5 337.25 148.5C329.5 148.5 324.5 152 316.75 159L181 286C173.75 293 171.75 298.5 171.75 304.25C171.75 309.75 173.75 315.5 181 322.5L316.75 449.5C324 456.5 330 460 337.5 460Z" fill="black" fill-opacity="0.85"/>
 </g>
</svg>
