<?xml version="1.0" encoding="UTF-8"?>
<!--Generator: Apple Native CoreSVG 326-->
<!DOCTYPE svg
PUBLIC "-//W3C//DTD SVG 1.1//EN"
       "http://www.w3.org/Graphics/SVG/1.1/DTD/svg11.dtd">
<svg version="1.1" xmlns="http://www.w3.org/2000/svg" xmlns:xlink="http://www.w3.org/1999/xlink" viewBox="0 0 651.25 651.75">
 <g>
  <rect height="651.75" opacity="0" width="651.25" x="0" y="0"/>
  <path d="M325.5 651.25C505.25 651.25 651.25 505.5 651.25 325.75C651.25 146 505.25 0 325.5 0C145.75 0 0 146 0 325.75C0 505.5 145.75 651.25 325.5 651.25ZM325.5 604.75C171.25 604.75 46.5 480 46.5 325.75C46.5 171.5 171.25 46.75 325.5 46.75C479.75 46.75 604.5 171.5 604.5 325.75C604.5 480 479.75 604.75 325.5 604.75Z" fill="black" fill-opacity="0.85"/>
  <path d="M520.5 325.75C520.5 319.75 518 314.75 512.75 309.75L418.75 215.5C415 211.75 410 209.5 404.25 209.5C392.75 209.5 384.25 218.5 384.25 229.75C384.25 235.75 386.5 240.75 390.75 244.5L418.75 272.25L458.5 307.25L395.5 305L254.5 305L191.5 307.25L231.25 272.25L259.5 244.5C263.5 240.75 265.75 235.75 265.75 229.75C265.75 218.5 257.5 209.5 246 209.5C240 209.5 235.25 211.75 231.5 215.5L137.5 309.75C132.25 314.75 129.75 319.75 129.75 325.75C129.75 331.5 132.25 336.25 137.5 341.75L231.5 436C235.25 439.75 240 441.75 246 441.75C257.5 441.75 265.75 433 265.75 422C265.75 415.75 263.25 410.75 259.5 407L231.25 379L191.75 344.25L254.5 346.5L395.5 346.5L458.25 344.25L418.75 379L390.75 407C386.75 410.75 384.25 415.75 384.25 422C384.25 433 392.75 441.75 404.25 441.75C410 441.75 415 439.75 418.75 436L512.75 341.75C518 336.25 520.5 331.5 520.5 325.75Z" fill="black" fill-opacity="0.85"/>
 </g>
</svg>
