<?xml version="1.0" encoding="UTF-8"?>
<!--Generator: Apple Native CoreSVG 326-->
<!DOCTYPE svg
PUBLIC "-//W3C//DTD SVG 1.1//EN"
       "http://www.w3.org/Graphics/SVG/1.1/DTD/svg11.dtd">
<svg version="1.1" xmlns="http://www.w3.org/2000/svg" xmlns:xlink="http://www.w3.org/1999/xlink" viewBox="0 0 651.25 651.75">
 <g>
  <rect height="651.75" opacity="0" width="651.25" x="0" y="0"/>
  <path d="M325.5 651.25C505.25 651.25 651.25 505.5 651.25 325.75C651.25 146 505.25 0 325.5 0C145.75 0 0 146 0 325.75C0 505.5 145.75 651.25 325.5 651.25ZM325.5 604.75C171.25 604.75 46.5 480 46.5 325.75C46.5 171.5 171.25 46.75 325.5 46.75C479.75 46.75 604.5 171.5 604.5 325.75C604.5 480 479.75 604.75 325.5 604.75Z" fill="black" fill-opacity="0.85"/>
  <path d="M487.75 325.5C487.75 319.75 485.75 315 480.25 309.5L376.25 202.5C372 198.25 367.75 196 361.75 196C350.5 196 342.25 204.75 342.25 216C342.25 221.5 344.5 227.25 349 231L404.75 284.25L426.5 305.25L379.25 303.5L186.25 303.5C174.5 303.5 164.75 313.5 164.75 325.5C164.75 337.25 174.5 347.25 186.25 347.25L379.25 347.25L426.75 345.75L404.75 366.75L349 420C344.5 423.75 342.25 429.75 342.25 435.25C342.25 446.5 350.5 455 361.75 455C367.75 455 372 452.75 376.25 448.5L480.25 341.25C485.75 335.75 487.75 331 487.75 325.5Z" fill="black" fill-opacity="0.85"/>
 </g>
</svg>
