<?xml version="1.0" encoding="UTF-8"?>
<!--Generator: Apple Native CoreSVG 326-->
<!DOCTYPE svg
PUBLIC "-//W3C//DTD SVG 1.1//EN"
       "http://www.w3.org/Graphics/SVG/1.1/DTD/svg11.dtd">
<svg version="1.1" xmlns="http://www.w3.org/2000/svg" xmlns:xlink="http://www.w3.org/1999/xlink" viewBox="0 0 587.75 587.75">
 <g>
  <rect height="587.75" opacity="0" width="587.75" x="0" y="0"/>
  <path d="M97.25 587.75L490.25 587.75C555 587.75 587.75 555 587.75 491.5L587.75 96.5C587.75 32.75 555 0 490.25 0L97.25 0C32.75 0 0 32.5 0 96.5L0 491.5C0 555.5 32.75 587.75 97.25 587.75ZM98.25 543.5C63.25 543.5 44.25 525 44.25 489L44.25 98.75C44.25 63 63.25 44.25 98.25 44.25L489.5 44.25C523.75 44.25 543.5 63 543.5 98.75L543.5 489C543.5 525 523.75 543.5 489.5 543.5Z" fill="black" fill-opacity="0.85"/>
  <path d="M190.25 214.75C178 214.75 170 224 170 236.75L170 394.5C170 410.5 178.75 417 192.75 417L351.25 417C364.25 417 372.5 409.25 372.5 397C372.5 384.75 364 376.75 350.75 376.75L280 376.75L233 380.75L279 337.5L411 205.5C415 201.75 417.75 196.25 417.75 190.5C417.75 178 409.5 170 397.25 170C390.5 170 385.25 172.5 381.5 176.5L249.5 308.25L206.75 353.75L210.5 301.75L210.5 236.25C210.5 223.25 202.5 214.75 190.25 214.75Z" fill="black" fill-opacity="0.85"/>
 </g>
</svg>
