<?xml version="1.0" encoding="UTF-8"?>
<!--Generator: Apple Native CoreSVG 326-->
<!DOCTYPE svg
PUBLIC "-//W3C//DTD SVG 1.1//EN"
       "http://www.w3.org/Graphics/SVG/1.1/DTD/svg11.dtd">
<svg version="1.1" xmlns="http://www.w3.org/2000/svg" xmlns:xlink="http://www.w3.org/1999/xlink" viewBox="0 0 587.75 587.75">
 <g>
  <rect height="587.75" opacity="0" width="587.75" x="0" y="0"/>
  <path d="M587.75 96.5L587.75 491.5C587.75 555 555 587.75 490.25 587.75L97.25 587.75C32.75 587.75 0 555.5 0 491.5L0 96.5C0 32.5 32.75 0 97.25 0L490.25 0C555 0 587.75 32.75 587.75 96.5ZM170.25 429.75C159 429.75 151.25 437.75 151.25 448.5C151.25 460.25 159 468.25 170.25 468.25L418 468.25C429 468.25 436.75 460.25 436.75 448.5C436.75 437.75 429 429.75 418 429.75ZM274.25 125L274.25 284.25L277.5 345.25L216.75 278.75L192.75 253.25C189.25 249 184.5 247.25 178.5 247.25C167.25 247.25 159.75 255 159.75 266C159.75 271 162.25 277 166 280.75L279.25 395.75C283.5 400.5 288.5 402.5 293.75 402.5C299 402.5 304 400 308.25 395.75L421.5 281.25C426.25 276.75 428.25 271.75 428.25 266C428.25 255.5 420.75 247.25 409.75 247.25C404.25 247.25 399 249 395.25 253.25L369.5 279.25L310 345L313 284.25L313 125C313 113.75 304.75 105.5 293.75 105.5C282 105.5 274.25 113.75 274.25 125Z" fill="black" fill-opacity="0.85"/>
 </g>
</svg>
