<?xml version="1.0" encoding="UTF-8"?>
<!--Generator: Apple Native CoreSVG 326-->
<!DOCTYPE svg
PUBLIC "-//W3C//DTD SVG 1.1//EN"
       "http://www.w3.org/Graphics/SVG/1.1/DTD/svg11.dtd">
<svg version="1.1" xmlns="http://www.w3.org/2000/svg" xmlns:xlink="http://www.w3.org/1999/xlink" viewBox="0 0 591.75 764.75">
 <g>
  <rect height="764.75" opacity="0" width="591.75" x="0" y="0"/>
  <path d="M0 375.75C0 390 10 400.25 24.25 400.25L568.25 400.25C582 400.25 591.75 390 591.75 375.75C591.75 361.75 582 351.5 568.25 351.5L24.25 351.5C10 351.5 0 361.75 0 375.75Z" fill="black" fill-opacity="0.85"/>
  <path d="M296 314.75C310.25 314.75 320.5 304.75 320.5 290.5L320.5 144L318.75 76.75L408.5 171.5C413.25 176.5 419.75 178.5 426.5 178.5C440.25 178.5 450.25 168 450.25 154.5C450.25 147.5 447.25 141.5 441.75 135.5L314.25 8.25C309.25 3 302.75 0 296 0C289.25 0 283 3 277.75 8.25L150.5 135.5C145 141.5 142 147.5 142 154.5C142 168 152 178.5 165.75 178.5C172.5 178.5 179 176.5 183.75 171.5L273.5 76.75L271.75 144L271.75 290.5C271.75 304.75 281.75 314.75 296 314.75ZM296 437C281.75 437 271.75 447 271.75 461.25L271.75 607.5L273.5 675L183.75 580.25C179 575.25 172.5 573.25 165.75 573.25C152 573.25 142 583.5 142 597.25C142 604.25 145 610.25 150.5 616.25L277.75 743.5C283 748.75 289.25 751.75 296 751.75C302.75 751.75 309.25 748.75 314.25 743.5L441.75 616.25C447.25 610.25 450.25 604.25 450.25 597.25C450.25 583.5 440.25 573.25 426.5 573.25C419.75 573.25 413.25 575.25 408.5 580.25L318.75 675L320.5 607.5L320.5 461.25C320.5 447 310.25 437 296 437Z" fill="black" fill-opacity="0.85"/>
 </g>
</svg>
