<?xml version="1.0" encoding="UTF-8"?>
<!--Generator: Apple Native CoreSVG 326-->
<!DOCTYPE svg
PUBLIC "-//W3C//DTD SVG 1.1//EN"
       "http://www.w3.org/Graphics/SVG/1.1/DTD/svg11.dtd">
<svg version="1.1" xmlns="http://www.w3.org/2000/svg" xmlns:xlink="http://www.w3.org/1999/xlink" viewBox="0 0 757.5 587.75">
 <g>
  <rect height="587.75" opacity="0" width="757.5" x="0" y="0"/>
  <path d="M757.5 96.5L757.5 491.5C757.5 555 724.75 587.75 660 587.75L97.25 587.75C32.75 587.75 0 555.5 0 491.5L0 96.5C0 32.5 32.75 0 97.25 0L660 0C724.75 0 757.5 32.75 757.5 96.5ZM398.75 328.25C398.75 333.75 401.75 339.25 405.25 343L486 424L527.75 462.75L485.75 459.25L434.5 459.25C421.75 459.25 413 467.5 413 479.5C413 491.5 421.75 500 434 500L569 500C582.5 500 591.5 493 591.5 477.5L591.5 343.5C591.5 330.75 583.25 321.5 571 321.5C559 321.5 550.75 330.25 550.75 343L550.75 388.75L554.25 435.5L515.5 394.5L434.75 314C430.75 310 425.75 307.5 419 307.5C407 307.5 398.75 315.75 398.75 328.25ZM188.5 88C175 88 166 94.75 166 110.25L166 244.5C166 257 174.25 266.25 186.25 266.25C198.5 266.25 206.75 257.5 206.75 245L206.75 199L203.25 152.25L242 193.25L322.5 274C326.75 277.75 331.5 280.25 338.5 280.25C350.5 280.25 358.75 272.25 358.75 259.75C358.75 254 355.75 248.75 352 244.75L271.25 163.75L229.5 125L271.5 128.75L323 128.75C335.75 128.75 344.5 120.5 344.5 108.25C344.5 96.25 335.75 88 323.5 88Z" fill="black" fill-opacity="0.85"/>
 </g>
</svg>
