<?xml version="1.0" encoding="UTF-8"?>
<!--Generator: Apple Native CoreSVG 326-->
<!DOCTYPE svg
PUBLIC "-//W3C//DTD SVG 1.1//EN"
       "http://www.w3.org/Graphics/SVG/1.1/DTD/svg11.dtd">
<svg version="1.1" xmlns="http://www.w3.org/2000/svg" xmlns:xlink="http://www.w3.org/1999/xlink" viewBox="0 0 587.75 587.75">
 <g>
  <rect height="587.75" opacity="0" width="587.75" x="0" y="0"/>
  <path d="M587.75 96.5L587.75 491.5C587.75 555 555 587.75 490.25 587.75L97.25 587.75C32.75 587.75 0 555.5 0 491.5L0 96.5C0 32.5 32.75 0 97.25 0L490.25 0C555 0 587.75 32.75 587.75 96.5ZM277.75 135.75L168 242.25C163.75 246.5 161.25 251.25 161.25 257.25C161.25 268.75 170 277.25 181.75 277.25C187.25 277.25 193.5 275 197.5 270.25L251.75 213.5L273.25 191.25L271.5 240L271.5 437C271.5 449 281.75 459.25 294.25 459.25C306.5 459.25 316.75 449 316.75 437L316.75 240L315.25 191.25L336.5 213.5L390.75 270.25C394.75 275 400.75 277.25 406.25 277.25C417.75 277.25 427 268.75 427 257.25C427 251.25 424.5 246.5 420 242.25L310.5 135.75C305 130 300 128.25 294.25 128.25C288.25 128.25 283.5 130 277.75 135.75Z" fill="black" fill-opacity="0.85"/>
 </g>
</svg>
