<?xml version="1.0" encoding="UTF-8"?>
<!--Generator: Apple Native CoreSVG 326-->
<!DOCTYPE svg
PUBLIC "-//W3C//DTD SVG 1.1//EN"
       "http://www.w3.org/Graphics/SVG/1.1/DTD/svg11.dtd">
<svg version="1.1" xmlns="http://www.w3.org/2000/svg" xmlns:xlink="http://www.w3.org/1999/xlink" viewBox="0 0 587.75 587.75">
 <g>
  <rect height="587.75" opacity="0" width="587.75" x="0" y="0"/>
  <path d="M587.75 96.5L587.75 491.5C587.75 555 555 587.75 490.25 587.75L97.25 587.75C32.75 587.75 0 555.5 0 491.5L0 96.5C0 32.5 32.75 0 97.25 0L490.25 0C555 0 587.75 32.75 587.75 96.5ZM268 122.75C268 128 270 133 273.25 136.25L303 166.5C299 166.25 293.75 165.5 289 165.5C214 165.5 148.5 228.5 148.5 308.75C148.5 390.5 213.25 455.75 294 455.75C375 455.75 439.5 390.5 439.5 309.75C439.5 299 430.25 290 419.75 290C408.75 290 399.75 299 399.75 309.75C399.75 368.75 352.75 416 294 416C235 416 188.25 368.75 188.25 309.75C188.25 251 235 204 294 204C300.75 204 307.25 204.5 312.5 205.75L274.25 243.75C270.25 247.5 268.25 252.25 268.25 257.5C268.25 267.75 276.25 276 287 276C291.5 276 296.5 273.5 299.5 270.5L365.25 204.25C372.5 197 372.25 184 365.25 176.5L300.5 110.5C297 106.5 292 104 286.75 104C276 104 268 112.25 268 122.75Z" fill="black" fill-opacity="0.85"/>
 </g>
</svg>
