<?xml version="1.0" encoding="UTF-8"?>
<!--Generator: Apple Native CoreSVG 326-->
<!DOCTYPE svg
PUBLIC "-//W3C//DTD SVG 1.1//EN"
       "http://www.w3.org/Graphics/SVG/1.1/DTD/svg11.dtd">
<svg version="1.1" xmlns="http://www.w3.org/2000/svg" xmlns:xlink="http://www.w3.org/1999/xlink" viewBox="0 0 864.5 667.75">
 <g>
  <rect height="667.75" opacity="0" width="864.5" x="0" y="0"/>
  <path d="M306 369.25C334.75 351.5 335.75 317.25 306 299.25L60.75 148.5C32.5 131.25 0 143 0 180.25L0 488.25C0 526 33 537 60.75 519.75ZM277 341.75L53.5 480.25C49 483.25 40.25 483.75 40.25 473.5L40.25 195C40.25 184.25 49.5 185.5 53.5 188.25L276.75 326.25C285.5 331.75 282.75 338.5 277 341.75ZM432.25 667.75C443.25 667.75 452.75 659.25 452.75 648.25L452.75 20.25C452.75 9.25 443.25 0.75 432.25 0.75C421.5 0.75 412 9.25 412 20.25L412 648.25C412 659.25 421.5 667.75 432.25 667.75ZM803.75 519.75C831.75 537 864.5 526 864.5 488.25L864.5 180.25C864.5 143 832.25 131.25 803.75 148.5L558.5 299.25C528.75 317.25 529.75 351.5 558.5 369.25ZM811 480.25L587.5 341.75C581.75 338.5 579.25 331.75 587.75 326.25L811 188.25C815 185.5 824.5 184.25 824.5 195L824.5 473.5C824.5 483.75 815.5 483.25 811 480.25Z" fill="black" fill-opacity="0.85"/>
 </g>
</svg>
