<?xml version="1.0" encoding="UTF-8"?>
<!--Generator: Apple Native CoreSVG 326-->
<!DOCTYPE svg
PUBLIC "-//W3C//DTD SVG 1.1//EN"
       "http://www.w3.org/Graphics/SVG/1.1/DTD/svg11.dtd">
<svg version="1.1" xmlns="http://www.w3.org/2000/svg" xmlns:xlink="http://www.w3.org/1999/xlink" viewBox="0 0 587.75 587.75">
 <g>
  <rect height="587.75" opacity="0" width="587.75" x="0" y="0"/>
  <path d="M97.25 587.75L490.25 587.75C555 587.75 587.75 555 587.75 491.5L587.75 96.5C587.75 32.75 555 0 490.25 0L97.25 0C32.75 0 0 32.5 0 96.5L0 491.5C0 555.5 32.75 587.75 97.25 587.75ZM98.25 543.5C63.25 543.5 44.25 525 44.25 489L44.25 98.75C44.25 63 63.25 44.25 98.25 44.25L489.5 44.25C523.75 44.25 543.5 63 543.5 98.75L543.5 489C543.5 525 523.75 543.5 489.5 543.5Z" fill="black" fill-opacity="0.85"/>
  <path d="M480.25 324.25L479.25 207.25C479.25 202.25 477 197 473.75 193.5C466.5 186 456 186 448.5 193.5C445 196.75 442.75 201.75 443 206.75L443.5 259L444.25 282.5L431.75 269L276.25 113.5C268.75 106 257.5 106.25 250.25 113.5C243 121 243.25 132 250.25 139.25L406 295L419.75 307.5L395.5 307L343.5 306.25C338.5 306.25 333.75 308 330.25 311.75C323 319 323 329.75 330.5 336.75C333.75 340.25 338.5 342.25 343.75 342.5L461.25 343.25C471.25 343.5 480.25 334.5 480.25 324.25ZM108 263.75L109 381.25C109.25 386.5 111.25 391.5 114.25 395C121.75 402 132.5 402 139.5 395C143.25 391.25 144.75 386.5 145 381.5L144.25 329.25L143.25 305.5L156.25 319L312 474.75C319.5 482.25 330.25 481.75 337.75 474.75C345 467 345 456.25 337.75 449L182 293.25L168.25 280.75L192.5 281.25L244.75 282C249.75 282 254.25 280 257.75 276.75C265.25 269.25 265.25 259 257.5 251.5C254.25 248 249 245.75 244.5 245.75L127 245.25C116.5 245.25 108 253 108 263.75Z" fill="black" fill-opacity="0.85"/>
 </g>
</svg>
