<?xml version="1.0" encoding="UTF-8"?>
<!--Generator: Apple Native CoreSVG 326-->
<!DOCTYPE svg
PUBLIC "-//W3C//DTD SVG 1.1//EN"
       "http://www.w3.org/Graphics/SVG/1.1/DTD/svg11.dtd">
<svg version="1.1" xmlns="http://www.w3.org/2000/svg" xmlns:xlink="http://www.w3.org/1999/xlink" viewBox="0 0 587.75 587.75">
 <g>
  <rect height="587.75" opacity="0" width="587.75" x="0" y="0"/>
  <path d="M587.75 96.5L587.75 491.5C587.75 555 555 587.75 490.25 587.75L97.25 587.75C32.75 587.75 0 555.5 0 491.5L0 96.5C0 32.5 32.75 0 97.25 0L490.25 0C555 0 587.75 32.75 587.75 96.5ZM178.5 137.5L94 223C90.75 227 88.25 232.25 88.25 236.75C88.25 247.25 96.25 255.25 106.75 255.25C111.75 255.25 116.5 253 120.25 249.25L157.25 211.5L174 193.75L173.5 213L173.5 437.75C173.5 448.25 181.5 456 192.25 456C203.25 456 211.25 448 211.25 437.75L211.25 212.75L210.25 193.75L227 211.5L264.25 249.75C267.75 253.25 272.75 255.25 277.75 255.25C288.25 255.25 296 247.5 296 236.75C296 231.75 293.75 226.5 290.25 223L206 137.5C198.25 130 186.5 129.5 178.5 137.5ZM377 150.25L377 375.25L377.75 394L361 376L324 338.25C320.25 334.5 315.5 332.75 310.25 332.75C299.5 332.75 292 340.25 292 351C292 356 294 360.75 297.5 365L382 450.5C389.25 457.75 402.25 457.75 409.75 450.5L493.75 365C497.25 361 500 356 500 351C500 340.5 492.25 332.75 481.25 332.75C476.25 332.75 471.5 335 467.75 338.25L430.75 376L414 393.75L414.5 375L414.5 150.25C414.5 139.5 406.5 131.75 395.75 131.75C385 131.75 377 139.75 377 150.25Z" fill="black" fill-opacity="0.85"/>
 </g>
</svg>
