<?xml version="1.0" encoding="UTF-8"?>
<!--Generator: Apple Native CoreSVG 326-->
<!DOCTYPE svg
PUBLIC "-//W3C//DTD SVG 1.1//EN"
       "http://www.w3.org/Graphics/SVG/1.1/DTD/svg11.dtd">
<svg version="1.1" xmlns="http://www.w3.org/2000/svg" xmlns:xlink="http://www.w3.org/1999/xlink" viewBox="0 0 651.25 651.75">
 <g>
  <rect height="651.75" opacity="0" width="651.25" x="0" y="0"/>
  <path d="M325.5 651.25C505.25 651.25 651.25 505.5 651.25 325.75C651.25 146 505.25 0 325.5 0C145.75 0 0 146 0 325.75C0 505.5 145.75 651.25 325.5 651.25ZM325.5 604.75C171.25 604.75 46.5 480 46.5 325.75C46.5 171.5 171.25 46.75 325.5 46.75C479.75 46.75 604.5 171.5 604.5 325.75C604.5 480 479.75 604.75 325.5 604.75Z" fill="black" fill-opacity="0.85"/>
  <path d="M467.25 340.5C467.25 262 403.25 200.5 330 200.5C325.25 200.5 320 201.25 316 201.75L345.5 172C348.75 168.5 350.5 163.75 350.5 158.75C350.5 148.75 342.75 140.75 332.5 140.75C327.5 140.75 322.75 143 319.25 146.75L256 211.25C249 218.5 249 231.25 256 238.25L320 303C323 306 327.75 308.25 332.5 308.25C342.5 308.25 350.25 300.25 350.25 290.5C350.25 285.25 348.5 280.75 344.75 277L307 239.75C312 238.5 318.5 238 325.25 238C383 238 428.75 283.75 428.75 341.25C428.75 399 383 445.25 325.25 445.25C267.75 445.25 222 399 222 341.25C222 331 213.25 322.25 202.5 322.25C192.25 322.25 183.5 331 183.5 341.25C183.5 420.25 246.25 483.75 325.25 483.75C404 483.75 467.25 420.25 467.25 340.5Z" fill="black" fill-opacity="0.85"/>
 </g>
</svg>
