<?xml version="1.0" encoding="UTF-8"?>
<!--Generator: Apple Native CoreSVG 326-->
<!DOCTYPE svg
PUBLIC "-//W3C//DTD SVG 1.1//EN"
       "http://www.w3.org/Graphics/SVG/1.1/DTD/svg11.dtd">
<svg version="1.1" xmlns="http://www.w3.org/2000/svg" xmlns:xlink="http://www.w3.org/1999/xlink" viewBox="0 0 586.5 586.75">
 <g>
  <rect height="586.75" opacity="0" width="586.5" x="0" y="0"/>
  <path d="M550 37C518.75 6 475.5 0 418.25 0L166.5 0C111.25 0 67.75 6 36.75 37C5.75 68 0 111 0 166.5L0 418.25C0 475.75 5.5 518.75 36.5 549.5C67.75 580.5 111 586.5 168.25 586.5L418.25 586.5C475.5 586.5 519 580.5 550 549.5C581 518.5 586.5 475.75 586.5 418.25L586.5 168C586.5 110.75 581 67.75 550 37ZM542.25 159.25L542.25 427C542.25 463.5 537 497.25 517.5 517C497.75 536.75 463.25 542.25 427 542.25L159.5 542.25C123.25 542.25 88.75 536.5 69 517C49.5 497.25 44.25 463.5 44.25 427L44.25 161C44.25 123.25 49.5 89 69 69.25C88.5 49.5 123.5 44.25 161 44.25L427 44.25C463.25 44.25 497.75 49.75 517.5 69.5C537.25 89 542.25 123 542.25 159.25Z" fill="black" fill-opacity="0.85"/>
  <path d="M396.75 371.75C409 371.75 417 362.75 417 349.75L417 192.25C417 176 408.25 169.5 394.25 169.5L235.75 169.5C222.75 169.5 214.5 177.5 214.5 189.5C214.5 201.75 223 210 236.25 210L307 210L354 206L308 249L176 381C172.25 385 169.5 390.25 169.5 396C169.5 408.5 177.5 416.5 189.75 416.5C196.75 416.5 201.75 414 205.75 410.25L337.5 278.5L380.25 232.75L376.5 285L376.5 350.25C376.5 363.5 384.5 371.75 396.75 371.75Z" fill="black" fill-opacity="0.85"/>
 </g>
</svg>
