<?xml version="1.0" encoding="UTF-8"?>
<!--Generator: Apple Native CoreSVG 326-->
<!DOCTYPE svg
PUBLIC "-//W3C//DTD SVG 1.1//EN"
       "http://www.w3.org/Graphics/SVG/1.1/DTD/svg11.dtd">
<svg version="1.1" xmlns="http://www.w3.org/2000/svg" xmlns:xlink="http://www.w3.org/1999/xlink" viewBox="0 0 608 608.75">
 <g>
  <rect height="608.75" opacity="0" width="608" x="0" y="0"/>
  <path d="M0 169.5C0 194 26 199.75 41.5 184.25L184.25 41.5C200.5 25.25 193.75 0 169.75 0L25 0C9.5 0 0 10.25 0 25.5ZM77.75 111.75L495.5 530.5L530.25 496.25L112.5 77.5ZM608 438.25C608 414 582 408.25 566.5 423.75L423.75 566.5C407.5 582.75 414.25 608 438.25 608L583 608C598.5 608 608 597.5 608 582.5ZM608 169.5L608 25.5C608 10.25 598.5 0 583 0L438.25 0C414.25 0 407.5 25.25 423.75 41.5L566.5 184.25C582 199.75 608 194 608 169.5ZM112 530.25L530.5 112L496 77.75L77.5 495.75ZM0 438.25L0 582.5C0 597.5 9.5 608 25 608L169.75 608C193.75 608 200.5 582.75 184.25 566.5L41.5 423.75C26 408.25 0 414 0 438.25Z" fill="black" fill-opacity="0.85"/>
 </g>
</svg>
