<?xml version="1.0" encoding="UTF-8"?>
<!--Generator: Apple Native CoreSVG 326-->
<!DOCTYPE svg
PUBLIC "-//W3C//DTD SVG 1.1//EN"
       "http://www.w3.org/Graphics/SVG/1.1/DTD/svg11.dtd">
<svg version="1.1" xmlns="http://www.w3.org/2000/svg" xmlns:xlink="http://www.w3.org/1999/xlink" viewBox="0 0 651.25 651.75">
 <g>
  <rect height="651.75" opacity="0" width="651.25" x="0" y="0"/>
  <path d="M651.25 325.75C651.25 505 505 651.25 325.5 651.25C146.25 651.25 0 505 0 325.75C0 146.25 146.25 0 325.5 0C505 0 651.25 146.25 651.25 325.75ZM414.75 205.75L280.5 340L236.5 386.75L240.25 333.5L240.25 267C240.25 253.25 232 244.75 219.25 244.75C206.75 244.75 198.5 254 198.5 267.5L198.5 428.75C198.5 445.25 207.5 452.25 222 452.25L384 452.25C397.5 452.25 406.25 444 406.25 431.25C406.25 418.75 397.25 410.5 383.5 410.5L311.75 410.5L263.5 414.5L310.75 370L445.25 235.75C449.5 231.5 452.25 226 452.25 220.25C452.25 207.25 443.75 199 431.25 199C424.25 199 419 201.5 414.75 205.75Z" fill="black" fill-opacity="0.85"/>
 </g>
</svg>
