<?xml version="1.0" encoding="UTF-8"?>
<!--Generator: Apple Native CoreSVG 326-->
<!DOCTYPE svg
PUBLIC "-//W3C//DTD SVG 1.1//EN"
       "http://www.w3.org/Graphics/SVG/1.1/DTD/svg11.dtd">
<svg version="1.1" xmlns="http://www.w3.org/2000/svg" xmlns:xlink="http://www.w3.org/1999/xlink" viewBox="0 0 757.5 587.75">
 <g>
  <rect height="587.75" opacity="0" width="757.5" x="0" y="0"/>
  <path d="M97.25 587.75L660 587.75C724.75 587.75 757.5 555 757.5 491.5L757.5 96.5C757.5 32.75 724.75 0 660 0L97.25 0C32.75 0 0 32.5 0 96.5L0 491.5C0 555.5 32.75 587.75 97.25 587.75ZM98.25 543.5C63.25 543.5 44.25 525 44.25 489L44.25 98.75C44.25 63 63.25 44.25 98.25 44.25L659.25 44.25C693.5 44.25 713 63 713 98.75L713 489C713 525 693.5 543.5 659.25 543.5Z" fill="black" fill-opacity="0.85"/>
  <path d="M299 463.5C311 463.5 319.25 454.5 319.25 441.5L319.25 291.75C319.25 275.75 310.25 269 296.5 269L145.75 269C132.75 269 124.5 277 124.5 289.25C124.5 301.5 133 309.5 146.25 309.5L209.25 309.5L256.25 305.5L210.25 348.75L100.5 458.5C96.5 462.5 93.75 467.75 93.75 473.5C93.75 486 101.75 494 114 494C121 494 126 491.5 130 487.75L239.5 378L282.25 332.5L278.5 384.5L278.5 442C278.5 455.25 286.75 463.5 299 463.5Z" fill="black" fill-opacity="0.85"/>
 </g>
</svg>
