<?xml version="1.0" encoding="UTF-8"?>
<!--Generator: Apple Native CoreSVG 326-->
<!DOCTYPE svg
PUBLIC "-//W3C//DTD SVG 1.1//EN"
       "http://www.w3.org/Graphics/SVG/1.1/DTD/svg11.dtd">
<svg version="1.1" xmlns="http://www.w3.org/2000/svg" xmlns:xlink="http://www.w3.org/1999/xlink" viewBox="0 0 651.25 651.75">
 <g>
  <rect height="651.75" opacity="0" width="651.25" x="0" y="0"/>
  <path d="M325.5 651.25C505.25 651.25 651.25 505.5 651.25 325.75C651.25 146 505.25 0 325.5 0C145.75 0 0 146 0 325.75C0 505.5 145.75 651.25 325.5 651.25ZM325.5 604.75C171.25 604.75 46.5 480 46.5 325.75C46.5 171.5 171.25 46.75 325.5 46.75C479.75 46.75 604.5 171.5 604.5 325.75C604.5 480 479.75 604.75 325.5 604.75Z" fill="black" fill-opacity="0.85"/>
  <path d="M357.25 163.75C282.5 163.75 236.5 217.75 236.5 291.75L236.5 395.5L237.5 433L219 409.5L179.75 369.5C176.25 365.75 171.25 363 165.25 363C153.75 363 145 371.5 145 383C145 389 147 393.5 151.25 397.5L238.25 483C243 487.75 249 490.75 255.75 490.75C262.5 490.75 268.25 487.75 273 483L360.75 397.25C364.75 393.25 366.75 388.75 366.75 382.75C366.75 371.5 358 363 346.5 363C341 363 335.75 365.25 332 369.25L287.75 415L274 433L275.25 395.5L275.25 291.75C275.25 241.75 304.5 204.5 355.25 204.5C407 204.5 439.5 241 439.5 292C439.5 297.25 439.5 337.5 439.5 338.75C439.5 350.5 446.5 359.75 459.25 359.75C472 359.75 479.25 350.5 479.25 338.25C479.25 336.75 479.25 297.25 479.25 292C479.25 218 432 163.75 357.25 163.75Z" fill="black" fill-opacity="0.85"/>
 </g>
</svg>
