<?xml version="1.0" encoding="UTF-8"?>
<!--Generator: Apple Native CoreSVG 326-->
<!DOCTYPE svg
PUBLIC "-//W3C//DTD SVG 1.1//EN"
       "http://www.w3.org/Graphics/SVG/1.1/DTD/svg11.dtd">
<svg version="1.1" xmlns="http://www.w3.org/2000/svg" xmlns:xlink="http://www.w3.org/1999/xlink" viewBox="0 0 606.25 651.25">
 <g>
  <rect height="651.25" opacity="0" width="606.25" x="0" y="0"/>
  <path d="M0 451C0 571.25 80.25 651.25 218 651.25L301.75 651.25C316.5 651.25 326.5 640.5 326.5 627C326.5 613.75 316.75 602.75 301.75 602.75L218.5 602.75C109.25 602.75 48.5 538 48.5 448.5C48.5 359 109.25 297.25 218.5 297.25L458.75 297.25L552.75 293.5L548 281.25L470.25 350L371.5 446.75C367.25 451 365 456.5 365 463.5C365 477.5 374.5 487.75 389.25 487.75C395.25 487.75 402 484.75 406.75 480L598.25 291C603.75 285.75 606.25 279.75 606.25 272.75C606.25 266 603.75 260 598.25 254.75L406.75 65.75C402 61 395.25 58 389.25 58C374.5 58 365 68.25 365 82C365 89.25 367.25 94.75 371.5 99L470.25 195.75L548 264.5L552.75 252.25L458.75 248.5L222.25 248.5C82 248.5 0 330.75 0 451Z" fill="black" fill-opacity="0.85"/>
 </g>
</svg>
