<?xml version="1.0" encoding="UTF-8"?>
<!--Generator: Apple Native CoreSVG 326-->
<!DOCTYPE svg
PUBLIC "-//W3C//DTD SVG 1.1//EN"
       "http://www.w3.org/Graphics/SVG/1.1/DTD/svg11.dtd">
<svg version="1.1" xmlns="http://www.w3.org/2000/svg" xmlns:xlink="http://www.w3.org/1999/xlink" viewBox="0 0 651.25 651.75">
 <g>
  <rect height="651.75" opacity="0" width="651.25" x="0" y="0"/>
  <path d="M325.5 651.25C505.25 651.25 651.25 505.5 651.25 325.75C651.25 146 505.25 0 325.5 0C145.75 0 0 146 0 325.75C0 505.5 145.75 651.25 325.5 651.25ZM325.5 604.75C171.25 604.75 46.5 480 46.5 325.75C46.5 171.5 171.25 46.75 325.5 46.75C479.75 46.75 604.5 171.5 604.5 325.75C604.5 480 479.75 604.75 325.5 604.75Z" fill="black" fill-opacity="0.85"/>
  <path d="M221.5 246.75C209.25 246.75 201.25 256 201.25 268.75L201.25 426.5C201.25 442.5 210.25 449 224 449L382.5 449C395.5 449 403.75 441.25 403.75 429C403.75 416.75 395.25 408.75 382 408.75L311.25 408.75L264.25 412.75L310.25 369.5L442.25 237.5C446.25 233.75 449 228.25 449 222.5C449 210 440.75 202 428.5 202C421.75 202 416.5 204.5 412.75 208.5L280.75 340.25L238 385.75L241.75 333.75L241.75 268.25C241.75 255.25 233.75 246.75 221.5 246.75Z" fill="black" fill-opacity="0.85"/>
 </g>
</svg>
