<?xml version="1.0" encoding="UTF-8"?>
<!--Generator: Apple Native CoreSVG 326-->
<!DOCTYPE svg
PUBLIC "-//W3C//DTD SVG 1.1//EN"
       "http://www.w3.org/Graphics/SVG/1.1/DTD/svg11.dtd">
<svg version="1.1" xmlns="http://www.w3.org/2000/svg" xmlns:xlink="http://www.w3.org/1999/xlink" viewBox="0 0 587.75 587.75">
 <g>
  <rect height="587.75" opacity="0" width="587.75" x="0" y="0"/>
  <path d="M587.75 96.5L587.75 491.5C587.75 555 555 587.75 490.25 587.75L97.25 587.75C32.75 587.75 0 555.5 0 491.5L0 96.5C0 32.5 32.75 0 97.25 0L490.25 0C555 0 587.75 32.75 587.75 96.5ZM354.5 195.25C354.5 201.5 356.75 206.5 361 210.75L389.5 238.75L430.25 274.5L365.5 272L222 272L157.25 274.5L198 238.75L226.75 210.75C230.75 206.5 233 201.5 233 195.25C233 183.5 224.25 174.5 212.75 174.5C206.5 174.5 201.25 176.75 197.75 180.5L101.5 277C96 282.5 93.25 287.5 93.25 293.5C93.25 299.5 96 304.25 101.5 310L197.75 406.75C201.25 410.5 206.5 412.5 212.75 412.5C224.25 412.5 233 403.75 233 392C233 385.5 230.5 380.75 226.75 376.5L198 348.25L157.5 312.75L222 315.25L365.5 315.25L430 312.75L389.5 348.25L361 376.5C357 380.75 354.5 385.5 354.5 392C354.5 403.75 363.25 412.5 375 412.5C381 412.5 386.25 410.5 390 406.75L486.25 310C491.75 304.25 494.25 299.5 494.25 293.5C494.25 287.5 491.75 282.5 486.25 277L390 180.5C386.25 176.75 381 174.5 375 174.5C363.25 174.5 354.5 183.5 354.5 195.25Z" fill="black" fill-opacity="0.85"/>
 </g>
</svg>
