<?xml version="1.0" encoding="UTF-8"?>
<!--Generator: Apple Native CoreSVG 326-->
<!DOCTYPE svg
PUBLIC "-//W3C//DTD SVG 1.1//EN"
       "http://www.w3.org/Graphics/SVG/1.1/DTD/svg11.dtd">
<svg version="1.1" xmlns="http://www.w3.org/2000/svg" xmlns:xlink="http://www.w3.org/1999/xlink" viewBox="0 0 757.5 587.75">
 <g>
  <rect height="587.75" opacity="0" width="757.5" x="0" y="0"/>
  <path d="M97.25 587.75L660 587.75C724.75 587.75 757.5 555 757.5 491.5L757.5 96.5C757.5 32.75 724.75 0 660 0L97.25 0C32.75 0 0 32.5 0 96.5L0 491.5C0 555.5 32.75 587.75 97.25 587.75ZM98.25 543.5C63.25 543.5 44.25 525 44.25 489L44.25 98.75C44.25 63 63.25 44.25 98.25 44.25L659.25 44.25C693.5 44.25 713 63 713 98.75L713 489C713 525 693.5 543.5 659.25 543.5Z" fill="black" fill-opacity="0.85"/>
  <path d="M299 124.25C286.75 124.25 278.5 132.75 278.5 146L278.5 203.25L282.25 255.5L239.5 209.75L130 100.25C126 96.25 121 93.75 114 93.75C101.75 93.75 93.75 102 93.75 114.5C93.75 120 96.5 125.5 100.5 129.25L210.25 239.25L256.25 282.25L209.25 278.25L146.25 278.25C133 278.25 124.5 286.5 124.5 298.75C124.5 310.75 132.75 318.75 145.75 318.75L296.5 318.75C310.25 318.75 319.25 312.25 319.25 296L319.25 146.5C319.25 133.5 311 124.25 299 124.25Z" fill="black" fill-opacity="0.85"/>
 </g>
</svg>
