<?xml version="1.0" encoding="UTF-8"?>
<!--Generator: Apple Native CoreSVG 326-->
<!DOCTYPE svg
PUBLIC "-//W3C//DTD SVG 1.1//EN"
       "http://www.w3.org/Graphics/SVG/1.1/DTD/svg11.dtd">
<svg version="1.1" xmlns="http://www.w3.org/2000/svg" xmlns:xlink="http://www.w3.org/1999/xlink" viewBox="0 0 584 686.75">
 <g>
  <rect height="686.75" opacity="0" width="584" x="0" y="0"/>
  <path d="M292 0C281.75 0 270.25 3.75 258 17L18.75 271C6.25 284.5 0 296.25 0 310.75C0 330.75 14.75 344.5 34.5 344.5L161.25 344.5L161.25 611C161.25 659.25 188 686.75 235.25 686.75L347.5 686.75C394.75 686.75 421.75 659.25 421.75 611L421.75 344.5L548 344.5C567.75 344.5 584 330.75 584 310.25C584 295.75 577.5 285.75 563.5 271L326.25 17C313.75 3.5 302.25 0 292 0ZM292 49.25C294.75 49.25 297.25 50.5 301 54.25L524.25 289C526 291 527.5 293 527.5 295.5C527.5 298.25 525.5 300.25 522.5 300.25L390.25 300.25C383 300.25 380 303.5 380 310.5L380 610.5C380 632.75 367.75 645 345.5 645L237.25 645C215.25 645 203 632.75 203 610.5L203 310.5C203 303.5 199.75 300.25 192.75 300.25L63.75 300.25C60.5 300.25 58.5 298.5 58.5 295.5C58.5 293.5 59.5 291.5 61.75 289.25L283 54.25C286.75 50.25 289.25 49.25 292 49.25Z" fill="black" fill-opacity="0.85"/>
 </g>
</svg>
