<?xml version="1.0" encoding="UTF-8"?>
<!--Generator: Apple Native CoreSVG 326-->
<!DOCTYPE svg
PUBLIC "-//W3C//DTD SVG 1.1//EN"
       "http://www.w3.org/Graphics/SVG/1.1/DTD/svg11.dtd">
<svg version="1.1" xmlns="http://www.w3.org/2000/svg" xmlns:xlink="http://www.w3.org/1999/xlink" viewBox="0 0 723.251 723.564">
 <g>
  <rect height="723.564" opacity="0" width="723.251" x="0" y="0"/>
  <path d="M430.625 34.6568L688.875 292.907C734.625 338.657 734.625 384.657 689.375 429.907L430.125 689.407C384.875 734.657 338.875 734.407 293.125 688.657L34.8753 430.407C-11.1247 384.657-11.6247 338.907 33.8753 293.407L293.625 34.1568C339.125-11.5932 384.875-11.3432 430.625 34.6568ZM407.625 234.157L407.625 278.407L311.875 278.407C250.125 278.407 221.125 307.407 221.125 369.657L221.125 461.907C221.125 477.907 229.125 487.657 243.875 487.407C258.125 487.157 266.625 477.907 266.625 461.907L266.625 371.657C266.625 338.657 281.125 324.157 312.625 324.157L407.625 323.907L407.625 368.407C407.625 388.407 428.125 396.157 443.125 384.407L519.625 324.407C537.625 310.157 537.625 292.407 519.625 277.907L443.125 218.407C428.125 206.157 407.625 214.157 407.625 234.157Z" fill="black" fill-opacity="0.85"/>
 </g>
</svg>
