<?xml version="1.0" encoding="UTF-8"?>
<!--Generator: Apple Native CoreSVG 326-->
<!DOCTYPE svg
PUBLIC "-//W3C//DTD SVG 1.1//EN"
       "http://www.w3.org/Graphics/SVG/1.1/DTD/svg11.dtd">
<svg version="1.1" xmlns="http://www.w3.org/2000/svg" xmlns:xlink="http://www.w3.org/1999/xlink" viewBox="0 0 488 565.25">
 <g>
  <rect height="565.25" opacity="0" width="488" x="0" y="0"/>
  <path d="M244 565.25C258.25 565.25 268.5 555.25 268.5 541L268.5 192.25L266.5 123L357.75 221.5L444.25 307.25C449 312 455.5 314.5 462.25 314.5C476 314.5 486 304 486 290.5C486 283.25 483 277.25 477.5 271.5L262.5 56.5C257.25 51 250.75 48 244 48C237.25 48 231 51 225.75 56.5L10.75 271.5C5.25 277.25 2.25 283.25 2.25 290.5C2.25 304 12.25 314.5 26 314.5C32.75 314.5 39.5 312 44 307.25L130.5 221.5L221.75 122.75L219.75 192.25L219.75 541C219.75 555.25 229.75 565.25 244 565.25ZM23.75 49L464 49C478.25 49 488 38.75 488 24.5C488 10.25 478.25 0 464 0L23.75 0C9.5 0 0 10.25 0 24.5C0 38.75 9.5 49 23.75 49Z" fill="black" fill-opacity="0.85"/>
 </g>
</svg>
