<?xml version="1.0" encoding="UTF-8"?>
<!--Generator: Apple Native CoreSVG 326-->
<!DOCTYPE svg
PUBLIC "-//W3C//DTD SVG 1.1//EN"
       "http://www.w3.org/Graphics/SVG/1.1/DTD/svg11.dtd">
<svg version="1.1" xmlns="http://www.w3.org/2000/svg" xmlns:xlink="http://www.w3.org/1999/xlink" viewBox="0 0 587.75 595.75">
 <g>
  <rect height="595.75" opacity="0" width="587.75" x="0" y="0"/>
  <path d="M97.25 587.75L490.25 587.75C555 587.75 587.75 555 587.75 491.25L587.75 96.25C587.75 32.75 555 0 490.25 0L97.25 0C32.75 0 0 32.25 0 96.25L0 491.25C0 555.25 32.75 587.75 97.25 587.75ZM98.25 543.25C63.25 543.25 44.25 524.75 44.25 489L44.25 98.75C44.25 62.75 63.25 44.25 98.25 44.25L489.5 44.25C523.75 44.25 543.5 62.75 543.5 98.75L543.5 489C543.5 524.75 523.75 543.25 489.5 543.25Z" fill="black" fill-opacity="0.85"/>
  <path d="M130.25 332.5C130.25 407.25 184.5 454.5 258.5 454.5C263.75 454.5 303.25 454.5 304.75 454.5C317 454.5 326.25 447.25 326.25 434.5C326.25 421.75 317 414.75 305.25 414.75C304 414.75 263.75 414.75 258.5 414.75C207.5 414.75 171 382.25 171 330.5C171 279.75 208.25 250.75 258.25 250.75L362.25 250.75L399.5 249.25L381.5 263L335.75 307.25C331.75 311 329.5 316.25 329.5 321.75C329.5 333.25 338 342 349.25 342C355.25 342 359.75 340 363.75 336.25L449.5 248.25C454.25 243.5 457.25 237.75 457.25 231C457.25 224.25 454.25 218.25 449.5 213.5L364 126.5C360 122.25 355.5 120.25 349.5 120.25C338 120.25 329.5 129 329.5 140.5C329.5 146.5 332.25 151.5 336 155.25L376 194.25L399.5 212.75L362.25 211.75L258.25 211.75C184.25 211.75 130.25 257.75 130.25 332.5Z" fill="black" fill-opacity="0.85"/>
 </g>
</svg>
