<?xml version="1.0" encoding="UTF-8"?>
<!--Generator: Apple Native CoreSVG 326-->
<!DOCTYPE svg
PUBLIC "-//W3C//DTD SVG 1.1//EN"
       "http://www.w3.org/Graphics/SVG/1.1/DTD/svg11.dtd">
<svg version="1.1" xmlns="http://www.w3.org/2000/svg" xmlns:xlink="http://www.w3.org/1999/xlink" viewBox="0 0 393.5 626.75">
 <g>
  <rect height="626.75" opacity="0" width="393.5" x="0" y="0"/>
  <path d="M196.75 626.75C203.5 626.75 209.75 624 214.75 618.5L386 445.25C390.5 440.5 393.5 433.5 393.5 427.5C393.5 413 383.5 403.25 369.5 403.25C362.5 403.25 356.75 405.75 352.5 410L273.75 490.5L218.5 552.5L221 479.25L221 147.5L218.5 74.25L273.75 136.25L352.5 216.75C356.75 221 362.5 223.5 369.5 223.5C383.5 223.5 393.5 213.75 393.5 199.25C393.5 193.25 390.5 186.25 386 181.5L214.75 8.25C209.75 2.75 203.5 0 196.75 0C190 0 183.75 2.75 178.5 8.25L7.5 181.5C2.75 186.25 0 193.25 0 199.25C0 213.75 10 223.5 24 223.5C31 223.5 36.5 221 40.75 216.75L119.75 136.25L175 74.25L172.5 147.5L172.5 479.25L175 552.5L119.75 490.5L40.75 410C36.5 405.75 31 403.25 24 403.25C10 403.25 0 413 0 427.5C0 433.5 2.75 440.5 7.5 445.25L178.5 618.5C183.75 624 190 626.75 196.75 626.75Z" fill="black" fill-opacity="0.85"/>
 </g>
</svg>
