<?xml version="1.0" encoding="UTF-8"?>
<!--Generator: Apple Native CoreSVG 326-->
<!DOCTYPE svg
PUBLIC "-//W3C//DTD SVG 1.1//EN"
       "http://www.w3.org/Graphics/SVG/1.1/DTD/svg11.dtd">
<svg version="1.1" xmlns="http://www.w3.org/2000/svg" xmlns:xlink="http://www.w3.org/1999/xlink" viewBox="0 0 587.75 587.75">
 <g>
  <rect height="587.75" opacity="0" width="587.75" x="0" y="0"/>
  <path d="M587.75 96.5L587.75 491.5C587.75 555 555 587.75 490.25 587.75L97.25 587.75C32.75 587.75 0 555.5 0 491.5L0 96.5C0 32.5 32.75 0 97.25 0L490.25 0C555 0 587.75 32.75 587.75 96.5ZM271.5 150.25L271.5 347.5L273.25 396.25L252 373.75L197.5 317C193.5 312.25 187.25 310 181.75 310C170 310 161.5 318.5 161.5 330C161.5 336 163.75 340.75 168.25 345L278 451.5C283.5 457.25 288.5 459.25 294.25 459.25C300 459.25 305 457.25 310.75 451.5L420.25 345C424.5 340.75 427 336 427 330C427 318.5 418 310 406.5 310C400.75 310 394.75 312.25 390.75 317L336.5 373.75L315.25 396L317 347.5L317 150.25C317 138.25 306.75 128.25 294.25 128.25C282 128.25 271.5 138.25 271.5 150.25Z" fill="black" fill-opacity="0.85"/>
 </g>
</svg>
