<?xml version="1.0" encoding="UTF-8"?>
<!--Generator: Apple Native CoreSVG 326-->
<!DOCTYPE svg
PUBLIC "-//W3C//DTD SVG 1.1//EN"
       "http://www.w3.org/Graphics/SVG/1.1/DTD/svg11.dtd">
<svg version="1.1" xmlns="http://www.w3.org/2000/svg" xmlns:xlink="http://www.w3.org/1999/xlink" viewBox="0 0 587.75 587.75">
 <g>
  <rect height="587.75" opacity="0" width="587.75" x="0" y="0"/>
  <path d="M97.25 587.75L490.25 587.75C555 587.75 587.75 555 587.75 491.5L587.75 96.5C587.75 32.75 555 0 490.25 0L97.25 0C32.75 0 0 32.5 0 96.5L0 491.5C0 555.5 32.75 587.75 97.25 587.75ZM98.25 543.5C63.25 543.5 44.25 525 44.25 489L44.25 98.75C44.25 63 63.25 44.25 98.25 44.25L489.5 44.25C523.75 44.25 543.5 63 543.5 98.75L543.5 489C543.5 525 523.75 543.5 489.5 543.5Z" fill="black" fill-opacity="0.85"/>
  <path d="M456.25 293.5C456.25 287.75 454.5 283 449 277.5L345 170.5C340.75 166.25 336.25 164 330.5 164C319.25 164 311 172.75 311 184C311 189.5 313.25 195.25 317.75 199L373.5 252.25L395.25 273.25L348 271.5L155 271.5C143.25 271.5 133.5 281.5 133.5 293.5C133.5 305.25 143.25 315.25 155 315.25L348 315.25L395.5 313.75L373.5 334.75L317.75 388C313.25 391.75 311 397.75 311 403.25C311 414.5 319.25 423 330.5 423C336.25 423 340.75 420.75 345 416.5L449 309.25C454.5 303.75 456.25 299 456.25 293.5Z" fill="black" fill-opacity="0.85"/>
 </g>
</svg>
