<?xml version="1.0" encoding="UTF-8"?>
<!--Generator: Apple Native CoreSVG 326-->
<!DOCTYPE svg
PUBLIC "-//W3C//DTD SVG 1.1//EN"
       "http://www.w3.org/Graphics/SVG/1.1/DTD/svg11.dtd">
<svg version="1.1" xmlns="http://www.w3.org/2000/svg" xmlns:xlink="http://www.w3.org/1999/xlink" viewBox="0 0 651.25 651.75">
 <g>
  <rect height="651.75" opacity="0" width="651.25" x="0" y="0"/>
  <path d="M651.25 325.75C651.25 505 505 651.25 325.5 651.25C146.25 651.25 0 505 0 325.75C0 146.25 146.25 0 325.5 0C505 0 651.25 146.25 651.25 325.75ZM309.25 167.75L199.75 274.25C195.25 278.5 193 283.25 193 289.25C193 300.75 201.5 309.25 213.25 309.25C218.75 309.25 225 307 229 302.25L283.25 245.5L304.75 223.25L303 272L303 469C303 481 313.25 491.25 325.75 491.25C338 491.25 348.5 481 348.5 469L348.5 272L346.75 223.25L368 245.5L422.25 302.25C426.25 307 432.25 309.25 437.75 309.25C449.5 309.25 458.5 300.75 458.5 289.25C458.5 283.25 456 278.5 451.75 274.25L342 167.75C336.5 162 331.5 160.25 325.75 160.25C319.75 160.25 315 162 309.25 167.75Z" fill="black" fill-opacity="0.85"/>
 </g>
</svg>
