<?xml version="1.0" encoding="UTF-8"?>
<!--Generator: Apple Native CoreSVG 326-->
<!DOCTYPE svg
PUBLIC "-//W3C//DTD SVG 1.1//EN"
       "http://www.w3.org/Graphics/SVG/1.1/DTD/svg11.dtd">
<svg version="1.1" xmlns="http://www.w3.org/2000/svg" xmlns:xlink="http://www.w3.org/1999/xlink" viewBox="0 0 713.5 584.25">
 <g>
  <rect height="584.25" opacity="0" width="713.5" x="0" y="0"/>
  <path d="M402.75 583.75C417 583.75 428.75 577.75 442.25 565L696.5 326C709.75 313.5 713.5 302 713.5 292C713.5 281.5 709.75 270.25 696.5 257.5L442.25 20.25C427.5 6.5 417.5 0 403.25 0C382.75 0 368.75 16.25 368.75 36L368.75 162.25L358.25 162.25C134.5 162.25 26.5 301.75 26.5 545.25C26.5 570 40.75 583.75 56.75 583.75C69.5 583.75 82.5 580.25 92.25 561.25C145.75 456.5 227.25 422.75 358.25 422.75L368.75 422.75L368.75 549.5C368.75 569.25 382.75 583.75 402.75 583.75Z" fill="black" fill-opacity="0.85"/>
 </g>
</svg>
