<?xml version="1.0" encoding="UTF-8"?>
<!--Generator: Apple Native CoreSVG 326-->
<!DOCTYPE svg
PUBLIC "-//W3C//DTD SVG 1.1//EN"
       "http://www.w3.org/Graphics/SVG/1.1/DTD/svg11.dtd">
<svg version="1.1" xmlns="http://www.w3.org/2000/svg" xmlns:xlink="http://www.w3.org/1999/xlink" viewBox="0 0 651.25 651.75">
 <g>
  <rect height="651.75" opacity="0" width="651.25" x="0" y="0"/>
  <path d="M325.5 651.25C505.25 651.25 651.25 505.5 651.25 325.75C651.25 146 505.25 0 325.5 0C145.75 0 0 146 0 325.75C0 505.5 145.75 651.25 325.5 651.25ZM325.5 604.75C171.25 604.75 46.5 480 46.5 325.75C46.5 171.5 171.25 46.75 325.5 46.75C479.75 46.75 604.5 171.5 604.5 325.75C604.5 480 479.75 604.75 325.5 604.75Z" fill="black" fill-opacity="0.85"/>
  <path d="M188 431.5C188 447.25 196 456.5 210 456.25C224 456 232 447.25 232 431.5L232 335.5C232 303 246.25 289 277.25 289L366.25 288.75L366.25 340.5C366.25 359.25 387.5 368 403.25 354.5L479.25 289.25C496.25 274.75 496.25 259 479.25 244.5L403.25 179.25C387.5 165.75 366.25 174.5 366.25 193.75L366.25 244.75L276.5 244.75C216.25 244.75 188 273 188 333.5Z" fill="black" fill-opacity="0.85"/>
 </g>
</svg>
