<?xml version="1.0" encoding="UTF-8"?>
<!--Generator: Apple Native CoreSVG 326-->
<!DOCTYPE svg
PUBLIC "-//W3C//DTD SVG 1.1//EN"
       "http://www.w3.org/Graphics/SVG/1.1/DTD/svg11.dtd">
<svg version="1.1" xmlns="http://www.w3.org/2000/svg" xmlns:xlink="http://www.w3.org/1999/xlink" viewBox="0 0 587.75 587.75">
 <g>
  <rect height="587.75" opacity="0" width="587.75" x="0" y="0"/>
  <path d="M97.25 587.75L490.25 587.75C555 587.75 587.75 555 587.75 491.5L587.75 96.5C587.75 32.75 555 0 490.25 0L97.25 0C32.75 0 0 32.5 0 96.5L0 491.5C0 555.5 32.75 587.75 97.25 587.75ZM98.25 543.5C63.25 543.5 44.25 525 44.25 489L44.25 98.75C44.25 63 63.25 44.25 98.25 44.25L489.5 44.25C523.75 44.25 543.5 63 543.5 98.75L543.5 489C543.5 525 523.75 543.5 489.5 543.5Z" fill="black" fill-opacity="0.85"/>
  <path d="M457.25 332.75C457.25 258 403.5 211.75 329.25 211.75L225.5 211.75L188.25 212.75L211.5 194.5L251.75 155.25C255.5 151.75 258 146.5 258 140.75C258 129.25 249.5 120.25 238 120.25C232.25 120.25 227.5 122.25 223.75 126.5L138 213.5C133.25 218.25 130.25 224.5 130.25 231.25C130.25 238 133.25 243.75 138 248.5L224 336.25C227.75 340.25 232.5 342.25 238.25 342.25C249.5 342.25 258 333.5 258 322C258 316.5 256 311.25 252 307.25L206.25 263L188.25 249.5L225.5 250.75L329.25 250.75C379.25 250.75 416.5 280 416.5 330.75C416.5 382.25 380 414.75 329 414.75C324 414.75 283.75 414.75 282.25 414.75C270.5 414.75 261.5 422 261.5 434.75C261.5 447.5 270.5 454.5 282.75 454.5C284.5 454.5 324 454.5 329 454.5C403.25 454.5 457.25 407.5 457.25 332.75Z" fill="black" fill-opacity="0.85"/>
 </g>
</svg>
