<?xml version="1.0" encoding="UTF-8"?>
<!--Generator: Apple Native CoreSVG 326-->
<!DOCTYPE svg
PUBLIC "-//W3C//DTD SVG 1.1//EN"
       "http://www.w3.org/Graphics/SVG/1.1/DTD/svg11.dtd">
<svg version="1.1" xmlns="http://www.w3.org/2000/svg" xmlns:xlink="http://www.w3.org/1999/xlink" viewBox="0 0 626.5 394.25">
 <g>
  <rect height="394.25" opacity="0" width="626.5" x="0" y="0"/>
  <path d="M0 196.75C0 203.5 2.5 209.75 8 215L181.5 386C186.25 390.75 193 393.5 199 393.5C213.75 393.5 223.25 383.5 223.25 369.5C223.25 362.5 221 357 216.75 352.75L136 274L74 218.5L147.5 221L479 221L552.5 218.5L490.5 274L409.75 352.75C405.5 357 403.25 362.5 403.25 369.5C403.25 383.5 412.75 393.5 427.5 393.5C433.5 393.5 440.5 390.75 445 386L618.5 215C624 209.75 626.5 203.5 626.5 196.75C626.5 190 624 183.75 618.5 178.75L445 7.75C440.5 3 433.5 0 427.5 0C412.75 0 403.25 10.25 403.25 24.25C403.25 31.25 405.5 36.75 409.75 41L490.5 119.75L552.5 175.25L479 172.5L147.5 172.5L74 175.25L136 119.75L216.75 41C221 36.75 223.25 31.25 223.25 24.25C223.25 10.25 213.75 0 199 0C193 0 186.25 3 181.5 7.75L8 178.75C2.5 183.75 0 190 0 196.75Z" fill="black" fill-opacity="0.85"/>
 </g>
</svg>
