<?xml version="1.0" encoding="UTF-8"?>
<!--Generator: Apple Native CoreSVG 326-->
<!DOCTYPE svg
PUBLIC "-//W3C//DTD SVG 1.1//EN"
       "http://www.w3.org/Graphics/SVG/1.1/DTD/svg11.dtd">
<svg version="1.1" xmlns="http://www.w3.org/2000/svg" xmlns:xlink="http://www.w3.org/1999/xlink" viewBox="0 0 757.5 587.75">
 <g>
  <rect height="587.75" opacity="0" width="757.5" x="0" y="0"/>
  <path d="M97.25 587.75L660 587.75C724.75 587.75 757.5 555 757.5 491.5L757.5 96.5C757.5 32.75 724.75 0 660 0L97.25 0C32.75 0 0 32.5 0 96.5L0 491.5C0 555.5 32.75 587.75 97.25 587.75ZM98.25 543.5C63.25 543.5 44.25 525 44.25 489L44.25 98.75C44.25 63 63.25 44.25 98.25 44.25L659.25 44.25C693.5 44.25 713 63 713 98.75L713 489C713 525 693.5 543.5 659.25 543.5Z" fill="black" fill-opacity="0.85"/>
  <path d="M339.5 106.5C327.75 106.5 319.75 115 319.75 127.25L319.75 172.25L323 218.25L285.25 178.25L206 99C202 95 197.25 92.75 190.5 92.75C179 92.75 171 100.5 171 112.75C171 118 173.75 123.5 177.5 127L256.75 206.75L297.25 244.5L256.5 241L205.75 241C193.5 241 185 249 185 260.75C185 272.25 193.5 280.25 205.25 280.25L337.25 280.25C350.5 280.25 359 273.75 359 258.75L359 127.75C359 115.5 351 106.5 339.5 106.5ZM418 481.25C429.5 481.25 437.75 472.75 437.75 460.75L437.75 415.5L434.5 369.5L472.25 409.5L551.5 489C555.5 492.75 560.25 495 566.75 495C578.25 495 586.5 487.25 586.5 475.25C586.5 469.75 583.75 464.5 580 460.75L500.5 381L460 343.5L501 346.75L551.5 346.75C564 346.75 572.5 338.75 572.5 327.25C572.5 315.5 564 307.5 552 307.5L420.25 307.5C407 307.5 398.5 314 398.5 329.25L398.5 460.25C398.5 472.25 406.5 481.25 418 481.25Z" fill="black" fill-opacity="0.85"/>
 </g>
</svg>
