<?xml version="1.0" encoding="UTF-8"?>
<!--Generator: Apple Native CoreSVG 326-->
<!DOCTYPE svg
PUBLIC "-//W3C//DTD SVG 1.1//EN"
       "http://www.w3.org/Graphics/SVG/1.1/DTD/svg11.dtd">
<svg version="1.1" xmlns="http://www.w3.org/2000/svg" xmlns:xlink="http://www.w3.org/1999/xlink" viewBox="0 0 713.5 584.25">
 <g>
  <rect height="584.25" opacity="0" width="713.5" x="0" y="0"/>
  <path d="M402.75 583.75C417 583.75 428.75 577.75 442.25 565L696.5 326C709.75 313.5 713.5 302 713.5 292C713.5 281.5 709.75 270.25 696.5 257.5L442.25 20.25C427.5 6.5 417.5 0 403.25 0C382.75 0 368.75 16.25 368.75 36L368.75 162.25L358.25 162.25C134.5 162.25 26.5 301.75 26.5 545.25C26.5 570 40.75 583.75 56.75 583.75C69.5 583.75 82.5 580.25 92.25 561.25C145.75 456.5 227.25 422.75 358.25 422.75L368.75 422.75L368.75 549.5C368.75 569.25 382.75 583.75 402.75 583.75ZM417.75 525.25C415 525.25 413 523.25 413 520.25L413 391.25C413 384 410 381 402.75 381L364.25 381C209.5 381 111.75 432.5 72.5 519.25C71.5 522 70.5 523.75 68.75 523.75C66.75 523.75 65.75 522.25 65.75 519.75C71 347.5 149.25 204 364.25 204L402.75 204C410 204 413 200.75 413 193.75L413 61.25C413 58.5 415 56.5 418 56.5C420.5 56.5 422.5 58 424.25 59.5L659 283C663 286.5 664.25 289.25 664.25 292C664.25 294.75 663 297.25 659 301L424.25 522.25C421.75 524.5 419.75 525.25 417.75 525.25Z" fill="black" fill-opacity="0.85"/>
 </g>
</svg>
