<?xml version="1.0" encoding="UTF-8"?>
<!--Generator: Apple Native CoreSVG 326-->
<!DOCTYPE svg
PUBLIC "-//W3C//DTD SVG 1.1//EN"
       "http://www.w3.org/Graphics/SVG/1.1/DTD/svg11.dtd">
<svg version="1.1" xmlns="http://www.w3.org/2000/svg" xmlns:xlink="http://www.w3.org/1999/xlink" viewBox="0 0 757.5 587.75">
 <g>
  <rect height="587.75" opacity="0" width="757.5" x="0" y="0"/>
  <path d="M97.25 587.75L660 587.75C724.75 587.75 757.5 555 757.5 491.5L757.5 96.5C757.5 32.75 724.75 0 660 0L97.25 0C32.75 0 0 32.5 0 96.5L0 491.5C0 555.5 32.75 587.75 97.25 587.75ZM98.25 543.5C63.25 543.5 44.25 525 44.25 489L44.25 98.75C44.25 63 63.25 44.25 98.25 44.25L659.25 44.25C693.5 44.25 713 63 713 98.75L713 489C713 525 693.5 543.5 659.25 543.5Z" fill="black" fill-opacity="0.85"/>
  <path d="M418 106.5C406.5 106.5 398.5 115.5 398.5 127.75L398.5 258.75C398.5 273.75 407 280.25 420.25 280.25L552 280.25C564 280.25 572.5 272.25 572.5 260.75C572.5 249 564 241 551.5 241L501 241L460 244.5L500.5 206.75L580 127C583.75 123.5 586.5 118 586.5 112.75C586.5 100.5 578.25 92.75 566.75 92.75C560.25 92.75 555.5 95 551.5 99L472.25 178.25L434.5 218.25L437.75 172.25L437.75 127.25C437.75 115 429.5 106.5 418 106.5ZM339.5 481.25C351 481.25 359 472.25 359 460.25L359 329.25C359 314 350.5 307.5 337.25 307.5L205.25 307.5C193.5 307.5 185 315.5 185 327.25C185 338.75 193.5 346.75 205.75 346.75L256.5 346.75L297.25 343.5L256.75 381L177.5 460.75C173.75 464.5 171 469.75 171 475.25C171 487.25 179 495 190.5 495C197.25 495 202 492.75 206 489L285.25 409.5L323 369.5L319.75 415.5L319.75 460.75C319.75 472.75 327.75 481.25 339.5 481.25Z" fill="black" fill-opacity="0.85"/>
 </g>
</svg>
