<?xml version="1.0" encoding="UTF-8"?>
<!--Generator: Apple Native CoreSVG 326-->
<!DOCTYPE svg
PUBLIC "-//W3C//DTD SVG 1.1//EN"
       "http://www.w3.org/Graphics/SVG/1.1/DTD/svg11.dtd">
<svg version="1.1" xmlns="http://www.w3.org/2000/svg" xmlns:xlink="http://www.w3.org/1999/xlink" viewBox="0 0 795.272 588.25">
 <g>
  <rect height="588.25" opacity="0" width="795.272" x="0" y="0"/>
  <path d="M6.76109 224.5C16.2611 234 29.2611 233 38.7611 223.75L72.7611 190L125.261 134.5L125.261 492C125.261 556 158.261 588.25 222.761 588.25L496.511 588.25C512.011 588.25 521.261 580 521.011 566.25C520.761 552.25 512.011 544 496.511 544L223.511 544C188.511 544 169.511 525.5 169.511 489.75L169.511 134L222.511 190L256.761 223.75C266.011 232.75 279.011 234 288.511 224.5C298.011 215 297.511 201.75 288.011 192.5L175.761 80.5C157.761 63 137.511 63 119.511 80.5L7.51109 192.5C-1.98891 201.75-2.73891 215 6.76109 224.5ZM274.261 22.75C274.511 36.75 283.261 45 298.511 45L571.761 45C606.511 45 625.511 63.5 625.511 99.25L625.511 455L572.511 399L538.511 365.25C529.261 356.25 516.261 355 506.511 364.5C497.261 373.75 497.761 387.25 507.261 396.5L619.511 508.5C637.261 526 657.761 526 675.511 508.5L787.761 396.5C797.261 387.25 797.761 373.75 788.511 364.5C779.011 355 766.011 356 756.511 365.25L722.511 399L669.761 454.5L669.761 97C669.761 33 637.011 0.75 572.511 0.75L298.511 0.75C283.261 0.75 274.011 9 274.261 22.75Z" fill="black" fill-opacity="0.85"/>
 </g>
</svg>
