<?xml version="1.0" encoding="UTF-8"?>
<!--Generator: Apple Native CoreSVG 326-->
<!DOCTYPE svg
PUBLIC "-//W3C//DTD SVG 1.1//EN"
       "http://www.w3.org/Graphics/SVG/1.1/DTD/svg11.dtd">
<svg version="1.1" xmlns="http://www.w3.org/2000/svg" xmlns:xlink="http://www.w3.org/1999/xlink" viewBox="0 0 651.25 651.75">
 <g>
  <rect height="651.75" opacity="0" width="651.25" x="0" y="0"/>
  <path d="M651.25 326C651.25 505.5 505 651.75 325.5 651.75C146.25 651.75 0 505.5 0 326C0 146.75 146.25 0.5 325.5 0.5C505 0.5 651.25 146.75 651.25 326ZM333 162.5L333 233.5L327 233.5C202.25 233.5 141.5 311 141.5 447.5C141.5 461.5 149.75 468.75 158.25 468.75C165.75 468.75 172.75 466.75 178.25 456.25C208.25 397.75 253.5 378.75 327 378.75L333 378.75L333 449.75C333 460.5 340.75 468.75 351.75 468.75C360 468.75 366.25 465.25 373.75 458.5L516 325C523.5 318 525.5 311.75 525.5 305.75C525.5 299.75 523.5 293.5 516 286.5L373.75 153.75C365.5 146.25 360.25 142.75 352 142.75C340.75 142.75 333 151.75 333 162.5Z" fill="black" fill-opacity="0.85"/>
 </g>
</svg>
