<?xml version="1.0" encoding="UTF-8"?>
<!--Generator: Apple Native CoreSVG 326-->
<!DOCTYPE svg
PUBLIC "-//W3C//DTD SVG 1.1//EN"
       "http://www.w3.org/Graphics/SVG/1.1/DTD/svg11.dtd">
<svg version="1.1" xmlns="http://www.w3.org/2000/svg" xmlns:xlink="http://www.w3.org/1999/xlink" viewBox="0 0 651.25 651.75">
 <g>
  <rect height="651.75" opacity="0" width="651.25" x="0" y="0"/>
  <path d="M651.25 325.75C651.25 505 505 651.25 325.5 651.25C146.25 651.25 0 505 0 325.75C0 146.25 146.25 0 325.5 0C505 0 651.25 146.25 651.25 325.75ZM275.25 199.5L168.5 309C162.75 314.75 161 319.5 161 325.5C161 331.25 162.75 336 168.5 341.75L275.25 451.5C279.25 456 284 458.25 290.25 458.25C301.5 458.25 310 449.75 310 438C310 432.25 307.75 426 303.25 422.25L246.25 367.75L224 346.5L272.75 348L469.75 348C482 348 492 337.75 492 325.5C492 313 482 302.75 469.75 302.75L272.75 302.75L224 304.5L246.25 283.25L303.25 228.75C307.75 225 310 219 310 213.25C310 201.75 301.5 192.75 290.25 192.75C284 192.75 279.25 195 275.25 199.5Z" fill="black" fill-opacity="0.85"/>
 </g>
</svg>
