<?xml version="1.0" encoding="UTF-8"?>
<!--Generator: Apple Native CoreSVG 326-->
<!DOCTYPE svg
PUBLIC "-//W3C//DTD SVG 1.1//EN"
       "http://www.w3.org/Graphics/SVG/1.1/DTD/svg11.dtd">
<svg version="1.1" xmlns="http://www.w3.org/2000/svg" xmlns:xlink="http://www.w3.org/1999/xlink" viewBox="0 0 951.25 612.75">
 <g>
  <rect height="612.75" opacity="0" width="951.25" x="0" y="0"/>
  <path d="M475.75 612.75C489.75 612.75 500 602.75 500 588.5L500 23.75C500 10 489.75 0.25 475.75 0.25C461.5 0.25 451.25 10 451.25 23.75L451.25 588.5C451.25 602.75 461.5 612.75 475.75 612.75Z" fill="black" fill-opacity="0.85"/>
  <path d="M0 306.25C0 320.75 9.75 330.75 24.25 330.75L248.5 330.75L314.25 329L203 436.75C198.25 441.25 196 448 196 454.75C196 468.5 206.5 478.5 220 478.5C227 478.5 233.25 475.5 239 469.75L384.25 324.75C389.5 319.5 392.75 313 392.75 306.25C392.75 299.5 389.5 293.25 384.25 288L239 142.75C233.25 137 227 134 220 134C206.5 134 196 144 196 157.75C196 164.5 198.25 171.25 203 175.75L314.25 283.75L248.5 282L24.25 282C9.75 282 0 292 0 306.25ZM951.25 306.25C951.25 292 941.5 282 927 282L702.75 282L637 283.75L748.25 175.75C753 171.25 755.25 164.5 755.25 157.75C755.25 144 745 134 731.25 134C724.25 134 718 137 712.25 142.75L567 288C561.75 293.25 558.5 299.5 558.5 306.25C558.5 313 561.75 319.5 567 324.75L712.25 469.75C718 475.5 724.25 478.5 731.25 478.5C745 478.5 755.25 468.5 755.25 454.75C755.25 448 753 441.25 748.25 436.75L637 329L702.75 330.75L927 330.75C941.5 330.75 951.25 320.75 951.25 306.25Z" fill="black" fill-opacity="0.85"/>
 </g>
</svg>
