<?xml version="1.0" encoding="UTF-8"?>
<!--Generator: Apple Native CoreSVG 326-->
<!DOCTYPE svg
PUBLIC "-//W3C//DTD SVG 1.1//EN"
       "http://www.w3.org/Graphics/SVG/1.1/DTD/svg11.dtd">
<svg version="1.1" xmlns="http://www.w3.org/2000/svg" xmlns:xlink="http://www.w3.org/1999/xlink" viewBox="0 0 651.25 651.75">
 <g>
  <rect height="651.75" opacity="0" width="651.25" x="0" y="0"/>
  <path d="M651.25 325.75C651.25 505 505 651.25 325.5 651.25C146.25 651.25 0 505 0 325.75C0 146.25 146.25 0 325.5 0C505 0 651.25 146.25 651.25 325.75ZM210 169.5L125.5 255C122.25 259 119.75 264.25 119.75 268.75C119.75 279.25 127.75 287.25 138.5 287.25C143.25 287.25 148.25 285 151.75 281.25L188.75 243.5L205.5 225.75L205 245L205 469.75C205 480.25 213.25 488 223.75 488C234.75 488 242.75 480 242.75 469.75L242.75 244.75L241.75 225.75L258.5 243.5L295.75 281.75C299.25 285.25 304.25 287.25 309.25 287.25C319.75 287.25 327.5 279.5 327.5 268.75C327.5 263.75 325.25 258.5 321.75 255L237.5 169.5C229.75 162 218 161.5 210 169.5ZM408.5 182.25L408.5 407.25L409.25 426L392.5 408L355.5 370.25C351.75 366.5 347 364.75 341.75 364.75C331 364.75 323.75 372.25 323.75 383C323.75 388 325.5 392.75 329.25 397L413.5 482.5C420.75 489.75 433.75 489.75 441.5 482.5L525.25 397C528.75 393 531.5 388 531.5 383C531.5 372.5 523.75 364.75 512.75 364.75C507.75 364.75 503 367 499.5 370.25L462.25 408L445.5 425.75L446.25 407L446.25 182.25C446.25 171.5 438 163.75 427.25 163.75C416.5 163.75 408.5 171.75 408.5 182.25Z" fill="black" fill-opacity="0.85"/>
 </g>
</svg>
