<?xml version="1.0" encoding="UTF-8"?>
<!--Generator: Apple Native CoreSVG 326-->
<!DOCTYPE svg
PUBLIC "-//W3C//DTD SVG 1.1//EN"
       "http://www.w3.org/Graphics/SVG/1.1/DTD/svg11.dtd">
<svg version="1.1" xmlns="http://www.w3.org/2000/svg" xmlns:xlink="http://www.w3.org/1999/xlink" viewBox="0 0 757.5 587.75">
 <g>
  <rect height="587.75" opacity="0" width="757.5" x="0" y="0"/>
  <path d="M757.5 96.5L757.5 491.5C757.5 555 724.75 587.75 660 587.75L97.25 587.75C32.75 587.75 0 555.5 0 491.5L0 96.5C0 32.5 32.75 0 97.25 0L660 0C724.75 0 757.5 32.75 757.5 96.5ZM91 112.5C91 118 93.75 123.75 97.75 127.5L209.75 239.5L257 283.75L208.75 279.75L144.75 279.75C131 279.75 122.25 288.25 122.25 300.75C122.25 313.25 130.75 321.5 144.25 321.5L298.5 321.5C312.75 321.5 322 314.75 322 298L322 144.75C322 131.5 313.5 122 301.25 122C288.5 122 280 130.75 280 144.25L280 202.75L284 256.25L239.75 209.25L128.5 97.75C124.25 93.5 119 91 111.75 91C99.25 91 91 99.25 91 112.5Z" fill="black" fill-opacity="0.85"/>
 </g>
</svg>
