<?xml version="1.0" encoding="UTF-8"?>
<!--Generator: Apple Native CoreSVG 326-->
<!DOCTYPE svg
PUBLIC "-//W3C//DTD SVG 1.1//EN"
       "http://www.w3.org/Graphics/SVG/1.1/DTD/svg11.dtd">
<svg version="1.1" xmlns="http://www.w3.org/2000/svg" xmlns:xlink="http://www.w3.org/1999/xlink" viewBox="0 0 510.5 525.25">
 <g>
  <rect height="525.25" opacity="0" width="510.5" x="0" y="0"/>
  <path d="M510.5 490C510.5 478.5 505.5 469.5 499.5 457L294 32.5C282.25 8.5 271 0.25 255.25 0.25C239.75 0.25 228.5 8.5 216.5 32.5L11.25 457C5 469.75 0 478.75 0 490.25C0 512 16.25 525.25 42 525.25L468.75 525C494.25 525 510.5 511.75 510.5 490ZM458.75 477C458.75 479.5 457 481 453.5 481L57 481C53.5 481 52 479.5 52 477C52 475.25 52.75 473.75 53.75 472L250.25 63C251.25 61 253 58.75 255.25 58.75C257.75 58.75 259.5 61 260.5 63L457 472C457.75 473.75 458.75 475.25 458.75 477Z" fill="black" fill-opacity="0.85"/>
 </g>
</svg>
