<?xml version="1.0" encoding="UTF-8"?>
<!--Generator: Apple Native CoreSVG 326-->
<!DOCTYPE svg
PUBLIC "-//W3C//DTD SVG 1.1//EN"
       "http://www.w3.org/Graphics/SVG/1.1/DTD/svg11.dtd">
<svg version="1.1" xmlns="http://www.w3.org/2000/svg" xmlns:xlink="http://www.w3.org/1999/xlink" viewBox="0 0 586.5 586.75">
 <g>
  <rect height="586.75" opacity="0" width="586.5" x="0" y="0"/>
  <path d="M550 37C581 67.75 586.5 110.75 586.5 168L586.5 418.25C586.5 475.75 581 518.5 550 549.5C519 580.5 475.5 586.5 418.25 586.5L168.25 586.5C111 586.5 67.75 580.5 36.5 549.5C5.5 518.75 0 475.75 0 418.25L0 166.5C0 111 5.75 68 36.75 37C67.75 6 111.25 0 166.5 0L418.25 0C475.5 0 518.75 6 550 37ZM234 166.5C220.5 166.5 212 174.75 212 187.25C212 199.75 220.75 208.25 234.5 208.25L306.25 208.25L354.75 204L307.25 248.5L172.75 382.75C168.75 387 166 392.5 166 398.25C166 411.25 174.25 419.75 186.75 419.75C193.75 419.75 199.25 417.25 203.25 413L337.5 278.75L381.5 231.75L377.75 285.25L377.75 351.5C377.75 365.25 386 373.75 398.75 373.75C411.25 373.75 419.5 364.5 419.5 351L419.5 189.75C419.5 173.25 410.5 166.5 396 166.5Z" fill="black" fill-opacity="0.85"/>
 </g>
</svg>
