<?xml version="1.0" encoding="UTF-8"?>
<!--Generator: Apple Native CoreSVG 326-->
<!DOCTYPE svg
PUBLIC "-//W3C//DTD SVG 1.1//EN"
       "http://www.w3.org/Graphics/SVG/1.1/DTD/svg11.dtd">
<svg version="1.1" xmlns="http://www.w3.org/2000/svg" xmlns:xlink="http://www.w3.org/1999/xlink" viewBox="0 0 651.25 651.75">
 <g>
  <rect height="651.75" opacity="0" width="651.25" x="0" y="0"/>
  <path d="M651.25 325.75C651.25 505 505 651.25 325.5 651.25C146.25 651.25 0 505 0 325.75C0 146.25 146.25 0 325.5 0C505 0 651.25 146.25 651.25 325.75ZM309.5 133.25L213 229.5C209 233 206.75 238.25 206.75 244.5C206.75 256 216 264.75 227.75 264.75C234 264.75 239 262.5 243 258.5L271.25 229.75L307 189L304.5 253.75L304.5 397.25L307 462L271.25 421.25L243 392.75C239 388.5 234 386.25 227.75 386.25C216 386.25 206.75 395 206.75 406.75C206.75 412.75 209 418 213 421.75L309.5 518C314.75 523.5 319.75 526 326 526C332 526 336.75 523.5 342.5 518L439 421.75C443 418 445 412.75 445 406.75C445 395 436.25 386.25 424.5 386.25C418 386.25 413 388.75 409 392.75L380.5 421.25L345 461.75L347.5 397.25L347.5 253.75L345 189.25L380.5 229.75L409 258.5C413 262.25 418 264.75 424.5 264.75C436.25 264.75 445 256 445 244.5C445 238.25 443 233 439 229.5L342.5 133.25C336.75 127.75 332 125 326 125C319.75 125 314.75 127.75 309.5 133.25Z" fill="black" fill-opacity="0.85"/>
 </g>
</svg>
