<?xml version="1.0" encoding="UTF-8"?>
<!--Generator: Apple Native CoreSVG 326-->
<!DOCTYPE svg
PUBLIC "-//W3C//DTD SVG 1.1//EN"
       "http://www.w3.org/Graphics/SVG/1.1/DTD/svg11.dtd">
<svg version="1.1" xmlns="http://www.w3.org/2000/svg" xmlns:xlink="http://www.w3.org/1999/xlink" viewBox="0 0 713.5 584.25">
 <g>
  <rect height="584.25" opacity="0" width="713.5" x="0" y="0"/>
  <path d="M310.75 583.75C330.75 583.75 344.5 569.25 344.5 549.5L344.5 422.75L355 422.75C486.25 422.75 567.75 456.5 621 561.25C631 580.25 643.75 583.75 656.75 583.75C672.5 583.75 686.75 570 686.75 545.25C686.75 301.75 579 162.25 355 162.25L344.5 162.25L344.5 36C344.5 16.25 330.75 0 310.25 0C295.75 0 285.75 6.5 271 20.25L17 257.5C3.5 270.25 0 281.5 0 292C0 302 3.75 313.5 17 326L271 565C284.5 577.75 296.25 583.75 310.75 583.75Z" fill="black" fill-opacity="0.85"/>
 </g>
</svg>
