<?xml version="1.0" encoding="UTF-8"?>
<!--Generator: Apple Native CoreSVG 326-->
<!DOCTYPE svg
PUBLIC "-//W3C//DTD SVG 1.1//EN"
       "http://www.w3.org/Graphics/SVG/1.1/DTD/svg11.dtd">
<svg version="1.1" xmlns="http://www.w3.org/2000/svg" xmlns:xlink="http://www.w3.org/1999/xlink" viewBox="0 0 651.25 651.75">
 <g>
  <rect height="651.75" opacity="0" width="651.25" x="0" y="0"/>
  <path d="M651.25 326C651.25 505.5 505 651.75 325.5 651.75C146.25 651.75 0 505.5 0 326C0 146.75 146.25 0.5 325.5 0.5C505 0.5 651.25 146.75 651.25 326ZM319.25 143.25L254.25 209.25C247.25 216.75 247 229.75 254.25 237L320 303.25C323 306.25 328 308.75 332.75 308.75C343.25 308.75 351.25 300.5 351.25 290.25C351.25 285 349.25 280.25 345.5 276.5L307.25 238.25C312.25 237.25 318.75 236.75 325.5 236.75C384.5 236.75 431.25 283.75 431.25 342.5C431.25 401.5 384.5 448.75 325.5 448.75C266.75 448.75 220 401.5 220 342.5C220 331.75 211 322.75 199.75 322.75C189.25 322.75 180 331.75 180 342.5C180 423.25 244.5 488.5 325.5 488.5C406.25 488.5 471.25 423.25 471.25 341.5C471.25 261.25 405.5 198.25 330.5 198.25C325.75 198.25 320.5 198.75 316.5 199.25L346.25 169C349.5 165.5 351.5 160.5 351.5 155.5C351.5 145 343.5 136.75 332.75 136.75C327.75 136.75 322.75 139.25 319.25 143.25Z" fill="black" fill-opacity="0.85"/>
 </g>
</svg>
