<?xml version="1.0" encoding="UTF-8"?>
<!--Generator: Apple Native CoreSVG 326-->
<!DOCTYPE svg
PUBLIC "-//W3C//DTD SVG 1.1//EN"
       "http://www.w3.org/Graphics/SVG/1.1/DTD/svg11.dtd">
<svg version="1.1" xmlns="http://www.w3.org/2000/svg" xmlns:xlink="http://www.w3.org/1999/xlink" viewBox="0 0 473.25 473.75">
 <g>
  <rect height="473.75" opacity="0" width="473.25" x="0" y="0"/>
  <path d="M473.25 119.25C473.25 104.5 461.75 93.5 448.25 93.5C434.75 93.5 423.75 105.25 423.75 118.25L423.75 260.5L428.5 399.75L376 341.75L42.5 8.25C37.5 3.25 31.5 1 25.5 1C11.75 1 0 13.25 0 26.25C0 32.25 2.5 38.5 7.5 43.5L340.75 377L398.75 429.25L247 425L117.25 425C104.25 425 92.5 435.75 92.5 449C92.5 462 103 473.75 118.25 473.75L446.5 473.75C462.5 473.75 472.75 463 472.75 447.25Z" fill="black" fill-opacity="0.85"/>
 </g>
</svg>
