<?xml version="1.0" encoding="UTF-8"?>
<!--Generator: Apple Native CoreSVG 326-->
<!DOCTYPE svg
PUBLIC "-//W3C//DTD SVG 1.1//EN"
       "http://www.w3.org/Graphics/SVG/1.1/DTD/svg11.dtd">
<svg version="1.1" xmlns="http://www.w3.org/2000/svg" xmlns:xlink="http://www.w3.org/1999/xlink" viewBox="0 0 739 596.877">
 <g>
  <rect height="596.877" opacity="0" width="739" x="0" y="0"/>
  <path d="M567.75 588.814L731 422.564C736 417.564 739 410.814 739 404.314C739 389.814 728.75 380.064 714.75 380.064C707.75 380.064 702.25 382.314 697.25 387.314L626.25 460.064L571.25 521.814L573.75 448.814L573.75 24.5636C573.75 10.5636 563.5 0.0635898 549.25 0.0635898C535 0.0635898 525 10.5636 525 24.5636L525 448.814L527.5 521.814L472.5 460.064L401.25 387.314C396.5 382.314 391 380.064 384 380.064C369.75 380.064 359.75 389.814 359.75 404.314C359.75 410.814 362.75 417.564 367.75 422.564L531 588.814C541.25 599.314 557 599.814 567.75 588.814Z" fill="black" fill-opacity="0.85"/>
  <path d="M171.25 8.06359L8 173.814C3 178.814 0 185.814 0 192.314C0 206.814 10 216.564 24.25 216.564C31.25 216.564 36.75 214.064 41.5 209.314L112.75 136.314L167.75 74.8136L165.25 147.564L165.25 572.064C165.25 586.314 175.25 596.814 189.5 596.814C203.75 596.814 214 586.314 214 572.064L214 147.564L211.5 74.8136L266.5 136.314L337.5 209.314C342.5 214.064 348 216.564 355 216.564C369 216.564 379.25 206.814 379.25 192.314C379.25 185.814 376.25 178.814 371.25 173.814L208 8.06359C197.75-2.43641 181.75-2.93641 171.25 8.06359Z" fill="black" fill-opacity="0.85"/>
 </g>
</svg>
