<?xml version="1.0" encoding="UTF-8"?>
<!--Generator: Apple Native CoreSVG 326-->
<!DOCTYPE svg
PUBLIC "-//W3C//DTD SVG 1.1//EN"
       "http://www.w3.org/Graphics/SVG/1.1/DTD/svg11.dtd">
<svg version="1.1" xmlns="http://www.w3.org/2000/svg" xmlns:xlink="http://www.w3.org/1999/xlink" viewBox="0 0 642.75 600.75">
 <g>
  <rect height="600.75" opacity="0" width="642.75" x="0" y="0"/>
  <path d="M9.5 208.75C9.5 344.5 126.25 477.5 305 592.75C311.25 596.75 320 600.75 326.25 600.75C332.25 600.75 341 596.75 347.25 592.75C526.25 477.5 642.75 344.5 642.75 208.75C642.75 97.25 566 17.75 463.25 17.75C404.25 17.75 354.5 47.25 326.25 92.5C298.25 47.5 248 17.75 189.25 17.75C86.5 17.75 9.5 97.25 9.5 208.75ZM54 208.75C54 121.25 111.25 62 188.75 62C249 62 285 99.5 306.75 134.75C314.25 146.25 319.25 149.75 326.25 149.75C333 149.75 337.5 146 345.5 134.75C368.25 100 403.75 62 463.75 62C541.25 62 598.5 121.25 598.5 208.75C598.5 329.5 472 458 332.25 551C329.5 552.75 327.5 554.25 326.25 554.25C325 554.25 323 552.75 320.25 551C180.25 458 54 329.5 54 208.75Z" fill="black" fill-opacity="0.85"/>
  <path d="M211.75 334.75C211.75 396.75 260.25 445.75 321.5 445.75C382.5 445.75 431 396.75 431 335.25C431 326 423 318.25 414 318.25C404.5 318.25 396.5 326 396.5 335.25C396.5 377.5 363.25 411 321.5 411C279.5 411 246.25 377.5 246.25 335.25C246.25 301 269.25 272.5 300.5 263.5L300.5 297.5C300.5 308.5 312 312.25 320 305.5L374.75 259.75C382.5 252.75 382.75 243.25 374.75 236.5L320 191C312 184.25 300.5 188 300.5 199L300.5 228.25C250.75 236.75 211.75 281.75 211.75 334.75Z" fill="black" fill-opacity="0.85"/>
 </g>
</svg>
