<?xml version="1.0" encoding="UTF-8"?>
<!--Generator: Apple Native CoreSVG 326-->
<!DOCTYPE svg
PUBLIC "-//W3C//DTD SVG 1.1//EN"
       "http://www.w3.org/Graphics/SVG/1.1/DTD/svg11.dtd">
<svg version="1.1" xmlns="http://www.w3.org/2000/svg" xmlns:xlink="http://www.w3.org/1999/xlink" viewBox="0 0 495.25 606.25">
 <g>
  <rect height="606.25" opacity="0" width="495.25" x="0" y="0"/>
  <path d="M431.25 606.25C449.75 606.25 465.75 606 474.5 604.25C485.5 601.75 495.25 595 495.25 581C495.25 566.75 485 557.5 471 557.5C461.5 557.5 450.25 558.5 433.75 558.5C316.5 558.5 265.75 515.25 266 397.25L266.25 159.5L264 75L329.25 145.5L443.25 259.5C447.5 263.75 454 266 460.5 266C474 266 484 255.75 484 242C484 235.5 481.75 230 476.5 224.5L260.25 8.25C255 2.75 248.75 0 242 0C235.25 0 229 2.75 223.75 8.25L7.5 224.5C2.25 230 0 235.5 0 242C0 255.75 10 266 23.5 266C30 266 36.5 263.75 40.75 259.5L154.75 145.5L219.75 75.25L217.75 159.5L217.75 399.5C217.75 546 284.75 606.25 431.25 606.25Z" fill="black" fill-opacity="0.85"/>
 </g>
</svg>
