<?xml version="1.0" encoding="UTF-8"?>
<!--Generator: Apple Native CoreSVG 326-->
<!DOCTYPE svg
PUBLIC "-//W3C//DTD SVG 1.1//EN"
       "http://www.w3.org/Graphics/SVG/1.1/DTD/svg11.dtd">
<svg version="1.1" xmlns="http://www.w3.org/2000/svg" xmlns:xlink="http://www.w3.org/1999/xlink" viewBox="0 0 587.75 587.75">
 <g>
  <rect height="587.75" opacity="0" width="587.75" x="0" y="0"/>
  <path d="M97.25 587.75L490.25 587.75C555 587.75 587.75 555 587.75 491.5L587.75 96.5C587.75 32.75 555 0 490.25 0L97.25 0C32.75 0 0 32.5 0 96.5L0 491.5C0 555.5 32.75 587.75 97.25 587.75ZM98.25 543.5C63.25 543.5 44.25 525 44.25 489L44.25 98.75C44.25 63 63.25 44.25 98.25 44.25L489.5 44.25C523.75 44.25 543.5 63 543.5 98.75L543.5 489C543.5 525 523.75 543.5 489.5 543.5Z" fill="black" fill-opacity="0.85"/>
  <path d="M152 308.5C152 388.25 215.25 451.75 294 451.75C373 451.75 436 388.25 436 309.25C436 299 427 290.25 416.75 290.25C406.25 290.25 397.25 299 397.25 309.25C397.25 367 351.5 413.25 294 413.25C236.25 413.25 190.5 367 190.5 309.25C190.5 251.75 236.25 206 294 206C300.75 206 307.25 206.5 312.5 207.75L274.75 245C270.75 248.75 269 253.25 269 258.5C269 268.25 276.75 276.25 287 276.25C291.5 276.25 296.25 274 299.25 271L363.5 206.25C370.5 199.25 370.25 186.5 363.5 179.25L300.25 114.75C296.75 111 292 108.75 286.75 108.75C276.5 108.75 268.75 116.75 268.75 126.75C268.75 131.75 270.5 136.5 273.75 140L303.25 169.75C299.25 169.25 294 168.5 289.25 168.5C216 168.5 152 230 152 308.5Z" fill="black" fill-opacity="0.85"/>
 </g>
</svg>
