<?xml version="1.0" encoding="UTF-8"?>
<!--Generator: Apple Native CoreSVG 326-->
<!DOCTYPE svg
PUBLIC "-//W3C//DTD SVG 1.1//EN"
       "http://www.w3.org/Graphics/SVG/1.1/DTD/svg11.dtd">
<svg version="1.1" xmlns="http://www.w3.org/2000/svg" xmlns:xlink="http://www.w3.org/1999/xlink" viewBox="0 0 642.75 600.75">
 <g>
  <rect height="600.75" opacity="0" width="642.75" x="0" y="0"/>
  <path d="M9.5 208.75C9.5 344.5 126.25 477.5 305 592.75C311.25 596.75 320 600.75 326.25 600.75C332.25 600.75 341 596.75 347.25 592.75C526.25 477.5 642.75 344.5 642.75 208.75C642.75 97.25 566 17.75 463.25 17.75C404.25 17.75 354.5 47.25 326.25 92.5C298.25 47.5 248 17.75 189.25 17.75C86.5 17.75 9.5 97.25 9.5 208.75ZM54 208.75C54 121.25 111.25 62 188.75 62C249 62 285 99.5 306.75 134.75C314.25 146.25 319.25 149.75 326.25 149.75C333 149.75 337.5 146 345.5 134.75C368.25 100 403.75 62 463.75 62C541.25 62 598.5 121.25 598.5 208.75C598.5 329.5 472 458 332.25 551C329.5 552.75 327.5 554.25 326.25 554.25C325 554.25 323 552.75 320.25 551C180.25 458 54 329.5 54 208.75Z" fill="black" fill-opacity="0.85"/>
  <path d="M342.5 438.25L342.5 310.25L340.75 254L377.25 291.25L404.25 318.75C408 322.75 413.5 325 419 325C430 325 438.5 317 438.5 305.75C438.5 299 435.5 294.25 430.75 290L337 201.75C331.25 196.75 326.75 194.75 321.5 194.75C316 194.75 311.5 196.75 305.75 201.75L212 290C207.25 294.25 204.25 299 204.25 305.75C204.25 317 212.5 325 223.75 325C229 325 234.75 322.75 238.5 318.75L265.5 291.25L302 254L300.25 310.25L300.25 438.25C300.25 449.5 310 458.75 321.5 458.75C332.75 458.75 342.5 449.5 342.5 438.25Z" fill="black" fill-opacity="0.85"/>
 </g>
</svg>
