<?xml version="1.0" encoding="UTF-8"?>
<!--Generator: Apple Native CoreSVG 326-->
<!DOCTYPE svg
PUBLIC "-//W3C//DTD SVG 1.1//EN"
       "http://www.w3.org/Graphics/SVG/1.1/DTD/svg11.dtd">
<svg version="1.1" xmlns="http://www.w3.org/2000/svg" xmlns:xlink="http://www.w3.org/1999/xlink" viewBox="0 0 587.75 587.75">
 <g>
  <rect height="587.75" opacity="0" width="587.75" x="0" y="0"/>
  <path d="M587.75 96.5L587.75 491.5C587.75 555 555 587.75 490.25 587.75L97.25 587.75C32.75 587.75 0 555.5 0 491.5L0 96.5C0 32.5 32.75 0 97.25 0L490.25 0C555 0 587.75 32.75 587.75 96.5ZM279.25 189L166 304C162.25 307.5 159.75 313.75 159.75 318.5C159.75 329.75 167.25 337.5 178.5 337.5C184.5 337.5 189.25 335.75 192.75 331.5L216.75 306L277.5 239.5L274.25 300.5L274.25 459.75C274.25 471 282 479.25 293.75 479.25C304.75 479.25 313 471 313 459.75L313 300.5L310 239.75L369.5 305.5L395.25 331.5C399 335.75 404.25 337.5 409.75 337.5C420.75 337.5 428.25 329.25 428.25 318.5C428.25 313 426.25 308 421.5 303.5L308.25 189C304 184.75 299 182.25 293.75 182.25C288.5 182.25 283.5 184.25 279.25 189ZM170.25 116.5C159 116.5 151.25 124.5 151.25 136.25C151.25 147 159 155 170.25 155L418 155C429 155 436.75 147 436.75 136.25C436.75 124.5 429 116.5 418 116.5Z" fill="black" fill-opacity="0.85"/>
 </g>
</svg>
