<?xml version="1.0" encoding="UTF-8"?>
<!--Generator: Apple Native CoreSVG 326-->
<!DOCTYPE svg
PUBLIC "-//W3C//DTD SVG 1.1//EN"
       "http://www.w3.org/Graphics/SVG/1.1/DTD/svg11.dtd">
<svg version="1.1" xmlns="http://www.w3.org/2000/svg" xmlns:xlink="http://www.w3.org/1999/xlink" viewBox="0 0 642.75 600.75">
 <g>
  <rect height="600.75" opacity="0" width="642.75" x="0" y="0"/>
  <path d="M642.75 208.75C642.75 344.5 526.25 477.5 347.25 592.75C341 596.75 332.25 600.75 326.25 600.75C320 600.75 311.25 596.75 305 592.75C126.25 477.5 9.5 344.5 9.5 208.75C9.5 97.25 86.5 17.75 186.75 17.75C248 17.75 298.25 52.5 326.25 105.25C354.5 52.25 404.25 17.75 465.75 17.75C566 17.75 642.75 97.25 642.75 208.75ZM305.25 194L209 284C204.5 288.5 201.25 293 201.25 300.25C201.25 312 209.75 320.25 221.5 320.25C227 320.25 232.75 317.75 236.75 313.75L264.5 285.5L301.25 247.5L299.5 305.25L299.5 435.75C299.5 447.25 309.5 456.75 321.5 456.75C333.25 456.75 343.25 447.25 343.25 435.75L343.25 305.25L341.5 247.5L378.25 285.5L406 313.75C410 317.75 415.5 320.25 421.25 320.25C432.5 320.25 441.5 312 441.5 300.25C441.5 293 438.25 288.5 433.75 284L337.5 194C331.5 188.5 327 186.5 321.5 186.5C315.75 186.5 311.25 188.5 305.25 194Z" fill="black" fill-opacity="0.85"/>
 </g>
</svg>
