<?xml version="1.0" encoding="UTF-8"?>
<!--Generator: Apple Native CoreSVG 326-->
<!DOCTYPE svg
PUBLIC "-//W3C//DTD SVG 1.1//EN"
       "http://www.w3.org/Graphics/SVG/1.1/DTD/svg11.dtd">
<svg version="1.1" xmlns="http://www.w3.org/2000/svg" xmlns:xlink="http://www.w3.org/1999/xlink" viewBox="0 0 606.25 651.25">
 <g>
  <rect height="651.25" opacity="0" width="606.25" x="0" y="0"/>
  <path d="M606.25 451C606.25 330.75 524.5 248.5 384.25 248.5L147.5 248.5L53.5 252.25L58.25 264.5L136 195.75L234.75 99C239 94.75 241.25 89.25 241.25 82C241.25 68.25 231.75 58 217.25 58C211.25 58 204.25 61 199.5 65.75L8 254.75C2.5 260 0 266 0 272.75C0 279.75 2.5 285.75 8 291L199.5 480C204.25 484.75 211.25 487.75 217.25 487.75C231.75 487.75 241.25 477.5 241.25 463.5C241.25 456.5 239 451 234.75 446.75L136 350L58.25 281.25L53.5 293.5L147.5 297.25L387.75 297.25C497 297.25 557.75 359 557.75 448.5C557.75 538 497 602.75 387.75 602.75L304.5 602.75C289.5 602.75 279.75 613.75 279.75 627C279.75 640.5 289.75 651.25 304.75 651.25L388.25 651.25C526.25 651.25 606.25 571.25 606.25 451Z" fill="black" fill-opacity="0.85"/>
 </g>
</svg>
