<?xml version="1.0" encoding="UTF-8"?>
<!--Generator: Apple Native CoreSVG 326-->
<!DOCTYPE svg
PUBLIC "-//W3C//DTD SVG 1.1//EN"
       "http://www.w3.org/Graphics/SVG/1.1/DTD/svg11.dtd">
<svg version="1.1" xmlns="http://www.w3.org/2000/svg" xmlns:xlink="http://www.w3.org/1999/xlink" viewBox="0 0 642.75 600.75">
 <g>
  <rect height="600.75" opacity="0" width="642.75" x="0" y="0"/>
  <path d="M9.5 208.75C9.5 344.5 126.25 477.5 305 592.75C311.25 596.75 320 600.75 326.25 600.75C332.25 600.75 341 596.75 347.25 592.75C526.25 477.5 642.75 344.5 642.75 208.75C642.75 97.25 566 17.75 463.25 17.75C404.25 17.75 354.5 47.25 326.25 92.5C298.25 47.5 248 17.75 189.25 17.75C86.5 17.75 9.5 97.25 9.5 208.75ZM54 208.75C54 121.25 111.25 62 188.75 62C249 62 285 99.5 306.75 134.75C314.25 146.25 319.25 149.75 326.25 149.75C333 149.75 337.5 146 345.5 134.75C368.25 100 403.75 62 463.75 62C541.25 62 598.5 121.25 598.5 208.75C598.5 329.5 472 458 332.25 551C329.5 552.75 327.5 554.25 326.25 554.25C325 554.25 323 552.75 320.25 551C180.25 458 54 329.5 54 208.75Z" fill="black" fill-opacity="0.85"/>
  <path d="M342.5 215.25C342.5 204 332.75 194.75 321.5 194.75C310 194.75 300.25 204 300.25 215.25L300.25 344.75L302 401.25L265.5 363.75L238.5 336.25C234.75 332.25 229 330 223.75 330C212.5 330 204.25 338 204.25 349.25C204.25 356.25 207.25 360.75 212 365L305.75 453.25C311.5 458.5 316 460.5 321.5 460.5C326.75 460.5 331.25 458.5 337 453.25L430.75 365C435.5 360.75 438.5 356.25 438.5 349.25C438.5 338 430 330 419 330C413.5 330 408 332.25 404.25 336.25L377.25 363.75L340.75 401.25L342.5 344.75Z" fill="black" fill-opacity="0.85"/>
 </g>
</svg>
