<?xml version="1.0" encoding="UTF-8"?>
<!--Generator: Apple Native CoreSVG 326-->
<!DOCTYPE svg
PUBLIC "-//W3C//DTD SVG 1.1//EN"
       "http://www.w3.org/Graphics/SVG/1.1/DTD/svg11.dtd">
<svg version="1.1" xmlns="http://www.w3.org/2000/svg" xmlns:xlink="http://www.w3.org/1999/xlink" viewBox="0 0 587.75 587.75">
 <g>
  <rect height="587.75" opacity="0" width="587.75" x="0" y="0"/>
  <path d="M97.25 587.75L490.25 587.75C555 587.75 587.75 555 587.75 491.5L587.75 96.5C587.75 32.75 555 0 490.25 0L97.25 0C32.75 0 0 32.5 0 96.5L0 491.5C0 555.5 32.75 587.75 97.25 587.75ZM98.25 543.5C63.25 543.5 44.25 525 44.25 489L44.25 98.75C44.25 63 63.25 44.25 98.25 44.25L489.5 44.25C523.75 44.25 543.5 63 543.5 98.75L543.5 489C543.5 525 523.75 543.5 489.5 543.5Z" fill="black" fill-opacity="0.85"/>
  <path d="M489.25 293.75C489.25 287.75 486.5 282.75 481.5 277.75L387.5 183.5C383.75 179.75 378.75 177.5 372.75 177.5C361.5 177.5 353 186.5 353 197.75C353 203.75 355.25 208.75 359.5 212.5L387.5 240.25L427.25 275.25L364.25 273L223.25 273L160.25 275.25L200 240.25L228.25 212.5C232.25 208.75 234.5 203.75 234.5 197.75C234.5 186.5 226 177.5 214.75 177.5C208.75 177.5 204 179.75 200.25 183.5L106.25 277.75C101 282.75 98.5 287.75 98.5 293.75C98.5 299.5 101 304.25 106.25 309.75L200.25 404C204 407.75 208.75 409.75 214.75 409.75C226 409.75 234.5 401 234.5 390C234.5 383.75 232 378.75 228.25 375L200 347L160.5 312.25L223.25 314.5L364.25 314.5L427 312.25L387.5 347L359.5 375C355.5 378.75 353 383.75 353 390C353 401 361.5 409.75 372.75 409.75C378.75 409.75 383.75 407.75 387.5 404L481.5 309.75C486.5 304.25 489.25 299.5 489.25 293.75Z" fill="black" fill-opacity="0.85"/>
 </g>
</svg>
