<?xml version="1.0" encoding="UTF-8"?>
<!--Generator: Apple Native CoreSVG 326-->
<!DOCTYPE svg
PUBLIC "-//W3C//DTD SVG 1.1//EN"
       "http://www.w3.org/Graphics/SVG/1.1/DTD/svg11.dtd">
<svg version="1.1" xmlns="http://www.w3.org/2000/svg" xmlns:xlink="http://www.w3.org/1999/xlink" viewBox="0 0 651.25 651.75">
 <g>
  <rect height="651.75" opacity="0" width="651.25" x="0" y="0"/>
  <path d="M325.5 651.25C505.25 651.25 651.25 505.5 651.25 325.75C651.25 146 505.25 0 325.5 0C145.75 0 0 146 0 325.75C0 505.5 145.75 651.25 325.5 651.25ZM325.5 604.75C171.25 604.75 46.5 480 46.5 325.75C46.5 171.5 171.25 46.75 325.5 46.75C479.75 46.75 604.5 171.5 604.5 325.75C604.5 480 479.75 604.75 325.5 604.75Z" fill="black" fill-opacity="0.85"/>
  <path d="M325.5 127.25C320 127.25 313.75 129.25 306.75 136.75L174 277.75C167.5 285 164 291.5 164 299.25C164 310.25 171.75 317.75 182.75 317.75L257 317.75L257 468.5C257 493.25 270.75 507.5 295 507.5L355.5 507.5C379.75 507.5 393.5 493.25 393.5 468.5L393.5 317.75L467.5 317.75C478.25 317.75 487 310.25 487 298.75C487 291.25 483.75 285.75 476 277.75L344.75 136.75C337.5 129.25 331.25 127.25 325.5 127.25Z" fill="black" fill-opacity="0.85"/>
 </g>
</svg>
