<?xml version="1.0" encoding="UTF-8"?>
<!--Generator: Apple Native CoreSVG 326-->
<!DOCTYPE svg
PUBLIC "-//W3C//DTD SVG 1.1//EN"
       "http://www.w3.org/Graphics/SVG/1.1/DTD/svg11.dtd">
<svg version="1.1" xmlns="http://www.w3.org/2000/svg" xmlns:xlink="http://www.w3.org/1999/xlink" viewBox="0 0 587.75 595.75">
 <g>
  <rect height="595.75" opacity="0" width="587.75" x="0" y="0"/>
  <path d="M97.25 587.75L490.25 587.75C555 587.75 587.75 555 587.75 491.25L587.75 96.25C587.75 32.75 555 0 490.25 0L97.25 0C32.75 0 0 32.25 0 96.25L0 491.25C0 555.25 32.75 587.75 97.25 587.75ZM98.25 543.25C63.25 543.25 44.25 524.75 44.25 489L44.25 98.75C44.25 62.75 63.25 44.25 98.25 44.25L489.5 44.25C523.75 44.25 543.5 62.75 543.5 98.75L543.5 489C543.5 524.75 523.75 543.25 489.5 543.25Z" fill="black" fill-opacity="0.85"/>
  <path d="M326 131.75C251.25 131.75 205 185.5 205 259.75L205 363.5L206.25 400.75L187.75 377.5L148.5 337.25C145 333.5 140 331 134 331C122.5 331 113.75 339.5 113.75 351C113.75 356.75 115.75 361.5 120 365.25L207 451C211.75 455.75 217.75 458.75 224.5 458.75C231.25 458.75 237 455.75 241.75 451L329.5 365C333.5 361.25 335.5 356.5 335.5 350.75C335.5 339.5 326.75 331 315.25 331C309.75 331 304.5 333 300.75 337L256.5 382.75L242.75 400.75L244 363.5L244 259.75C244 209.75 273.25 172.5 324 172.5C375.75 172.5 408.25 209 408.25 260C408.25 265 408.25 305.25 408.25 306.75C408.25 318.5 415.25 327.5 428 327.5C440.75 327.5 447.75 318.5 447.75 306.25C447.75 304.5 447.75 265 447.75 260C447.75 185.75 400.75 131.75 326 131.75Z" fill="black" fill-opacity="0.85"/>
 </g>
</svg>
