<?xml version="1.0" encoding="UTF-8"?>
<!--Generator: Apple Native CoreSVG 326-->
<!DOCTYPE svg
PUBLIC "-//W3C//DTD SVG 1.1//EN"
       "http://www.w3.org/Graphics/SVG/1.1/DTD/svg11.dtd">
<svg version="1.1" xmlns="http://www.w3.org/2000/svg" xmlns:xlink="http://www.w3.org/1999/xlink" viewBox="0 0 587.75 587.75">
 <g>
  <rect height="587.75" opacity="0" width="587.75" x="0" y="0"/>
  <path d="M587.75 96.5L587.75 491.5C587.75 555 555 587.75 490.25 587.75L97.25 587.75C32.75 587.75 0 555.5 0 491.5L0 96.5C0 32.5 32.75 0 97.25 0L490.25 0C555 0 587.75 32.75 587.75 96.5ZM127.5 319.75L127.5 436.25C127.5 453.25 136.5 460.25 151.75 460.25L267.75 460.25C279.5 460.25 288.75 451 288.75 439.5C288.75 427.75 279.5 418.5 267.75 418.5L248 418.75L195 421.25L275.75 343.75C284.25 335.5 284.5 321 276 312.25C267.25 303.5 253 303.25 244.25 312.5L166.75 393.75L169.25 338.5L169.25 319.75C169.25 308 160 298.75 148.5 298.75C136.75 298.75 127.5 308 127.5 319.75ZM320.25 127.25C308.5 127.25 299.25 136.5 299.25 148.25C299.25 159.75 308.5 169 320.25 169L340 169L393 166.25L312.25 243.75C303.75 252.25 303.5 266.75 312 275.25C320.75 284 335 284.25 343.75 275L421.5 193.75L418.75 249.25L418.75 268C418.75 279.5 428 288.75 439.5 288.75C451.25 288.75 460.5 279.5 460.5 268L460.5 151.5C460.5 134.5 451.5 127.25 436.25 127.25Z" fill="black" fill-opacity="0.85"/>
 </g>
</svg>
