<?xml version="1.0" encoding="UTF-8"?>
<!--Generator: Apple Native CoreSVG 326-->
<!DOCTYPE svg
PUBLIC "-//W3C//DTD SVG 1.1//EN"
       "http://www.w3.org/Graphics/SVG/1.1/DTD/svg11.dtd">
<svg version="1.1" xmlns="http://www.w3.org/2000/svg" xmlns:xlink="http://www.w3.org/1999/xlink" viewBox="0 0 587.75 587.75">
 <g>
  <rect height="587.75" opacity="0" width="587.75" x="0" y="0"/>
  <path d="M97.25 587.75L490.25 587.75C555 587.75 587.75 555 587.75 491.5L587.75 96.5C587.75 32.75 555 0 490.25 0L97.25 0C32.75 0 0 32.5 0 96.5L0 491.5C0 555.5 32.75 587.75 97.25 587.75ZM98.25 543.5C63.25 543.5 44.25 525 44.25 489L44.25 98.75C44.25 63 63.25 44.25 98.25 44.25L489.5 44.25C523.75 44.25 543.5 63 543.5 98.75L543.5 489C543.5 525 523.75 543.5 489.5 543.5Z" fill="black" fill-opacity="0.85"/>
  <path d="M106 293.75C106 305 113.75 312.5 124.5 312.5L280.75 312.5L340.25 309.5L276 368L250.25 392.5C246.25 396 244.5 400.5 244.5 406.25C244.5 417.25 252 424.5 262.75 424.5C267.75 424.5 273.5 421.75 277.5 418L389.25 307.75C393.5 303.75 395.5 298.75 395.5 293.75C395.5 288.75 393.25 283.75 389.25 279.75L277 168.5C272.75 164.25 268 162.5 262.75 162.5C252.5 162.5 244.5 169.75 244.5 180.5C244.5 185.75 246.25 190.75 250.25 194.75L275.5 219.25L340 278L280.75 275.25L124.5 275.25C113.75 275.25 106 283 106 293.75ZM440.75 432.75C451.75 432.75 459.5 425.25 459.5 414.25L459.5 172.75C459.5 161.75 451.75 154.25 440.75 154.25C430.25 154.25 422.25 161.75 422.25 172.75L422.25 414.25C422.25 425.25 430.25 432.75 440.75 432.75Z" fill="black" fill-opacity="0.85"/>
 </g>
</svg>
