<?xml version="1.0" encoding="UTF-8"?>
<!--Generator: Apple Native CoreSVG 326-->
<!DOCTYPE svg
PUBLIC "-//W3C//DTD SVG 1.1//EN"
       "http://www.w3.org/Graphics/SVG/1.1/DTD/svg11.dtd">
<svg version="1.1" xmlns="http://www.w3.org/2000/svg" xmlns:xlink="http://www.w3.org/1999/xlink" viewBox="0 0 587.75 590.75">
 <g>
  <rect height="590.75" opacity="0" width="587.75" x="0" y="0"/>
  <path d="M97.25 587.75L490.25 587.75C555 587.75 587.75 555 587.75 491.25L587.75 96.25C587.75 32.75 555 0 490.25 0L97.25 0C32.75 0 0 32.25 0 96.25L0 491.25C0 555.25 32.75 587.75 97.25 587.75ZM98.25 543.5C63.25 543.5 44.25 525 44.25 489L44.25 98.75C44.25 62.75 63.25 44.25 98.25 44.25L489.5 44.25C523.75 44.25 543.5 62.75 543.5 98.75L543.5 489C543.5 525 523.75 543.5 489.5 543.5Z" fill="black" fill-opacity="0.85"/>
  <path d="M248.75 455.5C323.5 455.5 369.75 401.75 369.75 327.5L369.75 223.75L368.5 186.5L387 209.75L426.25 250C429.75 253.75 435 256.5 440.75 256.5C452.25 256.5 461 247.75 461 236.5C461 230.5 459 226 455 222L368 136.25C363.25 131.5 357 128.75 350.25 128.75C343.5 128.75 337.75 131.5 333 136.25L245.25 222.25C241.25 226.25 239.25 230.75 239.25 236.75C239.25 247.75 248 256.5 259.5 256.5C265 256.5 270.25 254.25 274.25 250.25L318.5 204.5L332 186.5L330.75 223.75L330.75 327.5C330.75 377.75 301.5 414.75 250.75 414.75C199 414.75 166.75 378.5 166.75 327.25C166.75 322.25 166.75 282 166.75 280.75C166.75 268.75 159.5 259.75 146.75 259.75C134 259.75 127 268.75 127 281.25C127 282.75 127 322.25 127 327.25C127 401.5 174 455.5 248.75 455.5Z" fill="black" fill-opacity="0.85"/>
 </g>
</svg>
