<?xml version="1.0" encoding="UTF-8"?>
<!--Generator: Apple Native CoreSVG 326-->
<!DOCTYPE svg
PUBLIC "-//W3C//DTD SVG 1.1//EN"
       "http://www.w3.org/Graphics/SVG/1.1/DTD/svg11.dtd">
<svg version="1.1" xmlns="http://www.w3.org/2000/svg" xmlns:xlink="http://www.w3.org/1999/xlink" viewBox="0 0 613.127 751.75">
 <g>
  <rect height="751.75" opacity="0" width="613.127" x="0" y="0"/>
  <path d="M605.064 580.5C616.064 570 615.564 554 605.064 543.75L439.314 380.5C434.314 375.5 427.314 372.5 420.814 372.5C406.314 372.5 396.564 382.5 396.564 396.75C396.564 403.75 399.064 409.25 403.814 414.25L476.814 485.25L538.314 540.25L465.564 537.75L24.5636 537.75C10.5636 537.75 0.0635898 547.75 0.0635898 562.25C0.0635898 576.5 10.5636 586.5 24.5636 586.5L465.564 586.5L538.314 584L476.814 639L403.814 710C399.064 715 396.564 720.5 396.564 727.5C396.564 741.75 406.314 751.75 420.814 751.75C427.314 751.75 434.314 748.75 439.314 743.75Z" fill="black" fill-opacity="0.85"/>
  <path d="M8.31359 171.5C-2.93641 182-2.43641 198 8.31359 208L174.064 371.25C179.064 376.25 186.064 379.25 192.564 379.25C206.814 379.25 216.564 369.25 216.564 355C216.564 348 214.314 342.5 209.314 337.75L136.564 266.5L74.8136 211.5L147.814 214L588.564 214C602.564 214 613.064 204 613.064 189.75C613.064 175.5 602.564 165.25 588.564 165.25L147.814 165.25L74.8136 167.75L136.564 112.75L209.314 41.75C214.314 36.75 216.564 31.25 216.564 24.25C216.564 10.25 206.814 0 192.564 0C186.064 0 179.064 3.25 174.064 8.25Z" fill="black" fill-opacity="0.85"/>
 </g>
</svg>
