<?xml version="1.0" encoding="UTF-8"?>
<!--Generator: Apple Native CoreSVG 326-->
<!DOCTYPE svg
PUBLIC "-//W3C//DTD SVG 1.1//EN"
       "http://www.w3.org/Graphics/SVG/1.1/DTD/svg11.dtd">
<svg version="1.1" xmlns="http://www.w3.org/2000/svg" xmlns:xlink="http://www.w3.org/1999/xlink" viewBox="0 0 584 686.75">
 <g>
  <rect height="686.75" opacity="0" width="584" x="0" y="0"/>
  <path d="M292 686.75C302.25 686.75 313.75 683.25 326.25 670L563.5 415.75C577.5 401 584 391 584 376.75C584 356.25 567.75 342.25 548 342.25L421.75 342.25L421.75 76C421.75 27.5 394.75 0 347.5 0L235.25 0C188 0 161.25 27.5 161.25 76L161.25 342.25L34.5 342.25C14.75 342.25 0 356.25 0 376.25C0 390.5 6.25 402.25 18.75 415.75L258 670C270.25 683 281.75 686.75 292 686.75ZM292 637.75C289.25 637.75 286.75 636.5 283 632.5L61.75 397.5C59.5 395.25 58.5 393.25 58.5 391.25C58.5 388.25 60.5 386.5 63.75 386.5L192.75 386.5C199.75 386.5 203 383.5 203 376.25L203 76.5C203 54.25 215.25 41.75 237.25 41.75L345.5 41.75C367.75 41.75 380 54.25 380 76.5L380 376.25C380 383.5 383 386.5 390.25 386.5L522.5 386.5C525.5 386.5 527.5 388.5 527.5 391.5C527.5 394 526 395.75 524.25 397.75L301 632.5C297.25 636.25 294.75 637.75 292 637.75Z" fill="black" fill-opacity="0.85"/>
 </g>
</svg>
