<?xml version="1.0" encoding="UTF-8"?>
<!--Generator: Apple Native CoreSVG 326-->
<!DOCTYPE svg
PUBLIC "-//W3C//DTD SVG 1.1//EN"
       "http://www.w3.org/Graphics/SVG/1.1/DTD/svg11.dtd">
<svg version="1.1" xmlns="http://www.w3.org/2000/svg" xmlns:xlink="http://www.w3.org/1999/xlink" viewBox="0 0 642.75 592.75">
 <g>
  <rect height="592.75" opacity="0" width="642.75" x="0" y="0"/>
  <path d="M642.75 201C642.75 336.75 526.25 469.75 347.25 585C341 589 332.25 592.75 326.25 592.75C320 592.75 311.25 589 305 585C126.25 469.75 9.5 336.75 9.5 201C9.5 89.5 86.5 10 186.75 10C248 10 298.25 44.75 326.25 97.5C354.5 44.5 404.25 10 465.75 10C566 10 642.75 89.5 642.75 201ZM300 184.75L300 214.5C249 222.75 208.75 269.25 208.75 323.75C208.75 387.25 258.5 437.5 321.5 437.5C384 437.5 434 387.25 434 324.25C434 314.5 425.75 306.5 416.25 306.5C406.5 306.5 398.25 314.5 398.25 324.25C398.25 367 364.25 401.5 321.5 401.5C278.5 401.5 244.5 367.25 244.5 324.25C244.5 289.25 267.75 259.75 300 250.75L300 285.5C300 296.75 312 300.75 320.25 293.75L376 246.75C384 239.75 384.25 229.75 376 222.75L320.25 176.5C312 169.5 300 173.25 300 184.75Z" fill="black" fill-opacity="0.85"/>
 </g>
</svg>
