<?xml version="1.0" encoding="UTF-8"?>
<!--Generator: Apple Native CoreSVG 326-->
<!DOCTYPE svg
PUBLIC "-//W3C//DTD SVG 1.1//EN"
       "http://www.w3.org/Graphics/SVG/1.1/DTD/svg11.dtd">
<svg version="1.1" xmlns="http://www.w3.org/2000/svg" xmlns:xlink="http://www.w3.org/1999/xlink" viewBox="0 0 651.25 651.75">
 <g>
  <rect height="651.75" opacity="0" width="651.25" x="0" y="0"/>
  <path d="M325.5 651.25C505.25 651.25 651.25 505.5 651.25 325.75C651.25 146 505.25 0 325.5 0C145.75 0 0 146 0 325.75C0 505.5 145.75 651.25 325.5 651.25ZM325.5 604.75C171.25 604.75 46.5 480 46.5 325.75C46.5 171.5 171.25 46.75 325.5 46.75C479.75 46.75 604.5 171.5 604.5 325.75C604.5 480 479.75 604.75 325.5 604.75Z" fill="black" fill-opacity="0.85"/>
  <path d="M129.75 325.75C129.75 337 137.5 344.5 148.25 344.5L304.25 344.5L363.75 341.5L299.5 400L273.75 424.5C269.75 428 268.25 432.5 268.25 438.25C268.25 449.25 275.75 456.5 286.25 456.5C291.5 456.5 297.25 453.75 301.25 450L413 339.75C417.25 335.75 419.25 330.75 419.25 325.75C419.25 320.75 417 315.75 413 311.75L300.5 200.5C296.5 196.25 291.75 194.5 286.5 194.5C276.25 194.5 268.25 201.75 268.25 212.5C268.25 217.75 269.75 222.75 273.75 226.75L299.25 251.25L363.5 310L304.25 307.25L148.25 307.25C137.5 307.25 129.75 315 129.75 325.75ZM464.5 464.75C475.5 464.75 483.25 457.25 483.25 446.25L483.25 204.75C483.25 193.75 475.5 186.25 464.5 186.25C453.75 186.25 446 193.75 446 204.75L446 446.25C446 457.25 453.75 464.75 464.5 464.75Z" fill="black" fill-opacity="0.85"/>
 </g>
</svg>
