<?xml version="1.0" encoding="UTF-8"?>
<!--Generator: Apple Native CoreSVG 326-->
<!DOCTYPE svg
PUBLIC "-//W3C//DTD SVG 1.1//EN"
       "http://www.w3.org/Graphics/SVG/1.1/DTD/svg11.dtd">
<svg version="1.1" xmlns="http://www.w3.org/2000/svg" xmlns:xlink="http://www.w3.org/1999/xlink" viewBox="0 0 587.75 587.75">
 <g>
  <rect height="587.75" opacity="0" width="587.75" x="0" y="0"/>
  <path d="M587.75 96.5L587.75 491.5C587.75 555 555 587.75 490.25 587.75L97.25 587.75C32.75 587.75 0 555.5 0 491.5L0 96.5C0 32.5 32.75 0 97.25 0L490.25 0C555 0 587.75 32.75 587.75 96.5ZM332.5 308C332.5 313.25 334.25 317.75 338 321.5L376.25 358.5L394 375.5L375.25 374.5L150 374.5C139.75 374.5 131.75 382.5 131.75 393.25C131.75 404.25 139.5 412.25 150 412.25L375 412.25L394 411.75L376.25 428.25L338.5 465.25C334.75 469.25 332.5 473.5 332.5 478.75C332.5 489.25 340.5 497.25 351 497.25C355.75 497.25 360.75 495 364.75 491.5L450.25 407C458 399.25 457.75 387.5 450.25 379.75L364.75 295.25C361.25 292 356 289.75 351 289.75C340 289.75 332.5 297.5 332.5 308ZM222.75 97.25L137.25 181.25C129.75 188.5 129.75 201.5 137.25 209L222.75 293.5C226.75 296.75 231.75 298.75 236.5 298.75C247.25 298.75 255 291.25 255 280.5C255 275.5 253 270.75 249.25 267L211.5 230L193.75 213L212.25 214L437.5 214C448 214 456.25 205.75 456.25 195.25C456.25 184.25 448.25 176.25 437.5 176.25L212.5 176.25L194 176.75L211.5 160.25L249.25 123.25C253 119.5 255 114.75 255 109.5C255 99 247.25 91.25 236.5 91.25C231.75 91.25 226.5 93.5 222.75 97.25Z" fill="black" fill-opacity="0.85"/>
 </g>
</svg>
