<?xml version="1.0" encoding="UTF-8"?>
<!--Generator: Apple Native CoreSVG 326-->
<!DOCTYPE svg
PUBLIC "-//W3C//DTD SVG 1.1//EN"
       "http://www.w3.org/Graphics/SVG/1.1/DTD/svg11.dtd">
<svg version="1.1" xmlns="http://www.w3.org/2000/svg" xmlns:xlink="http://www.w3.org/1999/xlink" viewBox="0 0 651.25 651.75">
 <g>
  <rect height="651.75" opacity="0" width="651.25" x="0" y="0"/>
  <path d="M325.5 651.25C505.25 651.25 651.25 505.5 651.25 325.75C651.25 146 505.25 0 325.5 0C145.75 0 0 146 0 325.75C0 505.5 145.75 651.25 325.5 651.25ZM325.5 604.75C171.25 604.75 46.5 480 46.5 325.75C46.5 171.5 171.25 46.75 325.5 46.75C479.75 46.75 604.5 171.5 604.5 325.75C604.5 480 479.75 604.75 325.5 604.75Z" fill="black" fill-opacity="0.85"/>
  <path d="M162.25 464.75C169.25 464.75 176 462.5 181.5 452.25C210.75 395.25 255 376.5 327 376.5L333 376.5L333 446C333 456.5 340.5 464.75 351 464.75C359 464.75 365.25 461 372.5 454.5L511.5 324C518.75 317.25 520.75 311 520.75 305.25C520.75 299.75 518.75 293.5 511.5 286.75L372.5 157C364.5 149.75 359.25 146 351.25 146C340.5 146 333 154.75 333 165.25L333 234.75L327 234.75C205.25 234.75 145.75 310.5 145.75 443.75C145.75 457.25 153.75 464.75 162.25 464.75Z" fill="black" fill-opacity="0.85"/>
 </g>
</svg>
