<?xml version="1.0" encoding="UTF-8"?>
<!--Generator: Apple Native CoreSVG 326-->
<!DOCTYPE svg
PUBLIC "-//W3C//DTD SVG 1.1//EN"
       "http://www.w3.org/Graphics/SVG/1.1/DTD/svg11.dtd">
<svg version="1.1" xmlns="http://www.w3.org/2000/svg" xmlns:xlink="http://www.w3.org/1999/xlink" viewBox="0 0 587.75 587.75">
 <g>
  <rect height="587.75" opacity="0" width="587.75" x="0" y="0"/>
  <path d="M97.25 587.75L490.25 587.75C555 587.75 587.75 555 587.75 491.5L587.75 96.5C587.75 32.75 555 0 490.25 0L97.25 0C32.75 0 0 32.5 0 96.5L0 491.5C0 555.5 32.75 587.75 97.25 587.75ZM98.25 543.5C63.25 543.5 44.25 525 44.25 489L44.25 98.75C44.25 63 63.25 44.25 98.25 44.25L489.5 44.25C523.75 44.25 543.5 63 543.5 98.75L543.5 489C543.5 525 523.75 543.5 489.5 543.5Z" fill="black" fill-opacity="0.85"/>
  <path d="M397.5 372.25C409.5 372.25 417.75 363.25 417.75 350.25L417.75 192.75C417.75 176.5 408.75 170 395 170L236.25 170C223.5 170 215 178 215 190C215 202.25 223.75 210.5 236.75 210.5L307.75 210.5L354.75 206.5L308.75 249.5L176.75 381.5C172.75 385.5 170 390.75 170 396.5C170 409 178 417 190.25 417C197.25 417 202.25 414.5 206.25 410.75L338 279L380.75 233.25L377 285.5L377 350.75C377 364 385.25 372.25 397.5 372.25Z" fill="black" fill-opacity="0.85"/>
 </g>
</svg>
