<?xml version="1.0" encoding="UTF-8"?>
<!--Generator: Apple Native CoreSVG 326-->
<!DOCTYPE svg
PUBLIC "-//W3C//DTD SVG 1.1//EN"
       "http://www.w3.org/Graphics/SVG/1.1/DTD/svg11.dtd">
<svg version="1.1" xmlns="http://www.w3.org/2000/svg" xmlns:xlink="http://www.w3.org/1999/xlink" viewBox="0 0 651.25 651.75">
 <g>
  <rect height="651.75" opacity="0" width="651.25" x="0" y="0"/>
  <path d="M325.5 651.25C505.25 651.25 651.25 505.5 651.25 325.75C651.25 146 505.25 0 325.5 0C145.75 0 0 146 0 325.75C0 505.5 145.75 651.25 325.5 651.25ZM325.5 604.75C171.25 604.75 46.5 480 46.5 325.75C46.5 171.5 171.25 46.75 325.5 46.75C479.75 46.75 604.5 171.5 604.5 325.75C604.5 480 479.75 604.75 325.5 604.75Z" fill="black" fill-opacity="0.85"/>
  <path d="M212.75 173L130.25 256.75C126.75 260.5 124.5 265.75 124.5 270C124.5 280.25 132.25 288 142.5 288C147.25 288 152 285.75 155.5 282.25L192 245L208.25 227.5L207.75 246.5L207.75 466.25C207.75 476.5 215.75 484.25 226 484.25C236.5 484.25 244.25 476.5 244.25 466.25L244.25 246.25L243.25 227.5L260 245L296.5 282.5C300 286 304.75 288 309.5 288C319.75 288 327.25 280.5 327.25 270C327.25 265.25 325 260 321.75 256.75L239.25 173C232.25 166.25 220.75 165 212.75 173ZM438 478.75L520.25 395.25C523.75 391.5 526 386.5 526 381.75C526 371.5 518.5 364 508.25 364C503.25 364 498.5 366 495 369.25L458.75 406.5L442.25 424L442.75 405.5L442.75 185.5C442.75 175 435 167.5 424.5 167.5C414.25 167.5 406.5 175.25 406.5 185.5L406.5 405.75L407.25 424.25L390.5 406.5L354.25 369.25C350.5 365.75 346 364 341 364C330.5 364 323.5 371.25 323.5 381.75C323.5 386.5 325.25 391.25 328.75 395.25L411.25 478.75C417.75 485.5 430.5 486.5 438 478.75Z" fill="black" fill-opacity="0.85"/>
 </g>
</svg>
