<?xml version="1.0" encoding="UTF-8"?>
<!--Generator: Apple Native CoreSVG 326-->
<!DOCTYPE svg
PUBLIC "-//W3C//DTD SVG 1.1//EN"
       "http://www.w3.org/Graphics/SVG/1.1/DTD/svg11.dtd">
<svg version="1.1" xmlns="http://www.w3.org/2000/svg" xmlns:xlink="http://www.w3.org/1999/xlink" viewBox="0 0 775.551 651.75">
 <g>
  <rect height="651.75" opacity="0" width="775.551" x="0" y="0"/>
  <path d="M387.775 651.25C567.525 651.25 713.275 505.5 713.275 325.75C713.275 146 567.525 0 387.775 0C208.025 0 62.2754 146 62.2754 325.75L108.775 325.75C108.775 171.5 233.525 46.75 387.775 46.75C542.025 46.75 666.775 171.5 666.775 325.75C666.775 480 542.025 604.75 387.775 604.75C292.275 604.75 207.025 556.25 158.275 483.25C150.025 472 137.025 468.5 125.525 475.5C114.525 482 111.275 497.25 120.275 509.5C178.525 595.25 277.025 651.25 387.775 651.25ZM20.5254 265.25C0.0253627 265.25-5.72464 279.25 6.02536 295.5L77.0254 396.5C86.5254 410.25 100.275 410 109.525 396.5L180.525 295.25C191.775 279.25 186.275 265.25 166.025 265.25Z" fill="black" fill-opacity="0.85"/>
  <path d="M226.525 454C234.525 454 239.775 449.75 241.775 440.75L257.025 382.25L337.525 382.25L352.775 440.75C355.275 449.75 359.775 454 368.775 454C376.775 454 383.775 449.25 383.775 439.5C383.775 436.5 383.275 433.5 382.275 429.75L320.775 213C317.025 200.5 310.525 193.75 297.525 193.75C284.525 193.75 277.275 201 273.775 213.25L212.775 429.75C212.025 433 211.275 436.25 211.275 439.5C211.275 449.25 218.275 454 226.525 454ZM263.525 357L295.525 232.25L298.025 232.25L330.775 357ZM482.525 446.5C524.525 446.5 555.025 423.5 555.025 382.5C555.025 345.5 532.525 330.5 501.025 315.5L479.275 305C459.525 295.5 441.525 283 441.525 261C441.525 238 459.275 226.25 481.775 226.25C506.775 226.25 517.775 241.75 522.275 266C524.275 273.25 528.775 277.5 536.275 277.5C545.025 277.5 550.775 272.5 550.775 263.5C550.775 260.5 550.275 256.75 549.275 252.5C542.025 219.25 516.775 201.25 481.775 201.25C442.525 201.25 411.775 223.25 411.775 263C411.775 296.5 431.275 314.5 464.275 330L486.025 340.5C507.525 350.5 525.275 361.75 525.275 385.25C525.275 409.5 508.275 421.25 482.525 421.25C453.275 421.25 441.525 403.5 437.525 381C435.275 371.75 430.025 368 423.025 368C415.025 368 408.525 373.25 408.525 382.5C408.525 385.5 408.775 388.5 409.525 392C415.025 423.75 443.525 446.5 482.525 446.5ZM482.025 480C486.275 480 490.025 476.25 490.025 471.75L490.025 176.75C490.025 172.25 486.275 168.5 482.025 168.5C477.525 168.5 473.775 172.25 473.775 176.75L473.775 471.75C473.775 476.25 477.525 480 482.025 480Z" fill="black" fill-opacity="0.85"/>
 </g>
</svg>
