<?xml version="1.0" encoding="UTF-8"?>
<!--Generator: Apple Native CoreSVG 326-->
<!DOCTYPE svg
PUBLIC "-//W3C//DTD SVG 1.1//EN"
       "http://www.w3.org/Graphics/SVG/1.1/DTD/svg11.dtd">
<svg version="1.1" xmlns="http://www.w3.org/2000/svg" xmlns:xlink="http://www.w3.org/1999/xlink" viewBox="0 0 775.551 651.75">
 <g>
  <rect height="651.75" opacity="0" width="775.551" x="0" y="0"/>
  <path d="M387.775 651.25C567.525 651.25 713.275 505.5 713.275 325.75C713.275 146 567.525 0 387.775 0C208.025 0 62.2754 146 62.2754 325.75L108.775 325.75C108.775 171.5 233.525 46.75 387.775 46.75C542.025 46.75 666.775 171.5 666.775 325.75C666.775 480 542.025 604.75 387.775 604.75C292.275 604.75 207.025 556.25 158.275 483.25C150.025 472 137.025 468.5 125.525 475.5C114.525 482 111.275 497.25 120.275 509.5C178.525 595.25 277.025 651.25 387.775 651.25ZM20.5254 265.25C0.0253627 265.25-5.72464 279.25 6.02536 295.5L77.0254 396.5C86.5254 410.25 100.275 410 109.525 396.5L180.525 295.25C191.775 279.25 186.275 265.25 166.025 265.25Z" fill="black" fill-opacity="0.85"/>
  <path d="M321.025 465.75L400.775 465.75C456.025 465.75 497.525 440 497.525 388.5C497.525 350.25 470.025 323.75 430.775 319.5L430.775 317.5C462.025 312.25 483.025 284.75 483.025 255.5C483.025 211.25 446.275 186.5 400.025 186.5L321.025 186.5C308.525 186.5 300.025 195 300.025 207.5L300.025 444.75C300.025 457.25 308.525 465.75 321.025 465.75ZM333.525 308L333.525 214.5L392.025 214.5C423.775 214.5 449.275 227.5 449.275 259.5C449.275 295 419.525 308 383.775 308ZM333.525 437.5L333.525 335.5L391.275 335.5C430.025 335.5 463.275 348.5 463.275 386.5C463.275 424.25 432.275 437.5 394.775 437.5ZM341.025 202.75L360.775 202.75L360.775 155.25C360.775 149.5 356.525 145.25 351.025 145.25C345.025 145.25 341.025 149.5 341.025 155.25ZM391.775 202.75L411.275 202.75L411.275 155.25C411.275 149.5 407.275 145.25 401.525 145.25C395.775 145.25 391.775 149.5 391.775 155.25ZM341.025 449L341.025 498.25C341.025 504 345.025 508 351.025 508C356.525 508 360.775 504 360.775 498.25L360.775 449ZM391.775 449L391.775 498.25C391.775 504 395.775 508 401.525 508C407.275 508 411.275 504 411.275 498.25L411.275 449Z" fill="black" fill-opacity="0.85"/>
 </g>
</svg>
