<?xml version="1.0" encoding="UTF-8"?>
<!--Generator: Apple Native CoreSVG 326-->
<!DOCTYPE svg
PUBLIC "-//W3C//DTD SVG 1.1//EN"
       "http://www.w3.org/Graphics/SVG/1.1/DTD/svg11.dtd">
<svg version="1.1" xmlns="http://www.w3.org/2000/svg" xmlns:xlink="http://www.w3.org/1999/xlink" viewBox="0 0 775.551 651.75">
 <g>
  <rect height="651.75" opacity="0" width="775.551" x="0" y="0"/>
  <path d="M387.775 651.25C567.525 651.25 713.275 505.5 713.275 325.75C713.275 146 567.525 0 387.775 0C208.025 0 62.2754 146 62.2754 325.75L108.775 325.75C108.775 171.5 233.525 46.75 387.775 46.75C542.025 46.75 666.775 171.5 666.775 325.75C666.775 480 542.025 604.75 387.775 604.75C292.275 604.75 207.025 556.25 158.275 483.25C150.025 472 137.025 468.5 125.525 475.5C114.525 482 111.275 497.25 120.275 509.5C178.525 595.25 277.025 651.25 387.775 651.25ZM20.5254 265.25C0.0253627 265.25-5.72464 279.25 6.02536 295.5L77.0254 396.5C86.5254 410.25 100.275 410 109.525 396.5L180.525 295.25C191.775 279.25 186.275 265.25 166.025 265.25Z" fill="black" fill-opacity="0.85"/>
  <path d="M388.025 435.5C415.025 435.5 442.025 426 459.525 409C469.275 399.25 477.775 384 477.775 373.25C477.775 363.75 470.525 358.75 462.775 358.75C454.775 358.75 451.275 364 448.025 369.75C436.025 394.5 417.275 407.75 388.275 407.75C341.275 407.75 318.275 372 318.275 324.25C318.275 276.25 341.775 240.75 387.775 240.75C415.775 240.75 437.025 253.25 447.775 278.75C450.775 285.75 456.025 289.75 462.775 289.75C471.525 289.75 477.275 284.25 477.275 275.25C477.275 263.25 468.525 249.5 458.775 239.5C441.525 222.5 415.775 213 387.525 213C322.775 213 285.275 259.75 285.275 324.25C285.275 392.75 325.775 435.5 388.025 435.5ZM386.525 472.75C392.275 472.75 396.525 468.5 396.525 462.75L396.525 185.5C396.525 180 392.275 175.5 386.525 175.5C381.025 175.5 376.525 180 376.525 185.5L376.525 462.75C376.525 468.5 381.025 472.75 386.525 472.75Z" fill="black" fill-opacity="0.85"/>
 </g>
</svg>
