<?xml version="1.0" encoding="UTF-8"?>
<!--Generator: Apple Native CoreSVG 326-->
<!DOCTYPE svg
PUBLIC "-//W3C//DTD SVG 1.1//EN"
       "http://www.w3.org/Graphics/SVG/1.1/DTD/svg11.dtd">
<svg version="1.1" xmlns="http://www.w3.org/2000/svg" xmlns:xlink="http://www.w3.org/1999/xlink" viewBox="0 0 651.25 775.962">
 <g>
  <rect height="775.962" opacity="0" width="651.25" x="0" y="0"/>
  <path d="M325.5 713.356C505.25 713.356 651.25 567.606 651.25 387.856C651.25 228.356 536 95.8561 386 68.1061L386 20.3561C386 0.106141 372-5.64386 355.75 5.85614L254.75 76.8561C241 86.6061 241.25 100.356 254.75 109.606L356 180.606C372 191.856 386 186.356 386 166.106L386 115.356C510.75 142.856 604.5 253.856 604.5 387.856C604.5 542.106 479.75 666.856 325.5 666.856C171.25 666.856 46.5 542.106 46.5 387.856C46.5 292.106 95 207.856 168 158.356C179.25 149.856 182.75 136.856 175.75 125.356C169.25 114.356 153.5 111.106 141.25 120.106C56 178.856 0 276.106 0 387.856C0 567.606 145.75 713.356 325.5 713.356Z" fill="black" fill-opacity="0.85"/>
  <path d="M290.5 540.856C299.75 540.856 307.25 536.606 312.75 528.106L466 287.856C469.25 282.856 472.5 276.606 472.5 270.606C472.5 258.356 461.5 250.106 450.25 250.106C443 250.106 436 254.606 431 262.606L289.5 487.356L219 399.106C212.5 390.606 206.25 388.106 198.75 388.106C186.75 388.106 177.25 397.856 177.25 410.106C177.25 416.106 179.75 422.106 183.75 427.356L267.25 528.106C274.25 537.106 281.25 540.856 290.5 540.856Z" fill="black" fill-opacity="0.85"/>
 </g>
</svg>
