<?xml version="1.0" encoding="UTF-8"?>
<!--Generator: Apple Native CoreSVG 326-->
<!DOCTYPE svg
PUBLIC "-//W3C//DTD SVG 1.1//EN"
       "http://www.w3.org/Graphics/SVG/1.1/DTD/svg11.dtd">
<svg version="1.1" xmlns="http://www.w3.org/2000/svg" xmlns:xlink="http://www.w3.org/1999/xlink" viewBox="0 0 587.75 587.75">
 <g>
  <rect height="587.75" opacity="0" width="587.75" x="0" y="0"/>
  <path d="M587.75 96.5L587.75 491.5C587.75 555 555 587.75 490.25 587.75L97.25 587.75C32.75 587.75 0 555.5 0 491.5L0 96.5C0 32.5 32.75 0 97.25 0L490.25 0C555 0 587.75 32.75 587.75 96.5ZM266 198.5L132.25 339.5C123.25 348.5 123.25 362 131.25 369.75C140 378.75 153.75 378.75 162 370L294.25 231.25L426.5 370C434.5 378.75 448.5 378.75 457.25 369.75C465.25 362 465 348.5 456.25 339.5L322.25 198.5C304.25 179.75 284 179.75 266 198.5Z" fill="black" fill-opacity="0.85"/>
 </g>
</svg>
