<?xml version="1.0" encoding="UTF-8"?>
<!--Generator: Apple Native CoreSVG 326-->
<!DOCTYPE svg
PUBLIC "-//W3C//DTD SVG 1.1//EN"
       "http://www.w3.org/Graphics/SVG/1.1/DTD/svg11.dtd">
<svg version="1.1" xmlns="http://www.w3.org/2000/svg" xmlns:xlink="http://www.w3.org/1999/xlink" viewBox="0 0 578.75 580.75">
 <g>
  <rect height="580.75" opacity="0" width="578.75" x="0" y="0"/>
  <path d="M268.25 258.5C283 258.5 295 246.5 295 231.75C295 216.75 283 205 268.25 205C253.25 205 241.25 216.75 241.25 231.75C241.25 246.5 253.25 258.5 268.25 258.5ZM187.75 258.5C202.5 258.5 214.5 246.5 214.5 231.75C214.5 216.75 202.5 205 187.75 205C172.75 205 160.75 216.75 160.75 231.75C160.75 246.5 172.75 258.5 187.75 258.5ZM107.25 258.5C122.25 258.5 134 246.5 134 231.75C134 216.75 122.25 205 107.25 205C92.5 205 80.5 216.75 80.5 231.75C80.5 246.5 92.5 258.5 107.25 258.5ZM26.75 258.5C41.75 258.5 53.75 246.5 53.75 231.75C53.75 216.75 41.75 205 26.75 205C12 205 0 216.75 0 231.75C0 246.5 12 258.5 26.75 258.5ZM348.5 580.25C363.5 580.25 375.5 568.25 375.5 553.5C375.5 538.5 363.5 526.75 348.5 526.75C333.75 526.75 321.75 538.5 321.75 553.5C321.75 568.25 333.75 580.25 348.5 580.25ZM348.5 499.75C363.5 499.75 375.5 488 375.5 473C375.5 458.25 363.5 446.25 348.5 446.25C333.75 446.25 321.75 458.25 321.75 473C321.75 488 333.75 499.75 348.5 499.75ZM348.5 419.5C363.5 419.5 375.5 407.5 375.5 392.5C375.5 377.75 363.5 365.75 348.5 365.75C333.75 365.75 321.75 377.75 321.75 392.5C321.75 407.5 333.75 419.5 348.5 419.5ZM348.5 339C363.5 339 375.5 327 375.5 312.25C375.5 297.25 363.5 285.25 348.5 285.25C333.75 285.25 321.75 297.25 321.75 312.25C321.75 327 333.75 339 348.5 339ZM348.5 258.5C363.5 258.5 375.5 246.5 375.5 231.75C375.5 216.75 363.5 205 348.5 205C333.75 205 321.75 216.75 321.75 231.75C321.75 246.5 333.75 258.5 348.5 258.5Z" fill="black" fill-opacity="0.85"/>
  <path d="M471.5 53.75C486.25 53.75 498.25 41.75 498.25 26.75C498.25 12 486.25 0 471.5 0C456.5 0 444.5 12 444.5 26.75C444.5 41.75 456.5 53.75 471.5 53.75ZM391 53.75C406 53.75 417.75 41.75 417.75 26.75C417.75 12 406 0 391 0C376.25 0 364.25 12 364.25 26.75C364.25 41.75 376.25 53.75 391 53.75ZM310.5 53.75C325.5 53.75 337.5 41.75 337.5 26.75C337.5 12 325.5 0 310.5 0C295.75 0 283.75 12 283.75 26.75C283.75 41.75 295.75 53.75 310.5 53.75ZM230.25 53.75C245 53.75 257 41.75 257 26.75C257 12 245 0 230.25 0C215.25 0 203.25 12 203.25 26.75C203.25 41.75 215.25 53.75 230.25 53.75ZM552 375.5C566.75 375.5 578.75 363.5 578.75 348.5C578.75 333.75 566.75 321.75 552 321.75C537 321.75 525 333.75 525 348.5C525 363.5 537 375.5 552 375.5ZM552 295C566.75 295 578.75 283 578.75 268.25C578.75 253.25 566.75 241.25 552 241.25C537 241.25 525 253.25 525 268.25C525 283 537 295 552 295ZM552 214.5C566.75 214.5 578.75 202.5 578.75 187.75C578.75 172.75 566.75 161 552 161C537 161 525 172.75 525 187.75C525 202.5 537 214.5 552 214.5ZM552 134.25C566.75 134.25 578.75 122.25 578.75 107.25C578.75 92.5 566.75 80.5 552 80.5C537 80.5 525 92.5 525 107.25C525 122.25 537 134.25 552 134.25ZM552 53.75C566.75 53.75 578.75 41.75 578.75 26.75C578.75 12 566.75 0 552 0C537 0 525 12 525 26.75C525 41.75 537 53.75 552 53.75Z" fill="black" fill-opacity="0.85"/>
 </g>
</svg>
