<?xml version="1.0" encoding="UTF-8"?>
<!--Generator: Apple Native CoreSVG 326-->
<!DOCTYPE svg
PUBLIC "-//W3C//DTD SVG 1.1//EN"
       "http://www.w3.org/Graphics/SVG/1.1/DTD/svg11.dtd">
<svg version="1.1" xmlns="http://www.w3.org/2000/svg" xmlns:xlink="http://www.w3.org/1999/xlink" viewBox="0 0 587.75 587.75">
 <g>
  <rect height="587.75" opacity="0" width="587.75" x="0" y="0"/>
  <path d="M97.25 587.75L490.25 587.75C555 587.75 587.75 555 587.75 491.5L587.75 96.5C587.75 32.75 555 0 490.25 0L97.25 0C32.75 0 0 32.5 0 96.5L0 491.5C0 555.5 32.75 587.75 97.25 587.75ZM98.25 543.5C63.25 543.5 44.25 525 44.25 489L44.25 98.75C44.25 63 63.25 44.25 98.25 44.25L489.5 44.25C523.75 44.25 543.5 63 543.5 98.75L543.5 489C543.5 525 523.75 543.5 489.5 543.5Z" fill="black" fill-opacity="0.85"/>
  <path d="M298.5 104.25C293.25 104.25 288 107 283.75 111L163 227.5C159.5 230.75 157.25 235.5 157.25 241.5C157.25 252.25 165.75 260.75 176.75 260.75C180.75 260.75 186.5 259.5 190.75 255.25L298.5 149.5L406.5 255.25C410.75 259.25 416 260.75 420.75 260.75C431.5 260.75 440 252.25 440 241.5C440 235.5 437.5 230.75 434 227.5L313.5 111C309.25 107 304 104.25 298.5 104.25ZM298.5 483C304 483 309.5 480.25 313.5 476.5L434 360C437.5 356.75 440 351.75 440 345.75C440 335.25 431.5 326.5 420.75 326.5C416 326.5 410.75 328.25 406.5 332.25L298.5 437.75L190.75 332.25C186.5 328 180.75 326.5 176.75 326.5C165.75 326.5 157.25 335.25 157.25 345.75C157.25 351.75 159.5 356.75 163 360L283.75 476.5C287.75 480.25 293.25 483 298.5 483Z" fill="black" fill-opacity="0.85"/>
 </g>
</svg>
