<?xml version="1.0" encoding="UTF-8"?>
<!--Generator: Apple Native CoreSVG 326-->
<!DOCTYPE svg
PUBLIC "-//W3C//DTD SVG 1.1//EN"
       "http://www.w3.org/Graphics/SVG/1.1/DTD/svg11.dtd">
<svg version="1.1" xmlns="http://www.w3.org/2000/svg" xmlns:xlink="http://www.w3.org/1999/xlink" viewBox="0 0 568 549.25">
 <g>
  <rect height="549.25" opacity="0" width="568" x="0" y="0"/>
  <path d="M541.25 73.25C556 73.25 568 61.25 568 46.5C568 31.5 556 19.5 541.25 19.5C526.25 19.5 514.25 31.5 514.25 46.5C514.25 61.25 526.25 73.25 541.25 73.25ZM484.5 130.25C499.5 130.25 511.5 118.25 511.5 103.5C511.5 88.5 499.5 76.75 484.5 76.75C469.75 76.75 457.75 88.5 457.75 103.5C457.75 118.25 469.75 130.25 484.5 130.25ZM428 187.5C442.75 187.5 454.75 175.5 454.75 160.5C454.75 145.75 442.75 133.75 428 133.75C413 133.75 401 145.75 401 160.5C401 175.5 413 187.5 428 187.5ZM371.25 244.5C386 244.5 398 232.5 398 217.5C398 202.75 386 190.75 371.25 190.75C356.25 190.75 344.5 202.75 344.5 217.5C344.5 232.5 356.25 244.5 371.25 244.5ZM314.5 301.5C329.5 301.5 341.5 289.5 341.5 274.75C341.5 259.75 329.5 247.75 314.5 247.75C299.75 247.75 287.75 259.75 287.75 274.75C287.75 289.5 299.75 301.5 314.5 301.5ZM371.25 358.5C386 358.5 398 346.5 398 331.75C398 316.75 386 305 371.25 305C356.25 305 344.5 316.75 344.5 331.75C344.5 346.5 356.25 358.5 371.25 358.5ZM428 415.75C442.75 415.75 454.75 403.75 454.75 388.75C454.75 374 442.75 362 428 362C413 362 401 374 401 388.75C401 403.75 413 415.75 428 415.75ZM484.5 472.75C499.5 472.75 511.5 460.75 511.5 445.75C511.5 431 499.5 419 484.5 419C469.75 419 457.75 431 457.75 445.75C457.75 460.75 469.75 472.75 484.5 472.75ZM541.25 529.75C556 529.75 568 517.75 568 503C568 488 556 476 541.25 476C526.25 476 514.25 488 514.25 503C514.25 517.75 526.25 529.75 541.25 529.75Z" fill="black" fill-opacity="0.85"/>
  <path d="M283 546C297.25 546 308 535.25 308 521.25C308 514.25 305.25 508 300.75 503.5L45.25 257.75L45.25 288.25L300.75 42.75C305.25 38 308 31.5 308 25C308 10.75 297.25 0 283 0C276 0 270.25 2.75 265.5 7.5L8.75 254C3.25 259 0 266 0 273.25C0 280.5 3 286.75 8.5 292L265.25 538.5C270 543.25 276 546 283 546Z" fill="black" fill-opacity="0.85"/>
 </g>
</svg>
