<?xml version="1.0" encoding="UTF-8"?>
<!--Generator: Apple Native CoreSVG 326-->
<!DOCTYPE svg
PUBLIC "-//W3C//DTD SVG 1.1//EN"
       "http://www.w3.org/Graphics/SVG/1.1/DTD/svg11.dtd">
<svg version="1.1" xmlns="http://www.w3.org/2000/svg" xmlns:xlink="http://www.w3.org/1999/xlink" viewBox="0 0 651.25 651.75">
 <g>
  <rect height="651.75" opacity="0" width="651.25" x="0" y="0"/>
  <path d="M651.25 325.75C651.25 505 505 651.25 325.5 651.25C146.25 651.25 0 505 0 325.75C0 146.25 146.25 0 325.5 0C505 0 651.25 146.25 651.25 325.75ZM162.75 261C154.75 269.5 155 282.5 163.75 291.75L297.75 432.5C315.5 451.5 336.25 451.25 354.25 432.5L488 291.75C496.75 282.5 497.25 269.25 489 261C480 252.25 466.25 251.75 458 260.75L326 399.5L193.75 260.75C185.5 251.75 171.5 252 162.75 261Z" fill="black" fill-opacity="0.85"/>
 </g>
</svg>
