<?xml version="1.0" encoding="UTF-8"?>
<!--Generator: Apple Native CoreSVG 326-->
<!DOCTYPE svg
PUBLIC "-//W3C//DTD SVG 1.1//EN"
       "http://www.w3.org/Graphics/SVG/1.1/DTD/svg11.dtd">
<svg version="1.1" xmlns="http://www.w3.org/2000/svg" xmlns:xlink="http://www.w3.org/1999/xlink" viewBox="0 0 564.75 424.25">
 <g>
  <rect height="424.25" opacity="0" width="564.75" x="0" y="0"/>
  <path d="M17 323.5L242.75 413C255.5 418 270.5 423.75 282.25 423.75C294.25 423.75 309.5 418 321.75 413L547.5 323.5C558.25 319.5 564.75 310 564.75 300.5C564.75 284.5 553 272.5 537.25 272.5C529.25 272.5 518.5 277 511.5 279.5L263.5 378L301 378L53 279.5C46 277 35.5 272.5 27.5 272.5C11.75 272.5 0 284.5 0 300.5C0 310 6.5 319.5 17 323.5ZM17 100.25C6.5 104.5 0 113.75 0 123.5C0 139.25 11.75 151.25 27.5 151.25C35.5 151.25 46 146.75 53 144.25L301 46L263.5 46L511.5 144.25C518.5 146.75 529.25 151.25 537.25 151.25C553 151.25 564.75 139.25 564.75 123.5C564.75 113.75 558.25 104.5 547.5 100.25L321.75 10.75C309.5 5.75 294.25 0 282.25 0C270.5 0 255.5 5.75 242.75 10.75Z" fill="black" fill-opacity="0.85"/>
 </g>
</svg>
