<?xml version="1.0" encoding="UTF-8"?>
<!--Generator: Apple Native CoreSVG 326-->
<!DOCTYPE svg
PUBLIC "-//W3C//DTD SVG 1.1//EN"
       "http://www.w3.org/Graphics/SVG/1.1/DTD/svg11.dtd">
<svg version="1.1" xmlns="http://www.w3.org/2000/svg" xmlns:xlink="http://www.w3.org/1999/xlink" viewBox="0 0 587.75 587.75">
 <g>
  <rect height="587.75" opacity="0" width="587.75" x="0" y="0"/>
  <path d="M587.75 96.5L587.75 491.5C587.75 555 555 587.75 490.25 587.75L97.25 587.75C32.75 587.75 0 555.5 0 491.5L0 96.5C0 32.5 32.75 0 97.25 0L490.25 0C555 0 587.75 32.75 587.75 96.5ZM131.25 229C123.25 237.5 123.5 250.5 132.25 259.75L266 400.5C284 419.5 304.75 419.25 322.5 400.5L456.5 259.75C465.25 250.5 465.75 237.25 457.5 229C448.5 220.25 434.75 219.75 426.5 228.75L294.25 367.5L162.25 228.75C154 219.75 140 220 131.25 229Z" fill="black" fill-opacity="0.85"/>
 </g>
</svg>
