<?xml version="1.0" encoding="UTF-8"?>
<!--Generator: Apple Native CoreSVG 326-->
<!DOCTYPE svg
PUBLIC "-//W3C//DTD SVG 1.1//EN"
       "http://www.w3.org/Graphics/SVG/1.1/DTD/svg11.dtd">
<svg version="1.1" xmlns="http://www.w3.org/2000/svg" xmlns:xlink="http://www.w3.org/1999/xlink" viewBox="0 0 510.25 569.75">
 <g>
  <rect height="569.75" opacity="0" width="510.25" x="0" y="0"/>
  <path d="M456.5 316.25C456.5 331.25 468.5 343.25 483.25 343.25C498.25 343.25 510.25 331.25 510.25 316.25C510.25 301.5 498.25 289.5 483.25 289.5C468.5 289.5 456.5 301.5 456.5 316.25ZM399.5 373C399.5 387.75 411.5 399.75 426.25 399.75C441.25 399.75 453 387.75 453 373C453 358 441.25 346 426.25 346C411.5 346 399.5 358 399.5 373ZM342.5 429.5C342.5 444.5 354.25 456.5 369.25 456.5C384 456.5 396 444.5 396 429.5C396 414.75 384 402.75 369.25 402.75C354.25 402.75 342.5 414.75 342.5 429.5ZM285.25 486.25C285.25 501.25 297.25 513 312.25 513C327 513 339 501.25 339 486.25C339 471.5 327 459.5 312.25 459.5C297.25 459.5 285.25 471.5 285.25 486.25ZM228.25 543C228.25 557.75 240.25 569.75 255 569.75C270 569.75 282 557.75 282 543C282 528 270 516 255 516C240.25 516 228.25 528 228.25 543ZM171.25 486.25C171.25 501.25 183.25 513 198 513C213 513 224.75 501.25 224.75 486.25C224.75 471.5 213 459.5 198 459.5C183.25 459.5 171.25 471.5 171.25 486.25ZM114.25 429.5C114.25 444.5 126 456.5 141 456.5C155.75 456.5 167.75 444.5 167.75 429.5C167.75 414.75 155.75 402.75 141 402.75C126 402.75 114.25 414.75 114.25 429.5ZM57 373C57 387.75 69 399.75 84 399.75C98.75 399.75 110.75 387.75 110.75 373C110.75 358 98.75 346 84 346C69 346 57 358 57 373ZM0 316.25C0 331.25 12 343.25 26.75 343.25C41.75 343.25 53.75 331.25 53.75 316.25C53.75 301.5 41.75 289.5 26.75 289.5C12 289.5 0 301.5 0 316.25Z" fill="black" fill-opacity="0.85"/>
  <path d="M456.5 28C456.5 42.75 468.5 54.75 483.25 54.75C498.25 54.75 510.25 42.75 510.25 28C510.25 13 498.25 1 483.25 1C468.5 1 456.5 13 456.5 28ZM399.5 84.5C399.5 99.5 411.5 111.5 426.25 111.5C441.25 111.5 453 99.5 453 84.5C453 69.75 441.25 57.75 426.25 57.75C411.5 57.75 399.5 69.75 399.5 84.5ZM342.5 141.25C342.5 156 354.25 168 369.25 168C384 168 396 156 396 141.25C396 126.25 384 114.5 369.25 114.5C354.25 114.5 342.5 126.25 342.5 141.25ZM285.25 197.75C285.25 212.75 297.25 224.75 312.25 224.75C327 224.75 339 212.75 339 197.75C339 183 327 171 312.25 171C297.25 171 285.25 183 285.25 197.75ZM228.25 254.5C228.25 269.5 240.25 281.25 255 281.25C270 281.25 282 269.5 282 254.5C282 239.75 270 227.75 255 227.75C240.25 227.75 228.25 239.75 228.25 254.5ZM171.25 197.75C171.25 212.75 183.25 224.75 198 224.75C213 224.75 224.75 212.75 224.75 197.75C224.75 183 213 171 198 171C183.25 171 171.25 183 171.25 197.75ZM114.25 141.25C114.25 156 126 168 141 168C155.75 168 167.75 156 167.75 141.25C167.75 126.25 155.75 114.5 141 114.5C126 114.5 114.25 126.25 114.25 141.25ZM57 84.5C57 99.5 69 111.5 84 111.5C98.75 111.5 110.75 99.5 110.75 84.5C110.75 69.75 98.75 57.75 84 57.75C69 57.75 57 69.75 57 84.5ZM0 28C0 42.75 12 54.75 26.75 54.75C41.75 54.75 53.75 42.75 53.75 28C53.75 13 41.75 1 26.75 1C12 1 0 13 0 28Z" fill="black" fill-opacity="0.85"/>
 </g>
</svg>
