<?xml version="1.0" encoding="UTF-8"?>
<!--Generator: Apple Native CoreSVG 326-->
<!DOCTYPE svg
PUBLIC "-//W3C//DTD SVG 1.1//EN"
       "http://www.w3.org/Graphics/SVG/1.1/DTD/svg11.dtd">
<svg version="1.1" xmlns="http://www.w3.org/2000/svg" xmlns:xlink="http://www.w3.org/1999/xlink" viewBox="0 0 546 596.75">
 <g>
  <rect height="596.75" opacity="0" width="546" x="0" y="0"/>
  <path d="M7.5 331L254 587.75C259.5 593.25 265.75 596.25 273 596.25C280.25 596.25 286.75 592.75 292 587.75L538.5 331C543.25 326 546 320.25 546 313.25C546 299.25 535.25 288.25 521 288.25C514.5 288.25 508 291 503.25 295.5L257.75 551L288.5 551L42.5 295.5C38 291 31.75 288.25 25 288.25C10.75 288.25 0 299.25 0 313.25C0 320.25 3 326.25 7.5 331Z" fill="black" fill-opacity="0.85"/>
  <path d="M7.5 42.75L254 299.5C259.5 305 265.75 308 273 308C280.25 308 287 304.75 292 299.25L538.5 42.5C543.25 37.75 546 32 546 25C546 10.75 535.25 0 521 0C514.5 0 508 2.75 503.25 7L257.75 262.75L288.5 262.75L42.5 7C38 2.75 31.75 0 25 0C10.75 0 0 10.75 0 25C0 32 3 38 7.5 42.75Z" fill="black" fill-opacity="0.85"/>
 </g>
</svg>
