<?xml version="1.0" encoding="UTF-8"?>
<!--Generator: Apple Native CoreSVG 326-->
<!DOCTYPE svg
PUBLIC "-//W3C//DTD SVG 1.1//EN"
       "http://www.w3.org/Graphics/SVG/1.1/DTD/svg11.dtd">
<svg version="1.1" xmlns="http://www.w3.org/2000/svg" xmlns:xlink="http://www.w3.org/1999/xlink" viewBox="0 0 587.75 587.75">
 <g>
  <rect height="587.75" opacity="0" width="587.75" x="0" y="0"/>
  <path d="M587.75 96.5L587.75 491.5C587.75 555 555 587.75 490.25 587.75L97.25 587.75C32.75 587.75 0 555.5 0 491.5L0 96.5C0 32.5 32.75 0 97.25 0L490.25 0C555 0 587.75 32.75 587.75 96.5ZM408.75 333.25L298.5 441L188.5 333.25C184 328.75 178.25 327.5 174 327.5C162.75 327.5 153.5 336.25 153.5 347C153.5 353.25 156.25 358.5 159.75 361.75L283.25 481C287.5 484.75 293 487.75 298.5 487.75C304.25 487.75 309.75 484.75 314 481L437.25 361.75C440.75 358.5 443.5 353.25 443.5 347C443.5 336.25 434.5 327.5 423.5 327.5C418.5 327.5 413.25 329 408.75 333.25ZM283.25 106.5L159.75 225.75C156.25 229 153.5 234 153.5 240.25C153.5 251.25 162.75 260 174 260C178.25 260 184 258.75 188.5 254.25L298.5 146.25L408.75 254.25C413.25 258.5 418.5 260 423.5 260C434.5 260 443.5 251.25 443.5 240.25C443.5 234 440.75 229 437.25 225.75L314 106.5C309.5 102.5 304.25 99.5 298.5 99.5C293 99.5 287.75 102.5 283.25 106.5Z" fill="black" fill-opacity="0.85"/>
 </g>
</svg>
