<?xml version="1.0" encoding="UTF-8"?>
<!--Generator: Apple Native CoreSVG 326-->
<!DOCTYPE svg
PUBLIC "-//W3C//DTD SVG 1.1//EN"
       "http://www.w3.org/Graphics/SVG/1.1/DTD/svg11.dtd">
<svg version="1.1" xmlns="http://www.w3.org/2000/svg" xmlns:xlink="http://www.w3.org/1999/xlink" viewBox="0 0 151.25 566.25">
 <g>
  <rect height="566.25" opacity="0" width="151.25" x="0" y="0"/>
  <path d="M100.25 547.5C104.5 558.25 113.75 564.75 123.5 564.75C139.25 564.75 151.25 553 151.25 537.25C151.25 529 146.75 518.5 144.25 511.5L45.75 263.5L45.75 301L144.25 53C146.75 46 151.25 35.25 151.25 27.5C151.25 11.75 139.25 0 123.5 0C113.75 0 104.5 6.5 100.25 17L10.75 242.75C5.75 255 0 270.5 0 282.25C0 294.25 5.75 309.25 10.75 321.75Z" fill="black" fill-opacity="0.85"/>
 </g>
</svg>
