<?xml version="1.0" encoding="UTF-8"?>
<!--Generator: Apple Native CoreSVG 326-->
<!DOCTYPE svg
PUBLIC "-//W3C//DTD SVG 1.1//EN"
       "http://www.w3.org/Graphics/SVG/1.1/DTD/svg11.dtd">
<svg version="1.1" xmlns="http://www.w3.org/2000/svg" xmlns:xlink="http://www.w3.org/1999/xlink" viewBox="0 0 587.75 587.75">
 <g>
  <rect height="587.75" opacity="0" width="587.75" x="0" y="0"/>
  <path d="M587.75 96.5L587.75 491.5C587.75 555 555 587.75 490.25 587.75L97.25 587.75C32.75 587.75 0 555.5 0 491.5L0 96.5C0 32.5 32.75 0 97.25 0L490.25 0C555 0 587.75 32.75 587.75 96.5ZM327.25 135.75L189.5 266.75C173.75 281.5 173.75 306.25 189.5 320.75L327.25 451.75C335 459.5 349.25 459.75 356.75 452.5C365.25 444.25 365 430.75 356.75 422.75L221 293.5L356.75 164.5C365.25 156.75 365 143 356.5 135C348.5 127.25 335.75 127.5 327.25 135.75Z" fill="black" fill-opacity="0.85"/>
 </g>
</svg>
