<?xml version="1.0" encoding="UTF-8"?>
<!--Generator: Apple Native CoreSVG 326-->
<!DOCTYPE svg
PUBLIC "-//W3C//DTD SVG 1.1//EN"
       "http://www.w3.org/Graphics/SVG/1.1/DTD/svg11.dtd">
<svg version="1.1" xmlns="http://www.w3.org/2000/svg" xmlns:xlink="http://www.w3.org/1999/xlink" viewBox="0 0 568 549.25">
 <g>
  <rect height="549.25" opacity="0" width="568" x="0" y="0"/>
  <path d="M285 546C292 546 298 543.25 302.75 538.5L559.5 292C565 286.75 568 280.5 568 273.25C568 266 564.75 259 559.5 254L302.75 7.5C297.75 2.75 292 0 285 0C270.75 0 260 10.75 260 25C260 31.5 262.75 38 267.25 42.75L522.75 288.25L522.75 257.75L267.25 503.5C262.75 508 260 514.25 260 521.25C260 535.25 270.75 546 285 546Z" fill="black" fill-opacity="0.85"/>
  <path d="M26.75 73.25C41.75 73.25 53.75 61.25 53.75 46.5C53.75 31.5 41.75 19.5 26.75 19.5C12 19.5 0 31.5 0 46.5C0 61.25 12 73.25 26.75 73.25ZM83.5 130.25C98.25 130.25 110.25 118.25 110.25 103.5C110.25 88.5 98.25 76.75 83.5 76.75C68.5 76.75 56.75 88.5 56.75 103.5C56.75 118.25 68.5 130.25 83.5 130.25ZM140.25 187.5C155 187.5 167 175.5 167 160.5C167 145.75 155 133.75 140.25 133.75C125.25 133.75 113.25 145.75 113.25 160.5C113.25 175.5 125.25 187.5 140.25 187.5ZM196.75 244.5C211.75 244.5 223.75 232.5 223.75 217.5C223.75 202.75 211.75 190.75 196.75 190.75C182 190.75 170 202.75 170 217.5C170 232.5 182 244.5 196.75 244.5ZM253.5 301.5C268.25 301.5 280.25 289.5 280.25 274.75C280.25 259.75 268.25 247.75 253.5 247.75C238.5 247.75 226.5 259.75 226.5 274.75C226.5 289.5 238.5 301.5 253.5 301.5ZM196.75 358.5C211.75 358.5 223.75 346.5 223.75 331.75C223.75 316.75 211.75 305 196.75 305C182 305 170 316.75 170 331.75C170 346.5 182 358.5 196.75 358.5ZM140.25 415.75C155 415.75 167 403.75 167 388.75C167 374 155 362 140.25 362C125.25 362 113.25 374 113.25 388.75C113.25 403.75 125.25 415.75 140.25 415.75ZM83.5 472.75C98.25 472.75 110.25 460.75 110.25 445.75C110.25 431 98.25 419 83.5 419C68.5 419 56.75 431 56.75 445.75C56.75 460.75 68.5 472.75 83.5 472.75ZM26.75 529.75C41.75 529.75 53.75 517.75 53.75 503C53.75 488 41.75 476 26.75 476C12 476 0 488 0 503C0 517.75 12 529.75 26.75 529.75Z" fill="black" fill-opacity="0.85"/>
 </g>
</svg>
