<?xml version="1.0" encoding="UTF-8"?>
<!--Generator: Apple Native CoreSVG 326-->
<!DOCTYPE svg
PUBLIC "-//W3C//DTD SVG 1.1//EN"
       "http://www.w3.org/Graphics/SVG/1.1/DTD/svg11.dtd">
<svg version="1.1" xmlns="http://www.w3.org/2000/svg" xmlns:xlink="http://www.w3.org/1999/xlink" viewBox="0 0 775.551 651.75">
 <g>
  <rect height="651.75" opacity="0" width="775.551" x="0" y="0"/>
  <path d="M387.775 0C230.025 0 96.5254 115.25 68.0254 265.25L20.5254 265.25C0.0253627 265.25-5.72464 279.25 6.02536 295.5L77.0254 396.5C86.5254 410.25 100.275 410 109.525 396.5L180.525 295.25C191.775 279.25 186.275 265.25 166.025 265.25L115.525 265.25C142.525 140 253.775 47 387.775 47C483.525 47.25 567.275 95 617.275 168C625.525 179.25 638.525 182.75 650.025 176C661.025 169.25 664.275 154.25 655.025 142C595.525 56.5 497.775 0 387.775 0ZM387.775 651.25C545.525 651.25 679.025 536 707.525 386L755.025 386C775.525 386 781.025 372 769.525 355.75L698.525 254.75C689.025 241.25 675.275 241.5 666.025 254.75L595.025 356C583.525 372 589.275 386 609.525 386L660.275 386C632.775 511.25 521.775 604.75 387.775 604.75C292.025 604.5 208.275 556.5 158.275 483.25C150.025 472 136.775 468.5 125.525 475.5C114.525 482 111.275 497 120.525 509.25C180.025 594.75 277.525 651.25 387.775 651.25Z" fill="black" fill-opacity="0.85"/>
  <path d="M387.775 140C374.525 140 364.275 150.25 364.275 163.5L364.275 345.25C364.275 353 366.275 358.75 371.525 365.5L449.525 468.5C459.775 481.75 474.025 483.5 485.525 475C496.025 467.5 497.525 453.5 488.275 441.25L387.025 303.75L411.275 378.5L411.275 163.5C411.275 150.25 400.775 140 387.775 140Z" fill="black" fill-opacity="0.85"/>
 </g>
</svg>
