<?xml version="1.0" encoding="UTF-8"?>
<!--Generator: Apple Native CoreSVG 326-->
<!DOCTYPE svg
PUBLIC "-//W3C//DTD SVG 1.1//EN"
       "http://www.w3.org/Graphics/SVG/1.1/DTD/svg11.dtd">
<svg version="1.1" xmlns="http://www.w3.org/2000/svg" xmlns:xlink="http://www.w3.org/1999/xlink" viewBox="0 0 775.551 651.75">
 <g>
  <rect height="651.75" opacity="0" width="775.551" x="0" y="0"/>
  <path d="M387.775 651.25C567.525 651.25 713.275 505.5 713.275 325.75C713.275 146 567.525 0 387.775 0C208.025 0 62.2754 146 62.2754 325.75L108.775 325.75C108.775 171.5 233.525 46.75 387.775 46.75C542.025 46.75 666.775 171.5 666.775 325.75C666.775 480 542.025 604.75 387.775 604.75C292.275 604.75 207.025 556.25 158.275 483.25C150.025 472 137.025 468.5 125.525 475.5C114.525 482 111.275 497.25 120.275 509.5C178.525 595.25 277.025 651.25 387.775 651.25ZM20.5254 265.25C0.0253627 265.25-5.72464 279.25 6.02536 295.5L77.0254 396.5C86.5254 410.25 100.275 410 109.525 396.5L180.525 295.25C191.775 279.25 186.275 265.25 166.025 265.25Z" fill="black" fill-opacity="0.85"/>
  <path d="M388.275 464.75C441.525 464.75 489.775 440 489.775 386C489.775 339 451.775 320.5 407.775 310.25L377.275 303C349.525 296.5 323.275 284.5 323.275 256.75C323.275 224.75 357.525 210.75 388.275 210.75C420.775 210.75 445.025 225 453.275 253.25C456.025 262 461.525 266.25 469.275 266.25C476.775 266.25 484.775 261.5 484.775 251.75C484.775 212.25 434.775 182.25 388.275 182.25C338.025 182.25 291.275 210.25 291.275 259C291.275 305.5 331.025 323.5 370.275 333L401.025 340.25C430.775 347.25 457.775 358 457.775 388.5C457.775 424.5 423.025 436.75 388.775 436.75C353.275 436.75 327.525 424 317.275 392C314.025 383.25 309.025 379.75 301.275 379.75C292.775 379.75 286.025 385.25 286.025 394.5C286.025 397.5 286.525 400.75 287.525 404C299.275 446.5 345.775 464.75 388.275 464.75ZM387.775 503.25C393.025 503.25 397.525 499 397.525 493.5L397.525 155C397.525 149.5 393.025 145.25 387.775 145.25C382.525 145.25 378.025 149.5 378.025 155L378.025 493.5C378.025 499 382.525 503.25 387.775 503.25Z" fill="black" fill-opacity="0.85"/>
 </g>
</svg>
