<?xml version="1.0" encoding="UTF-8"?>
<!--Generator: Apple Native CoreSVG 326-->
<!DOCTYPE svg
PUBLIC "-//W3C//DTD SVG 1.1//EN"
       "http://www.w3.org/Graphics/SVG/1.1/DTD/svg11.dtd">
<svg version="1.1" xmlns="http://www.w3.org/2000/svg" xmlns:xlink="http://www.w3.org/1999/xlink" viewBox="0 0 782.551 651.75">
 <g>
  <rect height="651.75" opacity="0" width="782.551" x="0" y="0"/>
  <path d="M391.275 0C295.525 0 208.025 41.75 148.275 109.25C137.025 121.5 140.775 137.5 151.025 144.75C160.025 151.5 172.025 151.75 183.275 139.75C234.775 82 309.275 46.75 391.275 46.75C530.025 46.75 644.775 148 665.275 280.5L616.525 280.5C596.275 280.5 590.525 294.5 602.025 310.5L673.025 411.75C682.275 425.25 696.025 425.5 705.525 411.75L776.525 310.75C788.025 294.5 782.525 280.5 762.025 280.5L712.775 280.5C691.525 122.25 555.525 0 391.275 0ZM391.275 651.25C487.025 651.25 574.525 609.5 634.275 542.25C645.525 529.75 641.775 514 631.525 506.5C622.525 500 610.525 499.5 599.275 511.75C547.775 569.25 473.275 604.75 391.275 604.75C252.275 604.75 137.775 503.25 117.275 370.75L166.025 370.75C186.275 370.75 191.775 356.75 180.525 340.75L109.525 239.5C100.275 226.25 86.5254 226 77.0254 239.5L6.02536 340.5C-5.72464 356.75 0.0253627 370.75 20.5254 370.75L69.5254 370.75C91.0254 529 226.775 651.25 391.275 651.25Z" fill="black" fill-opacity="0.85"/>
  <path d="M391.025 383.75C404.525 383.75 412.525 375.75 412.775 361L416.775 189.25C417.025 174.75 405.775 164 390.775 164C375.525 164 365.025 174.5 365.275 189L369.025 361C369.275 375.5 377.275 383.75 391.025 383.75ZM391.025 485.5C408.275 485.5 422.775 471.75 422.775 454.75C422.775 437.5 408.525 424 391.025 424C373.775 424 359.525 437.75 359.525 454.75C359.525 471.5 374.025 485.5 391.025 485.5Z" fill="black" fill-opacity="0.85"/>
 </g>
</svg>
