<?xml version="1.0" encoding="UTF-8"?>
<!--Generator: Apple Native CoreSVG 326-->
<!DOCTYPE svg
PUBLIC "-//W3C//DTD SVG 1.1//EN"
       "http://www.w3.org/Graphics/SVG/1.1/DTD/svg11.dtd">
<svg version="1.1" xmlns="http://www.w3.org/2000/svg" xmlns:xlink="http://www.w3.org/1999/xlink" viewBox="0 0 782.551 651.75">
 <g>
  <rect height="651.75" opacity="0" width="782.551" x="0" y="0"/>
  <path d="M391.275 0C295.525 0 208.025 41.75 148.275 109.25C137.025 121.5 140.775 137.5 151.025 144.75C160.025 151.5 172.025 151.75 183.275 139.75C234.775 82 309.275 46.75 391.275 46.75C530.025 46.75 644.775 148 665.275 280.5L616.525 280.5C596.275 280.5 590.525 294.5 602.025 310.5L673.025 411.75C682.275 425.25 696.025 425.5 705.525 411.75L776.525 310.75C788.025 294.5 782.525 280.5 762.025 280.5L712.775 280.5C691.525 122.25 555.525 0 391.275 0ZM391.275 651.25C487.025 651.25 574.525 609.5 634.275 542.25C645.525 529.75 641.775 514 631.525 506.5C622.525 500 610.525 499.5 599.275 511.75C547.775 569.25 473.275 604.75 391.275 604.75C252.275 604.75 137.775 503.25 117.275 370.75L166.025 370.75C186.275 370.75 191.775 356.75 180.525 340.75L109.525 239.5C100.275 226.25 86.5254 226 77.0254 239.5L6.02536 340.5C-5.72464 356.75 0.0253627 370.75 20.5254 370.75L69.5254 370.75C91.0254 529 226.775 651.25 391.275 651.25Z" fill="black" fill-opacity="0.85"/>
  <path d="M375.775 495.75L406.775 495.75C415.525 495.75 421.525 490.75 423.525 482L432.025 446.5C437.775 444.5 443.775 442.25 448.775 440L479.775 459C487.275 463.75 495.025 463 501.025 457L522.525 435.5C528.775 429.5 529.775 421 524.775 413.75L505.775 383C508.275 377.5 510.275 372 512.275 366.25L548.025 358.25C556.775 356.25 561.525 350 561.525 341L561.525 310.75C561.525 302.25 556.775 296 548.025 294L512.525 285.75C510.275 279.25 508.025 273.75 506.025 269L525.275 237.75C529.775 230.5 529.275 222.25 523.025 216.25L501.025 194.75C495.025 189 487.525 187.75 480.025 192.25L448.775 211.75C443.775 209.5 438.025 207 432.025 205L423.525 169.25C421.525 160.5 415.525 155.5 406.775 155.5L375.775 155.5C367.275 155.5 361.025 160.5 359.025 169.25L350.525 204.75C344.775 207 339.025 209 333.775 211.75L302.525 192.25C295.275 187.75 287.525 188.75 281.525 194.75L259.525 216.25C253.275 222.25 252.775 230.5 257.525 237.75L276.775 269C274.525 273.75 272.275 279.25 270.025 285.75L234.775 294C226.025 296 221.275 302.25 221.275 310.75L221.275 341C221.275 350 226.025 356.25 234.775 358.25L270.275 366.25C272.275 372 274.275 377.5 276.775 383L258.025 413.75C252.775 421 253.775 429.5 260.025 435.5L281.525 457C287.525 463.25 295.525 463.75 302.775 459L333.775 440C339.025 442.25 344.775 444.5 350.525 446.5L359.025 482C361.025 490.75 367.275 495.75 375.775 495.75ZM391.275 383.5C359.275 383.5 333.275 357.5 333.275 325.25C333.275 293.25 359.275 267 391.275 267C423.525 267 449.525 293.25 449.525 325.25C449.525 357.5 423.525 383.5 391.275 383.5Z" fill="black" fill-opacity="0.85"/>
 </g>
</svg>
