<?xml version="1.0" encoding="UTF-8"?>
<!--Generator: Apple Native CoreSVG 326-->
<!DOCTYPE svg
PUBLIC "-//W3C//DTD SVG 1.1//EN"
       "http://www.w3.org/Graphics/SVG/1.1/DTD/svg11.dtd">
<svg version="1.1" xmlns="http://www.w3.org/2000/svg" xmlns:xlink="http://www.w3.org/1999/xlink" viewBox="0 0 775.551 651.75">
 <g>
  <rect height="651.75" opacity="0" width="775.551" x="0" y="0"/>
  <path d="M387.775 651.25C567.525 651.25 713.275 505.5 713.275 325.75C713.275 146 567.525 0 387.775 0C208.025 0 62.2754 146 62.2754 325.75L108.775 325.75C108.775 171.5 233.525 46.75 387.775 46.75C542.025 46.75 666.775 171.5 666.775 325.75C666.775 480 542.025 604.75 387.775 604.75C292.275 604.75 207.025 556.25 158.275 483.25C150.025 472 137.025 468.5 125.525 475.5C114.525 482 111.275 497.25 120.275 509.5C178.525 595.25 277.025 651.25 387.775 651.25ZM20.5254 265.25C0.0253627 265.25-5.72464 279.25 6.02536 295.5L77.0254 396.5C86.5254 410.25 100.275 410 109.525 396.5L180.525 295.25C191.775 279.25 186.275 265.25 166.025 265.25Z" fill="black" fill-opacity="0.85"/>
  <path d="M316.775 472C326.775 472 333.275 465.25 333.275 454.75L333.275 334L354.775 334L456.275 463.5C460.275 469 464.525 472 471.025 472C481.525 472 486.275 463.75 486.275 457.5C486.275 453 484.775 449.5 481.775 445.5L391.275 334L484.025 334C489.525 334 493.775 329.5 493.775 324C493.775 318.5 489.525 314.25 484.025 314.25L391.775 314.25L481.775 205C484.525 201.5 486.025 197.5 486.025 194.25C486.025 185.5 479.275 179.25 471.025 179.25C465.275 179.25 460.275 183.25 456.775 187.75L355.025 314.25L333.275 314.25L333.275 196.25C333.275 185.75 326.775 179.25 316.775 179.25C306.275 179.25 299.775 185.75 299.775 196.25L299.775 314.25L276.775 314.25C271.275 314.25 267.275 318.25 267.275 324.25C267.275 330 271.275 334 276.775 334L299.775 334L299.775 454.75C299.775 465.25 306.275 472 316.775 472Z" fill="black" fill-opacity="0.85"/>
 </g>
</svg>
