<?xml version="1.0" encoding="UTF-8"?>
<!--Generator: Apple Native CoreSVG 326-->
<!DOCTYPE svg
PUBLIC "-//W3C//DTD SVG 1.1//EN"
       "http://www.w3.org/Graphics/SVG/1.1/DTD/svg11.dtd">
<svg version="1.1" xmlns="http://www.w3.org/2000/svg" xmlns:xlink="http://www.w3.org/1999/xlink" viewBox="0 0 651.25 775.962">
 <g>
  <rect height="775.962" opacity="0" width="651.25" x="0" y="0"/>
  <path d="M325.5 713.356C505.25 713.356 651.25 567.606 651.25 387.856C651.25 276.106 595.25 178.856 509.75 120.106C497.75 111.106 482 114.356 475.25 125.356C468.5 136.856 472 149.856 483.25 158.356C556.25 207.856 604.5 292.106 604.5 387.856C604.5 542.106 479.75 666.856 325.5 666.856C171.25 666.856 46.5 542.106 46.5 387.856C46.5 253.856 140.5 142.856 265.25 115.356L265.25 166.106C265.25 186.356 279.25 191.856 295.25 180.606L396.5 109.606C409.75 100.356 410 86.6061 396.5 76.8561L295.5 5.85614C279.25-5.64386 265.25 0.106141 265.25 20.3561L265.25 68.1061C115 95.8561 0 228.356 0 387.856C0 567.606 145.75 713.356 325.5 713.356Z" fill="black" fill-opacity="0.85"/>
  <path d="M169.25 280.356C166.75 295.856 164.75 315.356 164.75 327.856C164.75 437.856 229.75 510.856 328.25 510.856C387.75 510.856 420 477.106 428.25 459.606L412 460.606C430.75 480.356 438.5 500.106 448.5 532.606C450.5 539.356 455.5 541.856 460.5 541.856C471.25 541.856 479.75 532.606 479.75 519.856C479.75 499.106 451.5 463.606 436.25 449.606C372.5 390.356 277.25 425.106 249.75 360.606C247.75 355.856 253 351.356 258 356.106C309.75 402.606 371.5 365.106 436.25 423.106C440.75 427.356 446.25 425.106 447 420.356C447.75 415.606 448.25 408.856 448.25 402.106C448.25 330.856 399 297.106 328.75 297.106C305.5 297.106 279.25 302.106 257.75 302.106C232.25 302.106 205.25 298.606 184.75 276.356C179 270.356 171 271.356 169.25 280.356Z" fill="black" fill-opacity="0.85"/>
 </g>
</svg>
