<?xml version="1.0" encoding="UTF-8"?>
<!--Generator: Apple Native CoreSVG 326-->
<!DOCTYPE svg
PUBLIC "-//W3C//DTD SVG 1.1//EN"
       "http://www.w3.org/Graphics/SVG/1.1/DTD/svg11.dtd">
<svg version="1.1" xmlns="http://www.w3.org/2000/svg" xmlns:xlink="http://www.w3.org/1999/xlink" viewBox="0 0 500 678.25">
 <g>
  <rect height="678.25" opacity="0" width="500" x="0" y="0"/>
  <path d="M31 661.25C44.5 661.25 53.75 656.25 67.25 643L246 465.75C247.5 464.25 248.75 463.25 250 463.25C251.5 463.25 252.75 464.25 254.25 465.75L432.75 643C446.5 656.25 455.75 661.25 469.25 661.25C488.25 661.25 500 646.5 500 627.25C500 617.25 496 605 492 593.75L288.75 36.25C279.75 11.75 266.5 0 250 0C233.5 0 220.5 11.75 211.5 36.25L8.25 593.75C4 605 0 617.25 0 627.25C0 646.5 12 661.25 31 661.25Z" fill="black" fill-opacity="0.85"/>
 </g>
</svg>
