<?xml version="1.0" encoding="UTF-8"?>
<!--Generator: Apple Native CoreSVG 326-->
<!DOCTYPE svg
PUBLIC "-//W3C//DTD SVG 1.1//EN"
       "http://www.w3.org/Graphics/SVG/1.1/DTD/svg11.dtd">
<svg version="1.1" xmlns="http://www.w3.org/2000/svg" xmlns:xlink="http://www.w3.org/1999/xlink" viewBox="0 0 654.316 671.563">
 <g>
  <rect height="671.563" opacity="0" width="654.316" x="0" y="0"/>
  <path d="M206.804 245.352L70.033 308.406C68.533 308.906 68.783 310.906 70.533 310.906L271.342 309.856L331.622 370.105L330.783 571.406C330.783 572.906 332.283 573.156 333.033 571.656L396.458 434.908L429.077 467.511L360.783 613.906C342.033 653.906 288.783 646.406 288.533 601.906L287.783 359.156C287.783 355.656 286.783 354.406 283.283 354.406L38.783 353.406C-3.96704 353.156-14.967 301.156 24.033 283.156L174.584 213.148ZM604.533 91.4064L479.676 359.049L446.861 326.234L557.283 88.1564C558.783 85.1564 557.033 83.9064 554.283 85.1564L315.751 195.125L283.245 162.618L549.283 38.9064C590.783 19.4064 624.033 48.9064 604.533 91.4064Z" fill="black" fill-opacity="0.85"/>
  <path d="M573.033 561.906C581.283 570.406 595.033 570.406 603.033 561.906C611.033 553.906 611.533 540.156 603.033 531.906L112.283 41.1564C104.283 33.1564 90.283 32.6564 82.033 41.1564C73.783 49.1564 73.783 63.1564 82.033 71.1564Z" fill="black" fill-opacity="0.85"/>
 </g>
</svg>
