<?xml version="1.0" encoding="UTF-8"?>
<!--Generator: Apple Native CoreSVG 326-->
<!DOCTYPE svg
PUBLIC "-//W3C//DTD SVG 1.1//EN"
       "http://www.w3.org/Graphics/SVG/1.1/DTD/svg11.dtd">
<svg version="1.1" xmlns="http://www.w3.org/2000/svg" xmlns:xlink="http://www.w3.org/1999/xlink" viewBox="0 0 654.316 608.465">
 <g>
  <rect height="608.465" opacity="0" width="654.316" x="0" y="0"/>
  <path d="M24.033 251.607C-14.967 269.607-3.96704 321.607 38.783 321.857L283.283 322.857C286.783 322.857 287.783 324.107 287.783 327.607L288.533 570.357C288.783 614.857 342.033 622.357 360.783 582.357L604.533 59.8574C624.033 17.3574 590.783-12.1426 549.283 7.35738ZM70.533 279.357C68.783 279.357 68.533 277.357 70.033 276.857L554.283 53.6074C557.033 52.3574 558.783 53.6074 557.283 56.6074L333.033 540.107C332.283 541.607 330.783 541.357 330.783 539.857L331.783 299.857C331.783 287.107 323.283 278.107 309.533 278.107Z" fill="black" fill-opacity="0.85"/>
 </g>
</svg>
