<?xml version="1.0" encoding="UTF-8"?>
<!--Generator: Apple Native CoreSVG 326-->
<!DOCTYPE svg
PUBLIC "-//W3C//DTD SVG 1.1//EN"
       "http://www.w3.org/Graphics/SVG/1.1/DTD/svg11.dtd">
<svg version="1.1" xmlns="http://www.w3.org/2000/svg" xmlns:xlink="http://www.w3.org/1999/xlink" viewBox="0 0 651.25 651.75">
 <g>
  <rect height="651.75" opacity="0" width="651.25" x="0" y="0"/>
  <path d="M651.25 325.75C651.25 505 505 651.25 325.5 651.25C146.25 651.25 0 505 0 325.75C0 146.25 146.25 0 325.5 0C505 0 651.25 146.25 651.25 325.75ZM134.25 313.25C115 322.5 118.25 350 143.75 350L288.75 350.25C294 350.25 297.5 353.75 297.5 359.25L297.75 502.5C297.75 529 325.5 531.25 334.25 512.5L375.207 425.457L221.641 271.891ZM160.75 160.75C155.5 166.25 155.75 175 160.75 180L471.25 490.5C476.25 495.5 485.25 495.75 490.5 490.5C495.75 484.75 495.75 476.5 490.5 471.25L180.25 160.75C175 155.5 166.5 155.5 160.75 160.75ZM452.25 162.75L290.026 239.526L407.445 356.945L484 194.25C494.75 171 475.25 152 452.25 162.75Z" fill="black" fill-opacity="0.85"/>
 </g>
</svg>
