<?xml version="1.0" encoding="UTF-8"?>
<!--Generator: Apple Native CoreSVG 326-->
<!DOCTYPE svg
PUBLIC "-//W3C//DTD SVG 1.1//EN"
       "http://www.w3.org/Graphics/SVG/1.1/DTD/svg11.dtd">
<svg version="1.1" xmlns="http://www.w3.org/2000/svg" xmlns:xlink="http://www.w3.org/1999/xlink" viewBox="0 0 775.551 651.75">
 <g>
  <rect height="651.75" opacity="0" width="775.551" x="0" y="0"/>
  <path d="M387.775 651.25C567.525 651.25 713.275 505.5 713.275 325.75C713.275 146 567.525 0 387.775 0C208.025 0 62.2754 146 62.2754 325.75L108.775 325.75C108.775 171.5 233.525 46.75 387.775 46.75C542.025 46.75 666.775 171.5 666.775 325.75C666.775 480 542.025 604.75 387.775 604.75C292.275 604.75 207.025 556.25 158.275 483.25C150.025 472 137.025 468.5 125.525 475.5C114.525 482 111.275 497.25 120.275 509.5C178.525 595.25 277.025 651.25 387.775 651.25ZM20.5254 265.25C0.0253627 265.25-5.72464 279.25 6.02536 295.5L77.0254 396.5C86.5254 410.25 100.275 410 109.525 396.5L180.525 295.25C191.775 279.25 186.275 265.25 166.025 265.25Z" fill="black" fill-opacity="0.85"/>
  <path d="M295.525 464.5C306.025 464.5 312.275 457.75 312.275 447.25L312.275 348.25C312.275 289.75 333.275 243.25 388.275 243.25C444.275 243.25 464.525 290.5 464.525 348.25L464.525 447.25C464.525 457.75 470.775 464.5 481.275 464.5C491.525 464.5 497.775 457.75 497.775 447.25L497.775 346.25C497.775 269.5 462.275 213 388.275 213C313.775 213 279.025 270.5 279.025 346.25L279.025 447.25C279.025 457.75 285.275 464.5 295.525 464.5ZM387.775 464.5C395.025 464.5 399.525 459.75 399.525 452.25L399.525 176.5C399.525 169.25 395.025 164.5 387.775 164.5C380.275 164.5 375.525 169.25 375.525 176.5L375.525 452.25C375.525 459.75 380.275 464.5 387.775 464.5Z" fill="black" fill-opacity="0.85"/>
 </g>
</svg>
