<?xml version="1.0" encoding="UTF-8"?>
<!--Generator: Apple Native CoreSVG 326-->
<!DOCTYPE svg
PUBLIC "-//W3C//DTD SVG 1.1//EN"
       "http://www.w3.org/Graphics/SVG/1.1/DTD/svg11.dtd">
<svg version="1.1" xmlns="http://www.w3.org/2000/svg" xmlns:xlink="http://www.w3.org/1999/xlink" viewBox="0 0 775.551 651.75">
 <g>
  <rect height="651.75" opacity="0" width="775.551" x="0" y="0"/>
  <path d="M387.775 651.25C567.525 651.25 713.275 505.5 713.275 325.75C713.275 146 567.525 0 387.775 0C208.025 0 62.2754 146 62.2754 325.75L108.775 325.75C108.775 171.5 233.525 46.75 387.775 46.75C542.025 46.75 666.775 171.5 666.775 325.75C666.775 480 542.025 604.75 387.775 604.75C292.275 604.75 207.025 556.25 158.275 483.25C150.025 472 137.025 468.5 125.525 475.5C114.525 482 111.275 497.25 120.275 509.5C178.525 595.25 277.025 651.25 387.775 651.25ZM20.5254 265.25C0.0253627 265.25-5.72464 279.25 6.02536 295.5L77.0254 396.5C86.5254 410.25 100.275 410 109.525 396.5L180.525 295.25C191.775 279.25 186.275 265.25 166.025 265.25Z" fill="black" fill-opacity="0.85"/>
  <path d="M286.775 428.75C296.525 428.75 301.775 422 301.775 413.25L301.775 297.75C301.775 272 313.775 247 340.025 247C363.525 247 373.525 265 373.525 288.25L373.525 413.25C373.525 422.25 379.775 428.75 388.275 428.75C397.275 428.75 403.275 422.25 403.275 413.25L403.275 294.75C403.275 270 415.525 247 441.025 247C465.775 247 475.025 266 475.025 290.75L475.025 413.25C475.025 422.25 481.275 428.75 490.275 428.75C499.025 428.75 505.275 422.25 505.275 413.25L505.275 283C505.275 247.75 487.525 219.75 449.775 219.75C421.525 219.75 402.525 237.25 397.525 259.25L396.275 259.25C390.775 234 374.525 219.75 348.275 219.75C323.025 219.75 307.525 235.5 301.775 259L300.275 259L300.275 235.5C300.275 226.25 294.775 220.25 286.025 220.25C277.275 220.25 271.525 226.25 271.525 235.5L271.525 413.25C271.525 422 277.025 428.75 286.775 428.75ZM298.525 509C303.775 509 306.025 506.75 308.275 501.5L455.025 156.5C455.775 154.5 456.275 152.5 456.275 150.5C456.275 145 452.525 141.5 446.775 141.5C442.025 141.5 439.025 144.75 437.025 149.5L290.525 494.5C289.525 496.25 289.275 498 289.275 500.25C289.275 505.5 293.025 509 298.525 509Z" fill="black" fill-opacity="0.85"/>
 </g>
</svg>
