<?xml version="1.0" encoding="UTF-8"?>
<!--Generator: Apple Native CoreSVG 326-->
<!DOCTYPE svg
PUBLIC "-//W3C//DTD SVG 1.1//EN"
       "http://www.w3.org/Graphics/SVG/1.1/DTD/svg11.dtd">
<svg version="1.1" xmlns="http://www.w3.org/2000/svg" xmlns:xlink="http://www.w3.org/1999/xlink" viewBox="0 0 651.25 775.962">
 <g>
  <rect height="775.962" opacity="0" width="651.25" x="0" y="0"/>
  <path d="M386 20.3561L386 68.1061C536 95.8561 651.25 228.356 651.25 387.856C651.25 567.606 505.25 713.356 325.5 713.356C145.75 713.356 0 567.606 0 387.856C0 276.106 56 178.856 141.25 120.106C153.5 111.106 169.25 114.356 175.75 125.356C182.75 136.856 179.25 149.856 168 158.356C95 207.856 46.5 292.106 46.5 387.856C46.5 542.106 171.25 666.856 325.5 666.856C479.75 666.856 604.5 542.106 604.5 387.856C604.5 253.856 510.75 142.856 386 115.356L386 166.106C386 186.356 372 191.856 356 180.606L254.75 109.606C241.25 100.356 241 86.6061 254.75 76.8561L355.75 5.85614C372-5.64386 386 0.106141 386 20.3561Z" fill="black" fill-opacity="0.85"/>
  <path d="M297.773 420.806C271.655 443.589 257 472.571 257 498.356C257 505.098 258.357 512.453 262.097 519.106L139.75 519.106C121.25 519.106 113.75 511.356 113.75 497.356C113.75 443.106 169.75 401.106 229.25 401.106C253.973 401.106 278.092 408.358 297.773 420.806ZM284 315.856C284 350.356 259.25 376.856 229.25 376.856C199.75 376.856 174.75 350.356 174.75 316.106C174.75 283.106 200 257.106 229.25 257.106C259 257.106 284 282.606 284 315.856Z" fill="black" fill-opacity="0.85"/>
  <path d="M310.25 519.106L512.75 519.106C535.5 519.106 544.25 512.356 544.25 498.356C544.25 457.856 493.25 401.606 411.75 401.606C329.75 401.606 278.5 457.856 278.5 498.356C278.5 512.356 287.5 519.106 310.25 519.106ZM411.75 373.606C446 373.606 474.25 342.856 474.25 303.356C474.25 265.106 445.75 235.856 411.75 235.856C377.75 235.856 349 265.856 349 303.606C349 342.856 377.5 373.606 411.75 373.606Z" fill="black" fill-opacity="0.85"/>
 </g>
</svg>
