<?xml version="1.0" encoding="UTF-8"?>
<!--Generator: Apple Native CoreSVG 326-->
<!DOCTYPE svg
PUBLIC "-//W3C//DTD SVG 1.1//EN"
       "http://www.w3.org/Graphics/SVG/1.1/DTD/svg11.dtd">
<svg version="1.1" xmlns="http://www.w3.org/2000/svg" xmlns:xlink="http://www.w3.org/1999/xlink" viewBox="0 0 775.551 651.75">
 <g>
  <rect height="651.75" opacity="0" width="775.551" x="0" y="0"/>
  <path d="M387.775 651.25C567.525 651.25 713.275 505.5 713.275 325.75C713.275 146 567.525 0 387.775 0C208.025 0 62.2754 146 62.2754 325.75L108.775 325.75C108.775 171.5 233.525 46.75 387.775 46.75C542.025 46.75 666.775 171.5 666.775 325.75C666.775 480 542.025 604.75 387.775 604.75C292.275 604.75 207.025 556.25 158.275 483.25C150.025 472 137.025 468.5 125.525 475.5C114.525 482 111.275 497.25 120.275 509.5C178.525 595.25 277.025 651.25 387.775 651.25ZM20.5254 265.25C0.0253627 265.25-5.72464 279.25 6.02536 295.5L77.0254 396.5C86.5254 410.25 100.275 410 109.525 396.5L180.525 295.25C191.775 279.25 186.275 265.25 166.025 265.25Z" fill="black" fill-opacity="0.85"/>
  <path d="M270.275 468C278.525 468 284.025 462.5 284.025 453.25L284.025 217.5L358.025 217.5C395.525 217.5 413.025 228 413.025 270.25L413.025 369.75C413.025 379 418.275 385 427.275 385C435.775 385 441.275 379 441.275 369.75L441.275 264.25C441.275 213.25 420.025 186.5 367.525 186.5L277.025 186.5C263.775 186.5 255.775 194.5 255.775 207.75L255.775 453.25C255.775 462.5 261.275 468 270.275 468ZM354.775 465.5L447.525 465.5C502.025 465.5 520.025 436.5 520.025 382.25L520.025 199C520.025 189.5 514.525 183.5 505.775 183.5C497.025 183.5 491.275 189.5 491.275 199L491.275 381C491.275 423 481.525 434.25 439.775 434.25L362.775 434.25L362.775 281.5C362.775 272.25 357.275 266.75 348.775 266.75C340.025 266.75 334.275 272.25 334.275 281.5L334.275 445C334.275 458 342.775 465.5 354.775 465.5Z" fill="black" fill-opacity="0.85"/>
 </g>
</svg>
