<?xml version="1.0" encoding="UTF-8"?>
<!--Generator: Apple Native CoreSVG 326-->
<!DOCTYPE svg
PUBLIC "-//W3C//DTD SVG 1.1//EN"
       "http://www.w3.org/Graphics/SVG/1.1/DTD/svg11.dtd">
<svg version="1.1" xmlns="http://www.w3.org/2000/svg" xmlns:xlink="http://www.w3.org/1999/xlink" viewBox="0 0 586.5 586.75">
 <g>
  <rect height="586.75" opacity="0" width="586.5" x="0" y="0"/>
  <path d="M550 37C518.75 6 475.5 0 418.25 0L166.5 0C111.25 0 67.75 6 36.75 37C5.75 68 0 111 0 166.5L0 418.25C0 475.75 5.5 518.75 36.5 549.5C67.75 580.5 111 586.5 168.25 586.5L418.25 586.5C475.5 586.5 519 580.5 550 549.5C581 518.5 586.5 475.75 586.5 418.25L586.5 168C586.5 110.75 581 67.75 550 37Z" fill="black" fill-opacity="0.85"/>
 </g>
</svg>
