<?xml version="1.0" encoding="UTF-8"?>
<!--Generator: Apple Native CoreSVG 326-->
<!DOCTYPE svg
PUBLIC "-//W3C//DTD SVG 1.1//EN"
       "http://www.w3.org/Graphics/SVG/1.1/DTD/svg11.dtd">
<svg version="1.1" xmlns="http://www.w3.org/2000/svg" xmlns:xlink="http://www.w3.org/1999/xlink" viewBox="0 0 692 681.25">
 <g>
  <rect height="681.25" opacity="0" width="692" x="0" y="0"/>
  <path d="M6.12491 318.75L102.125 615.5C116.125 660 145.125 681.25 192.375 681.25L500.125 681.25C547.375 681.25 576.375 660 590.375 615.5L685.625 320.5C700.375 274.25 689.625 239.5 652.375 212L403.875 29.25C364.375 0.5 328.125 0.5 288.625 29.25L40.1249 212C2.62491 239.5-8.12509 273.5 6.12491 318.75ZM48.1249 305C39.6249 279.25 44.8749 264 66.8749 247.5L315.125 64.75C338.125 47.75 354.375 47.75 377.375 64.75L625.375 247.5C647.625 264 652.625 279.75 643.625 307L548.875 602C540.375 627.75 527.375 637 500.125 637L192.375 637C165.125 637 151.875 627.75 143.625 602Z" fill="black" fill-opacity="0.85"/>
 </g>
</svg>
