<?xml version="1.0" encoding="UTF-8"?>
<!--Generator: Apple Native CoreSVG 326-->
<!DOCTYPE svg
PUBLIC "-//W3C//DTD SVG 1.1//EN"
       "http://www.w3.org/Graphics/SVG/1.1/DTD/svg11.dtd">
<svg version="1.1" xmlns="http://www.w3.org/2000/svg" xmlns:xlink="http://www.w3.org/1999/xlink" viewBox="0 0 622.5 623.25">
 <g>
  <rect height="623.25" opacity="0" width="622.5" x="0" y="0"/>
  <path d="M22.25 201C36.5 201 44.25 192.75 44.25 178.5L44.25 99.5C44.25 63.5 63.25 45 98.25 45L178.75 45C193 45 201.25 37 201.25 23C201.25 8.75 193 0.75 178.75 0.75L97.25 0.75C32.75 0.75 0 33 0 97L0 178.5C0 192.75 8 201 22.25 201ZM600.25 201C614.75 201 622.5 192.75 622.5 178.5L622.5 97C622.5 33.5 590 0.75 525.25 0.75L443.75 0.75C429.5 0.75 421.25 8.75 421.25 23C421.25 37 429.5 45 443.75 45L524.25 45C558.5 45 578.25 63.5 578.25 99.5L578.25 178.5C578.25 192.75 586.25 201 600.25 201ZM97.25 623.25L178.75 623.25C193 623.25 201.25 615.25 201.25 601C201.25 587 193 579 178.75 579L98.25 579C63.25 579 44.25 560.5 44.25 524.5L44.25 445.5C44.25 431.25 36.25 423 22.25 423C7.75 423 0 431.25 0 445.5L0 527C0 591 32.75 623.25 97.25 623.25ZM443.75 623.25L525.25 623.25C590 623.25 622.5 590.5 622.5 527L622.5 445.5C622.5 431.25 614.5 423 600.25 423C586 423 578.25 431.25 578.25 445.5L578.25 524.5C578.25 560.5 558.5 579 524.25 579L443.75 579C429.5 579 421.25 587 421.25 601C421.25 615.25 429.5 623.25 443.75 623.25Z" fill="black" fill-opacity="0.85"/>
 </g>
</svg>
