<?xml version="1.0" encoding="UTF-8"?>
<!--Generator: Apple Native CoreSVG 326-->
<!DOCTYPE svg
PUBLIC "-//W3C//DTD SVG 1.1//EN"
       "http://www.w3.org/Graphics/SVG/1.1/DTD/svg11.dtd">
<svg version="1.1" xmlns="http://www.w3.org/2000/svg" xmlns:xlink="http://www.w3.org/1999/xlink" viewBox="0 0 651.25 651.75">
 <g>
  <rect height="651.75" opacity="0" width="651.25" x="0" y="0"/>
  <path d="M651.25 326C651.25 505.5 505 651.75 325.5 651.75C146.25 651.75 0 505.5 0 326C0 146.75 146.25 0.5 325.5 0.5C505 0.5 651.25 146.75 651.25 326ZM237 147.25C230.75 147.25 227 153.25 229.75 159.75L288.25 289L203.75 298.25L173 242.5C170 237.25 165.75 235 159.25 235L151.5 235C145.5 235 141.5 238.75 141.5 244.75L141.5 407.5C141.5 413.5 145.5 417.5 151.5 417.5L159.25 417.5C165.75 417.5 170 415 173 410L203.75 354L288.25 363.5L229.75 492.75C227 499.25 230.75 505.25 237 505.25L257.25 505.25C262.75 505.25 268.25 502.75 272.25 498.25L388.75 371C394.25 365.25 397 364 405.75 364L476.75 364C512 364 540.5 347.75 540.5 326.25C540.5 304.75 512 288.5 476.75 288.5L405.75 288.5C397 288.5 394.25 287.25 388.75 281.25L272.25 154.25C268.25 149.75 262.75 147.25 257.25 147.25Z" fill="black" fill-opacity="0.85"/>
 </g>
</svg>
