<?xml version="1.0" encoding="UTF-8"?>
<!--Generator: Apple Native CoreSVG 326-->
<!DOCTYPE svg
PUBLIC "-//W3C//DTD SVG 1.1//EN"
       "http://www.w3.org/Graphics/SVG/1.1/DTD/svg11.dtd">
<svg version="1.1" xmlns="http://www.w3.org/2000/svg" xmlns:xlink="http://www.w3.org/1999/xlink" viewBox="0 0 760.177 722.956">
 <g>
  <rect height="722.956" opacity="0" width="760.177" x="0" y="0"/>
  <path d="M33.3383 645.853L726.338 645.853C738.588 645.853 748.588 635.853 748.588 623.853C748.588 611.603 738.588 601.603 726.338 601.603L33.3383 601.603C21.0883 601.603 11.0883 611.603 11.0883 623.853C11.0883 635.853 21.0883 645.853 33.3383 645.853Z" fill="black" fill-opacity="0.85"/>
  <path d="M79.3383 317.603L628.088 466.103C690.838 483.103 750.838 466.603 759.338 420.103C766.088 377.103 720.338 338.353 661.838 326.603L466.588 288.103C453.588 285.353 445.588 280.603 436.838 267.603L264.838 19.8528C259.588 12.6028 252.838 7.85281 244.588 5.60281L223.088 0.352809C215.338-1.64719 209.088 5.10281 211.338 14.3528L273.588 273.603L291.088 253.353L126.088 221.103L172.088 249.353L44.8383 101.103C39.0883 94.1028 32.5883 91.8528 21.3383 94.1028L10.5883 96.3528C2.33835 98.1028-1.16165 104.103 0.338349 111.603L35.0883 279.103C39.3383 298.853 54.5883 310.853 79.3383 317.603Z" fill="black" fill-opacity="0.85"/>
 </g>
</svg>
