<?xml version="1.0" encoding="UTF-8"?>
<!--Generator: Apple Native CoreSVG 326-->
<!DOCTYPE svg
PUBLIC "-//W3C//DTD SVG 1.1//EN"
       "http://www.w3.org/Graphics/SVG/1.1/DTD/svg11.dtd">
<svg version="1.1" xmlns="http://www.w3.org/2000/svg" xmlns:xlink="http://www.w3.org/1999/xlink" viewBox="0 0 651.25 651.75">
 <g>
  <rect height="651.75" opacity="0" width="651.25" x="0" y="0"/>
  <path d="M651.25 326C651.25 505.5 505 651.75 325.5 651.75C146.25 651.75 0 505.5 0 326C0 146.75 146.25 0.5 325.5 0.5C505 0.5 651.25 146.75 651.25 326ZM241.5 175C221.5 177.5 205.5 187.25 197.25 205C191.75 216.25 181.75 245.75 176 274L162.5 291.5C148.75 309 143 323.75 143 350L143 438.25C143 449.5 152 458.5 163.25 458.5L181.5 458.5C193 458.5 202 449.5 202 438.25L202 412.75C236.5 414.75 286 416 325.5 416C365.25 416 414.5 414.75 449 412.75L449 438.25C449 449.5 458 458.5 469.5 458.5L487.5 458.5C499 458.5 508 449.5 508 438.25L508 350C508 323.75 502.25 309 488.5 291.5L475.25 274C469 245.75 459.25 216.25 453.75 205C445.5 187.25 429.5 177.75 409.5 175C399 173.75 364.5 173 325.5 173C286.5 173 252 173.75 241.5 175ZM352.5 221L331.5 277.5L373 277.25C376.25 277.25 379 280 379 283.25C379 285 378 287.25 376.75 289L310.5 374.75C304.75 382 295.25 377 298.75 368L319.75 311.5L278 311.5C274.75 311.5 272 309.25 272 306C272 304.25 272.75 302.5 274.25 300.75L340.75 214.75C346.5 207.25 356 212 352.5 221Z" fill="black" fill-opacity="0.85"/>
 </g>
</svg>
