<?xml version="1.0" encoding="UTF-8"?>
<!--Generator: Apple Native CoreSVG 326-->
<!DOCTYPE svg
PUBLIC "-//W3C//DTD SVG 1.1//EN"
       "http://www.w3.org/Graphics/SVG/1.1/DTD/svg11.dtd">
<svg version="1.1" xmlns="http://www.w3.org/2000/svg" xmlns:xlink="http://www.w3.org/1999/xlink" viewBox="0 0 703 743.75">
 <g>
  <rect height="743.75" opacity="0" width="703" x="0" y="0"/>
  <path d="M43 575.25C43 595 48.75 610.5 59.5 621.5L59.5 701C59.5 724.25 77.75 742.75 101.5 742.75L139 742.75C162.75 742.75 181 724.5 181 701L181 649.5C233.25 653.25 290.5 655.25 351.25 655.25C412 655.25 469.5 653.25 522 649.75L522 701C522 724.5 540.25 742.75 564 742.75L601.5 742.75C625.25 742.75 643.5 724.25 643.5 701L643.5 621.5C654.25 610.5 660 595 660 575.25L660 80C660 39.5 636 17 594.25 12.25C526.5 4.25 439 0 351.25 0C263.5 0 176 4.25 108.75 12.25C66.75 17 43 39.5 43 80ZM351.25 618.25C258.5 618.25 178.5 614.25 118 607C90 603.5 79.75 590 79.75 565L79.75 90C79.75 65.5 92.5 51.25 118 48C177.5 40.75 261.75 36.75 351.25 36.75C439 37 523.25 40.75 584.75 48C613 51.5 623.25 65.25 623.25 90L623.25 565C623.25 590 613 603.75 584.75 607C522.25 614.25 442.25 618.25 351.25 618.25ZM142 436.75C268.5 455 433 455.5 561 436.75C580.5 433.75 590.25 422.5 590.25 401.75L590.25 118.5C590.25 95.75 579.5 83 557.75 81C425.75 67.75 278.5 67.75 145.75 81C124 83 112.75 95.75 112.75 118.5L112.75 401.75C112.75 422.5 122.75 433.75 142 436.75ZM43 301L43 118.25L28.25 118.25C11.25 118.25 0 128.5 0 144.5L0 274.75C0 290.75 11.25 301 28.25 301ZM660 301L674.5 301C691.75 301 703 290.75 703 274.75L703 144.5C703 128.5 691.75 118.25 674.5 118.25L660 118.25ZM167.25 564.75C188.5 564.75 204.25 549 204.25 527.75C204.25 506.75 188.5 490.75 167.25 490.75C146.25 490.75 130.25 506.75 130.25 527.75C130.25 549 146.25 564.75 167.25 564.75ZM274 554L427.75 554C443.5 554 454.5 543.25 454.5 527.25C454.5 511.5 443.5 501 427.75 501L274 501C258.25 501 247.25 511.5 247.25 527.25C247.25 543.25 258.25 554 274 554ZM535.5 564.75C556.75 564.75 572.75 549 572.75 527.75C572.75 506.75 556.75 490.75 535.5 490.75C514.5 490.75 498.5 506.75 498.5 527.75C498.5 549 514.5 564.75 535.5 564.75Z" fill="black" fill-opacity="0.85"/>
 </g>
</svg>
