<?xml version="1.0" encoding="UTF-8"?>
<!--Generator: Apple Native CoreSVG 326-->
<!DOCTYPE svg
PUBLIC "-//W3C//DTD SVG 1.1//EN"
       "http://www.w3.org/Graphics/SVG/1.1/DTD/svg11.dtd">
<svg version="1.1" xmlns="http://www.w3.org/2000/svg" xmlns:xlink="http://www.w3.org/1999/xlink" viewBox="0 0 654.75 774.25">
 <g>
  <rect height="774.25" opacity="0" width="654.75" x="0" y="0"/>
  <path d="M33.75 612L621 612L621 165C621 127 599.25 105 557.75 100C495.5 92 408.5 88 327.25 88C245.75 88 158.75 92 96.5 100C55.25 105 33.75 127 33.75 165ZM97.25 400.25L97.25 242C97.25 207 124 180.25 159.25 180.25C194.5 180.25 221.25 207 221.25 242L221.25 400.25C221.25 410.75 214.5 417.5 203.25 417.5L115.25 417.5C104 417.5 97.25 410.75 97.25 400.25ZM256.5 400.25L256.5 232C256.5 189.75 284.75 161.75 327.25 161.75C369.5 161.75 397.75 189.75 397.75 232L397.75 400.25C397.75 410.75 391.25 417.5 380 417.5L274.25 417.5C263 417.5 256.5 410.75 256.5 400.25ZM433 400.25L433 242C433 207 459.75 180.25 495 180.25C530.25 180.25 557 207 557 242L557 400.25C557 410.75 550.25 417.5 539 417.5L451 417.5C439.75 417.5 433 410.75 433 400.25ZM327.25 570.5C297.5 570.5 276.25 549 276.25 520.25C276.25 490.75 297.75 468 327.25 468C355.75 468 378.5 490.75 378.5 520.25C378.5 549 356 570.5 327.25 570.5ZM0 629C0 641 10 651 22.25 651L632.5 651C644.75 651 654.75 641 654.75 629C654.75 616.75 644.75 606.75 632.5 606.75L22.25 606.75C10 606.75 0 616.75 0 629ZM124.25 32.75C124.25 45.5 135 57.75 148.75 56C195.5 50 261.75 47.5 327.25 47.5C392.75 47.5 459 50 505.75 56C519.5 57.75 530.25 45.5 530.25 32.75C530.25 20.25 520.25 10.5 506 8.75C457.5 2.75 390.5 0 327.25 0C264 0 197 2.75 148.25 8.75C134.25 10.5 124.25 20.25 124.25 32.75ZM161 25L161 107.75L197.5 107.75L197.5 25ZM457.25 25L457.25 107.75L494 107.75L494 25ZM95.5 773.75L112.25 773.75C120.75 773.75 125.25 771 129.5 764L217 623L161.25 623L83 749C75.5 761 82 773.75 95.5 773.75ZM522 773.75L538.75 773.75C552.25 773.75 559 761 551.25 749L473 623L417.25 623L504.75 764C509.25 771 513.75 773.75 522 773.75Z" fill="black" fill-opacity="0.85"/>
 </g>
</svg>
