<?xml version="1.0" encoding="UTF-8"?>
<!--Generator: Apple Native CoreSVG 326-->
<!DOCTYPE svg
PUBLIC "-//W3C//DTD SVG 1.1//EN"
       "http://www.w3.org/Graphics/SVG/1.1/DTD/svg11.dtd">
<svg version="1.1" xmlns="http://www.w3.org/2000/svg" xmlns:xlink="http://www.w3.org/1999/xlink" viewBox="0 0 730.916 759.25">
 <g>
  <rect height="759.25" opacity="0" width="730.916" x="0" y="0"/>
  <path d="M49.208 755.5L50.708 755.5C148.708 755.5 157.208 690 212.208 690C265.958 690 279.708 755.5 365.458 755.5C450.958 755.5 464.708 690 518.458 690C573.708 690 582.208 755.5 679.958 755.5L681.708 755.5C692.458 755.5 701.208 746.75 701.208 736C701.208 725 692.458 716.25 681.708 716.25L679.958 716.25C644.208 716.25 623.958 701.25 599.708 684.25C578.708 669 553.458 650.75 518.458 650.75C482.708 650.75 456.958 670 435.958 685.75C413.708 702.5 395.458 716.25 365.458 716.25C335.458 716.25 316.958 702.5 294.708 685.75C273.708 670 248.208 650.75 212.208 650.75C177.458 650.75 152.208 669 131.208 684.25C106.708 701.25 86.458 716.25 50.708 716.25L49.208 716.25C38.208 716.25 29.458 725 29.458 736C29.458 746.75 38.208 755.5 49.208 755.5ZM127.958 707.75L165.958 696L47.208 534.75C40.458 525.75 44.458 514.25 57.458 514.25L673.458 514.25C686.458 514.25 690.458 525.5 683.208 535L564.958 695.25L603.208 707.25L718.208 553.5C744.708 518.75 727.958 478 682.208 478L48.458 478C2.95804 478-13.792 519 12.458 553.5ZM190.958 150.75C189.208 159.5 193.208 163 201.958 162.75C241.208 160 286.208 157.75 365.208 157.75C444.458 157.75 489.208 160 528.458 162.75C537.458 163 541.458 159.5 539.708 150.75C533.208 123 522.458 91 514.708 77.75C507.958 65.75 499.458 60.5 485.708 58.5C468.458 56 429.958 54.5 365.208 54.5C300.458 54.75 261.958 56 244.958 58.5C231.208 60.5 222.458 65.75 215.708 77.75C208.208 91 197.208 123 190.958 150.75ZM192.958 313C214.208 313 230.208 297 230.208 276C230.208 254.75 214.208 239 192.958 239C171.958 239 156.208 254.75 156.208 276C156.208 297 171.958 313 192.958 313ZM303.458 305L427.208 305C442.958 305 453.958 294.25 453.958 278.5C453.958 262.5 442.708 251.5 427.208 251.5L303.458 251.5C287.458 251.5 276.708 262.5 276.708 278.5C276.708 294 287.458 305 303.458 305ZM537.458 313C558.458 313 574.458 297 574.458 276C574.458 254.75 558.458 239 537.458 239C516.208 239 500.708 254.75 500.708 276C500.708 297 516.208 313 537.458 313ZM365.208 381.75C444.458 381.75 550.958 377.75 596.708 372.5C630.458 368.5 648.958 349.25 648.958 318L648.958 276C648.958 233.5 639.708 210.75 618.458 183.25L598.458 157.75C589.708 114.75 573.958 69.5 565.708 52C552.958 25.25 527.708 8 494.458 3.25C478.458 1.25 426.458 0 365.208 0C304.958 0 252.458 1.25 236.208 3.25C203.208 7.5 177.958 24.75 164.708 52C156.708 69.5 140.708 114.75 131.958 157.75L112.208 183.25C90.958 210.75 81.708 233.5 81.708 276L81.708 318C81.708 349.25 99.958 368.5 133.958 372.5C179.458 377.75 286.208 381.75 365.208 381.75ZM365.208 345.75C285.708 345.75 181.208 342.25 141.958 337.25C124.208 335 117.458 327.75 117.458 310.75L117.458 276C117.458 244 122.208 229.25 140.708 205.25L165.708 172.75C171.958 136.25 187.958 88.5 197.708 67.75C205.208 51.75 219.458 42 240.458 39.75C255.458 38 303.958 35.75 365.208 35.75C426.708 35.75 475.958 38 489.708 39.75C510.708 42.25 525.208 51.75 532.958 67.75C542.958 88.75 558.708 136.75 564.708 172.75L589.708 205.25C607.958 229.25 613.208 244.25 613.208 276L613.208 310.75C613.208 328 606.208 335.25 588.458 337.25C549.208 342 444.958 345.75 365.208 345.75ZM129.458 442.5L157.208 442.5C174.958 442.5 188.958 428.75 188.958 411L188.958 356.75L97.458 343.75L97.708 411C97.708 428.75 111.458 442.5 129.458 442.5ZM573.458 442.5L601.208 442.5C619.208 442.5 632.958 428.75 632.958 411L632.958 343.75L541.458 356.75L541.708 411C541.708 428.75 555.458 442.5 573.458 442.5Z" fill="black" fill-opacity="0.85"/>
 </g>
</svg>
