<?xml version="1.0" encoding="UTF-8"?>
<!--Generator: Apple Native CoreSVG 326-->
<!DOCTYPE svg
PUBLIC "-//W3C//DTD SVG 1.1//EN"
       "http://www.w3.org/Graphics/SVG/1.1/DTD/svg11.dtd">
<svg version="1.1" xmlns="http://www.w3.org/2000/svg" xmlns:xlink="http://www.w3.org/1999/xlink" viewBox="0 0 651.25 651.75">
 <g>
  <rect height="651.75" opacity="0" width="651.25" x="0" y="0"/>
  <path d="M325.5 651.25C505.25 651.25 651.25 505.5 651.25 325.75C651.25 146 505.25 0 325.5 0C145.75 0 0 146 0 325.75C0 505.5 145.75 651.25 325.5 651.25ZM325.5 604.75C171.25 604.75 46.5 480 46.5 325.75C46.5 171.5 171.25 46.75 325.5 46.75C479.75 46.75 604.5 171.5 604.5 325.75C604.5 480 479.75 604.75 325.5 604.75Z" fill="black" fill-opacity="0.85"/>
  <path d="M147.25 435C147.25 446 156 454.75 167 454.75L185 454.75C196 454.75 204.75 446 204.75 435L204.75 410C238.5 412 287 413.5 325.5 413.5C364.25 413.5 412.5 412 446.25 410L446.25 435C446.25 446 455 454.75 466 454.75L483.75 454.75C495 454.75 503.75 446 503.75 435L503.75 349C503.75 323 498 309 484.5 291.75L471.75 274.75C465.75 247 455.75 218.25 450.75 207C442.5 190 427 180.5 407.5 178C397.25 176.75 363.5 175.75 325.5 175.75C287.5 175.75 253.75 176.75 243.5 178C224 180.25 208.5 190 200.25 207C195.25 218.25 185 247 179.5 274.75L166.5 291.75C153 309 147.25 323 147.25 349ZM214.5 261.25C218.5 243.75 225 224 229.75 216C234 208.75 238.75 205 247.75 204C258.75 202.25 284 201.75 325.5 201.75C367 201.75 392.25 202 403.25 204C412.25 205 417 208.75 421.25 216C426.25 223.75 432.75 243.75 436.5 261.25C437.75 266 435.75 268.25 430.25 268C405.75 266 377.75 264.75 325.5 264.75C273.25 264.75 245.25 266 220.75 268C215.25 268.25 213.5 266 214.5 261.25ZM192.25 349C192.25 335.75 202.5 325.75 215.5 325.75C228.5 325.75 238.75 335.75 238.75 349C238.75 362.25 228.5 372 215.5 372C202.5 372 192.25 362.25 192.25 349ZM269.5 350.75C269.5 340.75 276.25 334 286 334L364.75 334C374.75 334 381.5 340.75 381.5 350.75C381.5 360.5 374.75 367.25 364.75 367.25L286 367.25C276.25 367.25 269.5 360.5 269.5 350.75ZM412.25 349C412.25 335.75 422.5 325.75 435.5 325.75C448.5 325.75 458.75 335.75 458.75 349C458.75 362.25 448.5 372 435.5 372C422.5 372 412.25 362.25 412.25 349Z" fill="black" fill-opacity="0.85"/>
 </g>
</svg>
