<?xml version="1.0" encoding="UTF-8"?>
<!--Generator: Apple Native CoreSVG 326-->
<!DOCTYPE svg
PUBLIC "-//W3C//DTD SVG 1.1//EN"
       "http://www.w3.org/Graphics/SVG/1.1/DTD/svg11.dtd">
<svg version="1.1" xmlns="http://www.w3.org/2000/svg" xmlns:xlink="http://www.w3.org/1999/xlink" viewBox="0 0 982.252 712.25">
 <g>
  <rect height="712.25" opacity="0" width="982.252" x="0" y="0"/>
  <path d="M282.501 690.75L326.501 690.75L326.501 82.25C326.501 57.5 339.001 44.5 364.251 44.5L627.001 44.5C651.501 44.5 664.751 57.5 664.751 82.25L665.001 690.75L709.251 690.75L709.251 81.5C709.251 29 680.501 0 627.751 0L363.501 0C310.501 0 282.501 28.75 282.501 81.5ZM377.001 290.75L614.251 290.75C626.251 290.75 635.001 281.75 635.001 269.75L635.001 95.25C635.001 83 626.251 74.25 614.251 74.25L377.001 74.25C365.001 74.25 356.251 83 356.251 95.25L356.251 269.75C356.251 281.75 364.751 290.75 377.001 290.75ZM234.501 689.5C234.501 702 244.251 712 256.251 712L734.751 712C746.751 712 756.751 702 756.751 689.5C756.751 677.75 746.751 667.75 734.751 667.75L256.251 667.75C244.501 667.75 234.501 677.5 234.501 689.5ZM881.501 329L881.501 529.25C881.501 571.75 862.001 596.75 829.001 596.75C798.501 596.75 779.001 575.75 779.001 542C779.001 496.5 786.751 433.75 786.751 376.75C786.751 322.5 759.501 281 696.251 259L682.251 290C731.501 306 752.751 337.75 752.751 376.75C752.751 428 745.001 490.5 745.001 542C745.001 596.5 777.501 630.75 829.001 630.75C883.751 630.75 915.751 593.5 915.751 529.25L915.751 329C915.751 300 936.501 291.75 951.501 279.75C970.751 265 982.251 245.75 982.251 220.5L982.251 176.5C982.251 169.5 978.001 164.75 972.251 164.75L951.251 164.75L951.251 107.25C951.251 99 944.501 92.25 936.251 92.25C928.251 92.25 921.501 99 921.501 107.25L921.501 164.75L878.001 164.75L878.251 107.25C878.251 99 871.751 92.25 863.751 92.25C855.251 92.25 849.001 99 849.001 107.25L849.001 164.75L825.001 164.75C818.751 164.75 814.751 169.5 814.751 176.5L814.751 220.5C814.751 245.75 826.251 265 845.501 279.75C860.501 291.75 881.501 300 881.501 329Z" fill="black" fill-opacity="0.85"/>
  <path d="M9.00098 341C-2.74902 348-3.24902 364 9.00098 371L175.751 470C188.501 477.5 203.251 471.5 203.251 458.5L203.251 253C203.251 240.25 187.751 234.25 175.751 241.25Z" fill="black" fill-opacity="0.85"/>
 </g>
</svg>
