<?xml version="1.0" encoding="UTF-8"?>
<!--Generator: Apple Native CoreSVG 326-->
<!DOCTYPE svg
PUBLIC "-//W3C//DTD SVG 1.1//EN"
       "http://www.w3.org/Graphics/SVG/1.1/DTD/svg11.dtd">
<svg version="1.1" xmlns="http://www.w3.org/2000/svg" xmlns:xlink="http://www.w3.org/1999/xlink" viewBox="0 0 671.75 786.25">
 <g>
  <rect height="786.25" opacity="0" width="671.75" x="0" y="0"/>
  <path d="M335.75 786.25C421.5 786.25 435.25 720.75 489 720.75C544 720.75 552.5 786.25 650.5 786.25L652 786.25C663 786.25 671.75 777.5 671.75 766.75C671.75 755.75 663 747 652 747L650.5 747C614.75 747 594.5 732 570 715C549 699.75 523.75 681.75 489 681.75C453 681.75 427.5 700.75 406.5 716.5C384.25 733.25 365.75 747 335.75 747C305.75 747 287.5 733.25 265.25 716.5C244.25 700.75 218.5 681.75 182.75 681.75C147.75 681.75 122.5 699.75 101.5 715C77.25 732 57 747 21.25 747L19.5 747C8.75 747 0 755.75 0 766.75C0 777.5 8.75 786.25 19.5 786.25L21.25 786.25C119 786.25 127.75 720.75 182.75 720.75C236.5 720.75 250.25 786.25 335.75 786.25ZM15.5 504.5L130.25 712.25L164 689.75L51 487.75C36 460.25 42 447.5 62.75 438L292.5 332.25C308.5 325 319.75 319.75 335.75 319.75C351.75 319.75 363.25 325 379.25 332.25L609 438C629.75 447.5 635.75 460.25 620.75 487.75L507.5 689.75L542.75 709.75L656 504.5C682.5 457 670.75 423.5 624.75 402.25L395 296.75C380.5 290.25 361.75 280.5 335.75 280.5C310 280.5 291.25 290.25 276.75 296.75L47 402.25C0.75 423.5-10.75 457 15.5 504.5ZM79.75 395.5L122.25 376.75L156.25 138.25C158.5 122.25 167.75 113.25 183 113.25L489.25 113.25C505 113.25 514.5 121.25 516.5 135.5L550 378L592.5 395.5L556 132.75C551 95 526.5 74 489.25 74L183 74C146.5 74 122.25 97 116.5 137.75ZM202 234L303.5 234C312.25 234 318 228.75 318 221.5L318 168.5C318 161.25 312.25 156.25 303.5 156.25L202 156.25C194.75 156.25 190 161.25 190 168.5L190 221.5C190 228.75 194.75 234 202 234ZM366 234L467.5 234C476.25 234 482 228.75 482 221.5L482 168.5C482 161.25 476.25 156.25 467.5 156.25L366 156.25C358.75 156.25 354 161.25 354 168.5L354 221.5C354 228.75 358.75 234 366 234ZM199.5 103.25L238.75 103.25L238.75 53.25C238.75 44.75 243.75 39.75 252.25 39.75L419.75 39.75C428.25 39.75 433.25 44.75 433.25 53.25L433.25 103.25L472.5 103.25L472.5 50.75C472.5 20.25 453 0.5 422.25 0.5L249.75 0.5C219 0.5 199.5 20.25 199.5 50.75Z" fill="black" fill-opacity="0.85"/>
 </g>
</svg>
