<?xml version="1.0" encoding="UTF-8"?>
<!--Generator: Apple Native CoreSVG 326-->
<!DOCTYPE svg
PUBLIC "-//W3C//DTD SVG 1.1//EN"
       "http://www.w3.org/Graphics/SVG/1.1/DTD/svg11.dtd">
<svg version="1.1" xmlns="http://www.w3.org/2000/svg" xmlns:xlink="http://www.w3.org/1999/xlink" viewBox="0 0 651.25 651.75">
 <g>
  <rect height="651.75" opacity="0" width="651.25" x="0" y="0"/>
  <path d="M651.25 325.75C651.25 505 505 651.25 325.5 651.25C146.25 651.25 0 505 0 325.75C0 146.25 146.25 0 325.5 0C505 0 651.25 146.25 651.25 325.75ZM220.75 139.5L224 203.5C224.25 215 229 221.75 237.25 227.75L277 256.75C281.75 260 284.5 262.75 284.5 271.5L284.5 510.75C284.5 520.5 292.5 528.25 302.25 528.25C312 528.25 319.75 520.5 319.75 510.75L319.75 381.75C319.75 378.5 322.75 376 325.75 376C328.75 376 331.5 378.5 331.5 381.75L331.5 510.75C331.5 520.5 339.25 528.25 349 528.25C359 528.25 367 520.5 367 510.75L367 298.5C367 294.75 369.25 292.5 372.75 292.5C375.75 292.5 378.5 294.75 378.5 298.5L378.5 368.75C378.5 377.75 385.5 384.75 394.5 384.75C403.25 384.75 410 377.75 410 368.75L410 290.25C410 249.75 380.75 222.75 338.5 222.75L301.75 222.75C290.75 222.75 283.75 221 274.75 214.75L255.75 201L252.25 137.75C252 128.75 244.5 122 235.5 122.25C226.75 123.25 220.25 130.5 220.75 139.5ZM286 162.75C286 184.5 304 201.75 325.75 201.75C347.5 201.75 365.5 184.5 365.5 162.75C365.5 140.5 347.5 122.75 325.75 122.75C304 122.75 286 140.5 286 162.75Z" fill="black" fill-opacity="0.85"/>
 </g>
</svg>
