<?xml version="1.0" encoding="UTF-8"?>
<!--Generator: Apple Native CoreSVG 326-->
<!DOCTYPE svg
PUBLIC "-//W3C//DTD SVG 1.1//EN"
       "http://www.w3.org/Graphics/SVG/1.1/DTD/svg11.dtd">
<svg version="1.1" xmlns="http://www.w3.org/2000/svg" xmlns:xlink="http://www.w3.org/1999/xlink" viewBox="0 0 945.002 712.25">
 <g>
  <rect height="712.25" opacity="0" width="945.002" x="0" y="0"/>
  <path d="M464.251 690.5L464.251 81.5C464.251 29 435.501 0 383.001 0L128.751 0C75.751 0 47.751 28.75 47.751 81.5L47.751 690.5ZM135.251 290.75C112.251 290.75 98.251 277.5 98.251 256L98.251 85.5C98.251 64 112.251 50.5 135.251 50.5L376.501 50.5C399.251 50.5 413.751 64 413.751 85.5L413.751 256C413.751 277.5 399.251 290.75 376.501 290.75ZM0.000976351 689.25C0.000976351 701.5 9.75098 711.75 21.751 711.75L489.751 711.75C501.751 711.75 512.001 701.5 512.001 689.25C512.001 677.5 501.751 667.5 489.751 667.5L21.751 667.5C10.001 667.5 0.000976351 677.25 0.000976351 689.25ZM585.001 630.75C641.751 630.75 674.001 592.75 674.001 525C674.001 445.25 658.251 353 628.251 207.5L620.251 169C614.251 140.25 606.251 118.25 588.251 96L550.501 48.75C536.001 30.5 508.501 51.75 524.001 71L570.001 129C573.001 133 573.251 138 570.751 142.25L542.751 194.25C536.501 206 538.001 214.5 547.501 225L609.001 290.5C629.251 383.75 639.751 461 639.751 525C639.751 571 620.251 596.75 585.001 596.75C554.501 596.75 534.001 576.25 534.001 542C534.001 496.5 541.751 433.75 541.751 376.75C541.751 322.5 514.501 281 451.251 259L437.251 290C486.501 306 507.751 337.75 507.751 376.75C507.751 428 500.001 490.5 500.001 542C500.001 597 533.501 630.75 585.001 630.75Z" fill="black" fill-opacity="0.85"/>
  <path d="M936.001 341L769.251 241.25C757.251 234.5 741.751 240.25 741.751 253L741.751 458.5C741.751 471.5 756.501 477.5 769.251 470L936.001 371C948.251 364 947.751 348 936.001 341Z" fill="black" fill-opacity="0.85"/>
 </g>
</svg>
