<?xml version="1.0" encoding="UTF-8"?>
<!--Generator: Apple Native CoreSVG 326-->
<!DOCTYPE svg
PUBLIC "-//W3C//DTD SVG 1.1//EN"
       "http://www.w3.org/Graphics/SVG/1.1/DTD/svg11.dtd">
<svg version="1.1" xmlns="http://www.w3.org/2000/svg" xmlns:xlink="http://www.w3.org/1999/xlink" viewBox="0 0 901.25 645.25">
 <g>
  <rect height="645.25" opacity="0" width="901.25" x="0" y="0"/>
  <path d="M208 645.25C297.5 645.25 370 574 372.25 485.25L327.75 485C325.5 549.25 272.5 600.5 207.75 600.5C142.5 600.5 89.75 549.5 87.5 485L42.75 485.25C45.25 574.25 118 645.25 208 645.25ZM30.25 510.75L587 510.75L587 466.25L401.25 466.25L401.25 288.5C401.25 266 391.5 256 369.75 256L197.25 256C56 256-15.75 369.25 3 491C5 504 11.75 510.75 30.25 510.75ZM191.25 230.75L380.75 230.75C392.5 230.75 402 221.25 402 209.25C402 197.75 392.25 188 380.75 188L191.25 188C179.5 188 169.75 197.75 169.75 209.25C169.75 221.25 179.25 230.75 191.25 230.75ZM553.5 489.75L597.75 489.75L613.25 406.25L654.5 361L702.5 333.25L679.25 220.25L677.5 176L585.25 176C563.75 176 553.5 187.25 553.5 209.25ZM769.75 220C781 221 786 212 784 201.5L767 119C764.5 108.25 756.5 103 746.5 108.5C738.25 113 731 119.75 725.75 127.75C707.25 154.75 715.25 193 742.5 210.5C750 215.5 759.75 219.25 769.75 220ZM736.75 645.25C827.75 645.25 901.25 571.5 901.25 480.5C901.25 389.25 827.75 315.25 736.75 315.25C645.25 315.25 571.5 389.25 571.5 480.5C571.5 571.75 645.25 645.25 736.75 645.25ZM736.5 600.5C669.5 600.5 616 547 616 480.25C616 413.75 669.5 360.25 736.5 360.25C802.75 360.25 856.75 413.75 856.75 480.25C856.75 546.75 802.75 600.5 736.5 600.5ZM736 518.75C757.25 518.75 774 501.5 774 480.25C774 459 757.5 442 736 442C714.5 442 698.75 458.75 698.5 480.25C698.25 501.5 714.25 518.75 736 518.75ZM718.25 479L756.75 465.25L661.75 19.5C659 5.5 647.25 0 630.5 0L561 0C549 0 539.5 9.5 539.5 21.5C539.5 33.25 549 42.75 561 42.75L622.75 42.75C625.75 42.75 627 43.5 627.25 45.25Z" fill="black" fill-opacity="0.85"/>
 </g>
</svg>
