<?xml version="1.0" encoding="UTF-8"?>
<!--Generator: Apple Native CoreSVG 326-->
<!DOCTYPE svg
PUBLIC "-//W3C//DTD SVG 1.1//EN"
       "http://www.w3.org/Graphics/SVG/1.1/DTD/svg11.dtd">
<svg version="1.1" xmlns="http://www.w3.org/2000/svg" xmlns:xlink="http://www.w3.org/1999/xlink" viewBox="0 0 651.25 651.75">
 <g>
  <rect height="651.75" opacity="0" width="651.25" x="0" y="0"/>
  <path d="M651.25 326C651.25 505.5 505 651.75 325.5 651.75C146.25 651.75 0 505.5 0 326C0 146.75 146.25 0.5 325.5 0.5C505 0.5 651.25 146.75 651.25 326ZM318 139.5L311.75 209L185.25 385.5C176.75 397.25 181 408 194.75 409.5C225.5 412.75 261.5 413.25 293.75 410.75L291 441.25C257.5 441.75 224 441.75 191.5 441.75C179.25 441.75 173 451 177 462L189.5 495.75C194.75 509.75 203.75 515.75 218.25 515.75L398.5 515.75C410 515.75 418.25 512.5 426.75 504.75C443.5 488.75 464.25 456 464.25 443.25C464.25 435.5 459 429.25 447.5 430.5C406 436.5 361 439 315.75 440.5L318.5 410C360.75 414.25 403.25 412.25 430 408C450.75 404.75 461 396.5 467.75 378.25C476.5 355.75 479.5 333 479.5 308.25C479.5 242.75 451 169.5 362.25 122.5C355.5 119 349 117.25 343.25 117.25C330.5 117.25 319 125.75 318 139.5ZM345.25 143.25C356.5 176.75 363.25 218.5 363.25 257.25C363.25 307.5 349 353 321 382.75L341.5 143.75C341.75 141 344.25 141 345.25 143.25Z" fill="black" fill-opacity="0.85"/>
 </g>
</svg>
