<?xml version="1.0" encoding="UTF-8"?>
<!--Generator: Apple Native CoreSVG 326-->
<!DOCTYPE svg
PUBLIC "-//W3C//DTD SVG 1.1//EN"
       "http://www.w3.org/Graphics/SVG/1.1/DTD/svg11.dtd">
<svg version="1.1" xmlns="http://www.w3.org/2000/svg" xmlns:xlink="http://www.w3.org/1999/xlink" viewBox="0 0 701.5 877.75">
 <g>
  <rect height="877.75" opacity="0" width="701.5" x="0" y="0"/>
  <path d="M294.75 702.25L336.5 702.25L393.25 49.75C393.75 45.75 399 45 400.5 49C428 119.5 445.5 203.75 445.5 286.5C445.5 393.5 416.75 498.5 343.75 569.5L338 619C430.75 628.5 523.75 625 583 615.5C627 609 648.75 591.25 663.5 552.25C681.25 505.5 688.5 456.75 688.5 403.75C688.5 265.5 627.5 110.5 439.5 11.25C425.5 3.75 411.75 0 399.5 0C374.5 0 355.5 15 353 44.25ZM83.5 618.5C156.75 626.75 242.25 626.75 315.5 619.25L353 163.25L63.75 567C45.5 592 54.75 615.75 83.5 618.5ZM182.75 737.75C221.25 737.75 251 753.75 286.25 779.75C308.5 796.5 318 803.25 335.75 803.25C353.75 803.25 363.25 796.5 385.5 779.75C420.5 753.75 450.5 737.75 489 737.75C526.75 737.75 556 753.25 590.25 777.75C595.75 781.75 600.5 785 604.5 787.75C632.25 755 654.75 712.5 654.75 690.5C654.75 673 643 659.75 618.75 663C449.25 686.75 255 686.75 77.5 686.75C51 686.75 37.75 706.5 46.5 730.5L67.25 787.5C71.5 785 75.75 781.5 81.25 777.75C115.75 753.25 145 737.75 182.75 737.75ZM335.75 877.25C421.5 877.25 435.25 811.75 489 811.75C544 811.75 552.5 877.25 650.5 877.25L681.75 877.25C692.75 877.25 701.5 868.5 701.5 857.5C701.5 846.75 692.75 838 681.75 838L650.5 838C614.75 838 594.5 823 570 805.75C549 790.5 523.75 772.5 489 772.5C453 772.5 427.5 791.75 406.5 807.25C384.25 824.25 365.75 838 335.75 838C305.75 838 287.5 824.25 265.25 807.25C244.25 791.75 218.5 772.5 182.75 772.5C147.75 772.5 122.5 790.5 101.5 805.75C77.25 823 57 838 21.25 838L19.5 838C8.75 838 0 846.75 0 857.5C0 868.5 8.75 877.25 19.5 877.25L21.25 877.25C119 877.25 127.75 811.75 182.75 811.75C236.5 811.75 250.25 877.25 335.75 877.25Z" fill="black" fill-opacity="0.85"/>
 </g>
</svg>
