<?xml version="1.0" encoding="UTF-8"?>
<!--Generator: Apple Native CoreSVG 326-->
<!DOCTYPE svg
PUBLIC "-//W3C//DTD SVG 1.1//EN"
       "http://www.w3.org/Graphics/SVG/1.1/DTD/svg11.dtd">
<svg version="1.1" xmlns="http://www.w3.org/2000/svg" xmlns:xlink="http://www.w3.org/1999/xlink" viewBox="0 0 875.75 505.25">
 <g>
  <rect height="505.25" opacity="0" width="875.75" x="0" y="0"/>
  <path d="M0 411.25C0 473.5 31.75 505.25 95 505.25L719 505.25C821.5 505.25 875.75 443.25 875.75 371.25C875.75 327.75 857.25 281.25 816.5 240.75L680.5 106C598 24.5 544.75 0 447.25 0L95 0C31.75 0 0 31.75 0 94ZM336.75 257.25L336.75 133.75C336.75 115.25 347.75 104.5 366.5 104.5L460.5 104.5C547.5 104.5 592.25 115.5 639 162L718.75 241.25C737.5 260 727 286 706 286L366.5 286C347.75 286 336.75 275.25 336.75 257.25Z" fill="black" fill-opacity="0.85"/>
 </g>
</svg>
