<?xml version="1.0" encoding="UTF-8"?>
<!--Generator: Apple Native CoreSVG 326-->
<!DOCTYPE svg
PUBLIC "-//W3C//DTD SVG 1.1//EN"
       "http://www.w3.org/Graphics/SVG/1.1/DTD/svg11.dtd">
<svg version="1.1" xmlns="http://www.w3.org/2000/svg" xmlns:xlink="http://www.w3.org/1999/xlink" viewBox="0 0 651.25 651.75">
 <g>
  <rect height="651.75" opacity="0" width="651.25" x="0" y="0"/>
  <path d="M651.25 326C651.25 505.5 505 651.75 325.5 651.75C146.25 651.75 0 505.5 0 326C0 146.75 146.25 0.5 325.5 0.5C505 0.5 651.25 146.75 651.25 326ZM254.25 134.25C227.25 137.25 209 156.25 202.5 182.25C196 208.5 189.5 252.75 189.5 298L189.5 411C189.5 444.5 208.25 459.5 242.5 460L208.25 514.5C204.5 520.75 207.75 527.5 214.75 527.5L222.75 527.5C227.25 527.5 229.5 526 231.5 522.5L241 507.5L410.25 507.5L420 522.5C422 526 424.25 527.5 428.75 527.5L437 527.5C443.75 527.5 446.75 520.75 442.75 514.5L409 460C445.25 459.5 461.5 441.5 461.5 411L461.5 298C461.5 252.75 455 208.5 448.5 182.25C442 156.25 423.75 137.25 396.75 134.25C385 132.75 358 130.75 325.5 130.75C293.25 130.75 266.25 132.75 254.25 134.25ZM396.75 485.25L254.75 485.25L270.5 460L381.25 460ZM422.25 404C422.25 416.25 412.5 425.5 400.75 425.5C388.75 425.5 379.25 416.25 379.25 404C379.25 391.75 388.75 382.25 400.75 382.25C413 382.25 422.25 391.75 422.25 404ZM271.5 404C271.5 416.5 262.25 425.25 250.25 425.25C238 425.25 229 416.5 229 404C229 391.75 238 382.5 250.25 382.5C262.5 382.5 271.5 391.75 271.5 404ZM406.25 210.75C414.25 211.75 419.25 216.75 420.75 224.75C423.75 238.25 427.25 264.25 427.25 295.75L427.25 333.75C427.25 343.5 422.5 350 412.75 351C387.75 353.75 355.25 355 325.5 355C289 354.75 256.5 353 238.25 351C228.5 350 223.75 343.5 223.75 333.75L223.75 295.75C223.75 264.25 227.25 238.25 230.25 224.75C231.75 216.75 236.5 211.75 243.75 210.75C262.5 208.75 285.25 207.25 325.5 207.25C365.75 207 388.5 208.75 406.25 210.75ZM376.75 171.75C376.75 177 372.75 181 367.5 181L283.75 181C278.25 181 274.5 177 274.5 171.75C274.5 166.25 278.25 162.75 283.75 162.75L367.5 162.75C372.75 162.75 376.75 166.25 376.75 171.75Z" fill="black" fill-opacity="0.85"/>
 </g>
</svg>
