<?xml version="1.0" encoding="UTF-8"?>
<!--Generator: Apple Native CoreSVG 326-->
<!DOCTYPE svg
PUBLIC "-//W3C//DTD SVG 1.1//EN"
       "http://www.w3.org/Graphics/SVG/1.1/DTD/svg11.dtd">
<svg version="1.1" xmlns="http://www.w3.org/2000/svg" xmlns:xlink="http://www.w3.org/1999/xlink" viewBox="0 0 576.25 802.75">
 <g>
  <rect height="802.75" opacity="0" width="576.25" x="0" y="0"/>
  <path d="M117.25 675.75L459 675.75C535.25 675.75 576.25 624.75 576.25 555.75L576.25 357.25C576.25 266 563.75 174.25 549.25 117.75C534 54.75 489.75 13.5 430 7C405.75 4.25 349.75 0 288.25 0C221.5 0 170.5 4.25 146.25 7C86.5 13.5 42.25 54.75 27 117.75C12.5 174.25 0 263.75 0 355L0 555.75C0 624.75 41 675.75 117.25 675.75ZM123 639.25C62 639.25 36.75 603 36.75 555.75L36.75 355C36.75 265.75 49.75 179.25 63 125.5C74.5 78 106 48.5 150 43.25C176.5 40 225.25 36.75 288.25 36.75C345.75 36.75 399.75 40 426.25 43.25C470.25 48.5 501.75 78 513.25 125.5C526.5 179.25 539.5 268 539.5 357.25L539.5 555.75C539.5 603 514.25 639.25 453.25 639.25ZM204.75 121L371.75 121C382.75 121 389.75 113.5 389.75 102.5C389.75 91.75 382.75 84.75 371.75 84.75L204.75 84.75C193.5 84.75 186.5 91.75 186.5 102.5C186.5 113.5 193.5 121 204.75 121ZM288.25 455.75C365.5 455.25 425.5 452.25 461.75 448C482 445.75 490.75 432.75 490.75 413.75L490.75 337.75C490.75 275.25 484 223 478 196C474.75 180.75 464.75 170 449.25 168C413.75 164 373.25 161.5 288.25 161.25C202.5 161.5 162.25 164 125.25 168.25C110.5 170 101.25 180.75 97.75 196C92 223 85.25 275.25 85.25 337.75L85.25 413.75C85.25 432.75 94 445.75 114.25 448C150.5 452.25 210.5 455.25 288.25 455.75ZM137.75 585.5C162.25 585.5 180.75 567.5 180.75 542.75C180.75 518.25 162.75 500.25 137.75 500.25C113.25 500.25 95.5 518.25 95.5 542.75C95.5 567.5 113.25 585.5 137.75 585.5ZM438.25 585.75C462 585.75 481 567.25 481 542.75C481 518.5 462.5 500 438.25 500C413.75 500 395 518.5 395 542.75C395 567.25 413.75 585.75 438.25 585.75ZM66.75 799.75L83.5 799.75C91.75 799.75 96.25 797.25 100.75 790.25L188.25 649.25L132.25 649.25L54 775C46.5 787 53.25 799.75 66.75 799.75ZM96.5 760.5L480.25 760.5L480.25 716.25L96.5 716.25ZM493.5 799.75L510.25 799.75C524 799.75 529.75 786.75 522.5 775L444.75 649.25L389 649.25L476.5 790.25C480.75 797.25 485.25 799.75 493.5 799.75Z" fill="black" fill-opacity="0.85"/>
 </g>
</svg>
