<?xml version="1.0" encoding="UTF-8"?>
<!--Generator: Apple Native CoreSVG 326-->
<!DOCTYPE svg
PUBLIC "-//W3C//DTD SVG 1.1//EN"
       "http://www.w3.org/Graphics/SVG/1.1/DTD/svg11.dtd">
<svg version="1.1" xmlns="http://www.w3.org/2000/svg" xmlns:xlink="http://www.w3.org/1999/xlink" viewBox="0 0 727.75 855.75">
 <g>
  <rect height="855.75" opacity="0" width="727.75" x="0" y="0"/>
  <path d="M0 828C0 840.25 10 850.25 22.25 850.25C34.25 850.25 44.25 840.25 44.25 828L44.25 324.75C44.25 143.5 157.5 44.25 363.75 44.25C570.25 44.25 683.5 143.5 683.5 324.75L683.5 828C683.5 840.25 693.5 850.25 705.5 850.25C717.75 850.25 727.75 840.25 727.75 828L727.75 324.75C727.75 114.75 599.25 0 363.75 0C128.5 0 0 114.75 0 324.75ZM215 714.5L512.5 714.5C567 714.5 595.25 678 595.25 629.5L595.25 439.75C595.25 362.75 584.25 288.25 573.25 244.25C561.75 197.25 528.75 166.75 484.25 161.25C463.75 158.75 418.25 155.25 363.75 155.25C309.5 155.25 264 158.75 243.5 161.25C199 166.75 166 197.25 154.5 244.25C143.25 288.25 132.5 362.75 132.5 439.75L132.5 629.5C132.5 678 160.75 714.5 215 714.5ZM363.75 532.75C302.75 532.75 248.25 530 217.75 526.75C203 525 195.5 515.75 195.5 500L195.5 435.75C195.5 383.5 201.25 340 206 316.75C208.25 304 216 296.5 227 295.25C258 291.5 296.25 289.5 363.75 289.5C431 289.5 469.5 291.5 499 295.25C511 296.5 519 304 521.5 316.75C526.25 340 532 383.5 532 435.75L532 500C532 516 524.25 525 509.5 526.75C468 531.75 413.75 532.75 363.75 532.75ZM294.75 245C284 245 277.25 237.75 277.25 227.25C277.25 217 284 210 294.75 210L432.75 210C443.5 210 450.5 217 450.5 227.25C450.5 237.75 443.5 245 432.75 245ZM237.25 655.5C215.25 655.5 199.5 639.5 199.5 617.5C199.5 596 215.25 580 237.25 580C259 580 275 596 275 617.5C275 639.5 258.5 655.5 237.25 655.5ZM490.25 655.5C468.75 655.5 452.75 639.5 452.75 617.5C452.75 596 468.75 580 490.25 580C512.25 580 528.25 596 528.25 617.5C528.25 639.5 511.75 655.5 490.25 655.5ZM177 826.5L191.25 826.5C198.5 826.5 202.5 824 206.75 817.25L281.5 697.25L231.5 697.25L165.5 803.75C158.75 814.5 164.75 826.5 177 826.5ZM201.25 793L526.75 793L526.75 753.5L201.25 753.5ZM537.25 826.5L551.25 826.5C563.25 826.5 569.25 814.25 562.75 803.75L496.75 697.25L446.75 697.25L521.5 817.25C525.5 824 530 826.5 537.25 826.5Z" fill="black" fill-opacity="0.85"/>
 </g>
</svg>
