<?xml version="1.0" encoding="UTF-8"?>
<!--Generator: Apple Native CoreSVG 326-->
<!DOCTYPE svg
PUBLIC "-//W3C//DTD SVG 1.1//EN"
       "http://www.w3.org/Graphics/SVG/1.1/DTD/svg11.dtd">
<svg version="1.1" xmlns="http://www.w3.org/2000/svg" xmlns:xlink="http://www.w3.org/1999/xlink" viewBox="0 0 931.5 682.25">
 <g>
  <rect height="682.25" opacity="0" width="931.5" x="0" y="0"/>
  <path d="M601.5 510.5L601.5 95C601.5 38.25 571.5 8.25 514.75 8.25L86.75 8.25C29.75 8.25 0 38 0 95L0 512.75C0 569.5 29.75 599.5 86.75 599.5L107.75 599.5C107.25 596 107 592.25 107 588.5C107 517.75 164.5 460 235.5 460C306.25 460 364 517.75 364 588.5C364 592.25 363.75 596 363.25 599.5L574.75 599.5C574.25 595.75 574 592 574 588.25C574 558.75 583.75 531.25 601.5 510.5ZM641.25 186.5L641.25 478C658.25 466.5 679 459.75 701.5 459.75C772.5 459.75 831 517.5 831 588.25C831 592 830.75 595.75 830.25 599.5L847 599.5C902.5 599.5 931.5 568.75 931.5 512.75L931.5 400.75C931.5 371.75 926.5 356.5 910 338L800 214.25C782.25 194.25 761.25 186.5 731.25 186.5ZM720.5 388.75C703.75 388.75 693.5 378.5 693.5 361.75L693.5 244.5L727.5 244.5C742.5 244.5 752 247.5 763.25 259.75L861 369.75C866 375.25 869.75 381.25 870.75 388.75ZM235.5 682.25C287.5 682.25 329.25 640.5 329.25 588.5C329.25 536.75 287.25 494.75 235.5 494.75C183.75 494.75 141.75 536.75 141.75 588.5C141.75 640.25 183.75 682.25 235.5 682.25ZM702.5 682.25C754.5 682.25 796.25 640.5 796.25 588.25C796.25 536.5 754.25 494.5 702.5 494.5C650.75 494.5 608.75 536.5 608.75 588.25C608.75 640.25 650.75 682.25 702.5 682.25Z" fill="black" fill-opacity="0.85"/>
 </g>
</svg>
