<?xml version="1.0" encoding="UTF-8"?>
<!--Generator: Apple Native CoreSVG 326-->
<!DOCTYPE svg
PUBLIC "-//W3C//DTD SVG 1.1//EN"
       "http://www.w3.org/Graphics/SVG/1.1/DTD/svg11.dtd">
<svg version="1.1" xmlns="http://www.w3.org/2000/svg" xmlns:xlink="http://www.w3.org/1999/xlink" viewBox="0 0 853.5 670.25">
 <g>
  <rect height="670.25" opacity="0" width="853.5" x="0" y="0"/>
  <path d="M500.5 670.25L836.5 670.25C846 670.25 853.5 663 853.5 653.5C853.5 644 846 636.75 836.5 636.75L500.5 636.75C491.25 636.75 483.5 644 483.5 653.5C483.5 663 491.25 670.25 500.5 670.25Z" fill="black" fill-opacity="0.85"/>
  <path d="M668.5 574.25C782.75 574.25 853.5 505.5 853.5 404.25L853.5 122.25C853.5 106.75 843.25 97 828 97C812.75 97 803 106.75 803 122.25L803 400.25C803 477 752.75 528 668.5 528C584.5 528 534 477 534 400.25L534 122.25C534 106.75 523.75 97 508.5 97C493.25 97 483.5 106.75 483.5 122.25L483.5 404.25C483.5 505.5 554.5 574.25 668.5 574.25Z" fill="black" fill-opacity="0.85"/>
  <path d="M49.25 566.25L215 566.25C314 566.25 376 514.75 376 434.75C376 371.75 330.5 326.5 265 322.5L265 319.75C318 312.25 354.25 271 354.25 220C354.25 148.5 299.25 104 211 104L49.25 104C18 104 0 122.5 0 154.25L0 515.75C0 547.75 18 566.25 49.25 566.25ZM96.75 496.25L96.75 360.75L183.75 360.75C244.25 360.75 277.5 384.25 277.5 428C277.5 472.5 245.25 496.25 186.5 496.25ZM96.75 297.75L96.75 174.5L182.75 174.5C230.5 174.5 258.75 196.5 258.75 234.25C258.75 274 227.25 297.75 173.5 297.75Z" fill="black" fill-opacity="0.85"/>
 </g>
</svg>
