<?xml version="1.0" encoding="UTF-8"?>
<!--Generator: Apple Native CoreSVG 326-->
<!DOCTYPE svg
PUBLIC "-//W3C//DTD SVG 1.1//EN"
       "http://www.w3.org/Graphics/SVG/1.1/DTD/svg11.dtd">
<svg version="1.1" xmlns="http://www.w3.org/2000/svg" xmlns:xlink="http://www.w3.org/1999/xlink" viewBox="0 0 1174.75 453.75">
 <g>
  <rect height="453.75" opacity="0" width="1174.75" x="0" y="0"/>
  <path d="M996.75 451.75C1073.25 451.75 1134 418 1163.25 360.5C1169.5 347.75 1174 335 1174 322.75C1174 309.5 1165 301 1152 301C1141.75 301 1135.5 305.5 1129.75 319.25C1112 374.25 1063.25 408.5 996.75 408.5C903.5 408.5 844 338 844 224.25C844 112.75 903.5 43.25 996.75 43.25C1060 43.25 1111.5 83.25 1129.25 140C1134.75 153 1142 158.5 1153.25 158.5C1166 158.5 1174.75 150.25 1174.75 137C1174.75 129.5 1173.25 120.75 1170 111.5C1146.75 43.25 1076.5 0 996.75 0C873.25 0 794.75 86.75 794.75 224.5C794.75 364.25 873 451.75 996.75 451.75Z" fill="black" fill-opacity="0.85"/>
  <path d="M446 444.75L592.75 444.75C688.5 444.75 747 397.75 747 326C747 264 701.5 221.75 638.5 215.25L638.5 213.5C688.5 204.75 724 163 724 113C724 51 670.5 7.25 590.75 7.25L446 7.25C432 7.25 422.25 16.75 422.25 31.5L422.25 420.5C422.25 435.25 432 444.75 446 444.75ZM471 200L471 49L580 49C639 49 675 77.25 675 119.25C675 170 635.5 200 569.5 200ZM471 403.75L471 239L578.75 239C654.75 239 697.25 269.5 697.25 323.25C697.25 372.75 656.5 403.75 584 403.75Z" fill="black" fill-opacity="0.85"/>
  <path d="M22 452.75C35.25 452.75 42.25 446.75 47 432.5L90.75 315.25L276.25 315.25L320.25 432.5C325.25 446.75 332 452.75 345.25 452.75C359 452.75 368 443.75 368 430.5C368 426.25 367.25 422 365.25 416.5L216.25 25.25C210.25 9.5 199.75 0.5 183.75 0.5C167.5 0.5 156.75 9.25 151.25 25L2.5 416.75C0.5 422.25 0 426.5 0 430.75C0 443.75 8.25 452.75 22 452.75ZM103.75 275.5L182.75 60.5L184 60.5L263.5 275.5Z" fill="black" fill-opacity="0.85"/>
 </g>
</svg>
