<?xml version="1.0" encoding="UTF-8"?>
<!--Generator: Apple Native CoreSVG 326-->
<!DOCTYPE svg
PUBLIC "-//W3C//DTD SVG 1.1//EN"
       "http://www.w3.org/Graphics/SVG/1.1/DTD/svg11.dtd">
<svg version="1.1" xmlns="http://www.w3.org/2000/svg" xmlns:xlink="http://www.w3.org/1999/xlink" viewBox="0 0 738.754 551.25">
 <g>
  <rect height="551.25" opacity="0" width="738.754" x="0" y="0"/>
  <path d="M433.252 44.25C445.752 44.25 455.502 34.75 455.502 22.25C455.502 9.75 445.752 0 433.252 0L22.5019 0C9.75186 0 0.00185966 9.75 0.00185966 22.25C0.00185966 34.75 9.75186 44.25 22.5019 44.25ZM433.252 213.25C445.752 213.25 455.502 203.5 455.502 191C455.502 178.5 445.752 168.75 433.252 168.75L22.5019 168.75C9.75186 168.75 0.00185966 178.5 0.00185966 191C0.00185966 203.5 9.75186 213.25 22.5019 213.25ZM433.252 382C445.752 382 455.502 372.25 455.502 359.75C455.502 347.25 445.752 337.75 433.252 337.75L22.5019 337.75C9.75186 337.75 0.00185966 347.25 0.00185966 359.75C0.00185966 372.25 9.75186 382 22.5019 382ZM268.502 550.75C281.252 550.75 290.752 541.25 290.752 528.75C290.752 516 281.252 506.5 268.502 506.5L22.5019 506.5C9.75186 506.5 0.00185966 516 0.00185966 528.75C0.00185966 541.25 9.75186 550.75 22.5019 550.75Z" fill="black" fill-opacity="0.85"/>
  <path d="M690.252 369.25C713.002 384 739.002 375.75 738.752 348.5L738.752 202.25C739.002 173.75 714.002 165 690.252 181L588.252 250.5C570.752 262.75 570.002 288.75 588.252 301Z" fill="black" fill-opacity="0.85"/>
 </g>
</svg>
