<?xml version="1.0" encoding="UTF-8"?>
<!--Generator: Apple Native CoreSVG 326-->
<!DOCTYPE svg
PUBLIC "-//W3C//DTD SVG 1.1//EN"
       "http://www.w3.org/Graphics/SVG/1.1/DTD/svg11.dtd">
<svg version="1.1" xmlns="http://www.w3.org/2000/svg" xmlns:xlink="http://www.w3.org/1999/xlink" viewBox="0 0 602.5 710.25">
 <g>
  <rect height="710.25" opacity="0" width="602.5" x="0" y="0"/>
  <path d="M50.75 416.75C50.75 563.25 161 710.25 360.75 710.25C449.75 710.25 514 669.25 514 618C514 592 495.25 573.75 462 570.75C454.25 569.75 447.25 572.75 446 582.25C441 628.5 412.5 660 371.25 660C341.75 660 323.75 642.5 323.75 619.75C323.75 540.25 546.75 526.75 546.75 383.75C546.75 314.25 496.25 266.75 433 266.75C372 266.75 323 301.75 302.25 354.75C305.75 276 258.75 231 197 231C104.25 231 50.75 315.5 50.75 416.75ZM92.5 416.75C92.5 327.5 132.25 272.75 194.25 272.75C248.5 272.75 279.25 318.75 281.25 383C282 402 305.75 402.75 312.5 389.25C338.75 336.25 384.25 308.5 432.25 308.5C473.75 308.5 505 338 505 386.25C505 498.5 282.75 507.5 282.75 619.75C282.75 638.25 291.25 654.25 306.25 663.75C168.25 642.75 92.5 537.25 92.5 416.75ZM125.5 64.25C231.5 64.25 327.75 215.25 482.25 215.25C559 215.25 602.5 169.5 602.5 106.25C602.5 85.25 597 61.5 585.5 39.75C573.5 16.25 537 31.5 550.5 58C559.5 75.25 564.5 94 564.5 109.75C564.5 151 536.25 176.25 482.25 176.25C348.75 176.25 252.75 25 125.5 25C46.5 25 0 76.5 0 137.25C0 157.5 5 178.5 15.75 199.5C27.75 222.75 63.75 206.5 50.75 181.25C42.25 164.75 38.5 148.75 38.5 134.25C38.5 94 69.25 64.25 125.5 64.25ZM284.5 356.5L302.5 362L323.75 348C336.5 253 402.5 196.75 402.5 110.75C402.5 56.25 365 13.25 315.25 13.25C271.75 13.25 236.25 45.75 234.5 90L271 100.75C272 72 289.25 52.5 315.25 52.5C343.25 52.5 363.25 75.5 363.25 110.75C363.25 181.5 293 240.75 284.5 356.5Z" fill="black" fill-opacity="0.85"/>
 </g>
</svg>
