<?xml version="1.0" encoding="UTF-8"?>
<!--Generator: Apple Native CoreSVG 326-->
<!DOCTYPE svg
PUBLIC "-//W3C//DTD SVG 1.1//EN"
       "http://www.w3.org/Graphics/SVG/1.1/DTD/svg11.dtd">
<svg version="1.1" xmlns="http://www.w3.org/2000/svg" xmlns:xlink="http://www.w3.org/1999/xlink" viewBox="0 0 331 462.75">
 <g>
  <rect height="462.75" opacity="0" width="331" x="0" y="0"/>
  <path d="M22 462.25L227.5 462.25C240.5 462.25 249.5 454.25 249.5 441.25C249.5 428.75 240.75 420.75 227.75 420.75L150 420.75L231.5 41.5L309 41.5C322 41.5 331 33.5 331 20.5C331 8 322.25 0 309.25 0L103.25 0C90.25 0 81.5 8 81.5 20.5C81.5 33.5 90.75 41.5 103.5 41.5L181 41.5L99.5 420.75L21.75 420.75C8.75 420.75 0 428.75 0 441.25C0 454.25 9 462.25 22 462.25Z" fill="black" fill-opacity="0.85"/>
 </g>
</svg>
