<?xml version="1.0" encoding="UTF-8"?>
<!--Generator: Apple Native CoreSVG 326-->
<!DOCTYPE svg
PUBLIC "-//W3C//DTD SVG 1.1//EN"
       "http://www.w3.org/Graphics/SVG/1.1/DTD/svg11.dtd">
<svg version="1.1" xmlns="http://www.w3.org/2000/svg" xmlns:xlink="http://www.w3.org/1999/xlink" viewBox="0 0 897 522.25">
 <g>
  <rect height="522.25" opacity="0" width="897" x="0" y="0"/>
  <path d="M167.25 445.75L250.5 508C266 519.75 286 513.5 286 492.75L286 446.5L731 446.5L731 492.75C731 513 750.5 520.25 766.5 508L849.75 445.75C860.75 437.5 860.5 421.75 849.75 413.75L766.5 351.75C750.5 339.5 731 346.75 731 366.75L731 413.5L286 413.5L286 366.75C286 346.75 266.5 339.5 250.5 351.75L167.25 413.75C156.25 422 156 437.5 167.25 445.75Z" fill="black" fill-opacity="0.85"/>
  <path d="M431.5 242.25L562.75 242.25C637 242.25 660 216.75 689.5 167.5L707.25 132.5C732.5 74.75 754.5 46.75 792.25 46.75C832 46.75 859.5 92 859.5 136.5C859.5 179 835.25 195 798.75 195C746.5 195 702.5 164.5 685.5 131.25L668 172.25C684.25 207.5 733.25 242.25 795.75 242.25C855.5 242.25 897 206.5 897 136C897 69.25 856.25 5.68434e-14 796 5.68434e-14C751 5.68434e-14 720.75 28.25 693 84L674 122.25C651.75 167 631.5 193.75 569.5 193.75L438 193.75C360.5 193.75 345.5 164.25 330.5 110C315.5 56.5 285.5 5.68434e-14 228.75 5.68434e-14C161 5.68434e-14 117.75 74.75 103.25 151.25L137.25 162.25C152.25 89.75 188 46.5 226.25 46.5C265.75 46.5 287.75 88 294.25 124.5C303.25 175 269.75 196 233.5 196C185.5 196 144.75 168.25 129.75 135.5L104 171.5C120.25 205 165.75 242.25 229.25 242.25C285.25 242.25 329.5 210.25 323.75 144.5L309 153.25C319.5 206.5 351.5 242.25 431.5 242.25ZM19.75 480.5C31 480.5 39.25 472 39.25 460.25L39.25 236.75C39.25 198 52.75 192.75 84.5 187.25L134.75 179.25L125.75 135.75L81.75 143.75C25.75 153.5 0 172 0 236.75L0.25 460.5C0.25 472.25 8.75 480.5 19.75 480.5Z" fill="black" fill-opacity="0.85"/>
 </g>
</svg>
