<?xml version="1.0" encoding="UTF-8"?>
<!--Generator: Apple Native CoreSVG 326-->
<!DOCTYPE svg
PUBLIC "-//W3C//DTD SVG 1.1//EN"
       "http://www.w3.org/Graphics/SVG/1.1/DTD/svg11.dtd">
<svg version="1.1" xmlns="http://www.w3.org/2000/svg" xmlns:xlink="http://www.w3.org/1999/xlink" viewBox="0 0 651.25 651.75">
 <g>
  <rect height="651.75" opacity="0" width="651.25" x="0" y="0"/>
  <path d="M651.25 325.75C651.25 505 505 651.25 325.5 651.25C146.25 651.25 0 505 0 325.75C0 146.25 146.25 0 325.5 0C505 0 651.25 146.25 651.25 325.75ZM136 436.75C136 452.25 148.25 464.5 163.5 464.5C179 464.5 191.25 452.25 191.25 436.75C191.25 421.75 178.75 409 163.5 409C148.25 409 136 421.5 136 436.75ZM243 419.25C233.25 419.25 225.25 427.25 225.25 436.75C225.25 446.5 232.75 454.5 243 454.5L496.25 454.5C506.5 454.5 514.25 446.75 514.25 436.75C514.25 426.75 506.5 419.25 496.25 419.25ZM136 326C136 341.5 148.25 353.75 163.5 353.75C178.75 353.75 191.25 341.25 191.25 326C191.25 311 178.75 298.5 163.5 298.5C148.25 298.5 136 310.75 136 326ZM243 308.5C233.25 308.5 225.25 316.5 225.25 326C225.25 335.75 233.25 343.75 243 343.75L496.25 343.75C506.5 343.75 514.25 336 514.25 326C514.25 316 506.5 308.5 496.25 308.5ZM136 215.5C136 230.5 148.25 243 163.5 243C178.75 243 191.25 230.25 191.25 215.5C191.25 200 179 187.75 163.5 187.75C148.25 187.75 136 200 136 215.5ZM243 197.75C232.75 197.75 225.25 205.5 225.25 215.5C225.25 225 233.25 233 243 233L496.25 233C506.5 233 514.25 225.5 514.25 215.5C514.25 205.5 506.5 197.75 496.25 197.75Z" fill="black" fill-opacity="0.85"/>
 </g>
</svg>
