<?xml version="1.0" encoding="UTF-8"?>
<!--Generator: Apple Native CoreSVG 326-->
<!DOCTYPE svg
PUBLIC "-//W3C//DTD SVG 1.1//EN"
       "http://www.w3.org/Graphics/SVG/1.1/DTD/svg11.dtd">
<svg version="1.1" xmlns="http://www.w3.org/2000/svg" xmlns:xlink="http://www.w3.org/1999/xlink" viewBox="0 0 643 465.75">
 <g>
  <rect height="465.75" opacity="0" width="643" x="0" y="0"/>
  <path d="M178.25 448.75L620.5 448.75C633 448.75 643 439 643 426.5C643 414 633 404.5 620.5 404.5L178.25 404.5C165.75 404.5 156.25 414 156.25 426.5C156.25 439 165.75 448.75 178.25 448.75Z" fill="black" fill-opacity="0.85"/>
  <path d="M39.25 465.75C61 465.75 78.5 448.25 78.5 426.5C78.5 404.75 61 387.25 39.25 387.25C17.5 387.25 0 404.75 0 426.5C0 448.25 17.5 465.75 39.25 465.75Z" fill="black" fill-opacity="0.85"/>
  <path d="M178.25 255L620.5 255C633 255 643 245.5 643 233C643 220.5 633 210.75 620.5 210.75L178.25 210.75C165.75 210.75 156.25 220.5 156.25 233C156.25 245.5 165.75 255 178.25 255Z" fill="black" fill-opacity="0.85"/>
  <path d="M39.25 272.25C61 272.25 78.5 254.75 78.5 233C78.5 211.25 61 193.75 39.25 193.75C17.5 193.75 0 211.25 0 233C0 254.75 17.5 272.25 39.25 272.25Z" fill="black" fill-opacity="0.85"/>
  <path d="M178.25 61.5L620.5 61.5C633 61.5 643 51.75 643 39.25C643 26.75 633 17.25 620.5 17.25L178.25 17.25C165.75 17.25 156.25 26.75 156.25 39.25C156.25 51.75 165.75 61.5 178.25 61.5Z" fill="black" fill-opacity="0.85"/>
  <path d="M39.25 78.5C61 78.5 78.5 61 78.5 39.25C78.5 17.5 61 0 39.25 0C17.5 0 0 17.5 0 39.25C0 61 17.5 78.5 39.25 78.5Z" fill="black" fill-opacity="0.85"/>
 </g>
</svg>
