<?xml version="1.0" encoding="UTF-8"?>
<!--Generator: Apple Native CoreSVG 326-->
<!DOCTYPE svg
PUBLIC "-//W3C//DTD SVG 1.1//EN"
       "http://www.w3.org/Graphics/SVG/1.1/DTD/svg11.dtd">
<svg version="1.1" xmlns="http://www.w3.org/2000/svg" xmlns:xlink="http://www.w3.org/1999/xlink" viewBox="0 0 643 446.75">
 <g>
  <rect height="446.75" opacity="0" width="643" x="0" y="0"/>
  <path d="M203.5 439.25L620.5 439.25C633 439.25 643 429.75 643 417.25C643 404.75 633 395 620.5 395L203.5 395C191 395 181.5 404.75 181.5 417.25C181.5 429.75 191 439.25 203.5 439.25Z" fill="black" fill-opacity="0.85"/>
  <path d="M29.5 446.75L83 446.75C99.25 446.75 112.75 433.5 112.75 417.25C112.75 400.75 99.25 387.75 83 387.75L29.5 387.75C13.25 387.75 0 400.75 0 417.25C0 433.5 13.25 446.75 29.5 446.75Z" fill="black" fill-opacity="0.85"/>
  <path d="M203.5 245.75L620.5 245.75C633 245.75 643 236 643 223.5C643 211 633 201.5 620.5 201.5L203.5 201.5C191 201.5 181.5 211 181.5 223.5C181.5 236 191 245.75 203.5 245.75Z" fill="black" fill-opacity="0.85"/>
  <path d="M29.5 253L83 253C99.25 253 112.75 239.75 112.75 223.5C112.75 207.25 99.25 194 83 194L29.5 194C13.25 194 0 207.25 0 223.5C0 239.75 13.25 253 29.5 253Z" fill="black" fill-opacity="0.85"/>
  <path d="M203.5 52L620.5 52C633 52 643 42.5 643 30C643 17.5 633 7.75 620.5 7.75L203.5 7.75C191 7.75 181.5 17.5 181.5 30C181.5 42.5 191 52 203.5 52Z" fill="black" fill-opacity="0.85"/>
  <path d="M29.5 59.5L83 59.5C99.25 59.5 112.75 46 112.75 30C112.75 13.5 99.25 0.5 83 0.5L29.5 0.5C13.25 0.5 0 13.5 0 30C0 46 13.25 59.5 29.5 59.5Z" fill="black" fill-opacity="0.85"/>
 </g>
</svg>
