<?xml version="1.0" encoding="UTF-8"?>
<!--Generator: Apple Native CoreSVG 326-->
<!DOCTYPE svg
PUBLIC "-//W3C//DTD SVG 1.1//EN"
       "http://www.w3.org/Graphics/SVG/1.1/DTD/svg11.dtd">
<svg version="1.1" xmlns="http://www.w3.org/2000/svg" xmlns:xlink="http://www.w3.org/1999/xlink" viewBox="0 0 801.25 465.75">
 <g>
  <rect height="465.75" opacity="0" width="801.25" x="0" y="0"/>
  <path d="M336.75 448.75L778.75 448.75C791.5 448.75 801.25 439 801.25 426.5C801.25 414 791.5 404.5 778.75 404.5L336.75 404.5C324 404.5 314.5 414 314.5 426.5C314.5 439 324 448.75 336.75 448.75Z" fill="black" fill-opacity="0.85"/>
  <path d="M197.5 465.75C219.25 465.75 236.75 448.25 236.75 426.5C236.75 404.75 219.25 387.25 197.5 387.25C175.75 387.25 158.25 404.75 158.25 426.5C158.25 448.25 175.75 465.75 197.5 465.75Z" fill="black" fill-opacity="0.85"/>
  <path d="M257.5 255L699.75 255C712.25 255 722 245.5 722 233C722 220.5 712.25 210.75 699.75 210.75L257.5 210.75C245 210.75 235.25 220.5 235.25 233C235.25 245.5 245 255 257.5 255Z" fill="black" fill-opacity="0.85"/>
  <path d="M118.5 272.25C140.25 272.25 157.75 254.75 157.75 233C157.75 211.25 140.25 193.75 118.5 193.75C96.75 193.75 79.25 211.25 79.25 233C79.25 254.75 96.75 272.25 118.5 272.25Z" fill="black" fill-opacity="0.85"/>
  <path d="M178.25 61.5L620.5 61.5C633 61.5 643 51.75 643 39.25C643 26.75 633 17.25 620.5 17.25L178.25 17.25C165.75 17.25 156.25 26.75 156.25 39.25C156.25 51.75 165.75 61.5 178.25 61.5Z" fill="black" fill-opacity="0.85"/>
  <path d="M39.25 78.5C61 78.5 78.5 61 78.5 39.25C78.5 17.5 61 0 39.25 0C17.5 0 0 17.5 0 39.25C0 61 17.5 78.5 39.25 78.5Z" fill="black" fill-opacity="0.85"/>
 </g>
</svg>
