<?xml version="1.0" encoding="UTF-8"?>
<!--Generator: Apple Native CoreSVG 326-->
<!DOCTYPE svg
PUBLIC "-//W3C//DTD SVG 1.1//EN"
       "http://www.w3.org/Graphics/SVG/1.1/DTD/svg11.dtd">
<svg version="1.1" xmlns="http://www.w3.org/2000/svg" xmlns:xlink="http://www.w3.org/1999/xlink" viewBox="0 0 757.5 587.75">
 <g>
  <rect height="587.75" opacity="0" width="757.5" x="0" y="0"/>
  <path d="M757.5 96.5L757.5 491.5C757.5 555 724.75 587.75 660 587.75L97.25 587.75C32.75 587.75 0 555.5 0 491.5L0 96.5C0 32.5 32.75 0 97.25 0L660 0C724.75 0 757.5 32.75 757.5 96.5ZM478 210.75C477.25 214.75 477 217.25 477 221.5C477 231.25 483.75 238.25 494.25 238.25C503.5 238.25 509.25 234 511.75 224.75C517.75 201.25 538.25 187 565.75 187C596 187 615.75 203 615.75 227.75C615.75 253.25 594.25 272.5 565.25 272.5L545 272.5C536 272.5 529 278.75 529 288.25C529 297.75 535.5 304.5 545 304.5L567.25 304.5C601.25 304.5 625 323.75 625 351.25C625 379 601 398.25 565 398.25C535.75 398.25 514 384 506.75 360.25C503.5 351.25 498 346.75 489 346.75C477.75 346.75 471.5 354.25 471.5 364.75C471.5 368.5 471.75 370.25 472.5 373.75C479.25 407.25 519 431 564.5 431C622.75 431 663 399.5 663 352.5C663 318.25 636.75 290.75 601.5 287L601.5 286.25C630.75 281.25 653.5 254.5 653.5 223.75C653.5 183.25 617 154 566.25 154C520.5 154 485 176.5 478 210.75ZM155 164.25L99 202C93.5 205.75 91.5 210 91.5 215.75C91.5 223.75 98 230.75 105.25 230.75C109.25 230.75 112 230 118.5 225.75L161 198L163.5 198L163.5 409.25C163.5 422.5 171 430.75 183 430.75C195.25 430.75 202.75 422.75 202.75 409.25L202.75 176.5C202.75 162.25 194.75 154.5 181.75 154.5C172 154.5 166 157.25 155 164.25ZM257.75 213.75C256.5 218 256.25 221 256.25 224.75C256.25 234.75 262.5 241.5 273 241.5C282.5 241.5 287.5 236 291.75 228.25C297.75 207.25 316 187.75 345.75 187.75C375.25 187.75 395.25 205 395.25 231C395.25 252 379.25 270 361 290L264.75 394C260.5 398.75 257.75 403.5 257.75 409.5C257.75 420.25 265.25 426.5 276.75 426.5L427.25 426.5C437.5 426.5 444.5 419.25 444.5 409.5C444.5 399.75 437.25 392.75 427.25 392.75L313.5 392.75L313.5 391.5L387.5 311.5C414.75 281.75 431.75 259 431.75 228.25C431.75 183.75 397 154.25 344.25 154.25C302.75 154.25 266.25 179.5 257.75 213.75Z" fill="black" fill-opacity="0.85"/>
 </g>
</svg>
