<?xml version="1.0" encoding="UTF-8"?>
<!--Generator: Apple Native CoreSVG 326-->
<!DOCTYPE svg
PUBLIC "-//W3C//DTD SVG 1.1//EN"
       "http://www.w3.org/Graphics/SVG/1.1/DTD/svg11.dtd">
<svg version="1.1" xmlns="http://www.w3.org/2000/svg" xmlns:xlink="http://www.w3.org/1999/xlink" viewBox="0 0 977.5 478.75">
 <g>
  <rect height="478.75" opacity="0" width="977.5" x="0" y="0"/>
  <path d="M810.5 477.5C907.5 477.5 977.5 420.25 977.5 342C977.5 277.5 931.25 234.75 857.5 230L857.5 228.75C919.25 218.25 957.5 176.75 957.5 119.5C957.5 50.25 895 0 808.5 0C742 0 688 30.75 666.75 80.5C661.5 91.5 659 102 659 113C659 126.25 667.75 135 680.25 135C693.5 135 698.75 129 702.75 115.75C715.5 70.75 754.5 43 807 43C867.5 43 908.25 76.5 908.25 125.5C908.25 176.5 865.75 211 803.75 211L765.5 211C752.5 211 744 219 744 231.5C744 243.75 752.5 252 765.5 252L804.5 252C880.75 252 926.25 284.75 926.25 341.5C926.25 395.25 878.25 433.25 811 433.25C751.75 433.25 707.5 405.25 694.25 359.25C690.25 346.75 683.5 341 671.75 341C657.75 341 648.25 350 648.25 364.5C648.25 374.75 651 384.5 656 394.25C681 447.5 738.25 477.5 810.5 477.5Z" fill="black" fill-opacity="0.85"/>
  <path d="M305.75 471.5L578.25 471.5C592.25 471.5 601 462.75 601 449.5C601 436.25 592.25 427.5 578.25 427.5L350.75 427.5L350.75 426L483 293.5C559.5 217.25 583.25 179.25 583.25 130C583.25 56.5 519 0 433 0C366 0 308.5 36 288.75 91.5C284.5 103 282.5 113.5 282.5 122C282.5 136 290.5 145.25 304.25 145.25C317 145.25 322.75 139 326.75 125.25C329 115 332 105.25 337.25 96.75C354.25 65 388.25 43.5 433 43.5C488.75 43.5 533.25 83.25 533.25 132.75C533.25 171 516.25 197.5 450.25 264.25L296.75 420C285.25 431.5 281.5 438.5 281.5 448.5C281.5 462.75 291.25 471.5 305.75 471.5Z" fill="black" fill-opacity="0.85"/>
  <path d="M159.75 476.25C175 476.25 184.75 466.75 184.75 451.5L184.75 29.25C184.75 11.75 173.75 2 156.75 2C144.5 2 137.5 5.5 126 13L14.25 84.25C3.75 91.5 0 97.75 0 106.75C0 118.25 8.25 126.5 20.5 126.5C27.75 126.5 31.5 124.5 36.5 121.25L134.5 60.25L135.5 60.25L135.5 451.5C135.5 466.75 144.75 476.25 159.75 476.25Z" fill="black" fill-opacity="0.85"/>
 </g>
</svg>
