<?xml version="1.0" encoding="UTF-8"?>
<!--Generator: Apple Native CoreSVG 326-->
<!DOCTYPE svg
PUBLIC "-//W3C//DTD SVG 1.1//EN"
       "http://www.w3.org/Graphics/SVG/1.1/DTD/svg11.dtd">
<svg version="1.1" xmlns="http://www.w3.org/2000/svg" xmlns:xlink="http://www.w3.org/1999/xlink" viewBox="0 0 757.5 587.75">
 <g>
  <rect height="587.75" opacity="0" width="757.5" x="0" y="0"/>
  <path d="M97.25 587.75L660 587.75C724.75 587.75 757.5 555 757.5 491.5L757.5 96.5C757.5 32.75 724.75 0 660 0L97.25 0C32.75 0 0 32.5 0 96.5L0 491.5C0 555.5 32.75 587.75 97.25 587.75ZM98.25 543.5C63.25 543.5 44.25 525 44.25 489L44.25 98.75C44.25 63 63.25 44.25 98.25 44.25L659.25 44.25C693.5 44.25 713 63 713 98.75L713 489C713 525 693.5 543.5 659.25 543.5Z" fill="black" fill-opacity="0.85"/>
  <path d="M187.5 427.5C199.5 427.5 206.75 419.75 206.75 406.5L206.75 179C206.75 165.5 199 157.75 186.25 157.75C177 157.75 171.25 160.25 160.75 167.5L105.75 204C100.25 208 98.25 212 98.25 217.5C98.25 225.25 104.5 232 112 232C115.5 232 118.25 231.25 124.5 227L166.25 199.75L168.75 199.75L168.75 406.5C168.75 419.5 176 427.5 187.5 427.5ZM279 423.5L426.25 423.5C436 423.5 442.75 416.5 442.75 407C442.75 397.25 435.75 390.75 426.25 390.75L314.75 390.75L314.75 389.5L387.25 311C414 281.75 430.5 259.75 430.5 229.75C430.5 186.25 396.5 157.75 345 157.75C304.75 157.75 268.75 182 260.5 215.5C259.5 219.75 259.25 222.75 259.25 226.25C259.25 236 265.25 242.5 275.5 242.5C284.5 242.5 289.5 237.25 293.5 229.75C299.25 209 317.25 190 346.5 190C375.5 190 395 206.75 395 232.25C395 252.75 379.5 270.5 361.5 290L267.5 392C263.25 396.5 260.75 401 260.75 407C260.75 417.25 268 423.5 279 423.5ZM560 427.75C617 427.75 656 397 656 351.25C656 317.75 630.5 290.75 596 287.25L596 286.5C624.75 281.5 647 255.25 647 225.25C647 185.75 611.25 157.5 561.75 157.5C517.25 157.5 482.5 179.25 475.75 212.5C475 216.5 474.5 219 474.5 223C474.5 232.5 481.25 239.25 491.5 239.25C500.5 239.25 505.75 235.25 508.5 226.25C514.25 203.25 534.25 189.25 561.25 189.25C591 189.25 610.25 205 610.25 229.25C610.25 254.25 589.25 273 560.75 273L541 273C532.25 273 525.5 279.25 525.5 288.25C525.5 297.5 531.75 304 541 304L562.5 304C596 304 619.25 323 619.25 350C619.25 377.25 595.75 396 560.5 396C532 396 510.5 382 503.5 358.75C500.25 350 495 345.75 486.25 345.75C475.5 345.75 469.25 353 469.25 363.25C469.25 366.5 469.5 368.5 470 372C477 404.5 515.75 427.75 560 427.75Z" fill="black" fill-opacity="0.85"/>
 </g>
</svg>
