<?xml version="1.0" encoding="UTF-8"?>
<!--Generator: Apple Native CoreSVG 326-->
<!DOCTYPE svg
PUBLIC "-//W3C//DTD SVG 1.1//EN"
       "http://www.w3.org/Graphics/SVG/1.1/DTD/svg11.dtd">
<svg version="1.1" xmlns="http://www.w3.org/2000/svg" xmlns:xlink="http://www.w3.org/1999/xlink" viewBox="0 0 775.001 602.25">
 <g>
  <rect height="602.25" opacity="0" width="775.001" x="0" y="0"/>
  <path d="M306.001 600.75C318.501 600.75 328.251 590.75 328.251 578.25L328.251 22.25C328.251 9.75 318.501 0 306.001 0C293.501 0 284.001 9.75 284.001 22.25L284.001 578.25C284.001 590.75 293.501 600.75 306.001 600.75ZM468.751 600.75C481.501 600.75 491.001 590.75 491.001 578.25L491.001 22.25C491.001 9.75 481.501 0 468.751 0C456.251 0 446.751 9.75 446.751 22.25L446.751 578.25C446.751 590.75 456.251 600.75 468.751 600.75Z" fill="black" fill-opacity="0.85"/>
  <path d="M115.501 394.75C138.001 409.5 164.001 401.25 163.751 374L163.751 227.75C164.001 199.25 139.251 190.5 115.501 206.5L13.5007 276C-4.24935 288.25-4.74935 314.25 13.5007 326.5ZM659.501 394.75L761.501 326.5C779.751 314.25 779.001 288 761.501 276L659.501 206.5C635.751 190.5 611.251 199.25 611.251 227.75L611.251 374C611.251 401.25 636.751 410 659.501 394.75Z" fill="black" fill-opacity="0.85"/>
 </g>
</svg>
