<?xml version="1.0" encoding="UTF-8"?>
<!--Generator: Apple Native CoreSVG 326-->
<!DOCTYPE svg
PUBLIC "-//W3C//DTD SVG 1.1//EN"
       "http://www.w3.org/Graphics/SVG/1.1/DTD/svg11.dtd">
<svg version="1.1" xmlns="http://www.w3.org/2000/svg" xmlns:xlink="http://www.w3.org/1999/xlink" viewBox="0 0 436 524.118">
 <g>
  <rect height="524.118" opacity="0" width="436" x="0" y="0"/>
  <path d="M0 501.434L76 521.684C107 529.934 125.75 516.934 125.75 486.934L125.75 366.684L285.5 366.684L285.5 278.684L25.75 278.684L25.75 475.934C25.75 491.434 15.75 501.434 0 501.434ZM25.75 233.434L125.75 233.434L125.75 92.9342C125.75 65.9342 113.5 52.6842 88.75 46.1842L15 26.4342C21.5 30.6842 25.75 37.6842 25.75 47.9342ZM310 501.434L386 521.684C417 529.934 436 516.934 436 486.934L436 92.9342C436 65.9342 423.25 52.4342 398.5 45.9342L325 26.4342C331.5 30.6842 335.75 37.6842 335.75 47.9342L335.75 475.934C335.75 491.434 325.75 501.434 310 501.434Z" fill="black" fill-opacity="0.85"/>
 </g>
</svg>
