<?xml version="1.0" encoding="UTF-8"?>
<!--Generator: Apple Native CoreSVG 326-->
<!DOCTYPE svg
PUBLIC "-//W3C//DTD SVG 1.1//EN"
       "http://www.w3.org/Graphics/SVG/1.1/DTD/svg11.dtd">
<svg version="1.1" xmlns="http://www.w3.org/2000/svg" xmlns:xlink="http://www.w3.org/1999/xlink" viewBox="0 0 520.25 478.75">
 <g>
  <rect height="478.75" opacity="0" width="520.25" x="0" y="0"/>
  <path d="M433.5 341.25C433.5 423.25 365.5 478.75 260.25 478.75C172.25 478.75 105.5 438.5 89 375.75C87.5 370 86.75 364.5 86.75 359.25C86.75 345 95.75 335.75 110.5 335.75C122.5 335.75 128.25 341.5 133 354.25C148.25 403.5 197 434.5 260.5 434.5C332.25 434.5 382 397.25 382 347C382 305.25 352.5 282 282 265L223.25 251C219.269 250.045 215.387 249.057 211.71 248L379.907 248C416.737 269.637 433.5 299.208 433.5 341.25ZM420 99.5C421.25 104.5 421.75 110 421.75 114C421.75 128 413 136.5 398.75 136.5C387.75 136.5 381 131 377 120.25C362.75 72.75 319.25 44 259.25 44C195 44 147 79 147 128C147 167 176.75 188.75 245.5 205.25L298.25 218C305.938 219.815 313.272 221.716 320.128 223.75L150.229 223.75C113.029 202.226 95.5 172.416 95.5 131.5C95.5 54.75 165.5 0 259.25 0C342.5 0 405.75 41.25 420 99.5Z" fill="black" fill-opacity="0.85"/>
  <path d="M12.25 248L508 248C515 248 520.25 242.5 520.25 235.75C520.25 229 515 223.75 508 223.75L12.25 223.75C5.25 223.75 0 229 0 235.75C0 242.5 5.25 248 12.25 248Z" fill="black" fill-opacity="0.85"/>
 </g>
</svg>
