<?xml version="1.0" encoding="UTF-8"?>
<!--Generator: Apple Native CoreSVG 326-->
<!DOCTYPE svg
PUBLIC "-//W3C//DTD SVG 1.1//EN"
       "http://www.w3.org/Graphics/SVG/1.1/DTD/svg11.dtd">
<svg version="1.1" xmlns="http://www.w3.org/2000/svg" xmlns:xlink="http://www.w3.org/1999/xlink" viewBox="0 0 1072.25 672.75">
 <g>
  <rect height="672.75" opacity="0" width="1072.25" x="0" y="0"/>
  <path d="M36 672.75C56 672.75 72.25 656.75 72.25 636.75C72.25 616.75 56 600.75 36 600.75C16.25 600.75 0 616.75 0 636.75C0 656.75 16.25 672.75 36 672.75ZM202.75 672.75C222.75 672.75 239 656.75 239 636.75C239 616.75 222.75 600.75 202.75 600.75C183 600.75 166.75 616.75 166.75 636.75C166.75 656.75 183 672.75 202.75 672.75ZM369.5 672.75C389.5 672.75 405.5 656.75 405.5 636.75C405.5 616.75 389.5 600.75 369.5 600.75C349.5 600.75 333.5 616.75 333.5 636.75C333.5 656.75 349.5 672.75 369.5 672.75ZM536.25 672.75C556.25 672.75 572.25 656.75 572.25 636.75C572.25 616.75 556.25 600.75 536.25 600.75C516.25 600.75 500.25 616.75 500.25 636.75C500.25 656.75 516.25 672.75 536.25 672.75ZM703 672.75C723 672.75 739 656.75 739 636.75C739 616.75 723 600.75 703 600.75C683 600.75 667 616.75 667 636.75C667 656.75 683 672.75 703 672.75ZM869.75 672.75C889.5 672.75 905.75 656.75 905.75 636.75C905.75 616.75 889.5 600.75 869.75 600.75C849.75 600.75 833.5 616.75 833.5 636.75C833.5 656.75 849.75 672.75 869.75 672.75ZM1036 672.75C1055.75 672.75 1072 656.75 1072 636.75C1072 616.75 1055.75 600.75 1036 600.75C1016 600.75 999.75 616.75 999.75 636.75C999.75 656.75 1016 672.75 1036 672.75Z" fill="black" fill-opacity="0.85"/>
  <path d="M22.5 477.25C33 477.25 42.75 471 48 456.75L94.25 331.75L292.5 331.75L338.75 456.75C344 471.25 353.5 477.25 363.75 477.25C375.75 477.25 387 468.5 387 455.25C387 450.5 386 446.5 384 440.5L226.75 26.75C220.75 10.75 210.25 2.75 193.25 2.75C176.75 2.75 166.25 10.5 160.25 26.5L3.25 440.75C1 446.75 0.25 450.75 0.25 455.5C0.25 469 10.75 477.25 22.5 477.25ZM107 292.25L191.5 62.5L194.75 62.5L279.25 292.25ZM457.25 477.25C470 477.25 480 468.25 480 453.75L480 397L480.5 397C498.5 446.25 543 477.5 598 477.5C684.25 477.5 741.75 407.5 741.75 302.25C741.75 197 684 127.25 598.5 127.25C544 127.25 499.75 158.5 481.75 207.25L481 207.25L481 31.25C481 16.25 471.5 6.5 457.75 6.5C444 6.5 434.5 16.25 434.5 31.25L434.5 453.75C434.5 468.5 443.75 477.25 457.25 477.25ZM588.75 437C525.75 437 481.5 383.5 481.5 302.5C481.5 221.75 525.75 168 588.75 168C653 168 694 220.25 694 302.25C694 384.75 653 437 588.75 437ZM936 477.5C998.25 477.5 1051.5 443 1069.5 392.75C1071.25 387.75 1072.25 382.75 1072.25 378.25C1072.25 366.75 1063.75 358.25 1052 358.25C1041.5 358.25 1036 362.75 1030 374.5C1014 414.75 981.75 437 936.25 437C870 437 828 386 828 302.5C828 219.5 870.5 167.75 935.75 167.75C979.75 167.75 1012.75 189.25 1029.25 230.5C1035 242 1040.75 246.25 1050.75 246.25C1062.75 246.25 1071 238.25 1071 226.5C1071 222.75 1070.25 218 1069 214.25C1052.75 163.5 998.75 127.25 934.75 127.25C841 127.25 780.5 196.5 780.5 303C780.5 409.5 841.75 477.5 936 477.5Z" fill="black" fill-opacity="0.85"/>
 </g>
</svg>
