<?xml version="1.0" encoding="UTF-8"?>
<!--Generator: Apple Native CoreSVG 326-->
<!DOCTYPE svg
PUBLIC "-//W3C//DTD SVG 1.1//EN"
       "http://www.w3.org/Graphics/SVG/1.1/DTD/svg11.dtd">
<svg version="1.1" xmlns="http://www.w3.org/2000/svg" xmlns:xlink="http://www.w3.org/1999/xlink" viewBox="0 0 643 551.25">
 <g>
  <rect height="551.25" opacity="0" width="643" x="0" y="0"/>
  <path d="M22.25 44.25L620.5 44.25C633 44.25 643 34.75 643 22.25C643 9.75 633 0 620.5 0L22.25 0C9.5 0 0 9.75 0 22.25C0 34.75 9.5 44.25 22.25 44.25ZM145.75 213.25L497 213.25C509.5 213.25 519.5 203.5 519.5 191C519.5 178.5 509.5 168.75 497 168.75L145.75 168.75C133.25 168.75 123.5 178.5 123.5 191C123.5 203.5 133.25 213.25 145.75 213.25ZM22.25 382L620.5 382C633 382 643 372.25 643 359.75C643 347.25 633 337.75 620.5 337.75L22.25 337.75C9.5 337.75 0 347.25 0 359.75C0 372.25 9.5 382 22.25 382ZM145.75 550.75L497 550.75C509.5 550.75 519.5 541.25 519.5 528.75C519.5 516 509.5 506.5 497 506.5L145.75 506.5C133.25 506.5 123.5 516 123.5 528.75C123.5 541.25 133.25 550.75 145.75 550.75Z" fill="black" fill-opacity="0.85"/>
 </g>
</svg>
