<?xml version="1.0" encoding="UTF-8"?>
<!--Generator: Apple Native CoreSVG 326-->
<!DOCTYPE svg
PUBLIC "-//W3C//DTD SVG 1.1//EN"
       "http://www.w3.org/Graphics/SVG/1.1/DTD/svg11.dtd">
<svg version="1.1" xmlns="http://www.w3.org/2000/svg" xmlns:xlink="http://www.w3.org/1999/xlink" viewBox="0 0 747.25 476.75">
 <g>
  <rect height="476.75" opacity="0" width="747.25" x="0" y="0"/>
  <path d="M579.75 476C637.75 476 681.75 447.25 701 397L703 397L703 453.5C703 467.75 712 476.75 724.75 476.75C738.25 476.75 747.25 467.5 747.25 453.25L747.25 137.75C747.25 123.25 738.25 113.75 724.75 113.75C712 113.75 703 123.25 703 137.75L703 194.25L701 194.25C682 145 635.75 114.25 579.75 114.25C492 114.25 432.75 187.25 432.75 295C432.75 403.75 492 476 579.75 476ZM590.25 436C523.25 436 480 381 480 295C480 209.5 523.5 154.25 590.25 154.25C657 154.25 701.75 211.5 701.75 296.25C701.75 381 657.75 436 590.25 436Z" fill="black" fill-opacity="0.85"/>
  <path d="M23.25 476C37.25 476 44.5 470.5 49.75 455.5L95.75 331.25L292.5 331.25L338.5 455.5C343.75 470.5 351 476 365 476C379.5 476 388.75 467.5 388.75 453.5C388.75 449 387.75 444.5 385.75 438.75L228.75 25C222.5 8.5 211.5 0 194.25 0C177.25 0 166 8.25 160.25 24.75L3 439C1 444.75 0 449.25 0 453.75C0 467.75 8.75 476 23.25 476ZM109.25 289.75L193.25 62L195 62L278.75 289.75Z" fill="black" fill-opacity="0.85"/>
 </g>
</svg>
