<?xml version="1.0" encoding="UTF-8"?>
<!--Generator: Apple Native CoreSVG 326-->
<!DOCTYPE svg
PUBLIC "-//W3C//DTD SVG 1.1//EN"
       "http://www.w3.org/Graphics/SVG/1.1/DTD/svg11.dtd">
<svg version="1.1" xmlns="http://www.w3.org/2000/svg" xmlns:xlink="http://www.w3.org/1999/xlink" viewBox="0 0 567 631.25">
 <g>
  <rect height="631.25" opacity="0" width="567" x="0" y="0"/>
  <path d="M23.25 553.25C37.25 553.25 44.5 547.75 49.75 532.75L95.75 408.5L292.5 408.5L338.5 532.75C343.75 547.75 351 553.25 365 553.25C379.5 553.25 388.75 544.75 388.75 530.75C388.75 526.25 387.75 521.75 385.75 516L228.75 102.25C222.5 85.75 211.5 77.25 194.25 77.25C177.25 77.25 166 85.5 160.25 102L3 516.25C1 522 0 526.5 0 531C0 545 8.75 553.25 23.25 553.25ZM109.25 367L193.25 139.25L195 139.25L278.75 367Z" fill="black" fill-opacity="0.85"/>
  <path d="M546.75 631.25C559 631.25 567 623.25 567 611.5L567 388.75C567 375.25 558.5 366.75 545 366.75C532.75 366.75 526.75 371.25 518.25 377L463.75 413.75C456 419.25 452.75 424 452.75 430.25C452.75 439.25 459.5 446.5 468.5 446.5C473.75 446.5 477.5 444.75 482.75 441L525.75 412.75L526.5 412.75L526.5 611.5C526.5 623.25 534.75 631.25 546.75 631.25Z" fill="black" fill-opacity="0.85"/>
 </g>
</svg>
