<?xml version="1.0" encoding="UTF-8"?>
<!--Generator: Apple Native CoreSVG 326-->
<!DOCTYPE svg
PUBLIC "-//W3C//DTD SVG 1.1//EN"
       "http://www.w3.org/Graphics/SVG/1.1/DTD/svg11.dtd">
<svg version="1.1" xmlns="http://www.w3.org/2000/svg" xmlns:xlink="http://www.w3.org/1999/xlink" viewBox="0 0 643 551.75">
 <g>
  <rect height="551.75" opacity="0" width="643" x="0" y="0"/>
  <path d="M22.25 44.5L620.5 44.5C633 44.5 643 35 643 22.5C643 10 633 0.25 620.5 0.25L22.25 0.25C9.5 0.25 0 10 0 22.5C0 35 9.5 44.5 22.25 44.5ZM378.75 382.25L620.5 382.25C633 382.25 643 372.5 643 360C643 347.5 633 338 620.5 338L378.75 338C366.25 338 356.5 347.5 356.5 360C356.5 372.5 366.25 382.25 378.75 382.25ZM22.25 551.75L620.5 551.75C633 551.75 643 542 643 529.5C643 517 633 507.5 620.5 507.5L22.25 507.5C9.5 507.5 0 517 0 529.5C0 542 9.5 551.75 22.25 551.75Z" fill="black" fill-opacity="0.85"/>
  <path d="M36.5 239.5L606.25 239.5C630.5 239.5 643 227.25 643 203L643 179.25C643 155.5 630.5 143.25 606.25 143.25L36.5 143.25C12.5 143.25 0 155.5 0 179.25L0 203C0 227.25 12.5 239.5 36.5 239.5ZM36.5 408.25L280 408.25C304.25 408.25 316.75 396 316.75 371.75L316.75 348C316.75 324.25 304.25 312 280 312L36.5 312C12.5 312 0 324.25 0 348L0 371.75C0 396 12.5 408.25 36.5 408.25Z" fill="black" fill-opacity="0.85"/>
 </g>
</svg>
