<?xml version="1.0" encoding="UTF-8"?>
<!--Generator: Apple Native CoreSVG 326-->
<!DOCTYPE svg
PUBLIC "-//W3C//DTD SVG 1.1//EN"
       "http://www.w3.org/Graphics/SVG/1.1/DTD/svg11.dtd">
<svg version="1.1" xmlns="http://www.w3.org/2000/svg" xmlns:xlink="http://www.w3.org/1999/xlink" viewBox="0 0 521.5 648.75">
 <g>
  <rect height="648.75" opacity="0" width="521.5" x="0" y="0"/>
  <path d="M286.5 16.25C329.25 30.75 437 70.75 479.75 87.75C508.25 99.5 521.5 110.5 521.5 144.25L521.5 387.5C521.5 499.25 463.75 543.75 282 642.25C274.25 646.25 266.5 648.75 260.75 648.75C255 648.75 247 646.5 239.5 642.25C60.75 538.75 0 499.25 0 387.5L0 144.25C0 110.5 13.25 99 41.75 87.75C84.5 71 192.25 30.75 235 16.25C243.5 13.75 252 11.5 260.75 11.5C269.5 11.5 278 13.5 286.5 16.25ZM368.5 188.5L224 418.5L152 328.5C145.5 319.75 139.25 317 131.25 317C118.75 317 109.25 327 109.25 339.5C109.25 345.75 111.75 352.25 115.75 357.75L201 460.5C208.25 470 215.75 473.75 225.25 473.75C234.5 473.75 242.25 469.5 248.25 460.5L404.75 215C408 209.5 411.5 203 411.5 197C411.5 184.5 400.25 176 388.25 176C380.75 176 373.75 180.25 368.5 188.5Z" fill="black" fill-opacity="0.85"/>
 </g>
</svg>
