<?xml version="1.0" encoding="UTF-8"?>
<!--Generator: Apple Native CoreSVG 326-->
<!DOCTYPE svg
PUBLIC "-//W3C//DTD SVG 1.1//EN"
       "http://www.w3.org/Graphics/SVG/1.1/DTD/svg11.dtd">
<svg version="1.1" xmlns="http://www.w3.org/2000/svg" xmlns:xlink="http://www.w3.org/1999/xlink" viewBox="0 0 725.313 725.813">
 <g>
  <rect height="725.813" opacity="0" width="725.313" x="0" y="0"/>
  <path d="M417.781 28.7813L469.781 80.2813C475.031 85.2813 480.031 87.2813 486.781 87.2813L559.781 87.2813C614.031 87.2813 638.281 111.781 638.281 165.531L638.281 238.531C638.281 245.531 640.031 250.531 645.031 255.531L696.531 307.531C734.781 345.531 735.031 379.781 696.531 418.031L645.031 469.781C640.031 475.031 638.281 480.031 638.281 487.031L638.281 559.781C638.281 614.031 613.781 638.281 559.781 638.281L486.781 638.281C480.031 638.281 475.031 640.031 469.781 645.281L417.781 696.531C379.781 734.781 345.531 735.031 307.531 696.531L255.531 645.281C250.531 640.031 245.531 638.281 238.531 638.281L165.531 638.281C111.531 638.281 87.2813 613.781 87.2813 559.781L87.2813 487.031C87.2813 480.031 85.2813 475.031 80.2813 469.781L28.7813 418.031C-9.46867 379.781-9.71867 345.531 28.7813 307.531L80.2813 255.531C85.2813 250.531 87.2813 245.531 87.2813 238.531L87.2813 165.531C87.2813 111.281 111.531 87.2813 165.531 87.2813L238.531 87.2813C245.531 87.2813 250.531 85.2813 255.531 80.2813L307.281 28.7813C345.531-9.46867 379.781-9.71867 417.781 28.7813ZM470.531 234.031L326.031 463.781L254.031 374.031C247.531 365.031 241.281 362.281 233.281 362.281C220.781 362.281 211.281 372.531 211.281 385.031C211.281 391.281 213.781 397.531 217.781 403.031L303.031 506.031C310.281 515.531 317.781 519.281 327.281 519.281C336.531 519.281 344.281 514.781 350.031 506.031L506.781 260.531C510.031 255.031 513.531 248.531 513.531 242.531C513.531 229.781 502.281 221.531 490.281 221.531C482.781 221.531 475.781 225.781 470.531 234.031Z" fill="black" fill-opacity="0.85"/>
 </g>
</svg>
