<?xml version="1.0" encoding="UTF-8"?>
<!--Generator: Apple Native CoreSVG 326-->
<!DOCTYPE svg
PUBLIC "-//W3C//DTD SVG 1.1//EN"
       "http://www.w3.org/Graphics/SVG/1.1/DTD/svg11.dtd">
<svg version="1.1" xmlns="http://www.w3.org/2000/svg" xmlns:xlink="http://www.w3.org/1999/xlink" viewBox="0 0 587.75 587.75">
 <g>
  <rect height="587.75" opacity="0" width="587.75" x="0" y="0"/>
  <path d="M587.75 96.5L587.75 491.5C587.75 555 555 587.75 490.25 587.75L97.25 587.75C32.75 587.75 0 555.5 0 491.5L0 96.5C0 32.5 32.75 0 97.25 0L490.25 0C555 0 587.75 32.75 587.75 96.5ZM401.75 165.25L257.25 395L185.25 305C178.5 296.25 172.25 293.5 164.5 293.5C152 293.5 142.25 303.75 142.25 316.25C142.25 322.5 144.75 328.75 149 334.25L234.25 437.25C241.5 446.5 248.75 450.5 258.25 450.5C267.75 450.5 275.5 446 281.25 437.25L437.75 191.5C441.25 186.25 444.5 179.75 444.5 173.75C444.5 161 433.25 152.5 421.5 152.5C414 152.5 406.75 157 401.75 165.25Z" fill="black" fill-opacity="0.85"/>
 </g>
</svg>
