<?xml version="1.0" encoding="UTF-8"?>
<!--Generator: Apple Native CoreSVG 326-->
<!DOCTYPE svg
PUBLIC "-//W3C//DTD SVG 1.1//EN"
       "http://www.w3.org/Graphics/SVG/1.1/DTD/svg11.dtd">
<svg version="1.1" xmlns="http://www.w3.org/2000/svg" xmlns:xlink="http://www.w3.org/1999/xlink" viewBox="0 0 724.25 665.25">
 <g>
  <rect height="665.25" opacity="0" width="724.25" x="0" y="0"/>
  <path d="M137.75 665C179.25 665 263.5 625.25 328 581C547.25 591.5 724.25 464.5 724.25 291.25C724.25 130.25 563.5 0 362.25 0C160.75 0 0 130.25 0 291.25C0 396.5 67.5 489.75 169.5 537.5C155 565.5 129 600.5 114.75 618.75C98.25 640 107.25 665 137.75 665ZM165.25 619.25C162.75 620 161.75 618.5 163.5 616.25C180.75 595.25 206.75 562.5 218.25 539.75C226 525.5 223.75 512.75 206.5 504.75C105.25 457.75 45.5 380.25 45.5 291.25C45.5 155.5 186 45.5 362.25 45.5C538.25 45.5 678.75 155.5 678.75 291.25C678.75 426.75 538.25 537 362.25 537C353.25 537 341.75 536.5 327.75 535.75C316 535.75 306.5 539.25 296 547.25C252.5 576.5 194 610 165.25 619.25Z" fill="black" fill-opacity="0.85"/>
  <path d="M327.25 447C336.25 447 343.75 442.5 349.25 434.25L502.75 194C505.75 188.75 509.25 182.5 509.25 176.5C509.25 164.25 498.25 156.25 486.75 156.25C479.5 156.25 472.5 160.5 467.5 168.5L326 393.25L255.5 305C249.25 296.5 243 294 235.25 294C223.25 294 214 303.75 214 316C214 322 216.5 328 220.25 333.25L303.75 434.25C310.75 443.25 318 447 327.25 447Z" fill="black" fill-opacity="0.85"/>
 </g>
</svg>
