<?xml version="1.0" encoding="UTF-8"?>
<!--Generator: Apple Native CoreSVG 326-->
<!DOCTYPE svg
PUBLIC "-//W3C//DTD SVG 1.1//EN"
       "http://www.w3.org/Graphics/SVG/1.1/DTD/svg11.dtd">
<svg version="1.1" xmlns="http://www.w3.org/2000/svg" xmlns:xlink="http://www.w3.org/1999/xlink" viewBox="0 0 724.25 662.75">
 <g>
  <rect height="662.75" opacity="0" width="724.25" x="0" y="0"/>
  <path d="M724.25 291.25C724.25 451.25 570 582.5 345.75 582.5C338.75 582.5 332 582 325 581.25C320.5 581.25 316 582.5 310.5 586.5C254.5 624 165.5 662.5 128.25 662.5C104.25 662.5 98.25 643.5 110.75 627.5C123.25 611.75 152.25 578.75 168.75 551C171.5 545.75 170 541 164.75 538.25C63.25 484.75 0 394 0 291.25C0 130.25 160.75 0 362.25 0C563.5 0 724.25 130.25 724.25 291.25ZM469.75 165.25L325.25 395L253.25 305.25C246.75 296.25 240.5 293.5 232.5 293.5C220 293.5 210.5 303.75 210.5 316.25C210.5 322.5 213 328.75 217 334.25L302.25 437.25C309.5 446.75 317 450.5 326.5 450.5C335.75 450.5 343.5 446 349.25 437.25L506 191.75C509.25 186.25 512.75 179.75 512.75 173.75C512.75 161 501.5 152.5 489.5 152.5C482 152.5 475 157 469.75 165.25Z" fill="black" fill-opacity="0.85"/>
 </g>
</svg>
