<?xml version="1.0" encoding="UTF-8"?>
<!--Generator: Apple Native CoreSVG 326-->
<!DOCTYPE svg
PUBLIC "-//W3C//DTD SVG 1.1//EN"
       "http://www.w3.org/Graphics/SVG/1.1/DTD/svg11.dtd">
<svg version="1.1" xmlns="http://www.w3.org/2000/svg" xmlns:xlink="http://www.w3.org/1999/xlink" viewBox="0 0 723.251 723.564">
 <g>
  <rect height="723.564" opacity="0" width="723.251" x="0" y="0"/>
  <path d="M34.8753 430.407L293.125 688.657C338.875 734.407 384.875 734.657 430.125 689.407L689.375 429.907C734.625 384.657 734.625 338.657 688.875 292.907L430.625 34.6568C384.875-11.3432 339.125-11.5932 293.625 34.1568L33.8753 293.407C-11.6247 338.907-11.1247 384.657 34.8753 430.407ZM66.6253 399.907C41.6253 375.157 41.3753 348.657 66.8753 323.407L323.375 66.9068C348.625 41.4068 374.875 41.6568 399.875 66.6568L656.625 323.407C681.375 348.157 682.125 374.907 656.625 400.157L400.125 656.407C374.625 681.907 348.125 681.407 323.625 656.907Z" fill="black" fill-opacity="0.85"/>
  <path d="M326.875 514.657C336.125 514.657 343.625 510.407 349.125 501.907L502.375 261.657C505.625 256.657 508.875 250.407 508.875 244.407C508.875 232.157 497.875 223.907 486.375 223.907C479.375 223.907 472.375 228.407 467.375 236.407L325.875 461.157L255.375 372.907C248.875 364.407 242.625 361.907 235.125 361.907C223.125 361.907 213.625 371.657 213.625 383.907C213.625 389.907 216.125 395.907 220.125 401.157L303.625 501.907C310.625 510.907 317.625 514.657 326.875 514.657Z" fill="black" fill-opacity="0.85"/>
 </g>
</svg>
