<?xml version="1.0" encoding="UTF-8"?>
<!--Generator: Apple Native CoreSVG 326-->
<!DOCTYPE svg
PUBLIC "-//W3C//DTD SVG 1.1//EN"
       "http://www.w3.org/Graphics/SVG/1.1/DTD/svg11.dtd">
<svg version="1.1" xmlns="http://www.w3.org/2000/svg" xmlns:xlink="http://www.w3.org/1999/xlink" viewBox="0 0 704.25 701.25">
 <g>
  <rect height="701.25" opacity="0" width="704.25" x="0" y="0"/>
  <path d="M704.25 183L704.25 438C704.25 527 653.75 578.5 563.25 578.5L333.5 578.5L216.75 683.75C204 695.5 195.75 701.25 184.75 701.25C168.75 701.25 159.5 689.75 159.5 672.25L159.5 578.5L141 578.5C50.25 578.5 0 527.5 0 438L0 183C0 93.5 50.25 42 141 42L563.25 42C653.75 42 704.25 93.75 704.25 183ZM319.5 442.5C319.5 459.75 334.75 474 352.25 474C369.75 474 385 460 385 442.5C385 424.75 370 410.75 352.25 410.75C334.5 410.75 319.5 425 319.5 442.5ZM325.75 170.25L329.5 346.25C329.75 361.25 338 369.75 352.25 369.75C366 369.75 374.25 361.5 374.5 346.25L378.5 170.5C378.75 155.5 367.5 144.5 352 144.5C336.25 144.5 325.5 155.25 325.75 170.25Z" fill="black" fill-opacity="0.85"/>
 </g>
</svg>
