<?xml version="1.0" encoding="UTF-8"?>
<!--Generator: Apple Native CoreSVG 326-->
<!DOCTYPE svg
PUBLIC "-//W3C//DTD SVG 1.1//EN"
       "http://www.w3.org/Graphics/SVG/1.1/DTD/svg11.dtd">
<svg version="1.1" xmlns="http://www.w3.org/2000/svg" xmlns:xlink="http://www.w3.org/1999/xlink" viewBox="0 0 651.25 651.75">
 <g>
  <rect height="651.75" opacity="0" width="651.25" x="0" y="0"/>
  <path d="M651.25 325.75C651.25 505.5 505.25 651.25 325.5 651.25C145.75 651.25 0 505.5 0 325.75C0 146 145.75 0 325.5 0C505.25 0 651.25 146 651.25 325.75ZM46.5 325.75C46.5 480 171.25 604.75 325.5 604.75C479.75 604.75 604.5 480 604.5 325.75C604.5 171.5 479.75 46.75 325.5 46.75C171.25 46.75 46.5 171.5 46.5 325.75Z" fill="black" fill-opacity="0.85"/>
  <path d="M241.647 290.647C237.142 301.407 234.688 313.262 234.75 325.75C234.75 374.75 275 416 325.25 416C337.526 416 349.255 413.488 359.949 408.949L401.624 450.624C378.336 458.692 352.661 463.5 325.25 463.5C198 463.5 106.75 358.25 106.75 325.75C106.75 307.355 135.581 265.655 183.943 232.943ZM543.75 325.75C543.75 344.06 515.104 385.461 467.147 418.118L408.874 359.798C413.314 349.248 415.75 337.731 415.75 325.75C415.75 275.5 375 235.5 325.25 235.5C313.195 235.5 301.701 237.802 291.223 242.049L249.75 200.542C272.795 192.675 298.167 188 325.25 188C453 188 543.75 293.25 543.75 325.75Z" fill="black" fill-opacity="0.85"/>
  <path d="M468 486.25C473 491.5 481.5 491.5 486.75 486.25C492 481 492 473 486.75 467.5L184 164.75C178.75 159.5 170.25 159.5 165 164.75C159.75 170 160 178.5 165 183.5Z" fill="black" fill-opacity="0.85"/>
 </g>
</svg>
