<?xml version="1.0" encoding="UTF-8"?>
<!--Generator: Apple Native CoreSVG 326-->
<!DOCTYPE svg
PUBLIC "-//W3C//DTD SVG 1.1//EN"
       "http://www.w3.org/Graphics/SVG/1.1/DTD/svg11.dtd">
<svg version="1.1" xmlns="http://www.w3.org/2000/svg" xmlns:xlink="http://www.w3.org/1999/xlink" viewBox="0 0 651.25 651.75">
 <g>
  <rect height="651.75" opacity="0" width="651.25" x="0" y="0"/>
  <path d="M651.25 326C651.25 505.5 505 651.75 325.5 651.75C146.25 651.75 0 505.5 0 326C0 146.75 146.25 0.5 325.5 0.5C505 0.5 651.25 146.75 651.25 326ZM160.75 161.25C155.5 166.75 155.75 175.5 160.75 180.5L471.25 490.75C476.25 496 485.25 496 490.5 490.75C495.75 485 495.75 476.75 490.5 471.5L180.25 161.25C175 155.75 166.5 155.75 160.75 161.25ZM107 326.25C107 358.75 198.25 464 325.5 464C352.473 464 377.766 459.344 400.758 451.508L359.105 409.855C348.721 414.153 337.367 416.5 325.5 416.5C275.25 416.5 235 375.25 235 326.25C234.94 314.178 237.232 302.698 241.498 292.248L183.227 233.977C135.461 266.568 107 307.833 107 326.25ZM250.91 200.704L292.39 242.217C302.61 238.172 313.79 236 325.5 236C375.25 236 416 276 416 326.25C416 337.892 413.7 349.096 409.463 359.385L468.133 418.102C515.653 385.529 544 344.464 544 326.25C544 293.5 453.25 188.5 325.5 188.5C298.774 188.5 273.714 193.042 250.91 200.704Z" fill="black" fill-opacity="0.85"/>
 </g>
</svg>
