<?xml version="1.0" encoding="UTF-8"?>
<!--Generator: Apple Native CoreSVG 326-->
<!DOCTYPE svg
PUBLIC "-//W3C//DTD SVG 1.1//EN"
       "http://www.w3.org/Graphics/SVG/1.1/DTD/svg11.dtd">
<svg version="1.1" xmlns="http://www.w3.org/2000/svg" xmlns:xlink="http://www.w3.org/1999/xlink" viewBox="0 0 866.25 669.438">
 <g>
  <rect height="669.438" opacity="0" width="866.25" x="0" y="0"/>
  <path d="M275.15 249.531C261.49 274.845 253.75 303.818 253.75 334.594C253.75 433.594 334.25 514.094 433.25 514.094C464.082 514.094 493.121 506.286 518.484 492.53L602.151 576.082C551.25 595.322 494.458 607.344 433.25 607.344C181 607.344 0 399.094 0 334.594C0 296.164 63.4447 207.747 167.367 141.898ZM866.25 334.594C866.25 371.877 806.694 457.189 707.144 522.505L595.491 410.904C606.623 387.811 612.75 361.906 612.75 334.594C612.75 235.344 532.25 154.844 433.25 154.844C405.843 154.844 379.854 161.013 356.701 172.224L274.119 89.6794C322.646 72.2978 376.14 61.5939 433.25 61.5939C687.25 61.5939 866.25 269.594 866.25 334.594ZM455.981 430.113C448.718 431.932 441.095 432.844 433.25 432.844C378.75 432.844 335 388.844 335 334.594C335 326.796 335.896 319.212 337.684 311.979ZM531.5 334.594C531.5 338.528 531.27 342.408 530.758 346.2L421.381 236.873C425.254 236.334 429.222 236.094 433.25 236.094C487.75 236.094 531.5 280.094 531.5 334.594Z" fill="black" fill-opacity="0.85"/>
  <path d="M689.75 614.594C698.25 622.844 711.25 623.344 720 614.594C729 605.344 728.25 592.844 720 584.344L176.5 41.0939C168.25 32.8439 154.5 32.5939 146 41.0939C138 49.0939 138 63.0939 146 71.3439Z" fill="black" fill-opacity="0.85"/>
 </g>
</svg>
