<?xml version="1.0" encoding="UTF-8"?>
<!--Generator: Apple Native CoreSVG 326-->
<!DOCTYPE svg
PUBLIC "-//W3C//DTD SVG 1.1//EN"
       "http://www.w3.org/Graphics/SVG/1.1/DTD/svg11.dtd">
<svg version="1.1" xmlns="http://www.w3.org/2000/svg" xmlns:xlink="http://www.w3.org/1999/xlink" viewBox="0 0 521.5 648.75">
 <g>
  <rect height="648.75" opacity="0" width="521.5" x="0" y="0"/>
  <path d="M286.5 16.25C329.25 30.75 437 70.75 479.75 87.75C508.25 99.5 521.5 110.5 521.5 144.25L521.5 387.5C521.5 499.25 463.75 543.75 282 642.25C274.25 646.25 266.5 648.75 260.75 648.75C255 648.75 247 646.5 239.5 642.25C60.75 538.75 0 499.25 0 387.5L0 144.25C0 110.5 13.25 99 41.75 87.75C84.5 71 192.25 30.75 235 16.25C243.5 13.75 252 11.5 260.75 11.5C269.5 11.5 278 13.5 286.5 16.25ZM201.75 336.25L120 391.75C110.75 398.25 110.75 409.75 119.25 415.5L201.25 471.25C211 477.75 224.25 473.5 224.25 460L224.25 422.5L389.75 422.5C400.25 422.5 408.75 414 408.75 403.75C408.75 393.25 400.25 384.75 389.75 384.75L224.25 384.75L224.25 346.5C224.25 333.5 211.25 330 201.75 336.25ZM297.25 177.75L297.25 216L131.75 216C121.25 216 112.75 224.5 112.75 235C112.75 245.25 121.25 253.75 131.75 253.75L297.25 253.75L297.25 291.25C297.25 304.75 310.5 309 320.25 302.5L402.25 246.75C410.75 241 410.75 229.5 401.5 223L319.5 167.5C310.25 161.25 297.25 164.75 297.25 177.75Z" fill="black" fill-opacity="0.85"/>
 </g>
</svg>
