<?xml version="1.0" encoding="UTF-8"?>
<!--Generator: Apple Native CoreSVG 326-->
<!DOCTYPE svg
PUBLIC "-//W3C//DTD SVG 1.1//EN"
       "http://www.w3.org/Graphics/SVG/1.1/DTD/svg11.dtd">
<svg version="1.1" xmlns="http://www.w3.org/2000/svg" xmlns:xlink="http://www.w3.org/1999/xlink" viewBox="0 0 736.625 742.938">
 <g>
  <rect height="742.938" opacity="0" width="736.625" x="0" y="0"/>
  <path d="M175.063 314.455L175.062 462.094C175.062 592.844 246.812 664.344 359.062 664.344C407.589 664.344 449.863 651.693 484.38 623.502L511.047 650.145C470.926 685.111 420.385 702.844 360.312 702.844C228.812 702.844 138.062 616.094 138.062 466.094L138.063 277.487ZM424.562 64.5939C433.562 55.5939 445.562 50.8439 458.812 50.8439C492.562 50.8439 515.312 73.5939 515.312 110.094L515.312 378.844C515.312 380.594 516.062 381.844 517.812 381.844C519.062 381.844 520.062 381.094 520.562 379.344L545.812 317.344C556.312 292.094 575.812 279.094 597.312 279.094C628.812 279.094 653.312 302.094 653.312 334.594C653.312 343.844 651.562 353.594 648.062 364.094L590.062 526.844C586.202 537.767 582.01 548.194 577.385 557.956L549.883 530.466C552.059 525.407 554.103 520.084 556.062 514.594L615.312 347.844C621.562 331.094 617.312 317.844 603.812 313.094C591.062 308.344 578.312 313.844 571.812 329.344L526.562 432.344C520.062 447.094 511.062 452.094 500.062 452.094C487.312 452.094 478.062 443.344 478.062 428.344L478.062 112.844C478.062 97.3439 468.562 86.8439 454.062 86.8439C439.312 86.8439 429.062 97.3439 429.062 112.844L429.062 341.594C429.062 351.594 421.062 359.344 411.062 359.344C401.062 359.344 393.312 351.594 393.312 341.594L393.312 73.8439C393.312 58.3439 383.562 47.0939 369.312 47.0939C354.562 47.0939 344.312 58.3439 344.312 73.8439L344.312 324.985L308.813 289.501L308.812 112.844C308.812 97.3439 298.312 86.8439 283.562 86.8439C268.812 86.8439 259.812 97.3439 259.812 112.844L259.813 240.522L224.063 204.788L224.062 194.844C224.062 179.344 213.562 168.594 199.062 168.594C195.578 168.594 192.401 169.194 189.593 170.333L160.973 141.726C169.587 135.679 180.258 132.344 192.312 132.344C205.812 132.344 219.062 137.094 227.562 146.594L227.562 108.344C227.562 73.3439 249.312 50.8439 281.062 50.8439C293.312 50.8439 304.812 55.3439 313.312 64.0939C317.062 32.8439 338.562 11.3439 369.312 11.3439C400.812 11.3439 421.062 32.0939 424.562 64.5939ZM235.349 374.689C230.884 373.008 227.114 369.503 225.29 364.639Z" fill="black" fill-opacity="0.85"/>
  <path d="M612.062 702.094C620.312 710.094 634.312 710.344 642.312 702.094C650.562 693.594 650.562 680.344 642.312 671.844L71.3125 101.094C63.0625 92.8439 49.3125 92.5939 40.8125 101.094C32.8125 109.344 32.8125 123.094 40.8125 131.344Z" fill="black" fill-opacity="0.85"/>
 </g>
</svg>
