<?xml version="1.0" encoding="UTF-8"?>
<!--Generator: Apple Native CoreSVG 326-->
<!DOCTYPE svg
PUBLIC "-//W3C//DTD SVG 1.1//EN"
       "http://www.w3.org/Graphics/SVG/1.1/DTD/svg11.dtd">
<svg version="1.1" xmlns="http://www.w3.org/2000/svg" xmlns:xlink="http://www.w3.org/1999/xlink" viewBox="0 0 675 663.25">
 <g>
  <rect height="663.25" opacity="0" width="675" x="0" y="0"/>
  <path d="M518.75 97L518.75 144.5L474.25 144.5L474.25 99.5C474.25 63.5 454.75 45 420.5 45L98.25 45C63.25 45 44.25 63.5 44.25 99.5L44.25 420.75C44.25 456.75 63.25 475.25 98.25 475.25L156.5 475.25L156.5 519.5L97.25 519.5C32.5 519.5 0 487 0 423L0 97C0 33.25 32.5 0.75 97.25 0.75L421.25 0.75C485.75 0.75 518.75 33.5 518.75 97Z" fill="black" fill-opacity="0.85"/>
  <path d="M253.75 663.25L577.75 663.25C642.25 663.25 675 630.5 675 566.75L675 241C675 177.25 642.25 144.5 577.75 144.5L253.75 144.5C189 144.5 156.5 177 156.5 241L156.5 566.75C156.5 630.75 189 663.25 253.75 663.25ZM254.75 619C219.75 619 200.75 600.5 200.75 564.5L200.75 243.25C200.75 207.25 219.75 188.75 254.75 188.75L577 188.75C611.25 188.75 630.75 207.25 630.75 243.25L630.75 564.5C630.75 600.5 611.25 619 577 619Z" fill="black" fill-opacity="0.85"/>
  <path d="M295.25 457.5C295.25 532 343.25 575.5 410 575.5C461.5 575.5 497.75 553 520.5 500C532 474.75 541.25 445.5 551 412.5C554.5 400.75 559.5 386.5 559.5 380C559.5 371 552.5 364.75 543.5 364.75C533.75 364.75 527.5 370.75 520.75 384.75L498 435.25C495.5 441.25 492.5 443 489.25 443C485.5 443 482.75 440.5 482.75 434.25L482.75 261C482.75 251.5 475 243.5 465.25 243.5C455.5 243.5 447.75 251.5 447.75 261L447.75 383.75C443 382 438.25 380.5 432.75 379.25L432.75 235C432.75 225.5 424.75 217.25 415.25 217.25C405.5 217.25 397.75 225.5 397.75 235L397.75 377.5C392.25 377.75 386.5 378.5 381.25 379.5L381.25 250.5C381.25 240.75 373.25 233 363.25 233C353.75 233 345.5 240.75 345.5 250.5L345.5 390.75C339.75 393.25 335 396.5 330.75 399.25L330.75 302.75C330.75 293 322.5 285 313 285C303.25 285 295.25 293 295.25 302.75Z" fill="black" fill-opacity="0.85"/>
 </g>
</svg>
