<?xml version="1.0" encoding="UTF-8"?>
<!--Generator: Apple Native CoreSVG 326-->
<!DOCTYPE svg
PUBLIC "-//W3C//DTD SVG 1.1//EN"
       "http://www.w3.org/Graphics/SVG/1.1/DTD/svg11.dtd">
<svg version="1.1" xmlns="http://www.w3.org/2000/svg" xmlns:xlink="http://www.w3.org/1999/xlink" viewBox="0 0 687.5 826.808">
 <g>
  <rect height="826.808" opacity="0" width="687.5" x="0" y="0"/>
  <path d="M591 445.279C601.25 452.279 613.75 449.779 621.25 439.279C662.5 383.529 687.5 304.779 687.5 224.529C687.5 144.529 662.75 65.2789 621.25 9.77888C613.75-0.721121 601.25-2.97112 591 4.02888C580.75 10.7789 579.25 23.7789 587.25 35.0289C624 86.0289 644.75 153.779 644.75 224.529C644.75 295.279 623.5 362.779 587.25 414.029C579.5 425.529 580.75 438.279 591 445.279Z" fill="black" fill-opacity="0.85"/>
  <path d="M475.5 361.029C485 367.279 497.75 365.279 505.25 354.779C530 322.279 545.25 275.029 545.25 224.529C545.25 174.279 530 127.279 505.25 94.5289C497.75 84.0289 485 81.7789 475.5 88.5289C464.5 96.2789 462.5 109.779 471.25 121.029C491.75 149.279 502.5 185.029 502.5 224.529C502.5 264.279 491.5 299.779 471.25 328.029C462.75 339.779 464.5 353.029 475.5 361.029Z" fill="black" fill-opacity="0.85"/>
  <path d="M203.25 21.0289C90.25 21.0289 0 111.279 0 223.779C0 309.279 51.25 384.529 131.25 414.279L131.25 731.779C131.25 739.279 133.75 745.279 139.5 751.279L192.5 804.529C197.75 809.779 207.75 811.279 214 804.779L315.25 703.529C321.5 697.029 321.25 688.529 315.25 682.529L251.5 619.279L339 532.029C344.5 526.279 344.5 517.529 338 511.279L251 423.529C350.75 384.529 406.5 311.529 406.5 223.779C406.5 111.529 315.75 21.0289 203.25 21.0289ZM203.25 206.529C174 206.529 150.75 183.029 150.75 153.779C150.75 124.779 173.75 101.529 203.25 101.529C232.25 101.529 256 124.779 256 153.779C256 183.029 232.25 206.529 203.25 206.529Z" fill="black" fill-opacity="0.85"/>
 </g>
</svg>
