<?xml version="1.0" encoding="UTF-8"?>
<!--Generator: Apple Native CoreSVG 326-->
<!DOCTYPE svg
PUBLIC "-//W3C//DTD SVG 1.1//EN"
       "http://www.w3.org/Graphics/SVG/1.1/DTD/svg11.dtd">
<svg version="1.1" xmlns="http://www.w3.org/2000/svg" xmlns:xlink="http://www.w3.org/1999/xlink" viewBox="0 0 798.75 597.75">
 <g>
  <rect height="597.75" opacity="0" width="798.75" x="0" y="0"/>
  <path d="M629.25 549.75C724.5 549.75 798.75 481 798.75 394.5C798.75 328.25 761.25 270.25 697.75 245.25C699.5 103.25 598 0 468.5 0C380.75 0 319.5 47.5 282.5 104.75C204.5 79.5 118.5 139.5 117.5 229C45.75 239 0 301.75 0 379.5C0 472.75 81 549.5 188.75 549.5ZM629 505.5L188.5 505.25C105.75 505.25 44.25 448 44.25 379.5C44.25 314.5 83.5 263.5 152 263.5C156 263.5 157.75 261.25 157.75 257.25C157.75 160.75 229.5 127 296.5 150.5C300.25 151.75 302.5 151 304.5 147.5C336 91.5 384.5 44.25 468.5 44.25C574 44.25 648.75 128 654.75 226.75C655.75 240.5 654.75 256.75 653.75 271.25C653.5 275 655 277.5 658.5 278.25C717 292 754.5 336 754.5 394.5C754.5 456.75 699.75 505.5 629 505.5Z" fill="black" fill-opacity="0.85"/>
  <path d="M572.75 312.75C572.75 260 530.5 217.75 478 217.75C438 217.75 403 241.75 389 279L241 279C237.75 279 235 280.25 232 283.25L207.25 307.75C204.5 310.5 204.25 314.75 207.25 317.75L254 365C257 368 261.25 368 264 365L293.5 335L334.25 376C336.75 378.75 340.75 378.25 343.75 375.5L384.75 335C403.25 381.5 437 407.5 478 407.5C530.25 407.5 572.75 365.25 572.75 312.75ZM527 312.5C527 328.5 513.75 341.5 497.75 341.5C481.5 341.5 468.5 328.5 468.5 312.5C468.5 296.5 481.5 283.5 497.75 283.5C513.75 283.5 527 296.25 527 312.5Z" fill="black" fill-opacity="0.85"/>
 </g>
</svg>
