<?xml version="1.0" encoding="UTF-8"?>
<!--Generator: Apple Native CoreSVG 326-->
<!DOCTYPE svg
PUBLIC "-//W3C//DTD SVG 1.1//EN"
       "http://www.w3.org/Graphics/SVG/1.1/DTD/svg11.dtd">
<svg version="1.1" xmlns="http://www.w3.org/2000/svg" xmlns:xlink="http://www.w3.org/1999/xlink" viewBox="0 0 1014.12 826.808">
 <g>
  <rect height="826.808" opacity="0" width="1014.12" x="0" y="0"/>
  <path d="M792.062 9.77888C833.812 65.2789 858.312 144.529 858.312 224.529C858.312 304.779 833.562 383.529 792.062 439.279C784.812 449.779 772.062 452.279 761.812 445.279C751.812 438.279 750.312 425.529 758.062 414.029C794.312 362.779 815.562 295.279 815.562 224.529C815.562 153.779 794.812 86.0289 758.062 35.0289C750.062 23.7789 751.812 10.7789 761.812 4.02888C772.062-2.97112 784.812-0.721121 792.062 9.77888Z" fill="black" fill-opacity="0.85"/>
  <path d="M676.062 94.5289C700.812 127.279 716.312 174.279 716.312 224.529C716.312 275.029 700.812 322.279 676.062 354.779C668.562 365.279 655.812 367.279 646.312 361.029C635.312 353.029 633.812 339.779 642.062 328.029C662.312 299.779 673.312 264.279 673.312 224.529C673.312 185.029 662.562 149.279 642.062 121.029C633.562 109.779 635.312 96.2789 646.312 88.5289C655.812 81.7789 668.562 84.0289 676.062 94.5289Z" fill="black" fill-opacity="0.85"/>
  <path d="M328.063 487.644L328.062 718.779L366.562 757.029L440.562 682.029L391.062 632.779L391.062 587.279L409.493 569.039L441.279 600.812L431.562 610.529L484.812 663.529C495.312 674.029 495.812 690.529 485.062 701.529L385.562 801.029C374.562 811.779 359.062 810.529 347.562 800.779L295.062 753.279C286.562 745.779 283.812 735.029 283.812 725.529L283.813 443.413ZM577.312 224.529C577.312 309.868 526.552 381.589 436.087 422.909L401.566 388.403C483.067 364.912 532.812 299.789 532.812 224.529C532.812 132.529 458.812 58.7789 366.562 58.7789C285.902 58.7789 219.119 115.048 203.38 190.303L167.618 154.557C196.133 72.5131 274.03 14.2789 366.562 14.2789C483.062 14.2789 577.312 108.029 577.312 224.529ZM417.812 161.529C417.812 189.779 394.812 212.779 366.562 212.779C338.062 212.779 315.312 189.779 315.312 161.529C315.312 133.029 337.812 110.279 366.562 110.279C394.812 110.279 417.812 133.029 417.812 161.529Z" fill="black" fill-opacity="0.85"/>
  <path d="M45.0625 148.779L621.812 725.029C630.312 733.529 643.812 733.529 652.062 725.029C660.312 716.529 660.312 703.279 652.062 695.029L75.5625 118.779C67.3125 110.529 53.5625 110.279 45.0625 118.779C37.0625 126.779 37.0625 140.779 45.0625 148.779Z" fill="black" fill-opacity="0.85"/>
 </g>
</svg>
