<?xml version="1.0" encoding="UTF-8"?>
<!--Generator: Apple Native CoreSVG 326-->
<!DOCTYPE svg
PUBLIC "-//W3C//DTD SVG 1.1//EN"
       "http://www.w3.org/Graphics/SVG/1.1/DTD/svg11.dtd">
<svg version="1.1" xmlns="http://www.w3.org/2000/svg" xmlns:xlink="http://www.w3.org/1999/xlink" viewBox="0 0 587.75 587.75">
 <g>
  <rect height="587.75" opacity="0" width="587.75" x="0" y="0"/>
  <path d="M587.75 96.5L587.75 491.5C587.75 555 555 587.75 490.25 587.75L97.25 587.75C32.75 587.75 0 555.5 0 491.5L0 96.5C0 32.5 32.75 0 97.25 0L490.25 0C555 0 587.75 32.75 587.75 96.5ZM205 214.5L205 255.5C184.5 256.5 174.25 268 174.25 292.25L174.25 425.5C174.25 450.75 185.5 462.25 208.75 462.25L379.25 462.25C402.5 462.25 413.75 450.75 413.75 425.5L413.75 292.25C413.75 268 403.5 256.5 383 255.5L383 214.5C383 155 347 115.5 294 115.5C241 115.5 205 155 205 214.5ZM352.25 211.5L352.25 255.25L236 255.25L236 211.5C236 171.75 259.25 145.25 294 145.25C328.75 145.25 352.25 171.75 352.25 211.5Z" fill="black" fill-opacity="0.85"/>
 </g>
</svg>
