<?xml version="1.0" encoding="UTF-8"?>
<!--Generator: Apple Native CoreSVG 326-->
<!DOCTYPE svg
PUBLIC "-//W3C//DTD SVG 1.1//EN"
       "http://www.w3.org/Graphics/SVG/1.1/DTD/svg11.dtd">
<svg version="1.1" xmlns="http://www.w3.org/2000/svg" xmlns:xlink="http://www.w3.org/1999/xlink" viewBox="0 0 757.5 587.75">
 <g>
  <rect height="587.75" opacity="0" width="757.5" x="0" y="0"/>
  <path d="M97.25 587.75L660 587.75C724.75 587.75 757.5 555 757.5 491.5L757.5 96.5C757.5 32.75 724.75 0 660 0L97.25 0C32.75 0 0 32.5 0 96.5L0 491.5C0 555.5 32.75 587.75 97.25 587.75ZM98.25 543.5C63.25 543.5 44.25 525 44.25 489L44.25 98.75C44.25 63 63.25 44.25 98.25 44.25L659.25 44.25C693.5 44.25 713 63 713 98.75L713 489C713 525 693.5 543.5 659.25 543.5Z" fill="black" fill-opacity="0.85"/>
  <path d="M262 421.75C262 446.5 273 457.75 295.75 457.75L462 457.75C484.75 457.75 495.75 446.5 495.75 421.75L495.75 291.5C495.75 268.25 485.75 256.75 465.5 255.75L465.5 215.5C465.5 157.75 430.75 119 379 119C327 119 292.25 157.75 292.25 215.5L292.25 255.75C272 256.75 262 268.25 262 291.5ZM322 255.5L322 212.75C322 173.75 344.75 148.25 379 148.25C413 148.25 435.75 173.75 435.75 212.75L435.75 255.5Z" fill="black" fill-opacity="0.85"/>
 </g>
</svg>
