<?xml version="1.0" encoding="UTF-8"?>
<!--Generator: Apple Native CoreSVG 326-->
<!DOCTYPE svg
PUBLIC "-//W3C//DTD SVG 1.1//EN"
       "http://www.w3.org/Graphics/SVG/1.1/DTD/svg11.dtd">
<svg version="1.1" xmlns="http://www.w3.org/2000/svg" xmlns:xlink="http://www.w3.org/1999/xlink" viewBox="0 0 913.5 514.75">
 <g>
  <rect height="514.75" opacity="0" width="913.5" x="0" y="0"/>
  <path d="M0 481.5C0 500 14.5 514.75 32.75 514.75L880.75 514.75C899 514.75 913.5 500 913.5 481.5C913.5 463 899 448.25 880.75 448.25L810 448.25L810 67.25C810 23.25 786.75 0.5 742.75 0.5L170.75 0.5C128.75 0.5 103.5 23.25 103.5 67.25L103.5 448.25L32.75 448.25C14.5 448.25 0 463 0 481.5ZM147.75 448.25L147.75 79C147.75 56 159.25 44.75 182 44.75L731.5 44.75C754.25 44.75 765.75 56 765.75 79L765.75 448.25Z" fill="black" fill-opacity="0.85"/>
  <path d="M342.25 330.5C342.25 348.75 350.75 357.75 368.25 357.75L477.5 357.75C494.75 357.75 503.25 348.75 503.25 330.5L503.25 246.5C503.25 228.25 494.75 219.25 477.5 219.25L368.25 219.25C350.75 219.25 342.25 228.25 342.25 246.5ZM454 235.25L483 235.25L483 192.25C483 167.25 496.5 151.25 519.25 151.25C542 151.25 555.5 167.25 555.5 192.25L555.5 213.5C555.5 221.5 562 228 570.25 228C578 228 584.5 221.5 584.5 213.5L584.5 192.25C584.5 152 558.75 123 519.25 123C479.75 123 454 152 454 194.5Z" fill="black" fill-opacity="0.85"/>
 </g>
</svg>
