<?xml version="1.0" encoding="UTF-8"?>
<!--Generator: Apple Native CoreSVG 326-->
<!DOCTYPE svg
PUBLIC "-//W3C//DTD SVG 1.1//EN"
       "http://www.w3.org/Graphics/SVG/1.1/DTD/svg11.dtd">
<svg version="1.1" xmlns="http://www.w3.org/2000/svg" xmlns:xlink="http://www.w3.org/1999/xlink" viewBox="0 0 664.438 725.126">
 <g>
  <rect height="725.126" opacity="0" width="664.438" x="0" y="0"/>
  <path d="M194.504 334.938L142.594 334.938C126.594 334.938 116.344 345.688 116.344 363.938L116.344 597.188C116.344 615.438 126.594 626.438 142.594 626.438L439.594 626.438C453.273 626.438 462.523 618.644 465.08 605.268L499.53 639.687C488.211 658.427 468.146 668.188 440.594 668.188L141.594 668.188C96.8439 668.188 71.5939 642.438 71.5939 594.438L71.5939 366.938C71.5939 323.63 92.1491 298.434 129.094 293.996L129.094 269.587ZM453.344 217.188L453.344 294.026C490.086 298.551 510.344 323.73 510.344 366.938L510.344 491.563L465.844 447.104L465.844 363.938C465.844 345.688 455.844 334.938 439.594 334.938L353.576 334.938L311.788 293.188L409.594 293.188L409.594 212.188C409.594 128.938 356.344 81.688 291.094 81.688C240.246 81.688 197.082 110.163 180.441 161.96L147.339 128.888C174.674 70.2143 230.154 39.938 291.094 39.938C377.344 39.938 453.344 100.938 453.344 217.188Z" fill="black" fill-opacity="0.85"/>
  <path d="M593.344 684.188C601.594 692.438 615.344 692.438 623.344 684.188C631.594 675.438 631.844 662.188 623.344 653.938L73.3439 103.938C65.0939 95.938 51.3439 95.438 42.8439 103.938C34.8439 112.188 34.8439 126.188 42.8439 134.188Z" fill="black" fill-opacity="0.85"/>
 </g>
</svg>
