<?xml version="1.0" encoding="UTF-8"?>
<!--Generator: Apple Native CoreSVG 326-->
<!DOCTYPE svg
PUBLIC "-//W3C//DTD SVG 1.1//EN"
       "http://www.w3.org/Graphics/SVG/1.1/DTD/svg11.dtd">
<svg version="1.1" xmlns="http://www.w3.org/2000/svg" xmlns:xlink="http://www.w3.org/1999/xlink" viewBox="0 0 536.75 689.25">
 <g>
  <rect height="689.25" opacity="0" width="536.75" x="0" y="0"/>
  <path d="M96.25 689.25L440.5 689.25C504.5 689.25 536.75 656.25 536.75 592L536.75 292.75C536.75 255.5 532.25 239.25 509 215.75L323.75 28C301.75 5.25 283.75 0.25 250.5 0.25L96.25 0.25C32.75 0.25 0 33 0 97.5L0 592C0 656.5 32.25 689.25 96.25 689.25ZM98.5 645C62.75 645 44.25 626 44.25 591L44.25 98.5C44.25 64.25 62.75 44.5 98.75 44.5L246.75 44.5L246.75 236C246.75 274.25 266 292.75 303.5 292.75L492.5 292.75L492.5 591C492.5 626 474 645 438 645ZM308.25 251C294.25 251 288.5 245.5 288.5 231.25L288.5 53.25L483.75 251Z" fill="black" fill-opacity="0.85"/>
  <path d="M200.5 602.75L337 602.75C355.75 602.75 365.25 593 365.25 572.75L365.25 466C365.25 447 357 437.25 340.5 436.25L340.5 403.75C340.5 356 311.5 324 268.75 324C226 324 197 356 197 403.75L197 436.25C180.5 437.25 172.25 447 172.25 466L172.25 572.75C172.25 593 181.75 602.75 200.5 602.75ZM222.75 436L222.75 401.25C222.75 369.75 241 349 268.75 349C296.5 349 314.75 369.75 314.75 401.25L314.75 436Z" fill="black" fill-opacity="0.85"/>
 </g>
</svg>
