<?xml version="1.0" encoding="UTF-8"?>
<!--Generator: Apple Native CoreSVG 326-->
<!DOCTYPE svg
PUBLIC "-//W3C//DTD SVG 1.1//EN"
       "http://www.w3.org/Graphics/SVG/1.1/DTD/svg11.dtd">
<svg version="1.1" xmlns="http://www.w3.org/2000/svg" xmlns:xlink="http://www.w3.org/1999/xlink" viewBox="0 0 536.75 689.25">
 <g>
  <rect height="689.25" opacity="0" width="536.75" x="0" y="0"/>
  <path d="M247.5 234.25C247.5 273.25 266 292 305 292L536.75 292L536.75 592C536.75 656.25 504.5 689.25 440.5 689.25L96.25 689.25C32.25 689.25 0 656.5 0 592L0 97.5C0 33 32.75 0.25 96.25 0.25L247.5 0.25ZM195 414L195 447.25C178.5 448.25 170 458 170 478L170 587C170 608 179.75 617.75 199 617.75L338.5 617.75C358 617.75 367.5 608 367.5 587L367.5 478C367.5 458 359 448.25 342.5 447.25L342.5 414C342.5 365.25 312.5 332.25 268.75 332.25C225 332.25 195 365.25 195 414ZM315.75 411.75L315.75 447L221.5 447L221.5 411.75C221.5 379.25 240.25 358 268.75 358C297 358 315.75 379.25 315.75 411.75ZM323.75 28L509 215.75C522.25 229 530.75 240.25 532.75 252L306.5 252C293.75 252 287.5 245.75 287.5 233L287.5 4C299 6 311 14.75 323.75 28Z" fill="black" fill-opacity="0.85"/>
 </g>
</svg>
