<?xml version="1.0" encoding="UTF-8"?>
<!--Generator: Apple Native CoreSVG 326-->
<!DOCTYPE svg
PUBLIC "-//W3C//DTD SVG 1.1//EN"
       "http://www.w3.org/Graphics/SVG/1.1/DTD/svg11.dtd">
<svg version="1.1" xmlns="http://www.w3.org/2000/svg" xmlns:xlink="http://www.w3.org/1999/xlink" viewBox="0 0 758.5 660.25">
 <g>
  <rect height="660.25" opacity="0" width="758.5" x="0" y="0"/>
  <path d="M66 548.5L692.5 548.5C733.5 548.5 758.5 523.5 758.5 482.5L758.5 87.25C758.5 46.25 733.5 21.25 692.5 21.25L66 21.25C25 21.25 0 46.25 0 87.25L0 482.5C0 523.5 25 548.5 66 548.5ZM59 411.5C49 411.5 44.25 407.25 44.25 396.5L44.25 88.25C44.25 74.25 53 65.5 67 65.5L691.5 65.5C705.5 65.5 714.25 74.25 714.25 88.25L714.25 396.5C714.25 407.25 709.5 411.5 699.5 411.5ZM279.25 628.25L479.25 628.25L479.25 544.5L279.25 544.5ZM276 660.25L482.5 660.25C494.75 660.25 504.75 650.5 504.75 638.25C504.75 625.75 494.75 615.75 482.5 615.75L276 615.75C263.75 615.75 253.75 625.75 253.75 638.25C253.75 650.5 263.75 660.25 276 660.25Z" fill="black" fill-opacity="0.85"/>
  <path d="M324.25 350L434.25 350C452 350 461.25 340.5 461.25 321.5L461.25 234.75C461.25 219.25 454.75 210 442.5 207L442.5 187.5C442.5 146 417 117.5 379.25 117.5C341.75 117.5 316.25 146 316.25 187.5L316.25 207.25C304 210 297.5 219.25 297.5 234.75L297.5 321.5C297.5 340.5 306.5 350 324.25 350ZM345 206.25L345 185.25C345 161.25 358.5 145.5 379.25 145.5C400 145.5 413.75 161.25 413.75 185.25L413.75 206.25Z" fill="black" fill-opacity="0.85"/>
 </g>
</svg>
