<?xml version="1.0" encoding="UTF-8"?>
<!--Generator: Apple Native CoreSVG 326-->
<!DOCTYPE svg
PUBLIC "-//W3C//DTD SVG 1.1//EN"
       "http://www.w3.org/Graphics/SVG/1.1/DTD/svg11.dtd">
<svg version="1.1" xmlns="http://www.w3.org/2000/svg" xmlns:xlink="http://www.w3.org/1999/xlink" viewBox="0 0 668.25 644.75">
 <g>
  <rect height="644.75" opacity="0" width="668.25" x="0" y="0"/>
  <path d="M70 628L368.75 628C413.5 628 438.75 602.25 438.75 554.25L438.75 326.75C438.75 278.75 413.5 253 368.75 253L70 253C25 253 0 278.75 0 326.75L0 554.25C0 602.25 25 628 70 628ZM344 274.25L387.75 274.25L387.75 172.25C387.75 89 440.75 41.75 506 41.75C571.5 41.75 624.5 89 624.5 172.25L624.5 243.5C624.5 259.5 634.25 267.75 646.5 267.75C658.25 267.75 668.25 260.25 668.25 243.5L668.25 177.25C668.25 61 592.5 0 506 0C419.75 0 344 61 344 177.25Z" fill="black" fill-opacity="0.85"/>
 </g>
</svg>
