<?xml version="1.0" encoding="UTF-8"?>
<!--Generator: Apple Native CoreSVG 326-->
<!DOCTYPE svg
PUBLIC "-//W3C//DTD SVG 1.1//EN"
       "http://www.w3.org/Graphics/SVG/1.1/DTD/svg11.dtd">
<svg version="1.1" xmlns="http://www.w3.org/2000/svg" xmlns:xlink="http://www.w3.org/1999/xlink" viewBox="0 0 438.75 645.75">
 <g>
  <rect height="645.75" opacity="0" width="438.75" x="0" y="0"/>
  <path d="M70 628.5L368.75 628.5C413.5 628.5 438.75 602.5 438.75 554.5L438.75 327C438.75 279.25 413.5 253.25 368.75 253.25L70 253.25C25 253.25 0 279.25 0 327L0 554.5C0 602.5 25 628.5 70 628.5ZM57.25 274.5L101.25 274.5L101.25 172.25C101.25 89 154 41.75 219.25 41.75C284.5 41.75 337.75 89 337.75 172.25L337.75 274.5L381.75 274.5L381.75 177.5C381.75 61 305.75 0 219.25 0C133 0 57.25 61 57.25 177.5Z" fill="black" fill-opacity="0.85"/>
 </g>
</svg>
