<?xml version="1.0" encoding="UTF-8"?>
<!--Generator: Apple Native CoreSVG 326-->
<!DOCTYPE svg
PUBLIC "-//W3C//DTD SVG 1.1//EN"
       "http://www.w3.org/Graphics/SVG/1.1/DTD/svg11.dtd">
<svg version="1.1" xmlns="http://www.w3.org/2000/svg" xmlns:xlink="http://www.w3.org/1999/xlink" viewBox="0 0 586.5 586.75">
 <g>
  <rect height="586.75" opacity="0" width="586.5" x="0" y="0"/>
  <path d="M550 37C581 67.75 586.5 110.75 586.5 168L586.5 418.25C586.5 475.75 581 518.5 550 549.5C519 580.5 475.5 586.5 418.25 586.5L168.25 586.5C111 586.5 67.75 580.5 36.5 549.5C5.5 518.75 0 475.75 0 418.25L0 166.5C0 111 5.75 68 36.75 37C67.75 6 111.25 0 166.5 0L418.25 0C475.5 0 518.75 6 550 37ZM116.25 293.25C116.25 390.75 195.25 469.75 293 469.75C390.5 469.75 469.75 390.75 469.75 293.25C469.75 195.5 390.5 116.5 293 116.5C195.25 116.5 116.25 195.5 116.25 293.25ZM371.5 402.25C349.75 418.5 322.5 428 293.25 428C218.5 428 158.25 367.75 158.25 293.25C158.25 263.75 167.75 236.75 184.25 214.75ZM428.25 293.25C428.25 322.75 418.5 350 402 372L214.25 184.25C236.25 168 263.5 158.25 293.25 158.25C367.75 158.25 428.25 218.5 428.25 293.25Z" fill="black" fill-opacity="0.85"/>
 </g>
</svg>
