<?xml version="1.0" encoding="UTF-8"?>
<!--Generator: Apple Native CoreSVG 326-->
<!DOCTYPE svg
PUBLIC "-//W3C//DTD SVG 1.1//EN"
       "http://www.w3.org/Graphics/SVG/1.1/DTD/svg11.dtd">
<svg version="1.1" xmlns="http://www.w3.org/2000/svg" xmlns:xlink="http://www.w3.org/1999/xlink" viewBox="0 0 586.5 586.75">
 <g>
  <rect height="586.75" opacity="0" width="586.5" x="0" y="0"/>
  <path d="M550 37C518.75 6 475.5 0 418.25 0L166.5 0C111.25 0 67.75 6 36.75 37C5.75 68 0 111 0 166.5L0 418.25C0 475.75 5.5 518.75 36.5 549.5C67.75 580.5 111 586.5 168.25 586.5L418.25 586.5C475.5 586.5 519 580.5 550 549.5C581 518.5 586.5 475.75 586.5 418.25L586.5 168C586.5 110.75 581 67.75 550 37ZM542.25 159.25L542.25 427C542.25 463.5 537 497.25 517.5 517C497.75 536.75 463.25 542.25 427 542.25L159.5 542.25C123.25 542.25 88.75 536.5 69 517C49.5 497.25 44.25 463.5 44.25 427L44.25 161C44.25 123.25 49.5 89 69 69.25C88.5 49.5 123.5 44.25 161 44.25L427 44.25C463.25 44.25 497.75 49.75 517.5 69.5C537.25 89 542.25 123 542.25 159.25Z" fill="black" fill-opacity="0.85"/>
  <path d="M293.5 465.5C388.75 465.5 465.75 388.5 465.75 293.25C465.75 197.75 388.75 120.75 293.5 120.75C198.25 120.75 121 197.75 121 293.25C121 388.5 198.25 465.5 293.5 465.5ZM293.75 425.25C220.5 425.25 161.5 366.25 161.5 293.25C161.5 220 220.5 161 293.75 161C366.75 161 425.75 220 425.75 293.25C425.75 366.25 366.75 425.25 293.75 425.25ZM387 416.25L416.5 387L199.25 170L170 199.25Z" fill="black" fill-opacity="0.85"/>
 </g>
</svg>
