<?xml version="1.0" encoding="UTF-8"?>
<!--Generator: Apple Native CoreSVG 326-->
<!DOCTYPE svg
PUBLIC "-//W3C//DTD SVG 1.1//EN"
       "http://www.w3.org/Graphics/SVG/1.1/DTD/svg11.dtd">
<svg version="1.1" xmlns="http://www.w3.org/2000/svg" xmlns:xlink="http://www.w3.org/1999/xlink" viewBox="0 0 528 662.25">
 <g>
  <rect height="662.25" opacity="0" width="528" x="0" y="0"/>
  <path d="M528 397.5L528 151.5C528 117.25 514.5 105.75 485.75 94.25C442.75 77.25 333 35.5 290.25 22C281.75 19.5 272.75 17 264 17C255.25 17 246.5 19 238 22C194.75 36.75 85.25 77 42.25 94.25C13.5 106.25 0 117.25 0 151.5L0 397.5C0 510.75 60.75 551.75 242.5 655.5C250.25 660 258.5 662.25 264 662.25C269.75 662.25 278 660 285.5 655.5C466.75 550.75 528 510.75 528 397.5ZM259 611.75C254.5 611 249.5 608.5 244.75 605.25C95.75 512.75 43.75 486.5 43.75 388L43.75 160C43.75 145.75 46.5 140 57.5 136C103.25 119.75 204.5 82.5 249.5 64.75C253.25 63.25 256.5 62.25 259 62Z" fill="black" fill-opacity="0.85"/>
 </g>
</svg>
