<?xml version="1.0" encoding="UTF-8"?>
<!--Generator: Apple Native CoreSVG 326-->
<!DOCTYPE svg
PUBLIC "-//W3C//DTD SVG 1.1//EN"
       "http://www.w3.org/Graphics/SVG/1.1/DTD/svg11.dtd">
<svg version="1.1" xmlns="http://www.w3.org/2000/svg" xmlns:xlink="http://www.w3.org/1999/xlink" viewBox="0 0 373.75 546.313">
 <g>
  <rect height="546.313" opacity="0" width="373.75" x="0" y="0"/>
  <path d="M23.25 509.031C30.25 509.031 37.5 506.781 44 502.531L61.5 490.781C109.75 458.031 176.25 385.781 186.25 350.781L187.5 350.781C197.25 385.531 263.75 458.031 312.5 490.781L329.75 502.531C336.25 506.781 343.75 509.031 350.75 509.031C364.5 509.031 373.75 499.781 373.75 486.281C373.75 478.281 369.5 469.781 361.75 464.781L337.5 449.031C288.5 416.781 210.75 338.031 210.75 265.531L210.75 99.5315L163.25 99.5315L163.25 265.531C163.25 338.031 85 416.531 36.5 449.031L12 464.781C4.25 469.781 0 478.531 0 486.531C0 499.031 9 509.031 23.25 509.031ZM114 141.281L259.75 141.281C279.75 141.281 285.5 127.281 274.25 111.531L203.25 10.0315C194-3.21853 180.25-3.46853 170.5 10.0315L99.5 111.281C88 127.281 93.75 141.281 114 141.281Z" fill="black" fill-opacity="0.85"/>
 </g>
</svg>
