<?xml version="1.0" encoding="UTF-8"?>
<!--Generator: Apple Native CoreSVG 326-->
<!DOCTYPE svg
PUBLIC "-//W3C//DTD SVG 1.1//EN"
       "http://www.w3.org/Graphics/SVG/1.1/DTD/svg11.dtd">
<svg version="1.1" xmlns="http://www.w3.org/2000/svg" xmlns:xlink="http://www.w3.org/1999/xlink" viewBox="0 0 651.25 651.75">
 <g>
  <rect height="651.75" opacity="0" width="651.25" x="0" y="0"/>
  <path d="M651.25 325.75C651.25 505 505 651.25 325.5 651.25C146.25 651.25 0 505 0 325.75C0 146.25 146.25 0 325.5 0C505 0 651.25 146.25 651.25 325.75ZM371.25 198.25L371.25 242.5L275.5 242.5C213.75 242.5 184.75 271.5 184.75 333.75L184.75 426C184.75 442 193 451.75 207.5 451.5C221.75 451.25 230.25 442 230.25 426L230.25 335.75C230.25 302.75 244.75 288.25 276.25 288.25L371.25 288L371.25 332.5C371.25 352.5 391.75 360.25 407 348.5L483.25 288.5C501.25 274.25 501.25 256.5 483.25 242L407 182.5C391.75 170.25 371.25 178.25 371.25 198.25Z" fill="black" fill-opacity="0.85"/>
 </g>
</svg>
