<?xml version="1.0" encoding="UTF-8"?>
<!--Generator: Apple Native CoreSVG 326-->
<!DOCTYPE svg
PUBLIC "-//W3C//DTD SVG 1.1//EN"
       "http://www.w3.org/Graphics/SVG/1.1/DTD/svg11.dtd">
<svg version="1.1" xmlns="http://www.w3.org/2000/svg" xmlns:xlink="http://www.w3.org/1999/xlink" viewBox="0 0 599 417.25">
 <g>
  <rect height="417.25" opacity="0" width="599" x="0" y="0"/>
  <path d="M24.25 416.75C38.5 416.75 48.5 406.75 48.5 392.75L48.5 232.75L550.5 232.75L550.5 392.75C550.5 406.75 560.75 416.75 574.75 416.75C589 416.75 599 406.75 599 392.75L599 24C599 10 589 0 574.75 0C560.75 0 550.5 10 550.5 24L550.5 184.25L48.5 184.25L48.5 24C48.5 10 38.5 0 24.25 0C10 0 0 10 0 24L0 392.75C0 406.75 10 416.75 24.25 416.75Z" fill="black" fill-opacity="0.85"/>
 </g>
</svg>
