<?xml version="1.0" encoding="UTF-8"?>
<!--Generator: Apple Native CoreSVG 326-->
<!DOCTYPE svg
PUBLIC "-//W3C//DTD SVG 1.1//EN"
       "http://www.w3.org/Graphics/SVG/1.1/DTD/svg11.dtd">
<svg version="1.1" xmlns="http://www.w3.org/2000/svg" xmlns:xlink="http://www.w3.org/1999/xlink" viewBox="0 0 651.25 651.75">
 <g>
  <rect height="651.75" opacity="0" width="651.25" x="0" y="0"/>
  <path d="M325.5 651.25C505.25 651.25 651.25 505.5 651.25 325.75C651.25 146 505.25 0 325.5 0C145.75 0 0 146 0 325.75C0 505.5 145.75 651.25 325.5 651.25ZM325.5 604.75C171.25 604.75 46.5 480 46.5 325.75C46.5 171.5 171.25 46.75 325.5 46.75C479.75 46.75 604.5 171.5 604.5 325.75C604.5 480 479.75 604.75 325.5 604.75Z" fill="black" fill-opacity="0.85"/>
  <path d="M182 454C232 454 272.25 413.75 272.25 363.75C272.25 313.75 232 273.5 182 273.5C132 273.5 91.75 313.75 91.75 363.75C91.75 413.75 132 454 182 454ZM182.5 429.75C145.5 429.75 116 400.25 116 363.25C116 326.5 145.25 297.25 182.5 297.25C219 297.25 248.5 326.75 248.5 363.25C248.5 400.25 219 429.75 182.5 429.75ZM182 384.75C193.75 384.75 203 375.5 203 363.75C203 352 193.75 342.75 182 342.75C170.25 342.75 161 352 161 363.75C161 375.5 170.25 384.75 182 384.75ZM468.5 454C518.5 454 558.75 413.75 558.75 363.75C558.75 313.75 518.5 273.5 468.5 273.5C418.5 273.5 378 313.75 378 363.75C378 413.75 418.5 454 468.5 454ZM469 429.75C432 429.75 402.5 400.25 402.5 363.25C402.5 326.5 431.75 297.25 469 297.25C505.5 297.25 535 326.75 535 363.25C535 400.25 505.5 429.75 469 429.75ZM469 384.75C480.5 384.75 489.75 375.5 489.75 363.75C489.75 352 480.5 342.75 469 342.75C457 342.75 447.75 352 447.75 363.75C447.75 375.5 457 384.75 469 384.75ZM212.25 220L272.5 220C279 220 284.75 214.5 284.75 208.25C284.75 201.5 279.5 196 272.5 196L212.25 196C205.5 196 200.25 201.25 200.25 208.25C200.25 214.5 205.5 220 212.25 220ZM178.5 350.5L197.75 364.5L268.75 285L304.75 349.25L263.5 349.25L263.5 372.25L306.5 372.25C319.5 372.25 325.75 369.5 332.75 361.5L415.5 265.25L454 361.5L476 351.75L404.25 174.25C401 166.75 396.5 164 388 164L347.75 164C340.75 164 335.25 169.5 335.25 176C335.25 182.5 340.5 188 347.75 188L384.5 188L405.25 239.75L279.25 255.5L254.75 211.5L230 216.5L255.5 261.75ZM291.75 278L387.75 262.75L324.25 336Z" fill="black" fill-opacity="0.85"/>
 </g>
</svg>
