<?xml version="1.0" encoding="UTF-8"?>
<!--Generator: Apple Native CoreSVG 326-->
<!DOCTYPE svg
PUBLIC "-//W3C//DTD SVG 1.1//EN"
       "http://www.w3.org/Graphics/SVG/1.1/DTD/svg11.dtd">
<svg version="1.1" xmlns="http://www.w3.org/2000/svg" xmlns:xlink="http://www.w3.org/1999/xlink" viewBox="0 0 543.25 804.25">
 <g>
  <rect height="804.25" opacity="0" width="543.25" x="0" y="0"/>
  <path d="M272 467C399.5 467 505.5 361 505.5 233.5C505.5 106 399 0 271.5 0C144 0 38.5 106 38.5 233.5C38.5 361 144.5 467 272 467ZM272 426.5C164.5 426.5 79.25 341 79.25 233.5C79.25 125.75 164.25 40.5 271.5 40.5C379.25 40.5 465 126 465 233.5C465 341 379.5 426.5 272 426.5ZM158.75 804L384.5 804C474.75 804 543.25 734.75 543.25 645.25C543.25 556 474.75 486.75 384.5 486.75L158.75 486.75C68.5 486.75 0 556 0 645.25C0 734.75 68.5 804 158.75 804ZM158.75 763.5C91 763.5 40 712.75 40 645.25C40 577.75 91 527.25 158.75 527.25L384.5 527.25C452.25 527.25 503.25 577.75 503.25 645.25C503.25 712.75 452.25 763.5 384.5 763.5Z" fill="black" fill-opacity="0.85"/>
  <path d="M189 216.5C218.25 216.5 241.75 193 241.75 163.75C241.75 134.5 218.25 111 189 111C159.5 111 136.25 134.5 136.25 163.75C136.25 193 159.5 216.5 189 216.5ZM354.25 216.5C383.5 216.5 407 193 407 163.75C407 134.5 383.5 111 354.25 111C325 111 301.5 134.5 301.5 163.75C301.5 193 325 216.5 354.25 216.5ZM157.75 326.25C178.5 326.25 195 310 195 289.25C195 268.75 178.5 252.25 157.75 252.25C137.25 252.25 120.75 268.75 120.75 289.25C120.75 310 137.25 326.25 157.75 326.25ZM385.5 326.25C406 326.25 422.5 310 422.5 289.25C422.5 268.75 406 252.25 385.5 252.25C364.75 252.25 348.25 268.75 348.25 289.25C348.25 310 364.75 326.25 385.5 326.25ZM271.5 403C301 403 324.25 379.5 324.25 350.25C324.25 320.75 301 297.5 271.5 297.5C242.25 297.5 218.75 320.75 218.75 350.25C218.75 379.5 242.25 403 271.5 403ZM158.25 731.5C206 731.5 244.25 693 244.25 645.25C244.25 597.5 206 559.25 158.25 559.25C110.5 559.25 72 597.5 72 645.25C72 693 110.5 731.5 158.25 731.5ZM385 731.5C432.75 731.5 471.25 693 471.25 645.25C471.25 597.5 432.75 559.25 385 559.25C337.25 559.25 299 597.5 299 645.25C299 693 337.25 731.5 385 731.5Z" fill="black" fill-opacity="0.85"/>
 </g>
</svg>
