<?xml version="1.0" encoding="UTF-8"?>
<!--Generator: Apple Native CoreSVG 326-->
<!DOCTYPE svg
PUBLIC "-//W3C//DTD SVG 1.1//EN"
       "http://www.w3.org/Graphics/SVG/1.1/DTD/svg11.dtd">
<svg version="1.1" xmlns="http://www.w3.org/2000/svg" xmlns:xlink="http://www.w3.org/1999/xlink" viewBox="0 0 330.069 707.926">
 <g>
  <rect height="707.926" opacity="0" width="330.069" x="0" y="0"/>
  <path d="M0.0346792 29.3379L6.03468 141.088C7.03468 160.838 14.5347 172.588 29.0347 183.088L98.0347 233.588C106.535 239.588 111.535 244.338 111.535 259.338L111.535 674.838C111.535 692.088 125.035 705.588 142.035 705.588C159.035 705.588 172.785 692.088 172.785 674.838L172.785 450.588C172.785 445.088 177.535 440.338 183.035 440.338C188.535 440.338 193.285 445.088 193.285 450.588L193.285 674.838C193.285 692.088 206.785 705.588 223.785 705.588C240.785 705.588 254.535 692.088 254.535 674.838L254.535 305.588C254.535 300.088 259.035 295.588 264.535 295.588C270.035 295.588 274.535 300.088 274.535 305.588L274.535 428.088C274.535 443.588 286.785 455.838 302.285 455.838C317.785 455.838 330.035 443.588 330.035 428.088L330.035 291.338C330.035 221.338 279.035 174.838 205.535 174.838L140.785 174.838C121.785 174.838 110.035 171.338 94.7847 160.338L61.5347 136.588L55.5347 26.5879C54.7847 11.0879 41.7847-1.16215 26.2847 0.0878505C10.7847 1.33785-0.715321 14.0879 0.0346792 29.3379ZM183.035 138.588C221.285 138.588 251.785 107.838 251.785 69.5879C251.785 31.3379 221.285 0.83785 183.035 0.83785C144.785 0.83785 114.035 31.3379 114.035 69.5879C114.035 107.838 144.785 138.588 183.035 138.588Z" fill="black" fill-opacity="0.85"/>
 </g>
</svg>
