<?xml version="1.0" encoding="UTF-8"?>
<!--Generator: Apple Native CoreSVG 326-->
<!DOCTYPE svg
PUBLIC "-//W3C//DTD SVG 1.1//EN"
       "http://www.w3.org/Graphics/SVG/1.1/DTD/svg11.dtd">
<svg version="1.1" xmlns="http://www.w3.org/2000/svg" xmlns:xlink="http://www.w3.org/1999/xlink" viewBox="0 0 815 526.25">
 <g>
  <rect height="526.25" opacity="0" width="815" x="0" y="0"/>
  <path d="M97.25 526.25L717.75 526.25C782.5 526.25 815 493.5 815 429.75L815 96.5C815 33 782.5 0.25 717.75 0.25L97.25 0.25C32.75 0.25 0 32.5 0 96.5L0 429.75C0 493.75 32.75 526.25 97.25 526.25ZM98.25 481.75C63.25 481.75 44.25 463.25 44.25 427.5L44.25 99C44.25 63 63.25 44.5 98.25 44.5L717 44.5C751 44.5 770.75 63 770.75 99L770.75 427.5C770.75 463.25 751 481.75 717 481.75Z" fill="black" fill-opacity="0.85"/>
  <path d="M102 375.25C111.5 375.25 117 369.25 118.75 360.5L128.25 317.5L177 317.5L186.25 360.75C188 370 193.5 375.25 203.25 375.25C212.75 375.25 219 368 219 359C219 356.5 218.75 352.5 218.25 350L176.25 171C173.5 159 165.75 151.25 151.75 151.25C140 151.25 131.75 158.25 128.75 171.25L87 349.5C86.25 352.25 85.5 356.25 85.5 359C85.5 368.5 91.25 375.25 102 375.25ZM132.25 290.75L152.5 197.5L172.75 290.75ZM258 375.25C268.25 375.25 274.5 369 274.5 358.25L274.5 297.75L299 297.75C336.75 297.75 358.75 266.25 358.75 226.25C358.75 189.5 339.5 154.25 301.25 154.25L258 154.25C247.25 154.25 241.75 161.5 241.75 171.25L241.75 358.25C241.75 369 247.75 375.25 258 375.25ZM274.5 271L274.5 181L293 181C316.75 181 325.5 202 325.5 226.25C325.5 250.5 316.25 271 293 271ZM435.75 374.75C445.75 374.75 452.75 367 452.75 357L452.75 170C452.75 159.5 445 151.5 434.25 151.5C426.75 151.5 420.5 154.5 412.75 161L385.25 185.5C380.5 189.75 377.75 194.25 377.75 199C377.75 206.75 383.75 212.25 391 212.25C394.25 212.25 398 210.75 400.25 209L419.25 192.75L419.25 357C419.25 367 426.25 374.75 435.75 374.75ZM493.75 372.25L574 372.25C581.75 372.25 588 365.75 588 357.5C588 349.25 581.75 343 574 343L518.5 343L554.25 288.5C570.5 264.5 584.75 238 584.75 211.25C584.75 174.75 564.5 149.75 530.75 149.75C496.25 149.75 477.75 186.25 477.75 209C477.75 217.75 483.5 224.75 492.5 224.75C501.25 224.75 506 219.5 508.25 209.75C511.25 193.75 515.75 179 530.5 179C545.25 179 552.25 192.75 552.25 212C552.25 231.25 542.25 253 527 275.5L484.25 341C479 348.75 478 353 478 357.25C478 366.75 484.75 372.25 493.75 372.25ZM664.75 376.25C701.5 376.25 723.25 346.75 723.25 310.75C723.25 287.25 714 265.5 694.5 258C709.75 248 717.75 228.5 717.75 209C717.75 178 699.75 150.25 663.25 150.25C631 150.25 609.25 176.75 609.25 205.75C609.25 214.5 615.25 220.75 623.75 220.75C631.75 220.75 637.5 216.5 639.5 207.75C643 191.5 650 179.25 663.25 179.25C678 179.25 685.5 192.5 685.5 211.25C685.5 228.75 678.25 246.25 659.5 246.25L651.5 246.25C643.5 246.25 637.5 252 637.5 259.75C637.5 267.75 643.5 274 651.5 274L659.5 274C681.25 274 690 287 690 310C690 330.75 683 346.75 664.75 346.75C651 346.75 641.25 337.25 636.75 317.5C635 311.5 631 304.75 621.75 304.75C611 304.75 606.25 312.75 606.25 320.25C606.25 341.5 623.5 376.25 664.75 376.25Z" fill="black" fill-opacity="0.85"/>
 </g>
</svg>
