<?xml version="1.0" encoding="UTF-8"?>
<!--Generator: Apple Native CoreSVG 326-->
<!DOCTYPE svg
PUBLIC "-//W3C//DTD SVG 1.1//EN"
       "http://www.w3.org/Graphics/SVG/1.1/DTD/svg11.dtd">
<svg version="1.1" xmlns="http://www.w3.org/2000/svg" xmlns:xlink="http://www.w3.org/1999/xlink" viewBox="0 0 651.261 668.376">
 <g>
  <rect height="668.376" opacity="0" width="651.261" x="0" y="0"/>
  <path d="M426.231 466.1L358.255 611.813C339.505 651.813 288.505 642.563 288.505 600.313L287.755 357.563C287.755 353.313 286.255 351.563 282.005 351.563L37.5053 350.563C-5.49469 350.313-13.2447 299.563 23.2553 282.813L173.124 213.122ZM602.005 89.313L476.83 357.638L281.785 162.593L548.505 38.563C588.255 20.063 621.255 47.313 602.005 89.313Z" fill="black" fill-opacity="0.85"/>
  <path d="M571.505 561.813C579.755 570.313 593.505 570.313 601.505 561.813C609.505 553.813 610.005 540.063 601.505 531.813L110.755 41.063C102.755 33.063 88.7553 32.813 80.5053 41.063C72.2553 49.063 72.2553 63.063 80.5053 71.313Z" fill="black" fill-opacity="0.85"/>
 </g>
</svg>
