<?xml version="1.0" encoding="UTF-8"?>
<!--Generator: Apple Native CoreSVG 326-->
<!DOCTYPE svg
PUBLIC "-//W3C//DTD SVG 1.1//EN"
       "http://www.w3.org/Graphics/SVG/1.1/DTD/svg11.dtd">
<svg version="1.1" xmlns="http://www.w3.org/2000/svg" xmlns:xlink="http://www.w3.org/1999/xlink" viewBox="0 0 651.25 651.75">
 <g>
  <rect height="651.75" opacity="0" width="651.25" x="0" y="0"/>
  <path d="M325.5 651.25C505.25 651.25 651.25 505.5 651.25 325.75C651.25 146 505.25 0 325.5 0C145.75 0 0 146 0 325.75C0 505.5 145.75 651.25 325.5 651.25ZM325.5 604.75C171.25 604.75 46.5 480 46.5 325.75C46.5 171.5 171.25 46.75 325.5 46.75C479.75 46.75 604.5 171.5 604.5 325.75C604.5 480 479.75 604.75 325.5 604.75Z" fill="black" fill-opacity="0.85"/>
  <path d="M151.5 466.5C151.5 477.75 158 484.5 169 484.5C173 484.5 177 483 181.75 480.5L256 439.75L256 162.25C253 163.5 249.75 165.25 246.25 167L165 214.25C155.5 219.75 151.5 226.25 151.5 237.25ZM277 437.5L362.5 486.75C365 488.25 368 489.25 370.5 490L370.5 215L287 164.25C283.75 162.25 280.5 161 277 160.25ZM391 489.25C393 488.75 395 488 397 487L484.75 436.5C494.5 431 498.25 424.75 498.25 413.75L498.25 184.25C498.25 172.5 491.75 166.5 480.75 166.5C476.75 166.5 472.75 167.75 468 170.5L391 212.75Z" fill="black" fill-opacity="0.85"/>
 </g>
</svg>
