<?xml version="1.0" encoding="UTF-8"?>
<!--Generator: Apple Native CoreSVG 326-->
<!DOCTYPE svg
PUBLIC "-//W3C//DTD SVG 1.1//EN"
       "http://www.w3.org/Graphics/SVG/1.1/DTD/svg11.dtd">
<svg version="1.1" xmlns="http://www.w3.org/2000/svg" xmlns:xlink="http://www.w3.org/1999/xlink" viewBox="0 0 651.25 651.75">
 <g>
  <rect height="651.75" opacity="0" width="651.25" x="0" y="0"/>
  <path d="M651.25 325.75C651.25 505.5 505.25 651.25 325.5 651.25C145.75 651.25 0 505.5 0 325.75C0 146 145.75 0 325.5 0C505.25 0 651.25 146 651.25 325.75ZM46.5 325.75C46.5 480 171.25 604.75 325.5 604.75C479.75 604.75 604.5 480 604.5 325.75C604.5 171.5 479.75 46.75 325.5 46.75C171.25 46.75 46.5 171.5 46.5 325.75Z" fill="black" fill-opacity="0.85"/>
  <path d="M344.25 393.25L344.25 446.25C344.25 490.5 337.5 525.75 325.25 525.75C313 525.75 306 489.75 306 446.25L306 355ZM395.5 201.75C395.5 234 374 260.75 344.25 268.75L344.25 295.12L255.179 205.975C255.043 204.587 255 203.174 255 201.75C255 163 286.5 131.5 325.25 131.5C364 131.5 395.5 163 395.5 201.75ZM284.5 183.75C284.75 195.75 295.25 206.25 307.25 206.25C319.75 206.25 329.75 195.75 329.75 183.75C330 171.25 319.75 160.75 307.25 160.75C295.25 160.75 284.25 171.25 284.5 183.75Z" fill="black" fill-opacity="0.85"/>
  <path d="M468 486.25C473 491.5 481.5 491.5 486.75 486.25C492 481 492 473 486.75 467.5L184 164.75C178.75 159.5 170.25 159.5 165 164.75C159.75 170 160 178.5 165 183.5Z" fill="black" fill-opacity="0.85"/>
 </g>
</svg>
