<?xml version="1.0" encoding="UTF-8"?>
<!--Generator: Apple Native CoreSVG 326-->
<!DOCTYPE svg
PUBLIC "-//W3C//DTD SVG 1.1//EN"
       "http://www.w3.org/Graphics/SVG/1.1/DTD/svg11.dtd">
<svg version="1.1" xmlns="http://www.w3.org/2000/svg" xmlns:xlink="http://www.w3.org/1999/xlink" viewBox="0 0 587.75 587.75">
 <g>
  <rect height="587.75" opacity="0" width="587.75" x="0" y="0"/>
  <path d="M97.25 587.75L490.25 587.75C555 587.75 587.75 555 587.75 491.5L587.75 96.5C587.75 32.75 555 0 490.25 0L97.25 0C32.75 0 0 32.5 0 96.5L0 491.5C0 555.5 32.75 587.75 97.25 587.75ZM98.25 543.5C63.25 543.5 44.25 525 44.25 489L44.25 98.75C44.25 63 63.25 44.25 98.25 44.25L489.5 44.25C523.75 44.25 543.5 63 543.5 98.75L543.5 489C543.5 525 523.75 543.5 489.5 543.5Z" fill="black" fill-opacity="0.85"/>
  <path d="M223.75 169.75C223.75 201.75 245.5 228.5 274.75 236.75L274.75 414.25C274.75 457.75 281.75 493.75 294 493.75C306.25 493.75 313 458.5 313 414.25L313 236.75C342.75 228.75 364.25 202 364.25 169.75C364.25 131 332.75 99.5 294 99.5C255.25 99.5 223.75 131 223.75 169.75ZM253.25 151.75C253 139.25 264 128.75 276 128.75C288.5 128.75 298.75 139.25 298.5 151.75C298.5 163.75 288.5 174.25 276 174.25C264 174.25 253.25 163.75 253.25 151.75Z" fill="black" fill-opacity="0.85"/>
 </g>
</svg>
