<?xml version="1.0" encoding="UTF-8"?>
<!--Generator: Apple Native CoreSVG 326-->
<!DOCTYPE svg
PUBLIC "-//W3C//DTD SVG 1.1//EN"
       "http://www.w3.org/Graphics/SVG/1.1/DTD/svg11.dtd">
<svg version="1.1" xmlns="http://www.w3.org/2000/svg" xmlns:xlink="http://www.w3.org/1999/xlink" viewBox="0 0 651.25 651.75">
 <g>
  <rect height="651.75" opacity="0" width="651.25" x="0" y="0"/>
  <path d="M325.5 651.25C505.25 651.25 651.25 505.5 651.25 325.75C651.25 146 505.25 0 325.5 0C145.75 0 0 146 0 325.75C0 505.5 145.75 651.25 325.5 651.25ZM325.5 604.75C171.25 604.75 46.5 480 46.5 325.75C46.5 171.5 171.25 46.75 325.5 46.75C479.75 46.75 604.5 171.5 604.5 325.75C604.5 480 479.75 604.75 325.5 604.75Z" fill="black" fill-opacity="0.85"/>
  <path d="M261.25 189C261.25 218.75 281.75 244 309.25 251.5L309.25 376.75C309.25 421.25 316.75 446 325.25 446C334 446 341.25 421.75 341.25 376.75L341.25 251.5C369 244 389.25 218.75 389.25 189C389.25 153.5 361 124.75 325.25 124.75C289.5 124.75 261.25 153.5 261.25 189ZM307 191C296.75 191 287 182 287 170.75C287 159.5 296.5 150.75 307 150.75C318.5 150.75 327.5 159.5 327.5 170.75C327.5 182 318.5 191 307 191ZM325.25 507.25C428.5 507.25 492.5 472.5 492.5 431.75C492.5 385.25 416 357.75 365.5 358L365.5 385C402.75 384.75 458 403 458 428.5C458 458 402.25 479 325.25 479C248 479 192.5 458.25 192.5 428.5C192.5 403 248 384.75 285 385L285 358C234.75 357.75 158.25 385.25 158.25 431.75C158.25 472.5 222.25 507.25 325.25 507.25Z" fill="black" fill-opacity="0.85"/>
 </g>
</svg>
