<?xml version="1.0" encoding="UTF-8"?>
<!--Generator: Apple Native CoreSVG 326-->
<!DOCTYPE svg
PUBLIC "-//W3C//DTD SVG 1.1//EN"
       "http://www.w3.org/Graphics/SVG/1.1/DTD/svg11.dtd">
<svg version="1.1" xmlns="http://www.w3.org/2000/svg" xmlns:xlink="http://www.w3.org/1999/xlink" viewBox="0 0 795 588.75">
 <g>
  <rect height="588.75" opacity="0" width="795" x="0" y="0"/>
  <path d="M795 304C795 438.5 705.25 527.5 571.25 527.5L223.75 527.5C89.25 527.5 0 438.5 0 304C0 169.75 89.25 79 223.75 80L276.5 80.25C275.25 86.75 274.75 93.75 274.75 100.5C274.75 108.75 275.5 116.5 277.25 124.25L223.75 124.25C117 124.25 44.25 197.75 44.25 304C44.25 410.5 117 483.25 223.75 483.25L571.25 483.25C677.5 483.25 750.75 410.5 750.75 304C750.75 197.75 677.5 124.25 571.25 124.25L512.519 124.25C514.505 116.592 515.5 108.54 515.5 100.25C515.5 93.3151 514.791 86.5417 513.437 80L571.25 80C705.25 80 795 169.75 795 304Z" fill="black" fill-opacity="0.85"/>
  <path d="M415 201C470.5 201 515.5 156 515.5 100.25C515.5 45 470.5 0 415 0C359.75 0 314.75 45 314.75 100.25C314.75 156 359.75 201 415 201Z" fill="black" fill-opacity="0.85"/>
 </g>
</svg>
