<?xml version="1.0" encoding="UTF-8"?>
<!--Generator: Apple Native CoreSVG 326-->
<!DOCTYPE svg
PUBLIC "-//W3C//DTD SVG 1.1//EN"
       "http://www.w3.org/Graphics/SVG/1.1/DTD/svg11.dtd">
<svg version="1.1" xmlns="http://www.w3.org/2000/svg" xmlns:xlink="http://www.w3.org/1999/xlink" viewBox="0 0 564 707.25">
 <g>
  <rect height="707.25" opacity="0" width="564" x="0" y="0"/>
  <path d="M363.25 100.25C363.25 107.817 364.082 115.188 365.728 122.25L166.25 122.25C91.25 122.25 44.25 157.75 44.25 214.25C44.25 271 95 310 190.75 320L380 339.75C500 352 564 408.25 564 493C564 576.5 499.75 629.25 397.75 629.25L198.38 629.25C200.123 622.039 201 614.497 201 606.75C201 599.275 200.176 591.988 198.55 585L397.75 585C472.75 585 519.75 549.5 519.75 493C519.75 436.25 469 397.25 373.25 387.25L183 367.5C64 355.5 0 299 0 214.25C0 130.75 64.25 78 166.25 78L365.815 78C364.109 85.1378 363.25 92.5955 363.25 100.25Z" fill="black" fill-opacity="0.85"/>
  <path d="M100.5 707.25C156 707.25 201 662.25 201 606.75C201 551.5 156 506.5 100.5 506.5C45.25 506.5 0.25 551.5 0.25 606.75C0.25 662.25 45.25 707.25 100.5 707.25ZM100.5 664C68.75 664 43.5 638.75 43.5 606.75C43.5 574.75 69 549.75 100.5 549.75C132.75 549.75 157.75 574.75 157.75 606.75C157.75 638.75 133 664 100.5 664ZM463.5 200.75C519 200.75 564 155.75 564 100.25C564 45 519 0 463.5 0C408 0 363.25 45 363.25 100.25C363.25 155.75 408 200.75 463.5 200.75Z" fill="black" fill-opacity="0.85"/>
 </g>
</svg>
