<?xml version="1.0" encoding="UTF-8"?>
<!--Generator: Apple Native CoreSVG 326-->
<!DOCTYPE svg
PUBLIC "-//W3C//DTD SVG 1.1//EN"
       "http://www.w3.org/Graphics/SVG/1.1/DTD/svg11.dtd">
<svg version="1.1" xmlns="http://www.w3.org/2000/svg" xmlns:xlink="http://www.w3.org/1999/xlink" viewBox="0 0 564 707.25">
 <g>
  <rect height="707.25" opacity="0" width="564" x="0" y="0"/>
  <path d="M201 606.75C201 662.25 156 707.25 100.5 707.25C45.25 707.25 0.25 662.25 0.25 606.75C0.25 551.5 45.25 506.5 100.5 506.5C156 506.5 201 551.5 201 606.75ZM43.5 606.75C43.5 638.75 68.75 664 100.5 664C133 664 157.75 638.75 157.75 606.75C157.75 574.75 132.75 549.75 100.5 549.75C69 549.75 43.5 574.75 43.5 606.75Z" fill="black" fill-opacity="0.85"/>
  <path d="M363.25 100.25C363.25 107.817 364.082 115.188 365.728 122.25L166.25 122.25C91.25 122.25 44.25 157.75 44.25 214.25C44.25 271 95 310 190.75 320L380 339.75C500 352 564 408.25 564 493C564 576.5 499.75 629.25 397.75 629.25L370 629.25L370 679.75C370 699.75 355.25 709 340 696.75L246.75 623.25C234.25 613.25 234 600.75 246.75 590.5L339.75 517C355.25 504.5 370 513.75 370 534L370 585L397.75 585C472.75 585 519.75 549.5 519.75 493C519.75 436.25 469 397.25 373.25 387.25L183 367.5C64 355.5 0 299 0 214.25C0 130.75 64.25 78 166.25 78L365.815 78C364.109 85.1378 363.25 92.5955 363.25 100.25Z" fill="black" fill-opacity="0.85"/>
  <path d="M463.5 200.75C519 200.75 564 155.75 564 100.25C564 45 519 0 463.5 0C408 0 363.25 45 363.25 100.25C363.25 155.75 408 200.75 463.5 200.75Z" fill="black" fill-opacity="0.85"/>
 </g>
</svg>
