<?xml version="1.0" encoding="UTF-8"?>
<!--Generator: Apple Native CoreSVG 326-->
<!DOCTYPE svg
PUBLIC "-//W3C//DTD SVG 1.1//EN"
       "http://www.w3.org/Graphics/SVG/1.1/DTD/svg11.dtd">
<svg version="1.1" xmlns="http://www.w3.org/2000/svg" xmlns:xlink="http://www.w3.org/1999/xlink" viewBox="0 0 651.25 651.75">
 <g>
  <rect height="651.75" opacity="0" width="651.25" x="0" y="0"/>
  <path d="M325.5 651.25C505.25 651.25 651.25 505.5 651.25 325.75C651.25 146 505.25 0 325.5 0C145.75 0 0 146 0 325.75C0 505.5 145.75 651.25 325.5 651.25ZM325.5 604.75C171.25 604.75 46.5 480 46.5 325.75C46.5 171.5 171.25 46.75 325.5 46.75C479.75 46.75 604.5 171.5 604.5 325.75C604.5 480 479.75 604.75 325.5 604.75Z" fill="black" fill-opacity="0.85"/>
  <path d="M325.25 477.75C391.5 477.75 436.25 416.5 436.25 325.75C436.25 234.75 391.5 173.75 325.25 173.75C259 173.75 214.5 234.75 214.5 325.75C214.5 416.5 259 477.75 325.25 477.75ZM325.25 441.75C284.5 441.75 257 395 257 325.75C257 256.25 284.5 209.75 325.25 209.75C366 209.75 393.5 256.25 393.5 325.75C393.5 395 366 441.75 325.25 441.75Z" fill="black" fill-opacity="0.85"/>
 </g>
</svg>
