<?xml version="1.0" encoding="UTF-8"?>
<!--Generator: Apple Native CoreSVG 326-->
<!DOCTYPE svg
PUBLIC "-//W3C//DTD SVG 1.1//EN"
       "http://www.w3.org/Graphics/SVG/1.1/DTD/svg11.dtd">
<svg version="1.1" xmlns="http://www.w3.org/2000/svg" xmlns:xlink="http://www.w3.org/1999/xlink" viewBox="0 0 587.75 587.75">
 <g>
  <rect height="587.75" opacity="0" width="587.75" x="0" y="0"/>
  <path d="M97.25 587.75L490.25 587.75C555 587.75 587.75 555 587.75 491.5L587.75 96.5C587.75 32.75 555 0 490.25 0L97.25 0C32.75 0 0 32.5 0 96.5L0 491.5C0 555.5 32.75 587.75 97.25 587.75ZM98.25 543.5C63.25 543.5 44.25 525 44.25 489L44.25 98.75C44.25 63 63.25 44.25 98.25 44.25L489.5 44.25C523.75 44.25 543.5 63 543.5 98.75L543.5 489C543.5 525 523.75 543.5 489.5 543.5Z" fill="black" fill-opacity="0.85"/>
  <path d="M294 445.75C360.25 445.75 405 384.5 405 293.75C405 202.75 360.25 141.75 294 141.75C227.75 141.75 183.25 202.75 183.25 293.75C183.25 384.5 227.75 445.75 294 445.75ZM294 409.75C253.25 409.75 225.75 363 225.75 293.75C225.75 224.25 253.25 177.75 294 177.75C334.75 177.75 362.25 224.25 362.25 293.75C362.25 363 334.75 409.75 294 409.75Z" fill="black" fill-opacity="0.85"/>
 </g>
</svg>
