<?xml version="1.0" encoding="UTF-8"?>
<!--Generator: Apple Native CoreSVG 326-->
<!DOCTYPE svg
PUBLIC "-//W3C//DTD SVG 1.1//EN"
       "http://www.w3.org/Graphics/SVG/1.1/DTD/svg11.dtd">
<svg version="1.1" xmlns="http://www.w3.org/2000/svg" xmlns:xlink="http://www.w3.org/1999/xlink" viewBox="0 0 587.75 587.75">
 <g>
  <rect height="587.75" opacity="0" width="587.75" x="0" y="0"/>
  <path d="M97.25 587.75L490.25 587.75C555 587.75 587.75 555 587.75 491.5L587.75 96.5C587.75 32.75 555 0 490.25 0L97.25 0C32.75 0 0 32.5 0 96.5L0 491.5C0 555.5 32.75 587.75 97.25 587.75ZM98.25 543.5C63.25 543.5 44.25 525 44.25 489L44.25 98.75C44.25 63 63.25 44.25 98.25 44.25L489.5 44.25C523.75 44.25 543.5 63 543.5 98.75L543.5 489C543.5 525 523.75 543.5 489.5 543.5Z" fill="black" fill-opacity="0.85"/>
  <path d="M194.25 430.5C257.25 430.5 275 356.5 275 293.75C275 231 257.25 157 194.25 157C131.25 157 113.25 231 113.25 293.75C113.25 356.5 131.25 430.5 194.25 430.5ZM194.25 396.75C163.75 396.75 154.5 347.25 154.5 293.75C154.5 240 163.75 190.75 194.25 190.75C224.5 190.75 234 240 234 293.75C234 347.25 224.5 396.75 194.25 396.75ZM393.75 430.5C457 430.5 474.75 356.5 474.75 293.75C474.75 231 457 157 393.75 157C330.75 157 313 231 313 293.75C313 356.5 330.75 430.5 393.75 430.5ZM393.75 396.75C363.5 396.75 354.25 347.25 354.25 293.75C354.25 240 363.5 190.75 393.75 190.75C424.25 190.75 433.5 240 433.5 293.75C433.5 347.25 424.25 396.75 393.75 396.75Z" fill="black" fill-opacity="0.85"/>
 </g>
</svg>
