<?xml version="1.0" encoding="UTF-8"?>
<!--Generator: Apple Native CoreSVG 326-->
<!DOCTYPE svg
PUBLIC "-//W3C//DTD SVG 1.1//EN"
       "http://www.w3.org/Graphics/SVG/1.1/DTD/svg11.dtd">
<svg version="1.1" xmlns="http://www.w3.org/2000/svg" xmlns:xlink="http://www.w3.org/1999/xlink" viewBox="0 0 587.75 587.75">
 <g>
  <rect height="587.75" opacity="0" width="587.75" x="0" y="0"/>
  <path d="M587.75 96.5L587.75 491.5C587.75 555 555 587.75 490.25 587.75L97.25 587.75C32.75 587.75 0 555.5 0 491.5L0 96.5C0 32.5 32.75 0 97.25 0L490.25 0C555 0 587.75 32.75 587.75 96.5ZM108.5 293.75C108.5 358.25 126.75 433.75 191.75 433.75C256.25 433.75 274.5 358.25 274.5 293.75C274.5 229.25 256.25 153.75 191.75 153.75C126.75 153.75 108.5 229.25 108.5 293.75ZM313.5 293.75C313.5 358.25 331.75 433.75 396.5 433.75C461.25 433.75 479.5 358.25 479.5 293.75C479.5 229.25 461.25 153.75 396.5 153.75C331.75 153.75 313.5 229.25 313.5 293.75ZM232.25 293.75C232.25 348.75 222.5 399 191.75 399C160.75 399 151.25 348.75 151.25 293.75C151.25 238.5 160.75 188.5 191.75 188.5C222.5 188.5 232.25 238.5 232.25 293.75ZM437 293.75C437 348.75 427.25 399 396.5 399C365.5 399 356 348.75 356 293.75C356 238.5 365.5 188.5 396.5 188.5C427.25 188.5 437 238.5 437 293.75Z" fill="black" fill-opacity="0.85"/>
 </g>
</svg>
