<?xml version="1.0" encoding="UTF-8"?>
<!--Generator: Apple Native CoreSVG 326-->
<!DOCTYPE svg
PUBLIC "-//W3C//DTD SVG 1.1//EN"
       "http://www.w3.org/Graphics/SVG/1.1/DTD/svg11.dtd">
<svg version="1.1" xmlns="http://www.w3.org/2000/svg" xmlns:xlink="http://www.w3.org/1999/xlink" viewBox="0 0 651.25 651.75">
 <g>
  <rect height="651.75" opacity="0" width="651.25" x="0" y="0"/>
  <path d="M651.25 325.75C651.25 505 505 651.25 325.5 651.25C146.25 651.25 0 505 0 325.75C0 146.25 146.25 0 325.5 0C505 0 651.25 146.25 651.25 325.75ZM164.25 325.75C164.25 390.25 182.5 465.75 247 465.75C311.75 465.75 330.25 390.25 330.25 325.75C330.25 261.25 311.75 185.75 247 185.75C182.5 185.75 164.25 261.25 164.25 325.75ZM408.75 200L370 230.75C365 234.75 360.75 240.25 360.75 247.75C360.75 257 367 263.5 376 263.5C380.75 263.5 383.5 262 386.5 259.5L419.5 233.25L419.5 441.25C419.5 453.25 429 462.75 441 462.75C452.25 462.75 461.75 453.25 461.75 441.25L461.75 211.75C461.75 197 452.5 188 437.5 188C425.5 188 415.5 194.75 408.75 200ZM287.5 325.75C287.5 380.75 277.75 431 247 431C216.25 431 206.5 380.75 206.5 325.75C206.5 270.5 216.25 220.5 247 220.5C277.75 220.5 287.5 270.5 287.5 325.75Z" fill="black" fill-opacity="0.85"/>
 </g>
</svg>
