<?xml version="1.0" encoding="UTF-8"?>
<!--Generator: Apple Native CoreSVG 326-->
<!DOCTYPE svg
PUBLIC "-//W3C//DTD SVG 1.1//EN"
       "http://www.w3.org/Graphics/SVG/1.1/DTD/svg11.dtd">
<svg version="1.1" xmlns="http://www.w3.org/2000/svg" xmlns:xlink="http://www.w3.org/1999/xlink" viewBox="0 0 651.25 651.75">
 <g>
  <rect height="651.75" opacity="0" width="651.25" x="0" y="0"/>
  <path d="M325.5 651.25C505.25 651.25 651.25 505.5 651.25 325.75C651.25 146 505.25 0 325.5 0C145.75 0 0 146 0 325.75C0 505.5 145.75 651.25 325.5 651.25ZM325.5 604.75C171.25 604.75 46.5 480 46.5 325.75C46.5 171.5 171.25 46.75 325.5 46.75C479.75 46.75 604.5 171.5 604.5 325.75C604.5 480 479.75 604.75 325.5 604.75Z" fill="black" fill-opacity="0.85"/>
  <path d="M248.5 462.5C311.5 462.5 329.5 388.5 329.5 325.75C329.5 263 311.5 189 248.5 189C185.5 189 167.75 263 167.75 325.75C167.75 388.5 185.5 462.5 248.5 462.5ZM248.5 428.75C218.25 428.75 208.75 379.25 208.75 325.75C208.75 272 218.25 222.75 248.5 222.75C278.75 222.75 288.25 272 288.25 325.75C288.25 379.25 278.75 428.75 248.5 428.75ZM437.5 459.5C448.5 459.5 457.75 450.25 457.75 438.75L457.75 214.25C457.75 200 448.75 191.5 434.25 191.5C422.5 191.5 413 197.75 406.25 203.25L368.25 233C363.25 237 359.5 242.25 359.5 249.5C359.5 258.5 365.5 264.75 374.25 264.75C378.75 264.75 381.5 263.25 384.5 261L416.75 235.25L416.75 438.75C416.75 450.25 426 459.5 437.5 459.5Z" fill="black" fill-opacity="0.85"/>
 </g>
</svg>
