<?xml version="1.0" encoding="UTF-8"?>
<!--Generator: Apple Native CoreSVG 326-->
<!DOCTYPE svg
PUBLIC "-//W3C//DTD SVG 1.1//EN"
       "http://www.w3.org/Graphics/SVG/1.1/DTD/svg11.dtd">
<svg version="1.1" xmlns="http://www.w3.org/2000/svg" xmlns:xlink="http://www.w3.org/1999/xlink" viewBox="0 0 587.75 587.75">
 <g>
  <rect height="587.75" opacity="0" width="587.75" x="0" y="0"/>
  <path d="M587.75 96.5L587.75 491.5C587.75 555 555 587.75 490.25 587.75L97.25 587.75C32.75 587.75 0 555.5 0 491.5L0 96.5C0 32.5 32.75 0 97.25 0L490.25 0C555 0 587.75 32.75 587.75 96.5ZM112.25 293.75C112.25 358.25 130.5 433.75 195.25 433.75C260 433.75 278.25 358.25 278.25 293.75C278.25 229.25 260 153.75 195.25 153.75C130.5 153.75 112.25 229.25 112.25 293.75ZM315 223.25C315 233.75 321.25 241.5 332.75 241.5C342.5 241.5 348.5 237.25 351.25 227.75C357 203.5 366.25 187.75 387 187.75C409.25 187.75 420.75 208 420.75 231.75C420.75 258 404.25 283.75 386 307.5L325.25 387.25C319.75 394 314.75 401.25 314.75 410.5C314.75 420.25 321.25 427.5 334.5 427.5L448.75 427.5C459.25 427.5 465.5 420.5 465.5 410.25C465.5 399.25 458.75 392.75 448.75 392.75L366.75 392.75L366.75 390.5L418.5 323C449.5 283 460.25 258.75 460.25 230C460.25 186.25 431.75 153.75 387 153.75C345.75 153.75 315 188.75 315 223.25ZM235.75 293.75C235.75 348.75 226.25 399 195.25 399C164.5 399 154.75 348.75 154.75 293.75C154.75 238.5 164.5 188.5 195.25 188.5C226.25 188.5 235.75 238.5 235.75 293.75Z" fill="black" fill-opacity="0.85"/>
 </g>
</svg>
