<?xml version="1.0" encoding="UTF-8"?>
<!--Generator: Apple Native CoreSVG 326-->
<!DOCTYPE svg
PUBLIC "-//W3C//DTD SVG 1.1//EN"
       "http://www.w3.org/Graphics/SVG/1.1/DTD/svg11.dtd">
<svg version="1.1" xmlns="http://www.w3.org/2000/svg" xmlns:xlink="http://www.w3.org/1999/xlink" viewBox="0 0 651.25 651.75">
 <g>
  <rect height="651.75" opacity="0" width="651.25" x="0" y="0"/>
  <path d="M325.5 651.25C505.25 651.25 651.25 505.5 651.25 325.75C651.25 146 505.25 0 325.5 0C145.75 0 0 146 0 325.75C0 505.5 145.75 651.25 325.5 651.25ZM325.5 604.75C171.25 604.75 46.5 480 46.5 325.75C46.5 171.5 171.25 46.75 325.5 46.75C479.75 46.75 604.5 171.5 604.5 325.75C604.5 480 479.75 604.75 325.5 604.75Z" fill="black" fill-opacity="0.85"/>
  <path d="M223.75 462.5C286.75 462.5 304.5 388.5 304.5 325.75C304.5 263 286.75 189 223.75 189C160.75 189 142.75 263 142.75 325.75C142.75 388.5 160.75 462.5 223.75 462.5ZM223.75 428.75C193.25 428.75 184 379.25 184 325.75C184 272 193.25 222.75 223.75 222.75C254 222.75 263.5 272 263.5 325.75C263.5 379.25 254 428.75 223.75 428.75ZM418.75 461.5C463.5 461.5 497.75 432.5 497.75 384.5C497.75 345.75 475.25 324.5 446.75 321.5L446.75 320.5C476 312.75 490 286.75 490 259.25C490 216 458.5 190.25 417.5 190.25C384.5 190.25 357.75 209 348.5 237.5C346.75 243.75 346 249.5 346 254.75C346 264 352.25 271.5 363.25 271.5C373.25 271.5 378.5 267.5 381.25 257.5C386.25 237.25 397.25 223 417.5 223C440.25 223 451.75 241 451.75 264C451.75 288.75 437.25 307.25 412 307.25L402.75 307.25C392.75 307.25 387 313.25 387 322.5C387 331.75 393.25 337.5 402.75 337.5L412.25 337.5C441.25 337.5 457.5 353.5 457.5 383.5C457.5 407.5 444.75 428.25 418.75 428.25C393.75 428.25 381.75 410.75 378 394.5C375.5 385 369.5 380 360 380C349 380 341.75 386.75 341.75 397.75C341.75 403.25 342.75 409.5 344.25 414.5C353.5 444 384.25 461.5 418.75 461.5Z" fill="black" fill-opacity="0.85"/>
 </g>
</svg>
