<?xml version="1.0" encoding="UTF-8"?>
<!--Generator: Apple Native CoreSVG 326-->
<!DOCTYPE svg
PUBLIC "-//W3C//DTD SVG 1.1//EN"
       "http://www.w3.org/Graphics/SVG/1.1/DTD/svg11.dtd">
<svg version="1.1" xmlns="http://www.w3.org/2000/svg" xmlns:xlink="http://www.w3.org/1999/xlink" viewBox="0 0 587.75 587.75">
 <g>
  <rect height="587.75" opacity="0" width="587.75" x="0" y="0"/>
  <path d="M587.75 96.5L587.75 491.5C587.75 555 555 587.75 490.25 587.75L97.25 587.75C32.75 587.75 0 555.5 0 491.5L0 96.5C0 32.5 32.75 0 97.25 0L490.25 0C555 0 587.75 32.75 587.75 96.5ZM107 293.75C107 358.25 125.25 433.75 189.75 433.75C254.75 433.75 273 358.25 273 293.75C273 229.25 254.75 153.75 189.75 153.75C125.25 153.75 107 229.25 107 293.75ZM318 203.25C316 209.75 315.25 215.75 315.25 221C315.25 230.5 321.75 238.25 333.25 238.25C343.5 238.25 349 234 351.75 224C356.75 203.25 368 188.75 388.75 188.75C412 188.75 423.75 207 423.75 230.5C423.75 255.75 408.75 274.75 383 274.75L373.75 274.75C363.5 274.75 357.5 281 357.5 290.5C357.5 300 364 306 373.75 306L383.25 306C413 306 429.5 322.25 429.5 353C429.5 377.25 416.5 398.5 390 398.5C364.5 398.5 352.25 380.75 348.5 364.25C345.75 354.25 339.75 349.25 329.75 349.25C318.5 349.25 311 356.25 311 367.5C311 373.25 312 379.5 313.5 384.75C323 415 354.75 432.75 390 432.75C436 432.75 471 403 471 354C471 314.25 448 292.5 418.75 289.5L418.75 288.5C448.75 280.5 463.25 253.75 463.25 225.75C463.25 181.25 431 155 388.75 155C355 155 327.25 174.25 318 203.25ZM230.25 293.75C230.25 348.75 220.75 399 189.75 399C159 399 149.25 348.75 149.25 293.75C149.25 238.5 159 188.5 189.75 188.5C220.75 188.5 230.25 238.5 230.25 293.75Z" fill="black" fill-opacity="0.85"/>
 </g>
</svg>
