<?xml version="1.0" encoding="UTF-8"?>
<!--Generator: Apple Native CoreSVG 326-->
<!DOCTYPE svg
PUBLIC "-//W3C//DTD SVG 1.1//EN"
       "http://www.w3.org/Graphics/SVG/1.1/DTD/svg11.dtd">
<svg version="1.1" xmlns="http://www.w3.org/2000/svg" xmlns:xlink="http://www.w3.org/1999/xlink" viewBox="0 0 651.25 651.75">
 <g>
  <rect height="651.75" opacity="0" width="651.25" x="0" y="0"/>
  <path d="M651.25 325.75C651.25 505 505 651.25 325.5 651.25C146.25 651.25 0 505 0 325.75C0 146.25 146.25 0 325.5 0C505 0 651.25 146.25 651.25 325.75ZM138.5 325.75C138.5 390.25 157 465.75 221.75 465.75C286.25 465.75 304.5 390.25 304.5 325.75C304.5 261.25 286.25 185.75 221.75 185.75C157 185.75 138.5 261.25 138.5 325.75ZM412.25 216.75L348 352.5C343.25 363.75 341.25 371.25 341.25 380.5C341.25 394.75 351.25 404.5 365.75 404.5L442.75 404.5L442.75 442.5C442.75 457.5 453.25 463.5 462.75 463.5C473.75 463.5 482.75 456.25 482.75 442.5L482.75 404.5L496.75 404.5C508 404.5 513.5 397.25 513.5 387.25C513.5 377.75 508.25 370.5 496.75 370.5L482.75 370.5L482.75 219.5C482.75 198.5 469.25 188 450.75 188C430 188 420.5 198.5 412.25 216.75ZM262.25 325.75C262.25 380.75 252.5 431 221.75 431C191 431 181.25 380.75 181.25 325.75C181.25 270.5 191 220.5 221.75 220.5C252.5 220.5 262.25 270.5 262.25 325.75ZM443.5 371.25L377.75 371.25L377.75 369.5L442.25 226L443.5 226Z" fill="black" fill-opacity="0.85"/>
 </g>
</svg>
