<?xml version="1.0" encoding="UTF-8"?>
<!--Generator: Apple Native CoreSVG 326-->
<!DOCTYPE svg
PUBLIC "-//W3C//DTD SVG 1.1//EN"
       "http://www.w3.org/Graphics/SVG/1.1/DTD/svg11.dtd">
<svg version="1.1" xmlns="http://www.w3.org/2000/svg" xmlns:xlink="http://www.w3.org/1999/xlink" viewBox="0 0 587.75 587.75">
 <g>
  <rect height="587.75" opacity="0" width="587.75" x="0" y="0"/>
  <path d="M97.25 587.75L490.25 587.75C555 587.75 587.75 555 587.75 491.5L587.75 96.5C587.75 32.75 555 0 490.25 0L97.25 0C32.75 0 0 32.5 0 96.5L0 491.5C0 555.5 32.75 587.75 97.25 587.75ZM98.25 543.5C63.25 543.5 44.25 525 44.25 489L44.25 98.75C44.25 63 63.25 44.25 98.25 44.25L489.5 44.25C523.75 44.25 543.5 63 543.5 98.75L543.5 489C543.5 525 523.75 543.5 489.5 543.5Z" fill="black" fill-opacity="0.85"/>
  <path d="M192.75 430.5C255.75 430.5 273.5 356.5 273.5 293.75C273.5 231 255.75 157 192.75 157C129.75 157 112 231 112 293.75C112 356.5 129.75 430.5 192.75 430.5ZM192.75 396.75C162.5 396.75 153 347.25 153 293.75C153 240 162.5 190.75 192.75 190.75C223 190.75 232.5 240 232.5 293.75C232.5 347.25 223 396.75 192.75 396.75ZM428 428C438.5 428 447.25 421 447.25 407.75L447.25 370.5L461 370.5C471.75 370.5 477.25 363.5 477.25 353.75C477.25 344.5 472 337.5 461 337.5L447.25 337.5L447.25 189.75C447.25 169.75 434 159.25 416 159.25C396.25 159.25 387 169.5 378.75 187.25L316 320C311.25 331 309.5 338.25 309.5 347.25C309.5 361 319 370.5 333.25 370.5L408.5 370.5L408.5 407.75C408.5 422.5 418.75 428 428 428ZM409.25 338.25L344.75 338.25L344.75 336.5L408 196.25L409.25 196.25Z" fill="black" fill-opacity="0.85"/>
 </g>
</svg>
