<?xml version="1.0" encoding="UTF-8"?>
<!--Generator: Apple Native CoreSVG 326-->
<!DOCTYPE svg
PUBLIC "-//W3C//DTD SVG 1.1//EN"
       "http://www.w3.org/Graphics/SVG/1.1/DTD/svg11.dtd">
<svg version="1.1" xmlns="http://www.w3.org/2000/svg" xmlns:xlink="http://www.w3.org/1999/xlink" viewBox="0 0 651.25 651.75">
 <g>
  <rect height="651.75" opacity="0" width="651.25" x="0" y="0"/>
  <path d="M325.5 651.25C505.25 651.25 651.25 505.5 651.25 325.75C651.25 146 505.25 0 325.5 0C145.75 0 0 146 0 325.75C0 505.5 145.75 651.25 325.5 651.25ZM325.5 604.75C171.25 604.75 46.5 480 46.5 325.75C46.5 171.5 171.25 46.75 325.5 46.75C479.75 46.75 604.5 171.5 604.5 325.75C604.5 480 479.75 604.75 325.5 604.75Z" fill="black" fill-opacity="0.85"/>
  <path d="M225.75 462.5C288.75 462.5 306.5 388.5 306.5 325.75C306.5 263 288.75 189 225.75 189C162.75 189 144.75 263 144.75 325.75C144.75 388.5 162.75 462.5 225.75 462.5ZM225.75 428.75C195.5 428.75 186 379.25 186 325.75C186 272 195.5 222.75 225.75 222.75C256 222.75 265.5 272 265.5 325.75C265.5 379.25 256 428.75 225.75 428.75ZM420.5 462.5C469.5 462.5 496.25 420 496.25 370.25C496.25 326 475 284.75 433.25 284.75C414.75 284.75 396.75 293.5 388 313.25L386.75 313.25L392.5 229L469.75 229C479.75 229 485.75 222 485.75 212.25C485.75 202.75 479.25 195.5 469.75 195.5L381.75 195.5C366.5 195.5 359.75 205.25 358.75 220.25L353 312.5C352.5 317.5 352.25 322.75 352.25 326.75C352.25 337.75 358 347.25 371 347.25C379.25 347.25 383.75 343.5 389.75 335.5C397.25 323.5 406.5 315 420.75 315C446.25 315 456.75 345.75 456.75 371.25C456.75 400 446 429.25 420 429.25C400.5 429.25 388.75 414.25 383 395C379.75 385.25 373.5 381 365.75 381C355.5 381 348.75 387.75 348.75 398.25C348.75 404.5 350.5 411.25 353 417C363.5 444 390.75 462.5 420.5 462.5Z" fill="black" fill-opacity="0.85"/>
 </g>
</svg>
