<?xml version="1.0" encoding="UTF-8"?>
<!--Generator: Apple Native CoreSVG 326-->
<!DOCTYPE svg
PUBLIC "-//W3C//DTD SVG 1.1//EN"
       "http://www.w3.org/Graphics/SVG/1.1/DTD/svg11.dtd">
<svg version="1.1" xmlns="http://www.w3.org/2000/svg" xmlns:xlink="http://www.w3.org/1999/xlink" viewBox="0 0 651.25 651.75">
 <g>
  <rect height="651.75" opacity="0" width="651.25" x="0" y="0"/>
  <path d="M651.25 325.75C651.25 505 505 651.25 325.5 651.25C146.25 651.25 0 505 0 325.75C0 146.25 146.25 0 325.5 0C505 0 651.25 146.25 651.25 325.75ZM140.5 325.75C140.5 390.25 159 465.75 223.5 465.75C288.25 465.75 306.5 390.25 306.5 325.75C306.5 261.25 288.25 185.75 223.5 185.75C159 185.75 140.5 261.25 140.5 325.75ZM383.5 192C368 192 361 202.5 360 217.75L354 312C353.5 317.25 353.25 322.5 353.25 326.75C353.25 338 359.25 347.75 372.75 347.75C381 347.75 385.75 344 392 335.75C399.5 323.5 409 315 423.5 315C449.75 315 460.25 346.25 460.25 372.25C460.25 401.75 449.25 431.5 422.75 431.5C403 431.5 391 416.25 385 396.75C381.75 386.75 375.25 382.25 367.25 382.25C356.75 382.25 349.75 389.25 349.75 400C349.75 406.5 351.5 413.5 354 419.25C365 447 393 465.75 423.25 465.75C473.75 465.75 501 422.25 501 371.25C501 326 479.25 283.75 436.75 283.75C417.5 283.75 399 292.75 390.25 313L389 313L394.75 227L474 227C484 227 490.5 219.75 490.5 209.25C490.5 199.5 483.75 192 474 192ZM264 325.75C264 380.75 254.25 431 223.5 431C192.5 431 183 380.75 183 325.75C183 270.5 192.5 220.5 223.5 220.5C254.25 220.5 264 270.5 264 325.75Z" fill="black" fill-opacity="0.85"/>
 </g>
</svg>
