<?xml version="1.0" encoding="UTF-8"?>
<!--Generator: Apple Native CoreSVG 326-->
<!DOCTYPE svg
PUBLIC "-//W3C//DTD SVG 1.1//EN"
       "http://www.w3.org/Graphics/SVG/1.1/DTD/svg11.dtd">
<svg version="1.1" xmlns="http://www.w3.org/2000/svg" xmlns:xlink="http://www.w3.org/1999/xlink" viewBox="0 0 651.25 651.75">
 <g>
  <rect height="651.75" opacity="0" width="651.25" x="0" y="0"/>
  <path d="M325.5 651.25C505.25 651.25 651.25 505.5 651.25 325.75C651.25 146 505.25 0 325.5 0C145.75 0 0 146 0 325.75C0 505.5 145.75 651.25 325.5 651.25ZM325.5 604.75C171.25 604.75 46.5 480 46.5 325.75C46.5 171.5 171.25 46.75 325.5 46.75C479.75 46.75 604.5 171.5 604.5 325.75C604.5 480 479.75 604.75 325.5 604.75Z" fill="black" fill-opacity="0.85"/>
  <path d="M221.25 462.5C284.25 462.5 302 388.5 302 325.75C302 263 284.25 189 221.25 189C158.25 189 140.5 263 140.5 325.75C140.5 388.5 158.25 462.5 221.25 462.5ZM221.25 428.75C191 428.75 181.5 379.25 181.5 325.75C181.5 272 191 222.75 221.25 222.75C251.5 222.75 261 272 261 325.75C261 379.25 251.5 428.75 221.25 428.75ZM422.75 462.5C470.75 462.5 498 421 498 371C498 327.5 477 285.75 434 285.75C406.75 285.75 387 304.75 380 333L378.75 333C378.75 331.75 378.75 330.25 378.75 329C378.75 291.25 383.75 222.75 422.25 222.75C438.75 222.75 449.25 234.75 455.25 250.25C459 259 464.25 263.75 473.75 263.75C485 263.75 490 256.25 490 246.75C490 243.25 489.5 239.25 488.5 235C481.25 207 454.75 189.5 423.25 189.5C358.5 189.5 340.25 265.75 340.25 329.5C340.25 390.25 359.25 462.5 422.75 462.5ZM422.25 429.25C396 429.25 384.5 397 384.5 371.25C384.5 345.75 397 317 422 317C447.75 317 459 346.75 458.5 372.75C458.5 398.5 446.75 429.25 422.25 429.25Z" fill="black" fill-opacity="0.85"/>
 </g>
</svg>
