<?xml version="1.0" encoding="UTF-8"?>
<!--Generator: Apple Native CoreSVG 326-->
<!DOCTYPE svg
PUBLIC "-//W3C//DTD SVG 1.1//EN"
       "http://www.w3.org/Graphics/SVG/1.1/DTD/svg11.dtd">
<svg version="1.1" xmlns="http://www.w3.org/2000/svg" xmlns:xlink="http://www.w3.org/1999/xlink" viewBox="0 0 651.25 651.75">
 <g>
  <rect height="651.75" opacity="0" width="651.25" x="0" y="0"/>
  <path d="M651.25 325.75C651.25 505 505 651.25 325.5 651.25C146.25 651.25 0 505 0 325.75C0 146.25 146.25 0 325.5 0C505 0 651.25 146.25 651.25 325.75ZM136 325.75C136 390.25 154.5 465.75 219 465.75C283.5 465.75 301.75 390.25 301.75 325.75C301.75 261.25 283.5 185.75 219 185.75C154.5 185.75 136 261.25 136 325.75ZM341 329.5C341 391.75 360.5 465.75 425.75 465.75C475 465.75 502.75 423.25 502.75 372C502.75 327.5 481.25 284.75 437.25 284.75C409.5 284.75 389.25 304.25 382 333L380.75 333C380.75 331.75 380.75 330.25 380.75 329C380.75 290.5 385.75 220.5 425.25 220.5C442 220.5 453 232.75 458.75 248.5C463 257.5 468 262 477.75 262C489.5 262 495 254.5 495 244.75C495 241.25 494.25 237 493 232.75C485.75 204 458.5 186.25 426.25 186.25C359.75 186.25 341 264.25 341 329.5ZM462.25 374C462.25 400.25 450.25 431.5 425.25 431.5C398.25 431.5 386.75 398.5 386.75 372.5C386.75 346.25 399.5 317 425 317C451.5 317 462.75 347.5 462.25 374ZM259.5 325.75C259.5 380.75 249.75 431 219 431C188.25 431 178.5 380.75 178.5 325.75C178.5 270.5 188.25 220.5 219 220.5C249.75 220.5 259.5 270.5 259.5 325.75Z" fill="black" fill-opacity="0.85"/>
 </g>
</svg>
