<?xml version="1.0" encoding="UTF-8"?>
<!--Generator: Apple Native CoreSVG 326-->
<!DOCTYPE svg
PUBLIC "-//W3C//DTD SVG 1.1//EN"
       "http://www.w3.org/Graphics/SVG/1.1/DTD/svg11.dtd">
<svg version="1.1" xmlns="http://www.w3.org/2000/svg" xmlns:xlink="http://www.w3.org/1999/xlink" viewBox="0 0 587.75 587.75">
 <g>
  <rect height="587.75" opacity="0" width="587.75" x="0" y="0"/>
  <path d="M587.75 96.5L587.75 491.5C587.75 555 555 587.75 490.25 587.75L97.25 587.75C32.75 587.75 0 555.5 0 491.5L0 96.5C0 32.5 32.75 0 97.25 0L490.25 0C555 0 587.75 32.75 587.75 96.5ZM104.5 293.75C104.5 358.25 123 433.75 187.5 433.75C252 433.75 270.25 358.25 270.25 293.75C270.25 229.25 252 153.75 187.5 153.75C123 153.75 104.5 229.25 104.5 293.75ZM309.5 297.5C309.5 359.75 329 433.75 394.25 433.75C443.5 433.75 471.25 391.25 471.25 340C471.25 295.5 449.75 252.75 405.75 252.75C378 252.75 357.75 272.25 350.5 301L349.25 301C349.25 299.75 349.25 298.25 349.25 297C349.25 258.5 354.25 188.5 393.75 188.5C410.5 188.5 421.25 200.75 427.25 216.5C431.5 225.5 436.5 230 446.25 230C458 230 463.25 222.5 463.25 212.75C463.25 209.25 462.75 205 461.5 200.75C454.25 172 427 154.25 394.75 154.25C328.25 154.25 309.5 232.25 309.5 297.5ZM430.5 342C430.5 368.25 418.5 399.5 393.75 399.5C366.75 399.5 355.25 366.5 355.25 340.5C355.25 314.25 368 285 393.5 285C420 285 431.25 315.5 430.5 342ZM228 293.75C228 348.75 218.25 399 187.5 399C156.75 399 147 348.75 147 293.75C147 238.5 156.75 188.5 187.5 188.5C218.25 188.5 228 238.5 228 293.75Z" fill="black" fill-opacity="0.85"/>
 </g>
</svg>
