<?xml version="1.0" encoding="UTF-8"?>
<!--Generator: Apple Native CoreSVG 326-->
<!DOCTYPE svg
PUBLIC "-//W3C//DTD SVG 1.1//EN"
       "http://www.w3.org/Graphics/SVG/1.1/DTD/svg11.dtd">
<svg version="1.1" xmlns="http://www.w3.org/2000/svg" xmlns:xlink="http://www.w3.org/1999/xlink" viewBox="0 0 587.75 587.75">
 <g>
  <rect height="587.75" opacity="0" width="587.75" x="0" y="0"/>
  <path d="M97.25 587.75L490.25 587.75C555 587.75 587.75 555 587.75 491.5L587.75 96.5C587.75 32.75 555 0 490.25 0L97.25 0C32.75 0 0 32.5 0 96.5L0 491.5C0 555.5 32.75 587.75 97.25 587.75ZM98.25 543.5C63.25 543.5 44.25 525 44.25 489L44.25 98.75C44.25 63 63.25 44.25 98.25 44.25L489.5 44.25C523.75 44.25 543.5 63 543.5 98.75L543.5 489C543.5 525 523.75 543.5 489.5 543.5Z" fill="black" fill-opacity="0.85"/>
  <path d="M190 430.5C253 430.5 270.75 356.5 270.75 293.75C270.75 231 253 157 190 157C127 157 109.25 231 109.25 293.75C109.25 356.5 127 430.5 190 430.5ZM190 396.75C159.75 396.75 150.25 347.25 150.25 293.75C150.25 240 159.75 190.75 190 190.75C220.25 190.75 229.75 240 229.75 293.75C229.75 347.25 220.25 396.75 190 396.75ZM391.5 430.5C439.5 430.5 466.5 389 466.5 339C466.5 295.5 445.5 253.75 402.75 253.75C375.5 253.75 355.75 272.75 348.75 301L347.5 301C347.5 299.75 347.5 298.25 347.5 297C347.5 259.25 352.5 190.75 391 190.75C407.5 190.75 418 202.75 424 218.25C427.75 227 433 231.75 442.5 231.75C453.75 231.75 458.75 224.25 458.75 214.75C458.75 211.25 458.25 207.25 457 203C450 175 423.5 157.5 392 157.5C327.25 157.5 309 233.75 309 297.5C309 358.25 328 430.5 391.5 430.5ZM391 397.25C364.5 397.25 353.25 365 353.25 339.25C353.25 313.75 365.75 285 390.75 285C416.5 285 427.75 314.75 427.25 340.75C427.25 366.5 415.5 397.25 391 397.25Z" fill="black" fill-opacity="0.85"/>
 </g>
</svg>
