<?xml version="1.0" encoding="UTF-8"?>
<!--Generator: Apple Native CoreSVG 326-->
<!DOCTYPE svg
PUBLIC "-//W3C//DTD SVG 1.1//EN"
       "http://www.w3.org/Graphics/SVG/1.1/DTD/svg11.dtd">
<svg version="1.1" xmlns="http://www.w3.org/2000/svg" xmlns:xlink="http://www.w3.org/1999/xlink" viewBox="0 0 651.25 651.75">
 <g>
  <rect height="651.75" opacity="0" width="651.25" x="0" y="0"/>
  <path d="M325.5 651.25C505.25 651.25 651.25 505.5 651.25 325.75C651.25 146 505.25 0 325.5 0C145.75 0 0 146 0 325.75C0 505.5 145.75 651.25 325.5 651.25ZM325.5 604.75C171.25 604.75 46.5 480 46.5 325.75C46.5 171.5 171.25 46.75 325.5 46.75C479.75 46.75 604.5 171.5 604.5 325.75C604.5 480 479.75 604.75 325.5 604.75Z" fill="black" fill-opacity="0.85"/>
  <path d="M236.75 462.5C299.75 462.5 317.5 388.5 317.5 325.75C317.5 263 299.75 189 236.75 189C173.75 189 156 263 156 325.75C156 388.5 173.75 462.5 236.75 462.5ZM236.75 428.75C206.5 428.75 197 379.25 197 325.75C197 272 206.5 222.75 236.75 222.75C267 222.75 276.5 272 276.5 325.75C276.5 379.25 267 428.75 236.75 428.75ZM388.25 460.25C398.5 460.25 403.25 455.75 407.25 445.75L483.5 241.25C486.5 232.75 488.75 225.75 488.75 217.25C488.75 204.25 478.75 195.5 465.75 195.5L360.75 195.5C351 195.5 344.25 202.5 344.25 212.25C344.25 222 351 229 360.75 229L447.5 229L447.5 231.5L373 425.75C370.5 432 369.5 436 369.5 442.5C369.5 451.25 375 460.25 388.25 460.25Z" fill="black" fill-opacity="0.85"/>
 </g>
</svg>
