<?xml version="1.0" encoding="UTF-8"?>
<!--Generator: Apple Native CoreSVG 326-->
<!DOCTYPE svg
PUBLIC "-//W3C//DTD SVG 1.1//EN"
       "http://www.w3.org/Graphics/SVG/1.1/DTD/svg11.dtd">
<svg version="1.1" xmlns="http://www.w3.org/2000/svg" xmlns:xlink="http://www.w3.org/1999/xlink" viewBox="0 0 651.25 651.75">
 <g>
  <rect height="651.75" opacity="0" width="651.25" x="0" y="0"/>
  <path d="M651.25 325.75C651.25 505 505 651.25 325.5 651.25C146.25 651.25 0 505 0 325.75C0 146.25 146.25 0 325.5 0C505 0 651.25 146.25 651.25 325.75ZM151.75 325.75C151.75 390.25 170.25 465.75 234.75 465.75C299.5 465.75 317.75 390.25 317.75 325.75C317.75 261.25 299.5 185.75 234.75 185.75C170.25 185.75 151.75 261.25 151.75 325.75ZM362 192C352 192 345 199.25 345 209.25C345 219.5 352 226.75 362 226.75L451 226.75L451 229.5L374.5 428C372 434.75 371 438.5 371 445.25C371 454.25 376.5 463.5 390.25 463.5C401 463.5 405.75 459.25 410 448.5L487.75 239.5C491 230.75 493.25 223.5 493.25 214.75C493.25 201 483 192 469.5 192ZM275.25 325.75C275.25 380.75 265.5 431 234.75 431C204 431 194.25 380.75 194.25 325.75C194.25 270.5 204 220.5 234.75 220.5C265.5 220.5 275.25 270.5 275.25 325.75Z" fill="black" fill-opacity="0.85"/>
 </g>
</svg>
