<?xml version="1.0" encoding="UTF-8"?>
<!--Generator: Apple Native CoreSVG 326-->
<!DOCTYPE svg
PUBLIC "-//W3C//DTD SVG 1.1//EN"
       "http://www.w3.org/Graphics/SVG/1.1/DTD/svg11.dtd">
<svg version="1.1" xmlns="http://www.w3.org/2000/svg" xmlns:xlink="http://www.w3.org/1999/xlink" viewBox="0 0 587.75 587.75">
 <g>
  <rect height="587.75" opacity="0" width="587.75" x="0" y="0"/>
  <path d="M587.75 96.5L587.75 491.5C587.75 555 555 587.75 490.25 587.75L97.25 587.75C32.75 587.75 0 555.5 0 491.5L0 96.5C0 32.5 32.75 0 97.25 0L490.25 0C555 0 587.75 32.75 587.75 96.5ZM108.25 293.75C108.25 358.25 126.75 433.75 191.5 433.75C256 433.75 274.25 358.25 274.25 293.75C274.25 229.25 256 153.75 191.5 153.75C126.75 153.75 108.25 229.25 108.25 293.75ZM320.75 226C320.75 258.5 340.25 279 362.5 285.75L362.5 286.75C334.5 293.25 313.25 320 313.25 355.25C313.25 402.75 348.5 432.75 396 432.75C446.75 432.75 479.5 400 479.5 355.25C479.5 319.75 457 293 430.5 286.75L430.5 285.75C453.25 278.75 472 256.5 472 226.25C472 184.5 441.75 155 396 155C355.5 155 320.75 181 320.75 226ZM435.75 352C435.75 378.25 422.25 400.75 396.25 400.75C370.5 400.75 356.75 378.25 356.75 352C356.75 326 370.5 304.5 396.25 304.5C420.75 304.5 435.75 324.5 435.75 352ZM232 293.75C232 348.75 222.25 399 191.5 399C160.75 399 151 348.75 151 293.75C151 238.5 160.75 188.5 191.5 188.5C222.25 188.5 232 238.5 232 293.75ZM431.25 230.25C431.25 253.5 418.25 272.25 396.25 272.25C374.5 272.25 361.5 252.5 361.5 230.25C361.5 207 374.25 186.75 396.25 186.75C419.5 186.75 431.25 207.75 431.25 230.25Z" fill="black" fill-opacity="0.85"/>
 </g>
</svg>
