<?xml version="1.0" encoding="UTF-8"?>
<!--Generator: Apple Native CoreSVG 326-->
<!DOCTYPE svg
PUBLIC "-//W3C//DTD SVG 1.1//EN"
       "http://www.w3.org/Graphics/SVG/1.1/DTD/svg11.dtd">
<svg version="1.1" xmlns="http://www.w3.org/2000/svg" xmlns:xlink="http://www.w3.org/1999/xlink" viewBox="0 0 587.75 587.75">
 <g>
  <rect height="587.75" opacity="0" width="587.75" x="0" y="0"/>
  <path d="M587.75 96.5L587.75 491.5C587.75 555 555 587.75 490.25 587.75L97.25 587.75C32.75 587.75 0 555.5 0 491.5L0 96.5C0 32.5 32.75 0 97.25 0L490.25 0C555 0 587.75 32.75 587.75 96.5ZM109.75 293.75C109.75 358.25 128 433.75 192.5 433.75C257.25 433.75 275.75 358.25 275.75 293.75C275.75 229.25 257.25 153.75 192.5 153.75C128 153.75 109.75 229.25 109.75 293.75ZM313 248C313 292.5 334.5 335 378.25 335C406.25 335 426.5 315.75 433.5 287L434.75 287C434.75 288.25 434.75 289.75 434.75 291C434.75 329.5 429.75 399 390.25 399C373.75 399 363 387.25 356.75 371C352.5 360.75 346.5 356.75 338 356.75C325.5 356.75 320.5 365 320.5 374.75C320.5 378.5 321.25 382.75 322.5 386.75C329.75 416 357.5 433.25 389.5 433.25C456 433.25 474.5 356.5 474.5 290.5C474.5 228.25 455.25 154.25 390.25 154.25C341.25 154.25 313 196.75 313 248ZM233 293.75C233 348.75 223.25 399 192.5 399C161.75 399 152 348.75 152 293.75C152 238.5 161.75 188.5 192.5 188.5C223.25 188.5 233 238.5 233 293.75ZM429 246.25C429 273.75 416.25 302.5 390.75 302.5C364.5 302.5 353.25 272.75 353.25 246.25C353.25 219.25 365.5 188.5 390.75 188.5C417.5 188.5 429 219.5 429 246.25Z" fill="black" fill-opacity="0.85"/>
 </g>
</svg>
