<?xml version="1.0" encoding="UTF-8"?>
<!--Generator: Apple Native CoreSVG 326-->
<!DOCTYPE svg
PUBLIC "-//W3C//DTD SVG 1.1//EN"
       "http://www.w3.org/Graphics/SVG/1.1/DTD/svg11.dtd">
<svg version="1.1" xmlns="http://www.w3.org/2000/svg" xmlns:xlink="http://www.w3.org/1999/xlink" viewBox="0 0 587.75 587.75">
 <g>
  <rect height="587.75" opacity="0" width="587.75" x="0" y="0"/>
  <path d="M587.75 96.5L587.75 491.5C587.75 555 555 587.75 490.25 587.75L97.25 587.75C32.75 587.75 0 555.5 0 491.5L0 96.5C0 32.5 32.75 0 97.25 0L490.25 0C555 0 587.75 32.75 587.75 96.5ZM279 149.25L217 190.75C210.75 195.25 208 199.75 208 207.25C208 216.25 215.25 224.5 224.5 224.5C229 224.5 232 223.75 238.25 219.75L286 188.25L288.25 188.25L288.25 424C288.25 440 296.75 449.5 310.75 449.5C325.5 449.5 334 440 334 424L334 163.5C334 147.25 324.75 138 309.5 138C298.75 138 291.25 140.75 279 149.25Z" fill="black" fill-opacity="0.85"/>
 </g>
</svg>
