<?xml version="1.0" encoding="UTF-8"?>
<!--Generator: Apple Native CoreSVG 326-->
<!DOCTYPE svg
PUBLIC "-//W3C//DTD SVG 1.1//EN"
       "http://www.w3.org/Graphics/SVG/1.1/DTD/svg11.dtd">
<svg version="1.1" xmlns="http://www.w3.org/2000/svg" xmlns:xlink="http://www.w3.org/1999/xlink" viewBox="0 0 651.25 651.75">
 <g>
  <rect height="651.75" opacity="0" width="651.25" x="0" y="0"/>
  <path d="M651.25 325.75C651.25 505 505 651.25 325.5 651.25C146.25 651.25 0 505 0 325.75C0 146.25 146.25 0 325.5 0C505 0 651.25 146.25 651.25 325.75ZM312 325.75C312 390.25 330.25 465.75 395 465.75C459.5 465.75 477.75 390.25 477.75 325.75C477.75 261.25 459.5 185.75 395 185.75C330.25 185.75 312 261.25 312 325.75ZM206.25 200L167.75 230.75C162.5 234.75 158.75 240.25 158.75 247.75C158.75 257 164.5 263.5 173.5 263.5C178.25 263.5 181 262 184.25 259.5L217 233.25L217 441.25C217 453.25 226.5 462.75 238.5 462.75C249.75 462.75 259.5 453.25 259.5 441.25L259.5 211.75C259.5 197 250 188 235.25 188C223 188 213.25 194.75 206.25 200ZM435.5 325.75C435.5 380.75 425.75 431 395 431C364 431 354.5 380.75 354.5 325.75C354.5 270.5 364 220.5 395 220.5C425.75 220.5 435.5 270.5 435.5 325.75Z" fill="black" fill-opacity="0.85"/>
 </g>
</svg>
