<?xml version="1.0" encoding="UTF-8"?>
<!--Generator: Apple Native CoreSVG 326-->
<!DOCTYPE svg
PUBLIC "-//W3C//DTD SVG 1.1//EN"
       "http://www.w3.org/Graphics/SVG/1.1/DTD/svg11.dtd">
<svg version="1.1" xmlns="http://www.w3.org/2000/svg" xmlns:xlink="http://www.w3.org/1999/xlink" viewBox="0 0 587.75 587.75">
 <g>
  <rect height="587.75" opacity="0" width="587.75" x="0" y="0"/>
  <path d="M587.75 96.5L587.75 491.5C587.75 555 555 587.75 490.25 587.75L97.25 587.75C32.75 587.75 0 555.5 0 491.5L0 96.5C0 32.5 32.75 0 97.25 0L490.25 0C555 0 587.75 32.75 587.75 96.5ZM280.5 293.75C280.5 358.25 298.75 433.75 363.5 433.75C428 433.75 446.25 358.25 446.25 293.75C446.25 229.25 428 153.75 363.5 153.75C298.75 153.75 280.5 229.25 280.5 293.75ZM174.75 168L136 198.75C130.75 202.75 127 208.25 127 215.75C127 225 133 231.5 142 231.5C146.75 231.5 149.5 230 152.75 227.5L185.5 201.25L185.5 409.25C185.5 421.25 195 430.75 207 430.75C218.25 430.75 228 421.25 228 409.25L228 179.75C228 165 218.5 156 203.75 156C191.5 156 181.75 162.75 174.75 168ZM403.75 293.75C403.75 348.75 394.25 399 363.5 399C332.5 399 323 348.75 323 293.75C323 238.5 332.5 188.5 363.5 188.5C394.25 188.5 403.75 238.5 403.75 293.75Z" fill="black" fill-opacity="0.85"/>
 </g>
</svg>
