<?xml version="1.0" encoding="UTF-8"?>
<!--Generator: Apple Native CoreSVG 326-->
<!DOCTYPE svg
PUBLIC "-//W3C//DTD SVG 1.1//EN"
       "http://www.w3.org/Graphics/SVG/1.1/DTD/svg11.dtd">
<svg version="1.1" xmlns="http://www.w3.org/2000/svg" xmlns:xlink="http://www.w3.org/1999/xlink" viewBox="0 0 651.25 651.75">
 <g>
  <rect height="651.75" opacity="0" width="651.25" x="0" y="0"/>
  <path d="M325.5 651.25C505.25 651.25 651.25 505.5 651.25 325.75C651.25 146 505.25 0 325.5 0C145.75 0 0 146 0 325.75C0 505.5 145.75 651.25 325.5 651.25ZM325.5 604.75C171.25 604.75 46.5 480 46.5 325.75C46.5 171.5 171.25 46.75 325.5 46.75C479.75 46.75 604.5 171.5 604.5 325.75C604.5 480 479.75 604.75 325.5 604.75Z" fill="black" fill-opacity="0.85"/>
  <path d="M263 459.5C274 459.5 283.25 450.25 283.25 438.75L283.25 214.25C283.25 200 274.25 191.5 259.75 191.5C248 191.5 238.25 197.75 231.5 203.25L193.75 233C188.75 237 185 242.25 185 249.5C185 258.5 191 264.75 199.75 264.75C204.25 264.75 207 263.25 210 261L242 235.25L242 438.75C242 450.25 251.5 459.5 263 459.5ZM405.75 459.5C416.75 459.5 426 450.25 426 438.75L426 214.25C426 200 417 191.5 402.75 191.5C390.75 191.5 381.25 197.75 374.5 203.25L336.75 233C331.75 237 328 242.25 328 249.5C328 258.5 333.75 264.75 342.5 264.75C347 264.75 349.75 263.25 352.75 261L385 235.25L385 438.75C385 450.25 394.25 459.5 405.75 459.5Z" fill="black" fill-opacity="0.85"/>
 </g>
</svg>
