<?xml version="1.0" encoding="UTF-8"?>
<!--Generator: Apple Native CoreSVG 326-->
<!DOCTYPE svg
PUBLIC "-//W3C//DTD SVG 1.1//EN"
       "http://www.w3.org/Graphics/SVG/1.1/DTD/svg11.dtd">
<svg version="1.1" xmlns="http://www.w3.org/2000/svg" xmlns:xlink="http://www.w3.org/1999/xlink" viewBox="0 0 651.25 651.75">
 <g>
  <rect height="651.75" opacity="0" width="651.25" x="0" y="0"/>
  <path d="M651.25 325.75C651.25 505 505 651.25 325.5 651.25C146.25 651.25 0 505 0 325.75C0 146.25 146.25 0 325.5 0C505 0 651.25 146.25 651.25 325.75ZM229.5 200L191 230.75C185.75 234.75 182 240.25 182 247.75C182 257 188.25 263.5 197.25 263.5C201.75 263.5 204.75 262 207.5 259.5L240.5 233.25L240.5 441.25C240.5 453.25 250.25 462.75 261.75 462.75C273.5 462.75 283 453.25 283 441.25L283 211.75C283 197 273.75 188 258.75 188C246.5 188 236.5 194.75 229.5 200ZM376.25 200L337.75 230.75C332.75 234.75 328.75 240.25 328.75 247.75C328.75 257 335 263.5 343.75 263.5C348.25 263.5 351.25 262 354.25 259.5L387.25 233.25L387.25 441.25C387.25 453.25 396.75 462.75 408.5 462.75C420 462.75 429.75 453.25 429.75 441.25L429.75 211.75C429.75 197 420.25 188 405.5 188C393 188 383.25 194.75 376.25 200Z" fill="black" fill-opacity="0.85"/>
 </g>
</svg>
