<?xml version="1.0" encoding="UTF-8"?>
<!--Generator: Apple Native CoreSVG 326-->
<!DOCTYPE svg
PUBLIC "-//W3C//DTD SVG 1.1//EN"
       "http://www.w3.org/Graphics/SVG/1.1/DTD/svg11.dtd">
<svg version="1.1" xmlns="http://www.w3.org/2000/svg" xmlns:xlink="http://www.w3.org/1999/xlink" viewBox="0 0 651.25 651.75">
 <g>
  <rect height="651.75" opacity="0" width="651.25" x="0" y="0"/>
  <path d="M651.25 325.75C651.25 505 505 651.25 325.5 651.25C146.25 651.25 0 505 0 325.75C0 146.25 146.25 0 325.5 0C505 0 651.25 146.25 651.25 325.75ZM208.5 200.25L170 230.75C164.75 234.75 160.75 240.25 160.75 247.75C160.75 257 167 263.5 176 263.5C180.75 263.5 183.5 262 186.5 259.75L219.25 233.25L219.25 441.5C219.25 453.25 229 462.75 240.75 462.75C252 462.75 261.75 453.25 261.75 441.5L261.75 211.75C261.75 197 252.25 188 237.5 188C225.5 188 215.5 194.75 208.5 200.25ZM312.75 255.25C312.75 265.75 319 273.75 330.25 273.75C340 273.75 345.75 269.25 348.75 259.75C354.5 235.5 363.75 219.75 384.75 219.75C406.75 219.75 418.25 240 418.25 263.75C418.25 290 402 315.75 383.75 339.75L323 419.25C317.5 426.25 312.25 433.5 312.25 442.5C312.25 452.25 319 459.5 332 459.5L446.5 459.5C456.75 459.5 463.25 452.5 463.25 442.25C463.25 431.25 456.5 425 446.5 425L364.25 425L364.25 422.5L416 355C447.5 315 457.75 290.75 457.75 262C457.75 218.25 429.5 185.75 384.75 185.75C343.25 185.75 312.75 220.75 312.75 255.25Z" fill="black" fill-opacity="0.85"/>
 </g>
</svg>
