<?xml version="1.0" encoding="UTF-8"?>
<!--Generator: Apple Native CoreSVG 326-->
<!DOCTYPE svg
PUBLIC "-//W3C//DTD SVG 1.1//EN"
       "http://www.w3.org/Graphics/SVG/1.1/DTD/svg11.dtd">
<svg version="1.1" xmlns="http://www.w3.org/2000/svg" xmlns:xlink="http://www.w3.org/1999/xlink" viewBox="0 0 587.75 587.75">
 <g>
  <rect height="587.75" opacity="0" width="587.75" x="0" y="0"/>
  <path d="M97.25 587.75L490.25 587.75C555 587.75 587.75 555 587.75 491.5L587.75 96.5C587.75 32.75 555 0 490.25 0L97.25 0C32.75 0 0 32.5 0 96.5L0 491.5C0 555.5 32.75 587.75 97.25 587.75ZM98.25 543.5C63.25 543.5 44.25 525 44.25 489L44.25 98.75C44.25 63 63.25 44.25 98.25 44.25L489.5 44.25C523.75 44.25 543.5 63 543.5 98.75L543.5 489C543.5 525 523.75 543.5 489.5 543.5Z" fill="black" fill-opacity="0.85"/>
  <path d="M211 427.5C222 427.5 231.5 418.25 231.5 406.75L231.5 182.25C231.5 168 222.25 159.5 208 159.5C196.25 159.5 186.5 165.75 179.75 171.25L142 201C137 205 133.25 210.25 133.25 217.5C133.25 226.5 139.25 232.75 148 232.75C152.5 232.75 155.25 231.25 158 229L190.25 203.25L190.25 406.75C190.25 418.25 199.75 427.5 211 427.5ZM299.75 424.25L411.5 424.25C421.5 424.25 427.75 417.5 427.75 407.5C427.75 397 421.25 390.75 411.5 390.75L331 390.75L331 388.5L381.75 322.25C412.25 283.25 422.5 259.5 422.5 231.5C422.5 188.75 394.75 157 351.25 157C310.75 157 281.25 191.25 281.25 225C281.25 235.25 287.25 242.75 298.25 242.75C307.5 242.75 313.25 238.5 316 229.25C321.5 205.5 330.75 190 351 190C373 190 384.25 210 384.25 233.25C384.25 258.75 368.5 283.75 350.5 307.25L290.75 385.25C285.5 392 280.75 399 280.75 407.5C280.75 417.25 287.25 424.25 299.75 424.25Z" fill="black" fill-opacity="0.85"/>
 </g>
</svg>
