<?xml version="1.0" encoding="UTF-8"?>
<!--Generator: Apple Native CoreSVG 326-->
<!DOCTYPE svg
PUBLIC "-//W3C//DTD SVG 1.1//EN"
       "http://www.w3.org/Graphics/SVG/1.1/DTD/svg11.dtd">
<svg version="1.1" xmlns="http://www.w3.org/2000/svg" xmlns:xlink="http://www.w3.org/1999/xlink" viewBox="0 0 651.25 651.75">
 <g>
  <rect height="651.75" opacity="0" width="651.25" x="0" y="0"/>
  <path d="M325.5 651.25C505.25 651.25 651.25 505.5 651.25 325.75C651.25 146 505.25 0 325.5 0C145.75 0 0 146 0 325.75C0 505.5 145.75 651.25 325.5 651.25ZM325.5 604.75C171.25 604.75 46.5 480 46.5 325.75C46.5 171.5 171.25 46.75 325.5 46.75C479.75 46.75 604.5 171.5 604.5 325.75C604.5 480 479.75 604.75 325.5 604.75Z" fill="black" fill-opacity="0.85"/>
  <path d="M239.5 459.5C250.5 459.5 259.75 450.25 259.75 438.75L259.75 214.25C259.75 200 250.75 191.5 236.25 191.5C224.5 191.5 215 197.75 208.25 203.25L170.25 233C165.25 237 161.5 242.25 161.5 249.5C161.5 258.5 167.5 264.75 176.25 264.75C180.75 264.75 183.5 263.25 186.5 261L218.75 235.25L218.75 438.75C218.75 450.25 228 459.5 239.5 459.5ZM387.75 461.5C432.75 461.5 466.75 432.5 466.75 384.5C466.75 345.75 444.25 324.5 415.75 321.5L415.75 320.5C445 312.75 459.25 286.75 459.25 259.25C459.25 216 427.75 190.25 386.5 190.25C353.5 190.25 326.75 209 317.5 237.5C315.75 243.75 315.25 249.5 315.25 254.75C315.25 264 321.25 271.5 332.5 271.5C342.5 271.5 347.75 267.5 350.5 257.5C355.25 237.25 366.5 223 386.5 223C409.5 223 420.75 241 420.75 264C420.75 288.75 406.5 307.25 381 307.25L371.75 307.25C362 307.25 356 313.25 356 322.5C356 331.75 362.5 337.5 371.75 337.5L381.5 337.5C410.25 337.5 426.5 353.5 426.5 383.5C426.5 407.5 414 428.25 388 428.25C363 428.25 351 410.75 347.25 394.5C344.5 385 338.75 380 329.25 380C318.25 380 310.75 386.75 310.75 397.75C310.75 403.25 311.75 409.5 313.5 414.5C322.75 444 353.5 461.5 387.75 461.5Z" fill="black" fill-opacity="0.85"/>
 </g>
</svg>
