<?xml version="1.0" encoding="UTF-8"?>
<!--Generator: Apple Native CoreSVG 326-->
<!DOCTYPE svg
PUBLIC "-//W3C//DTD SVG 1.1//EN"
       "http://www.w3.org/Graphics/SVG/1.1/DTD/svg11.dtd">
<svg version="1.1" xmlns="http://www.w3.org/2000/svg" xmlns:xlink="http://www.w3.org/1999/xlink" viewBox="0 0 651.25 651.75">
 <g>
  <rect height="651.75" opacity="0" width="651.25" x="0" y="0"/>
  <path d="M325.5 651.25C505.25 651.25 651.25 505.5 651.25 325.75C651.25 146 505.25 0 325.5 0C145.75 0 0 146 0 325.75C0 505.5 145.75 651.25 325.5 651.25ZM325.5 604.75C171.25 604.75 46.5 480 46.5 325.75C46.5 171.5 171.25 46.75 325.5 46.75C479.75 46.75 604.5 171.5 604.5 325.75C604.5 480 479.75 604.75 325.5 604.75Z" fill="black" fill-opacity="0.85"/>
  <path d="M233.75 459.5C244.75 459.5 254 450.25 254 438.75L254 214.25C254 200 245 191.5 230.5 191.5C218.75 191.5 209.25 197.75 202.5 203.25L164.5 233C159.5 237 155.75 242.25 155.75 249.5C155.75 258.5 161.75 264.75 170.5 264.75C175 264.75 177.75 263.25 180.75 261L213 235.25L213 438.75C213 450.25 222.25 459.5 233.75 459.5ZM420.5 460C431 460 439.5 453 439.5 439.75L439.5 402.5L453.25 402.5C464.25 402.5 469.5 395.5 469.5 385.75C469.5 376.5 464.5 369.5 453.25 369.5L439.5 369.5L439.5 221.75C439.5 201.75 426.5 191.25 408.5 191.25C388.75 191.25 379.25 201.5 371.25 219.25L308.5 352C303.75 363 302 370.25 302 379.25C302 393 311.5 402.5 325.75 402.5L400.75 402.5L400.75 439.75C400.75 454.5 411 460 420.5 460ZM401.5 370.25L337 370.25L337 368.5L400.25 228.25L401.5 228.25Z" fill="black" fill-opacity="0.85"/>
 </g>
</svg>
