<?xml version="1.0" encoding="UTF-8"?>
<!--Generator: Apple Native CoreSVG 326-->
<!DOCTYPE svg
PUBLIC "-//W3C//DTD SVG 1.1//EN"
       "http://www.w3.org/Graphics/SVG/1.1/DTD/svg11.dtd">
<svg version="1.1" xmlns="http://www.w3.org/2000/svg" xmlns:xlink="http://www.w3.org/1999/xlink" viewBox="0 0 651.25 651.75">
 <g>
  <rect height="651.75" opacity="0" width="651.25" x="0" y="0"/>
  <path d="M651.25 325.75C651.25 505 505 651.25 325.5 651.25C146.25 651.25 0 505 0 325.75C0 146.25 146.25 0 325.5 0C505 0 651.25 146.25 651.25 325.75ZM372.75 216.75L308.75 352.5C303.75 363.75 302 371.25 302 380.5C302 394.75 311.75 404.5 326.5 404.5L403.25 404.5L403.25 442.5C403.25 457.5 414 463.5 423.5 463.5C434.5 463.5 443.5 456.25 443.5 442.5L443.5 404.5L457.25 404.5C468.5 404.5 474 397.25 474 387.25C474 377.75 468.75 370.5 457.25 370.5L443.5 370.5L443.5 219.5C443.5 198.5 429.75 188 411.25 188C390.75 188 381 198.5 372.75 216.75ZM199.5 200L161 230.75C155.75 234.75 151.75 240.25 151.75 247.75C151.75 257 158 263.5 167 263.5C171.75 263.5 174.5 262 177.75 259.5L210.25 233.25L210.25 441.25C210.25 453.25 220 462.75 232 462.75C243.25 462.75 252.75 453.25 252.75 441.25L252.75 211.75C252.75 197 243.5 188 228.5 188C216.5 188 206.5 194.75 199.5 200ZM404 371.25L338.25 371.25L338.25 369.5L403 226L404 226Z" fill="black" fill-opacity="0.85"/>
 </g>
</svg>
