<?xml version="1.0" encoding="UTF-8"?>
<!--Generator: Apple Native CoreSVG 326-->
<!DOCTYPE svg
PUBLIC "-//W3C//DTD SVG 1.1//EN"
       "http://www.w3.org/Graphics/SVG/1.1/DTD/svg11.dtd">
<svg version="1.1" xmlns="http://www.w3.org/2000/svg" xmlns:xlink="http://www.w3.org/1999/xlink" viewBox="0 0 587.75 587.75">
 <g>
  <rect height="587.75" opacity="0" width="587.75" x="0" y="0"/>
  <path d="M587.75 96.5L587.75 491.5C587.75 555 555 587.75 490.25 587.75L97.25 587.75C32.75 587.75 0 555.5 0 491.5L0 96.5C0 32.5 32.75 0 97.25 0L490.25 0C555 0 587.75 32.75 587.75 96.5ZM341.25 184.75L277.25 320.5C272.25 331.75 270.5 339.25 270.5 348.5C270.5 362.75 280.25 372.5 295 372.5L371.75 372.5L371.75 410.5C371.75 425.5 382.25 431.5 392 431.5C403 431.5 411.75 424.25 411.75 410.5L411.75 372.5L425.75 372.5C437 372.5 442.5 365.25 442.5 355.25C442.5 345.75 437.25 338.5 425.75 338.5L411.75 338.5L411.75 187.5C411.75 166.5 398.25 156 379.75 156C359.25 156 349.5 166.5 341.25 184.75ZM168 168L129.5 198.75C124.25 202.75 120.25 208.25 120.25 215.75C120.25 225 126.5 231.5 135.5 231.5C140.25 231.5 143 230 146 227.5L178.75 201.25L178.75 409.25C178.75 421.25 188.5 430.75 200.25 430.75C211.5 430.75 221.25 421.25 221.25 409.25L221.25 179.75C221.25 165 211.75 156 197 156C185 156 175 162.75 168 168ZM372.5 339.25L306.75 339.25L306.75 337.5L371.25 194L372.5 194Z" fill="black" fill-opacity="0.85"/>
 </g>
</svg>
