<?xml version="1.0" encoding="UTF-8"?>
<!--Generator: Apple Native CoreSVG 326-->
<!DOCTYPE svg
PUBLIC "-//W3C//DTD SVG 1.1//EN"
       "http://www.w3.org/Graphics/SVG/1.1/DTD/svg11.dtd">
<svg version="1.1" xmlns="http://www.w3.org/2000/svg" xmlns:xlink="http://www.w3.org/1999/xlink" viewBox="0 0 587.75 587.75">
 <g>
  <rect height="587.75" opacity="0" width="587.75" x="0" y="0"/>
  <path d="M587.75 96.5L587.75 491.5C587.75 555 555 587.75 490.25 587.75L97.25 587.75C32.75 587.75 0 555.5 0 491.5L0 96.5C0 32.5 32.75 0 97.25 0L490.25 0C555 0 587.75 32.75 587.75 96.5ZM318.5 160C302.75 160 296 170.25 294.5 185.75L288.75 280C288.25 285.25 288.25 290.5 288.25 294.75C288.25 306 294.25 315.75 307.5 315.75C316 315.75 320.75 312 326.75 303.75C334.5 291.5 344 283 358.5 283C384.5 283 395.25 314.25 395.25 340.25C395.25 369.75 384 399.5 357.75 399.5C337.75 399.5 325.75 384.25 320 364.5C316.75 354.5 310.25 350.25 302.25 350.25C291.5 350.25 284.75 357.25 284.75 368C284.75 374.5 286.5 381.5 288.75 387.25C299.5 415 327.75 433.75 358.25 433.75C408.5 433.75 436 390.25 436 339.25C436 294 414.25 251.75 371.5 251.75C352.5 251.75 333.75 260.75 325.25 280.75L323.5 280.75L329.75 194.75L408.75 194.75C419 194.75 425.25 187.75 425.25 177.25C425.25 167.5 418.5 160 408.75 160ZM174.25 168L135.75 198.75C130.75 202.75 126.75 208.25 126.75 215.75C126.75 225 132.75 231.5 141.75 231.5C146.5 231.5 149.25 230 152.25 227.5L185.25 201.25L185.25 409.25C185.25 421.25 194.75 430.75 206.5 430.75C218 430.75 227.5 421.25 227.5 409.25L227.5 179.75C227.5 165 218.25 156 203.5 156C191.25 156 181.25 162.75 174.25 168Z" fill="black" fill-opacity="0.85"/>
 </g>
</svg>
