<?xml version="1.0" encoding="UTF-8"?>
<!--Generator: Apple Native CoreSVG 326-->
<!DOCTYPE svg
PUBLIC "-//W3C//DTD SVG 1.1//EN"
       "http://www.w3.org/Graphics/SVG/1.1/DTD/svg11.dtd">
<svg version="1.1" xmlns="http://www.w3.org/2000/svg" xmlns:xlink="http://www.w3.org/1999/xlink" viewBox="0 0 587.75 587.75">
 <g>
  <rect height="587.75" opacity="0" width="587.75" x="0" y="0"/>
  <path d="M97.25 587.75L490.25 587.75C555 587.75 587.75 555 587.75 491.5L587.75 96.5C587.75 32.75 555 0 490.25 0L97.25 0C32.75 0 0 32.5 0 96.5L0 491.5C0 555.5 32.75 587.75 97.25 587.75ZM98.25 543.5C63.25 543.5 44.25 525 44.25 489L44.25 98.75C44.25 63 63.25 44.25 98.25 44.25L489.5 44.25C523.75 44.25 543.5 63 543.5 98.75L543.5 489C543.5 525 523.75 543.5 489.5 543.5Z" fill="black" fill-opacity="0.85"/>
  <path d="M208.5 427.5C219.5 427.5 228.75 418.25 228.75 406.75L228.75 182.25C228.75 168 219.75 159.5 205.5 159.5C193.5 159.5 184 165.75 177.25 171.25L139.5 201C134.5 205 130.75 210.25 130.75 217.5C130.75 226.5 136.75 232.75 145.25 232.75C149.75 232.75 152.5 231.25 155.5 229L187.75 203.25L187.75 406.75C187.75 418.25 197 427.5 208.5 427.5ZM356.25 430.5C405.25 430.5 431.75 388 431.75 338.25C431.75 294 410.5 252.75 369 252.75C350.5 252.75 332.25 261.5 323.75 281.25L322.25 281.25L328.25 197L405.5 197C415.5 197 421.5 190 421.5 180.25C421.5 170.75 415 163.5 405.5 163.5L317.5 163.5C302.25 163.5 295.5 173.25 294.25 188.25L288.5 280.5C288 285.5 288 290.75 288 294.75C288 305.75 293.75 315.25 306.75 315.25C315 315.25 319.5 311.5 325.25 303.5C333 291.5 342.25 283 356.5 283C382 283 392.5 313.75 392.5 339.25C392.5 368 381.5 397.25 355.75 397.25C336.25 397.25 324.25 382.25 318.75 363C315.5 353.25 309.25 349 301.5 349C291 349 284.5 355.75 284.5 366.25C284.5 372.5 286.25 379.25 288.5 385C299 412 326.5 430.5 356.25 430.5Z" fill="black" fill-opacity="0.85"/>
 </g>
</svg>
