<?xml version="1.0" encoding="UTF-8"?>
<!--Generator: Apple Native CoreSVG 326-->
<!DOCTYPE svg
PUBLIC "-//W3C//DTD SVG 1.1//EN"
       "http://www.w3.org/Graphics/SVG/1.1/DTD/svg11.dtd">
<svg version="1.1" xmlns="http://www.w3.org/2000/svg" xmlns:xlink="http://www.w3.org/1999/xlink" viewBox="0 0 651.25 651.75">
 <g>
  <rect height="651.75" opacity="0" width="651.25" x="0" y="0"/>
  <path d="M325.5 651.25C505.25 651.25 651.25 505.5 651.25 325.75C651.25 146 505.25 0 325.5 0C145.75 0 0 146 0 325.75C0 505.5 145.75 651.25 325.5 651.25ZM325.5 604.75C171.25 604.75 46.5 480 46.5 325.75C46.5 171.5 171.25 46.75 325.5 46.75C479.75 46.75 604.5 171.5 604.5 325.75C604.5 480 479.75 604.75 325.5 604.75Z" fill="black" fill-opacity="0.85"/>
  <path d="M235 459.5C246 459.5 255.5 450.25 255.5 438.75L255.5 214.25C255.5 200 246.25 191.5 232 191.5C220.25 191.5 210.5 197.75 203.75 203.25L166 233C161 237 157.25 242.25 157.25 249.5C157.25 258.5 163.25 264.75 172 264.75C176.5 264.75 179.25 263.25 182 261L214.25 235.25L214.25 438.75C214.25 450.25 223.75 459.5 235 459.5ZM389.75 462.5C437.75 462.5 465 421 465 371C465 327.5 444 285.75 401 285.75C373.75 285.75 354 304.75 347 333L345.75 333C345.75 331.75 345.75 330.25 345.75 329C345.75 291.25 350.75 222.75 389.25 222.75C405.75 222.75 416.5 234.75 422.25 250.25C426.25 259 431.25 263.75 440.75 263.75C452 263.75 457 256.25 457 246.75C457 243.25 456.5 239.25 455.5 235C448.25 207 421.75 189.5 390.25 189.5C325.5 189.5 307.25 265.75 307.25 329.5C307.25 390.25 326.25 462.5 389.75 462.5ZM389.25 429.25C363 429.25 351.5 397 351.5 371.25C351.5 345.75 364 317 389 317C415 317 426.25 346.75 425.75 372.75C425.75 398.5 413.75 429.25 389.25 429.25Z" fill="black" fill-opacity="0.85"/>
 </g>
</svg>
