<?xml version="1.0" encoding="UTF-8"?>
<!--Generator: Apple Native CoreSVG 326-->
<!DOCTYPE svg
PUBLIC "-//W3C//DTD SVG 1.1//EN"
       "http://www.w3.org/Graphics/SVG/1.1/DTD/svg11.dtd">
<svg version="1.1" xmlns="http://www.w3.org/2000/svg" xmlns:xlink="http://www.w3.org/1999/xlink" viewBox="0 0 587.75 587.75">
 <g>
  <rect height="587.75" opacity="0" width="587.75" x="0" y="0"/>
  <path d="M587.75 96.5L587.75 491.5C587.75 555 555 587.75 490.25 587.75L97.25 587.75C32.75 587.75 0 555.5 0 491.5L0 96.5C0 32.5 32.75 0 97.25 0L490.25 0C555 0 587.75 32.75 587.75 96.5ZM276 297.5C276 359.75 295.5 433.75 360.5 433.75C409.75 433.75 437.75 391.25 437.75 340C437.75 295.5 416.25 252.75 372.25 252.75C344.5 252.75 324.25 272.25 317 301L315.75 301C315.75 299.75 315.75 298.25 315.75 297C315.75 258.5 320.75 188.5 360 188.5C377 188.5 387.75 200.75 393.75 216.5C397.75 225.5 403 230 412.75 230C424.5 230 429.75 222.5 429.75 212.75C429.75 209.25 429 205 428 200.75C420.75 172 393.5 154.25 361 154.25C294.75 154.25 276 232.25 276 297.5ZM169.5 168L131 198.75C125.75 202.75 122 208.25 122 215.75C122 225 128 231.5 137 231.5C141.5 231.5 144.5 230 147.5 227.5L180.25 201.25L180.25 409.25C180.25 421.25 190 430.75 201.75 430.75C213.25 430.75 222.75 421.25 222.75 409.25L222.75 179.75C222.75 165 213.5 156 198.75 156C186.25 156 176.5 162.75 169.5 168ZM397.25 342C397.25 368.25 385.25 399.5 360 399.5C333.25 399.5 321.5 366.5 321.5 340.25C321.5 314.25 334.25 285 359.75 285C386.25 285 397.75 315.5 397.25 342Z" fill="black" fill-opacity="0.85"/>
 </g>
</svg>
