<?xml version="1.0" encoding="UTF-8"?>
<!--Generator: Apple Native CoreSVG 326-->
<!DOCTYPE svg
PUBLIC "-//W3C//DTD SVG 1.1//EN"
       "http://www.w3.org/Graphics/SVG/1.1/DTD/svg11.dtd">
<svg version="1.1" xmlns="http://www.w3.org/2000/svg" xmlns:xlink="http://www.w3.org/1999/xlink" viewBox="0 0 651.25 651.75">
 <g>
  <rect height="651.75" opacity="0" width="651.25" x="0" y="0"/>
  <path d="M325.5 651.25C505.25 651.25 651.25 505.5 651.25 325.75C651.25 146 505.25 0 325.5 0C145.75 0 0 146 0 325.75C0 505.5 145.75 651.25 325.5 651.25ZM325.5 604.75C171.25 604.75 46.5 480 46.5 325.75C46.5 171.5 171.25 46.75 325.5 46.75C479.75 46.75 604.5 171.5 604.5 325.75C604.5 480 479.75 604.75 325.5 604.75Z" fill="black" fill-opacity="0.85"/>
  <path d="M253.75 459.5C264.75 459.5 274 450.25 274 438.75L274 214.25C274 200 265 191.5 250.75 191.5C238.75 191.5 229.25 197.75 222.5 203.25L184.75 233C179.75 237 176 242.25 176 249.5C176 258.5 181.75 264.75 190.5 264.75C195 264.75 197.75 263.25 200.75 261L233 235.25L233 438.75C233 450.25 242.25 459.5 253.75 459.5ZM364.5 460.25C375 460.25 379.75 455.75 383.5 445.75L459.75 241.25C463 232.75 465.25 225.75 465.25 217.25C465.25 204.25 455.25 195.5 442 195.5L337.25 195.5C327.5 195.5 320.75 202.5 320.75 212.25C320.75 222 327.5 229 337.25 229L424 229L424 231.5L349.5 425.75C347 432 346 436 346 442.5C346 451.25 351.5 460.25 364.5 460.25Z" fill="black" fill-opacity="0.85"/>
 </g>
</svg>
