<?xml version="1.0" encoding="UTF-8"?>
<!--Generator: Apple Native CoreSVG 326-->
<!DOCTYPE svg
PUBLIC "-//W3C//DTD SVG 1.1//EN"
       "http://www.w3.org/Graphics/SVG/1.1/DTD/svg11.dtd">
<svg version="1.1" xmlns="http://www.w3.org/2000/svg" xmlns:xlink="http://www.w3.org/1999/xlink" viewBox="0 0 651.25 651.75">
 <g>
  <rect height="651.75" opacity="0" width="651.25" x="0" y="0"/>
  <path d="M651.25 325.75C651.25 505 505 651.25 325.5 651.25C146.25 651.25 0 505 0 325.75C0 146.25 146.25 0 325.5 0C505 0 651.25 146.25 651.25 325.75ZM338 192C328 192 321 199.25 321 209.25C321 219.5 328 226.75 338 226.75L426.75 226.75L426.75 229.5L350.5 428C348 434.75 347 438.5 347 445.25C347 454.25 352.75 463.5 366 463.5C377 463.5 381.75 459.25 385.75 448.5L464 239.5C467 230.75 469.25 223.5 469.25 214.75C469.25 201 459 192 445.25 192ZM220 200L181.5 230.75C176.25 234.75 172.5 240.25 172.5 247.75C172.5 257 178.5 263.5 187.5 263.5C192 263.5 195 262 198 259.5L231 233.25L231 441.25C231 453.25 240.5 462.75 252.25 462.75C263.75 462.75 273.25 453.25 273.25 441.25L273.25 211.75C273.25 197 264 188 249.25 188C236.75 188 227 194.75 220 200Z" fill="black" fill-opacity="0.85"/>
 </g>
</svg>
