<?xml version="1.0" encoding="UTF-8"?>
<!--Generator: Apple Native CoreSVG 326-->
<!DOCTYPE svg
PUBLIC "-//W3C//DTD SVG 1.1//EN"
       "http://www.w3.org/Graphics/SVG/1.1/DTD/svg11.dtd">
<svg version="1.1" xmlns="http://www.w3.org/2000/svg" xmlns:xlink="http://www.w3.org/1999/xlink" viewBox="0 0 587.75 587.75">
 <g>
  <rect height="587.75" opacity="0" width="587.75" x="0" y="0"/>
  <path d="M587.75 96.5L587.75 491.5C587.75 555 555 587.75 490.25 587.75L97.25 587.75C32.75 587.75 0 555.5 0 491.5L0 96.5C0 32.5 32.75 0 97.25 0L490.25 0C555 0 587.75 32.75 587.75 96.5ZM306.5 160C296.5 160 289.5 167.25 289.5 177.25C289.5 187.5 296.5 194.75 306.5 194.75L395.25 194.75L395.25 197.5L319 396C316.5 402.75 315.5 406.5 315.5 413.25C315.5 422.25 321.25 431.5 334.5 431.5C345.5 431.5 350.25 427.25 354.25 416.5L432.5 207.5C435.5 198.75 437.75 191.5 437.75 182.75C437.75 169 427.5 160 413.75 160ZM188.5 168L150 198.75C144.75 202.75 141 208.25 141 215.75C141 225 147 231.5 156 231.5C160.5 231.5 163.5 230 166.5 227.5L199.5 201.25L199.5 409.25C199.5 421.25 209 430.75 220.75 430.75C232.25 430.75 241.75 421.25 241.75 409.25L241.75 179.75C241.75 165 232.5 156 217.5 156C205.25 156 195.5 162.75 188.5 168Z" fill="black" fill-opacity="0.85"/>
 </g>
</svg>
