<?xml version="1.0" encoding="UTF-8"?>
<!--Generator: Apple Native CoreSVG 326-->
<!DOCTYPE svg
PUBLIC "-//W3C//DTD SVG 1.1//EN"
       "http://www.w3.org/Graphics/SVG/1.1/DTD/svg11.dtd">
<svg version="1.1" xmlns="http://www.w3.org/2000/svg" xmlns:xlink="http://www.w3.org/1999/xlink" viewBox="0 0 587.75 587.75">
 <g>
  <rect height="587.75" opacity="0" width="587.75" x="0" y="0"/>
  <path d="M97.25 587.75L490.25 587.75C555 587.75 587.75 555 587.75 491.5L587.75 96.5C587.75 32.75 555 0 490.25 0L97.25 0C32.75 0 0 32.5 0 96.5L0 491.5C0 555.5 32.75 587.75 97.25 587.75ZM98.25 543.5C63.25 543.5 44.25 525 44.25 489L44.25 98.75C44.25 63 63.25 44.25 98.25 44.25L489.5 44.25C523.75 44.25 543.5 63 543.5 98.75L543.5 489C543.5 525 523.75 543.5 489.5 543.5Z" fill="black" fill-opacity="0.85"/>
  <path d="M208.5 427.5C219.5 427.5 228.75 418.25 228.75 406.75L228.75 182.25C228.75 168 219.75 159.5 205.25 159.5C193.5 159.5 183.75 165.75 177 171.25L139.25 201C134.25 205 130.5 210.25 130.5 217.5C130.5 226.5 136.5 232.75 145.25 232.75C149.75 232.75 152.5 231.25 155.5 229L187.75 203.25L187.75 406.75C187.75 418.25 197 427.5 208.5 427.5ZM360.25 429.5C409.5 429.5 441.25 397.5 441.25 353.75C441.25 319.25 419.75 293 393.75 287L393.75 286C416 279 434 257.25 434 228C434 187.25 404.5 158.25 360.25 158.25C320.5 158.25 286.75 183.75 286.75 227.75C286.75 259.25 305.75 279.25 327.5 286L327.5 287C300 293.25 279.5 319.5 279.5 353.75C279.5 399.75 313.5 429.5 360.25 429.5ZM360.25 272.75C339 272.75 326 253.5 326 231.75C326 209 338.75 189 360.25 189C383 189 394.5 209.75 394.5 231.75C394.5 254.5 381.75 272.75 360.25 272.75ZM360.25 398.5C335 398.5 321.5 376.25 321.5 350.75C321.5 325.25 335.25 304 360.25 304C384.5 304 399 323.75 399 350.75C399 376.25 385.75 398.5 360.25 398.5Z" fill="black" fill-opacity="0.85"/>
 </g>
</svg>
