<?xml version="1.0" encoding="UTF-8"?>
<!--Generator: Apple Native CoreSVG 326-->
<!DOCTYPE svg
PUBLIC "-//W3C//DTD SVG 1.1//EN"
       "http://www.w3.org/Graphics/SVG/1.1/DTD/svg11.dtd">
<svg version="1.1" xmlns="http://www.w3.org/2000/svg" xmlns:xlink="http://www.w3.org/1999/xlink" viewBox="0 0 587.75 587.75">
 <g>
  <rect height="587.75" opacity="0" width="587.75" x="0" y="0"/>
  <path d="M587.75 96.5L587.75 491.5C587.75 555 555 587.75 490.25 587.75L97.25 587.75C32.75 587.75 0 555.5 0 491.5L0 96.5C0 32.5 32.75 0 97.25 0L490.25 0C555 0 587.75 32.75 587.75 96.5ZM286.75 226C286.75 258.5 306.25 279 328.5 285.75L328.5 286.75C300.5 293.25 279.25 320 279.25 355.25C279.25 402.75 314.25 432.75 362.25 432.75C412.75 432.75 445.25 400 445.25 355.25C445.25 319.75 423.25 293 396.75 286.75L396.75 285.75C419.5 278.75 438 256.5 438 226.25C438 184.5 407.5 155 362.25 155C321.5 155 286.75 181 286.75 226ZM174 168L135.5 198.75C130.25 202.75 126.5 208.25 126.5 215.75C126.5 225 132.5 231.5 141.5 231.5C146.25 231.5 149 230 152 227.5L184.75 201.25L184.75 409.25C184.75 421.25 194.5 430.75 206.25 430.75C217.75 430.75 227.5 421.25 227.5 409.25L227.5 179.75C227.5 165 218 156 203.25 156C191 156 181 162.75 174 168ZM402 352C402 378 388.25 400.75 362.25 400.75C336.5 400.75 322.75 378 322.75 352C322.75 326 336.75 304.25 362.25 304.25C387 304.25 402 324.5 402 352ZM397.25 230.25C397.25 253.5 384.25 272.25 362.25 272.25C340.5 272.25 327.5 252.5 327.5 230.25C327.5 207 340.25 186.75 362.25 186.75C385.75 186.75 397.25 207.75 397.25 230.25Z" fill="black" fill-opacity="0.85"/>
 </g>
</svg>
