<?xml version="1.0" encoding="UTF-8"?>
<!--Generator: Apple Native CoreSVG 326-->
<!DOCTYPE svg
PUBLIC "-//W3C//DTD SVG 1.1//EN"
       "http://www.w3.org/Graphics/SVG/1.1/DTD/svg11.dtd">
<svg version="1.1" xmlns="http://www.w3.org/2000/svg" xmlns:xlink="http://www.w3.org/1999/xlink" viewBox="0 0 651.25 651.75">
 <g>
  <rect height="651.75" opacity="0" width="651.25" x="0" y="0"/>
  <path d="M325.5 651.25C505.25 651.25 651.25 505.5 651.25 325.75C651.25 146 505.25 0 325.5 0C145.75 0 0 146 0 325.75C0 505.5 145.75 651.25 325.5 651.25ZM325.5 604.75C171.25 604.75 46.5 480 46.5 325.75C46.5 171.5 171.25 46.75 325.5 46.75C479.75 46.75 604.5 171.5 604.5 325.75C604.5 480 479.75 604.75 325.5 604.75Z" fill="black" fill-opacity="0.85"/>
  <path d="M239.5 459.5C250.5 459.5 260 450.25 260 438.75L260 214.25C260 200 250.75 191.5 236.5 191.5C224.75 191.5 215 197.75 208.25 203.25L170.5 233C165.5 237 161.75 242.25 161.75 249.5C161.75 258.5 167.75 264.75 176.5 264.75C181 264.75 183.75 263.25 186.5 261L218.75 235.25L218.75 438.75C218.75 450.25 228.25 459.5 239.5 459.5ZM373.25 366C400.5 366 420.25 347.25 427.25 319L428.5 319C428.5 320.25 428.5 321.75 428.5 323C428.5 360.75 423.75 428.5 384.75 428.5C368.5 428.5 358 417.25 352 401.25C347.75 391.25 342.25 387.25 333.75 387.25C322 387.25 316.75 395.25 316.75 404.75C316.75 408.25 317.5 412.5 318.75 416.5C326 445 352.75 462 384.25 462C449 462 467 387 467 322.5C467 261.75 448.25 189.5 384.75 189.5C337 189.5 309.5 231 309.5 281.25C309.5 324.5 330.5 366 373.25 366ZM385.25 334.5C359.5 334.5 348.5 305.25 348.5 279.5C348.5 253 360.5 222.75 385.25 222.75C411.5 222.75 422.75 253.25 422.75 279.5C422.75 306.25 410.25 334.5 385.25 334.5Z" fill="black" fill-opacity="0.85"/>
 </g>
</svg>
