<?xml version="1.0" encoding="UTF-8"?>
<!--Generator: Apple Native CoreSVG 326-->
<!DOCTYPE svg
PUBLIC "-//W3C//DTD SVG 1.1//EN"
       "http://www.w3.org/Graphics/SVG/1.1/DTD/svg11.dtd">
<svg version="1.1" xmlns="http://www.w3.org/2000/svg" xmlns:xlink="http://www.w3.org/1999/xlink" viewBox="0 0 587.75 587.75">
 <g>
  <rect height="587.75" opacity="0" width="587.75" x="0" y="0"/>
  <path d="M587.75 96.5L587.75 491.5C587.75 555 555 587.75 490.25 587.75L97.25 587.75C32.75 587.75 0 555.5 0 491.5L0 96.5C0 32.5 32.75 0 97.25 0L490.25 0C555 0 587.75 32.75 587.75 96.5ZM278.25 248C278.25 292.5 299.75 335 343.5 335C371.25 335 391.5 315.75 399 287L400 287C400 288.25 400 289.75 400 291C400 329.5 395.25 399 355.5 399C338.75 399 328.25 387.25 322 371C317.75 360.75 312 356.75 303.25 356.75C290.75 356.75 285.75 365 285.75 374.75C285.75 378.5 286.5 382.75 287.75 386.75C295 416 322.5 433.25 354.75 433.25C421.25 433.25 440 356.5 440 290.5C440 228.25 420.5 154.25 355.5 154.25C306.5 154.25 278.25 196.75 278.25 248ZM174 168L135.5 198.75C130.25 202.75 126.5 208.25 126.5 215.75C126.5 225 132.75 231.5 141.75 231.5C146.25 231.5 149.25 230 152 227.5L185 201.25L185 409.25C185 421.25 194.5 430.75 206.25 430.75C217.75 430.75 227.5 421.25 227.5 409.25L227.5 179.75C227.5 165 218 156 203.25 156C190.75 156 181 162.75 174 168ZM394 246.25C394 273.75 381.5 302.5 356 302.5C329.75 302.5 318.5 272.5 318.5 246.25C318.5 219.25 330.75 188.5 356 188.5C382.75 188.5 394 219.5 394 246.25Z" fill="black" fill-opacity="0.85"/>
 </g>
</svg>
