<?xml version="1.0" encoding="UTF-8"?>
<!--Generator: Apple Native CoreSVG 326-->
<!DOCTYPE svg
PUBLIC "-//W3C//DTD SVG 1.1//EN"
       "http://www.w3.org/Graphics/SVG/1.1/DTD/svg11.dtd">
<svg version="1.1" xmlns="http://www.w3.org/2000/svg" xmlns:xlink="http://www.w3.org/1999/xlink" viewBox="0 0 651.25 651.75">
 <g>
  <rect height="651.75" opacity="0" width="651.25" x="0" y="0"/>
  <path d="M325.5 651.25C505.25 651.25 651.25 505.5 651.25 325.75C651.25 146 505.25 0 325.5 0C145.75 0 0 146 0 325.75C0 505.5 145.75 651.25 325.5 651.25ZM325.5 604.75C171.25 604.75 46.5 480 46.5 325.75C46.5 171.5 171.25 46.75 325.5 46.75C479.75 46.75 604.5 171.5 604.5 325.75C604.5 480 479.75 604.75 325.5 604.75Z" fill="black" fill-opacity="0.85"/>
  <path d="M252.5 471L418 471C428.75 471 436.5 463.75 436.5 452.75C436.5 441.25 428.75 434.25 418 434.25L293.75 434.25L293.75 432.25L374.75 344.75C404.5 312.75 422.75 287.75 422.75 254C422.75 205.5 384.75 173.75 327 173.75C281.5 173.75 241.5 201.25 232.25 238C231 242.25 230.75 246 230.75 250C230.75 260.75 238 268 249 268C259.25 268 264.5 262 268.75 253.5C276.25 231 295.5 209.25 328.75 209.25C361.5 209.25 383 228.25 383 256.75C383 280.25 365.25 300.25 345.25 321.75L240 435.5C235 441 232.5 446.25 232.5 452.5C232.5 463.75 240 471 252.5 471Z" fill="black" fill-opacity="0.85"/>
 </g>
</svg>
