<?xml version="1.0" encoding="UTF-8"?>
<!--Generator: Apple Native CoreSVG 326-->
<!DOCTYPE svg
PUBLIC "-//W3C//DTD SVG 1.1//EN"
       "http://www.w3.org/Graphics/SVG/1.1/DTD/svg11.dtd">
<svg version="1.1" xmlns="http://www.w3.org/2000/svg" xmlns:xlink="http://www.w3.org/1999/xlink" viewBox="0 0 587.75 587.75">
 <g>
  <rect height="587.75" opacity="0" width="587.75" x="0" y="0"/>
  <path d="M97.25 587.75L490.25 587.75C555 587.75 587.75 555 587.75 491.5L587.75 96.5C587.75 32.75 555 0 490.25 0L97.25 0C32.75 0 0 32.5 0 96.5L0 491.5C0 555.5 32.75 587.75 97.25 587.75ZM98.25 543.5C63.25 543.5 44.25 525 44.25 489L44.25 98.75C44.25 63 63.25 44.25 98.25 44.25L489.5 44.25C523.75 44.25 543.5 63 543.5 98.75L543.5 489C543.5 525 523.75 543.5 489.5 543.5Z" fill="black" fill-opacity="0.85"/>
  <path d="M145.5 424.25L257 424.25C267 424.25 273.25 417.5 273.25 407.5C273.25 397 266.75 390.75 257 390.75L176.75 390.75L176.75 388.5L227.25 322.25C258 283.25 268 259.5 268 231.5C268 188.75 240.5 157 196.75 157C156.5 157 126.75 191.25 126.75 225C126.75 235.25 132.75 242.75 143.75 242.75C153 242.75 159 238.5 161.5 229.25C167.25 205.5 176.25 190 196.75 190C218.5 190 229.75 210 229.75 233.25C229.75 258.75 214 283.75 196 307.25L136.5 385.25C131.25 392 126.25 399 126.25 407.5C126.25 417.25 132.75 424.25 145.5 424.25ZM388.75 430.5C452 430.5 469.75 356.5 469.75 293.75C469.75 231 452 157 388.75 157C325.75 157 308 231 308 293.75C308 356.5 325.75 430.5 388.75 430.5ZM388.75 396.75C358.5 396.75 349.25 347.25 349.25 293.75C349.25 240 358.5 190.75 388.75 190.75C419.25 190.75 428.5 240 428.5 293.75C428.5 347.25 419.25 396.75 388.75 396.75Z" fill="black" fill-opacity="0.85"/>
 </g>
</svg>
