<?xml version="1.0" encoding="UTF-8"?>
<!--Generator: Apple Native CoreSVG 326-->
<!DOCTYPE svg
PUBLIC "-//W3C//DTD SVG 1.1//EN"
       "http://www.w3.org/Graphics/SVG/1.1/DTD/svg11.dtd">
<svg version="1.1" xmlns="http://www.w3.org/2000/svg" xmlns:xlink="http://www.w3.org/1999/xlink" viewBox="0 0 651.25 651.75">
 <g>
  <rect height="651.75" opacity="0" width="651.25" x="0" y="0"/>
  <path d="M325.5 651.25C505.25 651.25 651.25 505.5 651.25 325.75C651.25 146 505.25 0 325.5 0C145.75 0 0 146 0 325.75C0 505.5 145.75 651.25 325.5 651.25ZM325.5 604.75C171.25 604.75 46.5 480 46.5 325.75C46.5 171.5 171.25 46.75 325.5 46.75C479.75 46.75 604.5 171.5 604.5 325.75C604.5 480 479.75 604.75 325.5 604.75Z" fill="black" fill-opacity="0.85"/>
  <path d="M199.25 456.25L311 456.25C321 456.25 327.25 449.5 327.25 439.5C327.25 429 320.75 422.75 311 422.75L230.5 422.75L230.5 420.5L281.25 354.25C311.75 315.25 322 291.5 322 263.5C322 220.75 294.25 189 250.75 189C210.25 189 180.75 223.25 180.75 257C180.75 267.25 186.75 274.75 197.75 274.75C207 274.75 212.75 270.5 215.5 261.25C221.25 237.5 230.25 222 250.5 222C272.5 222 283.75 242 283.75 265.25C283.75 290.75 268 315.75 250 339.25L190.5 417.25C185.25 424 180.25 431 180.25 439.5C180.25 449.25 186.75 456.25 199.25 456.25ZM433 459.5C444 459.5 453.5 450.25 453.5 438.75L453.5 214.25C453.5 200 444.25 191.5 430 191.5C418.25 191.5 408.5 197.75 401.75 203.25L364 233C359 237 355.25 242.25 355.25 249.5C355.25 258.5 361.25 264.75 370 264.75C374.5 264.75 377.25 263.25 380 261L412.25 235.25L412.25 438.75C412.25 450.25 421.75 459.5 433 459.5Z" fill="black" fill-opacity="0.85"/>
 </g>
</svg>
