<?xml version="1.0" encoding="UTF-8"?>
<!--Generator: Apple Native CoreSVG 326-->
<!DOCTYPE svg
PUBLIC "-//W3C//DTD SVG 1.1//EN"
       "http://www.w3.org/Graphics/SVG/1.1/DTD/svg11.dtd">
<svg version="1.1" xmlns="http://www.w3.org/2000/svg" xmlns:xlink="http://www.w3.org/1999/xlink" viewBox="0 0 587.75 587.75">
 <g>
  <rect height="587.75" opacity="0" width="587.75" x="0" y="0"/>
  <path d="M587.75 96.5L587.75 491.5C587.75 555 555 587.75 490.25 587.75L97.25 587.75C32.75 587.75 0 555.5 0 491.5L0 96.5C0 32.5 32.75 0 97.25 0L490.25 0C555 0 587.75 32.75 587.75 96.5ZM127.5 223.5C127.5 233.75 133.75 241.75 145 241.75C154.5 241.75 160.5 237.25 163.5 227.75C169.25 203.5 178.5 187.75 199.25 187.75C221.5 187.75 233 208 233 232C233 258 216.75 283.75 198.25 307.75L137.5 387.25C132.25 394.25 127 401.5 127 410.5C127 420.25 133.75 427.5 146.75 427.5L261 427.5C271.5 427.5 277.75 420.5 277.75 410.25C277.75 399.5 271.25 393 261 393L178.75 393L178.75 390.5L230.75 323.25C262.25 283 272.5 258.75 272.5 230C272.5 186.25 244.25 153.75 199.25 153.75C158 153.75 127.5 188.75 127.5 223.5ZM313.25 223.5C313.25 233.75 319.25 241.75 330.75 241.75C340.5 241.75 346.5 237.25 349.25 227.75C355 203.5 364.25 187.75 385 187.75C407.25 187.75 418.75 208 418.75 232C418.75 258 402.25 283.75 384 307.75L323.25 387.25C317.75 394.25 313 401.5 313 410.5C313 420.25 319.25 427.5 332.5 427.5L447 427.5C457.25 427.5 463.5 420.5 463.5 410.25C463.5 399.5 457 393 447 393L364.75 393L364.75 390.5L416.5 323.25C447.75 283 458.25 258.75 458.25 230C458.25 186.25 429.75 153.75 385 153.75C343.75 153.75 313.25 188.75 313.25 223.5Z" fill="black" fill-opacity="0.85"/>
 </g>
</svg>
