<?xml version="1.0" encoding="UTF-8"?>
<!--Generator: Apple Native CoreSVG 326-->
<!DOCTYPE svg
PUBLIC "-//W3C//DTD SVG 1.1//EN"
       "http://www.w3.org/Graphics/SVG/1.1/DTD/svg11.dtd">
<svg version="1.1" xmlns="http://www.w3.org/2000/svg" xmlns:xlink="http://www.w3.org/1999/xlink" viewBox="0 0 587.75 587.75">
 <g>
  <rect height="587.75" opacity="0" width="587.75" x="0" y="0"/>
  <path d="M97.25 587.75L490.25 587.75C555 587.75 587.75 555 587.75 491.5L587.75 96.5C587.75 32.75 555 0 490.25 0L97.25 0C32.75 0 0 32.5 0 96.5L0 491.5C0 555.5 32.75 587.75 97.25 587.75ZM98.25 543.5C63.25 543.5 44.25 525 44.25 489L44.25 98.75C44.25 63 63.25 44.25 98.25 44.25L489.5 44.25C523.75 44.25 543.5 63 543.5 98.75L543.5 489C543.5 525 523.75 543.5 489.5 543.5Z" fill="black" fill-opacity="0.85"/>
  <path d="M150.5 424.25L262 424.25C272 424.25 278.25 417.5 278.25 407.5C278.25 397 271.75 390.75 262 390.75L181.5 390.75L181.5 388.5L232.25 322.25C263 283.25 273 259.5 273 231.5C273 188.75 245.5 157 201.75 157C161.5 157 131.75 191.25 131.75 225C131.75 235.25 137.75 242.75 148.75 242.75C158 242.75 163.75 238.5 166.5 229.25C172.25 205.5 181.25 190 201.75 190C223.5 190 234.75 210 234.75 233.25C234.75 258.75 219 283.75 201 307.25L141.5 385.25C136.25 392 131.25 399 131.25 407.5C131.25 417.25 137.75 424.25 150.5 424.25ZM331.5 424.25L443 424.25C453 424.25 459.25 417.5 459.25 407.5C459.25 397 452.75 390.75 443 390.75L362.75 390.75L362.75 388.5L413.25 322.25C444 283.25 454.25 259.5 454.25 231.5C454.25 188.75 426.5 157 382.75 157C342.5 157 312.75 191.25 312.75 225C312.75 235.25 318.75 242.75 329.75 242.75C339.25 242.75 345 238.5 347.75 229.25C353.25 205.5 362.5 190 382.75 190C404.5 190 415.75 210 415.75 233.25C415.75 258.75 400 283.75 382 307.25L322.5 385.25C317.25 392 312.5 399 312.5 407.5C312.5 417.25 318.75 424.25 331.5 424.25Z" fill="black" fill-opacity="0.85"/>
 </g>
</svg>
