<?xml version="1.0" encoding="UTF-8"?>
<!--Generator: Apple Native CoreSVG 326-->
<!DOCTYPE svg
PUBLIC "-//W3C//DTD SVG 1.1//EN"
       "http://www.w3.org/Graphics/SVG/1.1/DTD/svg11.dtd">
<svg version="1.1" xmlns="http://www.w3.org/2000/svg" xmlns:xlink="http://www.w3.org/1999/xlink" viewBox="0 0 587.75 587.75">
 <g>
  <rect height="587.75" opacity="0" width="587.75" x="0" y="0"/>
  <path d="M97.25 587.75L490.25 587.75C555 587.75 587.75 555 587.75 491.5L587.75 96.5C587.75 32.75 555 0 490.25 0L97.25 0C32.75 0 0 32.5 0 96.5L0 491.5C0 555.5 32.75 587.75 97.25 587.75ZM98.25 543.5C63.25 543.5 44.25 525 44.25 489L44.25 98.75C44.25 63 63.25 44.25 98.25 44.25L489.5 44.25C523.75 44.25 543.5 63 543.5 98.75L543.5 489C543.5 525 523.75 543.5 489.5 543.5Z" fill="black" fill-opacity="0.85"/>
  <path d="M146.5 424.25L258 424.25C268 424.25 274.25 417.5 274.25 407.5C274.25 397 267.75 390.75 258 390.75L177.75 390.75L177.75 388.5L228.25 322.25C259 283.25 269 259.5 269 231.5C269 188.75 241.5 157 197.75 157C157.5 157 127.75 191.25 127.75 225C127.75 235.25 133.75 242.75 144.75 242.75C154 242.75 160 238.5 162.5 229.25C168.25 205.5 177.25 190 197.75 190C219.5 190 230.75 210 230.75 233.25C230.75 258.75 215 283.75 197 307.25L137.5 385.25C132.25 392 127.25 399 127.25 407.5C127.25 417.25 133.75 424.25 146.5 424.25ZM386.25 429.5C431.25 429.5 465.25 400.5 465.25 352.5C465.25 313.75 442.75 292.5 414.25 289.5L414.25 288.5C443.5 280.75 457.5 254.75 457.5 227.25C457.5 184 426.25 158.25 385 158.25C352 158.25 325.25 177 316 205.5C314.25 211.75 313.75 217.5 313.75 222.75C313.75 232 319.75 239.5 331 239.5C341 239.5 346.25 235.5 349 225.5C353.75 205.25 365 191 385 191C408 191 419.25 209 419.25 232C419.25 256.75 405 275.25 379.5 275.25L370.25 275.25C360.5 275.25 354.5 281.25 354.5 290.5C354.5 299.75 361 305.5 370.25 305.5L380 305.5C408.75 305.5 425 321.5 425 351.5C425 375.5 412.5 396.25 386.5 396.25C361.5 396.25 349.5 378.75 345.5 362.5C343 353 337.25 348 327.75 348C316.75 348 309.25 354.75 309.25 365.75C309.25 371.25 310.25 377.5 312 382.5C321.25 412 352 429.5 386.25 429.5Z" fill="black" fill-opacity="0.85"/>
 </g>
</svg>
