<?xml version="1.0" encoding="UTF-8"?>
<!--Generator: Apple Native CoreSVG 326-->
<!DOCTYPE svg
PUBLIC "-//W3C//DTD SVG 1.1//EN"
       "http://www.w3.org/Graphics/SVG/1.1/DTD/svg11.dtd">
<svg version="1.1" xmlns="http://www.w3.org/2000/svg" xmlns:xlink="http://www.w3.org/1999/xlink" viewBox="0 0 587.75 587.75">
 <g>
  <rect height="587.75" opacity="0" width="587.75" x="0" y="0"/>
  <path d="M587.75 96.5L587.75 491.5C587.75 555 555 587.75 490.25 587.75L97.25 587.75C32.75 587.75 0 555.5 0 491.5L0 96.5C0 32.5 32.75 0 97.25 0L490.25 0C555 0 587.75 32.75 587.75 96.5ZM316.5 203.25C314.75 209.75 314.25 215.75 314.25 221C314.25 230.5 320.25 238.25 332 238.25C342.25 238.25 347.75 234 350.5 224C355.75 203.25 366.75 188.75 387.25 188.75C410.75 188.75 422.25 207 422.25 230.5C422.25 255.75 407.75 274.75 381.5 274.75L372.25 274.75C362.25 274.75 356.25 281 356.25 290.5C356.25 300 362.75 306 372.25 306L382 306C411.5 306 428.25 322.25 428.25 353C428.25 377.5 415.25 398.5 388.75 398.5C363.25 398.5 351 380.75 347.25 364.25C344.25 354.25 338.5 349.25 328.75 349.25C317.25 349.25 309.5 356.25 309.5 367.5C309.5 373.25 310.5 379.5 312.25 384.75C321.75 415 353.5 432.75 388.5 432.75C434.75 432.75 469.5 403.25 469.5 354C469.5 314.25 446.75 292.5 417.25 289.5L417.25 288.5C447.25 280.5 462 253.75 462 225.75C462 181.25 429.5 155 387.25 155C353.5 155 326 174.25 316.5 203.25ZM123.5 223.25C123.5 233.75 129.5 241.75 141 241.75C150.5 241.75 156.75 237.25 159.25 227.75C165.25 203.5 174.25 187.75 195.25 187.75C217.5 187.75 229 208 229 231.75C229 258 212.75 283.75 194.25 307.5L133.5 387.25C128 394.25 123 401.25 123 410.5C123 420.25 129.5 427.5 142.75 427.5L257 427.5C267.25 427.5 273.75 420.5 273.75 410.25C273.75 399.25 267 392.75 257 392.75L175 392.75L175 390.5L226.5 323C258 283 268.5 258.75 268.5 230C268.5 186.25 240 153.75 195.25 153.75C154 153.75 123.5 188.75 123.5 223.25Z" fill="black" fill-opacity="0.85"/>
 </g>
</svg>
