<?xml version="1.0" encoding="UTF-8"?>
<!--Generator: Apple Native CoreSVG 326-->
<!DOCTYPE svg
PUBLIC "-//W3C//DTD SVG 1.1//EN"
       "http://www.w3.org/Graphics/SVG/1.1/DTD/svg11.dtd">
<svg version="1.1" xmlns="http://www.w3.org/2000/svg" xmlns:xlink="http://www.w3.org/1999/xlink" viewBox="0 0 651.25 651.75">
 <g>
  <rect height="651.75" opacity="0" width="651.25" x="0" y="0"/>
  <path d="M651.25 325.75C651.25 505 505 651.25 325.5 651.25C146.25 651.25 0 505 0 325.75C0 146.25 146.25 0 325.5 0C505 0 651.25 146.25 651.25 325.75ZM403.5 217L339.25 352.5C334.5 363.75 332.5 371.25 332.5 380.5C332.5 394.75 342.5 404.5 357 404.5L434 404.5L434 442.5C434 457.75 444.5 463.5 454 463.5C465.25 463.5 474 456.25 474 442.5L474 404.5L488 404.5C499.25 404.5 504.75 397.25 504.75 387.25C504.75 377.75 499.5 370.5 488 370.5L474 370.5L474 219.5C474 198.75 460.5 188 442 188C421.25 188 411.75 198.5 403.5 217ZM153.75 255.25C153.75 265.75 160 273.75 171.25 273.75C181 273.75 186.75 269.25 189.75 259.75C195.5 235.5 204.75 219.75 225.5 219.75C247.75 219.75 259.25 240 259.25 263.75C259.25 290 243 315.75 224.75 339.75L163.75 419.25C158.25 426.25 153.25 433.5 153.25 442.5C153.25 452.25 159.75 459.5 173 459.5L287.5 459.5C297.75 459.5 304.25 452.5 304.25 442.25C304.25 431.25 297.5 425 287.5 425L205.25 425L205.25 422.5L257 355C288.25 315 298.75 290.75 298.75 262C298.75 218.25 270.25 185.75 225.75 185.75C184.25 185.75 153.75 220.75 153.75 255.25ZM434.75 371.25L369 371.25L369 369.5L433.5 226L434.75 226Z" fill="black" fill-opacity="0.85"/>
 </g>
</svg>
