<?xml version="1.0" encoding="UTF-8"?>
<!--Generator: Apple Native CoreSVG 326-->
<!DOCTYPE svg
PUBLIC "-//W3C//DTD SVG 1.1//EN"
       "http://www.w3.org/Graphics/SVG/1.1/DTD/svg11.dtd">
<svg version="1.1" xmlns="http://www.w3.org/2000/svg" xmlns:xlink="http://www.w3.org/1999/xlink" viewBox="0 0 587.75 587.75">
 <g>
  <rect height="587.75" opacity="0" width="587.75" x="0" y="0"/>
  <path d="M587.75 96.5L587.75 491.5C587.75 555 555 587.75 490.25 587.75L97.25 587.75C32.75 587.75 0 555.5 0 491.5L0 96.5C0 32.5 32.75 0 97.25 0L490.25 0C555 0 587.75 32.75 587.75 96.5ZM372 185L307.75 320.5C303 331.75 301 339.25 301 348.5C301 362.75 311 372.5 325.5 372.5L402.5 372.5L402.5 410.5C402.5 425.75 413 431.5 422.5 431.5C433.5 431.5 442.5 424.25 442.5 410.5L442.5 372.5L456.5 372.5C467.75 372.5 473.25 365.25 473.25 355.25C473.25 345.75 467.75 338.5 456.5 338.5L442.5 338.5L442.5 187.5C442.5 166.75 429 156 410.5 156C389.75 156 380.25 166.5 372 185ZM122 223.25C122 233.75 128.25 241.75 139.5 241.75C149.5 241.75 155.25 237.25 158.25 227.75C163.75 203.5 173.25 187.75 194 187.75C216.25 187.75 227.75 208 227.75 231.75C227.75 258 211.25 283.75 193.25 307.75L132.25 387.25C126.75 394.25 121.75 401.5 121.75 410.5C121.75 420.25 128.25 427.5 141.5 427.5L256 427.5C266.25 427.5 272.75 420.5 272.75 410.25C272.75 399.25 266 393 256 393L173.75 393L173.75 390.5L225.5 323C256.75 283 267.25 258.75 267.25 230C267.25 186.25 238.75 153.75 194.25 153.75C152.75 153.75 122 188.75 122 223.25ZM403.25 339.25L337.5 339.25L337.5 337.5L402 194L403.25 194Z" fill="black" fill-opacity="0.85"/>
 </g>
</svg>
