<?xml version="1.0" encoding="UTF-8"?>
<!--Generator: Apple Native CoreSVG 326-->
<!DOCTYPE svg
PUBLIC "-//W3C//DTD SVG 1.1//EN"
       "http://www.w3.org/Graphics/SVG/1.1/DTD/svg11.dtd">
<svg version="1.1" xmlns="http://www.w3.org/2000/svg" xmlns:xlink="http://www.w3.org/1999/xlink" viewBox="0 0 651.25 651.75">
 <g>
  <rect height="651.75" opacity="0" width="651.25" x="0" y="0"/>
  <path d="M325.5 651.25C505.25 651.25 651.25 505.5 651.25 325.75C651.25 146 505.25 0 325.5 0C145.75 0 0 146 0 325.75C0 505.5 145.75 651.25 325.5 651.25ZM325.5 604.75C171.25 604.75 46.5 480 46.5 325.75C46.5 171.5 171.25 46.75 325.5 46.75C479.75 46.75 604.5 171.5 604.5 325.75C604.5 480 479.75 604.75 325.5 604.75Z" fill="black" fill-opacity="0.85"/>
  <path d="M174.5 456.25L286 456.25C296 456.25 302.25 449.5 302.25 439.5C302.25 429 295.75 422.75 286 422.75L205.75 422.75L205.75 420.5L256.5 354.25C287 315.25 297.25 291.5 297.25 263.5C297.25 220.75 269.5 189 225.75 189C185.5 189 155.75 223.25 155.75 257C155.75 267.25 161.75 274.75 172.75 274.75C182.25 274.75 188 270.5 190.75 261.25C196.25 237.5 205.5 222 225.75 222C247.75 222 258.75 242 258.75 265.25C258.75 290.75 243 315.75 225 339.25L165.5 417.25C160.25 424 155.5 431 155.5 439.5C155.5 449.25 161.75 456.25 174.5 456.25ZM413.75 462.5C462.75 462.5 489.25 420 489.25 370.25C489.25 326 468 284.75 426.5 284.75C408 284.75 389.75 293.5 381.25 313.25L379.75 313.25L385.5 229L463 229C472.75 229 479 222 479 212.25C479 202.75 472.5 195.5 463 195.5L375 195.5C359.5 195.5 352.75 205.25 351.75 220.25L346 312.5C345.5 317.5 345.5 322.75 345.5 326.75C345.5 337.75 351.25 347.25 364.25 347.25C372.25 347.25 376.75 343.5 382.75 335.5C390.5 323.5 399.75 315 414 315C439.5 315 449.75 345.75 449.75 371.25C449.75 400 439 429.25 413.25 429.25C393.5 429.25 381.75 414.25 376.25 395C373 385.25 366.5 381 359 381C348.5 381 342 387.75 342 398.25C342 404.5 343.75 411.25 346 417C356.5 444 383.75 462.5 413.75 462.5Z" fill="black" fill-opacity="0.85"/>
 </g>
</svg>
