<?xml version="1.0" encoding="UTF-8"?>
<!--Generator: Apple Native CoreSVG 326-->
<!DOCTYPE svg
PUBLIC "-//W3C//DTD SVG 1.1//EN"
       "http://www.w3.org/Graphics/SVG/1.1/DTD/svg11.dtd">
<svg version="1.1" xmlns="http://www.w3.org/2000/svg" xmlns:xlink="http://www.w3.org/1999/xlink" viewBox="0 0 587.75 587.75">
 <g>
  <rect height="587.75" opacity="0" width="587.75" x="0" y="0"/>
  <path d="M587.75 96.5L587.75 491.5C587.75 555 555 587.75 490.25 587.75L97.25 587.75C32.75 587.75 0 555.5 0 491.5L0 96.5C0 32.5 32.75 0 97.25 0L490.25 0C555 0 587.75 32.75 587.75 96.5ZM345 160C329.25 160 322.25 170.5 321.25 185.75L315.25 280C314.75 285.25 314.75 290.5 314.75 294.75C314.75 306 320.5 315.75 334 315.75C342.5 315.75 347 312 353.25 303.75C361.25 291.5 370.5 283 385 283C411 283 421.75 314.25 421.75 340.25C421.75 369.75 410.5 399.5 384.25 399.5C364.25 399.5 352.25 384.25 346.5 364.75C343.25 354.75 336.5 350.25 328.75 350.25C318 350.25 311.25 357.25 311.25 368C311.25 374.5 313 381.5 315.5 387.25C326.25 415 354.25 433.75 384.75 433.75C435 433.75 462.25 390.25 462.25 339.25C462.25 294 440.5 251.75 398 251.75C379 251.75 360.5 260.75 351.5 281L350.25 281L356 195L435.25 195C445.75 195 451.75 187.75 451.75 177.25C451.75 167.5 445.25 160 435.25 160ZM120.25 223.25C120.25 233.75 126.5 241.5 137.75 241.5C147.25 241.5 153.5 237.25 156 227.75C162 203.5 171.25 187.75 192 187.75C214.25 187.75 225.75 208 225.75 231.75C225.75 258 209.5 283.75 191 307.5L130.25 387.25C124.75 394 119.75 401.25 119.75 410.5C119.75 420.25 126.5 427.5 139.5 427.5L253.75 427.5C264 427.5 270.5 420.5 270.5 410.25C270.5 399.25 263.75 392.75 253.75 392.75L171.75 392.75L171.75 390.5L223.25 323C255 283 265.5 258.75 265.5 230C265.5 186.25 237 153.75 192 153.75C150.75 153.75 120.25 188.75 120.25 223.25Z" fill="black" fill-opacity="0.85"/>
 </g>
</svg>
