<?xml version="1.0" encoding="UTF-8"?>
<!--Generator: Apple Native CoreSVG 326-->
<!DOCTYPE svg
PUBLIC "-//W3C//DTD SVG 1.1//EN"
       "http://www.w3.org/Graphics/SVG/1.1/DTD/svg11.dtd">
<svg version="1.1" xmlns="http://www.w3.org/2000/svg" xmlns:xlink="http://www.w3.org/1999/xlink" viewBox="0 0 587.75 587.75">
 <g>
  <rect height="587.75" opacity="0" width="587.75" x="0" y="0"/>
  <path d="M97.25 587.75L490.25 587.75C555 587.75 587.75 555 587.75 491.5L587.75 96.5C587.75 32.75 555 0 490.25 0L97.25 0C32.75 0 0 32.5 0 96.5L0 491.5C0 555.5 32.75 587.75 97.25 587.75ZM98.25 543.5C63.25 543.5 44.25 525 44.25 489L44.25 98.75C44.25 63 63.25 44.25 98.25 44.25L489.5 44.25C523.75 44.25 543.5 63 543.5 98.75L543.5 489C543.5 525 523.75 543.5 489.5 543.5Z" fill="black" fill-opacity="0.85"/>
  <path d="M143.25 424.25L254.75 424.25C264.75 424.25 271 417.5 271 407.5C271 397 264.5 390.75 254.75 390.75L174.5 390.75L174.5 388.5L225 322.25C255.75 283.25 266 259.5 266 231.5C266 188.75 238.25 157 194.5 157C154.25 157 124.5 191.25 124.5 225C124.5 235.25 130.5 242.75 141.5 242.75C150.75 242.75 156.75 238.5 159.25 229.25C165 205.5 174.25 190 194.5 190C216.25 190 227.5 210 227.5 233.25C227.5 258.75 211.75 283.75 193.75 307.25L134.25 385.25C129 392 124 399 124 407.5C124 417.25 130.5 424.25 143.25 424.25ZM382.5 430.5C431.5 430.5 458 388 458 338.25C458 294 436.75 252.75 395.25 252.75C376.5 252.75 358.5 261.5 349.75 281.25L348.5 281.25L354.25 197L431.75 197C441.5 197 447.75 190 447.75 180.25C447.75 170.75 441.25 163.5 431.75 163.5L343.5 163.5C328.25 163.5 321.5 173.25 320.5 188.25L314.75 280.5C314.25 285.5 314 290.75 314 294.75C314 305.75 319.75 315.25 332.75 315.25C341 315.25 345.5 311.5 351.5 303.5C359 291.5 368.5 283 382.5 283C408.25 283 418.5 313.75 418.5 339.25C418.5 368 407.75 397.25 382 397.25C362.25 397.25 350.5 382.25 345 363C341.75 353.25 335.25 349 327.75 349C317.25 349 310.75 355.75 310.75 366.25C310.75 372.5 312.5 379.25 314.75 385C325.25 412 352.5 430.5 382.5 430.5Z" fill="black" fill-opacity="0.85"/>
 </g>
</svg>
