<?xml version="1.0" encoding="UTF-8"?>
<!--Generator: Apple Native CoreSVG 326-->
<!DOCTYPE svg
PUBLIC "-//W3C//DTD SVG 1.1//EN"
       "http://www.w3.org/Graphics/SVG/1.1/DTD/svg11.dtd">
<svg version="1.1" xmlns="http://www.w3.org/2000/svg" xmlns:xlink="http://www.w3.org/1999/xlink" viewBox="0 0 587.75 587.75">
 <g>
  <rect height="587.75" opacity="0" width="587.75" x="0" y="0"/>
  <path d="M97.25 587.75L490.25 587.75C555 587.75 587.75 555 587.75 491.5L587.75 96.5C587.75 32.75 555 0 490.25 0L97.25 0C32.75 0 0 32.5 0 96.5L0 491.5C0 555.5 32.75 587.75 97.25 587.75ZM98.25 543.5C63.25 543.5 44.25 525 44.25 489L44.25 98.75C44.25 63 63.25 44.25 98.25 44.25L489.5 44.25C523.75 44.25 543.5 63 543.5 98.75L543.5 489C543.5 525 523.75 543.5 489.5 543.5Z" fill="black" fill-opacity="0.85"/>
  <path d="M142.5 424.25L254.25 424.25C264.25 424.25 270.5 417.5 270.5 407.5C270.5 397 264 390.75 254.25 390.75L173.75 390.75L173.75 388.5L224.5 322.25C255 283.25 265.25 259.5 265.25 231.5C265.25 188.75 237.5 157 194 157C153.75 157 124 191.25 124 225C124 235.25 130 242.75 141 242.75C150.25 242.75 156 238.5 158.75 229.25C164.5 205.5 173.5 190 194 190C215.75 190 227 210 227 233.25C227 258.75 211.25 283.75 193.25 307.25L133.75 385.25C128.5 392 123.5 399 123.5 407.5C123.5 417.25 130 424.25 142.5 424.25ZM387.75 430.5C435.75 430.5 463 389 463 339C463 295.5 442 253.75 399 253.75C371.75 253.75 352 272.75 345 301L343.75 301C343.75 299.75 343.75 298.25 343.75 297C343.75 259.25 348.75 190.75 387.25 190.75C403.75 190.75 414.5 202.75 420.25 218.25C424.25 227 429.25 231.75 438.75 231.75C450 231.75 455 224.25 455 214.75C455 211.25 454.5 207.25 453.5 203C446.25 175 419.75 157.5 388.25 157.5C323.5 157.5 305.25 233.75 305.25 297.5C305.25 358.25 324.25 430.5 387.75 430.5ZM387.25 397.25C361 397.25 349.5 365 349.5 339.25C349.5 313.75 362 285 387 285C413 285 424.25 314.75 423.75 340.75C423.75 366.5 411.75 397.25 387.25 397.25Z" fill="black" fill-opacity="0.85"/>
 </g>
</svg>
