<?xml version="1.0" encoding="UTF-8"?>
<!--Generator: Apple Native CoreSVG 326-->
<!DOCTYPE svg
PUBLIC "-//W3C//DTD SVG 1.1//EN"
       "http://www.w3.org/Graphics/SVG/1.1/DTD/svg11.dtd">
<svg version="1.1" xmlns="http://www.w3.org/2000/svg" xmlns:xlink="http://www.w3.org/1999/xlink" viewBox="0 0 587.75 587.75">
 <g>
  <rect height="587.75" opacity="0" width="587.75" x="0" y="0"/>
  <path d="M587.75 96.5L587.75 491.5C587.75 555 555 587.75 490.25 587.75L97.25 587.75C32.75 587.75 0 555.5 0 491.5L0 96.5C0 32.5 32.75 0 97.25 0L490.25 0C555 0 587.75 32.75 587.75 96.5ZM305.5 297.5C305.5 359.75 325 433.75 390.25 433.75C439.5 433.75 467.25 391.25 467.25 340C467.25 295.5 445.75 252.75 401.75 252.75C374 252.75 353.75 272.25 346.5 301L345.25 301C345.25 299.75 345.25 298.25 345.25 297C345.25 258.5 350.25 188.5 389.75 188.5C406.5 188.5 417.5 200.75 423.25 216.5C427.5 225.5 432.5 230 442.5 230C454 230 459.5 222.5 459.5 212.75C459.5 209.25 458.75 205 457.5 200.75C450.5 172 423 154.25 390.75 154.25C324.25 154.25 305.5 232.25 305.5 297.5ZM119.75 223.25C119.75 233.75 125.75 241.5 137.25 241.5C146.75 241.5 152.75 237.25 155.5 227.75C161.25 203.5 170.5 187.75 191.25 187.75C213.5 187.75 225 208 225 231.75C225 258 208.75 283.75 190.5 307.5L129.5 387.25C124 394 119.25 401.25 119.25 410.5C119.25 420.25 125.5 427.5 138.75 427.5L253.25 427.5C263.5 427.5 270 420.5 270 410.25C270 399.25 263.25 392.75 253.25 392.75L171 392.75L171 390.5L222.75 323C254 283 264.5 258.75 264.5 230C264.5 186.25 236 153.75 191.5 153.75C150 153.75 119.75 188.75 119.75 223.25ZM426.75 342C426.75 368.25 415 399.5 389.75 399.5C362.75 399.5 351.25 366.5 351.25 340.5C351.25 314.25 364 285 389.5 285C416 285 427.25 315.5 426.75 342Z" fill="black" fill-opacity="0.85"/>
 </g>
</svg>
