<?xml version="1.0" encoding="UTF-8"?>
<!--Generator: Apple Native CoreSVG 326-->
<!DOCTYPE svg
PUBLIC "-//W3C//DTD SVG 1.1//EN"
       "http://www.w3.org/Graphics/SVG/1.1/DTD/svg11.dtd">
<svg version="1.1" xmlns="http://www.w3.org/2000/svg" xmlns:xlink="http://www.w3.org/1999/xlink" viewBox="0 0 651.25 651.75">
 <g>
  <rect height="651.75" opacity="0" width="651.25" x="0" y="0"/>
  <path d="M651.25 325.75C651.25 505 505 651.25 325.5 651.25C146.25 651.25 0 505 0 325.75C0 146.25 146.25 0 325.5 0C505 0 651.25 146.25 651.25 325.75ZM363.75 192C353.5 192 346.75 199.25 346.75 209.5C346.75 219.5 353.5 226.75 363.75 226.75L452.25 226.75L452.25 229.5L376.25 428C373.5 434.75 372.5 438.5 372.5 445.25C372.5 454.25 378.25 463.5 392 463.5C402.5 463.5 407.25 459.25 411.5 448.5L489.5 239.5C492.5 230.75 494.75 223.5 494.75 214.75C494.75 201.25 484.5 192 471.25 192ZM167 255.25C167 265.75 173.25 273.75 184.5 273.75C194.25 273.75 200.25 269.25 203 259.75C208.75 235.5 218 219.75 238.75 219.75C261 219.75 272.5 240 272.5 263.75C272.5 290 256.25 315.75 238 339.75L177 419.25C171.5 426.25 166.75 433.5 166.75 442.5C166.75 452.25 173 459.5 186.25 459.5L300.75 459.5C311 459.5 317.5 452.5 317.5 442.25C317.5 431.25 310.75 425 300.75 425L218.5 425L218.5 422.5L270.25 355C301.5 315 312 290.75 312 262C312 218.25 283.5 185.75 239 185.75C197.5 185.75 167 220.75 167 255.25Z" fill="black" fill-opacity="0.85"/>
 </g>
</svg>
