<?xml version="1.0" encoding="UTF-8"?>
<!--Generator: Apple Native CoreSVG 326-->
<!DOCTYPE svg
PUBLIC "-//W3C//DTD SVG 1.1//EN"
       "http://www.w3.org/Graphics/SVG/1.1/DTD/svg11.dtd">
<svg version="1.1" xmlns="http://www.w3.org/2000/svg" xmlns:xlink="http://www.w3.org/1999/xlink" viewBox="0 0 651.25 651.75">
 <g>
  <rect height="651.75" opacity="0" width="651.25" x="0" y="0"/>
  <path d="M325.5 651.25C505.25 651.25 651.25 505.5 651.25 325.75C651.25 146 505.25 0 325.5 0C145.75 0 0 146 0 325.75C0 505.5 145.75 651.25 325.5 651.25ZM325.5 604.75C171.25 604.75 46.5 480 46.5 325.75C46.5 171.5 171.25 46.75 325.5 46.75C479.75 46.75 604.5 171.5 604.5 325.75C604.5 480 479.75 604.75 325.5 604.75Z" fill="black" fill-opacity="0.85"/>
  <path d="M189.5 456.25L301.25 456.25C311.25 456.25 317.5 449.5 317.5 439.5C317.5 429 311 422.75 301.25 422.75L220.75 422.75L220.75 420.5L271.5 354.25C302 315.25 312.25 291.5 312.25 263.5C312.25 220.75 284.5 189 241 189C200.5 189 171 223.25 171 257C171 267.25 177 274.75 188 274.75C197.25 274.75 203 270.5 205.75 261.25C211.5 237.5 220.5 222 240.75 222C262.75 222 274 242 274 265.25C274 290.75 258.25 315.75 240.25 339.25L180.5 417.25C175.25 424 170.5 431 170.5 439.5C170.5 449.25 177 456.25 189.5 456.25ZM390 460.25C400.25 460.25 405 455.75 408.75 445.75L485.25 241.25C488.25 232.75 490.5 225.75 490.5 217.25C490.5 204.25 480.5 195.5 467.25 195.5L362.5 195.5C352.75 195.5 346 202.5 346 212.25C346 222 352.75 229 362.5 229L449.25 229L449.25 231.5L374.75 425.75C372.25 432 371.25 436 371.25 442.5C371.25 451.25 376.75 460.25 390 460.25Z" fill="black" fill-opacity="0.85"/>
 </g>
</svg>
