<?xml version="1.0" encoding="UTF-8"?>
<!--Generator: Apple Native CoreSVG 326-->
<!DOCTYPE svg
PUBLIC "-//W3C//DTD SVG 1.1//EN"
       "http://www.w3.org/Graphics/SVG/1.1/DTD/svg11.dtd">
<svg version="1.1" xmlns="http://www.w3.org/2000/svg" xmlns:xlink="http://www.w3.org/1999/xlink" viewBox="0 0 587.75 587.75">
 <g>
  <rect height="587.75" opacity="0" width="587.75" x="0" y="0"/>
  <path d="M97.25 587.75L490.25 587.75C555 587.75 587.75 555 587.75 491.5L587.75 96.5C587.75 32.75 555 0 490.25 0L97.25 0C32.75 0 0 32.5 0 96.5L0 491.5C0 555.5 32.75 587.75 97.25 587.75ZM98.25 543.5C63.25 543.5 44.25 525 44.25 489L44.25 98.75C44.25 63 63.25 44.25 98.25 44.25L489.5 44.25C523.75 44.25 543.5 63 543.5 98.75L543.5 489C543.5 525 523.75 543.5 489.5 543.5Z" fill="black" fill-opacity="0.85"/>
  <path d="M158.25 424.25L270 424.25C280 424.25 286.25 417.5 286.25 407.5C286.25 397 279.75 390.75 270 390.75L189.5 390.75L189.5 388.5L240.25 322.25C270.75 283.25 281 259.5 281 231.5C281 188.75 253.25 157 209.75 157C169.25 157 139.75 191.25 139.75 225C139.75 235.25 145.75 242.75 156.75 242.75C166 242.75 171.75 238.5 174.5 229.25C180 205.5 189.25 190 209.5 190C231.5 190 242.75 210 242.75 233.25C242.75 258.75 227 283.75 209 307.25L149.25 385.25C144 392 139.25 399 139.25 407.5C139.25 417.25 145.5 424.25 158.25 424.25ZM358.5 428.25C369 428.25 373.75 423.75 377.5 413.75L454 209.25C457 200.75 459.25 193.75 459.25 185.25C459.25 172.25 449.25 163.5 436 163.5L331.25 163.5C321.5 163.5 314.75 170.5 314.75 180.25C314.75 190 321.5 197 331.25 197L418 197L418 199.5L343.5 393.75C341 400 340 404 340 410.5C340 419.25 345.5 428.25 358.5 428.25Z" fill="black" fill-opacity="0.85"/>
 </g>
</svg>
