<?xml version="1.0" encoding="UTF-8"?>
<!--Generator: Apple Native CoreSVG 326-->
<!DOCTYPE svg
PUBLIC "-//W3C//DTD SVG 1.1//EN"
       "http://www.w3.org/Graphics/SVG/1.1/DTD/svg11.dtd">
<svg version="1.1" xmlns="http://www.w3.org/2000/svg" xmlns:xlink="http://www.w3.org/1999/xlink" viewBox="0 0 651.25 651.75">
 <g>
  <rect height="651.75" opacity="0" width="651.25" x="0" y="0"/>
  <path d="M325.5 651.25C505.25 651.25 651.25 505.5 651.25 325.75C651.25 146 505.25 0 325.5 0C145.75 0 0 146 0 325.75C0 505.5 145.75 651.25 325.5 651.25ZM325.5 604.75C171.25 604.75 46.5 480 46.5 325.75C46.5 171.5 171.25 46.75 325.5 46.75C479.75 46.75 604.5 171.5 604.5 325.75C604.5 480 479.75 604.75 325.5 604.75Z" fill="black" fill-opacity="0.85"/>
  <path d="M172.5 456.25L284.25 456.25C294.25 456.25 300.5 449.5 300.5 439.5C300.5 429 294 422.75 284.25 422.75L203.75 422.75L203.75 420.5L254.5 354.25C285 315.25 295.25 291.5 295.25 263.5C295.25 220.75 267.5 189 224 189C183.5 189 153.75 223.25 153.75 257C153.75 267.25 160 274.75 170.75 274.75C180.25 274.75 186 270.5 188.75 261.25C194.25 237.5 203.5 222 223.75 222C245.75 222 257 242 257 265.25C257 290.75 241 315.75 223.25 339.25L163.5 417.25C158.25 424 153.5 431 153.5 439.5C153.5 449.25 159.75 456.25 172.5 456.25ZM415.75 461.5C465.25 461.5 496.75 429.5 496.75 385.75C496.75 351.25 475.25 325 449.25 319L449.25 318C471.5 311 489.5 289.25 489.5 260C489.5 219.25 460.25 190.25 415.75 190.25C376.25 190.25 342.5 215.75 342.5 259.75C342.5 291.25 361.25 311.25 383 318L383 319C355.5 325.25 335 351.5 335 385.75C335 431.75 369.25 461.5 415.75 461.5ZM416 304.75C394.75 304.75 381.75 285.5 381.75 263.75C381.75 241 394.5 221 416 221C438.75 221 450 241.75 450 263.75C450 286.5 437.25 304.75 416 304.75ZM416 430.5C390.5 430.5 377.25 408.25 377.25 382.75C377.25 357.25 390.75 336 416 336C440 336 454.75 355.75 454.75 382.75C454.75 408.25 441.5 430.5 416 430.5Z" fill="black" fill-opacity="0.85"/>
 </g>
</svg>
