<?xml version="1.0" encoding="UTF-8"?>
<!--Generator: Apple Native CoreSVG 326-->
<!DOCTYPE svg
PUBLIC "-//W3C//DTD SVG 1.1//EN"
       "http://www.w3.org/Graphics/SVG/1.1/DTD/svg11.dtd">
<svg version="1.1" xmlns="http://www.w3.org/2000/svg" xmlns:xlink="http://www.w3.org/1999/xlink" viewBox="0 0 587.75 587.75">
 <g>
  <rect height="587.75" opacity="0" width="587.75" x="0" y="0"/>
  <path d="M97.25 587.75L490.25 587.75C555 587.75 587.75 555 587.75 491.5L587.75 96.5C587.75 32.75 555 0 490.25 0L97.25 0C32.75 0 0 32.5 0 96.5L0 491.5C0 555.5 32.75 587.75 97.25 587.75ZM98.25 543.5C63.25 543.5 44.25 525 44.25 489L44.25 98.75C44.25 63 63.25 44.25 98.25 44.25L489.5 44.25C523.75 44.25 543.5 63 543.5 98.75L543.5 489C543.5 525 523.75 543.5 489.5 543.5Z" fill="black" fill-opacity="0.85"/>
  <path d="M141.25 424.25L253 424.25C263 424.25 269 417.5 269 407.5C269 397 262.75 390.75 253 390.75L172.5 390.75L172.5 388.5L223.25 322.25C253.75 283.25 264 259.5 264 231.5C264 188.75 236.25 157 192.75 157C152.25 157 122.5 191.25 122.5 225C122.5 235.25 128.5 242.75 139.5 242.75C149 242.75 154.75 238.5 157.5 229.25C163 205.5 172.25 190 192.5 190C214.5 190 225.75 210 225.75 233.25C225.75 258.75 209.75 283.75 191.75 307.25L132.25 385.25C127 392 122.25 399 122.25 407.5C122.25 417.25 128.5 424.25 141.25 424.25ZM384.5 429.5C433.75 429.5 465.5 397.5 465.5 353.75C465.5 319.25 444 293 418 287L418 286C440.25 279 458.25 257.25 458.25 228C458.25 187.25 428.75 158.25 384.5 158.25C345 158.25 311.25 183.75 311.25 227.75C311.25 259.25 330 279.25 351.75 286L351.75 287C324.25 293.25 303.75 319.5 303.75 353.75C303.75 399.75 337.75 429.5 384.5 429.5ZM384.5 272.75C363.5 272.75 350.5 253.5 350.5 231.75C350.5 209 363.25 189 384.5 189C407.5 189 418.75 209.75 418.75 231.75C418.75 254.5 406 272.75 384.5 272.75ZM384.5 398.5C359.25 398.5 346 376.25 346 350.75C346 325.25 359.5 304 384.5 304C408.75 304 423.5 323.75 423.5 350.75C423.5 376.25 410.25 398.5 384.5 398.5Z" fill="black" fill-opacity="0.85"/>
 </g>
</svg>
