<?xml version="1.0" encoding="UTF-8"?>
<!--Generator: Apple Native CoreSVG 326-->
<!DOCTYPE svg
PUBLIC "-//W3C//DTD SVG 1.1//EN"
       "http://www.w3.org/Graphics/SVG/1.1/DTD/svg11.dtd">
<svg version="1.1" xmlns="http://www.w3.org/2000/svg" xmlns:xlink="http://www.w3.org/1999/xlink" viewBox="0 0 651.25 651.75">
 <g>
  <rect height="651.75" opacity="0" width="651.25" x="0" y="0"/>
  <path d="M651.25 325.75C651.25 505 505 651.25 325.5 651.25C146.25 651.25 0 505 0 325.75C0 146.25 146.25 0 325.5 0C505 0 651.25 146.25 651.25 325.75ZM338 280C338 324.5 359.5 367 403.25 367C431.5 367 451.75 347.75 458.75 319L460 319C460 320.25 460 321.75 460 323C460 361.5 455 431 415.25 431C399 431 388.25 419.25 382 403C377.75 392.75 371.75 388.75 363 388.75C351 388.75 345.5 397 345.5 406.75C345.5 410.5 346.5 414.75 347.5 418.75C355 448 382.5 465.25 414.75 465.25C481 465.25 499.75 388.5 499.75 322.5C499.75 260.25 480.25 186.25 415.25 186.25C366.25 186.25 338 228.75 338 280ZM153.25 255.25C153.25 265.75 159.25 273.5 170.75 273.5C180.5 273.5 186.5 269.25 189.25 259.75C195 235.5 204.25 219.75 225 219.75C247.5 219.75 259 240 259 263.75C259 290 242.5 315.75 224 339.5L163.25 419.25C157.75 426 153 433.25 153 442.5C153 452.25 159.25 459.5 172.5 459.5L287 459.5C297.25 459.5 303.5 452.5 303.5 442.25C303.5 431.25 297 424.75 287 424.75L204.75 424.75L204.75 422.5L256.5 355C287.75 315 298.5 290.75 298.5 262C298.5 218.25 269.75 185.75 225.25 185.75C183.75 185.75 153.25 220.75 153.25 255.25ZM454.25 278.25C454.25 305.75 441.5 334.5 415.75 334.5C389.5 334.5 378.25 304.75 378.25 278.25C378.25 251.25 390.75 220.5 415.75 220.5C442.5 220.5 454.25 251.5 454.25 278.25Z" fill="black" fill-opacity="0.85"/>
 </g>
</svg>
