<?xml version="1.0" encoding="UTF-8"?>
<!--Generator: Apple Native CoreSVG 326-->
<!DOCTYPE svg
PUBLIC "-//W3C//DTD SVG 1.1//EN"
       "http://www.w3.org/Graphics/SVG/1.1/DTD/svg11.dtd">
<svg version="1.1" xmlns="http://www.w3.org/2000/svg" xmlns:xlink="http://www.w3.org/1999/xlink" viewBox="0 0 651.25 651.75">
 <g>
  <rect height="651.75" opacity="0" width="651.25" x="0" y="0"/>
  <path d="M325.5 651.25C505.25 651.25 651.25 505.5 651.25 325.75C651.25 146 505.25 0 325.5 0C145.75 0 0 146 0 325.75C0 505.5 145.75 651.25 325.5 651.25ZM325.5 604.75C171.25 604.75 46.5 480 46.5 325.75C46.5 171.5 171.25 46.75 325.5 46.75C479.75 46.75 604.5 171.5 604.5 325.75C604.5 480 479.75 604.75 325.5 604.75Z" fill="black" fill-opacity="0.85"/>
  <path d="M326.5 477.75C392.75 477.75 435 441.75 435 391.75C435 354.5 406.25 324 367.5 320.25L367.5 318C399.75 313 424.75 283.25 424.75 249.5C424.75 205.25 384.75 173.75 328.75 173.75C278.25 173.75 239.25 198 231.75 235C230.75 239.25 230.25 242.5 230.25 247C230.25 258.25 238.25 265.75 249.5 265.75C259.5 265.75 265.75 260.75 268.5 250.75C275 225.5 296.75 209.25 328 209.25C362 209.25 383.25 226.75 383.25 254.5C383.25 282.5 359.5 303.75 327.5 303.75L305.5 303.75C295.25 303.75 288 310.75 288 321C288 331 295.25 338.25 305.5 338.25L329.5 338.25C367 338.25 393.5 359.75 393.5 390.25C393.5 421.25 367 442 327.25 442C292 442 270 424.25 262.75 400.5C259 390.25 253 385.75 243.25 385.75C232 385.75 224 393.75 224 404.75C224 409.25 224.25 412 225.5 416.25C235 452.75 275.75 477.75 326.5 477.75Z" fill="black" fill-opacity="0.85"/>
 </g>
</svg>
