<?xml version="1.0" encoding="UTF-8"?>
<!--Generator: Apple Native CoreSVG 326-->
<!DOCTYPE svg
PUBLIC "-//W3C//DTD SVG 1.1//EN"
       "http://www.w3.org/Graphics/SVG/1.1/DTD/svg11.dtd">
<svg version="1.1" xmlns="http://www.w3.org/2000/svg" xmlns:xlink="http://www.w3.org/1999/xlink" viewBox="0 0 587.75 587.75">
 <g>
  <rect height="587.75" opacity="0" width="587.75" x="0" y="0"/>
  <path d="M97.25 587.75L490.25 587.75C555 587.75 587.75 555 587.75 491.5L587.75 96.5C587.75 32.75 555 0 490.25 0L97.25 0C32.75 0 0 32.5 0 96.5L0 491.5C0 555.5 32.75 587.75 97.25 587.75ZM98.25 543.5C63.25 543.5 44.25 525 44.25 489L44.25 98.75C44.25 63 63.25 44.25 98.25 44.25L489.5 44.25C523.75 44.25 543.5 63 543.5 98.75L543.5 489C543.5 525 523.75 543.5 489.5 543.5Z" fill="black" fill-opacity="0.85"/>
  <path d="M295.25 445.75C361.5 445.75 403.75 409.75 403.75 359.75C403.75 322.5 375 292 336 288.25L336 286C368.5 281 393.5 251.25 393.5 217.5C393.5 173.25 353.5 141.75 297.5 141.75C247 141.75 208 166 200.25 203C199.5 207.25 199 210.5 199 215C199 226.25 206.75 233.75 218.25 233.75C228.25 233.75 234.25 228.75 237.25 218.75C243.75 193.5 265.5 177.25 296.75 177.25C330.75 177.25 352 194.75 352 222.5C352 250.5 328.25 271.75 296.25 271.75L274.25 271.75C264 271.75 256.75 278.75 256.75 289C256.75 299 264 306.25 274.25 306.25L298.25 306.25C335.75 306.25 362 327.75 362 358.25C362 389.25 335.5 410 296 410C260.75 410 238.75 392.25 231.5 368.5C227.5 358.25 221.75 353.75 212 353.75C200.75 353.75 192.75 361.75 192.75 372.75C192.75 377.25 193 380 194.25 384.25C203.75 420.75 244.5 445.75 295.25 445.75Z" fill="black" fill-opacity="0.85"/>
 </g>
</svg>
