<?xml version="1.0" encoding="UTF-8"?>
<!--Generator: Apple Native CoreSVG 326-->
<!DOCTYPE svg
PUBLIC "-//W3C//DTD SVG 1.1//EN"
       "http://www.w3.org/Graphics/SVG/1.1/DTD/svg11.dtd">
<svg version="1.1" xmlns="http://www.w3.org/2000/svg" xmlns:xlink="http://www.w3.org/1999/xlink" viewBox="0 0 651.25 651.75">
 <g>
  <rect height="651.75" opacity="0" width="651.25" x="0" y="0"/>
  <path d="M325.5 651.25C505.25 651.25 651.25 505.5 651.25 325.75C651.25 146 505.25 0 325.5 0C145.75 0 0 146 0 325.75C0 505.5 145.75 651.25 325.5 651.25ZM325.5 604.75C171.25 604.75 46.5 480 46.5 325.75C46.5 171.5 171.25 46.75 325.5 46.75C479.75 46.75 604.5 171.5 604.5 325.75C604.5 480 479.75 604.75 325.5 604.75Z" fill="black" fill-opacity="0.85"/>
  <path d="M227.5 461.25C272.25 461.25 306.5 432 306.5 384.25C306.5 345.5 284 324 255.5 321.25L255.5 320C284.75 312.5 298.75 286.25 298.75 259C298.75 215.75 267.25 189.75 226.25 189.75C193.25 189.75 166.5 208.5 157.25 237.25C155.5 243.5 154.75 249.25 154.75 254.25C154.75 263.75 161 271.25 172 271.25C182 271.25 187.25 267 190 257C195 236.75 206 222.75 226.25 222.75C249 222.75 260.5 240.75 260.5 263.5C260.5 288.25 246 306.75 220.75 306.75L211.5 306.75C201.5 306.75 195.75 313 195.75 322C195.75 331.5 202 337.25 211.5 337.25L221 337.25C250 337.25 266.25 353 266.25 383.25C266.25 407.25 253.5 428 227.5 428C202.5 428 190.5 410.5 186.75 394C184.25 384.5 178.25 379.5 168.75 379.5C157.75 379.5 150.5 386.25 150.5 397.5C150.5 402.75 151.5 409 153 414.25C162.25 443.75 193 461.25 227.5 461.25ZM422.25 462C485.25 462 503 388 503 325.25C503 262.5 485.25 188.5 422.25 188.5C359.25 188.5 341.25 262.5 341.25 325.25C341.25 388 359.25 462 422.25 462ZM422.25 428.25C391.75 428.25 382.5 379 382.5 325.25C382.5 271.5 391.75 222.25 422.25 222.25C452.5 222.25 462 271.5 462 325.25C462 379 452.5 428.25 422.25 428.25Z" fill="black" fill-opacity="0.85"/>
 </g>
</svg>
