<?xml version="1.0" encoding="UTF-8"?>
<!--Generator: Apple Native CoreSVG 326-->
<!DOCTYPE svg
PUBLIC "-//W3C//DTD SVG 1.1//EN"
       "http://www.w3.org/Graphics/SVG/1.1/DTD/svg11.dtd">
<svg version="1.1" xmlns="http://www.w3.org/2000/svg" xmlns:xlink="http://www.w3.org/1999/xlink" viewBox="0 0 587.75 587.75">
 <g>
  <rect height="587.75" opacity="0" width="587.75" x="0" y="0"/>
  <path d="M587.75 96.5L587.75 491.5C587.75 555 555 587.75 490.25 587.75L97.25 587.75C32.75 587.75 0 555.5 0 491.5L0 96.5C0 32.5 32.75 0 97.25 0L490.25 0C555 0 587.75 32.75 587.75 96.5ZM310.25 293.25C310.25 357.75 328.75 433.25 393.5 433.25C458 433.25 476.25 357.75 476.25 293.25C476.25 228.75 458 153.25 393.5 153.25C328.75 153.25 310.25 228.75 310.25 293.25ZM121.5 203C119.5 209.5 119 215.5 119 220.5C119 230.25 125.25 238 136.75 238C147.25 238 152.5 233.75 155.5 223.5C160.5 202.75 171.75 188.5 192.5 188.5C215.75 188.5 227 206.75 227 230C227 255.25 212.5 274.25 186.5 274.25L177.25 274.25C167 274.25 161.25 280.75 161.25 290C161.25 299.75 167.5 305.75 177.25 305.75L187 305.75C216.75 305.75 233.25 321.75 233.25 352.75C233.25 377 220.25 398.25 193.75 398.25C168.25 398.25 156 380.5 152.25 363.75C149.25 353.75 143.25 348.75 133.5 348.75C122.25 348.75 114.75 355.75 114.75 367.25C114.75 372.75 115.75 379 117.25 384.5C126.75 414.75 158.25 432.5 193.75 432.5C239.75 432.5 274.75 402.5 274.75 353.75C274.75 314 251.75 292 222.25 289.25L222.25 288C252.25 280.25 266.75 253.25 266.75 225.5C266.75 181 234.5 154.5 192.5 154.5C158.5 154.5 130.75 173.75 121.5 203ZM434 293.25C434 348.5 424.25 398.5 393.5 398.5C362.5 398.5 353 348.5 353 293.25C353 238 362.5 188 393.5 188C424.25 188 434 238 434 293.25Z" fill="black" fill-opacity="0.85"/>
 </g>
</svg>
