<?xml version="1.0" encoding="UTF-8"?>
<!--Generator: Apple Native CoreSVG 326-->
<!DOCTYPE svg
PUBLIC "-//W3C//DTD SVG 1.1//EN"
       "http://www.w3.org/Graphics/SVG/1.1/DTD/svg11.dtd">
<svg version="1.1" xmlns="http://www.w3.org/2000/svg" xmlns:xlink="http://www.w3.org/1999/xlink" viewBox="0 0 651.25 651.75">
 <g>
  <rect height="651.75" opacity="0" width="651.25" x="0" y="0"/>
  <path d="M325.5 651.25C505.25 651.25 651.25 505.5 651.25 325.75C651.25 146 505.25 0 325.5 0C145.75 0 0 146 0 325.75C0 505.5 145.75 651.25 325.5 651.25ZM325.5 604.75C171.25 604.75 46.5 480 46.5 325.75C46.5 171.5 171.25 46.75 325.5 46.75C479.75 46.75 604.5 171.5 604.5 325.75C604.5 480 479.75 604.75 325.5 604.75Z" fill="black" fill-opacity="0.85"/>
  <path d="M250.75 461.5C295.75 461.5 329.75 432.5 329.75 384.5C329.75 345.75 307.25 324.5 278.75 321.5L278.75 320.5C308 312.75 322 286.75 322 259.25C322 216 290.75 190.25 249.5 190.25C216.5 190.25 189.75 209 180.5 237.5C178.75 243.75 178.25 249.5 178.25 254.75C178.25 264 184.25 271.5 195.5 271.5C205.5 271.5 210.75 267.5 213.5 257.5C218.25 237.25 229.5 223 249.5 223C272.5 223 283.75 241 283.75 264C283.75 288.75 269.5 307.25 244 307.25L234.75 307.25C225 307.25 219 313.25 219 322.5C219 331.75 225.5 337.5 234.75 337.5L244.5 337.5C273.25 337.5 289.5 353.5 289.5 383.5C289.5 407.5 277 428.25 251 428.25C226 428.25 214 410.75 210 394.5C207.5 385 201.75 380 192.25 380C181.25 380 173.75 386.75 173.75 397.75C173.75 403.25 174.75 409.5 176.5 414.5C185.75 444 216.5 461.5 250.75 461.5ZM436 459.5C447 459.5 456.5 450.25 456.5 438.75L456.5 214.25C456.5 200 447.25 191.5 433 191.5C421 191.5 411.5 197.75 404.75 203.25L367 233C362 237 358.25 242.25 358.25 249.5C358.25 258.5 364.25 264.75 373 264.75C377.5 264.75 380.25 263.25 383 261L415.25 235.25L415.25 438.75C415.25 450.25 424.5 459.5 436 459.5Z" fill="black" fill-opacity="0.85"/>
 </g>
</svg>
