<?xml version="1.0" encoding="UTF-8"?>
<!--Generator: Apple Native CoreSVG 326-->
<!DOCTYPE svg
PUBLIC "-//W3C//DTD SVG 1.1//EN"
       "http://www.w3.org/Graphics/SVG/1.1/DTD/svg11.dtd">
<svg version="1.1" xmlns="http://www.w3.org/2000/svg" xmlns:xlink="http://www.w3.org/1999/xlink" viewBox="0 0 587.75 587.75">
 <g>
  <rect height="587.75" opacity="0" width="587.75" x="0" y="0"/>
  <path d="M587.75 96.5L587.75 491.5C587.75 555 555 587.75 490.25 587.75L97.25 587.75C32.75 587.75 0 555.5 0 491.5L0 96.5C0 32.5 32.75 0 97.25 0L490.25 0C555 0 587.75 32.75 587.75 96.5ZM145.75 203.25C144 209.75 143.25 215.5 143.25 221C143.25 230.5 149.5 238.25 161.25 238.25C171.5 238.25 177 234 179.75 224C184.75 203.25 196 188.75 216.5 188.75C240 188.75 251.5 207 251.5 230.5C251.5 255.75 236.75 274.75 210.75 274.75L201.5 274.75C191.5 274.75 185.25 281 185.25 290.5C185.25 300 192 306 201.5 306L211.25 306C240.75 306 257.25 322.25 257.25 352.75C257.25 377.25 244.5 398.5 218 398.5C192.25 398.5 180 380.75 176.25 364.25C173.5 354.25 167.5 349.25 158 349.25C146.5 349.25 138.75 356.25 138.75 367.5C138.75 373.25 139.75 379.5 141.5 384.75C150.75 415 182.75 432.75 217.75 432.75C263.75 432.75 298.75 403 298.75 354C298.75 314.25 275.75 292.5 246.5 289.5L246.5 288.5C276.5 280.5 291 253.75 291 225.75C291 181.25 258.75 155 216.5 155C182.75 155 155.25 174.25 145.75 203.25ZM375.5 168L337 198.75C331.75 202.75 328 208.25 328 215.75C328 225 334.25 231.5 343.25 231.5C347.5 231.5 350.75 230 353.5 227.5L386.5 201.25L386.5 409.25C386.5 421.25 396 430.75 407.75 430.75C419.25 430.75 429 421.25 429 409.25L429 179.75C429 165 419.5 156 404.75 156C392.25 156 382.5 162.75 375.5 168Z" fill="black" fill-opacity="0.85"/>
 </g>
</svg>
