<?xml version="1.0" encoding="UTF-8"?>
<!--Generator: Apple Native CoreSVG 326-->
<!DOCTYPE svg
PUBLIC "-//W3C//DTD SVG 1.1//EN"
       "http://www.w3.org/Graphics/SVG/1.1/DTD/svg11.dtd">
<svg version="1.1" xmlns="http://www.w3.org/2000/svg" xmlns:xlink="http://www.w3.org/1999/xlink" viewBox="0 0 651.25 651.75">
 <g>
  <rect height="651.75" opacity="0" width="651.25" x="0" y="0"/>
  <path d="M325.5 651.25C505.25 651.25 651.25 505.5 651.25 325.75C651.25 146 505.25 0 325.5 0C145.75 0 0 146 0 325.75C0 505.5 145.75 651.25 325.5 651.25ZM325.5 604.75C171.25 604.75 46.5 480 46.5 325.75C46.5 171.5 171.25 46.75 325.5 46.75C479.75 46.75 604.5 171.5 604.5 325.75C604.5 480 479.75 604.75 325.5 604.75Z" fill="black" fill-opacity="0.85"/>
  <path d="M231.25 461.5C276.25 461.5 310.25 432.5 310.25 384.5C310.25 345.75 287.75 324.5 259.25 321.5L259.25 320.5C288.5 312.75 302.5 286.75 302.5 259.25C302.5 216 271.25 190.25 230 190.25C197 190.25 170.25 209 161 237.5C159.25 243.75 158.75 249.5 158.75 254.75C158.75 264 164.75 271.5 176 271.5C186 271.5 191.25 267.5 194 257.5C198.75 237.25 210 223 230 223C253 223 264.25 241 264.25 264C264.25 288.75 249.75 307.25 224.5 307.25L215.25 307.25C205.5 307.25 199.5 313.25 199.5 322.5C199.5 331.75 206 337.5 215.25 337.5L225 337.5C253.75 337.5 270 353.5 270 383.5C270 407.5 257.5 428.25 231.5 428.25C206.5 428.25 194.5 410.75 190.5 394.5C188 385 182.25 380 172.75 380C161.75 380 154.25 386.75 154.25 397.75C154.25 403.25 155.25 409.5 157 414.5C166.25 444 197 461.5 231.25 461.5ZM364 456.25L475.75 456.25C485.75 456.25 492 449.5 492 439.5C492 429 485.5 422.75 475.75 422.75L395.25 422.75L395.25 420.5L446 354.25C476.5 315.25 486.75 291.5 486.75 263.5C486.75 220.75 459 189 415.5 189C375 189 345.5 223.25 345.5 257C345.5 267.25 351.5 274.75 362.5 274.75C371.75 274.75 377.5 270.5 380.25 261.25C386 237.5 395 222 415.25 222C437.25 222 448.5 242 448.5 265.25C448.5 290.75 432.75 315.75 414.75 339.25L355 417.25C349.75 424 345 431 345 439.5C345 449.25 351.5 456.25 364 456.25Z" fill="black" fill-opacity="0.85"/>
 </g>
</svg>
