<?xml version="1.0" encoding="UTF-8"?>
<!--Generator: Apple Native CoreSVG 326-->
<!DOCTYPE svg
PUBLIC "-//W3C//DTD SVG 1.1//EN"
       "http://www.w3.org/Graphics/SVG/1.1/DTD/svg11.dtd">
<svg version="1.1" xmlns="http://www.w3.org/2000/svg" xmlns:xlink="http://www.w3.org/1999/xlink" viewBox="0 0 651.25 651.75">
 <g>
  <rect height="651.75" opacity="0" width="651.25" x="0" y="0"/>
  <path d="M651.25 325.75C651.25 505 505 651.25 325.5 651.25C146.25 651.25 0 505 0 325.75C0 146.25 146.25 0 325.5 0C505 0 651.25 146.25 651.25 325.75ZM157 235.25C155.25 241.75 154.5 247.75 154.5 253C154.5 262.5 161 270.25 172.5 270.25C182.75 270.25 188.25 266 191.25 256C196 235.25 207.5 220.75 227.75 220.75C251.25 220.75 262.75 239 262.75 262.5C262.75 287.75 248 306.75 222.25 306.75L212.75 306.75C202.75 306.75 196.5 313 196.5 322.5C196.5 332 203.25 338 212.75 338L222.75 338C252 338 268.75 354.25 268.75 385C268.75 409.5 256 430.5 229.5 430.5C203.75 430.5 191.75 412.75 187.5 396.25C185 386.25 179 381.25 169.25 381.25C158 381.25 150.25 388.25 150.25 399.5C150.25 405.25 151.25 411.5 153 416.75C162.25 447 194 464.75 229.25 464.75C275.25 464.75 310.25 435.25 310.25 386C310.25 346.25 287 324.5 258 321.5L258 320.5C288 312.5 302.25 285.75 302.25 257.75C302.25 213.25 270.25 187 227.75 187C194 187 166.5 206.25 157 235.25ZM346.25 255.25C346.25 265.75 352.5 273.75 363.75 273.75C373.25 273.75 379.25 269.25 382.25 259.75C388 235.5 397.25 219.75 418 219.75C440.25 219.75 451.75 240 451.75 263.75C451.75 290 435.5 315.75 417 339.5L356.25 419.25C351 426.25 345.75 433.25 345.75 442.5C345.75 452.25 352.5 459.5 365.25 459.5L479.75 459.5C490.25 459.5 496.5 452.5 496.5 442.25C496.5 431.25 490 424.75 479.75 424.75L397.5 424.75L397.5 422.5L449.5 355C481 315 491.25 290.75 491.25 262C491.25 218.25 463 185.75 418 185.75C376.75 185.75 346.25 220.75 346.25 255.25Z" fill="black" fill-opacity="0.85"/>
 </g>
</svg>
