<?xml version="1.0" encoding="UTF-8"?>
<!--Generator: Apple Native CoreSVG 326-->
<!DOCTYPE svg
PUBLIC "-//W3C//DTD SVG 1.1//EN"
       "http://www.w3.org/Graphics/SVG/1.1/DTD/svg11.dtd">
<svg version="1.1" xmlns="http://www.w3.org/2000/svg" xmlns:xlink="http://www.w3.org/1999/xlink" viewBox="0 0 587.75 587.75">
 <g>
  <rect height="587.75" opacity="0" width="587.75" x="0" y="0"/>
  <path d="M587.75 96.5L587.75 491.5C587.75 555 555 587.75 490.25 587.75L97.25 587.75C32.75 587.75 0 555.5 0 491.5L0 96.5C0 32.5 32.75 0 97.25 0L490.25 0C555 0 587.75 32.75 587.75 96.5ZM125.5 203.25C123.75 209.75 123 215.75 123 221C123 230.5 129.5 238.25 141 238.25C151 238.25 156.75 234 159.75 224C164.5 203.25 176 188.75 196.25 188.75C219.5 188.75 231.25 207 231.25 230.5C231.25 255.75 216.5 274.75 190.75 274.75L181.25 274.75C171.25 274.75 165 281 165 290.5C165 300 171.5 306 181.25 306L191.25 306C220.5 306 237.25 322.25 237.25 353C237.25 377.5 224.5 398.5 198 398.5C172.25 398.5 160 380.75 156 364.25C153.5 354.25 147.25 349.25 137.75 349.25C126.25 349.25 118.75 356.25 118.75 367.5C118.75 373.25 119.75 379.5 121.5 384.75C130.75 415 162.5 432.75 197.75 432.75C243.5 432.75 278.75 403.25 278.75 354C278.75 314.25 255.5 292.5 226.5 289.5L226.5 288.5C256.5 280.5 270.75 253.75 270.75 225.75C270.75 181.25 238.75 155 196.25 155C162.5 155 135 174.25 125.5 203.25ZM314.75 223.25C314.75 233.75 321 241.75 332.25 241.75C341.75 241.75 347.75 237.25 350.75 227.75C356.5 203.5 365.75 187.75 386.25 187.75C408.75 187.75 420.25 208 420.25 231.75C420.25 258 404 283.75 385.5 307.5L324.5 387.25C319.25 394.25 314.25 401.25 314.25 410.5C314.25 420.25 321 427.5 333.75 427.5L448.25 427.5C458.75 427.5 465 420.5 465 410.25C465 399.25 458.5 392.75 448.25 392.75L366 392.75L366 390.5L418 323C449.25 283 459.75 258.75 459.75 230C459.75 186.25 431.25 153.75 386.5 153.75C345 153.75 314.75 188.75 314.75 223.25Z" fill="black" fill-opacity="0.85"/>
 </g>
</svg>
