<?xml version="1.0" encoding="UTF-8"?>
<!--Generator: Apple Native CoreSVG 326-->
<!DOCTYPE svg
PUBLIC "-//W3C//DTD SVG 1.1//EN"
       "http://www.w3.org/Graphics/SVG/1.1/DTD/svg11.dtd">
<svg version="1.1" xmlns="http://www.w3.org/2000/svg" xmlns:xlink="http://www.w3.org/1999/xlink" viewBox="0 0 587.75 587.75">
 <g>
  <rect height="587.75" opacity="0" width="587.75" x="0" y="0"/>
  <path d="M587.75 96.5L587.75 491.5C587.75 555 555 587.75 490.25 587.75L97.25 587.75C32.75 587.75 0 555.5 0 491.5L0 96.5C0 32.5 32.75 0 97.25 0L490.25 0C555 0 587.75 32.75 587.75 96.5ZM124.25 203.25C122.25 209.75 121.75 215.5 121.75 221C121.75 230.5 127.75 238.25 139.5 238.25C149.75 238.25 155.25 234 158 224C163.25 203.25 174.25 188.75 195 188.75C218.25 188.75 229.75 207 229.75 230.5C229.75 255.75 215.25 274.75 189 274.75L179.75 274.75C169.75 274.75 163.75 281 163.75 290.5C163.75 300 170.25 306 179.75 306L189.5 306C219.25 306 235.75 322.25 235.75 352.75C235.75 377.25 222.75 398.5 196.25 398.5C170.75 398.5 158.5 380.75 154.75 364.25C151.75 354.25 146 349.25 136.25 349.25C124.75 349.25 117.25 356.25 117.25 367.5C117.25 373.25 118.25 379.5 119.75 384.75C129.25 415 161 432.75 196.25 432.75C242.25 432.75 277.25 403 277.25 354C277.25 314.25 254.25 292.5 224.75 289.5L224.75 288.5C254.75 280.5 269.5 253.75 269.5 225.75C269.5 181.25 237 155 195 155C161.25 155 133.5 174.25 124.25 203.25ZM320.25 203.25C318.5 209.75 317.75 215.5 317.75 221C317.75 230.5 324.25 238.25 335.75 238.25C346 238.25 351.5 234 354.5 224C359.25 203.25 370.75 188.75 391 188.75C414.25 188.75 426 207 426 230.5C426 255.75 411.25 274.75 385.5 274.75L376 274.75C366 274.75 359.75 281 359.75 290.5C359.75 300 366.25 306 376 306L386 306C415.25 306 432 322.25 432 352.75C432 377.25 419.25 398.5 392.75 398.5C367 398.5 354.75 380.75 350.75 364.25C348.25 354.25 342 349.25 332.5 349.25C321 349.25 313.5 356.25 313.5 367.5C313.5 373.25 314.5 379.5 316.25 384.75C325.5 415 357.25 432.75 392.5 432.75C438.25 432.75 473.5 403 473.5 354C473.5 314.25 450.25 292.5 421.25 289.5L421.25 288.5C451.25 280.5 465.5 253.75 465.5 225.75C465.5 181.25 433.5 155 391 155C357.25 155 329.75 174.25 320.25 203.25Z" fill="black" fill-opacity="0.85"/>
 </g>
</svg>
