<?xml version="1.0" encoding="UTF-8"?>
<!--Generator: Apple Native CoreSVG 326-->
<!DOCTYPE svg
PUBLIC "-//W3C//DTD SVG 1.1//EN"
       "http://www.w3.org/Graphics/SVG/1.1/DTD/svg11.dtd">
<svg version="1.1" xmlns="http://www.w3.org/2000/svg" xmlns:xlink="http://www.w3.org/1999/xlink" viewBox="0 0 587.75 587.75">
 <g>
  <rect height="587.75" opacity="0" width="587.75" x="0" y="0"/>
  <path d="M97.25 587.75L490.25 587.75C555 587.75 587.75 555 587.75 491.5L587.75 96.5C587.75 32.75 555 0 490.25 0L97.25 0C32.75 0 0 32.5 0 96.5L0 491.5C0 555.5 32.75 587.75 97.25 587.75ZM98.25 543.5C63.25 543.5 44.25 525 44.25 489L44.25 98.75C44.25 63 63.25 44.25 98.25 44.25L489.5 44.25C523.75 44.25 543.5 63 543.5 98.75L543.5 489C543.5 525 523.75 543.5 489.5 543.5Z" fill="black" fill-opacity="0.85"/>
  <path d="M198.75 429.5C243.5 429.5 277.75 400.5 277.75 352.5C277.75 313.75 255.25 292.5 226.75 289.5L226.75 288.5C256 280.75 270 254.75 270 227.25C270 184 238.5 158.25 197.5 158.25C164.5 158.25 137.5 177 128.5 205.5C126.75 211.75 126 217.5 126 222.75C126 232 132.25 239.5 143.25 239.5C153.25 239.5 158.5 235.5 161.25 225.5C166.25 205.25 177.25 191 197.5 191C220.25 191 231.5 209 231.5 232C231.5 256.75 217.25 275.25 192 275.25L182.75 275.25C172.75 275.25 167 281.25 167 290.5C167 299.75 173.25 305.5 182.75 305.5L192.25 305.5C221.25 305.5 237.5 321.5 237.5 351.5C237.5 375.5 224.75 396.25 198.75 396.25C173.75 396.25 161.75 378.75 158 362.5C155.5 353 149.5 348 140 348C129 348 121.75 354.75 121.75 365.75C121.75 371.25 122.75 377.5 124.25 382.5C133.5 412 164.25 429.5 198.75 429.5ZM390 429.5C434.75 429.5 469 400.5 469 352.5C469 313.75 446.5 292.5 418 289.5L418 288.5C447.25 280.75 461.25 254.75 461.25 227.25C461.25 184 430 158.25 388.75 158.25C355.75 158.25 329 177 319.75 205.5C318 211.75 317.25 217.5 317.25 222.75C317.25 232 323.5 239.5 334.75 239.5C344.5 239.5 350 235.5 352.75 225.5C357.5 205.25 368.75 191 388.75 191C411.5 191 423 209 423 232C423 256.75 408.5 275.25 383.25 275.25L374 275.25C364.25 275.25 358.25 281.25 358.25 290.5C358.25 299.75 364.5 305.5 374 305.5L383.5 305.5C412.5 305.5 428.75 321.5 428.75 351.5C428.75 375.5 416.25 396.25 390.25 396.25C365 396.25 353 378.75 349.25 362.5C346.75 353 340.75 348 331.5 348C320.25 348 313 354.75 313 365.75C313 371.25 314 377.5 315.75 382.5C324.75 412 355.5 429.5 390 429.5Z" fill="black" fill-opacity="0.85"/>
 </g>
</svg>
