<?xml version="1.0" encoding="UTF-8"?>
<!--Generator: Apple Native CoreSVG 326-->
<!DOCTYPE svg
PUBLIC "-//W3C//DTD SVG 1.1//EN"
       "http://www.w3.org/Graphics/SVG/1.1/DTD/svg11.dtd">
<svg version="1.1" xmlns="http://www.w3.org/2000/svg" xmlns:xlink="http://www.w3.org/1999/xlink" viewBox="0 0 651.25 651.75">
 <g>
  <rect height="651.75" opacity="0" width="651.25" x="0" y="0"/>
  <path d="M325.5 651.25C505.25 651.25 651.25 505.5 651.25 325.75C651.25 146 505.25 0 325.5 0C145.75 0 0 146 0 325.75C0 505.5 145.75 651.25 325.5 651.25ZM325.5 604.75C171.25 604.75 46.5 480 46.5 325.75C46.5 171.5 171.25 46.75 325.5 46.75C479.75 46.75 604.5 171.5 604.5 325.75C604.5 480 479.75 604.75 325.5 604.75Z" fill="black" fill-opacity="0.85"/>
  <path d="M223 461.5C268 461.5 302 432.5 302 384.5C302 345.75 279.5 324.5 251 321.5L251 320.5C280.25 312.75 294.5 286.75 294.5 259.25C294.5 216 263 190.25 221.75 190.25C188.75 190.25 162 209 152.75 237.5C151 243.75 150.5 249.5 150.5 254.75C150.5 264 156.5 271.5 167.75 271.5C177.75 271.5 183 267.5 185.75 257.5C190.5 237.25 201.75 223 221.75 223C244.75 223 256 241 256 264C256 288.75 241.75 307.25 216.25 307.25L207 307.25C197.25 307.25 191.25 313.25 191.25 322.5C191.25 331.75 197.75 337.5 207 337.5L216.75 337.5C245.5 337.5 261.75 353.5 261.75 383.5C261.75 407.5 249.25 428.25 223.25 428.25C198.25 428.25 186.25 410.75 182.5 394.5C179.75 385 174 380 164.5 380C153.5 380 146 386.75 146 397.75C146 403.25 147 409.5 148.75 414.5C158 444 188.75 461.5 223 461.5ZM454.25 460C464.75 460 473.5 453 473.5 439.75L473.5 402.5L487.25 402.5C498 402.5 503.5 395.5 503.5 385.75C503.5 376.5 498.25 369.5 487.25 369.5L473.5 369.5L473.5 221.75C473.5 201.75 460.25 191.25 442.25 191.25C422.5 191.25 413.25 201.5 405 219.25L342.25 352C337.5 363 335.75 370.25 335.75 379.25C335.75 393 345.25 402.5 359.5 402.5L434.75 402.5L434.75 439.75C434.75 454.5 445 460 454.25 460ZM435.5 370.25L370.75 370.25L370.75 368.5L434.25 228.25L435.5 228.25Z" fill="black" fill-opacity="0.85"/>
 </g>
</svg>
