<?xml version="1.0" encoding="UTF-8"?>
<!--Generator: Apple Native CoreSVG 326-->
<!DOCTYPE svg
PUBLIC "-//W3C//DTD SVG 1.1//EN"
       "http://www.w3.org/Graphics/SVG/1.1/DTD/svg11.dtd">
<svg version="1.1" xmlns="http://www.w3.org/2000/svg" xmlns:xlink="http://www.w3.org/1999/xlink" viewBox="0 0 651.25 651.75">
 <g>
  <rect height="651.75" opacity="0" width="651.25" x="0" y="0"/>
  <path d="M651.25 325.75C651.25 505 505 651.25 325.5 651.25C146.25 651.25 0 505 0 325.75C0 146.25 146.25 0 325.5 0C505 0 651.25 146.25 651.25 325.75ZM148.5 235.25C146.75 241.75 146 247.5 146 253C146 262.5 152.5 270.25 164 270.25C174.25 270.25 179.75 266 182.75 256C187.5 235.25 199 220.75 219.5 220.75C242.75 220.75 254.25 239 254.25 262.5C254.25 287.75 239.5 306.75 213.75 306.75L204.25 306.75C194.25 306.75 188 313 188 322.5C188 332 194.75 338 204.25 338L214.25 338C243.5 338 260.25 354.25 260.25 384.75C260.25 409.25 247.5 430.5 221 430.5C195.5 430.5 183.25 412.75 179 396.25C176.5 386.25 170.5 381.25 160.75 381.25C149.5 381.25 141.75 388.25 141.75 399.5C141.75 405.25 142.75 411.5 144.5 416.75C153.75 447 185.5 464.75 220.75 464.75C266.75 464.75 301.75 435 301.75 386C301.75 346.25 278.5 324.5 249.5 321.5L249.5 320.5C279.5 312.5 293.75 285.75 293.75 257.75C293.75 213.25 261.75 187 219.5 187C185.5 187 158 206.25 148.5 235.25ZM407 216.75L343 352.5C338 363.75 336.25 371.25 336.25 380.5C336.25 394.75 346 404.5 360.75 404.5L437.75 404.5L437.75 442.25C437.75 457.5 448.25 463.5 457.75 463.5C468.5 463.5 477.75 456.25 477.75 442.25L477.75 404.5L491.5 404.5C503 404.5 508.25 397.25 508.25 387.25C508.25 377.75 503 370.5 491.5 370.5L477.75 370.5L477.75 219.5C477.75 198.5 464 188 445.25 188C425 188 415.5 198.5 407 216.75ZM438.5 371.25L372.25 371.25L372.25 369.5L437.25 226L438.5 226Z" fill="black" fill-opacity="0.85"/>
 </g>
</svg>
