<?xml version="1.0" encoding="UTF-8"?>
<!--Generator: Apple Native CoreSVG 326-->
<!DOCTYPE svg
PUBLIC "-//W3C//DTD SVG 1.1//EN"
       "http://www.w3.org/Graphics/SVG/1.1/DTD/svg11.dtd">
<svg version="1.1" xmlns="http://www.w3.org/2000/svg" xmlns:xlink="http://www.w3.org/1999/xlink" viewBox="0 0 587.75 587.75">
 <g>
  <rect height="587.75" opacity="0" width="587.75" x="0" y="0"/>
  <path d="M587.75 96.5L587.75 491.5C587.75 555 555 587.75 490.25 587.75L97.25 587.75C32.75 587.75 0 555.5 0 491.5L0 96.5C0 32.5 32.75 0 97.25 0L490.25 0C555 0 587.75 32.75 587.75 96.5ZM351.75 160C336 160 329 170.25 328 185.75L322.25 280C321.75 285.25 321.5 290.5 321.5 294.75C321.5 306 327.25 315.75 340.75 315.75C349.25 315.75 354 312 360 303.75C367.75 291.5 377.5 283 391.75 283C418 283 428.5 314.25 428.5 340.25C428.5 369.75 417.5 399.5 391.25 399.5C371 399.5 359 384.25 353.5 364.75C350 354.5 343.5 350.25 335.75 350.25C324.75 350.25 318 357.25 318 368C318 374.5 320 381.5 322.25 387.25C333 415 361 433.75 391.75 433.75C442 433.75 469.25 390.25 469.25 339.25C469.25 294 447.5 251.75 405 251.75C385.75 251.75 367.25 260.75 358.25 280.75L357 280.75L363 195L442.25 195C452.25 195 458.75 187.75 458.75 177.25C458.75 167.5 452 160 442.25 160ZM123.25 203.25C121.5 209.75 120.75 215.5 120.75 221C120.75 230.5 127 238.25 138.75 238.25C149 238.25 154.5 234 157.25 224C162.25 203.25 173.75 188.75 194 188.75C217.5 188.75 229 207 229 230.5C229 255.75 214.5 274.75 188.5 274.75L179 274.75C169 274.75 162.75 281 162.75 290.5C162.75 300 169.5 306 179 306L189 306C218.25 306 234.75 322.25 234.75 352.75C234.75 377.25 222 398.5 195.5 398.5C170 398.5 157.75 380.75 153.75 364C151.25 354.25 145.25 349.25 135.5 349.25C124 349.25 116.25 356.25 116.25 367.5C116.25 373.25 117.25 379.5 119.25 384.75C128.25 415 160.25 432.75 195.25 432.75C241.5 432.75 276.5 403 276.5 354C276.5 314.25 253.25 292.5 224.25 289.5L224.25 288.25C254 280.5 268.75 253.75 268.75 225.75C268.75 181.25 236.25 155 194 155C160.25 155 132.75 174.25 123.25 203.25Z" fill="black" fill-opacity="0.85"/>
 </g>
</svg>
