<?xml version="1.0" encoding="UTF-8"?>
<!--Generator: Apple Native CoreSVG 326-->
<!DOCTYPE svg
PUBLIC "-//W3C//DTD SVG 1.1//EN"
       "http://www.w3.org/Graphics/SVG/1.1/DTD/svg11.dtd">
<svg version="1.1" xmlns="http://www.w3.org/2000/svg" xmlns:xlink="http://www.w3.org/1999/xlink" viewBox="0 0 587.75 587.75">
 <g>
  <rect height="587.75" opacity="0" width="587.75" x="0" y="0"/>
  <path d="M587.75 96.5L587.75 491.5C587.75 555 555 587.75 490.25 587.75L97.25 587.75C32.75 587.75 0 555.5 0 491.5L0 96.5C0 32.5 32.75 0 97.25 0L490.25 0C555 0 587.75 32.75 587.75 96.5ZM309.5 297.5C309.5 359.75 328.75 433.75 393.75 433.75C443.25 433.75 471 391.25 471 340C471 295.5 449.5 252.75 405.75 252.75C377.75 252.75 357.5 272.25 350.5 301L349.25 301C349.25 299.75 349.25 298.25 349.25 297C349.25 258.5 354.25 188.5 393.5 188.5C410.25 188.5 421 200.75 427 216.5C431 225.5 436.5 230 446.25 230C457.75 230 463 222.5 463 212.75C463 209.25 462.5 205 461.25 200.75C454 172 426.5 154.25 394.25 154.25C328 154.25 309.5 232.25 309.5 297.5ZM120 203.25C118.25 209.75 117.25 215.5 117.25 221C117.25 230.5 123.75 238.25 135.25 238.25C145.5 238.25 151 234 153.75 224C159 203.25 170 188.75 190.75 188.75C214 188.75 225.75 207 225.75 230.5C225.75 255.75 211 274.75 185 274.75L175.75 274.75C165.5 274.75 159.5 281 159.5 290.5C159.5 300 166 306 175.75 306L185.25 306C215 306 231.5 322.25 231.5 352.75C231.5 377.25 218.75 398.5 192 398.5C166.5 398.5 154.25 380.75 150.5 364.25C147.75 354.25 141.75 349.25 131.75 349.25C120.5 349.25 113 356.25 113 367.5C113 373.25 114 379.5 115.5 384.75C125 415 156.75 432.75 192 432.75C238 432.75 273 403 273 354C273 314.25 250 292.5 220.75 289.5L220.75 288.5C250.75 280.5 265.25 253.75 265.25 225.75C265.25 181.25 233 155 190.75 155C157 155 129.5 174.25 120 203.25ZM430.5 342C430.5 368.25 418.5 399.5 393.25 399.5C366.5 399.5 355 366.5 355 340.25C355 314.25 367.75 285 393.25 285C419.5 285 431 315.5 430.5 342Z" fill="black" fill-opacity="0.85"/>
 </g>
</svg>
