<?xml version="1.0" encoding="UTF-8"?>
<!--Generator: Apple Native CoreSVG 326-->
<!DOCTYPE svg
PUBLIC "-//W3C//DTD SVG 1.1//EN"
       "http://www.w3.org/Graphics/SVG/1.1/DTD/svg11.dtd">
<svg version="1.1" xmlns="http://www.w3.org/2000/svg" xmlns:xlink="http://www.w3.org/1999/xlink" viewBox="0 0 651.25 651.75">
 <g>
  <rect height="651.75" opacity="0" width="651.25" x="0" y="0"/>
  <path d="M325.5 651.25C505.25 651.25 651.25 505.5 651.25 325.75C651.25 146 505.25 0 325.5 0C145.75 0 0 146 0 325.75C0 505.5 145.75 651.25 325.5 651.25ZM325.5 604.75C171.25 604.75 46.5 480 46.5 325.75C46.5 171.5 171.25 46.75 325.5 46.75C479.75 46.75 604.5 171.5 604.5 325.75C604.5 480 479.75 604.75 325.5 604.75Z" fill="black" fill-opacity="0.85"/>
  <path d="M240.25 461.5C285.25 461.5 319.25 432.5 319.25 384.5C319.25 345.75 296.75 324.5 268.25 321.5L268.25 320.5C297.5 312.75 311.75 286.75 311.75 259.25C311.75 216 280.25 190.25 239 190.25C206 190.25 179.25 209 170 237.5C168.25 243.75 167.75 249.5 167.75 254.75C167.75 264 173.75 271.5 185 271.5C195 271.5 200.25 267.5 203 257.5C208 237.25 219 223 239 223C262 223 273.25 241 273.25 264C273.25 288.75 259 307.25 233.5 307.25L224.25 307.25C214.5 307.25 208.75 313.25 208.75 322.5C208.75 331.75 215 337.5 224.25 337.5L234 337.5C262.75 337.5 279 353.5 279 383.5C279 407.5 266.5 428.25 240.5 428.25C215.5 428.25 203.5 410.75 199.75 394.5C197 385 191.25 380 181.75 380C170.75 380 163.5 386.75 163.5 397.75C163.5 403.25 164.25 409.5 166 414.5C175.25 444 206 461.5 240.25 461.5ZM392 460.25C402.5 460.25 407.25 455.75 411 445.75L487.25 241.25C490.5 232.75 492.5 225.75 492.5 217.25C492.5 204.25 482.5 195.5 469.5 195.5L364.75 195.5C355 195.5 348.25 202.5 348.25 212.25C348.25 222 355 229 364.75 229L451.5 229L451.5 231.5L377 425.75C374.5 432 373.5 436 373.5 442.5C373.5 451.25 379 460.25 392 460.25Z" fill="black" fill-opacity="0.85"/>
 </g>
</svg>
