<?xml version="1.0" encoding="UTF-8"?>
<!--Generator: Apple Native CoreSVG 326-->
<!DOCTYPE svg
PUBLIC "-//W3C//DTD SVG 1.1//EN"
       "http://www.w3.org/Graphics/SVG/1.1/DTD/svg11.dtd">
<svg version="1.1" xmlns="http://www.w3.org/2000/svg" xmlns:xlink="http://www.w3.org/1999/xlink" viewBox="0 0 651.25 651.75">
 <g>
  <rect height="651.75" opacity="0" width="651.25" x="0" y="0"/>
  <path d="M651.25 325.75C651.25 505 505 651.25 325.5 651.25C146.25 651.25 0 505 0 325.75C0 146.25 146.25 0 325.5 0C505 0 651.25 146.25 651.25 325.75ZM166.25 235.25C164.5 241.75 163.5 247.5 163.5 253C163.5 262.5 170 270.25 181.75 270.25C192 270.25 197.5 266 200.25 256C205.25 235.25 216.5 220.75 237 220.75C260.5 220.75 272 239 272 262.5C272 287.75 257.5 306.75 231.25 306.75L222 306.75C212 306.75 205.75 313 205.75 322.5C205.75 332 212.5 338 222 338L231.75 338C261.25 338 277.75 354.25 277.75 384.75C277.75 409.25 265 430.5 238.5 430.5C213 430.5 200.75 412.75 196.75 396.25C194 386.25 188.25 381.25 178.25 381.25C167 381.25 159.25 388.25 159.25 399.5C159.25 405.25 160.25 411.5 162 416.75C171.25 447 203.25 464.75 238.25 464.75C284.5 464.75 319.25 435 319.25 386C319.25 346.25 296.25 324.5 267 321.5L267 320.5C297 312.5 311.75 285.75 311.75 257.75C311.75 213.25 279.25 187 237 187C203.25 187 175.75 206.25 166.25 235.25ZM366 192C356 192 349 199.25 349 209.25C349 219.5 356 226.75 366 226.75L454.75 226.75L454.75 229.5L378.5 428C376 434.75 375 438.5 375 445.25C375 454.25 380.5 463.5 394 463.5C404.75 463.5 409.75 459.25 413.5 448.5L491.75 239.5C495 230.75 497.25 223.5 497.25 214.75C497.25 201 487 192 473.5 192Z" fill="black" fill-opacity="0.85"/>
 </g>
</svg>
