<?xml version="1.0" encoding="UTF-8"?>
<!--Generator: Apple Native CoreSVG 326-->
<!DOCTYPE svg
PUBLIC "-//W3C//DTD SVG 1.1//EN"
       "http://www.w3.org/Graphics/SVG/1.1/DTD/svg11.dtd">
<svg version="1.1" xmlns="http://www.w3.org/2000/svg" xmlns:xlink="http://www.w3.org/1999/xlink" viewBox="0 0 651.25 651.75">
 <g>
  <rect height="651.75" opacity="0" width="651.25" x="0" y="0"/>
  <path d="M651.25 325.75C651.25 505 505 651.25 325.5 651.25C146.25 651.25 0 505 0 325.75C0 146.25 146.25 0 325.5 0C505 0 651.25 146.25 651.25 325.75ZM150.75 235.25C149 241.75 148.5 247.5 148.5 253C148.5 262.5 154.75 270.25 166.25 270.25C176.75 270.25 182 266 185 256C190 235.25 201.25 220.75 221.75 220.75C245.25 220.75 256.5 239 256.5 262.5C256.5 287.75 242 306.75 216 306.75L206.75 306.75C196.5 306.75 190.75 313 190.75 322.5C190.75 332 197 338 206.75 338L216.5 338C246 338 262.75 354.25 262.75 384.75C262.75 409.25 249.75 430.5 223.25 430.5C197.75 430.5 185.5 412.75 181.5 396.25C178.75 386.25 172.75 381.25 163 381.25C151.75 381.25 144 388.25 144 399.5C144 405.25 145 411.5 146.75 416.75C156.25 447 187.75 464.75 223 464.75C269 464.75 304 435 304 386C304 346.25 281.25 324.5 251.75 321.5L251.75 320.5C281.75 312.5 296.25 285.75 296.25 257.75C296.25 213.25 264 187 221.75 187C188 187 160.25 206.25 150.75 235.25ZM347.75 258C347.75 290.5 367 311 389.25 317.75L389.25 318.75C361.25 325.25 340 352 340 387.25C340 434.75 375.25 464.75 423 464.75C473.75 464.75 506.25 432 506.25 387.25C506.25 351.75 484 325 457.25 318.75L457.25 317.75C480 310.75 498.75 288.5 498.75 258.25C498.75 216.5 468.5 187 423 187C382.5 187 347.75 213 347.75 258ZM462.75 384C462.75 410 449.25 432.75 423.25 432.75C397.5 432.75 383.75 410 383.75 384C383.75 358 397.5 336.25 423.25 336.25C447.75 336.25 462.75 356.5 462.75 384ZM457.75 262.25C457.75 285.5 445.25 304.25 423.25 304.25C401.5 304.25 388.25 284.5 388.25 262.25C388.25 239 401.25 218.75 423.25 218.75C446.5 218.75 457.75 239.75 457.75 262.25Z" fill="black" fill-opacity="0.85"/>
 </g>
</svg>
