<?xml version="1.0" encoding="UTF-8"?>
<!--Generator: Apple Native CoreSVG 326-->
<!DOCTYPE svg
PUBLIC "-//W3C//DTD SVG 1.1//EN"
       "http://www.w3.org/Graphics/SVG/1.1/DTD/svg11.dtd">
<svg version="1.1" xmlns="http://www.w3.org/2000/svg" xmlns:xlink="http://www.w3.org/1999/xlink" viewBox="0 0 587.75 587.75">
 <g>
  <rect height="587.75" opacity="0" width="587.75" x="0" y="0"/>
  <path d="M97.25 587.75L490.25 587.75C555 587.75 587.75 555 587.75 491.5L587.75 96.5C587.75 32.75 555 0 490.25 0L97.25 0C32.75 0 0 32.5 0 96.5L0 491.5C0 555.5 32.75 587.75 97.25 587.75ZM98.25 543.5C63.25 543.5 44.25 525 44.25 489L44.25 98.75C44.25 63 63.25 44.25 98.25 44.25L489.5 44.25C523.75 44.25 543.5 63 543.5 98.75L543.5 489C543.5 525 523.75 543.5 489.5 543.5Z" fill="black" fill-opacity="0.85"/>
  <path d="M195.25 429.5C240 429.5 274.25 400.5 274.25 352.5C274.25 313.75 251.75 292.5 223.25 289.5L223.25 288.5C252.5 280.75 266.5 254.75 266.5 227.25C266.5 184 235.25 158.25 194 158.25C161 158.25 134.25 177 125 205.5C123.25 211.75 122.5 217.5 122.5 222.75C122.5 232 128.75 239.5 140 239.5C150 239.5 155.25 235.5 158 225.5C162.75 205.25 174 191 194 191C216.75 191 228.25 209 228.25 232C228.25 256.75 213.75 275.25 188.5 275.25L179.25 275.25C169.5 275.25 163.5 281.25 163.5 290.5C163.5 299.75 169.75 305.5 179.25 305.5L189 305.5C217.75 305.5 234 321.5 234 351.5C234 375.5 221.5 396.25 195.5 396.25C170.25 396.25 158.25 378.75 154.5 362.5C152 353 146 348 136.75 348C125.75 348 118.25 354.75 118.25 365.75C118.25 371.25 119.25 377.5 121 382.5C130 412 161 429.5 195.25 429.5ZM371.75 334C399.25 334 419 315.25 426 287L427.25 287C427.25 288.25 427.25 289.75 427.25 291C427.25 328.75 422.25 396.5 383.25 396.5C367.25 396.5 356.5 385.25 350.5 369.25C346.5 359.25 340.75 355.25 332.25 355.25C320.5 355.25 315.25 363.25 315.25 372.75C315.25 376.25 316 380.5 317.25 384.5C324.5 413 351.25 430 382.75 430C447.5 430 465.75 355 465.75 290.5C465.75 229.75 446.75 157.5 383.25 157.5C335.5 157.5 308 199 308 249.25C308 292.5 329 334 371.75 334ZM383.75 302.5C358 302.5 347 273.25 347 247.5C347 221 359 190.75 383.75 190.75C410 190.75 421.5 221.25 421.5 247.5C421.5 274.25 409 302.5 383.75 302.5Z" fill="black" fill-opacity="0.85"/>
 </g>
</svg>
