<?xml version="1.0" encoding="UTF-8"?>
<!--Generator: Apple Native CoreSVG 326-->
<!DOCTYPE svg
PUBLIC "-//W3C//DTD SVG 1.1//EN"
       "http://www.w3.org/Graphics/SVG/1.1/DTD/svg11.dtd">
<svg version="1.1" xmlns="http://www.w3.org/2000/svg" xmlns:xlink="http://www.w3.org/1999/xlink" viewBox="0 0 651.25 651.75">
 <g>
  <rect height="651.75" opacity="0" width="651.25" x="0" y="0"/>
  <path d="M651.25 325.75C651.25 505 505 651.25 325.5 651.25C146.25 651.25 0 505 0 325.75C0 146.25 146.25 0 325.5 0C505 0 651.25 146.25 651.25 325.75ZM313.75 185.5C279.5 245 244 307.25 209.5 368.75C206 375 204.5 381 204.5 387.25C204.5 401.5 214.25 410.75 230 410.75L356 410.75L356 451.5C356 467 363.75 475.75 376.75 475.75C390.25 475.75 398.25 467.25 398.25 451.5L398.25 410.75L423.75 410.75C436.5 410.75 444.5 403 444.5 391C444.5 380 436.5 372.5 423.75 372.5L398.25 372.5L398.25 297.5C398.25 282 390.25 273.5 376.75 273.5C363.75 273.5 356 282.25 356 297.5L356 372.5L258.25 372.5C287.5 317.75 320.25 262.5 350.75 206C353 201.25 354.5 197.25 354.5 192.5C354.5 181.5 347.5 171.5 334.25 171.5C325.25 171.5 319 176 313.75 185.5Z" fill="black" fill-opacity="0.85"/>
 </g>
</svg>
