<?xml version="1.0" encoding="UTF-8"?>
<!--Generator: Apple Native CoreSVG 326-->
<!DOCTYPE svg
PUBLIC "-//W3C//DTD SVG 1.1//EN"
       "http://www.w3.org/Graphics/SVG/1.1/DTD/svg11.dtd">
<svg version="1.1" xmlns="http://www.w3.org/2000/svg" xmlns:xlink="http://www.w3.org/1999/xlink" viewBox="0 0 651.25 651.75">
 <g>
  <rect height="651.75" opacity="0" width="651.25" x="0" y="0"/>
  <path d="M651.25 325.75C651.25 505 505 651.25 325.5 651.25C146.25 651.25 0 505 0 325.75C0 146.25 146.25 0 325.5 0C505 0 651.25 146.25 651.25 325.75ZM310.25 194.75C277 244.5 230 313.75 203 358C197.25 367.5 195.25 374.75 195.25 383.25C195.25 400.5 207 411.75 225.5 411.75L346.5 411.75L346.5 451.75C346.5 466.5 354.5 475.5 367.5 475.5C381.25 475.5 389 466.75 389 451.75L389 411.75L417.5 411.75C428.75 411.75 436.75 404 436.75 393C436.75 381.5 429 373.75 417.5 373.75L389 373.75L389 200.5C389 182.25 375 170 354.25 170C334.5 170 322 177 310.25 194.75ZM346.5 373.75L238 373.75L238 372C262.25 330.5 312.25 256.25 344.25 208.25L346.5 208.25Z" fill="black" fill-opacity="0.85"/>
 </g>
</svg>
