<?xml version="1.0" encoding="UTF-8"?>
<!--Generator: Apple Native CoreSVG 326-->
<!DOCTYPE svg
PUBLIC "-//W3C//DTD SVG 1.1//EN"
       "http://www.w3.org/Graphics/SVG/1.1/DTD/svg11.dtd">
<svg version="1.1" xmlns="http://www.w3.org/2000/svg" xmlns:xlink="http://www.w3.org/1999/xlink" viewBox="0 0 651.25 651.75">
 <g>
  <rect height="651.75" opacity="0" width="651.25" x="0" y="0"/>
  <path d="M651.25 325.75C651.25 505 505 651.25 325.5 651.25C146.25 651.25 0 505 0 325.75C0 146.25 146.25 0 325.5 0C505 0 651.25 146.25 651.25 325.75ZM337.75 325.75C337.75 390.25 356 465.75 420.5 465.75C485.5 465.75 503.75 390.25 503.75 325.75C503.75 261.25 485.5 185.75 420.5 185.75C356 185.75 337.75 261.25 337.75 325.75ZM201.5 216.75L137.5 352.5C132.75 363.75 130.75 371.25 130.75 380.5C130.75 394.75 140.75 404.5 155.25 404.5L232.25 404.5L232.25 442.5C232.25 457.5 242.75 463.5 252.25 463.5C263.25 463.5 272.25 456.25 272.25 442.5L272.25 404.5L286.25 404.5C297.25 404.5 303 397.25 303 387.25C303 377.75 297.5 370.5 286.25 370.5L272.25 370.5L272.25 219.5C272.25 198.5 258.5 188 240 188C219.5 188 209.75 198.5 201.5 216.75ZM461 325.75C461 380.75 451.5 431 420.5 431C389.75 431 380 380.75 380 325.75C380 270.5 389.75 220.5 420.5 220.5C451.5 220.5 461 270.5 461 325.75ZM233 371.25L167 371.25L167 369.5L231.75 226L233 226Z" fill="black" fill-opacity="0.85"/>
 </g>
</svg>
