<?xml version="1.0" encoding="UTF-8"?>
<!--Generator: Apple Native CoreSVG 326-->
<!DOCTYPE svg
PUBLIC "-//W3C//DTD SVG 1.1//EN"
       "http://www.w3.org/Graphics/SVG/1.1/DTD/svg11.dtd">
<svg version="1.1" xmlns="http://www.w3.org/2000/svg" xmlns:xlink="http://www.w3.org/1999/xlink" viewBox="0 0 587.75 587.75">
 <g>
  <rect height="587.75" opacity="0" width="587.75" x="0" y="0"/>
  <path d="M97.25 587.75L490.25 587.75C555 587.75 587.75 555 587.75 491.5L587.75 96.5C587.75 32.75 555 0 490.25 0L97.25 0C32.75 0 0 32.5 0 96.5L0 491.5C0 555.5 32.75 587.75 97.25 587.75ZM98.25 543.5C63.25 543.5 44.25 525 44.25 489L44.25 98.75C44.25 63 63.25 44.25 98.25 44.25L489.5 44.25C523.75 44.25 543.5 63 543.5 98.75L543.5 489C543.5 525 523.75 543.5 489.5 543.5Z" fill="black" fill-opacity="0.85"/>
  <path d="M222.5 428C233 428 241.75 421 241.75 407.75L241.75 370.5L255.5 370.5C266.25 370.5 271.5 363.5 271.5 353.75C271.5 344.5 266.5 337.5 255.5 337.5L241.75 337.5L241.75 189.75C241.75 169.75 228.5 159.25 210.5 159.25C190.75 159.25 181.25 169.5 173.25 187.25L110.5 320C105.75 331 104 338.25 104 347.25C104 361 113.5 370.5 127.75 370.5L203 370.5L203 407.75C203 422.5 213.25 428 222.5 428ZM203.75 338.25L139 338.25L139 336.5L202.5 196.25L203.75 196.25ZM386.5 430.5C449.5 430.5 467.5 356.5 467.5 293.75C467.5 231 449.5 157 386.5 157C323.5 157 305.75 231 305.75 293.75C305.75 356.5 323.5 430.5 386.5 430.5ZM386.5 396.75C356.25 396.75 346.75 347.25 346.75 293.75C346.75 240 356.25 190.75 386.5 190.75C416.75 190.75 426.25 240 426.25 293.75C426.25 347.25 416.75 396.75 386.5 396.75Z" fill="black" fill-opacity="0.85"/>
 </g>
</svg>
