<?xml version="1.0" encoding="UTF-8"?>
<!--Generator: Apple Native CoreSVG 326-->
<!DOCTYPE svg
PUBLIC "-//W3C//DTD SVG 1.1//EN"
       "http://www.w3.org/Graphics/SVG/1.1/DTD/svg11.dtd">
<svg version="1.1" xmlns="http://www.w3.org/2000/svg" xmlns:xlink="http://www.w3.org/1999/xlink" viewBox="0 0 587.75 587.75">
 <g>
  <rect height="587.75" opacity="0" width="587.75" x="0" y="0"/>
  <path d="M97.25 587.75L490.25 587.75C555 587.75 587.75 555 587.75 491.5L587.75 96.5C587.75 32.75 555 0 490.25 0L97.25 0C32.75 0 0 32.5 0 96.5L0 491.5C0 555.5 32.75 587.75 97.25 587.75ZM98.25 543.5C63.25 543.5 44.25 525 44.25 489L44.25 98.75C44.25 63 63.25 44.25 98.25 44.25L489.5 44.25C523.75 44.25 543.5 63 543.5 98.75L543.5 489C543.5 525 523.75 543.5 489.5 543.5Z" fill="black" fill-opacity="0.85"/>
  <path d="M246.5 428C257 428 265.5 421 265.5 407.75L265.5 370.5L279.25 370.5C290.25 370.5 295.5 363.5 295.5 353.75C295.5 344.5 290.5 337.5 279.25 337.5L265.5 337.5L265.5 189.75C265.5 169.75 252.5 159.25 234.5 159.25C214.75 159.25 205.25 169.5 197.25 187.25L134.5 320C129.75 331 128 338.25 128 347.25C128 361 137.5 370.5 151.75 370.5L226.75 370.5L226.75 407.75C226.75 422.5 237 428 246.5 428ZM227.5 338.25L163 338.25L163 336.5L226.25 196.25L227.5 196.25ZM398.5 427.5C409.5 427.5 419 418.25 419 406.75L419 182.25C419 168 409.75 159.5 395.5 159.5C383.75 159.5 374 165.75 367.25 171.25L329.5 201C324.5 205 320.75 210.25 320.75 217.5C320.75 226.5 326.75 232.75 335.5 232.75C340 232.75 342.75 231.25 345.5 229L377.75 203.25L377.75 406.75C377.75 418.25 387.25 427.5 398.5 427.5Z" fill="black" fill-opacity="0.85"/>
 </g>
</svg>
