<?xml version="1.0" encoding="UTF-8"?>
<!--Generator: Apple Native CoreSVG 326-->
<!DOCTYPE svg
PUBLIC "-//W3C//DTD SVG 1.1//EN"
       "http://www.w3.org/Graphics/SVG/1.1/DTD/svg11.dtd">
<svg version="1.1" xmlns="http://www.w3.org/2000/svg" xmlns:xlink="http://www.w3.org/1999/xlink" viewBox="0 0 587.75 587.75">
 <g>
  <rect height="587.75" opacity="0" width="587.75" x="0" y="0"/>
  <path d="M587.75 96.5L587.75 491.5C587.75 555 555 587.75 490.25 587.75L97.25 587.75C32.75 587.75 0 555.5 0 491.5L0 96.5C0 32.5 32.75 0 97.25 0L490.25 0C555 0 587.75 32.75 587.75 96.5ZM195 184.75L131 320.5C126 331.75 124.25 339.25 124.25 348.5C124.25 362.75 134 372.5 148.5 372.5L225.25 372.5L225.25 410.5C225.25 425.5 236 431.5 245.75 431.5C256.5 431.5 265.25 424.25 265.25 410.5L265.25 372.5L279.25 372.5C290.75 372.5 296 365.25 296 355.25C296 345.75 291 338.5 279.25 338.5L265.25 338.5L265.25 187.5C265.25 166.5 252 156 233.25 156C213 156 203.25 166.5 195 184.75ZM369.5 168L330.75 198.75C325.75 202.75 321.75 208.25 321.75 215.75C321.75 225 328 231.5 337 231.5C341.75 231.5 344.5 230 347.25 227.5L380.25 201.25L380.25 409.25C380.25 421.25 390 430.75 401.75 430.75C413.25 430.75 422.75 421.25 422.75 409.25L422.75 179.75C422.75 165 413.5 156 398.5 156C386.5 156 376.25 162.75 369.5 168ZM226 339.25L160.25 339.25L160.25 337.5L224.75 194L226 194Z" fill="black" fill-opacity="0.85"/>
 </g>
</svg>
