<?xml version="1.0" encoding="UTF-8"?>
<!--Generator: Apple Native CoreSVG 326-->
<!DOCTYPE svg
PUBLIC "-//W3C//DTD SVG 1.1//EN"
       "http://www.w3.org/Graphics/SVG/1.1/DTD/svg11.dtd">
<svg version="1.1" xmlns="http://www.w3.org/2000/svg" xmlns:xlink="http://www.w3.org/1999/xlink" viewBox="0 0 651.25 651.75">
 <g>
  <rect height="651.75" opacity="0" width="651.25" x="0" y="0"/>
  <path d="M325.5 651.25C505.25 651.25 651.25 505.5 651.25 325.75C651.25 146 505.25 0 325.5 0C145.75 0 0 146 0 325.75C0 505.5 145.75 651.25 325.5 651.25ZM325.5 604.75C171.25 604.75 46.5 480 46.5 325.75C46.5 171.5 171.25 46.75 325.5 46.75C479.75 46.75 604.5 171.5 604.5 325.75C604.5 480 479.75 604.75 325.5 604.75Z" fill="black" fill-opacity="0.85"/>
  <path d="M259 460C269.5 460 278.25 453 278.25 439.75L278.25 402.5L292 402.5C303 402.5 308.25 395.5 308.25 385.75C308.25 376.5 303 369.5 292 369.5L278.25 369.5L278.25 221.75C278.25 201.75 265 191.25 247.25 191.25C227.25 191.25 218 201.5 210 219.25L147 352C142.25 363 140.5 370.25 140.5 379.25C140.5 393 150 402.5 164.25 402.5L239.5 402.5L239.5 439.75C239.5 454.5 249.75 460 259 460ZM240.25 370.25L175.75 370.25L175.75 368.5L239 228.25L240.25 228.25ZM360.25 456.25L471.75 456.25C481.75 456.25 488 449.5 488 439.5C488 429 481.5 422.75 471.75 422.75L391.5 422.75L391.5 420.5L442 354.25C472.75 315.25 482.75 291.5 482.75 263.5C482.75 220.75 455.25 189 411.5 189C371.25 189 341.5 223.25 341.5 257C341.5 267.25 347.5 274.75 358.5 274.75C367.75 274.75 373.75 270.5 376.25 261.25C382 237.5 391 222 411.5 222C433.25 222 444.5 242 444.5 265.25C444.5 290.75 428.75 315.75 410.75 339.25L351.25 417.25C346 424 341 431 341 439.5C341 449.25 347.5 456.25 360.25 456.25Z" fill="black" fill-opacity="0.85"/>
 </g>
</svg>
