<?xml version="1.0" encoding="UTF-8"?>
<!--Generator: Apple Native CoreSVG 326-->
<!DOCTYPE svg
PUBLIC "-//W3C//DTD SVG 1.1//EN"
       "http://www.w3.org/Graphics/SVG/1.1/DTD/svg11.dtd">
<svg version="1.1" xmlns="http://www.w3.org/2000/svg" xmlns:xlink="http://www.w3.org/1999/xlink" viewBox="0 0 587.75 587.75">
 <g>
  <rect height="587.75" opacity="0" width="587.75" x="0" y="0"/>
  <path d="M587.75 96.5L587.75 491.5C587.75 555 555 587.75 490.25 587.75L97.25 587.75C32.75 587.75 0 555.5 0 491.5L0 96.5C0 32.5 32.75 0 97.25 0L490.25 0C555 0 587.75 32.75 587.75 96.5ZM175.5 185L111.5 320.5C106.5 331.75 104.75 339.25 104.75 348.5C104.75 362.75 114.5 372.5 129.25 372.5L206.25 372.5L206.25 410.5C206.25 425.75 216.75 431.5 226.25 431.5C237.25 431.5 246.25 424.25 246.25 410.5L246.25 372.5L260.25 372.5C271.25 372.5 277 365.25 277 355.25C277 345.75 271.5 338.5 260.25 338.5L246.25 338.5L246.25 187.5C246.25 166.75 232.5 156 214 156C193.5 156 184 166.5 175.5 185ZM311 223.25C311 233.75 317 241.75 328.5 241.75C338 241.75 344 237.25 346.75 227.75C352.75 203.5 361.75 187.75 382.75 187.75C404.75 187.75 416.25 208 416.25 231.75C416.25 258 400 283.75 381.75 307.75L321 387.25C315.5 394.25 310.5 401.5 310.5 410.5C310.5 420.25 317 427.5 330.25 427.5L444.5 427.5C454.75 427.5 461.25 420.5 461.25 410.25C461.25 399.25 454.5 393 444.5 393L362.5 393L362.5 390.5L414 323C445.5 283 455.75 258.75 455.75 230C455.75 186.25 427.5 153.75 382.75 153.75C341.5 153.75 311 188.75 311 223.25ZM207 339.25L141 339.25L141 337.5L205.75 194L207 194Z" fill="black" fill-opacity="0.85"/>
 </g>
</svg>
