<?xml version="1.0" encoding="UTF-8"?>
<!--Generator: Apple Native CoreSVG 326-->
<!DOCTYPE svg
PUBLIC "-//W3C//DTD SVG 1.1//EN"
       "http://www.w3.org/Graphics/SVG/1.1/DTD/svg11.dtd">
<svg version="1.1" xmlns="http://www.w3.org/2000/svg" xmlns:xlink="http://www.w3.org/1999/xlink" viewBox="0 0 651.25 651.75">
 <g>
  <rect height="651.75" opacity="0" width="651.25" x="0" y="0"/>
  <path d="M325.5 651.25C505.25 651.25 651.25 505.5 651.25 325.75C651.25 146 505.25 0 325.5 0C145.75 0 0 146 0 325.75C0 505.5 145.75 651.25 325.5 651.25ZM325.5 604.75C171.25 604.75 46.5 480 46.5 325.75C46.5 171.5 171.25 46.75 325.5 46.75C479.75 46.75 604.5 171.5 604.5 325.75C604.5 480 479.75 604.75 325.5 604.75Z" fill="black" fill-opacity="0.85"/>
  <path d="M257 460C267.5 460 276.25 453 276.25 439.75L276.25 402.5L290 402.5C300.75 402.5 306.25 395.5 306.25 385.75C306.25 376.5 301 369.5 290 369.5L276.25 369.5L276.25 221.75C276.25 201.75 263 191.25 245 191.25C225.25 191.25 216 201.5 207.75 219.25L145 352C140.25 363 138.5 370.25 138.5 379.25C138.5 393 148 402.5 162.25 402.5L237.5 402.5L237.5 439.75C237.5 454.5 247.75 460 257 460ZM238.25 370.25L173.5 370.25L173.5 368.5L237 228.25L238.25 228.25ZM417.25 461.5C462 461.5 496.25 432.5 496.25 384.5C496.25 345.75 473.75 324.5 445.25 321.5L445.25 320.5C474.5 312.75 488.5 286.75 488.5 259.25C488.5 216 457.25 190.25 416 190.25C383 190.25 356.25 209 347 237.5C345.25 243.75 344.5 249.5 344.5 254.75C344.5 264 350.75 271.5 362 271.5C372 271.5 377.25 267.5 380 257.5C384.75 237.25 396 223 416 223C438.75 223 450.25 241 450.25 264C450.25 288.75 435.75 307.25 410.5 307.25L401.25 307.25C391.5 307.25 385.5 313.25 385.5 322.5C385.5 331.75 392 337.5 401.25 337.5L411 337.5C439.75 337.5 456 353.5 456 383.5C456 407.5 443.5 428.25 417.5 428.25C392.25 428.25 380.25 410.75 376.5 394.5C374 385 368 380 358.75 380C347.75 380 340.25 386.75 340.25 397.75C340.25 403.25 341.25 409.5 343 414.5C352 444 383 461.5 417.25 461.5Z" fill="black" fill-opacity="0.85"/>
 </g>
</svg>
