<?xml version="1.0" encoding="UTF-8"?>
<!--Generator: Apple Native CoreSVG 326-->
<!DOCTYPE svg
PUBLIC "-//W3C//DTD SVG 1.1//EN"
       "http://www.w3.org/Graphics/SVG/1.1/DTD/svg11.dtd">
<svg version="1.1" xmlns="http://www.w3.org/2000/svg" xmlns:xlink="http://www.w3.org/1999/xlink" viewBox="0 0 651.25 651.75">
 <g>
  <rect height="651.75" opacity="0" width="651.25" x="0" y="0"/>
  <path d="M651.25 325.75C651.25 505 505 651.25 325.5 651.25C146.25 651.25 0 505 0 325.75C0 146.25 146.25 0 325.5 0C505 0 651.25 146.25 651.25 325.75ZM348 235.25C346.25 241.75 345.25 247.5 345.25 253C345.25 262.5 351.75 270.25 363.5 270.25C373.75 270.25 379.25 266 382 256C387 235.25 398.25 220.75 418.75 220.75C442.25 220.75 453.75 239 453.75 262.5C453.75 287.75 439 306.75 413 306.75L403.75 306.75C393.75 306.75 387.5 313 387.5 322.5C387.5 332 394.25 338 403.75 338L413.5 338C443 338 459.5 354.25 459.5 384.75C459.5 409.25 446.75 430.5 420.25 430.5C394.75 430.5 382.5 412.75 378.5 396.25C375.75 386.25 370 381.25 360 381.25C348.75 381.25 341 388.25 341 399.5C341 405.25 342 411.5 343.75 416.75C353 447 385 464.75 420 464.75C466.25 464.75 501 435 501 386C501 346.25 478 324.5 448.75 321.5L448.75 320.5C478.75 312.5 493.25 285.75 493.25 257.75C493.25 213.25 461 187 418.75 187C385 187 357.5 206.25 348 235.25ZM204.75 216.75L140.75 352.5C136 363.75 134.25 371.25 134.25 380.5C134.25 394.75 144 404.5 158.75 404.5L235.5 404.5L235.5 442.25C235.5 457.5 246.25 463.5 255.75 463.5C266.5 463.5 275.5 456.25 275.5 442.25L275.5 404.5L289.5 404.5C300.5 404.5 306.25 397.25 306.25 387.25C306.25 377.75 300.75 370.5 289.5 370.5L275.5 370.5L275.5 219.5C275.5 198.5 262 188 243.25 188C223 188 213.25 198.5 204.75 216.75ZM236.25 371.25L170.25 371.25L170.25 369.5L235 226L236.25 226Z" fill="black" fill-opacity="0.85"/>
 </g>
</svg>
