<?xml version="1.0" encoding="UTF-8"?>
<!--Generator: Apple Native CoreSVG 326-->
<!DOCTYPE svg
PUBLIC "-//W3C//DTD SVG 1.1//EN"
       "http://www.w3.org/Graphics/SVG/1.1/DTD/svg11.dtd">
<svg version="1.1" xmlns="http://www.w3.org/2000/svg" xmlns:xlink="http://www.w3.org/1999/xlink" viewBox="0 0 587.75 587.75">
 <g>
  <rect height="587.75" opacity="0" width="587.75" x="0" y="0"/>
  <path d="M587.75 96.5L587.75 491.5C587.75 555 555 587.75 490.25 587.75L97.25 587.75C32.75 587.75 0 555.5 0 491.5L0 96.5C0 32.5 32.75 0 97.25 0L490.25 0C555 0 587.75 32.75 587.75 96.5ZM316.5 203.25C314.75 209.75 313.75 215.5 313.75 221C313.75 230.5 320.25 238.25 332 238.25C342.25 238.25 347.75 234 350.5 224C355.5 203.25 366.75 188.75 387.25 188.75C410.75 188.75 422.25 207 422.25 230.5C422.25 255.75 407.5 274.75 381.5 274.75L372.25 274.75C362.25 274.75 356 281 356 290.5C356 300 362.75 306 372.25 306L382 306C411.5 306 428 322.25 428 352.75C428 377.25 415.25 398.5 388.75 398.5C363 398.5 350.75 380.75 347 364.25C344.25 354.25 338.25 349.25 328.5 349.25C317.25 349.25 309.5 356.25 309.5 367.5C309.5 373.25 310.5 379.5 312.25 384.75C321.5 415 353.5 432.75 388.5 432.75C434.5 432.75 469.5 403 469.5 354C469.5 314.25 446.5 292.5 417.25 289.5L417.25 288.5C447.25 280.5 461.75 253.75 461.75 225.75C461.75 181.25 429.5 155 387.25 155C353.5 155 326 174.25 316.5 203.25ZM173.25 184.75L109.25 320.5C104.5 331.75 102.75 339.25 102.75 348.5C102.75 362.75 112.5 372.5 127.25 372.5L203.75 372.5L203.75 410.25C203.75 425.5 214.75 431.5 224.25 431.5C235 431.5 244 424.25 244 410.25L244 372.5L258 372.5C269 372.5 274.75 365.25 274.75 355.25C274.75 345.75 269.25 338.5 258 338.5L244 338.5L244 187.5C244 166.5 230.5 156 211.75 156C191.5 156 181.5 166.5 173.25 184.75ZM204.75 339.25L138.75 339.25L138.75 337.5L203.5 194L204.75 194Z" fill="black" fill-opacity="0.85"/>
 </g>
</svg>
