<?xml version="1.0" encoding="UTF-8"?>
<!--Generator: Apple Native CoreSVG 326-->
<!DOCTYPE svg
PUBLIC "-//W3C//DTD SVG 1.1//EN"
       "http://www.w3.org/Graphics/SVG/1.1/DTD/svg11.dtd">
<svg version="1.1" xmlns="http://www.w3.org/2000/svg" xmlns:xlink="http://www.w3.org/1999/xlink" viewBox="0 0 587.75 587.75">
 <g>
  <rect height="587.75" opacity="0" width="587.75" x="0" y="0"/>
  <path d="M97.25 587.75L490.25 587.75C555 587.75 587.75 555 587.75 491.5L587.75 96.5C587.75 32.75 555 0 490.25 0L97.25 0C32.75 0 0 32.5 0 96.5L0 491.5C0 555.5 32.75 587.75 97.25 587.75ZM98.25 543.5C63.25 543.5 44.25 525 44.25 489L44.25 98.75C44.25 63 63.25 44.25 98.25 44.25L489.5 44.25C523.75 44.25 543.5 63 543.5 98.75L543.5 489C543.5 525 523.75 543.5 489.5 543.5Z" fill="black" fill-opacity="0.85"/>
  <path d="M225.75 428C236.25 428 245 421 245 407.75L245 370.5L258.75 370.5C269.5 370.5 275 363.5 275 353.75C275 344.5 269.75 337.5 258.75 337.5L245 337.5L245 189.75C245 169.75 231.75 159.25 213.75 159.25C194 159.25 184.75 169.5 176.5 187.25L113.75 320C109 331 107.25 338.25 107.25 347.25C107.25 361 116.75 370.5 131 370.5L206.25 370.5L206.25 407.75C206.25 422.5 216.5 428 225.75 428ZM207 338.25L142.25 338.25L142.25 336.5L205.75 196.25L207 196.25ZM386 429.5C430.75 429.5 465 400.5 465 352.5C465 313.75 442.5 292.5 414 289.5L414 288.5C443.25 280.75 457.25 254.75 457.25 227.25C457.25 184 426 158.25 384.75 158.25C351.75 158.25 325 177 315.75 205.5C314 211.75 313.25 217.5 313.25 222.75C313.25 232 319.5 239.5 330.75 239.5C340.5 239.5 346 235.5 348.75 225.5C353.5 205.25 364.75 191 384.75 191C407.5 191 419 209 419 232C419 256.75 404.5 275.25 379.25 275.25L370 275.25C360.25 275.25 354.25 281.25 354.25 290.5C354.25 299.75 360.5 305.5 370 305.5L379.5 305.5C408.5 305.5 424.75 321.5 424.75 351.5C424.75 375.5 412.25 396.25 386.25 396.25C361 396.25 349 378.75 345.25 362.5C342.75 353 336.75 348 327.5 348C316.25 348 309 354.75 309 365.75C309 371.25 310 377.5 311.75 382.5C320.75 412 351.5 429.5 386 429.5Z" fill="black" fill-opacity="0.85"/>
 </g>
</svg>
