<?xml version="1.0" encoding="UTF-8"?>
<!--Generator: Apple Native CoreSVG 326-->
<!DOCTYPE svg
PUBLIC "-//W3C//DTD SVG 1.1//EN"
       "http://www.w3.org/Graphics/SVG/1.1/DTD/svg11.dtd">
<svg version="1.1" xmlns="http://www.w3.org/2000/svg" xmlns:xlink="http://www.w3.org/1999/xlink" viewBox="0 0 651.25 651.75">
 <g>
  <rect height="651.75" opacity="0" width="651.25" x="0" y="0"/>
  <path d="M325.5 651.25C505.25 651.25 651.25 505.5 651.25 325.75C651.25 146 505.25 0 325.5 0C145.75 0 0 146 0 325.75C0 505.5 145.75 651.25 325.5 651.25ZM325.5 604.75C171.25 604.75 46.5 480 46.5 325.75C46.5 171.5 171.25 46.75 325.5 46.75C479.75 46.75 604.5 171.5 604.5 325.75C604.5 480 479.75 604.75 325.5 604.75Z" fill="black" fill-opacity="0.85"/>
  <path d="M253.25 460C263.75 460 272.5 453 272.5 439.75L272.5 402.5L286 402.5C297 402.5 302.25 395.5 302.25 385.75C302.25 376.5 297.25 369.5 286 369.5L272.5 369.5L272.5 221.75C272.5 201.75 259.25 191.25 241.25 191.25C221.5 191.25 212 201.5 204 219.25L141.25 352C136.5 363 134.75 370.25 134.75 379.25C134.75 393 144.25 402.5 158.5 402.5L233.75 402.5L233.75 439.75C233.75 454.5 244 460 253.25 460ZM234.5 370.25L169.75 370.25L169.75 368.5L233.25 228.25L234.5 228.25ZM452.75 460C463.25 460 472 453 472 439.75L472 402.5L485.75 402.5C496.5 402.5 502 395.5 502 385.75C502 376.5 496.75 369.5 485.75 369.5L472 369.5L472 221.75C472 201.75 458.75 191.25 440.75 191.25C421 191.25 411.75 201.5 403.5 219.25L340.75 352C336 363 334.25 370.25 334.25 379.25C334.25 393 343.75 402.5 358 402.5L433.25 402.5L433.25 439.75C433.25 454.5 443.5 460 452.75 460ZM434 370.25L369.25 370.25L369.25 368.5L432.75 228.25L434 228.25Z" fill="black" fill-opacity="0.85"/>
 </g>
</svg>
