<?xml version="1.0" encoding="UTF-8"?>
<!--Generator: Apple Native CoreSVG 326-->
<!DOCTYPE svg
PUBLIC "-//W3C//DTD SVG 1.1//EN"
       "http://www.w3.org/Graphics/SVG/1.1/DTD/svg11.dtd">
<svg version="1.1" xmlns="http://www.w3.org/2000/svg" xmlns:xlink="http://www.w3.org/1999/xlink" viewBox="0 0 651.25 651.75">
 <g>
  <rect height="651.75" opacity="0" width="651.25" x="0" y="0"/>
  <path d="M651.25 325.75C651.25 505 505 651.25 325.5 651.25C146.25 651.25 0 505 0 325.75C0 146.25 146.25 0 325.5 0C505 0 651.25 146.25 651.25 325.75ZM201 216.75L137 352.5C132 363.75 130.25 371.25 130.25 380.5C130.25 394.75 140 404.5 154.75 404.5L231.5 404.5L231.5 442.25C231.5 457.5 242.25 463.5 251.75 463.5C262.75 463.5 271.75 456.25 271.75 442.25L271.75 404.5L285.5 404.5C296.75 404.5 302.25 397.25 302.25 387.25C302.25 377.75 297 370.5 285.5 370.5L271.75 370.5L271.75 219.5C271.75 198.5 258 188 239.5 188C219 188 209.25 198.5 201 216.75ZM405.5 216.75L341.5 352.5C336.75 363.75 334.75 371.25 334.75 380.5C334.75 394.75 344.75 404.5 359.25 404.5L436.25 404.5L436.25 442.25C436.25 457.5 446.75 463.5 456.5 463.5C467.25 463.5 476.25 456.25 476.25 442.25L476.25 404.5L490.25 404.5C501.5 404.5 507 397.25 507 387.25C507 377.75 501.5 370.5 490.25 370.5L476.25 370.5L476.25 219.5C476.25 198.5 462.5 188 444 188C423.5 188 414 198.5 405.5 216.75ZM232.25 371.25L166.5 371.25L166.5 369.5L231.25 226L232.25 226ZM437 371.25L371 371.25L371 369.5L435.75 226L437 226Z" fill="black" fill-opacity="0.85"/>
 </g>
</svg>
