<?xml version="1.0" encoding="UTF-8"?>
<!--Generator: Apple Native CoreSVG 326-->
<!DOCTYPE svg
PUBLIC "-//W3C//DTD SVG 1.1//EN"
       "http://www.w3.org/Graphics/SVG/1.1/DTD/svg11.dtd">
<svg version="1.1" xmlns="http://www.w3.org/2000/svg" xmlns:xlink="http://www.w3.org/1999/xlink" viewBox="0 0 651.25 651.75">
 <g>
  <rect height="651.75" opacity="0" width="651.25" x="0" y="0"/>
  <path d="M325.5 651.25C505.25 651.25 651.25 505.5 651.25 325.75C651.25 146 505.25 0 325.5 0C145.75 0 0 146 0 325.75C0 505.5 145.75 651.25 325.5 651.25ZM325.5 604.75C171.25 604.75 46.5 480 46.5 325.75C46.5 171.5 171.25 46.75 325.5 46.75C479.75 46.75 604.5 171.5 604.5 325.75C604.5 480 479.75 604.75 325.5 604.75Z" fill="black" fill-opacity="0.85"/>
  <path d="M253 460C263.5 460 272.25 453 272.25 439.75L272.25 402.5L286 402.5C297 402.5 302.25 395.5 302.25 385.75C302.25 376.5 297 369.5 286 369.5L272.25 369.5L272.25 221.75C272.25 201.75 259 191.25 241.25 191.25C221.25 191.25 212 201.5 204 219.25L141 352C136.25 363 134.5 370.25 134.5 379.25C134.5 393 144 402.5 158.25 402.5L233.5 402.5L233.5 439.75C233.5 454.5 243.75 460 253 460ZM234.25 370.25L169.75 370.25L169.75 368.5L233 228.25L234.25 228.25ZM419 462.5C467.25 462.5 494.25 421 494.25 371C494.25 327.5 473.25 285.75 430.5 285.75C403.25 285.75 383.5 304.75 376.5 333L375.25 333C375.25 331.75 375.25 330.25 375.25 329C375.25 291.25 380.25 222.75 418.75 222.75C435.25 222.75 445.75 234.75 451.5 250.25C455.5 259 460.75 263.75 470.25 263.75C481.5 263.75 486.5 256.25 486.5 246.75C486.5 243.25 486 239.25 484.75 235C477.75 207 451 189.5 419.75 189.5C355 189.5 336.75 265.75 336.75 329.5C336.75 390.25 355.5 462.5 419 462.5ZM418.5 429.25C392.25 429.25 381 397 381 371.25C381 345.75 393.5 317 418.5 317C444.25 317 455.5 346.75 455 372.75C455 398.5 443.25 429.25 418.5 429.25Z" fill="black" fill-opacity="0.85"/>
 </g>
</svg>
