<?xml version="1.0" encoding="UTF-8"?>
<!--Generator: Apple Native CoreSVG 326-->
<!DOCTYPE svg
PUBLIC "-//W3C//DTD SVG 1.1//EN"
       "http://www.w3.org/Graphics/SVG/1.1/DTD/svg11.dtd">
<svg version="1.1" xmlns="http://www.w3.org/2000/svg" xmlns:xlink="http://www.w3.org/1999/xlink" viewBox="0 0 651.25 651.75">
 <g>
  <rect height="651.75" opacity="0" width="651.25" x="0" y="0"/>
  <path d="M651.25 325.75C651.25 505 505 651.25 325.5 651.25C146.25 651.25 0 505 0 325.75C0 146.25 146.25 0 325.5 0C505 0 651.25 146.25 651.25 325.75ZM337.5 329.5C337.5 391.75 356.75 465.75 422.25 465.75C471.5 465.75 499 423.25 499 372C499 327.5 477.5 284.75 433.75 284.75C406 284.75 385.75 304.25 378.5 333L377.25 333C377.25 331.75 377.25 330.25 377.25 329C377.25 290.5 382.25 220.5 421.75 220.5C438.5 220.5 449.25 232.75 455.25 248.5C459.25 257.5 464.5 262 474.5 262C486 262 491.25 254.5 491.25 244.75C491.25 241.25 490.75 237 489.25 232.75C482.25 204 455 186.25 422.75 186.25C356.25 186.25 337.5 264.25 337.5 329.5ZM200.75 216.75L136.75 352.5C132 363.75 130.25 371.25 130.25 380.5C130.25 394.75 140 404.5 154.5 404.5L231.5 404.5L231.5 442.25C231.5 457.5 242.25 463.5 251.75 463.5C262.5 463.5 271.5 456.25 271.5 442.25L271.5 404.5L285.5 404.5C296.75 404.5 302.25 397.25 302.25 387.25C302.25 377.75 296.75 370.5 285.5 370.5L271.5 370.5L271.5 219.5C271.5 198.5 258 188 239.25 188C219 188 209.25 198.5 200.75 216.75ZM458.5 374C458.5 400.25 446.75 431.5 421.5 431.5C394.5 431.5 383.25 398.5 383.25 372.25C383.25 346.25 396 317 421.5 317C447.75 317 459 347.5 458.5 374ZM232.25 371.25L166.25 371.25L166.25 369.5L231 226L232.25 226Z" fill="black" fill-opacity="0.85"/>
 </g>
</svg>
