<?xml version="1.0" encoding="UTF-8"?>
<!--Generator: Apple Native CoreSVG 326-->
<!DOCTYPE svg
PUBLIC "-//W3C//DTD SVG 1.1//EN"
       "http://www.w3.org/Graphics/SVG/1.1/DTD/svg11.dtd">
<svg version="1.1" xmlns="http://www.w3.org/2000/svg" xmlns:xlink="http://www.w3.org/1999/xlink" viewBox="0 0 587.75 587.75">
 <g>
  <rect height="587.75" opacity="0" width="587.75" x="0" y="0"/>
  <path d="M97.25 587.75L490.25 587.75C555 587.75 587.75 555 587.75 491.5L587.75 96.5C587.75 32.75 555 0 490.25 0L97.25 0C32.75 0 0 32.5 0 96.5L0 491.5C0 555.5 32.75 587.75 97.25 587.75ZM98.25 543.5C63.25 543.5 44.25 525 44.25 489L44.25 98.75C44.25 63 63.25 44.25 98.25 44.25L489.5 44.25C523.75 44.25 543.5 63 543.5 98.75L543.5 489C543.5 525 523.75 543.5 489.5 543.5Z" fill="black" fill-opacity="0.85"/>
  <path d="M221.75 428C232.25 428 241 421 241 407.75L241 370.5L254.75 370.5C265.5 370.5 271 363.5 271 353.75C271 344.5 265.75 337.5 254.75 337.5L241 337.5L241 189.75C241 169.75 227.75 159.25 209.75 159.25C190 159.25 180.75 169.5 172.5 187.25L109.75 320C105 331 103.25 338.25 103.25 347.25C103.25 361 112.75 370.5 127 370.5L202.25 370.5L202.25 407.75C202.25 422.5 212.5 428 221.75 428ZM203 338.25L138.25 338.25L138.25 336.5L201.75 196.25L203 196.25ZM387.75 430.5C436 430.5 463 389 463 339C463 295.5 442 253.75 399.25 253.75C372 253.75 352.25 272.75 345.25 301L344 301C344 299.75 344 298.25 344 297C344 259.25 349 190.75 387.5 190.75C404 190.75 414.5 202.75 420.25 218.25C424.25 227 429.5 231.75 439 231.75C450.25 231.75 455.25 224.25 455.25 214.75C455.25 211.25 454.75 207.25 453.5 203C446.5 175 419.75 157.5 388.5 157.5C323.5 157.5 305.5 233.75 305.5 297.5C305.5 358.25 324.25 430.5 387.75 430.5ZM387.25 397.25C361 397.25 349.75 365 349.75 339.25C349.75 313.75 362.25 285 387.25 285C413 285 424.25 314.75 423.75 340.75C423.75 366.5 412 397.25 387.25 397.25Z" fill="black" fill-opacity="0.85"/>
 </g>
</svg>
