<?xml version="1.0" encoding="UTF-8"?>
<!--Generator: Apple Native CoreSVG 326-->
<!DOCTYPE svg
PUBLIC "-//W3C//DTD SVG 1.1//EN"
       "http://www.w3.org/Graphics/SVG/1.1/DTD/svg11.dtd">
<svg version="1.1" xmlns="http://www.w3.org/2000/svg" xmlns:xlink="http://www.w3.org/1999/xlink" viewBox="0 0 587.75 587.75">
 <g>
  <rect height="587.75" opacity="0" width="587.75" x="0" y="0"/>
  <path d="M587.75 96.5L587.75 491.5C587.75 555 555 587.75 490.25 587.75L97.25 587.75C32.75 587.75 0 555.5 0 491.5L0 96.5C0 32.5 32.75 0 97.25 0L490.25 0C555 0 587.75 32.75 587.75 96.5ZM306 297.5C306 359.75 325.25 433.75 390.5 433.75C440 433.75 467.5 391.25 467.5 340C467.5 295.5 446 252.75 402.25 252.75C374.5 252.75 354.25 272.25 347 301L345.75 301C345.75 299.75 345.75 298.25 345.75 297C345.75 258.5 350.75 188.5 390.25 188.5C407 188.5 417.75 200.75 423.5 216.5C427.75 225.5 433 230 443 230C454.5 230 459.75 222.5 459.75 212.75C459.75 209.25 459.25 205 457.75 200.75C450.75 172 423.25 154.25 391.25 154.25C324.75 154.25 306 232.25 306 297.5ZM169.25 184.75L105.25 320.5C100.5 331.75 98.75 339.25 98.75 348.5C98.75 362.75 108.5 372.5 123 372.5L200 372.5L200 410.25C200 425.5 210.75 431.5 220.25 431.5C231 431.5 240 424.25 240 410.25L240 372.5L254 372.5C265 372.5 270.75 365.25 270.75 355.25C270.75 345.75 265.25 338.5 254 338.5L240 338.5L240 187.5C240 166.5 226.5 156 207.75 156C187.5 156 177.75 166.5 169.25 184.75ZM427 342C427 368.25 415.25 399.5 390 399.5C363 399.5 351.75 366.5 351.75 340.25C351.75 314.25 364.5 285 390 285C416.25 285 427.5 315.5 427 342ZM200.75 339.25L134.75 339.25L134.75 337.5L199.5 194L200.75 194Z" fill="black" fill-opacity="0.85"/>
 </g>
</svg>
