<?xml version="1.0" encoding="UTF-8"?>
<!--Generator: Apple Native CoreSVG 326-->
<!DOCTYPE svg
PUBLIC "-//W3C//DTD SVG 1.1//EN"
       "http://www.w3.org/Graphics/SVG/1.1/DTD/svg11.dtd">
<svg version="1.1" xmlns="http://www.w3.org/2000/svg" xmlns:xlink="http://www.w3.org/1999/xlink" viewBox="0 0 587.75 587.75">
 <g>
  <rect height="587.75" opacity="0" width="587.75" x="0" y="0"/>
  <path d="M97.25 587.75L490.25 587.75C555 587.75 587.75 555 587.75 491.5L587.75 96.5C587.75 32.75 555 0 490.25 0L97.25 0C32.75 0 0 32.5 0 96.5L0 491.5C0 555.5 32.75 587.75 97.25 587.75ZM98.25 543.5C63.25 543.5 44.25 525 44.25 489L44.25 98.75C44.25 63 63.25 44.25 98.25 44.25L489.5 44.25C523.75 44.25 543.5 63 543.5 98.75L543.5 489C543.5 525 523.75 543.5 489.5 543.5Z" fill="black" fill-opacity="0.85"/>
  <path d="M237.25 428C247.75 428 256.5 421 256.5 407.75L256.5 370.5L270.25 370.5C281.25 370.5 286.5 363.5 286.5 353.75C286.5 344.5 281.25 337.5 270.25 337.5L256.5 337.5L256.5 189.75C256.5 169.75 243.25 159.25 225.5 159.25C205.5 159.25 196.25 169.5 188.25 187.25L125.25 320C120.5 331 118.75 338.25 118.75 347.25C118.75 361 128.25 370.5 142.5 370.5L217.75 370.5L217.75 407.75C217.75 422.5 228 428 237.25 428ZM218.5 338.25L154 338.25L154 336.5L217.25 196.25L218.5 196.25ZM356 428.25C366.5 428.25 371.25 423.75 375 413.75L451.25 209.25C454.25 200.75 456.5 193.75 456.5 185.25C456.5 172.25 446.5 163.5 433.5 163.5L328.5 163.5C318.75 163.5 312.25 170.5 312.25 180.25C312.25 190 318.75 197 328.5 197L415.5 197L415.5 199.5L341 393.75C338.5 400 337.5 404 337.5 410.5C337.5 419.25 343 428.25 356 428.25Z" fill="black" fill-opacity="0.85"/>
 </g>
</svg>
