<?xml version="1.0" encoding="UTF-8"?>
<!--Generator: Apple Native CoreSVG 326-->
<!DOCTYPE svg
PUBLIC "-//W3C//DTD SVG 1.1//EN"
       "http://www.w3.org/Graphics/SVG/1.1/DTD/svg11.dtd">
<svg version="1.1" xmlns="http://www.w3.org/2000/svg" xmlns:xlink="http://www.w3.org/1999/xlink" viewBox="0 0 651.25 651.75">
 <g>
  <rect height="651.75" opacity="0" width="651.25" x="0" y="0"/>
  <path d="M651.25 325.75C651.25 505 505 651.25 325.5 651.25C146.25 651.25 0 505 0 325.75C0 146.25 146.25 0 325.5 0C505 0 651.25 146.25 651.25 325.75ZM343.75 258C343.75 290.5 363.25 311 385.5 317.75L385.5 318.75C357.25 325.25 336.25 352 336.25 387.25C336.25 434.75 371.25 464.75 419 464.75C469.5 464.75 502.25 432 502.25 387.25C502.25 351.75 480 325 453.5 318.75L453.5 317.75C476.25 310.75 494.75 288.5 494.75 258.25C494.75 216.5 464.5 187 419 187C378.5 187 343.75 213 343.75 258ZM200.5 216.75L136.25 352.5C131.5 363.75 129.5 371.25 129.5 380.5C129.5 394.75 139.5 404.5 154 404.5L231 404.5L231 442.25C231 457.5 241.5 463.5 251 463.5C262 463.5 271 456.25 271 442.25L271 404.5L285 404.5C296.25 404.5 301.75 397.25 301.75 387.25C301.75 377.75 296.25 370.5 285 370.5L271 370.5L271 219.5C271 198.5 257.5 188 239 188C218.25 188 208.75 198.5 200.5 216.75ZM458.75 384C458.75 410 445.25 432.75 419 432.75C393.25 432.75 379.75 410 379.75 384C379.75 358 393.5 336.25 419 336.25C443.75 336.25 458.75 356.5 458.75 384ZM231.75 371.25L166 371.25L166 369.5L230.5 226L231.75 226ZM454 262.25C454 285.5 441 304.25 419 304.25C397.5 304.25 384.5 284.5 384.5 262.25C384.5 239 397.25 218.75 419 218.75C442.5 218.75 454 239.75 454 262.25Z" fill="black" fill-opacity="0.85"/>
 </g>
</svg>
