<?xml version="1.0" encoding="UTF-8"?>
<!--Generator: Apple Native CoreSVG 326-->
<!DOCTYPE svg
PUBLIC "-//W3C//DTD SVG 1.1//EN"
       "http://www.w3.org/Graphics/SVG/1.1/DTD/svg11.dtd">
<svg version="1.1" xmlns="http://www.w3.org/2000/svg" xmlns:xlink="http://www.w3.org/1999/xlink" viewBox="0 0 651.25 651.75">
 <g>
  <rect height="651.75" opacity="0" width="651.25" x="0" y="0"/>
  <path d="M325.5 651.25C505.25 651.25 651.25 505.5 651.25 325.75C651.25 146 505.25 0 325.5 0C145.75 0 0 146 0 325.75C0 505.5 145.75 651.25 325.5 651.25ZM325.5 604.75C171.25 604.75 46.5 480 46.5 325.75C46.5 171.5 171.25 46.75 325.5 46.75C479.75 46.75 604.5 171.5 604.5 325.75C604.5 480 479.75 604.75 325.5 604.75Z" fill="black" fill-opacity="0.85"/>
  <path d="M252.5 460C263 460 271.75 453 271.75 439.75L271.75 402.5L285.5 402.5C296.5 402.5 301.75 395.5 301.75 385.75C301.75 376.5 296.5 369.5 285.5 369.5L271.75 369.5L271.75 221.75C271.75 201.75 258.75 191.25 240.75 191.25C220.75 191.25 211.5 201.5 203.5 219.25L140.5 352C136 363 134.25 370.25 134.25 379.25C134.25 393 143.75 402.5 157.75 402.5L233 402.5L233 439.75C233 454.5 243.25 460 252.5 460ZM233.75 370.25L169.25 370.25L169.25 368.5L232.5 228.25L233.75 228.25ZM416.25 461.5C465.5 461.5 497.25 429.5 497.25 385.75C497.25 351.25 475.75 325 449.75 319L449.75 318C472 311 490 289.25 490 260C490 219.25 460.5 190.25 416.25 190.25C376.5 190.25 343 215.75 343 259.75C343 291.25 361.75 311.25 383.5 318L383.5 319C356 325.25 335.5 351.5 335.5 385.75C335.5 431.75 369.5 461.5 416.25 461.5ZM416.25 304.75C395.25 304.75 382.25 285.5 382.25 263.75C382.25 241 395 221 416.25 221C439.25 221 450.5 241.75 450.5 263.75C450.5 286.5 437.75 304.75 416.25 304.75ZM416.25 430.5C391 430.5 377.5 408.25 377.5 382.75C377.5 357.25 391.25 336 416.25 336C440.5 336 455.25 355.75 455.25 382.75C455.25 408.25 441.75 430.5 416.25 430.5Z" fill="black" fill-opacity="0.85"/>
 </g>
</svg>
