<?xml version="1.0" encoding="UTF-8"?>
<!--Generator: Apple Native CoreSVG 326-->
<!DOCTYPE svg
PUBLIC "-//W3C//DTD SVG 1.1//EN"
       "http://www.w3.org/Graphics/SVG/1.1/DTD/svg11.dtd">
<svg version="1.1" xmlns="http://www.w3.org/2000/svg" xmlns:xlink="http://www.w3.org/1999/xlink" viewBox="0 0 587.75 587.75">
 <g>
  <rect height="587.75" opacity="0" width="587.75" x="0" y="0"/>
  <path d="M587.75 96.5L587.75 491.5C587.75 555 555 587.75 490.25 587.75L97.25 587.75C32.75 587.75 0 555.5 0 491.5L0 96.5C0 32.5 32.75 0 97.25 0L490.25 0C555 0 587.75 32.75 587.75 96.5ZM312.25 226C312.25 258.5 331.75 279 354 285.75L354 286.75C325.75 293.25 304.75 320 304.75 355.25C304.75 402.75 339.75 432.75 387.5 432.75C438 432.75 470.75 400 470.75 355.25C470.75 319.75 448.5 293 422 286.75L422 285.75C444.75 278.75 463.25 256.5 463.25 226.25C463.25 184.5 433 155 387.5 155C346.75 155 312.25 181 312.25 226ZM168.75 184.75L104.75 320.5C100 331.75 98 339.25 98 348.5C98 362.75 108 372.5 122.5 372.5L199.5 372.5L199.5 410.25C199.5 425.5 210 431.5 219.5 431.5C230.5 431.5 239.5 424.25 239.5 410.25L239.5 372.5L253.5 372.5C264.75 372.5 270.25 365.25 270.25 355.25C270.25 345.75 264.75 338.5 253.5 338.5L239.5 338.5L239.5 187.5C239.5 166.5 225.75 156 207.5 156C186.75 156 177.25 166.5 168.75 184.75ZM427.25 352C427.25 378 413.75 400.75 387.5 400.75C361.75 400.75 348 378 348 352C348 326 362 304.25 387.5 304.25C412.25 304.25 427.25 324.5 427.25 352ZM200.25 339.25L134.5 339.25L134.5 337.5L199 194L200.25 194ZM422.5 230.25C422.5 253.5 409.5 272.25 387.5 272.25C366 272.25 353 252.5 353 230.25C353 207 365.75 186.75 387.5 186.75C411 186.75 422.5 207.75 422.5 230.25Z" fill="black" fill-opacity="0.85"/>
 </g>
</svg>
