<?xml version="1.0" encoding="UTF-8"?>
<!--Generator: Apple Native CoreSVG 326-->
<!DOCTYPE svg
PUBLIC "-//W3C//DTD SVG 1.1//EN"
       "http://www.w3.org/Graphics/SVG/1.1/DTD/svg11.dtd">
<svg version="1.1" xmlns="http://www.w3.org/2000/svg" xmlns:xlink="http://www.w3.org/1999/xlink" viewBox="0 0 651.25 651.75">
 <g>
  <rect height="651.75" opacity="0" width="651.25" x="0" y="0"/>
  <path d="M651.25 325.75C651.25 505 505 651.25 325.5 651.25C146.25 651.25 0 505 0 325.75C0 146.25 146.25 0 325.5 0C505 0 651.25 146.25 651.25 325.75ZM341 280C341 324.5 362.5 367 406.25 367C434.25 367 454.5 347.75 461.75 319L463 319C463 320.25 463 321.75 463 323C463 361.5 458 431 418.25 431C401.75 431 391 419.25 384.75 403C380.5 392.75 374.75 388.75 366 388.75C354 388.75 348.5 397 348.5 406.75C348.5 410.5 349.25 414.75 350.5 418.75C358 448 385.5 465.25 417.75 465.25C484 465.25 502.75 388.5 502.75 322.5C502.75 260.25 483.25 186.25 418.25 186.25C369.25 186.25 341 228.75 341 280ZM206 216.75L142 352.5C137.25 363.75 135.5 371.25 135.5 380.5C135.5 394.75 145.25 404.5 160 404.5L236.75 404.5L236.75 442.25C236.75 457.5 247.5 463.5 257 463.5C267.75 463.5 276.75 456.25 276.75 442.25L276.75 404.5L290.75 404.5C302 404.5 307.5 397.25 307.5 387.25C307.5 377.75 302 370.5 290.75 370.5L276.75 370.5L276.75 219.5C276.75 198.5 263.25 188 244.5 188C224.25 188 214.5 198.5 206 216.75ZM237.5 371.25L171.5 371.25L171.5 369.5L236.25 226L237.5 226ZM457 278.25C457 305.75 444.25 334.5 418.75 334.5C392.5 334.5 381.25 304.5 381.25 278.25C381.25 251.25 393.5 220.5 418.75 220.5C445.5 220.5 457 251.5 457 278.25Z" fill="black" fill-opacity="0.85"/>
 </g>
</svg>
