<?xml version="1.0" encoding="UTF-8"?>
<!--Generator: Apple Native CoreSVG 326-->
<!DOCTYPE svg
PUBLIC "-//W3C//DTD SVG 1.1//EN"
       "http://www.w3.org/Graphics/SVG/1.1/DTD/svg11.dtd">
<svg version="1.1" xmlns="http://www.w3.org/2000/svg" xmlns:xlink="http://www.w3.org/1999/xlink" viewBox="0 0 651.25 651.75">
 <g>
  <rect height="651.75" opacity="0" width="651.25" x="0" y="0"/>
  <path d="M325.5 651.25C505.25 651.25 651.25 505.5 651.25 325.75C651.25 146 505.25 0 325.5 0C145.75 0 0 146 0 325.75C0 505.5 145.75 651.25 325.5 651.25ZM325.5 604.75C171.25 604.75 46.5 480 46.5 325.75C46.5 171.5 171.25 46.75 325.5 46.75C479.75 46.75 604.5 171.5 604.5 325.75C604.5 480 479.75 604.75 325.5 604.75Z" fill="black" fill-opacity="0.85"/>
  <path d="M323.5 477.75C387.5 477.75 431 437.25 431 376.5C431 320 390.75 280.75 333 280.75C306.5 280.75 279.5 292.5 267 310L264.75 310L272.75 215L403 215C412.75 215 419.75 207.75 419.75 197.75C419.75 187.5 413 180.25 403 180.25L268.25 180.25C250.25 180.25 238.5 190.5 237.25 206.75L228 320.25C226.75 336 236 346.75 251.5 346.75C261.75 346.75 268 344.25 278.5 335.75C295.5 320 309.25 314.25 328 314.25C364.5 314.25 389 339.75 389 377C389 414.5 361 442.5 323.5 442.5C294.75 442.5 270.25 427.75 260.25 405C255.5 395.75 249 391.25 240.5 391.25C229.5 391.25 221.75 398.75 221.75 409.5C221.75 414.25 223 418.75 224.75 423C236.75 456 273.25 477.75 323.5 477.75Z" fill="black" fill-opacity="0.85"/>
 </g>
</svg>
