<?xml version="1.0" encoding="UTF-8"?>
<!--Generator: Apple Native CoreSVG 326-->
<!DOCTYPE svg
PUBLIC "-//W3C//DTD SVG 1.1//EN"
       "http://www.w3.org/Graphics/SVG/1.1/DTD/svg11.dtd">
<svg version="1.1" xmlns="http://www.w3.org/2000/svg" xmlns:xlink="http://www.w3.org/1999/xlink" viewBox="0 0 587.75 587.75">
 <g>
  <rect height="587.75" opacity="0" width="587.75" x="0" y="0"/>
  <path d="M97.25 587.75L490.25 587.75C555 587.75 587.75 555 587.75 491.5L587.75 96.5C587.75 32.75 555 0 490.25 0L97.25 0C32.75 0 0 32.5 0 96.5L0 491.5C0 555.5 32.75 587.75 97.25 587.75ZM98.25 543.5C63.25 543.5 44.25 525 44.25 489L44.25 98.75C44.25 63 63.25 44.25 98.25 44.25L489.5 44.25C523.75 44.25 543.5 63 543.5 98.75L543.5 489C543.5 525 523.75 543.5 489.5 543.5Z" fill="black" fill-opacity="0.85"/>
  <path d="M292.25 445.75C356.25 445.75 399.75 405.25 399.75 344.5C399.75 288 359.5 248.75 301.75 248.75C275.25 248.75 248.25 260.5 235.75 278L233.5 278L241.5 183L371.75 183C381.5 183 388.5 175.75 388.5 165.75C388.5 155.5 381.75 148.25 371.75 148.25L237 148.25C219 148.25 207.25 158.5 206 174.75L196.75 288.25C195.5 304 204.75 314.75 220.25 314.75C230.5 314.75 236.75 312.25 247.25 303.75C264.25 288 278 282.25 296.75 282.25C333.25 282.25 357.75 307.75 357.75 345C357.75 382.5 329.5 410.5 292 410.5C263.5 410.5 239 395.75 229 373C224.25 363.75 217.5 359.25 209.25 359.25C198.25 359.25 190.5 366.75 190.5 377.5C190.5 382.25 191.75 386.75 193.5 391C205.5 424 241.75 445.75 292.25 445.75Z" fill="black" fill-opacity="0.85"/>
 </g>
</svg>
