<?xml version="1.0" encoding="UTF-8"?>
<!--Generator: Apple Native CoreSVG 326-->
<!DOCTYPE svg
PUBLIC "-//W3C//DTD SVG 1.1//EN"
       "http://www.w3.org/Graphics/SVG/1.1/DTD/svg11.dtd">
<svg version="1.1" xmlns="http://www.w3.org/2000/svg" xmlns:xlink="http://www.w3.org/1999/xlink" viewBox="0 0 587.75 587.75">
 <g>
  <rect height="587.75" opacity="0" width="587.75" x="0" y="0"/>
  <path d="M97.25 587.75L490.25 587.75C555 587.75 587.75 555 587.75 491.5L587.75 96.5C587.75 32.75 555 0 490.25 0L97.25 0C32.75 0 0 32.5 0 96.5L0 491.5C0 555.5 32.75 587.75 97.25 587.75ZM98.25 543.5C63.25 543.5 44.25 525 44.25 489L44.25 98.75C44.25 63 63.25 44.25 98.25 44.25L489.5 44.25C523.75 44.25 543.5 63 543.5 98.75L543.5 489C543.5 525 523.75 543.5 489.5 543.5Z" fill="black" fill-opacity="0.85"/>
  <path d="M199 430.75C248.25 430.75 274.75 388.5 274.75 338.75C274.75 294.5 253.5 253.25 212 253.25C193.25 253.25 175.25 262 166.5 281.5L165.25 281.5L171 197.5L248.5 197.5C258.25 197.5 264.25 190.5 264.25 180.5C264.25 171 258 163.75 248.5 163.75L160.25 163.75C145 163.75 138.25 173.75 137.25 188.75L131.5 280.75C131 286 130.75 291.25 130.75 295.25C130.75 306.25 136.5 315.75 149.5 315.75C157.75 315.75 162.25 312 168.25 304C175.75 292 185 283.5 199.25 283.5C224.75 283.5 235.25 314 235.25 339.75C235.25 368.25 224.5 397.5 198.5 397.5C179 397.5 167.25 382.5 161.5 363.5C158.25 353.75 152 349.5 144.5 349.5C134 349.5 127.5 356.25 127.5 366.5C127.5 373 129 379.75 131.5 385.5C142 412.5 169.25 430.75 199 430.75ZM392.25 430.75C455.25 430.75 473 356.75 473 294C473 231.25 455.25 157.25 392.25 157.25C329.25 157.25 311.5 231.25 311.5 294C311.5 356.75 329.25 430.75 392.25 430.75ZM392.25 397C362 397 352.5 347.75 352.5 294C352.5 240.5 362 191 392.25 191C422.5 191 432 240.5 432 294C432 347.75 422.5 397 392.25 397Z" fill="black" fill-opacity="0.85"/>
 </g>
</svg>
