<?xml version="1.0" encoding="UTF-8"?>
<!--Generator: Apple Native CoreSVG 326-->
<!DOCTYPE svg
PUBLIC "-//W3C//DTD SVG 1.1//EN"
       "http://www.w3.org/Graphics/SVG/1.1/DTD/svg11.dtd">
<svg version="1.1" xmlns="http://www.w3.org/2000/svg" xmlns:xlink="http://www.w3.org/1999/xlink" viewBox="0 0 587.75 587.75">
 <g>
  <rect height="587.75" opacity="0" width="587.75" x="0" y="0"/>
  <path d="M587.75 96.5L587.75 491.5C587.75 555 555 587.75 490.25 587.75L97.25 587.75C32.75 587.75 0 555.5 0 491.5L0 96.5C0 32.5 32.75 0 97.25 0L490.25 0C555 0 587.75 32.75 587.75 96.5ZM156.75 160.5C141 160.5 134 171 133 186.25L127 280.25C126.75 285.75 126.5 291 126.5 295.25C126.5 306.5 132.25 316.25 145.75 316.25C154.25 316.25 158.75 312.5 165 304.25C172.75 292 182 283.5 196.75 283.5C222.75 283.5 233.25 314.75 233.25 340.75C233.25 370 222.5 399.75 196 399.75C176 399.75 164 384.5 158.25 365.25C154.75 355.25 148.25 350.75 140.25 350.75C129.75 350.75 122.75 357.75 122.75 368.25C122.75 375 124.5 382 127.25 387.75C137.75 415.5 166 434 196.5 434C246.75 434 274 390.75 274 339.75C274 294.5 252.25 252.25 209.5 252.25C190.5 252.25 172.25 261.25 163.25 281.25L162 281.25L167.75 195.5L247.25 195.5C257.25 195.5 263.5 188.25 263.5 177.75C263.5 168 256.75 160.5 247.25 160.5ZM311.75 294C311.75 358.5 330 434 394.5 434C459.25 434 477.75 358.5 477.75 294C477.75 229.5 459.25 154 394.5 154C330 154 311.75 229.5 311.75 294ZM435 294C435 349.25 425.25 399.25 394.5 399.25C363.75 399.25 354 349.25 354 294C354 239 363.75 188.75 394.5 188.75C425.25 188.75 435 239 435 294Z" fill="black" fill-opacity="0.85"/>
 </g>
</svg>
