<?xml version="1.0" encoding="UTF-8"?>
<!--Generator: Apple Native CoreSVG 326-->
<!DOCTYPE svg
PUBLIC "-//W3C//DTD SVG 1.1//EN"
       "http://www.w3.org/Graphics/SVG/1.1/DTD/svg11.dtd">
<svg version="1.1" xmlns="http://www.w3.org/2000/svg" xmlns:xlink="http://www.w3.org/1999/xlink" viewBox="0 0 651.25 651.75">
 <g>
  <rect height="651.75" opacity="0" width="651.25" x="0" y="0"/>
  <path d="M325.5 651.25C505.25 651.25 651.25 505.5 651.25 325.75C651.25 146 505.25 0 325.5 0C145.75 0 0 146 0 325.75C0 505.5 145.75 651.25 325.5 651.25ZM325.5 604.75C171.25 604.75 46.5 480 46.5 325.75C46.5 171.5 171.25 46.75 325.5 46.75C479.75 46.75 604.5 171.5 604.5 325.75C604.5 480 479.75 604.75 325.5 604.75Z" fill="black" fill-opacity="0.85"/>
  <path d="M326 477.75C390.75 477.75 435.5 436 435.5 377C435.5 323.75 395.5 284.75 338.75 284.75C316.5 284.75 294 292.75 282.25 304.25L279.25 303.5C282.75 297.5 287 291.5 297 278.75C311.25 260 337 228.5 353.75 206.75C358 201.5 360.25 196.75 360.25 191.25C360.25 183 354.75 174.5 341.5 174.5C332.5 174.5 327 180.5 322 187C301.5 213.5 277.25 244 263 263.25C230 306.5 216 341 216 375.25C216 435.75 260.75 477.75 326 477.75ZM326 442.5C285.75 442.5 255.25 414.75 255.25 378.5C255.25 342.5 285.25 316.25 325.75 316.25C366.75 316.25 396.5 342.75 396.5 379C396.5 415.25 366.75 442.5 326 442.5Z" fill="black" fill-opacity="0.85"/>
 </g>
</svg>
