<?xml version="1.0" encoding="UTF-8"?>
<!--Generator: Apple Native CoreSVG 326-->
<!DOCTYPE svg
PUBLIC "-//W3C//DTD SVG 1.1//EN"
       "http://www.w3.org/Graphics/SVG/1.1/DTD/svg11.dtd">
<svg version="1.1" xmlns="http://www.w3.org/2000/svg" xmlns:xlink="http://www.w3.org/1999/xlink" viewBox="0 0 651.25 651.75">
 <g>
  <rect height="651.75" opacity="0" width="651.25" x="0" y="0"/>
  <path d="M651.25 325.75C651.25 505 505 651.25 325.5 651.25C146.25 651.25 0 505 0 325.75C0 146.25 146.25 0 325.5 0C505 0 651.25 146.25 651.25 325.75ZM322 183.5C301 210.75 276.25 241.75 261.5 261.5C227.75 306 213.5 341.25 213.5 376.5C213.5 438.5 259.25 481.5 326.25 481.5C392.75 481.5 438.5 438.75 438.5 378.25C438.5 323.75 397.5 283.75 339.5 283.75C316.75 283.75 293.75 292 281.75 303.75L278.5 303C282.25 296.75 286.5 290.75 296.75 277.5C311.5 258.25 337.5 226.25 354.75 204C359 198.5 361.5 193.75 361.5 188C361.5 179.5 355.75 170.75 342 170.75C332.75 170.75 327 177 322 183.5ZM398.25 380.25C398.25 417.25 367.75 445.25 326.25 445.25C285.25 445.25 254 416.75 254 379.75C254 343 284.75 316.25 326 316.25C367.75 316.25 398.25 343.25 398.25 380.25Z" fill="black" fill-opacity="0.85"/>
 </g>
</svg>
