<?xml version="1.0" encoding="UTF-8"?>
<!--Generator: Apple Native CoreSVG 326-->
<!DOCTYPE svg
PUBLIC "-//W3C//DTD SVG 1.1//EN"
       "http://www.w3.org/Graphics/SVG/1.1/DTD/svg11.dtd">
<svg version="1.1" xmlns="http://www.w3.org/2000/svg" xmlns:xlink="http://www.w3.org/1999/xlink" viewBox="0 0 651.25 651.75">
 <g>
  <rect height="651.75" opacity="0" width="651.25" x="0" y="0"/>
  <path d="M651.25 325.75C651.25 505 505 651.25 325.5 651.25C146.25 651.25 0 505 0 325.75C0 146.25 146.25 0 325.5 0C505 0 651.25 146.25 651.25 325.75ZM213 333.5C213 377.5 220.5 410.5 233.75 432C254 466.5 289.5 481.5 328 481.5C393 481.5 438.25 442.5 438.25 377C438.25 316.25 392.5 280.25 340 280.25C295.75 280.25 269 302.5 257.25 328.5C256.5 328.5 255.75 328.5 255 328.5C255 327 255 326 255 324.75C255 252.25 286.5 206.75 334.25 206.75C358.5 206.75 374.5 217.75 384.25 232C393 241.25 398.5 246.5 408.5 246.5C418.25 246.5 426 239.5 426 229.25C426 224.75 425 221 423.25 216.75C414.25 193.25 379.25 170 335.5 170C259.75 170 213 225.5 213 333.5ZM393.5 379.25C393.5 420 367 446.5 326.25 446.5C287.5 446.5 259.25 418 259.25 378.75C259.25 341 287.25 313.5 326.75 313.5C366.25 313.5 393.5 340.5 393.5 379.25Z" fill="black" fill-opacity="0.85"/>
 </g>
</svg>
