<?xml version="1.0" encoding="UTF-8"?>
<!--Generator: Apple Native CoreSVG 326-->
<!DOCTYPE svg
PUBLIC "-//W3C//DTD SVG 1.1//EN"
       "http://www.w3.org/Graphics/SVG/1.1/DTD/svg11.dtd">
<svg version="1.1" xmlns="http://www.w3.org/2000/svg" xmlns:xlink="http://www.w3.org/1999/xlink" viewBox="0 0 651.25 651.75">
 <g>
  <rect height="651.75" opacity="0" width="651.25" x="0" y="0"/>
  <path d="M325.5 651.25C505.25 651.25 651.25 505.5 651.25 325.75C651.25 146 505.25 0 325.5 0C145.75 0 0 146 0 325.75C0 505.5 145.75 651.25 325.5 651.25ZM325.5 604.75C171.25 604.75 46.5 480 46.5 325.75C46.5 171.5 171.25 46.75 325.5 46.75C479.75 46.75 604.5 171.5 604.5 325.75C604.5 480 479.75 604.75 325.5 604.75Z" fill="black" fill-opacity="0.85"/>
  <path d="M327.75 477.75C391 477.75 435.25 439.75 435.25 375.75C435.25 316.5 390.5 281.5 339.25 281.5C296 281.5 270 303.25 258.5 328.5C257.75 328.5 257 328.5 256.25 328.5C256.25 327.25 256.25 326.25 256.25 325C256.25 254 287 209.25 333.75 209.25C357.5 209.25 373.25 220.5 382.75 234.25C391.25 243.25 396.5 248.25 406.25 248.25C415.75 248.25 423.25 241.5 423.25 231.5C423.25 227.25 422.25 223.5 420.5 219.5C411.5 196.5 377.75 173.75 335 173.75C261.25 173.75 215.5 228 215.5 333.25C215.5 376.25 223 408.25 235.75 429.5C255.5 463 290 477.75 327.75 477.75ZM326 443.75C288 443.75 260.5 416 260.5 377.5C260.5 340.5 288 313.75 326.5 313.75C365.25 313.75 391.75 340 391.75 378C391.75 418 366 443.75 326 443.75Z" fill="black" fill-opacity="0.85"/>
 </g>
</svg>
