<?xml version="1.0" encoding="UTF-8"?>
<!--Generator: Apple Native CoreSVG 326-->
<!DOCTYPE svg
PUBLIC "-//W3C//DTD SVG 1.1//EN"
       "http://www.w3.org/Graphics/SVG/1.1/DTD/svg11.dtd">
<svg version="1.1" xmlns="http://www.w3.org/2000/svg" xmlns:xlink="http://www.w3.org/1999/xlink" viewBox="0 0 587.75 587.75">
 <g>
  <rect height="587.75" opacity="0" width="587.75" x="0" y="0"/>
  <path d="M587.75 96.5L587.75 491.5C587.75 555 555 587.75 490.25 587.75L97.25 587.75C32.75 587.75 0 555.5 0 491.5L0 96.5C0 32.5 32.75 0 97.25 0L490.25 0C555 0 587.75 32.75 587.75 96.5ZM181.5 301.5C181.5 345.5 189 378.5 202.25 400C222.5 434.5 257.75 449.5 296.5 449.5C361.5 449.5 406.75 410.5 406.75 345C406.75 284.25 361 248.25 308.5 248.25C264 248.25 237.5 270.5 225.75 296.5C225 296.5 224.25 296.5 223.5 296.5C223.5 295 223.5 294 223.5 292.75C223.5 220.25 255 174.75 302.75 174.75C327 174.75 343 185.75 352.75 200C361.5 209.25 367 214.5 377 214.5C386.75 214.5 394.5 207.5 394.5 197.25C394.5 192.75 393.5 189 391.75 184.75C382.5 161.25 347.75 138 304 138C228.25 138 181.5 193.5 181.5 301.5ZM362 347.25C362 388 335.5 414.5 294.75 414.5C256 414.5 227.75 386 227.75 346.75C227.75 309 255.75 281.5 295.25 281.5C334.75 281.5 362 308.5 362 347.25Z" fill="black" fill-opacity="0.85"/>
 </g>
</svg>
