<?xml version="1.0" encoding="UTF-8"?>
<!--Generator: Apple Native CoreSVG 326-->
<!DOCTYPE svg
PUBLIC "-//W3C//DTD SVG 1.1//EN"
       "http://www.w3.org/Graphics/SVG/1.1/DTD/svg11.dtd">
<svg version="1.1" xmlns="http://www.w3.org/2000/svg" xmlns:xlink="http://www.w3.org/1999/xlink" viewBox="0 0 651.25 651.75">
 <g>
  <rect height="651.75" opacity="0" width="651.25" x="0" y="0"/>
  <path d="M325.5 651.25C505.25 651.25 651.25 505.5 651.25 325.75C651.25 146 505.25 0 325.5 0C145.75 0 0 146 0 325.75C0 505.5 145.75 651.25 325.5 651.25ZM325.5 604.75C171.25 604.75 46.5 480 46.5 325.75C46.5 171.5 171.25 46.75 325.5 46.75C479.75 46.75 604.5 171.5 604.5 325.75C604.5 480 479.75 604.75 325.5 604.75Z" fill="black" fill-opacity="0.85"/>
  <path d="M324.75 477.75C391 477.75 436.75 442.5 436.75 391.25C436.75 355.75 410.5 326 372.75 318.5L372.75 316.5C404.25 307.5 424.5 281.75 424.5 251C424.5 205.5 383.5 173.75 325.25 173.75C267.25 173.75 226 205.5 226 251C226 281.75 246 307 278 316.5L278 318.5C239.75 326 214 356 214 391.5C214 442.75 258.75 477.75 324.75 477.75ZM325.5 446.5C285.25 446.5 256 422.75 256 389.5C256 357.5 285.5 333.75 325.5 333.75C366.25 333.75 395 357.25 395 389.5C395 422.75 365.75 446.5 325.5 446.5ZM325.25 303.75C291.25 303.75 267 283 267 254.25C267 225.5 291 205.25 325.25 205.25C359.5 205.25 383.5 225.5 383.5 254.25C383.5 283 359.25 303.75 325.25 303.75Z" fill="black" fill-opacity="0.85"/>
 </g>
</svg>
