<?xml version="1.0" encoding="UTF-8"?>
<!--Generator: Apple Native CoreSVG 326-->
<!DOCTYPE svg
PUBLIC "-//W3C//DTD SVG 1.1//EN"
       "http://www.w3.org/Graphics/SVG/1.1/DTD/svg11.dtd">
<svg version="1.1" xmlns="http://www.w3.org/2000/svg" xmlns:xlink="http://www.w3.org/1999/xlink" viewBox="0 0 587.75 587.75">
 <g>
  <rect height="587.75" opacity="0" width="587.75" x="0" y="0"/>
  <path d="M97.25 587.75L490.25 587.75C555 587.75 587.75 555 587.75 491.5L587.75 96.5C587.75 32.75 555 0 490.25 0L97.25 0C32.75 0 0 32.5 0 96.5L0 491.5C0 555.5 32.75 587.75 97.25 587.75ZM98.25 543.5C63.25 543.5 44.25 525 44.25 489L44.25 98.75C44.25 63 63.25 44.25 98.25 44.25L489.5 44.25C523.75 44.25 543.5 63 543.5 98.75L543.5 489C543.5 525 523.75 543.5 489.5 543.5Z" fill="black" fill-opacity="0.85"/>
  <path d="M293.5 445.75C359.75 445.75 405.5 410.5 405.5 359.25C405.5 323.75 379.25 294 341.5 286.5L341.5 284.5C373 275.5 393.25 249.75 393.25 219C393.25 173.5 352.25 141.75 294 141.75C236 141.75 194.75 173.5 194.75 219C194.75 249.75 214.5 275 246.5 284.5L246.5 286.5C208.5 294 182.75 324 182.75 359.5C182.75 410.75 227.25 445.75 293.5 445.75ZM294.25 414.5C254 414.5 224.75 390.75 224.75 357.5C224.75 325.5 254.25 301.75 294.25 301.75C334.75 301.75 363.75 325.25 363.75 357.5C363.75 390.75 334.25 414.5 294.25 414.5ZM294 271.75C260 271.75 235.75 251 235.75 222.25C235.75 193.5 259.75 173.25 294 173.25C328.25 173.25 352.25 193.5 352.25 222.25C352.25 251 328 271.75 294 271.75Z" fill="black" fill-opacity="0.85"/>
 </g>
</svg>
