<?xml version="1.0" encoding="UTF-8"?>
<!--Generator: Apple Native CoreSVG 326-->
<!DOCTYPE svg
PUBLIC "-//W3C//DTD SVG 1.1//EN"
       "http://www.w3.org/Graphics/SVG/1.1/DTD/svg11.dtd">
<svg version="1.1" xmlns="http://www.w3.org/2000/svg" xmlns:xlink="http://www.w3.org/1999/xlink" viewBox="0 0 587.75 587.75">
 <g>
  <rect height="587.75" opacity="0" width="587.75" x="0" y="0"/>
  <path d="M587.75 96.5L587.75 491.5C587.75 555 555 587.75 490.25 587.75L97.25 587.75C32.75 587.75 0 555.5 0 491.5L0 96.5C0 32.5 32.75 0 97.25 0L490.25 0C555 0 587.75 32.75 587.75 96.5ZM192.25 217.25C192.25 248.75 212.5 274.5 245.25 284.25L245.25 286.25C206.25 294 179.5 324.75 179.5 361.5C179.5 413.75 225.5 449.5 293.5 449.5C361.5 449.5 408.5 413.5 408.5 361.25C408.5 324.5 381.5 294 342.75 286.25L342.75 284.25C375 275 395.75 248.75 395.75 217.25C395.75 170.5 353.75 138 294 138C234.25 138 192.25 170.5 192.25 217.25ZM365.25 359C365.25 393 335 417.25 294.25 417.25C253.25 417.25 223.25 393 223.25 359C223.25 326.25 253.5 302 294.25 302C335.75 302 365.25 326 365.25 359ZM353.5 220.5C353.5 250 328.75 271 294 271C259.25 271 234.5 250 234.5 220.5C234.5 191.25 259 170.5 294 170.5C329 170.5 353.5 191.25 353.5 220.5Z" fill="black" fill-opacity="0.85"/>
 </g>
</svg>
