<?xml version="1.0" encoding="UTF-8"?>
<!--Generator: Apple Native CoreSVG 326-->
<!DOCTYPE svg
PUBLIC "-//W3C//DTD SVG 1.1//EN"
       "http://www.w3.org/Graphics/SVG/1.1/DTD/svg11.dtd">
<svg version="1.1" xmlns="http://www.w3.org/2000/svg" xmlns:xlink="http://www.w3.org/1999/xlink" viewBox="0 0 587.75 587.75">
 <g>
  <rect height="587.75" opacity="0" width="587.75" x="0" y="0"/>
  <path d="M97.25 587.75L490.25 587.75C555 587.75 587.75 555 587.75 491.5L587.75 96.5C587.75 32.75 555 0 490.25 0L97.25 0C32.75 0 0 32.5 0 96.5L0 491.5C0 555.5 32.75 587.75 97.25 587.75ZM98.25 543.5C63.25 543.5 44.25 525 44.25 489L44.25 98.75C44.25 63 63.25 44.25 98.25 44.25L489.5 44.25C523.75 44.25 543.5 63 543.5 98.75L543.5 489C543.5 525 523.75 543.5 489.5 543.5Z" fill="black" fill-opacity="0.85"/>
  <path d="M185.75 242.25C185.75 296 226.5 335 282.5 335C304.5 335 327.5 327.25 339.25 315.25L343 315.5C339.5 321 335 327.75 327.75 337C311.25 357.75 290.25 383.75 267 412.5C262.5 417.75 260 423 260 428.5C260 436.75 267 444.75 278.25 444.75C289.25 444.75 293.75 438.25 301.75 428C319 406.75 345.75 372.25 361.5 351.25C391.5 311 405.75 278.75 405.75 244.5C405.75 183.5 360.75 141.75 295.5 141.75C230.75 141.75 185.75 183.25 185.75 242.25ZM225 240.5C225 204.25 255 177.25 295.5 177.25C335.75 177.25 366.5 204.5 366.5 241C366.5 277.25 336.5 303.25 296 303.25C255 303.25 225 277 225 240.5Z" fill="black" fill-opacity="0.85"/>
 </g>
</svg>
