<?xml version="1.0" encoding="UTF-8"?>
<!--Generator: Apple Native CoreSVG 326-->
<!DOCTYPE svg
PUBLIC "-//W3C//DTD SVG 1.1//EN"
       "http://www.w3.org/Graphics/SVG/1.1/DTD/svg11.dtd">
<svg version="1.1" xmlns="http://www.w3.org/2000/svg" xmlns:xlink="http://www.w3.org/1999/xlink" viewBox="0 0 651.25 651.75">
 <g>
  <rect height="651.75" opacity="0" width="651.25" x="0" y="0"/>
  <path d="M325.5 651.25C505.25 651.25 651.25 505.5 651.25 325.75C651.25 146 505.25 0 325.5 0C145.75 0 0 146 0 325.75C0 505.5 145.75 651.25 325.5 651.25ZM325.5 604.75C171.25 604.75 46.5 480 46.5 325.75C46.5 171.5 171.25 46.75 325.5 46.75C479.75 46.75 604.5 171.5 604.5 325.75C604.5 480 479.75 604.75 325.5 604.75Z" fill="black" fill-opacity="0.85"/>
  <path d="M317.5 477.75C393 477.75 434.75 422.5 434.75 313.5C434.75 222 392.75 173.75 323.25 173.75C259 173.75 216.25 213.75 216.25 274.75C216.25 333.5 260.75 369.5 311.5 369.5C354.5 369.5 381 348.5 392.25 322L394.5 322C395 398 364.25 442 317.25 442C293.75 442 276.5 431.25 263.5 412.25C258.5 405.25 253.25 400.5 244.25 400.5C233.5 400.5 226 408 226 418.75C226 422.25 226.5 425.25 227.75 428.5C234.75 450.25 266 477.75 317.5 477.75ZM324.5 337.25C286 337.25 259 310 259 272.75C259 233.75 285.75 207.25 324.75 207.25C362 207.25 390.25 235.25 390.25 273.5C390.25 310 362.75 337.25 324.5 337.25Z" fill="black" fill-opacity="0.85"/>
 </g>
</svg>
