<?xml version="1.0" encoding="UTF-8"?>
<!--Generator: Apple Native CoreSVG 326-->
<!DOCTYPE svg
PUBLIC "-//W3C//DTD SVG 1.1//EN"
       "http://www.w3.org/Graphics/SVG/1.1/DTD/svg11.dtd">
<svg version="1.1" xmlns="http://www.w3.org/2000/svg" xmlns:xlink="http://www.w3.org/1999/xlink" viewBox="0 0 651.25 651.75">
 <g>
  <rect height="651.75" opacity="0" width="651.25" x="0" y="0"/>
  <path d="M651.25 325.75C651.25 505 505 651.25 325.5 651.25C146.25 651.25 0 505 0 325.75C0 146.25 146.25 0 325.5 0C505 0 651.25 146.25 651.25 325.75ZM213.75 273.5C213.75 333.75 259.25 370.5 311.25 370.5C355.25 370.5 382.5 349 394 322L396.25 322C396.75 399.75 365.25 444.5 317.25 444.5C293.25 444.5 275.75 433.75 262.5 414.25C257.25 407 251.75 402.25 242.5 402.25C231.5 402.25 223.5 410 223.5 421C223.5 424.5 224.25 427.75 225.5 431C232.75 453.5 264.75 481.5 317.5 481.5C395 481.5 437.75 425 437.75 313.25C437.75 219.5 394.75 170 323.5 170C257.5 170 213.75 211 213.75 273.5ZM392 272C392 309.25 363.75 337.25 324.75 337.25C285.5 337.25 257.75 309.5 257.75 271.5C257.75 231.5 285.25 204.5 325 204.5C363 204.5 392 233.25 392 272Z" fill="black" fill-opacity="0.85"/>
 </g>
</svg>
