<?xml version="1.0" encoding="UTF-8"?>
<!--Generator: Apple Native CoreSVG 326-->
<!DOCTYPE svg
PUBLIC "-//W3C//DTD SVG 1.1//EN"
       "http://www.w3.org/Graphics/SVG/1.1/DTD/svg11.dtd">
<svg version="1.1" xmlns="http://www.w3.org/2000/svg" xmlns:xlink="http://www.w3.org/1999/xlink" viewBox="0 0 587.75 587.75">
 <g>
  <rect height="587.75" opacity="0" width="587.75" x="0" y="0"/>
  <path d="M97.25 587.75L490.25 587.75C555 587.75 587.75 555 587.75 491.5L587.75 96.5C587.75 32.75 555 0 490.25 0L97.25 0C32.75 0 0 32.5 0 96.5L0 491.5C0 555.5 32.75 587.75 97.25 587.75ZM98.25 543.5C63.25 543.5 44.25 525 44.25 489L44.25 98.75C44.25 63 63.25 44.25 98.25 44.25L489.5 44.25C523.75 44.25 543.5 63 543.5 98.75L543.5 489C543.5 525 523.75 543.5 489.5 543.5Z" fill="black" fill-opacity="0.85"/>
  <path d="M286.25 445.75C361.75 445.75 403.5 390.5 403.5 281.5C403.5 190 361.5 141.75 291.75 141.75C227.75 141.75 185 181.75 185 242.75C185 301.5 229.5 337.5 280.25 337.5C323 337.5 349.75 316.5 361 290L363.25 290C363.75 366 333 410 286 410C262.5 410 245.25 399.25 232.25 380.25C227.25 373.25 222 368.5 213 368.5C202.25 368.5 194.5 376 194.5 386.75C194.5 390.25 195.25 393.25 196.5 396.5C203.5 418.25 234.75 445.75 286.25 445.75ZM293.25 305.25C254.75 305.25 227.75 278 227.75 240.75C227.75 201.75 254.5 175.25 293.5 175.25C330.75 175.25 358.75 203.25 358.75 241.5C358.75 278 331.5 305.25 293.25 305.25Z" fill="black" fill-opacity="0.85"/>
 </g>
</svg>
