<?xml version="1.0" encoding="UTF-8"?>
<!--Generator: Apple Native CoreSVG 326-->
<!DOCTYPE svg
PUBLIC "-//W3C//DTD SVG 1.1//EN"
       "http://www.w3.org/Graphics/SVG/1.1/DTD/svg11.dtd">
<svg version="1.1" xmlns="http://www.w3.org/2000/svg" xmlns:xlink="http://www.w3.org/1999/xlink" viewBox="0 0 651.25 651.75">
 <g>
  <rect height="651.75" opacity="0" width="651.25" x="0" y="0"/>
  <path d="M325.5 651.25C505.25 651.25 651.25 505.5 651.25 325.75C651.25 146 505.25 0 325.5 0C145.75 0 0 146 0 325.75C0 505.5 145.75 651.25 325.5 651.25ZM325.5 604.75C171.25 604.75 46.5 480 46.5 325.75C46.5 171.5 171.25 46.75 325.5 46.75C479.75 46.75 604.5 171.5 604.5 325.75C604.5 480 479.75 604.75 325.5 604.75Z" fill="black" fill-opacity="0.85"/>
  <path d="M219.25 476.75C229.25 476.75 236.25 472.25 240.5 459L266.25 386.5L384 386.5L409.5 459C414 472 420.75 476.75 431.25 476.75C443.25 476.75 451.5 469 451.5 457.75C451.5 453.5 450.75 449.5 448.5 443.5L355.75 194.75C350.5 180.5 339.75 173.25 325 173.25C310 173.25 299.75 180.5 294.5 194.75L201.5 443.5C199.5 449.5 198.5 453.5 198.5 457.75C198.5 469.25 206.75 476.75 219.25 476.75ZM277.5 352.5L323.5 222.25L326.5 222.25L372.5 352.5Z" fill="black" fill-opacity="0.85"/>
 </g>
</svg>
