<?xml version="1.0" encoding="UTF-8"?>
<!--Generator: Apple Native CoreSVG 326-->
<!DOCTYPE svg
PUBLIC "-//W3C//DTD SVG 1.1//EN"
       "http://www.w3.org/Graphics/SVG/1.1/DTD/svg11.dtd">
<svg version="1.1" xmlns="http://www.w3.org/2000/svg" xmlns:xlink="http://www.w3.org/1999/xlink" viewBox="0 0 651.25 651.75">
 <g>
  <rect height="651.75" opacity="0" width="651.25" x="0" y="0"/>
  <path d="M325.5 651.25C505.25 651.25 651.25 505.5 651.25 325.75C651.25 146 505.25 0 325.5 0C145.75 0 0 146 0 325.75C0 505.5 145.75 651.25 325.5 651.25ZM325.5 604.75C171.25 604.75 46.5 480 46.5 325.75C46.5 171.5 171.25 46.75 325.5 46.75C479.75 46.75 604.5 171.5 604.5 325.75C604.5 480 479.75 604.75 325.5 604.75Z" fill="black" fill-opacity="0.85"/>
  <path d="M158.75 458C167 458 172.25 453.5 174.5 444.5L190 384L273 384L289 444.5C291.5 453.5 296.25 458 305.5 458C313.5 458 320.75 453.25 320.75 443C320.75 440 320.5 436.75 319.25 433L256 209.5C252.25 196.5 245.25 189.75 231.75 189.75C218.5 189.75 211 197 207.5 209.75L144.5 433C143.5 436.25 143 439.75 143 443C143 453.25 150.25 458 158.75 458ZM196.75 358L230 229.5L232.5 229.5L266.25 358ZM422.75 450.5C466 450.5 497.5 426.5 497.5 384.5C497.5 346 474.5 330.75 442 315L419.5 304.25C399 294.5 380.25 281.75 380.25 259C380.25 235.25 398.75 223 422 223C448 223 459 239 464 264.25C465.75 271.5 470.5 276 478.25 276C487.25 276 493.25 270.75 493.25 261.5C493.25 258.25 492.75 254.5 491.5 250C484.25 215.75 458 197.25 422 197.25C381.5 197.25 349.75 220 349.75 261C349.75 295.75 369.75 314.25 403.75 330.25L426.5 341C448.5 351.25 466.75 363 466.75 387.25C466.75 412.25 449.25 424.25 422.75 424.25C392.75 424.25 380.5 406 376.25 382.75C374.25 373.25 368.5 369.5 361.5 369.5C353 369.5 346.5 374.75 346.5 384.25C346.5 387.25 346.75 390.5 347.5 394.25C353.25 427 382.5 450.5 422.75 450.5ZM422.25 484.75C426.75 484.75 430.5 481 430.5 476.5L430.5 172C430.5 167.25 426.75 163.5 422.25 163.5C417.5 163.5 413.75 167.25 413.75 172L413.75 476.5C413.75 481 417.5 484.75 422.25 484.75Z" fill="black" fill-opacity="0.85"/>
 </g>
</svg>
