<?xml version="1.0" encoding="UTF-8"?>
<!--Generator: Apple Native CoreSVG 326-->
<!DOCTYPE svg
PUBLIC "-//W3C//DTD SVG 1.1//EN"
       "http://www.w3.org/Graphics/SVG/1.1/DTD/svg11.dtd">
<svg version="1.1" xmlns="http://www.w3.org/2000/svg" xmlns:xlink="http://www.w3.org/1999/xlink" viewBox="0 0 587.75 587.75">
 <g>
  <rect height="587.75" opacity="0" width="587.75" x="0" y="0"/>
  <path d="M587.75 96.5L587.75 491.5C587.75 555 555 587.75 490.25 587.75L97.25 587.75C32.75 587.75 0 555.5 0 491.5L0 96.5C0 32.5 32.75 0 97.25 0L490.25 0C555 0 587.75 32.75 587.75 96.5ZM384.75 136.25L384.75 162.5C347.5 165.5 319.25 188.5 319.25 227.25C319.25 263.25 339.5 282 374.5 298.5L384.75 303.25L384.75 393.75C360.75 390.5 350 373.5 346.5 352.25C344.5 342.5 338.5 338.5 331.25 338.5C322.5 338.5 315.75 344 315.75 353.75C315.75 357 316 360.25 316.5 364C322 395 348.25 417.75 384.75 421L384.75 448C384.75 452.75 388.5 456.75 393.5 456.75C398 456.75 402 452.75 402 448L402 421.25C442.5 418.5 470.75 394 470.75 353.75C470.75 314.5 447 298.75 413.75 282.75L402 277.25L402 189.75C422.5 192.75 431.75 208 436 230.5C438 238.25 443 243 450.75 243C460 243 466.25 237.5 466.25 228C466.25 224.75 465.75 220.75 464.5 216.25C457.5 184 434.25 165.25 402 162.5L402 136.25C402 131.5 398 127.75 393.5 127.75C388.5 127.75 384.75 131.5 384.75 136.25ZM173.25 175.25L109 403.75C108 406.75 107 410.25 107 413.75C107 424.25 114.5 429.25 123.5 429.25C132 429.25 137.5 424.5 139.75 415.25L155.75 353.5L240.5 353.5L256.75 415.25C259.5 424.5 264.25 429.25 273.75 429.25C282 429.25 289.5 424.25 289.5 413.75C289.5 410.75 289.25 407.25 288 403.75L223.25 175C219.25 161.5 212.25 154.25 198.25 154.25C184.75 154.25 177 162 173.25 175.25ZM439 356.75C439 379.5 424.5 392 402 394.25L402 311.5C422.75 321.5 439 333.75 439 356.75ZM233.5 326.75L162.5 326.75L196.25 195.25L199 195.25ZM384.75 268.75C365.75 259 350.5 246.5 350.5 225.5C350.5 204 365.25 192 384.75 189.5Z" fill="black" fill-opacity="0.85"/>
 </g>
</svg>
