<?xml version="1.0" encoding="UTF-8"?>
<!--Generator: Apple Native CoreSVG 326-->
<!DOCTYPE svg
PUBLIC "-//W3C//DTD SVG 1.1//EN"
       "http://www.w3.org/Graphics/SVG/1.1/DTD/svg11.dtd">
<svg version="1.1" xmlns="http://www.w3.org/2000/svg" xmlns:xlink="http://www.w3.org/1999/xlink" viewBox="0 0 587.75 587.75">
 <g>
  <rect height="587.75" opacity="0" width="587.75" x="0" y="0"/>
  <path d="M97.25 587.75L490.25 587.75C555 587.75 587.75 555 587.75 491.5L587.75 96.5C587.75 32.75 555 0 490.25 0L97.25 0C32.75 0 0 32.5 0 96.5L0 491.5C0 555.5 32.75 587.75 97.25 587.75ZM98.25 543.5C63.25 543.5 44.25 525 44.25 489L44.25 98.75C44.25 63 63.25 44.25 98.25 44.25L489.5 44.25C523.75 44.25 543.5 63 543.5 98.75L543.5 489C543.5 525 523.75 543.5 489.5 543.5Z" fill="black" fill-opacity="0.85"/>
  <path d="M201 441C209.75 441 214.5 437 217 428.5L293.25 186.75L294.5 186.75L371 428.75C373.25 436.25 377.75 441 387 441C395.75 441 403.5 436 403.5 426.5C403.5 423.5 402.75 420.25 401.75 417.25L316.5 162.5C312.75 151.5 306 145.5 294 145.5C282.25 145.5 274.5 152 271 162.5L186 418C185 421 184.25 424 184.25 426.5C184.25 435.5 191.75 441 201 441ZM172.5 300C172.5 305.5 176.75 309.75 182.25 309.75L405.75 309.75C411 309.75 415.5 305.5 415.5 300C415.5 294.75 411 290.25 405.75 290.25L182.25 290.25C176.75 290.25 172.5 294.75 172.5 300ZM172.5 357.25C172.5 362.5 176.75 367 182.25 367L405.75 367C411 367 415.5 362.5 415.5 357.25C415.5 352 411 347.5 405.75 347.5L182.25 347.5C176.75 347.5 172.5 352 172.5 357.25Z" fill="black" fill-opacity="0.85"/>
 </g>
</svg>
