<?xml version="1.0" encoding="UTF-8"?>
<!--Generator: Apple Native CoreSVG 326-->
<!DOCTYPE svg
PUBLIC "-//W3C//DTD SVG 1.1//EN"
       "http://www.w3.org/Graphics/SVG/1.1/DTD/svg11.dtd">
<svg version="1.1" xmlns="http://www.w3.org/2000/svg" xmlns:xlink="http://www.w3.org/1999/xlink" viewBox="0 0 587.75 587.75">
 <g>
  <rect height="587.75" opacity="0" width="587.75" x="0" y="0"/>
  <path d="M587.75 96.5L587.75 491.5C587.75 555 555 587.75 490.25 587.75L97.25 587.75C32.75 587.75 0 555.5 0 491.5L0 96.5C0 32.5 32.75 0 97.25 0L490.25 0C555 0 587.75 32.75 587.75 96.5ZM270.25 159.25L227 290.25L179.5 290.25C173.75 290.25 169.5 294.75 169.5 300.25C169.5 305.75 173.75 310.25 179.5 310.25L220.25 310.25L207.5 348.75L179.5 348.75C173.75 348.75 169.5 353.5 169.5 359C169.5 364.25 173.75 369 179.5 369L200.75 369L183.25 421C182.25 424.5 181.5 427.25 181.5 429.75C181.5 439 189.25 445 198.75 445C207.75 445 212.75 440.5 215.25 431.75L235.25 369L352.75 369L372.75 432C375 439.75 379.75 445 389.25 445C398.25 445 406.25 439.75 406.25 429.75C406.25 426.75 405.75 423.25 404.5 420.25L387.25 369L408.5 369C414.25 369 418.75 364.25 418.75 359C418.75 353.5 414.25 348.75 408.5 348.75L380.5 348.75L367.5 310.25L408.5 310.25C414.25 310.25 418.75 305.75 418.75 300.25C418.75 294.75 414.25 290.25 408.5 290.25L361 290.25L317.25 159.25C313.25 148 306.5 141.75 294 141.75C282 141.75 274 148.5 270.25 159.25ZM346.5 348.75L241.25 348.75L253.5 310.25L334.5 310.25ZM328 290.25L259.75 290.25L293.25 184.25L294.5 184.25Z" fill="black" fill-opacity="0.85"/>
 </g>
</svg>
