<?xml version="1.0" encoding="UTF-8"?>
<!--Generator: Apple Native CoreSVG 326-->
<!DOCTYPE svg
PUBLIC "-//W3C//DTD SVG 1.1//EN"
       "http://www.w3.org/Graphics/SVG/1.1/DTD/svg11.dtd">
<svg version="1.1" xmlns="http://www.w3.org/2000/svg" xmlns:xlink="http://www.w3.org/1999/xlink" viewBox="0 0 587.75 587.75">
 <g>
  <rect height="587.75" opacity="0" width="587.75" x="0" y="0"/>
  <path d="M97.25 587.75L490.25 587.75C555 587.75 587.75 555 587.75 491.5L587.75 96.5C587.75 32.75 555 0 490.25 0L97.25 0C32.75 0 0 32.5 0 96.5L0 491.5C0 555.5 32.75 587.75 97.25 587.75ZM98.25 543.5C63.25 543.5 44.25 525 44.25 489L44.25 98.75C44.25 63 63.25 44.25 98.25 44.25L489.5 44.25C523.75 44.25 543.5 63 543.5 98.75L543.5 489C543.5 525 523.75 543.5 489.5 543.5Z" fill="black" fill-opacity="0.85"/>
  <path d="M127.5 426C135.75 426 141 421.5 143.25 412.5L158.75 352L241.75 352L257.75 412.5C260.25 421.5 265 426 274.25 426C282.25 426 289.5 421.25 289.5 411C289.5 408 289.25 404.75 288 401L224.75 177.5C220.75 164.5 214 157.75 200.5 157.75C187.25 157.75 179.75 165 176.25 177.75L113.25 401C112.25 404.25 111.75 407.75 111.75 411C111.75 421.25 119 426 127.5 426ZM165.5 326L198.75 197.5L201.25 197.5L235 326ZM391.5 418.5C434.75 418.5 466.25 394.5 466.25 352.5C466.25 314 443.25 298.75 410.75 283L388.25 272.25C367.75 262.5 349 249.75 349 227C349 203.25 367.5 191 390.75 191C416.75 191 427.75 207 432.5 232.25C434.5 239.5 439.25 244 447 244C456 244 462 238.75 462 229.5C462 226.25 461.5 222.5 460.25 218C453 183.75 426.75 165.25 390.75 165.25C350.25 165.25 318.5 188 318.5 229C318.5 263.75 338.5 282.25 372.5 298.25L395.25 309C417.25 319.25 435.5 331 435.5 355.25C435.5 380.25 418 392.25 391.5 392.25C361.5 392.25 349 374 345 350.75C343 341.25 337.25 337.5 330.25 337.5C321.75 337.5 315.25 342.75 315.25 352.25C315.25 355.25 315.5 358.5 316 362.25C322 395 351.25 418.5 391.5 418.5ZM390.75 452.75C395.5 452.75 399.25 449 399.25 444.5L399.25 140C399.25 135.25 395.5 131.5 390.75 131.5C386.25 131.5 382.5 135.25 382.5 140L382.5 444.5C382.5 449 386.25 452.75 390.75 452.75Z" fill="black" fill-opacity="0.85"/>
 </g>
</svg>
