<?xml version="1.0" encoding="UTF-8"?>
<!--Generator: Apple Native CoreSVG 326-->
<!DOCTYPE svg
PUBLIC "-//W3C//DTD SVG 1.1//EN"
       "http://www.w3.org/Graphics/SVG/1.1/DTD/svg11.dtd">
<svg version="1.1" xmlns="http://www.w3.org/2000/svg" xmlns:xlink="http://www.w3.org/1999/xlink" viewBox="0 0 651.25 651.75">
 <g>
  <rect height="651.75" opacity="0" width="651.25" x="0" y="0"/>
  <path d="M325.5 651.25C505.25 651.25 651.25 505.5 651.25 325.75C651.25 146 505.25 0 325.5 0C145.75 0 0 146 0 325.75C0 505.5 145.75 651.25 325.5 651.25ZM325.5 604.75C171.25 604.75 46.5 480 46.5 325.75C46.5 171.5 171.25 46.75 325.5 46.75C479.75 46.75 604.5 171.5 604.5 325.75C604.5 480 479.75 604.75 325.5 604.75Z" fill="black" fill-opacity="0.85"/>
  <path d="M183 456C193.25 456 199.25 449.25 199.25 439L199.25 346.25L242.25 346.25L284.25 444.25C287.75 452.25 292.5 456 300.75 456C310 456 316.25 449.75 316.25 440.75C316.25 436.5 314.5 432.5 313 428.75L273.75 339.25C303 327.75 316.25 298.75 316.25 268.25C316.25 219.25 286 191.25 238.75 191.25L182.75 191.25C172.75 191.25 166.75 197.75 166.75 208L166.75 439C166.75 448.75 171.75 456 183 456ZM199.25 320L199.25 218.5L235.75 218.5C267 218.5 283.75 238.5 283.75 268.75C283.75 299 268.5 320 236 320ZM421.75 448.75C467 448.75 496.75 423.25 496.75 382.75C496.75 344.5 473.25 328.25 441.25 313.25L418.75 302.5C396.75 292 379.25 279.75 379.25 257.25C379.25 233.5 397.5 221.25 421 221.25C448.75 221.25 459.5 239.5 462.75 262.25C464 268.25 469 274.25 477.75 274.25C486.5 274.25 492.25 268.75 492.25 260C492.25 257.75 491.75 253.75 491.25 250.75C483.75 210.75 455 195.5 421 195.5C380 195.5 348.75 218.75 348.75 259C348.75 293.25 368.5 311.75 403 328.5L425.5 339.25C447.5 349.75 465.75 361.25 465.75 385.5C465.75 410.25 449 422.5 422 422.5C392.75 422.5 379.75 406.75 375.25 379.75C374 371.5 367.5 367.5 360.75 367.5C352 367.5 345.75 372.5 345.75 382C345.75 384.25 346.25 388 346.75 391C354.75 432 385.25 448.75 421.75 448.75ZM421.25 483.25C426 483.25 429.25 480 429.25 475L429.25 170C429.25 165.25 426 162 421.25 162C416.25 162 413 165.25 413 170L413 475C413 480 416.25 483.25 421.25 483.25Z" fill="black" fill-opacity="0.85"/>
 </g>
</svg>
