<?xml version="1.0" encoding="UTF-8"?>
<!--Generator: Apple Native CoreSVG 326-->
<!DOCTYPE svg
PUBLIC "-//W3C//DTD SVG 1.1//EN"
       "http://www.w3.org/Graphics/SVG/1.1/DTD/svg11.dtd">
<svg version="1.1" xmlns="http://www.w3.org/2000/svg" xmlns:xlink="http://www.w3.org/1999/xlink" viewBox="0 0 651.25 651.75">
 <g>
  <rect height="651.75" opacity="0" width="651.25" x="0" y="0"/>
  <path d="M651.25 325.75C651.25 505 505 651.25 325.5 651.25C146.25 651.25 0 505 0 325.75C0 146.25 146.25 0 325.5 0C505 0 651.25 146.25 651.25 325.75ZM415.25 166.5L415.25 192.5C377.25 195.5 349.25 219 349.25 257.5C349.25 292.75 369.5 311.5 405 328.75L415.25 333.5L415.25 424C391.75 421.25 380.5 405.75 376.75 381.25C375.5 372.75 368.75 368.75 361.75 368.75C352.75 368.75 346.25 374 346.25 383.5C346.25 385.75 346.75 389.75 347.5 392.75C355 431.5 381.75 448.75 415.25 451.25L415.25 478.5C415.25 483.75 418.5 487 423.75 487C428.75 487 432 483.75 432 478.5L432 451.5C474.25 448.75 501.25 423 501.25 384C501.25 345 477 328.25 444.25 313L432 307.25L432 220C454.25 223.25 463.25 240.25 466.25 260.75C467.5 267 472.75 273.25 481.5 273.25C490.5 273.25 496.75 267.5 496.75 258.5C496.75 256.25 496 252 495.5 249C488.25 211.5 463 195 432 192.75L432 166.5C432 161.25 428.75 158 423.75 158C418.5 158 415.25 161.25 415.25 166.5ZM179.25 188.25C169 188.25 162.75 194.75 162.75 205.5L162.75 441.75C162.75 451.75 168 459.25 179.75 459.25C190 459.25 196.5 452.25 196.5 441.75L196.5 347.25L240.25 347.25L283.25 447C286.75 455.25 291.75 459.25 300.25 459.25C309.75 459.25 316.25 452.75 316.25 443.5C316.25 439 314.25 435 312.75 431L272.75 339.75C302.75 328 316.25 298.25 316.25 267C316.25 216.75 285.25 188.25 236.75 188.25ZM469.25 387C469.25 409.75 455 422.5 432 424.5L432 341.75C453.25 352 469.25 363.75 469.25 387ZM282.75 267.5C282.75 298.5 267 320 234 320L196.5 320L196.5 216.25L233.75 216.25C265.5 216.25 282.75 236.75 282.75 267.5ZM415.25 299C395.75 288.75 380.75 276.5 380.75 255.75C380.75 234.25 395.5 222.25 415.25 219.75Z" fill="black" fill-opacity="0.85"/>
 </g>
</svg>
