<?xml version="1.0" encoding="UTF-8"?>
<!--Generator: Apple Native CoreSVG 326-->
<!DOCTYPE svg
PUBLIC "-//W3C//DTD SVG 1.1//EN"
       "http://www.w3.org/Graphics/SVG/1.1/DTD/svg11.dtd">
<svg version="1.1" xmlns="http://www.w3.org/2000/svg" xmlns:xlink="http://www.w3.org/1999/xlink" viewBox="0 0 587.75 587.75">
 <g>
  <rect height="587.75" opacity="0" width="587.75" x="0" y="0"/>
  <path d="M587.75 96.5L587.75 491.5C587.75 555 555 587.75 490.25 587.75L97.25 587.75C32.75 587.75 0 555.5 0 491.5L0 96.5C0 32.5 32.75 0 97.25 0L490.25 0C555 0 587.75 32.75 587.75 96.5ZM383.75 134.5L383.75 160.5C345.5 163.5 317.75 187 317.75 225.5C317.75 260.75 337.75 279.5 373.5 296.75L383.75 301.5L383.75 392C360.25 389.25 349 373.75 345.25 349.25C344 340.75 337.25 336.75 330.25 336.75C321.25 336.75 314.75 342 314.75 351.5C314.75 353.75 315.25 357.75 315.75 360.75C323.5 399.5 350.25 416.75 383.75 419.25L383.75 446.5C383.75 451.75 387 455 392.25 455C397 455 400.5 451.75 400.5 446.5L400.5 419.5C442.75 416.75 469.75 391 469.75 352C469.75 313 445.5 296.25 412.75 281L400.5 275.25L400.5 188C422.75 191.25 431.75 208.25 434.5 228.75C436 235 441 241.25 450 241.25C459 241.25 465 235.5 465 226.5C465 224.25 464.5 220 464 217C456.75 179.5 431.5 163 400.5 160.75L400.5 134.5C400.5 129.25 397 126 392.25 126C387 126 383.75 129.25 383.75 134.5ZM147.75 156.25C137.5 156.25 131.25 162.75 131.25 173.5L131.25 409.75C131.25 419.75 136.5 427.25 148.25 427.25C158.5 427.25 165 420.25 165 409.75L165 315.25L208.75 315.25L251.75 415C255.25 423.25 260.25 427.25 268.75 427.25C278.25 427.25 284.75 420.75 284.75 411.5C284.75 407 282.75 403 281.25 399L241.25 307.75C271.25 296 284.75 266.25 284.75 235C284.75 184.75 253.75 156.25 205.25 156.25ZM437.75 355C437.75 377.75 423.5 390.5 400.5 392.5L400.5 309.75C421.5 320 437.75 331.75 437.75 355ZM251.25 235.5C251.25 266.5 235.5 288 202.5 288L165 288L165 184.25L202.25 184.25C234 184.25 251.25 204.75 251.25 235.5ZM383.75 267C364.25 256.75 349.25 244.5 349.25 223.75C349.25 202.25 364 190.25 383.75 187.75Z" fill="black" fill-opacity="0.85"/>
 </g>
</svg>
