<?xml version="1.0" encoding="UTF-8"?>
<!--Generator: Apple Native CoreSVG 326-->
<!DOCTYPE svg
PUBLIC "-//W3C//DTD SVG 1.1//EN"
       "http://www.w3.org/Graphics/SVG/1.1/DTD/svg11.dtd">
<svg version="1.1" xmlns="http://www.w3.org/2000/svg" xmlns:xlink="http://www.w3.org/1999/xlink" viewBox="0 0 651.25 651.75">
 <g>
  <rect height="651.75" opacity="0" width="651.25" x="0" y="0"/>
  <path d="M651.25 325.75C651.25 505 505 651.25 325.5 651.25C146.25 651.25 0 505 0 325.75C0 146.25 146.25 0 325.5 0C505 0 651.25 146.25 651.25 325.75ZM189 323.5C189 418.25 242.75 479.75 326.75 479.75C384.75 479.75 431.5 450.75 445.75 406C447.5 400 448 396.25 448 392C448 379.5 440.5 372 428.25 372C419.25 372 413.5 376.5 409 386.75C397 421.5 367.25 441.5 327.25 441.5C272.25 441.5 235 394 235 323.5C235 253.25 272.25 205.25 327.25 205.25C367.25 205.25 397.25 225.5 409 260C413.5 270.25 419.25 274.75 428.25 274.75C440.5 274.75 448 267.25 448 254.75C448 250 447.5 246.75 445.75 240.75C431.25 196.5 384.25 167 326.75 167C243 167 189 228.75 189 323.5Z" fill="black" fill-opacity="0.85"/>
 </g>
</svg>
