<?xml version="1.0" encoding="UTF-8"?>
<!--Generator: Apple Native CoreSVG 326-->
<!DOCTYPE svg
PUBLIC "-//W3C//DTD SVG 1.1//EN"
       "http://www.w3.org/Graphics/SVG/1.1/DTD/svg11.dtd">
<svg version="1.1" xmlns="http://www.w3.org/2000/svg" xmlns:xlink="http://www.w3.org/1999/xlink" viewBox="0 0 587.75 587.75">
 <g>
  <rect height="587.75" opacity="0" width="587.75" x="0" y="0"/>
  <path d="M97.25 587.75L490.25 587.75C555 587.75 587.75 555 587.75 491.5L587.75 96.5C587.75 32.75 555 0 490.25 0L97.25 0C32.75 0 0 32.5 0 96.5L0 491.5C0 555.5 32.75 587.75 97.25 587.75ZM98.25 543.5C63.25 543.5 44.25 525 44.25 489L44.25 98.75C44.25 63 63.25 44.25 98.25 44.25L489.5 44.25C523.75 44.25 543.5 63 543.5 98.75L543.5 489C543.5 525 523.75 543.5 489.5 543.5Z" fill="black" fill-opacity="0.85"/>
  <path d="M295 444C351.5 444 397 415.5 411 371.75C412.75 366 413.25 362.5 413.25 358.25C413.25 346.25 406 339 394.25 339C385.5 339 379.75 343.25 375.5 353.25C364 387 334.75 407 295.5 407C241.75 407 205.25 360.5 205.25 291.5C205.25 222.75 241.75 175.75 295.5 175.75C334.75 175.75 364.25 195.75 375.5 229.75C379.75 239.5 385.5 243.75 394.25 243.75C406 243.75 413.25 236.5 413.25 224.5C413.25 220 412.75 216.75 411 211C397 167.75 351 138.75 295 138.75C213.5 138.75 160.75 199 160.75 291.5C160.75 384 213.25 444 295 444Z" fill="black" fill-opacity="0.85"/>
 </g>
</svg>
