<?xml version="1.0" encoding="UTF-8"?>
<!--Generator: Apple Native CoreSVG 326-->
<!DOCTYPE svg
PUBLIC "-//W3C//DTD SVG 1.1//EN"
       "http://www.w3.org/Graphics/SVG/1.1/DTD/svg11.dtd">
<svg version="1.1" xmlns="http://www.w3.org/2000/svg" xmlns:xlink="http://www.w3.org/1999/xlink" viewBox="0 0 587.75 587.75">
 <g>
  <rect height="587.75" opacity="0" width="587.75" x="0" y="0"/>
  <path d="M587.75 96.5L587.75 491.5C587.75 555 555 587.75 490.25 587.75L97.25 587.75C32.75 587.75 0 555.5 0 491.5L0 96.5C0 32.5 32.75 0 97.25 0L490.25 0C555 0 587.75 32.75 587.75 96.5ZM157.25 291.5C157.25 386.25 211.25 447.75 295.25 447.75C353 447.75 400 418.75 414.25 374C416 368 416.5 364.25 416.5 360C416.5 347.5 409 340 396.75 340C387.75 340 382 344.5 377.5 354.75C365.5 389.5 335.75 409.5 295.75 409.5C240.75 409.5 203.5 362 203.5 291.5C203.5 221.25 240.75 173.25 295.75 173.25C335.75 173.25 365.75 193.5 377.5 228C382 238.25 387.75 242.75 396.75 242.75C409 242.75 416.5 235.25 416.5 222.75C416.5 218 416 214.75 414.25 208.75C399.75 164.5 352.75 135 295.25 135C211.5 135 157.25 196.75 157.25 291.5Z" fill="black" fill-opacity="0.85"/>
 </g>
</svg>
