<?xml version="1.0" encoding="UTF-8"?>
<!--Generator: Apple Native CoreSVG 326-->
<!DOCTYPE svg
PUBLIC "-//W3C//DTD SVG 1.1//EN"
       "http://www.w3.org/Graphics/SVG/1.1/DTD/svg11.dtd">
<svg version="1.1" xmlns="http://www.w3.org/2000/svg" xmlns:xlink="http://www.w3.org/1999/xlink" viewBox="0 0 587.75 587.75">
 <g>
  <rect height="587.75" opacity="0" width="587.75" x="0" y="0"/>
  <path d="M97.25 587.75L490.25 587.75C555 587.75 587.75 555 587.75 491.5L587.75 96.5C587.75 32.75 555 0 490.25 0L97.25 0C32.75 0 0 32.5 0 96.5L0 491.5C0 555.5 32.75 587.75 97.25 587.75ZM98.25 543.5C63.25 543.5 44.25 525 44.25 489L44.25 98.75C44.25 63 63.25 44.25 98.25 44.25L489.5 44.25C523.75 44.25 543.5 63 543.5 98.75L543.5 489C543.5 525 523.75 543.5 489.5 543.5Z" fill="black" fill-opacity="0.85"/>
  <path d="M294.25 403.5C321.25 403.5 348.25 394 365.75 377C375.5 367.25 384 352 384 341.25C384 331.75 376.75 326.75 369 326.75C361 326.75 357.25 332 354.25 337.75C342.25 362.5 323.5 375.75 294.5 375.75C247.5 375.75 224.5 340 224.5 292.25C224.5 244.25 248 208.75 294 208.75C322 208.75 343.25 221.25 354 246.75C357 253.75 362 257.75 368.75 257.75C377.5 257.75 383.5 252.25 383.5 243.25C383.5 231.25 374.75 217.5 365 207.5C347.75 190.5 322 181 293.75 181C228.75 181 191.5 227.75 191.5 292.25C191.5 360.75 232 403.5 294.25 403.5ZM292.75 440.75C298.25 440.75 302.75 436.5 302.75 430.75L302.75 153.5C302.75 148 298.25 143.5 292.75 143.5C287.25 143.5 282.75 148 282.75 153.5L282.75 430.75C282.75 436.5 287.25 440.75 292.75 440.75Z" fill="black" fill-opacity="0.85"/>
 </g>
</svg>
