<?xml version="1.0" encoding="UTF-8"?>
<!--Generator: Apple Native CoreSVG 326-->
<!DOCTYPE svg
PUBLIC "-//W3C//DTD SVG 1.1//EN"
       "http://www.w3.org/Graphics/SVG/1.1/DTD/svg11.dtd">
<svg version="1.1" xmlns="http://www.w3.org/2000/svg" xmlns:xlink="http://www.w3.org/1999/xlink" viewBox="0 0 587.75 587.75">
 <g>
  <rect height="587.75" opacity="0" width="587.75" x="0" y="0"/>
  <path d="M97.25 587.75L490.25 587.75C555 587.75 587.75 555 587.75 491.5L587.75 96.5C587.75 32.75 555 0 490.25 0L97.25 0C32.75 0 0 32.5 0 96.5L0 491.5C0 555.5 32.75 587.75 97.25 587.75ZM98.25 543.5C63.25 543.5 44.25 525 44.25 489L44.25 98.75C44.25 63 63.25 44.25 98.25 44.25L489.5 44.25C523.75 44.25 543.5 63 543.5 98.75L543.5 489C543.5 525 523.75 543.5 489.5 543.5Z" fill="black" fill-opacity="0.85"/>
  <path d="M294 442.25C303.75 442.25 310.5 435.25 310.5 425.25L310.5 318.25L402.75 171C405 167 406 165 406 160.25C406 151.25 398.75 145.25 389.5 145.25C383.25 145.25 378.25 148.5 374.75 154.75L294.75 287.75L293.5 287.75L213.75 154.75C210.25 148.5 206 145 198.5 145C189.25 145 182.25 151 182.25 160.25C182.25 163.75 183.25 167.5 185.75 171.5L277.5 318.25L277.5 425.25C277.5 435.25 284.25 442.25 294 442.25ZM204.5 311.5C204.5 317 209 321.25 214.5 321.25L375 321.25C380.75 321.25 385 317 385 311.5C385 305.75 380.75 301.5 375 301.5L214.5 301.5C209 301.5 204.5 305.75 204.5 311.5ZM204.5 365.75C204.5 371.5 209 375.75 214.5 375.75L375 375.75C380.75 375.75 385 371.5 385 365.75C385 360.25 380.75 356 375 356L214.5 356C209 356 204.5 360.25 204.5 365.75Z" fill="black" fill-opacity="0.85"/>
 </g>
</svg>
