<?xml version="1.0" encoding="UTF-8"?>
<!--Generator: Apple Native CoreSVG 326-->
<!DOCTYPE svg
PUBLIC "-//W3C//DTD SVG 1.1//EN"
       "http://www.w3.org/Graphics/SVG/1.1/DTD/svg11.dtd">
<svg version="1.1" xmlns="http://www.w3.org/2000/svg" xmlns:xlink="http://www.w3.org/1999/xlink" viewBox="0 0 587.75 587.75">
 <g>
  <rect height="587.75" opacity="0" width="587.75" x="0" y="0"/>
  <path d="M587.75 96.5L587.75 491.5C587.75 555 555 587.75 490.25 587.75L97.25 587.75C32.75 587.75 0 555.5 0 491.5L0 96.5C0 32.5 32.75 0 97.25 0L490.25 0C555 0 587.75 32.75 587.75 96.5ZM362.5 114.75L351.5 157.75C339.5 152 326.5 148.25 313 146.75L319.25 121.75C320 119 320.25 117.25 320.25 116.25C320.25 110.75 316.25 106.75 310.25 106.75C304.25 106.75 301 109.25 299.5 114.75L291.5 146C213.5 149 170.25 209.75 170.25 291.25C170.25 343.75 188 389 223 414.75L209.75 466.75C209 468.75 208.75 470.75 208.75 472.25C208.75 478 213.25 482 219.25 482C224.5 482 227.75 479.75 229.5 474L242 425.75C253.25 431 266.25 434.75 280.5 436.25L272.75 466.75C272 468.75 271.75 470.75 271.75 472.25C271.75 478 276.25 482 282.25 482C287.5 482 290.75 479.75 292.5 474L302 437.25L302.25 437.25C350.5 437.25 391.75 412.25 406.5 370.5C408.25 365.5 409.25 360.25 409.25 355.25C409.25 344.25 401.5 339.25 393.25 339.25C384.25 339.25 379.5 344.75 376.5 353C367.5 383.5 341.25 402.25 309.75 405.75L361.25 205.5C367.5 212.5 372.5 221 374.5 230.75C377 239 380.75 244.5 391.25 244.5C401.25 244.5 407.25 238.25 407.25 228.75C407.25 224 405.75 218.25 404 213.25C397 194.75 385 180 370.25 168.75L382.25 121.75C383 119 383.25 117.25 383.25 116.25C383.25 110.75 379.25 106.75 373.25 106.75C367.25 106.75 364 109.25 362.5 114.75ZM343.25 189.5L288 406.25C273.25 405 260.5 400.25 250 393.25L305.25 176.75C319.25 178 332.5 182.75 343.25 189.5ZM232.5 376.75C214.75 355 206.25 324.25 206.25 291.25C206.25 234.5 231.75 185.5 283.5 177.75Z" fill="black" fill-opacity="0.85"/>
 </g>
</svg>
