<?xml version="1.0" encoding="UTF-8"?>
<!--Generator: Apple Native CoreSVG 326-->
<!DOCTYPE svg
PUBLIC "-//W3C//DTD SVG 1.1//EN"
       "http://www.w3.org/Graphics/SVG/1.1/DTD/svg11.dtd">
<svg version="1.1" xmlns="http://www.w3.org/2000/svg" xmlns:xlink="http://www.w3.org/1999/xlink" viewBox="0 0 651.25 651.75">
 <g>
  <rect height="651.75" opacity="0" width="651.25" x="0" y="0"/>
  <path d="M325.5 651.25C505.25 651.25 651.25 505.5 651.25 325.75C651.25 146 505.25 0 325.5 0C145.75 0 0 146 0 325.75C0 505.5 145.75 651.25 325.5 651.25ZM325.5 604.75C171.25 604.75 46.5 480 46.5 325.75C46.5 171.5 171.25 46.75 325.5 46.75C479.75 46.75 604.5 171.5 604.5 325.75C604.5 480 479.75 604.75 325.5 604.75Z" fill="black" fill-opacity="0.85"/>
  <path d="M327.75 468.5C376.75 468.5 420.5 444.25 433.75 401.75C435.75 397.25 436 393.25 436 389C436 380 430.25 374.5 421 374.5C412 374.5 407.25 379.5 404.75 387.75C394.75 422 363 439.75 328 439.75C266.75 439.75 238.75 386.25 238.75 326C238.75 265.75 267.75 214 328 214C363.5 214 393.75 235 403 266.5C405.75 274.75 410 279.75 418.5 279.75C427.5 279.75 434 273.75 434 264.75C434 261.75 433.5 256.75 431.75 252.5C417.5 210.5 375.75 184.25 327.75 184.25C248.75 184.25 203.75 244.25 203.75 326C203.75 405 245.5 468.5 327.75 468.5ZM311.25 453.5L331.25 453.5L331.25 390.75C331.25 359 352.25 337 383.5 337C390 337 394.5 338.5 397.5 338.5C403.5 338.5 407.25 335.5 407.25 328.75C407.25 325 405.25 321.5 401.75 319.25C397.5 316.5 389.25 315.25 383.25 315.25C357.25 315.25 337.75 332 331.5 352.25L330.75 352.25L330.75 326.25C330.75 320 327 315.75 321.25 315.75C315.25 315.75 311.25 320 311.25 326.25Z" fill="black" fill-opacity="0.85"/>
 </g>
</svg>
