<?xml version="1.0" encoding="UTF-8"?>
<!--Generator: Apple Native CoreSVG 326-->
<!DOCTYPE svg
PUBLIC "-//W3C//DTD SVG 1.1//EN"
       "http://www.w3.org/Graphics/SVG/1.1/DTD/svg11.dtd">
<svg version="1.1" xmlns="http://www.w3.org/2000/svg" xmlns:xlink="http://www.w3.org/1999/xlink" viewBox="0 0 651.25 651.75">
 <g>
  <rect height="651.75" opacity="0" width="651.25" x="0" y="0"/>
  <path d="M325.5 651.25C505.25 651.25 651.25 505.5 651.25 325.75C651.25 146 505.25 0 325.5 0C145.75 0 0 146 0 325.75C0 505.5 145.75 651.25 325.5 651.25ZM325.5 604.75C171.25 604.75 46.5 480 46.5 325.75C46.5 171.5 171.25 46.75 325.5 46.75C479.75 46.75 604.5 171.5 604.5 325.75C604.5 480 479.75 604.75 325.5 604.75Z" fill="black" fill-opacity="0.85"/>
  <path d="M239 469.5L322.25 469.5C411.25 469.5 462.5 417.25 462.5 322.5C462.5 230 411.75 177.5 322.25 177.5L239 177.5C225 177.5 217.5 187.5 217.5 202.25L217.5 444.5C217.5 459.25 225 469.5 239 469.5ZM260.5 434.5L260.5 212.5L317 212.5C381 212.5 417.75 251.75 417.75 323.25C417.75 397 381.5 434.5 317 434.5Z" fill="black" fill-opacity="0.85"/>
 </g>
</svg>
