<?xml version="1.0" encoding="UTF-8"?>
<!--Generator: Apple Native CoreSVG 326-->
<!DOCTYPE svg
PUBLIC "-//W3C//DTD SVG 1.1//EN"
       "http://www.w3.org/Graphics/SVG/1.1/DTD/svg11.dtd">
<svg version="1.1" xmlns="http://www.w3.org/2000/svg" xmlns:xlink="http://www.w3.org/1999/xlink" viewBox="0 0 651.25 651.75">
 <g>
  <rect height="651.75" opacity="0" width="651.25" x="0" y="0"/>
  <path d="M325.5 651.25C505.25 651.25 651.25 505.5 651.25 325.75C651.25 146 505.25 0 325.5 0C145.75 0 0 146 0 325.75C0 505.5 145.75 651.25 325.5 651.25ZM325.5 604.75C171.25 604.75 46.5 480 46.5 325.75C46.5 171.5 171.25 46.75 325.5 46.75C479.75 46.75 604.5 171.5 604.5 325.75C604.5 480 479.75 604.75 325.5 604.75Z" fill="black" fill-opacity="0.85"/>
  <path d="M205.5 459.5C214.75 459.5 221 452.75 221 443L221 384L240.75 364.5L303 451.75C306.25 456.5 310.75 459.5 316.75 459.5C325.25 459.5 331.75 453.75 331.75 445.5C331.75 441.75 330 438 327.5 434.5L263.25 345L323.5 280.75C327.25 276.75 329 274.5 329 269.5C329 262.25 323 256 315 256C310.75 256 305.75 258.5 303 261.75L222 350.75L221 350.75L221 195.5C221 185.5 214.75 178.5 205.5 178.5C196.25 178.5 189.5 185.25 189.5 195.25L189.5 443C189.5 452.75 196.25 459.5 205.5 459.5ZM384.75 459.5C392 459.5 399.75 455 399.75 443L399.75 337.75C399.75 314 409 286 437.75 286C443.75 286 449.75 285.75 454.25 283.5C458.75 281.75 461 278 461 272.5C461 261.5 451.75 256 440.75 256C419.5 256 405.5 274 400.5 295.25L398.5 295.25L398.5 271.75C398.5 262.75 392.25 256 384.25 256C376 256 369.75 262.75 369.75 271.75L369.75 443C369.75 453 375 459.5 384.75 459.5ZM473.25 456.5C485.75 456.5 494.5 447.75 494.5 435.75C494.5 423.5 485.75 414.5 473.25 414.5C461 414.5 452.25 423.5 452.25 435.75C452.25 447.75 461 456.5 473.25 456.5Z" fill="black" fill-opacity="0.85"/>
 </g>
</svg>
