<?xml version="1.0" encoding="UTF-8"?>
<!--Generator: Apple Native CoreSVG 326-->
<!DOCTYPE svg
PUBLIC "-//W3C//DTD SVG 1.1//EN"
       "http://www.w3.org/Graphics/SVG/1.1/DTD/svg11.dtd">
<svg version="1.1" xmlns="http://www.w3.org/2000/svg" xmlns:xlink="http://www.w3.org/1999/xlink" viewBox="0 0 587.75 587.75">
 <g>
  <rect height="587.75" opacity="0" width="587.75" x="0" y="0"/>
  <path d="M587.75 96.5L587.75 491.5C587.75 555 555 587.75 490.25 587.75L97.25 587.75C32.75 587.75 0 555.5 0 491.5L0 96.5C0 32.5 32.75 0 97.25 0L490.25 0C555 0 587.75 32.75 587.75 96.5ZM154.75 160.25L154.75 413.5C154.75 424 161.25 430.75 171 430.75C180.5 430.75 187.25 424 187.25 413.5L187.25 353.5L207.25 333.5L270.75 422.5C274.25 427.5 279 430.75 285 430.75C293.75 430.75 300.5 424.75 300.5 416.5C300.5 412.25 298.75 408.75 296 404.75L230.25 313.25L292 247.75C296 243.75 297.75 241.25 297.75 236.25C297.75 228.75 291.5 222 283.25 222C279 222 273.75 224.75 271 228.25L188.25 319L187.25 319L187.25 160.5C187.25 150 180.5 143 171 143C161.25 143 154.75 149.75 154.75 160.25ZM371 262.5L369 262.5L369 238.5C369 229.25 362.75 222 354.5 222C345.5 222 339.5 229.25 339.5 238.5L339.5 413.5C339.5 424 344.75 430.75 355 430.75C362.25 430.75 370.25 426 370.25 413.5L370.25 306C370.25 281.75 379.75 253.25 409.25 253.25C415.5 253.25 421.5 253 426.25 250.5C430.75 248.5 433 244.75 433 239.25C433 228 423.75 222 412.25 222C390.5 222 376.25 240.75 371 262.5ZM423.75 406C423.75 418.5 432.75 427.5 445.75 427.5C458.25 427.5 467.25 418.5 467.25 406C467.25 393.5 458.25 384.25 445.75 384.25C432.75 384.25 423.75 393.5 423.75 406Z" fill="black" fill-opacity="0.85"/>
 </g>
</svg>
