<?xml version="1.0" encoding="UTF-8"?>
<!--Generator: Apple Native CoreSVG 326-->
<!DOCTYPE svg
PUBLIC "-//W3C//DTD SVG 1.1//EN"
       "http://www.w3.org/Graphics/SVG/1.1/DTD/svg11.dtd">
<svg version="1.1" xmlns="http://www.w3.org/2000/svg" xmlns:xlink="http://www.w3.org/1999/xlink" viewBox="0 0 651.25 651.75">
 <g>
  <rect height="651.75" opacity="0" width="651.25" x="0" y="0"/>
  <path d="M651.25 325.75C651.25 505 505 651.25 325.5 651.25C146.25 651.25 0 505 0 325.75C0 146.25 146.25 0 325.5 0C505 0 651.25 146.25 651.25 325.75ZM186.25 192.25L186.25 445.5C186.25 456 192.75 462.75 202.5 462.75C212 462.75 218.75 456 218.75 445.5L218.75 385.5L238.75 365.5L302.5 454.5C305.75 459.5 310.5 462.75 316.5 462.75C325.5 462.75 332 456.75 332 448.5C332 444.25 330.25 440.75 327.75 436.75L261.75 345.25L323.5 279.75C327.5 275.75 329.25 273.25 329.25 268.25C329.25 260.75 323 254 314.75 254C310.5 254 305.25 256.75 302.5 260.25L219.75 351L218.75 351L218.75 192.5C218.75 182 212 175 202.5 175C192.75 175 186.25 181.75 186.25 192.25ZM402.5 294.5L400.5 294.5L400.5 270.5C400.5 261.25 394.25 254 386 254C377.25 254 371 261.25 371 270.5L371 445.5C371 456 376.5 462.75 386.75 462.75C393.75 462.75 401.75 458 401.75 445.5L401.75 338C401.75 313.75 411.5 285.25 440.75 285.25C447.25 285.25 453 285 458 282.5C462.25 280.5 464.75 276.75 464.75 271.25C464.75 260 455.25 254 443.75 254C422 254 407.75 272.75 402.5 294.5ZM455.25 438C455.25 450.5 464.5 459.5 477.25 459.5C489.75 459.5 498.75 450.5 498.75 438C498.75 425.5 489.75 416.25 477.25 416.25C464.5 416.25 455.25 425.5 455.25 438Z" fill="black" fill-opacity="0.85"/>
 </g>
</svg>
