<?xml version="1.0" encoding="UTF-8"?>
<!--Generator: Apple Native CoreSVG 326-->
<!DOCTYPE svg
PUBLIC "-//W3C//DTD SVG 1.1//EN"
       "http://www.w3.org/Graphics/SVG/1.1/DTD/svg11.dtd">
<svg version="1.1" xmlns="http://www.w3.org/2000/svg" xmlns:xlink="http://www.w3.org/1999/xlink" viewBox="0 0 587.75 587.75">
 <g>
  <rect height="587.75" opacity="0" width="587.75" x="0" y="0"/>
  <path d="M97.25 587.75L490.25 587.75C555 587.75 587.75 555 587.75 491.5L587.75 96.5C587.75 32.75 555 0 490.25 0L97.25 0C32.75 0 0 32.5 0 96.5L0 491.5C0 555.5 32.75 587.75 97.25 587.75ZM98.25 543.5C63.25 543.5 44.25 525 44.25 489L44.25 98.75C44.25 63 63.25 44.25 98.25 44.25L489.5 44.25C523.75 44.25 543.5 63 543.5 98.75L543.5 489C543.5 525 523.75 543.5 489.5 543.5Z" fill="black" fill-opacity="0.85"/>
  <path d="M272.5 399.25C300.5 399.25 326.25 387.75 339.5 360.75L340.5 360.75L340.5 386.75C340.5 395.5 347.25 402.25 356 402.25C365 402.25 371.5 395.5 371.5 386.75L371.5 181.75L396.25 181.75C401.5 181.75 406 177.25 406 172C406 166.75 401.5 162.5 396.25 162.5L371.5 162.5L371.5 147.5C371.5 137.75 365.25 131.25 355.5 131.25C345.75 131.25 339.5 137.75 339.5 147.5L339.5 162.5L277.5 162.5C272 162.5 267.75 166.75 267.75 172C267.75 177.5 272 181.75 277.5 181.75L339.5 181.75L339.5 250.25L338 250.25C326.75 224.75 301 212.25 272.5 212.25C225.5 212.25 187.5 249 187.5 305.5C187.5 359 222.5 399.25 272.5 399.25ZM280.5 371.5C242.75 371.5 220.25 342.5 220.25 305.5C220.25 267 245 239.75 280.5 239.75C317.25 239.75 339.5 270 339.5 305.5C339.5 343.25 315 371.5 280.5 371.5ZM203.25 433.5C203.25 439.25 208 443.5 213.5 443.5L370.75 443.5C376.25 443.5 381 439.25 381 433.5C381 428 376.25 423.5 370.75 423.5L213.5 423.5C208 423.5 203.25 428 203.25 433.5Z" fill="black" fill-opacity="0.85"/>
 </g>
</svg>
