<?xml version="1.0" encoding="UTF-8"?>
<!--Generator: Apple Native CoreSVG 326-->
<!DOCTYPE svg
PUBLIC "-//W3C//DTD SVG 1.1//EN"
       "http://www.w3.org/Graphics/SVG/1.1/DTD/svg11.dtd">
<svg version="1.1" xmlns="http://www.w3.org/2000/svg" xmlns:xlink="http://www.w3.org/1999/xlink" viewBox="0 0 651.25 651.75">
 <g>
  <rect height="651.75" opacity="0" width="651.25" x="0" y="0"/>
  <path d="M325.5 651.25C505.25 651.25 651.25 505.5 651.25 325.75C651.25 146 505.25 0 325.5 0C145.75 0 0 146 0 325.75C0 505.5 145.75 651.25 325.5 651.25ZM325.5 604.75C171.25 604.75 46.5 480 46.5 325.75C46.5 171.5 171.25 46.75 325.5 46.75C479.75 46.75 604.5 171.5 604.5 325.75C604.5 480 479.75 604.75 325.5 604.75Z" fill="black" fill-opacity="0.85"/>
  <path d="M250 469.5L403.5 469.5C414.75 469.5 422.25 462.25 422.25 451C422.25 439.75 414.75 432.75 403.5 432.75L272.5 432.75L272.5 338.5L395.5 338.5C406.5 338.5 414 332 414 321C414 309.75 406.5 303.25 395.5 303.25L272.5 303.25L272.5 214.25L403.5 214.25C414.75 214.25 422.25 206.75 422.25 195.75C422.25 184.5 414.75 177.5 403.5 177.5L250 177.5C236 177.5 228.5 187.5 228.5 202.25L228.5 444.5C228.5 459.25 236 469.5 250 469.5Z" fill="black" fill-opacity="0.85"/>
 </g>
</svg>
