<?xml version="1.0" encoding="UTF-8"?>
<!--Generator: Apple Native CoreSVG 326-->
<!DOCTYPE svg
PUBLIC "-//W3C//DTD SVG 1.1//EN"
       "http://www.w3.org/Graphics/SVG/1.1/DTD/svg11.dtd">
<svg version="1.1" xmlns="http://www.w3.org/2000/svg" xmlns:xlink="http://www.w3.org/1999/xlink" viewBox="0 0 651.25 651.75">
 <g>
  <rect height="651.75" opacity="0" width="651.25" x="0" y="0"/>
  <path d="M651.25 325.75C651.25 505 505 651.25 325.5 651.25C146.25 651.25 0 505 0 325.75C0 146.25 146.25 0 325.5 0C505 0 651.25 146.25 651.25 325.75ZM248.5 174C234 174 226.25 184.25 226.25 199.5L226.25 447.25C226.25 462.75 234 473 248.5 473L406 473C417.25 473 425 465.5 425 454C425 442.5 417.25 435.25 406 435.25L271.75 435.25L271.75 339L397.5 339C408.75 339 416.5 332.25 416.5 321C416.5 309.25 408.75 302.75 397.5 302.75L271.75 302.75L271.75 211.75L406 211.75C417.25 211.75 425 204 425 192.75C425 181 417.25 174 406 174Z" fill="black" fill-opacity="0.85"/>
 </g>
</svg>
