<?xml version="1.0" encoding="UTF-8"?>
<!--Generator: Apple Native CoreSVG 326-->
<!DOCTYPE svg
PUBLIC "-//W3C//DTD SVG 1.1//EN"
       "http://www.w3.org/Graphics/SVG/1.1/DTD/svg11.dtd">
<svg version="1.1" xmlns="http://www.w3.org/2000/svg" xmlns:xlink="http://www.w3.org/1999/xlink" viewBox="0 0 587.75 587.75">
 <g>
  <rect height="587.75" opacity="0" width="587.75" x="0" y="0"/>
  <path d="M587.75 96.5L587.75 491.5C587.75 555 555 587.75 490.25 587.75L97.25 587.75C32.75 587.75 0 555.5 0 491.5L0 96.5C0 32.5 32.75 0 97.25 0L490.25 0C555 0 587.75 32.75 587.75 96.5ZM149.75 160.5C139 160.5 133.25 167 133.25 177.75L133.25 410.75C133.25 421.75 138.5 428.25 149.75 428.25L254.25 428.25C263.5 428.25 269.5 422.75 269.5 413.75C269.5 404.75 263.5 399 254.25 399L166.5 399L166.5 305.5L250.25 305.5C258.75 305.5 264.25 299.75 264.25 291.5C264.25 283.25 258.75 277.5 250.25 277.5L166.5 277.5L166.5 189.5L254.25 189.5C263.5 189.5 269.5 183.75 269.5 174.75C269.5 165.75 263.5 160.5 254.25 160.5ZM324.75 160.5C316 160.5 309.75 166 309.75 174.75C309.75 183.5 316 189.5 324.75 189.5L426.75 189.5L426.75 191L313.25 396.75C310.5 401.5 308.75 406.25 308.75 411.5C308.75 423 317 428.25 325.75 428.25L454.25 428.25C463 428.25 468 422.25 468 413.75C468 405.25 463 399 454.25 399L347.5 399L347.5 397.5L460 192.25C462.75 187.75 465 182.75 465 177.25C465 167.5 458.5 160.5 447.75 160.5Z" fill="black" fill-opacity="0.85"/>
 </g>
</svg>
