<?xml version="1.0" encoding="UTF-8"?>
<!--Generator: Apple Native CoreSVG 326-->
<!DOCTYPE svg
PUBLIC "-//W3C//DTD SVG 1.1//EN"
       "http://www.w3.org/Graphics/SVG/1.1/DTD/svg11.dtd">
<svg version="1.1" xmlns="http://www.w3.org/2000/svg" xmlns:xlink="http://www.w3.org/1999/xlink" viewBox="0 0 651.25 651.75">
 <g>
  <rect height="651.75" opacity="0" width="651.25" x="0" y="0"/>
  <path d="M651.25 325.75C651.25 505 505 651.25 325.5 651.25C146.25 651.25 0 505 0 325.75C0 146.25 146.25 0 325.5 0C505 0 651.25 146.25 651.25 325.75ZM292.75 458C292.75 475.25 308 489.5 325.5 489.5C343.25 489.5 358.25 475.5 358.25 458C358.25 440.25 343.5 426.25 325.5 426.25C307.75 426.25 292.75 440.5 292.75 458ZM299 185.75L302.75 361.75C303 376.75 311.25 385.25 325.5 385.25C339.5 385.25 347.5 377 347.75 361.75L352 186C352.25 171 340.75 160 325.25 160C309.5 160 298.75 170.75 299 185.75Z" fill="black" fill-opacity="0.85"/>
 </g>
</svg>
