<?xml version="1.0" encoding="UTF-8"?>
<!--Generator: Apple Native CoreSVG 326-->
<!DOCTYPE svg
PUBLIC "-//W3C//DTD SVG 1.1//EN"
       "http://www.w3.org/Graphics/SVG/1.1/DTD/svg11.dtd">
<svg version="1.1" xmlns="http://www.w3.org/2000/svg" xmlns:xlink="http://www.w3.org/1999/xlink" viewBox="0 0 651.25 651.75">
 <g>
  <rect height="651.75" opacity="0" width="651.25" x="0" y="0"/>
  <path d="M325.5 651.25C505.25 651.25 651.25 505.5 651.25 325.75C651.25 146 505.25 0 325.5 0C145.75 0 0 146 0 325.75C0 505.5 145.75 651.25 325.5 651.25ZM325.5 604.75C171.25 604.75 46.5 480 46.5 325.75C46.5 171.5 171.25 46.75 325.5 46.75C479.75 46.75 604.5 171.5 604.5 325.75C604.5 480 479.75 604.75 325.5 604.75Z" fill="black" fill-opacity="0.85"/>
  <path d="M254 472.75C268.5 472.75 276.5 463.25 276.5 448.25L276.5 342.25L396.5 342.25C407.5 342.25 415.25 335.75 415.25 325C415.25 313.5 407.5 307 396.5 307L276.5 307L276.5 214.25L408.75 214.25C420 214.25 427.5 206.75 427.5 195.75C427.5 184.5 420 177.5 408.75 177.5L253.75 177.5C239.75 177.5 232.25 187.5 232.25 202.25L232.25 448.25C232.25 462.75 240 472.75 254 472.75Z" fill="black" fill-opacity="0.85"/>
 </g>
</svg>
