<?xml version="1.0" encoding="UTF-8"?>
<!--Generator: Apple Native CoreSVG 326-->
<!DOCTYPE svg
PUBLIC "-//W3C//DTD SVG 1.1//EN"
       "http://www.w3.org/Graphics/SVG/1.1/DTD/svg11.dtd">
<svg version="1.1" xmlns="http://www.w3.org/2000/svg" xmlns:xlink="http://www.w3.org/1999/xlink" viewBox="0 0 587.75 587.75">
 <g>
  <rect height="587.75" opacity="0" width="587.75" x="0" y="0"/>
  <path d="M97.25 587.75L490.25 587.75C555 587.75 587.75 555 587.75 491.5L587.75 96.5C587.75 32.75 555 0 490.25 0L97.25 0C32.75 0 0 32.5 0 96.5L0 491.5C0 555.5 32.75 587.75 97.25 587.75ZM98.25 543.5C63.25 543.5 44.25 525 44.25 489L44.25 98.75C44.25 63 63.25 44.25 98.25 44.25L489.5 44.25C523.75 44.25 543.5 63 543.5 98.75L543.5 489C543.5 525 523.75 543.5 489.5 543.5Z" fill="black" fill-opacity="0.85"/>
  <path d="M216 436.5C264.75 436.5 288.25 410.75 296.25 362.75L307.25 298.5L378 298.5C385 298.5 390.25 293.75 390.25 287C390.25 280.25 385 275.25 378 275.25L311 275.25L319.25 227C324.5 196 340 180.25 371 180.25C383.25 180.25 391 183 398 183C406.5 183 411.25 178.75 411.25 171.25C411.25 164 405.5 159.5 398.5 156.5C389.25 152.75 376.25 151.75 368.25 151.75C320.75 151.75 294.75 177.25 286.75 224.25L278.25 275.25L211.25 275.25C204.25 275.25 199 280.25 199 287C199 293.75 204.25 298.5 211.25 298.5L274.5 298.5L264 359C258.5 390.75 245.25 408 213 408C200 408 195.5 405.5 184.75 405.5C177.5 405.5 172.75 410.5 172.75 417C172.75 424.5 177.5 429 185 432C194.25 435.75 206.25 436.5 216 436.5Z" fill="black" fill-opacity="0.85"/>
 </g>
</svg>
