<?xml version="1.0" encoding="UTF-8"?>
<!--Generator: Apple Native CoreSVG 326-->
<!DOCTYPE svg
PUBLIC "-//W3C//DTD SVG 1.1//EN"
       "http://www.w3.org/Graphics/SVG/1.1/DTD/svg11.dtd">
<svg version="1.1" xmlns="http://www.w3.org/2000/svg" xmlns:xlink="http://www.w3.org/1999/xlink" viewBox="0 0 651.25 651.75">
 <g>
  <rect height="651.75" opacity="0" width="651.25" x="0" y="0"/>
  <path d="M325.5 651.25C505.25 651.25 651.25 505.5 651.25 325.75C651.25 146 505.25 0 325.5 0C145.75 0 0 146 0 325.75C0 505.5 145.75 651.25 325.5 651.25ZM325.5 604.75C171.25 604.75 46.5 480 46.5 325.75C46.5 171.5 171.25 46.75 325.5 46.75C479.75 46.75 604.5 171.5 604.5 325.75C604.5 480 479.75 604.75 325.5 604.75Z" fill="black" fill-opacity="0.85"/>
  <path d="M327 476C403 476 448.75 430.25 448.75 363L448.75 339.75C448.75 325 440.25 316 425.75 316L339.25 316C329 316 322.5 322.75 322.5 332.5C322.5 341 329 348.75 339.25 348.75L405 348.75L405 368.5C405 411.25 378 439 327.5 439C273.25 439 236.75 392.75 236.75 323.5C236.75 254.5 273 207.75 326.75 207.75C366 207.75 395.25 227.5 406.75 261.75C411.25 271.5 416.5 275.75 425.5 275.75C437 275.75 444.5 268.5 444.5 256.5C444.5 251.75 444 247.75 442.25 243C429 204.25 388 170.75 326.25 170.75C244.75 170.75 192 230.75 192 323.5C192 416.5 244.75 476 327 476Z" fill="black" fill-opacity="0.85"/>
 </g>
</svg>
