<?xml version="1.0" encoding="UTF-8"?>
<!--Generator: Apple Native CoreSVG 326-->
<!DOCTYPE svg
PUBLIC "-//W3C//DTD SVG 1.1//EN"
       "http://www.w3.org/Graphics/SVG/1.1/DTD/svg11.dtd">
<svg version="1.1" xmlns="http://www.w3.org/2000/svg" xmlns:xlink="http://www.w3.org/1999/xlink" viewBox="0 0 651.25 651.75">
 <g>
  <rect height="651.75" opacity="0" width="651.25" x="0" y="0"/>
  <path d="M651.25 325.75C651.25 505 505 651.25 325.5 651.25C146.25 651.25 0 505 0 325.75C0 146.25 146.25 0 325.5 0C505 0 651.25 146.25 651.25 325.75ZM186.75 323.5C186.75 420.5 241.75 482.75 327.75 482.75C407 482.75 454.5 434.75 454.5 364.75L454.5 340.5C454.5 325 445.75 315.75 430.75 315.75L340 315.75C329.5 315.75 322.75 322.75 322.75 332.75C322.75 341.75 329.5 349.75 340 349.75L409 349.75L409 370.25C409 415 380.75 444.25 328.25 444.25C271.5 444.25 233.25 395.75 233.25 323.5C233.25 251.5 271.25 202.75 327.5 202.75C368.5 202.75 398.75 223.5 411 259C415.5 269.5 421 274 430.25 274C442.75 274 450.25 266.25 450.25 253.75C450.25 248.5 449.5 244.5 447.75 239.5C433.75 199 391.25 164.25 326.75 164.25C241.75 164.25 186.75 226.75 186.75 323.5Z" fill="black" fill-opacity="0.85"/>
 </g>
</svg>
