<?xml version="1.0" encoding="UTF-8"?>
<!--Generator: Apple Native CoreSVG 326-->
<!DOCTYPE svg
PUBLIC "-//W3C//DTD SVG 1.1//EN"
       "http://www.w3.org/Graphics/SVG/1.1/DTD/svg11.dtd">
<svg version="1.1" xmlns="http://www.w3.org/2000/svg" xmlns:xlink="http://www.w3.org/1999/xlink" viewBox="0 0 587.75 587.75">
 <g>
  <rect height="587.75" opacity="0" width="587.75" x="0" y="0"/>
  <path d="M97.25 587.75L490.25 587.75C555 587.75 587.75 555 587.75 491.5L587.75 96.5C587.75 32.75 555 0 490.25 0L97.25 0C32.75 0 0 32.5 0 96.5L0 491.5C0 555.5 32.75 587.75 97.25 587.75ZM98.25 543.5C63.25 543.5 44.25 525 44.25 489L44.25 98.75C44.25 63 63.25 44.25 98.25 44.25L489.5 44.25C523.75 44.25 543.5 63 543.5 98.75L543.5 489C543.5 525 523.75 543.5 489.5 543.5Z" fill="black" fill-opacity="0.85"/>
  <path d="M295.75 444C371.75 444 417.5 398.25 417.5 331L417.5 307.75C417.5 293 408.75 284 394.5 284L308 284C297.75 284 291.25 290.75 291.25 300.5C291.25 309 297.75 316.75 308 316.75L373.75 316.75L373.75 336.5C373.75 379.25 346.75 407 296.25 407C242 407 205.5 360.75 205.5 291.5C205.5 222.5 241.75 175.75 295.5 175.75C334.75 175.75 364 195.5 375.5 229.75C380 239.5 385.25 243.75 394.25 243.75C405.75 243.75 413.25 236.5 413.25 224.5C413.25 219.75 412.5 215.75 411 211C397.75 172.25 356.75 138.75 295 138.75C213.5 138.75 160.75 198.75 160.75 291.5C160.75 384.5 213.5 444 295.75 444Z" fill="black" fill-opacity="0.85"/>
 </g>
</svg>
