<?xml version="1.0" encoding="UTF-8"?>
<!--Generator: Apple Native CoreSVG 326-->
<!DOCTYPE svg
PUBLIC "-//W3C//DTD SVG 1.1//EN"
       "http://www.w3.org/Graphics/SVG/1.1/DTD/svg11.dtd">
<svg version="1.1" xmlns="http://www.w3.org/2000/svg" xmlns:xlink="http://www.w3.org/1999/xlink" viewBox="0 0 587.75 587.75">
 <g>
  <rect height="587.75" opacity="0" width="587.75" x="0" y="0"/>
  <path d="M97.25 587.75L490.25 587.75C555 587.75 587.75 555 587.75 491.5L587.75 96.5C587.75 32.75 555 0 490.25 0L97.25 0C32.75 0 0 32.5 0 96.5L0 491.5C0 555.5 32.75 587.75 97.25 587.75ZM98.25 543.5C63.25 543.5 44.25 525 44.25 489L44.25 98.75C44.25 63 63.25 44.25 98.25 44.25L489.5 44.25C523.75 44.25 543.5 63 543.5 98.75L543.5 489C543.5 525 523.75 543.5 489.5 543.5Z" fill="black" fill-opacity="0.85"/>
  <path d="M296.25 434.25C365 434.25 407 393 407 320.25L407 305.5C407 294.75 400.25 288 390.25 288L302.25 288L302.25 315L374.5 315L374.5 327.5C374.5 373.5 346.25 405.25 296.5 405.25C237 405.25 207.25 354 207.25 291.75C207.25 233.25 234.5 179.75 296 179.75C331.5 179.75 362.5 200.25 371 231.25C374 239.75 378 243.5 387.25 243.5C396 243.5 402 237.75 402 229C402 225 401.25 220 399 214.75C383.75 172 338.75 150.5 296 150.5C215.5 150.5 172.75 212.25 172.75 292C172.75 374.25 217.5 434.25 296.25 434.25ZM294.75 472C300.5 472 304.75 467.75 304.75 462.25L304.75 123.75C304.75 117.75 300.5 113.75 294.75 113.75C288.75 113.75 284.75 117.75 284.75 123.75L284.75 462.25C284.75 467.75 288.75 472 294.75 472Z" fill="black" fill-opacity="0.85"/>
 </g>
</svg>
