<?xml version="1.0" encoding="UTF-8"?>
<!--Generator: Apple Native CoreSVG 326-->
<!DOCTYPE svg
PUBLIC "-//W3C//DTD SVG 1.1//EN"
       "http://www.w3.org/Graphics/SVG/1.1/DTD/svg11.dtd">
<svg version="1.1" xmlns="http://www.w3.org/2000/svg" xmlns:xlink="http://www.w3.org/1999/xlink" viewBox="0 0 651.25 651.75">
 <g>
  <rect height="651.75" opacity="0" width="651.25" x="0" y="0"/>
  <path d="M651.25 325.75C651.25 505 505 651.25 325.5 651.25C146.25 651.25 0 505 0 325.75C0 146.25 146.25 0 325.5 0C505 0 651.25 146.25 651.25 325.75ZM316 151.5L316 179.5C241.25 185 201.25 246 201.25 324C201.25 404.25 242.75 463.75 316 469.5L316 498.5C316 504.25 320.25 508.5 326.5 508.5C332.25 508.5 336.75 504.25 336.75 498.5L336.75 469.75C402 466.25 441.5 424.5 441.5 353L441.5 337.75C441.5 326.75 434.5 319.75 424.25 319.75L336.75 319.75L336.75 209.5C369.25 212.5 396.5 232.75 404.25 261.75C407.5 270.5 411.5 274.25 421.25 274.25C430.25 274.25 436.25 268.5 436.25 259.5C436.25 255.25 435.75 250.25 433.5 244.75C418.5 203.75 377.5 182.25 336.75 179.25L336.75 151.5C336.75 145.5 332.25 141.25 326.5 141.25C320.25 141.25 316 145.5 316 151.5ZM408.25 360.5C408.25 404.75 382.25 436.5 336.75 439.5L336.75 347.75L408.25 347.75ZM316 439C263.25 432.5 236.75 383.25 236.75 323.75C236.75 268 261.25 216.25 316 209.75Z" fill="black" fill-opacity="0.85"/>
 </g>
</svg>
