<?xml version="1.0" encoding="UTF-8"?>
<!--Generator: Apple Native CoreSVG 326-->
<!DOCTYPE svg
PUBLIC "-//W3C//DTD SVG 1.1//EN"
       "http://www.w3.org/Graphics/SVG/1.1/DTD/svg11.dtd">
<svg version="1.1" xmlns="http://www.w3.org/2000/svg" xmlns:xlink="http://www.w3.org/1999/xlink" viewBox="0 0 651.25 651.75">
 <g>
  <rect height="651.75" opacity="0" width="651.25" x="0" y="0"/>
  <path d="M325.5 651.25C505.25 651.25 651.25 505.5 651.25 325.75C651.25 146 505.25 0 325.5 0C145.75 0 0 146 0 325.75C0 505.5 145.75 651.25 325.5 651.25ZM325.5 604.75C171.25 604.75 46.5 480 46.5 325.75C46.5 171.5 171.25 46.75 325.5 46.75C479.75 46.75 604.5 171.5 604.5 325.75C604.5 480 479.75 604.75 325.5 604.75Z" fill="black" fill-opacity="0.85"/>
  <path d="M224.5 472.75C238.75 472.75 246.75 463.75 246.75 448.5L246.75 336L403.5 336L403.5 448.5C403.5 463.5 411.75 472.75 425.25 472.75C439.5 472.75 447.5 463.75 447.5 448.5L447.5 198.5C447.5 183 439.5 174.25 425.25 174.25C411.75 174.25 403.5 183.25 403.5 198.5L403.5 301L246.75 301L246.75 198.5C246.75 183 238.75 174.25 224.5 174.25C211 174.25 202.5 183.25 202.5 198.5L202.5 448.5C202.5 463.5 211 472.75 224.5 472.75Z" fill="black" fill-opacity="0.85"/>
 </g>
</svg>
