<?xml version="1.0" encoding="UTF-8"?>
<!--Generator: Apple Native CoreSVG 326-->
<!DOCTYPE svg
PUBLIC "-//W3C//DTD SVG 1.1//EN"
       "http://www.w3.org/Graphics/SVG/1.1/DTD/svg11.dtd">
<svg version="1.1" xmlns="http://www.w3.org/2000/svg" xmlns:xlink="http://www.w3.org/1999/xlink" viewBox="0 0 587.75 587.75">
 <g>
  <rect height="587.75" opacity="0" width="587.75" x="0" y="0"/>
  <path d="M587.75 96.5L587.75 491.5C587.75 555 555 587.75 490.25 587.75L97.25 587.75C32.75 587.75 0 555.5 0 491.5L0 96.5C0 32.5 32.75 0 97.25 0L490.25 0C555 0 587.75 32.75 587.75 96.5ZM186.75 303.75C181.25 303.75 176.75 308 176.75 314C176.75 319.75 181.25 324 186.75 324L217 324C204 334.5 195.75 350 195.75 366.5C195.75 415 246 438.75 294 438.75C332.75 438.75 367.75 424.75 384.25 394.25C387.75 388.25 390.75 380.25 390.75 374.25C390.75 365.5 384.5 359.5 375.25 359.5C367.75 359.5 363 363.5 359.75 370.75C348.75 398 324 409.75 293.75 409.75C260.75 409.75 229.5 393 229.5 365C229.5 346.25 239.5 332.5 255.25 324L400.75 324C406.5 324 411 319.75 411 314C411 308 406.5 303.75 400.75 303.75ZM210.5 184C206 190.75 204 197 204 204C204 212.5 209.75 218.5 219 218.5C226.75 218.5 230.75 215 234.25 208.25C245.25 184 268 173.5 293 173.5C323.75 173.5 353.25 187.75 353.25 218C353.25 229 348 243.25 335 251L186.75 251C181.25 251 176.75 255.25 176.75 261.25C176.75 267 181.25 271.25 186.75 271.25L400.75 271.25C406.5 271.25 411 267 411 261.25C411 255.25 406.5 251 400.75 251L371 251C380.75 241.75 386.5 228.75 386.5 215.75C386.5 167.5 339.75 144.5 292.25 144.5C264 144.5 230.25 153 210.5 184Z" fill="black" fill-opacity="0.85"/>
 </g>
</svg>
