<?xml version="1.0" encoding="UTF-8"?>
<!--Generator: Apple Native CoreSVG 326-->
<!DOCTYPE svg
PUBLIC "-//W3C//DTD SVG 1.1//EN"
       "http://www.w3.org/Graphics/SVG/1.1/DTD/svg11.dtd">
<svg version="1.1" xmlns="http://www.w3.org/2000/svg" xmlns:xlink="http://www.w3.org/1999/xlink" viewBox="0 0 451.5 579.75">
 <g>
  <rect height="579.75" opacity="0" width="451.5" x="0" y="0"/>
  <path d="M222.75 0C152.75 0 88.25 30 60 89C54.25 98 50 109 50 119.5C50 132 58 143.25 74.25 143.25C86.5 143.25 93.5 136 99 124.75C118 73 169.25 47.75 224 47.75C289.5 47.75 353 77 353 142.5C353 166.75 341.5 194 316 210.5L17.75 210.5C7.5 210.5 0 218.25 0 228.75C0 239 7.5 246.75 17.75 246.75L433.75 246.75C444 246.75 451.5 239 451.5 228.75C451.5 218.25 444 210.5 433.75 210.5L372.75 210.5C393 192 405.25 166.5 405.25 138.75C405.25 45.25 314.5 0 222.75 0ZM226.25 579C307 579 376 546.75 405.25 481.75C410.5 473.25 415.75 461 415.75 449.25C415.75 435 406.25 425.75 391.25 425.75C377.25 425.75 370.75 434 366 444C345.5 505 290.5 531.5 224.5 531.5C148.75 531.5 88.25 494 88.25 435.75C88.25 398 110.75 369.25 143.25 351.75L433.75 351.75C444 351.75 451.5 344 451.5 333.5C451.5 322.75 444 315 433.75 315L17.75 315C7.5 315 0 322.75 0 333.5C0 344 7.5 351.75 17.75 351.75L81.75 351.75C53 371.25 35.75 403.5 35.75 438.25C35.75 530.25 129 579 226.25 579Z" fill="black" fill-opacity="0.85"/>
 </g>
</svg>
