<?xml version="1.0" encoding="UTF-8"?>
<!--Generator: Apple Native CoreSVG 326-->
<!DOCTYPE svg
PUBLIC "-//W3C//DTD SVG 1.1//EN"
       "http://www.w3.org/Graphics/SVG/1.1/DTD/svg11.dtd">
<svg version="1.1" xmlns="http://www.w3.org/2000/svg" xmlns:xlink="http://www.w3.org/1999/xlink" viewBox="0 0 587.75 587.75">
 <g>
  <rect height="587.75" opacity="0" width="587.75" x="0" y="0"/>
  <path d="M587.75 96.5L587.75 491.5C587.75 555 555 587.75 490.25 587.75L97.25 587.75C32.75 587.75 0 555.5 0 491.5L0 96.5C0 32.5 32.75 0 97.25 0L490.25 0C555 0 587.75 32.75 587.75 96.5ZM201.75 147C194 147 189.5 152 189.5 160.25L189.5 162.25C189.5 170.5 194 175.5 201.75 175.5L256.75 175.5C290.5 175.5 317.25 189.75 321.75 223.25L200.25 223.25C194.5 223.25 190 227.75 190 233.25C190 239 194.5 243.25 200.25 243.25L321.5 243.25C317.25 278 290.25 290.5 255.25 290.5L208.75 290.5C197.5 290.5 190.25 297.5 190.25 307.5L190.25 308.25C190.25 316.75 194 322 200.75 328L316.25 436C321.5 440.5 325.5 444.25 333 444.25C342 444.25 348.25 437 348.25 429C348.25 423.25 345.25 419.5 341.25 415.25L238.5 319.75L258.25 319.75C309.75 319.75 350.5 294.25 357 243.25L383.25 243.25C389 243.25 393.5 239 393.5 233.25C393.5 227.75 389 223.25 383.25 223.25L357.5 223.25C355.5 201.5 346.5 180.75 328.25 167.25L383.25 167.25C389 167.25 393.5 162.5 393.5 157.25C393.5 151.25 389 147 383.25 147Z" fill="black" fill-opacity="0.85"/>
 </g>
</svg>
