<?xml version="1.0" encoding="UTF-8"?>
<!--Generator: Apple Native CoreSVG 326-->
<!DOCTYPE svg
PUBLIC "-//W3C//DTD SVG 1.1//EN"
       "http://www.w3.org/Graphics/SVG/1.1/DTD/svg11.dtd">
<svg version="1.1" xmlns="http://www.w3.org/2000/svg" xmlns:xlink="http://www.w3.org/1999/xlink" viewBox="0 0 651.25 651.75">
 <g>
  <rect height="651.75" opacity="0" width="651.25" x="0" y="0"/>
  <path d="M325.5 651.25C505.25 651.25 651.25 505.5 651.25 325.75C651.25 146 505.25 0 325.5 0C145.75 0 0 146 0 325.75C0 505.5 145.75 651.25 325.5 651.25ZM325.5 604.75C171.25 604.75 46.5 480 46.5 325.75C46.5 171.5 171.25 46.75 325.5 46.75C479.75 46.75 604.5 171.5 604.5 325.75C604.5 480 479.75 604.75 325.5 604.75Z" fill="black" fill-opacity="0.85"/>
  <path d="M241 472.75C255.25 472.75 263.25 463.5 263.25 448.25L263.25 374L303.75 332.5L402.25 461.5C408.25 469.25 414 472.5 422 472.5C434.5 472.5 443.25 464 443.25 451.75C443.25 446 440.75 440 437 434.5L336 303.75L428.75 208.75C433.75 203.75 435.75 199 435.75 193C435.75 182.5 426.75 174.25 415.5 174.25C408.25 174.25 403.5 176.5 397.25 183L265 317.25L263.25 317.25L263.25 198.75C263.25 183.25 255.25 174.25 241 174.25C227.5 174.25 219.25 183.25 219.25 198.75L219.25 448.25C219.25 463.5 227.5 472.75 241 472.75Z" fill="black" fill-opacity="0.85"/>
 </g>
</svg>
