<?xml version="1.0" encoding="UTF-8"?>
<!--Generator: Apple Native CoreSVG 326-->
<!DOCTYPE svg
PUBLIC "-//W3C//DTD SVG 1.1//EN"
       "http://www.w3.org/Graphics/SVG/1.1/DTD/svg11.dtd">
<svg version="1.1" xmlns="http://www.w3.org/2000/svg" xmlns:xlink="http://www.w3.org/1999/xlink" viewBox="0 0 587.75 587.75">
 <g>
  <rect height="587.75" opacity="0" width="587.75" x="0" y="0"/>
  <path d="M587.75 96.5L587.75 491.5C587.75 555 555 587.75 490.25 587.75L97.25 587.75C32.75 587.75 0 555.5 0 491.5L0 96.5C0 32.5 32.75 0 97.25 0L490.25 0C555 0 587.75 32.75 587.75 96.5ZM367.75 147.5L232.5 284.75L230.75 284.75L230.75 164C230.75 147.75 222.5 138.25 207.75 138.25C193.75 138.25 185.25 147.75 185.25 164L185.25 419C185.25 435 193.75 444.5 207.75 444.5C222.5 444.5 230.75 435 230.75 419L230.75 343.5L272.25 301L372.75 432.75C379 440.75 385 444.25 393.25 444.25C406.25 444.25 415.5 435.5 415.5 422.75C415.5 416.75 412.5 410.75 408.75 405L305.5 271.25L400.25 174.25C405.5 169 407.5 164.25 407.5 158C407.5 147 398.25 138.25 386.5 138.25C379.25 138.25 374.25 141 367.75 147.5Z" fill="black" fill-opacity="0.85"/>
 </g>
</svg>
