<?xml version="1.0" encoding="UTF-8"?>
<!--Generator: Apple Native CoreSVG 326-->
<!DOCTYPE svg
PUBLIC "-//W3C//DTD SVG 1.1//EN"
       "http://www.w3.org/Graphics/SVG/1.1/DTD/svg11.dtd">
<svg version="1.1" xmlns="http://www.w3.org/2000/svg" xmlns:xlink="http://www.w3.org/1999/xlink" viewBox="0 0 587.75 587.75">
 <g>
  <rect height="587.75" opacity="0" width="587.75" x="0" y="0"/>
  <path d="M97.25 587.75L490.25 587.75C555 587.75 587.75 555 587.75 491.5L587.75 96.5C587.75 32.75 555 0 490.25 0L97.25 0C32.75 0 0 32.5 0 96.5L0 491.5C0 555.5 32.75 587.75 97.25 587.75ZM98.25 543.5C63.25 543.5 44.25 525 44.25 489L44.25 98.75C44.25 63 63.25 44.25 98.25 44.25L489.5 44.25C523.75 44.25 543.5 63 543.5 98.75L543.5 489C543.5 525 523.75 543.5 489.5 543.5Z" fill="black" fill-opacity="0.85"/>
  <path d="M209.75 440.75C224 440.75 232 431.5 232 416.25L232 342L272.5 300.5L371 429.5C377 437.25 382.75 440.5 390.75 440.5C403.25 440.5 412 432 412 419.75C412 414 409.5 408 405.5 402.5L304.75 271.75L397.5 176.75C402.5 171.75 404.5 167 404.5 161C404.5 150.5 395.5 142.25 384.25 142.25C377 142.25 372.25 144.5 366 151L233.75 285.25L232 285.25L232 166.75C232 151.25 224 142.25 209.75 142.25C196.25 142.25 188 151.25 188 166.75L188 416.25C188 431.5 196.25 440.75 209.75 440.75Z" fill="black" fill-opacity="0.85"/>
 </g>
</svg>
