<?xml version="1.0" encoding="UTF-8"?>
<!--Generator: Apple Native CoreSVG 326-->
<!DOCTYPE svg
PUBLIC "-//W3C//DTD SVG 1.1//EN"
       "http://www.w3.org/Graphics/SVG/1.1/DTD/svg11.dtd">
<svg version="1.1" xmlns="http://www.w3.org/2000/svg" xmlns:xlink="http://www.w3.org/1999/xlink" viewBox="0 0 445.5 589.25">
 <g>
  <rect height="589.25" opacity="0" width="445.5" x="0" y="0"/>
  <path d="M406 588.75C419.5 588.75 431 578.75 431 564.75C431 558 428.75 552.5 423.75 546.25L212.5 292.5L423.25 42.25C427.25 37.25 430.75 30 430.75 23.75C430.75 10.5 420 0 405.75 0C396.5 0 388.75 5.75 383 13L151.75 292.5L383.25 575.5C389.75 583.75 396.25 588.75 406 588.75ZM93.75 588.75C109.25 588.75 120.75 577 120.75 561L120.75 27.75C120.75 11.75 109.25 0 93.75 0C78 0 66.25 11.75 66.25 27.75L66.25 561C66.25 577 78 588.75 93.75 588.75ZM0 292.25C0 302.75 7.75 310.75 18.5 310.75L427 310.75C437.75 310.75 445.5 302.75 445.5 292.25C445.5 281.75 437.75 274 427 274L18.5 274C7.75 274 0 281.75 0 292.25Z" fill="black" fill-opacity="0.85"/>
 </g>
</svg>
