<?xml version="1.0" encoding="UTF-8"?>
<!--Generator: Apple Native CoreSVG 326-->
<!DOCTYPE svg
PUBLIC "-//W3C//DTD SVG 1.1//EN"
       "http://www.w3.org/Graphics/SVG/1.1/DTD/svg11.dtd">
<svg version="1.1" xmlns="http://www.w3.org/2000/svg" xmlns:xlink="http://www.w3.org/1999/xlink" viewBox="0 0 651.25 651.75">
 <g>
  <rect height="651.75" opacity="0" width="651.25" x="0" y="0"/>
  <path d="M651.25 325.75C651.25 505 505 651.25 325.5 651.25C146.25 651.25 0 505 0 325.75C0 146.25 146.25 0 325.5 0C505 0 651.25 146.25 651.25 325.75ZM239.75 195.75L239.75 447.25C239.75 462.5 247.75 473 262.25 473L415.75 473C427.25 473 435 465.5 435 453.75C435 442 427 435 415.75 435L285.5 435L285.5 195.75C285.5 180 277.25 170 262.25 170C247.75 170 239.75 180.5 239.75 195.75Z" fill="black" fill-opacity="0.85"/>
 </g>
</svg>
