<?xml version="1.0" encoding="UTF-8"?>
<!--Generator: Apple Native CoreSVG 326-->
<!DOCTYPE svg
PUBLIC "-//W3C//DTD SVG 1.1//EN"
       "http://www.w3.org/Graphics/SVG/1.1/DTD/svg11.dtd">
<svg version="1.1" xmlns="http://www.w3.org/2000/svg" xmlns:xlink="http://www.w3.org/1999/xlink" viewBox="0 0 651.25 651.75">
 <g>
  <rect height="651.75" opacity="0" width="651.25" x="0" y="0"/>
  <path d="M325.5 651.25C505.25 651.25 651.25 505.5 651.25 325.75C651.25 146 505.25 0 325.5 0C145.75 0 0 146 0 325.75C0 505.5 145.75 651.25 325.5 651.25ZM325.5 604.75C171.25 604.75 46.5 480 46.5 325.75C46.5 171.5 171.25 46.75 325.5 46.75C479.75 46.75 604.5 171.5 604.5 325.75C604.5 480 479.75 604.75 325.5 604.75Z" fill="black" fill-opacity="0.85"/>
  <path d="M206 466.75L425.5 466.75C433.75 466.75 440 461.25 440 453C440 445 433.75 439.5 425.5 439.5L352.75 439.5C276.25 439.5 224 383.5 224 317.75C224 252.25 269.25 214 327.25 214C383.5 214 427.75 252.25 429.5 304.5C429.75 314.25 435.5 321 445 321C454.5 321 460.5 314 460.5 304.5C460 234 397 184.5 327.25 184.5C250.25 184.5 191.5 237.75 191.5 312.5C191.5 366.25 219.25 416.5 267.25 438.5L267.25 439.75L206 439.75C197.5 439.75 191.75 445 191.75 453C191.75 461.25 197.5 466.75 206 466.75ZM295.25 317.25C301 317.25 305.25 313 305.25 307.25L305.25 156.25C305.25 150.5 301 146.5 295.25 146.5C289.75 146.5 285.5 150.5 285.5 156.25L285.5 307.25C285.5 313 289.75 317.25 295.25 317.25ZM360.25 317.25C366 317.25 370.25 313 370.25 307.25L370.25 156.25C370.25 150.5 366 146.5 360.25 146.5C354.75 146.5 350.5 150.5 350.5 156.25L350.5 307.25C350.5 313 354.75 317.25 360.25 317.25Z" fill="black" fill-opacity="0.85"/>
 </g>
</svg>
