<?xml version="1.0" encoding="UTF-8"?>
<!--Generator: Apple Native CoreSVG 326-->
<!DOCTYPE svg
PUBLIC "-//W3C//DTD SVG 1.1//EN"
       "http://www.w3.org/Graphics/SVG/1.1/DTD/svg11.dtd">
<svg version="1.1" xmlns="http://www.w3.org/2000/svg" xmlns:xlink="http://www.w3.org/1999/xlink" viewBox="0 0 651.25 651.75">
 <g>
  <rect height="651.75" opacity="0" width="651.25" x="0" y="0"/>
  <path d="M651.25 325.75C651.25 505 505 651.25 325.5 651.25C146.25 651.25 0 505 0 325.75C0 146.25 146.25 0 325.5 0C505 0 651.25 146.25 651.25 325.75ZM351.25 152.25L351.25 183.25C343.5 182 335.5 181.5 327.5 181.5C320 181.5 312.5 182 305 183L305 152.25C305 146.5 300.75 142.25 294.75 142.25C289 142.25 284.75 146.5 284.75 152.25L284.75 187.25C227.75 203 188.25 250.5 188.25 312.5C188.25 367.5 216.75 419 265.75 441.75L265.75 443L203.25 443C194.5 443 188.5 448.25 188.5 456.75C188.5 465 194.5 471 203.25 471L428.25 471C437 471 443.25 465 443.25 456.75C443.25 448.25 437 442.75 428.25 442.75L353.75 442.75C275.25 442.75 222 385.25 222 318C222 268.25 247.25 233.75 284.75 219.5L284.75 307.25C284.75 313.25 289 317.5 294.75 317.5C300.75 317.5 305 313.25 305 307.25L305 213.5C312.5 212.5 320 211.5 327.5 211.5C335.75 211.5 343.5 212.5 351.25 214L351.25 307.25C351.25 313.25 355.75 317.5 361.25 317.5C367.25 317.5 371.75 313.25 371.75 307.25L371.75 220.25C406.75 234.25 431 265.5 432.25 304.25C432.5 314.5 438.5 321.5 448.25 321.5C458 321.5 464.25 314.25 464.25 304.25C463.75 247.5 423.5 203.75 371.75 188L371.75 152.25C371.75 146.5 367.25 142.25 361.25 142.25C355.75 142.25 351.25 146.5 351.25 152.25Z" fill="black" fill-opacity="0.85"/>
 </g>
</svg>
