<?xml version="1.0" encoding="UTF-8"?>
<!--Generator: Apple Native CoreSVG 326-->
<!DOCTYPE svg
PUBLIC "-//W3C//DTD SVG 1.1//EN"
       "http://www.w3.org/Graphics/SVG/1.1/DTD/svg11.dtd">
<svg version="1.1" xmlns="http://www.w3.org/2000/svg" xmlns:xlink="http://www.w3.org/1999/xlink" viewBox="0 0 651.25 651.75">
 <g>
  <rect height="651.75" opacity="0" width="651.25" x="0" y="0"/>
  <path d="M325.5 651.25C505.25 651.25 651.25 505.5 651.25 325.75C651.25 146 505.25 0 325.5 0C145.75 0 0 146 0 325.75C0 505.5 145.75 651.25 325.5 651.25ZM325.5 604.75C171.25 604.75 46.5 480 46.5 325.75C46.5 171.5 171.25 46.75 325.5 46.75C479.75 46.75 604.5 171.5 604.5 325.75C604.5 480 479.75 604.75 325.5 604.75Z" fill="black" fill-opacity="0.85"/>
  <path d="M228.25 463.5L419.5 463.5C427.75 463.5 434 457.25 434 449.25C434 441.5 427.75 435.25 419.5 435.25L266.5 435.25L266.5 433.5C289.5 426 303 401.25 305 374.75C305.25 371.25 305.5 367.75 305.25 364.25L386.5 364.25C392.5 364.25 397.75 359.5 397.75 353.25C397.75 347 392.5 342.25 386.5 342.25L303.25 342.25C300.75 328.5 296.5 316.75 293.25 304L386.5 304C392.5 304 397.75 299.25 397.75 293C397.75 286.75 392.5 282 386.5 282L289.5 282C289 278 288.75 273.75 288.75 269.25C288.75 230 319.75 209.75 359.25 209.75C372.25 209.75 386.5 212 395 214C399.5 215.5 404.5 216.5 407.75 216.5C416.75 216.5 420.25 211 420.25 204.5C420.25 196.75 415.25 192.5 408 189.25C391.75 182.25 372.25 181.25 356 181.25C295.75 181.25 254.75 213.25 254.75 270.25C254.75 274.25 255 278 255.25 282L225.5 282C219.25 282 214.25 286.75 214.25 293C214.25 299.25 219.25 304 225.5 304L259 304C262 317.5 266.5 329.5 269.5 342.25L225.5 342.25C219.25 342.25 214.25 347 214.25 353.25C214.25 359.5 219.25 364.25 225.5 364.25L272.25 364.25C272.5 368 272 373 271.5 377.25C268.25 406 249.25 425.5 226.75 432.25C218.5 435 213.5 439.75 213.5 448.5C213.5 458.25 220 463.5 228.25 463.5Z" fill="black" fill-opacity="0.85"/>
 </g>
</svg>
