<?xml version="1.0" encoding="UTF-8"?>
<!--Generator: Apple Native CoreSVG 326-->
<!DOCTYPE svg
PUBLIC "-//W3C//DTD SVG 1.1//EN"
       "http://www.w3.org/Graphics/SVG/1.1/DTD/svg11.dtd">
<svg version="1.1" xmlns="http://www.w3.org/2000/svg" xmlns:xlink="http://www.w3.org/1999/xlink" viewBox="0 0 587.75 587.75">
 <g>
  <rect height="587.75" opacity="0" width="587.75" x="0" y="0"/>
  <path d="M587.75 96.5L587.75 491.5C587.75 555 555 587.75 490.25 587.75L97.25 587.75C32.75 587.75 0 555.5 0 491.5L0 96.5C0 32.5 32.75 0 97.25 0L490.25 0C555 0 587.75 32.75 587.75 96.5ZM385.75 157.75L295 385.75L293.25 385.75L202.25 157.75C196.75 144.75 187.5 138.25 173.25 138.25C157 138.25 145.75 149.25 145.75 165.25L145.75 423C145.75 437.25 153.5 446 166.25 446C179.25 446 187.25 437.5 187.25 423L187.25 218L189.75 218L271 422C275.5 432.5 282.75 437.75 293.5 437.75C304.75 437.75 312.25 432.5 316.75 422L398 218L400.75 218L400.75 423C400.75 437.25 408.5 446 421 446C434.25 446 442.25 437.5 442.25 423L442.25 165.25C442.25 149.25 430.75 138.25 414.75 138.25C400.5 138.25 391 144.75 385.75 157.75Z" fill="black" fill-opacity="0.85"/>
 </g>
</svg>
