<?xml version="1.0" encoding="UTF-8"?>
<!--Generator: Apple Native CoreSVG 326-->
<!DOCTYPE svg
PUBLIC "-//W3C//DTD SVG 1.1//EN"
       "http://www.w3.org/Graphics/SVG/1.1/DTD/svg11.dtd">
<svg version="1.1" xmlns="http://www.w3.org/2000/svg" xmlns:xlink="http://www.w3.org/1999/xlink" viewBox="0 0 587.75 587.75">
 <g>
  <rect height="587.75" opacity="0" width="587.75" x="0" y="0"/>
  <path d="M587.75 96.5L587.75 491.5C587.75 555 555 587.75 490.25 587.75L97.25 587.75C32.75 587.75 0 555.5 0 491.5L0 96.5C0 32.5 32.75 0 97.25 0L490.25 0C555 0 587.75 32.75 587.75 96.5ZM450.5 177L393.25 382.5L390.25 382.5L332 176.75C328.5 164.25 319.75 156.25 307.25 156.25C292.5 156.25 282.75 165.75 282.75 180.25L282.75 415.25C282.75 424.75 289 431.25 298.25 431.25C307.25 431.25 313.5 424.75 313.5 415.25L313.5 211.75L315.5 211.75L372 410C374.5 419.25 380 427 391.25 427C402.25 427 407.75 420 411 409.25L467 211.75L469.25 211.75L469.25 415.25C469.25 424.75 475.5 431.25 484.5 431.25C493.5 431.25 499.75 424.75 499.75 415.25L499.75 180.25C499.75 165.5 490.5 156.25 475.75 156.25C463 156.25 454 164 450.5 177ZM105 160C95.25 160 88.5 166.5 88.5 177.25L88.5 413.75C88.5 424 95 431 105.5 431C115.75 431 122.25 424 122.25 413.75L122.25 318.75L166 318.75L208.75 418.75C212.25 426.75 217.5 431 225.25 431C236 431 242 424.25 242 415.75C242 411.5 241 408.5 238.5 402.75L198.5 311.5C224 301 242 276 242 238.75C242 189.75 212.5 160 162.75 160ZM208.5 239.25C208.5 270.5 192.25 291.75 159.75 291.75L122.25 291.75L122.25 188L159.5 188C191 188 208.5 208.25 208.5 239.25Z" fill="black" fill-opacity="0.85"/>
 </g>
</svg>
