<?xml version="1.0" encoding="UTF-8"?>
<!--Generator: Apple Native CoreSVG 326-->
<!DOCTYPE svg
PUBLIC "-//W3C//DTD SVG 1.1//EN"
       "http://www.w3.org/Graphics/SVG/1.1/DTD/svg11.dtd">
<svg version="1.1" xmlns="http://www.w3.org/2000/svg" xmlns:xlink="http://www.w3.org/1999/xlink" viewBox="0 0 587.75 587.75">
 <g>
  <rect height="587.75" opacity="0" width="587.75" x="0" y="0"/>
  <path d="M587.75 96.5L587.75 491.5C587.75 555 555 587.75 490.25 587.75L97.25 587.75C32.75 587.75 0 555.5 0 491.5L0 96.5C0 32.5 32.75 0 97.25 0L490.25 0C555 0 587.75 32.75 587.75 96.5ZM281.25 140.75L281.25 179C214 185 182.25 241.5 182.25 314.75L182.25 418.25C182.25 429 188.75 436 199.25 436C210.25 436 216.75 429 216.75 418.25L216.75 317C216.75 262 235 217.25 281.25 210.25L281.25 423.5C281.25 431.25 286.25 436 294 436C301.5 436 306 431.25 306 423.5L306 210C354.5 216.25 372.5 262 372.5 317L372.5 418.25C372.5 429 379 436 389.75 436C400.5 436 406.75 429 406.75 418.25L406.75 314.75C406.75 240.25 374.25 184.5 306 178.75L306 140.75C306 133 301.5 128.5 294 128.5C286.25 128.5 281.25 133 281.25 140.75Z" fill="black" fill-opacity="0.85"/>
 </g>
</svg>
