<?xml version="1.0" encoding="UTF-8"?>
<!--Generator: Apple Native CoreSVG 326-->
<!DOCTYPE svg
PUBLIC "-//W3C//DTD SVG 1.1//EN"
       "http://www.w3.org/Graphics/SVG/1.1/DTD/svg11.dtd">
<svg version="1.1" xmlns="http://www.w3.org/2000/svg" xmlns:xlink="http://www.w3.org/1999/xlink" viewBox="0 0 651.25 651.75">
 <g>
  <rect height="651.75" opacity="0" width="651.25" x="0" y="0"/>
  <path d="M325.5 651.25C505.25 651.25 651.25 505.5 651.25 325.75C651.25 146 505.25 0 325.5 0C145.75 0 0 146 0 325.75C0 505.5 145.75 651.25 325.5 651.25ZM325.5 604.75C171.25 604.75 46.5 480 46.5 325.75C46.5 171.5 171.25 46.75 325.5 46.75C479.75 46.75 604.5 171.5 604.5 325.75C604.5 480 479.75 604.75 325.5 604.75Z" fill="black" fill-opacity="0.85"/>
  <path d="M233 464.5C243.5 464.5 249.75 457.75 249.75 447.25L249.75 348.25C249.75 289.75 270.75 243.25 325.75 243.25C381.75 243.25 402 290.5 402 348.25L402 447.25C402 457.75 408.25 464.5 418.75 464.5C429 464.5 435.25 457.75 435.25 447.25L435.25 346.25C435.25 269.5 399.75 213 325.75 213C251.25 213 216.5 270.5 216.5 346.25L216.5 447.25C216.5 457.75 222.75 464.5 233 464.5ZM325.25 464.5C332.5 464.5 337 459.75 337 452.25L337 176.5C337 169.25 332.5 164.5 325.25 164.5C317.75 164.5 313 169.25 313 176.5L313 452.25C313 459.75 317.75 464.5 325.25 464.5Z" fill="black" fill-opacity="0.85"/>
 </g>
</svg>
