<?xml version="1.0" encoding="UTF-8"?>
<!--Generator: Apple Native CoreSVG 326-->
<!DOCTYPE svg
PUBLIC "-//W3C//DTD SVG 1.1//EN"
       "http://www.w3.org/Graphics/SVG/1.1/DTD/svg11.dtd">
<svg version="1.1" xmlns="http://www.w3.org/2000/svg" xmlns:xlink="http://www.w3.org/1999/xlink" viewBox="0 0 464.5 741.75">
 <g>
  <rect height="741.75" opacity="0" width="464.5" x="0" y="0"/>
  <path d="M25.5 576.75C41.25 576.75 51 565.75 51 551L51 317C51 260.75 78 206 133.75 206C184.75 206 206.75 246 206.75 295L206.75 551C206.75 564 214.25 576.75 231.75 576.75C248.75 576.75 257.5 565 257.5 551L257.5 309C257.5 253.75 284.75 206 339.5 206C393.5 206 413.25 246.5 413.25 299.25L413.25 551C413.25 563.5 420.25 576.75 438.75 576.75C454.75 576.75 464.5 565.75 464.5 551L464.5 287.5C464.5 215 426.5 160.75 352.5 160.75C297.25 160.75 258.25 193.25 246.25 242.25L243.75 242.25C233.5 193 202 160.75 146 160.75C92.25 160.75 60.75 196.75 50 241.75L48.25 241.75L48.25 188C48.25 173 38.75 162.5 24 162.5C9.25 162.5 0 173 0 188L0 551C0 565 8.75 576.75 25.5 576.75ZM55.25 740.75C66 740.75 70 735.25 74 725.75L359 28C360.5 24.25 361.5 20 361.5 16.5C361.5 6.25 353.75 0 343.75 0C334.25 0 329.25 6.25 326 13.75L40.25 713.5C38.5 717.75 37.75 721.5 37.75 724.25C37.75 734.75 45.5 740.75 55.25 740.75Z" fill="black" fill-opacity="0.85"/>
 </g>
</svg>
