<?xml version="1.0" encoding="UTF-8"?>
<!--Generator: Apple Native CoreSVG 326-->
<!DOCTYPE svg
PUBLIC "-//W3C//DTD SVG 1.1//EN"
       "http://www.w3.org/Graphics/SVG/1.1/DTD/svg11.dtd">
<svg version="1.1" xmlns="http://www.w3.org/2000/svg" xmlns:xlink="http://www.w3.org/1999/xlink" viewBox="0 0 587.75 587.75">
 <g>
  <rect height="587.75" opacity="0" width="587.75" x="0" y="0"/>
  <path d="M97.25 587.75L490.25 587.75C555 587.75 587.75 555 587.75 491.5L587.75 96.5C587.75 32.75 555 0 490.25 0L97.25 0C32.75 0 0 32.5 0 96.5L0 491.5C0 555.5 32.75 587.75 97.25 587.75ZM98.25 543.5C63.25 543.5 44.25 525 44.25 489L44.25 98.75C44.25 63 63.25 44.25 98.25 44.25L489.5 44.25C523.75 44.25 543.5 63 543.5 98.75L543.5 489C543.5 525 523.75 543.5 489.5 543.5Z" fill="black" fill-opacity="0.85"/>
  <path d="M192.75 396.75C202.5 396.75 208 390 208 381.25L208 265.75C208 240 220 215 246.25 215C269.75 215 279.75 233 279.75 256.25L279.75 381.25C279.75 390.25 286 396.75 294.5 396.75C303.5 396.75 309.5 390.25 309.5 381.25L309.5 262.75C309.5 238 321.75 215 347.25 215C372 215 381.25 234 381.25 258.75L381.25 381.25C381.25 390.25 387.25 396.75 396.25 396.75C405.25 396.75 411.5 390.25 411.5 381.25L411.5 251C411.5 215.75 393.75 187.75 356 187.75C327.75 187.75 308.75 205.25 303.75 227.25L302.25 227.25C297 202 280.75 187.75 254.5 187.75C229.25 187.75 213.75 203.5 208 227L206.5 227L206.5 203.5C206.5 194.25 201 188.25 192.25 188.25C183.25 188.25 177.75 194.25 177.75 203.5L177.75 381.25C177.75 390 183 396.75 192.75 396.75ZM204.75 477C210 477 212.25 474.75 214.5 469.5L361.25 124.5C362 122.5 362.5 120.5 362.5 118.5C362.5 113 358.75 109.5 353 109.5C348.25 109.5 345.25 112.75 343.25 117.5L196.75 462.5C195.75 464.25 195.25 466 195.25 468.25C195.25 473.5 199.25 477 204.75 477Z" fill="black" fill-opacity="0.85"/>
 </g>
</svg>
