<?xml version="1.0" encoding="UTF-8"?>
<!--Generator: Apple Native CoreSVG 326-->
<!DOCTYPE svg
PUBLIC "-//W3C//DTD SVG 1.1//EN"
       "http://www.w3.org/Graphics/SVG/1.1/DTD/svg11.dtd">
<svg version="1.1" xmlns="http://www.w3.org/2000/svg" xmlns:xlink="http://www.w3.org/1999/xlink" viewBox="0 0 587.75 587.75">
 <g>
  <rect height="587.75" opacity="0" width="587.75" x="0" y="0"/>
  <path d="M587.75 96.5L587.75 491.5C587.75 555 555 587.75 490.25 587.75L97.25 587.75C32.75 587.75 0 555.5 0 491.5L0 96.5C0 32.5 32.75 0 97.25 0L490.25 0C555 0 587.75 32.75 587.75 96.5ZM372 161.25L372 370L369.75 370L220.5 153C213 142 206.25 138.25 196.25 138.25C181.5 138.25 173 147.75 173 163.5L173 421.75C173 435.75 181 444.5 194.5 444.5C207.75 444.5 216 436.25 216 421.75L216 215.25L218 215.25L367.5 430C375.25 441 381.25 444.5 391.25 444.5C405.75 444.5 414.75 435.5 414.75 420L414.75 161.25C414.75 146.75 406.75 138.25 393 138.25C379.75 138.25 372 147.25 372 161.25Z" fill="black" fill-opacity="0.85"/>
 </g>
</svg>
