<?xml version="1.0" encoding="UTF-8"?>
<!--Generator: Apple Native CoreSVG 326-->
<!DOCTYPE svg
PUBLIC "-//W3C//DTD SVG 1.1//EN"
       "http://www.w3.org/Graphics/SVG/1.1/DTD/svg11.dtd">
<svg version="1.1" xmlns="http://www.w3.org/2000/svg" xmlns:xlink="http://www.w3.org/1999/xlink" viewBox="0 0 482.25 589.75">
 <g>
  <rect height="589.75" opacity="0" width="482.25" x="0" y="0"/>
  <path d="M79.75 589C96.5 589 107 578 107 561L107 98.5L110.25 98.5L353 562C360.5 577.25 372.75 589 393 589C415.75 589 429.75 574.25 429.75 553L429.75 27.5C429.75 10.5 419.25 0 402.75 0C386 0 376 10.5 376 27.5L376 491L372.5 491L130.25 27.75C121.25 10 109.25 0 89.5 0C68.5 0 53.25 13.75 53.25 35.75L53.25 561C53.25 578 63.5 589 79.75 589ZM0 296C0 305.75 8.25 314.25 18.25 314.25L464.25 314.25C474 314.25 482.25 305.75 482.25 296C482.25 286 474 277.75 464.25 277.75L18.25 277.75C8.25 277.75 0 286 0 296Z" fill="black" fill-opacity="0.85"/>
 </g>
</svg>
