<?xml version="1.0" encoding="UTF-8"?>
<!--Generator: Apple Native CoreSVG 326-->
<!DOCTYPE svg
PUBLIC "-//W3C//DTD SVG 1.1//EN"
       "http://www.w3.org/Graphics/SVG/1.1/DTD/svg11.dtd">
<svg version="1.1" xmlns="http://www.w3.org/2000/svg" xmlns:xlink="http://www.w3.org/1999/xlink" viewBox="0 0 651.25 651.75">
 <g>
  <rect height="651.75" opacity="0" width="651.25" x="0" y="0"/>
  <path d="M325.5 651.25C505.25 651.25 651.25 505.5 651.25 325.75C651.25 146 505.25 0 325.5 0C145.75 0 0 146 0 325.75C0 505.5 145.75 651.25 325.5 651.25ZM325.5 604.75C171.25 604.75 46.5 480 46.5 325.75C46.5 171.5 171.25 46.75 325.5 46.75C479.75 46.75 604.5 171.5 604.5 325.75C604.5 480 479.75 604.75 325.5 604.75Z" fill="black" fill-opacity="0.85"/>
  <path d="M219.75 459.5C229 459.5 235.25 452.75 235.25 443L235.25 384L255 364.5L317.25 451.75C320.75 456.5 325.25 459.5 331.25 459.5C339.5 459.5 346 453.75 346 445.5C346 441.75 344.5 438 341.75 434.5L277.5 345L337.75 280.75C341.5 276.75 343.5 274.5 343.5 269.5C343.5 262.25 337.25 256 329.5 256C325 256 320.25 258.5 317.25 261.75L236.5 350.75L235.25 350.75L235.25 195.5C235.25 185.5 229 178.5 219.75 178.5C210.5 178.5 204 185.25 204 195.25L204 443C204 452.75 210.5 459.5 219.75 459.5ZM399.25 459.5C406.5 459.5 414.25 455 414.25 443L414.25 337.75C414.25 314 423.5 286 452 286C458.25 286 464 285.75 468.75 283.5C473 281.75 475.5 278 475.5 272.5C475.5 261.5 466.25 256 455.25 256C434 256 419.75 274 415 295.25L412.75 295.25L412.75 271.75C412.75 262.75 406.75 256 398.5 256C390.25 256 384 262.75 384 271.75L384 443C384 453 389.5 459.5 399.25 459.5Z" fill="black" fill-opacity="0.85"/>
 </g>
</svg>
