<?xml version="1.0" encoding="UTF-8"?>
<!--Generator: Apple Native CoreSVG 326-->
<!DOCTYPE svg
PUBLIC "-//W3C//DTD SVG 1.1//EN"
       "http://www.w3.org/Graphics/SVG/1.1/DTD/svg11.dtd">
<svg version="1.1" xmlns="http://www.w3.org/2000/svg" xmlns:xlink="http://www.w3.org/1999/xlink" viewBox="0 0 587.75 587.75">
 <g>
  <rect height="587.75" opacity="0" width="587.75" x="0" y="0"/>
  <path d="M97.25 587.75L490.25 587.75C555 587.75 587.75 555 587.75 491.5L587.75 96.5C587.75 32.75 555 0 490.25 0L97.25 0C32.75 0 0 32.5 0 96.5L0 491.5C0 555.5 32.75 587.75 97.25 587.75ZM98.25 543.5C63.25 543.5 44.25 525 44.25 489L44.25 98.75C44.25 63 63.25 44.25 98.25 44.25L489.5 44.25C523.75 44.25 543.5 63 543.5 98.75L543.5 489C543.5 525 523.75 543.5 489.5 543.5Z" fill="black" fill-opacity="0.85"/>
  <path d="M188.5 427.5C197.75 427.5 204 420.75 204 411L204 352L223.75 332.5L286 419.75C289.5 424.5 294 427.5 300 427.5C308.25 427.5 314.75 421.75 314.75 413.5C314.75 409.75 313.25 406 310.5 402.5L246.25 313L306.5 248.75C310.25 244.75 312 242.5 312 237.5C312 230.25 306 224 298 224C293.75 224 289 226.5 286 229.75L205.25 318.75L204 318.75L204 163.5C204 153.5 197.75 146.5 188.5 146.5C179.25 146.5 172.75 153.25 172.75 163.25L172.75 411C172.75 420.75 179.25 427.5 188.5 427.5ZM368 427.5C375.25 427.5 382.75 423 382.75 411L382.75 305.75C382.75 282 392.25 254 420.75 254C427 254 432.75 253.75 437.5 251.5C441.75 249.75 444.25 246 444.25 240.5C444.25 229.5 435 224 424 224C402.5 224 388.5 242 383.75 263.25L381.5 263.25L381.5 239.75C381.5 230.75 375.25 224 367.25 224C359 224 352.75 230.75 352.75 239.75L352.75 411C352.75 421 358.25 427.5 368 427.5Z" fill="black" fill-opacity="0.85"/>
 </g>
</svg>
