<?xml version="1.0" encoding="UTF-8"?>
<!--Generator: Apple Native CoreSVG 326-->
<!DOCTYPE svg
PUBLIC "-//W3C//DTD SVG 1.1//EN"
       "http://www.w3.org/Graphics/SVG/1.1/DTD/svg11.dtd">
<svg version="1.1" xmlns="http://www.w3.org/2000/svg" xmlns:xlink="http://www.w3.org/1999/xlink" viewBox="0 0 651.25 651.75">
 <g>
  <rect height="651.75" opacity="0" width="651.25" x="0" y="0"/>
  <path d="M651.25 325.75C651.25 505 505 651.25 325.5 651.25C146.25 651.25 0 505 0 325.75C0 146.25 146.25 0 325.5 0C505 0 651.25 146.25 651.25 325.75ZM185 323.5C185 416 242.25 479.75 325.5 479.75C408.75 479.75 466 416 466 323.5C466 230.75 408.75 167 325.5 167C242.25 167 185 230.75 185 323.5ZM420.5 323.5C420.5 395.5 382.75 443.5 325.5 443.5C268.5 443.5 230.5 395.5 230.5 323.5C230.5 251.25 268.5 203.5 325.5 203.5C382.75 203.5 420.5 251.25 420.5 323.5Z" fill="black" fill-opacity="0.85"/>
 </g>
</svg>
