<?xml version="1.0" encoding="UTF-8"?>
<!--Generator: Apple Native CoreSVG 326-->
<!DOCTYPE svg
PUBLIC "-//W3C//DTD SVG 1.1//EN"
       "http://www.w3.org/Graphics/SVG/1.1/DTD/svg11.dtd">
<svg version="1.1" xmlns="http://www.w3.org/2000/svg" xmlns:xlink="http://www.w3.org/1999/xlink" viewBox="0 0 651.25 651.75">
 <g>
  <rect height="651.75" opacity="0" width="651.25" x="0" y="0"/>
  <path d="M325.5 651.25C505.25 651.25 651.25 505.5 651.25 325.75C651.25 146 505.25 0 325.5 0C145.75 0 0 146 0 325.75C0 505.5 145.75 651.25 325.5 651.25ZM325.5 604.75C171.25 604.75 46.5 480 46.5 325.75C46.5 171.5 171.25 46.75 325.5 46.75C479.75 46.75 604.5 171.5 604.5 325.75C604.5 480 479.75 604.75 325.5 604.75Z" fill="black" fill-opacity="0.85"/>
  <path d="M256 472.75C270.25 472.75 278.25 463.25 278.25 448.25L278.25 370L345.5 370C405.75 370 446.5 331.25 446.5 274C446.5 217 405.25 177.5 345.75 177.5L255.5 177.5C241.5 177.5 234 187.5 234 202.25L234 448.25C234 462.75 241.75 472.75 256 472.75ZM278.25 335.5L278.25 212L340 212C378 212 402.75 236.25 402.75 274C402.75 311.25 378.25 335.5 340 335.5Z" fill="black" fill-opacity="0.85"/>
 </g>
</svg>
