<?xml version="1.0" encoding="UTF-8"?>
<!--Generator: Apple Native CoreSVG 326-->
<!DOCTYPE svg
PUBLIC "-//W3C//DTD SVG 1.1//EN"
       "http://www.w3.org/Graphics/SVG/1.1/DTD/svg11.dtd">
<svg version="1.1" xmlns="http://www.w3.org/2000/svg" xmlns:xlink="http://www.w3.org/1999/xlink" viewBox="0 0 587.75 587.75">
 <g>
  <rect height="587.75" opacity="0" width="587.75" x="0" y="0"/>
  <path d="M587.75 96.5L587.75 491.5C587.75 555 555 587.75 490.25 587.75L97.25 587.75C32.75 587.75 0 555.5 0 491.5L0 96.5C0 32.5 32.75 0 97.25 0L490.25 0C555 0 587.75 32.75 587.75 96.5ZM222.75 141.75C208.25 141.75 200.5 152.25 200.5 167.5L200.5 419C200.5 434 208.5 444.5 223 444.5C238 444.5 246.25 434.5 246.25 419L246.25 339.25L314.75 339.25C376.75 339.25 418.5 299.5 418.5 240.5C418.5 182 376.25 141.75 315 141.75ZM373.25 240.5C373.25 279 348.25 303.75 309.25 303.75L246.25 303.75L246.25 177.25L309.25 177.25C348 177.25 373.25 202.25 373.25 240.5Z" fill="black" fill-opacity="0.85"/>
 </g>
</svg>
