<?xml version="1.0" encoding="UTF-8"?>
<!--Generator: Apple Native CoreSVG 326-->
<!DOCTYPE svg
PUBLIC "-//W3C//DTD SVG 1.1//EN"
       "http://www.w3.org/Graphics/SVG/1.1/DTD/svg11.dtd">
<svg version="1.1" xmlns="http://www.w3.org/2000/svg" xmlns:xlink="http://www.w3.org/1999/xlink" viewBox="0 0 587.75 587.75">
 <g>
  <rect height="587.75" opacity="0" width="587.75" x="0" y="0"/>
  <path d="M97.25 587.75L490.25 587.75C555 587.75 587.75 555 587.75 491.5L587.75 96.5C587.75 32.75 555 0 490.25 0L97.25 0C32.75 0 0 32.5 0 96.5L0 491.5C0 555.5 32.75 587.75 97.25 587.75ZM98.25 543.5C63.25 543.5 44.25 525 44.25 489L44.25 98.75C44.25 63 63.25 44.25 98.25 44.25L489.5 44.25C523.75 44.25 543.5 63 543.5 98.75L543.5 489C543.5 525 523.75 543.5 489.5 543.5Z" fill="black" fill-opacity="0.85"/>
  <path d="M224.5 440.75C239 440.75 247 431.25 247 416.25L247 338L314.25 338C374.5 338 415.25 299.25 415.25 242C415.25 185 374 145.5 314.5 145.5L224.25 145.5C210.25 145.5 202.75 155.5 202.75 170.25L202.75 416.25C202.75 430.75 210.5 440.75 224.5 440.75ZM247 303.5L247 180L308.75 180C346.75 180 371.5 204.25 371.5 242C371.5 279.25 347 303.5 308.75 303.5Z" fill="black" fill-opacity="0.85"/>
 </g>
</svg>
