<?xml version="1.0" encoding="UTF-8"?>
<!--Generator: Apple Native CoreSVG 326-->
<!DOCTYPE svg
PUBLIC "-//W3C//DTD SVG 1.1//EN"
       "http://www.w3.org/Graphics/SVG/1.1/DTD/svg11.dtd">
<svg version="1.1" xmlns="http://www.w3.org/2000/svg" xmlns:xlink="http://www.w3.org/1999/xlink" viewBox="0 0 587.75 587.75">
 <g>
  <rect height="587.75" opacity="0" width="587.75" x="0" y="0"/>
  <path d="M97.25 587.75L490.25 587.75C555 587.75 587.75 555 587.75 491.5L587.75 96.5C587.75 32.75 555 0 490.25 0L97.25 0C32.75 0 0 32.5 0 96.5L0 491.5C0 555.5 32.75 587.75 97.25 587.75ZM98.25 543.5C63.25 543.5 44.25 525 44.25 489L44.25 98.75C44.25 63 63.25 44.25 98.25 44.25L489.5 44.25C523.75 44.25 543.5 63 543.5 98.75L543.5 489C543.5 525 523.75 543.5 489.5 543.5Z" fill="black" fill-opacity="0.85"/>
  <path d="M219.75 415.5C271.75 415.5 297 383 297 340.5C297 296.75 271 280 236.5 266.75L218.25 259.75C194 250.25 177.75 238.75 177.75 212.75C177.75 188.75 192.25 171.25 218 171.25C241.75 171.25 256.75 185.5 262.25 210.25C264.5 218.5 269.75 222 277.5 222C286 222 291.25 216 291.25 207.75C291.25 205 290.75 201.5 290.25 198.75C282.75 165.25 255.25 143.5 218.5 143.5C172.25 143.5 145.75 175.25 145.75 214.75C145.75 253.5 168.5 274.5 205 288L223.25 294.75C248 304 265 317.25 265 343.75C265 367.5 250 387.75 220.5 387.75C194.25 387.75 177.5 372.5 172.25 346.5C170.25 338.5 165.25 334.75 157.25 334.75C148.75 334.75 143 341 143 349.75C143 353.5 143.5 358.25 144.75 361.5C154.75 395.75 181.75 415.5 219.75 415.5ZM323 477C332 477 336.25 472 337.75 462.75L389.25 167C389.75 165 390.5 161.75 390.5 157.75C390.5 149.75 385 144 376.75 144C367.75 144 363.5 149 361.75 158.25L310.25 454C310 456 309.25 459.25 309.25 463.25C309.25 471.5 314.75 477 323 477ZM432.25 412.75C444.25 412.75 453.5 404 453.5 392.25C453.5 380.75 444.25 371.5 432.25 371.5C420.5 371.5 411.75 380.75 411.75 392.25C411.75 404 420.5 412.75 432.25 412.75Z" fill="black" fill-opacity="0.85"/>
 </g>
</svg>
