<?xml version="1.0" encoding="UTF-8"?>
<!--Generator: Apple Native CoreSVG 326-->
<!DOCTYPE svg
PUBLIC "-//W3C//DTD SVG 1.1//EN"
       "http://www.w3.org/Graphics/SVG/1.1/DTD/svg11.dtd">
<svg version="1.1" xmlns="http://www.w3.org/2000/svg" xmlns:xlink="http://www.w3.org/1999/xlink" viewBox="0 0 587.75 587.75">
 <g>
  <rect height="587.75" opacity="0" width="587.75" x="0" y="0"/>
  <path d="M587.75 96.5L587.75 491.5C587.75 555 555 587.75 490.25 587.75L97.25 587.75C32.75 587.75 0 555.5 0 491.5L0 96.5C0 32.5 32.75 0 97.25 0L490.25 0C555 0 587.75 32.75 587.75 96.5ZM229 146.75C218 146.75 211.75 153.5 211.75 164.5L211.75 208.5L189.75 208.5C183.75 208.5 179.25 213 179.25 218.5C179.25 224.25 183.75 228.5 189.75 228.5L211.75 228.5L211.75 260.25L189.75 260.25C183.75 260.25 179.25 264.75 179.25 270.25C179.25 276.25 183.75 280.25 189.75 280.25L211.75 280.25L211.75 425.75C211.75 436.5 218.5 443.5 229 443.5C239.5 443.5 246.5 436.5 246.5 425.75L246.5 341.75L307.25 341.75C352.5 341.75 385 317 397.75 280.25L419.75 280.25C425.75 280.25 430.25 275.75 430.25 270.25C430.25 264.75 425.75 260.25 419.75 260.25L402.5 260.25C403.25 255 403.75 249.75 403.75 243.75C403.75 238.75 403.25 233.5 402.5 228.5L419.75 228.5C425.75 228.5 430.25 223.75 430.25 218.5C430.25 213 425.75 208.5 419.75 208.5L398 208.5C385.75 172 354 146.75 308 146.75ZM299.75 312.75L246.5 312.75L246.5 280.25L360.5 280.25C349.75 301.25 328.5 312.75 299.75 312.75ZM368.75 243.75C368.75 249.75 368.25 255 367.25 260.25L246.5 260.25L246.5 228.5L367.25 228.5C368.25 233.25 368.75 238.5 368.75 243.75ZM361 208.5L246.5 208.5L246.5 175.5L299.75 175.5C328.5 175.5 350.25 187.25 361 208.5Z" fill="black" fill-opacity="0.85"/>
 </g>
</svg>
