<?xml version="1.0" encoding="UTF-8"?>
<!--Generator: Apple Native CoreSVG 326-->
<!DOCTYPE svg
PUBLIC "-//W3C//DTD SVG 1.1//EN"
       "http://www.w3.org/Graphics/SVG/1.1/DTD/svg11.dtd">
<svg version="1.1" xmlns="http://www.w3.org/2000/svg" xmlns:xlink="http://www.w3.org/1999/xlink" viewBox="0 0 651.25 651.75">
 <g>
  <rect height="651.75" opacity="0" width="651.25" x="0" y="0"/>
  <path d="M651.25 325.75C651.25 505 505 651.25 325.5 651.25C146.25 651.25 0 505 0 325.75C0 146.25 146.25 0 325.5 0C505 0 651.25 146.25 651.25 325.75ZM260.5 178.75C249.75 178.75 243.25 185.5 243.25 196.5L243.25 240.5L221.25 240.5C215.25 240.5 210.75 245 210.75 250.5C210.75 256.25 215.25 260.5 221.25 260.5L243.25 260.5L243.25 292.25L221.25 292.25C215.25 292.25 210.75 296.75 210.75 302.25C210.75 308.25 215.25 312.25 221.25 312.25L243.25 312.25L243.25 457.75C243.25 468.5 250 475.5 260.5 475.5C271 475.5 278 468.5 278 457.75L278 373.75L339 373.75C384 373.75 416.5 349 429.25 312.25L451.5 312.25C457.25 312.25 462 307.75 462 302.25C462 296.75 457.25 292.25 451.5 292.25L434 292.25C434.75 287 435.25 281.75 435.25 275.75C435.25 270.75 434.75 265.5 434 260.5L451.5 260.5C457.25 260.5 462 255.75 462 250.5C462 245 457.25 240.5 451.5 240.5L429.75 240.5C417.25 204 385.5 178.75 339.5 178.75ZM331.25 344.75L278 344.75L278 312.25L392 312.25C381.25 333.25 360 344.75 331.25 344.75ZM400.25 275.75C400.25 281.75 399.75 287 398.75 292.25L278 292.25L278 260.5L399 260.5C399.75 265.25 400.25 270.5 400.25 275.75ZM392.5 240.5L278 240.5L278 207.5L331.25 207.5C360 207.5 381.75 219.25 392.5 240.5Z" fill="black" fill-opacity="0.85"/>
 </g>
</svg>
