<?xml version="1.0" encoding="UTF-8"?>
<!--Generator: Apple Native CoreSVG 326-->
<!DOCTYPE svg
PUBLIC "-//W3C//DTD SVG 1.1//EN"
       "http://www.w3.org/Graphics/SVG/1.1/DTD/svg11.dtd">
<svg version="1.1" xmlns="http://www.w3.org/2000/svg" xmlns:xlink="http://www.w3.org/1999/xlink" viewBox="0 0 651.25 651.75">
 <g>
  <rect height="651.75" opacity="0" width="651.25" x="0" y="0"/>
  <path d="M651.25 325.75C651.25 505 505 651.25 325.5 651.25C146.25 651.25 0 505 0 325.75C0 146.25 146.25 0 325.5 0C505 0 651.25 146.25 651.25 325.75ZM385.5 195L385.5 308.5L358.5 323C352.75 326.5 350 331.25 350 336C350 345 359.25 353 370.75 346.75L385.5 338.75L385.5 448.25C385.5 459.25 391.75 465.75 402.25 465.75C412.25 465.75 418.5 459.25 418.5 448.25L418.5 321L447.75 305.25C453.75 302 456.25 297.25 456.25 292.75C456.25 283.75 446.75 275.5 436.25 281L418.5 290.75L418.5 195.25C418.5 184 412.25 177.5 402.25 177.5C391.75 177.5 385.5 184 385.5 195ZM215 260.5C207.5 260.5 201.5 266.25 201.5 273.5C201.5 281.25 207.5 286.75 215 286.75L296.5 286.75L296.5 290.25L206.75 433.25C203.75 438 201.5 442.5 201.5 447C201.5 456 207.75 462.25 216.75 462.25L323.25 462.25C331 462.25 337 456.5 337 448.75C337 441.75 331 436 323.25 436L243.25 436L243.25 432.75L329.75 292.5C333.25 286.75 335.5 282.5 335.5 276.5C335.5 268.5 331.25 260.5 319 260.5Z" fill="black" fill-opacity="0.85"/>
 </g>
</svg>
