<?xml version="1.0" encoding="UTF-8"?>
<!--Generator: Apple Native CoreSVG 326-->
<!DOCTYPE svg
PUBLIC "-//W3C//DTD SVG 1.1//EN"
       "http://www.w3.org/Graphics/SVG/1.1/DTD/svg11.dtd">
<svg version="1.1" xmlns="http://www.w3.org/2000/svg" xmlns:xlink="http://www.w3.org/1999/xlink" viewBox="0 0 651.25 651.75">
 <g>
  <rect height="651.75" opacity="0" width="651.25" x="0" y="0"/>
  <path d="M651.25 325.75C651.25 505 505 651.25 325.5 651.25C146.25 651.25 0 505 0 325.75C0 146.25 146.25 0 325.5 0C505 0 651.25 146.25 651.25 325.75ZM184.75 323C184.75 415.5 242 479.75 325.5 479.75C345 479.75 363.25 476.25 379.25 469.75L403.5 502.75C409.25 510.25 414.5 513.25 421.5 513.25C431.75 513.25 438.75 506 438.75 496C438.75 491 437.25 487.25 431.75 480.25L410.5 451.25C445.25 424.25 466.25 379 466.25 323C466.25 230.75 409 166.75 325.5 166.75C242 166.75 184.75 230.75 184.75 323ZM420.5 323C420.5 364.5 408.25 397.75 386 418.25L364 388.5C359.5 382.5 355 380.25 348.25 380.25C338.75 380.25 331 387.25 331 396.75C331 401.5 332.5 406 336.75 411.25L356 438.25C347 441.5 337 443.25 325.5 443.25C268.25 443.25 230.5 395.75 230.5 323C230.5 251 268.25 203.5 325.5 203.5C382.75 203.5 420.5 251 420.5 323Z" fill="black" fill-opacity="0.85"/>
 </g>
</svg>
