<?xml version="1.0" encoding="UTF-8"?>
<!--Generator: Apple Native CoreSVG 326-->
<!DOCTYPE svg
PUBLIC "-//W3C//DTD SVG 1.1//EN"
       "http://www.w3.org/Graphics/SVG/1.1/DTD/svg11.dtd">
<svg version="1.1" xmlns="http://www.w3.org/2000/svg" xmlns:xlink="http://www.w3.org/1999/xlink" viewBox="0 0 651.25 651.75">
 <g>
  <rect height="651.75" opacity="0" width="651.25" x="0" y="0"/>
  <path d="M325.5 651.25C505.25 651.25 651.25 505.5 651.25 325.75C651.25 146 505.25 0 325.5 0C145.75 0 0 146 0 325.75C0 505.5 145.75 651.25 325.5 651.25ZM325.5 604.75C171.25 604.75 46.5 480 46.5 325.75C46.5 171.5 171.25 46.75 325.5 46.75C479.75 46.75 604.5 171.5 604.5 325.75C604.5 480 479.75 604.75 325.5 604.75Z" fill="black" fill-opacity="0.85"/>
  <path d="M325.25 476C344.25 476 362 472.75 377.75 466.25L401.5 498.75C407 506 412.25 508.5 419 508.5C428.75 508.5 435.75 501.75 435.75 492C435.75 487 434.25 483.5 428.75 476.5L408 448.25C442 422 462.5 377.75 462.5 323.25C462.5 233.5 406.75 170.75 325.25 170.75C243.75 170.75 188 233.5 188 323.25C188 413.5 243.75 476 325.25 476ZM325.25 440.5C269.25 440.5 232.25 394.25 232.25 323.25C232.25 252.75 269.25 206.25 325.25 206.25C381.25 206.25 418.25 252.75 418.25 323.25C418.25 363.75 406.25 396.5 384.25 416.5L362.75 387.25C358.25 381.25 354 379 347.5 379C338.25 379 330.75 386 330.75 395.25C330.75 399.75 332.25 404 336.25 409.25L355.25 435.75C346.5 439 336.5 440.5 325.25 440.5Z" fill="black" fill-opacity="0.85"/>
 </g>
</svg>
