<?xml version="1.0" encoding="UTF-8"?>
<!--Generator: Apple Native CoreSVG 326-->
<!DOCTYPE svg
PUBLIC "-//W3C//DTD SVG 1.1//EN"
       "http://www.w3.org/Graphics/SVG/1.1/DTD/svg11.dtd">
<svg version="1.1" xmlns="http://www.w3.org/2000/svg" xmlns:xlink="http://www.w3.org/1999/xlink" viewBox="0 0 651.25 651.75">
 <g>
  <rect height="651.75" opacity="0" width="651.25" x="0" y="0"/>
  <path d="M325.5 651.25C505.25 651.25 651.25 505.5 651.25 325.75C651.25 146 505.25 0 325.5 0C145.75 0 0 146 0 325.75C0 505.5 145.75 651.25 325.5 651.25ZM325.5 604.75C171.25 604.75 46.5 480 46.5 325.75C46.5 171.5 171.25 46.75 325.5 46.75C479.75 46.75 604.5 171.5 604.5 325.75C604.5 480 479.75 604.75 325.5 604.75Z" fill="black" fill-opacity="0.85"/>
  <path d="M319 391.75C333 391.75 341.25 383 341.25 371.75C341.25 370 341.25 368 341.25 366.25C341.25 347.5 351.5 336 374.75 320.25C406.75 299 426.75 280.25 426.75 243.75C426.75 193.5 381.75 164.75 328.25 164.75C274.25 164.75 239 191.75 231.25 222.25C229.75 227.25 229 232 229 237.25C229 249.75 238.5 256.75 248 256.75C257.75 256.75 264 252 268.75 244.75L273.25 238C282 217.25 301.25 202.5 326.5 202.5C358.5 202.5 378.75 220.25 378.75 246C378.75 268 366 279.5 336.75 299.75C312.75 316.5 297 333.5 297 363.75C297 365.75 297 367.75 297 369.75C297 384.25 305 391.75 319 391.75ZM318.5 485.5C335.5 485.5 350.25 471.75 350.25 454.75C350.25 437.5 335.75 424 318.5 424C301 424 286.75 437.75 286.75 454.75C286.75 471.5 301.25 485.5 318.5 485.5Z" fill="black" fill-opacity="0.85"/>
 </g>
</svg>
