<?xml version="1.0" encoding="UTF-8"?>
<!--Generator: Apple Native CoreSVG 326-->
<!DOCTYPE svg
PUBLIC "-//W3C//DTD SVG 1.1//EN"
       "http://www.w3.org/Graphics/SVG/1.1/DTD/svg11.dtd">
<svg version="1.1" xmlns="http://www.w3.org/2000/svg" xmlns:xlink="http://www.w3.org/1999/xlink" viewBox="0 0 587.75 587.75">
 <g>
  <rect height="587.75" opacity="0" width="587.75" x="0" y="0"/>
  <path d="M97.25 587.75L490.25 587.75C555 587.75 587.75 555 587.75 491.5L587.75 96.5C587.75 32.75 555 0 490.25 0L97.25 0C32.75 0 0 32.5 0 96.5L0 491.5C0 555.5 32.75 587.75 97.25 587.75ZM98.25 543.5C63.25 543.5 44.25 525 44.25 489L44.25 98.75C44.25 63 63.25 44.25 98.25 44.25L489.5 44.25C523.75 44.25 543.5 63 543.5 98.75L543.5 489C543.5 525 523.75 543.5 489.5 543.5Z" fill="black" fill-opacity="0.85"/>
  <path d="M212 440.75C226.25 440.75 234.25 431.5 234.25 416.5L234.25 329L298.75 329L357 426C363.5 436.75 369.25 440.75 379 440.75C391 440.75 399 433 399 422C399 415.75 397.5 411.25 393.75 405.5L342.25 323C380.75 311.5 405.75 278.25 405.75 237.75C405.75 181.75 365.5 145.5 303.25 145.5L211.5 145.5C197.5 145.5 190 155.5 190 170.25L190 416.5C190 431 197.75 440.75 212 440.75ZM234.25 296L234.25 180L298.5 180C336.25 180 361.75 201.75 361.75 238.75C361.75 274.75 336.75 296 297.5 296Z" fill="black" fill-opacity="0.85"/>
 </g>
</svg>
