<?xml version="1.0" encoding="UTF-8"?>
<!--Generator: Apple Native CoreSVG 326-->
<!DOCTYPE svg
PUBLIC "-//W3C//DTD SVG 1.1//EN"
       "http://www.w3.org/Graphics/SVG/1.1/DTD/svg11.dtd">
<svg version="1.1" xmlns="http://www.w3.org/2000/svg" xmlns:xlink="http://www.w3.org/1999/xlink" viewBox="0 0 723 592.75">
 <g>
  <rect height="592.75" opacity="0" width="723" x="0" y="0"/>
  <path d="M27.5 591.5C44.5 591.5 54.5 580.25 54.5 563.5L54.5 342.25L158.25 342.25C163.25 342.25 169 342 173 342L292.25 573.5C298.75 586.5 306.5 591.5 320 591.5C336 591.5 346.5 580.25 346.5 566.75C346.5 560.25 343.5 553.75 340.5 548L227 331C300 309.25 343.5 247.75 343.5 169.25C343.5 64.75 273.25 0 160.5 0L28.25 0C10.75 0 0 11.5 0 29L0 563.5C0 581 11 591.5 27.5 591.5ZM54.5 294.5L54.5 48.25L154.5 48.25C235.25 48.25 288.75 90.25 288.75 171C288.75 251.5 237.75 294.5 156.25 294.5ZM570.75 590.25C653.25 590.25 723 545.5 723 464.75C723 392.5 677 366.25 609 348.25L551.5 333C510.75 322.25 475 304.5 475 262C475 213.75 518.5 186 568 186C620.5 186 654 212.25 669 260.5C673.25 270.5 679.75 275.75 691 275.75C704.25 275.75 711.5 267.5 711.5 255.25C711.5 252.25 710.75 247.75 710.25 244.25C696.75 178.75 636.75 142.5 570 142.5C492.25 142.5 423 184.75 423 264.5C423 330.5 470.75 362.5 536.5 379.25L594.25 394C638.5 405 671 422.75 671 468.75C671 519.75 627.5 547.25 573.5 547.25C516.75 547.25 475.75 523.75 458.75 471C454 459.5 445.75 454 435.75 454C422.25 454 413 462 413 476C413 480 413.75 484.25 415.25 489C432.75 554.25 496.5 590.25 570.75 590.25Z" fill="black" fill-opacity="0.85"/>
 </g>
</svg>
