<?xml version="1.0" encoding="UTF-8"?>
<!--Generator: Apple Native CoreSVG 326-->
<!DOCTYPE svg
PUBLIC "-//W3C//DTD SVG 1.1//EN"
       "http://www.w3.org/Graphics/SVG/1.1/DTD/svg11.dtd">
<svg version="1.1" xmlns="http://www.w3.org/2000/svg" xmlns:xlink="http://www.w3.org/1999/xlink" viewBox="0 0 651.25 651.75">
 <g>
  <rect height="651.75" opacity="0" width="651.25" x="0" y="0"/>
  <path d="M325.5 651.25C505.25 651.25 651.25 505.5 651.25 325.75C651.25 146 505.25 0 325.5 0C145.75 0 0 146 0 325.75C0 505.5 145.75 651.25 325.5 651.25ZM325.5 604.75C171.25 604.75 46.5 480 46.5 325.75C46.5 171.5 171.25 46.75 325.5 46.75C479.75 46.75 604.5 171.5 604.5 325.75C604.5 480 479.75 604.75 325.5 604.75Z" fill="black" fill-opacity="0.85"/>
  <path d="M322.25 476C392.75 476 438.5 441.5 438.5 387.5C438.5 346.5 410 324 353 308.75L309.75 297C276.75 288 263 275.75 263 255C263 226.5 288.25 206.75 324.25 206.75C358.5 206.75 381.5 221.5 391.25 249.5C395.25 259.25 401 264.25 412 264.25C423.5 264.25 431.75 258 431.75 245C431.75 241 430.75 236.25 429 230.75C417.75 196 379.5 171 326 171C262 171 217.25 206.75 217.25 257C217.25 296.5 242.5 319 291.75 332.5L338 345.25C378.5 356.5 393 367.25 393 391.25C393 420.75 363 439.5 325.5 439.5C289.25 439.5 263 424 253.25 396.25C248.5 386 242.5 381 232.25 381C220 381 212.25 388.5 212.25 401C212.25 405.5 213.25 410.25 215.25 415.5C226 448 265.5 476 322.25 476Z" fill="black" fill-opacity="0.85"/>
 </g>
</svg>
