<?xml version="1.0" encoding="UTF-8"?>
<!--Generator: Apple Native CoreSVG 326-->
<!DOCTYPE svg
PUBLIC "-//W3C//DTD SVG 1.1//EN"
       "http://www.w3.org/Graphics/SVG/1.1/DTD/svg11.dtd">
<svg version="1.1" xmlns="http://www.w3.org/2000/svg" xmlns:xlink="http://www.w3.org/1999/xlink" viewBox="0 0 651.25 651.75">
 <g>
  <rect height="651.75" opacity="0" width="651.25" x="0" y="0"/>
  <path d="M651.25 325.75C651.25 505 505 651.25 325.5 651.25C146.25 651.25 0 505 0 325.75C0 146.25 146.25 0 325.5 0C505 0 651.25 146.25 651.25 325.75ZM214.75 255.5C214.75 296 240.5 319 290.75 332.75L338.5 346C379.75 357.5 394.5 368.5 394.5 393C394.5 423 364 442 325.75 442C288.75 442 262 426.25 252 398.25C247 387.5 240.75 382.25 230.25 382.25C217.5 382.25 209.5 390 209.5 403C209.5 407.5 210.25 412.5 212.75 418.25C223.75 451 264.25 479.75 322.5 479.75C394.75 479.75 442 444.5 442 389C442 347 412.25 323.75 354.25 308.25L309.75 296.25C276 287 262 274.5 262 253.25C262 224.25 287.75 204 324.5 204C359.5 204 382.75 219 393 247.75C397 257.75 403.25 263 414.25 263C426.25 263 434.75 256.5 434.75 243C434.75 239 433.75 234 431.75 228.5C420.25 192.75 381 167.25 326.25 167.25C260.5 167.25 214.75 203.75 214.75 255.5Z" fill="black" fill-opacity="0.85"/>
 </g>
</svg>
