<?xml version="1.0" encoding="UTF-8"?>
<!--Generator: Apple Native CoreSVG 326-->
<!DOCTYPE svg
PUBLIC "-//W3C//DTD SVG 1.1//EN"
       "http://www.w3.org/Graphics/SVG/1.1/DTD/svg11.dtd">
<svg version="1.1" xmlns="http://www.w3.org/2000/svg" xmlns:xlink="http://www.w3.org/1999/xlink" viewBox="0 0 651.25 651.75">
 <g>
  <rect height="651.75" opacity="0" width="651.25" x="0" y="0"/>
  <path d="M651.25 325.75C651.25 505 505 651.25 325.5 651.25C146.25 651.25 0 505 0 325.75C0 146.25 146.25 0 325.5 0C505 0 651.25 146.25 651.25 325.75ZM212 182.75C198.25 182.75 190 191.25 190 205L190 456.5C190 466 195.75 471.75 205 471.75C213.5 471.75 219.25 466 219.25 456.5L219.25 215L295 215C333.25 215 351.25 225.75 351.25 269L351.25 370.75C351.25 380.25 357 386.5 366 386.5C375 386.5 380.5 380.25 380.5 370.75L380.5 262.75C380.5 210.5 358.5 182.75 304.75 182.75ZM431.5 196L431.5 382.25C431.5 425.25 421.5 437 378.75 437L300 437L300 280.5C300 271 294.25 265.25 285.5 265.25C276.5 265.25 270.5 271 270.5 280.5L270.5 447.75C270.5 461.25 279.25 469 291.75 469L386.75 469C442.75 469 461.25 439.25 461.25 383.5L461.25 196C461.25 186 455.5 180 446.5 180C437.5 180 431.5 186 431.5 196Z" fill="black" fill-opacity="0.85"/>
 </g>
</svg>
