<?xml version="1.0" encoding="UTF-8"?>
<!--Generator: Apple Native CoreSVG 326-->
<!DOCTYPE svg
PUBLIC "-//W3C//DTD SVG 1.1//EN"
       "http://www.w3.org/Graphics/SVG/1.1/DTD/svg11.dtd">
<svg version="1.1" xmlns="http://www.w3.org/2000/svg" xmlns:xlink="http://www.w3.org/1999/xlink" viewBox="0 0 651.25 651.75">
 <g>
  <rect height="651.75" opacity="0" width="651.25" x="0" y="0"/>
  <path d="M651.25 325.75C651.25 505 505 651.25 325.5 651.25C146.25 651.25 0 505 0 325.75C0 146.25 146.25 0 325.5 0C505 0 651.25 146.25 651.25 325.75ZM410.5 167.5L410.5 193.75C374.25 196.5 345 218.75 345 258.5C345 295.25 366.75 313.25 400.5 329.75L410.5 334.5L410.5 425C387 422.25 375.75 406.5 372.5 382.25C371.25 375.5 365.75 369.75 357 369.75C348.25 369.75 341.75 375.5 341.75 384.75C341.75 387 342 390.25 342.5 393.75C350 432.5 377.75 449.75 410.5 452.25L410.5 479.25C410.5 484.25 414.25 488 419 488C423.75 488 427.75 484.25 427.75 479.25L427.75 452.5C468.5 449.5 496.75 425 496.75 385C496.75 346.25 472.25 329.25 439.75 314L427.75 308.25L427.75 221C449 224.25 458.25 240.5 461.75 261.75C463.5 269.5 468.25 274.25 477.25 274.25C486.5 274.25 492.25 268.75 492.25 259.5C492.25 256 492 253 491.25 250C483.75 212.5 458.75 196.25 427.75 193.75L427.75 167.5C427.75 162.75 423.75 159 419 159C414.25 159 410.5 162.75 410.5 167.5ZM159.75 256.5C159.75 296.5 183 318 220.25 331.75L239 338.75C264.5 348.25 281.75 361.5 281.75 388.5C281.75 412.75 266.5 433.75 236.25 433.75C209.5 433.75 192.5 417.75 187 391.25C185 383.25 179.75 379.25 171.5 379.25C162.75 379.25 156.75 386 156.75 395C156.75 398.75 157.5 403.5 158.75 407C169 442 196.5 462.25 235.75 462.25C289 462.25 315 429 315 385.5C315 340.5 288 323.5 252.75 309.5L234 302.5C209.25 293 192.75 281.25 192.75 254.5C192.75 230.25 207.5 212.25 233.75 212.25C258 212.25 273.25 226.75 279.25 252C281.25 260.5 286.75 264 294.75 264C303.5 264 308.75 258 308.75 249.25C308.75 246.75 308.5 243.25 307.75 240.25C300.25 206 272 183.5 234.25 183.5C186.75 183.5 159.75 216 159.75 256.5ZM464.75 388C464.75 409.75 451 423 427.75 425.25L427.75 343C448.5 353 464.75 364.25 464.75 388ZM410.5 300C391 289.75 376.5 277.25 376.5 256.75C376.5 235.25 390.75 223.25 410.5 220.75Z" fill="black" fill-opacity="0.85"/>
 </g>
</svg>
