<?xml version="1.0" encoding="UTF-8"?>
<!--Generator: Apple Native CoreSVG 326-->
<!DOCTYPE svg
PUBLIC "-//W3C//DTD SVG 1.1//EN"
       "http://www.w3.org/Graphics/SVG/1.1/DTD/svg11.dtd">
<svg version="1.1" xmlns="http://www.w3.org/2000/svg" xmlns:xlink="http://www.w3.org/1999/xlink" viewBox="0 0 651.25 651.75">
 <g>
  <rect height="651.75" opacity="0" width="651.25" x="0" y="0"/>
  <path d="M325.5 651.25C505.25 651.25 651.25 505.5 651.25 325.75C651.25 146 505.25 0 325.5 0C145.75 0 0 146 0 325.75C0 505.5 145.75 651.25 325.5 651.25ZM325.5 604.75C171.25 604.75 46.5 480 46.5 325.75C46.5 171.5 171.25 46.75 325.5 46.75C479.75 46.75 604.5 171.5 604.5 325.75C604.5 480 479.75 604.75 325.5 604.75Z" fill="black" fill-opacity="0.85"/>
  <path d="M222.75 465.75L414.25 465.75C422.75 465.75 429.5 460 429.5 451.5C429.5 443.5 422.75 437.25 414.25 437.25L262 437.25L262 435.75C288 427 300.75 396.5 300.75 368.5C300.75 356.5 299.5 346 297.25 337L381.5 337C388.75 337 394.25 331.75 394.25 325.25C394.25 318.5 388.5 313.5 381.5 313.5L290.75 313.5C286.25 295.75 284.25 284.75 284.25 271.5C284.25 234.75 311.5 212 354.5 212C369.25 212 379.75 213.75 389.25 216.5C394.5 218 399.5 219 403.25 219C411.25 219 415.75 214.5 415.75 206.75C415.75 199 410.5 194.5 402.75 191.5C386 185 372 183 351.25 183C290.75 183 250 216.25 250 272.25C250 285.75 252.25 298.5 256.75 313.5L221.75 313.5C214.5 313.5 209 318.75 209 325.25C209 331.75 214.5 337 221.75 337L263 337C266 348.5 268 359.25 268 370C268 401.25 251 424.75 221.25 434.5C213.5 437.25 208.25 442.75 208.25 451C208.25 459.5 214.25 465.75 222.75 465.75Z" fill="black" fill-opacity="0.85"/>
 </g>
</svg>
