<?xml version="1.0" encoding="UTF-8"?>
<!--Generator: Apple Native CoreSVG 326-->
<!DOCTYPE svg
PUBLIC "-//W3C//DTD SVG 1.1//EN"
       "http://www.w3.org/Graphics/SVG/1.1/DTD/svg11.dtd">
<svg version="1.1" xmlns="http://www.w3.org/2000/svg" xmlns:xlink="http://www.w3.org/1999/xlink" viewBox="0 0 443.25 570.25">
 <g>
  <rect height="570.25" opacity="0" width="443.25" x="0" y="0"/>
  <path d="M30.75 568.25L418.25 568.25C432.5 568.25 443.25 559.25 443.25 545.5C443.25 530.75 431.5 522 418.25 522L94.75 522L94.75 519.75C148.5 504 179.25 441 179.25 380.5C179.25 352 174.75 329.5 169.25 307.5L347.75 307.5C360.5 307.5 370 299.25 370 287C370 274.5 360.5 266.25 347.75 266.25L158 266.25C150 240 142.75 210 142.75 174.75C142.75 92.75 203.5 47.75 291.25 47.75C319.25 47.75 349.75 52 372.25 60.5C380.25 63 386.75 64.75 392.5 64.75C405.75 64.75 414 57 414 43.75C414 30.25 404.5 23.25 391.75 17.75C357.75 3.75 323 0 287 0C172.5 0 87.5 60.5 87.5 177.75C87.5 206.75 93.5 233 102.5 266.25L29 266.25C16.5 266.25 7 274.5 7 287C7 299.75 17 307.5 29 307.5L113.25 307.5C122.75 340 125.75 361.5 125.75 382.75C125.75 443.25 91 499.5 24 517C10.5 521.25 1.25 529.25 1.25 544.5C1.25 559 12.75 568.25 30.75 568.25Z" fill="black" fill-opacity="0.85"/>
 </g>
</svg>
