<?xml version="1.0" encoding="UTF-8"?>
<!--Generator: Apple Native CoreSVG 326-->
<!DOCTYPE svg
PUBLIC "-//W3C//DTD SVG 1.1//EN"
       "http://www.w3.org/Graphics/SVG/1.1/DTD/svg11.dtd">
<svg version="1.1" xmlns="http://www.w3.org/2000/svg" xmlns:xlink="http://www.w3.org/1999/xlink" viewBox="0 0 651.25 651.75">
 <g>
  <rect height="651.75" opacity="0" width="651.25" x="0" y="0"/>
  <path d="M325.5 651.25C505.25 651.25 651.25 505.5 651.25 325.75C651.25 146 505.25 0 325.5 0C145.75 0 0 146 0 325.75C0 505.5 145.75 651.25 325.5 651.25ZM325.5 604.75C171.25 604.75 46.5 480 46.5 325.75C46.5 171.5 171.25 46.75 325.5 46.75C479.75 46.75 604.5 171.5 604.5 325.75C604.5 480 479.75 604.75 325.5 604.75Z" fill="black" fill-opacity="0.85"/>
  <path d="M324.25 473.75C338.5 473.75 346.5 464.25 346.5 449.25L346.5 215.25L429.5 215.25C440.25 215.25 448.25 208 448.25 196.75C448.25 185.25 440.25 178.5 429.5 178.5L220.75 178.5C210 178.5 202 185.25 202 196.75C202 208 210 215.25 220.75 215.25L302.25 215.25L302.25 449.25C302.25 463.75 310 473.75 324.25 473.75Z" fill="black" fill-opacity="0.85"/>
 </g>
</svg>
