<?xml version="1.0" encoding="UTF-8"?>
<!--Generator: Apple Native CoreSVG 326-->
<!DOCTYPE svg
PUBLIC "-//W3C//DTD SVG 1.1//EN"
       "http://www.w3.org/Graphics/SVG/1.1/DTD/svg11.dtd">
<svg version="1.1" xmlns="http://www.w3.org/2000/svg" xmlns:xlink="http://www.w3.org/1999/xlink" viewBox="0 0 651.25 651.75">
 <g>
  <rect height="651.75" opacity="0" width="651.25" x="0" y="0"/>
  <path d="M651.25 325.75C651.25 505 505 651.25 325.5 651.25C146.25 651.25 0 505 0 325.75C0 146.25 146.25 0 325.5 0C505 0 651.25 146.25 651.25 325.75ZM218.5 174.75C207.25 174.75 199 181.75 199 193.75C199 205.25 207.25 212.75 218.5 212.75L301.75 212.75L301.75 452C301.75 467 309.75 477.5 324.5 477.5C339.25 477.5 347.5 467.5 347.5 452L347.5 212.75L432.25 212.75C443.5 212.75 451.75 205.25 451.75 193.75C451.75 181.75 443.5 174.75 432.25 174.75Z" fill="black" fill-opacity="0.85"/>
 </g>
</svg>
