<?xml version="1.0" encoding="UTF-8"?>
<!--Generator: Apple Native CoreSVG 326-->
<!DOCTYPE svg
PUBLIC "-//W3C//DTD SVG 1.1//EN"
       "http://www.w3.org/Graphics/SVG/1.1/DTD/svg11.dtd">
<svg version="1.1" xmlns="http://www.w3.org/2000/svg" xmlns:xlink="http://www.w3.org/1999/xlink" viewBox="0 0 587.75 587.75">
 <g>
  <rect height="587.75" opacity="0" width="587.75" x="0" y="0"/>
  <path d="M587.75 96.5L587.75 491.5C587.75 555 555 587.75 490.25 587.75L97.25 587.75C32.75 587.75 0 555.5 0 491.5L0 96.5C0 32.5 32.75 0 97.25 0L490.25 0C555 0 587.75 32.75 587.75 96.5ZM186.75 142.75C175.75 142.75 167.5 149.75 167.5 161.75C167.5 173.25 175.75 180.75 186.75 180.75L270.25 180.75L270.25 420C270.25 435 278.25 445.5 292.75 445.5C307.75 445.5 316 435.5 316 420L316 180.75L400.75 180.75C412 180.75 420.25 173.25 420.25 161.75C420.25 149.75 412 142.75 400.75 142.75Z" fill="black" fill-opacity="0.85"/>
 </g>
</svg>
