<?xml version="1.0" encoding="UTF-8"?>
<!--Generator: Apple Native CoreSVG 326-->
<!DOCTYPE svg
PUBLIC "-//W3C//DTD SVG 1.1//EN"
       "http://www.w3.org/Graphics/SVG/1.1/DTD/svg11.dtd">
<svg version="1.1" xmlns="http://www.w3.org/2000/svg" xmlns:xlink="http://www.w3.org/1999/xlink" viewBox="0 0 587.75 587.75">
 <g>
  <rect height="587.75" opacity="0" width="587.75" x="0" y="0"/>
  <path d="M587.75 96.5L587.75 491.5C587.75 555 555 587.75 490.25 587.75L97.25 587.75C32.75 587.75 0 555.5 0 491.5L0 96.5C0 32.5 32.75 0 97.25 0L490.25 0C555 0 587.75 32.75 587.75 96.5ZM196 206.25C188 206.25 182.25 212.25 182.25 219.75C182.25 227.25 188 233.25 196 233.25L277.25 233.25L277.25 428.5C277.25 438.75 284.75 446.25 294.5 446.25C304.25 446.25 311.5 438.75 311.5 428.5L311.5 233.25L392.25 233.25C400 233.25 406 227.25 406 219.75C406 212.25 400 206.25 392.25 206.25ZM191.5 147.5C186 147.5 181.25 152.25 181.25 157.75C181.25 163.5 186 167.75 191.5 167.75L395.75 167.75C401.25 167.75 406 163 406 157.75C406 152.25 401.25 147.5 395.75 147.5Z" fill="black" fill-opacity="0.85"/>
 </g>
</svg>
