<?xml version="1.0" encoding="UTF-8"?>
<!--Generator: Apple Native CoreSVG 326-->
<!DOCTYPE svg
PUBLIC "-//W3C//DTD SVG 1.1//EN"
       "http://www.w3.org/Graphics/SVG/1.1/DTD/svg11.dtd">
<svg version="1.1" xmlns="http://www.w3.org/2000/svg" xmlns:xlink="http://www.w3.org/1999/xlink" viewBox="0 0 447.25 579.75">
 <g>
  <rect height="579.75" opacity="0" width="447.25" x="0" y="0"/>
  <path d="M223.5 579.75C239.75 579.75 250.75 568.5 250.75 552.25L250.75 49.5L421.5 49.5C436.75 49.5 447.25 39.5 447.25 25.25C447.25 11.25 436.75 1 421.5 1L26.25 1C11 1 0 11.25 0 25.25C0 39.25 11 49.5 26.25 49.5L196.75 49.5L196.75 552.25C196.75 568.5 207.75 579.75 223.5 579.75ZM88.25 336.5C91.5 336.5 95 335.75 98.75 334L363.75 224C372.75 220.5 377.5 214.25 377.5 205.75C377.5 196.5 371 188.5 360 188.5C356.5 188.5 353 189 349 190.75L84 300.5C75 304.25 70.75 310.25 70.75 319C70.75 329 78 336.5 88.25 336.5ZM88.25 462.75C91.5 462.75 95 462 98.75 460.25L363.75 350.25C372.75 346.5 377.5 340.5 377.5 332C377.5 322.75 371 314.75 360 314.75C356.5 314.75 353 315.5 349 317L84 427C75 430.5 70.75 436.5 70.75 445.25C70.75 455.25 78 462.75 88.25 462.75Z" fill="black" fill-opacity="0.85"/>
 </g>
</svg>
