<?xml version="1.0" encoding="UTF-8"?>
<!--Generator: Apple Native CoreSVG 326-->
<!DOCTYPE svg
PUBLIC "-//W3C//DTD SVG 1.1//EN"
       "http://www.w3.org/Graphics/SVG/1.1/DTD/svg11.dtd">
<svg version="1.1" xmlns="http://www.w3.org/2000/svg" xmlns:xlink="http://www.w3.org/1999/xlink" viewBox="0 0 587.75 587.75">
 <g>
  <rect height="587.75" opacity="0" width="587.75" x="0" y="0"/>
  <path d="M97.25 587.75L490.25 587.75C555 587.75 587.75 555 587.75 491.5L587.75 96.5C587.75 32.75 555 0 490.25 0L97.25 0C32.75 0 0 32.5 0 96.5L0 491.5C0 555.5 32.75 587.75 97.25 587.75ZM98.25 543.5C63.25 543.5 44.25 525 44.25 489L44.25 98.75C44.25 63 63.25 44.25 98.25 44.25L489.5 44.25C523.75 44.25 543.5 63 543.5 98.75L543.5 489C543.5 525 523.75 543.5 489.5 543.5Z" fill="black" fill-opacity="0.85"/>
  <path d="M294 444C366.5 444 416.25 401.5 416.25 335.25L416.25 166.75C416.25 151.25 408 142.25 393.75 142.25C380.25 142.25 372 151.25 372 166.75L372 331.25C372 377.25 340.5 407 294 407C247.5 407 216 377.25 216 331.25L216 166.75C216 151.25 208 142.25 193.75 142.25C180.25 142.25 172 151.25 172 166.75L172 335.25C172 401.5 221.5 444 294 444Z" fill="black" fill-opacity="0.85"/>
 </g>
</svg>
