<?xml version="1.0" encoding="UTF-8"?>
<!--Generator: Apple Native CoreSVG 326-->
<!DOCTYPE svg
PUBLIC "-//W3C//DTD SVG 1.1//EN"
       "http://www.w3.org/Graphics/SVG/1.1/DTD/svg11.dtd">
<svg version="1.1" xmlns="http://www.w3.org/2000/svg" xmlns:xlink="http://www.w3.org/1999/xlink" viewBox="0 0 651.25 651.75">
 <g>
  <rect height="651.75" opacity="0" width="651.25" x="0" y="0"/>
  <path d="M651.25 325.75C651.25 505 505 651.25 325.5 651.25C146.25 651.25 0 505 0 325.75C0 146.25 146.25 0 325.5 0C505 0 651.25 146.25 651.25 325.75ZM409.5 190.25L326.5 424.5L324.5 424.5L241.5 190.25C236.5 176.25 229.75 170.5 217.25 170.5C203.75 170.5 194.25 179.5 194.25 192C194.25 196.25 194.75 199.75 196.5 204.5L291.5 452.5C298.75 471.5 308.25 479 325.75 479C342.5 479 353 470.5 359.75 452L454.5 204.5C456.25 199.75 456.75 196.25 456.75 192C456.75 179.25 447.25 170.5 433.75 170.5C421.25 170.5 414.5 176.5 409.5 190.25Z" fill="black" fill-opacity="0.85"/>
 </g>
</svg>
