<?xml version="1.0" encoding="UTF-8"?>
<!--Generator: Apple Native CoreSVG 326-->
<!DOCTYPE svg
PUBLIC "-//W3C//DTD SVG 1.1//EN"
       "http://www.w3.org/Graphics/SVG/1.1/DTD/svg11.dtd">
<svg version="1.1" xmlns="http://www.w3.org/2000/svg" xmlns:xlink="http://www.w3.org/1999/xlink" viewBox="0 0 651.25 651.75">
 <g>
  <rect height="651.75" opacity="0" width="651.25" x="0" y="0"/>
  <path d="M325.5 651.25C505.25 651.25 651.25 505.5 651.25 325.75C651.25 146 505.25 0 325.5 0C145.75 0 0 146 0 325.75C0 505.5 145.75 651.25 325.5 651.25ZM325.5 604.75C171.25 604.75 46.5 480 46.5 325.75C46.5 171.5 171.25 46.75 325.5 46.75C479.75 46.75 604.5 171.5 604.5 325.75C604.5 480 479.75 604.75 325.5 604.75Z" fill="black" fill-opacity="0.85"/>
  <path d="M325.5 475.25C341.75 475.25 352 466.75 358.5 449.25L451 207.25C452.75 202.5 453.25 199.25 453.25 195C453.25 182.75 444 174.5 431 174.5C419 174.5 412.25 180 407.5 193.25L326.25 422.5L324.25 422.5L243 193.25C238.5 179.75 231.5 174.5 219.5 174.5C206.5 174.5 197.25 183 197.25 195C197.25 199.25 197.75 202.5 199.5 207.25L292.25 449.5C299.25 468 308.5 475.25 325.5 475.25Z" fill="black" fill-opacity="0.85"/>
 </g>
</svg>
