<?xml version="1.0" encoding="UTF-8"?>
<!--Generator: Apple Native CoreSVG 326-->
<!DOCTYPE svg
PUBLIC "-//W3C//DTD SVG 1.1//EN"
       "http://www.w3.org/Graphics/SVG/1.1/DTD/svg11.dtd">
<svg version="1.1" xmlns="http://www.w3.org/2000/svg" xmlns:xlink="http://www.w3.org/1999/xlink" viewBox="0 0 587.75 587.75">
 <g>
  <rect height="587.75" opacity="0" width="587.75" x="0" y="0"/>
  <path d="M97.25 587.75L490.25 587.75C555 587.75 587.75 555 587.75 491.5L587.75 96.5C587.75 32.75 555 0 490.25 0L97.25 0C32.75 0 0 32.5 0 96.5L0 491.5C0 555.5 32.75 587.75 97.25 587.75ZM98.25 543.5C63.25 543.5 44.25 525 44.25 489L44.25 98.75C44.25 63 63.25 44.25 98.25 44.25L489.5 44.25C523.75 44.25 543.5 63 543.5 98.75L543.5 489C543.5 525 523.75 543.5 489.5 543.5Z" fill="black" fill-opacity="0.85"/>
  <path d="M294.25 443.25C310.5 443.25 320.75 434.75 327.25 417.25L419.75 175.25C421.5 170.5 422 167.25 422 163C422 150.75 412.75 142.5 399.75 142.5C387.75 142.5 380.75 148 376.25 161.25L295 390.5L293 390.5L211.75 161.25C207 147.75 200.25 142.5 188.25 142.5C175.25 142.5 166 151 166 163C166 167.25 166.5 170.5 168.25 175.25L261 417.5C268 436 277.25 443.25 294.25 443.25Z" fill="black" fill-opacity="0.85"/>
 </g>
</svg>
