<?xml version="1.0" encoding="UTF-8"?>
<!--Generator: Apple Native CoreSVG 326-->
<!DOCTYPE svg
PUBLIC "-//W3C//DTD SVG 1.1//EN"
       "http://www.w3.org/Graphics/SVG/1.1/DTD/svg11.dtd">
<svg version="1.1" xmlns="http://www.w3.org/2000/svg" xmlns:xlink="http://www.w3.org/1999/xlink" viewBox="0 0 651.25 651.75">
 <g>
  <rect height="651.75" opacity="0" width="651.25" x="0" y="0"/>
  <path d="M325.5 651.25C505.25 651.25 651.25 505.5 651.25 325.75C651.25 146 505.25 0 325.5 0C145.75 0 0 146 0 325.75C0 505.5 145.75 651.25 325.5 651.25ZM325.5 604.75C171.25 604.75 46.5 480 46.5 325.75C46.5 171.5 171.25 46.75 325.5 46.75C479.75 46.75 604.5 171.5 604.5 325.75C604.5 480 479.75 604.75 325.5 604.75Z" fill="black" fill-opacity="0.85"/>
  <path d="M239.75 475.25C255 475.25 265 467.75 268.5 453.25L323.75 240.25L326 240.25L381.25 453.25C384.75 467.75 394.75 475.25 410 475.25C425 475.25 434.5 467.5 438.5 452.75L503 203.5C503.75 200.25 504 197.75 504 195C504 182.75 495.75 174.5 482.75 174.5C470 174.5 464 180.5 460.5 196L408.75 412L406.75 412L349.5 193.75C346 181.25 338.25 175.25 325 175.25C311.75 175.25 303.5 181.25 300.25 193.75L243 412L241 412L189.75 196C186.25 180.5 180.25 174.5 167.25 174.5C154.25 174.5 146 182.75 146 195C146 197.75 146.25 200.25 147.25 203.5L211.5 452.75C215.25 467.5 224.75 475.25 239.75 475.25Z" fill="black" fill-opacity="0.85"/>
 </g>
</svg>
