<?xml version="1.0" encoding="UTF-8"?>
<!--Generator: Apple Native CoreSVG 326-->
<!DOCTYPE svg
PUBLIC "-//W3C//DTD SVG 1.1//EN"
       "http://www.w3.org/Graphics/SVG/1.1/DTD/svg11.dtd">
<svg version="1.1" xmlns="http://www.w3.org/2000/svg" xmlns:xlink="http://www.w3.org/1999/xlink" viewBox="0 0 587.75 587.75">
 <g>
  <rect height="587.75" opacity="0" width="587.75" x="0" y="0"/>
  <path d="M587.75 96.5L587.75 491.5C587.75 555 555 587.75 490.25 587.75L97.25 587.75C32.75 587.75 0 555.5 0 491.5L0 96.5C0 32.5 32.75 0 97.25 0L490.25 0C555 0 587.75 32.75 587.75 96.5ZM432.5 161L379.5 381.75L377.5 381.75L319 158.5C315.5 145.75 307.5 139.5 293.5 139.5C280 139.5 271.5 145.75 268.25 158.5L209.75 381.75L207.75 381.75L155 161C151.5 144.75 145.25 138.5 132 138.5C118.75 138.5 110.25 147.25 110.25 160C110.25 162.75 110.5 165.5 111.25 168.75L177 423.75C181 439 190.75 447 206.25 447C222 447 232.5 439.25 236 424.5L292.5 206.75L294.75 206.75L351.25 424.5C354.75 439.25 365.25 447 380.75 447C396.5 447 406.25 439 410.25 423.75L476.25 168.75C477 165.5 477.25 162.75 477.25 160C477.25 147.25 468.75 138.5 455.5 138.5C442.25 138.5 436 144.75 432.5 161Z" fill="black" fill-opacity="0.85"/>
 </g>
</svg>
