<?xml version="1.0" encoding="UTF-8"?>
<!--Generator: Apple Native CoreSVG 326-->
<!DOCTYPE svg
PUBLIC "-//W3C//DTD SVG 1.1//EN"
       "http://www.w3.org/Graphics/SVG/1.1/DTD/svg11.dtd">
<svg version="1.1" xmlns="http://www.w3.org/2000/svg" xmlns:xlink="http://www.w3.org/1999/xlink" viewBox="0 0 651.25 651.75">
 <g>
  <rect height="651.75" opacity="0" width="651.25" x="0" y="0"/>
  <path d="M325.5 651.25C505.25 651.25 651.25 505.5 651.25 325.75C651.25 146 505.25 0 325.5 0C145.75 0 0 146 0 325.75C0 505.5 145.75 651.25 325.5 651.25ZM325.5 604.75C171.25 604.75 46.5 480 46.5 325.75C46.5 171.5 171.25 46.75 325.5 46.75C479.75 46.75 604.5 171.5 604.5 325.75C604.5 480 479.75 604.75 325.5 604.75Z" fill="black" fill-opacity="0.85"/>
  <path d="M232.75 469.5L421.5 469.5C432.25 469.5 440 462.25 440 451C440 439.75 432.25 432.75 421.5 432.75L269 432.75L269 430.25L423.25 217C429 209 430.5 205 430.5 198.25C430.5 186 421.5 177.5 408.75 177.5L230 177.5C219.25 177.5 211.25 184.75 211.25 195.75C211.25 207.25 219.25 214.25 230 214.25L374.25 214.25L374.25 216.5L219.75 429.75C213.25 438.75 211.75 443 211.75 449.5C211.75 461.25 220.25 469.5 232.75 469.5Z" fill="black" fill-opacity="0.85"/>
 </g>
</svg>
