<?xml version="1.0" encoding="UTF-8"?>
<!--Generator: Apple Native CoreSVG 326-->
<!DOCTYPE svg
PUBLIC "-//W3C//DTD SVG 1.1//EN"
       "http://www.w3.org/Graphics/SVG/1.1/DTD/svg11.dtd">
<svg version="1.1" xmlns="http://www.w3.org/2000/svg" xmlns:xlink="http://www.w3.org/1999/xlink" viewBox="0 0 587.75 587.75">
 <g>
  <rect height="587.75" opacity="0" width="587.75" x="0" y="0"/>
  <path d="M97.25 587.75L490.25 587.75C555 587.75 587.75 555 587.75 491.5L587.75 96.5C587.75 32.75 555 0 490.25 0L97.25 0C32.75 0 0 32.5 0 96.5L0 491.5C0 555.5 32.75 587.75 97.25 587.75ZM98.25 543.5C63.25 543.5 44.25 525 44.25 489L44.25 98.75C44.25 63 63.25 44.25 98.25 44.25L489.5 44.25C523.75 44.25 543.5 63 543.5 98.75L543.5 489C543.5 525 523.75 543.5 489.5 543.5Z" fill="black" fill-opacity="0.85"/>
  <path d="M201.5 437.5L390.25 437.5C401 437.5 408.75 430.25 408.75 419C408.75 407.75 401 400.75 390.25 400.75L237.75 400.75L237.75 398.25L392 185C397.75 177 399 173 399 166.25C399 154 390.25 145.5 377.5 145.5L198.75 145.5C188 145.5 180 152.75 180 163.75C180 175.25 188 182.25 198.75 182.25L343 182.25L343 184.5L188.5 397.75C182 406.75 180.5 411 180.5 417.5C180.5 429.25 189 437.5 201.5 437.5Z" fill="black" fill-opacity="0.85"/>
 </g>
</svg>
