<?xml version="1.0" encoding="UTF-8"?>
<!--Generator: Apple Native CoreSVG 326-->
<!DOCTYPE svg
PUBLIC "-//W3C//DTD SVG 1.1//EN"
       "http://www.w3.org/Graphics/SVG/1.1/DTD/svg11.dtd">
<svg version="1.1" xmlns="http://www.w3.org/2000/svg" xmlns:xlink="http://www.w3.org/1999/xlink" viewBox="0 0 608.5 656.25">
 <g>
  <rect height="656.25" opacity="0" width="608.5" x="0" y="0"/>
  <path d="M352.25 509.75C352.25 592.5 276 655.75 176.25 655.75C76.25 655.75 0 592.5 0 509.75C0 446.856 44.3149 395.004 109.75 374.011L109.75 421.215C70.1199 438.353 44.5 470.948 44.5 509.75C44.5 567.5 101.25 611.5 176.25 611.5C251.25 611.5 307.75 567.5 307.75 509.75C307.75 470.552 281.721 437.689 241.5 420.668L241.5 373.683C307.438 394.425 352.25 446.505 352.25 509.75Z" fill="black" fill-opacity="0.85"/>
  <path d="M175.25 536C192.75 536 206.75 527.75 206.75 516L206.75 191L144.5 191L144.5 516C144.5 527.75 158 536 175.25 536ZM175.25 266.25C248.75 266.25 308 206.5 308 132.75C308 59.25 248.25 0 175.25 0C101.75 0 42 59.75 42 132.75C42 207 101.75 266.25 175.25 266.25Z" fill="black" fill-opacity="0.85"/>
  <path d="M518.25 281.75C530.25 281.75 539.75 272.25 539.75 260.25L539.75 165L587.5 165C608 165 614.25 144.75 602.5 129.25L534 39.75C525.75 29 510.5 28.75 502 39.75L433.5 129.25C421.25 145.25 428.75 165 448.5 165L496.75 165L496.75 260.25C496.75 272.25 506.25 281.75 518.25 281.75Z" fill="black" fill-opacity="0.85"/>
 </g>
</svg>
