<?xml version="1.0" encoding="UTF-8"?>
<!--Generator: Apple Native CoreSVG 326-->
<!DOCTYPE svg
PUBLIC "-//W3C//DTD SVG 1.1//EN"
       "http://www.w3.org/Graphics/SVG/1.1/DTD/svg11.dtd">
<svg version="1.1" xmlns="http://www.w3.org/2000/svg" xmlns:xlink="http://www.w3.org/1999/xlink" viewBox="0 0 591.502 656.25">
 <g>
  <rect height="656.25" opacity="0" width="591.502" x="0" y="0"/>
  <path d="M591.501 509.75C591.501 592.5 515.251 655.75 415.501 655.75C315.501 655.75 239.251 592.5 239.251 509.75C239.251 446.856 283.566 395.004 349.001 374.011L349.001 421.215C309.371 438.353 283.751 470.948 283.751 509.75C283.751 567.5 340.501 611.5 415.501 611.5C490.501 611.5 547.001 567.5 547.001 509.75C547.001 470.552 520.972 437.689 480.751 420.668L480.751 373.683C546.689 394.425 591.501 446.505 591.501 509.75Z" fill="black" fill-opacity="0.85"/>
  <path d="M414.501 536C432.001 536 446.001 527.75 446.001 516L446.001 191L383.751 191L383.751 516C383.751 527.75 397.251 536 414.501 536ZM414.501 266.25C488.001 266.25 547.251 206.5 547.251 132.75C547.251 59.25 487.501 0 414.501 0C341.001 0 281.251 59.75 281.251 132.75C281.251 207 341.001 266.25 414.501 266.25Z" fill="black" fill-opacity="0.85"/>
  <path d="M250.251 277.5C250.251 265.5 240.751 256 228.501 256L133.501 256L133.501 208.25C133.501 187.75 113.001 181.5 97.7511 193L8.25107 261.75C-2.49893 270-2.99893 285.25 8.25107 293.75L97.7511 362.25C113.501 374.5 133.501 367 133.501 347.25L133.501 299L228.501 299C240.751 299 250.251 289.5 250.251 277.5Z" fill="black" fill-opacity="0.85"/>
 </g>
</svg>
