<?xml version="1.0" encoding="UTF-8"?>
<!--Generator: Apple Native CoreSVG 326-->
<!DOCTYPE svg
PUBLIC "-//W3C//DTD SVG 1.1//EN"
       "http://www.w3.org/Graphics/SVG/1.1/DTD/svg11.dtd">
<svg version="1.1" xmlns="http://www.w3.org/2000/svg" xmlns:xlink="http://www.w3.org/1999/xlink" viewBox="0 0 829.438 656.25">
 <g>
  <rect height="656.25" opacity="0" width="829.438" x="0" y="0"/>
  <path d="M591.594 509.75C591.594 592.5 515.344 655.75 415.594 655.75C315.594 655.75 239.344 592.5 239.344 509.75C239.344 446.856 283.659 395.004 349.094 374.011L349.094 421.215C309.464 438.353 283.844 470.948 283.844 509.75C283.844 567.5 340.594 611.5 415.594 611.5C490.594 611.5 547.094 567.5 547.094 509.75C547.094 470.552 521.065 437.689 480.844 420.668L480.844 373.683C546.782 394.425 591.594 446.505 591.594 509.75Z" fill="black" fill-opacity="0.85"/>
  <path d="M414.594 536C432.094 536 446.094 527.75 446.094 516L446.094 191L383.844 191L383.844 516C383.844 527.75 397.344 536 414.594 536ZM414.594 266.25C488.094 266.25 547.344 206.5 547.344 132.75C547.344 59.25 487.594 0 414.594 0C341.094 0 281.344 59.75 281.344 132.75C281.344 207 341.094 266.25 414.594 266.25Z" fill="black" fill-opacity="0.85"/>
  <path d="M250.344 277.5C250.344 265.5 240.844 256 228.594 256L133.594 256L133.594 208.25C133.594 187.75 113.094 181.5 97.844 193L8.34401 261.75C-2.40599 270-2.90599 285.25 8.34401 293.75L97.844 362.25C113.594 374.5 133.594 367 133.594 347.25L133.594 299L228.594 299C240.844 299 250.344 289.5 250.344 277.5ZM579.094 277.5C579.094 289.5 588.594 299 600.844 299L696.094 299L696.094 347.25C696.094 367 715.844 374.5 731.594 362.25L821.094 293.75C832.344 285.25 832.094 270 821.094 261.75L731.594 193C716.344 181.5 696.094 187.75 696.094 208.25L696.094 256L600.844 256C588.594 256 579.094 265.5 579.094 277.5Z" fill="black" fill-opacity="0.85"/>
 </g>
</svg>
