<?xml version="1.0" encoding="UTF-8"?>
<!--Generator: Apple Native CoreSVG 326-->
<!DOCTYPE svg
PUBLIC "-//W3C//DTD SVG 1.1//EN"
       "http://www.w3.org/Graphics/SVG/1.1/DTD/svg11.dtd">
<svg version="1.1" xmlns="http://www.w3.org/2000/svg" xmlns:xlink="http://www.w3.org/1999/xlink" viewBox="0 0 1139.75 743.75">
 <g>
  <rect height="743.75" opacity="0" width="1139.75" x="0" y="0"/>
  <path d="M346.75 455.5L346.75 684.25C346.75 718 321.25 743.25 288 743.25L58.5 743.25C25 743.25 0 718 0 684.25L0 455.5C0 422 25 396.25 58.5 396.25L288 396.25C321.25 396.25 346.75 422 346.75 455.5ZM743 455.5L743 684.25C743 718 717.5 743.25 684.25 743.25L454.75 743.25C421.5 743.25 396.25 718 396.25 684.25L396.25 455.5C396.25 422 421.5 396.25 454.75 396.25L684.25 396.25C717.5 396.25 743 422 743 455.5ZM1139.75 455.5L1139.75 684.25C1139.75 718 1114.25 743.25 1081 743.25L851.5 743.25C818.25 743.25 792.75 718 792.75 684.25L792.75 455.5C792.75 422 818.25 396.25 851.5 396.25L1081 396.25C1114.25 396.25 1139.75 422 1139.75 455.5ZM213.5 479.5L86.75 554.75C75.5 561.25 75.75 578.5 87 585.25L213.5 660.25C225.5 667.5 240.5 659.75 240.5 647L240.5 492.5C240.5 480 225.75 472.25 213.5 479.5ZM899 492.5L899 647C899 659.75 913.75 667.5 926 660.25L1052.5 585.25C1063.75 578.5 1064 561.25 1052.75 554.75L926 479.5C913.75 472.25 899 480 899 492.5ZM492.75 489.25C480 489.25 472.25 504 479.5 516.25L554.25 642.75C560.75 654 577.75 654.25 584.5 643L660 516.25C667.25 504.25 659.5 489.25 647.25 489.25ZM743 59.25L743 288C743 321.5 717.5 347 684.25 347L454.75 347C421.5 347 396.25 321.5 396.25 288L396.25 59.25C396.25 25.75 421.5 0 454.75 0L684.25 0C717.5 0 743 25.75 743 59.25ZM554.25 100.75L479.5 227.25C472.25 239.25 480 254 492.5 254L647.25 254C659.5 254 667.25 239 660 227.25L584.5 100.5C577.75 89 560.75 89.25 554.25 100.75Z" fill="black" fill-opacity="0.85"/>
 </g>
</svg>
