<?xml version="1.0" encoding="UTF-8"?>
<!--Generator: Apple Native CoreSVG 326-->
<!DOCTYPE svg
PUBLIC "-//W3C//DTD SVG 1.1//EN"
       "http://www.w3.org/Graphics/SVG/1.1/DTD/svg11.dtd">
<svg version="1.1" xmlns="http://www.w3.org/2000/svg" xmlns:xlink="http://www.w3.org/1999/xlink" viewBox="0 0 1139.75 743.75">
 <g>
  <rect height="743.75" opacity="0" width="1139.75" x="0" y="0"/>
  <path d="M454.75 347L684.25 347C717.5 347 743 321.5 743 288L743 59.25C743 25.75 717.5 0 684.25 0L454.75 0C421.5 0 396.25 25.75 396.25 59.25L396.25 288C396.25 321.5 421.5 347 454.75 347ZM454.75 307.75C443.75 307.75 435.5 299.25 435.5 288L435.5 59.25C435.5 47.75 443.75 39.25 454.75 39.25L684.25 39.25C695.5 39.25 704 47.75 704 59.25L704 288C704 299.25 695.5 307.75 684.25 307.75ZM58.5 743.25L288 743.25C321.25 743.25 346.75 718 346.75 684.25L346.75 455.5C346.75 422 321.25 396.25 288 396.25L58.5 396.25C25 396.25 0 422 0 455.5L0 684.25C0 718 25 743.25 58.5 743.25ZM58.5 704C47.5 704 39.25 695.75 39.25 684.25L39.25 455.5C39.25 444 47.5 435.5 58.5 435.5L288 435.5C299.25 435.5 307.5 444 307.5 455.5L307.5 684.25C307.5 695.75 299.25 704 288 704ZM454.75 743.25L684.25 743.25C717.5 743.25 743 718 743 684.25L743 455.5C743 422 717.5 396.25 684.25 396.25L454.75 396.25C421.5 396.25 396.25 422 396.25 455.5L396.25 684.25C396.25 718 421.5 743.25 454.75 743.25ZM454.75 704C443.75 704 435.5 695.75 435.5 684.25L435.5 455.5C435.5 444 443.75 435.5 454.75 435.5L684.25 435.5C695.5 435.5 704 444 704 455.5L704 684.25C704 695.75 695.5 704 684.25 704ZM851.5 743.25L1081 743.25C1114.25 743.25 1139.75 718 1139.75 684.25L1139.75 455.5C1139.75 422 1114.25 396.25 1081 396.25L851.5 396.25C818.25 396.25 792.75 422 792.75 455.5L792.75 684.25C792.75 718 818.25 743.25 851.5 743.25ZM851.5 704C840.5 704 832 695.75 832 684.25L832 455.5C832 444 840.5 435.5 851.5 435.5L1081 435.5C1092.25 435.5 1100.5 444 1100.5 455.5L1100.5 684.25C1100.5 695.75 1092.25 704 1081 704Z" fill="black" fill-opacity="0.85"/>
  <path d="M494.25 252L645.5 252C657.5 252 664.75 237.5 658 226L584 102.25C577.25 91 561 91.25 554.75 102.5L481.5 226C474.5 237.75 482 252 494.25 252ZM242.5 645.25L242.5 494.25C242.5 482 228.5 474.5 216.25 481.5L92.75 555.25C81.5 562 81.75 578.25 93 584.75L216.25 658.25C228.25 665.25 242.5 657.75 242.5 645.25ZM554.75 641C561.25 652 577.25 652.25 584 641.25L658 517.5C665 505.75 657.5 491.25 645.5 491.25L494.5 491.25C482 491.25 474.5 505.5 481.5 517.5ZM897 645.25C897 657.75 911.25 665.25 923 658.25L1046.5 584.75C1057.75 578.25 1058 562 1046.75 555.25L923 481.5C911 474.5 897 482 897 494.25Z" fill="black" fill-opacity="0.85"/>
 </g>
</svg>
