<?xml version="1.0" encoding="UTF-8"?>
<!--Generator: Apple Native CoreSVG 326-->
<!DOCTYPE svg
PUBLIC "-//W3C//DTD SVG 1.1//EN"
       "http://www.w3.org/Graphics/SVG/1.1/DTD/svg11.dtd">
<svg version="1.1" xmlns="http://www.w3.org/2000/svg" xmlns:xlink="http://www.w3.org/1999/xlink" viewBox="0 0 1139.75 743.75">
 <g>
  <rect height="743.75" opacity="0" width="1139.75" x="0" y="0"/>
  <path d="M346.75 455.5L346.75 684.25C346.75 718 321.25 743.25 288 743.25L58.5 743.25C25 743.25 0 718 0 684.25L0 455.5C0 422 25 396.25 58.5 396.25L288 396.25C321.25 396.25 346.75 422 346.75 455.5ZM743 455.5L743 684.25C743 718 717.5 743.25 684.25 743.25L454.75 743.25C421.5 743.25 396.25 718 396.25 684.25L396.25 455.5C396.25 422 421.5 396.25 454.75 396.25L684.25 396.25C717.5 396.25 743 422 743 455.5ZM58.5 435.5C47.5 435.5 39.25 444 39.25 455.5L39.25 684.25C39.25 695.75 47.5 704 58.5 704L288 704C299.25 704 307.5 695.75 307.5 684.25L307.5 455.5C307.5 444 299.25 435.5 288 435.5ZM454.75 435.5C443.75 435.5 435.5 444 435.5 455.5L435.5 684.25C435.5 695.75 443.75 704 454.75 704L684.25 704C695.5 704 704 695.75 704 684.25L704 455.5C704 444 695.5 435.5 684.25 435.5ZM743 59.25L743 288C743 321.5 717.5 347 684.25 347L454.75 347C421.5 347 396.25 321.5 396.25 288L396.25 59.25C396.25 25.75 421.5 0 454.75 0L684.25 0C717.5 0 743 25.75 743 59.25ZM454.75 39.25C443.75 39.25 435.5 47.75 435.5 59.25L435.5 288C435.5 299.25 443.75 307.75 454.75 307.75L684.25 307.75C695.5 307.75 704 299.25 704 288L704 59.25C704 47.75 695.5 39.25 684.25 39.25Z" fill="black" fill-opacity="0.85"/>
  <path d="M1139.75 455.5L1139.75 684.25C1139.75 718 1114.25 743.25 1081 743.25L851.5 743.25C818.25 743.25 792.75 718 792.75 684.25L792.75 455.5C792.75 422 818.25 396.25 851.5 396.25L1081 396.25C1114.25 396.25 1139.75 422 1139.75 455.5ZM899 492.5L899 647C899 659.75 913.75 667.5 926 660.25L1052.5 585.25C1063.75 578.5 1064 561.75 1052.75 554.75L926 479.5C913.75 472.25 899 480 899 492.5Z" fill="black" fill-opacity="0.85"/>
 </g>
</svg>
