<?xml version="1.0" encoding="UTF-8"?>
<!--Generator: Apple Native CoreSVG 326-->
<!DOCTYPE svg
PUBLIC "-//W3C//DTD SVG 1.1//EN"
       "http://www.w3.org/Graphics/SVG/1.1/DTD/svg11.dtd">
<svg version="1.1" xmlns="http://www.w3.org/2000/svg" xmlns:xlink="http://www.w3.org/1999/xlink" viewBox="0 0 651.25 651.75">
 <g>
  <rect height="651.75" opacity="0" width="651.25" x="0" y="0"/>
  <path d="M651.25 325.75C651.25 505 505 651.25 325.5 651.25C146.25 651.25 0 505 0 325.75C0 146.25 146.25 0 325.5 0C505 0 651.25 146.25 651.25 325.75ZM244.75 173C229 173 219.5 182.5 219.5 198.5L219.5 448.25C219.5 464.25 229 473.75 244.75 473.75L341.25 473.75C408.25 473.75 451.25 441.25 451.25 389.5C451.25 349.5 424.5 321.25 381.5 315.75L381.5 314C413.25 306.25 433.25 280 433.25 247.25C433.25 202.5 396.75 173 341.5 173ZM405.5 388.25C405.5 422.75 379 439.25 323 439.25L264 439.25L264 335.25L339.25 335.25C380.75 335.25 405.5 354.75 405.5 388.25ZM389.25 254.5C389.25 284.5 363.75 302.75 320 302.75L264 302.75L264 207.5L332.5 207.5C368.25 207.5 389.25 225 389.25 254.5Z" fill="black" fill-opacity="0.85"/>
 </g>
</svg>
