<?xml version="1.0" encoding="UTF-8"?>
<!--Generator: Apple Native CoreSVG 326-->
<!DOCTYPE svg
PUBLIC "-//W3C//DTD SVG 1.1//EN"
       "http://www.w3.org/Graphics/SVG/1.1/DTD/svg11.dtd">
<svg version="1.1" xmlns="http://www.w3.org/2000/svg" xmlns:xlink="http://www.w3.org/1999/xlink" viewBox="0 0 566 689.75">
 <g>
  <rect height="689.75" opacity="0" width="566" x="0" y="0"/>
  <path d="M188.25 689.75L471.75 689.75C530.75 689.75 565.75 655 565.75 596.5L566 93.5C566 36.75 529 0 472.5 0L373.5 0C323.75 0 282.5 12.5 243.5 48.5L39.75 235.75C13.25 260.25 0 294.75 0 337.75L0 501.5C0 616 73.5 689.75 188.25 689.75ZM189.25 645.5C97.5 645.5 44.25 592.5 44.25 500.5L44.25 338.5C44.25 305.75 52.25 284.5 70.5 267.5L274 81C303.5 54.25 334.25 44.25 374.5 44.25L471.5 44.25C502.5 44.25 521.5 63.75 521.5 94.5L521.25 595.75C521.25 631.75 506 645.5 470.75 645.5Z" fill="black" fill-opacity="0.85"/>
 </g>
</svg>
