<?xml version="1.0" encoding="UTF-8"?>
<!--Generator: Apple Native CoreSVG 326-->
<!DOCTYPE svg
PUBLIC "-//W3C//DTD SVG 1.1//EN"
       "http://www.w3.org/Graphics/SVG/1.1/DTD/svg11.dtd">
<svg version="1.1" xmlns="http://www.w3.org/2000/svg" xmlns:xlink="http://www.w3.org/1999/xlink" viewBox="0 0 733 554.25">
 <g>
  <rect height="554.25" opacity="0" width="733" x="0" y="0"/>
  <path d="M262.25 0C79.5 0 0 84.75 0 255.75L0 459.75C0 522 32.25 553.75 95 553.75L638.25 553.75C700.75 553.75 733 521.75 733 459.75L733 255.75C733 84.75 653.75 0 470.75 0ZM262.75 44.5L470.5 44.5C624 44.5 688.75 112.25 688.75 253.5L688.75 457.5C688.75 492 670.25 509.5 637 509.5L96 509.5C62.25 509.5 44.25 492 44.25 457.5L44.25 253.5C44.25 112.25 109 44.5 262.75 44.5Z" fill="black" fill-opacity="0.85"/>
 </g>
</svg>
