<?xml version="1.0" encoding="UTF-8"?>
<!--Generator: Apple Native CoreSVG 326-->
<!DOCTYPE svg
PUBLIC "-//W3C//DTD SVG 1.1//EN"
       "http://www.w3.org/Graphics/SVG/1.1/DTD/svg11.dtd">
<svg version="1.1" xmlns="http://www.w3.org/2000/svg" xmlns:xlink="http://www.w3.org/1999/xlink" viewBox="0 0 651.25 651.75">
 <g>
  <rect height="651.75" opacity="0" width="651.25" x="0" y="0"/>
  <path d="M651.25 325.75C651.25 505 505 651.25 325.5 651.25C146.25 651.25 0 505 0 325.75C0 146.25 146.25 0 325.5 0C505 0 651.25 146.25 651.25 325.75ZM149 325.75C149 423.25 228 502.25 325.5 502.25C423.25 502.25 502 423.25 502 325.75C502 228 423.25 149.25 325.5 149.25C228 149.25 149 228 149 325.75ZM457.75 325.75C457.75 398.5 398.5 457.75 325.5 457.75C252.5 457.75 193.5 398.5 193.5 325.75C193.5 252.75 252.5 193.5 325.5 193.5C398.5 193.5 457.75 252.75 457.75 325.75Z" fill="black" fill-opacity="0.85"/>
 </g>
</svg>
