<?xml version="1.0" encoding="UTF-8"?>
<!--Generator: Apple Native CoreSVG 326-->
<!DOCTYPE svg
PUBLIC "-//W3C//DTD SVG 1.1//EN"
       "http://www.w3.org/Graphics/SVG/1.1/DTD/svg11.dtd">
<svg version="1.1" xmlns="http://www.w3.org/2000/svg" xmlns:xlink="http://www.w3.org/1999/xlink" viewBox="0 0 748 764.25">
 <g>
  <rect height="764.25" opacity="0" width="748" x="0" y="0"/>
  <path d="M374 763.5C450.75 763.5 514.25 700 514.25 623C514.25 546.25 450.75 482.75 374 482.75C296.25 482.75 233.25 546.25 233.25 623C233.25 700 296.25 763.5 374 763.5Z" fill="black" fill-opacity="0.85"/>
  <path d="M607.75 522.25C684.5 522.25 748 458.5 748 381.75C748 305 684.5 241.5 607.75 241.5C530 241.5 467 305 467 381.75C467 458.5 530 522.25 607.75 522.25Z" fill="black" fill-opacity="0.85"/>
  <path d="M140.75 522.25C217.5 522.25 280.75 458.5 280.75 381.75C280.75 305 217.5 241.5 140.75 241.5C63 241.5 0 305 0 381.75C0 458.5 63 522.25 140.75 522.25Z" fill="black" fill-opacity="0.85"/>
  <path d="M374 280.75C450.75 280.75 514.25 217.25 514.25 140.25C514.25 63.75 450.75 0 374 0C296.25 0 233.25 63.75 233.25 140.25C233.25 217.25 296.25 280.75 374 280.75Z" fill="black" fill-opacity="0.85"/>
 </g>
</svg>
