<?xml version="1.0" encoding="UTF-8"?>
<!--Generator: Apple Native CoreSVG 326-->
<!DOCTYPE svg
PUBLIC "-//W3C//DTD SVG 1.1//EN"
       "http://www.w3.org/Graphics/SVG/1.1/DTD/svg11.dtd">
<svg version="1.1" xmlns="http://www.w3.org/2000/svg" xmlns:xlink="http://www.w3.org/1999/xlink" viewBox="0 0 748 764.25">
 <g>
  <rect height="764.25" opacity="0" width="748" x="0" y="0"/>
  <path d="M374 763.5C450.75 763.5 514.25 700 514.25 623C514.25 546.25 450.75 482.75 374 482.75C296.25 482.75 233.25 546.25 233.25 623C233.25 700 296.25 763.5 374 763.5ZM374 720C319 720 276.5 677.75 276.5 623C276.5 569 319 525 374 525C428.25 525 471 569 471 623C471 677.75 428.25 720 374 720Z" fill="black" fill-opacity="0.85"/>
  <path d="M607.75 522.25C684.5 522.25 748 458.5 748 381.75C748 305 684.5 241.5 607.75 241.5C530 241.5 467 305 467 381.75C467 458.5 530 522.25 607.75 522.25ZM607.75 478.75C552.75 478.75 510.25 436.25 510.25 381.75C510.25 327.75 552.75 283.75 607.75 283.75C662 283.75 704.75 327.75 704.75 381.75C704.75 436.25 662 478.75 607.75 478.75Z" fill="black" fill-opacity="0.85"/>
  <path d="M140.75 522.25C217.5 522.25 280.75 458.5 280.75 381.75C280.75 305 217.5 241.5 140.75 241.5C63 241.5 0 305 0 381.75C0 458.5 63 522.25 140.75 522.25ZM140.75 478.75C85.75 478.75 43.25 436.25 43.25 381.75C43.25 327.75 85.75 283.75 140.75 283.75C195 283.75 237.75 327.75 237.75 381.75C237.75 436.25 195 478.75 140.75 478.75Z" fill="black" fill-opacity="0.85"/>
  <path d="M374 280.75C450.75 280.75 514.25 217.25 514.25 140.25C514.25 63.75 450.75 0 374 0C296.25 0 233.25 63.75 233.25 140.25C233.25 217.25 296.25 280.75 374 280.75ZM374 237.5C319 237.5 276.5 195 276.5 140.25C276.5 86.25 319 42.25 374 42.25C428.25 42.25 471 86.25 471 140.25C471 195 428.25 237.5 374 237.5Z" fill="black" fill-opacity="0.85"/>
 </g>
</svg>
