<?xml version="1.0" encoding="UTF-8"?>
<!--Generator: Apple Native CoreSVG 326-->
<!DOCTYPE svg
PUBLIC "-//W3C//DTD SVG 1.1//EN"
       "http://www.w3.org/Graphics/SVG/1.1/DTD/svg11.dtd">
<svg version="1.1" xmlns="http://www.w3.org/2000/svg" xmlns:xlink="http://www.w3.org/1999/xlink" viewBox="0 0 691.75 691.75">
 <g>
  <rect height="691.75" opacity="0" width="691.75" x="0" y="0"/>
  <path d="M147 469.5C178.5 469.5 190.75 465.25 211.5 444.75L274.25 382C296 360.25 296 331.25 274.25 309.5L211.5 246.75C190.75 226 178.5 222 147 222L62 222C23.5 222 0 243.5 0 278.5L0 413C0 448 23.5 469.5 62 469.5ZM222.25 147C222.25 178.5 226.5 190.75 247.25 211.5L310 274.25C331.5 296 360.5 296 382.25 274.25L445 211.5C465.75 190.75 470 178.5 470 147L470 62C470 23.5 448.5 0 413.5 0L278.75 0C243.75 0 222.25 23.5 222.25 62ZM544.75 222C513.25 222 500.75 226.25 480.25 246.75L417.5 309.5C395.75 331.25 395.75 360.25 417.5 382L480.25 444.75C500.75 465.5 513.25 469.5 544.75 469.5L629.75 469.5C668 469.5 691.75 448 691.75 413L691.75 278.5C691.75 243.5 668 222 629.75 222ZM469.5 544.5C469.5 513 465.5 500.5 444.75 480L382 417.25C360.25 395.5 331.25 395.5 309.5 417.25L246.75 480C226.25 500.5 222 513 222 544.5L222 629.5C222 667.75 243.5 691.25 278.5 691.25L413.25 691.25C448 691.25 469.5 667.75 469.5 629.5Z" fill="black" fill-opacity="0.85"/>
 </g>
</svg>
