<?xml version="1.0" encoding="UTF-8"?>
<!--Generator: Apple Native CoreSVG 326-->
<!DOCTYPE svg
PUBLIC "-//W3C//DTD SVG 1.1//EN"
       "http://www.w3.org/Graphics/SVG/1.1/DTD/svg11.dtd">
<svg version="1.1" xmlns="http://www.w3.org/2000/svg" xmlns:xlink="http://www.w3.org/1999/xlink" viewBox="0 0 691.75 691.75">
 <g>
  <rect height="691.75" opacity="0" width="691.75" x="0" y="0"/>
  <path d="M469.5 544.5C469.5 513 465.5 500.5 444.75 480L382 417.25C360.25 395.5 331.25 395.5 309.5 417.25L246.75 480C226.25 500.5 222 513 222 544.5L222 629.5C222 667.75 243.5 691.25 278.5 691.25L413.25 691.25C448 691.25 469.5 667.75 469.5 629.5ZM429.75 544.5L429.75 628.5C429.75 643.75 421.75 652 406.25 652L285.5 652C269.75 652 261.75 643.75 261.75 628.5L261.75 544.5C261.75 528.25 264 519 274.75 508.25L336.75 446.25C343 440 349 440.5 355 446.5L416.75 508.25C427.5 519 429.75 528.25 429.75 544.5Z" fill="black" fill-opacity="0.85"/>
  <path d="M544.75 222C513.25 222 500.75 226.25 480.25 246.75L417.5 309.5C395.75 331.25 395.75 360.25 417.5 382L480.25 444.75C500.75 465.5 513.25 469.5 544.75 469.5L629.75 469.5C668 469.5 691.75 448 691.75 413L691.75 278.5C691.75 243.5 668 222 629.75 222Z" fill="black" fill-opacity="0.85"/>
  <path d="M147 469.5C178.5 469.5 190.75 465.25 211.5 444.75L274.25 382C296 360.25 296 331.25 274.25 309.5L211.5 246.75C190.75 226 178.5 222 147 222L62 222C23.5 222 0 243.5 0 278.5L0 413C0 448 23.5 469.5 62 469.5ZM147 429.75L63 429.75C47.5 429.75 39.5 421.5 39.5 406L39.5 285.25C39.5 269.75 47.5 261.5 63 261.5L147 261.5C163.25 261.5 172.25 264 183 274.75L245 336.5C251.25 343 250.75 349 244.75 355L183 416.75C172.25 427.5 163.25 429.75 147 429.75Z" fill="black" fill-opacity="0.85"/>
  <path d="M222.25 147C222.25 178.5 226.5 190.75 247.25 211.5L310 274.25C331.5 296 360.5 296 382.25 274.25L445 211.5C465.75 190.75 470 178.5 470 147L470 62C470 23.5 448.5 0 413.5 0L278.75 0C243.75 0 222.25 23.5 222.25 62ZM262 147L262 63C262 47.5 270.25 39.5 285.75 39.5L406.5 39.5C422 39.5 430.25 47.5 430.25 63L430.25 147C430.25 163.25 428 172.25 417 183L355.25 245C348.75 251.25 343 250.75 337 244.75L275.25 183C264.25 172.25 262 163.25 262 147Z" fill="black" fill-opacity="0.85"/>
 </g>
</svg>
