<?xml version="1.0" encoding="UTF-8"?>
<!--Generator: Apple Native CoreSVG 326-->
<!DOCTYPE svg
PUBLIC "-//W3C//DTD SVG 1.1//EN"
       "http://www.w3.org/Graphics/SVG/1.1/DTD/svg11.dtd">
<svg version="1.1" xmlns="http://www.w3.org/2000/svg" xmlns:xlink="http://www.w3.org/1999/xlink" viewBox="0 0 651.25 651.75">
 <g>
  <rect height="651.75" opacity="0" width="651.25" x="0" y="0"/>
  <path d="M651.25 325.75C651.25 505 505 651.25 325.5 651.25C146.25 651.25 0 505 0 325.75C0 146.25 146.25 0 325.5 0C505 0 651.25 146.25 651.25 325.75ZM243.25 448.75C239.75 454.75 241.75 462.75 248 466.25C254.25 470 261.75 467.5 265.25 461L312.5 379.75L297.75 354.5ZM204.25 192.5C169.25 213 156.75 242.75 123.75 261.5C109.5 270 97 273 91 276.5C83 281 78.75 289.75 84 298.5L139 393.5C144.25 402.75 151.25 407.5 162.25 407.5C173.75 407.5 185.5 401.5 195.25 396C230.25 375.5 243.25 345.25 275.75 327C285.5 321 294.25 318 300.75 315.75L384.75 461C388.5 467.5 395.75 469.5 402.25 466C408.5 462.5 410.5 454.75 406.75 448.75L260 194.5C253.75 184 245.25 181.5 235 181.5C225.75 181.5 214.25 186.75 204.25 192.5ZM390 194.5L337.75 285L357.5 318.75C397.25 332.5 420.75 376.25 455 396C464.5 401.5 476.25 407.5 487.75 407.5C498.75 407.5 505.75 402.75 511.25 393.75L566.25 298.75C571.5 289.75 567 281.25 559.25 276.75C553 273 540.5 270 526.5 261.5C493.5 242.75 481 213.25 446 192.5C435.75 187 424.25 181.5 415 181.5C405 181.5 396.25 184 390 194.5Z" fill="black" fill-opacity="0.85"/>
 </g>
</svg>
