<?xml version="1.0" encoding="UTF-8"?>
<!--Generator: Apple Native CoreSVG 326-->
<!DOCTYPE svg
PUBLIC "-//W3C//DTD SVG 1.1//EN"
       "http://www.w3.org/Graphics/SVG/1.1/DTD/svg11.dtd">
<svg version="1.1" xmlns="http://www.w3.org/2000/svg" xmlns:xlink="http://www.w3.org/1999/xlink" viewBox="0 0 1065.47 536.75">
 <g>
  <rect height="536.75" opacity="0" width="1065.47" x="0" y="0"/>
  <path d="M143.986 536.75C228.736 536.75 288.736 480.75 288.736 398L288.736 315L246.736 320.25L246.736 398C246.736 456 203.736 495 143.986 495C75.4858 495 33.9858 452.25 43.2358 377.25L72.2358 148.5C79.2358 92.25 114.486 60.5 174.986 60.5L288.486 60.5L325.986 18.75L174.986 18.75C89.9858 18.75 40.4858 63 30.4858 144.25L1.73578 373.25C-11.0142 476.25 47.4858 536.75 143.986 536.75ZM325.986 401.75L739.486 401.75C787.986 401.75 818.736 370 818.736 320.25L818.736 100.25C818.736 50.25 787.986 18.75 739.486 18.75L325.986 18.75C277.486 18.75 246.736 50.25 246.736 100.25L246.736 320.25C246.736 370 277.486 401.75 325.986 401.75ZM331.736 360C303.486 360 288.736 344.75 288.736 315L288.736 105.25C288.736 75.75 303.486 60.5 331.736 60.5L733.736 60.5C761.986 60.5 776.736 75.75 776.736 105.25L776.736 315C776.736 344.75 761.986 360 733.736 360ZM818.736 320.25L776.736 315L776.736 398C776.736 480.75 836.486 536.75 921.236 536.75C1017.74 536.75 1076.49 476.25 1063.49 373.25L1034.99 144.25C1024.74 63 975.236 18.75 890.236 18.75L739.486 18.75L776.736 60.5L890.236 60.5C950.986 60.5 986.236 92.25 993.236 148.5L1021.99 377.25C1031.49 452.25 989.736 495 921.236 495C861.486 495 818.736 456 818.736 398ZM145.486 446.25C154.986 446.25 162.236 438.75 162.236 429L162.236 394L196.486 394C206.486 394 214.736 386.5 214.736 377C214.736 367.5 206.486 360 196.486 360L162.236 360L162.236 325.25C162.236 315.75 154.986 308 145.486 308C136.236 308 128.986 315.75 128.986 325.25L128.986 360L92.9858 360C83.2358 360 75.7358 367.5 75.7358 377C75.7358 386.5 83.2358 394 92.9858 394L128.986 394L128.986 429C128.986 438.75 136.236 446.25 145.486 446.25ZM956.236 379.5C975.986 379.5 991.486 364 991.486 344.75C991.486 325.25 975.986 310 956.236 310C936.736 310 921.486 325.25 921.486 344.75C921.486 364 936.736 379.5 956.236 379.5ZM890.986 444.25C910.236 444.25 925.986 429 925.986 409.75C925.986 390 910.236 374.75 890.986 374.75C871.486 374.75 855.986 390 855.986 409.75C855.986 429 871.486 444.25 890.986 444.25Z" fill="black" fill-opacity="0.85"/>
 </g>
</svg>
