<?xml version="1.0" encoding="UTF-8"?>
<!--Generator: Apple Native CoreSVG 326-->
<!DOCTYPE svg
PUBLIC "-//W3C//DTD SVG 1.1//EN"
       "http://www.w3.org/Graphics/SVG/1.1/DTD/svg11.dtd">
<svg version="1.1" xmlns="http://www.w3.org/2000/svg" xmlns:xlink="http://www.w3.org/1999/xlink" viewBox="0 0 1065.47 536.75">
 <g>
  <rect height="536.75" opacity="0" width="1065.47" x="0" y="0"/>
  <path d="M143.986 536.75C228.236 536.75 287.986 481.5 288.736 391.25C297.986 398.25 310.486 401.75 325.986 401.75L739.486 401.75C754.736 401.75 767.486 398.25 776.736 391.25C777.486 481.5 836.986 536.75 921.236 536.75C1017.74 536.75 1076.49 476.25 1063.49 373.25L1034.99 144.25C1024.74 63 975.236 18.75 890.236 18.75L174.986 18.75C89.9858 18.75 40.4858 63 30.4858 144.25L1.73578 373.25C-11.0142 476.25 47.4858 536.75 143.986 536.75ZM331.736 360C303.486 360 288.736 344.75 288.736 315L288.736 105.25C288.736 75.75 303.486 60.5 331.736 60.5L733.736 60.5C761.986 60.5 776.736 75.75 776.736 105.25L776.736 315C776.736 344.75 761.986 360 733.736 360ZM145.486 448C135.986 448 128.486 440.25 128.486 430.25L128.486 394.75L91.7358 394.75C81.7358 394.75 73.9858 387 73.9858 377C73.9858 367.25 81.7358 359.5 91.7358 359.5L128.486 359.5L128.486 324C128.486 314.25 135.986 306.25 145.486 306.25C155.236 306.25 162.736 314.25 162.736 324L162.736 359.5L197.736 359.5C207.986 359.5 216.486 367.25 216.486 377C216.486 387 207.986 394.75 197.736 394.75L162.736 394.75L162.736 430.25C162.736 440.25 155.236 448 145.486 448ZM956.986 379.5C936.986 379.5 921.486 363.75 921.486 344C921.486 324 936.986 308.25 956.986 308.25C977.236 308.25 993.236 324 993.236 344C993.236 363.75 977.236 379.5 956.986 379.5ZM890.236 446C870.236 446 854.236 430.25 854.236 410.5C854.236 390.25 870.236 374.75 890.236 374.75C909.986 374.75 925.986 390.25 925.986 410.5C925.986 430.25 909.986 446 890.236 446Z" fill="black" fill-opacity="0.85"/>
 </g>
</svg>
