<?xml version="1.0" encoding="UTF-8"?>
<!--Generator: Apple Native CoreSVG 326-->
<!DOCTYPE svg
PUBLIC "-//W3C//DTD SVG 1.1//EN"
       "http://www.w3.org/Graphics/SVG/1.1/DTD/svg11.dtd">
<svg version="1.1" xmlns="http://www.w3.org/2000/svg" xmlns:xlink="http://www.w3.org/1999/xlink" viewBox="0 0 720 591.75">
 <g>
  <rect height="591.75" opacity="0" width="720" x="0" y="0"/>
  <path d="M695.5 0C682 0 670.75 11.5 670.75 24.75L670.75 271L496.5 271L496.5 24.75C496.5 11.5 485.25 0 471.75 0C458.5 0 447.25 11.5 447.25 24.75L447.25 271L273 271L273 24.75C273 11.5 261.75 0 248.25 0C235 0 223.5 11.5 223.5 24.75L223.5 271L49.25 271L49.25 24.75C49.25 11.5 38 0 24.75 0C11.25 0 0 11.5 0 24.75L0 295.75C0 309 11.25 320.25 24.75 320.25L223.5 320.25L223.5 566.5C223.5 580 235 591.25 248.25 591.25C261.75 591.25 273 580 273 566.5L273 320.25L447.25 320.25L447.25 566.5C447.25 580 458.5 591.25 471.75 591.25C485.25 591.25 496.5 580 496.5 566.5L496.5 320.25L670.75 320.25L670.75 566.5C670.75 580 682 591.25 695.5 591.25C708.75 591.25 720 580 720 566.5L720 24.75C720 11.5 708.75 0 695.5 0Z" fill="black" fill-opacity="0.85"/>
 </g>
</svg>
