<?xml version="1.0" encoding="UTF-8"?>
<!--Generator: Apple Native CoreSVG 326-->
<!DOCTYPE svg
PUBLIC "-//W3C//DTD SVG 1.1//EN"
       "http://www.w3.org/Graphics/SVG/1.1/DTD/svg11.dtd">
<svg version="1.1" xmlns="http://www.w3.org/2000/svg" xmlns:xlink="http://www.w3.org/1999/xlink" viewBox="0 0 939.125 723.25">
 <g>
  <rect height="723.25" opacity="0" width="939.125" x="0" y="0"/>
  <path d="M830.812 361.5C830.812 560.75 669.062 722.5 469.562 722.5C311.003 722.5 176.29 620.325 127.998 478.204C143.661 481.14 159.307 477.915 171.91 469.858C215.77 591.643 332.261 678.25 469.562 678.25C645.062 678.25 786.562 536.75 786.562 361.5C786.562 185.75 645.062 44.25 469.562 44.25C332.119 44.25 215.529 131.036 171.772 253.261C159.188 245.247 143.561 242.031 127.861 244.993C176.088 102.389 311.035 0 469.562 0C668.812 0 830.812 161.75 830.812 361.5Z" fill="black" fill-opacity="0.85"/>
  <path d="M123.062 289.5L48.3125 345.25C36.8125 353.75 37.3125 369.25 48.3125 377.75L123.312 433.75C138.562 445.25 159.062 438.75 159.062 418.25L159.062 304.75C159.062 284.75 138.812 277.5 123.062 289.5Z" fill="black" fill-opacity="0.85"/>
  <path d="M469.562 616C610.062 616 724.312 502 724.312 361.5C724.312 220.5 610.062 106.75 469.562 106.75C328.812 106.75 215.062 220.5 215.062 361.5C215.062 502 328.812 616 469.562 616ZM469.562 571.75C352.812 571.75 259.312 478 259.312 361.5C259.312 244.75 352.812 151 469.562 151C586.312 151 680.062 244.75 680.062 361.5C680.062 478 586.312 571.75 469.562 571.75ZM420.062 485L540.562 485C550.562 485 559.062 477.75 559.062 467C559.062 456.5 550.562 449 540.562 449L441.812 449L441.812 257.5C441.812 243.75 433.312 234.25 420.062 234.25C407.062 234.25 399.562 244 399.562 257.5L399.562 462C399.562 475.5 407.312 485 420.062 485Z" fill="black" fill-opacity="0.85"/>
 </g>
</svg>
