<?xml version="1.0" encoding="UTF-8"?>
<!--Generator: Apple Native CoreSVG 326-->
<!DOCTYPE svg
PUBLIC "-//W3C//DTD SVG 1.1//EN"
       "http://www.w3.org/Graphics/SVG/1.1/DTD/svg11.dtd">
<svg version="1.1" xmlns="http://www.w3.org/2000/svg" xmlns:xlink="http://www.w3.org/1999/xlink" viewBox="0 0 734.5 810.25">
 <g>
  <rect height="810.25" opacity="0" width="734.5" x="0" y="0"/>
  <path d="M367.25 614.5C411.925 614.5 453.289 610.289 490.75 602.317L490.75 619C490.75 679 444.75 714.25 367.25 714.25C289.5 714.25 243.5 679 243.5 619L243.5 602.259C281.024 610.27 322.473 614.5 367.25 614.5Z" fill="black" fill-opacity="0.85"/>
  <path d="M694.5 368.25C694.5 482.5 571.75 574.5 367.25 574.5C162.75 574.5 40 482.5 40 368.25C40 254.25 162.75 162.25 366.75 162.25C571.75 162.25 694.5 254.25 694.5 368.25ZM300.25 277.75L300.25 448C300.25 461.75 308.5 471 321.25 471L424.75 471C436 471 443.5 463.25 443.5 452.25C443.5 441.25 436 434 424.75 434L342.5 434L342.5 277.75C342.5 263.75 334 255 321.25 255C308.75 255 300.25 264 300.25 277.75Z" fill="black" fill-opacity="0.85"/>
  <path d="M291 35.5L353.25 118.75C361.5 129.75 377 129.75 385.25 118.75L447.5 35.5C459.25 20 453 0 432.25 0L306 0C286.25 0 279 19.5 291 35.5Z" fill="black" fill-opacity="0.85"/>
 </g>
</svg>
