<?xml version="1.0" encoding="UTF-8"?>
<!--Generator: Apple Native CoreSVG 326-->
<!DOCTYPE svg
PUBLIC "-//W3C//DTD SVG 1.1//EN"
       "http://www.w3.org/Graphics/SVG/1.1/DTD/svg11.dtd">
<svg version="1.1" xmlns="http://www.w3.org/2000/svg" xmlns:xlink="http://www.w3.org/1999/xlink" viewBox="0 0 722.5 939.438">
 <g>
  <rect height="939.438" opacity="0" width="722.5" x="0" y="0"/>
  <path d="M722.5 469.594C722.5 668.844 560.5 830.844 361 830.844C161.5 830.844 0 668.844 0 469.594C0 311.183 102.081 176.159 244.334 127.783C241.337 143.454 244.534 159.104 252.593 171.704C130.727 215.617 44.25 332.274 44.25 469.594C44.25 644.844 185.5 786.594 361 786.594C536.5 786.594 678.25 645.094 678.25 469.594C678.25 332.003 591.371 215.404 469.268 171.603C477.295 159.02 480.492 143.383 477.474 127.668C619.983 175.92 722.5 310.891 722.5 469.594Z" fill="black" fill-opacity="0.85"/>
  <path d="M304.25 159.094L417.75 159.094C437.75 159.094 445 138.844 433 122.844L377.25 48.3438C369 37.0938 353.25 37.0938 344.75 48.3438L288.75 123.094C277.25 138.594 283.75 159.094 304.25 159.094Z" fill="black" fill-opacity="0.85"/>
  <path d="M361 724.344C502 724.344 616 610.094 616 469.594C616 328.594 502 215.094 361 215.094C220.5 215.094 106.5 328.594 106.5 469.594C106.5 610.094 220.5 724.344 361 724.344ZM310.25 596.094C297 596.094 289 586.344 289 572.344L289 363.344C289 349.344 296.75 339.344 310.25 339.344C323.75 339.344 332.75 349.094 332.75 363.344L332.75 559.094L433.5 559.094C443.75 559.094 452.5 566.844 452.5 577.594C452.5 588.594 443.75 596.094 433.5 596.094Z" fill="black" fill-opacity="0.85"/>
 </g>
</svg>
