<?xml version="1.0" encoding="UTF-8"?>
<!--Generator: Apple Native CoreSVG 326-->
<!DOCTYPE svg
PUBLIC "-//W3C//DTD SVG 1.1//EN"
       "http://www.w3.org/Graphics/SVG/1.1/DTD/svg11.dtd">
<svg version="1.1" xmlns="http://www.w3.org/2000/svg" xmlns:xlink="http://www.w3.org/1999/xlink" viewBox="0 0 734.5 618.25">
 <g>
  <rect height="618.25" opacity="0" width="734.5" x="0" y="0"/>
  <path d="M367.25 518.5C411.925 518.5 453.289 514.289 490.75 506.317L490.75 523C490.75 583 444.75 618.25 367.25 618.25C289.5 618.25 243.5 583 243.5 523L243.5 506.259C281.024 514.27 322.473 518.5 367.25 518.5Z" fill="black" fill-opacity="0.85"/>
  <path d="M694.5 272.25C694.5 386.5 571.75 478.5 367.25 478.5C162.75 478.5 40 386.5 40 272.25C40 158.25 162.75 66.25 366.75 66.25C571.75 66.25 694.5 158.25 694.5 272.25ZM300.25 181.75L300.25 352C300.25 365.75 308.5 375 321.25 375L424.75 375C436 375 443.5 367.25 443.5 356.25C443.5 345.25 436 338 424.75 338L342.5 338L342.5 181.75C342.5 167.75 334 159 321.25 159C308.75 159 300.25 168 300.25 181.75Z" fill="black" fill-opacity="0.85"/>
 </g>
</svg>
