<?xml version="1.0" encoding="UTF-8"?>
<!--Generator: Apple Native CoreSVG 326-->
<!DOCTYPE svg
PUBLIC "-//W3C//DTD SVG 1.1//EN"
       "http://www.w3.org/Graphics/SVG/1.1/DTD/svg11.dtd">
<svg version="1.1" xmlns="http://www.w3.org/2000/svg" xmlns:xlink="http://www.w3.org/1999/xlink" viewBox="0 0 728.25 810.25">
 <g>
  <rect height="810.25" opacity="0" width="728.25" x="0" y="0"/>
  <path d="M364.25 617C408.696 617 450.134 612.77 487.75 604.592L487.75 619C487.75 679 441.75 714.25 364.25 714.25C286.5 714.25 240.5 679 240.5 619L240.5 604.563C278.18 612.76 319.703 617 364.25 617Z" fill="black" fill-opacity="0.85"/>
  <path d="M364.25 582C565 582 693.5 493 693.5 368.25C693.5 243.75 564.75 154.5 363.75 154.5C163.5 154.5 34.75 243.75 34.75 368.25C34.75 493 163.5 582 364.25 582ZM364.25 535C197 535 84.25 467.25 84.25 368.25C84.25 269.5 197 201.75 363.75 201.75C531 201.75 644.25 269.5 644.25 368.25C644.25 467.25 531.25 535 364.25 535Z" fill="black" fill-opacity="0.85"/>
  <path d="M317.5 468.25L418.5 468.25C429.25 468.25 436.75 460.75 436.75 450.25C436.75 439.5 429.25 432.25 418.5 432.25L338 432.25L338 279.75C338 266.25 329.75 257.75 317.5 257.75C305.25 257.75 297 266.5 297 279.75L297 446.25C297 459.5 305 468.25 317.5 468.25Z" fill="black" fill-opacity="0.85"/>
  <path d="M286 35.5L348.25 118.75C356.5 129.75 372 129.75 380.25 118.75L442.5 35.5C454.25 20 448 0 427.25 0L301 0C281.25 0 274 19.5 286 35.5Z" fill="black" fill-opacity="0.85"/>
 </g>
</svg>
