<?xml version="1.0" encoding="UTF-8"?>
<!--Generator: Apple Native CoreSVG 326-->
<!DOCTYPE svg
PUBLIC "-//W3C//DTD SVG 1.1//EN"
       "http://www.w3.org/Graphics/SVG/1.1/DTD/svg11.dtd">
<svg version="1.1" xmlns="http://www.w3.org/2000/svg" xmlns:xlink="http://www.w3.org/1999/xlink" viewBox="0 0 939.125 723.25">
 <g>
  <rect height="723.25" opacity="0" width="939.125" x="0" y="0"/>
  <path d="M811.264 244.993C795.564 242.031 779.937 245.247 767.353 253.261C723.596 131.036 607.006 44.25 469.562 44.25C294.062 44.25 152.562 185.75 152.562 361.5C152.562 536.75 294.062 678.25 469.562 678.25C606.864 678.25 723.355 591.644 767.215 469.858C779.818 477.915 795.464 481.14 811.127 478.204C762.835 620.325 628.122 722.5 469.562 722.5C270.062 722.5 108.312 560.75 108.312 361.5C108.312 161.75 270.312 0 469.562 0C628.09 0 763.037 102.39 811.264 244.993Z" fill="black" fill-opacity="0.85"/>
  <path d="M816.062 289.5C800.312 277.5 780.062 284.75 780.062 304.75L780.062 418.25C780.062 438.75 800.562 445.25 815.812 433.75L890.812 377.75C901.812 369.25 902.312 353.75 890.812 345.25Z" fill="black" fill-opacity="0.85"/>
  <path d="M469.562 616C610.562 616 724.062 502 724.062 361.5C724.062 220.5 610.562 106.75 469.562 106.75C329.062 106.75 214.812 220.5 214.812 361.5C214.812 502 329.062 616 469.562 616ZM418.812 488C405.562 488 397.562 478.25 397.562 464.25L397.562 255.25C397.562 241.25 405.312 231.25 418.812 231.25C432.312 231.25 441.312 241 441.312 255.25L441.312 451L542.062 451C552.312 451 561.062 458.75 561.062 469.5C561.062 480.5 552.312 488 542.062 488Z" fill="black" fill-opacity="0.85"/>
 </g>
</svg>
