<?xml version="1.0" encoding="UTF-8"?>
<!--Generator: Apple Native CoreSVG 326-->
<!DOCTYPE svg
PUBLIC "-//W3C//DTD SVG 1.1//EN"
       "http://www.w3.org/Graphics/SVG/1.1/DTD/svg11.dtd">
<svg version="1.1" xmlns="http://www.w3.org/2000/svg" xmlns:xlink="http://www.w3.org/1999/xlink" viewBox="0 0 733 554.25">
 <g>
  <rect height="554.25" opacity="0" width="733" x="0" y="0"/>
  <path d="M733 94L733 298C733 469 653.75 553.75 470.75 553.75L262.25 553.75C79.5 553.75 0 469 0 298L0 94C0 32 32.25 0 95 0L638.25 0C700.75 0 733 32.25 733 94ZM429.75 155.5L392.5 185.25C387.25 189 383.75 194.25 383.75 201.75C383.75 210.5 389.5 216.75 398.25 216.75C402.75 216.75 405.5 215.5 408.5 213L440.25 187.5L440.25 389.25C440.25 400.75 449.5 410 461 410C472 410 481.5 400.75 481.5 389.25L481.5 166.75C481.5 152.25 472.25 143.75 457.75 143.75C446 143.75 436.5 150.25 429.75 155.5ZM247.5 164.5L247.5 385.5C247.5 399 255 407 267.75 407L361.25 407C370.5 407 378.5 399.25 378.5 389.75C378.5 380.25 370.5 372.25 361.25 372.25L288.5 372.25L288.5 164.5C288.5 153.25 279.25 144 268 144C257 144 247.5 153.25 247.5 164.5Z" fill="black" fill-opacity="0.85"/>
 </g>
</svg>
