<?xml version="1.0" encoding="UTF-8"?>
<!--Generator: Apple Native CoreSVG 326-->
<!DOCTYPE svg
PUBLIC "-//W3C//DTD SVG 1.1//EN"
       "http://www.w3.org/Graphics/SVG/1.1/DTD/svg11.dtd">
<svg version="1.1" xmlns="http://www.w3.org/2000/svg" xmlns:xlink="http://www.w3.org/1999/xlink" viewBox="0 0 651.25 651.75">
 <g>
  <rect height="651.75" opacity="0" width="651.25" x="0" y="0"/>
  <path d="M325.5 651.25C505.25 651.25 651.25 505.5 651.25 325.75C651.25 146 505.25 0 325.5 0C145.75 0 0 146 0 325.75C0 505.5 145.75 651.25 325.5 651.25ZM325.5 604.75C171.25 604.75 46.5 480 46.5 325.75C46.5 171.5 171.25 46.75 325.5 46.75C479.75 46.75 604.5 171.5 604.5 325.75C604.5 480 479.75 604.75 325.5 604.75Z" fill="black" fill-opacity="0.85"/>
  <path d="M225.5 456.5L319.5 456.5C329 456.5 336.75 448.5 336.75 439C336.75 429.75 329 421.75 319.5 421.75L246.25 421.75L246.25 212C246.25 201 236.75 191.5 225.75 191.5C214.75 191.5 205.25 201 205.25 212L205.25 435C205.25 448.25 212.75 456.5 225.5 456.5ZM420 459.5C431 459.5 440.25 450.25 440.25 438.75L440.25 214.25C440.25 200 431.25 191.5 416.75 191.5C405 191.5 395.25 197.75 388.5 203.25L350.75 233C345.75 237 342 242.25 342 249.5C342 258.5 348 264.75 356.75 264.75C361.25 264.75 364 263.25 367 261L399.25 235.25L399.25 438.75C399.25 450.25 408.5 459.5 420 459.5Z" fill="black" fill-opacity="0.85"/>
 </g>
</svg>
