<?xml version="1.0" encoding="UTF-8"?>
<!--Generator: Apple Native CoreSVG 326-->
<!DOCTYPE svg
PUBLIC "-//W3C//DTD SVG 1.1//EN"
       "http://www.w3.org/Graphics/SVG/1.1/DTD/svg11.dtd">
<svg version="1.1" xmlns="http://www.w3.org/2000/svg" xmlns:xlink="http://www.w3.org/1999/xlink" viewBox="0 0 651.25 651.75">
 <g>
  <rect height="651.75" opacity="0" width="651.25" x="0" y="0"/>
  <path d="M651.25 325.75C651.25 505 505 651.25 325.5 651.25C146.25 651.25 0 505 0 325.75C0 146.25 146.25 0 325.5 0C505 0 651.25 146.25 651.25 325.75ZM387 206.5L350.5 235.5C345.5 239.25 342 244.5 342 251.75C342 260.5 347.5 266.5 356 266.5C360.5 266.5 363.25 265.25 366.25 263L397.25 237.75L397.25 435.5C397.25 447 406.5 456 417.75 456C428.5 456 437.75 447 437.75 435.5L437.75 217.5C437.75 203.5 428.75 195 414.5 195C403 195 393.75 201.5 387 206.5ZM208.5 215.25L208.5 432C208.5 445 215.75 453 228.25 453L319.75 453C329 453 336.75 445.25 336.75 436C336.75 426.75 329 419 319.75 419L248.75 419L248.75 215.25C248.75 204.25 239.5 195.25 228.5 195.25C217.75 195.25 208.5 204.25 208.5 215.25Z" fill="black" fill-opacity="0.85"/>
 </g>
</svg>
