<?xml version="1.0" encoding="UTF-8"?>
<!--Generator: Apple Native CoreSVG 326-->
<!DOCTYPE svg
PUBLIC "-//W3C//DTD SVG 1.1//EN"
       "http://www.w3.org/Graphics/SVG/1.1/DTD/svg11.dtd">
<svg version="1.1" xmlns="http://www.w3.org/2000/svg" xmlns:xlink="http://www.w3.org/1999/xlink" viewBox="0 0 733 554.25">
 <g>
  <rect height="554.25" opacity="0" width="733" x="0" y="0"/>
  <path d="M262.25 0C79.5 0 0 84.75 0 255.75L0 459.75C0 522 32.25 553.75 95 553.75L638.25 553.75C700.75 553.75 733 521.75 733 459.75L733 255.75C733 84.75 653.75 0 470.75 0ZM262.75 44.5L470.5 44.5C624 44.5 688.75 112.25 688.75 253.5L688.75 457.5C688.75 492 670.25 509.5 637 509.5L96 509.5C62.25 509.5 44.25 492 44.25 457.5L44.25 253.5C44.25 112.25 109 44.5 262.75 44.5Z" fill="black" fill-opacity="0.85"/>
  <path d="M241.5 407.75L335.75 407.75C345.25 407.75 353 400 353 390.5C353 381 345.25 373.25 335.75 373.25L262.5 373.25L262.5 163.25C262.5 152.25 253 143 242 143C230.75 143 221.5 152.25 221.5 163.25L221.5 386.5C221.5 399.75 229 407.75 241.5 407.75ZM398.5 407.5L510 407.5C520 407.5 526.25 400.75 526.25 390.75C526.25 380.25 519.75 374 510 374L429.75 374L429.75 371.75L480.5 305.5C511 266.75 521.25 243 521.25 215C521.25 172 493.5 140.25 450 140.25C409.5 140.25 379.75 174.75 379.75 208.5C379.75 218.5 385.75 226.25 396.75 226.25C406.25 226.25 412 221.75 414.75 212.75C420.25 189 429.5 173.25 449.75 173.25C471.75 173.25 483 193.25 483 216.75C483 242.25 467 267 449 290.75L389.5 368.75C384.25 375.5 379.5 382.5 379.5 391C379.5 400.75 385.75 407.5 398.5 407.5Z" fill="black" fill-opacity="0.85"/>
 </g>
</svg>
