<?xml version="1.0" encoding="UTF-8"?>
<!--Generator: Apple Native CoreSVG 326-->
<!DOCTYPE svg
PUBLIC "-//W3C//DTD SVG 1.1//EN"
       "http://www.w3.org/Graphics/SVG/1.1/DTD/svg11.dtd">
<svg version="1.1" xmlns="http://www.w3.org/2000/svg" xmlns:xlink="http://www.w3.org/1999/xlink" viewBox="0 0 566 689.75">
 <g>
  <rect height="689.75" opacity="0" width="566" x="0" y="0"/>
  <path d="M188.25 689.75L471.75 689.75C530.75 689.75 565.75 655 565.75 596.5L566 93.5C566 36.75 529 0 472.5 0L373.5 0C323.75 0 282.5 12.5 243.5 48.5L39.75 235.75C13.25 260.25 0 294.75 0 337.75L0 501.5C0 616 73.5 689.75 188.25 689.75ZM189.25 645.5C97.5 645.5 44.25 592.5 44.25 500.5L44.25 338.5C44.25 305.75 52.25 284.5 70.5 267.5L274 81C303.5 54.25 334.25 44.25 374.5 44.25L471.5 44.25C502.5 44.25 521.5 63.75 521.5 94.5L521.25 595.75C521.25 631.75 506 645.5 470.75 645.5Z" fill="black" fill-opacity="0.85"/>
  <path d="M172.5 533.25L261 533.25C269.75 533.25 277 525.75 277 516.75C277 508 269.75 500.75 261 500.75L192 500.75L192 303.75C192 293.25 183.25 284.5 173 284.5C162.5 284.5 153.75 293.25 153.75 303.75L153.75 513C153.75 525.5 160.5 533.25 172.5 533.25ZM320 533L424.75 533C434 533 440 526.5 440 517.25C440 507.25 433.75 501.5 424.75 501.5L349.25 501.5L349.25 499.5L396.75 437.25C425.5 400.75 435 378.5 435 352C435 312 409 282 368.25 282C330.25 282 302.5 314.25 302.5 346C302.5 355.5 308 362.75 318.25 362.75C327 362.75 332.5 358.5 335 350C340.5 327.75 349 313 368 313C388.5 313 399 331.75 399 353.75C399 377.75 384.25 401 367.5 423.25L311.5 496.5C306.5 502.75 302 509.25 302 517.5C302 526.5 308 533 320 533Z" fill="black" fill-opacity="0.85"/>
 </g>
</svg>
