<?xml version="1.0" encoding="UTF-8"?>
<!--Generator: Apple Native CoreSVG 326-->
<!DOCTYPE svg
PUBLIC "-//W3C//DTD SVG 1.1//EN"
       "http://www.w3.org/Graphics/SVG/1.1/DTD/svg11.dtd">
<svg version="1.1" xmlns="http://www.w3.org/2000/svg" xmlns:xlink="http://www.w3.org/1999/xlink" viewBox="0 0 566 689.75">
 <g>
  <rect height="689.75" opacity="0" width="566" x="0" y="0"/>
  <path d="M566 93.5L565.75 596.5C565.75 655 530.75 689.75 471.75 689.75L188.25 689.75C73.5 689.75 0 616 0 501.5L0 337.75C0 294.75 13.25 260.25 39.75 235.75L243.5 48.5C282.5 12.5 323.75 0 373.5 0L472.5 0C529 0 566 36.75 566 93.5ZM140 294.25L140 522.25C140 536 147.75 544.5 160.75 544.5L257.25 544.5C267 544.5 275 536.25 275 526.5C275 517 267 508.75 257.25 508.75L182.25 508.75L182.25 294.25C182.25 282.5 172.5 273 161.25 273C149.5 273 140 282.5 140 294.25ZM302.5 340.25C302.5 350.5 308.75 358.5 320.25 358.5C329.75 358.5 335.75 354 338.5 344.5C344.5 320.25 353.75 304.25 374.5 304.25C396.5 304.25 408 324.75 408 348.75C408 374.75 391.75 400.25 373.5 424.5L312.75 504C307.25 511 302 518.25 302 527C302 537 308.75 544.25 322 544.25L436.25 544.25C446.5 544.25 453 537.25 453 527C453 516.25 446.25 509.75 436.25 509.75L354.25 509.75L354.25 507.25L405.75 440C437.25 399.75 447.75 375.5 447.75 346.75C447.75 303 419.25 270.25 374.5 270.25C333.25 270.25 302.5 305.5 302.5 340.25Z" fill="black" fill-opacity="0.85"/>
 </g>
</svg>
