<?xml version="1.0" encoding="UTF-8"?>
<!--Generator: Apple Native CoreSVG 326-->
<!DOCTYPE svg
PUBLIC "-//W3C//DTD SVG 1.1//EN"
       "http://www.w3.org/Graphics/SVG/1.1/DTD/svg11.dtd">
<svg version="1.1" xmlns="http://www.w3.org/2000/svg" xmlns:xlink="http://www.w3.org/1999/xlink" viewBox="0 0 651.25 651.75">
 <g>
  <rect height="651.75" opacity="0" width="651.25" x="0" y="0"/>
  <path d="M325.5 651.25C505.25 651.25 651.25 505.5 651.25 325.75C651.25 146 505.25 0 325.5 0C145.75 0 0 146 0 325.75C0 505.5 145.75 651.25 325.5 651.25ZM325.5 604.75C171.25 604.75 46.5 480 46.5 325.75C46.5 171.5 171.25 46.75 325.5 46.75C479.75 46.75 604.5 171.5 604.5 325.75C604.5 480 479.75 604.75 325.5 604.75Z" fill="black" fill-opacity="0.85"/>
  <path d="M200.25 456.5L294.5 456.5C303.75 456.5 311.75 448.5 311.75 439C311.75 429.75 303.75 421.75 294.5 421.75L221 421.75L221 212C221 201 211.75 191.5 200.75 191.5C189.5 191.5 180.25 201 180.25 212L180.25 435C180.25 448.25 187.5 456.5 200.25 456.5ZM357 456.25L468.75 456.25C478.75 456.25 485 449.5 485 439.5C485 429 478.5 422.75 468.75 422.75L388.25 422.75L388.25 420.5L439 354.25C469.75 315.25 479.75 291.5 479.75 263.5C479.75 220.75 452.25 189 408.5 189C368.25 189 338.5 223.25 338.5 257C338.5 267.25 344.5 274.75 355.5 274.75C364.75 274.75 370.5 270.5 373.25 261.25C379 237.5 388 222 408.5 222C430.25 222 441.5 242 441.5 265.25C441.5 290.75 425.75 315.75 407.75 339.25L348.25 417.25C343 424 338 431 338 439.5C338 449.25 344.5 456.25 357 456.25Z" fill="black" fill-opacity="0.85"/>
 </g>
</svg>
