<?xml version="1.0" encoding="UTF-8"?>
<!--Generator: Apple Native CoreSVG 326-->
<!DOCTYPE svg
PUBLIC "-//W3C//DTD SVG 1.1//EN"
       "http://www.w3.org/Graphics/SVG/1.1/DTD/svg11.dtd">
<svg version="1.1" xmlns="http://www.w3.org/2000/svg" xmlns:xlink="http://www.w3.org/1999/xlink" viewBox="0 0 651.25 651.75">
 <g>
  <rect height="651.75" opacity="0" width="651.25" x="0" y="0"/>
  <path d="M651.25 325.75C651.25 505 505 651.25 325.5 651.25C146.25 651.25 0 505 0 325.75C0 146.25 146.25 0 325.5 0C505 0 651.25 146.25 651.25 325.75ZM176.25 209.5L176.25 437.5C176.25 451.25 184 459.75 197.25 459.75L293.75 459.75C303.25 459.75 311.5 451.5 311.5 441.75C311.5 432.25 303.25 424 293.75 424L218.75 424L218.75 209.5C218.75 198 208.75 188.25 197.5 188.25C186 188.25 176.25 198 176.25 209.5ZM338.75 255.5C338.75 265.75 345 273.75 356.5 273.75C366 273.75 371.75 269.25 374.75 259.75C380.75 235.5 389.75 219.75 410.75 219.75C432.75 219.75 444.25 240 444.25 264C444.25 290 428 315.75 409.75 339.75L349 419.25C343.5 426.25 338.25 433.5 338.25 442.5C338.25 452.25 345 459.5 358 459.5L472.5 459.5C482.75 459.5 489.25 452.5 489.25 442.25C489.25 431.5 482.5 425 472.5 425L390.25 425L390.25 422.5L442 355.25C473.5 315 483.75 290.75 483.75 262C483.75 218.25 455.5 185.75 410.75 185.75C369.5 185.75 338.75 220.75 338.75 255.5Z" fill="black" fill-opacity="0.85"/>
 </g>
</svg>
