<?xml version="1.0" encoding="UTF-8"?>
<!--Generator: Apple Native CoreSVG 326-->
<!DOCTYPE svg
PUBLIC "-//W3C//DTD SVG 1.1//EN"
       "http://www.w3.org/Graphics/SVG/1.1/DTD/svg11.dtd">
<svg version="1.1" xmlns="http://www.w3.org/2000/svg" xmlns:xlink="http://www.w3.org/1999/xlink" viewBox="0 0 749.5 570.75">
 <g>
  <rect height="570.75" opacity="0" width="749.5" x="0" y="0"/>
  <path d="M749.5 236.5L749.5 333.75C749.5 502 686.5 570.25 503.75 570.25L245.75 570.25C63 570.25 0 502 0 333.75L0 236.5C0 68.25 63 0 245.75 0L503.75 0C686.5 0 749.5 68.25 749.5 236.5ZM443 178.75L380 311.5C375.25 322.5 373.5 329.75 373.5 338.75C373.5 352.5 383 362 397.25 362L472.5 362L472.5 399.25C472.5 414 482.75 419.5 492 419.5C502.5 419.5 511.25 412.5 511.25 399.25L511.25 362L525 362C536 362 541.25 355 541.25 345.25C541.25 336 536 329 525 329L511.25 329L511.25 181.25C511.25 161.25 498 150.75 480.25 150.75C460.25 150.75 451 161 443 178.75ZM220.25 171.5L220.25 394.5C220.25 407.75 227.75 416 240.25 416L334.5 416C343.75 416 351.75 408 351.75 398.5C351.75 389.25 343.75 381.25 334.5 381.25L261 381.25L261 171.5C261 160.5 251.75 151 240.75 151C229.5 151 220.25 160.5 220.25 171.5ZM473.25 329.75L408.75 329.75L408.75 328L472 187.75L473.25 187.75Z" fill="black" fill-opacity="0.85"/>
 </g>
</svg>
