<?xml version="1.0" encoding="UTF-8"?>
<!--Generator: Apple Native CoreSVG 326-->
<!DOCTYPE svg
PUBLIC "-//W3C//DTD SVG 1.1//EN"
       "http://www.w3.org/Graphics/SVG/1.1/DTD/svg11.dtd">
<svg version="1.1" xmlns="http://www.w3.org/2000/svg" xmlns:xlink="http://www.w3.org/1999/xlink" viewBox="0 0 733 554.25">
 <g>
  <rect height="554.25" opacity="0" width="733" x="0" y="0"/>
  <path d="M262.25 553.75L470.75 553.75C653.75 553.75 733 469 733 298L733 94C733 32.25 700.75 0 638.25 0L95 0C32.25 0 0 32 0 94L0 298C0 469 79.5 553.75 262.25 553.75ZM262.75 509.5C109 509.5 44.25 441.75 44.25 300.5L44.25 96.25C44.25 62 62.25 44.5 96 44.5L637 44.5C670.25 44.5 688.75 62 688.75 96.25L688.75 300.5C688.75 441.75 624 509.5 470.5 509.5Z" fill="black" fill-opacity="0.85"/>
  <path d="M234 407.75L328.25 407.75C337.5 407.75 345.5 400 345.5 390.5C345.5 381 337.5 373.25 328.25 373.25L254.75 373.25L254.75 163.25C254.75 152.25 245.5 143 234.25 143C223.25 143 213.75 152.25 213.75 163.25L213.75 386.5C213.75 399.75 221.25 407.75 234 407.75ZM399.75 408L466.75 408C512 408 538 378 538 335C538 303.25 519.5 274.5 488.75 271.25L488.75 269.75C513 265.25 529.5 237.75 529.5 211.75C529.5 171.5 503 147 465 147L399.75 147C386.75 147 379.5 156.25 379.5 168.5L379.5 386.5C379.5 399.5 387 408 399.75 408ZM419.75 259.25L419.75 179L453.75 179C479 179 490 195.25 490 218C490 243.5 475.5 259.25 450 259.25ZM419.75 376.25L419.75 287.75L453.5 287.75C479.5 287.75 496.75 302 496.75 331.75C496.75 359.5 482.5 376.25 455 376.25Z" fill="black" fill-opacity="0.85"/>
 </g>
</svg>
