<?xml version="1.0" encoding="UTF-8"?>
<!--Generator: Apple Native CoreSVG 326-->
<!DOCTYPE svg
PUBLIC "-//W3C//DTD SVG 1.1//EN"
       "http://www.w3.org/Graphics/SVG/1.1/DTD/svg11.dtd">
<svg version="1.1" xmlns="http://www.w3.org/2000/svg" xmlns:xlink="http://www.w3.org/1999/xlink" viewBox="0 0 733 554.25">
 <g>
  <rect height="554.25" opacity="0" width="733" x="0" y="0"/>
  <path d="M733 94L733 298C733 469 653.75 553.75 470.75 553.75L262.25 553.75C79.5 553.75 0 469 0 298L0 94C0 32 32.25 0 95 0L638.25 0C700.75 0 733 32.25 733 94ZM400 148C386.75 148 379.75 157.25 379.75 169.5L379.75 385.75C379.75 398.75 387 407.25 400 407.25L466.75 407.25C511.5 407.25 537.5 377.5 537.5 334.75C537.5 303.25 519 274.5 488.25 271.25L488.25 269.75C512.5 265.25 529 238 529 212.25C529 172.25 502.5 148 464.75 148ZM215 164.5L215 385.5C215 399 222.25 407 235 407L328.5 407C337.75 407 345.75 399.25 345.75 389.75C345.75 380.25 337.75 372.25 328.5 372.25L256 372.25L256 164.5C256 153.25 246.5 144 235.5 144C224.5 144 215 153.25 215 164.5ZM496 331.5C496 359 482 375.5 454.75 375.5L420 375.5L420 288L453.25 288C479 288 496 302 496 331.5ZM489.25 218.5C489.25 243.75 475 259.5 449.5 259.5L420 259.5L420 180L453.5 180C478.5 180 489.25 196 489.25 218.5Z" fill="black" fill-opacity="0.85"/>
 </g>
</svg>
