<?xml version="1.0" encoding="UTF-8"?>
<!--Generator: Apple Native CoreSVG 326-->
<!DOCTYPE svg
PUBLIC "-//W3C//DTD SVG 1.1//EN"
       "http://www.w3.org/Graphics/SVG/1.1/DTD/svg11.dtd">
<svg version="1.1" xmlns="http://www.w3.org/2000/svg" xmlns:xlink="http://www.w3.org/1999/xlink" viewBox="0 0 651.25 651.75">
 <g>
  <rect height="651.75" opacity="0" width="651.25" x="0" y="0"/>
  <path d="M325.5 651.25C505.25 651.25 651.25 505.5 651.25 325.75C651.25 146 505.25 0 325.5 0C145.75 0 0 146 0 325.75C0 505.5 145.75 651.25 325.5 651.25ZM325.5 604.75C171.25 604.75 46.5 480 46.5 325.75C46.5 171.5 171.25 46.75 325.5 46.75C479.75 46.75 604.5 171.5 604.5 325.75C604.5 480 479.75 604.75 325.5 604.75Z" fill="black" fill-opacity="0.85"/>
  <path d="M192.5 456.5L286.75 456.5C296 456.5 304 448.5 304 439C304 429.75 296 421.75 286.75 421.75L213.25 421.75L213.25 212C213.25 201 204 191.5 193 191.5C181.75 191.5 172.5 201 172.5 212L172.5 435C172.5 448.25 180 456.5 192.5 456.5ZM358.25 456.5L425.5 456.5C470.5 456.5 496.75 426.75 496.75 383.75C496.75 352 478.25 323 447.25 319.75L447.25 318.25C471.5 313.75 488 286.5 488 260.5C488 220 461.5 195.5 423.75 195.5L358.25 195.5C345.25 195.5 338.25 204.75 338.25 217L338.25 435.25C338.25 448 345.5 456.5 358.25 456.5ZM378.5 308L378.5 227.5L412.25 227.5C437.75 227.5 448.5 243.75 448.5 266.5C448.5 292 434 308 408.5 308ZM378.5 425L378.5 336.5L412 336.5C438 336.5 455.25 350.75 455.25 380.5C455.25 408 441.25 425 413.5 425Z" fill="black" fill-opacity="0.85"/>
 </g>
</svg>
