<?xml version="1.0" encoding="UTF-8"?>
<!--Generator: Apple Native CoreSVG 326-->
<!DOCTYPE svg
PUBLIC "-//W3C//DTD SVG 1.1//EN"
       "http://www.w3.org/Graphics/SVG/1.1/DTD/svg11.dtd">
<svg version="1.1" xmlns="http://www.w3.org/2000/svg" xmlns:xlink="http://www.w3.org/1999/xlink" viewBox="0 0 651.25 651.75">
 <g>
  <rect height="651.75" opacity="0" width="651.25" x="0" y="0"/>
  <path d="M325.5 651.25C505.25 651.25 651.25 505.5 651.25 325.75C651.25 146 505.25 0 325.5 0C145.75 0 0 146 0 325.75C0 505.5 145.75 651.25 325.5 651.25ZM325.5 604.75C171.25 604.75 46.5 480 46.5 325.75C46.5 171.5 171.25 46.75 325.5 46.75C479.75 46.75 604.5 171.5 604.5 325.75C604.5 480 479.75 604.75 325.5 604.75Z" fill="black" fill-opacity="0.85"/>
  <path d="M158.25 238.5L493.5 238.5C505.5 238.5 514.25 230.5 514.25 218.75C514.25 207 505.5 199.25 493.5 199.25L158.25 199.25C146 199.25 137.25 207 137.25 218.75C137.25 230.5 146 238.5 158.25 238.5ZM158.25 345L493.5 345C505.5 345 514.25 337 514.25 325.25C514.25 313.5 505.5 305.75 493.5 305.75L158.25 305.75C146 305.75 137.25 313.5 137.25 325.25C137.25 337 146 345 158.25 345ZM158.25 452L493.5 452C505.5 452 514.25 444.25 514.25 432.5C514.25 420.75 505.5 412.75 493.5 412.75L158.25 412.75C146 412.75 137.25 420.75 137.25 432.5C137.25 444.25 146 452 158.25 452Z" fill="black" fill-opacity="0.85"/>
 </g>
</svg>
