<?xml version="1.0" encoding="UTF-8"?>
<!--Generator: Apple Native CoreSVG 326-->
<!DOCTYPE svg
PUBLIC "-//W3C//DTD SVG 1.1//EN"
       "http://www.w3.org/Graphics/SVG/1.1/DTD/svg11.dtd">
<svg version="1.1" xmlns="http://www.w3.org/2000/svg" xmlns:xlink="http://www.w3.org/1999/xlink" viewBox="0 0 749.5 570.75">
 <g>
  <rect height="570.75" opacity="0" width="749.5" x="0" y="0"/>
  <path d="M749.5 236.5L749.5 333.75C749.5 502 686.5 570.25 503.75 570.25L245.75 570.25C63 570.25 0 502 0 333.75L0 236.5C0 68.25 63 0 245.75 0L503.75 0C686.5 0 749.5 68.25 749.5 236.5ZM507.5 173L458.5 363.25L457 363.25L407.25 173C403 156.25 393 148 377.25 148C358.5 148 347 159.25 347 178L347 403.25C347 415.5 354.5 423.5 366 423.5C377.5 423.5 385 415.5 385 403.25L385 214.5L386.75 214.5L435.75 398.75C438.5 410.5 445.5 419 457.75 419C470.25 419 476.75 410.75 479.75 398.5L528.75 214.5L530.25 214.5L530.25 403.25C530.25 415.75 537.5 423.5 549 423.5C561.5 423.5 568.25 415.5 568.25 403.25L568.25 178C568.25 158.5 556.75 148 538.25 148C521.25 148 511.75 156.25 507.5 173ZM176.75 169L176.75 397C176.75 410.75 184.25 419.25 197.5 419.25L294 419.25C303.5 419.25 311.75 411 311.75 401C311.75 391.5 303.5 383.25 294 383.25L219 383.25L219 169C219 157.5 209.25 147.75 198 147.75C186.5 147.75 176.75 157.5 176.75 169Z" fill="black" fill-opacity="0.85"/>
 </g>
</svg>
