<?xml version="1.0" encoding="UTF-8"?>
<!--Generator: Apple Native CoreSVG 326-->
<!DOCTYPE svg
PUBLIC "-//W3C//DTD SVG 1.1//EN"
       "http://www.w3.org/Graphics/SVG/1.1/DTD/svg11.dtd">
<svg version="1.1" xmlns="http://www.w3.org/2000/svg" xmlns:xlink="http://www.w3.org/1999/xlink" viewBox="0 0 749.5 570.75">
 <g>
  <rect height="570.75" opacity="0" width="749.5" x="0" y="0"/>
  <path d="M245.75 570.25L503.75 570.25C686.5 570.25 749.5 502 749.5 333.75L749.5 236.5C749.5 68.25 686.5 0 503.75 0L245.75 0C63 0 0 68.25 0 236.5L0 333.75C0 502 63 570.25 245.75 570.25ZM245.75 526C92.5 526 44.25 474.5 44.25 333.75L44.25 236.5C44.25 95.75 92.5 44.5 245.75 44.5L503.75 44.5C657 44.5 705.25 95.75 705.25 236.5L705.25 333.75C705.25 474.5 657 526 503.75 526Z" fill="black" fill-opacity="0.85"/>
  <path d="M201.75 416L296 416C305.25 416 313.25 408 313.25 398.5C313.25 389.25 305.25 381.25 296 381.25L222.5 381.25L222.5 171.5C222.5 160.5 213.25 151 202.25 151C191 151 181.75 160.5 181.75 171.5L181.75 394.5C181.75 407.75 189.25 416 201.75 416ZM366 420.25C377.25 420.25 384.5 412.5 384.5 400.5L384.5 215.75L386.25 215.75L434.25 396.25C437 407.5 443.75 415.5 455.75 415.5C467.75 415.5 474 407.75 477 396L525 215.75L526.5 215.75L526.5 400.5C526.5 412.75 533.5 420.25 544.75 420.25C556.75 420.25 563.25 412.25 563.25 400.5L563.25 180.25C563.25 161.5 552.25 151.25 534.25 151.25C517.75 151.25 508.5 159.25 504.5 175.5L456.5 361.75L455 361.75L406 175.5C402 159.25 392.25 151.25 377 151.25C358.75 151.25 347.75 162.25 347.75 180.25L347.75 400.5C347.75 412.25 355 420.25 366 420.25Z" fill="black" fill-opacity="0.85"/>
 </g>
</svg>
