<?xml version="1.0" encoding="UTF-8"?>
<!--Generator: Apple Native CoreSVG 326-->
<!DOCTYPE svg
PUBLIC "-//W3C//DTD SVG 1.1//EN"
       "http://www.w3.org/Graphics/SVG/1.1/DTD/svg11.dtd">
<svg version="1.1" xmlns="http://www.w3.org/2000/svg" xmlns:xlink="http://www.w3.org/1999/xlink" viewBox="0 0 824 570.819">
 <g>
  <rect height="570.819" opacity="0" width="824" x="0" y="0"/>
  <path d="M824 322.285L824 120.785C824 64.5347 787.25 27.5347 730.5 27.5347L93.25 27.7847C36.5 27.7847 0 65.0347 0 121.785L0 322.285C0 404.035 34.5 452.785 118.5 477.535L397.25 559.035C470.75 580.535 516.5 572.035 582 538.285L763.75 445.035C813.75 419.285 824 389.535 824 322.285ZM779.75 322.285C779.75 372.035 771.75 392.035 736 410.035L558.25 500.535C502.25 529.035 465 534.785 398.25 515.035L131.5 436.035C68.25 417.535 44.25 383.285 44.25 322.285L44.25 122.785C44.25 91.5347 63.5 72.0347 94 72.0347L729.75 71.7847C760.25 71.7847 779.75 90.7847 779.75 122.035Z" fill="black" fill-opacity="0.85"/>
  <path d="M185.5 390.535L277 390.535C286 390.535 293.5 382.785 293.5 373.785C293.5 364.535 286 357.035 277 357.035L205.75 357.035L205.75 153.535C205.75 142.785 196.75 133.785 186 133.785C175.25 133.785 166.25 142.785 166.25 153.535L166.25 369.785C166.25 382.535 173.25 390.535 185.5 390.535ZM395.25 395.785C442.75 395.785 471.25 367.785 471.25 321.785C471.25 281.285 450.25 263.035 414.75 249.285L397.5 242.785C376 234.535 360.75 223.035 360.75 200.035C360.75 179.285 373.25 164.535 393.75 164.535C415.25 164.535 426.75 179.785 430.5 198.035C433 207.785 439.25 211.285 448.25 211.285C459 211.285 465.75 204.285 465.75 194.285C465.75 191.535 465.5 188.285 464 182.535C454.75 150.285 428 131.785 393.75 131.785C352 131.785 321.75 159.285 321.75 202.785C321.75 241.785 344.75 262.285 377.25 274.785L394.5 281.535C416.5 290.035 432.25 300.785 432.25 325.285C432.25 347.285 418.5 363.035 395.75 363.035C373.25 363.035 359.5 347.785 356 328.035C353.75 318.285 346.75 314.035 337.75 314.035C327 314.035 320.5 321.785 320.5 332.535C320.5 337.285 320.75 339.285 322.25 344.535C331 377.535 359.5 395.785 395.25 395.785ZM531.5 390.785L596.5 390.785C640.25 390.785 665.5 361.785 665.5 320.035C665.5 289.285 647.5 261.285 617.5 258.035L617.5 256.535C641.25 252.285 657.25 225.785 657.25 200.535C657.25 161.535 631.5 137.785 594.75 137.785L531.5 137.785C518.75 137.785 511.75 146.535 511.75 158.535L511.75 370.035C511.75 382.535 519 390.785 531.5 390.785ZM550.75 246.535L550.75 168.785L583.5 168.785C608.25 168.785 618.75 184.535 618.75 206.535C618.75 231.035 604.75 246.535 580 246.535ZM550.75 360.035L550.75 274.285L583.5 274.285C608.75 274.285 625.5 288.035 625.5 316.785C625.5 343.785 611.75 360.035 584.75 360.035Z" fill="black" fill-opacity="0.85"/>
 </g>
</svg>
