<?xml version="1.0" encoding="UTF-8"?>
<!--Generator: Apple Native CoreSVG 326-->
<!DOCTYPE svg
PUBLIC "-//W3C//DTD SVG 1.1//EN"
       "http://www.w3.org/Graphics/SVG/1.1/DTD/svg11.dtd">
<svg version="1.1" xmlns="http://www.w3.org/2000/svg" xmlns:xlink="http://www.w3.org/1999/xlink" viewBox="0 0 733 554.25">
 <g>
  <rect height="554.25" opacity="0" width="733" x="0" y="0"/>
  <path d="M733 255.75L733 459.75C733 521.75 700.75 553.75 638.25 553.75L95 553.75C32.25 553.75 0 522 0 459.75L0 255.75C0 84.75 79.5 0 262.25 0L470.75 0C653.75 0 733 84.75 733 255.75ZM375.5 147.75C365.75 147.75 358.25 155.25 358.25 164.5C358.25 174.5 365.75 182 375.5 182L418.75 182L418.75 390C418.75 401.5 428 410.5 439.5 410.5C450.75 410.5 459.75 401.5 459.75 390L459.75 182L500.75 182C510.25 182 517.75 174.5 517.75 164.5C517.75 155.25 510.25 147.75 500.75 147.75ZM235 164.5L235 385.5C235 399 242.5 407 255.25 407L348.75 407C358 407 366 399.25 366 389.5C366 380.25 358 372.25 348.75 372.25L276 372.25L276 164.5C276 153.25 266.5 144 255.75 144C244.25 144 235 153.25 235 164.5Z" fill="black" fill-opacity="0.85"/>
 </g>
</svg>
