<?xml version="1.0" encoding="UTF-8"?>
<!--Generator: Apple Native CoreSVG 326-->
<!DOCTYPE svg
PUBLIC "-//W3C//DTD SVG 1.1//EN"
       "http://www.w3.org/Graphics/SVG/1.1/DTD/svg11.dtd">
<svg version="1.1" xmlns="http://www.w3.org/2000/svg" xmlns:xlink="http://www.w3.org/1999/xlink" viewBox="0 0 651.25 651.75">
 <g>
  <rect height="651.75" opacity="0" width="651.25" x="0" y="0"/>
  <path d="M651.25 325.75C651.25 505 505 651.25 325.5 651.25C146.25 651.25 0 505 0 325.75C0 146.25 146.25 0 325.5 0C505 0 651.25 146.25 651.25 325.75ZM333.75 198.75C324.25 198.75 317 206.25 317 215.5C317 225.25 324.25 232.5 333.75 232.5L376.25 232.5L376.25 436.25C376.25 447.5 385.25 456.5 396.5 456.5C407.5 456.5 416.5 447.5 416.5 436.25L416.5 232.5L456.5 232.5C465.75 232.5 473.25 225.25 473.25 215.5C473.25 206.25 465.75 198.75 456.5 198.75ZM196.25 215.25L196.25 432C196.25 445 203.5 453 216 453L307.5 453C316.75 453 324.5 445.25 324.5 435.75C324.5 426.75 316.75 419 307.5 419L236.25 419L236.25 215.25C236.25 204.25 227 195.25 216.25 195.25C205.25 195.25 196.25 204.25 196.25 215.25Z" fill="black" fill-opacity="0.85"/>
 </g>
</svg>
