<?xml version="1.0" encoding="UTF-8"?>
<!--Generator: Apple Native CoreSVG 326-->
<!DOCTYPE svg
PUBLIC "-//W3C//DTD SVG 1.1//EN"
       "http://www.w3.org/Graphics/SVG/1.1/DTD/svg11.dtd">
<svg version="1.1" xmlns="http://www.w3.org/2000/svg" xmlns:xlink="http://www.w3.org/1999/xlink" viewBox="0 0 749.5 570.75">
 <g>
  <rect height="570.75" opacity="0" width="749.5" x="0" y="0"/>
  <path d="M749.5 236.5L749.5 333.75C749.5 502 686.5 570.25 503.75 570.25L245.75 570.25C63 570.25 0 502 0 333.75L0 236.5C0 68.25 63 0 245.75 0L503.75 0C686.5 0 749.5 68.25 749.5 236.5ZM347.5 173L298.25 363.25L296.75 363.25L246.75 173C242.75 156.25 232.75 148 216.75 148C198.25 148 186.75 159.25 186.75 178L186.75 403.25C186.75 415.5 194.25 423.5 205.75 423.5C217.25 423.5 224.75 415.5 224.75 403.25L224.75 214.5L226.75 214.5L275.25 398.75C278.5 410.5 285.5 419 297.5 419C310 419 316.25 410.75 319.25 398.5L368.25 214.5L370 214.5L370 403.25C370 415.75 377 423.5 389 423.5C401.25 423.5 408 415.5 408 403.25L408 178C408 158.5 396.5 148 377.75 148C361 148 351.5 156.25 347.5 173ZM494.25 159.5L455.75 190.25C450.5 194.25 446.5 199.75 446.5 207.25C446.5 216.5 452.5 223 461.5 223C466.25 223 469 221.5 472.25 219L505 192.75L505 400.75C505 412.75 514.5 422.25 526.5 422.25C537.75 422.25 547.25 412.75 547.25 400.75L547.25 171.25C547.25 156.5 538 147.5 523 147.5C511 147.5 501.25 154.25 494.25 159.5Z" fill="black" fill-opacity="0.85"/>
 </g>
</svg>
