<?xml version="1.0" encoding="UTF-8"?>
<!--Generator: Apple Native CoreSVG 326-->
<!DOCTYPE svg
PUBLIC "-//W3C//DTD SVG 1.1//EN"
       "http://www.w3.org/Graphics/SVG/1.1/DTD/svg11.dtd">
<svg version="1.1" xmlns="http://www.w3.org/2000/svg" xmlns:xlink="http://www.w3.org/1999/xlink" viewBox="0 0 749.5 570.75">
 <g>
  <rect height="570.75" opacity="0" width="749.5" x="0" y="0"/>
  <path d="M749.5 236.5L749.5 333.75C749.5 502 686.5 570.25 503.75 570.25L245.75 570.25C63 570.25 0 502 0 333.75L0 236.5C0 68.25 63 0 245.75 0L503.75 0C686.5 0 749.5 68.25 749.5 236.5ZM330.25 173L281 363.25L279.5 363.25L229.75 173C225.5 156.25 215.75 148 199.75 148C181.25 148 169.5 159.25 169.5 178L169.5 403.25C169.5 415.5 177 423.5 188.5 423.5C200.25 423.5 207.75 415.5 207.75 403.25L207.75 214.5L209.5 214.5L258.25 398.75C261.25 410.5 268.25 419 280.25 419C293 419 299.25 410.75 302.5 398.5L351.25 214.5L353 214.5L353 403.25C353 415.75 360 423.5 371.75 423.5C384.25 423.5 391 415.5 391 403.25L391 178C391 158.5 379.5 148 360.75 148C344 148 334.5 156.25 330.25 173ZM435.75 214.75C435.75 225.25 442 233.25 453.25 233.25C463 233.25 469 228.75 471.75 219.25C477.5 195 486.75 179.25 507.5 179.25C529.75 179.25 541.25 199.5 541.25 223.25C541.25 249.5 525 275.25 506.75 299.25L445.75 378.75C440.25 385.75 435.5 392.75 435.5 402C435.5 411.75 441.75 419 455 419L569.5 419C579.75 419 586.25 412 586.25 401.75C586.25 390.75 579.5 384.5 569.5 384.5L487.25 384.5L487.25 382L539 314.5C570.25 274.5 580.75 250.25 580.75 221.5C580.75 177.75 552.25 145.25 507.75 145.25C466.25 145.25 435.75 180.25 435.75 214.75Z" fill="black" fill-opacity="0.85"/>
 </g>
</svg>
