<?xml version="1.0" encoding="UTF-8"?>
<!--Generator: Apple Native CoreSVG 326-->
<!DOCTYPE svg
PUBLIC "-//W3C//DTD SVG 1.1//EN"
       "http://www.w3.org/Graphics/SVG/1.1/DTD/svg11.dtd">
<svg version="1.1" xmlns="http://www.w3.org/2000/svg" xmlns:xlink="http://www.w3.org/1999/xlink" viewBox="0 0 749.5 570.75">
 <g>
  <rect height="570.75" opacity="0" width="749.5" x="0" y="0"/>
  <path d="M749.5 236.5L749.5 333.75C749.5 502 686.5 570.25 503.75 570.25L245.75 570.25C63 570.25 0 502 0 333.75L0 236.5C0 68.25 63 0 245.75 0L503.75 0C686.5 0 749.5 68.25 749.5 236.5ZM438.25 194.75C436.5 201.25 435.75 207 435.75 212.5C435.75 222 442 229.75 453.5 229.75C463.75 229.75 469.25 225.5 472.25 215.5C477.25 194.75 488.5 180.25 509 180.25C532.25 180.25 544 198.5 544 222C544 247.25 529.25 266.25 503.25 266.25L494 266.25C483.75 266.25 477.75 272.5 477.75 282C477.75 291.5 484.25 297.5 494 297.5L503.5 297.5C533.25 297.5 549.75 313.75 549.75 344.25C549.75 368.75 537 390 510.25 390C484.75 390 472.5 372.25 468.75 355.75C466 345.75 460 340.75 450.25 340.75C438.75 340.75 431.25 347.75 431.25 359C431.25 364.75 432.25 371 433.75 376.25C443.25 406.5 475 424.25 510.25 424.25C556.25 424.25 591.25 394.5 591.25 345.5C591.25 305.75 568.25 284 539 281L539 280C569 272 583.5 245.25 583.5 217.25C583.5 172.75 551.25 146.5 509 146.5C475.25 146.5 447.75 165.75 438.25 194.75ZM325.5 173L276.5 363.25L274.75 363.25L224.75 173C220.75 156.25 210.75 148 194.75 148C176.25 148 164.75 159.25 164.75 178L164.75 403.25C164.75 415.5 172.25 423.5 183.75 423.5C195.25 423.5 202.75 415.5 202.75 403.25L202.75 214.5L204.75 214.5L253.25 398.75C256.5 410.5 263.25 419 275.75 419C288 419 294.25 410.75 297.5 398.5L346.25 214.5L348 214.5L348 403.25C348 415.75 355 423.5 367 423.5C379.25 423.5 386 415.5 386 403.25L386 178C386 158.5 374.75 148 355.75 148C339 148 329.5 156.25 325.5 173Z" fill="black" fill-opacity="0.85"/>
 </g>
</svg>
