<?xml version="1.0" encoding="UTF-8"?>
<!--Generator: Apple Native CoreSVG 326-->
<!DOCTYPE svg
PUBLIC "-//W3C//DTD SVG 1.1//EN"
       "http://www.w3.org/Graphics/SVG/1.1/DTD/svg11.dtd">
<svg version="1.1" xmlns="http://www.w3.org/2000/svg" xmlns:xlink="http://www.w3.org/1999/xlink" viewBox="0 0 749.5 570.75">
 <g>
  <rect height="570.75" opacity="0" width="749.5" x="0" y="0"/>
  <path d="M245.75 570.25L503.75 570.25C686.5 570.25 749.5 502 749.5 333.75L749.5 236.5C749.5 68.25 686.5 0 503.75 0L245.75 0C63 0 0 68.25 0 236.5L0 333.75C0 502 63 570.25 245.75 570.25ZM245.75 526C92.5 526 44.25 474.5 44.25 333.75L44.25 236.5C44.25 95.75 92.5 44.5 245.75 44.5L503.75 44.5C657 44.5 705.25 95.75 705.25 236.5L705.25 333.75C705.25 474.5 657 526 503.75 526Z" fill="black" fill-opacity="0.85"/>
  <path d="M188.5 420.25C199.75 420.25 207 412.5 207 400.5L207 215.75L208.75 215.75L256.75 396.25C259.5 407.5 266.25 415.5 278.25 415.5C290.25 415.5 296.5 407.75 299.5 396L347.25 215.75L349 215.75L349 400.5C349 412.75 355.75 420.25 367.25 420.25C379.25 420.25 385.75 412.25 385.75 400.5L385.75 180.25C385.75 161.5 374.75 151.25 356.5 151.25C340.25 151.25 331 159.25 327 175.5L279 361.75L277.25 361.75L228.5 175.5C224.5 159.25 214.75 151.25 199.5 151.25C181.25 151.25 170.25 162.25 170.25 180.25L170.25 400.5C170.25 412.25 177.5 420.25 188.5 420.25ZM507 421C551.75 421 586 392 586 344C586 305.25 563.5 284 535 281L535 280C564.25 272.25 578.25 246.25 578.25 218.75C578.25 175.5 546.75 149.75 505.75 149.75C472.75 149.75 445.75 168.5 436.75 197C435 203.25 434.25 209 434.25 214.25C434.25 223.5 440.5 231 451.5 231C461.5 231 466.75 227 469.5 217C474.5 196.75 485.5 182.5 505.75 182.5C528.5 182.5 540 200.5 540 223.5C540 248.25 525.5 266.75 500.25 266.75L491 266.75C481 266.75 475.25 272.75 475.25 282C475.25 291.25 481.5 297 491 297L500.5 297C529.5 297 545.75 313 545.75 343C545.75 367 533 387.75 507 387.75C482 387.75 470 370.25 466.25 354C463.75 344.5 457.75 339.5 448.25 339.5C437.25 339.5 430 346.25 430 357.25C430 362.75 431 369 432.5 374C441.75 403.5 472.5 421 507 421Z" fill="black" fill-opacity="0.85"/>
 </g>
</svg>
