<?xml version="1.0" encoding="UTF-8"?>
<!--Generator: Apple Native CoreSVG 326-->
<!DOCTYPE svg
PUBLIC "-//W3C//DTD SVG 1.1//EN"
       "http://www.w3.org/Graphics/SVG/1.1/DTD/svg11.dtd">
<svg version="1.1" xmlns="http://www.w3.org/2000/svg" xmlns:xlink="http://www.w3.org/1999/xlink" viewBox="0 0 749.5 570.75">
 <g>
  <rect height="570.75" opacity="0" width="749.5" x="0" y="0"/>
  <path d="M245.75 570.25L503.75 570.25C686.5 570.25 749.5 502 749.5 333.75L749.5 236.5C749.5 68.25 686.5 0 503.75 0L245.75 0C63 0 0 68.25 0 236.5L0 333.75C0 502 63 570.25 245.75 570.25ZM245.75 526C92.5 526 44.25 474.5 44.25 333.75L44.25 236.5C44.25 95.75 92.5 44.5 245.75 44.5L503.75 44.5C657 44.5 705.25 95.75 705.25 236.5L705.25 333.75C705.25 474.5 657 526 503.75 526Z" fill="black" fill-opacity="0.85"/>
  <path d="M184.5 420.25C195.75 420.25 203 412.5 203 400.5L203 215.75L204.75 215.75L252.75 396.25C255.5 407.5 262.25 415.5 274.25 415.5C286.25 415.5 292.5 407.75 295.5 396L343.5 215.75L345 215.75L345 400.5C345 412.75 352 420.25 363.25 420.25C375.25 420.25 381.75 412.25 381.75 400.5L381.75 180.25C381.75 161.5 370.75 151.25 352.75 151.25C336.25 151.25 327 159.25 323 175.5L275 361.75L273.5 361.75L224.5 175.5C220.5 159.25 210.75 151.25 195.5 151.25C177.25 151.25 166.25 162.25 166.25 180.25L166.25 400.5C166.25 412.25 173.5 420.25 184.5 420.25ZM542.75 419.5C553.25 419.5 562 412.5 562 399.25L562 362L575.75 362C586.5 362 592 355 592 345.25C592 336 586.75 329 575.75 329L562 329L562 181.25C562 161.25 548.75 150.75 530.75 150.75C511 150.75 501.75 161 493.5 178.75L430.75 311.5C426 322.5 424.25 329.75 424.25 338.75C424.25 352.5 433.75 362 448 362L523.25 362L523.25 399.25C523.25 414 533.5 419.5 542.75 419.5ZM524 329.75L459.25 329.75L459.25 328L522.75 187.75L524 187.75Z" fill="black" fill-opacity="0.85"/>
 </g>
</svg>
