<?xml version="1.0" encoding="UTF-8"?>
<!--Generator: Apple Native CoreSVG 326-->
<!DOCTYPE svg
PUBLIC "-//W3C//DTD SVG 1.1//EN"
       "http://www.w3.org/Graphics/SVG/1.1/DTD/svg11.dtd">
<svg version="1.1" xmlns="http://www.w3.org/2000/svg" xmlns:xlink="http://www.w3.org/1999/xlink" viewBox="0 0 749.5 570.75">
 <g>
  <rect height="570.75" opacity="0" width="749.5" x="0" y="0"/>
  <path d="M749.5 236.5L749.5 333.75C749.5 502 686.5 570.25 503.75 570.25L245.75 570.25C63 570.25 0 502 0 333.75L0 236.5C0 68.25 63 0 245.75 0L503.75 0C686.5 0 749.5 68.25 749.5 236.5ZM321.25 173L272.25 363.25L270.5 363.25L221 173C216.75 156.25 206.75 148 191 148C172.25 148 160.75 159.25 160.75 178L160.75 403.25C160.75 415.5 168.25 423.5 179.5 423.5C191.25 423.5 198.75 415.5 198.75 403.25L198.75 214.5L200.5 214.5L249.5 398.75C252.25 410.5 259.25 419 271.5 419C284 419 290.5 410.75 293.5 398.5L342.5 214.5L344 214.5L344 403.25C344 415.75 351.25 423.5 362.75 423.5C375.25 423.5 382 415.5 382 403.25L382 178C382 158.5 370.5 148 352 148C335 148 325.5 156.25 321.25 173ZM496 176.25L432 312C427.25 323.25 425.25 330.75 425.25 340C425.25 354.25 435.25 364 449.75 364L526.75 364L526.75 401.75C526.75 417 537.25 423 547 423C557.75 423 566.75 415.75 566.75 401.75L566.75 364L580.75 364C592 364 597.5 356.75 597.5 346.75C597.5 337.25 592 330 580.75 330L566.75 330L566.75 179C566.75 158 553 147.5 534.5 147.5C514 147.5 504.5 158 496 176.25ZM527.5 330.75L461.5 330.75L461.5 329L526.25 185.5L527.5 185.5Z" fill="black" fill-opacity="0.85"/>
 </g>
</svg>
