<?xml version="1.0" encoding="UTF-8"?>
<!--Generator: Apple Native CoreSVG 326-->
<!DOCTYPE svg
PUBLIC "-//W3C//DTD SVG 1.1//EN"
       "http://www.w3.org/Graphics/SVG/1.1/DTD/svg11.dtd">
<svg version="1.1" xmlns="http://www.w3.org/2000/svg" xmlns:xlink="http://www.w3.org/1999/xlink" viewBox="0 0 749.5 570.75">
 <g>
  <rect height="570.75" opacity="0" width="749.5" x="0" y="0"/>
  <path d="M245.75 570.25L503.75 570.25C686.5 570.25 749.5 502 749.5 333.75L749.5 236.5C749.5 68.25 686.5 0 503.75 0L245.75 0C63 0 0 68.25 0 236.5L0 333.75C0 502 63 570.25 245.75 570.25ZM245.75 526C92.5 526 44.25 474.5 44.25 333.75L44.25 236.5C44.25 95.75 92.5 44.5 245.75 44.5L503.75 44.5C657 44.5 705.25 95.75 705.25 236.5L705.25 333.75C705.25 474.5 657 526 503.75 526Z" fill="black" fill-opacity="0.85"/>
  <path d="M248 418.75C261.75 418.75 268.5 410.25 268.5 397.5L268.5 326L305 326C353 326 381 289 381 240.25C381 192 353.25 154.5 307.25 154.5L247.75 154.5C236.25 154.5 227.5 162 227.5 176L227.5 397.5C227.5 410.75 234.75 418.75 248 418.75ZM268.5 293L268.5 188L297 188C326 188 340 208.75 340 240.25C340 270.5 327 293 296.75 293ZM486.5 419C497.5 419 507 409.75 507 398.25L507 173.75C507 159.5 497.75 151 483.5 151C471.75 151 462 157.25 455.25 162.75L417.5 192.5C412.5 196.5 408.75 201.75 408.75 209C408.75 218 414.75 224.25 423.5 224.25C428 224.25 430.75 222.75 433.5 220.5L465.75 194.75L465.75 398.25C465.75 409.75 475.25 419 486.5 419Z" fill="black" fill-opacity="0.85"/>
 </g>
</svg>
