<?xml version="1.0" encoding="UTF-8"?>
<!--Generator: Apple Native CoreSVG 326-->
<!DOCTYPE svg
PUBLIC "-//W3C//DTD SVG 1.1//EN"
       "http://www.w3.org/Graphics/SVG/1.1/DTD/svg11.dtd">
<svg version="1.1" xmlns="http://www.w3.org/2000/svg" xmlns:xlink="http://www.w3.org/1999/xlink" viewBox="0 0 749.5 570.75">
 <g>
  <rect height="570.75" opacity="0" width="749.5" x="0" y="0"/>
  <path d="M749.5 236.5L749.5 333.75C749.5 502 686.5 570.25 503.75 570.25L245.75 570.25C63 570.25 0 502 0 333.75L0 236.5C0 68.25 63 0 245.75 0L503.75 0C686.5 0 749.5 68.25 749.5 236.5ZM457.25 159.5L418.75 190.25C413.5 194.25 409.75 199.75 409.75 207.25C409.75 216.5 416 223 425 223C429.5 223 432.5 221.5 435.25 219L468 192.75L468 400.75C468 412.75 478 422.25 489.5 422.25C501 422.25 510.75 412.75 510.75 400.75L510.75 171.25C510.75 156.5 501.25 147.5 486.5 147.5C474.25 147.5 464.25 154.25 457.25 159.5ZM244.75 151C232.75 151 223.75 159 223.75 173.5L223.75 400C223.75 413.75 231.25 422 245 422C259.25 422 266.25 413.5 266.25 400L266.25 327.25L303.5 327.25C352.75 327.25 381.25 289.25 381.25 239.25C381.25 189.75 353 151 305.75 151ZM339 239.25C339 270.25 325.75 293.25 295 293.25L266.25 293.25L266.25 186L295.25 186C324.75 186 339 207 339 239.25Z" fill="black" fill-opacity="0.85"/>
 </g>
</svg>
