<?xml version="1.0" encoding="UTF-8"?>
<!--Generator: Apple Native CoreSVG 326-->
<!DOCTYPE svg
PUBLIC "-//W3C//DTD SVG 1.1//EN"
       "http://www.w3.org/Graphics/SVG/1.1/DTD/svg11.dtd">
<svg version="1.1" xmlns="http://www.w3.org/2000/svg" xmlns:xlink="http://www.w3.org/1999/xlink" viewBox="0 0 749.5 570.75">
 <g>
  <rect height="570.75" opacity="0" width="749.5" x="0" y="0"/>
  <path d="M749.5 236.5L749.5 333.75C749.5 502 686.5 570.25 503.75 570.25L245.75 570.25C63 570.25 0 502 0 333.75L0 236.5C0 68.25 63 0 245.75 0L503.75 0C686.5 0 749.5 68.25 749.5 236.5ZM226.75 151C215 151 206 159 206 173.5L206 400C206 413.75 213.5 422 227 422C241.25 422 248.25 413.5 248.25 400L248.25 327.25L285.5 327.25C334.75 327.25 363.5 289.25 363.5 239.25C363.5 189.75 335 151 287.75 151ZM397.75 214.75C397.75 225.25 404 233.25 415.25 233.25C424.75 233.25 430.75 228.75 433.5 219.25C439.5 195 448.75 179.25 469.5 179.25C491.75 179.25 503.25 199.5 503.25 223.25C503.25 249.5 487 275.25 468.5 299.25L407.75 378.75C402.5 385.75 397.25 393 397.25 402C397.25 411.75 404 419 416.75 419L531.25 419C541.75 419 548 412 548 401.75C548 390.75 541.25 384.5 531.25 384.5L449 384.5L449 382L500.75 314.5C532.5 274.5 542.75 250.25 542.75 221.5C542.75 177.75 514.5 145.25 469.5 145.25C428.25 145.25 397.75 180.25 397.75 214.75ZM321.25 239.25C321.25 270.25 308 293.25 277 293.25L248.25 293.25L248.25 186L277.25 186C306.75 186 321.25 207 321.25 239.25Z" fill="black" fill-opacity="0.85"/>
 </g>
</svg>
