<?xml version="1.0" encoding="UTF-8"?>
<!--Generator: Apple Native CoreSVG 326-->
<!DOCTYPE svg
PUBLIC "-//W3C//DTD SVG 1.1//EN"
       "http://www.w3.org/Graphics/SVG/1.1/DTD/svg11.dtd">
<svg version="1.1" xmlns="http://www.w3.org/2000/svg" xmlns:xlink="http://www.w3.org/1999/xlink" viewBox="0 0 749.5 570.75">
 <g>
  <rect height="570.75" opacity="0" width="749.5" x="0" y="0"/>
  <path d="M245.75 570.25L503.75 570.25C686.5 570.25 749.5 502 749.5 333.75L749.5 236.5C749.5 68.25 686.5 0 503.75 0L245.75 0C63 0 0 68.25 0 236.5L0 333.75C0 502 63 570.25 245.75 570.25ZM245.75 526C92.5 526 44.25 474.5 44.25 333.75L44.25 236.5C44.25 95.75 92.5 44.5 245.75 44.5L503.75 44.5C657 44.5 705.25 95.75 705.25 236.5L705.25 333.75C705.25 474.5 657 526 503.75 526Z" fill="black" fill-opacity="0.85"/>
  <path d="M226.25 418.75C240 418.75 246.75 410.25 246.75 397.5L246.75 326L283.25 326C331.25 326 359 289 359 240.25C359 192 331.5 154.5 285.5 154.5L226 154.5C214.5 154.5 205.75 162 205.75 176L205.75 397.5C205.75 410.75 213 418.75 226.25 418.75ZM246.75 293L246.75 188L275.25 188C304.25 188 318.25 208.75 318.25 240.25C318.25 270.5 305.25 293 275 293ZM470.25 421C515 421 549.25 392 549.25 344C549.25 305.25 526.75 284 498.25 281L498.25 280C527.5 272.25 541.5 246.25 541.5 218.75C541.5 175.5 510.25 149.75 469 149.75C436 149.75 409.25 168.5 400 197C398.25 203.25 397.5 209 397.5 214.25C397.5 223.5 403.75 231 415 231C425 231 430.25 227 433 217C437.75 196.75 449 182.5 469 182.5C491.75 182.5 503.25 200.5 503.25 223.5C503.25 248.25 488.75 266.75 463.5 266.75L454.25 266.75C444.5 266.75 438.5 272.75 438.5 282C438.5 291.25 445 297 454.25 297L464 297C492.75 297 509 313 509 343C509 367 496.5 387.75 470.5 387.75C445.25 387.75 433.25 370.25 429.5 354C427 344.5 421 339.5 411.75 339.5C400.75 339.5 393.25 346.25 393.25 357.25C393.25 362.75 394.25 369 396 374C405 403.5 436 421 470.25 421Z" fill="black" fill-opacity="0.85"/>
 </g>
</svg>
