<?xml version="1.0" encoding="UTF-8"?>
<!--Generator: Apple Native CoreSVG 326-->
<!DOCTYPE svg
PUBLIC "-//W3C//DTD SVG 1.1//EN"
       "http://www.w3.org/Graphics/SVG/1.1/DTD/svg11.dtd">
<svg version="1.1" xmlns="http://www.w3.org/2000/svg" xmlns:xlink="http://www.w3.org/1999/xlink" viewBox="0 0 749.5 570.75">
 <g>
  <rect height="570.75" opacity="0" width="749.5" x="0" y="0"/>
  <path d="M749.5 236.5L749.5 333.75C749.5 502 686.5 570.25 503.75 570.25L245.75 570.25C63 570.25 0 502 0 333.75L0 236.5C0 68.25 63 0 245.75 0L503.75 0C686.5 0 749.5 68.25 749.5 236.5ZM400.5 194.75C398.75 201.25 398 207 398 212.5C398 222 404.5 229.75 416 229.75C426.25 229.75 431.75 225.5 434.5 215.5C439.5 194.75 451 180.25 471.25 180.25C494.75 180.25 506.25 198.5 506.25 222C506.25 247.25 491.5 266.25 465.75 266.25L456.25 266.25C446.25 266.25 440 272.5 440 282C440 291.5 446.75 297.5 456.25 297.5L466.25 297.5C495.5 297.5 512.25 313.75 512.25 344.25C512.25 368.75 499.5 390 472.75 390C447 390 435.25 372.25 431 355.75C428.5 345.75 422.5 340.75 412.75 340.75C401.25 340.75 393.5 347.75 393.5 359C393.5 364.75 394.75 371 396.5 376.25C405.75 406.5 437.5 424.25 472.5 424.25C518.75 424.25 553.75 394.5 553.75 345.5C553.75 305.75 530.5 284 501.5 281L501.5 280C531.5 272 545.75 245.25 545.75 217.25C545.75 172.75 513.75 146.5 471.25 146.5C437.5 146.5 410 165.75 400.5 194.75ZM222.25 151C210.25 151 201.25 159 201.25 173.5L201.25 400C201.25 413.75 208.75 422 222.5 422C236.5 422 243.75 413.5 243.75 400L243.75 327.25L281 327.25C330.25 327.25 358.5 289.25 358.5 239.25C358.5 189.75 330.5 151 283 151ZM316.5 239.25C316.5 270.25 303.25 293 272.5 293L243.75 293L243.75 185.75L272.75 185.75C302.25 185.75 316.5 207 316.5 239.25Z" fill="black" fill-opacity="0.85"/>
 </g>
</svg>
