<?xml version="1.0" encoding="UTF-8"?>
<!--Generator: Apple Native CoreSVG 326-->
<!DOCTYPE svg
PUBLIC "-//W3C//DTD SVG 1.1//EN"
       "http://www.w3.org/Graphics/SVG/1.1/DTD/svg11.dtd">
<svg version="1.1" xmlns="http://www.w3.org/2000/svg" xmlns:xlink="http://www.w3.org/1999/xlink" viewBox="0 0 749.5 570.75">
 <g>
  <rect height="570.75" opacity="0" width="749.5" x="0" y="0"/>
  <path d="M245.75 570.25L503.75 570.25C686.5 570.25 749.5 502 749.5 333.75L749.5 236.5C749.5 68.25 686.5 0 503.75 0L245.75 0C63 0 0 68.25 0 236.5L0 333.75C0 502 63 570.25 245.75 570.25ZM245.75 526C92.5 526 44.25 474.5 44.25 333.75L44.25 236.5C44.25 95.75 92.5 44.5 245.75 44.5L503.75 44.5C657 44.5 705.25 95.75 705.25 236.5L705.25 333.75C705.25 474.5 657 526 503.75 526Z" fill="black" fill-opacity="0.85"/>
  <path d="M229.75 418.75C243.5 418.75 250.25 410.25 250.25 397.5L250.25 326L286.75 326C334.75 326 362.75 289 362.75 240.25C362.75 192 335 154.5 289 154.5L229.5 154.5C218 154.5 209.25 162 209.25 176L209.25 397.5C209.25 410.75 216.5 418.75 229.75 418.75ZM250.25 293L250.25 188L278.75 188C307.75 188 321.75 208.75 321.75 240.25C321.75 270.5 308.75 293 278.5 293ZM507.25 419.5C517.75 419.5 526.5 412.5 526.5 399.25L526.5 362L540.25 362C551 362 556.5 355 556.5 345.25C556.5 336 551.25 329 540.25 329L526.5 329L526.5 181.25C526.5 161.25 513.25 150.75 495.25 150.75C475.5 150.75 466.25 161 458 178.75L395.25 311.5C390.5 322.5 388.75 329.75 388.75 338.75C388.75 352.5 398.25 362 412.5 362L487.75 362L487.75 399.25C487.75 414 498 419.5 507.25 419.5ZM488.5 329.75L423.75 329.75L423.75 328L487.25 187.75L488.5 187.75Z" fill="black" fill-opacity="0.85"/>
 </g>
</svg>
