<?xml version="1.0" encoding="UTF-8"?>
<!--Generator: Apple Native CoreSVG 326-->
<!DOCTYPE svg
PUBLIC "-//W3C//DTD SVG 1.1//EN"
       "http://www.w3.org/Graphics/SVG/1.1/DTD/svg11.dtd">
<svg version="1.1" xmlns="http://www.w3.org/2000/svg" xmlns:xlink="http://www.w3.org/1999/xlink" viewBox="0 0 473.25 843.94">
 <g>
  <rect height="843.94" opacity="0" width="473.25" x="0" y="0"/>
  <path d="M0 490.345C0 607.595 23.5 699.095 79.5 791.095C110 840.345 160.75 854.595 214.5 828.595L277.25 797.845C334.25 770.345 360.25 735.345 360.25 685.595C360.25 661.595 351.5 642.095 351.5 627.595C351.5 611.595 362.75 601.595 381.5 601.595L441 601.595C460 601.595 473.25 586.845 473.25 566.345L473.25 485.345C473.25 463.095 458.25 447.345 437 447.345L357.75 447.345C328.5 447.345 314.25 430.595 314.25 401.345C314.25 329.595 327 246.345 377.5 131.595C400.25 79.3452 384 41.3452 329.5 19.5952L298.25 7.5952C251.5-10.9048 212 6.5952 183 36.3452C51.5 174.345 0 358.095 0 490.345ZM44.25 490.345C44.25 367.595 89.5 197.845 216.25 65.0952C236.25 44.8452 252.25 37.5952 285 49.8452L316.75 61.8452C341.25 71.0952 348 89.5952 336.75 114.095C280.75 239.345 269.5 330.845 269.5 383.345C269.5 527.095 318.25 635.095 318.25 678.595C318.25 716.595 303.75 736.345 256.25 760.095L199 789.095C166.25 805.595 135.75 797.595 117.25 768.095C64.75 681.595 44.25 602.345 44.25 490.345Z" fill="black" fill-opacity="0.85"/>
 </g>
</svg>
