<?xml version="1.0" encoding="UTF-8"?>
<!--Generator: Apple Native CoreSVG 326-->
<!DOCTYPE svg
PUBLIC "-//W3C//DTD SVG 1.1//EN"
       "http://www.w3.org/Graphics/SVG/1.1/DTD/svg11.dtd">
<svg version="1.1" xmlns="http://www.w3.org/2000/svg" xmlns:xlink="http://www.w3.org/1999/xlink" viewBox="0 0 473.25 843.94">
 <g>
  <rect height="843.94" opacity="0" width="473.25" x="0" y="0"/>
  <path d="M473.25 490.345C473.25 358.095 421.75 174.345 290.25 36.3452C261.25 6.5952 221.75-10.9048 175 7.5952L143.75 19.5952C89.25 41.3452 73 79.3452 95.75 131.595C146.25 246.345 159 329.595 159 401.345C159 430.595 144.75 447.345 115.5 447.345L36.25 447.345C15 447.345 0 463.095 0 485.345L0 566.345C0 586.845 13.25 601.595 32.25 601.595L91.75 601.595C110.5 601.595 121.75 611.595 121.75 627.595C121.75 642.095 113 661.595 113 685.595C113 735.345 139 770.345 196 797.845L258.75 828.595C312.5 854.595 363.25 840.345 393.75 791.095C449.75 699.095 473.25 607.595 473.25 490.345Z" fill="black" fill-opacity="0.85"/>
 </g>
</svg>
