<?xml version="1.0" encoding="UTF-8"?>
<!--Generator: Apple Native CoreSVG 326-->
<!DOCTYPE svg
PUBLIC "-//W3C//DTD SVG 1.1//EN"
       "http://www.w3.org/Graphics/SVG/1.1/DTD/svg11.dtd">
<svg version="1.1" xmlns="http://www.w3.org/2000/svg" xmlns:xlink="http://www.w3.org/1999/xlink" viewBox="0 0 540 689.75">
 <g>
  <rect height="689.75" opacity="0" width="540" x="0" y="0"/>
  <path d="M540 93.5L539.75 596.5C539.75 655 504.75 689.75 445.75 689.75L183.75 689.75C124.5 689.75 89.75 655 89.75 596.5L89.75 420.25L66.25 389.5C20 329.25 0 277 0 191.5L0 136.5C0 52.75 52.5 0 136.25 0L446.75 0C503.5 0 540 37.25 540 93.5ZM212.5 524C201.75 524 193.25 532.5 193.25 543C193.25 553.5 201.75 562 212.5 562L419 562C429.25 562 437.75 553.5 437.75 543C437.75 532.5 429.25 524 419 524ZM212.5 401.5C201.75 401.5 193.25 410 193.25 420.75C193.25 431 201.75 439.5 212.5 439.5L419 439.5C429.25 439.5 437.75 431 437.75 420.75C437.75 410 429.25 401.5 419 401.5ZM161.75 279.75C151.5 279.75 143 288.25 143 298.75C143 309.25 151.5 317.75 161.75 317.75L419 317.75C429.25 317.75 437.75 309.25 437.75 298.75C437.75 288.25 429.25 279.75 419 279.75ZM132.25 157.5C121.75 157.5 113.25 166 113.25 176.5C113.25 186.75 121.75 195.25 132.25 195.25L419 195.25C429.25 195.25 437.75 186.75 437.75 176.5C437.75 166 429.25 157.5 419 157.5Z" fill="black" fill-opacity="0.85"/>
 </g>
</svg>
