<?xml version="1.0" encoding="UTF-8"?>
<!--Generator: Apple Native CoreSVG 326-->
<!DOCTYPE svg
PUBLIC "-//W3C//DTD SVG 1.1//EN"
       "http://www.w3.org/Graphics/SVG/1.1/DTD/svg11.dtd">
<svg version="1.1" xmlns="http://www.w3.org/2000/svg" xmlns:xlink="http://www.w3.org/1999/xlink" viewBox="0 0 651.25 651.75">
 <g>
  <rect height="651.75" opacity="0" width="651.25" x="0" y="0"/>
  <path d="M651.25 325.75C651.25 505 505 651.25 325.5 651.25C146.25 651.25 0 505 0 325.75C0 146.25 146.25 0 325.5 0C505 0 651.25 146.25 651.25 325.75ZM301.75 195.75L301.75 301.75L196 301.75C181.5 301.75 171.5 311.5 171.5 326C171.5 339.75 181.75 349.25 196 349.25L301.75 349.25L301.75 455.5C301.75 469.25 311.5 479.5 325.25 479.5C339.5 479.5 349.25 469.5 349.25 455.5L349.25 349.25L455.5 349.25C469.25 349.25 479.5 339.75 479.5 326C479.5 311.5 469.5 301.75 455.5 301.75L349.25 301.75L349.25 195.75C349.25 181.5 339.5 171.5 325.25 171.5C311.5 171.5 301.75 181.75 301.75 195.75Z" fill="black" fill-opacity="0.85"/>
 </g>
</svg>
