<?xml version="1.0" encoding="UTF-8"?>
<!--Generator: Apple Native CoreSVG 326-->
<!DOCTYPE svg
PUBLIC "-//W3C//DTD SVG 1.1//EN"
       "http://www.w3.org/Graphics/SVG/1.1/DTD/svg11.dtd">
<svg version="1.1" xmlns="http://www.w3.org/2000/svg" xmlns:xlink="http://www.w3.org/1999/xlink" viewBox="0 0 651.25 651.75">
 <g>
  <rect height="651.75" opacity="0" width="651.25" x="0" y="0"/>
  <path d="M325.5 651.25C505.25 651.25 651.25 505.5 651.25 325.75C651.25 146 505.25 0 325.5 0C145.75 0 0 146 0 325.75C0 505.5 145.75 651.25 325.5 651.25ZM325.5 604.75C171.25 604.75 46.5 480 46.5 325.75C46.5 171.5 171.25 46.75 325.5 46.75C479.75 46.75 604.5 171.5 604.5 325.75C604.5 480 479.75 604.75 325.5 604.75Z" fill="black" fill-opacity="0.85"/>
  <path d="M177.75 325.75C177.75 339 187.25 348.25 201.25 348.25L302.25 348.25L302.25 449.5C302.25 463.25 311.75 473 325 473C338.75 473 348.25 463.5 348.25 449.5L348.25 348.25L449.5 348.25C463.25 348.25 473 339 473 325.75C473 311.75 463.5 302.25 449.5 302.25L348.25 302.25L348.25 201.25C348.25 187.25 338.75 177.5 325 177.5C311.75 177.5 302.25 187.25 302.25 201.25L302.25 302.25L201.25 302.25C187.25 302.25 177.75 311.75 177.75 325.75Z" fill="black" fill-opacity="0.85"/>
 </g>
</svg>
