<?xml version="1.0" encoding="UTF-8"?>
<!--Generator: Apple Native CoreSVG 326-->
<!DOCTYPE svg
PUBLIC "-//W3C//DTD SVG 1.1//EN"
       "http://www.w3.org/Graphics/SVG/1.1/DTD/svg11.dtd">
<svg version="1.1" xmlns="http://www.w3.org/2000/svg" xmlns:xlink="http://www.w3.org/1999/xlink" viewBox="0 0 733 554.25">
 <g>
  <rect height="554.25" opacity="0" width="733" x="0" y="0"/>
  <path d="M733 94L733 298C733 469 653.75 553.75 470.75 553.75L262.25 553.75C79.5 553.75 0 469 0 298L0 94C0 32 32.25 0 95 0L638.25 0C700.75 0 733 32.25 733 94ZM294.5 138.75C280 138.75 271.75 149.75 271.75 164.5L271.75 386.5C271.75 401.25 280.25 411.25 294.75 411.25C309.75 411.25 318.75 401.5 318.75 386.5L318.75 311L371.5 311L422 396.75C428.25 407.25 435 411.25 445 411.25C458 411.25 467.25 402.75 467.25 391.25C467.25 385.5 465.25 380 461.5 374.5L417.25 304C450.5 292.25 472.75 261.75 472.75 225.5C472.75 173.5 434.75 138.75 376.75 138.75ZM426.75 226.25C426.75 257.5 406 274.25 372 274.25L318.75 274.25L318.75 176.5L372.75 176.5C405.25 176.5 426.75 195 426.75 226.25Z" fill="black" fill-opacity="0.85"/>
 </g>
</svg>
