<?xml version="1.0" encoding="UTF-8"?>
<!--Generator: Apple Native CoreSVG 326-->
<!DOCTYPE svg
PUBLIC "-//W3C//DTD SVG 1.1//EN"
       "http://www.w3.org/Graphics/SVG/1.1/DTD/svg11.dtd">
<svg version="1.1" xmlns="http://www.w3.org/2000/svg" xmlns:xlink="http://www.w3.org/1999/xlink" viewBox="0 0 722.5 939.438">
 <g>
  <rect height="939.438" opacity="0" width="722.5" x="0" y="0"/>
  <path d="M722.5 469.594C722.5 668.844 560.5 830.844 361 830.844C161.5 830.844 0 668.844 0 469.594C0 311.183 102.081 176.159 244.334 127.783C241.337 143.454 244.534 159.104 252.593 171.704C130.727 215.617 44.25 332.274 44.25 469.594C44.25 644.844 185.5 786.594 361 786.594C536.5 786.594 678.25 645.094 678.25 469.594C678.25 332.003 591.371 215.404 469.268 171.603C477.295 159.02 480.492 143.383 477.474 127.668C619.983 175.92 722.5 310.891 722.5 469.594Z" fill="black" fill-opacity="0.85"/>
  <path d="M304.25 159.094L417.75 159.094C437.75 159.094 445 138.844 433 122.844L377.25 48.3438C369 37.0938 353.25 37.0938 344.75 48.3438L288.75 123.094C277.25 138.594 283.75 159.094 304.25 159.094Z" fill="black" fill-opacity="0.85"/>
  <path d="M361 724.344C502 724.344 616 610.094 616 469.594C616 328.594 502 215.094 361 215.094C220.5 215.094 106.5 328.594 106.5 469.594C106.5 610.094 220.5 724.344 361 724.344ZM293.75 596.094C280.25 596.094 272.25 586.594 272.25 572.594L272.25 363.594C272.25 349.594 280 339.344 293.5 339.344L371.25 339.344C425.75 339.344 461.5 371.844 461.5 421.094C461.5 455.344 440.75 483.844 409.25 494.844L451 561.344C454.5 566.594 456.25 571.594 456.25 577.094C456.25 588.094 447.5 596.094 435.5 596.094C426 596.094 419.75 592.094 413.75 582.344L366.25 501.594L316.5 501.594L316.5 572.594C316.5 586.844 308 596.094 293.75 596.094ZM316.5 467.094L366.5 467.094C398.75 467.094 418.25 451.094 418.25 421.844C418.25 392.344 398 374.844 367.25 374.844L316.5 374.844Z" fill="black" fill-opacity="0.85"/>
 </g>
</svg>
