<?xml version="1.0" encoding="UTF-8"?>
<!--Generator: Apple Native CoreSVG 326-->
<!DOCTYPE svg
PUBLIC "-//W3C//DTD SVG 1.1//EN"
       "http://www.w3.org/Graphics/SVG/1.1/DTD/svg11.dtd">
<svg version="1.1" xmlns="http://www.w3.org/2000/svg" xmlns:xlink="http://www.w3.org/1999/xlink" viewBox="0 0 939.125 723.25">
 <g>
  <rect height="723.25" opacity="0" width="939.125" x="0" y="0"/>
  <path d="M830.812 361.5C830.812 560.75 669.062 722.5 469.562 722.5C311.003 722.5 176.29 620.325 127.998 478.204C143.661 481.14 159.307 477.915 171.91 469.858C215.77 591.643 332.261 678.25 469.562 678.25C645.062 678.25 786.562 536.75 786.562 361.5C786.562 185.75 645.062 44.25 469.562 44.25C332.119 44.25 215.529 131.036 171.772 253.261C159.188 245.247 143.561 242.031 127.861 244.993C176.088 102.389 311.035 0 469.562 0C668.812 0 830.812 161.75 830.812 361.5Z" fill="black" fill-opacity="0.85"/>
  <path d="M123.062 289.5L48.3125 345.25C36.8125 353.75 37.3125 369.25 48.3125 377.75L123.312 433.75C138.562 445.25 159.062 438.75 159.062 418.25L159.062 304.75C159.062 284.75 138.812 277.5 123.062 289.5Z" fill="black" fill-opacity="0.85"/>
  <path d="M469.562 616C610.062 616 724.312 502 724.312 361.5C724.312 220.5 610.062 106.75 469.562 106.75C328.812 106.75 215.062 220.5 215.062 361.5C215.062 502 328.812 616 469.562 616ZM402.312 488C388.812 488 380.812 478.5 380.812 464.5L380.812 255.5C380.812 241.5 388.562 231.25 402.062 231.25L479.812 231.25C534.312 231.25 570.062 263.75 570.062 313C570.062 347.25 549.312 375.75 517.812 386.75L559.562 453.25C563.062 458.5 564.812 463.5 564.812 469C564.812 480 556.062 488 544.062 488C534.562 488 528.312 484 522.312 474.25L474.812 393.5L425.062 393.5L425.062 464.5C425.062 478.75 416.562 488 402.312 488ZM425.062 359L475.062 359C507.312 359 526.812 343 526.812 313.75C526.812 284.25 506.562 266.75 475.812 266.75L425.062 266.75Z" fill="black" fill-opacity="0.85"/>
 </g>
</svg>
