<?xml version="1.0" encoding="UTF-8"?>
<!--Generator: Apple Native CoreSVG 326-->
<!DOCTYPE svg
PUBLIC "-//W3C//DTD SVG 1.1//EN"
       "http://www.w3.org/Graphics/SVG/1.1/DTD/svg11.dtd">
<svg version="1.1" xmlns="http://www.w3.org/2000/svg" xmlns:xlink="http://www.w3.org/1999/xlink" viewBox="0 0 728.25 810.25">
 <g>
  <rect height="810.25" opacity="0" width="728.25" x="0" y="0"/>
  <path d="M364.25 617C408.696 617 450.134 612.77 487.75 604.592L487.75 619C487.75 679 441.75 714.25 364.25 714.25C286.5 714.25 240.5 679 240.5 619L240.5 604.563C278.18 612.76 319.703 617 364.25 617Z" fill="black" fill-opacity="0.85"/>
  <path d="M364.25 582C565 582 693.5 493 693.5 368.25C693.5 243.75 564.75 154.5 363.75 154.5C163.5 154.5 34.75 243.75 34.75 368.25C34.75 493 163.5 582 364.25 582ZM364.25 535C197 535 84.25 467.25 84.25 368.25C84.25 269.5 197 201.75 363.75 201.75C531 201.75 644.25 269.5 644.25 368.25C644.25 467.25 531.25 535 364.25 535Z" fill="black" fill-opacity="0.85"/>
  <path d="M309 467C298.5 467 291.5 459.5 291.5 447.75L291.5 285C291.5 272.75 298.25 265.25 309 265.25L369.5 265.25C412 265.25 440 290.75 440 329.5C440 356.25 424.5 378.25 400 387.25L432.25 439.25C434.75 443.25 436.25 447 436.25 452C436.25 461 428.75 467.5 419.75 467.5C412.25 467.5 407.75 464.25 403 456.25L364.5 393L327 393L327 447.75C327 459.5 320 467 309 467ZM327 364.75L365.75 364.75C390.25 364.75 404.75 351.75 404.75 330C404.75 308.25 390 294.5 366.25 294.5L327 294.5Z" fill="black" fill-opacity="0.85"/>
  <path d="M286 35.5L348.25 118.75C356.5 129.75 372 129.75 380.25 118.75L442.5 35.5C454.25 20 448 0 427.25 0L301 0C281.25 0 274 19.5 286 35.5Z" fill="black" fill-opacity="0.85"/>
 </g>
</svg>
