<?xml version="1.0" encoding="UTF-8"?>
<!--Generator: Apple Native CoreSVG 326-->
<!DOCTYPE svg
PUBLIC "-//W3C//DTD SVG 1.1//EN"
       "http://www.w3.org/Graphics/SVG/1.1/DTD/svg11.dtd">
<svg version="1.1" xmlns="http://www.w3.org/2000/svg" xmlns:xlink="http://www.w3.org/1999/xlink" viewBox="0 0 722.5 938.688">
 <g>
  <rect height="938.688" opacity="0" width="722.5" x="0" y="0"/>
  <path d="M722.5 469.219C722.5 627.714 619.993 762.64 477.496 810.889C480.475 795.157 477.27 779.534 469.259 766.966C591.367 723.176 678.25 606.617 678.25 469.219C678.25 293.469 536.5 151.969 361 151.969C185.5 151.969 44.25 293.719 44.25 469.219C44.25 606.36 130.749 722.987 252.638 766.878C244.582 779.482 241.359 795.13 244.298 810.794C102.064 762.473 0 627.616 0 469.219C0 269.969 161.5 107.719 361 107.719C560.5 107.719 722.5 269.719 722.5 469.219Z" fill="black" fill-opacity="0.85"/>
  <path d="M304.25 779.719C283.75 779.719 277.25 799.969 288.75 815.469L344.75 890.219C353.25 901.469 369 901.719 377.25 890.219L433 815.719C445 799.719 437.75 779.719 417.75 779.719Z" fill="black" fill-opacity="0.85"/>
  <path d="M361 214.469C220.5 214.469 106.5 328.469 106.5 469.219C106.5 609.969 220.5 723.719 361 723.719C502 723.719 616 609.969 616 469.219C616 328.469 502 214.469 361 214.469ZM293.75 595.719C280.25 595.719 272.25 586.219 272.25 572.219L272.25 363.219C272.25 349.219 280 338.969 293.5 338.969L371.25 338.969C425.75 338.969 461.5 371.469 461.5 420.719C461.5 454.969 440.75 483.469 409.25 494.469L451 560.969C454.5 566.219 456.25 571.219 456.25 576.719C456.25 587.719 447.5 595.719 435.5 595.719C426 595.719 419.75 591.719 413.75 581.969L366.25 501.219L316.5 501.219L316.5 572.219C316.5 586.469 308 595.719 293.75 595.719ZM316.5 466.719L366.5 466.719C398.75 466.719 418.25 450.719 418.25 421.469C418.25 391.969 398 374.469 367.25 374.469L316.5 374.469Z" fill="black" fill-opacity="0.85"/>
 </g>
</svg>
