<?xml version="1.0" encoding="UTF-8"?>
<!--Generator: Apple Native CoreSVG 326-->
<!DOCTYPE svg
PUBLIC "-//W3C//DTD SVG 1.1//EN"
       "http://www.w3.org/Graphics/SVG/1.1/DTD/svg11.dtd">
<svg version="1.1" xmlns="http://www.w3.org/2000/svg" xmlns:xlink="http://www.w3.org/1999/xlink" viewBox="0 0 734.5 618.25">
 <g>
  <rect height="618.25" opacity="0" width="734.5" x="0" y="0"/>
  <path d="M367.25 518.5C411.925 518.5 453.289 514.289 490.75 506.317L490.75 523C490.75 583 444.75 618.25 367.25 618.25C289.5 618.25 243.5 583 243.5 523L243.5 506.259C281.024 514.27 322.473 518.5 367.25 518.5Z" fill="black" fill-opacity="0.85"/>
  <path d="M694.5 272.25C694.5 386.5 571.75 478.5 367.25 478.5C162.75 478.5 40 386.5 40 272.25C40 158.25 162.75 66.25 366.75 66.25C571.75 66.25 694.5 158.25 694.5 272.25ZM314 169.25C303.25 169.25 296.5 176.75 296.5 189L296.5 351.75C296.5 363.5 303.5 371 314 371C325 371 332 363.5 332 351.75L332 297L369.5 297L408 360.25C412.75 368.25 417.25 371.5 424.75 371.5C433.75 371.5 441.25 365 441.25 356C441.25 351 439.75 347.25 437.25 343.25L405 291.25C429.5 282.25 445 260.25 445 233.5C445 194.75 417 169.25 374.5 169.25ZM409.75 234C409.75 255.75 395.25 268.75 370.75 268.75L332 268.75L332 198.5L371.25 198.5C395 198.5 409.75 212.25 409.75 234Z" fill="black" fill-opacity="0.85"/>
 </g>
</svg>
