<?xml version="1.0" encoding="UTF-8"?>
<!--Generator: Apple Native CoreSVG 326-->
<!DOCTYPE svg
PUBLIC "-//W3C//DTD SVG 1.1//EN"
       "http://www.w3.org/Graphics/SVG/1.1/DTD/svg11.dtd">
<svg version="1.1" xmlns="http://www.w3.org/2000/svg" xmlns:xlink="http://www.w3.org/1999/xlink" viewBox="0 0 728.25 618.25">
 <g>
  <rect height="618.25" opacity="0" width="728.25" x="0" y="0"/>
  <path d="M364.25 521C408.696 521 450.134 516.77 487.75 508.592L487.75 523C487.75 583 441.75 618.25 364.25 618.25C286.5 618.25 240.5 583 240.5 523L240.5 508.563C278.18 516.76 319.703 521 364.25 521Z" fill="black" fill-opacity="0.85"/>
  <path d="M364.25 486C565 486 693.5 397 693.5 272.25C693.5 147.75 564.75 58.5 363.75 58.5C163.5 58.5 34.75 147.75 34.75 272.25C34.75 397 163.5 486 364.25 486ZM364.25 439C197 439 84.25 371.25 84.25 272.25C84.25 173.5 197 105.75 363.75 105.75C531 105.75 644.25 173.5 644.25 272.25C644.25 371.25 531.25 439 364.25 439Z" fill="black" fill-opacity="0.85"/>
  <path d="M310.25 368.75C321 368.75 327.75 361.25 327.75 350L327.75 296.25L364.5 296.25L402.25 358.25C407 366 411.25 369 418.5 369C427.25 369 434.5 362.75 434.5 353.75C434.5 349.25 433 345.5 430.5 341.75L399 290.75C423 282 438 260.5 438 234.25C438 196.5 410.75 171.75 369.5 171.75L310.25 171.75C300 171.75 293.75 179 293.75 190.75L293.75 350C293.75 361.25 300.25 368.75 310.25 368.75ZM327.75 268.75L327.75 200L366.25 200C389.5 200 404 213.5 404 234.75C404 256 389.75 268.75 365.75 268.75Z" fill="black" fill-opacity="0.85"/>
 </g>
</svg>
