<?xml version="1.0" encoding="UTF-8"?>
<!--Generator: Apple Native CoreSVG 326-->
<!DOCTYPE svg
PUBLIC "-//W3C//DTD SVG 1.1//EN"
       "http://www.w3.org/Graphics/SVG/1.1/DTD/svg11.dtd">
<svg version="1.1" xmlns="http://www.w3.org/2000/svg" xmlns:xlink="http://www.w3.org/1999/xlink" viewBox="0 0 733 554.25">
 <g>
  <rect height="554.25" opacity="0" width="733" x="0" y="0"/>
  <path d="M262.25 553.75L470.75 553.75C653.75 553.75 733 469 733 298L733 94C733 32.25 700.75 0 638.25 0L95 0C32.25 0 0 32 0 94L0 298C0 469 79.5 553.75 262.25 553.75ZM262.75 509.5C109 509.5 44.25 441.75 44.25 300.5L44.25 96.25C44.25 62 62.25 44.5 96 44.5L637 44.5C670.25 44.5 688.75 62 688.75 96.25L688.75 300.5C688.75 441.75 624 509.5 470.5 509.5Z" fill="black" fill-opacity="0.85"/>
  <path d="M241.75 411.25C254.5 411.25 262.25 403 262.25 389.75L262.25 305L297 305L333.5 394.75C337.25 405.5 343.75 411.25 355 411.25C364.5 411.25 374.25 405.5 374.25 391.5C374.25 388.25 372.75 382.75 370 376.5L336 296.25C362 284 375 257 375 225.75C375 175 345 146.75 295.5 146.75L241.5 146.75C228.25 146.75 220.75 154.75 220.75 168L220.75 389.75C220.75 402.75 228.5 411.25 241.75 411.25ZM262.25 274.25L262.25 179.75L291.75 179.75C318.25 179.75 333.25 198.25 333.25 226.5C333.25 254 320.5 274.25 292 274.25ZM484.25 411C495.25 411 504.5 401.75 504.5 390.25L504.5 165.75C504.5 151.5 495.5 142.75 481 142.75C469.25 142.75 459.75 149.25 453 154.5L415.25 184.5C410.25 188.25 406.5 193.75 406.5 201C406.5 209.75 412.25 216 421 216C425.5 216 428.25 214.75 431.25 212.5L463.5 186.5L463.5 390.25C463.5 401.75 472.75 411 484.25 411Z" fill="black" fill-opacity="0.85"/>
 </g>
</svg>
