<?xml version="1.0" encoding="UTF-8"?>
<!--Generator: Apple Native CoreSVG 326-->
<!DOCTYPE svg
PUBLIC "-//W3C//DTD SVG 1.1//EN"
       "http://www.w3.org/Graphics/SVG/1.1/DTD/svg11.dtd">
<svg version="1.1" xmlns="http://www.w3.org/2000/svg" xmlns:xlink="http://www.w3.org/1999/xlink" viewBox="0 0 733 554.25">
 <g>
  <rect height="554.25" opacity="0" width="733" x="0" y="0"/>
  <path d="M733 94L733 298C733 469 653.75 553.75 470.75 553.75L262.25 553.75C79.5 553.75 0 469 0 298L0 94C0 32 32.25 0 95 0L638.25 0C700.75 0 733 32.25 733 94ZM242.5 147.5C229.25 147.5 221.75 155.5 221.75 168.75L221.75 388.75C221.75 401.75 229.5 410.5 243 410.5C255.25 410.5 263 402 263 388.75L263 305L297.5 305L333.75 394C337.5 404.5 344 410.5 355.25 410.5C364.75 410.5 374.5 404.5 374.5 390.75C374.5 387.25 373 381.75 370 375.75L336.75 296.25C362.5 284 375.25 257 375.25 226C375.25 175.75 345.5 147.5 296.25 147.5ZM452.5 155.5L415 185.25C410 189 406.5 194.25 406.5 201.75C406.5 210.5 412.25 216.75 421 216.75C425.5 216.75 428.25 215.5 431.25 213L463.25 187.5L463.25 389.25C463.25 400.75 472.5 410 483.75 410C495 410 504.25 400.75 504.25 389.25L504.25 166.75C504.25 152.25 495.25 143.75 480.75 143.75C468.75 143.75 459.25 150.25 452.5 155.5ZM333.5 227.25C333.5 254.25 321 274.25 292.75 274.25L263 274.25L263 180.75L292.5 180.75C318.75 180.75 333.5 199 333.5 227.25Z" fill="black" fill-opacity="0.85"/>
 </g>
</svg>
