<?xml version="1.0" encoding="UTF-8"?>
<!--Generator: Apple Native CoreSVG 326-->
<!DOCTYPE svg
PUBLIC "-//W3C//DTD SVG 1.1//EN"
       "http://www.w3.org/Graphics/SVG/1.1/DTD/svg11.dtd">
<svg version="1.1" xmlns="http://www.w3.org/2000/svg" xmlns:xlink="http://www.w3.org/1999/xlink" viewBox="0 0 651.25 651.75">
 <g>
  <rect height="651.75" opacity="0" width="651.25" x="0" y="0"/>
  <path d="M651.25 325.75C651.25 505 505 651.25 325.5 651.25C146.25 651.25 0 505 0 325.75C0 146.25 146.25 0 325.5 0C505 0 651.25 146.25 651.25 325.75ZM203.5 198.75C190.5 198.75 183.25 206.5 183.25 219.75L183.25 435.25C183.25 448 190.75 456.5 204 456.5C216 456.5 223.75 448.25 223.75 435.25L223.75 353L257.5 353L293 440.25C296.5 450.5 303 456.5 314 456.5C323.25 456.5 332.75 450.5 332.75 437C332.75 433.75 331.5 428.25 328.5 422.25L295.75 344.5C321 332.5 333.5 306 333.5 275.75C333.5 226.5 304.25 198.75 256.25 198.75ZM409.25 206.5L372.75 235.5C367.75 239.25 364 244.5 364 251.75C364 260.5 370 266.5 378.5 266.5C382.75 266.5 385.5 265.25 388.5 263L419.75 237.75L419.75 435.5C419.75 447 428.75 456 440 456C450.75 456 460 447 460 435.5L460 217.5C460 203.5 451 195 437 195C425.25 195 416 201.5 409.25 206.5ZM292.75 276.75C292.75 303.25 280.25 323 252.75 323L223.75 323L223.75 231.25L252.5 231.25C278.25 231.25 292.75 249.25 292.75 276.75Z" fill="black" fill-opacity="0.85"/>
 </g>
</svg>
