<?xml version="1.0" encoding="UTF-8"?>
<!--Generator: Apple Native CoreSVG 326-->
<!DOCTYPE svg
PUBLIC "-//W3C//DTD SVG 1.1//EN"
       "http://www.w3.org/Graphics/SVG/1.1/DTD/svg11.dtd">
<svg version="1.1" xmlns="http://www.w3.org/2000/svg" xmlns:xlink="http://www.w3.org/1999/xlink" viewBox="0 0 651.25 651.75">
 <g>
  <rect height="651.75" opacity="0" width="651.25" x="0" y="0"/>
  <path d="M325.5 651.25C505.25 651.25 651.25 505.5 651.25 325.75C651.25 146 505.25 0 325.5 0C145.75 0 0 146 0 325.75C0 505.5 145.75 651.25 325.5 651.25ZM325.5 604.75C171.25 604.75 46.5 480 46.5 325.75C46.5 171.5 171.25 46.75 325.5 46.75C479.75 46.75 604.5 171.5 604.5 325.75C604.5 480 479.75 604.75 325.5 604.75Z" fill="black" fill-opacity="0.85"/>
  <path d="M200.5 460C213 460 220.75 451.5 220.75 438.5L220.75 353.75L255.5 353.75L292.25 443.5C296 454 302.5 460 313.5 460C323 460 332.75 454 332.75 440C332.75 436.75 331.5 431.25 328.5 425L294.5 345C320.75 332.5 333.5 305.5 333.5 274.25C333.5 223.75 303.5 195.25 254.25 195.25L200 195.25C186.75 195.25 179.5 203.25 179.5 216.5L179.5 438.5C179.5 451.25 187 460 200.5 460ZM220.75 322.75L220.75 228.25L250.5 228.25C276.75 228.25 292 246.75 292 275.25C292 302.5 279 322.75 250.5 322.75ZM442.75 459.5C453.75 459.5 463.25 450.25 463.25 438.75L463.25 214.25C463.25 200 454 191.5 439.75 191.5C427.75 191.5 418.25 197.75 411.5 203.25L373.75 233C368.75 237 365 242.25 365 249.5C365 258.5 371 264.75 379.75 264.75C384.25 264.75 387 263.25 389.75 261L422 235.25L422 438.75C422 450.25 431.5 459.5 442.75 459.5Z" fill="black" fill-opacity="0.85"/>
 </g>
</svg>
