<?xml version="1.0" encoding="UTF-8"?>
<!--Generator: Apple Native CoreSVG 326-->
<!DOCTYPE svg
PUBLIC "-//W3C//DTD SVG 1.1//EN"
       "http://www.w3.org/Graphics/SVG/1.1/DTD/svg11.dtd">
<svg version="1.1" xmlns="http://www.w3.org/2000/svg" xmlns:xlink="http://www.w3.org/1999/xlink" viewBox="0 0 566 689.75">
 <g>
  <rect height="689.75" opacity="0" width="566" x="0" y="0"/>
  <path d="M377.75 689.75C492.25 689.75 566 616 566 501.5L566 337.75C566 294.75 552.75 260.25 526.25 235.75L322.5 48.5C283.5 12.5 242.25 0 192.5 0L93.25 0C36.75 0 0 36.75 0 93.5L0 596.5C0 655 34.75 689.75 94 689.75ZM376.5 645.5L95 645.5C59.75 645.5 44.25 631.75 44.25 595.75L44.25 94.5C44.25 63.75 63 44.25 94.25 44.25L191.5 44.25C231.75 44.25 262.5 54.25 292 81L495.25 267.5C513.75 284.5 521.5 305.75 521.5 338.5L521.5 500.5C521.5 592.5 468.25 645.5 376.5 645.5Z" fill="black" fill-opacity="0.85"/>
  <path d="M141 536.5C152.75 536.5 160 528.5 160 516.25L160 436.75L192.75 436.75L227 521C230.75 531 236.5 536.5 247 536.5C256 536.5 265.25 531 265.25 517.75C265.25 514.75 263.5 509.5 261.25 503.75L229.25 428.5C253.75 416.75 265.75 391.5 265.75 362.25C265.75 314.75 237.75 288 191.5 288L140.5 288C128 288 121.25 295.5 121.25 308L121.25 516.25C121.25 528.25 128.25 536.5 141 536.5ZM160 407.75L160 319L187.75 319C212.75 319 226.75 336.5 226.75 363C226.75 388.75 214.75 407.75 188 407.75ZM318.25 533L423 533C432.5 533 438.25 526.5 438.25 517.25C438.25 507.25 432.25 501.5 423 501.5L347.5 501.5L347.5 499.5L395.25 437.25C423.75 400.75 433.5 378.5 433.5 352C433.5 312 407.5 282 366.5 282C328.5 282 300.75 314.25 300.75 346C300.75 355.5 306.25 362.75 316.75 362.75C325.5 362.75 331 358.5 333.5 350C338.75 327.75 347.25 313 366.5 313C387 313 397.5 331.75 397.5 353.75C397.5 377.75 382.5 401 365.75 423.25L309.75 496.5C305 502.75 300.25 509.25 300.25 517.5C300.25 526.5 306.25 533 318.25 533Z" fill="black" fill-opacity="0.85"/>
 </g>
</svg>
