<?xml version="1.0" encoding="UTF-8"?>
<!--Generator: Apple Native CoreSVG 326-->
<!DOCTYPE svg
PUBLIC "-//W3C//DTD SVG 1.1//EN"
       "http://www.w3.org/Graphics/SVG/1.1/DTD/svg11.dtd">
<svg version="1.1" xmlns="http://www.w3.org/2000/svg" xmlns:xlink="http://www.w3.org/1999/xlink" viewBox="0 0 733 554.25">
 <g>
  <rect height="554.25" opacity="0" width="733" x="0" y="0"/>
  <path d="M262.25 0C79.5 0 0 84.75 0 255.75L0 459.75C0 522 32.25 553.75 95 553.75L638.25 553.75C700.75 553.75 733 521.75 733 459.75L733 255.75C733 84.75 653.75 0 470.75 0ZM262.75 44.5L470.5 44.5C624 44.5 688.75 112.25 688.75 253.5L688.75 457.5C688.75 492 670.25 509.5 637 509.5L96 509.5C62.25 509.5 44.25 492 44.25 457.5L44.25 253.5C44.25 112.25 109 44.5 262.75 44.5Z" fill="black" fill-opacity="0.85"/>
  <path d="M225.25 411.25C237.75 411.25 245.5 403 245.5 389.75L245.5 305L280.25 305L317 394.75C321 405.5 327.25 411.25 338.25 411.25C347.75 411.25 357.5 405.5 357.5 391.5C357.5 388.25 356 382.75 353.25 376.5L319.25 296.25C345.5 284 358.25 257 358.25 225.75C358.25 175 328.5 146.75 279 146.75L224.75 146.75C211.5 146.75 204.25 154.75 204.25 168L204.25 389.75C204.25 402.75 211.75 411.25 225.25 411.25ZM245.5 274.25L245.5 179.75L275.25 179.75C301.5 179.75 316.75 198.25 316.75 226.5C316.75 254 304 274.25 275.25 274.25ZM414.25 407.5L525.75 407.5C535.75 407.5 542 400.75 542 390.75C542 380.25 535.5 374 525.75 374L445.5 374L445.5 371.75L496 305.5C526.75 266.75 536.75 243 536.75 215C536.75 172 509.25 140.25 465.5 140.25C425.25 140.25 395.5 174.75 395.5 208.5C395.5 218.5 401.5 226.25 412.5 226.25C421.75 226.25 427.75 221.75 430.25 212.75C436 189 445 173.25 465.5 173.25C487.25 173.25 498.5 193.25 498.5 216.75C498.5 242.25 482.75 267 464.75 290.75L405.25 368.75C400 375.5 395 382.5 395 391C395 400.75 401.5 407.5 414.25 407.5Z" fill="black" fill-opacity="0.85"/>
 </g>
</svg>
