<?xml version="1.0" encoding="UTF-8"?>
<!--Generator: Apple Native CoreSVG 326-->
<!DOCTYPE svg
PUBLIC "-//W3C//DTD SVG 1.1//EN"
       "http://www.w3.org/Graphics/SVG/1.1/DTD/svg11.dtd">
<svg version="1.1" xmlns="http://www.w3.org/2000/svg" xmlns:xlink="http://www.w3.org/1999/xlink" viewBox="0 0 824 570.819">
 <g>
  <rect height="570.819" opacity="0" width="824" x="0" y="0"/>
  <path d="M731 27.7847C787.5 27.7847 824 65.0347 824 121.785L824 322.285C824 404.035 789.75 452.785 705.75 477.535L426.75 559.035C353.5 580.535 307.75 572.035 242 538.285L60.5 445.035C10.25 419.285 0 389.535 0 322.285L0 120.785C0 64.5347 36.75 27.5347 93.75 27.5347ZM434.5 178.285C432.75 184.785 432.25 190.535 432.25 195.785C432.25 205.535 438.5 213.285 450 213.285C460.25 213.285 465.75 209.035 468.75 198.785C473.5 178.035 485 163.785 505.5 163.785C528.75 163.785 540.25 182.035 540.25 205.285C540.25 230.535 525.75 249.535 499.75 249.535L490.25 249.535C480.25 249.535 474 256.035 474 265.285C474 275.035 480.75 281.035 490.25 281.035L500.25 281.035C529.5 281.035 546.5 297.035 546.5 327.785C546.5 352.285 533.5 373.535 507 373.535C481.5 373.535 469.25 355.785 465.25 339.035C462.5 329.035 456.5 324.035 446.75 324.035C435.5 324.035 427.75 331.035 427.75 342.535C427.75 348.035 428.75 354.285 430.5 359.785C440 390.035 471.5 407.785 506.75 407.785C552.75 407.785 587.75 377.785 587.75 329.035C587.75 289.285 564.75 267.285 535.5 264.535L535.5 263.285C565.5 255.535 580 228.535 580 200.785C580 156.285 547.75 129.785 505.5 129.785C471.5 129.785 444 149.035 434.5 178.285ZM252.25 134.785C238.5 134.785 231 143.035 231 156.785L231 383.785C231 397.285 239 406.035 252.75 406.035C265.5 406.035 273.5 397.535 273.5 383.785L273.5 297.285L309.25 297.285L346.5 389.035C350.5 400.035 357 406.035 368.5 406.035C378.5 406.035 388.5 400.035 388.5 385.785C388.5 382.285 386.75 376.535 384 370.285L349.5 288.285C376 275.535 389.25 247.785 389.25 215.785C389.25 164.035 358.5 134.785 307.75 134.785ZM346.25 217.035C346.25 244.785 333.25 265.535 304.25 265.535L273.5 265.535L273.5 169.035L304 169.035C331 169.035 346.25 188.035 346.25 217.035Z" fill="black" fill-opacity="0.85"/>
 </g>
</svg>
