<?xml version="1.0" encoding="UTF-8"?>
<!--Generator: Apple Native CoreSVG 326-->
<!DOCTYPE svg
PUBLIC "-//W3C//DTD SVG 1.1//EN"
       "http://www.w3.org/Graphics/SVG/1.1/DTD/svg11.dtd">
<svg version="1.1" xmlns="http://www.w3.org/2000/svg" xmlns:xlink="http://www.w3.org/1999/xlink" viewBox="0 0 749.5 570.75">
 <g>
  <rect height="570.75" opacity="0" width="749.5" x="0" y="0"/>
  <path d="M245.75 570.25L503.75 570.25C686.5 570.25 749.5 502 749.5 333.75L749.5 236.5C749.5 68.25 686.5 0 503.75 0L245.75 0C63 0 0 68.25 0 236.5L0 333.75C0 502 63 570.25 245.75 570.25ZM245.75 526C92.5 526 44.25 474.5 44.25 333.75L44.25 236.5C44.25 95.75 92.5 44.5 245.75 44.5L503.75 44.5C657 44.5 705.25 95.75 705.25 236.5L705.25 333.75C705.25 474.5 657 526 503.75 526Z" fill="black" fill-opacity="0.85"/>
  <path d="M222.25 419.5C234.75 419.5 242.5 411 242.5 398L242.5 313.25L277.5 313.25L314 403C318 413.5 324.25 419.5 335.25 419.5C345 419.5 354.75 413.5 354.75 399.5C354.75 396.25 353 390.75 350.5 384.5L316.5 304.5C342.5 292 355.5 265 355.5 233.75C355.5 183.25 325.5 154.75 276 154.75L221.75 154.75C208.5 154.75 201.25 162.75 201.25 176L201.25 398C201.25 410.75 209 419.5 222.25 419.5ZM242.5 282.25L242.5 187.75L272.25 187.75C298.75 187.75 313.75 206.25 313.75 234.75C313.75 262 301 282.25 272.5 282.25ZM507.5 419.5C518 419.5 526.75 412.5 526.75 399.25L526.75 362L540.25 362C551.25 362 556.5 355 556.5 345.25C556.5 336 551.5 329 540.25 329L526.75 329L526.75 181.25C526.75 161.25 513.5 150.75 495.5 150.75C475.75 150.75 466.25 161 458.25 178.75L395.5 311.5C390.75 322.5 389 329.75 389 338.75C389 352.5 398.5 362 412.75 362L488 362L488 399.25C488 414 498.25 419.5 507.5 419.5ZM488.75 329.75L424 329.75L424 328L487.5 187.75L488.75 187.75Z" fill="black" fill-opacity="0.85"/>
 </g>
</svg>
