<?xml version="1.0" encoding="UTF-8"?>
<!--Generator: Apple Native CoreSVG 326-->
<!DOCTYPE svg
PUBLIC "-//W3C//DTD SVG 1.1//EN"
       "http://www.w3.org/Graphics/SVG/1.1/DTD/svg11.dtd">
<svg version="1.1" xmlns="http://www.w3.org/2000/svg" xmlns:xlink="http://www.w3.org/1999/xlink" viewBox="0 0 733 554.25">
 <g>
  <rect height="554.25" opacity="0" width="733" x="0" y="0"/>
  <path d="M733 94L733 298C733 469 653.75 553.75 470.75 553.75L262.25 553.75C79.5 553.75 0 469 0 298L0 94C0 32 32.25 0 95 0L638.25 0C700.75 0 733 32.25 733 94ZM217 147.5C203.75 147.5 196.5 155.5 196.5 168.75L196.5 388.75C196.5 401.75 204.25 410.5 217.25 410.5C230 410.5 237.75 402 237.75 388.75L237.75 305L272 305L308.25 394C312.5 404.5 318.75 410.5 329.75 410.5C339.25 410.5 349.25 404.5 349.25 390.5C349.25 387.25 347.25 381.75 344.75 375.5L311 296.25C337 284 349.75 257 349.75 226C349.75 175.75 320 147.5 271 147.5ZM414.25 147.75C401.25 147.75 394.25 157 394.25 169.5L394.25 385.75C394.25 398.5 401.5 407 414.25 407L481 407C526 407 551.75 377.25 551.75 334.5C551.75 303 533.25 274.25 503 271L503 269.75C527 265.25 543.5 238 543.5 212C543.5 172 517 147.75 479.25 147.75ZM510.5 331.5C510.5 358.75 496.5 375.25 469.25 375.25L434.5 375.25L434.5 287.75L467.75 287.75C493.5 287.75 510.5 301.75 510.5 331.5ZM308 227C308 254.25 295.25 274 267.25 274L237.75 274L237.75 180.5L267 180.5C293.25 180.5 308 199 308 227ZM503.75 218.25C503.75 243.5 489.25 259.5 464 259.5L434.5 259.5L434.5 179.75L468 179.75C493 179.75 503.75 195.75 503.75 218.25Z" fill="black" fill-opacity="0.85"/>
 </g>
</svg>
