<?xml version="1.0" encoding="UTF-8"?>
<!--Generator: Apple Native CoreSVG 326-->
<!DOCTYPE svg
PUBLIC "-//W3C//DTD SVG 1.1//EN"
       "http://www.w3.org/Graphics/SVG/1.1/DTD/svg11.dtd">
<svg version="1.1" xmlns="http://www.w3.org/2000/svg" xmlns:xlink="http://www.w3.org/1999/xlink" viewBox="0 0 651.25 651.75">
 <g>
  <rect height="651.75" opacity="0" width="651.25" x="0" y="0"/>
  <path d="M325.5 651.25C505.25 651.25 651.25 505.5 651.25 325.75C651.25 146 505.25 0 325.5 0C145.75 0 0 146 0 325.75C0 505.5 145.75 651.25 325.5 651.25ZM325.5 604.75C171.25 604.75 46.5 480 46.5 325.75C46.5 171.5 171.25 46.75 325.5 46.75C479.75 46.75 604.5 171.5 604.5 325.75C604.5 480 479.75 604.75 325.5 604.75Z" fill="black" fill-opacity="0.85"/>
  <path d="M174.75 460C187.5 460 195.25 451.5 195.25 438.5L195.25 353.75L230 353.75L266.5 443.5C270.75 454 276.75 460 288 460C297.5 460 307.25 454 307.25 440C307.25 436.75 305.5 431.25 303 425L269 345C295.25 332.5 308 305.5 308 274.25C308 223.75 278 195.25 228.75 195.25L174.5 195.25C161.25 195.25 153.75 203.25 153.75 216.5L153.75 438.5C153.75 451.25 161.5 460 174.75 460ZM195.25 322.75L195.25 228.25L224.75 228.25C251.25 228.25 266.5 246.75 266.5 275.25C266.5 302.5 253.5 322.75 225 322.75ZM373 456.5L440 456.5C485.25 456.5 511.25 426.75 511.25 383.75C511.25 352 492.75 323 461.75 319.75L461.75 318.25C486.25 313.75 502.75 286.5 502.75 260.5C502.75 220 476.25 195.5 438.25 195.5L373 195.5C359.75 195.5 352.75 204.75 352.75 217L352.75 435.25C352.75 448 360 456.5 373 456.5ZM393 308L393 227.5L426.75 227.5C452.25 227.5 463 243.75 463 266.5C463 292 448.5 308 423 308ZM393 425L393 336.5L426.75 336.5C452.75 336.5 470 350.75 470 380.5C470 408 455.75 425 428 425Z" fill="black" fill-opacity="0.85"/>
 </g>
</svg>
