<?xml version="1.0" encoding="UTF-8"?>
<!--Generator: Apple Native CoreSVG 326-->
<!DOCTYPE svg
PUBLIC "-//W3C//DTD SVG 1.1//EN"
       "http://www.w3.org/Graphics/SVG/1.1/DTD/svg11.dtd">
<svg version="1.1" xmlns="http://www.w3.org/2000/svg" xmlns:xlink="http://www.w3.org/1999/xlink" viewBox="0 0 651.25 651.75">
 <g>
  <rect height="651.75" opacity="0" width="651.25" x="0" y="0"/>
  <path d="M651.25 325.75C651.25 505 505 651.25 325.5 651.25C146.25 651.25 0 505 0 325.75C0 146.25 146.25 0 325.5 0C505 0 651.25 146.25 651.25 325.75ZM178.5 198.75C165.5 198.75 158.5 206.5 158.5 219.75L158.5 435.25C158.5 448 166 456.5 178.75 456.5C191.25 456.5 198.75 448.25 198.75 435.25L198.75 353L232.5 353L268 440.25C272 450.5 278 456.5 289 456.5C298.25 456.5 308 450.5 308 436.75C308 433.75 306.25 428.25 303.75 422L270.75 344.5C296.25 332.5 308.75 306 308.75 275.75C308.75 226.5 279.5 198.75 231.5 198.75ZM371.75 199C359 199 352 208 352 220.25L352 432.25C352 444.5 359.25 453 371.75 453L437.25 453C481.25 453 506.5 423.75 506.5 382C506.5 351 488.5 323 458.75 319.75L458.75 318.5C482.25 314.25 498.5 287.5 498.5 262C498.5 222.75 472.5 199 435.5 199ZM466 379C466 405.75 452.5 422 425.75 422L391.5 422L391.5 336.25L424.25 336.25C449.5 336.25 466 350 466 379ZM267.75 276.5C267.75 303.25 255.25 322.75 227.75 322.75L198.75 322.75L198.75 231L227.5 231C253 231 267.75 249.25 267.75 276.5ZM459.5 268C459.5 292.75 445.25 308.25 420.75 308.25L391.5 308.25L391.5 230.25L424.5 230.25C449 230.25 459.5 246 459.5 268Z" fill="black" fill-opacity="0.85"/>
 </g>
</svg>
