<?xml version="1.0" encoding="UTF-8"?>
<!--Generator: Apple Native CoreSVG 326-->
<!DOCTYPE svg
PUBLIC "-//W3C//DTD SVG 1.1//EN"
       "http://www.w3.org/Graphics/SVG/1.1/DTD/svg11.dtd">
<svg version="1.1" xmlns="http://www.w3.org/2000/svg" xmlns:xlink="http://www.w3.org/1999/xlink" viewBox="0 0 587.75 595.25">
 <g>
  <rect height="595.25" opacity="0" width="587.75" x="0" y="0"/>
  <path d="M587.75 103.75L587.75 499C587.75 562.5 555 595.25 490.25 595.25L97.25 595.25C32.75 595.25 0 562.75 0 499L0 103.75C0 40 32.75 7.5 97.25 7.5L490.25 7.5C555 7.5 587.75 40.25 587.75 103.75ZM98.25 51.75C63.25 51.75 44.25 70.25 44.25 106.25L44.25 496.5C44.25 532.5 63.25 551 98.25 551L489.5 551C523.75 551 543.5 532.5 543.5 496.5L543.5 106.25C543.5 70.25 523.75 51.75 489.5 51.75Z" fill="black" fill-opacity="0.85"/>
  <path d="M411.25 189.5L411.25 194.25L219 194.25C180 194.25 157.5 217 157.5 255.25L157.5 384.75L149 384.75C120.5 384.75 106 370.5 106 342L106 189.5C106 161.75 120.5 147 149 147L368.5 147C397 147 411.25 161.75 411.25 189.5Z" fill="black" fill-opacity="0.85"/>
  <path d="M219 450.5L438.5 450.5C467 450.5 481.5 436.5 481.5 408L481.5 255.25C481.5 227.5 467 212.75 438.5 212.75L219 212.75C190.5 212.75 176.25 227.5 176.25 255.25L176.25 408C176.25 436.5 190.5 450.5 219 450.5Z" fill="black" fill-opacity="0.85"/>
 </g>
</svg>
