<?xml version="1.0" encoding="UTF-8"?>
<!--Generator: Apple Native CoreSVG 326-->
<!DOCTYPE svg
PUBLIC "-//W3C//DTD SVG 1.1//EN"
       "http://www.w3.org/Graphics/SVG/1.1/DTD/svg11.dtd">
<svg version="1.1" xmlns="http://www.w3.org/2000/svg" xmlns:xlink="http://www.w3.org/1999/xlink" viewBox="0 0 566 689.75">
 <g>
  <rect height="689.75" opacity="0" width="566" x="0" y="0"/>
  <path d="M566 93.5L565.75 596.5C565.75 655 530.75 689.75 471.75 689.75L188.25 689.75C73.5 689.75 0 616 0 501.5L0 337.75C0 294.75 13.25 260.25 39.75 235.75L243.5 48.5C282.5 12.5 323.75 0 373.5 0L472.5 0C529 0 566 36.75 566 93.5ZM221.5 356.75C196 356.75 183.25 370 183.25 394.75L183.25 531C183.25 556.5 196 569.25 221.5 569.25L418 569.25C443 569.25 456.25 556.5 456.25 531L456.25 394.75C456.25 370 443 356.75 418 356.75ZM158.75 298C133.75 298 120.5 310.5 120.5 336.25L120.5 471.75C120.5 496.5 133.75 509.75 158.75 509.75L162.75 509.75L162.75 394.75C162.75 359 184.25 336.5 221.5 336.5L393.5 336.5L393.5 334.5C393 310.25 380.25 298 355 298Z" fill="black" fill-opacity="0.85"/>
 </g>
</svg>
