<?xml version="1.0" encoding="UTF-8"?>
<!--Generator: Apple Native CoreSVG 326-->
<!DOCTYPE svg
PUBLIC "-//W3C//DTD SVG 1.1//EN"
       "http://www.w3.org/Graphics/SVG/1.1/DTD/svg11.dtd">
<svg version="1.1" xmlns="http://www.w3.org/2000/svg" xmlns:xlink="http://www.w3.org/1999/xlink" viewBox="0 0 651.25 651.75">
 <g>
  <rect height="651.75" opacity="0" width="651.25" x="0" y="0"/>
  <path d="M651.25 325.75C651.25 505 505 651.25 325.5 651.25C146.25 651.25 0 505 0 325.75C0 146.25 146.25 0 325.5 0C505 0 651.25 146.25 651.25 325.75ZM248.5 235C219.25 235 204.75 250 204.75 278.5L204.75 434.75C204.75 464 219.25 478.75 248.5 478.75L473.25 478.75C502.5 478.75 517.25 464 517.25 434.75L517.25 278.5C517.25 250 502.5 235 473.25 235ZM176.75 167.5C147.25 167.5 132.75 182.5 132.75 211L132.75 367.5C132.75 396.75 147.25 411 176.75 411L185.25 411L185.25 278.5C185.25 239.25 208.5 215.75 248.5 215.75L445.5 215.75L445.5 211C445.5 182.5 430.75 167.5 401.5 167.5Z" fill="black" fill-opacity="0.85"/>
 </g>
</svg>
