<?xml version="1.0" encoding="UTF-8"?>
<!--Generator: Apple Native CoreSVG 326-->
<!DOCTYPE svg
PUBLIC "-//W3C//DTD SVG 1.1//EN"
       "http://www.w3.org/Graphics/SVG/1.1/DTD/svg11.dtd">
<svg version="1.1" xmlns="http://www.w3.org/2000/svg" xmlns:xlink="http://www.w3.org/1999/xlink" viewBox="0 0 874.75 722.25">
 <g>
  <rect height="722.25" opacity="0" width="874.75" x="0" y="0"/>
  <path d="M679.75 136.25L679.75 144L292.25 144C205.75 144 155.25 194 155.25 280L155.25 538.5L137.25 538.5C72.5 538.5 39.75 506.25 39.75 442.25L39.75 136.25C39.75 72.5 72.5 40 137.25 40L582.5 40C647 40 679.75 72.75 679.75 136.25Z" fill="black" fill-opacity="0.85"/>
  <path d="M292.25 682.25L737.75 682.25C802 682.25 835 649.5 835 586L835 280C835 216.5 802 183.75 737.75 183.75L292.25 183.75C227.75 183.75 195 216.25 195 280L195 586C195 650 227.75 682.25 292.25 682.25Z" fill="black" fill-opacity="0.85"/>
 </g>
</svg>
