<?xml version="1.0" encoding="UTF-8"?>
<!--Generator: Apple Native CoreSVG 326-->
<!DOCTYPE svg
PUBLIC "-//W3C//DTD SVG 1.1//EN"
       "http://www.w3.org/Graphics/SVG/1.1/DTD/svg11.dtd">
<svg version="1.1" xmlns="http://www.w3.org/2000/svg" xmlns:xlink="http://www.w3.org/1999/xlink" viewBox="0 0 795.25 642.25">
 <g>
  <rect height="642.25" opacity="0" width="795.25" x="0" y="0"/>
  <path d="M640 96.25L640 143.75L595.75 143.75L595.75 98.75C595.75 62.75 576 44.25 541.75 44.25L98.25 44.25C63.25 44.25 44.25 62.75 44.25 98.75L44.25 399.75C44.25 435.75 63.25 454.25 98.25 454.25L155.25 454.25L155.25 498.5L97.25 498.5C32.5 498.5 0 466.25 0 402.25L0 96.25C0 32.5 32.5 0 97.25 0L542.75 0C607 0 640 32.75 640 96.25Z" fill="black" fill-opacity="0.85"/>
  <path d="M252.5 642.25L697.75 642.25C762.25 642.25 795.25 609.5 795.25 546L795.25 240C795.25 176.5 762.25 143.75 697.75 143.75L252.5 143.75C187.75 143.75 155.25 176.25 155.25 240L155.25 546C155.25 610 187.75 642.25 252.5 642.25ZM253.25 598C218.5 598 199.5 579.5 199.5 543.75L199.5 242.5C199.5 206.5 218.5 188 253.25 188L697 188C731.25 188 750.75 206.5 750.75 242.5L750.75 543.75C750.75 579.5 731.25 598 697 598Z" fill="black" fill-opacity="0.85"/>
 </g>
</svg>
