<?xml version="1.0" encoding="UTF-8"?>
<!--Generator: Apple Native CoreSVG 326-->
<!DOCTYPE svg
PUBLIC "-//W3C//DTD SVG 1.1//EN"
       "http://www.w3.org/Graphics/SVG/1.1/DTD/svg11.dtd">
<svg version="1.1" xmlns="http://www.w3.org/2000/svg" xmlns:xlink="http://www.w3.org/1999/xlink" viewBox="0 0 824 570.819">
 <g>
  <rect height="570.819" opacity="0" width="824" x="0" y="0"/>
  <path d="M731 27.7847C787.5 27.7847 824 65.0347 824 121.785L824 322.285C824 404.035 789.75 452.785 705.75 477.535L426.75 559.035C353.5 580.535 307.75 572.035 242 538.285L60.5 445.035C10.25 419.285 0 389.535 0 322.285L0 120.785C0 64.5347 36.75 27.5347 93.75 27.5347ZM344.75 201.285C344.75 241.285 368.25 262.285 401.5 275.285L419 281.785C441.75 290.785 457.75 301.785 457.75 326.785C457.75 349.285 443.75 365.285 420.5 365.285C397.5 365.285 383.5 349.535 379.75 329.535C377.5 319.535 370.25 315.285 361.25 315.285C350.25 315.285 343.25 323.285 343.25 334.285C343.25 339.285 343.5 341.285 345 346.535C354.25 380.285 383.25 399.035 420 399.035C468.75 399.035 498 370.535 498 323.035C498 281.785 476.5 263.035 440 248.785L422.25 242.285C400.25 233.785 384.75 222.035 384.75 198.535C384.75 177.285 397.75 162.285 418.5 162.285C440.25 162.285 452 177.785 455.75 196.535C458.5 206.535 465.25 210.035 474.25 210.035C485.25 210.035 492.25 203.035 492.25 192.535C492.25 189.785 492 186.535 490.5 180.535C481 147.535 453.5 128.535 418.5 128.535C375.75 128.535 344.75 156.785 344.75 201.285ZM172.75 134.285C159.5 134.285 152.25 142.285 152.25 155.535L152.25 375.535C152.25 388.535 159.75 397.285 173.25 397.285C185.75 397.285 193.5 388.785 193.5 375.535L193.5 291.785L228 291.785L264 380.535C268 391.035 274.25 397.285 285.5 397.285C295 397.285 304.75 391.535 304.75 377.285C304.75 374.035 303.25 368.285 300.5 362.285L267 283.035C292.75 270.785 305.5 243.785 305.5 212.785C305.5 162.535 275.75 134.285 226.5 134.285ZM559.5 134.535C546.5 134.535 539.25 143.785 539.25 156.035L539.25 372.535C539.25 385.285 546.75 394.035 559.5 394.035L626.25 394.035C671 394.035 697.25 364.285 697.25 321.285C697.25 289.785 678.75 261.285 648 257.785L648 256.285C672.25 252.035 688.5 224.785 688.5 199.035C688.5 159.035 662 134.535 624.75 134.535ZM655.75 318.035C655.75 345.535 642 362.285 614.25 362.285L579.75 362.285L579.75 274.535L613 274.535C638.5 274.535 655.75 288.535 655.75 318.035ZM264 214.035C264 240.785 251.25 261.035 223 261.035L193.5 261.035L193.5 167.535L223 167.535C249 167.535 264 185.785 264 214.035ZM649 205.285C649 230.535 634.75 246.035 609.5 246.035L579.75 246.035L579.75 166.535L613 166.535C638.25 166.535 649 182.785 649 205.285Z" fill="black" fill-opacity="0.85"/>
 </g>
</svg>
