<?xml version="1.0" encoding="UTF-8"?>
<!--Generator: Apple Native CoreSVG 326-->
<!DOCTYPE svg
PUBLIC "-//W3C//DTD SVG 1.1//EN"
       "http://www.w3.org/Graphics/SVG/1.1/DTD/svg11.dtd">
<svg version="1.1" xmlns="http://www.w3.org/2000/svg" xmlns:xlink="http://www.w3.org/1999/xlink" viewBox="0 0 733 554.25">
 <g>
  <rect height="554.25" opacity="0" width="733" x="0" y="0"/>
  <path d="M262.25 0C79.5 0 0 84.75 0 255.75L0 459.75C0 522 32.25 553.75 95 553.75L638.25 553.75C700.75 553.75 733 521.75 733 459.75L733 255.75C733 84.75 653.75 0 470.75 0ZM262.75 44.5L470.5 44.5C624 44.5 688.75 112.25 688.75 253.5L688.75 457.5C688.75 492 670.25 509.5 637 509.5L96 509.5C62.25 509.5 44.25 492 44.25 457.5L44.25 253.5C44.25 112.25 109 44.5 262.75 44.5Z" fill="black" fill-opacity="0.85"/>
  <path d="M221.75 411.25C234.25 411.25 242 403 242 389.75L242 305L277 305L313.5 394.75C317.5 405.5 323.75 411.25 334.75 411.25C344.25 411.25 354.25 405.5 354.25 391.5C354.25 388.25 352.5 382.75 350 376.5L316 296.25C342 284 354.75 257 354.75 225.75C354.75 175 325 146.75 275.5 146.75L221.25 146.75C208 146.75 200.75 154.75 200.75 168L200.75 389.75C200.75 402.75 208.5 411.25 221.75 411.25ZM242 274.25L242 179.75L271.75 179.75C298.25 179.75 313.25 198.25 313.25 226.5C313.25 254 300.5 274.25 271.75 274.25ZM464.25 411.5C475.5 411.5 484.75 402.25 484.75 391L484.75 181L526 181C535.5 181 543 173.5 543 163.75C543 154.25 535.5 146.75 526 146.75L400 146.75C390.25 146.75 382.75 154.25 382.75 163.75C382.75 173.5 390.25 181 400 181L443.75 181L443.75 391C443.75 402.25 452.75 411.5 464.25 411.5Z" fill="black" fill-opacity="0.85"/>
 </g>
</svg>
