<?xml version="1.0" encoding="UTF-8"?>
<!--Generator: Apple Native CoreSVG 326-->
<!DOCTYPE svg
PUBLIC "-//W3C//DTD SVG 1.1//EN"
       "http://www.w3.org/Graphics/SVG/1.1/DTD/svg11.dtd">
<svg version="1.1" xmlns="http://www.w3.org/2000/svg" xmlns:xlink="http://www.w3.org/1999/xlink" viewBox="0 0 733 554.25">
 <g>
  <rect height="554.25" opacity="0" width="733" x="0" y="0"/>
  <path d="M733 255.75L733 459.75C733 521.75 700.75 553.75 638.25 553.75L95 553.75C32.25 553.75 0 522 0 459.75L0 255.75C0 84.75 79.5 0 262.25 0L470.75 0C653.75 0 733 84.75 733 255.75ZM226 148.25C216.25 148.25 208.25 156.25 208.25 165.5C208.25 175 216.25 182.75 226 182.75L313.5 182.75L313.5 184.75L212.75 371C209.5 377.25 208 381.75 208 388.25C208 400.75 216.5 408 228.75 408L345.5 408C354.75 408 362.75 400 362.75 390.5C362.75 381.25 354.75 373.25 345.5 373.25L254.25 373.25L254.25 371.25L353.75 185.25C356.75 179.75 359 175.25 359 168.25C359 156.5 350.75 148.25 338 148.25ZM405.25 164.5L405.25 385.75C405.25 399 412.75 407.25 425.5 407.25L518.75 407.25C528.25 407.25 536.25 399.25 536.25 389.75C536.25 380.25 528.25 372.25 518.75 372.25L446.25 372.25L446.25 164.5C446.25 153.25 436.75 144 426 144C414.5 144 405.25 153.25 405.25 164.5Z" fill="black" fill-opacity="0.85"/>
 </g>
</svg>
