<?xml version="1.0" encoding="UTF-8"?>
<!--Generator: Apple Native CoreSVG 326-->
<!DOCTYPE svg
PUBLIC "-//W3C//DTD SVG 1.1//EN"
       "http://www.w3.org/Graphics/SVG/1.1/DTD/svg11.dtd">
<svg version="1.1" xmlns="http://www.w3.org/2000/svg" xmlns:xlink="http://www.w3.org/1999/xlink" viewBox="0 0 733 554.25">
 <g>
  <rect height="554.25" opacity="0" width="733" x="0" y="0"/>
  <path d="M733 255.75L733 459.75C733 521.75 700.75 553.75 638.25 553.75L95 553.75C32.25 553.75 0 522 0 459.75L0 255.75C0 84.75 79.5 0 262.25 0L470.75 0C653.75 0 733 84.75 733 255.75ZM405.25 147.5C392.25 147.5 384.75 155.5 384.75 168.75L384.75 389C384.75 402 392.5 410.5 405.75 410.5C418.25 410.5 426 402.25 426 389L426 305L460.5 305L496.5 394C500.75 404.5 507 410.5 518 410.5C527.5 410.5 537.5 404.75 537.5 390.5C537.5 387.5 535.75 381.75 533 375.5L499.75 296.25C525.5 284 538.25 257 538.25 226C538.25 175.75 508.5 147.5 459.25 147.5ZM205 148C195.5 148 187.5 156 187.5 165.25C187.5 175 195.5 182.75 205 182.75L292.75 182.75L292.75 184.75L192 371C188.5 377.25 187.25 381.5 187.25 388.25C187.25 400.75 196 408 208 408L324.75 408C334.25 408 342 400 342 390.25C342 381 334.25 373 324.75 373L233.5 373L233.5 371.25L333.25 185.25C336 179.75 338 175.25 338 168.25C338 156.25 330 148 317.5 148ZM496.5 227C496.5 254.25 484 274 455.5 274L426 274L426 180.5L455.25 180.5C481.75 180.5 496.5 199 496.5 227Z" fill="black" fill-opacity="0.85"/>
 </g>
</svg>
