<?xml version="1.0" encoding="UTF-8"?>
<!--Generator: Apple Native CoreSVG 326-->
<!DOCTYPE svg
PUBLIC "-//W3C//DTD SVG 1.1//EN"
       "http://www.w3.org/Graphics/SVG/1.1/DTD/svg11.dtd">
<svg version="1.1" xmlns="http://www.w3.org/2000/svg" xmlns:xlink="http://www.w3.org/1999/xlink" viewBox="0 0 897.25 622.75">
 <g>
  <rect height="622.75" opacity="0" width="897.25" x="0" y="0"/>
  <path d="M0 311.25C0 412 33.25 505 89.25 580C98 591.5 112.25 592.75 123.25 584C133.25 575.5 134.5 562.25 126.75 551.25C76.5 484.5 46.75 401 46.75 311.25C46.75 221 76.5 138 126.75 70.75C134.5 60.25 133.5 47 123.25 38.25C112.5 29.5 97.75 31 89.25 42.5C33.25 117.25 0 210.25 0 311.25ZM897.25 311.25C897.25 210.25 864 117.25 807.75 42.5C799.25 31 784.75 29.5 773.75 38.25C763.75 47 762.75 60.25 770.5 70.75C820.75 138 850.25 221 850.25 311.25C850.25 401 820.75 484.5 770.5 551.25C762.75 562.25 763.75 575.5 773.75 584C784.75 592.75 799.25 591.5 807.75 580C864 505 897.25 412 897.25 311.25Z" fill="black" fill-opacity="0.85"/>
  <path d="M448.5 622.25C620.25 622.25 759.75 483 759.75 311.25C759.75 139.5 620.25 0 448.5 0C276.75 0 137.5 139.5 137.5 311.25C137.5 483 276.75 622.25 448.5 622.25ZM448.5 575.75C302.5 575.75 184 457.25 184 311.25C184 165.25 302.5 46.5 448.5 46.5C594.5 46.5 713.25 165.25 713.25 311.25C713.25 457.25 594.5 575.75 448.5 575.75Z" fill="black" fill-opacity="0.85"/>
  <path d="M464.25 463.25C478.5 463.25 486.75 454 486.75 438.5L486.75 184C486.75 168.25 477.75 159.25 463 159.25C452.75 159.25 445.5 162 433.5 170.25L373 210.75C366.75 215 364.25 219.5 364.25 226.75C364.25 235.5 371.25 243.5 380.25 243.5C384.5 243.5 387.5 242.75 393.5 238.75L440.5 208L442.5 208L442.5 438.5C442.5 454 450.75 463.25 464.25 463.25Z" fill="black" fill-opacity="0.85"/>
 </g>
</svg>
