<?xml version="1.0" encoding="UTF-8"?>
<!--Generator: Apple Native CoreSVG 326-->
<!DOCTYPE svg
PUBLIC "-//W3C//DTD SVG 1.1//EN"
       "http://www.w3.org/Graphics/SVG/1.1/DTD/svg11.dtd">
<svg version="1.1" xmlns="http://www.w3.org/2000/svg" xmlns:xlink="http://www.w3.org/1999/xlink" viewBox="0 0 651.25 651.75">
 <g>
  <rect height="651.75" opacity="0" width="651.25" x="0" y="0"/>
  <path d="M325.5 651.25C505.25 651.25 651.25 505.5 651.25 325.75C651.25 146 505.25 0 325.5 0C145.75 0 0 146 0 325.75C0 505.5 145.75 651.25 325.5 651.25ZM325.5 604.75C171.25 604.75 46.5 480 46.5 325.75C46.5 171.5 171.25 46.75 325.5 46.75C479.75 46.75 604.5 171.5 604.5 325.75C604.5 480 479.75 604.75 325.5 604.75Z" fill="black" fill-opacity="0.85"/>
  <path d="M160.5 456.25L272.25 456.25C282.25 456.25 288.5 449.5 288.5 439.5C288.5 429 282 422.75 272.25 422.75L191.75 422.75L191.75 420.5L242.5 354.25C273 315.25 283.25 291.5 283.25 263.5C283.25 220.75 255.5 189 212 189C171.5 189 141.75 223.25 141.75 257C141.75 267.25 148 274.75 158.75 274.75C168.25 274.75 174 270.5 176.75 261.25C182.25 237.5 191.5 222 211.75 222C233.75 222 245 242 245 265.25C245 290.75 229 315.75 211.25 339.25L151.5 417.25C146.25 424 141.5 431 141.5 439.5C141.5 449.25 147.75 456.25 160.5 456.25ZM350.75 460C361.75 460 371 450.75 371 439.25L371 340.5L457 340.5L457 439.25C457 450.75 466.5 460 477.75 460C488.75 460 498.25 450.75 498.25 439.25L498.25 211.5C498.25 200.5 488.75 191.25 477.75 191.25C466.5 191.25 457 200.5 457 211.5L457 306L371 306L371 211.5C371 200.5 361.75 191.25 350.75 191.25C339.25 191.25 330 200.5 330 211.5L330 439.25C330 450.75 339.25 460 350.75 460Z" fill="black" fill-opacity="0.85"/>
 </g>
</svg>
