<?xml version="1.0" encoding="UTF-8"?>
<!--Generator: Apple Native CoreSVG 326-->
<!DOCTYPE svg
PUBLIC "-//W3C//DTD SVG 1.1//EN"
       "http://www.w3.org/Graphics/SVG/1.1/DTD/svg11.dtd">
<svg version="1.1" xmlns="http://www.w3.org/2000/svg" xmlns:xlink="http://www.w3.org/1999/xlink" viewBox="0 0 651.25 651.75">
 <g>
  <rect height="651.75" opacity="0" width="651.25" x="0" y="0"/>
  <path d="M651.25 325.75C651.25 505 505 651.25 325.5 651.25C146.25 651.25 0 505 0 325.75C0 146.25 146.25 0 325.5 0C505 0 651.25 146.25 651.25 325.75ZM460.5 209L460.5 305.5L373 305.5L373 209C373 197.5 363.25 188 351.75 188C340 188 330.5 197.5 330.5 209L330.5 442C330.5 453.75 340 463.25 351.75 463.25C363.25 463.25 373 453.75 373 442L373 341L460.5 341L460.5 442C460.5 453.75 470.25 463.25 482 463.25C493.5 463.25 503 453.75 503 442L503 209C503 197.5 493.5 188 482 188C470.25 188 460.5 197.5 460.5 209ZM137.5 255.25C137.5 265.75 143.5 273.75 155 273.75C164.75 273.75 170.75 269.25 173.5 259.75C179.25 235.5 188.5 219.75 209.25 219.75C231.75 219.75 243.25 240 243.25 263.75C243.25 290 226.75 315.75 208.25 339.75L147.5 419.25C142 426.25 137.25 433.5 137.25 442.5C137.25 452.25 143.5 459.5 156.75 459.5L271.25 459.5C281.5 459.5 288 452.5 288 442.25C288 431.25 281.25 425 271.25 425L189 425L189 422.5L240.75 355C272.25 315 282.75 290.75 282.75 262C282.75 218.25 254 185.75 209.5 185.75C168 185.75 137.5 220.75 137.5 255.25Z" fill="black" fill-opacity="0.85"/>
 </g>
</svg>
