<?xml version="1.0" encoding="UTF-8"?>
<!--Generator: Apple Native CoreSVG 326-->
<!DOCTYPE svg
PUBLIC "-//W3C//DTD SVG 1.1//EN"
       "http://www.w3.org/Graphics/SVG/1.1/DTD/svg11.dtd">
<svg version="1.1" xmlns="http://www.w3.org/2000/svg" xmlns:xlink="http://www.w3.org/1999/xlink" viewBox="0 0 651.25 651.75">
 <g>
  <rect height="651.75" opacity="0" width="651.25" x="0" y="0"/>
  <path d="M325.5 651.25C505.25 651.25 651.25 505.5 651.25 325.75C651.25 146 505.25 0 325.5 0C145.75 0 0 146 0 325.75C0 505.5 145.75 651.25 325.5 651.25ZM325.5 604.75C171.25 604.75 46.5 480 46.5 325.75C46.5 171.5 171.25 46.75 325.5 46.75C479.75 46.75 604.5 171.5 604.5 325.75C604.5 480 479.75 604.75 325.5 604.75Z" fill="black" fill-opacity="0.85"/>
  <path d="M245 460C255.5 460 264.25 453 264.25 439.75L264.25 402.5L278 402.5C288.75 402.5 294.25 395.5 294.25 385.75C294.25 376.5 289 369.5 278 369.5L264.25 369.5L264.25 221.75C264.25 201.75 251 191.25 233 191.25C213.25 191.25 204 201.5 195.75 219.25L133 352C128.25 363 126.5 370.25 126.5 379.25C126.5 393 136 402.5 150.25 402.5L225.5 402.5L225.5 439.75C225.5 454.5 235.75 460 245 460ZM226.25 370.25L161.5 370.25L161.5 368.5L225 228.25L226.25 228.25ZM343.5 460.25C354.25 460.25 361.25 454.75 363.75 442L376 391.5L451.5 391.5L464 442.25C466.75 456 475 460.25 485 460.25C496 460.25 503.75 452.25 503.75 441C503.75 436 503.25 432.5 502 428.25L445.25 217C440.75 199.25 429.5 191.5 413.5 191.5C397 191.5 387 200.25 382.75 217L326 428.5C325 431.75 323.75 437.75 323.75 441C323.75 452.75 331.5 460.25 343.5 460.25ZM383.5 360.25L412.25 239.25L414.5 239.25L444 360.25Z" fill="black" fill-opacity="0.85"/>
 </g>
</svg>
