<?xml version="1.0" encoding="UTF-8"?>
<!--Generator: Apple Native CoreSVG 326-->
<!DOCTYPE svg
PUBLIC "-//W3C//DTD SVG 1.1//EN"
       "http://www.w3.org/Graphics/SVG/1.1/DTD/svg11.dtd">
<svg version="1.1" xmlns="http://www.w3.org/2000/svg" xmlns:xlink="http://www.w3.org/1999/xlink" viewBox="0 0 651.25 651.75">
 <g>
  <rect height="651.75" opacity="0" width="651.25" x="0" y="0"/>
  <path d="M651.25 325.75C651.25 505 505 651.25 325.5 651.25C146.25 651.25 0 505 0 325.75C0 146.25 146.25 0 325.5 0C505 0 651.25 146.25 651.25 325.75ZM192.5 216.75L128.5 352.5C123.75 363.75 122 371.25 122 380.5C122 394.75 131.75 404.5 146.5 404.5L223 404.5L223 442.25C223 457.5 234 463.5 243.5 463.5C254.25 463.5 263.25 456.25 263.25 442.25L263.25 404.5L277.25 404.5C288.25 404.5 293.75 397.25 293.75 387.25C293.75 377.75 288.75 370.5 277.25 370.5L263.25 370.5L263.25 219.5C263.25 198.5 249.75 188 231 188C210.75 188 200.75 198.5 192.5 216.75ZM384.5 214.5L326.5 431C325.5 434.25 324.5 440.25 324.5 443.75C324.5 455.75 332.25 463.5 344.5 463.5C355.75 463.5 363 457.75 365.5 444.75L378 393.25L455 393.25L467.75 445C470.75 459.5 479.25 463.5 489.5 463.5C500.75 463.5 508.75 455.25 508.75 443.75C508.75 438.5 508.25 434.75 507 430.5L449 214.5C444.5 196.25 433 188.25 416.25 188.25C399.25 188.25 389 197.25 384.5 214.5ZM224 371.25L158 371.25L158 369.5L222.75 226L224 226ZM447.25 361L385.75 361L415 237.5L417.25 237.5Z" fill="black" fill-opacity="0.85"/>
 </g>
</svg>
