<?xml version="1.0" encoding="UTF-8"?>
<!--Generator: Apple Native CoreSVG 326-->
<!DOCTYPE svg
PUBLIC "-//W3C//DTD SVG 1.1//EN"
       "http://www.w3.org/Graphics/SVG/1.1/DTD/svg11.dtd">
<svg version="1.1" xmlns="http://www.w3.org/2000/svg" xmlns:xlink="http://www.w3.org/1999/xlink" viewBox="0 0 651.25 651.75">
 <g>
  <rect height="651.75" opacity="0" width="651.25" x="0" y="0"/>
  <path d="M325.5 651.25C505.25 651.25 651.25 505.5 651.25 325.75C651.25 146 505.25 0 325.5 0C145.75 0 0 146 0 325.75C0 505.5 145.75 651.25 325.5 651.25ZM325.5 604.75C171.25 604.75 46.5 480 46.5 325.75C46.5 171.5 171.25 46.75 325.5 46.75C479.75 46.75 604.5 171.5 604.5 325.75C604.5 480 479.75 604.75 325.5 604.75Z" fill="black" fill-opacity="0.85"/>
  <path d="M240.25 460C250.75 460 259.5 453 259.5 439.75L259.5 402.5L273.25 402.5C284.25 402.5 289.5 395.5 289.5 385.75C289.5 376.5 284.25 369.5 273.25 369.5L259.5 369.5L259.5 221.75C259.5 201.75 246.25 191.25 228.5 191.25C208.5 191.25 199.25 201.5 191.25 219.25L128.25 352C123.5 363 121.75 370.25 121.75 379.25C121.75 393 131.25 402.5 145.5 402.5L220.75 402.5L220.75 439.75C220.75 454.5 231 460 240.25 460ZM221.5 370.25L157 370.25L157 368.5L220.25 228.25L221.5 228.25ZM351.5 460C362.5 460 371.75 450.75 371.75 439.25L371.75 340.5L457.75 340.5L457.75 439.25C457.75 450.75 467 460 478.5 460C489.5 460 499 450.75 499 439.25L499 211.5C499 200.5 489.5 191.25 478.5 191.25C467 191.25 457.75 200.5 457.75 211.5L457.75 306L371.75 306L371.75 211.5C371.75 200.5 362.5 191.25 351.5 191.25C340 191.25 330.75 200.5 330.75 211.5L330.75 439.25C330.75 450.75 340 460 351.5 460Z" fill="black" fill-opacity="0.85"/>
 </g>
</svg>
