<?xml version="1.0" encoding="UTF-8"?>
<!--Generator: Apple Native CoreSVG 326-->
<!DOCTYPE svg
PUBLIC "-//W3C//DTD SVG 1.1//EN"
       "http://www.w3.org/Graphics/SVG/1.1/DTD/svg11.dtd">
<svg version="1.1" xmlns="http://www.w3.org/2000/svg" xmlns:xlink="http://www.w3.org/1999/xlink" viewBox="0 0 731.5 477.25">
 <g>
  <rect height="477.25" opacity="0" width="731.5" x="0" y="0"/>
  <path d="M256.75 476.75C270.25 476.75 280 466.5 280 452.25L280 366.5L328.25 366.5C341 366.5 349.75 358.5 349.75 345.75C349.75 333.75 340.75 325 328.25 325L280 325L280 38.75C280 16.25 263.5 0.5 240.75 0.5C216.5 0.5 202.25 18 189.5 38.25L10.5 304C3.75 314.75 0 325.75 0 335.75C0 353.5 11.75 366.5 33.5 366.5L233.5 366.5L233.5 452.25C233.5 469 245.25 476.75 256.75 476.75ZM233.5 325.5L46.75 325.5L46.75 323.25L231 50.75L233.5 50.75ZM472 470.5L708.75 470.5C722 470.5 731.5 461.5 731.5 448.75C731.5 436.5 722 427.75 708.75 427.75L496.5 427.75L496.5 24.25C496.5 10.75 485.75 0 472.25 0C458.5 0 447.75 10.75 447.75 24.25L447.75 445C447.75 463 459.5 470.5 472 470.5Z" fill="black" fill-opacity="0.85"/>
 </g>
</svg>
