<?xml version="1.0" encoding="UTF-8"?>
<!--Generator: Apple Native CoreSVG 326-->
<!DOCTYPE svg
PUBLIC "-//W3C//DTD SVG 1.1//EN"
       "http://www.w3.org/Graphics/SVG/1.1/DTD/svg11.dtd">
<svg version="1.1" xmlns="http://www.w3.org/2000/svg" xmlns:xlink="http://www.w3.org/1999/xlink" viewBox="0 0 897.25 622.75">
 <g>
  <rect height="622.75" opacity="0" width="897.25" x="0" y="0"/>
  <path d="M0 311.25C0 412 33.25 505 89.25 580C98 591.5 112.25 592.75 123.25 584C133.25 575.5 134.5 562.25 126.75 551.25C76.5 484.5 46.75 401 46.75 311.25C46.75 221 76.5 138 126.75 70.75C134.5 60.25 133.5 47 123.25 38.25C112.5 29.5 97.75 31 89.25 42.5C33.25 117.25 0 210.25 0 311.25ZM897.25 311.25C897.25 210.25 864 117.25 807.75 42.5C799.25 31 784.75 29.5 773.75 38.25C763.75 47 762.75 60.25 770.5 70.75C820.75 138 850.25 221 850.25 311.25C850.25 401 820.75 484.5 770.5 551.25C762.75 562.25 763.75 575.5 773.75 584C784.75 592.75 799.25 591.5 807.75 580C864 505 897.25 412 897.25 311.25Z" fill="black" fill-opacity="0.85"/>
  <path d="M448.5 622.25C620.25 622.25 759.75 483 759.75 311.25C759.75 139.5 620.25 0 448.5 0C276.75 0 137.5 139.5 137.5 311.25C137.5 483 276.75 622.25 448.5 622.25ZM448.5 575.75C302.5 575.75 184 457.25 184 311.25C184 165.25 302.5 46.5 448.5 46.5C594.5 46.5 713.25 165.25 713.25 311.25C713.25 457.25 594.5 575.75 448.5 575.75Z" fill="black" fill-opacity="0.85"/>
  <path d="M258.75 416.75C268 416.75 273.25 411.25 275 402.25L282.75 364.75L333.25 364.75L341.5 402.5C343.75 412.75 349.5 416.75 358 416.75C366.5 416.75 373.25 409.75 373.25 401.5C373.25 399.5 372.25 393.5 371.5 391.25L333 226.5C330 212.5 321.75 205.5 307.75 205.5C294.75 205.5 286.75 212 283.25 226.5L245 391.25C244.25 394.5 243.5 398 243.5 401.5C243.5 411.75 250.25 416.75 258.75 416.75ZM287.75 339.5L307 244.75L308.25 244.75L328.25 339.5ZM417.25 413.75L464.5 413.75C498.75 413.75 515.75 387.75 515.75 356.25C515.75 332.75 502.5 307.75 480.25 306L480.25 304.75C500.75 299.75 509.75 277.25 509.75 259.25C509.75 229.5 493.5 208.25 463 208.25L417.25 208.25C407.5 208.25 401 213.75 401 225.5L401 396.5C401 407.25 406.5 413.75 417.25 413.75ZM433.25 388.5L433.25 319.25L453.5 319.25C473.75 319.25 483 333.5 483 353.75C483 373.5 475 388.5 454.25 388.5ZM433.25 296.5L433.25 233.75L453.75 233.75C471.75 233.75 478.75 246.25 478.75 264C478.75 283 470.25 296.5 451.25 296.5ZM595.75 418C632.5 418 652 393.25 652 358.75C652 325.75 635 311.5 611 299.5L599.75 293.75C583.5 285.5 573 277 573 258.5C573 243.5 580.5 231 594.75 231C609.75 231 616 243 619.25 257.75C620.75 264.5 626.75 268.75 634.25 268.75C643 268.75 647.75 262.5 647.75 255C647.75 251 646.75 246.75 645.5 242.5C638.75 220.75 621.25 203.75 594.75 203.75C564.5 203.75 541.5 225 541.5 261C541.5 293 559 307.75 582 319.75L593 325.5C609.75 334.25 620 342.5 620 361.5C620 378.25 611.75 391.25 595.75 391.25C580.75 391.25 573 379.25 569.5 363.5C567.75 355.75 562.75 351.75 554.5 351.75C545.75 351.75 540.5 358 540.5 366.75C540.5 370 541.25 373.25 542 376.25C548.5 401.5 566.75 418 595.75 418Z" fill="black" fill-opacity="0.85"/>
 </g>
</svg>
