<?xml version="1.0" encoding="UTF-8"?>
<!--Generator: Apple Native CoreSVG 326-->
<!DOCTYPE svg
PUBLIC "-//W3C//DTD SVG 1.1//EN"
       "http://www.w3.org/Graphics/SVG/1.1/DTD/svg11.dtd">
<svg version="1.1" xmlns="http://www.w3.org/2000/svg" xmlns:xlink="http://www.w3.org/1999/xlink" viewBox="0 0 651.25 651.75">
 <g>
  <rect height="651.75" opacity="0" width="651.25" x="0" y="0"/>
  <path d="M651.25 325.75C651.25 505 505 651.25 325.5 651.25C146.25 651.25 0 505 0 325.75C0 146.25 146.25 0 325.5 0C505 0 651.25 146.25 651.25 325.75ZM420.75 274.25C420.75 307.25 439 322.25 462.25 334.5L473.5 340.5C491 349.5 501.25 357.75 501.25 377.25C501.25 394.5 492.75 407.5 476.5 407.5C461.25 407.5 453.25 395.25 450 379.25C448 371.5 442.75 367.25 434.5 367.25C425.5 367.25 420 373.75 420 382.5C420 386 420.5 389.5 421.25 392.5C428.25 418.25 446.75 435 476.5 435C514.25 435 534.25 409.75 534.25 374.25C534.25 340.5 516.75 326 492.25 313.75L480.75 307.75C464 299.25 453.25 290.75 453.25 271.75C453.25 256.5 461 243.75 475.5 243.75C490.75 243.75 497 256 500.5 271C502 278 508.25 282.25 516.25 282.25C525 282.25 530 276 530 268.25C530 264 528.75 259.75 527.5 255.25C520.5 233 502.5 215.75 475.5 215.75C444.75 215.75 420.75 237.5 420.75 274.25ZM156 239L117 407.5C115.75 411 115.25 414.5 115.25 418C115.25 428.75 122.25 433.75 130.75 433.75C140.5 433.75 145.75 428.25 147.5 418.75L155.75 380.75L207.25 380.75L215.75 419C218 429.75 224 433.75 232.75 433.75C241.5 433.75 248.5 426.75 248.5 418C248.5 416 247.5 410 246.5 407.5L207.25 239C204.25 224.75 195.75 217.25 181.25 217.25C167.5 217.25 159.25 224.25 156 239ZM293.5 220.25C283.5 220.25 276.75 226 276.75 238L276.75 413C276.75 424 282.5 430.75 293.5 430.75L342 430.75C377.25 430.75 394.5 404.25 394.5 371.75C394.5 347.75 381 322.25 358.25 320.25L358.25 319C379.25 314 388.5 291 388.5 272.5C388.5 242 371.75 220.25 340.5 220.25ZM361 369.25C361 389.5 352.5 404.75 331.5 404.75L310 404.75L310 334L330.75 334C351.25 334 361 348.5 361 369.25ZM202.25 354.75L160.75 354.75L180.5 257.75L181.75 257.75ZM356.5 277.5C356.5 296.75 348 310.5 328.25 310.5L310 310.5L310 246.5L331 246.5C349.25 246.5 356.5 259 356.5 277.5Z" fill="black" fill-opacity="0.85"/>
 </g>
</svg>
