<?xml version="1.0" encoding="UTF-8"?>
<!--Generator: Apple Native CoreSVG 326-->
<!DOCTYPE svg
PUBLIC "-//W3C//DTD SVG 1.1//EN"
       "http://www.w3.org/Graphics/SVG/1.1/DTD/svg11.dtd">
<svg version="1.1" xmlns="http://www.w3.org/2000/svg" xmlns:xlink="http://www.w3.org/1999/xlink" viewBox="0 0 1127.25 513.25">
 <g>
  <rect height="513.25" opacity="0" width="1127.25" x="0" y="0"/>
  <path d="M77.75 439.75L174.5 439.75L174.5 395.5L80.25 395.5C57.25 395.5 44.25 380.75 44.25 354.75L44.25 305C44.25 245 82.75 211.75 165.5 201.5L295.25 185.25L433.25 99C504.25 54.75 546.75 44.25 670.75 44.25L920.5 44.25C976.75 44.25 1010.5 60.25 1037 98.5L1051.5 119.5C1071.5 148.75 1083 182.75 1083 214.5L1083 356.25C1083 382.75 1072 395.5 1047.25 395.5L971.75 395.5L971.75 439.75L1049.75 439.75C1102.75 439.75 1127.25 412.25 1127.25 353.5L1127.25 214.5C1127.25 174.75 1113 130.75 1088 94.25L1073.5 73.25C1038.25 21.75 992.75 0 920.5 0L670.75 0C539.25 0 487.5 12.5 409.75 61.25L280.25 142.75L160 157.5C53 170.75 0 219.5 0 305L0 359.75C0 410.25 28.75 439.75 77.75 439.75ZM329.5 439.75L819 439.75L819 395.5L329.5 395.5ZM250.75 512.5C310.75 512.5 358 465.5 358 405.5C358 345.25 310.75 298.25 250.75 298.25C190.75 298.25 143.5 345.25 143.5 405.5C143.5 465.5 190.75 512.5 250.75 512.5ZM250.75 468.25C215.5 468.25 188 440.75 188 405.5C188 370 215.5 342.5 250.75 342.5C286 342.5 313.5 370 313.5 405.5C313.5 440.75 286 468.25 250.75 468.25ZM896.75 512.5C957 512.5 1004 465.5 1004 405.5C1004 345.25 957 298.25 896.75 298.25C836.75 298.25 789.75 345.25 789.75 405.5C789.75 465.5 836.75 512.5 896.75 512.5ZM896.75 468.25C861.5 468.25 834 440.75 834 405.5C834 370 861.5 342.5 896.75 342.5C932.25 342.5 959.75 370 959.75 405.5C959.75 440.75 932.25 468.25 896.75 468.25Z" fill="black" fill-opacity="0.85"/>
  <path d="M443 321.25C453.5 321.25 458.5 315.75 460.5 305L466.5 279L509.75 279L516.25 305.5C518.5 316 524 321.25 533.25 321.25C543.75 321.25 550.5 314 550.5 304.5C550.5 300.5 549.5 297.25 548.75 293L515.25 157.5C511.75 142.75 502.75 136 487.75 136C473.75 136 464.5 143 461.25 157.5L428.25 293C427.25 297.25 426.5 300.75 426.5 304.5C426.5 316 434.25 321.25 443 321.25ZM471.25 252.75L487 176.75L488.25 176.75L505 252.75ZM592.5 321.25C603.5 321.25 610.25 314 610.25 302.75L610.25 154.5C610.25 143.25 603.5 136 592.5 136C581.5 136 574.5 143.25 574.5 154.5L574.5 302.75C574.5 314 581.5 321.25 592.5 321.25ZM659 321C669.75 321 676.75 314 676.75 302.75L676.75 250.5L693.75 250.5L714.5 306.75C717.75 315.75 722.75 321 732 321C742.25 321 749.25 314.5 749.25 305.25C749.25 302 748 297.75 746.5 293.25L726.75 243C743.5 233.5 750.25 213.75 750.25 195C750.25 161.5 732.25 138.5 694.25 138.5L659 138.5C647.75 138.5 641.25 145.5 641.25 157L641.25 302.75C641.25 314 648 321 659 321ZM676.75 225.5L676.75 166L691 166C706.25 166 714.25 180 714.25 195.75C714.25 211.75 706.75 225.25 691.25 225.25Z" fill="black" fill-opacity="0.85"/>
 </g>
</svg>
