<?xml version="1.0" encoding="UTF-8"?>
<!--Generator: Apple Native CoreSVG 326-->
<!DOCTYPE svg
PUBLIC "-//W3C//DTD SVG 1.1//EN"
       "http://www.w3.org/Graphics/SVG/1.1/DTD/svg11.dtd">
<svg version="1.1" xmlns="http://www.w3.org/2000/svg" xmlns:xlink="http://www.w3.org/1999/xlink" viewBox="0 0 1215.75 513.25">
 <g>
  <rect height="513.25" opacity="0" width="1215.75" x="0" y="0"/>
  <path d="M327.5 416.25C327.5 465.25 288.75 503.75 239.75 503.75C191.25 503.75 152.25 465 152.25 416.25C152.25 367.5 191.25 328.75 239.75 328.75C288.5 328.75 327.5 367.5 327.5 416.25ZM1005.25 416.25C1005.25 465 966.5 503.75 917.75 503.75C869 503.75 830.25 465 830.25 416.25C830.25 367.75 869.25 328.75 917.75 328.75C966.5 328.75 1005.25 367.5 1005.25 416.25ZM861.5 91.25L869.25 159.25L1137.75 159.25C1187 159.25 1215.75 188.75 1215.75 239.25L1215.75 364.75C1215.75 415.25 1187 444.75 1137.75 444.75L1036.5 444.75C1038.75 435.5 1040.25 426.25 1040.25 416.25C1040.25 348.5 985.75 294 917.75 294C850.25 294 795.5 348.75 795.5 416.25C795.5 426.25 796.75 435.5 799 444.75L359 444.75C361 435.75 362.25 426.25 362.25 416.25C362.25 348.5 307.75 294 239.75 294C172 294 117.5 348.5 117.5 416.25C117.5 426.25 118.75 435.5 121 444.75L77.75 444.75C28.75 444.75 0 415.25 0 364.75L0 292.25C0 216.75 44.75 174.5 142.25 160.25L262.5 142.75L395.25 59C465.5 15 525.5 0 630 0L760.25 0C820 0 854.5 31 861.5 91.25ZM455.25 146L421.5 284.25C420.5 288.75 419.75 292 419.75 296C419.75 308 427.5 313.25 436.75 313.25C447.5 313.25 452.75 307.5 455 296.5L461 270.25L505 270.25L511.25 297C513.75 308 519.5 313.25 529.25 313.25C540 313.25 546.75 305.75 546.75 296C546.75 292 546 288.5 545.25 284.25L511 146C507.5 130.5 498 123.5 482.75 123.5C468 123.5 458.5 130.75 455.25 146ZM571.5 142.75L571.5 294.25C571.5 306 578.75 313.25 590 313.25C601.5 313.25 608.5 306 608.5 294.25L608.5 142.75C608.5 131 601.5 123.5 590 123.5C578.75 123.5 571.5 131 571.5 142.75ZM658.5 126.25C646.75 126.25 640 133.5 640 145.5L640 294.25C640 305.75 647 313.25 658.5 313.25C669.5 313.25 676.75 306 676.75 294.25L676.75 241.25L694 241.25L715 298.25C718.25 307.75 723.5 313.25 733 313.25C743.75 313.25 751 306.5 751 297C751 293.5 749.5 289 748 284.5L728 233.5C745 223.75 752 203.5 752 184.25C752 149.75 733.5 126.25 694.5 126.25ZM500 243L465.75 243L481.75 165.75L483.25 165.75ZM714.75 184.75C714.75 201 707.25 215 691.5 215.25L676.75 215.25L676.75 154.5L691.25 154.5C706.75 154.5 714.75 169 714.75 184.75Z" fill="black" fill-opacity="0.85"/>
 </g>
</svg>
