<?xml version="1.0" encoding="UTF-8"?>
<!--Generator: Apple Native CoreSVG 326-->
<!DOCTYPE svg
PUBLIC "-//W3C//DTD SVG 1.1//EN"
       "http://www.w3.org/Graphics/SVG/1.1/DTD/svg11.dtd">
<svg version="1.1" xmlns="http://www.w3.org/2000/svg" xmlns:xlink="http://www.w3.org/1999/xlink" viewBox="0 0 1136.25 512.75">
 <g>
  <rect height="512.75" opacity="0" width="1136.25" x="0" y="0"/>
  <path d="M343.75 413.25C343.75 467.25 301.5 509.75 247.5 509.75C193.25 509.75 151 467.25 151 413.25C151 359.25 193.25 317 247.5 317C301.5 317 343.75 359.25 343.75 413.25ZM985.25 413.25C985.25 467.25 943 509.75 888.75 509.75C834.75 509.75 792.25 467.25 792.25 413.25C792.25 359.25 834.75 317 888.75 317C943 317 985.25 359.25 985.25 413.25ZM997.25 119.5L1048.75 136.75C1108.75 156.5 1136.25 191.75 1136.25 249.75L1136.25 339C1136.25 410.25 1105.25 443 1037.75 443L1016.75 443C1019 433.25 1020.25 423.5 1020.25 413.25C1020.25 340 962.25 282.25 888.75 282.25C815.25 282.25 757.5 340 757.5 413.25C757.5 423.5 758.75 433.25 760.75 443L375.25 443C377.5 433.25 378.75 423.5 378.75 413.25C378.75 340 321 282.25 247.5 282.25C173.75 282.25 116 340 116 413.25C116 423.5 117.25 433.25 119.25 443L98.25 443C31.5 443 0 410.75 0 340.5L0 298.5C0 225 52 172.25 137.75 161.5L282.25 143.75L413 62C490.5 13.25 547 0 676 0L722.5 0C843 0 928 62 997.25 119.5ZM443.5 153.5L410 291.75C408.75 296.25 408 299.75 408 303.5C408 315.5 416 320.75 425 320.75C435.75 320.75 441 315.25 443.25 304.25L449.25 278L493.25 278L499.75 304.75C502.25 315.5 507.75 320.75 517.5 320.75C528.25 320.75 535.25 313.5 535.25 303.5C535.25 299.5 534.25 296.25 533.5 291.75L499.25 153.5C495.75 138.25 486.25 131.25 471 131.25C456.5 131.25 446.75 138.5 443.5 153.5ZM559.75 150.25L559.75 301.75C559.75 313.5 567 320.75 578.25 320.75C589.75 320.75 596.75 313.5 596.75 301.75L596.75 150.25C596.75 138.75 589.75 131.25 578.25 131.25C567 131.25 559.75 138.75 559.75 150.25ZM646.75 133.75C635 133.75 628.5 141 628.5 153L628.5 301.75C628.5 313.25 635.25 320.75 646.75 320.75C657.75 320.75 665 313.5 665 301.75L665 248.75L682.5 248.75L703.25 306C706.5 315.25 711.75 320.75 721.25 320.75C732 320.75 739.25 314 739.25 304.5C739.25 301.25 737.75 296.5 736.25 292L716.25 241C733.5 231.25 740.25 211 740.25 191.75C740.25 157.25 721.75 133.75 682.75 133.75ZM488.5 250.75L454 250.75L470 173.25L471.5 173.25ZM703 192.25C703 208.5 695.5 222.5 679.75 222.75L665 223L665 162L679.5 162C695 162 703 176.5 703 192.25Z" fill="black" fill-opacity="0.85"/>
 </g>
</svg>
