<?xml version="1.0" encoding="UTF-8"?>
<!--Generator: Apple Native CoreSVG 326-->
<!DOCTYPE svg
PUBLIC "-//W3C//DTD SVG 1.1//EN"
       "http://www.w3.org/Graphics/SVG/1.1/DTD/svg11.dtd">
<svg version="1.1" xmlns="http://www.w3.org/2000/svg" xmlns:xlink="http://www.w3.org/1999/xlink" viewBox="0 0 1181.5 523.25">
 <g>
  <rect height="523.25" opacity="0" width="1181.5" x="0" y="0"/>
  <path d="M356.75 426.75C356.75 481 314.25 523.25 260.25 523.25C206 523.25 163.75 481 163.75 426.75C163.75 373 206 330.5 260.25 330.5C314.25 330.5 356.75 373 356.75 426.75ZM1025.75 426.75C1025.75 481 983.5 523.25 929.25 523.25C875.25 523.25 832.75 481 832.75 426.75C832.75 373 875.25 330.5 929.25 330.5C983.5 330.5 1025.75 373 1025.75 426.75ZM607.25 50.25L463.25 147.25L841.25 123C856.25 122 871 123 886.5 126.25L1080.25 162.75C1153 176.75 1181.5 208 1181.5 281L1181.5 337C1181.5 399.5 1152.5 432.5 1091.75 439.25L1060.25 442.5C1060.5 438.5 1060.5 436.25 1060.5 431.75C1060.5 358.75 1002.5 295.75 929.25 295.75C856 295.75 798 353.75 798 426.75C798 436.25 799 445.5 801 452.75L389.25 452.75C390.75 446 391.5 436 391.5 426.75C391.5 353.75 333.5 295.75 260.25 295.75C187 295.75 128.75 353.75 128.75 426.75C128.75 438.75 130.5 455.75 133.5 466.5L65.75 458.25C20.25 453 0 430.75 0 386L0 343.75C0 258.5 51.25 212.25 153.5 193L377 150.75L580.75 14.5C608-3.75 632.25 33.25 607.25 50.25ZM474.75 221.5L443.25 349C442.5 352.75 442 355.75 442 359.25C442 369.75 449 374.5 457 374.5C466.25 374.5 470.75 369.5 472.5 359.75L478.75 334.5L519.25 334.5L525.75 360.25C527.75 369.75 533.25 374.5 541.5 374.5C551 374.5 557.25 368 557.25 359.25C557.25 355.75 556.25 352.75 555.25 349L523.75 221.5C520.75 207.75 512.5 201.5 498.75 201.5C485.75 201.5 477.5 208 474.75 221.5ZM579.75 218.5L579.75 357.5C579.75 368 586 374.5 596 374.5C606.25 374.5 612.25 368 612.25 357.5L612.25 218.5C612.25 208.25 606.25 201.5 596 201.5C586 201.5 579.75 208.25 579.75 218.5ZM657.75 204.25C647.25 204.25 641.75 210.25 641.75 221.25L641.75 357.5C641.75 367.75 647.5 374.5 657.75 374.5C667.5 374.5 673.75 368 673.75 357.5L673.75 308.25L690.25 308.25L710 361.25C713.25 369.5 717.5 374.5 725.75 374.5C735 374.5 741.75 368.5 741.75 360C741.75 357.25 740.75 353 739.25 349.25L720.5 301.25C736.25 292.75 742.5 274 742.5 256.5C742.5 225.5 725.75 204.25 690.5 204.25ZM515 310.75L482.75 310.75L498.25 239L499.25 239ZM709.75 257.25C709.75 272.25 702.5 285.25 688 285.25L673.75 285.5L673.75 229L687.75 229C702.25 229 709.75 242.5 709.75 257.25Z" fill="black" fill-opacity="0.85"/>
 </g>
</svg>
