<?xml version="1.0" encoding="UTF-8"?>
<!--Generator: Apple Native CoreSVG 326-->
<!DOCTYPE svg
PUBLIC "-//W3C//DTD SVG 1.1//EN"
       "http://www.w3.org/Graphics/SVG/1.1/DTD/svg11.dtd">
<svg version="1.1" xmlns="http://www.w3.org/2000/svg" xmlns:xlink="http://www.w3.org/1999/xlink" viewBox="0 0 1215.75 513.25">
 <g>
  <rect height="513.25" opacity="0" width="1215.75" x="0" y="0"/>
  <path d="M77.75 439.75L163.75 439.75L163.75 395.5L80.25 395.5C57.25 395.5 44.25 380.75 44.25 354.75L44.25 292.25C44.25 241.5 75.5 214.75 148 204.25L277.5 185.25L419 97C482 57.75 535 44.25 630 44.25L758 44.25C793 44.25 813.25 62.75 817 97.5L827.5 193.5L1135.5 193.5C1158.5 193.5 1171.5 208 1171.5 234L1171.5 354.75C1171.5 380.75 1158.5 395.5 1135.5 395.5L1002.75 395.5L1002.75 439.75L1137.75 439.75C1187 439.75 1215.75 410.25 1215.75 359.75L1215.75 229C1215.75 178.5 1187 149 1137.75 149L868 149L861.5 91.25C854.5 31 820 0 760.25 0L630 0C525.5 0 465.5 15 395.25 59L262.5 142.75L142.25 160.25C44.75 174.5 0 216.75 0 292.25L0 359.75C0 410.25 28.75 439.75 77.75 439.75ZM318.75 439.75L840.5 439.75L840.5 395.5L318.75 395.5ZM239.75 512.5C300 512.5 347 465.5 347 405.5C347 345.25 300 298.25 239.75 298.25C179.75 298.25 132.75 345.25 132.75 405.5C132.75 465.5 179.75 512.5 239.75 512.5ZM239.75 468.25C204.5 468.25 177 440.75 177 405.5C177 370 204.5 342.5 239.75 342.5C275.25 342.5 302.75 370 302.75 405.5C302.75 440.75 275.25 468.25 239.75 468.25ZM917.75 512.5C978 512.5 1025 465.5 1025 405.5C1025 345.25 978 298.25 917.75 298.25C857.75 298.25 810.5 345.25 810.5 405.5C810.5 465.5 857.75 512.5 917.75 512.5ZM917.75 468.25C882.5 468.25 855 440.75 855 405.5C855 370 882.5 342.5 917.75 342.5C953.25 342.5 980.75 370 980.75 405.5C980.75 440.75 953.25 468.25 917.75 468.25Z" fill="black" fill-opacity="0.85"/>
  <path d="M435.5 321.25C445.75 321.25 450.75 315.75 452.75 305L459 279L502 279L508.5 305.5C510.75 316 516.5 321.25 525.75 321.25C536 321.25 542.75 314 542.75 304.5C542.75 300.5 542 297.25 541 293L507.75 157.5C504.25 142.75 495.25 136 480.25 136C466 136 457 143 453.75 157.5L420.5 293C419.75 297.25 419 300.75 419 304.5C419 316 426.5 321.25 435.5 321.25ZM463.5 252.75L479.5 176.75L480.75 176.75L497.25 252.75ZM584.75 321.25C596 321.25 602.75 314 602.75 302.75L602.75 154.5C602.75 143.25 596 136 584.75 136C573.75 136 567 143.25 567 154.5L567 302.75C567 314 573.75 321.25 584.75 321.25ZM651.5 321C662.25 321 669 314 669 302.75L669 250.5L686.25 250.5L707 306.75C710 315.75 715.25 321 724.25 321C734.5 321 741.75 314.5 741.75 305.25C741.75 302 740.5 297.75 739 293.25L719 243C736 233.5 742.75 213.75 742.75 195C742.75 161.5 724.75 138.5 686.5 138.5L651.5 138.5C640.25 138.5 633.75 145.5 633.75 157L633.75 302.75C633.75 314 640.5 321 651.5 321ZM669 225.5L669 166L683.5 166C698.75 166 706.75 180 706.75 195.75C706.75 211.75 699 225.25 683.5 225.25Z" fill="black" fill-opacity="0.85"/>
 </g>
</svg>
