<?xml version="1.0" encoding="UTF-8"?>
<!--Generator: Apple Native CoreSVG 326-->
<!DOCTYPE svg
PUBLIC "-//W3C//DTD SVG 1.1//EN"
       "http://www.w3.org/Graphics/SVG/1.1/DTD/svg11.dtd">
<svg version="1.1" xmlns="http://www.w3.org/2000/svg" xmlns:xlink="http://www.w3.org/1999/xlink" viewBox="0 0 713.5 584.25">
 <g>
  <rect height="584.25" opacity="0" width="713.5" x="0" y="0"/>
  <path d="M0 292C0 302 3.75 313.5 17 326L271 565C284.5 577.75 296.25 583.75 310.75 583.75C330.75 583.75 344.5 569.25 344.5 549.5L344.5 416L616 416C661 416 686.75 391.25 686.75 347L686.75 237.75C686.75 193.75 661 168.75 616 168.75L344.5 168.75L344.5 36C344.5 16.25 330.75 0 310.25 0C295.75 0 285.75 6.5 271 20.25L17 257.5C3.5 270.25 0 281.5 0 292Z" fill="black" fill-opacity="0.85"/>
 </g>
</svg>
