<?xml version="1.0" encoding="UTF-8"?>
<!--Generator: Apple Native CoreSVG 326-->
<!DOCTYPE svg
PUBLIC "-//W3C//DTD SVG 1.1//EN"
       "http://www.w3.org/Graphics/SVG/1.1/DTD/svg11.dtd">
<svg version="1.1" xmlns="http://www.w3.org/2000/svg" xmlns:xlink="http://www.w3.org/1999/xlink" viewBox="0 0 651.25 651.75">
 <g>
  <rect height="651.75" opacity="0" width="651.25" x="0" y="0"/>
  <path d="M651.25 326C651.25 505.5 505 651.75 325.5 651.75C146.25 651.75 0 505.5 0 326C0 146.75 146.25 0.5 325.5 0.5C505 0.5 651.25 146.75 651.25 326ZM276.75 172L132.25 306.5C124.5 314 122.5 320.25 122.5 326C122.5 331.75 124.5 338.25 132.25 345.5L276.75 481.25C284.25 488 290.5 491.75 298.75 491.75C310 491.75 318 483.5 318 472.25L318 396.5L471.75 396.5C497.5 396.5 512 382 512 357.5L512 295.5C512 270.5 497.5 256.25 471.75 256.25L318 256.25L318 180.75C318 169.75 310 160.5 298.25 160.5C290.25 160.5 285 164.25 276.75 172Z" fill="black" fill-opacity="0.85"/>
 </g>
</svg>
