<?xml version="1.0" encoding="UTF-8"?>
<!--Generator: Apple Native CoreSVG 326-->
<!DOCTYPE svg
PUBLIC "-//W3C//DTD SVG 1.1//EN"
       "http://www.w3.org/Graphics/SVG/1.1/DTD/svg11.dtd">
<svg version="1.1" xmlns="http://www.w3.org/2000/svg" xmlns:xlink="http://www.w3.org/1999/xlink" viewBox="0 0 665.25 582.25">
 <g>
  <rect height="582.25" opacity="0" width="665.25" x="0" y="0"/>
  <path d="M665.25 92.5L665.25 486.25C665.25 551.5 634.25 582.25 567.75 582.25L97.5 582.25C31.5 582.25 0 551.5 0 486.25L0 321.5C0 278.25 12.25 255.25 46 229.5L292.5 42.5C333 12 365 0.75 414.25 0.75L572.75 0.75C633.75 0.75 665.25 32.25 665.25 92.5ZM381.75 344.5C365.75 344.5 359.25 357.5 367.5 371L437.5 486C445.5 499.25 461.5 499 469.5 486L540 371C548.25 357.5 541.25 344.5 525.5 344.5ZM414.25 45C374.5 45 351 52 322.25 74.75L83.25 257.5C69.5 268 73.5 287.75 92 287.75L572 287.75C602.5 287.75 621 269.5 621 238.25L621 94.75C621 62.75 603 45 572 45Z" fill="black" fill-opacity="0.85"/>
  <path d="M469.5 98L540 213C548.25 226.5 541.25 239.5 525.5 239.5L381.75 239.5C365.75 239.5 359.25 226.5 367.5 213L437.5 98C445.5 84.75 461.5 85 469.5 98Z" fill="black" fill-opacity="0.85"/>
 </g>
</svg>
