<?xml version="1.0" encoding="UTF-8"?>
<!--Generator: Apple Native CoreSVG 326-->
<!DOCTYPE svg
PUBLIC "-//W3C//DTD SVG 1.1//EN"
       "http://www.w3.org/Graphics/SVG/1.1/DTD/svg11.dtd">
<svg version="1.1" xmlns="http://www.w3.org/2000/svg" xmlns:xlink="http://www.w3.org/1999/xlink" viewBox="0 0 1271.25 518.25">
 <g>
  <rect height="518.25" opacity="0" width="1271.25" x="0" y="0"/>
  <path d="M0 259C0 270.5 5 281 15.5 291L237.75 500C251 512.5 261.75 517.75 275.25 517.75C294.5 517.75 308.25 503.25 308.25 484L308.25 374.25L526 374.25C569.5 374.25 596 347.5 596 305.5L596 213.25C596 170.75 569.75 144.75 526 144.75L308.25 144.75L308.25 34.75C308.25 15 294 0 275 0C262.25 0 253.25 4.5 237.75 18.75L15.5 226.5C4 237.5 0 248.25 0 259ZM1271.25 259C1271.25 248.5 1267.5 237.5 1255.75 226.5L1033.25 18.75C1018 4.75 1009.5 0.25 996.5 0.25C977.25 0.25 963 15 963 34.75L963 144.75L745.25 144.75C701.5 144.75 675.25 170.75 675.25 213.25L675.25 305.5C675.25 347.5 701.75 374.25 745.25 374.25L963 374.25L963 484C963 503.25 976.75 517.5 996 517.5C1009.75 517.5 1020 512.25 1033.25 500L1255.75 291C1266.5 281 1271.25 270.25 1271.25 259Z" fill="black" fill-opacity="0.85"/>
 </g>
</svg>
