<?xml version="1.0" encoding="UTF-8"?>
<!--Generator: Apple Native CoreSVG 326-->
<!DOCTYPE svg
PUBLIC "-//W3C//DTD SVG 1.1//EN"
       "http://www.w3.org/Graphics/SVG/1.1/DTD/svg11.dtd">
<svg version="1.1" xmlns="http://www.w3.org/2000/svg" xmlns:xlink="http://www.w3.org/1999/xlink" viewBox="0 0 651.25 671.905">
 <g>
  <rect height="671.905" opacity="0" width="651.25" x="0" y="0"/>
  <path d="M0 335.827C0 445.827 55 544.077 141.5 603.577C153.75 612.577 169.25 609.077 175.75 598.077C182.75 586.577 179.25 573.577 168 565.327C95.25 516.077 46.5 431.577 46.5 335.827C46.5 181.577 171.25 56.8274 325.5 56.8274C479.75 56.8274 604.5 181.577 604.5 335.827C604.5 431.577 556.25 515.827 483.25 565.327C472 573.577 468.5 586.577 475.25 598.077C482 609.077 497 612.577 509.25 603.827C595.5 545.077 651.25 445.827 651.25 335.827C651.25 156.077 505.25 10.0774 325.5 10.0774C145.75 10.0774 0 156.077 0 335.827ZM572.25 623.327L472 518.077C458 503.077 443.75 509.827 440 528.327L415.25 647.827C411.75 664.327 421.5 673.827 438.25 671.577L560.25 654.577C580.25 651.577 586.25 638.077 572.25 623.327Z" fill="black" fill-opacity="0.85"/>
  <path d="M219.5 467.827C229.5 467.827 236.5 463.327 240.75 450.077L266.5 377.577L384.25 377.577L409.75 450.077C414.25 463.077 421 467.827 431.5 467.827C443.5 467.827 451.75 460.077 451.75 448.827C451.75 444.577 451 440.577 448.75 434.577L356 185.827C350.75 171.577 340 164.327 325.25 164.327C310.25 164.327 300 171.577 294.75 185.827L201.75 434.577C199.75 440.577 198.75 444.577 198.75 448.827C198.75 460.327 207 467.827 219.5 467.827ZM277.75 343.577L323.75 213.327L326.75 213.327L372.75 343.577Z" fill="black" fill-opacity="0.85"/>
 </g>
</svg>
