<?xml version="1.0" encoding="UTF-8"?>
<!--Generator: Apple Native CoreSVG 326-->
<!DOCTYPE svg
PUBLIC "-//W3C//DTD SVG 1.1//EN"
       "http://www.w3.org/Graphics/SVG/1.1/DTD/svg11.dtd">
<svg version="1.1" xmlns="http://www.w3.org/2000/svg" xmlns:xlink="http://www.w3.org/1999/xlink" viewBox="0 0 916.75 629.25">
 <g>
  <rect height="629.25" opacity="0" width="916.75" x="0" y="0"/>
  <path d="M318.25 504.5C320.666 512.791 323.39 520.624 326.522 527.866L81.75 593.25C65.5 597.5 54 588 54 573.75C54 562.75 60.75 554.5 72.25 551.5L313.734 487.024ZM301.6 421.649L81.75 480C65.25 484.25 54 475 54 460.5C54 450 60.75 441.25 72.25 438.25L297.334 378.153C298.236 392.705 299.619 407.199 301.6 421.649ZM295.303 309.589L81.75 367C65.75 371.25 54 361.5 54 347.5C54 336.75 60.75 328.25 72.25 325L296.44 264.956C295.68 279.755 295.323 294.62 295.303 309.589ZM303.254 194.581L81.75 253.75C65.5 258 54 248.5 54 234.25C54 223.5 60.75 215 72.25 212L312.156 147.747C308.513 163.36 305.579 178.96 303.254 194.581Z" fill="black" fill-opacity="0.85"/>
  <path d="M862.5 314.5C862.5 454.75 696.5 574.75 514.75 574.75L498 574.75C425.25 574.75 388.75 551.75 370.5 489.5C354.25 432.5 349.75 375.75 349.75 314.5C349.75 253.5 354.25 196.5 370.5 139.5C389 77.25 425.5 54.5 498 54.5L514.75 54.5C696.5 54.5 862.5 174.5 862.5 314.5ZM552 177.25L466.75 406.5C464.5 412 463.75 415.5 463.75 419.5C463.75 430.75 471.25 437.75 483.5 437.75C493 437.75 499.5 433.25 503.5 421.25L527 354.5L635.25 354.5L658.5 421.25C662.5 433.25 669 437.75 678.75 437.75C690.25 437.75 698.25 430.5 698.25 419.5C698.25 415.5 697.5 412 695.25 406.5L610 177.25C605 163.75 595 156.75 580.75 156.75C566.75 156.75 557.25 163.75 552 177.25ZM624.25 322.25L537.75 322.25L580 203.25L582.25 203.25Z" fill="black" fill-opacity="0.85"/>
 </g>
</svg>
