<?xml version="1.0" encoding="UTF-8"?>
<!--Generator: Apple Native CoreSVG 326-->
<!DOCTYPE svg
PUBLIC "-//W3C//DTD SVG 1.1//EN"
       "http://www.w3.org/Graphics/SVG/1.1/DTD/svg11.dtd">
<svg version="1.1" xmlns="http://www.w3.org/2000/svg" xmlns:xlink="http://www.w3.org/1999/xlink" viewBox="0 0 567.375 682.339">
 <g>
  <rect height="682.339" opacity="0" width="567.375" x="0" y="0"/>
  <path d="M27.5627 206.044L54.0627 215.794C77.8127 224.294 99.0627 213.794 107.813 189.544L152.313 67.2944C161.313 42.7944 151.563 21.2944 128.063 12.7944L101.563 3.04441C77.8127-5.70559 56.8127 4.79441 47.8127 29.5444L3.31267 151.544C-5.68733 176.044 4.06267 197.544 27.5627 206.044ZM439.313 206.044L465.813 215.794C489.563 224.294 510.813 213.794 519.563 189.544L564.063 67.2944C573.063 42.7944 563.313 21.2944 539.813 12.7944L513.313 3.04441C489.813-5.70559 468.813 4.79441 459.813 29.5444L415.313 151.544C406.563 176.044 416.063 197.544 439.313 206.044ZM63.8127 680.544L92.0627 680.544C117.063 680.544 133.313 663.294 133.313 637.544L133.313 507.544C133.313 481.544 117.063 464.544 92.0627 464.544L63.8127 464.544C38.8127 464.544 22.3127 481.544 22.3127 507.544L22.3127 637.544C22.3127 663.294 38.8127 680.544 63.8127 680.544ZM475.563 680.544L503.813 680.544C528.813 680.544 545.063 663.294 545.063 637.544L545.063 507.544C545.063 481.544 528.813 464.544 503.813 464.544L475.563 464.544C450.563 464.544 434.313 481.544 434.313 507.544L434.313 637.544C434.313 663.294 450.563 680.544 475.563 680.544ZM111.813 131.544L456.313 131.544L456.313 87.2944L111.813 87.2944ZM261.063 87.2944L261.063 255.294C263.813 257.294 266.563 259.294 269.063 261.544L282.563 274.794L297.813 259.044C300.313 256.794 302.813 254.544 305.313 253.044L305.313 87.2944ZM261.063 594.794L305.313 594.794L305.313 426.544C302.563 424.794 299.813 422.544 297.063 420.044L284.063 407.294L268.813 422.794C266.313 425.044 263.563 427.294 261.063 428.794ZM111.813 594.794L456.313 594.794L456.313 550.294L111.813 550.294Z" fill="black" fill-opacity="0.85"/>
  <path d="M217.063 407.044C223.813 413.544 234.313 414.794 241.063 407.794L284.063 365.044L324.813 405.794C331.313 412.294 341.563 412.044 348.063 405.794C354.563 399.794 354.563 389.044 348.063 382.794L307.313 341.794L349.813 299.294C357.063 292.294 355.813 281.794 349.063 274.794C342.313 268.044 331.813 267.044 325.063 274.044L282.563 316.794L241.313 275.794C234.813 269.794 224.563 269.794 218.063 275.794C211.563 282.044 211.813 292.544 218.063 299.044L259.063 340.294L216.313 382.794C209.313 390.044 210.313 400.294 217.063 407.044Z" fill="black" fill-opacity="0.85"/>
 </g>
</svg>
