<?xml version="1.0" encoding="UTF-8"?>
<!--Generator: Apple Native CoreSVG 326-->
<!DOCTYPE svg
PUBLIC "-//W3C//DTD SVG 1.1//EN"
       "http://www.w3.org/Graphics/SVG/1.1/DTD/svg11.dtd">
<svg version="1.1" xmlns="http://www.w3.org/2000/svg" xmlns:xlink="http://www.w3.org/1999/xlink" viewBox="0 0 567.375 682.339">
 <g>
  <rect height="682.339" opacity="0" width="567.375" x="0" y="0"/>
  <path d="M27.5627 206.044L54.0627 215.794C77.8127 224.294 99.0627 213.794 107.813 189.544L152.313 67.2944C161.313 42.7944 151.563 21.2944 128.063 12.7944L101.563 3.04441C77.8127-5.70559 56.8127 4.79441 47.8127 29.5444L3.31267 151.544C-5.68733 176.044 4.06267 197.544 27.5627 206.044ZM439.313 206.044L465.813 215.794C489.563 224.294 510.813 213.794 519.563 189.544L564.063 67.2944C573.063 42.7944 563.313 21.2944 539.813 12.7944L513.313 3.04441C489.813-5.70559 468.813 4.79441 459.813 29.5444L415.313 151.544C406.563 176.044 416.063 197.544 439.313 206.044ZM63.8127 680.544L92.0627 680.544C117.063 680.544 133.313 663.294 133.313 637.544L133.313 507.544C133.313 481.544 117.063 464.544 92.0627 464.544L63.8127 464.544C38.8127 464.544 22.3127 481.544 22.3127 507.544L22.3127 637.544C22.3127 663.294 38.8127 680.544 63.8127 680.544ZM475.563 680.544L503.813 680.544C528.813 680.544 545.063 663.294 545.063 637.544L545.063 507.544C545.063 481.544 528.813 464.544 503.813 464.544L475.563 464.544C450.563 464.544 434.313 481.544 434.313 507.544L434.313 637.544C434.313 663.294 450.563 680.544 475.563 680.544ZM111.813 131.544L456.313 131.544L456.313 87.2944L111.813 87.2944ZM261.563 87.2944L261.563 487.044C264.063 488.794 266.563 490.544 269.063 492.794L282.563 506.294L298.063 490.294C300.563 487.794 303.063 485.794 305.813 484.294L305.813 87.2944ZM111.813 594.794L195.313 594.794C196.813 592.294 198.563 589.794 200.813 587.544L217.063 571.794L203.563 558.044C201.313 555.794 199.313 553.044 197.563 550.294L111.813 550.294ZM456.313 594.794L456.313 550.294L371.063 550.294C369.563 552.794 367.563 555.544 365.313 557.544L349.313 573.294L362.813 587.044C364.813 589.294 367.063 592.044 368.813 594.794Z" fill="black" fill-opacity="0.85"/>
  <path d="M217.063 638.544C223.813 645.294 234.313 646.294 241.063 639.294L284.063 596.794L324.813 637.544C331.313 643.794 341.563 643.544 348.063 637.544C354.563 631.294 354.563 620.794 348.063 614.294L307.313 573.294L349.813 530.794C357.063 523.794 355.813 513.294 349.063 506.544C342.313 499.794 331.813 498.544 325.063 505.794L282.563 548.294L241.313 507.544C234.813 501.294 224.563 501.294 218.063 507.544C211.563 513.794 211.813 524.044 218.063 530.544L259.063 571.794L216.313 614.544C209.313 621.544 210.313 631.794 217.063 638.544Z" fill="black" fill-opacity="0.85"/>
 </g>
</svg>
