<?xml version="1.0" encoding="UTF-8"?>
<!--Generator: Apple Native CoreSVG 326-->
<!DOCTYPE svg
PUBLIC "-//W3C//DTD SVG 1.1//EN"
       "http://www.w3.org/Graphics/SVG/1.1/DTD/svg11.dtd">
<svg version="1.1" xmlns="http://www.w3.org/2000/svg" xmlns:xlink="http://www.w3.org/1999/xlink" viewBox="0 0 567.375 682.339">
 <g>
  <rect height="682.339" opacity="0" width="567.375" x="0" y="0"/>
  <path d="M27.5627 206.044L54.0627 215.794C77.8127 224.294 99.0627 213.794 107.813 189.544L152.313 67.2944C161.313 42.7944 151.563 21.2944 128.063 12.7944L101.563 3.04441C77.8127-5.70559 56.8127 4.79441 47.8127 29.5444L3.31267 151.544C-5.68733 176.044 4.06267 197.544 27.5627 206.044ZM439.313 206.044L465.813 215.794C489.563 224.294 510.813 213.794 519.563 189.544L564.063 67.2944C573.063 42.7944 563.313 21.2944 539.813 12.7944L513.313 3.04441C489.813-5.70559 468.813 4.79441 459.813 29.5444L415.313 151.544C406.563 176.044 416.063 197.544 439.313 206.044ZM63.8127 680.544L92.0627 680.544C117.063 680.544 133.313 663.294 133.313 637.544L133.313 507.544C133.313 481.544 117.063 464.544 92.0627 464.544L63.8127 464.544C38.8127 464.544 22.3127 481.544 22.3127 507.544L22.3127 637.544C22.3127 663.294 38.8127 680.544 63.8127 680.544ZM475.563 680.544L503.813 680.544C528.813 680.544 545.063 663.294 545.063 637.544L545.063 507.544C545.063 481.544 528.813 464.544 503.813 464.544L475.563 464.544C450.563 464.544 434.313 481.544 434.313 507.544L434.313 637.544C434.313 663.294 450.563 680.544 475.563 680.544ZM111.813 131.544L195.313 131.544C197.063 129.044 199.063 126.544 201.063 124.294L217.063 108.544L203.313 94.7944C201.313 92.5444 199.313 90.0444 197.813 87.2944L111.813 87.2944ZM456.313 131.544L456.313 87.2944L371.313 87.2944C369.563 89.7944 367.563 92.2944 365.313 94.5444L349.313 110.044L362.813 123.794C365.063 126.294 367.313 128.794 368.813 131.544ZM261.563 594.794L305.813 594.794L305.813 195.294C303.063 193.544 300.313 191.544 297.563 189.044L284.063 175.544L268.563 191.544C266.313 194.044 264.063 195.544 261.563 197.294ZM111.813 594.794L456.313 594.794L456.313 550.294L111.813 550.294Z" fill="black" fill-opacity="0.85"/>
  <path d="M216.313 176.294C223.063 182.794 233.563 184.044 240.563 177.044L284.063 133.544L324.313 173.794C330.563 180.044 340.813 180.044 347.313 173.794C353.813 167.294 353.813 156.794 347.313 150.294L307.313 110.044L350.813 66.7944C357.813 60.0444 356.563 49.2944 350.063 42.7944C343.313 36.0444 332.813 34.7944 325.563 41.7944L282.563 85.2944L241.813 45.0444C235.563 38.7944 225.313 39.0444 218.813 45.0444C212.563 51.2944 212.563 61.5444 218.813 68.2944L259.063 108.544L215.563 152.044C208.563 159.044 209.563 169.544 216.313 176.294Z" fill="black" fill-opacity="0.85"/>
 </g>
</svg>
