<?xml version="1.0" encoding="UTF-8"?>
<!--Generator: Apple Native CoreSVG 326-->
<!DOCTYPE svg
PUBLIC "-//W3C//DTD SVG 1.1//EN"
       "http://www.w3.org/Graphics/SVG/1.1/DTD/svg11.dtd">
<svg version="1.1" xmlns="http://www.w3.org/2000/svg" xmlns:xlink="http://www.w3.org/1999/xlink" viewBox="0 0 757.5 718.501">
 <g>
  <rect height="718.501" opacity="0" width="757.5" x="0" y="0"/>
  <path d="M145.346 212.876L98.25 212.876C63.25 212.876 44.25 231.376 44.25 267.126L44.25 534.126C44.25 569.876 63.25 588.376 98.25 588.376L521.156 588.376L565.443 632.626L97.25 632.626C32.75 632.626 0 600.376 0 536.376L0 264.876C0 200.876 32.75 168.626 97.25 168.626L101.059 168.626ZM279.75 123.376L279.75 168.626L477.5 168.626L477.5 123.376C477.5 100.126 491 86.1255 514.75 86.1255L581.25 86.1255C605.25 86.1255 618.5 100.126 618.5 123.376L618.5 168.626L660 168.626C724.75 168.626 757.5 201.126 757.5 264.876L757.5 536.376C757.5 579.07 742.811 607.748 713.582 621.958L677.802 586.178C700.46 580.37 713 562.795 713 534.126L713 267.126C713 231.376 693.5 212.876 659.25 212.876L304.5 212.876L177.75 86.1255L242.5 86.1255C266.5 86.1255 279.75 100.126 279.75 123.376Z" fill="black" fill-opacity="0.85"/>
  <path d="M659.5 677.376C667.75 685.626 681.5 685.876 689.75 677.376C698 668.876 698 655.626 689.75 647.126L84 41.8755C76 33.6255 62.25 33.3755 53.75 41.8755C45.5 49.8755 45.5 63.8755 53.75 72.1255Z" fill="black" fill-opacity="0.85"/>
 </g>
</svg>
