<?xml version="1.0" encoding="UTF-8"?>
<!--Generator: Apple Native CoreSVG 326-->
<!DOCTYPE svg
PUBLIC "-//W3C//DTD SVG 1.1//EN"
       "http://www.w3.org/Graphics/SVG/1.1/DTD/svg11.dtd">
<svg version="1.1" xmlns="http://www.w3.org/2000/svg" xmlns:xlink="http://www.w3.org/1999/xlink" viewBox="0 0 925.75 678.454">
 <g>
  <rect height="678.454" opacity="0" width="925.75" x="0" y="0"/>
  <path d="M438 119.602C443.75 127.352 444.5 129.352 444.5 137.602L444.5 483.997C405.166 521.621 398.57 573.451 421.77 616.077C421.674 616.011 421.587 615.932 421.5 615.852C389.5 588.352 343 568.352 289.5 568.352C234.25 568.352 179 586.102 139 621.602C133.5 626.352 127.25 628.852 120.25 628.852C106.25 628.852 98 620.602 98 607.852L98 157.102C98 146.352 98.5 142.602 102 136.352C135.25 80.6019 209 48.8519 279.5 48.8519C344.5 48.8519 405 74.6019 438 119.602ZM827.75 607.852C827.75 620.602 819.5 628.852 805.5 628.852C798.5 628.852 792.25 626.352 786.75 621.602C751.844 590.428 704.793 572.942 656.43 569.163C678.377 537.106 701.797 503.555 719.75 485.602C743.5 461.602 761.5 453.352 788.75 453.352C802.968 453.352 816.005 451.736 827.75 448.62ZM823.75 136.352C827.5 142.352 827.75 146.352 827.75 157.102L827.75 162.059C808.85 154.433 788.993 150.852 770 150.852C732.5 150.852 695 164.602 667 191.352C593.75 261.602 633.25 333.852 609.5 357.352C572.286 394.76 521.998 424.654 481.25 454.258L481.25 137.602C481.25 129.352 482 127.352 487.75 119.602C520.75 74.6019 581.25 48.8519 646.25 48.8519C716.75 48.8519 790.75 80.6019 823.75 136.352Z" fill="black" fill-opacity="0.85"/>
  <path d="M471 615.602C501.5 646.102 546.5 647.352 577 611.852C601.75 582.352 655.5 493.352 705.5 443.352C730.5 418.102 766 413.352 788.75 413.352C865 413.352 892.25 353.352 885 312.602L790 337.602L778.5 296.602C774.5 282.102 779.75 269.102 797.25 264.602L866.75 246.102C864 240.352 858.5 231.852 851.25 224.602C808.5 180.852 737.25 179.852 694.5 220.352C632.75 279.352 680.75 342.352 637.75 385.602C586.75 436.602 513.25 475.602 475.25 509.602C439.75 541.102 440.25 585.102 471 615.602ZM523.25 586.102C510.5 586.102 500.25 575.852 500.25 563.352C500.25 550.852 510.5 540.852 523.25 540.852C536 540.852 545.75 550.852 545.75 563.352C545.75 575.852 536 586.102 523.25 586.102Z" fill="black" fill-opacity="0.85"/>
 </g>
</svg>
