<?xml version="1.0" encoding="UTF-8"?>
<!--Generator: Apple Native CoreSVG 326-->
<!DOCTYPE svg
PUBLIC "-//W3C//DTD SVG 1.1//EN"
       "http://www.w3.org/Graphics/SVG/1.1/DTD/svg11.dtd">
<svg version="1.1" xmlns="http://www.w3.org/2000/svg" xmlns:xlink="http://www.w3.org/1999/xlink" viewBox="0 0 926 678.454">
 <g>
  <rect height="678.454" opacity="0" width="926" x="0" y="0"/>
  <path d="M813.5 134.352C817 139.852 817.5 143.852 817.5 149.602L817.5 158.333C802.171 153.398 786.201 150.949 770.271 151.058C742.65 113.803 685.873 89.3519 627 89.3519C563.75 89.3519 509.75 115.852 485.25 157.852L485.25 451.444C471.942 460.97 459.531 470.443 448.75 480.102C445.994 482.531 443.383 485.026 441 487.616L441 157.852C416.5 115.852 362.25 89.3519 299.25 89.3519C238 89.3519 179.5 115.602 153 155.102L153 562.102C186.5 536.102 239.5 518.852 299.25 518.852C340.426 518.852 379.496 530.697 410.043 547.488C406.769 566.563 409.019 586.095 416.476 604.395C382.509 577.269 340.472 563.317 298.25 563.102C248.75 562.852 202 579.102 167.25 605.852C156.75 612.602 148.75 617.602 139.25 617.602C123 617.602 108.5 608.852 108.5 586.852L108.5 149.602C108.5 143.852 109.25 139.852 112.5 134.352C141.5 85.3519 213.5 45.1019 299.25 45.1019C370.5 45.1019 430.75 74.1019 463 115.352C495.25 74.1019 555.5 45.1019 627 45.1019C712.75 45.1019 784.5 85.3519 813.5 134.352ZM817.5 586.852C817.5 608.852 803 617.602 786.75 617.602C777.25 617.602 769.25 612.602 758.75 605.852C731.465 584.848 696.781 570.318 659.257 565.311C668.66 551.603 678.276 537.741 687.537 525.122C721.934 532.253 751.684 545.365 773.25 562.102L773.25 454.487C778.188 453.701 783.398 453.352 789 453.352C799.138 453.352 808.675 452.53 817.5 450.837Z" fill="black" fill-opacity="0.85"/>
  <path d="M471 615.602C501.5 646.102 546.75 647.352 577.25 611.852C602 582.352 655.5 493.352 705.5 443.352C730.75 418.102 766.25 413.352 789 413.352C865 413.352 892.25 353.352 885 312.602L790 337.602L778.75 296.602C774.75 282.102 780 269.102 797.25 264.602L867 246.102C864.25 240.352 858.5 231.852 851.5 224.602C808.75 180.852 737.25 179.852 694.5 220.352C632.75 279.352 680.75 342.352 637.75 385.602C586.75 436.602 513.5 475.602 475.25 509.602C439.75 541.102 440.25 585.102 471 615.602ZM523.5 586.102C510.5 586.102 500.25 575.852 500.25 563.352C500.25 550.852 510.5 540.852 523.5 540.852C536 540.852 546 550.852 546 563.352C546 575.852 536 586.102 523.5 586.102Z" fill="black" fill-opacity="0.85"/>
 </g>
</svg>
