<?xml version="1.0" encoding="UTF-8"?>
<!--Generator: Apple Native CoreSVG 326-->
<!DOCTYPE svg
PUBLIC "-//W3C//DTD SVG 1.1//EN"
       "http://www.w3.org/Graphics/SVG/1.1/DTD/svg11.dtd">
<svg version="1.1" xmlns="http://www.w3.org/2000/svg" xmlns:xlink="http://www.w3.org/1999/xlink" viewBox="0 0 591.5 509.25">
 <g>
  <rect height="509.25" opacity="0" width="591.5" x="0" y="0"/>
  <path d="M591.5 441.25L591.5 1.25C517 7.25 471 23.5 413 60.25L282.25 142L137.75 159.75C52 170.5 0 223.25 0 296.75L0 338.75C0 409 31.5 441.25 98.25 441.25L119.25 441.25C117.25 431.5 116 421.75 116 411.5C116 338.25 173.75 280.5 247.5 280.5C321 280.5 378.75 338.25 378.75 411.5C378.75 421.75 377.5 431.5 375.25 441.25ZM247.5 508C301.5 508 343.75 465.5 343.75 411.5C343.75 357.5 301.5 315.25 247.5 315.25C193.25 315.25 151 357.5 151 411.5C151 465.5 193.25 508 247.5 508ZM20.75 40L124.75 40C138 40 146.75 43 154.75 51L268 164.25L306 143.25L187.25 24.5C170.25 7.25 148.25 0 120.25 0L20.75 0C8 0 0 8 0 19.75C0 31.75 8 40 20.75 40Z" fill="black" fill-opacity="0.85"/>
 </g>
</svg>
