<?xml version="1.0" encoding="UTF-8"?>
<!--Generator: Apple Native CoreSVG 326-->
<!DOCTYPE svg
PUBLIC "-//W3C//DTD SVG 1.1//EN"
       "http://www.w3.org/Graphics/SVG/1.1/DTD/svg11.dtd">
<svg version="1.1" xmlns="http://www.w3.org/2000/svg" xmlns:xlink="http://www.w3.org/1999/xlink" viewBox="0 0 1136.25 777.938">
 <g>
  <rect height="777.938" opacity="0" width="1136.25" x="0" y="0"/>
  <path d="M343.75 545.844C343.75 599.844 301.5 642.344 247.5 642.344C193.25 642.344 151 599.844 151 545.844C151 491.844 193.25 449.594 247.5 449.594C301.5 449.594 343.75 491.844 343.75 545.844ZM985.25 545.844C985.25 599.844 943 642.344 888.75 642.344C834.75 642.344 792.25 599.844 792.25 545.844C792.25 491.844 834.75 449.594 888.75 449.594C943 449.594 985.25 491.844 985.25 545.844ZM997.25 252.094L1048.75 269.344C1108.75 289.094 1136.25 324.344 1136.25 382.344L1136.25 471.594C1136.25 542.844 1105.25 575.594 1037.75 575.594L1016.75 575.594C1019 565.844 1020.25 556.094 1020.25 545.844C1020.25 472.594 962.25 414.844 888.75 414.844C815.25 414.844 757.5 472.594 757.5 545.844C757.5 556.094 758.75 565.844 760.75 575.594L375.25 575.594C377.5 565.844 378.75 556.094 378.75 545.844C378.75 472.594 321 414.844 247.5 414.844C173.75 414.844 116 472.594 116 545.844C116 556.094 117.25 565.844 119.25 575.594L98.25 575.594C31.5 575.594 0 543.344 0 473.094L0 431.094C0 357.594 52 304.844 137.75 294.094L282.25 276.344L413 194.594C490.5 145.844 547 132.594 676 132.594L722.5 132.594C843 132.594 928 194.594 997.25 252.094ZM552 346.844L482 461.844C473.75 475.344 480.25 488.344 496.25 488.344L640 488.344C655.75 488.344 662.75 475.344 654.5 461.844L584 346.844C576 333.844 560 333.594 552 346.844Z" fill="black" fill-opacity="0.85"/>
  <path d="M654.5 653.094L584 768.094C576 781.094 560 781.344 552 768.094L482 653.094C473.75 639.594 480.25 626.594 496.25 626.594L640 626.594C655.75 626.594 662.75 639.594 654.5 653.094Z" fill="black" fill-opacity="0.85"/>
 </g>
</svg>
