<?xml version="1.0" encoding="UTF-8"?>
<!--Generator: Apple Native CoreSVG 326-->
<!DOCTYPE svg
PUBLIC "-//W3C//DTD SVG 1.1//EN"
       "http://www.w3.org/Graphics/SVG/1.1/DTD/svg11.dtd">
<svg version="1.1" xmlns="http://www.w3.org/2000/svg" xmlns:xlink="http://www.w3.org/1999/xlink" viewBox="0 0 620.5 760.75">
 <g>
  <rect height="760.75" opacity="0" width="620.5" x="0" y="0"/>
  <path d="M308 45.5C378.5 45.5 442.25 71 490.75 115.5C501.75 125.5 514.75 128.25 524.75 119.5C535 110.5 535 95.25 523.5 84.75C466.5 31.5 390.5 0.75 308 0.75C225.25 0.75 149.25 31.5 92.5 84.75C81 95.25 81 110.5 91.25 119.5C101 128.25 114 125.5 125.25 115.5C173.5 71 237.25 45.5 308 45.5Z" fill="black" fill-opacity="0.85"/>
  <path d="M309 173.5C344 173.5 376.5 184 400.75 205C412.25 213.75 424.75 217.5 434.75 208.75C445 199.75 445.25 183.25 432.75 173.5C399.25 145 355.5 128.75 309 128.75C262.25 128.75 218.5 145 185 173.5C172.5 183.25 172.75 199.75 183 208.75C193 217.5 205.25 213.75 217 205C242.5 185.25 273.75 173.5 309 173.5Z" fill="black" fill-opacity="0.85"/>
  <path d="M0 633.75C0 670 20.75 695 58.75 695L561.5 695C599.25 695 620.5 670 620.5 633.75L620.5 557C620.5 512 613 485 586.5 455.5L561.25 427L533.75 348.25C518.25 303.75 488.5 284.75 451.5 280.75C433.5 278.5 375.25 276.75 310 276.75C244.75 276.75 186.75 278.5 168.5 280.75C131.25 284.75 102 304 86.5 348.25L58.75 427L33.75 455.5C7.5 485.25 0 512 0 557ZM38.5 625.75L38.5 557C38.5 521.5 42.5 504.5 63.75 479.5L94 444.5L121.5 364.5C132.25 333.25 148.75 322.5 173.25 319.5C189.5 317.5 242.75 315.25 310 315.25C377.25 315.25 430.75 317.5 447 319.5C471.5 322.5 488 333.25 498.75 364.5L526.25 444.5L556.5 479.5C577.75 504.5 582 521.5 582 557L582 625.75C582 646 574.25 656.5 553.75 656.5L66.5 656.5C46 656.5 38.5 646 38.5 625.75ZM138.5 435.75L481.5 435.75C493.5 435.75 497.25 426.75 493.75 416L478.25 370.25C471.75 350.75 461.25 343.25 443.75 341C425.75 338.5 380.75 336.75 310 336.75C239.5 336.75 194.5 338.5 176.5 341C159 343.25 148.5 350.75 142 370.25L126.25 416C122.5 426.75 126.75 435.75 138.5 435.75ZM105.75 590.25C120.5 590.25 131.25 579.75 131.25 565L131.25 525.5C131.25 510.5 120.5 500 105.75 500C91 500 80.25 510.75 80.25 525.5L80.25 565C80.25 579.5 91 590.25 105.75 590.25ZM252.75 579L366 579C378 579 385.75 571.5 385.75 558.75L385.75 531.25C385.75 519 378 511.25 366 511.25L252.75 511.25C241 511.25 233.5 519 233.5 531.25L233.5 558.75C233.5 571.5 241 579 252.75 579ZM516.25 590.25C531.25 590.25 542.25 579.75 542.25 565L542.25 525.5C542.25 510.5 531.25 500 516.25 500C502 500 491 510.75 491 525.5L491 565C491 579.25 502 590.25 516.25 590.25ZM51.5 760.75L82 760.75C101.75 760.75 116.75 745.75 116.75 726.5L116.75 677.5L17.25 663.75L17.25 726.5C17.25 745.75 32.25 760.75 51.5 760.75ZM538 760.75L568.75 760.75C588 760.75 603 745.75 603 726.5L603 663.75L503.75 677.5L503.75 726.5C503.75 745.75 518.5 760.75 538 760.75Z" fill="black" fill-opacity="0.85"/>
 </g>
</svg>
