<?xml version="1.0" encoding="UTF-8"?>
<!--Generator: Apple Native CoreSVG 326-->
<!DOCTYPE svg
PUBLIC "-//W3C//DTD SVG 1.1//EN"
       "http://www.w3.org/Graphics/SVG/1.1/DTD/svg11.dtd">
<svg version="1.1" xmlns="http://www.w3.org/2000/svg" xmlns:xlink="http://www.w3.org/1999/xlink" viewBox="0 0 591 511.75">
 <g>
  <rect height="511.75" opacity="0" width="591" x="0" y="0"/>
  <path d="M591 47L591 2.5C517.25 8.5 471.25 24.75 413 61.5L282.25 143.25L137.75 161C52 171.75 0 224.5 0 298L0 340C0 410.25 31.5 442.5 98.25 442.5L144.25 442.5L144.25 398L98.25 398C61.5 398 44.25 379.25 44.25 338.5L44.25 298C44.25 248.75 80.75 212.25 143.5 204.75L273.25 189C293 186.5 304.5 182.25 317.5 174.25L436.75 99.25C488.25 67 527.25 52.5 591 47ZM591 442.5L591 398L314.5 398L314.5 442.5ZM232.25 511.75C294.25 511.75 342.75 463.25 342.75 401.25C342.75 339.25 294.25 291 232.25 291C170.25 291 122 339.25 122 401.25C122 463.25 170.25 511.75 232.25 511.75ZM232.25 470C194 470 163.75 439.75 163.75 401.25C163.75 363 194 332.75 232.25 332.75C270.75 332.75 301 363 301 401.25C301 439.75 270.75 470 232.25 470ZM20.75 41.25L124.75 41.25C138 41.25 146.75 44.25 154.75 52.25L268 165.5L306 144.5L187.25 25.75C170.25 8.5 148.25 1.25 120.25 1.25L20.75 1.25C8 1.25 0 9.25 0 21C0 33 8 41.25 20.75 41.25Z" fill="black" fill-opacity="0.85"/>
 </g>
</svg>
