<?xml version="1.0" encoding="UTF-8"?>
<!--Generator: Apple Native CoreSVG 326-->
<!DOCTYPE svg
PUBLIC "-//W3C//DTD SVG 1.1//EN"
       "http://www.w3.org/Graphics/SVG/1.1/DTD/svg11.dtd">
<svg version="1.1" xmlns="http://www.w3.org/2000/svg" xmlns:xlink="http://www.w3.org/1999/xlink" viewBox="0 0 1136.25 874.75">
 <g>
  <rect height="874.75" opacity="0" width="1136.25" x="0" y="0"/>
  <path d="M997.25 300.5L1048.75 317.75C1108.75 337.5 1136.25 372.75 1136.25 430.75L1136.25 520C1136.25 591.25 1105.25 624 1037.75 624L1006.49 624C990.548 664.992 951.134 693.25 904 693.25C856.675 693.25 817.216 664.992 801.267 624L334.983 624C319.034 664.992 279.575 693.25 232.25 693.25C184.925 693.25 145.611 664.992 129.732 624L98.25 624C31.5 624 0 591.75 0 521.5L0 479.5C0 406 52 353.25 137.75 342.5L282.25 324.75L413 243C452.307 218.275 486.211 202.681 526.946 193.346L528.032 238.93C496.383 247.321 468.959 260.563 436.75 280.75L317.5 355.75C304.5 363.75 293 368 273.25 370.5L143.5 386.25C80.75 393.75 44.25 430.25 44.25 479.5L44.25 520C44.25 560.75 61.5 579.5 98.25 579.5L122.158 579.5C123.715 519.054 171.349 472.5 232.25 472.5C293.151 472.5 341.026 519.054 342.591 579.5L793.659 579.5C795.224 519.054 843.099 472.5 904 472.5C964.655 472.5 1012.53 519.054 1014.09 579.5L1037.75 579.5C1074.75 579.5 1092 560.75 1092 520L1092 430.75C1092 394.75 1074.75 375.25 1035.75 362.5L999.75 351C982.75 345.5 975.25 342.5 961.25 330.25C877.25 256.75 809.75 225.5 722.5 225.5L676 225.5C669.697 225.5 663.593 225.529 657.785 225.61L658.846 181.118C664.311 181.028 670.079 181 676 181L722.5 181C843 181 928 241.5 997.25 300.5ZM163.75 582.75C163.75 621.25 194 651.5 232.25 651.5C270.75 651.5 301 621.25 301 582.75C301 544.5 270.75 514.25 232.25 514.25C194 514.25 163.75 544.5 163.75 582.75ZM835.25 582.75C835.25 621.25 865.5 651.5 904 651.5C942.25 651.5 972.5 621.25 972.5 582.75C972.5 544.5 942.25 514.25 904 514.25C865.5 514.25 835.25 544.5 835.25 582.75Z" fill="black" fill-opacity="0.85"/>
  <path d="M592.75 462C613.5 462 630.75 445 630.75 425C630.75 404.75 613.75 388.25 592.75 388.25C571.75 388.25 554.75 404.75 554.75 425C554.75 445 572 462 592.75 462ZM592.75 322.5C606.25 322.5 615.75 313 616.25 299.25L621.75 68.75C622.25 51.5 610.75 40 592.75 40C574.75 40 563.25 51.5 563.75 68.75L569.25 299.25C569.75 313 579.25 322.5 592.75 322.5Z" fill="black" fill-opacity="0.85"/>
 </g>
</svg>
