<?xml version="1.0" encoding="UTF-8"?>
<!--Generator: Apple Native CoreSVG 326-->
<!DOCTYPE svg
PUBLIC "-//W3C//DTD SVG 1.1//EN"
       "http://www.w3.org/Graphics/SVG/1.1/DTD/svg11.dtd">
<svg version="1.1" xmlns="http://www.w3.org/2000/svg" xmlns:xlink="http://www.w3.org/1999/xlink" viewBox="0 0 722 512.75">
 <g>
  <rect height="512.75" opacity="0" width="722" x="0" y="0"/>
  <path d="M531.25 383.75L524.75 420.25L704.25 420.25C714.25 420.25 722 411.75 722 401.75C722 391.75 714.25 383.75 704.25 383.75ZM629 347.25L681.25 347.25C684.25 347.25 687.5 346.5 690.25 344.5C704.25 333.25 713.5 316.5 713.5 297.5C713.5 266 687.25 239.25 655 239.25C623 239.25 596.5 266 596.5 297.5C596.5 316.5 606 333.25 619.75 344.5C622.5 346.5 626 347.25 629 347.25ZM655 462.5C666.25 462.5 674.75 453.5 674.75 442.5L674.75 345.25L634.75 345.25L634.75 442.5C634.75 453.5 644 462.5 655 462.5ZM334.25 512.25C396.25 512.25 444.75 463.75 444.75 401.75C444.75 339.75 396.25 291.5 334.25 291.5C272.25 291.5 224 339.75 224 401.75C224 463.75 272.25 512.25 334.25 512.25ZM334.25 470.5C296 470.5 265.75 440.25 265.75 401.75C265.75 363.5 296 333.25 334.25 333.25C372.75 333.25 403 363.5 403 401.75C403 440.25 372.75 470.5 334.25 470.5ZM0 398.5L0 443L255.5 443L255.5 398.5ZM0 5L0 49.5C29 45.75 62.75 44.5 106.5 44.5L152.75 44.5C240.25 44.5 307.75 75.75 391.5 149.25C405.75 161.5 413.25 164.5 430.25 170L466.25 181.5C505.25 194.25 522.25 213.75 522.25 249.75L522.25 339C522.25 379.75 505.25 398.5 468.25 398.5L421.75 398.5L421.75 443L468.25 443C535.75 443 566.75 410.25 566.75 339L566.75 249.75C566.75 191.75 539 156.5 479.25 136.75L427.75 119.5C358.5 62 273.5 0 152.75 0L106.5 0C64.25 0 30 1.25 0 5Z" fill="black" fill-opacity="0.85"/>
 </g>
</svg>
