<?xml version="1.0" encoding="UTF-8"?>
<!--Generator: Apple Native CoreSVG 326-->
<!DOCTYPE svg
PUBLIC "-//W3C//DTD SVG 1.1//EN"
       "http://www.w3.org/Graphics/SVG/1.1/DTD/svg11.dtd">
<svg version="1.1" xmlns="http://www.w3.org/2000/svg" xmlns:xlink="http://www.w3.org/1999/xlink" viewBox="0 0 431.25 861.25">
 <g>
  <rect height="861.25" opacity="0" width="431.25" x="0" y="0"/>
  <path d="M215.75 819.5C157.25 819.5 104.5 797.5 63.75 760.5C52 750 39.75 749.25 31.5 757.5C22.25 766.25 22.5 779.5 32.5 789.75C80.5 837.75 146.25 861 215.75 861C285 861 351 837.75 399 789.75C408.75 779.5 409 766.25 400 757.5C391.75 749.25 379.5 750 367.5 760.5C327 797.5 274 819.5 215.75 819.5Z" fill="black" fill-opacity="0.85"/>
  <path d="M215.75 707.5C185.5 707.5 159.75 698 140.25 681C126.5 670.75 114.75 670.75 106.75 679.25C98 687.25 98.5 699.75 107.5 709C128.75 730.25 170.75 749 215.75 749C260.75 749 302.5 730.25 323.75 709C333 699.75 333.25 687.25 324.75 679.25C316.5 670.75 305 670.75 291.25 681C271.5 698 245.75 707.5 215.75 707.5Z" fill="black" fill-opacity="0.85"/>
  <path d="M215.75 629.25C335.25 629.25 391.5 601 391.5 532.25L391.5 113.5C391.5 41.75 325.5 0 215.75 0C105.75 0 40 41.75 40 113.5L40 532.25C40 601 96 629.25 215.75 629.25ZM63.75 246.5L63.75 184.25L26.25 184.25C11.25 184.25 0 195 0 209.25L0 221.75C0 235.75 11.25 246.5 26.25 246.5ZM367.5 246.5L405 246.5C420 246.5 431.25 235.75 431.25 221.75L431.25 209.25C431.25 195 420 184.25 405 184.25L367.5 184.25ZM215.5 263.25C193.25 263.25 154 265.25 141.25 265.25C121.5 265.25 112.25 257 110.5 236L106.25 191.25C103.25 153.25 126.25 137.75 215.5 137.75C305 137.75 328 153.25 325 191.25L321.25 236C319 257 310 265.25 290 265.25C277.25 265.25 240.5 263.25 215.5 263.25ZM215.5 532.25C129.25 532.25 102.5 519.75 107.75 480.75L111 458.25C115.5 426.75 140 416.75 215.5 416.75C291.25 416.75 315.75 426.75 320.5 458.25L323.5 480.75C329.25 519.75 302 532.25 215.5 532.25Z" fill="black" fill-opacity="0.85"/>
 </g>
</svg>
