<?xml version="1.0" encoding="UTF-8"?>
<!--Generator: Apple Native CoreSVG 326-->
<!DOCTYPE svg
PUBLIC "-//W3C//DTD SVG 1.1//EN"
       "http://www.w3.org/Graphics/SVG/1.1/DTD/svg11.dtd">
<svg version="1.1" xmlns="http://www.w3.org/2000/svg" xmlns:xlink="http://www.w3.org/1999/xlink" viewBox="0 0 755 592.75">
 <g>
  <rect height="592.75" opacity="0" width="755" x="0" y="0"/>
  <path d="M143.5 199.75C141 210.25 145.25 215.25 157.25 214.5C210.25 210.75 271 208 377.5 208C484 208 544.75 210.75 597.75 214.5C609.75 215.25 614 210.25 611.75 199.75C603.25 162.5 588.75 119.25 578.5 101.5C569.75 86.25 559 78.75 540 76C516 72.75 462 70.75 377.5 70.75C293 70.75 239 72.75 215 76C196 78.75 185.25 86.25 176.5 101.5C166.5 119.25 151.75 162.5 143.5 199.75ZM145 417.75C173 417.75 194.25 396.75 194.25 368.5C194.25 340.5 173 319.25 145 319.25C116.75 319.25 95.5 340.5 95.5 368.5C95.5 396.75 116.75 417.75 145 417.75ZM293.75 407L461.25 407C482.25 407 496.75 392.5 496.75 371.75C496.75 350.75 482.25 336.25 461.25 336.25L293.75 336.25C272.75 336.25 258.5 350.75 258.5 371.75C258.5 392.5 272.75 407 293.75 407ZM610.25 417.75C638.25 417.75 659.5 396.75 659.5 368.5C659.5 340.5 638.25 319.25 610.25 319.25C582 319.25 560.75 340.5 560.75 368.5C560.75 396.75 582 417.75 610.25 417.75ZM377.5 505.5C484.5 505.5 628.25 500 689.25 493C731.25 488.25 755 465.75 755 425.25L755 368.5C755 313.25 743.25 283.75 714.75 246.75L687.25 211C675.5 153 654 91.75 642.75 68C625.75 31.75 592.5 11.5 551.5 6C529.75 3 458.25 1.25 377.5 1.25C296.75 1.25 225.25 3.25 203.5 6C162.5 11 129.25 31.75 112.25 68C101 91.75 79.75 153 67.75 211L40.25 246.75C11.75 283.75 0 313.25 0 368.5L0 425.25C0 465.75 23.75 488.25 65.75 493C126.75 500 270.5 505.5 377.5 505.5ZM377.5 468.75C269.75 468.75 128.5 463.75 75 457C47 453.75 36.75 440 36.75 415.25L36.75 368.5C36.75 323.75 44 302.5 69.5 269.25L102 226.5C111.25 177.5 132.25 112.75 145.5 84.75C156.5 61.5 177.5 47 208 43.25C228.5 41 294.5 38 377.5 38C460.5 38 527.5 41 546.5 43.25C577.75 47.25 598.5 61.75 609.5 84.75C623 112.75 643.75 177.5 653 226.5L685.5 269.25C711 302.5 718.25 323.75 718.25 368.5L718.25 415.25C718.25 440 708 453.75 680 457C626.5 463.5 485.5 468.75 377.5 468.75ZM58.5 592.75L96 592.75C119.75 592.75 138 574.5 138 551L138 478.25L16.5 461L16.5 551C16.5 574.25 34.75 592.75 58.5 592.75ZM659 592.75L696.5 592.75C720.25 592.75 738.5 574.5 738.5 551L738.5 461L617 478.25L617 551C617 574.5 635.25 592.75 659 592.75Z" fill="black" fill-opacity="0.85"/>
 </g>
</svg>
