<?xml version="1.0" encoding="UTF-8"?>
<!--Generator: Apple Native CoreSVG 326-->
<!DOCTYPE svg
PUBLIC "-//W3C//DTD SVG 1.1//EN"
       "http://www.w3.org/Graphics/SVG/1.1/DTD/svg11.dtd">
<svg version="1.1" xmlns="http://www.w3.org/2000/svg" xmlns:xlink="http://www.w3.org/1999/xlink" viewBox="0 0 725.125 813.25">
 <g>
  <rect height="813.25" opacity="0" width="725.125" x="0" y="0"/>
  <path d="M362.562 812.75C517.562 812.75 587.062 777.25 587.062 695L587.062 143.25C587.062 52.5 504.812 0 362.562 0C220.312 0 138.062 52.5 138.062 143.25L138.062 695C138.062 777.25 207.562 812.75 362.562 812.75ZM362.562 336C330.562 336 282.312 338.5 265.562 338.5C241.062 338.5 230.062 329 227.562 303.25L222.562 244C218.312 197 248.812 177 362.562 177C476.562 177 507.062 197 502.812 244L497.562 303.25C495.312 329 484.312 338.5 459.812 338.5C443.062 338.5 391.562 336 362.562 336ZM362.562 688C251.562 688 218.062 671.5 224.562 623.5L228.312 594C233.312 555.25 265.812 542 362.562 542C459.562 542 492.062 555.25 497.062 594L500.812 623.5C507.312 671.5 473.812 688 362.562 688ZM566.812 221.25L566.812 285.75L686.062 404.25C695.062 413.25 709.562 413 718.562 404.25C727.312 395.25 727.312 380.5 718.562 371.75ZM566.812 465.75L566.812 530.25L686.062 648.75C695.062 657.75 709.562 657.5 718.562 648.75C727.312 639.75 727.312 625 718.562 616.25Z" fill="black" fill-opacity="0.85"/>
 </g>
</svg>
