<?xml version="1.0" encoding="UTF-8"?>
<!--Generator: Apple Native CoreSVG 326-->
<!DOCTYPE svg
PUBLIC "-//W3C//DTD SVG 1.1//EN"
       "http://www.w3.org/Graphics/SVG/1.1/DTD/svg11.dtd">
<svg version="1.1" xmlns="http://www.w3.org/2000/svg" xmlns:xlink="http://www.w3.org/1999/xlink" viewBox="0 0 725.5 813.25">
 <g>
  <rect height="813.25" opacity="0" width="725.5" x="0" y="0"/>
  <path d="M362.75 812.75C517.75 812.75 587.25 777.25 587.25 695L587.25 143.25C587.25 52.5 505 0 362.75 0C220.5 0 138.25 52.5 138.25 143.25L138.25 695C138.25 777.25 207.75 812.75 362.75 812.75ZM362.75 336C330.75 336 282.5 338.5 265.75 338.5C241.25 338.5 230.25 329 227.75 303.25L222.75 244C218.5 197 249 177 362.75 177C476.75 177 507.25 197 503 244L497.75 303.25C495.5 329 484.5 338.5 460 338.5C443.25 338.5 391.75 336 362.75 336ZM362.75 688C251.75 688 218.25 671.5 224.75 623.5L228.5 594C233.5 555.25 266 542 362.75 542C459.75 542 492.25 555.25 497.25 594L501 623.5C507.5 671.5 474 688 362.75 688ZM158.5 465.75L6.75 616.25C-2.25 625-2.25 639.75 6.75 648.75C15.75 657.5 30 657.75 39.25 648.75L158.5 530.25Z" fill="black" fill-opacity="0.85"/>
 </g>
</svg>
