<?xml version="1.0" encoding="UTF-8"?>
<!--Generator: Apple Native CoreSVG 326-->
<!DOCTYPE svg
PUBLIC "-//W3C//DTD SVG 1.1//EN"
       "http://www.w3.org/Graphics/SVG/1.1/DTD/svg11.dtd">
<svg version="1.1" xmlns="http://www.w3.org/2000/svg" xmlns:xlink="http://www.w3.org/1999/xlink" viewBox="0 0 725.375 813.25">
 <g>
  <rect height="813.25" opacity="0" width="725.375" x="0" y="0"/>
  <path d="M158.312 221.25L6.8125 371.75C-2.1875 380.5-2.1875 395.25 6.8125 404.25C15.5625 413 30.0625 413.25 39.3125 404.25L158.312 285.75ZM567.062 221.25L567.062 285.75L686.312 404.25C695.312 413.25 709.812 413 718.812 404.25C727.562 395.25 727.562 380.5 718.812 371.75ZM362.812 812.75C517.812 812.75 587.312 777.25 587.312 695L587.312 143.25C587.312 52.5 505.062 0 362.812 0C220.562 0 138.312 52.5 138.312 143.25L138.312 695C138.312 777.25 207.812 812.75 362.812 812.75ZM362.812 767.25C240.062 767.25 184.062 744.5 184.062 693L184.062 143.25C184.062 81.5 249.562 45.75 362.812 45.75C476.062 45.75 541.562 81.5 541.562 143.25L541.562 693C541.562 744.5 485.562 767.25 362.812 767.25ZM362.812 338.5C391.062 338.5 441.562 340.75 457.562 340.75C481.812 340.75 492.562 331.5 494.562 306.25L499.812 248.5C503.562 202.75 474.062 183.25 362.812 183.25C251.562 183.25 222.062 202.75 226.062 248.5L231.062 306.25C233.312 331.5 244.062 340.75 268.062 340.75C284.312 340.75 331.562 338.5 362.812 338.5ZM362.812 681.5C471.312 681.5 503.812 665.75 497.812 619L494.062 590C489.312 552.25 457.562 539.5 362.812 539.5C268.312 539.5 236.562 552.25 231.812 590L228.062 619C221.812 665.75 254.562 681.5 362.812 681.5Z" fill="black" fill-opacity="0.85"/>
 </g>
</svg>
