<?xml version="1.0" encoding="UTF-8"?>
<!--Generator: Apple Native CoreSVG 326-->
<!DOCTYPE svg
PUBLIC "-//W3C//DTD SVG 1.1//EN"
       "http://www.w3.org/Graphics/SVG/1.1/DTD/svg11.dtd">
<svg version="1.1" xmlns="http://www.w3.org/2000/svg" xmlns:xlink="http://www.w3.org/1999/xlink" viewBox="0 0 741 848.75">
 <g>
  <rect height="848.75" opacity="0" width="741" x="0" y="0"/>
  <path d="M437.25 848.25L472.25 848.25L472.25 682.75C472.25 648.75 507 629.25 573.25 629.25C639.5 629.25 675.25 648.75 675.25 682.75L675.25 848.25L710.25 848.25L710.25 682.75C710.25 627 658.5 594.5 573.25 594.5C488.25 594.5 437.25 627 437.25 682.75ZM573.25 800.25C590.25 800.25 620.25 802 629.5 802C645 802 652.25 795.5 653.75 779.25L656.75 745C659.25 716.5 641.5 704.25 573.25 704.25C505.5 704.25 488.25 716.5 490.5 745L493.25 779.25C494.75 795.5 502 802 517.5 802C526.75 802 554.5 800.25 573.25 800.25ZM457.25 786L457.25 736.75L427.5 736.75C415.25 736.75 406.5 745.5 406.5 756.75L406.5 766.5C406.5 777.5 415.25 786 427.5 786ZM690.25 786L720 786C731.75 786 741 777.5 741 766.5L741 756.75C741 745.25 731.75 736.75 720 736.75L690.25 736.75Z" fill="black" fill-opacity="0.85"/>
  <path d="M417.75 578.75C456 540.75 476.25 492 478.75 439C479.5 426.75 471.25 420.25 462.5 420.25C451.75 420.25 445.75 426 444.75 440C442.75 482.5 425.75 523 394 555C362 586.5 321.5 603.5 279.25 605.25C266.5 606.5 259.25 613 259.25 622.25C259.25 632.75 266.5 640 278.25 640C330.75 640 379.75 617 417.75 578.75Z" fill="black" fill-opacity="0.85"/>
  <path d="M356.5 517.25C378.5 495.75 391.25 468.25 393.75 438.25C395 426 387 418.25 377.5 418.75C366.25 418.5 361.5 424.5 359.75 436.5C357.5 458.25 348.75 477.25 332.75 493.75C316.25 510 297.5 518.5 277.5 520.5C264 522 257.5 528.75 257.5 538.25C257.25 547.75 264.25 554.75 275 554.75C298.25 554.75 331.75 542 356.5 517.25Z" fill="black" fill-opacity="0.85"/>
  <path d="M167.25 488.5C260.25 488.5 304 466.5 304 412.75L304 88.75C304 32.75 252.5 0 167.25 0C82 0 30.75 32.75 30.75 88.75L30.75 412.75C30.75 466.5 74.25 488.5 167.25 488.5ZM167.25 453.5C95.5 453.5 66 441.5 66 411.75L66 88.75C66 54.5 100.75 35.25 167.25 35.25C233.5 35.25 269 54.5 269 88.75L269 411.75C269 441.5 238.75 453.5 167.25 453.5ZM167.25 206.25C184.25 206.25 214 208 223.5 208C239 208 246.25 201.75 247.75 185.25L250.75 151.25C253 122.5 235.5 110.25 167.25 110.25C99.5 110.25 81.5 122.5 84.25 151.25L87 185.25C88.25 201.75 95.75 208 111 208C120.75 208 148.5 206.25 167.25 206.25ZM167.25 410C233 410 253.25 400.25 249.5 370.5L247.25 353.25C244 329 224.75 321.25 167.25 321.25C110 321.25 91 329 87.5 353.25L85 370.5C80.75 400 101.75 410 167.25 410ZM50.75 192.25L50.75 142.5L21 142.5C8.75 142.5 0 151.5 0 162.75L0 172.5C0 183.5 8.75 192.25 21 192.25ZM284 192.25L314 192.25C325.75 192.25 335 183.5 335 172.5L335 162.75C335 151.5 325.75 142.5 314 142.5L284 142.5Z" fill="black" fill-opacity="0.85"/>
 </g>
</svg>
