<?xml version="1.0" encoding="UTF-8"?>
<!--Generator: Apple Native CoreSVG 326-->
<!DOCTYPE svg
PUBLIC "-//W3C//DTD SVG 1.1//EN"
       "http://www.w3.org/Graphics/SVG/1.1/DTD/svg11.dtd">
<svg version="1.1" xmlns="http://www.w3.org/2000/svg" xmlns:xlink="http://www.w3.org/1999/xlink" viewBox="0 0 1128.5 582.25">
 <g>
  <rect height="582.25" opacity="0" width="1128.5" x="0" y="0"/>
  <path d="M97.5 582.25L567.75 582.25C634.25 582.25 665.25 551.5 665.25 486.25L665.25 92.5C665.25 32.25 633.75 0.75 572.75 0.75L414.25 0.75C365 0.75 333 12 292.5 42.5L46 229.5C12.25 255.25 0 278.25 0 321.5L0 486.25C0 551.5 31.5 582.25 97.5 582.25ZM92 287.75C73.5 287.75 69.5 268 83.25 257.5L322.25 74.75C351 52 374.5 45 414.25 45L572 45C603 45 621 62.75 621 94.75L621 238.25C621 269.5 602.5 287.75 572 287.75Z" fill="black" fill-opacity="0.85"/>
  <path d="M806 466.75C814.25 466.75 819.5 464 827.5 456.25L956.25 326.75L1084.25 456C1092.25 463.75 1097.75 466.5 1106 466.5C1118 466.5 1128.25 456.75 1128.25 445C1128.25 437 1125.5 431.75 1118.5 424.5L989 294L1119 163.25C1125.75 156 1128.5 150.5 1128.5 142.75C1128.5 131.5 1118.25 121.5 1106.5 121.5C1098.25 121.5 1092.75 124.25 1084.75 132L956 261.25L828 132.25C820 124.5 814.5 121.75 806.25 121.75C794.25 121.75 784 131.5 784 143.25C784 151.5 786.75 157 793.5 164L923.25 294L793.5 424.75C786.5 432 784 437.5 784 445.5C784 457 794 466.75 806 466.75Z" fill="black" fill-opacity="0.85"/>
 </g>
</svg>
