<?xml version="1.0" encoding="UTF-8"?>
<!--Generator: Apple Native CoreSVG 326-->
<!DOCTYPE svg
PUBLIC "-//W3C//DTD SVG 1.1//EN"
       "http://www.w3.org/Graphics/SVG/1.1/DTD/svg11.dtd">
<svg version="1.1" xmlns="http://www.w3.org/2000/svg" xmlns:xlink="http://www.w3.org/1999/xlink" viewBox="0 0 617.5 825.25">
 <g>
  <rect height="825.25" opacity="0" width="617.5" x="0" y="0"/>
  <path d="M538.5 746C587.75 697 614 634 617.25 565.75C618.25 550.75 608 542.75 597 543C583.75 543 576 550 574.75 567.5C572.25 622.5 550.25 675.25 509.25 716.5C467.75 757.5 415 779.75 360 782.25C344.25 783.25 335 791.25 335 803C335 815.75 344.5 825 358.75 825C426.75 825 489.5 795.25 538.5 746Z" fill="black" fill-opacity="0.85"/>
  <path d="M459.5 666.75C487.5 639 503.75 603.75 507 565C508.75 550 499 540.5 487 540.75C473.25 540.75 467.25 547.5 465 563C462.25 591.25 450.75 616.25 430 637.5C408.5 658.5 383.75 670.25 357.75 672.25C340.75 674.5 332.75 682.75 332.75 694.5C332.75 706.25 341.75 714.75 354.75 714.75C384.5 714.75 427.5 698.5 459.5 666.75Z" fill="black" fill-opacity="0.85"/>
  <path d="M215.25 629C335 629 391.25 601 391.25 532L391.25 113.25C391.25 41.75 325.25 0 215.25 0C105.5 0 39.75 41.75 39.75 113.25L39.75 532C39.75 601 95.75 629 215.25 629ZM215.25 263C190.75 263 153.75 265.25 141 265.25C121.25 265.25 112.25 257 110.25 235.75L106.25 191C102.75 153 126.25 137.75 215.25 137.75C304.75 137.75 328 153 324.75 191L321 235.75C319.25 257 310 265.25 290 265.25C277.25 265.25 237.75 263 215.25 263ZM215.25 532.25C129 532.25 101.75 519.5 107.5 480.5L111 458C115.5 426.75 140 416.75 215.25 416.75C291 416.75 316 426.75 320.25 458L323.5 480.5C328.75 519.5 301.75 532.25 215.25 532.25ZM63.75 246.25L63.75 184.25L26.25 184.25C11.25 184.25 0 195 0 209L0 221.75C0 235.5 11.25 246.25 26.25 246.25ZM367.5 246.25L404.75 246.25C419.75 246.25 431.25 235.5 431.25 221.75L431.25 209C431.25 195 419.75 184.25 404.75 184.25L367.5 184.25Z" fill="black" fill-opacity="0.85"/>
 </g>
</svg>
