<?xml version="1.0" encoding="UTF-8"?>
<!--Generator: Apple Native CoreSVG 326-->
<!DOCTYPE svg
PUBLIC "-//W3C//DTD SVG 1.1//EN"
       "http://www.w3.org/Graphics/SVG/1.1/DTD/svg11.dtd">
<svg version="1.1" xmlns="http://www.w3.org/2000/svg" xmlns:xlink="http://www.w3.org/1999/xlink" viewBox="0 0 1035.84 783.142">
 <g>
  <rect height="783.142" opacity="0" width="1035.84" x="0" y="0"/>
  <path d="M215.046 248.946L247.296 267.696L265.046 236.446L233.046 217.946C207.046 202.946 202.796 182.696 219.046 154.196L235.546 125.696C255.546 91.1961 296.046 80.4461 342.796 100.446L440.296 141.946C455.296 148.446 465.046 149.946 477.296 149.696L591.296 145.446C659.296 142.946 697.046 154.696 781.546 203.446L814.296 222.196C875.546 257.696 910.046 306.946 939.296 392.446C944.046 406.946 948.046 411.946 957.796 422.696L978.546 445.446C1000.8 469.946 1004.8 490.696 990.296 515.946L954.046 578.696C937.546 607.196 917.796 613.446 892.046 598.446L859.296 579.696L841.296 610.696L874.046 629.446C921.296 656.946 956.296 646.446 985.046 596.446L1021.3 533.946C1044.8 493.196 1039.8 457.196 1005.8 419.196L976.546 386.196C952.046 316.696 916.796 239.946 832.046 191.196L799.546 172.446C709.046 120.196 664.296 106.446 590.046 109.196L465.296 113.696L356.546 67.6961C292.296 40.4461 234.296 56.4461 204.546 107.696L187.546 137.446C159.046 186.696 168.046 221.946 215.046 248.946ZM366.796 336.696L724.796 543.446L742.796 512.196L384.546 305.446ZM281.046 351.946C324.296 376.946 378.046 362.696 403.046 319.196C428.296 275.696 413.796 222.196 370.296 196.946C326.796 171.946 273.296 186.196 248.296 229.696C223.046 273.196 237.546 326.696 281.046 351.946ZM297.796 322.696C271.046 306.946 262.046 273.446 277.546 246.696C293.046 219.696 326.546 210.696 353.546 226.196C380.296 241.946 389.296 275.446 373.796 302.196C358.296 329.196 324.796 338.196 297.796 322.696ZM752.046 623.946C795.546 648.946 849.046 634.696 874.296 591.196C899.296 547.696 885.046 494.196 841.546 468.946C798.046 443.946 744.296 458.196 719.296 501.696C694.296 545.196 708.546 598.696 752.046 623.946ZM769.046 594.696C742.046 578.946 733.046 545.446 748.546 518.696C764.046 491.696 797.546 482.696 824.546 498.196C851.546 513.946 860.296 547.446 844.796 574.196C829.296 601.196 795.796 610.196 769.046 594.696Z" fill="black" fill-opacity="0.85"/>
  <path d="M103.796 140.196L167.796 29.4461C177.796 12.1961 164.296-2.80391 146.546 0.446089L46.2964 16.4461C33.0464 18.4461 27.0464 28.9461 31.7964 41.6961L68.0464 136.196C74.2964 153.446 93.7964 157.446 103.796 140.196ZM3.04636 271.946C-3.20364 282.946 0.546362 296.446 10.7964 302.446L836.046 779.196C846.046 785.196 859.796 781.696 865.796 771.446C872.046 760.196 868.046 746.696 858.046 740.696L32.7964 263.946C22.7964 258.196 9.04636 261.696 3.04636 271.946Z" fill="black" fill-opacity="0.85"/>
 </g>
</svg>
