<?xml version="1.0" encoding="UTF-8"?>
<!--Generator: Apple Native CoreSVG 326-->
<!DOCTYPE svg
PUBLIC "-//W3C//DTD SVG 1.1//EN"
       "http://www.w3.org/Graphics/SVG/1.1/DTD/svg11.dtd">
<svg version="1.1" xmlns="http://www.w3.org/2000/svg" xmlns:xlink="http://www.w3.org/1999/xlink" viewBox="0 0 755 592.75">
 <g>
  <rect height="592.75" opacity="0" width="755" x="0" y="0"/>
  <path d="M0 436.75C0 478.75 23.5 506.75 67.25 506.75L687.75 506.75C731.5 506.75 755 478.75 755 436.75L755 341.75C755 286.75 746 255.25 714.75 220L683 184.5L648.5 85.75C630 33.25 595.75 11 551.5 6C529.75 3.25 458.25 1.25 377.5 1.25C296.75 1.25 225.25 3.25 203.5 6C159.25 11 125 33.25 106.5 85.75L72 184.5L40.25 220C9 255.25 0 286.75 0 341.75ZM36.75 426.5L36.75 341.75C36.75 297.25 42.5 274.5 69.5 242.75L106.25 200L139.5 102.5C153.25 61.75 176.25 47 208 43.25C228.5 41 294.5 38 377.5 38C460.5 38 526.5 41 547 43.25C578.75 47 601.75 61.75 615.5 102.5L649 200L685.5 242.75C712.5 274.5 718.25 297.25 718.25 341.75L718.25 426.5C718.25 453 706.5 470 678.5 470L76.75 470C48.5 470 36.75 453 36.75 426.5ZM165.75 191.5L589.25 191.5C603.25 191.5 608.25 181 603.75 167.75L584.5 111.25C576.5 87.5 564 78.5 542.5 75.75C520.5 72.75 464.75 70.75 377.5 70.75C290.25 70.75 234.5 72.75 212.5 75.75C191.25 78.5 178.75 87.5 170.5 111.25L151.25 167.75C146.75 181 151.75 191.5 165.75 191.5ZM125.5 382.25C143 382.25 156 369.5 156 351.75L156 302.75C156 285 143 272.25 125.5 272.25C107.25 272.25 94.5 285.25 94.5 302.75L94.5 351.75C94.5 369.25 107.25 382.25 125.5 382.25ZM306.75 368.5L446.5 368.5C461 368.5 470.25 359.25 470.25 344L470.25 310C470.25 295 461 286 446.5 286L306.75 286C292.75 286 283.75 295 283.75 310L283.75 344C283.75 359.25 292.75 368.5 306.75 368.5ZM632.25 382.25C650.25 382.25 663.25 369.5 663.25 351.75L663.25 302.75C663.25 285 650.25 272.25 632.25 272.25C615 272.25 601.5 285.25 601.5 302.75L601.5 351.75C601.5 369 615 382.25 632.25 382.25ZM58.5 592.75L96 592.75C119.75 592.75 138 574.5 138 551L138 491.25L16.5 474L16.5 551C16.5 574.25 34.75 592.75 58.5 592.75ZM659 592.75L696.5 592.75C720.25 592.75 738.5 574.5 738.5 551L738.5 474L617 491.25L617 551C617 574.5 635.25 592.75 659 592.75Z" fill="black" fill-opacity="0.85"/>
 </g>
</svg>
