<?xml version="1.0" encoding="UTF-8"?>
<!--Generator: Apple Native CoreSVG 326-->
<!DOCTYPE svg
PUBLIC "-//W3C//DTD SVG 1.1//EN"
       "http://www.w3.org/Graphics/SVG/1.1/DTD/svg11.dtd">
<svg version="1.1" xmlns="http://www.w3.org/2000/svg" xmlns:xlink="http://www.w3.org/1999/xlink" viewBox="0 0 1136.25 794.75">
 <g>
  <rect height="794.75" opacity="0" width="1136.25" x="0" y="0"/>
  <path d="M98.25 584L119.25 584C117.25 574.25 116 564.5 116 554.25C116 481 173.75 423.25 247.5 423.25C321 423.25 378.75 481 378.75 554.25C378.75 564.5 377.5 574.25 375.25 584L760.75 584C758.75 574.25 757.5 564.5 757.5 554.25C757.5 481 815.25 423.25 888.75 423.25C962.25 423.25 1020.25 481 1020.25 554.25C1020.25 564.5 1019 574.25 1016.75 584L1037.75 584C1105.25 584 1136.25 551.25 1136.25 480L1136.25 390.75C1136.25 332.75 1108.75 297.5 1048.75 277.75L997.25 260.5C928 203 843 141 722.5 141L676 141C547 141 490.5 154.25 413 203L282.25 284.75L137.75 302.5C52 313.25 0 366 0 439.5L0 481.5C0 551.75 31.5 584 98.25 584ZM247.5 650.75C301.5 650.75 343.75 608.25 343.75 554.25C343.75 500.25 301.5 458 247.5 458C193.25 458 151 500.25 151 554.25C151 608.25 193.25 650.75 247.5 650.75ZM888.75 650.75C943 650.75 985.25 608.25 985.25 554.25C985.25 500.25 943 458 888.75 458C834.75 458 792.25 500.25 792.25 554.25C792.25 608.25 834.75 650.75 888.75 650.75ZM593 433C571.5 433 553.75 415.5 553.75 395C553.75 374 571.25 357.25 593 357.25C614.75 357.25 632.25 374 632.25 395C632.25 415.5 614.5 433 593 433ZM593 290C579.25 290 569.25 280.25 568.75 265.75L563 29.75C562.5 12 574.5 0 593 0C611.5 0 623.5 12 623 29.75L617.25 265.75C616.75 280.25 607 290 593 290Z" fill="black" fill-opacity="0.85"/>
 </g>
</svg>
