<?xml version="1.0" encoding="UTF-8"?>
<!--Generator: Apple Native CoreSVG 326-->
<!DOCTYPE svg
PUBLIC "-//W3C//DTD SVG 1.1//EN"
       "http://www.w3.org/Graphics/SVG/1.1/DTD/svg11.dtd">
<svg version="1.1" xmlns="http://www.w3.org/2000/svg" xmlns:xlink="http://www.w3.org/1999/xlink" viewBox="0 0 1149.6 960.25">
 <g>
  <rect height="960.25" opacity="0" width="1149.6" x="0" y="0"/>
  <path d="M340.427 399.25L180.177 787.25C174.927 800 166.677 807.75 149.927 807.75L108.427 807.75C86.9265 807.75 81.6765 791.25 88.9265 776.75L280.677 395C284.927 386.5 290.927 382.25 300.177 382.25L330.427 382.25C339.677 382.25 344.177 389.75 340.427 399.25ZM865.677 395.25L896.506 456.628C894.112 456.287 891.648 456.25 889.177 456.25C869.6 456.25 850.503 458.552 832.232 463.133L805.927 399.5C802.177 390 806.677 382.75 816.177 382.75L846.177 382.75C855.677 382.75 861.427 386.75 865.677 395.25Z" fill="black" fill-opacity="0.85"/>
  <path d="M673.507 579.75L303.427 579.75L321.927 534.25L708.235 534.25C694.864 547.896 683.157 563.15 673.507 579.75Z" fill="black" fill-opacity="0.85"/>
  <path d="M800.021 473.149C779.825 480.648 760.942 490.923 743.79 503.5L333.927 503.5L352.177 458.25L794.177 458.25Z" fill="black" fill-opacity="0.85"/>
  <path d="M654.927 153.75C675.927 156.25 691.927 166.75 700.677 191.5L716.927 238L731.927 255C746.677 271.5 750.927 286.25 750.927 312.25L750.927 411C750.927 422 742.427 430.75 731.177 430.75L713.427 430.75C702.177 430.75 693.677 422 693.677 411L693.677 390L452.177 390L452.177 411C452.177 422 443.427 430.75 432.177 430.75L414.677 430.75C403.427 430.75 394.677 422 394.677 411L394.677 312.25C394.677 286.25 399.177 271.5 413.927 255L428.677 238L444.927 191.5C453.677 166.75 469.927 156.25 490.927 153.75C501.177 152.5 534.927 151.75 572.927 151.75C610.927 151.75 644.677 152.5 654.927 153.75ZM432.677 292.75L432.677 316.75C432.677 325.75 439.177 332 447.927 332C456.927 332 463.177 325.75 463.177 316.75L463.177 292.75C463.177 283.75 456.927 277.5 447.927 277.5C439.177 277.5 432.677 284 432.677 292.75ZM683.677 292.75L683.677 316.75C683.677 325.5 690.177 332 698.927 332C707.927 332 714.177 325.75 714.177 316.75L714.177 292.75C714.177 283.75 707.927 277.5 698.927 277.5C690.177 277.5 683.677 284 683.677 292.75ZM537.927 284.5C530.927 284.5 526.427 289 526.427 296.5L526.427 313C526.427 320.75 530.927 325.25 537.927 325.25L606.927 325.25C614.177 325.25 618.677 320.75 618.677 313L618.677 296.5C618.677 289 614.177 284.5 606.927 284.5ZM490.927 179.5C480.427 181 474.427 185 470.427 196.75L460.927 224.75C458.677 231.5 461.177 236.75 468.177 236.75L677.427 236.75C684.427 236.75 686.927 231.5 684.677 224.75L675.177 196.75C671.177 185 665.177 181 654.677 179.5C643.677 178 615.927 177 572.927 177C529.677 177 501.927 178 490.927 179.5Z" fill="black" fill-opacity="0.85"/>
  <path d="M1100.68 708.25C1100.68 592.25 1004.68 496 889.177 496C773.427 496 677.177 592.25 677.177 708.25C677.177 763 698.677 813.5 733.927 851.5C742.927 861.5 759.177 863.75 771.427 851.75L803.427 820C810.677 813 810.677 801 803.427 794C796.177 786.75 784.427 787 777.427 794L754.177 817.25C729.927 787.5 715.427 750 715.427 708.25C715.427 611 792.177 534.25 889.177 534.25C986.177 534.25 1062.43 611 1062.43 708.25C1062.43 750 1048.18 787.5 1023.68 817.25L1000.43 794C993.427 787 981.927 786.75 974.677 794C967.677 801 967.427 813 974.677 820L1006.43 851.75C1018.68 864 1035.18 861.25 1044.18 851.25C1079.18 813.5 1100.68 763 1100.68 708.25ZM751.427 689.75L694.427 689.75L694.427 726.25L751.427 726.25C761.177 726.25 769.927 717.75 769.927 708.25C769.927 698 761.177 689.75 751.427 689.75ZM1025.93 689.75C1016.18 689.75 1007.93 698 1007.93 708.25C1007.93 717.75 1016.18 726.25 1025.93 726.25L1082.93 726.25L1082.93 689.75ZM870.677 570.75C870.677 580.5 879.177 589 889.177 589C898.677 589 907.177 580.5 907.177 570.75L907.177 513.75L870.677 513.75ZM805.677 598.75L765.177 558.5L739.677 584.25L779.677 624.5C786.927 631.5 798.427 631.5 805.927 624.75C812.927 617.5 812.677 606 805.677 598.75ZM1087.68 451.25C1080.68 444.5 1072.68 448.5 1071.18 456.5L1055.68 529.25C1053.93 537.75 1059.68 543.25 1068.18 541.5L1140.93 526.5C1148.93 524.75 1152.93 517 1146.18 510.25ZM862.427 734C875.677 747 895.177 747 908.427 733.75C910.927 731.25 914.927 725.75 916.927 722.75L987.177 623C990.677 618 989.677 613 986.427 609.75C983.177 606.75 978.427 606.25 973.177 609.5L872.677 680.25C869.677 682.5 864.927 685.75 862.427 688C849.677 701.25 849.677 720.75 862.427 734Z" fill="black" fill-opacity="0.85"/>
 </g>
</svg>
