<?xml version="1.0" encoding="UTF-8"?>
<!--Generator: Apple Native CoreSVG 326-->
<!DOCTYPE svg
PUBLIC "-//W3C//DTD SVG 1.1//EN"
       "http://www.w3.org/Graphics/SVG/1.1/DTD/svg11.dtd">
<svg version="1.1" xmlns="http://www.w3.org/2000/svg" xmlns:xlink="http://www.w3.org/1999/xlink" viewBox="0 0 913.146 745.254">
 <g>
  <rect height="745.254" opacity="0" width="913.146" x="0" y="0"/>
  <path d="M165.573 262.502L3.3232 587.252C-4.1768 602.002 1.0732 618.252 22.5732 618.252L62.3232 618.252C79.0732 618.252 87.3232 610.502 92.3232 598.002L225.323 266.752C229.073 257.502 224.823 250.002 215.323 250.002L185.073 250.002C175.823 250.002 169.823 254.252 165.573 262.502ZM747.573 262.502C743.323 254.252 737.573 250.002 728.073 250.002L698.073 250.002C688.573 250.002 684.073 257.502 688.073 266.752L820.823 598.002C825.823 610.502 834.323 618.252 851.073 618.252L890.823 618.252C912.073 618.252 917.323 602.002 910.073 587.252Z" fill="black" fill-opacity="0.85"/>
  <path d="M278.323 329.252C278.323 340.252 286.823 349.002 298.073 349.002L315.823 349.002C327.073 349.002 335.573 340.502 335.573 329.252L335.573 308.502L577.073 308.502L577.073 329.252C577.073 340.502 585.823 349.002 597.073 349.002L614.573 349.002C625.823 349.002 634.323 340.502 634.323 329.252L634.323 230.752C634.323 204.752 630.073 190.002 615.323 173.252L600.573 156.502L584.323 110.002C575.573 85.0018 559.323 74.7518 538.323 72.2518C528.073 71.0018 494.323 70.0018 456.323 70.0018C418.323 70.0018 384.573 71.0018 374.323 72.2518C353.323 74.7518 337.323 85.0018 328.573 110.002L312.323 156.502L297.323 173.252C282.573 190.002 278.323 204.752 278.323 230.752ZM351.573 155.002C344.823 155.002 342.323 149.752 344.573 143.252L353.823 115.252C357.823 103.502 364.073 99.2518 374.573 98.0018C385.323 96.5018 413.323 95.5018 456.323 95.5018C499.573 95.5018 527.323 96.5018 538.073 98.0018C548.573 99.2518 554.823 103.502 558.823 115.252L568.323 143.252C570.573 149.752 567.823 155.002 561.073 155.002ZM331.573 250.502C322.573 250.502 316.073 244.002 316.073 235.252L316.073 211.002C316.073 202.252 322.573 196.002 331.573 196.002C340.323 196.002 346.823 202.252 346.823 211.002L346.823 235.252C346.823 244.252 340.323 250.502 331.573 250.502ZM421.323 243.752C414.323 243.752 409.823 239.002 409.823 231.502L409.823 214.752C409.823 207.502 414.323 203.002 421.323 203.002L490.573 203.002C497.573 203.002 502.323 207.502 502.323 214.752L502.323 231.502C502.323 239.002 497.573 243.752 490.573 243.752ZM582.323 250.502C573.823 250.502 567.073 244.002 567.073 235.252L567.073 211.002C567.073 202.502 573.823 196.002 582.323 196.002C591.323 196.002 597.823 202.252 597.823 211.002L597.823 235.252C597.823 244.252 591.323 250.502 582.323 250.502Z" fill="black" fill-opacity="0.85"/>
  <path d="M499.573 417.252L484.573 480.752L405.573 400.002C399.073 393.002 390.323 397.752 393.573 407.252L421.823 490.502L384.823 474.002C376.573 470.252 370.573 476.502 376.573 484.752L397.073 511.502L302.073 498.252C291.823 496.752 288.823 507.252 297.323 512.252L386.823 566.502L332.823 586.502C323.823 590.002 325.323 600.002 335.073 600.752L395.073 605.002L313.823 660.002C306.073 665.252 309.323 677.002 320.073 674.502L422.573 651.252L423.823 737.752C423.823 746.502 432.073 747.502 436.073 741.252L502.073 632.752L612.823 732.502C621.073 740.002 630.573 732.002 625.323 722.252L559.823 599.502L626.823 579.752C632.573 577.752 632.573 570.752 627.073 568.502L567.823 544.252L610.323 423.502C613.073 416.002 605.573 409.502 598.823 416.002L529.823 481.252L513.073 417.252C510.823 408.502 501.823 408.002 499.573 417.252Z" fill="black" fill-opacity="0.85"/>
 </g>
</svg>
