<?xml version="1.0" encoding="UTF-8"?>
<!--Generator: Apple Native CoreSVG 326-->
<!DOCTYPE svg
PUBLIC "-//W3C//DTD SVG 1.1//EN"
       "http://www.w3.org/Graphics/SVG/1.1/DTD/svg11.dtd">
<svg version="1.1" xmlns="http://www.w3.org/2000/svg" xmlns:xlink="http://www.w3.org/1999/xlink" viewBox="0 0 825.259 594.75">
 <g>
  <rect height="594.75" opacity="0" width="825.259" x="0" y="0"/>
  <path d="M84.2543 384.5C58.0043 347.25 45.0043 305 43.5043 263.25C42.7543 247.75 32.7543 240.5 21.7543 240.75C10.5043 240.75-0.245723 249 0.0042769 262.5C1.25428 314.25 19.2543 364 49.7543 408.25C80.7543 452.25 121.754 486.5 169.754 505C180.754 509.25 190.504 504.25 195.504 496C202.004 485.5 200.254 470.5 184.004 464C145.004 448 110.004 421.5 84.2543 384.5ZM412.504 551.5C367.254 551.5 325.504 538 289.754 515.25C276.254 506.75 264.004 512 258.004 522C253.004 531.25 254.254 543.5 264.504 550.5C307.254 579 358.754 593 412.504 593C466.504 593 517.754 579 560.754 550.5C571.004 543.5 572.004 531.25 567.004 522C561.254 512 549.004 506.75 535.254 515.5C499.754 538 457.754 551.5 412.504 551.5ZM741.004 384.5C715.254 421.5 680.004 448 641.254 464C625.004 470.5 623.254 485.5 629.754 496C634.754 504.25 644.504 509.25 655.504 505C703.254 486.5 744.504 452.25 775.504 408.25C806.004 364 824.004 314.25 825.254 262.5C825.504 249 814.754 240.75 803.504 240.75C792.504 240.5 782.504 247.75 781.754 263.25C780.004 305 767.254 347.25 741.004 384.5Z" fill="black" fill-opacity="0.85"/>
  <path d="M176.004 320C163.254 302 156.004 283.5 154.254 262.5C151.254 243.5 137.254 238 125.504 242.25C117.004 245.25 110.754 253.75 112.254 264.75C115.004 290.75 124.504 319.25 141.504 344C159.004 368.75 182.504 387.25 205.504 398.5C217.504 404.75 229.254 399.25 234.254 390.25C239.504 380.5 237.254 368 222.254 360.25C203.504 351 188.504 338 176.004 320ZM412.504 439.5C390.754 439.5 371.254 434.5 353.004 424.25C337.754 416.5 326.504 422 321.504 432C316.754 441.25 319.504 454 331.004 460C353.754 472.75 382.504 481.25 412.504 481.25C442.754 481.25 471.504 472.75 494.004 460C505.754 454 508.254 441.25 503.504 432C498.754 422 487.254 416.75 472.004 424.25C454.004 434.75 434.504 439.5 412.504 439.5ZM649.004 320C636.754 338 621.504 351 602.754 360.25C587.754 368 585.754 380.5 590.754 390.25C595.754 399.25 607.754 404.75 619.754 398.5C642.754 387.25 666.004 368.75 683.754 344C700.754 319.25 710.254 290.75 713.004 264.75C714.504 253.75 708.004 245.25 699.754 242.25C688.004 238 674.004 243.5 671.004 262.5C669.254 283.5 662.004 302 649.004 320Z" fill="black" fill-opacity="0.85"/>
  <path d="M412.504 231.75C326.254 231.75 298.754 219.25 304.754 180.25L308.004 157.75C312.754 126.25 337.004 116.25 412.504 116.25C488.254 116.25 513.004 126.25 517.504 157.75L520.504 180.25C525.754 219.25 499.004 231.75 412.504 231.75ZM588.254 0L236.754 0L236.754 231.75C236.754 300.75 293.004 328.75 412.504 328.75C532.254 328.75 588.254 300.75 588.254 231.75Z" fill="black" fill-opacity="0.85"/>
 </g>
</svg>
