<?xml version="1.0" encoding="UTF-8"?>
<!--Generator: Apple Native CoreSVG 326-->
<!DOCTYPE svg
PUBLIC "-//W3C//DTD SVG 1.1//EN"
       "http://www.w3.org/Graphics/SVG/1.1/DTD/svg11.dtd">
<svg version="1.1" xmlns="http://www.w3.org/2000/svg" xmlns:xlink="http://www.w3.org/1999/xlink" viewBox="0 0 702.5 828.25">
 <g>
  <rect height="828.25" opacity="0" width="702.5" x="0" y="0"/>
  <path d="M351.25 179C362 179 368.5 172.5 368.75 160.5L372 20.5C372.25 8.75 363.25 0 351 0C338.5 0 330 8.5 330.25 20.5L333.25 160.5C333.5 172.25 340 179 351.25 179ZM351.25 261.75C365.25 261.75 377 250.75 377 236.75C377 222.75 365.25 211.75 351.25 211.75C337 211.75 325.25 223 325.25 236.75C325.25 250.5 337.25 261.75 351.25 261.75ZM702.5 256.75L702.5 219C692.25 224.25 682 229.75 671.5 236.5L575.5 297L469.25 310C406.25 317.75 367.75 356.75 367.75 410.5L367.75 441.75C367.75 493.25 391 517 440.25 517L473.75 517L473.75 484.5L440.25 484.5C413 484.5 400.25 470.5 400.25 440.5L400.25 410.5C400.25 374.5 427.25 347.75 473.25 342L568.75 330.5C583.5 328.75 591.75 325.75 601.5 319.75L689 264.5C693.5 261.75 698 259 702.5 256.75ZM702.5 517L702.5 484.5L599.25 484.5L599.25 517ZM538.75 568C584.25 568 620 532.25 620 486.75C620 441.25 584.25 405.75 538.75 405.75C493 405.75 457.75 441.25 457.75 486.75C457.75 532.25 493 568 538.75 568ZM538.75 537.25C510.75 537.25 488.25 515 488.25 486.75C488.25 458.5 510.75 436.25 538.75 436.25C567 436.25 589.25 458.5 589.25 486.75C589.25 515 567 537.25 538.75 537.25ZM140.25 568C185.75 568 221.25 532.25 221.25 486.75C221.25 441.25 185.75 405.75 140.25 405.75C94.5 405.75 59 441.25 59 486.75C59 532.25 94.5 568 140.25 568ZM140.25 537.25C112 537.25 89.5 515 89.5 486.75C89.5 458.5 112 436.25 140.25 436.25C168.25 436.25 190.5 458.5 190.5 486.75C190.5 515 168.25 537.25 140.25 537.25ZM0 484.5L0 517L82.25 517L82.25 484.5ZM204.5 517L238.5 517C288.5 517 311 493 311 440.5L311 375C311 332.25 291 305.75 246.75 291.75L208.75 279.5C155.75 234.5 96 191.5 14.75 191.5L0 191.5L0 224L14.75 224C75 224 123 249 182.25 300.75C192.75 310 198 312.25 210.5 316.25L237.25 324.75C265.75 333.75 278.5 348.5 278.5 375L278.5 440.5C278.5 470.5 265.75 484.5 238.5 484.5L204.5 484.5Z" fill="black" fill-opacity="0.85"/>
  <path d="M210.5 811C263.75 811 289.75 771.25 289.75 719.25C289.75 666.75 263.5 627 210.5 627C159.25 627 131.5 665.75 131.5 719.25C131.5 770.5 157.25 811 210.5 811ZM210.5 780.75C179.5 780.75 168.25 749.25 168.25 719.25C168.25 687.25 180.75 657.25 210.5 657.25C242.25 657.25 253 689.25 253 719.25C253 752 240.5 780.75 210.5 780.75ZM338 809C350.75 809 356 800.75 356 790.5L356 737L410.5 737C419.75 737 425.75 731.75 425.75 722.5C425.75 713.5 420 708 410.5 708L356 708L356 661.25L416 661.25C426.25 661.25 432 655.75 432 646.25C432 636.75 426.25 631 416 631L337.75 631C327.25 631 320 638 320 649.75L320 790.5C320 800.5 325.5 809 338 809ZM476.75 809C489.5 809 494.75 800.75 494.75 790.5L494.75 737L549 737C558.5 737 564.5 731.75 564.5 722.5C564.5 713.5 558.75 708 549 708L494.75 708L494.75 661.25L554.5 661.25C564.75 661.25 570.75 655.75 570.75 646.25C570.75 636.75 564.75 631 554.5 631L476.5 631C466 631 458.75 638 458.75 649.75L458.75 790.5C458.75 800.5 464 809 476.75 809Z" fill="black" fill-opacity="0.85"/>
 </g>
</svg>
