<?xml version="1.0" encoding="UTF-8"?>
<!--Generator: Apple Native CoreSVG 326-->
<!DOCTYPE svg
PUBLIC "-//W3C//DTD SVG 1.1//EN"
       "http://www.w3.org/Graphics/SVG/1.1/DTD/svg11.dtd">
<svg version="1.1" xmlns="http://www.w3.org/2000/svg" xmlns:xlink="http://www.w3.org/1999/xlink" viewBox="0 0 431.25 861.25">
 <g>
  <rect height="861.25" opacity="0" width="431.25" x="0" y="0"/>
  <path d="M215.75 819.5C157.25 819.5 104.5 797.5 63.75 760.5C52 750 39.75 749.25 31.5 757.5C22.25 766.25 22.5 779.5 32.5 789.75C80.5 837.75 146.25 861 215.75 861C285 861 351 837.75 399 789.75C408.75 779.5 409 766.25 400 757.5C391.75 749.25 379.5 750 367.5 760.5C327 797.5 274 819.5 215.75 819.5Z" fill="black" fill-opacity="0.85"/>
  <path d="M215.75 707.5C185.5 707.5 159.75 698 140.25 681C126.5 670.75 114.75 670.75 106.75 679.25C98 687.25 98.5 699.75 107.5 709C128.75 730.25 170.75 749 215.75 749C260.75 749 302.5 730.25 323.75 709C333 699.75 333.25 687.25 324.75 679.25C316.5 670.75 305 670.75 291.25 681C271.5 698 245.75 707.5 215.75 707.5Z" fill="black" fill-opacity="0.85"/>
  <path d="M215.75 629.25C335.25 629.25 391.5 601 391.5 532.25L391.5 113.5C391.5 41.75 325.5 0 215.75 0C105.75 0 40 41.75 40 113.5L40 532.25C40 601 96 629.25 215.75 629.25ZM215.75 586.25C123 586.25 83.25 570.25 83.25 530.75L83.25 113.5C83.25 68.75 129.75 43.5 215.75 43.5C301.75 43.5 348 68.75 348 113.5L348 530.75C348 570.25 308.5 586.25 215.75 586.25ZM63.75 246.5L63.75 184.25L26.25 184.25C11.25 184.25 0 195 0 209.25L0 221.75C0 235.75 11.25 246.5 26.25 246.5ZM367.5 246.5L405 246.5C420 246.5 431.25 235.75 431.25 221.75L431.25 209.25C431.25 195 420 184.25 405 184.25L367.5 184.25ZM215.5 264.75C240 264.75 276 267 288.25 267C307.75 267 316.75 258.75 318.5 238.25L322.5 194.5C325.5 157.5 303 142.5 215.5 142.5C128.25 142.5 105.75 157.5 109 194.5L112.75 238.25C114.5 258.75 123.5 267 143 267C155.25 267 193.75 264.75 215.5 264.75ZM215.5 527.75C300 527.75 326.25 515.5 321 477.25L318 455.25C313.5 424.75 289.5 415 215.5 415C141.75 415 117.75 424.75 113.25 455.25L110.25 477.25C105 515.5 131.25 527.75 215.5 527.75Z" fill="black" fill-opacity="0.85"/>
 </g>
</svg>
