<?xml version="1.0" encoding="UTF-8"?>
<!--Generator: Apple Native CoreSVG 326-->
<!DOCTYPE svg
PUBLIC "-//W3C//DTD SVG 1.1//EN"
       "http://www.w3.org/Graphics/SVG/1.1/DTD/svg11.dtd">
<svg version="1.1" xmlns="http://www.w3.org/2000/svg" xmlns:xlink="http://www.w3.org/1999/xlink" viewBox="0 0 1136.25 576.25">
 <g>
  <rect height="576.25" opacity="0" width="1136.25" x="0" y="0"/>
  <path d="M997.25 151.25L1048.75 168.5C1108.75 188.25 1136.25 223.5 1136.25 281.5L1136.25 370.75C1136.25 442 1105.25 474.75 1037.75 474.75L1006.49 474.75C990.548 515.742 951.134 544 904 544C856.675 544 817.216 515.742 801.267 474.75L334.983 474.75C319.034 515.742 279.575 544 232.25 544C184.925 544 145.611 515.742 129.732 474.75L98.25 474.75C31.5 474.75 0 442.5 0 372.25L0 330.25C0 256.75 52 204 137.75 193.25L247.63 179.753L278.598 220.49C276.897 220.764 275.11 221.015 273.25 221.25L143.5 237C80.75 244.5 44.25 281 44.25 330.25L44.25 370.75C44.25 411.5 61.5 430.25 98.25 430.25L122.158 430.25C123.715 369.804 171.349 323.25 232.25 323.25C293.151 323.25 341.026 369.804 342.591 430.25L793.659 430.25C795.224 369.804 843.099 323.25 904 323.25C964.655 323.25 1012.53 369.804 1014.09 430.25L1037.75 430.25C1074.75 430.25 1092 411.5 1092 370.75L1092 281.5C1092 245.5 1074.75 226 1035.75 213.25L999.75 201.75C982.75 196.25 975.25 193.25 961.25 181C877.25 107.5 809.75 76.25 722.5 76.25L676 76.25C555.5 76.25 507.75 87 436.75 131.5L380.848 166.659L353.561 130.914L413 93.75C490.5 45 547 31.75 676 31.75L722.5 31.75C843 31.75 928 92.25 997.25 151.25ZM163.75 433.5C163.75 472 194 502.25 232.25 502.25C270.75 502.25 301 472 301 433.5C301 395.25 270.75 365 232.25 365C194 365 163.75 395.25 163.75 433.5ZM835.25 433.5C835.25 472 865.5 502.25 904 502.25C942.25 502.25 972.5 472 972.5 433.5C972.5 395.25 942.25 365 904 365C865.5 365 835.25 395.25 835.25 433.5Z" fill="black" fill-opacity="0.85"/>
  <path d="M89 79.25L170.5 79.25C205.25 79.25 220.25 85.75 238 109.25L326.5 226C353 261 381.5 275.5 424.5 275.5L492.5 275.5L492.5 306.75C492.5 326.25 510 332 524.5 322.5L605 270.75C618.75 262 619 245.25 605 236L524.75 184.5C510 175 492.5 180.75 492.5 200.5L492.5 231.25L424.5 231.25C394.75 231.25 381.25 224 361.75 198.75L272.5 82C246.5 48.25 216.75 35 170.5 35L89 35C77 35 67 45 67 57C67 69.25 77 79.25 89 79.25Z" fill="black" fill-opacity="0.85"/>
 </g>
</svg>
