<?xml version="1.0" encoding="UTF-8"?>
<!--Generator: Apple Native CoreSVG 326-->
<!DOCTYPE svg
PUBLIC "-//W3C//DTD SVG 1.1//EN"
       "http://www.w3.org/Graphics/SVG/1.1/DTD/svg11.dtd">
<svg version="1.1" xmlns="http://www.w3.org/2000/svg" xmlns:xlink="http://www.w3.org/1999/xlink" viewBox="0 0 862 775.016">
 <g>
  <rect height="775.016" opacity="0" width="862" x="0" y="0"/>
  <path d="M862 349.633L862 303.633C849.5 309.883 837 316.633 824 325.133L706 399.133L575.75 415.133C498.25 424.633 451.25 472.383 451.25 538.383L451.25 576.633C451.25 640.133 479.5 668.883 540.25 668.883L581.5 668.883L581.5 629.133L540.25 629.133C506.75 629.133 491.25 612.133 491.25 575.133L491.25 538.383C491.25 494.383 524.25 461.383 580.75 454.383L697.75 440.383C716 438.133 726.25 434.383 738 427.133L845.5 359.383C851 355.883 856.5 352.633 862 349.633ZM862 668.883L862 629.133L735.5 629.133L735.5 668.883ZM661 731.633C717 731.633 760.75 687.883 760.75 631.883C760.75 576.133 717 532.383 661 532.383C605 532.383 561.5 576.133 561.5 631.883C561.5 687.883 605 731.633 661 731.633ZM661 693.883C626.5 693.883 599 666.633 599 631.883C599 597.383 626.5 570.133 661 570.133C695.75 570.133 723.25 597.383 723.25 631.883C723.25 666.633 695.75 693.883 661 693.883ZM172 731.633C228 731.633 271.5 687.883 271.5 631.883C271.5 576.133 228 532.383 172 532.383C116 532.383 72.25 576.133 72.25 631.883C72.25 687.883 116 731.633 172 731.633ZM172 693.883C137.25 693.883 109.75 666.633 109.75 631.883C109.75 597.383 137.25 570.133 172 570.133C206.5 570.133 234 597.383 234 631.883C234 666.633 206.5 693.883 172 693.883ZM0 629.133L0 668.883L100.75 668.883L100.75 629.133ZM251 668.883L292.75 668.883C354 668.883 381.5 639.883 381.5 575.133L381.5 494.633C381.5 442.383 357 409.883 302.75 392.633L256.25 377.883C191.25 322.383 117.75 269.633 18.25 269.633L0 269.633L0 309.633L18.25 309.633C92 309.633 151 340.133 223.5 403.883C236.5 415.133 243 417.883 258.5 422.633L291 433.133C326.25 444.383 341.75 462.383 341.75 494.633L341.75 575.133C341.75 612.133 326.25 629.133 292.75 629.133L251 629.133Z" fill="black" fill-opacity="0.85"/>
  <path d="M457 130.883C416.75 190.383 395.5 259.633 396.5 327.633C397.25 339.133 405.5 347.133 416 347.133C426.75 346.633 434.5 338.133 434.25 326.633C433 268.133 451.5 205.883 488 152.133C524.5 97.8829 575 57.1329 630 37.1329C640.5 32.8829 645.75 22.3829 642 11.8829C638 1.63291 627.25-2.36709 616.25 1.38291C553 26.3829 497 71.8829 457 130.883Z" fill="black" fill-opacity="0.85"/>
  <path d="M538 186.133C508.25 229.883 493.25 279.633 494.75 327.883C495.5 339.133 503.75 346.633 514.25 346.883C524.5 346.633 533 338.383 533 326.633C531.5 287.133 544.5 244.883 569.75 206.883C595 169.633 629.5 141.633 666.75 128.133C677.5 123.883 682 113.133 678.5 103.633C674.5 93.3829 664 88.8829 653.5 92.6329C609 108.383 568.25 141.633 538 186.133Z" fill="black" fill-opacity="0.85"/>
  <path d="M619.25 240.633C601 267.633 591.25 300.133 593 327.633C592.75 338.383 601.5 346.883 612 346.633C624 346.633 631.5 337.133 631.25 325.133C630.25 305.133 637.75 281.633 651 261.883C664.75 241.883 683.5 226.383 702.25 220.133C713.5 215.883 719.5 205.133 715.5 193.633C711.25 184.383 700.5 179.883 690.25 183.383C663.25 192.883 637.25 214.133 619.25 240.633Z" fill="black" fill-opacity="0.85"/>
 </g>
</svg>
