<?xml version="1.0" encoding="UTF-8"?>
<!--Generator: Apple Native CoreSVG 326-->
<!DOCTYPE svg
PUBLIC "-//W3C//DTD SVG 1.1//EN"
       "http://www.w3.org/Graphics/SVG/1.1/DTD/svg11.dtd">
<svg version="1.1" xmlns="http://www.w3.org/2000/svg" xmlns:xlink="http://www.w3.org/1999/xlink" viewBox="0 0 913.146 476.75">
 <g>
  <rect height="476.75" opacity="0" width="913.146" x="0" y="0"/>
  <path d="M208.823 79.75L229.573 79.75C241.823 79.75 246.823 75 251.073 64.5L270.073 17.25C273.823 8 269.573 0.5 260.073 0.5L241.323 0.5C232.073 0.5 226.073 4.75 221.823 13L197.323 61.25C192.823 69.75 197.323 79.75 208.823 79.75ZM123.323 254.5L156.073 254.5C168.573 254.5 175.823 250.25 180.573 238.5L207.823 171.5C211.573 162 205.573 152.5 195.073 152.5L165.823 152.5C156.823 152.5 149.073 157 144.573 165.75L110.323 233C105.073 243.5 111.573 254.5 123.323 254.5ZM22.5732 476.75L62.3232 476.75C79.0732 476.75 87.3232 468.75 92.3232 456.25L134.073 353.25C139.323 341 131.323 329 118.073 329L84.3232 329C67.0732 329 58.3232 335.75 52.3232 347.5L3.3232 445.75C-4.1768 460.25 1.0732 476.75 22.5732 476.75ZM683.823 79.75L704.323 79.75C715.823 79.75 720.323 69.75 715.823 61.25L691.323 13C687.073 4.75 681.323 0.5 671.823 0.5L653.073 0.5C643.573 0.5 639.323 8 643.073 17.25L662.073 64.5C666.323 75 671.323 79.75 683.823 79.75ZM757.323 254.5L789.823 254.5C801.823 254.5 808.323 243.5 802.823 233L768.823 165.75C764.323 157 756.573 152.5 747.323 152.5L718.073 152.5C707.573 152.5 701.573 162 705.323 171.5L732.573 238.5C737.323 250.25 744.573 254.5 757.323 254.5ZM851.073 476.75L890.823 476.75C912.073 476.75 917.323 460.25 910.073 445.75L861.073 347.5C855.073 335.75 846.073 329 828.823 329L795.323 329C781.823 329 774.073 341 779.073 353.25L820.823 456.25C825.823 468.75 834.323 476.75 851.073 476.75Z" fill="black" fill-opacity="0.85"/>
  <path d="M254.573 372.5C254.573 385 264.323 394.75 277.073 394.75L296.823 394.75C309.573 394.75 319.073 385 319.073 372.5L319.073 349L591.073 349L591.073 372.5C591.073 385 600.823 394.75 613.323 394.75L633.323 394.75C645.823 394.75 655.573 385 655.573 372.5L655.573 261.5C655.573 232.25 650.823 215.5 634.073 196.75L617.323 177.75L599.073 125.5C589.323 97.5 571.073 85.75 547.323 83C535.823 81.75 497.823 80.75 455.073 80.75C412.323 80.75 374.323 81.75 362.823 83C339.323 85.75 321.073 97.5 311.073 125.5L292.823 177.75L276.073 196.75C259.323 215.5 254.573 232.25 254.573 261.5ZM337.323 176.25C329.573 176.25 326.573 170.5 329.073 163L339.823 131.5C344.323 118.25 351.073 113.75 362.823 112C375.073 110.5 406.573 109.25 455.073 109.25C503.573 109.25 534.823 110.5 547.073 112C558.823 113.75 565.823 118.25 570.323 131.5L581.073 163C583.573 170.5 580.573 176.25 572.823 176.25ZM314.573 283.75C304.573 283.75 297.323 276.5 297.323 266.5L297.323 239.5C297.323 229.5 304.573 222.25 314.573 222.25C324.573 222.25 331.823 229.5 331.823 239.5L331.823 266.5C331.823 276.5 324.573 283.75 314.573 283.75ZM415.573 276C407.823 276 402.823 270.75 402.823 262.25L402.823 243.5C402.823 235.25 407.823 230.25 415.573 230.25L493.573 230.25C501.573 230.25 506.823 235.25 506.823 243.5L506.823 262.25C506.823 270.75 501.573 276 493.573 276ZM596.823 283.75C587.323 283.75 579.823 276.25 579.823 266.5L579.823 239.5C579.823 229.5 587.323 222.25 596.823 222.25C607.073 222.25 614.323 229.5 614.323 239.5L614.323 266.5C614.323 276.5 607.073 283.75 596.823 283.75Z" fill="black" fill-opacity="0.85"/>
 </g>
</svg>
