<?xml version="1.0" encoding="UTF-8"?>
<!--Generator: Apple Native CoreSVG 326-->
<!DOCTYPE svg
PUBLIC "-//W3C//DTD SVG 1.1//EN"
       "http://www.w3.org/Graphics/SVG/1.1/DTD/svg11.dtd">
<svg version="1.1" xmlns="http://www.w3.org/2000/svg" xmlns:xlink="http://www.w3.org/1999/xlink" viewBox="0 0 431.25 868.75">
 <g>
  <rect height="868.75" opacity="0" width="431.25" x="0" y="0"/>
  <path d="M215.75 41.5C274 41.5 327 63.5 367.5 100.5C379.5 111 391.75 111.5 400 103.5C409 94.5 408.75 81.5 399 71.25C351 23.25 285 0 215.75 0C146.25 0 80.5 23.25 32.5 71.25C22.5 81.5 22.25 94.5 31.5 103.5C39.75 111.5 52 111 63.75 100.5C104.5 63.5 157.25 41.5 215.75 41.5Z" fill="black" fill-opacity="0.85"/>
  <path d="M215.75 153.5C245.75 153.5 271.5 163 291.25 180C305 190.25 316.5 190.25 324.75 181.75C333.25 173.5 333 161.25 323.75 151.75C302.5 130.75 260.75 111.75 215.75 111.75C170.75 111.75 128.75 130.75 107.5 151.75C98.5 161.25 98 173.5 106.75 181.75C114.75 190.25 126.5 190.25 140.25 180C159.75 163 185.5 153.5 215.75 153.5Z" fill="black" fill-opacity="0.85"/>
  <path d="M215.75 868.5C335.25 868.5 391.5 840.25 391.5 771.25L391.5 352.75C391.5 281 325.5 239.25 215.75 239.25C105.75 239.25 40 281 40 352.75L40 771.25C40 840.25 96 868.5 215.75 868.5ZM63.75 485.75L63.75 423.5L26.25 423.5C11.25 423.5 0 434.25 0 448.25L0 461C0 474.75 11.25 485.75 26.25 485.75ZM367.5 485.75L405 485.75C420 485.75 431.25 474.75 431.25 461L431.25 448.25C431.25 434.25 420 423.5 405 423.5L367.5 423.5ZM215.5 502.25C193.25 502.25 154 504.5 141.25 504.5C121.5 504.5 112.25 496.25 110.5 475.25L106.25 430.5C103.25 392.5 126.25 377 215.5 377C305 377 328 392.5 325 430.5L321.25 475.25C319 496.25 310 504.5 290 504.5C277.25 504.5 240.5 502.25 215.5 502.25ZM215.5 771.5C129.25 771.5 102.5 759 107.75 719.75L111 697.25C115.5 666 140 656 215.5 656C291.25 656 315.75 666 320.5 697.25L323.5 719.75C329.25 759 302 771.5 215.5 771.5Z" fill="black" fill-opacity="0.85"/>
 </g>
</svg>
