<?xml version="1.0" encoding="UTF-8"?>
<!--Generator: Apple Native CoreSVG 326-->
<!DOCTYPE svg
PUBLIC "-//W3C//DTD SVG 1.1//EN"
       "http://www.w3.org/Graphics/SVG/1.1/DTD/svg11.dtd">
<svg version="1.1" xmlns="http://www.w3.org/2000/svg" xmlns:xlink="http://www.w3.org/1999/xlink" viewBox="0 0 974.646 656.75">
 <g>
  <rect height="656.75" opacity="0" width="974.646" x="0" y="0"/>
  <path d="M22.5732 656L64.3232 656C81.0732 656 89.3232 648.25 94.5732 635.5L254.573 247.5C258.323 238 253.823 230.5 244.573 230.5L214.323 230.5C205.073 230.5 199.073 234.75 194.823 243.25L3.3232 625C-4.1768 639.5 1.0732 656 22.5732 656ZM910.823 656.25L952.323 656.25C973.573 656.25 978.823 639.75 971.573 625.25L779.823 243.5C775.573 235 769.823 231 760.323 231L730.323 231C720.823 231 716.323 238.25 720.323 247.75L880.573 636C885.823 648.5 894.073 656.25 910.823 656.25Z" fill="black" fill-opacity="0.85"/>
  <path d="M187.823 503.25L786.573 503.25L768.573 457.75L205.823 457.75Z" fill="black" fill-opacity="0.85"/>
  <path d="M217.573 428L756.573 428L738.573 382.25L235.823 382.25Z" fill="black" fill-opacity="0.85"/>
  <path d="M248.073 351.75L726.073 351.75L708.073 306.25L266.073 306.25Z" fill="black" fill-opacity="0.85"/>
  <path d="M309.073 259.25C309.073 270.25 317.573 279 328.823 279L346.323 279C357.573 279 366.323 270.25 366.323 259.25L366.323 238.25L607.823 238.25L607.823 259.25C607.823 270.25 616.323 279 627.573 279L645.323 279C656.573 279 665.073 270.25 665.073 259.25L665.073 160.5C665.073 134.5 660.823 119.75 646.073 103.25L631.073 86.25L614.823 39.75C606.073 15 590.073 4.5 569.073 2C558.823 0.75 525.073 0 487.073 0C449.073 0 415.323 0.75 405.073 2C384.073 4.5 367.823 15 359.073 39.75L342.823 86.25L328.073 103.25C313.323 119.75 309.073 134.5 309.073 160.5ZM382.323 85C375.323 85 372.823 79.75 375.073 73L384.573 45C388.573 33.25 394.573 29.25 405.073 27.75C416.073 26.25 443.823 25.25 487.073 25.25C530.073 25.25 557.823 26.25 568.823 27.75C579.323 29.25 585.323 33.25 589.323 45L598.823 73C601.323 79.75 598.573 85 591.573 85ZM362.323 180.25C353.323 180.25 346.823 174 346.823 165L346.823 141C346.823 132.25 353.323 125.75 362.323 125.75C371.073 125.75 377.573 132 377.573 141L377.573 165C377.573 174 371.073 180.25 362.323 180.25ZM452.073 173.5C445.073 173.5 440.573 169 440.573 161.25L440.573 144.75C440.573 137.25 445.073 132.75 452.073 132.75L521.073 132.75C528.323 132.75 532.823 137.25 532.823 144.75L532.823 161.25C532.823 169 528.323 173.5 521.073 173.5ZM613.073 180.25C604.573 180.25 597.823 173.75 597.823 165L597.823 141C597.823 132.25 604.573 125.75 613.073 125.75C622.073 125.75 628.573 132 628.573 141L628.573 165C628.573 174 622.073 180.25 613.073 180.25Z" fill="black" fill-opacity="0.85"/>
 </g>
</svg>
