<?xml version="1.0" encoding="UTF-8"?>
<!--Generator: Apple Native CoreSVG 326-->
<!DOCTYPE svg
PUBLIC "-//W3C//DTD SVG 1.1//EN"
       "http://www.w3.org/Graphics/SVG/1.1/DTD/svg11.dtd">
<svg version="1.1" xmlns="http://www.w3.org/2000/svg" xmlns:xlink="http://www.w3.org/1999/xlink" viewBox="0 0 862 881.313">
 <g>
  <rect height="881.313" opacity="0" width="862" x="0" y="0"/>
  <path d="M491.25 607.186L491.25 628.281C491.25 665.281 506.75 682.281 540.25 682.281L561.634 682.281L561.852 677.814L668.418 784.419C665.993 784.694 663.509 784.781 661 784.781C618.16 784.781 582.635 759.178 568.383 722.031L540.25 722.031C479.5 722.031 451.25 693.281 451.25 629.781L451.25 591.531C451.25 583.798 451.895 576.314 453.218 569.14ZM256.25 431.031L302.75 445.781C357 463.031 381.5 495.531 381.5 547.781L381.5 628.281C381.5 693.031 354 722.031 292.75 722.031L264.617 722.031C250.365 759.178 214.84 784.781 172 784.781C129.16 784.781 93.4888 759.178 79.1678 722.031L0 722.031L0 682.281L72.3848 682.281C73.7128 627.834 116.934 585.531 172 585.531C227.066 585.531 270.045 627.834 271.366 682.281L292.75 682.281C326.25 682.281 341.75 665.281 341.75 628.281L341.75 547.781C341.75 515.531 326.25 497.531 291 486.281L258.5 475.781C243 471.031 236.5 468.281 223.5 457.031C151 393.281 92 362.781 18.25 362.781L0 362.781L0 322.781L18.25 322.781C117.75 322.781 191.25 375.531 256.25 431.031ZM109.75 685.031C109.75 719.781 137.25 747.031 172 747.031C206.5 747.031 234 719.781 234 685.031C234 650.531 206.5 623.281 172 623.281C137.25 623.281 109.75 650.531 109.75 685.031ZM760.615 682.281L862 682.281L862 722.031L765 722.031L723.001 680.033C720.681 649.739 696.963 626.088 666.52 623.552L632.527 589.559C641.489 586.913 651.047 585.531 661 585.531C716.066 585.531 759.287 627.834 760.615 682.281ZM862 402.781C856.5 405.781 851 409.031 845.5 412.531L738 480.281C726.25 487.531 716 491.281 697.75 493.531L580.75 507.531C571.804 508.64 563.447 510.4 555.79 512.821L524.769 481.8C539.766 475.189 556.851 470.598 575.75 468.281L706 452.281L824 378.281C837 369.781 849.5 363.031 862 356.781Z" fill="black" fill-opacity="0.85"/>
  <path d="M380.75 73.0314L451.5 145.531L465 88.7814C467 80.2814 475.5 80.7814 477.5 88.7814L492.5 146.031L554.5 87.7814C560.5 81.5314 567.75 87.5314 565.25 94.7814L527 203.031L580 224.781C585 226.781 585 233.781 580 235.531L520 253.281L578.75 363.281C583.5 372.531 574.5 379.531 566.75 372.781L467.25 283.531L414.243 371.275L396.362 353.393L395.5 299.781L352.479 309.511L329.006 286.038L370 258.281L317 254.531C307.75 253.781 306.5 244.031 315.25 240.781L362.75 223.281L283 174.781C274.75 170.031 277.75 160.031 287.75 161.531L372.25 173.281L354.25 149.781C348.5 142.031 354.25 136.281 362 139.781L394.75 154.531L369.75 80.2814C366.75 71.5314 374.75 66.7814 380.75 73.0314Z" fill="black" fill-opacity="0.85"/>
  <path d="M773.25 840.281C781.75 848.531 795.25 848.781 803.5 840.281C811.75 831.781 811.75 818.281 803.5 810.031L126.5 132.781C118 124.281 104.75 124.281 96 132.781C88 140.781 87.5 154.281 96 163.031Z" fill="black" fill-opacity="0.85"/>
 </g>
</svg>
