<?xml version="1.0" encoding="UTF-8"?>
<!--Generator: Apple Native CoreSVG 326-->
<!DOCTYPE svg
PUBLIC "-//W3C//DTD SVG 1.1//EN"
       "http://www.w3.org/Graphics/SVG/1.1/DTD/svg11.dtd">
<svg version="1.1" xmlns="http://www.w3.org/2000/svg" xmlns:xlink="http://www.w3.org/1999/xlink" viewBox="0 0 1018.75 785.817">
 <g>
  <rect height="785.817" opacity="0" width="1018.75" x="0" y="0"/>
  <path d="M103 771.033C109.5 781.783 123 785.033 133.25 779.533L959 303.283C969 297.283 972.75 284.033 967 273.533C960.5 262.533 946.75 259.033 936.75 265.033L111 741.283C101 746.783 97.25 760.533 103 771.033ZM142.5 603.283L157 594.783C151.75 588.783 147 582.283 142.75 575.283C113.25 523.783 130.25 459.783 182 430.033C233.5 400.283 297.5 417.283 327 468.783C331.25 476.033 334.25 483.283 336.75 491.033L607 335.033C601.75 329.033 597 322.533 592.75 315.283C563.25 264.033 580.25 200.033 631.75 170.283C683.5 140.533 747.25 157.533 777 209.033C781.25 216.283 784.25 223.533 786.75 231.283L801.5 222.783C848.75 195.283 857.25 160.033 828.5 110.033L792.25 47.2834C768.75 6.53341 735.25-6.96659 685 3.28341L642 12.2834C570.25 0.0334073 485.5-8.96659 401 39.7834L368.25 58.5334C277.75 110.783 243.5 142.783 208.75 208.533L150.5 318.783L56.25 389.783C0.25 432.033-14.75 490.283 15 541.533L32 571.283C60.5 620.533 95.5 630.283 142.5 603.283ZM274 589.783C312 567.783 324.5 520.783 302.75 483.033C280.75 445.033 234 432.533 196 454.533C158 476.533 145.5 523.283 167.25 561.033C189.25 599.033 236 611.533 274 589.783ZM724 329.783C762 308.033 774.5 261.033 752.5 223.033C730.75 185.283 684 172.783 646 194.783C608 216.533 595.5 263.533 617.25 301.283C639.25 339.283 686 351.783 724 329.783Z" fill="black" fill-opacity="0.85"/>
  <path d="M627.25 782.783C637.25 782.783 643.75 776.283 643.75 766.033L643.75 691.783L698.25 691.783L698.25 766.033C698.25 776.283 704.75 782.783 714.75 782.783C724.75 782.783 731.25 776.283 731.25 766.033L731.25 593.783C731.25 583.783 724.75 577.283 714.75 577.283C704.75 577.283 698.25 583.783 698.25 593.783L698.25 664.283L643.75 664.283L643.75 593.783C643.75 583.783 637.25 577.283 627.25 577.283C617.5 577.283 611.25 583.783 611.25 593.783L611.25 766.033C611.25 776.283 617.5 782.783 627.25 782.783ZM775.5 782.783L810.75 782.783C862.5 782.783 879.75 731.283 879.75 679.533C879.75 623.533 860.25 577.283 810.75 577.283L775.5 577.283C766 577.283 759 583.033 759 594.283L759 765.783C759 777.033 766 782.783 775.5 782.783ZM791.25 755.033L791.25 605.033L806.75 605.033C840 605.033 846.5 646.533 846.5 679.533C846.5 713.033 840.5 755.033 806.75 755.033ZM963.5 784.533C984.25 784.533 998.75 774.033 1008 758.283C1013.75 749.033 1018.75 734.033 1018.75 723.783C1018.75 714.783 1012.5 709.033 1003.5 709.033C996.25 709.033 990.75 714.033 989 722.033C985.25 741.783 979.75 755.533 962.5 755.533C941.25 755.533 932 723.283 932 679.783C932 631.783 944.25 604.033 962.5 604.033C978.25 604.033 985.75 619.783 988.5 637.783C989.75 646.533 995.75 651.783 1004.25 651.783C1013 651.783 1018 645.283 1018 636.533C1018 624.783 1012.5 607.033 1002.75 595.533C992.75 583.033 978.75 575.283 962.25 575.283C934.25 575.283 917.75 594.533 909 616.533C901 635.783 899 657.533 899 679.783C899 705.783 901.5 731.783 913.25 753.533C924.25 773.283 940.5 784.533 963.5 784.533Z" fill="black" fill-opacity="0.85"/>
 </g>
</svg>
