<?xml version="1.0" encoding="UTF-8"?>
<!--Generator: Apple Native CoreSVG 326-->
<!DOCTYPE svg
PUBLIC "-//W3C//DTD SVG 1.1//EN"
       "http://www.w3.org/Graphics/SVG/1.1/DTD/svg11.dtd">
<svg version="1.1" xmlns="http://www.w3.org/2000/svg" xmlns:xlink="http://www.w3.org/1999/xlink" viewBox="0 0 639.821 927.75">
 <g>
  <rect height="927.75" opacity="0" width="639.821" x="0" y="0"/>
  <path d="M216.036 629.25C335.536 629.25 391.536 601.25 391.536 532.25L391.536 113.5C391.536 42 325.536 0 216.036 0C105.786 0 40.0357 42 40.0357 113.5L40.0357 532.25C40.0357 601.25 96.2857 629.25 216.036 629.25ZM216.036 586.25C123.036 586.25 83.2857 570.25 83.2857 531L83.2857 113.5C83.2857 69 129.786 43.5 216.036 43.5C301.786 43.5 348.036 69 348.036 113.5L348.036 531C348.036 570.25 308.536 586.25 216.036 586.25ZM215.786 264.75C240.036 264.75 276.036 267 288.286 267C307.786 267 316.786 259 318.536 238.25L322.536 194.5C325.536 157.5 303.036 142.5 215.786 142.5C128.286 142.5 105.786 157.5 109.036 194.5L112.786 238.25C114.536 259 123.536 267 143.036 267C155.286 267 193.786 264.75 215.786 264.75ZM215.786 527.75C300.036 527.75 326.286 515.5 321.036 477.5L318.036 455.5C313.536 425 289.536 415 215.786 415C141.786 415 117.786 425 113.286 455.5L110.286 477.5C105.036 515.5 131.286 527.75 215.786 527.75ZM367.536 246.5L405.036 246.5C420.036 246.5 431.286 235.75 431.286 222L431.286 209.25C431.286 195.25 420.036 184.5 405.036 184.5L367.536 184.5ZM63.7857 246.5L63.7857 184.5L26.2857 184.5C11.2857 184.5 0.0357213 195.25 0.0357213 209.25L0.0357213 222C0.0357213 235.75 11.2857 246.5 26.2857 246.5Z" fill="black" fill-opacity="0.85"/>
  <path d="M494.786 904L406.786 816C390.286 799.25 390.036 780.25 406.536 763.75L487.036 683C503.786 666.5 522.286 666 538.786 682.75L627.286 771.25C643.536 787.25 644.286 807 627.786 823.75L547.036 904.25C530.536 920.75 511.286 920.5 494.786 904ZM414.786 737L356.536 732C351.286 731.5 346.786 730 343.786 727C337.786 721 338.036 712.75 344.786 706L429.786 621.25C436.286 614.75 444.536 614.25 450.536 620.25C453.536 623.25 455.036 628 455.536 633L460.536 691.25Z" fill="black" fill-opacity="0.85"/>
 </g>
</svg>
