<?xml version="1.0" encoding="UTF-8"?>
<!--Generator: Apple Native CoreSVG 326-->
<!DOCTYPE svg
PUBLIC "-//W3C//DTD SVG 1.1//EN"
       "http://www.w3.org/Graphics/SVG/1.1/DTD/svg11.dtd">
<svg version="1.1" xmlns="http://www.w3.org/2000/svg" xmlns:xlink="http://www.w3.org/1999/xlink" viewBox="0 0 616.5 759.25">
 <g>
  <rect height="759.25" opacity="0" width="616.5" x="0" y="0"/>
  <path d="M308.25 44.75C379 44.75 442.75 70.25 491 114.75C502.25 124.75 515 127.5 525 118.75C535.25 109.75 535.25 94.5 523.75 84C467 30.75 390.75 0 308.25 0C225.75 0 149.5 30.75 92.75 84C81.25 94.5 81.25 109.75 91.5 118.75C101.25 127.5 114.25 124.75 125.5 114.75C173.75 70.25 237.5 44.75 308.25 44.75Z" fill="black" fill-opacity="0.85"/>
  <path d="M308.25 172.75C343.25 172.75 375.75 183.25 400 204.25C411.75 213 424.25 216.75 434 208C444.25 199 444.5 182.5 432.25 172.75C398.5 144.25 355 128 308.25 128C261.5 128 218 144.25 184.25 172.75C172 182.5 172.25 199 182.5 208C192.25 216.75 204.75 213 216.5 204.25C242 184.5 273.25 172.75 308.25 172.75Z" fill="black" fill-opacity="0.85"/>
  <path d="M0 723C0 743 16 759.25 36.5 759.25L67 759.25C87.25 759.25 103.25 743 103.25 723L103.25 689.5L513.25 689.5L513.25 723C513.25 743 529.25 759.25 549.5 759.25L580 759.25C600.5 759.25 616.5 743 616.5 723L616.5 554.5C616.5 509.5 609.25 483.5 583.25 454.25L558 425.75L530 346.5C514.75 302.75 486 284 449.5 280C431.75 277.75 373.5 276.25 308.25 276.25C243 276.25 184.75 277.75 167 280C130.5 284 101.75 302.75 86.5 346.5L58.5 425.75L33.25 454.25C7.25 483.5 0 509.5 0 554.5ZM128.5 422.25C118.25 422.25 115 415.5 118.5 405.25L135 357.25C141.5 338 150.5 331.75 167.75 329.25C186.5 326.75 234.25 324.75 308.25 324.75C382.25 324.75 429.75 326.75 448.5 329.25C465.75 331.75 475 338 481.5 357.25L498 405.25C501.5 415.5 498 422.25 487.75 422.25ZM94 586.25C79.5 586.25 70 576.5 70 562.5L70 520.75C70 507 79.5 497.5 94 497.5C108.25 497.5 117.5 506.75 117.5 520.75L117.5 562.5C117.5 576.75 108.25 586.25 94 586.25ZM248 574.25C237 574.25 231 568 231 555.75L231 527.25C231 515.5 237 509.25 248 509.25L367 509.25C378 509.25 384.5 515.5 384.5 527.25L384.5 555.75C384.5 568 378 574.25 367 574.25ZM524.5 586.25C510.75 586.25 501 576.5 501 562.5L501 520.75C501 507 510.75 497.5 524.5 497.5C539 497.5 548.5 506.75 548.5 520.75L548.5 562.5C548.5 576.75 539 586.25 524.5 586.25Z" fill="black" fill-opacity="0.85"/>
 </g>
</svg>
