<?xml version="1.0" encoding="UTF-8"?>
<!--Generator: Apple Native CoreSVG 326-->
<!DOCTYPE svg
PUBLIC "-//W3C//DTD SVG 1.1//EN"
       "http://www.w3.org/Graphics/SVG/1.1/DTD/svg11.dtd">
<svg version="1.1" xmlns="http://www.w3.org/2000/svg" xmlns:xlink="http://www.w3.org/1999/xlink" viewBox="0 0 1136.25 512.75">
 <g>
  <rect height="512.75" opacity="0" width="1136.25" x="0" y="0"/>
  <path d="M98.25 443L144.25 443L144.25 398.5L98.25 398.5C61.5 398.5 44.25 379.75 44.25 339L44.25 298.5C44.25 249.25 80.75 212.75 143.5 205.25L273.25 189.5C293 187 304.5 182.75 317.5 174.75L436.75 99.75C507.75 55.25 555.5 44.5 676 44.5L722.5 44.5C809.75 44.5 877.25 75.75 961.25 149.25C975.25 161.5 982.75 164.5 999.75 170L1035.75 181.5C1074.75 194.25 1092 213.75 1092 249.75L1092 339C1092 379.75 1074.75 398.5 1037.75 398.5L991.25 398.5L991.25 443L1037.75 443C1105.25 443 1136.25 410.25 1136.25 339L1136.25 249.75C1136.25 191.75 1108.75 156.5 1048.75 136.75L997.25 119.5C928 60.5 843 0 722.5 0L676 0C547 0 490.5 13.25 413 62L282.25 143.75L137.75 161.5C52 172.25 0 225 0 298.5L0 340.5C0 410.75 31.5 443 98.25 443ZM314.5 443L825.25 443L825.25 398.5L314.5 398.5ZM232.25 512.25C294.25 512.25 342.75 463.75 342.75 401.75C342.75 339.75 294.25 291.5 232.25 291.5C170.25 291.5 122 339.75 122 401.75C122 463.75 170.25 512.25 232.25 512.25ZM232.25 470.5C194 470.5 163.75 440.25 163.75 401.75C163.75 363.5 194 333.25 232.25 333.25C270.75 333.25 301 363.5 301 401.75C301 440.25 270.75 470.5 232.25 470.5ZM904 512.25C965.75 512.25 1014.25 463.75 1014.25 401.75C1014.25 339.75 965.75 291.5 904 291.5C842 291.5 793.5 339.75 793.5 401.75C793.5 463.75 842 512.25 904 512.25ZM904 470.5C865.5 470.5 835.25 440.25 835.25 401.75C835.25 363.5 865.5 333.25 904 333.25C942.25 333.25 972.5 363.5 972.5 401.75C972.5 440.25 942.25 470.5 904 470.5Z" fill="black" fill-opacity="0.85"/>
  <path d="M441.25 216.75C441.25 269.25 480.5 305 537.75 305L666.25 305L666.25 338.75C666.25 355 677.75 360.5 691.75 351.25L768 300.5C778.75 293.5 779.25 280.5 767.75 272.75L692.25 222.25C678 212.75 666.25 218.25 666.25 234.75L666.25 267.5L537.75 267.5C503.25 267.5 480.5 248 480.5 219.25C480.5 187.25 503.75 165.5 538 165.5L724.75 165.5C736.25 165.25 744.5 157.75 744.5 146.5C744.5 135.5 736.25 127.5 724.25 127.5L538 127.5C480.5 127.5 441.25 163.75 441.25 216.75Z" fill="black" fill-opacity="0.85"/>
 </g>
</svg>
