<?xml version="1.0" encoding="UTF-8"?>
<!--Generator: Apple Native CoreSVG 326-->
<!DOCTYPE svg
PUBLIC "-//W3C//DTD SVG 1.1//EN"
       "http://www.w3.org/Graphics/SVG/1.1/DTD/svg11.dtd">
<svg version="1.1" xmlns="http://www.w3.org/2000/svg" xmlns:xlink="http://www.w3.org/1999/xlink" viewBox="0 0 617.632 825.25">
 <g>
  <rect height="825.25" opacity="0" width="617.632" x="0" y="0"/>
  <path d="M78.8162 746C127.816 795.25 190.816 825 258.816 825C273.066 825 282.566 815.75 282.566 803C282.316 791.25 273.066 783.25 257.316 782.25C202.566 779.75 149.566 757.5 108.316 716.5C67.3162 675.25 45.0662 622.5 42.5662 567.5C41.3162 550 33.8162 543 20.3162 543C9.56617 542.75-0.933827 550.75 0.0661728 565.75C3.31617 634 29.8162 697 78.8162 746Z" fill="black" fill-opacity="0.85"/>
  <path d="M158.066 666.75C189.816 698.5 232.816 714.75 262.816 714.75C275.816 714.75 284.816 706.25 284.566 694.5C284.566 682.75 276.816 674.5 259.566 672.25C233.566 670.25 208.816 658.5 187.566 637.5C166.566 616.25 155.066 591.25 152.316 563C150.066 547.5 144.316 540.75 130.566 540.75C118.316 540.5 108.816 550 110.566 565C113.816 603.75 130.066 639 158.066 666.75Z" fill="black" fill-opacity="0.85"/>
  <path d="M402.316 629C521.816 629 577.816 601 577.816 532L577.816 113.25C577.816 41.75 511.816 0 402.316 0C292.066 0 226.316 41.75 226.316 113.25L226.316 532C226.316 601 282.566 629 402.316 629ZM402.066 263C379.566 263 340.316 265.25 327.566 265.25C307.566 265.25 298.566 257 296.566 235.75L292.566 191C289.566 153 312.566 137.75 402.066 137.75C491.316 137.75 514.316 153 511.316 191L507.066 235.75C505.316 257 496.066 265.25 476.316 265.25C463.566 265.25 426.816 263 402.066 263ZM402.066 532.25C315.566 532.25 288.566 519.5 294.066 480.5L297.066 458C301.816 426.75 326.316 416.75 402.066 416.75C477.566 416.75 502.066 426.75 506.566 458L509.816 480.5C515.316 519.5 488.316 532.25 402.066 532.25ZM553.816 246.25L591.316 246.25C606.316 246.25 617.566 235.5 617.566 221.75L617.566 209C617.566 195 606.316 184.25 591.316 184.25L553.816 184.25ZM250.066 246.25L250.066 184.25L212.566 184.25C197.566 184.25 186.316 195 186.316 209L186.316 221.75C186.316 235.5 197.566 246.25 212.566 246.25Z" fill="black" fill-opacity="0.85"/>
 </g>
</svg>
