<?xml version="1.0" encoding="UTF-8"?>
<!--Generator: Apple Native CoreSVG 326-->
<!DOCTYPE svg
PUBLIC "-//W3C//DTD SVG 1.1//EN"
       "http://www.w3.org/Graphics/SVG/1.1/DTD/svg11.dtd">
<svg version="1.1" xmlns="http://www.w3.org/2000/svg" xmlns:xlink="http://www.w3.org/1999/xlink" viewBox="0 0 636.176 695.75">
 <g>
  <rect height="695.75" opacity="0" width="636.176" x="0" y="0"/>
  <path d="M107.088 355.75C107.088 371 119.088 382.75 134.588 382.75L158.588 382.75C174.088 382.75 185.838 371 185.838 355.75L185.838 327L517.338 327L517.338 355.75C517.338 371 529.088 382.75 544.588 382.75L568.588 382.75C584.088 382.75 596.088 371 596.088 355.75L596.088 220.25C596.088 184.25 590.338 164 569.838 141.25L549.338 118.25L527.088 54.25C515.338 20.5 492.838 6.25 464.088 2.75C450.088 1 403.838 0 351.588 0C299.338 0 253.088 1 239.088 2.75C210.338 6.25 187.838 20.5 176.088 54.25L153.838 118.25L133.338 141.25C112.588 164 107.088 184.25 107.088 220.25ZM208.088 116.75C198.588 116.75 195.338 109.5 198.338 100.25L211.088 61.75C216.588 46 224.838 40.25 239.088 38.25C253.838 36.5 292.338 35 351.588 35C411.088 35 448.838 36.5 463.838 38.25C477.838 40.25 486.338 46.25 491.588 61.75L504.838 100.25C508.088 109.5 504.588 116.75 494.838 116.75ZM180.588 247.5C168.088 247.5 159.088 238.5 159.088 226.25L159.088 193C159.088 181.25 168.088 172.5 180.588 172.5C192.338 172.5 201.338 181 201.338 193L201.338 226.25C201.338 238.5 192.338 247.5 180.588 247.5ZM303.588 238C293.838 238 287.838 231.5 287.838 221L287.838 198.5C287.838 188.25 293.838 182 303.588 182L398.338 182C408.088 182 414.588 188.25 414.588 198.5L414.588 221C414.588 231.5 408.088 238 398.338 238ZM524.338 247.5C512.588 247.5 503.338 238.5 503.338 226.25L503.338 193C503.338 181.5 512.588 172.5 524.338 172.5C536.588 172.5 545.588 181 545.588 193L545.588 226.25C545.588 238.5 536.588 247.5 524.338 247.5ZM269.588 436.25L245.838 418.5C237.088 412 227.338 409 216.588 409L168.088 409C155.588 409 151.088 424 161.088 431.25L208.588 466.25C223.588 477 221.588 491.5 204.338 499L49.3382 566.25C-10.4118 592-16.1618 631 33.8382 667.75L57.5882 685.25C66.3382 691.75 76.3382 694.75 87.0882 694.75L135.088 694.75C147.838 694.75 152.338 680 142.588 672.75L94.5882 637.5C79.8382 626.75 81.8382 612.5 98.8382 604.75L254.338 537.5C313.838 512 319.338 473.25 269.588 436.25ZM602.588 437L578.838 419.5C570.088 413 560.088 410 549.338 410L501.088 410C488.588 410 483.838 425 493.838 432L541.588 467C556.338 477.75 554.588 492.25 537.338 500L382.088 567.25C322.588 593 316.838 631.75 366.838 668.5L390.588 686.25C399.088 692.75 409.088 695.75 419.838 695.75L468.088 695.75C480.588 695.75 485.338 680.75 475.338 673.75L427.838 638.5C412.838 627.75 414.588 613.25 431.838 605.75L587.088 538.5C646.838 512.75 652.088 474 602.588 437Z" fill="black" fill-opacity="0.85"/>
 </g>
</svg>
