<?xml version="1.0" encoding="UTF-8"?>
<!--Generator: Apple Native CoreSVG 326-->
<!DOCTYPE svg
PUBLIC "-//W3C//DTD SVG 1.1//EN"
       "http://www.w3.org/Graphics/SVG/1.1/DTD/svg11.dtd">
<svg version="1.1" xmlns="http://www.w3.org/2000/svg" xmlns:xlink="http://www.w3.org/1999/xlink" viewBox="0 0 825.259 634.25">
 <g>
  <rect height="634.25" opacity="0" width="825.259" x="0" y="0"/>
  <path d="M84.2543 208.75C110.004 171.75 145.004 145.25 184.004 129.25C200.254 122.5 202.004 107.5 195.504 97C190.504 89 180.754 84 169.754 88.25C121.754 106.75 80.7543 141 49.7543 185C19.2543 229 1.25428 279 0.0042769 330.75C-0.245723 344.25 10.5043 352.5 21.7543 352.5C32.7543 352.75 42.7543 345.25 43.5043 330C45.0043 288.25 58.0043 246 84.2543 208.75ZM412.504 41.75C457.754 41.75 499.754 55.25 535.254 77.75C549.004 86.5 561.254 81 567.004 71.25C572.004 62 571.004 49.75 560.754 42.5C517.754 14 466.504 0 412.504 0C358.754 0 307.254 14 264.504 42.5C254.254 49.75 253.004 62 258.004 71.25C264.004 81 276.254 86.5 289.754 78C325.504 55.25 367.254 41.75 412.504 41.75ZM741.004 208.75C767.254 246 780.004 288.25 781.754 330C782.504 345.25 792.504 352.75 803.504 352.5C814.754 352.5 825.504 344.25 825.254 330.75C824.004 279 806.004 229 775.504 185C744.504 141 703.254 106.75 655.504 88.25C644.504 84 634.754 89 629.754 97C623.254 107.5 625.004 122.5 641.254 129.25C680.004 145.25 715.254 171.75 741.004 208.75Z" fill="black" fill-opacity="0.85"/>
  <path d="M176.004 273.25C188.504 255.25 203.504 242.25 222.254 233C237.254 225 239.504 212.5 234.254 203C229.254 193.75 217.504 188.5 205.504 194.75C182.504 206 159.004 224.5 141.504 249C124.504 273.75 115.004 302.5 112.254 328.5C110.754 339.5 117.004 347.75 125.504 350.75C137.254 355.25 151.254 349.75 154.254 330.5C156.004 309.75 163.254 291 176.004 273.25ZM412.504 153.75C434.504 153.75 454.004 158.5 472.004 169C487.254 176.5 498.754 171 503.504 161.25C508.254 152 505.754 139.25 494.004 133C471.504 120.5 442.754 112 412.504 112C382.504 112 353.754 120.5 331.004 133C319.504 139.25 316.754 152 321.504 161.25C326.504 171.25 337.754 176.75 353.004 169C371.254 158.75 390.754 153.75 412.504 153.75ZM649.004 273.25C662.004 291 669.254 309.75 671.004 330.5C674.004 349.75 688.004 355.25 699.754 350.75C708.004 347.75 714.504 339.5 713.004 328.5C710.254 302.5 700.754 273.75 683.754 249C666.004 224.5 642.754 206 619.754 194.75C607.754 188.5 595.754 193.75 590.754 203C585.754 212.5 587.754 225 602.754 233C621.504 242.25 636.754 255.25 649.004 273.25Z" fill="black" fill-opacity="0.85"/>
  <path d="M236.754 633.5L280.254 633.5L280.254 367.75C280.254 323 326.754 297.5 412.504 297.5C498.754 297.5 544.754 323 544.754 367.75L544.754 633.5L588.254 633.5L588.254 367.75C588.254 296 522.504 254.25 412.504 254.25C302.754 254.25 236.754 296 236.754 367.75ZM412.504 519C437.004 519 473.004 521 485.254 521C504.754 521 513.754 513 515.504 492.5L519.254 448.75C522.504 411.75 500.004 396.75 412.504 396.75C325.254 396.75 302.754 411.75 305.754 448.75L309.504 492.5C311.504 513 320.504 521 340.004 521C352.254 521 390.754 519 412.504 519ZM260.754 500.75L260.754 438.5L223.254 438.5C208.254 438.5 197.004 449.25 197.004 463.25L197.004 476C197.004 490 208.254 500.75 223.254 500.75ZM564.254 500.75L601.754 500.75C617.004 500.75 628.004 490 628.004 476L628.004 463.25C628.004 449.25 617.004 438.5 601.754 438.5L564.254 438.5Z" fill="black" fill-opacity="0.85"/>
 </g>
</svg>
