<?xml version="1.0" encoding="UTF-8"?>
<!--Generator: Apple Native CoreSVG 326-->
<!DOCTYPE svg
PUBLIC "-//W3C//DTD SVG 1.1//EN"
       "http://www.w3.org/Graphics/SVG/1.1/DTD/svg11.dtd">
<svg version="1.1" xmlns="http://www.w3.org/2000/svg" xmlns:xlink="http://www.w3.org/1999/xlink" viewBox="0 0 862 740.951">
 <g>
  <rect height="740.951" opacity="0" width="862" x="0" y="0"/>
  <path d="M862 332.601L862 286.601C849.5 292.851 837 299.601 824 308.101L706 382.101L575.75 398.101C498.25 407.601 451.25 455.351 451.25 521.351L451.25 559.601C451.25 623.101 479.5 651.851 540.25 651.851L581.5 651.851L581.5 612.101L540.25 612.101C506.75 612.101 491.25 595.101 491.25 558.101L491.25 521.351C491.25 477.351 524.25 444.351 580.75 437.351L697.75 423.351C716 421.101 726.25 417.351 738 410.101L845.5 342.351C851 338.851 856.5 335.601 862 332.601ZM862 651.851L862 612.101L735.5 612.101L735.5 651.851ZM661 714.601C717 714.601 760.75 670.851 760.75 614.851C760.75 559.101 717 515.351 661 515.351C605 515.351 561.5 559.101 561.5 614.851C561.5 670.851 605 714.601 661 714.601ZM661 676.851C626.5 676.851 599 649.601 599 614.851C599 580.351 626.5 553.101 661 553.101C695.75 553.101 723.25 580.351 723.25 614.851C723.25 649.601 695.75 676.851 661 676.851ZM172 714.601C228 714.601 271.5 670.851 271.5 614.851C271.5 559.101 228 515.351 172 515.351C116 515.351 72.25 559.101 72.25 614.851C72.25 670.851 116 714.601 172 714.601ZM172 676.851C137.25 676.851 109.75 649.601 109.75 614.851C109.75 580.351 137.25 553.101 172 553.101C206.5 553.101 234 580.351 234 614.851C234 649.601 206.5 676.851 172 676.851ZM0 612.101L0 651.851L100.75 651.851L100.75 612.101ZM251 651.851L292.75 651.851C354 651.851 381.5 622.851 381.5 558.101L381.5 477.601C381.5 425.351 357 392.851 302.75 375.601L256.25 360.851C191.25 305.351 117.75 252.601 18.25 252.601L0 252.601L0 292.601L18.25 292.601C92 292.601 151 323.101 223.5 386.851C236.5 398.101 243 400.851 258.5 405.601L291 416.101C326.25 427.351 341.75 445.351 341.75 477.601L341.75 558.101C341.75 595.101 326.25 612.101 292.75 612.101L251 612.101Z" fill="black" fill-opacity="0.85"/>
  <path d="M465 18.6006L451.5 75.3506L380.75 2.85063C374.75-3.39937 366.75 1.35063 369.75 10.1006L394.75 84.3506L362 69.6006C354.25 66.1006 348.5 71.8506 354.25 79.6006L372.25 103.101L287.75 91.3506C277.75 89.8506 274.75 99.8506 283 104.601L362.75 153.101L315.25 170.601C306.5 173.851 307.75 183.601 317 184.351L370 188.101L298 236.851C290.5 242.101 293.75 252.851 303.75 250.351L395.5 229.601L396.75 307.351C396.75 315.351 405 316.101 408.5 310.601L467.25 213.351L566.75 302.601C574.5 309.351 583.5 302.351 578.75 293.101L520 183.101L580 165.351C585 163.601 585 156.601 580 154.601L527 132.851L565.25 24.6006C567.75 17.3506 560.5 11.3506 554.5 17.6006L492.5 75.8506L477.5 18.6006C475.5 10.6006 467 10.1006 465 18.6006Z" fill="black" fill-opacity="0.85"/>
 </g>
</svg>
