<?xml version="1.0" encoding="UTF-8"?>
<!--Generator: Apple Native CoreSVG 326-->
<!DOCTYPE svg
PUBLIC "-//W3C//DTD SVG 1.1//EN"
       "http://www.w3.org/Graphics/SVG/1.1/DTD/svg11.dtd">
<svg version="1.1" xmlns="http://www.w3.org/2000/svg" xmlns:xlink="http://www.w3.org/1999/xlink" viewBox="0 0 730.577 651.25">
 <g>
  <rect height="651.25" opacity="0" width="730.577" x="0" y="0"/>
  <path d="M87.9133 490.5L87.9133 632.75C87.9133 641.75 81.1633 648.5 72.1633 648.5L56.6633 648.5C47.6633 648.5 40.9133 641.75 40.9133 632.75L40.9133 490.5C40.9133 481.5 47.6633 474.75 56.6633 474.75L72.1633 474.75C81.1633 474.75 87.9133 481.5 87.9133 490.5ZM689.663 490.5L689.663 632.75C689.663 641.75 682.913 648.5 673.913 648.5L658.663 648.5C649.663 648.5 642.913 641.75 642.913 632.75L642.913 490.5C642.913 481.25 649.663 474.75 658.663 474.75L673.913 474.75C682.913 474.75 689.663 481.25 689.663 490.5ZM87.9133 253.25L87.9133 395.25C87.9133 404.25 81.1633 411 72.1633 411L56.6633 411C47.6633 411 40.9133 404.25 40.9133 395.25L40.9133 253.25C40.9133 244.25 47.6633 237.5 56.6633 237.5L72.1633 237.5C81.1633 237.5 87.9133 244.25 87.9133 253.25ZM87.9133 15.75L87.9133 158C87.9133 167 81.1633 173.75 72.1633 173.75L56.6633 173.75C47.6633 173.75 40.9133 167 40.9133 158L40.9133 15.75C40.9133 6.75 47.6633 0 56.6633 0L72.1633 0C81.1633 0 87.9133 6.75 87.9133 15.75ZM689.663 15.75L689.663 119.425C677.07 106.644 661.401 94.2633 642.913 82.4933L642.913 15.75C642.913 6.5 649.663 0 658.663 0L673.913 0C682.913 0 689.663 6.5 689.663 15.75Z" fill="black" fill-opacity="0.85"/>
  <path d="M333.163 584.25C430.163 640.25 489.163 643.75 521.663 588L717.913 247.75C751.413 189.75 717.413 125 628.163 73.5C539.413 22.25 466.413 25.25 432.913 83L236.413 423.5C204.163 479.25 236.913 528.5 333.163 584.25ZM353.163 550.25C277.913 506.75 253.163 474.75 271.663 442.5L467.663 103.25C488.913 66.75 538.413 67.5 608.163 107.75C678.663 148.5 704.663 191.25 683.413 228L487.663 567.25C468.913 599.25 428.663 594 353.163 550.25ZM504.413 288.25C522.163 298.75 552.663 318.75 562.663 324.75C578.413 333.5 589.663 331.75 600.913 315.5L624.413 281.75C644.163 253.25 633.163 230.5 561.663 189.25C490.413 148 464.913 149.75 450.163 181.5L432.913 218.5C424.913 236 427.913 246.75 443.913 256C454.163 262 484.663 277 504.413 288.25ZM380.413 503C449.163 542.5 476.913 544.75 490.413 511.5L498.163 492.25C508.913 465.25 493.663 446 433.413 411.25C373.163 376.25 348.913 373 331.163 395.75L318.413 412.25C296.163 440.75 312.163 463.25 380.413 503ZM390.163 201.75L418.913 152L388.913 134.5C376.663 127.5 362.913 131.25 356.413 142.25L350.163 152.5C343.663 163.75 347.913 177.75 359.663 184.5ZM636.913 344.5L666.663 361.75C678.663 368.75 692.913 365.25 699.163 354.25L705.163 343.75C711.413 332.25 707.663 318.75 695.663 311.5L665.663 294.25Z" fill="black" fill-opacity="0.85"/>
 </g>
</svg>
