<?xml version="1.0" encoding="UTF-8"?>
<!--Generator: Apple Native CoreSVG 326-->
<!DOCTYPE svg
PUBLIC "-//W3C//DTD SVG 1.1//EN"
       "http://www.w3.org/Graphics/SVG/1.1/DTD/svg11.dtd">
<svg version="1.1" xmlns="http://www.w3.org/2000/svg" xmlns:xlink="http://www.w3.org/1999/xlink" viewBox="0 0 725.375 813.25">
 <g>
  <rect height="813.25" opacity="0" width="725.375" x="0" y="0"/>
  <path d="M362.812 812.75C517.812 812.75 587.312 777.25 587.312 695L587.312 143.25C587.312 52.5 505.062 0 362.812 0C220.562 0 138.312 52.5 138.312 143.25L138.312 695C138.312 777.25 207.812 812.75 362.812 812.75ZM362.812 336C330.812 336 282.562 338.5 265.812 338.5C241.312 338.5 230.312 329 227.812 303.25L222.812 244C218.562 197 249.062 177 362.812 177C476.812 177 507.312 197 503.062 244L497.812 303.25C495.562 329 484.562 338.5 460.062 338.5C443.312 338.5 391.812 336 362.812 336ZM362.812 688C251.812 688 218.312 671.5 224.812 623.5L228.312 594C233.562 555.25 265.812 542 362.812 542C459.812 542 492.312 555.25 497.312 594L501.062 623.5C507.562 671.5 474.062 688 362.812 688ZM158.312 221.25L6.8125 371.75C-2.1875 380.5-2.1875 395.25 6.8125 404.25C15.5625 413 30.0625 413.25 39.3125 404.25L158.312 285.75ZM567.062 465.75L567.062 530.25L686.312 648.75C695.312 657.75 709.812 657.5 718.812 648.75C727.562 639.75 727.562 625 718.812 616.25Z" fill="black" fill-opacity="0.85"/>
 </g>
</svg>
