<?xml version="1.0" encoding="UTF-8"?>
<!--Generator: Apple Native CoreSVG 326-->
<!DOCTYPE svg
PUBLIC "-//W3C//DTD SVG 1.1//EN"
       "http://www.w3.org/Graphics/SVG/1.1/DTD/svg11.dtd">
<svg version="1.1" xmlns="http://www.w3.org/2000/svg" xmlns:xlink="http://www.w3.org/1999/xlink" viewBox="0 0 1057.75 868.313">
 <g>
  <rect height="868.313" opacity="0" width="1057.75" x="0" y="0"/>
  <path d="M320.25 634.781C320.25 685.031 280.75 724.531 230.25 724.531C180 724.531 140.5 685.031 140.5 634.781C140.5 584.531 180 545.031 230.25 545.031C280.75 545.031 320.25 584.531 320.25 634.781ZM917.25 634.781C917.25 664.556 903.469 690.557 881.667 706.721L755.545 580.643C771.666 558.867 797.613 545.031 827.5 545.031C878 545.031 917.25 584.531 917.25 634.781ZM678.367 662.281L349.5 662.281C351.5 653.281 352.5 644.281 352.5 634.781C352.5 566.531 298.75 512.781 230.25 512.781C161.75 512.781 108 566.531 108 634.781C108 644.281 109.25 653.281 111 662.281L91.5 662.281C29.25 662.281 0 632.531 0 567.031L0 527.781C0 459.531 48.5 410.281 128.25 400.531L263 383.781L346.95 331.097ZM928.5 361.281L976.5 377.281C1032.25 395.781 1057.75 428.531 1057.75 482.531L1057.75 565.781C1057.75 632.031 1029 662.281 966.25 662.281L946.5 662.281C948.5 653.281 949.75 644.281 949.75 634.781C949.75 566.531 896 512.781 827.5 512.781C788.671 512.781 754.581 530.053 732.362 557.469L448.989 274.195C496.066 255.831 546.678 250.031 629.25 250.031L672.5 250.031C784.75 250.031 864 307.781 928.5 361.281Z" fill="black" fill-opacity="0.85"/>
  <path d="M847.5 124.281L847.5 157.031C847.5 182.281 834.5 198.281 809.75 198.281L474.5 198.281C452.75 198.281 443.25 188.281 443.25 169.781C443.25 157.281 449 145.031 468.5 136.531L542.75 103.031C613.75 72.0314 658 58.5314 713.25 58.5314L773 58.5314C825 58.5314 847.5 81.0314 847.5 124.281Z" fill="black" fill-opacity="0.85"/>
  <path d="M892.75 827.281C901 835.531 914.75 835.531 922.75 827.281C931.25 818.531 931.25 805.531 922.75 797.031L210 84.5314C201.5 76.0314 188.25 76.0314 179.5 84.5314C171.5 92.5314 171.25 106.281 179.5 114.531Z" fill="black" fill-opacity="0.85"/>
 </g>
</svg>
