<?xml version="1.0" encoding="UTF-8"?>
<!--Generator: Apple Native CoreSVG 326-->
<!DOCTYPE svg
PUBLIC "-//W3C//DTD SVG 1.1//EN"
       "http://www.w3.org/Graphics/SVG/1.1/DTD/svg11.dtd">
<svg version="1.1" xmlns="http://www.w3.org/2000/svg" xmlns:xlink="http://www.w3.org/1999/xlink" viewBox="0 0 730.865 651.25">
 <g>
  <rect height="651.25" opacity="0" width="730.865" x="0" y="0"/>
  <path d="M689.557 490.5L689.557 632.75C689.557 641.75 683.057 648.5 673.807 648.5L658.557 648.5C649.557 648.5 642.807 641.75 642.807 632.75L642.807 490.5C642.807 481.5 649.557 474.75 658.557 474.75L673.807 474.75C683.057 474.75 689.557 481.5 689.557 490.5ZM87.8073 490.5L87.8073 632.75C87.8073 641.75 81.0573 648.5 72.0573 648.5L56.8073 648.5C47.8073 648.5 41.0573 641.75 41.0573 632.75L41.0573 490.5C41.0573 481.25 47.8073 474.75 56.8073 474.75L72.0573 474.75C81.0573 474.75 87.8073 481.25 87.8073 490.5ZM689.557 253.25L689.557 395.25C689.557 404.25 683.057 411 673.807 411L658.557 411C649.557 411 642.807 404.25 642.807 395.25L642.807 253.25C642.807 244.25 649.557 237.5 658.557 237.5L673.807 237.5C683.057 237.5 689.557 244.25 689.557 253.25ZM689.557 15.75L689.557 158C689.557 167 683.057 173.75 673.807 173.75L658.557 173.75C649.557 173.75 642.807 167 642.807 158L642.807 15.75C642.807 6.75 649.557 0 658.557 0L673.807 0C683.057 0 689.557 6.75 689.557 15.75ZM87.8073 15.75L87.8073 82.3424C86.4943 83.1301 85.2523 83.9335 84.1046 84.7562C80.1508 87.3112 76.3636 89.9011 72.7395 92.522C71.8557 93.1079 71.0313 93.7055 70.2681 94.3142C66.5217 97.029 62.9517 99.7767 59.5653 102.555C58.6379 103.238 57.7874 103.933 56.999 104.639C54.139 107.008 51.3985 109.397 48.803 111.807C45.9729 114.241 43.3746 116.711 41.0573 119.216L41.0573 15.75C41.0573 6.5 47.8073 0 56.8073 0L72.0573 0C81.0573 0 87.8073 6.5 87.8073 15.75Z" fill="black" fill-opacity="0.85"/>
  <path d="M397.307 584.25C493.807 528.5 526.557 479.25 494.057 423.5L297.807 83C264.307 25.25 191.307 22.25 102.307 73.5C13.0573 125-20.6927 189.75 12.5573 247.75L209.057 588C241.557 643.75 300.557 640.25 397.307 584.25ZM377.557 550.25C302.057 594 261.807 599.25 243.057 567.25L47.0573 228C26.0573 191.25 52.0573 148.5 122.307 107.75C192.307 67.5 241.807 66.75 263.057 103.25L459.057 442.5C477.557 474.75 452.807 506.75 377.557 550.25ZM226.307 288.25C246.057 277 276.557 262 286.557 256C302.557 246.75 305.807 236 297.807 218.5L280.557 181.5C265.807 149.75 240.307 148 169.057 189.25C97.5573 230.5 86.5573 253.25 106.307 281.75L129.807 315.5C140.807 331.75 152.307 333.5 168.057 324.75C177.807 318.75 208.557 298.75 226.307 288.25ZM350.307 503C418.307 463.25 434.557 440.75 412.057 412.25L399.557 395.75C381.807 373 357.307 376.25 297.307 411.25C237.057 446 221.807 465.25 232.557 492.25L240.307 511.5C253.807 544.75 281.557 542.5 350.307 503ZM340.557 201.75L370.807 184.5C382.807 177.75 387.057 163.75 380.307 152.5L374.307 142.25C367.807 131.25 354.057 127.5 341.807 134.5L311.807 152ZM93.8073 344.5L65.0573 294.25L35.0573 311.5C22.8073 318.75 19.3073 332.25 25.5573 343.75L31.5573 354.25C37.8073 365.25 52.0573 368.75 63.8073 361.75Z" fill="black" fill-opacity="0.85"/>
 </g>
</svg>
