<?xml version="1.0" encoding="UTF-8"?>
<!--Generator: Apple Native CoreSVG 326-->
<!DOCTYPE svg
PUBLIC "-//W3C//DTD SVG 1.1//EN"
       "http://www.w3.org/Graphics/SVG/1.1/DTD/svg11.dtd">
<svg version="1.1" xmlns="http://www.w3.org/2000/svg" xmlns:xlink="http://www.w3.org/1999/xlink" viewBox="0 0 1057.75 751.25">
 <g>
  <rect height="751.25" opacity="0" width="1057.75" x="0" y="0"/>
  <path d="M91.5 603.75L111 603.75C109.25 594.75 108 585.75 108 576.25C108 508 161.75 454.25 230.25 454.25C298.75 454.25 352.5 508 352.5 576.25C352.5 585.75 351.5 594.75 349.5 603.75L708.25 603.75C706.5 594.75 705.25 585.75 705.25 576.25C705.25 508 759 454.25 827.5 454.25C896 454.25 949.75 508 949.75 576.25C949.75 585.75 948.5 594.75 946.5 603.75L966.25 603.75C1029 603.75 1057.75 573.5 1057.75 507.25L1057.75 424C1057.75 370 1032.25 337.25 976.5 318.75L928.5 302.75C864 249.25 784.75 191.5 672.5 191.5L629.25 191.5C509.25 191.5 456.75 203.75 384.5 249L263 325.25L128.25 342C48.5 351.75 0 401 0 469.25L0 508.5C0 574 29.25 603.75 91.5 603.75ZM230.25 666C280.75 666 320.25 626.5 320.25 576.25C320.25 526 280.75 486.5 230.25 486.5C180 486.5 140.5 526 140.5 576.25C140.5 626.5 180 666 230.25 666ZM827.5 666C878 666 917.25 626.5 917.25 576.25C917.25 526 878 486.5 827.5 486.5C777 486.5 737.75 526 737.75 576.25C737.75 626.5 777 666 827.5 666Z" fill="black" fill-opacity="0.85"/>
  <path d="M474.5 139.75L809.75 139.75C834.5 139.75 847.5 123.75 847.5 98.5L847.5 65.75C847.5 22.5 825 0 773 0L713.25 0C658 0 613.75 13.5 542.75 44.5L468.5 78C449 86.5 443.25 98.75 443.25 111.25C443.25 129.75 452.75 139.75 474.5 139.75Z" fill="black" fill-opacity="0.85"/>
 </g>
</svg>
