<?xml version="1.0" encoding="UTF-8"?>
<!--Generator: Apple Native CoreSVG 326-->
<!DOCTYPE svg
PUBLIC "-//W3C//DTD SVG 1.1//EN"
       "http://www.w3.org/Graphics/SVG/1.1/DTD/svg11.dtd">
<svg version="1.1" xmlns="http://www.w3.org/2000/svg" xmlns:xlink="http://www.w3.org/1999/xlink" viewBox="0 0 894 813.25">
 <g>
  <rect height="813.25" opacity="0" width="894" x="0" y="0"/>
  <path d="M447 812.75C602 812.75 671.5 777.25 671.5 695L671.5 143.25C671.5 52.5 589.25 0 447 0C304.75 0 222.5 52.5 222.5 143.25L222.5 695C222.5 777.25 292 812.75 447 812.75ZM447 767.25C324.25 767.25 268.25 744.5 268.25 693L268.25 143.25C268.25 81.5 333.5 45.75 447 45.75C560.25 45.75 625.75 81.5 625.75 143.25L625.75 693C625.75 744.5 569.75 767.25 447 767.25ZM447 338.5C475.25 338.5 525.75 340.75 541.75 340.75C566 340.75 576.75 331.5 578.75 306.25L584 248.5C587.75 202.75 558.25 183.25 447 183.25C335.75 183.25 306.25 202.75 310.25 248.5L315.25 306.25C317.5 331.5 328.25 340.75 352.25 340.75C368.5 340.75 415.75 338.5 447 338.5ZM447 681.5C555.5 681.5 588 665.75 582 619L578.25 590C573.5 552.25 541.75 539.5 447 539.5C352.25 539.5 320.75 552.25 316 590L312.25 619C306 665.75 338.75 681.5 447 681.5ZM242 312L242 241.75L198 241.75C181.75 241.75 169.5 253.25 169.5 268.75L169.5 285C169.5 300.25 181.75 312 198 312ZM652.25 312L696 312C712.25 312 724.5 300.25 724.5 285L724.5 268.75C724.5 253.25 712.25 241.75 696 241.75L652.25 241.75Z" fill="black" fill-opacity="0.85"/>
  <path d="M894 245.75L894 101.75C894 86 881 79 867.5 87.25L752.5 157.75C739.5 165.75 739.25 181.75 752.5 189.75L867.5 259.75C881 268 894 261.75 894 245.75Z" fill="black" fill-opacity="0.85"/>
 </g>
</svg>
