<?xml version="1.0" encoding="UTF-8"?>
<!--Generator: Apple Native CoreSVG 326-->
<!DOCTYPE svg
PUBLIC "-//W3C//DTD SVG 1.1//EN"
       "http://www.w3.org/Graphics/SVG/1.1/DTD/svg11.dtd">
<svg version="1.1" xmlns="http://www.w3.org/2000/svg" xmlns:xlink="http://www.w3.org/1999/xlink" viewBox="0 0 1057.75 751.25">
 <g>
  <rect height="751.25" opacity="0" width="1057.75" x="0" y="0"/>
  <path d="M91.5 603.75L134.25 603.75L134.25 562.5L91.5 562.5C57.25 562.5 41.25 545 41.25 507.25L41.25 469.25C41.25 423.5 75.25 389.5 133.5 382.5L254.25 367.75C273 365.5 283.5 361.75 295.75 354.25L406.75 284.5C472.75 243 517.25 232.75 629.25 232.75L672.5 232.75C753.75 232.75 816.75 262 894.75 330.25C908 342 915 344.75 930.75 349.75L964.25 360.5C1000.5 372.25 1016.5 390.5 1016.5 424L1016.5 507.25C1016.5 545 1000.5 562.5 966.25 562.5L922.75 562.5L922.75 603.75L966.25 603.75C1029 603.75 1057.75 573.5 1057.75 507.25L1057.75 424C1057.75 370 1032.25 337.25 976.5 318.75L928.5 302.75C864 247.75 784.75 191.5 672.5 191.5L629.25 191.5C509.25 191.5 456.75 203.75 384.5 249L263 325.25L128.25 342C48.5 351.75 0 401 0 469.25L0 508.5C0 574 29.25 603.75 91.5 603.75ZM292.75 603.75L768.25 603.75L768.25 562.5L292.75 562.5ZM216.25 668.25C274 668.25 319 623.25 319 565.5C319 508 274 462.75 216.25 462.75C158.5 462.75 113.5 508 113.5 565.5C113.5 623.25 158.5 668.25 216.25 668.25ZM216.25 629.5C180.5 629.5 152.5 601.25 152.5 565.5C152.5 530 180.5 501.75 216.25 501.75C252 501.75 280.25 530 280.25 565.5C280.25 601.25 252 629.5 216.25 629.5ZM841.5 668.25C899.25 668.25 944.25 623.25 944.25 565.5C944.25 508 899.25 462.75 841.5 462.75C783.75 462.75 738.75 508 738.75 565.5C738.75 623.25 783.75 668.25 841.5 668.25ZM841.5 629.5C805.75 629.5 777.75 601.25 777.75 565.5C777.75 530 805.75 501.75 841.5 501.75C877.25 501.75 905.5 530 905.5 565.5C905.5 601.25 877.25 629.5 841.5 629.5Z" fill="black" fill-opacity="0.85"/>
  <path d="M474.5 139.75L809.75 139.75C834.5 139.75 847.5 123.75 847.5 98.5L847.5 65.75C847.5 22.5 825 0 773 0L713.25 0C658 0 613.75 13.5 542.75 44.5L468.5 78C449 86.5 443.25 98.75 443.25 111.25C443.25 129.75 452.75 139.75 474.5 139.75Z" fill="black" fill-opacity="0.85"/>
 </g>
</svg>
