<?xml version="1.0" encoding="UTF-8"?>
<!--Generator: Apple Native CoreSVG 326-->
<!DOCTYPE svg
PUBLIC "-//W3C//DTD SVG 1.1//EN"
       "http://www.w3.org/Graphics/SVG/1.1/DTD/svg11.dtd">
<svg version="1.1" xmlns="http://www.w3.org/2000/svg" xmlns:xlink="http://www.w3.org/1999/xlink" viewBox="0 0 1136.25 937.75">
 <g>
  <rect height="937.75" opacity="0" width="1136.25" x="0" y="0"/>
  <path d="M997.25 332L1048.75 349.25C1108.75 369 1136.25 404.25 1136.25 462.25L1136.25 551.5C1136.25 622.75 1105.25 655.5 1037.75 655.5L1006.49 655.5C990.548 696.492 951.134 724.75 904 724.75C856.675 724.75 817.216 696.492 801.267 655.5L334.983 655.5C319.034 696.492 279.575 724.75 232.25 724.75C184.925 724.75 145.611 696.492 129.732 655.5L98.25 655.5C31.5 655.5 0 623.25 0 553L0 511C0 437.5 52 384.75 137.75 374L282.25 356.25L413 274.5C431.435 262.904 448.683 253.316 466 245.493L466 279.25C466 284.623 466.357 289.784 467.126 294.67C457.319 299.781 447.291 305.643 436.75 312.25L317.5 387.25C304.5 395.25 293 399.5 273.25 402L143.5 417.75C80.75 425.25 44.25 461.75 44.25 511L44.25 551.5C44.25 592.25 61.5 611 98.25 611L122.158 611C123.715 550.554 171.349 504 232.25 504C293.151 504 341.026 550.554 342.591 611L793.659 611C795.224 550.554 843.099 504 904 504C964.655 504 1012.53 550.554 1014.09 611L1037.75 611C1074.75 611 1092 592.25 1092 551.5L1092 462.25C1092 426.25 1074.75 406.75 1035.75 394L999.75 382.5C982.75 377 975.25 374 961.25 361.75C893.528 302.493 836.531 270.698 771.25 260.636L771.25 216.035C866.613 229.499 937.746 281.303 997.25 332ZM163.75 614.25C163.75 652.75 194 683 232.25 683C270.75 683 301 652.75 301 614.25C301 576 270.75 545.75 232.25 545.75C194 545.75 163.75 576 163.75 614.25ZM835.25 614.25C835.25 652.75 865.5 683 904 683C942.25 683 972.5 652.75 972.5 614.25C972.5 576 942.25 545.75 904 545.75C865.5 545.75 835.25 576 835.25 614.25Z" fill="black" fill-opacity="0.85"/>
  <path d="M545.5 322.75L691.75 322.75C718 322.75 731.5 309 731.5 281L731.5 165.75C731.5 137.5 718 124 691.75 124L545.5 124C519.25 124 505.75 137.5 505.75 165.75L505.75 281C505.75 309 519.25 322.75 545.5 322.75ZM665.5 148.75L696.75 148.75L696.75 87C696.75 52.75 717.5 31 749.5 31C781.75 31 802.25 52.75 802.25 87L802.25 122.75C802.25 131.5 809.25 138.5 817.75 138.5C826.25 138.5 833.25 131.5 833.25 122.75L833.25 91.25C833.25 35.5 800.5 0 749.5 0C698.75 0 665.5 35.5 665.5 91.25Z" fill="black" fill-opacity="0.85"/>
 </g>
</svg>
