<?xml version="1.0" encoding="UTF-8"?>
<!--Generator: Apple Native CoreSVG 326-->
<!DOCTYPE svg
PUBLIC "-//W3C//DTD SVG 1.1//EN"
       "http://www.w3.org/Graphics/SVG/1.1/DTD/svg11.dtd">
<svg version="1.1" xmlns="http://www.w3.org/2000/svg" xmlns:xlink="http://www.w3.org/1999/xlink" viewBox="0 0 1057.75 868.313">
 <g>
  <rect height="868.313" opacity="0" width="1057.75" x="0" y="0"/>
  <path d="M377.369 361.494L295.75 412.781C283.5 420.281 273 424.031 254.25 426.281L133.5 441.031C75.25 448.031 41.25 482.031 41.25 527.781L41.25 565.781C41.25 603.531 57.25 621.031 91.5 621.031L113.647 621.031C115.092 564.949 159.519 521.281 216.25 521.281C272.981 521.281 317.408 564.949 318.853 621.031L637.088 621.031L678.367 662.281L311.843 662.281C297.076 700.496 260.387 726.781 216.25 726.781C172.113 726.781 135.424 700.496 120.657 662.281L91.5 662.281C29.25 662.281 0 632.531 0 567.031L0 527.781C0 459.531 48.5 410.281 128.25 400.531L263 383.781L346.95 331.097ZM928.5 361.281L976.5 377.281C1032.25 395.781 1057.75 428.531 1057.75 482.531L1057.75 565.781C1057.75 632.031 1029 662.281 966.25 662.281L937.093 662.281C928.269 685.215 911.511 703.832 889.978 715.029L860.239 685.301C886.644 677.44 905.5 653.239 905.5 624.031C905.5 588.531 877.25 560.281 841.5 560.281C812.251 560.281 788.19 579.191 780.43 605.52L750.522 575.622C767.507 543.06 801.435 521.281 841.5 521.281C898.231 521.281 942.658 564.949 944.103 621.031L966.25 621.031C1000.5 621.031 1016.5 603.531 1016.5 565.781L1016.5 482.531C1016.5 449.031 1000.5 430.781 964.25 419.031L930.75 408.281C915 403.281 908 400.531 894.75 388.781C816.75 320.531 753.75 291.281 672.5 291.281L629.25 291.281C562.226 291.281 519.375 294.952 481.664 306.859L448.989 274.195C496.066 255.831 546.678 250.031 629.25 250.031L672.5 250.031C784.75 250.031 864 306.281 928.5 361.281ZM152.5 624.031C152.5 659.781 180.5 688.031 216.25 688.031C252 688.031 280.25 659.781 280.25 624.031C280.25 588.531 252 560.281 216.25 560.281C180.5 560.281 152.5 588.531 152.5 624.031Z" fill="black" fill-opacity="0.85"/>
  <path d="M847.5 124.281L847.5 157.031C847.5 182.281 834.5 198.281 809.75 198.281L474.5 198.281C452.75 198.281 443.25 188.281 443.25 169.781C443.25 157.281 449 145.031 468.5 136.531L542.75 103.031C613.75 72.0314 658 58.5314 713.25 58.5314L773 58.5314C825 58.5314 847.5 81.0314 847.5 124.281Z" fill="black" fill-opacity="0.85"/>
  <path d="M892.75 827.281C901 835.531 914.75 835.531 922.75 827.281C931.25 818.531 931.25 805.531 922.75 797.031L210 84.5314C201.5 76.0314 188.25 76.0314 179.5 84.5314C171.5 92.5314 171.25 106.281 179.5 114.531Z" fill="black" fill-opacity="0.85"/>
 </g>
</svg>
