<?xml version="1.0" encoding="UTF-8"?>
<!--Generator: Apple Native CoreSVG 326-->
<!DOCTYPE svg
PUBLIC "-//W3C//DTD SVG 1.1//EN"
       "http://www.w3.org/Graphics/SVG/1.1/DTD/svg11.dtd">
<svg version="1.1" xmlns="http://www.w3.org/2000/svg" xmlns:xlink="http://www.w3.org/1999/xlink" viewBox="0 0 673 616.25">
 <g>
  <rect height="616.25" opacity="0" width="673" x="0" y="0"/>
  <path d="M83.5 611L589.25 611C641.5 611 673 574.5 673 528.25C673 513.25 668.75 497.75 660.5 483.5L407.75 41.5C392 13.75 364.25 0 336.5 0C308.5 0 281 13.75 265.25 41.5L12.5 483.5C4 498 0 513.25 0 528.25C0 574.5 31.5 611 83.5 611ZM84 567.75C59.25 567.75 44.5 549 44.5 528C44.5 520.5 46.5 512 50.75 504L303 62.5C310.5 49.25 323.75 44 336.5 44C349.25 44 362.25 49.25 369.5 62.5L622 504.25C626.25 512.25 628.25 520.5 628.25 528C628.25 549 613.25 567.75 588.5 567.75Z" fill="black" fill-opacity="0.85"/>
  <path d="M167.25 502.75C167.25 513.25 175.25 521.25 186.25 521.25L202.75 521.25C213.25 521.25 221.5 513.25 221.5 502.75L221.5 483L449.5 483L449.5 502.75C449.5 513.25 457.75 521.25 468.25 521.25L484.75 521.25C495.75 521.25 503.5 513.25 503.5 502.75L503.5 410.25C503.5 385.5 499.75 371.5 485.5 356L471.75 340L456.25 295.75C448 272.5 432.5 262.5 413 260.5C403.25 259 371.25 258.5 335.5 258.5C299.5 258.5 267.5 259 258 260.5C238.5 262.5 222.75 272.5 214.75 295.75L199.25 340L185.25 356C171 371.5 167.25 385.5 167.25 410.25ZM236.25 338.5C229.75 338.5 227.75 333.75 229.75 327.25L238.5 301C242.25 289.75 248.25 285.75 258.25 284.25C268.5 283.25 294.5 282 335.5 282C376.5 282 402.25 283.25 412.5 284.25C422.5 285.75 428.25 290 432.25 301L441.25 327.25C443.25 333.75 441 338.5 434.5 338.5ZM217.5 428.75C209 428.75 202.75 423 202.75 414.25L202.75 391.5C202.75 383.25 209 377.5 217.5 377.5C225.5 377.5 231.75 383 231.75 391.5L231.75 414.25C231.75 423 225.5 428.75 217.5 428.75ZM302.25 422.5C295.5 422.5 291.5 418.25 291.5 410.75L291.5 395C291.5 388 295.5 383.75 302.25 383.75L367.75 383.75C374.5 383.75 378.75 388 378.75 395L378.75 410.75C378.75 418.25 374.5 422.5 367.75 422.5ZM454.5 428.75C446.5 428.75 440.25 423 440.25 414.25L440.25 391.5C440.25 383.5 446.5 377.5 454.5 377.5C462.75 377.5 469 383 469 391.5L469 414.25C469 423 462.75 428.75 454.5 428.75Z" fill="black" fill-opacity="0.85"/>
 </g>
</svg>
