<?xml version="1.0" encoding="UTF-8"?>
<!--Generator: Apple Native CoreSVG 326-->
<!DOCTYPE svg
PUBLIC "-//W3C//DTD SVG 1.1//EN"
       "http://www.w3.org/Graphics/SVG/1.1/DTD/svg11.dtd">
<svg version="1.1" xmlns="http://www.w3.org/2000/svg" xmlns:xlink="http://www.w3.org/1999/xlink" viewBox="0 0 913.2 759.313">
 <g>
  <rect height="759.313" opacity="0" width="913.2" x="0" y="0"/>
  <path d="M225.225 273.781L92.2248 605.031C87.2248 617.531 78.9748 625.281 62.2248 625.281L22.4748 625.281C0.974768 625.281-4.27523 609.031 3.22477 594.281L165.475 269.531C169.975 261.281 175.725 257.031 184.975 257.031L215.225 257.031C224.725 257.031 228.975 264.531 225.225 273.781ZM747.475 269.531L909.975 594.281C917.475 609.031 911.975 625.281 890.725 625.281L850.975 625.281C834.225 625.281 825.725 617.531 820.975 605.031L687.975 273.781C684.225 264.531 688.475 257.031 697.975 257.031L727.975 257.031C737.475 257.031 743.475 261.281 747.475 269.531Z" fill="black" fill-opacity="0.85"/>
  <path d="M335.359 338.478C334.336 348.621 326.229 356.031 315.725 356.031L297.975 356.031C286.975 356.031 278.225 347.281 278.225 336.281L278.225 281.388ZM538.475 79.2814C559.225 81.7814 575.475 92.0314 584.225 117.031L600.475 163.531L615.475 180.281C630.225 197.031 634.475 211.781 634.475 237.781L634.475 336.281C634.475 347.531 625.725 356.031 614.475 356.031L596.975 356.031C585.725 356.031 576.975 347.531 576.975 336.281L576.975 315.531L471.59 315.531L314.116 158.118L328.475 117.031C337.225 92.0314 353.475 81.7814 374.225 79.2814C384.475 78.0314 418.225 77.0314 456.225 77.0314C494.475 77.0314 528.225 78.0314 538.475 79.2814ZM566.975 218.031L566.975 242.281C566.975 251.031 573.725 257.531 582.225 257.531C591.225 257.531 597.725 251.281 597.725 242.281L597.725 218.031C597.725 209.281 591.225 203.031 582.225 203.031C573.725 203.031 566.975 209.531 566.975 218.031ZM421.225 210.031C414.225 210.031 409.725 214.531 409.725 221.781L409.725 238.531C409.725 246.031 414.225 250.781 421.225 250.781L490.475 250.781C497.475 250.781 502.225 246.031 502.225 238.531L502.225 221.781C502.225 214.531 497.475 210.031 490.475 210.031ZM374.475 105.031C363.975 106.281 357.725 110.531 353.975 122.281L344.475 150.281C342.225 156.781 344.725 162.031 351.725 162.031L560.975 162.031C567.975 162.031 570.475 156.781 568.225 150.281L558.725 122.281C554.725 110.531 548.475 106.281 537.975 105.031C527.225 103.531 499.475 102.531 456.225 102.531C413.225 102.531 385.475 103.531 374.475 105.031Z" fill="black" fill-opacity="0.85"/>
  <path d="M400.907 403.975L472.914 475.927L484.475 487.781L484.533 487.537L593.648 596.568L559.975 606.531L625.475 729.281C630.725 739.031 620.975 747.031 612.725 739.531L501.975 639.781L435.975 748.281C432.225 754.531 423.975 753.531 423.725 744.781L422.725 658.281L319.975 681.531C309.225 684.031 305.975 672.281 313.725 667.031L394.975 612.031L334.975 607.781C324.975 607.031 323.475 597.031 332.725 593.531L386.725 573.531L297.225 519.281C288.475 514.281 291.725 503.781 302.225 505.281L397.225 518.531L376.725 491.781C370.475 483.531 376.475 477.281 384.975 481.031L421.725 497.531L393.475 414.281C391.171 406.987 395.648 402.493 400.907 403.975Z" fill="black" fill-opacity="0.85"/>
  <path d="M764.725 718.031C772.975 726.531 786.475 726.531 794.725 718.031C802.975 709.531 803.225 696.281 794.725 688.031L148.225 41.5314C139.975 33.2814 126.475 33.0314 117.725 41.5314C109.475 49.5314 109.475 63.5314 117.725 71.7814Z" fill="black" fill-opacity="0.85"/>
 </g>
</svg>
