<?xml version="1.0" encoding="UTF-8"?>
<!--Generator: Apple Native CoreSVG 326-->
<!DOCTYPE svg
PUBLIC "-//W3C//DTD SVG 1.1//EN"
       "http://www.w3.org/Graphics/SVG/1.1/DTD/svg11.dtd">
<svg version="1.1" xmlns="http://www.w3.org/2000/svg" xmlns:xlink="http://www.w3.org/1999/xlink" viewBox="0 0 850.484 654.25">
 <g>
  <rect height="654.25" opacity="0" width="850.484" x="0" y="0"/>
  <path d="M20.9919 443.5L57.9919 443.5C73.9919 443.5 81.7419 436 86.7419 424.25L251.992 15.75C255.492 7 251.492 0 242.492 0L224.992 0C216.242 0 210.492 4 206.492 11.75L2.99186 414.25C-4.00814 427.75 0.991861 443.5 20.9919 443.5ZM792.492 443.5L829.492 443.5C849.492 443.5 854.492 427.75 847.492 414.25L643.992 11.75C639.992 4 634.242 0 625.492 0L607.992 0C598.992 0 594.992 7 598.492 15.75L763.742 424.25C768.742 436 776.492 443.5 792.492 443.5ZM236.742 346.75C236.742 358.5 245.992 367.5 257.742 367.5L276.242 367.5C287.992 367.5 296.992 358.5 296.992 346.75L296.992 325L550.242 325L550.242 346.75C550.242 358.5 559.242 367.5 570.992 367.5L589.492 367.5C601.242 367.5 610.242 358.5 610.242 346.75L610.242 243.25C610.242 216 605.992 200.5 590.492 183L574.742 165.5L557.742 116.75C548.492 90.75 531.492 79.75 509.742 77.25C498.992 75.75 463.492 75 423.492 75C383.492 75 348.242 75.75 337.492 77.25C315.742 79.75 298.742 90.75 289.492 116.75L272.492 165.5L256.742 183C241.242 200.5 236.742 216 236.742 243.25ZM313.992 164.25C306.742 164.25 303.992 158.75 306.492 151.75L316.242 122.5C320.492 110.25 326.742 105.75 337.742 104.5C348.992 103 378.242 101.75 423.492 101.75C468.742 101.75 497.992 103 509.492 104.5C520.242 105.75 526.742 110.25 530.742 122.5L540.742 151.75C543.242 158.75 540.492 164.25 532.992 164.25ZM292.742 264C283.242 264 276.492 257.25 276.492 248L276.492 222.75C276.492 213.5 283.242 206.75 292.742 206.75C301.992 206.75 308.992 213.5 308.992 222.75L308.992 248C308.992 257.5 301.992 264 292.742 264ZM386.992 257C379.492 257 374.742 252 374.742 244L374.742 226.75C374.742 218.75 379.492 214.25 386.992 214.25L459.242 214.25C466.742 214.25 471.742 218.75 471.742 226.75L471.742 244C471.742 252 466.742 257 459.242 257ZM555.742 264C546.492 264 539.492 257.25 539.492 248L539.492 222.75C539.492 213.5 546.492 206.75 555.742 206.75C564.992 206.75 571.992 213.5 571.992 222.75L571.992 248C571.992 257.5 564.992 264 555.742 264Z" fill="black" fill-opacity="0.85"/>
  <path d="M278.992 654.25C332.242 654.25 357.992 614.5 357.992 562.5C357.992 510 331.992 470.25 278.992 470.25C227.742 470.25 199.992 509 199.992 562.5C199.992 613.75 225.492 654.25 278.992 654.25ZM278.992 624C247.992 624 236.742 592.5 236.742 562.5C236.742 530.5 248.992 500.5 278.992 500.5C310.742 500.5 321.492 532.5 321.492 562.5C321.492 595.25 308.742 624 278.992 624ZM406.492 652.25C419.242 652.25 424.492 644 424.492 633.75L424.492 580.25L478.992 580.25C488.242 580.25 494.242 575 494.242 565.75C494.242 556.75 488.492 551.25 478.992 551.25L424.492 551.25L424.492 504.5L484.492 504.5C494.742 504.5 500.492 499 500.492 489.5C500.492 480 494.742 474.25 484.492 474.25L406.242 474.25C395.742 474.25 388.492 481.25 388.492 493L388.492 633.75C388.492 643.75 393.992 652.25 406.492 652.25ZM545.242 652.25C557.742 652.25 563.242 644 563.242 633.75L563.242 580.25L617.492 580.25C626.742 580.25 632.992 575 632.992 565.75C632.992 556.75 626.992 551.25 617.492 551.25L563.242 551.25L563.242 504.5L622.992 504.5C633.242 504.5 638.992 499 638.992 489.5C638.992 480 633.242 474.25 622.992 474.25L544.992 474.25C534.242 474.25 527.242 481.25 527.242 493L527.242 633.75C527.242 643.75 532.492 652.25 545.242 652.25Z" fill="black" fill-opacity="0.85"/>
 </g>
</svg>
