<?xml version="1.0" encoding="UTF-8"?>
<!--Generator: Apple Native CoreSVG 326-->
<!DOCTYPE svg
PUBLIC "-//W3C//DTD SVG 1.1//EN"
       "http://www.w3.org/Graphics/SVG/1.1/DTD/svg11.dtd">
<svg version="1.1" xmlns="http://www.w3.org/2000/svg" xmlns:xlink="http://www.w3.org/1999/xlink" viewBox="0 0 561 813.25">
 <g>
  <rect height="813.25" opacity="0" width="561" x="0" y="0"/>
  <path d="M23.25 657.5C37 657.5 46 648.5 46 634.25L46 358.25C46 344 37 335.25 23.25 335.25C9.25 335.25 0 344 0 358.25L0 634.5C0 648.5 9.25 657.5 23.25 657.5ZM23.25 434L130 434L130 397.25L23.25 397.25ZM336.5 812.75C491.5 812.75 561 777.25 561 695L561 143.25C561 52.5 478.75 0 336.5 0C194.25 0 112 52.5 112 143.25L112 695C112 777.25 181.5 812.75 336.5 812.75ZM336.5 336C304.5 336 256.25 338.5 239.5 338.5C215 338.5 204 329 201.5 303.25L196.5 244C192.25 197 222.75 177 336.5 177C450.5 177 481 197 476.75 244L471.5 303.25C469.25 329 458.25 338.5 433.75 338.5C417 338.5 365.5 336 336.5 336ZM336.5 688C225.5 688 192 671.5 198.5 623.5L202.25 594C207.25 555.25 239.75 542 336.5 542C433.5 542 466 555.25 471 594L474.75 623.5C481.25 671.5 447.75 688 336.5 688Z" fill="black" fill-opacity="0.85"/>
 </g>
</svg>
