<?xml version="1.0" encoding="UTF-8"?>
<!--Generator: Apple Native CoreSVG 326-->
<!DOCTYPE svg
PUBLIC "-//W3C//DTD SVG 1.1//EN"
       "http://www.w3.org/Graphics/SVG/1.1/DTD/svg11.dtd">
<svg version="1.1" xmlns="http://www.w3.org/2000/svg" xmlns:xlink="http://www.w3.org/1999/xlink" viewBox="0 0 606.25 512.75">
 <g>
  <rect height="512.75" opacity="0" width="606.25" x="0" y="0"/>
  <path d="M318.75 509.75C373 509.75 415.25 467.25 415.25 413.25C415.25 359.25 373 317 318.75 317C264.75 317 222.25 359.25 222.25 413.25C222.25 467.25 264.75 509.75 318.75 509.75ZM394 122L426.25 148L509.5 62C516.75 54.25 525 51.25 535 51.25L585.75 51.25C598.25 51.25 606.25 43 606.25 31.25C606.25 19.25 598.25 11.25 585.75 11.25L539.5 11.25C514.5 11.25 494 18.25 477.25 35.75ZM0 5L0 443L190.5 443C188.75 433.25 187.5 423.5 187.5 413.25C187.5 340 245.25 282.25 318.75 282.25C392.25 282.25 450 340 450 413.25C450 423.5 448.75 433.25 446.75 443L467.75 443C535.25 443 566.25 410.25 566.25 339L566.25 249.75C566.25 191.75 538.5 156.5 478.75 136.75L427.25 119.5C358 62 273 0 152.25 0L105.75 0C64 0 29.5 1.25 0 5Z" fill="black" fill-opacity="0.85"/>
 </g>
</svg>
