<?xml version="1.0" encoding="UTF-8"?>
<!--Generator: Apple Native CoreSVG 326-->
<!DOCTYPE svg
PUBLIC "-//W3C//DTD SVG 1.1//EN"
       "http://www.w3.org/Graphics/SVG/1.1/DTD/svg11.dtd">
<svg version="1.1" xmlns="http://www.w3.org/2000/svg" xmlns:xlink="http://www.w3.org/1999/xlink" viewBox="0 0 620.5 841.75">
 <g>
  <rect height="841.75" opacity="0" width="620.5" x="0" y="0"/>
  <path d="M308 45C378.5 45 442.25 70.25 490.75 114.75C501.75 124.75 514.75 127.5 524.75 118.75C535 110 535 94.5 523.5 84C466.5 30.75 390.5 0 308 0C225.25 0 149.25 30.75 92.5 84C81 94.5 81 110 91.25 118.75C101 127.5 114 124.75 125.25 114.75C173.5 70.25 237.25 45 308 45Z" fill="black" fill-opacity="0.85"/>
  <path d="M309 172.75C344 172.75 376.5 183.25 400.75 204.5C412.25 213.25 424.75 216.75 434.75 208C445 199 445.25 182.5 432.75 172.75C399.25 144.5 355.5 128 309 128C262.25 128 218.5 144.5 185 172.75C172.5 182.5 172.75 199 183 208C193 216.75 205.25 213 217 204.5C242.5 184.5 273.75 172.75 309 172.75Z" fill="black" fill-opacity="0.85"/>
  <path d="M310 691C398.5 691 514.5 686.5 563.5 680.75C599.25 676.75 620.5 657.25 620.5 622.5L620.5 574.5C620.5 529.25 610.5 504 587 474L565.5 446C555.75 399.5 538.5 350.75 529.5 331.75C515.25 301 486.75 284 452.75 279.5C435 277 377.25 275.5 310 275.5C243 275.5 185.25 277.25 167.5 279.5C133.5 283.75 105 301 90.75 331.75C81.5 350.75 64.5 399.5 54.75 446L33.25 474C9.75 504 0 529.25 0 574.5L0 622.5C0 657.25 21 676.75 56.75 680.75C105.75 686.5 221.75 691 310 691ZM310 653C221.25 653 107.75 649.25 65 644C44.5 641.25 38 633 38 614.25L38 574.5C38 539.5 42.75 523 63 497L90 462C97.25 422.75 114.5 371 124.75 348.75C133.25 330.75 148.25 320.25 171.75 317.75C188.25 315.5 241.25 313.25 310 313.25C379 313.25 433 315.5 447.75 317.75C472 320.5 487 331 495.5 348.75C506 371 523 422.75 530.25 462L557.25 497C577.5 523 582.5 539.5 582.5 574.5L582.5 614.25C582.5 633 575.75 641.75 555.25 644C512.5 649 399 653 310 653ZM119.5 439C117.5 447 120.75 451.5 130.5 450.75C173.25 447.5 222.5 445.5 310 445.5C397.75 445.5 447 447.5 489.75 450.75C499.5 451.5 502.75 447 500.75 439C494 408.75 482.25 374.75 474 360C467 348 458.5 341.75 443.25 339.75C423.75 337 380.25 335.5 310 335.5C240 335.5 196.5 337 177 339.75C161.75 341.75 153.25 348 146.25 360C138 374.75 126.25 408.75 119.5 439ZM120.75 614.25C143.5 614.25 160.25 597.25 160.25 574.5C160.25 552 143.5 535 120.75 535C98 535 81 552 81 574.5C81 597.25 98 614.25 120.75 614.25ZM240.5 605.75L379.75 605.75C396.5 605.75 408.25 594 408.25 577.25C408.25 560.5 396.5 549 379.75 549L240.5 549C223.75 549 212 560.5 212 577.25C212 594 223.75 605.75 240.5 605.75ZM499.5 614.25C522.25 614.25 539.25 597.25 539.25 574.5C539.25 552 522.25 535 499.5 535C476.75 535 460 552 460 574.5C460 597.25 476.75 614.25 499.5 614.25ZM51 760.25L82.25 760.25C101.5 760.25 116.5 745.5 116.5 726.5L116.5 666.75L17.75 653L17.75 726.5C17.75 745.25 32.25 760.25 51 760.25ZM537.5 760.25L568.75 760.25C587.75 760.25 602.25 745.25 602.25 726.5L602.25 653L503.5 666.75L503.5 726.5C503.5 745.5 518.5 760.25 537.5 760.25Z" fill="black" fill-opacity="0.85"/>
 </g>
</svg>
