<?xml version="1.0" encoding="UTF-8"?>
<!--Generator: Apple Native CoreSVG 326-->
<!DOCTYPE svg
PUBLIC "-//W3C//DTD SVG 1.1//EN"
       "http://www.w3.org/Graphics/SVG/1.1/DTD/svg11.dtd">
<svg version="1.1" xmlns="http://www.w3.org/2000/svg" xmlns:xlink="http://www.w3.org/1999/xlink" viewBox="0 0 1136.25 512.75">
 <g>
  <rect height="512.75" opacity="0" width="1136.25" x="0" y="0"/>
  <path d="M20.75 41.75L124.75 41.75C138 41.75 146.75 44.75 154.75 52.75L268 166L306 145L187.25 26.25C170.25 9 148.25 1.75 120.25 1.75L20.75 1.75C8 1.75 0 9.75 0 21.5C0 33.5 8 41.75 20.75 41.75ZM98.25 443L119.25 443C117.25 433.25 116 423.5 116 413.25C116 340 173.75 282.25 247.5 282.25C321 282.25 378.75 340 378.75 413.25C378.75 423.5 377.5 433.25 375.25 443L760.75 443C758.75 433.25 757.5 423.5 757.5 413.25C757.5 340 815.25 282.25 888.75 282.25C962.25 282.25 1020.25 340 1020.25 413.25C1020.25 423.5 1019 433.25 1016.75 443L1037.75 443C1105.25 443 1136.25 410.25 1136.25 339L1136.25 249.75C1136.25 191.75 1108.75 156.5 1048.75 136.75L997.25 119.5C928 62 843 0 722.5 0L676 0C547 0 490.5 13.25 413 62L282.25 143.75L137.75 161.5C52 172.25 0 225 0 298.5L0 340.5C0 410.75 31.5 443 98.25 443ZM247.5 509.75C301.5 509.75 343.75 467.25 343.75 413.25C343.75 359.25 301.5 317 247.5 317C193.25 317 151 359.25 151 413.25C151 467.25 193.25 509.75 247.5 509.75ZM888.75 509.75C943 509.75 985.25 467.25 985.25 413.25C985.25 359.25 943 317 888.75 317C834.75 317 792.25 359.25 792.25 413.25C792.25 467.25 834.75 509.75 888.75 509.75Z" fill="black" fill-opacity="0.85"/>
 </g>
</svg>
