<?xml version="1.0" encoding="UTF-8"?>
<!--Generator: Apple Native CoreSVG 326-->
<!DOCTYPE svg
PUBLIC "-//W3C//DTD SVG 1.1//EN"
       "http://www.w3.org/Graphics/SVG/1.1/DTD/svg11.dtd">
<svg version="1.1" xmlns="http://www.w3.org/2000/svg" xmlns:xlink="http://www.w3.org/1999/xlink" viewBox="0 0 710.13 673.25">
 <g>
  <rect height="673.25" opacity="0" width="710.13" x="0" y="0"/>
  <path d="M705.065 539.5C730.065 446.75 662.815 406.75 496.815 406.75C413.065 406.75 327.565 414.75 260.565 428.75L270.815 442.5C287.815 299.25 242.565 177.75 148.315 128.5L156.315 162C189.315 60 126.565 0 68.3152 0C24.3152 0-13.6848 33.75 4.81524 108.5L125.815 600.5C137.315 647.25 168.815 673 214.815 673L583.315 673C647.315 673 678.065 641.75 705.065 539.5Z" fill="black" fill-opacity="0.85"/>
  <path d="M367.815 214.75C367.815 261.5 410.065 308.5 450.565 308.5C486.565 308.5 505.565 277 525.065 219L534.565 217.5L534.565 281C534.565 307.25 548.065 320.5 573.565 320.5C620.065 320.5 667.065 278.5 667.065 237.75C667.065 201.5 635.565 183 577.315 163.25L576.065 153.75L639.565 153.75C665.815 153.75 679.065 140.25 679.065 115C679.065 68 637.065 21 596.315 21C560.065 21 541.315 52.75 521.815 111.25L512.315 112.25L512.315 48.75C512.315 22.75 499.065 9 473.565 9C426.565 9 379.565 51.25 379.565 92C379.565 128 411.565 146.75 469.815 166.25L470.565 176L407.565 176C381.315 176 367.815 189.5 367.815 214.75ZM523.315 197.25C505.565 197.25 490.815 182.75 490.815 164.75C490.815 147 505.565 132.5 523.315 132.5C541.315 132.5 555.815 147 555.815 164.75C555.815 182.75 541.315 197.25 523.315 197.25Z" fill="black" fill-opacity="0.85"/>
 </g>
</svg>
