<?xml version="1.0" encoding="UTF-8"?>
<!--Generator: Apple Native CoreSVG 326-->
<!DOCTYPE svg
PUBLIC "-//W3C//DTD SVG 1.1//EN"
       "http://www.w3.org/Graphics/SVG/1.1/DTD/svg11.dtd">
<svg version="1.1" xmlns="http://www.w3.org/2000/svg" xmlns:xlink="http://www.w3.org/1999/xlink" viewBox="0 0 710.087 918.25">
 <g>
  <rect height="918.25" opacity="0" width="710.087" x="0" y="0"/>
  <path d="M5.04337 539.75C32.0434 642 62.7934 673 126.793 673L495.543 673C541.543 673 572.793 647.5 584.293 600.75L705.293 108.75C723.793 34 685.793 0 641.793 0C583.543 0 520.793 60.25 553.793 162.25L561.793 128.75C467.543 178 422.543 299.5 439.293 442.75L449.543 428.75C382.543 415 297.043 407 213.543 407C47.2934 407-19.7066 447 5.04337 539.75Z" fill="black" fill-opacity="0.85"/>
  <path d="M394.293 895.5C394.293 911.5 407.543 918 421.043 909.75L535.793 839.75C549.293 831.5 548.793 815.75 535.793 807.75L420.793 737.25C407.293 729 394.293 735.75 394.293 751.5Z" fill="black" fill-opacity="0.85"/>
  <path d="M224.793 895.5L224.793 751.5C224.793 735.75 211.793 729 198.293 737.25L83.2934 807.75C70.2934 815.75 69.7934 831.5 83.2934 839.75L198.293 909.75C211.793 918 224.793 911.5 224.793 895.5Z" fill="black" fill-opacity="0.85"/>
 </g>
</svg>
