<?xml version="1.0" encoding="UTF-8"?>
<!--Generator: Apple Native CoreSVG 326-->
<!DOCTYPE svg
PUBLIC "-//W3C//DTD SVG 1.1//EN"
       "http://www.w3.org/Graphics/SVG/1.1/DTD/svg11.dtd">
<svg version="1.1" xmlns="http://www.w3.org/2000/svg" xmlns:xlink="http://www.w3.org/1999/xlink" viewBox="0 0 710.087 673.25">
 <g>
  <rect height="673.25" opacity="0" width="710.087" x="0" y="0"/>
  <path d="M5.04337 539.5C32.0434 641.75 62.7934 673 126.793 673L495.543 673C541.543 673 572.793 647.25 584.293 600.5L705.293 108.5C723.793 33.75 685.793 0 641.793 0C583.543 0 520.793 60 553.793 162L561.793 128.5C467.543 177.75 422.543 299.25 439.293 442.5L449.543 428.75C382.543 414.75 297.043 406.75 213.543 406.75C47.2934 406.75-19.7066 446.75 5.04337 539.5Z" fill="black" fill-opacity="0.85"/>
  <path d="M87.0434 293.25L239.043 293.25C249.543 293.25 257.043 285.75 257.043 275.75C257.043 265.25 249.543 258 239.043 258L125.793 258.25L125.793 257.25L200.043 176.25C224.543 150.25 241.543 127.5 241.543 96.25C241.543 51.5 207.293 22 153.793 22C112.293 22 76.0434 47.25 67.5434 81.25C66.5434 85.5 65.7934 88.75 65.7934 92.5C65.7934 103 72.7934 110 83.5434 110C93.2934 110 98.2934 104 102.793 96C109.043 75.75 126.543 56.75 155.293 56.75C184.043 56.75 203.543 73.75 203.543 98.75C203.543 119.5 187.543 137.25 169.543 156.75L75.0434 259.25C70.2934 264.5 67.7934 269.25 67.7934 275.5C67.7934 286.25 75.0434 293.25 87.0434 293.25Z" fill="black" fill-opacity="0.85"/>
 </g>
</svg>
