<?xml version="1.0" encoding="UTF-8"?>
<!--Generator: Apple Native CoreSVG 326-->
<!DOCTYPE svg
PUBLIC "-//W3C//DTD SVG 1.1//EN"
       "http://www.w3.org/Graphics/SVG/1.1/DTD/svg11.dtd">
<svg version="1.1" xmlns="http://www.w3.org/2000/svg" xmlns:xlink="http://www.w3.org/1999/xlink" viewBox="0 0 715.014 673.75">
 <g>
  <rect height="673.75" opacity="0" width="715.014" x="0" y="0"/>
  <path d="M5.13192 539.75C32.1319 642 62.8819 673.25 126.882 673.25L500.632 673.25C546.632 673.25 578.132 647.5 589.382 600.75L710.632 108.75C727.382 41 694.632 0 637.632 0C568.382 0 510.132 65 536.382 161.75L541.882 135C465.132 186.25 423.382 304.5 434.382 442.5L447.132 426.25C377.132 413.75 295.132 407 213.632 407C47.3819 407-19.6181 447 5.13192 539.75ZM47.6319 528C33.1319 473.25 74.1319 451.25 213.632 451.25C321.632 451.25 404.382 465.25 446.132 469.5C463.882 470.5 475.132 459.25 474.882 441.25C470.632 318.75 505.132 214.5 565.882 172C576.882 163.5 578.632 157.75 575.882 139C567.382 77 600.882 44.25 637.382 44.25C661.882 44.25 676.382 63.75 668.132 97.75L546.382 590C540.382 615 524.132 628.75 500.632 628.75L126.882 628.75C88.8819 628.75 70.6319 615 47.6319 528Z" fill="black" fill-opacity="0.85"/>
  <path d="M179.882 299C192.882 299 200.632 290.75 200.632 276.25L200.632 45.25C200.632 30.25 192.382 22.25 178.632 22.25C168.632 22.25 162.632 25 151.382 32.5L93.6319 71C87.6319 75.25 85.6319 79.25 85.6319 85.5C85.6319 93.75 92.3819 101 100.382 101C104.132 101 106.882 100 113.632 95.5L157.132 67.25L159.882 67.25L159.882 276.25C159.882 290.5 167.632 299 179.882 299Z" fill="black" fill-opacity="0.85"/>
 </g>
</svg>
