<?xml version="1.0" encoding="UTF-8"?>
<!--Generator: Apple Native CoreSVG 326-->
<!DOCTYPE svg
PUBLIC "-//W3C//DTD SVG 1.1//EN"
       "http://www.w3.org/Graphics/SVG/1.1/DTD/svg11.dtd">
<svg version="1.1" xmlns="http://www.w3.org/2000/svg" xmlns:xlink="http://www.w3.org/1999/xlink" viewBox="0 0 715.014 918.75">
 <g>
  <rect height="918.75" opacity="0" width="715.014" x="0" y="0"/>
  <path d="M5.13192 540C32.1319 642.25 62.8819 673.25 126.882 673.25L500.632 673.25C546.632 673.25 578.132 647.75 589.382 601L710.632 109C727.382 41 694.632 0 637.632 0C568.382 0 510.132 65 536.382 162L541.882 135C465.132 186.25 423.382 304.75 434.382 442.75L447.132 426.5C377.132 414 295.132 407.25 213.632 407.25C47.3819 407.25-19.6181 447.25 5.13192 540ZM47.6319 528.25C33.1319 473.5 74.1319 451.5 213.632 451.5C321.632 451.5 404.382 465.25 446.132 469.75C463.882 470.5 475.132 459.5 474.882 441.5C470.632 319 505.132 214.5 565.882 172.25C576.882 163.75 578.632 158 575.882 139.25C567.382 77.25 600.882 44.5 637.382 44.5C661.882 44.5 676.382 64 668.132 97.75L546.382 590C540.382 615 524.132 629 500.632 629L126.882 629C88.8819 629 70.6319 615.25 47.6319 528.25Z" fill="black" fill-opacity="0.85"/>
  <path d="M394.382 895.75C394.382 911.75 407.632 918.25 421.132 910L535.882 840C549.382 831.75 548.882 816 535.882 808L420.882 737.5C407.382 729.25 394.382 736 394.382 751.75Z" fill="black" fill-opacity="0.85"/>
  <path d="M224.882 895.75L224.882 751.75C224.882 736 211.882 729.25 198.382 737.5L83.3819 808C70.3819 816 69.8819 831.75 83.3819 840L198.382 910C211.882 918.25 224.882 911.75 224.882 895.75Z" fill="black" fill-opacity="0.85"/>
 </g>
</svg>
