<?xml version="1.0" encoding="UTF-8"?>
<!--Generator: Apple Native CoreSVG 326-->
<!DOCTYPE svg
PUBLIC "-//W3C//DTD SVG 1.1//EN"
       "http://www.w3.org/Graphics/SVG/1.1/DTD/svg11.dtd">
<svg version="1.1" xmlns="http://www.w3.org/2000/svg" xmlns:xlink="http://www.w3.org/1999/xlink" viewBox="0 0 710.13 673.25">
 <g>
  <rect height="673.25" opacity="0" width="710.13" x="0" y="0"/>
  <path d="M407.815 364.5C407.815 406 369.815 429.25 369.815 459.25C369.815 476.25 374.065 485.5 384.815 499.75C398.315 517.75 372.815 536 359.315 518.75C344.565 500 338.065 483 338.065 461C338.065 419 375.565 394.75 375.565 364.5C375.565 333.75 338.065 310 338.065 267.25C338.065 246 344.565 229 359.565 209.75C373.565 192.25 398.815 210.5 385.315 228.5C374.065 243.5 369.815 253 369.815 269.25C369.815 299.75 407.815 323.75 407.815 364.5ZM509.315 364.5C509.315 406 471.315 429.25 471.315 459.25C471.315 476.25 475.815 485.5 486.315 499.75C499.815 517.75 474.315 536 460.815 518.75C446.065 500 439.565 483 439.565 461C439.565 419 477.065 394.75 477.065 364.5C477.065 333.75 439.565 310 439.565 267.25C439.565 246 446.065 229 461.065 209.75C475.065 192.25 500.315 210.5 486.815 228.5C475.815 243.5 471.315 253 471.315 269.25C471.315 299.75 509.315 323.75 509.315 364.5ZM610.815 364.5C610.815 406 572.815 429.25 572.815 459.25C572.815 476.25 577.315 485.5 587.815 499.75C601.315 517.75 576.065 536 562.315 518.75C547.565 500 541.065 483 541.065 461C541.065 419 578.565 394.75 578.565 364.5C578.565 333.75 541.065 310 541.065 267.25C541.065 246 547.565 229 562.815 209.75C576.565 192.25 601.815 210.5 588.315 228.5C577.315 243.5 572.815 253 572.815 269.25C572.815 299.75 610.815 323.75 610.815 364.5ZM705.065 539.5C730.065 446.75 662.815 406.75 496.815 406.75C413.065 406.75 327.565 414.75 260.565 428.75L270.815 442.5C287.815 299.25 242.565 177.75 148.315 128.5L156.315 162C189.315 60 126.565 0 68.3152 0C24.3152 0-13.6848 33.75 4.81524 108.5L125.815 600.5C137.315 647.25 168.815 673 214.815 673L583.315 673C647.315 673 678.065 641.75 705.065 539.5Z" fill="black" fill-opacity="0.85"/>
 </g>
</svg>
