<?xml version="1.0" encoding="UTF-8"?>
<!--Generator: Apple Native CoreSVG 326-->
<!DOCTYPE svg
PUBLIC "-//W3C//DTD SVG 1.1//EN"
       "http://www.w3.org/Graphics/SVG/1.1/DTD/svg11.dtd">
<svg version="1.1" xmlns="http://www.w3.org/2000/svg" xmlns:xlink="http://www.w3.org/1999/xlink" viewBox="0 0 715.014 879.25">
 <g>
  <rect height="879.25" opacity="0" width="715.014" x="0" y="0"/>
  <path d="M5.13192 539.75C32.1319 642 62.8819 673.25 126.882 673.25L500.632 673.25C546.632 673.25 578.132 647.5 589.382 600.75L710.632 108.75C727.382 40.75 694.632 0 637.632 0C568.382 0 510.132 65 536.382 161.75L541.882 135C465.132 186 423.382 304.5 434.382 442.5L447.132 426.25C377.132 413.75 295.132 407 213.632 407C47.3819 407-19.6181 447 5.13192 539.75ZM47.6319 528C33.1319 473.25 74.1319 451.25 213.632 451.25C321.632 451.25 404.382 465 446.132 469.5C463.882 470.25 475.132 459.25 474.882 441.25C470.632 318.75 505.132 214.5 565.882 172C576.882 163.5 578.632 157.75 575.882 139C567.382 77 600.882 44.25 637.382 44.25C661.882 44.25 676.382 63.75 668.132 97.5L546.382 590C540.382 615 524.132 628.75 500.632 628.75L126.882 628.75C88.8819 628.75 70.6319 615 47.6319 528Z" fill="black" fill-opacity="0.85"/>
  <path d="M168.632 722.5C152.632 722.5 146.382 735.75 154.632 749.25L224.382 864C232.882 877.5 248.632 877 256.382 864L326.882 749C335.382 735.5 328.382 722.5 312.632 722.5Z" fill="black" fill-opacity="0.85"/>
  <path d="M168.632 358L312.632 358C328.382 358 335.382 345 326.882 331.5L256.382 216.5C248.632 203.5 232.632 203 224.382 216.5L154.632 331.25C146.132 344.75 152.632 358 168.632 358Z" fill="black" fill-opacity="0.85"/>
 </g>
</svg>
