<?xml version="1.0" encoding="UTF-8"?>
<!--Generator: Apple Native CoreSVG 326-->
<!DOCTYPE svg
PUBLIC "-//W3C//DTD SVG 1.1//EN"
       "http://www.w3.org/Graphics/SVG/1.1/DTD/svg11.dtd">
<svg version="1.1" xmlns="http://www.w3.org/2000/svg" xmlns:xlink="http://www.w3.org/1999/xlink" viewBox="0 0 899.978 673.75">
 <g>
  <rect height="673.75" opacity="0" width="899.978" x="0" y="0"/>
  <path d="M4.98907 539.75C31.9891 642 62.7391 673.25 126.739 673.25L500.489 673.25C546.489 673.25 577.989 647.5 589.239 600.75L710.489 108.75C727.239 41 694.489 0 637.489 0C568.239 0 509.989 65 536.239 161.75L541.739 135C464.989 186.25 423.239 304.5 434.239 442.5L446.989 426.25C376.989 413.75 294.989 407 213.489 407C47.2391 407-19.7609 447 4.98907 539.75ZM47.4891 528C32.9891 473.25 73.9891 451.25 213.489 451.25C321.489 451.25 404.239 465.25 445.989 469.5C463.739 470.5 474.989 459.25 474.739 441.25C470.489 318.75 504.989 214.5 565.739 172C576.739 163.5 578.489 157.75 575.739 139C567.239 77 600.739 44.25 637.239 44.25C661.739 44.25 676.239 63.75 667.989 97.75L546.239 590C540.239 615 523.989 628.75 500.489 628.75L126.739 628.75C88.7391 628.75 70.4891 615 47.4891 528Z" fill="black" fill-opacity="0.85"/>
  <path d="M734.739 319.25C730.739 334.5 741.739 344.25 757.239 339.5L885.739 300.75C900.739 296.5 904.489 281 893.739 270L800.489 172.75C789.489 161.25 774.989 164.5 770.989 179.75Z" fill="black" fill-opacity="0.85"/>
  <path d="M393.739 207L429.989 67.75C433.989 52.75 422.989 42.5 407.989 47.25L278.739 86.5C264.239 90.75 259.739 106.25 270.739 117.25L364.239 213.75C375.239 225.25 389.739 222.75 393.739 207Z" fill="black" fill-opacity="0.85"/>
 </g>
</svg>
