<?xml version="1.0" encoding="UTF-8"?>
<!--Generator: Apple Native CoreSVG 326-->
<!DOCTYPE svg
PUBLIC "-//W3C//DTD SVG 1.1//EN"
       "http://www.w3.org/Graphics/SVG/1.1/DTD/svg11.dtd">
<svg version="1.1" xmlns="http://www.w3.org/2000/svg" xmlns:xlink="http://www.w3.org/1999/xlink" viewBox="0 0 900.205 673.75">
 <g>
  <rect height="673.75" opacity="0" width="900.205" x="0" y="0"/>
  <path d="M895.227 539.75C919.977 447 852.727 407 686.727 407C604.977 407 523.227 413.75 453.227 426.25L465.977 442.5C476.977 304.5 435.227 186.25 358.477 135L363.977 161.75C390.227 65 331.977 0 262.477 0C205.727 0 172.727 41 189.727 108.75L310.727 600.75C322.227 647.5 353.477 673.25 399.727 673.25L773.227 673.25C837.227 673.25 867.977 642 895.227 539.75ZM852.727 528C829.727 615 811.227 628.75 773.227 628.75L399.727 628.75C375.977 628.75 359.977 615 353.727 590L232.227 97.75C223.977 63.75 238.477 44.25 262.977 44.25C299.227 44.25 332.977 77 324.477 139C321.477 157.75 323.227 163.5 334.227 172C395.227 214.5 429.477 318.75 425.477 441.25C425.227 459.25 436.227 470.5 454.227 469.5C495.977 465.25 578.727 451.25 686.727 451.25C826.227 451.25 867.227 473.25 852.727 528Z" fill="black" fill-opacity="0.85"/>
  <path d="M165.227 319.25L128.977 179.75C124.977 164.5 110.477 161.25 99.4774 172.75L6.22741 270C-4.52259 281-1.02259 296.5 14.2274 300.75L142.727 339.5C158.227 344.25 169.227 334.5 165.227 319.25Z" fill="black" fill-opacity="0.85"/>
  <path d="M506.227 207C510.227 222.75 524.727 225.25 535.727 213.75L629.227 117.25C639.977 106.25 635.727 90.75 621.227 86.5L491.977 47.25C476.727 42.5 465.977 52.75 469.977 67.75Z" fill="black" fill-opacity="0.85"/>
 </g>
</svg>
