<?xml version="1.0" encoding="UTF-8"?>
<!--Generator: Apple Native CoreSVG 326-->
<!DOCTYPE svg
PUBLIC "-//W3C//DTD SVG 1.1//EN"
       "http://www.w3.org/Graphics/SVG/1.1/DTD/svg11.dtd">
<svg version="1.1" xmlns="http://www.w3.org/2000/svg" xmlns:xlink="http://www.w3.org/1999/xlink" viewBox="0 0 714.729 673.75">
 <g>
  <rect height="673.75" opacity="0" width="714.729" x="0" y="0"/>
  <path d="M709.74 539.75C734.49 447 667.49 407 501.49 407C419.74 407 337.74 413.75 267.74 426.25L280.74 442.5C291.74 304.5 249.74 186.25 173.24 135L178.49 161.75C204.74 65 146.74 0 77.2397 0C20.4897 0-12.5103 41 4.48967 108.75L125.49 600.75C136.99 647.5 168.24 673.25 214.24 673.25L587.99 673.25C651.99 673.25 682.74 642 709.74 539.75ZM667.49 528C644.24 615 625.99 628.75 587.99 628.75L214.24 628.75C190.74 628.75 174.74 615 168.49 590L46.9897 97.75C38.4897 63.75 53.2397 44.25 77.4897 44.25C113.99 44.25 147.74 77 139.24 139C136.24 157.75 137.99 163.5 148.99 172C209.99 214.5 244.24 318.75 240.24 441.25C239.99 459.25 250.99 470.5 268.74 469.5C310.74 465.25 393.49 451.25 501.49 451.25C640.99 451.25 681.99 473.25 667.49 528Z" fill="black" fill-opacity="0.85"/>
  <path d="M559.24 289.75C615.99 289.75 654.49 259 654.49 213.75C654.49 180.75 629.49 154.25 595.49 150.25L595.49 150.25C623.49 145.5 645.49 119.5 645.49 89.75C645.49 50.75 610.24 22.25 560.99 22.25C516.99 22.25 482.49 43.5 474.99 77.25C474.24 81 473.99 83.5 473.99 87.75C473.99 97.75 481.24 104.5 491.49 104.5C500.74 104.5 506.24 100.25 509.24 91C514.74 68.5 534.49 55 560.24 55C588.99 55 607.74 70 607.74 93.75C607.74 118 587.24 136 559.74 136L540.49 136C531.49 136 524.49 142.25 524.49 151.75C524.49 161.25 530.99 168 540.49 168L561.74 168C593.99 168 616.74 186 616.74 212.25C616.74 239 593.74 256.75 559.74 256.75C531.74 256.75 510.99 243.75 503.99 221C500.49 212 494.74 208 486.24 208C476.24 208 468.74 215 468.74 225.25C468.74 229 468.99 230.75 469.74 234.25C476.74 266.75 514.99 289.75 559.24 289.75Z" fill="black" fill-opacity="0.85"/>
 </g>
</svg>
