<?xml version="1.0" encoding="UTF-8"?>
<!--Generator: Apple Native CoreSVG 326-->
<!DOCTYPE svg
PUBLIC "-//W3C//DTD SVG 1.1//EN"
       "http://www.w3.org/Graphics/SVG/1.1/DTD/svg11.dtd">
<svg version="1.1" xmlns="http://www.w3.org/2000/svg" xmlns:xlink="http://www.w3.org/1999/xlink" viewBox="0 0 710.13 768.714">
 <g>
  <rect height="768.714" opacity="0" width="710.13" x="0" y="0"/>
  <path d="M705.065 587.232C730.065 494.482 662.815 454.482 496.815 454.482C413.065 454.482 327.565 462.482 260.565 476.482L270.815 490.232C287.815 346.982 242.565 225.482 148.315 176.232L156.315 209.732C189.315 107.732 126.565 47.7318 68.3152 47.7318C24.3152 47.7318-13.6848 81.4818 4.81524 156.232L125.815 648.232C137.315 694.982 168.815 720.732 214.815 720.732L583.315 720.732C647.315 720.732 678.065 689.482 705.065 587.232Z" fill="black" fill-opacity="0.85"/>
  <path d="M252.065 110.982C250.315 119.732 253.815 126.732 261.565 129.482C270.815 132.482 280.315 127.732 282.065 117.982C289.315 70.2318 265.815 21.7318 226.815 2.48175C215.815-3.26825 206.815 1.73175 203.565 9.73175C200.815 17.2318 202.815 25.4818 211.065 29.7318C241.065 43.4818 256.815 76.2318 252.065 110.982ZM342.565 354.982C339.565 366.232 345.065 373.232 352.315 375.232C360.315 377.232 370.065 373.732 372.565 363.982C389.065 302.982 363.815 214.232 296.815 182.482C286.065 177.482 277.815 181.482 274.065 187.982C270.565 194.982 271.815 204.482 281.815 209.982C339.815 240.732 355.565 306.982 342.565 354.982Z" fill="black" fill-opacity="0.85"/>
 </g>
</svg>
