<?xml version="1.0" encoding="UTF-8"?>
<!--Generator: Apple Native CoreSVG 326-->
<!DOCTYPE svg
PUBLIC "-//W3C//DTD SVG 1.1//EN"
       "http://www.w3.org/Graphics/SVG/1.1/DTD/svg11.dtd">
<svg version="1.1" xmlns="http://www.w3.org/2000/svg" xmlns:xlink="http://www.w3.org/1999/xlink" viewBox="0 0 710.13 918.25">
 <g>
  <rect height="918.25" opacity="0" width="710.13" x="0" y="0"/>
  <path d="M705.065 539.75C730.065 447 662.815 407 496.815 407C413.065 407 327.565 415 260.565 428.75L270.815 442.75C287.815 299.5 242.565 178 148.315 128.75L156.315 162.25C189.315 60.25 126.565 0 68.3152 0C24.3152 0-13.6848 34 4.81524 108.75L125.815 600.75C137.315 647.5 168.815 673 214.815 673L583.315 673C647.315 673 678.065 642 705.065 539.75Z" fill="black" fill-opacity="0.85"/>
  <path d="M485.065 895.5C485.065 911.5 498.315 918 511.815 909.75L626.565 839.75C640.065 831.5 639.565 815.75 626.565 807.75L511.565 737.25C498.065 729 485.065 735.75 485.065 751.5Z" fill="black" fill-opacity="0.85"/>
  <path d="M315.565 895.5L315.565 751.5C315.565 735.75 302.565 729 289.065 737.25L174.065 807.75C161.065 815.75 160.815 831.5 174.065 839.75L289.065 909.75C302.565 918 315.565 911.5 315.565 895.5Z" fill="black" fill-opacity="0.85"/>
 </g>
</svg>
