<?xml version="1.0" encoding="UTF-8"?>
<!--Generator: Apple Native CoreSVG 326-->
<!DOCTYPE svg
PUBLIC "-//W3C//DTD SVG 1.1//EN"
       "http://www.w3.org/Graphics/SVG/1.1/DTD/svg11.dtd">
<svg version="1.1" xmlns="http://www.w3.org/2000/svg" xmlns:xlink="http://www.w3.org/1999/xlink" viewBox="0 0 714.729 673.75">
 <g>
  <rect height="673.75" opacity="0" width="714.729" x="0" y="0"/>
  <path d="M709.74 539.75C734.49 447 667.49 407 501.49 407C419.74 407 337.74 413.75 267.74 426.25L280.74 442.5C291.74 304.5 249.74 186.25 173.24 135L178.49 161.75C204.74 65 146.74 0 77.2397 0C20.4897 0-12.5103 41 4.48967 108.75L125.49 600.75C136.99 647.5 168.24 673.25 214.24 673.25L587.99 673.25C651.99 673.25 682.74 642 709.74 539.75ZM667.49 528C644.24 615 625.99 628.75 587.99 628.75L214.24 628.75C190.74 628.75 174.74 615 168.49 590L46.9897 97.75C38.4897 63.75 53.2397 44.25 77.4897 44.25C113.99 44.25 147.74 77 139.24 139C136.24 157.75 137.99 163.5 148.99 172C209.99 214.5 244.24 318.75 240.24 441.25C239.99 459.25 250.99 470.5 268.74 469.5C310.74 465.25 393.49 451.25 501.49 451.25C640.99 451.25 681.99 473.25 667.49 528Z" fill="black" fill-opacity="0.85"/>
  <path d="M485.99 293.5L638.24 293.5C648.74 293.5 655.99 286 655.99 276C655.99 265.5 648.49 258.25 638.24 258.25L524.74 258.5L524.74 257.5L599.24 176.5C623.49 150.5 640.49 127.75 640.49 96.5C640.49 51.75 606.24 22.25 552.74 22.25C511.24 22.25 474.99 47.5 466.49 81.5C465.49 85.75 464.99 89 464.99 92.75C464.99 103.25 471.74 110.25 482.49 110.25C492.24 110.25 497.24 104.25 501.74 96.25C507.99 76 525.49 57 554.24 57C583.24 57 602.49 74 602.49 99C602.49 119.75 586.49 137.5 568.74 157L473.99 259.5C469.24 264.75 466.74 269.5 466.74 275.75C466.74 286.5 473.99 293.5 485.99 293.5Z" fill="black" fill-opacity="0.85"/>
 </g>
</svg>
