<?xml version="1.0" encoding="UTF-8"?>
<!--Generator: Apple Native CoreSVG 326-->
<!DOCTYPE svg
PUBLIC "-//W3C//DTD SVG 1.1//EN"
       "http://www.w3.org/Graphics/SVG/1.1/DTD/svg11.dtd">
<svg version="1.1" xmlns="http://www.w3.org/2000/svg" xmlns:xlink="http://www.w3.org/1999/xlink" viewBox="0 0 714.729 918.75">
 <g>
  <rect height="918.75" opacity="0" width="714.729" x="0" y="0"/>
  <path d="M709.74 540C734.49 447.25 667.49 407.25 501.49 407.25C419.74 407.25 337.74 414 267.74 426.5L280.74 442.75C291.74 304.75 249.74 186.25 173.24 135L178.49 162C204.74 65 146.74 0 77.2397 0C20.4897 0-12.5103 41 4.48967 109L125.49 601C136.99 647.75 168.24 673.25 214.24 673.25L587.99 673.25C651.99 673.25 682.74 642.25 709.74 540ZM667.49 528.25C644.24 615.25 625.99 629 587.99 629L214.24 629C190.74 629 174.74 615 168.49 590L46.9897 97.75C38.4897 64 53.2397 44.5 77.4897 44.5C113.99 44.5 147.74 77.25 139.24 139.25C136.24 158 137.99 163.75 148.99 172.25C209.99 214.5 244.24 319 240.24 441.5C239.99 459.5 250.99 470.5 268.74 469.75C310.74 465.25 393.49 451.5 501.49 451.5C640.99 451.5 681.99 473.5 667.49 528.25Z" fill="black" fill-opacity="0.85"/>
  <path d="M489.74 895.75C489.74 911.75 502.99 918.25 516.49 910L631.24 840C644.74 831.75 644.49 816 631.24 808L516.24 737.5C502.99 729.25 489.74 736 489.74 751.75Z" fill="black" fill-opacity="0.85"/>
  <path d="M320.49 895.75L320.49 751.75C320.49 736 307.49 729.25 293.99 737.5L178.99 808C165.74 816 165.49 831.75 178.99 840L293.74 910C307.24 918.25 320.49 911.75 320.49 895.75Z" fill="black" fill-opacity="0.85"/>
 </g>
</svg>
