<?xml version="1.0" encoding="UTF-8"?>
<!--Generator: Apple Native CoreSVG 326-->
<!DOCTYPE svg
PUBLIC "-//W3C//DTD SVG 1.1//EN"
       "http://www.w3.org/Graphics/SVG/1.1/DTD/svg11.dtd">
<svg version="1.1" xmlns="http://www.w3.org/2000/svg" xmlns:xlink="http://www.w3.org/1999/xlink" viewBox="0 0 895.455 673.25">
 <g>
  <rect height="673.25" opacity="0" width="895.455" x="0" y="0"/>
  <path d="M890.477 539.5C915.227 446.75 847.977 406.75 681.977 406.75C598.227 406.75 512.727 414.75 445.727 428.75L455.977 442.5C472.977 299.25 427.727 177.75 333.727 128.5L341.477 162C374.477 60 311.727 0 253.477 0C209.477 0 171.727 33.75 189.977 108.5L311.227 600.5C322.477 647.25 353.977 673 399.977 673L768.477 673C832.477 673 863.227 641.75 890.477 539.5Z" fill="black" fill-opacity="0.85"/>
  <path d="M165.227 319L128.977 179.5C124.977 164.25 110.477 161 99.4774 172.5L6.22741 269.75C-4.52259 280.75-1.02259 296.25 14.2274 300.5L142.727 339.25C158.227 344 169.227 334.25 165.227 319Z" fill="black" fill-opacity="0.85"/>
  <path d="M506.227 206.75C510.227 222.5 524.727 225 535.727 213.5L629.227 117C639.977 106 635.727 90.5 621.227 86.25L491.977 47C476.727 42.25 465.977 52.5 469.977 67.5Z" fill="black" fill-opacity="0.85"/>
 </g>
</svg>
