<?xml version="1.0" encoding="UTF-8"?>
<!--Generator: Apple Native CoreSVG 326-->
<!DOCTYPE svg
PUBLIC "-//W3C//DTD SVG 1.1//EN"
       "http://www.w3.org/Graphics/SVG/1.1/DTD/svg11.dtd">
<svg version="1.1" xmlns="http://www.w3.org/2000/svg" xmlns:xlink="http://www.w3.org/1999/xlink" viewBox="0 0 1197.25 812.059">
 <g>
  <rect height="812.059" opacity="0" width="1197.25" x="0" y="0"/>
  <path d="M268 667.655C322.25 667.655 364.5 625.405 364.5 571.155C364.5 517.405 322.25 474.905 268 474.905C214 474.905 171.5 517.405 171.5 571.155C171.5 625.405 214 667.655 268 667.655ZM937.25 667.655C991.25 667.655 1033.75 625.405 1033.75 571.155C1033.75 517.405 991.25 474.905 937.25 474.905C883 474.905 840.75 517.405 840.75 571.155C840.75 625.405 883 667.655 937.25 667.655ZM894.5 270.655C878.75 267.405 864 266.405 849 267.405L471.25 291.655L615.25 194.655C640.25 177.655 616 140.655 588.75 158.905L384.75 295.155L161.25 337.405C59.2504 356.655 7.7504 402.905 7.7504 488.155L7.7504 530.405C7.7504 575.155 28.2504 597.405 73.5004 602.655L141.25 610.905C138.5 600.155 136.75 583.155 136.75 571.155C136.75 498.155 194.75 440.155 268 440.155C341.25 440.155 399.25 498.155 399.25 571.155C399.25 580.405 398.5 590.405 397 597.155L808.75 597.155C807 589.905 806 580.655 806 571.155C806 498.155 864 440.155 937.25 440.155C1010.5 440.155 1068.5 503.155 1068.5 576.155C1068.5 580.655 1068.5 582.905 1068 586.905L1099.5 583.655C1160.5 576.905 1189.5 543.905 1189.5 481.405L1189.5 425.405C1189.5 352.405 1161 321.155 1088.25 307.155Z" fill="black" fill-opacity="0.85"/>
  <path d="M852.5 157.405L850.75 109.905C915.5 105.405 993.5 111.905 1061 141.405L1042.75 184.905C1035.5 203.655 1046.75 213.905 1066.25 209.155L1180.75 182.405C1197 178.405 1201.75 165.155 1192.75 151.905L1127.75 54.4047C1117.5 39.1547 1102.25 38.1547 1094.75 57.1547L1077.75 97.9047C1002.5 65.9047 917 59.1547 849.25 63.4047L847.5 19.6547C846.5-0.845279 832-5.09528 817.25 5.90472L722.5 75.1547C709 84.9047 709.75 98.6547 723.75 107.655L822.25 172.905C839 183.905 853 177.655 852.5 157.405Z" fill="black" fill-opacity="0.85"/>
 </g>
</svg>
