<?xml version="1.0" encoding="UTF-8"?>
<!--Generator: Apple Native CoreSVG 326-->
<!DOCTYPE svg
PUBLIC "-//W3C//DTD SVG 1.1//EN"
       "http://www.w3.org/Graphics/SVG/1.1/DTD/svg11.dtd">
<svg version="1.1" xmlns="http://www.w3.org/2000/svg" xmlns:xlink="http://www.w3.org/1999/xlink" viewBox="0 0 632.5 523.25">
 <g>
  <rect height="523.25" opacity="0" width="632.5" x="0" y="0"/>
  <path d="M41.25 56.5L145.25 56.5C158.5 56.5 167.5 59.5 175.25 67.25L288.75 180.75L329.25 162.25L208 41C190.75 23.75 169 16.5 140.75 16.5L41.25 16.5C28.5 16.5 20.5 24.5 20.5 36.25C20.5 48.25 28.5 56.5 41.25 56.5ZM65.75 458.25L147.75 467.75L152.25 423.5L75.75 414.75C54.25 412 44.25 402.25 44.25 383L44.25 343.75C44.25 283.75 83 250.75 159.75 236L372.25 195.5C388.75 192.25 400 189.75 410.5 182.5L607.25 50.25C632.25 33.25 608-3.75 580.75 14.5L377 150.75L153.5 193C51.25 212.25 0 258.5 0 343.75L0 386C0 430.75 20.25 453.25 65.75 458.25ZM232.25 523.25C294.25 523.25 342.75 474.75 342.75 413C342.75 351 294.25 302.5 232.25 302.5C170.25 302.5 122 351 122 413C122 474.75 170.25 523.25 232.25 523.25ZM232.25 481.5C194 481.5 163.75 451.25 163.75 413C163.75 374.5 194 344.25 232.25 344.25C270.75 344.25 301 374.5 301 413C301 451.25 270.75 481.5 232.25 481.5ZM632.5 452.75L632.5 408.5L313.75 408.5L313.75 452.75ZM632.5 179.75L632.5 135.75L381.25 150.75L364.5 196Z" fill="black" fill-opacity="0.85"/>
 </g>
</svg>
