<?xml version="1.0" encoding="UTF-8"?>
<!--Generator: Apple Native CoreSVG 326-->
<!DOCTYPE svg
PUBLIC "-//W3C//DTD SVG 1.1//EN"
       "http://www.w3.org/Graphics/SVG/1.1/DTD/svg11.dtd">
<svg version="1.1" xmlns="http://www.w3.org/2000/svg" xmlns:xlink="http://www.w3.org/1999/xlink" viewBox="0 0 1197.47 726.012">
 <g>
  <rect height="726.012" opacity="0" width="1197.47" x="0" y="0"/>
  <path d="M268.112 624.631C322.362 624.631 364.612 582.381 364.612 528.131C364.612 474.381 322.362 431.881 268.112 431.881C214.112 431.881 171.612 474.381 171.612 528.131C171.612 582.381 214.112 624.631 268.112 624.631ZM937.362 624.631C991.362 624.631 1033.86 582.381 1033.86 528.131C1033.86 474.381 991.362 431.881 937.362 431.881C883.112 431.881 840.862 474.381 840.862 528.131C840.862 582.381 883.112 624.631 937.362 624.631ZM894.612 227.631C878.862 224.381 864.112 223.381 849.112 224.381L471.362 248.631L615.362 151.631C640.362 134.631 616.112 97.6312 588.862 115.881L384.862 252.131L161.362 294.381C59.3615 313.631 7.8615 359.881 7.8615 445.131L7.8615 487.381C7.8615 532.131 28.3615 554.381 73.6115 559.631L141.362 567.881C138.612 557.131 136.862 540.131 136.862 528.131C136.862 455.131 194.862 397.131 268.112 397.131C341.362 397.131 399.362 455.131 399.362 528.131C399.362 537.381 398.612 547.381 397.112 554.131L808.862 554.131C807.112 546.881 806.112 537.631 806.112 528.131C806.112 455.131 864.112 397.131 937.362 397.131C1010.61 397.131 1068.61 460.131 1068.61 533.131C1068.61 537.631 1068.61 539.881 1068.11 543.881L1099.61 540.631C1160.61 533.881 1189.61 500.881 1189.61 438.381L1189.61 382.381C1189.61 309.381 1161.11 278.131 1088.36 264.131Z" fill="black" fill-opacity="0.85"/>
  <path d="M1042.86 141.881C1035.86 160.881 1046.86 170.881 1066.36 166.131L1180.86 139.381C1197.11 135.631 1202.11 122.381 1192.86 109.131L1127.86 11.3812C1117.61-3.61879 1102.36-4.86879 1094.86 14.1312L1077.86 54.8812C995.612 19.8812 901.862 14.1312 828.612 23.1312C815.362 24.1312 805.862 35.3812 806.862 48.1312C807.862 60.8812 819.362 70.6312 832.362 69.3812C903.112 60.8812 988.112 66.6312 1061.11 98.3812Z" fill="black" fill-opacity="0.85"/>
 </g>
</svg>
