<?xml version="1.0" encoding="UTF-8"?>
<!--Generator: Apple Native CoreSVG 326-->
<!DOCTYPE svg
PUBLIC "-//W3C//DTD SVG 1.1//EN"
       "http://www.w3.org/Graphics/SVG/1.1/DTD/svg11.dtd">
<svg version="1.1" xmlns="http://www.w3.org/2000/svg" xmlns:xlink="http://www.w3.org/1999/xlink" viewBox="0 0 1181.5 761.627">
 <g>
  <rect height="761.627" opacity="0" width="1181.5" x="0" y="0"/>
  <path d="M65.75 577.438L147.75 586.938L152.25 542.688L75.75 533.938C54.25 531.438 44.25 521.438 44.25 502.188L44.25 462.938C44.25 402.938 83 369.938 159.75 355.188L372.25 314.688C388.75 311.438 400 308.938 410.5 301.688L607.25 169.438C632.25 152.438 608 115.438 580.75 133.688L377 269.938L153.5 312.188C51.25 331.438 0 377.688 0 462.938L0 505.188C0 549.938 20.25 572.438 65.75 577.438ZM232.25 642.438C294.25 642.438 342.75 593.938 342.75 532.188C342.75 470.188 294.25 421.688 232.25 421.688C170.25 421.688 122 470.188 122 532.188C122 593.938 170.25 642.438 232.25 642.438ZM232.25 600.688C194 600.688 163.75 570.438 163.75 532.188C163.75 493.688 194 463.438 232.25 463.438C270.75 463.438 301 493.688 301 532.188C301 570.438 270.75 600.688 232.25 600.688ZM313.75 571.938L869.5 571.938L869.5 527.688L313.75 527.688ZM949.25 642.438C1011.25 642.438 1059.5 593.938 1059.5 532.188C1059.5 470.188 1011.25 421.688 949.25 421.688C887.25 421.688 838.75 470.188 838.75 532.188C838.75 593.938 887.25 642.438 949.25 642.438ZM949.25 600.688C911 600.688 880.5 570.438 880.5 532.188C880.5 493.688 911 463.438 949.25 463.438C987.5 463.438 1017.75 493.688 1017.75 532.188C1017.75 570.438 987.5 600.688 949.25 600.688ZM1037.25 564.438L1091.75 558.438C1152.5 551.688 1181.5 518.688 1181.5 456.188L1181.5 400.188C1181.5 327.188 1152.75 295.688 1080.25 281.938L886.5 245.438C871 242.188 856.25 241.438 841.25 242.188L381.25 269.938L364.5 315.188L852.5 285.938L1072.5 327.438C1119.75 336.438 1137.25 356.688 1137.25 400.188L1137.25 456.188C1137.25 492.188 1121 510.938 1086.25 514.938L1037.25 520.438Z" fill="black" fill-opacity="0.85"/>
  <path d="M518.75 610.188C502.75 610.188 496.25 623.438 504.75 636.938L574.5 751.688C582.75 765.188 598.75 764.688 606.75 751.688L677 636.688C685.5 623.188 678.5 610.188 662.75 610.188Z" fill="black" fill-opacity="0.85"/>
 </g>
</svg>
