<?xml version="1.0" encoding="UTF-8"?>
<!--Generator: Apple Native CoreSVG 326-->
<!DOCTYPE svg
PUBLIC "-//W3C//DTD SVG 1.1//EN"
       "http://www.w3.org/Graphics/SVG/1.1/DTD/svg11.dtd">
<svg version="1.1" xmlns="http://www.w3.org/2000/svg" xmlns:xlink="http://www.w3.org/1999/xlink" viewBox="0 0 1181.5 523.25">
 <g>
  <rect height="523.25" opacity="0" width="1181.5" x="0" y="0"/>
  <path d="M166.75 107.75C154.5 107.75 144.5 97.75 144.5 85.5C144.5 73.5 154.5 63.25 166.75 63.25L248 63.25C294.5 63.25 324 76.75 350 110.5L450.5 241.75C470.25 267.5 483.5 274.5 513 274.5L581.25 274.5L581.25 243.5C581.25 223.75 598.5 218 613.25 227.75L693.5 279.25C707.75 288.25 707.5 305.25 693.75 313.75L613 365.5C598.5 375 581.25 369.25 581.25 349.75L581.25 318.75L513 318.75C470.25 318.75 441.75 303.75 415.25 269.25L315.5 137.75C297.75 114.25 283 107.75 248 107.75ZM260.25 523.25C314.25 523.25 356.75 481 356.75 426.75C356.75 373 314.25 330.5 260.25 330.5C206 330.5 163.75 373 163.75 426.75C163.75 481 206 523.25 260.25 523.25ZM929.25 523.25C983.5 523.25 1025.75 481 1025.75 426.75C1025.75 373 983.5 330.5 929.25 330.5C875.25 330.5 832.75 373 832.75 426.75C832.75 481 875.25 523.25 929.25 523.25ZM886.5 126.25C871 123 856.25 122 841.25 123L463.25 147.25L607.25 50.25C632.25 33.25 608-3.75 580.75 14.5L377 150.75L153.5 193C51.25 212.25 0 258.5 0 343.75L0 386C0 430.75 20.25 453 65.75 458.25L133.5 466.5C130.5 455.75 128.75 438.75 128.75 426.75C128.75 353.75 187 295.75 260.25 295.75C333.5 295.75 391.5 353.75 391.5 426.75C391.5 436 390.75 446 389.25 452.75L801 452.75C799 445.5 798 436.25 798 426.75C798 353.75 856 295.75 929.25 295.75C1002.5 295.75 1060.5 358.75 1060.5 431.75C1060.5 436.25 1060.5 438.5 1060.25 442.5L1091.75 439.25C1152.5 432.5 1181.5 399.5 1181.5 337L1181.5 281C1181.5 208 1153 176.75 1080.25 162.75Z" fill="black" fill-opacity="0.85"/>
 </g>
</svg>
