<?xml version="1.0" encoding="UTF-8"?>
<!--Generator: Apple Native CoreSVG 326-->
<!DOCTYPE svg
PUBLIC "-//W3C//DTD SVG 1.1//EN"
       "http://www.w3.org/Graphics/SVG/1.1/DTD/svg11.dtd">
<svg version="1.1" xmlns="http://www.w3.org/2000/svg" xmlns:xlink="http://www.w3.org/1999/xlink" viewBox="0 0 1105.99 832.417">
 <g>
  <rect height="832.417" opacity="0" width="1105.99" x="0" y="0"/>
  <path d="M429.745 594.334C467.745 572.584 480.245 525.584 458.245 487.584C436.495 449.834 389.745 437.334 351.745 459.334C313.745 481.084 301.245 528.084 322.995 565.834C344.995 603.834 391.745 616.334 429.745 594.334ZM899.245 323.334C937.245 301.584 949.745 254.584 927.745 216.584C905.995 178.834 858.995 166.334 821.245 188.334C783.245 210.084 770.495 257.084 792.495 294.834C814.245 332.834 861.245 345.334 899.245 323.334ZM708.495 62.0836C696.245 66.3336 685.495 71.5836 675.245 78.3336L419.995 248.334L481.745 122.084C492.495 100.084 460.245 83.8336 448.495 107.584L360.745 285.834L221.245 405.834C157.245 460.834 139.995 514.084 174.495 573.834L191.745 603.584C209.745 634.834 232.995 642.334 266.995 627.584L317.995 606.084C311.495 599.584 303.495 588.334 298.495 579.834C268.995 528.834 286.245 464.584 337.745 434.834C388.995 405.084 453.245 422.334 482.745 473.584C486.495 480.084 489.995 487.334 491.745 492.834L780.745 326.084C776.245 321.584 771.745 315.584 767.995 308.834C738.495 257.584 755.745 193.584 806.995 163.834C858.495 134.084 924.745 154.834 954.245 206.084C955.995 209.334 956.995 210.834 958.245 213.834L978.995 198.584C1018.99 169.334 1025.99 134.334 1000.74 90.5836L977.995 51.3336C948.495 0.0836239 915.745-10.4164 858.995 9.33362Z" fill="black" fill-opacity="0.85"/>
  <path d="M137.495 666.084L73.7448 555.084C63.7448 537.584 43.9948 541.834 37.9948 558.834L1.74476 653.584C-3.25524 666.334 2.74476 676.834 16.4948 678.834L116.245 695.084C134.245 698.334 147.495 682.834 137.495 666.084ZM201.245 819.084C207.745 829.834 221.245 833.334 231.495 827.334L1094.99 329.584C1105.24 323.584 1108.99 310.084 1103.24 300.084C1096.49 288.834 1082.74 285.334 1072.74 291.334L209.245 789.334C199.245 795.084 195.495 808.834 201.245 819.084Z" fill="black" fill-opacity="0.85"/>
 </g>
</svg>
