<?xml version="1.0" encoding="UTF-8"?>
<!--Generator: Apple Native CoreSVG 326-->
<!DOCTYPE svg
PUBLIC "-//W3C//DTD SVG 1.1//EN"
       "http://www.w3.org/Graphics/SVG/1.1/DTD/svg11.dtd">
<svg version="1.1" xmlns="http://www.w3.org/2000/svg" xmlns:xlink="http://www.w3.org/1999/xlink" viewBox="0 0 1181.5 710.25">
 <g>
  <rect height="710.25" opacity="0" width="1181.5" x="0" y="0"/>
  <path d="M392.25 546.25L801.25 546.25C799.25 539 798.25 529.75 798.25 520.25C798.25 447.25 856.25 389.25 929.5 389.25C1002.75 389.25 1060.75 452.25 1060.75 525.25C1060.75 529.75 1060.75 532 1060.5 536L1091.75 532.75C1152.5 526 1181.5 493 1181.5 430.5L1181.5 374.5C1181.5 301.5 1153 267.75 1080.25 256.25L904.75 228.5C880.75 224.75 835.5 223.25 793 225.25L463.25 240.75L607.25 143.75C632.25 126.75 608 89.75 580.75 108L377 244.25L153.5 286.5C51.25 305.75 0 352 0 437.25L0 479.5C0 524.25 20.25 546.75 65.75 551.75L136.5 560C133.5 549.25 132 532.25 132 520.25C132 447.25 190 389.25 263.25 389.25C336.5 389.25 394.5 447.25 394.5 520.25C394.5 529.5 393.75 539.5 392.25 546.25ZM263.25 616.75C317.25 616.75 359.75 574.5 359.75 520.25C359.75 466.5 317.25 424 263.25 424C209 424 166.75 466.5 166.75 520.25C166.75 574.5 209 616.75 263.25 616.75ZM929.5 616.75C983.75 616.75 1026 574.5 1026 520.25C1026 466.5 983.75 424 929.5 424C875.5 424 833 466.5 833 520.25C833 574.5 875.5 616.75 929.5 616.75ZM707.5 282.75C694.25 282.75 684.5 273.25 684 259.5L678.5 29C678 11.75 689.5 0 707.5 0C725.5 0 737 11.75 736.5 29L731 259.5C730.5 273.25 721 282.75 707.5 282.75ZM707.5 422.25C686.75 422.25 669.5 405 669.5 385.25C669.5 365 686.5 348.5 707.5 348.5C728.5 348.5 745.5 365 745.5 385.25C745.5 405 728.25 422.25 707.5 422.25Z" fill="black" fill-opacity="0.85"/>
 </g>
</svg>
