<?xml version="1.0" encoding="UTF-8"?>
<!--Generator: Apple Native CoreSVG 326-->
<!DOCTYPE svg
PUBLIC "-//W3C//DTD SVG 1.1//EN"
       "http://www.w3.org/Graphics/SVG/1.1/DTD/svg11.dtd">
<svg version="1.1" xmlns="http://www.w3.org/2000/svg" xmlns:xlink="http://www.w3.org/1999/xlink" viewBox="0 0 1105.99 832.417">
 <g>
  <rect height="832.417" opacity="0" width="1105.99" x="0" y="0"/>
  <path d="M266.995 627.584L328.495 601.084L313.745 568.084L256.495 592.834C240.495 600.084 229.245 596.834 221.495 583.584L205.495 555.834C181.245 513.834 194.995 475.084 242.995 433.584L375.745 319.084C385.995 310.084 392.745 303.834 397.245 294.584L481.745 122.084C492.495 100.084 460.245 83.8336 448.495 107.584L360.745 285.834L221.245 405.834C157.245 460.834 139.995 514.084 174.495 573.834L191.745 603.584C209.745 634.834 233.245 642.334 266.995 627.584ZM410.245 605.834C453.745 580.584 467.995 527.084 442.995 483.584C417.745 440.084 364.245 425.834 320.745 450.834C277.245 475.834 262.995 529.584 287.995 573.084C313.245 616.334 366.745 630.834 410.245 605.834ZM393.245 576.334C366.495 591.834 332.995 583.084 317.495 556.084C301.995 529.084 310.745 495.584 337.745 480.084C364.745 464.584 398.245 473.584 413.745 500.584C429.245 527.334 420.245 560.834 393.245 576.334ZM438.745 523.334L828.745 298.334L810.745 267.084L420.995 492.334ZM913.245 315.334C956.495 290.334 970.995 236.584 945.745 193.334C920.745 149.834 867.245 135.334 823.745 160.584C780.245 185.584 765.995 239.084 790.995 282.584C815.995 326.084 869.745 340.584 913.245 315.334ZM896.245 286.084C869.245 301.584 835.745 292.584 820.245 265.834C804.745 238.834 813.745 205.334 840.745 189.834C867.495 174.334 900.995 183.334 916.495 210.084C931.995 237.084 922.995 270.584 896.245 286.084ZM943.245 225.084L978.995 198.584C1018.99 169.334 1025.99 134.334 1000.74 90.5836L977.995 51.3336C948.495 0.0836239 915.245-10.4164 858.995 9.33362L708.495 62.0836C696.245 66.3336 685.495 71.5836 675.245 78.3336L363.745 284.084L370.495 322.584L700.745 104.584L871.995 44.5836C908.745 31.5836 929.245 38.5836 946.745 69.0836L969.495 108.584C984.245 133.834 980.495 153.584 957.745 170.334L925.495 194.084Z" fill="black" fill-opacity="0.85"/>
  <path d="M137.495 666.084L73.7448 555.084C63.7448 537.584 43.9948 541.834 37.9948 558.834L1.74476 653.584C-3.25524 666.334 2.74476 676.834 16.4948 678.834L116.245 695.084C134.245 698.334 147.495 682.834 137.495 666.084ZM201.245 819.084C207.745 829.834 221.245 833.334 231.495 827.334L1094.99 329.584C1105.24 323.584 1108.99 310.084 1103.24 300.084C1096.49 288.834 1082.74 285.334 1072.74 291.334L209.245 789.334C199.245 795.084 195.495 808.834 201.245 819.084Z" fill="black" fill-opacity="0.85"/>
 </g>
</svg>
