<?xml version="1.0" encoding="UTF-8"?>
<!--Generator: Apple Native CoreSVG 326-->
<!DOCTYPE svg
PUBLIC "-//W3C//DTD SVG 1.1//EN"
       "http://www.w3.org/Graphics/SVG/1.1/DTD/svg11.dtd">
<svg version="1.1" xmlns="http://www.w3.org/2000/svg" xmlns:xlink="http://www.w3.org/1999/xlink" viewBox="0 0 1197.25 812.059">
 <g>
  <rect height="812.059" opacity="0" width="1197.25" x="0" y="0"/>
  <path d="M73.5004 602.655L155.75 612.155L160 567.905L83.7504 559.155C62.2504 556.655 52.2504 546.655 52.2504 527.405L52.2504 488.155C52.2504 428.155 90.7504 395.155 167.5 380.405L380 339.905C396.75 336.655 408 334.155 418.5 326.905L615.25 194.655C640.25 177.655 616 140.655 588.75 158.905L384.75 295.155L161.25 337.405C59.2504 356.655 7.7504 402.905 7.7504 488.155L7.7504 530.405C7.7504 575.155 28.2504 597.655 73.5004 602.655ZM240.25 667.655C302.25 667.655 350.5 619.155 350.5 557.405C350.5 495.405 302.25 446.905 240.25 446.905C178.25 446.905 129.75 495.405 129.75 557.405C129.75 619.155 178.25 667.655 240.25 667.655ZM240.25 625.905C201.75 625.905 171.5 595.655 171.5 557.405C171.5 518.905 201.75 488.655 240.25 488.655C278.5 488.655 308.75 518.905 308.75 557.405C308.75 595.655 278.5 625.905 240.25 625.905ZM321.5 597.155L877.5 597.155L877.5 552.905L321.5 552.905ZM957 667.655C1019 667.655 1067.5 619.155 1067.5 557.405C1067.5 495.405 1019 446.905 957 446.905C895 446.905 846.75 495.405 846.75 557.405C846.75 619.155 895 667.655 957 667.655ZM957 625.905C918.75 625.905 888.5 595.655 888.5 557.405C888.5 518.905 918.75 488.655 957 488.655C995.5 488.655 1025.75 518.905 1025.75 557.405C1025.75 595.655 995.5 625.905 957 625.905ZM1045 589.655L1099.5 583.655C1160.5 576.905 1189.5 543.905 1189.5 481.405L1189.5 425.405C1189.5 352.405 1160.5 320.905 1088.25 307.155L894.5 270.655C878.75 267.405 864 266.655 849 267.405L389 295.155L372.25 340.405L860.25 311.155L1080.5 352.655C1127.5 361.655 1145 381.905 1145 425.405L1145 481.405C1145 517.405 1129 536.155 1094.25 540.155L1045 545.655Z" fill="black" fill-opacity="0.85"/>
  <path d="M852.5 157.405L850.75 109.905C915.5 105.405 993.5 111.905 1061 141.405L1042.75 184.905C1035.5 203.655 1046.75 213.905 1066.25 209.155L1180.75 182.405C1197 178.405 1201.75 165.155 1192.75 151.905L1127.75 54.4047C1117.5 39.1547 1102.25 38.1547 1094.75 57.1547L1077.75 97.9047C1002.5 65.9047 917 59.1547 849.25 63.4047L847.5 19.6547C846.5-0.845279 832-5.09528 817.25 5.90472L722.5 75.1547C709 84.9047 709.75 98.6547 723.75 107.655L822.25 172.905C839.25 183.405 853 177.655 852.5 157.405Z" fill="black" fill-opacity="0.85"/>
 </g>
</svg>
