<?xml version="1.0" encoding="UTF-8"?>
<!--Generator: Apple Native CoreSVG 326-->
<!DOCTYPE svg
PUBLIC "-//W3C//DTD SVG 1.1//EN"
       "http://www.w3.org/Graphics/SVG/1.1/DTD/svg11.dtd">
<svg version="1.1" xmlns="http://www.w3.org/2000/svg" xmlns:xlink="http://www.w3.org/1999/xlink" viewBox="0 0 1181.5 523.25">
 <g>
  <rect height="523.25" opacity="0" width="1181.5" x="0" y="0"/>
  <path d="M607.25 50.25L465.276 145.681L841.25 123C856.25 122.25 871 123 886.5 126.25L1080.25 162.75C1152.75 176.5 1181.5 208 1181.5 281L1181.5 337C1181.5 399.5 1152.5 432.5 1091.75 439.25L1055.35 443.257C1042.62 489.9 1000.66 523.25 949.25 523.25C901.406 523.25 861.602 494.369 846.027 452.75L335.473 452.75C319.898 494.369 280.094 523.25 232.25 523.25C189.785 523.25 153.771 500.498 135.308 466.309L65.75 458.25C20.25 453.25 0 430.75 0 386L0 343.75C0 258.5 51.25 212.25 153.5 193L293.636 166.509L322.779 204.929L159.75 236C83 250.75 44.25 283.75 44.25 343.75L44.25 383C44.25 402.25 54.25 412.25 75.75 414.75L122.345 420.08C122.073 417.768 122 415.394 122 413C122 351 170.25 302.5 232.25 302.5C292.728 302.5 340.361 348.648 342.53 408.5L838.97 408.5C841.139 348.648 888.772 302.5 949.25 302.5C1006.44 302.5 1051.93 343.763 1058.55 398.86L1086.25 395.75C1121 391.75 1137.25 373 1137.25 337L1137.25 281C1137.25 237.5 1119.75 217.25 1072.5 208.25L852.5 166.75L454.985 190.576L408.448 129.72L580.75 14.5C608-3.75 632.25 33.25 607.25 50.25ZM163.75 413C163.75 451.25 194 481.5 232.25 481.5C270.75 481.5 301 451.25 301 413C301 374.5 270.75 344.25 232.25 344.25C194 344.25 163.75 374.5 163.75 413ZM880.5 413C880.5 451.25 911 481.5 949.25 481.5C987.5 481.5 1017.75 451.25 1017.75 413C1017.75 374.5 987.5 344.25 949.25 344.25C911 344.25 880.5 374.5 880.5 413Z" fill="black" fill-opacity="0.85"/>
  <path d="M166.75 107.75L248 107.75C283 107.75 297.75 114.25 315.5 137.75L415.25 269.25C441.75 303.75 470.25 318.75 513 318.75L581.25 318.75L581.25 349.75C581.25 369.25 598.5 375 613 365.5L693.75 313.75C707.5 305.25 707.75 288.25 693.5 279.25L613.25 227.75C598.5 218 581.25 223.75 581.25 243.5L581.25 274.5L513 274.5C483.5 274.5 470.25 267.5 450.5 241.75L350 110.5C324 76.75 294.5 63.25 248 63.25L166.75 63.25C154.5 63.25 144.5 73.5 144.5 85.5C144.5 97.75 154.5 107.75 166.75 107.75Z" fill="black" fill-opacity="0.85"/>
 </g>
</svg>
