<?xml version="1.0" encoding="UTF-8"?>
<!--Generator: Apple Native CoreSVG 326-->
<!DOCTYPE svg
PUBLIC "-//W3C//DTD SVG 1.1//EN"
       "http://www.w3.org/Graphics/SVG/1.1/DTD/svg11.dtd">
<svg version="1.1" xmlns="http://www.w3.org/2000/svg" xmlns:xlink="http://www.w3.org/1999/xlink" viewBox="0 0 1181.5 791.66">
 <g>
  <rect height="791.66" opacity="0" width="1181.5" x="0" y="0"/>
  <path d="M65.75 592.455L147.75 601.955L152.25 557.705L75.75 548.955C54.25 546.455 44.25 536.455 44.25 517.205L44.25 477.955C44.25 417.955 83 384.955 159.75 370.205L372.25 329.705C388.75 326.455 400 323.955 410.5 316.705L607.25 184.455C632.25 167.455 608 130.455 580.75 148.705L377 284.955L153.5 327.205C51.25 346.455 0 392.705 0 477.955L0 520.205C0 564.955 20.25 587.455 65.75 592.455ZM232.25 657.455C294.25 657.455 342.75 608.955 342.75 547.205C342.75 485.205 294.25 436.705 232.25 436.705C170.25 436.705 122 485.205 122 547.205C122 608.955 170.25 657.455 232.25 657.455ZM232.25 615.705C194 615.705 163.75 585.455 163.75 547.205C163.75 508.705 194 478.455 232.25 478.455C270.75 478.455 301 508.705 301 547.205C301 585.455 270.75 615.705 232.25 615.705ZM313.75 586.955L869.5 586.955L869.5 542.705L313.75 542.705ZM949.25 657.455C1011.25 657.455 1059.5 608.955 1059.5 547.205C1059.5 485.205 1011.25 436.705 949.25 436.705C887.25 436.705 838.75 485.205 838.75 547.205C838.75 608.955 887.25 657.455 949.25 657.455ZM949.25 615.705C911 615.705 880.5 585.455 880.5 547.205C880.5 508.705 911 478.455 949.25 478.455C987.5 478.455 1017.75 508.705 1017.75 547.205C1017.75 585.455 987.5 615.705 949.25 615.705ZM1037.25 579.455L1091.75 573.455C1152.5 566.705 1181.5 533.705 1181.5 471.205L1181.5 415.205C1181.5 342.205 1152.75 310.705 1080.25 296.955L886.5 260.455C871 257.205 856.25 256.455 841.25 257.205L381.25 284.955L364.5 330.205L852.5 300.955L1072.5 342.455C1119.75 351.455 1137.25 371.705 1137.25 415.205L1137.25 471.205C1137.25 507.205 1121 525.955 1086.25 529.955L1037.25 535.455Z" fill="black" fill-opacity="0.85"/>
  <path d="M906.75 157.705L904.5 110.705C984.25 105.455 1065.75 129.705 1128.75 161.955C1140.5 167.455 1154.5 162.455 1160.25 150.705C1165.25 138.705 1160 124.955 1148 119.705C1082.5 86.2049 992.25 59.2049 903 63.9549L901.25 19.9549C900.75-1.04514 886-5.04514 871.25 5.95486L776.75 75.4549C763 84.9549 763.75 98.9549 777.75 107.955L876.25 172.705C893 183.455 906.75 177.955 906.75 157.705Z" fill="black" fill-opacity="0.85"/>
 </g>
</svg>
