<?xml version="1.0" encoding="UTF-8"?>
<!--Generator: Apple Native CoreSVG 326-->
<!DOCTYPE svg
PUBLIC "-//W3C//DTD SVG 1.1//EN"
       "http://www.w3.org/Graphics/SVG/1.1/DTD/svg11.dtd">
<svg version="1.1" xmlns="http://www.w3.org/2000/svg" xmlns:xlink="http://www.w3.org/1999/xlink" viewBox="0 0 1072.83 804.631">
 <g>
  <rect height="804.631" opacity="0" width="1072.83" x="0" y="0"/>
  <path d="M310.664 342.44C348.664 364.19 395.414 351.69 417.414 313.69C439.164 275.94 426.664 229.19 388.664 207.19C350.664 185.19 303.914 197.69 281.914 235.69C260.164 273.44 272.664 320.44 310.664 342.44ZM779.914 613.44C817.914 635.19 864.914 622.69 886.664 584.69C908.664 546.94 895.914 500.19 857.914 478.19C820.164 456.19 773.164 468.69 751.414 506.69C729.414 544.69 741.914 591.44 779.914 613.44ZM910.914 317.44C901.164 308.94 891.414 302.19 880.164 296.94L605.414 160.69L745.664 150.94C770.164 149.44 768.164 113.44 741.664 115.19L543.414 128.19L369.664 67.4403C290.164 39.6903 235.414 51.1903 200.914 110.94L183.664 140.69C165.664 171.94 170.914 195.94 200.414 217.94L244.664 251.19C246.914 242.44 252.664 229.94 257.664 221.44C287.164 170.19 351.414 152.94 402.664 182.69C454.164 212.44 471.414 276.69 441.664 327.94C438.164 334.19 433.414 340.94 429.664 345.19L718.414 511.94C720.164 506.19 723.164 499.19 726.914 492.44C756.664 441.19 820.664 424.19 872.164 453.69C923.664 483.44 938.664 551.19 909.164 602.44C907.414 605.44 906.414 607.19 904.414 609.69L927.914 620.19C973.414 640.19 1007.16 628.69 1032.41 584.94L1055.16 545.44C1084.66 494.44 1077.41 460.69 1031.91 421.69Z" fill="black" fill-opacity="0.85"/>
  <path d="M103.914 140.44L167.914 29.4403C177.914 12.4403 164.414-2.8097 146.664 0.440298L46.4144 16.4403C33.1644 18.6903 27.1644 28.9403 31.9144 41.9403L68.1644 136.44C74.4144 153.44 93.9144 157.44 103.914 140.44ZM3.16439 271.94C-3.08561 282.94 0.664394 296.44 10.9144 302.44L874.164 801.19C884.164 807.19 897.664 803.69 903.664 793.44C909.914 782.19 906.164 768.69 895.914 762.94L32.9144 263.94C22.9144 258.19 9.16439 261.69 3.16439 271.94Z" fill="black" fill-opacity="0.85"/>
 </g>
</svg>
