<?xml version="1.0" encoding="UTF-8"?>
<!--Generator: Apple Native CoreSVG 326-->
<!DOCTYPE svg
PUBLIC "-//W3C//DTD SVG 1.1//EN"
       "http://www.w3.org/Graphics/SVG/1.1/DTD/svg11.dtd">
<svg version="1.1" xmlns="http://www.w3.org/2000/svg" xmlns:xlink="http://www.w3.org/1999/xlink" viewBox="0 0 1181.5 779.75">
 <g>
  <rect height="779.75" opacity="0" width="1181.5" x="0" y="0"/>
  <path d="M514.821 240.628L465.276 273.931L515.544 270.899L516.25 300.5C516.429 305.543 517.14 310.412 518.385 315.026L371.978 323.802L159.75 364.25C83 379 44.25 412 44.25 472L44.25 511.25C44.25 530.5 54.25 540.5 75.75 543L122.345 548.33C122.073 546.018 122 543.644 122 541.25C122 479.25 170.25 430.75 232.25 430.75C292.728 430.75 340.361 476.898 342.53 536.75L838.97 536.75C841.139 476.898 888.772 430.75 949.25 430.75C1006.44 430.75 1051.93 472.013 1058.55 527.11L1086.25 524C1121 520 1137.25 501.25 1137.25 465.25L1137.25 409.25C1137.25 365.75 1119.75 345.5 1072.5 336.5L852.5 295L642.36 307.595C642.708 305.281 642.915 302.91 643 300.5L643.891 263.156L841.25 251.25C856.25 250.5 871 251.25 886.5 254.5L1080.25 291C1152.75 304.75 1181.5 336.25 1181.5 409.25L1181.5 465.25C1181.5 527.75 1152.5 560.75 1091.75 567.5L1055.35 571.507C1042.62 618.15 1000.66 651.5 949.25 651.5C901.406 651.5 861.602 622.619 846.027 581L335.473 581C319.898 622.619 280.094 651.5 232.25 651.5C189.785 651.5 153.771 628.748 135.308 594.559L65.75 586.5C20.25 581.5 0 559 0 514.25L0 472C0 386.75 51.25 340.5 153.5 321.25L377 279L513.558 187.682ZM163.75 541.25C163.75 579.5 194 609.75 232.25 609.75C270.75 609.75 301 579.5 301 541.25C301 502.75 270.75 472.5 232.25 472.5C194 472.5 163.75 502.75 163.75 541.25ZM880.5 541.25C880.5 579.5 911 609.75 949.25 609.75C987.5 609.75 1017.75 579.5 1017.75 541.25C1017.75 502.75 987.5 472.5 949.25 472.5C911 472.5 880.5 502.75 880.5 541.25Z" fill="black" fill-opacity="0.85"/>
  <path d="M579.75 462C600.25 462 617.75 445 617.75 425.25C617.75 404.75 600.5 388.25 579.75 388.25C558.5 388.25 541.5 404.75 541.5 425.25C541.5 445 559 462 579.75 462ZM579.75 322.5C593 322.5 602.5 313 603 299.25L608.5 68.75C609 51.5 597.5 40 579.75 40C561.75 40 550.25 51.5 550.75 68.75L556.25 299.25C556.75 313 566.25 322.5 579.75 322.5Z" fill="black" fill-opacity="0.85"/>
 </g>
</svg>
