<?xml version="1.0" encoding="UTF-8"?>
<!--Generator: Apple Native CoreSVG 326-->
<!DOCTYPE svg
PUBLIC "-//W3C//DTD SVG 1.1//EN"
       "http://www.w3.org/Graphics/SVG/1.1/DTD/svg11.dtd">
<svg version="1.1" xmlns="http://www.w3.org/2000/svg" xmlns:xlink="http://www.w3.org/1999/xlink" viewBox="0 0 1197.47 726.012">
 <g>
  <rect height="726.012" opacity="0" width="1197.47" x="0" y="0"/>
  <path d="M73.6115 559.631L155.862 569.131L160.112 524.881L83.8615 516.131C62.3615 513.631 52.3615 503.631 52.3615 484.381L52.3615 445.131C52.3615 385.131 90.8615 352.131 167.612 337.381L380.112 296.881C396.862 293.631 408.112 291.131 418.612 283.881L615.362 151.631C640.362 134.631 616.112 97.6312 588.862 115.881L384.862 252.131L161.362 294.381C59.3615 313.631 7.8615 359.881 7.8615 445.131L7.8615 487.381C7.8615 532.131 28.3615 554.631 73.6115 559.631ZM240.362 624.631C302.362 624.631 350.612 576.131 350.612 514.381C350.612 452.381 302.362 403.881 240.362 403.881C178.362 403.881 129.862 452.381 129.862 514.381C129.862 576.131 178.362 624.631 240.362 624.631ZM240.362 582.881C201.862 582.881 171.612 552.631 171.612 514.381C171.612 475.881 201.862 445.631 240.362 445.631C278.612 445.631 308.862 475.881 308.862 514.381C308.862 552.631 278.612 582.881 240.362 582.881ZM321.612 554.131L877.612 554.131L877.612 509.881L321.612 509.881ZM957.112 624.631C1019.11 624.631 1067.61 576.131 1067.61 514.381C1067.61 452.381 1019.11 403.881 957.112 403.881C895.112 403.881 846.862 452.381 846.862 514.381C846.862 576.131 895.112 624.631 957.112 624.631ZM957.112 582.881C918.862 582.881 888.612 552.631 888.612 514.381C888.612 475.881 918.862 445.631 957.112 445.631C995.612 445.631 1025.86 475.881 1025.86 514.381C1025.86 552.631 995.612 582.881 957.112 582.881ZM1045.11 546.631L1099.61 540.631C1160.61 533.881 1189.61 500.881 1189.61 438.381L1189.61 382.381C1189.61 309.381 1160.61 277.881 1088.36 264.131L894.612 227.631C878.862 224.381 864.112 223.631 849.112 224.381L389.112 252.131L372.362 297.381L860.362 268.131L1080.61 309.631C1127.61 318.631 1145.11 338.881 1145.11 382.381L1145.11 438.381C1145.11 474.381 1129.11 493.131 1094.36 497.131L1045.11 502.631Z" fill="black" fill-opacity="0.85"/>
  <path d="M1042.86 141.881C1035.86 160.881 1046.86 170.881 1066.36 166.131L1180.86 139.381C1197.11 135.631 1202.11 122.381 1192.86 109.131L1127.86 11.3812C1117.61-3.61879 1102.36-4.86879 1094.86 14.1312L1077.86 54.8812C995.612 19.8812 901.862 14.1312 828.612 23.1312C815.362 24.1312 805.862 35.3812 806.862 48.1312C807.862 60.8812 819.362 70.6312 832.362 69.3812C903.112 60.8812 988.112 66.6312 1061.11 98.3812Z" fill="black" fill-opacity="0.85"/>
 </g>
</svg>
