<?xml version="1.0" encoding="UTF-8"?>
<!--Generator: Apple Native CoreSVG 326-->
<!DOCTYPE svg
PUBLIC "-//W3C//DTD SVG 1.1//EN"
       "http://www.w3.org/Graphics/SVG/1.1/DTD/svg11.dtd">
<svg version="1.1" xmlns="http://www.w3.org/2000/svg" xmlns:xlink="http://www.w3.org/1999/xlink" viewBox="0 0 1181.5 791.66">
 <g>
  <rect height="791.66" opacity="0" width="1181.5" x="0" y="0"/>
  <path d="M260.25 657.455C314.25 657.455 356.75 615.205 356.75 560.955C356.75 507.205 314.25 464.705 260.25 464.705C206 464.705 163.75 507.205 163.75 560.955C163.75 615.205 206 657.455 260.25 657.455ZM929.25 657.455C983.5 657.455 1025.75 615.205 1025.75 560.955C1025.75 507.205 983.5 464.705 929.25 464.705C875.25 464.705 832.75 507.205 832.75 560.955C832.75 615.205 875.25 657.455 929.25 657.455ZM886.5 260.455C871 257.205 856.25 256.205 841.25 257.205L463.25 281.455L607.25 184.455C632.25 167.455 608 130.455 580.75 148.705L377 284.955L153.5 327.205C51.25 346.455 0 392.705 0 477.955L0 520.205C0 564.955 20.25 587.205 65.75 592.455L133.5 600.705C130.5 589.955 128.75 572.955 128.75 560.955C128.75 487.955 187 429.955 260.25 429.955C333.5 429.955 391.5 487.955 391.5 560.955C391.5 570.205 390.75 580.205 389.25 586.955L801 586.955C799 579.705 798 570.455 798 560.955C798 487.955 856 429.955 929.25 429.955C1002.5 429.955 1060.5 492.955 1060.5 565.955C1060.5 570.455 1060.5 572.705 1060.25 576.705L1091.75 573.455C1152.5 566.705 1181.5 533.705 1181.5 471.205L1181.5 415.205C1181.5 342.205 1153 310.955 1080.25 296.955Z" fill="black" fill-opacity="0.85"/>
  <path d="M906.75 157.705L904.5 110.705C984.25 105.455 1065.75 129.705 1128.75 161.955C1140.5 167.455 1154.5 162.455 1160.25 150.705C1165.25 138.705 1160 124.955 1148 119.705C1082.5 86.2049 992.25 59.2049 903 63.9549L901.25 19.9549C900.75-1.04514 886-5.04514 871.25 5.95486L776.75 75.4549C763 84.9549 763.75 98.9549 777.75 107.955L876.25 172.705C893 183.455 906.75 177.955 906.75 157.705Z" fill="black" fill-opacity="0.85"/>
 </g>
</svg>
