<?xml version="1.0" encoding="UTF-8"?>
<!--Generator: Apple Native CoreSVG 326-->
<!DOCTYPE svg
PUBLIC "-//W3C//DTD SVG 1.1//EN"
       "http://www.w3.org/Graphics/SVG/1.1/DTD/svg11.dtd">
<svg version="1.1" xmlns="http://www.w3.org/2000/svg" xmlns:xlink="http://www.w3.org/1999/xlink" viewBox="0 0 894.5 568.75">
 <g>
  <rect height="568.75" opacity="0" width="894.5" x="0" y="0"/>
  <path d="M338.5 568.5L649.75 568.5C689.25 568.5 712.25 546.5 712.25 507.75L712.25 441.75C712.25 440.25 713 439.5 714.5 439.5L754.25 439.5C755.75 439.5 756.5 440.25 756.5 441.75L756.5 484C756.5 516.75 778.25 537 813.5 537L837.5 537C872.75 537 894.5 517 894.5 484L894.5 253C894.5 220 872.75 200.25 837.5 200.25L813.5 200.25C778.25 200.25 756.5 220.25 756.5 253L756.5 290.25C756.5 292 755.75 292.75 754.25 292.75L714.5 292.75C713 292.75 712.25 292 712.25 290.25L712.25 226C712.25 190.25 689.75 168.75 653 168.75L624 168.75L569.5 109C557.5 95.75 545.5 91 530 91L283.75 91C268.25 91 256 96.25 244.25 109L189.75 168.75L150 168.75C113.5 168.75 91.25 190.25 91.25 226L91.25 433C91.25 468.75 113.25 490.5 150 490.5L244.5 490.5L299.25 550.25C311 563 322.25 568.5 338.5 568.5ZM343.75 524C337 524 334 523 329.75 518.25L263.5 446.25L150.25 446.25C141 446.25 135.25 440.75 135.25 431L135.25 228C135.25 218.25 141 213 150.25 213L209.25 213L275 141.25C279.25 136.5 282.5 135.25 288.75 135.25L525 135.25C531.5 135.25 534.75 136.5 539 141.25L604.75 213L652.75 213C662.25 213 668 218.5 668 228L668 322C668 331.5 673.75 337 682.75 337L786.25 337C795.25 337 801 331.5 801 322L801 255C801 248.25 805.5 244.5 814 244.5L837.25 244.5C845.75 244.5 850.25 248.5 850.25 255L850.25 482C850.25 488.5 845.75 492.5 837.25 492.5L814 492.5C805.5 492.5 801 488.75 801 482L801 410C801 400.5 795.25 395 786.25 395L682.75 395C673.75 395 668 400.5 668 410L668 506C668 518 661.75 524 649.5 524ZM22.25 455.25C34.25 455.25 44.25 445 44.25 433L44.25 351.75L111.25 351.75L111.25 307.5L44.25 307.5L44.25 226.25C44.25 214 34 204 22.25 204C10 204 0 214.25 0 226.25L0 433C0 445.25 10.25 455.25 22.25 455.25ZM404.25 118.25L448.75 118.25L448.75 44.5L552.75 44.5C565 44.5 575 34 575 22C575 10 565 0 552.75 0L300 0C287.75 0 277.75 10 277.75 22.25C277.75 34.25 288 44.5 300 44.5L404.25 44.5Z" fill="black" fill-opacity="0.85"/>
 </g>
</svg>
