<?xml version="1.0" encoding="UTF-8"?>
<!--Generator: Apple Native CoreSVG 326-->
<!DOCTYPE svg
PUBLIC "-//W3C//DTD SVG 1.1//EN"
       "http://www.w3.org/Graphics/SVG/1.1/DTD/svg11.dtd">
<svg version="1.1" xmlns="http://www.w3.org/2000/svg" xmlns:xlink="http://www.w3.org/1999/xlink" viewBox="0 0 894.75 612.75">
 <g>
  <rect height="612.75" opacity="0" width="894.75" x="0" y="0"/>
  <path d="M749 527.25C749 578 715 612.75 667.25 612.75C619.75 612.75 585.25 579.25 579.25 534.75C577.75 523.5 583 513 595.75 512.25C607.5 511.5 615 520 616.75 530.25C621.25 558.75 640.25 576.25 667.25 576.25C694.25 576.25 712.25 558 712.25 527.25C712.25 469 631.5 415 487 415L419.25 415L419.25 378.25L487 378.25C652 378.25 749 445.75 749 527.25ZM55.5 415C45.5 415 37 406.75 37 396.75C37 386.5 45.5 378.25 55.5 378.25L252.5 378.25L252.5 415ZM894.75 289.25C894.75 343.5 855.5 385.25 796 385.25C715.75 385.25 680.25 319 512.5 319L419.25 319L419.25 282.5L514 282.5C687.75 282.5 728.25 348 793.75 348.75C835.75 349 857.75 320.5 857.75 287.75C857.75 251 832 228.25 800.75 228.25C784.75 228.25 771.5 234.75 762.25 244.5C754.25 251 745.25 253 737.5 246.75C730.25 241 729.75 228.75 738.25 220.75C753.5 204 775.75 193 800.5 193C852.5 193 894.75 230 894.75 289.25ZM18.25 319C8.5 319 0 310.75 0 300.75C0 290.75 8.5 282.5 18.25 282.5L252.5 282.5L252.5 319ZM252.5 223.25L55.5 223.25C45.5 223.25 37 214.75 37 204.75C37 194.75 45.5 186.5 55.5 186.5L252.5 186.5ZM725.75 112.75C725.75 177.5 679.25 223.25 526.25 223.25L419.25 223.25L419.25 186.5L526.75 186.5C659.5 186.5 689 155.75 689 112.75C689 81.5 667.75 63.25 639.25 63.25C616.5 63.25 598 78.5 590.75 97.25C584.5 108.5 575 111.5 566 107.5C556 103 553.5 92.25 558 82.75C569.75 51.25 601.5 27 639.25 27C687.75 27 725.75 61.25 725.75 112.75Z" fill="black" fill-opacity="0.85"/>
  <path d="M335.75 517C356.5 517 374 500 374 480.25C374 459.75 356.75 443.25 335.75 443.25C314.75 443.25 297.75 459.75 297.75 480.25C297.75 500 315.25 517 335.75 517ZM335.75 377.75C349.25 377.75 358.75 368 359.25 354.25L364.75 124C365.25 106.5 353.75 95 335.75 95C318 95 306.5 106.5 307 124L312.5 354.25C313 368 322.5 377.75 335.75 377.75Z" fill="black" fill-opacity="0.85"/>
 </g>
</svg>
