<?xml version="1.0" encoding="UTF-8"?>
<!--Generator: Apple Native CoreSVG 326-->
<!DOCTYPE svg
PUBLIC "-//W3C//DTD SVG 1.1//EN"
       "http://www.w3.org/Graphics/SVG/1.1/DTD/svg11.dtd">
<svg version="1.1" xmlns="http://www.w3.org/2000/svg" xmlns:xlink="http://www.w3.org/1999/xlink" viewBox="0 0 864.25 861.315">
 <g>
  <rect height="861.315" opacity="0" width="864.25" x="0" y="0"/>
  <path d="M208.429 330.766L208.259 742.282L546.75 742.282L546.75 668.723L591 712.925L591 742.282L616.75 742.282C618.128 742.282 619.479 742.414 620.787 742.68L638.381 760.255C638.63 761.482 638.75 762.747 638.75 764.032C638.75 776.532 628.75 786.532 616.75 786.532L138.25 786.532C126.25 786.532 116.25 776.532 116.25 764.032C116.25 752.032 126.5 742.282 138.25 742.282L164.5 742.282L164.5 286.885ZM833.25 181.782L833.25 239.282L854 239.282C860 239.282 864.25 244.032 864.25 251.032L864.25 295.032C864.25 320.282 852.75 339.532 833.5 354.282C818.5 366.282 797.5 374.532 797.5 403.532L797.5 603.782C797.5 656.331 776.262 690.819 738.55 701.605L708.089 671.155C709.025 671.26 710.007 671.282 711 671.282C744 671.282 763.5 646.282 763.5 603.782L763.5 403.532C763.5 374.532 742.5 366.282 727.25 354.282C708.25 339.532 696.5 320.282 696.5 295.032L696.5 251.032C696.5 244.032 700.75 239.282 707 239.282L731 239.282L731 181.782C731 173.532 737.25 166.782 745.75 166.782C753.75 166.782 760.25 173.532 760.25 181.782L760 239.282L803.5 239.282L803.25 181.782C803.25 173.532 810.25 166.782 818 166.782C826.5 166.782 833.25 173.532 833.25 181.782ZM591 156.032L591 338.588C645.051 361.546 668.75 400.921 668.75 451.282C668.75 508.282 661 571.032 661 616.532C661 619.292 661.13 621.966 661.433 624.516L627.592 590.687C629.306 545.095 634.75 494.237 634.75 451.282C634.75 420.32 621.356 393.927 591 376.391L591 554.108L546.75 509.874L546.75 156.782C546.75 132.032 533.25 119.032 508.75 119.032L246.25 119.032C220.75 119.032 208.5 132.032 208.5 156.782L208.494 171.74L167.13 130.391C175.092 94.0219 201.613 74.5325 245.25 74.5325L509.75 74.5325C562.25 74.5325 591 103.532 591 156.032ZM517 169.782L517 344.282C517 356.282 508.25 365.282 496 365.282L402.106 365.282L238.25 201.485L238.25 169.782C238.25 157.532 247 148.782 259 148.782L496 148.782C508 148.782 517 157.532 517 169.782Z" fill="black" fill-opacity="0.85"/>
  <path d="M747.75 820.282C756.25 828.782 769.75 828.782 777.75 820.282C786.25 811.782 786.5 798.282 777.75 790.032L83 95.7825C75 87.5325 61.25 87.2825 52.75 95.7825C44.5 103.782 44.5 117.782 52.75 125.782Z" fill="black" fill-opacity="0.85"/>
 </g>
</svg>
