<?xml version="1.0" encoding="UTF-8"?>
<!--Generator: Apple Native CoreSVG 326-->
<!DOCTYPE svg
PUBLIC "-//W3C//DTD SVG 1.1//EN"
       "http://www.w3.org/Graphics/SVG/1.1/DTD/svg11.dtd">
<svg version="1.1" xmlns="http://www.w3.org/2000/svg" xmlns:xlink="http://www.w3.org/1999/xlink" viewBox="0 0 890.75 712.25">
 <g>
  <rect height="712.25" opacity="0" width="890.75" x="0" y="0"/>
  <path d="M48 690.75L92 690.75L92.25 82.25C92.25 57.5 104.5 44.5 129.75 44.5L392.5 44.5C417 44.5 430.25 57.5 430.25 82.25L430.5 690.75L474.75 690.75L474.75 81.5C474.75 29 446 0 393.25 0L129 0C76 0 48 28.75 48 81.5ZM142.5 290.75L379.75 290.75C392 290.75 400.5 281.75 400.5 269.75L400.5 95.25C400.5 83 391.75 74.25 379.75 74.25L142.5 74.25C130.5 74.25 122 83 122 95.25L122 269.75C122 281.75 130.5 290.75 142.5 290.75ZM0 689.5C0 702 9.75 712 22 712L500.25 712C512.5 712 522.5 702 522.5 689.5C522.5 677.75 512.5 667.75 500.25 667.75L22 667.75C10 667.75 0 677.5 0 689.5ZM647 329L647 529.25C647 571.75 627.75 596.75 594.75 596.75C564 596.75 544.75 575.75 544.75 542C544.75 496.5 552.25 433.75 552.25 376.75C552.25 322.5 525 281 461.75 259L447.75 290C497 306 518.25 337.75 518.25 376.75C518.25 428 510.75 490.5 510.75 542C510.75 596.5 543 630.75 594.75 630.75C649.25 630.75 681.25 593.5 681.25 529.25L681.25 329C681.25 300 702.25 291.75 717 279.75C736.5 265 747.75 245.75 747.75 220.5L747.75 176.5C747.75 169.5 743.75 164.75 737.75 164.75L716.75 164.75L716.75 107.25C716.75 99 710.25 92.25 701.75 92.25C694 92.25 687 99 687 107.25L687.25 164.75L643.75 164.75L643.75 107.25C643.75 99 637.5 92.25 629.25 92.25C621 92.25 614.5 99 614.5 107.25L614.5 164.75L590.5 164.75C584.25 164.75 580.25 169.5 580.25 176.5L580.25 220.5C580.25 245.75 592 265 611 279.75C626.25 291.75 647 300 647 329Z" fill="black" fill-opacity="0.85"/>
  <path d="M852.75 566.75C873.5 566.75 890.75 549.75 890.75 530C890.75 509.5 873.75 493 852.75 493C831.5 493 814.75 509.5 814.75 530C814.75 549.75 832 566.75 852.75 566.75ZM852.75 427.5C866 427.5 875.75 417.75 876.25 404L881.75 173.75C882.25 156.25 870.75 144.75 852.75 144.75C834.75 144.75 823.25 156.25 823.75 173.75L829.25 404C829.75 417.75 839.25 427.5 852.75 427.5Z" fill="black" fill-opacity="0.85"/>
 </g>
</svg>
