<?xml version="1.0" encoding="UTF-8"?>
<!--Generator: Apple Native CoreSVG 326-->
<!DOCTYPE svg
PUBLIC "-//W3C//DTD SVG 1.1//EN"
       "http://www.w3.org/Graphics/SVG/1.1/DTD/svg11.dtd">
<svg version="1.1" xmlns="http://www.w3.org/2000/svg" xmlns:xlink="http://www.w3.org/1999/xlink" viewBox="0 0 543.25 803.75">
 <g>
  <rect height="803.75" opacity="0" width="543.25" x="0" y="0"/>
  <path d="M543.25 645C543.25 734.5 474.75 803.75 384.5 803.75L158.75 803.75C68.5 803.75 0 734.5 0 645C0 555.75 68.5 486.5 158.75 486.5L384.5 486.5C474.75 486.5 543.25 555.75 543.25 645ZM67.25 645C67.25 694 106.5 733.25 155.25 733.25C204.5 733.25 243.75 694 243.75 645C243.75 596 204.5 557 155.25 557C106.5 557 67.25 596 67.25 645ZM299.5 645C299.5 694 338.75 733.25 387.75 733.25C436.5 733.25 476 694 476 645C476 596 436.5 557 387.75 557C338.75 557 299.5 596 299.5 645ZM441.75 61.25C484.25 101.5 513.75 163 513.75 229.75C513.75 357.5 407 464.25 271.75 464.25C136.5 464.25 29.75 357.5 29.75 229.75C29.75 163 59.25 101.5 102 61.25C119.25 45 138.5 37.5 164.25 37.5L379.25 37.5C405 37.5 424.25 45 441.75 61.25ZM153.75 339.5C153.75 369.5 177.5 393.5 207.75 393.5C237.75 393.5 261.75 369.5 261.75 339.5C261.75 309.25 237.75 285.5 207.75 285.5C177.5 285.5 153.75 309.25 153.75 339.5ZM281.75 339.5C281.75 369.5 305.75 393.5 335.75 393.5C366 393.5 389.75 369.5 389.75 339.5C389.75 309.25 366 285.5 335.75 285.5C305.75 285.5 281.75 309.25 281.75 339.5ZM89.5 229C89.5 259 113.5 283.25 143.5 283.25C173.75 283.25 197.5 259 197.5 229C197.5 199.25 173.75 175 143.5 175C113.5 175 89.5 199.25 89.5 229ZM217.75 229C217.75 259 241.75 283.25 271.75 283.25C301.75 283.25 325.75 259 325.75 229C325.75 199.25 301.75 175 271.75 175C241.75 175 217.75 199.25 217.75 229ZM346 229C346 259 369.75 283.25 400 283.25C430 283.25 454 259 454 229C454 199.25 430 175 400 175C369.75 175 346 199.25 346 229ZM169.5 134.5C169.5 155.75 186.5 172.5 207.75 172.5C228.75 172.5 245.75 155.75 245.75 134.5C245.75 113.5 228.75 96.5 207.75 96.5C186.5 96.5 169.5 113.5 169.5 134.5ZM297.75 134.5C297.75 155.75 314.75 172.5 335.75 172.5C357 172.5 374 155.75 374 134.5C374 113.5 357 96.5 335.75 96.5C314.75 96.5 297.75 113.5 297.75 134.5Z" fill="black" fill-opacity="0.85"/>
 </g>
</svg>
