<?xml version="1.0" encoding="UTF-8"?>
<!--Generator: Apple Native CoreSVG 326-->
<!DOCTYPE svg
PUBLIC "-//W3C//DTD SVG 1.1//EN"
       "http://www.w3.org/Graphics/SVG/1.1/DTD/svg11.dtd">
<svg version="1.1" xmlns="http://www.w3.org/2000/svg" xmlns:xlink="http://www.w3.org/1999/xlink" viewBox="0 0 651.25 651.75">
 <g>
  <rect height="651.75" opacity="0" width="651.25" x="0" y="0"/>
  <path d="M651.25 325.75C651.25 505 505 651.25 325.5 651.25C146.25 651.25 0 505 0 325.75C0 146.25 146.25 0 325.5 0C505 0 651.25 146.25 651.25 325.75ZM355 448L325.25 478L295.5 448C290 442.75 281.5 442.5 276 448C270.5 453.75 270.75 462.25 276 467.75L306 497.5L276 527C270.75 532.75 270.5 541.25 276 546.75C281.5 552.25 290 552 295.5 546.75L325.25 516.75L355 546.75C360.5 552 369 552.25 374.75 546.75C380.25 541.25 380 532.75 374.75 527L344.75 497.5L374.75 467.75C380 462.25 380.25 453.75 374.75 448C369 442.5 360.5 442.75 355 448ZM98.25 325.75C98.25 380.25 142.5 424.25 197 424.25C251.25 424.25 295.5 380.25 295.5 325.75C295.5 271.25 251.25 227 197 227C142.5 227 98.25 271.25 98.25 325.75ZM355.75 325.75C355.75 380.25 399.75 424.25 454.25 424.25C508.75 424.25 553 380.25 553 325.75C553 271.25 508.75 227 454.25 227C399.75 227 355.75 271.25 355.75 325.75ZM355 104.25L325.25 134.25L295.5 104.25C289.75 98.75 281.5 98.75 276 104.25C270.75 109.75 270.75 118.25 276 124L306 153.5L276 183.25C270.75 188.75 270.75 197.25 276 203C281.5 208.25 290 208.25 295.5 203L325.25 173L355 203C360.5 208.25 369 208.25 374.75 203C380.25 197.25 380.25 189 374.75 183.25L344.75 153.5L374.75 124C380.25 118 380.25 109.75 374.75 104.25C369 98.75 360.75 98.75 355 104.25Z" fill="black" fill-opacity="0.85"/>
 </g>
</svg>
