<?xml version="1.0" encoding="UTF-8"?>
<!--Generator: Apple Native CoreSVG 326-->
<!DOCTYPE svg
PUBLIC "-//W3C//DTD SVG 1.1//EN"
       "http://www.w3.org/Graphics/SVG/1.1/DTD/svg11.dtd">
<svg version="1.1" xmlns="http://www.w3.org/2000/svg" xmlns:xlink="http://www.w3.org/1999/xlink" viewBox="0 0 816.5 815.75">
 <g>
  <rect height="815.75" opacity="0" width="816.5" x="0" y="0"/>
  <path d="M432.5 719.5L432.5 792.25C432.5 805 421.75 815.75 408.75 815.75C396 815.75 385.25 805 385.25 792.25L385.25 719.5C385.25 706.5 396 695.75 408.75 695.75C421.75 695.75 432.5 706.5 432.5 719.5ZM645.5 611.5L697 663C706 672 706 687.25 697 696.25C688 705.5 672.5 705.5 663.5 696.25L612 645C603 636 603 620.25 612 611.5C621 602.25 636.5 602.25 645.5 611.5ZM204.5 611.5C213.75 620.25 213.75 636 204.5 645L153 696.25C144 705.5 128.5 705.5 119.75 696.25C110.5 687.25 110.5 672 119.75 663L171 611.5C180 602.25 195.5 602.25 204.5 611.5ZM524.75 120.75L524.75 204.75C594.75 245.75 642.25 321.75 642.25 407.75C642.25 536 536.25 642 408 642C279.75 642 173.75 536 173.75 407.75C173.75 321.25 222 245 292.5 204.25L292.5 120.75C292.5 81.75 316.25 58.25 355.25 58.25L462.25 58.25C501.25 58.25 524.75 81.75 524.75 120.75ZM375.75 514.5C375.75 531.75 391 546.25 408.5 546.25C426 546.25 441.25 532 441.25 514.5C441.25 496.75 426.25 482.75 408.5 482.75C390.75 482.75 375.75 497 375.75 514.5ZM382.25 293L386 421.5C386.5 436.5 394.5 445 408.75 445C422.5 445 430.5 436.75 431 421.5L435 293.25C435.5 277.25 424 266 408.5 266C392.75 266 381.75 277 382.25 293ZM816.5 407.75C816.5 420.5 805.75 431.25 792.75 431.25L720 431.25C707.25 431.25 696.5 420.5 696.5 407.75C696.5 394.75 707.25 384 720 384L792.75 384C805.75 384 816.5 394.75 816.5 407.75ZM120 407.75C120 420.5 109.25 431.25 96.5 431.25L23.75 431.25C10.75 431.25 0 420.5 0 407.75C0 394.75 10.75 384 23.75 384L96.5 384C109.25 384 120 394.75 120 407.75ZM697 119C706 128 706 143.25 697 152.25L645.5 204C636.5 213 621 213 612 204C603 195 603 179.25 612 170.5L663.5 119C672.5 110 688 110 697 119ZM153 119L204.5 170.5C213.75 179.25 213.75 195 204.5 204C195.5 213 180 213 171 204L119.75 152.25C110.5 143.25 110.5 128 119.75 119C128.5 110 144 110 153 119Z" fill="black" fill-opacity="0.85"/>
 </g>
</svg>
