<?xml version="1.0" encoding="UTF-8"?>
<!--Generator: Apple Native CoreSVG 326-->
<!DOCTYPE svg
PUBLIC "-//W3C//DTD SVG 1.1//EN"
       "http://www.w3.org/Graphics/SVG/1.1/DTD/svg11.dtd">
<svg version="1.1" xmlns="http://www.w3.org/2000/svg" xmlns:xlink="http://www.w3.org/1999/xlink" viewBox="0 0 1024.55 911.688">
 <g>
  <rect height="911.688" opacity="0" width="1024.55" x="0" y="0"/>
  <path d="M846.648 306.219C894.148 306.219 932.148 266.719 932.148 220.719C932.148 172.719 894.148 133.719 846.648 133.719C798.648 133.719 760.398 172.719 760.398 220.719C760.398 268.469 798.648 306.219 846.648 306.219ZM334.648 760.219C351.148 777.469 379.398 775.969 399.648 755.219L536.398 613.969C540.898 609.219 544.148 607.969 551.148 610.719L659.648 651.969C727.898 677.969 791.648 653.969 822.648 597.719L889.648 475.719C916.648 426.719 907.898 376.719 861.648 352.219C816.898 327.469 770.148 345.969 743.148 395.719L654.148 558.219L578.398 530.719C540.648 516.969 509.398 521.219 479.648 552.219L337.648 699.219C317.898 719.469 319.648 744.969 334.648 760.219Z" fill="black" fill-opacity="0.85"/>
  <path d="M5.14821 230.969L91.6482 341.969C95.6482 346.719 101.398 347.969 106.648 344.969C127.148 334.219 156.898 326.719 180.398 326.719C204.148 326.719 234.148 334.219 254.148 344.969C259.898 347.969 265.898 346.719 269.398 341.969L356.148 230.969C363.898 220.719 362.648 210.469 353.148 203.219C317.148 175.969 249.648 155.219 180.398 155.219C111.648 155.219 43.8982 175.969 8.14821 203.219C-1.60179 210.469-2.60179 220.969 5.14821 230.969ZM96.1482 408.219C86.3982 395.469 82.3982 383.469 82.3982 370.219C82.3982 341.219 106.648 332.219 106.648 314.969C106.648 297.469 82.3982 289.219 82.3982 259.219C82.3982 246.219 86.3982 234.219 96.3982 221.469C106.648 208.969 125.398 222.219 115.398 235.719C108.148 245.469 106.148 251.219 106.148 259.219C106.148 280.969 130.398 287.469 130.398 314.969C130.398 342.719 106.148 349.469 106.148 370.219C106.148 378.969 108.148 384.219 115.398 393.969C124.898 407.219 106.398 420.469 96.1482 408.219ZM170.398 408.219C161.148 395.469 156.898 383.469 156.898 370.219C156.898 341.219 181.148 332.219 181.148 314.969C181.148 297.469 156.898 289.219 156.898 259.219C156.898 246.219 161.148 234.219 170.648 221.469C181.148 208.969 200.148 222.219 190.148 235.719C182.898 245.469 180.648 251.219 180.648 259.219C180.648 280.969 204.898 287.469 204.898 314.969C204.898 342.719 180.648 349.469 180.648 370.219C180.648 378.969 182.898 384.219 189.898 393.969C199.648 407.219 180.648 420.469 170.398 408.219ZM245.648 408.219C235.898 395.469 231.648 383.469 231.648 370.219C231.648 341.219 255.898 332.219 255.898 314.969C255.898 297.469 231.648 289.219 231.648 259.219C231.648 246.219 235.648 234.219 245.648 221.469C255.898 208.969 274.648 222.219 264.648 235.719C257.648 245.469 255.398 251.219 255.398 259.219C255.398 280.969 279.398 287.469 279.398 314.969C279.398 342.719 255.398 349.469 255.398 370.219C255.398 378.969 257.648 384.219 264.398 393.969C274.148 407.219 255.648 420.469 245.648 408.219ZM416.648 218.969C426.398 218.969 434.398 210.969 434.398 200.969L434.398 112.969L481.648 112.969C499.648 112.969 506.898 95.2191 494.898 81.7191L431.148 7.21905C422.398-2.53095 410.898-2.28095 402.648 7.21905L337.648 81.4691C326.398 94.2191 333.148 112.969 351.648 112.969L398.648 112.969L398.898 200.969C398.898 211.219 406.648 219.469 416.648 218.969ZM472.398 255.969C472.648 266.469 480.648 274.469 490.398 274.469L578.398 274.469L578.398 321.219C578.398 338.969 597.148 346.719 610.398 334.969L684.148 270.469C694.148 262.219 693.398 250.719 684.148 242.469L610.398 177.719C597.648 166.219 578.398 173.219 578.398 191.469L578.398 238.219L490.398 238.219C480.398 238.219 472.398 246.219 472.398 255.969Z" fill="black" fill-opacity="0.85"/>
 </g>
</svg>
