<?xml version="1.0" encoding="UTF-8"?>
<!--Generator: Apple Native CoreSVG 326-->
<!DOCTYPE svg
PUBLIC "-//W3C//DTD SVG 1.1//EN"
       "http://www.w3.org/Graphics/SVG/1.1/DTD/svg11.dtd">
<svg version="1.1" xmlns="http://www.w3.org/2000/svg" xmlns:xlink="http://www.w3.org/1999/xlink" viewBox="0 0 767.269 644.25">
 <g>
  <rect height="644.25" opacity="0" width="767.269" x="0" y="0"/>
  <path d="M602.635 172.5C650.135 172.5 688.135 133 688.135 87C688.135 39 650.135-5.68434e-14 602.635-5.68434e-14C554.635-5.68434e-14 516.385 39 516.385 87C516.385 134.75 554.635 172.5 602.635 172.5ZM90.6346 626.5C107.135 643.75 135.385 642.25 155.635 621.5L292.385 480.25C296.885 475.5 300.135 474.25 307.135 477L415.635 518.25C483.885 544.25 547.635 520.25 578.635 464L645.635 342C672.635 293 663.885 243 617.635 218.5C572.635 193.75 526.135 212.25 499.135 262L410.135 424.5L334.385 397C296.635 383.25 265.385 387.5 235.635 418.5L93.6346 565.5C73.8846 585.75 75.6346 611.25 90.6346 626.5Z" fill="black" fill-opacity="0.85"/>
  <path d="M6.13463 101.25L108.385 232C112.635 237.5 119.635 239 126.385 235.5C150.135 222.75 185.135 213.75 213.135 213.75C240.885 213.75 276.135 222.75 299.885 235.5C306.635 239 313.635 237.5 317.885 232L420.135 101.25C429.635 89.25 427.885 77 416.385 68C374.385 36.25 294.885 11.5 213.135 11.5C131.385 11.5 51.8846 36.25 9.88463 68C-1.61537 77-3.36537 89.25 6.13463 101.25ZM113.885 309.75C102.385 294.75 97.3846 281 97.3846 265.25C97.3846 230.75 126.135 220.5 126.135 200C126.135 179.25 97.3846 169.25 97.3846 134.25C97.3846 119 102.135 105.25 113.885 90.25C125.885 75.25 147.635 91 136.135 106.5C127.385 118.25 125.135 124.75 125.135 134.25C125.135 159.75 153.635 167.5 153.635 200C153.635 233 125.135 240.25 125.135 265.25C125.135 275.25 127.385 281.75 135.885 293C147.385 308.5 125.635 324 113.885 309.75ZM201.635 309.75C190.135 294.75 185.385 281 185.385 265.25C185.385 230.75 214.135 220.5 214.135 200C214.135 179.25 185.385 169.25 185.385 134.25C185.385 119 190.135 105.25 201.885 90.25C213.885 75.25 235.635 91 223.885 106.5C215.385 118.25 212.885 124.75 212.885 134.25C212.885 159.75 241.385 167.5 241.385 200C241.385 233 212.885 240.25 212.885 265.25C212.885 275.25 215.385 281.75 223.635 293C235.135 308.5 213.635 324 201.635 309.75ZM289.885 309.75C278.385 294.75 273.385 281 273.385 265.25C273.385 230.75 302.135 220.5 302.135 200C302.135 179.25 273.385 169.25 273.385 134.25C273.385 119 278.135 105.25 289.885 90.25C301.885 75.25 323.635 91 312.135 106.5C303.385 118.25 301.135 124.75 301.135 134.25C301.135 159.75 329.635 167.5 329.635 200C329.635 233 301.135 240.25 301.135 265.25C301.135 275.25 303.385 281.75 311.885 293C323.385 308.5 301.635 324 289.885 309.75Z" fill="black" fill-opacity="0.85"/>
 </g>
</svg>
