<?xml version="1.0" encoding="UTF-8"?>
<!--Generator: Apple Native CoreSVG 326-->
<!DOCTYPE svg
PUBLIC "-//W3C//DTD SVG 1.1//EN"
       "http://www.w3.org/Graphics/SVG/1.1/DTD/svg11.dtd">
<svg version="1.1" xmlns="http://www.w3.org/2000/svg" xmlns:xlink="http://www.w3.org/1999/xlink" viewBox="0 0 609.071 644.25">
 <g>
  <rect height="644.25" opacity="0" width="609.071" x="0" y="0"/>
  <path d="M523.535 172.5C571.035 172.5 609.035 133 609.035 87C609.035 39 571.035-5.68434e-14 523.535-5.68434e-14C475.535-5.68434e-14 437.285 39 437.285 87C437.285 134.75 475.535 172.5 523.535 172.5ZM11.5355 626.5C28.0355 643.75 56.2855 642.25 76.5355 621.5L213.285 480.25C217.785 475.5 221.035 474.25 228.035 477L336.535 518.25C404.785 544.25 468.535 520.25 499.535 464L566.785 342C593.535 293 584.785 243 538.535 218.5C493.785 193.75 447.035 212.25 420.035 262L331.035 424.5L255.285 397C217.535 383.25 186.285 387.5 156.535 418.5L14.5355 565.5C-5.21453 585.75-3.46453 611.25 11.5355 626.5Z" fill="black" fill-opacity="0.85"/>
  <path d="M55.2855 307C65.5355 307 72.2855 302.25 76.5355 289.25L102.285 216.75L220.035 216.75L245.785 289.25C250.035 302.25 257.035 307 267.285 307C279.535 307 287.785 299.25 287.785 288C287.785 283.75 286.785 279.75 284.785 273.75L191.785 25C186.535 10.75 176.035 3.5 161.035 3.5C146.035 3.5 135.785 10.75 130.535 25L37.7855 273.75C35.5355 279.75 34.5355 283.75 34.5355 287.75C34.5355 299.25 42.7855 307 55.2855 307ZM113.785 182.75L159.785 52.5L162.785 52.5L208.535 182.75Z" fill="black" fill-opacity="0.85"/>
 </g>
</svg>
