<?xml version="1.0" encoding="UTF-8"?>
<!--Generator: Apple Native CoreSVG 326-->
<!DOCTYPE svg
PUBLIC "-//W3C//DTD SVG 1.1//EN"
       "http://www.w3.org/Graphics/SVG/1.1/DTD/svg11.dtd">
<svg version="1.1" xmlns="http://www.w3.org/2000/svg" xmlns:xlink="http://www.w3.org/1999/xlink" viewBox="0 0 767.269 644.25">
 <g>
  <rect height="644.25" opacity="0" width="767.269" x="0" y="0"/>
  <path d="M164.635 172.5C117.135 172.5 78.8846 133 78.8846 87C78.8846 39 117.135-5.68434e-14 164.635-5.68434e-14C212.635-5.68434e-14 250.885 39 250.885 87C250.885 134.75 212.635 172.5 164.635 172.5ZM676.385 626.5C660.135 643.75 631.885 642.25 611.635 621.5L474.885 480.25C470.385 475.5 467.135 474.25 460.135 477L351.635 518.25C283.385 544.25 219.385 520.25 188.635 464L121.385 342C94.6346 293 103.385 243 149.635 218.5C194.385 193.75 240.885 212.25 268.135 262L357.135 424.5L432.885 397C470.385 383.25 501.635 387.5 531.635 418.5L673.635 565.5C693.385 585.75 691.385 611.25 676.385 626.5Z" fill="black" fill-opacity="0.85"/>
  <path d="M346.885 101.25L449.135 232C453.635 237.5 460.635 239 467.135 235.5C490.885 222.75 526.135 213.75 554.135 213.75C581.885 213.75 617.135 222.75 640.885 235.5C647.385 239 654.635 237.5 658.885 232L761.135 101.25C770.635 89.25 768.885 77 757.385 68C715.135 36.25 635.635 11.5 554.135 11.5C472.385 11.5 392.885 36.25 350.635 68C339.135 77 337.635 89.25 346.885 101.25ZM454.885 309.75C443.385 294.75 438.385 281 438.385 265.25C438.385 230.75 467.135 220.5 467.135 200C467.135 179.25 438.385 169.25 438.385 134.25C438.385 119 443.135 105.25 454.885 90.25C466.885 75.25 488.635 91 476.885 106.5C468.385 118.25 466.135 124.75 466.135 134.25C466.135 159.75 494.385 167.5 494.385 200C494.385 233 466.135 240.25 466.135 265.25C466.135 275.25 468.385 281.75 476.885 293C488.135 308.5 466.635 324 454.885 309.75ZM542.635 309.75C531.135 294.75 526.385 281 526.385 265.25C526.385 230.75 555.135 220.5 555.135 200C555.135 179.25 526.385 169.25 526.385 134.25C526.385 119 531.135 105.25 542.885 90.25C554.885 75.25 576.635 91 564.885 106.5C556.385 118.25 553.885 124.75 553.885 134.25C553.885 159.75 582.385 167.5 582.385 200C582.385 233 553.885 240.25 553.885 265.25C553.885 275.25 556.385 281.75 564.635 293C576.135 308.5 554.385 324 542.635 309.75ZM630.885 309.75C619.385 294.75 614.385 281 614.385 265.25C614.385 230.75 643.135 220.5 643.135 200C643.135 179.25 614.385 169.25 614.385 134.25C614.385 119 619.135 105.25 630.885 90.25C642.885 75.25 664.635 91 652.885 106.5C644.385 118.25 642.135 124.75 642.135 134.25C642.135 159.75 670.385 167.5 670.385 200C670.385 233 642.135 240.25 642.135 265.25C642.135 275.25 644.385 281.75 652.885 293C664.135 308.5 642.635 324 630.885 309.75Z" fill="black" fill-opacity="0.85"/>
 </g>
</svg>
