<?xml version="1.0" encoding="UTF-8"?>
<!--Generator: Apple Native CoreSVG 326-->
<!DOCTYPE svg
PUBLIC "-//W3C//DTD SVG 1.1//EN"
       "http://www.w3.org/Graphics/SVG/1.1/DTD/svg11.dtd">
<svg version="1.1" xmlns="http://www.w3.org/2000/svg" xmlns:xlink="http://www.w3.org/1999/xlink" viewBox="0 0 707.595 680.132">
 <g>
  <rect height="680.132" opacity="0" width="707.595" x="0" y="0"/>
  <path d="M572.797 190.441C620.297 190.441 658.297 150.941 658.297 104.941C658.297 56.9409 620.297 17.9409 572.797 17.9409C524.797 17.9409 486.547 56.9409 486.547 104.941C486.547 152.691 524.797 190.441 572.797 190.441ZM60.7974 644.441C77.2974 661.691 105.547 660.191 125.797 639.441L262.547 498.191C267.047 493.441 270.297 492.191 277.297 494.941L385.797 536.191C454.047 562.191 517.797 538.191 548.797 481.941L615.797 359.941C642.797 310.941 634.047 260.941 587.797 236.441C542.797 211.691 496.297 230.191 469.297 279.941L380.297 442.441L304.547 414.941C266.797 401.191 235.547 405.441 205.797 436.441L63.7974 583.441C44.0474 603.691 45.7974 629.191 60.7974 644.441Z" fill="black" fill-opacity="0.85"/>
  <path d="M126.547 130.441L135.547 149.941L74.2974 215.441L21.5474 241.191C1.29742 250.941-4.20258 269.941 3.04742 285.441C10.2974 301.441 28.2974 310.441 51.2974 299.441L95.0474 278.441L192.797 272.941L203.297 294.941C207.547 304.191 218.547 308.191 227.547 303.941C236.797 299.691 240.797 288.691 236.547 279.691L159.797 115.191C155.547 105.941 144.797 101.941 135.547 106.191C126.297 110.441 122.297 121.441 126.547 130.441ZM230.297 122.191L321.547 82.4409C333.047 77.4409 335.547 64.9409 323.797 56.6909L247.297 3.44086C236.797-4.05914 224.797 1.19086 223.047 14.4409L210.047 106.191C208.047 120.191 217.797 127.691 230.297 122.191ZM269.797 207.941C257.797 213.191 256.297 225.441 268.047 233.941L344.547 286.941C354.797 294.441 366.547 288.941 368.297 276.191L381.797 184.191C383.797 169.691 373.547 162.941 361.047 168.191Z" fill="black" fill-opacity="0.85"/>
 </g>
</svg>
