<?xml version="1.0" encoding="UTF-8"?>
<!--Generator: Apple Native CoreSVG 326-->
<!DOCTYPE svg
PUBLIC "-//W3C//DTD SVG 1.1//EN"
       "http://www.w3.org/Graphics/SVG/1.1/DTD/svg11.dtd">
<svg version="1.1" xmlns="http://www.w3.org/2000/svg" xmlns:xlink="http://www.w3.org/1999/xlink" viewBox="0 0 651.25 651.75">
 <g>
  <rect height="651.75" opacity="0" width="651.25" x="0" y="0"/>
  <path d="M651.25 325.75C651.25 505 505 651.25 325.5 651.25C146.25 651.25 0 505 0 325.75C0 146.25 146.25 0 325.5 0C505 0 651.25 146.25 651.25 325.75ZM325.5 236.25C315.25 236.25 305.75 234.25 297.25 230.25C283.5 231.75 271 235 257.5 240.25L201.25 263.75C188 268.75 184.25 279.75 187.25 288.75C190 297.75 199.75 304.75 213.25 299L266.75 277.5C272.25 275.5 276.5 278.25 276.5 283.75C276.5 304.5 277.75 345.5 275 361.75C271.25 384 244.75 484.5 243 494.5C239.5 519 275.25 528 281.75 501.75L312.75 383.25C314.75 376 319.5 372.5 325.5 372.5C331.75 372.5 336.25 376 338.5 383.25L369.25 501.75C376 528 411.75 519 408 494.5C406.5 484.5 379.75 384 376.25 361.75C373.5 345.5 374.5 304.5 374.5 283.75C374.5 278.25 379 275.5 384.25 277.5L437.75 299C451.25 304.75 461 297.75 464 288.75C467 279.75 463.25 268.75 450 263.75L393.5 240.25C380 235 367.75 231.75 354 230.25C345.25 234.25 335.75 236.25 325.5 236.25ZM280.5 168.5C280.5 193.5 301 213.5 325.75 213.5C350.75 213.5 370.75 193.5 370.75 168.5C370.75 143.25 350.75 123 325.75 123C301 123 280.5 143.25 280.5 168.5Z" fill="black" fill-opacity="0.85"/>
 </g>
</svg>
