<?xml version="1.0" encoding="UTF-8"?>
<!--Generator: Apple Native CoreSVG 326-->
<!DOCTYPE svg
PUBLIC "-//W3C//DTD SVG 1.1//EN"
       "http://www.w3.org/Graphics/SVG/1.1/DTD/svg11.dtd">
<svg version="1.1" xmlns="http://www.w3.org/2000/svg" xmlns:xlink="http://www.w3.org/1999/xlink" viewBox="0 0 756.003 901.894">
 <g>
  <rect height="901.894" opacity="0" width="756.003" x="0" y="0"/>
  <path d="M156.751 301.322C109.251 301.322 71.0015 261.822 71.0015 215.822C71.0015 167.822 109.251 128.822 156.751 128.822C204.751 128.822 243.001 167.822 243.001 215.822C243.001 263.572 204.751 301.322 156.751 301.322ZM668.501 755.322C652.251 772.572 624.001 771.072 603.751 750.322L467.001 609.072C462.501 604.322 459.251 603.072 452.251 605.822L343.751 647.072C275.501 673.072 211.501 649.072 180.751 592.822L113.501 470.822C86.7515 421.822 95.5015 371.822 141.751 347.322C186.501 322.572 233.001 341.072 260.251 390.822L349.251 553.322L425.001 525.822C462.501 512.072 493.751 516.322 523.751 547.322L665.751 694.322C685.501 714.572 683.501 740.072 668.501 755.322Z" fill="black" fill-opacity="0.85"/>
  <path d="M750.251 198.322C758.001 190.572 758.001 177.572 749.751 169.572L660.001 79.8221L696.251 43.3221C710.751 28.5721 701.001 8.82212 682.001 7.57212L573.501 0.0721182C559.501-0.927882 550.751 8.57212 551.501 22.3221L559.251 130.322C560.251 150.572 581.001 158.822 595.001 144.822L631.251 108.572L721.251 198.322C729.251 206.322 742.251 206.322 750.251 198.322ZM641.001 254.322C641.001 243.322 632.001 234.322 620.251 234.322L493.251 234.322L493.251 183.072C493.251 162.322 472.001 154.822 457.751 167.822L376.001 239.072C365.501 248.322 365.501 260.822 376.001 270.322L457.751 341.572C472.501 355.072 493.251 346.072 493.251 326.322L493.251 275.072L620.251 275.072C632.001 275.072 641.001 266.072 641.001 254.322ZM750.251 310.322C742.251 302.322 729.251 302.322 721.251 310.322L631.251 400.072L595.001 363.822C581.001 349.822 560.251 358.072 559.251 378.322L551.501 486.572C550.751 500.072 559.501 509.572 573.501 508.572L682.001 501.072C701.001 499.822 710.751 480.072 696.251 465.322L660.001 428.822L749.751 339.072C758.001 331.072 758.001 318.322 750.251 310.322Z" fill="black" fill-opacity="0.85"/>
 </g>
</svg>
