<?xml version="1.0" encoding="UTF-8"?>
<!--Generator: Apple Native CoreSVG 326-->
<!DOCTYPE svg
PUBLIC "-//W3C//DTD SVG 1.1//EN"
       "http://www.w3.org/Graphics/SVG/1.1/DTD/svg11.dtd">
<svg version="1.1" xmlns="http://www.w3.org/2000/svg" xmlns:xlink="http://www.w3.org/1999/xlink" viewBox="0 0 766.447 733.513">
 <g>
  <rect height="733.513" opacity="0" width="766.447" x="0" y="0"/>
  <path d="M545.473 221.382L545.473 298.22C582.216 302.745 602.473 327.924 602.473 371.132L602.473 598.632C602.473 646.632 577.473 672.382 532.723 672.382L341.523 672.382C341.716 666.07 340.972 659.296 339.223 652.132L334.029 630.632L531.723 630.632C547.973 630.632 557.973 619.632 557.973 601.382L557.973 368.132C557.973 349.882 547.973 339.132 531.723 339.132L322.973 339.132L286.723 324.132C291.281 315.831 294.566 306.895 296.276 297.382L501.723 297.382L501.723 216.382C501.723 133.132 448.473 85.8816 383.223 85.8816C319.305 85.8816 267.528 130.877 265.208 210.515C253.514 200.38 239.215 193.192 223.404 190C235.626 94.122 304.918 44.1316 383.223 44.1316C469.473 44.1316 545.473 105.132 545.473 221.382Z" fill="black" fill-opacity="0.85"/>
  <path d="M204.723 334.632C234.473 334.632 257.973 310.882 257.973 281.632C257.973 251.882 234.473 227.882 204.723 227.882C175.473 227.882 151.223 251.882 151.223 281.632C151.223 310.882 175.473 334.632 204.723 334.632ZM204.473 522.632C211.723 522.632 217.473 527.132 219.723 535.382L256.223 675.382C264.223 706.132 306.223 695.382 301.973 666.882C299.723 654.632 268.723 536.132 263.973 509.882C260.973 490.882 262.223 442.382 262.223 417.382C262.223 411.382 267.473 407.632 273.723 410.132L336.723 435.632C352.973 442.382 364.473 434.632 367.973 423.882C371.473 413.132 366.973 400.132 351.473 393.882L284.973 366.632C268.973 360.132 254.223 356.382 237.723 354.382C227.473 359.132 216.473 361.882 204.473 361.882C192.473 361.882 181.223 359.132 170.973 354.382C154.723 356.382 139.723 360.132 123.973 366.632L57.4734 393.882C41.9734 400.132 37.4734 413.132 40.9734 423.882C44.2234 434.632 55.7234 442.382 72.2234 435.632L135.223 410.132C141.223 407.632 146.723 411.382 146.723 417.382C146.723 442.382 147.973 490.882 144.723 509.882C140.223 536.132 108.973 654.632 106.973 666.882C102.723 695.382 144.723 706.132 152.723 675.382L189.223 535.382C191.473 527.132 197.223 522.632 204.473 522.632Z" fill="black" fill-opacity="0.85"/>
 </g>
</svg>
