<?xml version="1.0" encoding="UTF-8"?>
<!--Generator: Apple Native CoreSVG 326-->
<!DOCTYPE svg
PUBLIC "-//W3C//DTD SVG 1.1//EN"
       "http://www.w3.org/Graphics/SVG/1.1/DTD/svg11.dtd">
<svg version="1.1" xmlns="http://www.w3.org/2000/svg" xmlns:xlink="http://www.w3.org/1999/xlink" viewBox="0 0 609.25 683.438">
 <g>
  <rect height="683.438" opacity="0" width="609.25" x="0" y="0"/>
  <path d="M85.75 192.094C38.25 192.094 0 152.594 0 106.594C0 58.594 38.25 19.594 85.75 19.594C133.5 19.594 171.75 58.594 171.75 106.594C171.75 154.344 133.5 192.094 85.75 192.094ZM597.5 646.094C581 663.344 552.75 661.844 532.5 641.094L396 499.844C391.25 495.094 388 493.844 381 496.594L272.75 537.844C204.25 563.844 140.5 539.844 109.75 483.594L42.5 361.594C15.75 312.594 24.25 262.594 70.75 238.094C115.5 213.344 162 231.844 189 281.594L278.25 444.094L354 416.594C391.5 402.844 422.75 407.094 452.5 438.094L594.5 585.094C614.5 605.344 612.5 630.844 597.5 646.094Z" fill="black" fill-opacity="0.85"/>
  <path d="M609.25 108.344C609.25 95.344 599 85.094 585.75 85.094L435.5 85.094L435.5 25.094C435.5 0.843965 411-7.40603 394.25 7.34397L298.75 90.344C286.25 101.344 286.5 116.344 298.75 126.844L394.25 210.094C411.75 225.594 435.5 215.344 435.5 192.344L435.5 131.594L585.75 131.594C599 131.594 609.25 121.344 609.25 108.344Z" fill="black" fill-opacity="0.85"/>
 </g>
</svg>
