<?xml version="1.0" encoding="UTF-8"?>
<!--Generator: Apple Native CoreSVG 326-->
<!DOCTYPE svg
PUBLIC "-//W3C//DTD SVG 1.1//EN"
       "http://www.w3.org/Graphics/SVG/1.1/DTD/svg11.dtd">
<svg version="1.1" xmlns="http://www.w3.org/2000/svg" xmlns:xlink="http://www.w3.org/1999/xlink" viewBox="0 0 995.749 733.513">
 <g>
  <rect height="733.513" opacity="0" width="995.749" x="0" y="0"/>
  <path d="M832.124 221.632L832.124 287.882C832.124 304.632 821.874 312.132 810.124 312.132C798.124 312.132 788.124 303.882 788.124 287.882L788.124 216.632C788.124 133.382 735.124 86.1316 669.624 86.1316C604.624 86.1316 551.624 133.382 551.624 216.632L551.624 299.235C584.412 305.744 602.374 330.444 602.374 371.132L602.374 598.632C602.374 646.632 577.374 672.382 532.624 672.382L341.674 672.382C341.867 666.07 341.123 659.296 339.374 652.132L334.18 630.632L531.624 630.632C547.874 630.632 557.874 619.632 557.874 601.382L557.874 368.132C557.874 349.882 547.874 339.132 531.624 339.132L323.011 339.132L286.874 324.132C291.432 315.831 294.717 306.895 296.427 297.382L507.624 297.382L507.624 221.632C507.624 105.382 583.374 44.3816 669.624 44.3816C756.124 44.3816 832.124 105.382 832.124 221.632Z" fill="black" fill-opacity="0.85"/>
  <path d="M204.874 334.632C234.624 334.632 257.874 310.882 257.874 281.632C257.874 251.882 234.624 227.882 204.874 227.882C175.624 227.882 151.374 251.882 151.374 281.632C151.374 310.882 175.624 334.632 204.874 334.632ZM204.624 522.632C211.624 522.632 217.624 527.132 219.624 535.382L256.124 675.382C264.374 706.132 306.374 695.382 301.874 666.882C299.874 654.632 268.624 536.132 264.124 509.882C261.124 490.882 262.374 442.382 262.374 417.382C262.374 411.382 267.624 407.632 273.874 410.132L336.874 435.632C353.124 442.382 364.624 434.632 367.874 423.882C371.624 413.132 366.874 400.132 351.374 393.882L284.874 366.632C268.874 360.132 254.124 356.382 237.874 354.382C227.624 359.132 216.624 361.882 204.624 361.882C192.374 361.882 181.374 359.132 171.124 354.382C154.874 356.382 139.874 360.132 124.124 366.632L57.6245 393.882C42.1245 400.132 37.3745 413.132 41.1245 423.882C44.3745 434.632 55.8745 442.382 72.1245 435.632L135.124 410.132C141.374 407.632 146.624 411.382 146.624 417.382C146.624 442.382 148.124 490.882 144.874 509.882C140.374 536.132 109.124 654.632 107.124 666.882C102.624 695.382 144.874 706.132 152.874 675.382L189.374 535.382C191.624 527.132 197.374 522.632 204.624 522.632Z" fill="black" fill-opacity="0.85"/>
 </g>
</svg>
