<?xml version="1.0" encoding="UTF-8"?>
<!--Generator: Apple Native CoreSVG 326-->
<!DOCTYPE svg
PUBLIC "-//W3C//DTD SVG 1.1//EN"
       "http://www.w3.org/Graphics/SVG/1.1/DTD/svg11.dtd">
<svg version="1.1" xmlns="http://www.w3.org/2000/svg" xmlns:xlink="http://www.w3.org/1999/xlink" viewBox="0 0 835.853 644.25">
 <g>
  <rect height="644.25" opacity="0" width="835.853" x="0" y="0"/>
  <path d="M636.926 172.5C684.426 172.5 722.426 133 722.426 87C722.426 39 684.426-5.68434e-14 636.926-5.68434e-14C588.926-5.68434e-14 550.676 39 550.676 87C550.676 134.75 588.926 172.5 636.926 172.5ZM124.926 626.5C141.426 643.75 169.676 642.25 189.926 621.5L326.676 480.25C331.176 475.5 334.426 474.25 341.426 477L449.926 518.25C518.176 544.25 581.926 520.25 612.926 464L679.926 342C706.926 293 698.176 243 651.926 218.5C606.926 193.75 560.426 212.25 533.426 262L444.426 424.5L368.676 397C330.926 383.25 299.676 387.5 269.926 418.5L127.926 565.5C108.176 585.75 109.926 611.25 124.926 626.5Z" fill="black" fill-opacity="0.85"/>
  <path d="M152.676 125.5C152.676 137.25 161.676 146.25 173.176 146.25L300.426 146.25L300.426 197.5C300.426 217.25 320.926 226.25 335.926 212.75L417.676 141.5C428.176 132 427.926 119.5 417.676 110.25L335.926 39C321.426 26 300.426 33.5 300.426 54.25L300.426 105.5L173.176 105.5C161.676 105.5 152.676 114.5 152.676 125.5ZM93.1764 160.5C81.9264 160.5 72.9264 169.5 72.9264 181L72.9264 308L21.9264 308.25C0.926436 308.5-6.57356 329.25 6.42644 343.5L77.9264 425.5C87.1764 436.25 100.176 435.75 109.176 425.5L180.176 343.5C193.426 328.5 184.926 308 164.926 308L113.426 308L113.426 181C113.426 169.5 104.426 160.5 93.1764 160.5Z" fill="black" fill-opacity="0.85"/>
 </g>
</svg>
