<?xml version="1.0" encoding="UTF-8"?>
<!--Generator: Apple Native CoreSVG 326-->
<!DOCTYPE svg
PUBLIC "-//W3C//DTD SVG 1.1//EN"
       "http://www.w3.org/Graphics/SVG/1.1/DTD/svg11.dtd">
<svg version="1.1" xmlns="http://www.w3.org/2000/svg" xmlns:xlink="http://www.w3.org/1999/xlink" viewBox="0 0 609.071 655.25">
 <g>
  <rect height="655.25" opacity="0" width="609.071" x="0" y="0"/>
  <path d="M523.535 178C571.035 178 609.035 138.5 609.035 92.5C609.035 44.5 571.035 5.5 523.535 5.5C475.535 5.5 437.285 44.5 437.285 92.5C437.285 140.25 475.535 178 523.535 178ZM11.5355 632C28.0355 649.25 56.2855 647.75 76.5355 627L213.285 485.75C217.785 481 221.035 479.75 228.035 482.5L336.535 523.75C404.785 549.75 468.535 525.75 499.535 469.5L566.785 347.5C593.535 298.5 584.785 248.5 538.535 224C493.785 199.25 447.035 217.75 420.035 267.5L331.035 430L255.285 402.5C217.535 388.75 186.285 393 156.535 424L14.5355 571C-5.21453 591.25-3.46453 616.75 11.5355 632Z" fill="black" fill-opacity="0.85"/>
  <path d="M5.03547 205.75C5.03547 252.5 47.2855 299.5 88.0355 299.5C124.035 299.5 143.035 268 162.535 210L172.035 208.5L172.035 272C172.035 298.25 185.535 311.5 211.035 311.5C257.535 311.5 304.535 269.5 304.535 228.75C304.535 192.5 273.035 174 214.785 154.25L213.535 144.75L276.785 144.75C303.285 144.75 316.535 131.25 316.535 106C316.535 59 274.535 12 233.535 12C197.535 12 178.785 43.75 159.285 102.25L149.785 103.25L149.785 39.75C149.785 13.75 136.535-5.68434e-14 111.035-5.68434e-14C64.0355-5.68434e-14 17.0355 42.25 17.0355 83C17.0355 119 49.0355 137.75 107.285 157.25L108.035 167L44.7855 167C18.7855 167 5.03547 180.5 5.03547 205.75ZM160.785 188.25C143.035 188.25 128.285 173.75 128.285 155.75C128.285 138 143.035 123.5 160.785 123.5C178.535 123.5 193.285 138 193.285 155.75C193.285 173.75 178.535 188.25 160.785 188.25Z" fill="black" fill-opacity="0.85"/>
 </g>
</svg>
