<?xml version="1.0" encoding="UTF-8"?>
<!--Generator: Apple Native CoreSVG 326-->
<!DOCTYPE svg
PUBLIC "-//W3C//DTD SVG 1.1//EN"
       "http://www.w3.org/Graphics/SVG/1.1/DTD/svg11.dtd">
<svg version="1.1" xmlns="http://www.w3.org/2000/svg" xmlns:xlink="http://www.w3.org/1999/xlink" viewBox="0 0 609.071 647.813">
 <g>
  <rect height="647.813" opacity="0" width="609.071" x="0" y="0"/>
  <path d="M523.535 174.281C571.035 174.281 609.035 134.781 609.035 88.7815C609.035 40.7815 571.035 1.78149 523.535 1.78149C475.535 1.78149 437.285 40.7815 437.285 88.7815C437.285 136.531 475.535 174.281 523.535 174.281ZM11.5355 628.281C28.0355 645.531 56.2855 644.031 76.5355 623.281L213.285 482.031C217.785 477.281 221.035 476.031 228.035 478.781L336.535 520.031C404.785 546.031 468.535 522.031 499.535 465.781L566.785 343.781C593.535 294.781 584.785 244.781 538.535 220.281C493.785 195.531 447.035 214.031 420.035 263.781L331.035 426.281L255.285 398.781C217.535 385.031 186.285 389.281 156.535 420.281L14.5355 567.281C-5.21453 587.531-3.46453 613.031 11.5355 628.281Z" fill="black" fill-opacity="0.85"/>
  <path d="M109.285 319.781C122.285 319.781 132.535 309.531 132.535 296.281L132.535 146.031L192.535 146.031C216.785 146.031 225.035 121.531 210.285 104.781L127.285 9.28149C116.285-3.21851 101.035-2.96851 90.5355 9.28149L7.53547 104.781C-7.96453 122.281 2.28547 146.031 25.2855 146.031L86.0355 146.031L86.0355 296.281C86.0355 309.531 96.2855 319.781 109.285 319.781Z" fill="black" fill-opacity="0.85"/>
 </g>
</svg>
