<?xml version="1.0" encoding="UTF-8"?>
<!--Generator: Apple Native CoreSVG 326-->
<!DOCTYPE svg
PUBLIC "-//W3C//DTD SVG 1.1//EN"
       "http://www.w3.org/Graphics/SVG/1.1/DTD/svg11.dtd">
<svg version="1.1" xmlns="http://www.w3.org/2000/svg" xmlns:xlink="http://www.w3.org/1999/xlink" viewBox="0 0 838.5 712.25">
 <g>
  <rect height="712.25" opacity="0" width="838.5" x="0" y="0"/>
  <path d="M800.25 566.75C821 566.75 838.5 549.75 838.5 530C838.5 509.5 821.25 493 800.25 493C779.25 493 762.25 509.5 762.25 530C762.25 549.75 779.5 566.75 800.25 566.75ZM800.25 427.5C813.75 427.5 823.25 417.75 823.75 404L829.25 173.75C829.75 156.25 818.25 144.75 800.25 144.75C782.5 144.75 770.75 156.25 771.25 173.75L777 404C777.5 417.75 787 427.5 800.25 427.5Z" fill="black" fill-opacity="0.85"/>
  <path d="M464.25 690.5L464.25 81.5C464.25 29 435.5 0 383 0L128.75 0C75.75 0 47.75 28.75 47.75 81.5L47.75 690.5ZM135.25 290.75C112.25 290.75 98.25 277.5 98.25 256L98.25 85.5C98.25 64 112.25 50.5 135.25 50.5L376.5 50.5C399.25 50.5 413.75 64 413.75 85.5L413.75 256C413.75 277.5 399.25 290.75 376.5 290.75ZM0 689.25C0 701.5 9.75 711.75 21.75 711.75L489.75 711.75C501.75 711.75 512 701.5 512 689.25C512 677.5 501.75 667.5 489.75 667.5L21.75 667.5C10 667.5 0 677.25 0 689.25ZM585 630.75C641.75 630.75 674 592.75 674 525C674 445.25 658.25 353 628.25 207.5L620.25 169C614.25 140.25 606.25 118.25 588.25 96L550.5 48.75C536 30.5 508.5 51.75 524 71L570 129C573 133 573.25 138 570.75 142.25L542.75 194.25C536.5 206 538 214.5 547.5 225L609 290.5C629.25 383.75 639.75 461 639.75 525C639.75 571 620.25 596.75 585 596.75C554.5 596.75 534 576.25 534 542C534 496.5 541.75 433.75 541.75 376.75C541.75 322.5 514.5 281 451.25 259L437.25 290C486.5 306 507.75 337.75 507.75 376.75C507.75 428 500 490.5 500 542C500 597 533.5 630.75 585 630.75Z" fill="black" fill-opacity="0.85"/>
 </g>
</svg>
