<?xml version="1.0" encoding="UTF-8"?>
<!--Generator: Apple Native CoreSVG 326-->
<!DOCTYPE svg
PUBLIC "-//W3C//DTD SVG 1.1//EN"
       "http://www.w3.org/Graphics/SVG/1.1/DTD/svg11.dtd">
<svg version="1.1" xmlns="http://www.w3.org/2000/svg" xmlns:xlink="http://www.w3.org/1999/xlink" viewBox="0 0 955.377 712.25">
 <g>
  <rect height="712.25" opacity="0" width="955.377" x="0" y="0"/>
  <path d="M48.0635 690.75L92.0635 690.75L92.3135 82.25C92.3135 57.5 104.563 44.5 129.813 44.5L392.563 44.5C417.063 44.5 430.313 57.5 430.313 82.25L430.563 690.75L474.813 690.75L474.813 81.5C474.813 29 446.063 0 393.313 0L129.063 0C76.0635 0 48.0635 28.75 48.0635 81.5ZM142.563 290.75L379.813 290.75C392.063 290.75 400.563 281.75 400.563 269.75L400.563 95.25C400.563 83 391.813 74.25 379.813 74.25L142.563 74.25C130.563 74.25 122.063 83 122.063 95.25L122.063 269.75C122.063 281.75 130.563 290.75 142.563 290.75ZM0.0634971 689.5C0.0634971 702 9.8135 712 22.0635 712L500.313 712C512.563 712 522.563 702 522.563 689.5C522.563 677.75 512.563 667.75 500.313 667.75L22.0635 667.75C10.0635 667.75 0.0634971 677.5 0.0634971 689.5ZM595.563 630.75C652.313 630.75 684.563 592.75 684.563 525C684.563 445.25 668.813 353 638.813 207.5L630.813 169C624.813 140.25 616.813 118.25 598.813 96L561.063 48.75C546.563 30.5 519.063 51.75 534.563 71L580.563 129C583.563 133 583.813 138 581.313 142.25L553.313 194.25C547.063 206 548.563 214.5 558.313 225L619.563 290.5C639.813 383.75 650.563 461 650.563 525C650.563 571 630.813 596.75 595.563 596.75C565.063 596.75 544.813 576.25 544.813 542C544.813 496.5 552.313 433.75 552.313 376.75C552.313 322.5 525.063 281 461.813 259L447.813 290C497.063 306 518.313 337.75 518.313 376.75C518.313 428 510.813 490.5 510.813 542C510.813 597 544.313 630.75 595.563 630.75Z" fill="black" fill-opacity="0.85"/>
  <path d="M946.563 341L779.813 241.25C767.813 234.5 752.063 240.25 752.063 253L752.063 458.5C752.063 471.5 767.063 477.5 779.813 470L946.563 371C958.563 364 958.063 348 946.563 341Z" fill="black" fill-opacity="0.85"/>
 </g>
</svg>
