<?xml version="1.0" encoding="UTF-8"?>
<!--Generator: Apple Native CoreSVG 326-->
<!DOCTYPE svg
PUBLIC "-//W3C//DTD SVG 1.1//EN"
       "http://www.w3.org/Graphics/SVG/1.1/DTD/svg11.dtd">
<svg version="1.1" xmlns="http://www.w3.org/2000/svg" xmlns:xlink="http://www.w3.org/1999/xlink" viewBox="0 0 651.25 651.75">
 <g>
  <rect height="651.75" opacity="0" width="651.25" x="0" y="0"/>
  <path d="M325.5 651.25C505.25 651.25 651.25 505.5 651.25 325.75C651.25 146 505.25 0 325.5 0C145.75 0 0 146 0 325.75C0 505.5 145.75 651.25 325.5 651.25ZM325.5 604.75C171.25 604.75 46.5 480 46.5 325.75C46.5 171.5 171.25 46.75 325.5 46.75C479.75 46.75 604.5 171.5 604.5 325.75C604.5 480 479.75 604.75 325.5 604.75Z" fill="black" fill-opacity="0.85"/>
  <path d="M134 351C147.75 351 159.25 339.5 159.25 325.75C159.25 311.75 147.75 300.25 134 300.25C120.25 300.25 108.75 311.75 108.75 325.75C108.75 339.5 120.25 351 134 351ZM189.75 216.25C203.5 216.25 215 205 215 191C215 177.25 203.5 165.75 189.75 165.75C175.75 165.75 164.25 177.25 164.25 191C164.25 205 175.75 216.25 189.75 216.25ZM325.25 159.5C339.25 159.5 350.75 148 350.75 134C350.75 120.25 339.25 108.75 325.25 108.75C311.5 108.75 300 120.25 300 134C300 148 311.5 159.5 325.25 159.5ZM461 216.25C474.75 216.25 486.25 205 486.25 191C486.25 177.25 474.75 165.75 461 165.75C447 165.75 435.75 177.25 435.75 191C435.75 205 447 216.25 461 216.25ZM517.25 351C531 351 542.5 339.5 542.5 325.75C542.5 311.75 531 300.25 517.25 300.25C503.25 300.25 491.75 311.75 491.75 325.75C491.75 339.5 503.25 351 517.25 351ZM461 485.75C474.75 485.75 486.25 474.25 486.25 460.25C486.25 446.5 474.75 435 461 435C447 435 435.75 446.5 435.75 460.25C435.75 474.25 447 485.75 461 485.75ZM373.25 279.5C353.5 259.75 324.75 259.75 305 279.5C301.5 282.75 296.25 290.25 292.75 294.75L181.5 452.5C176.75 459 177.75 465.75 182.25 470.5C186.75 474.5 193.5 475.75 200.25 471L357.75 359.75C362.25 356.5 369.75 351 373.25 347.5C392.75 327.75 392.75 299 373.25 279.5Z" fill="black" fill-opacity="0.85"/>
 </g>
</svg>
