<?xml version="1.0" encoding="UTF-8"?>
<!--Generator: Apple Native CoreSVG 326-->
<!DOCTYPE svg
PUBLIC "-//W3C//DTD SVG 1.1//EN"
       "http://www.w3.org/Graphics/SVG/1.1/DTD/svg11.dtd">
<svg version="1.1" xmlns="http://www.w3.org/2000/svg" xmlns:xlink="http://www.w3.org/1999/xlink" viewBox="0 0 650.75 562.75">
 <g>
  <rect height="562.75" opacity="0" width="650.75" x="0" y="0"/>
  <path d="M0 325.5C0 410 33.25 487.75 87 545.75C99.25 559.25 120 562.5 136.25 546.25L187 495.5C195.75 487.25 195.5 472.75 187 464.25C178.5 455.75 164.25 455.5 155.75 464.25L113.5 506.5C72 457.75 46.75 395 46.75 325.5C46.75 170.75 170.75 46.5 325.25 46.5C480 46.5 603.75 170.75 603.75 325.5C603.75 395 578.75 457.75 537.25 506.5L495 464.25C486.5 455.5 472.25 455.75 463.5 464.25C455 472.75 455 487.25 463.5 495.5L514.5 546.25C530.75 562.5 551.5 559.25 563.5 545.75C617.5 487.75 650.75 410 650.75 325.5C650.75 147.25 503.5 0 325.25 0C147.25 0 0 147.25 0 325.5ZM107.5 303.25L23.5 303.25L23.5 347.75L107.5 347.75C119.5 347.75 129.5 337.5 129.5 325.5C129.5 313.25 119.5 303.25 107.5 303.25ZM303.25 107C303.25 119.25 313.25 129.25 325.25 129.25C337.5 129.25 347.5 119.25 347.5 107L347.5 23L303.25 23ZM464.25 155.25C455.75 163.75 455.75 178.25 464.25 186.75C473 195.25 487.25 195.25 495.75 186.75L555 127.25L523.75 96ZM544 303.25C532 303.25 522 313.25 522 325.5C522 337.5 532 347.75 544 347.75L628 347.75L628 303.25Z" fill="black" fill-opacity="0.85"/>
  <path d="M365.75 364.25C385.25 344.5 385.25 315.75 365.75 296.25C362.25 292.5 354.75 287.25 350.25 283.75L192.75 172.5C186 167.75 179.25 169 174.75 173.25C170.5 177.75 169.25 184.5 174 191L285.5 348.75C288.75 353.25 294.25 360.75 297.5 364.25C317.25 383.75 346 383.75 365.75 364.25Z" fill="black" fill-opacity="0.85"/>
 </g>
</svg>
