<?xml version="1.0" encoding="UTF-8"?>
<!--Generator: Apple Native CoreSVG 326-->
<!DOCTYPE svg
PUBLIC "-//W3C//DTD SVG 1.1//EN"
       "http://www.w3.org/Graphics/SVG/1.1/DTD/svg11.dtd">
<svg version="1.1" xmlns="http://www.w3.org/2000/svg" xmlns:xlink="http://www.w3.org/1999/xlink" viewBox="0 0 1047.94 980.75">
 <g>
  <rect height="980.75" opacity="0" width="1047.94" x="0" y="0"/>
  <path d="M525.22 131C558.72 135 584.47 151.75 598.72 191.75L619.463 250.817C603.943 251.241 588.779 253.109 574.007 256.171C575.029 253.047 574.864 249.182 573.47 245L557.97 200.25C551.72 181 541.72 174 524.47 171.75C506.97 169.5 462.72 167.75 393.47 167.75C324.22 167.75 279.72 169.5 262.22 171.75C245.22 174 235.22 181 228.72 200.25L213.47 245C209.72 255.5 213.97 264 224.97 264L541.138 264C488.459 278.752 440.578 305.452 400.611 341L336.97 341C325.97 341 318.72 348.25 318.72 360L318.72 387C318.72 399.25 325.97 406.5 336.97 406.5L341.642 406.5C319.279 437.848 301.936 472.922 290.673 510.5L199.47 510.5L199.47 543.75C199.47 561.5 185.72 575.5 167.72 575.5L139.47 575.5C121.47 575.5 107.72 561.5 107.72 543.75L107.72 386C107.72 344 114.72 320.25 138.22 293.75L161.97 266.5L188.22 191.75C202.22 151.75 228.22 135 261.72 131C278.22 129 332.47 127.75 393.47 127.75C454.22 127.75 508.72 129 525.22 131ZM168.22 354.25L168.22 393C168.22 407 178.47 417.5 192.97 417.5C206.97 417.5 217.22 407.25 217.22 393L217.22 354.25C217.22 340 206.97 330 192.97 330C178.47 330 168.22 340.25 168.22 354.25Z" fill="black" fill-opacity="0.85"/>
  <path d="M965.47 615.25C965.47 437.25 818.47 289.75 640.22 289.75C461.97 289.75 314.97 437.25 314.97 615.25C314.97 700 347.97 777.5 401.97 835.75C413.97 849 434.72 852.25 450.97 836L501.97 785.5C510.72 777 510.47 762.75 501.97 754C493.47 745.5 478.97 745.5 470.47 754L428.47 796.5C386.72 747.75 361.72 684.75 361.72 615.25C361.72 460.75 485.72 336.25 640.22 336.25C794.72 336.25 918.72 460.75 918.72 615.25C918.72 684.75 893.72 747.75 851.97 796.5L809.97 754C801.47 745.5 786.97 745.5 778.47 754C769.97 762.75 769.72 777 778.47 785.5L829.47 836C845.72 852.25 866.22 849 878.47 835.75C932.47 777.5 965.47 700 965.47 615.25ZM858.22 593.25C845.97 593.25 835.97 603.25 835.97 615.25C835.97 627.5 845.97 637.5 858.22 637.5L942.22 637.5L942.22 593.25ZM662.47 396.75L662.47 313L617.97 313L617.97 396.75C617.97 409 627.97 419 640.22 419C652.22 419 662.47 409 662.47 396.75ZM501.22 445.25L441.72 385.75L410.47 417.25L469.72 476.5C478.22 485.25 492.72 485 501.22 476.5C509.72 468 509.72 453.75 501.22 445.25ZM421.47 593.25L337.47 593.25L337.47 637.5L421.47 637.5C433.72 637.5 443.72 627.5 443.72 615.25C443.72 603.25 433.72 593.25 421.47 593.25Z" fill="black" fill-opacity="0.85"/>
  <path d="M599.72 654C619.47 673.75 648.22 673.75 667.97 654C671.47 650.5 676.72 643 680.22 638.5L791.47 481C796.22 474.25 795.22 467.5 790.72 463C786.22 458.75 779.47 457.5 772.72 462.25L615.22 573.75C610.72 577 603.22 582.5 599.72 586C580.22 605.5 580.22 634.5 599.72 654Z" fill="black" fill-opacity="0.85"/>
  <path d="M950.47 213.5C940.22 203 927.72 209.5 925.22 221.75L900.97 335.75C897.97 349 906.97 358.25 920.47 355.25L1034.72 331.25C1046.97 328.75 1052.97 316.25 1042.72 305.75Z" fill="black" fill-opacity="0.85"/>
 </g>
</svg>
