<?xml version="1.0" encoding="UTF-8"?>
<!--Generator: Apple Native CoreSVG 326-->
<!DOCTYPE svg
PUBLIC "-//W3C//DTD SVG 1.1//EN"
       "http://www.w3.org/Graphics/SVG/1.1/DTD/svg11.dtd">
<svg version="1.1" xmlns="http://www.w3.org/2000/svg" xmlns:xlink="http://www.w3.org/1999/xlink" viewBox="0 0 928.114 577.75">
 <g>
  <rect height="577.75" opacity="0" width="928.114" x="0" y="0"/>
  <path d="M837.807 44.5C858.307 44.5 878.557 47 898.057 52C929.307 59.75 941.557 17.5 907.807 8.5C889.557 3.5 863.557 0 837.807 0C659.807 0 513.057 163 513.057 359C513.057 489.25 567.557 577.25 650.807 577.25C734.057 577.25 788.807 489.25 788.807 359C788.807 163 642.557 0 464.057 0C285.557 0 139.307 163 139.307 359C139.307 489.25 194.057 577.25 277.307 577.25C360.307 577.25 415.057 489.25 415.057 359C415.057 163 268.057 0 90.057 0C64.557 0 38.557 3.5 20.307 8.5C-13.693 17.5-1.19302 59.75 29.807 52C49.307 47 69.557 44.5 90.057 44.5C243.307 44.5 370.807 187 370.807 359C370.807 463.75 332.807 533 277.307 533C221.807 533 183.557 463.5 183.557 359C183.557 187 310.807 44.5 464.057 44.5C617.057 44.5 744.557 187 744.557 359C744.557 463.5 706.057 533 650.807 533C595.307 533 557.307 463.75 557.307 359C557.307 187 684.807 44.5 837.807 44.5Z" fill="black" fill-opacity="0.85"/>
 </g>
</svg>
