<?xml version="1.0" encoding="UTF-8"?>
<!--Generator: Apple Native CoreSVG 326-->
<!DOCTYPE svg
PUBLIC "-//W3C//DTD SVG 1.1//EN"
       "http://www.w3.org/Graphics/SVG/1.1/DTD/svg11.dtd">
<svg version="1.1" xmlns="http://www.w3.org/2000/svg" xmlns:xlink="http://www.w3.org/1999/xlink" viewBox="0 0 897.25 622.75">
 <g>
  <rect height="622.75" opacity="0" width="897.25" x="0" y="0"/>
  <path d="M0 311.25C0 412 33.25 505 89.25 580C98 591.5 112.25 592.75 123.25 584C133.25 575.5 134.5 562.25 126.75 551.25C76.5 484.5 46.75 401 46.75 311.25C46.75 221 76.5 138 126.75 70.75C134.5 60.25 133.5 47 123.25 38.25C112.5 29.5 97.75 31 89.25 42.5C33.25 117.25 0 210.25 0 311.25ZM897.25 311.25C897.25 210.25 864 117.25 807.75 42.5C799.25 31 784.75 29.5 773.75 38.25C763.75 47 762.75 60.25 770.5 70.75C820.75 138 850.25 221 850.25 311.25C850.25 401 820.75 484.5 770.5 551.25C762.75 562.25 763.75 575.5 773.75 584C784.75 592.75 799.25 591.5 807.75 580C864 505 897.25 412 897.25 311.25Z" fill="black" fill-opacity="0.85"/>
  <path d="M448.5 622.25C620.25 622.25 759.75 483 759.75 311.25C759.75 139.5 620.25 0 448.5 0C276.75 0 137.5 139.5 137.5 311.25C137.5 483 276.75 622.25 448.5 622.25ZM448.5 575.75C302.5 575.75 184 457.25 184 311.25C184 165.25 302.5 46.5 448.5 46.5C594.5 46.5 713.25 165.25 713.25 311.25C713.25 457.25 594.5 575.75 448.5 575.75Z" fill="black" fill-opacity="0.85"/>
  <path d="M322.5 374.75C322.5 456.75 375.5 504 448 504C505 504 545.25 479.5 569.75 420.75C582.75 392.75 592.75 360.5 603.25 324.5C607.25 311.5 612.5 296.5 612.5 289.5C612.5 279.5 605 273 595 273C584.5 273 577.75 279.25 570.5 294.25L545.25 350.25C542.5 356.75 539 359 535.75 359C531.25 359 528.5 356 528.5 349.25L528.5 159C528.5 148.5 519.75 139.75 509 139.75C498.5 139.75 490 148.5 490 159L490 293.5C484.75 291.75 479.25 289.75 473.25 288.5L473.25 130C473.25 119.5 464.75 110.75 454.25 110.75C443.5 110.75 434.75 119.5 434.75 130L434.75 286.5C428.75 287 422.25 287.5 416.75 288.75L416.75 147.25C416.75 136.75 407.75 128.25 397.25 128.25C386.75 128.25 378 136.75 378 147.25L378 301.25C371.5 303.75 366.25 307.25 361 310.75L361 204.75C361 194 352.5 185.25 342 185.25C331.5 185.25 322.5 194 322.5 204.75Z" fill="black" fill-opacity="0.85"/>
 </g>
</svg>
