<?xml version="1.0" encoding="UTF-8"?>
<!--Generator: Apple Native CoreSVG 326-->
<!DOCTYPE svg
PUBLIC "-//W3C//DTD SVG 1.1//EN"
       "http://www.w3.org/Graphics/SVG/1.1/DTD/svg11.dtd">
<svg version="1.1" xmlns="http://www.w3.org/2000/svg" xmlns:xlink="http://www.w3.org/1999/xlink" viewBox="0 0 673 616.25">
 <g>
  <rect height="616.25" opacity="0" width="673" x="0" y="0"/>
  <path d="M123.25 521.5L549.5 521.5C563 521.5 570.75 508.5 563.75 496.25L351 122.75C343.75 110.5 328.75 110.5 322 122.75L109 496.25C101.75 508.75 109.75 521.5 123.25 521.5ZM174.25 479.75C170.5 479.75 168.5 476.25 170.5 473L332.75 188.25C334.5 185 338.5 185 340.25 188.25L502.25 473C504.25 476.25 502.25 479.75 498.5 479.75Z" fill="black" fill-opacity="0.85"/>
  <path d="M83.5 611L589.25 611C641.5 611 673 574.5 673 528.25C673 513.25 668.75 497.75 660.5 483.5L407.75 41.5C392 13.75 364.25 0 336.5 0C308.5 0 281 13.75 265.25 41.5L12.5 483.5C4 498 0 513.25 0 528.25C0 574.5 31.5 611 83.5 611ZM84 567.75C59.25 567.75 44.5 549 44.5 528C44.5 520.5 46.5 512 50.75 504L303 62.5C310.5 49.25 323.75 44 336.5 44C349.25 44 362.25 49.25 369.5 62.5L622 504.25C626.25 512.25 628.25 520.5 628.25 528C628.25 549 613.25 567.75 588.5 567.75Z" fill="black" fill-opacity="0.85"/>
 </g>
</svg>
