<?xml version="1.0" encoding="UTF-8"?>
<!--Generator: Apple Native CoreSVG 326-->
<!DOCTYPE svg
PUBLIC "-//W3C//DTD SVG 1.1//EN"
       "http://www.w3.org/Graphics/SVG/1.1/DTD/svg11.dtd">
<svg version="1.1" xmlns="http://www.w3.org/2000/svg" xmlns:xlink="http://www.w3.org/1999/xlink" viewBox="0 0 919.5 539.75">
 <g>
  <rect height="539.75" opacity="0" width="919.5" x="0" y="0"/>
  <path d="M30.75 129.75C47.25 129.75 60.75 116 60.75 99C60.75 82.5 47.25 69 30.75 69C13.5 69 0 82.25 0 99C0 116 13.75 129.75 30.75 129.75ZM30.75 300.25C47.25 300.25 60.75 286.5 60.75 269.75C60.75 253.25 47.25 239.5 30.75 239.5C13.75 239.5 0 253 0 269.75C0 286.5 13.75 300.25 30.75 300.25ZM30.75 470.75C47.25 470.75 60.75 457 60.75 440.25C60.75 423.5 47.25 410 30.75 410C13.75 410 0 423.5 0 440.25C0 457 13.5 470.75 30.75 470.75Z" fill="black" fill-opacity="0.85"/>
  <path d="M141 144C165.5 144 185.5 124 185.5 99.25C185.5 74.75 165.5 54.75 141 54.75C116.25 54.75 96.25 74.75 96.25 99.25C96.25 124 116.25 144 141 144ZM141 314.5C165.5 314.5 185.5 294.5 185.5 269.75C185.5 245.25 165.5 225.25 141 225.25C116.25 225.25 96.25 245.25 96.25 269.75C96.25 294.5 116.25 314.5 141 314.5ZM141 485C165.5 485 185.5 465 185.5 440.25C185.5 415.75 165.5 395.75 141 395.75C116.25 395.75 96.25 415.75 96.25 440.25C96.25 465 116.25 485 141 485Z" fill="black" fill-opacity="0.85"/>
  <path d="M281.75 160C314.75 160 342 132.75 342 99.25C342 66 314.75 39 281.75 39C248 39 221 66 221 99.25C221 132.75 248 160 281.75 160ZM281.75 330.5C314.75 330.5 342 303.25 342 269.75C342 236.5 314.75 209.25 281.75 209.25C248 209.25 221 236.5 221 269.75C221 303.25 248 330.5 281.75 330.5ZM281.75 500.75C314.75 500.75 342 473.75 342 440.25C342 407 314.75 379.75 281.75 379.75C248 379.75 221 407 221 440.25C221 473.75 248 500.75 281.75 500.75Z" fill="black" fill-opacity="0.85"/>
  <path d="M388.25 269.75C387.5 333.5 393 392.25 409.75 451.5C428.5 515.5 466.5 539 541.75 539L558.5 539C746.75 539 919.5 415 919.5 269.75C919.5 124.5 746.75 0 558.5 0L541.75 0C466.75 0 428.75 23.75 409.75 87.75C393 147 387.5 205.75 388.25 269.75Z" fill="black" fill-opacity="0.85"/>
 </g>
</svg>
