<?xml version="1.0" encoding="UTF-8"?>
<!--Generator: Apple Native CoreSVG 326-->
<!DOCTYPE svg
PUBLIC "-//W3C//DTD SVG 1.1//EN"
       "http://www.w3.org/Graphics/SVG/1.1/DTD/svg11.dtd">
<svg version="1.1" xmlns="http://www.w3.org/2000/svg" xmlns:xlink="http://www.w3.org/1999/xlink" viewBox="0 0 827.25 562.462">
 <g>
  <rect height="562.462" opacity="0" width="827.25" x="0" y="0"/>
  <path d="M22.25 136.856C10.25 136.856 0 147.106 0 159.106C0 171.356 10.5 181.356 22.25 181.356L261 181.606C262.75 166.856 265 151.606 267.75 136.856ZM22.25 258.856C10.25 258.856 0 269.356 0 281.356C0 293.356 10.25 303.106 22.25 303.106L256.25 303.106C256 294.606 256 267.606 256.25 258.856ZM22.25 380.856C10.25 380.856 0 391.106 0 403.106C0 415.106 10.25 425.106 22.25 425.106L267.75 425.356C265 410.356 262.75 395.606 261 381.106ZM109.25 523.356C86.5 546.106 116.75 576.356 140.25 554.356C200.25 494.856 211.75 386.606 171.5 284.356L165.5 269.606C130.25 179.356 135.75 87.356 181.75 38.606C204.75 16.106 174.5-14.394 150.75 7.60596C90.5 67.356 79.5 175.356 120 277.606L125.75 292.356C161.25 382.856 155.5 474.606 109.25 523.356Z" fill="black" fill-opacity="0.85"/>
  <path d="M295.75 281.106C295.25 344.856 300.5 403.606 317.25 462.856C336 526.856 374.25 550.356 449.25 550.356L466 550.356C654.25 550.356 827.25 426.356 827.25 281.106C827.25 135.856 654.25 11.356 466 11.356L449.25 11.356C374.5 11.356 336.25 35.106 317.25 99.106C300.5 158.356 295.25 217.106 295.75 281.106Z" fill="black" fill-opacity="0.85"/>
 </g>
</svg>
