<?xml version="1.0" encoding="UTF-8"?>
<!--Generator: Apple Native CoreSVG 326-->
<!DOCTYPE svg
PUBLIC "-//W3C//DTD SVG 1.1//EN"
       "http://www.w3.org/Graphics/SVG/1.1/DTD/svg11.dtd">
<svg version="1.1" xmlns="http://www.w3.org/2000/svg" xmlns:xlink="http://www.w3.org/1999/xlink" viewBox="0 0 916 629.25">
 <g>
  <rect height="629.25" opacity="0" width="916" x="0" y="0"/>
  <path d="M308.603 467.687C311.043 479.976 314.033 492.243 317.5 504.5C318.175 506.816 318.874 509.096 319.695 511.196L76.75 511C65 511 54.75 501.25 54.75 489.5C54.75 477.75 65 467.5 76.75 467.5ZM297.872 394.5L76.75 394.5C65 394.5 54.75 384.75 54.75 372.75C54.75 361 65 350.75 76.75 350.75L295.188 350.75C295.624 365.396 296.486 379.974 297.872 394.5ZM295.204 277.676L76.75 277.5C65.25 277.5 54.75 267.75 54.75 255.75C54.75 244 65 234 76.75 234L297.906 234C296.514 248.497 295.647 263.044 295.204 277.676ZM317.5 124C314.058 136.264 311.087 148.508 308.661 160.75L76.75 160.75C65 160.75 54.75 151.5 54.75 139C54.75 127.25 65 117.25 76.75 117.25L319.737 117.25Z" fill="black" fill-opacity="0.85"/>
  <path d="M349 314.5C349 375.75 353.75 432.25 370 489.5C388 551.25 424.75 574 497.25 574L513.75 574C695.25 574 861.25 454.5 861.25 314.5C861.25 174.5 695.25 54.75 513.75 54.75L497.25 54.75C425 54.75 388.25 77.5 370 139.25C353.75 196.5 349 253.25 349 314.5ZM393 314.5C393 247.75 398.25 199.25 411.75 151.5C423.5 112.75 448.25 98 497.25 98L513.75 98C670 98 817.5 199.5 817.5 314.5C817.5 429.5 670 530.5 513.75 530.5L497.25 530.5C447 530.5 423 515.5 411.75 477.5C398.25 429.5 393 381.25 393 314.5Z" fill="black" fill-opacity="0.85"/>
 </g>
</svg>
