<?xml version="1.0" encoding="UTF-8"?>
<!--Generator: Apple Native CoreSVG 326-->
<!DOCTYPE svg
PUBLIC "-//W3C//DTD SVG 1.1//EN"
       "http://www.w3.org/Graphics/SVG/1.1/DTD/svg11.dtd">
<svg version="1.1" xmlns="http://www.w3.org/2000/svg" xmlns:xlink="http://www.w3.org/1999/xlink" viewBox="0 0 416.25 830.25">
 <g>
  <rect height="830.25" opacity="0" width="416.25" x="0" y="0"/>
  <path d="M111.25 184.25C111.25 138.75 68.75 111.75 68.75 77.25C68.75 59.25 73.75 48.75 86 31.75C101 11.75 73.5-8.5 58.25 11.25C41.25 32.5 34 51.75 34 75.25C34 123 76 149.5 76 184.25C76 218 34 245.25 34 292.25C34 316.25 41.25 335.5 58 356.5C72.75 375.5 100.5 355.5 85.5 335.5C73.75 319.5 68.75 308.75 68.75 290C68.75 256.5 111.25 230 111.25 184.25ZM246.75 184.25C246.75 138.75 204.5 111.75 204.5 77.25C204.5 59.25 209.25 48.75 221.5 31.75C236.5 11.75 209-8.5 193.5 11.25C176.75 32.5 169.5 51.75 169.5 75.25C169.5 123 211.25 149.5 211.25 184.25C211.25 218 169.5 245.25 169.5 292.25C169.5 316.25 176.75 335.5 193.25 356.5C208.25 375.5 236 355.5 221 335.5C209.25 319.5 204.5 308.75 204.5 290C204.5 256.5 246.75 230 246.75 184.25ZM382.25 184.25C382.25 138.75 339.75 111.75 339.75 77.25C339.75 59.25 344.75 48.75 357 31.75C372 11.75 344.25-8.5 328.75 11.25C312 32.5 305 51.75 305 75.25C305 123 346.75 149.5 346.75 184.25C346.75 218 305 245.25 305 292.25C305 316.25 312 335.5 328.5 356.5C343.5 375.5 371.25 355.5 356.5 335.5C344.75 319.5 339.75 308.75 339.75 290C339.75 256.5 382.25 230 382.25 184.25Z" fill="black" fill-opacity="0.85"/>
  <path d="M275 830.25C337.5 830.25 400.25 774 400.25 719.25C400.25 670.75 358 646.25 280.25 619.75L278.5 606.75L363 606.75C398.5 606.75 416.25 589.25 416.25 554.75C416.25 492.5 360.25 429.5 305.25 429.5C257 429.5 232.25 472 206 550L193.25 551.5L193.25 466.5C193.25 431.75 175.5 413.5 141.5 413.5C78.5 413.5 15.75 470 15.75 524.25C15.75 572.75 58.5 597.75 136.5 624L137.25 636.5L53 636.5C17.75 636.5 0 654.75 0 688.5C0 751.5 56.25 813.75 110.75 813.75C158.75 813.75 184 772 210 694L223 692.5L223 777C223 812 241 830.25 275 830.25ZM208 665C184 665 164.75 645.75 164.75 622C164.75 598 184 578.5 208 578.5C231.75 578.5 251.25 598 251.25 622C251.25 645.75 231.75 665 208 665Z" fill="black" fill-opacity="0.85"/>
 </g>
</svg>
