<?xml version="1.0" encoding="UTF-8"?>
<!--Generator: Apple Native CoreSVG 326-->
<!DOCTYPE svg
PUBLIC "-//W3C//DTD SVG 1.1//EN"
       "http://www.w3.org/Graphics/SVG/1.1/DTD/svg11.dtd">
<svg version="1.1" xmlns="http://www.w3.org/2000/svg" xmlns:xlink="http://www.w3.org/1999/xlink" viewBox="0 0 597.441 637.377">
 <g>
  <rect height="637.377" opacity="0" width="597.441" x="0" y="0"/>
  <path d="M3.84531 105.063C-4.90469 118.063 1.84531 134.313 18.3453 134.313L61.0953 134.313L61.0953 139.813C61.0953 250.813 121.095 270.313 121.095 327.563C121.095 385.313 45.3453 404.813 45.3453 510.813C45.3453 549.063 55.0953 575.813 81.8453 609.813C101.595 634.813 140.595 609.313 119.595 581.563C99.3453 554.313 92.3453 536.313 92.3453 507.813C92.3453 430.063 168.095 406.813 168.095 327.563C168.095 248.313 107.845 229.563 107.845 139.813L107.845 134.313L150.345 134.313C166.845 134.313 174.095 118.313 164.845 105.063L101.095 12.5634C92.3453-0.936648 77.0953-1.43665 67.5953 12.5634ZM217.095 104.063C208.345 116.813 215.095 133.063 231.845 133.063L274.345 133.063L274.345 138.563C274.345 249.813 334.345 269.063 334.345 326.563C334.345 384.063 258.595 403.563 258.595 509.813C258.595 548.063 268.345 574.563 295.095 608.813C314.845 633.813 353.845 608.313 333.095 580.313C312.845 553.313 305.845 535.313 305.845 506.813C305.845 429.063 381.345 405.813 381.345 326.563C381.345 247.313 321.095 228.313 321.095 138.563L321.095 133.063L363.595 133.063C380.095 133.063 387.345 117.063 378.345 104.063L314.345 11.3134C305.595-1.93665 290.345-2.43665 281.095 11.3134ZM430.595 103.063C421.845 115.813 428.595 132.063 445.095 132.063L487.845 132.063L487.845 137.563C487.845 248.813 547.595 268.063 547.595 325.563C547.595 383.063 472.095 402.563 472.095 508.813C472.095 546.813 481.845 573.563 508.595 607.813C528.345 632.563 567.095 607.063 546.345 579.313C526.095 552.313 519.095 534.063 519.095 505.563C519.095 428.063 594.845 404.563 594.845 325.563C594.845 246.313 534.595 227.313 534.595 137.563L534.595 132.063L576.845 132.063C593.595 132.063 600.845 116.063 591.595 103.063L527.845 10.3134C519.095-3.18665 503.845-3.68665 494.345 10.3134Z" fill="black" fill-opacity="0.85"/>
 </g>
</svg>
