<?xml version="1.0" encoding="UTF-8"?>
<!--Generator: Apple Native CoreSVG 326-->
<!DOCTYPE svg
PUBLIC "-//W3C//DTD SVG 1.1//EN"
       "http://www.w3.org/Graphics/SVG/1.1/DTD/svg11.dtd">
<svg version="1.1" xmlns="http://www.w3.org/2000/svg" xmlns:xlink="http://www.w3.org/1999/xlink" viewBox="0 0 587.75 587.75">
 <g>
  <rect height="587.75" opacity="0" width="587.75" x="0" y="0"/>
  <path d="M587.75 96.5L587.75 491.5C587.75 555 555 587.75 490.25 587.75L97.25 587.75C32.75 587.75 0 555.5 0 491.5L0 96.5C0 32.5 32.75 0 97.25 0L490.25 0C555 0 587.75 32.75 587.75 96.5ZM240 232.75C228.5 232.75 219.25 241.75 219.25 253C219.25 264.75 228.5 273.5 240 273.5L280.25 273.5L280.25 436.75L235.5 436.75C223.5 436.75 214.5 445.75 214.5 457C214.5 468.75 223.5 477.5 235.5 477.5L370.25 477.5C382.25 477.5 391.5 468.75 391.5 457C391.5 445.75 382.25 436.75 370.25 436.75L325.5 436.75L325.5 258.25C325.5 243.25 317.75 232.75 303.25 232.75ZM252.75 135.5C252.75 157.25 270 174.75 291.75 174.75C313.5 174.75 330.5 157.25 330.5 135.5C330.5 113.75 313.5 96.25 291.75 96.25C270 96.25 252.75 113.75 252.75 135.5Z" fill="black" fill-opacity="0.85"/>
 </g>
</svg>
