<?xml version="1.0" encoding="UTF-8"?>
<!--Generator: Apple Native CoreSVG 326-->
<!DOCTYPE svg
PUBLIC "-//W3C//DTD SVG 1.1//EN"
       "http://www.w3.org/Graphics/SVG/1.1/DTD/svg11.dtd">
<svg version="1.1" xmlns="http://www.w3.org/2000/svg" xmlns:xlink="http://www.w3.org/1999/xlink" viewBox="0 0 587.75 587.75">
 <g>
  <rect height="587.75" opacity="0" width="587.75" x="0" y="0"/>
  <path d="M97.25 587.75L490.25 587.75C555 587.75 587.75 555 587.75 491.5L587.75 96.5C587.75 32.75 555 0 490.25 0L97.25 0C32.75 0 0 32.5 0 96.5L0 491.5C0 555.5 32.75 587.75 97.25 587.75ZM98.25 543.5C63.25 543.5 44.25 525 44.25 489L44.25 98.75C44.25 63 63.25 44.25 98.25 44.25L489.5 44.25C523.75 44.25 543.5 63 543.5 98.75L543.5 489C543.5 525 523.75 543.5 489.5 543.5Z" fill="black" fill-opacity="0.85"/>
  <path d="M237 472.75L368.75 472.75C380.25 472.75 389 464.25 389 453C389 442 380.25 433.25 368.75 433.25L324.75 433.25L324.75 258.5C324.75 244 317.25 234 303.25 234L241.5 234C230.25 234 221.25 242.5 221.25 253.5C221.25 264.75 230.25 273.25 241.5 273.25L281 273.25L281 433.25L237 433.25C225.5 433.25 216.75 442 216.75 453C216.75 464.25 225.5 472.75 237 472.75ZM292 177C313.25 177 329.75 160 329.75 139.25C329.75 118 313.25 101 292 101C271 101 254.25 118 254.25 139.25C254.25 160 271 177 292 177Z" fill="black" fill-opacity="0.85"/>
 </g>
</svg>
