<?xml version="1.0" encoding="UTF-8"?>
<!--Generator: Apple Native CoreSVG 326-->
<!DOCTYPE svg
PUBLIC "-//W3C//DTD SVG 1.1//EN"
       "http://www.w3.org/Graphics/SVG/1.1/DTD/svg11.dtd">
<svg version="1.1" xmlns="http://www.w3.org/2000/svg" xmlns:xlink="http://www.w3.org/1999/xlink" viewBox="0 0 413.25 689.25">
 <g>
  <rect height="689.25" opacity="0" width="413.25" x="0" y="0"/>
  <path d="M0 594.5C0 646.25 31.25 689.25 104 689.25L309.25 689.25C382 689.25 413.25 646.25 413.25 594.5L413.25 95C413.25 43.25 382 0.25 309.25 0.25L104 0.25C31.25 0.25 0 43.25 0 95ZM44.25 593.5L44.25 95.75C44.25 71 59.5 44.5 106.25 44.5L307 44.5C353.75 44.5 369 71 369 95.75L369 593.5C369 618.5 353.75 645 307 645L106.25 645C59.5 645 44.25 618.5 44.25 593.5ZM88.75 122.75L324.5 122.75C329 122.75 332.75 119.25 332.75 114.5L332.75 104C332.75 91.25 322 80.75 309.25 80.75L104 80.75C91 80.75 80.5 91.25 80.5 104L80.5 114.5C80.5 119.25 84 122.75 88.75 122.75Z" fill="black" fill-opacity="0.85"/>
  <path d="M206.75 213C154 213 112 255 112 307.25C112 346.75 135.5 381.5 172.5 395.75L172.5 540.25C172.5 544 173.75 547 176.5 550L201 574.75C203.75 577.5 209 578 212.75 574.75L259.5 528.25C262.75 525 262.5 520 259.5 516.5L231 488.75L270 449.75C273 446.5 273 441.75 269.75 438L231.5 399.5C276.25 381.25 301.5 347.75 301.5 307.25C301.5 255.25 259 213 206.75 213ZM206.5 305.5C191.75 305.5 179.5 293.5 179.5 278.75C179.5 263.75 191.25 251.75 206.5 251.75C221.25 251.75 233.5 263.75 233.5 278.75C233.5 293.5 221.25 305.5 206.5 305.5Z" fill="black" fill-opacity="0.85"/>
 </g>
</svg>
