<?xml version="1.0" encoding="UTF-8"?>
<!--Generator: Apple Native CoreSVG 326-->
<!DOCTYPE svg
PUBLIC "-//W3C//DTD SVG 1.1//EN"
       "http://www.w3.org/Graphics/SVG/1.1/DTD/svg11.dtd">
<svg version="1.1" xmlns="http://www.w3.org/2000/svg" xmlns:xlink="http://www.w3.org/1999/xlink" viewBox="0 0 702.75 826.808">
 <g>
  <rect height="826.808" opacity="0" width="702.75" x="0" y="0"/>
  <path d="M606.25 445.279C616.5 452.279 629 449.779 636.5 439.279C677.75 383.529 702.75 304.779 702.75 224.529C702.75 144.529 678 65.2789 636.5 9.77888C629-0.721121 616.5-2.97112 606.25 4.02888C596 10.7789 594.25 23.7789 602.5 35.0289C639.25 86.0289 660 153.779 660 224.529C660 295.279 638.75 362.779 602.5 414.029C594.5 425.529 596 438.279 606.25 445.279Z" fill="black" fill-opacity="0.85"/>
  <path d="M490.75 361.029C500 367.279 513 365.279 520.5 354.779C545 322.279 560.5 275.029 560.5 224.529C560.5 174.279 545 127.279 520.5 94.5289C513 84.0289 500 81.7789 490.75 88.5289C479.75 96.2789 477.75 109.779 486.5 121.029C507 149.279 517.75 185.029 517.75 224.529C517.75 264.279 506.75 299.779 486.5 328.029C478 339.779 479.75 353.029 490.75 361.029Z" fill="black" fill-opacity="0.85"/>
  <path d="M192 800.779C203.25 810.529 218.75 811.779 229.75 801.029L329.25 701.529C340.25 690.529 339.75 674.029 329 663.529L275.75 610.529L352 534.279C362.5 524.029 362.25 507.279 351.5 496.279L279.25 423.529C370.25 382.279 421.75 310.279 421.75 224.529C421.75 108.029 327.5 14.2789 210.75 14.2789C93.75 14.2789 0 107.779 0 224.529C0 310.029 49.75 386.029 128 419.029L128 725.529C128 735.029 131 745.779 139.5 753.279ZM210.75 757.029L172.5 718.779L172.5 387.029C96.5 368.779 44 302.779 44 224.529C44 132.779 118.5 58.7789 210.75 58.7789C303 58.7789 377.25 132.529 377.25 224.529C377.25 302.029 324.5 368.779 238.75 390.529L238.75 446.779L307.75 515.779L235.25 587.279L235.25 632.779L285 682.029ZM210.75 212.779C239.25 212.779 262.25 189.779 262.25 161.529C262.25 133.029 239.25 110.279 210.75 110.279C182.25 110.279 159.75 133.029 159.75 161.529C159.75 189.779 182.5 212.779 210.75 212.779Z" fill="black" fill-opacity="0.85"/>
 </g>
</svg>
