<?xml version="1.0" encoding="UTF-8"?>
<!--Generator: Apple Native CoreSVG 326-->
<!DOCTYPE svg
PUBLIC "-//W3C//DTD SVG 1.1//EN"
       "http://www.w3.org/Graphics/SVG/1.1/DTD/svg11.dtd">
<svg version="1.1" xmlns="http://www.w3.org/2000/svg" xmlns:xlink="http://www.w3.org/1999/xlink" viewBox="0 0 651.25 651.75">
 <g>
  <rect height="651.75" opacity="0" width="651.25" x="0" y="0"/>
  <path d="M651.25 325.75C651.25 505 505 651.25 325.5 651.25C146.25 651.25 0 505 0 325.75C0 146.25 146.25 0 325.5 0C505 0 651.25 146.25 651.25 325.75ZM122.5 235.25L122.5 416.25C122.5 429 130.5 434 139.25 434C150.25 434 156.5 427.25 156.5 416.25L156.5 366.5L171.75 340L214.75 423C217.75 429.25 223.75 433.5 231.5 433.5C239 433.5 246.5 427.5 246.5 418C246.5 413.75 245.5 409.5 243.75 406L195.75 316L237.5 245.25C240 241 241 238 241 233.25C241 225.75 235.75 218 226 218C217.5 218 214 221.75 210.75 228.25L158 320.75L156.25 320.75L156.25 235.25C156.25 224.25 150.25 217.5 139 217.5C128.5 217.5 122.5 224.5 122.5 235.25ZM493.25 235.75L493.25 309.5L437.5 309.5L437.5 235.75C437.5 224.25 431.5 217.5 420.75 217.5C409.75 217.5 403.75 224.25 403.75 235.75L403.75 415.75C403.75 427 409.75 434 420.75 434C431.75 434 437.5 427 437.5 415.75L437.5 338.25L493.25 338.25L493.25 415.75C493.25 427 499 434 510 434C521.25 434 527 427 527 415.75L527 235.75C527 224.25 521.25 217.5 510 217.5C499.25 217.5 493.25 224.25 493.25 235.75ZM283 220.5C272.75 220.5 266.5 227.5 266.5 238.25L266.5 416C266.5 426.25 273 433.5 283.25 433.5C293.75 433.5 300.25 426.25 300.25 416L300.25 359.25L324 359.25C362.75 359.25 381 325.25 381 289.75C381 251.75 361.5 220.5 325.75 220.5ZM347.75 289.75C347.75 312.75 339.25 331.75 317 331.75L300.25 331.75L300.25 248L317.25 248C339.5 248 347.75 267 347.75 289.75Z" fill="black" fill-opacity="0.85"/>
 </g>
</svg>
