<?xml version="1.0" encoding="UTF-8"?>
<!--Generator: Apple Native CoreSVG 326-->
<!DOCTYPE svg
PUBLIC "-//W3C//DTD SVG 1.1//EN"
       "http://www.w3.org/Graphics/SVG/1.1/DTD/svg11.dtd">
<svg version="1.1" xmlns="http://www.w3.org/2000/svg" xmlns:xlink="http://www.w3.org/1999/xlink" viewBox="0 0 651.25 651.75">
 <g>
  <rect height="651.75" opacity="0" width="651.25" x="0" y="0"/>
  <path d="M325.5 651.25C505.25 651.25 651.25 505.5 651.25 325.75C651.25 146 505.25 0 325.5 0C145.75 0 0 146 0 325.75C0 505.5 145.75 651.25 325.5 651.25ZM325.5 604.75C171.25 604.75 46.5 480 46.5 325.75C46.5 171.5 171.25 46.75 325.5 46.75C479.75 46.75 604.5 171.5 604.5 325.75C604.5 480 479.75 604.75 325.5 604.75Z" fill="black" fill-opacity="0.85"/>
  <path d="M143.5 431.5C154 431.5 160.25 425 160.25 414.25L160.25 365.5L175 339.5L217.25 420.75C220.25 426.75 226 431 233.5 431C240.75 431 248.25 425.25 248.25 416C248.25 411.75 247 407.75 245.25 404.25L198.25 316.25L239.25 247.25C241.75 242.75 242.75 240 242.75 235.25C242.75 228.25 237.5 220.5 228 220.5C219.75 220.5 216.5 224.25 213.25 230.5L161.5 321.25L160 321.25L160 237.25C160 226.5 154.25 220.25 143.25 220.25C133 220.25 127.25 226.75 127.25 237.25L127.25 414.25C127.25 426.5 135 431.5 143.5 431.5ZM284 431C294.25 431 300.5 424 300.5 414L300.5 358.25L323.75 358.25C361.5 358.25 379.25 325.25 379.25 290.75C379.25 253.5 360.25 223 325.5 223L283.75 223C273.75 223 267.75 229.75 267.75 240.25L267.75 414C267.75 424 274 431 284 431ZM300.5 331.75L300.5 249.75L317.25 249.75C339 249.75 347 268.25 347 290.75C347 313 338.75 331.75 317 331.75ZM418 431.5C428.75 431.5 434.25 424.75 434.25 413.75L434.25 337.75L489 337.75L489 413.75C489 424.75 494.5 431.5 505.25 431.5C516.25 431.5 521.75 424.75 521.75 413.75L521.75 237.75C521.75 226.5 516.25 220.25 505.25 220.25C495 220.25 489 226.5 489 237.75L489 310L434.25 310L434.25 237.75C434.25 226.5 428.5 220.25 418 220.25C407.25 220.25 401.75 226.5 401.75 237.75L401.75 413.75C401.75 424.75 407.25 431.5 418 431.5Z" fill="black" fill-opacity="0.85"/>
 </g>
</svg>
