<?xml version="1.0" encoding="UTF-8"?>
<!--Generator: Apple Native CoreSVG 326-->
<!DOCTYPE svg
PUBLIC "-//W3C//DTD SVG 1.1//EN"
       "http://www.w3.org/Graphics/SVG/1.1/DTD/svg11.dtd">
<svg version="1.1" xmlns="http://www.w3.org/2000/svg" xmlns:xlink="http://www.w3.org/1999/xlink" viewBox="0 0 757.5 546.75">
 <g>
  <rect height="546.75" opacity="0" width="757.5" x="0" y="0"/>
  <path d="M279.75 37.5L279.75 82.75L477.5 82.75L477.5 37.5C477.5 14.25 491 0.25 514.75 0.25L581.25 0.25C605.25 0.25 618.5 14.25 618.5 37.5L618.5 82.75L660 82.75C724.75 82.75 757.5 115.25 757.5 179L757.5 450.5C757.5 514.25 724.75 546.75 660 546.75L97.25 546.75C32.75 546.75 0 514.5 0 450.5L0 179C0 115 32.75 82.75 97.25 82.75L138.75 82.75L138.75 37.5C138.75 14.25 152.25 0.25 176 0.25L242.5 0.25C266.5 0.25 279.75 14.25 279.75 37.5ZM508.5 238.5L508.5 293.25L453.75 293.25C441.75 293.25 432.5 302.5 432.5 314.25C432.5 326.25 441.75 335.5 453.75 335.5L508.5 335.5L508.5 390C508.5 402 518 411.25 529.5 411.25C541.5 411.25 550.75 402 550.75 390L550.75 335.5L605.25 335.5C617 335.5 626.25 326.25 626.25 314.25C626.25 302.5 617 293.25 605.25 293.25L550.75 293.25L550.75 238.5C550.75 226.5 541.5 217.25 529.5 217.25C518 217.25 508.5 226.5 508.5 238.5ZM156.75 293.25C145 293.25 135.5 302.5 135.5 314.25C135.5 326.25 145 335.5 156.75 335.5L297.75 335.5C309.5 335.5 318.75 326.25 318.75 314.25C318.75 302.5 309.5 293.25 297.75 293.25Z" fill="black" fill-opacity="0.85"/>
 </g>
</svg>
