<?xml version="1.0" encoding="UTF-8"?>
<!--Generator: Apple Native CoreSVG 326-->
<!DOCTYPE svg
PUBLIC "-//W3C//DTD SVG 1.1//EN"
       "http://www.w3.org/Graphics/SVG/1.1/DTD/svg11.dtd">
<svg version="1.1" xmlns="http://www.w3.org/2000/svg" xmlns:xlink="http://www.w3.org/1999/xlink" viewBox="0 0 895.75 493.25">
 <g>
  <rect height="493.25" opacity="0" width="895.75" x="0" y="0"/>
  <path d="M745.5 121L735.25 219C732.5 245.25 746.25 257.75 774.75 257.75L862 257.75C881.75 257.75 895.75 272 895.75 291.75L895.75 449.75C895.75 480.25 872.75 492.5 842.75 484.75C799.5 474.25 756.75 469 706.25 469L214.75 469C78.25 469 0 398 0 264.5C0 121.5 81.5 35 231.5 16.25C335.5 3.75 521.5 0.25 627 0C710 0 753.25 45.75 745.5 121ZM235 60.75C110.5 75.75 44.25 146.75 44.25 264.5C44.25 369 106.75 424.75 214 424.75L582.5 424.75C644.25 424.75 669.25 403.75 675.75 347L701.75 115.75C707 68.75 682.75 44.25 627 44.25C521.5 44.25 338 48.75 235 60.75Z" fill="black" fill-opacity="0.85"/>
 </g>
</svg>
