<?xml version="1.0" encoding="UTF-8"?>
<!--Generator: Apple Native CoreSVG 326-->
<!DOCTYPE svg
PUBLIC "-//W3C//DTD SVG 1.1//EN"
       "http://www.w3.org/Graphics/SVG/1.1/DTD/svg11.dtd">
<svg version="1.1" xmlns="http://www.w3.org/2000/svg" xmlns:xlink="http://www.w3.org/1999/xlink" viewBox="0 0 1091 493.25">
 <g>
  <rect height="493.25" opacity="0" width="1091" x="0" y="0"/>
  <path d="M868.5 121L858.25 219C855.5 245.25 869.25 257.75 897.75 257.75L985 257.75C1004.75 257.75 1018.75 272 1018.75 291.75L1018.75 449.75C1018.75 480.25 995.75 492.5 965.75 484.75C922.5 474.25 879.5 469 829.25 469L337.75 469C220.766 469 146.566 416.851 127.921 317.75L173.63 317.75C192.003 387.83 249.518 424.75 337 424.75L705.5 424.75C767.25 424.75 792.25 403.75 798.5 347L824.75 115.75C830 68.75 805.5 44.25 750 44.25C644.5 44.25 461 48.75 358 60.75C262.203 72.2918 200.893 116.989 177.878 190.75L131.377 190.75C155.633 91.702 232.317 31.5171 354.25 16.25C458.5 3.75 644.5 0.25 750 0C833 0 876.25 45.75 868.5 121Z" fill="black" fill-opacity="0.85"/>
  <path d="M24 182.5C24 242.5 61.25 278 124.5 278L289.5 278L289.5 315.25C289.5 334.5 303.5 341.25 319.5 330.5L405.75 272.25C419 263 419 247 405.75 238L320 179.5C303.5 168.25 289.5 175.25 289.5 194.75L289.5 230.5L124.5 230.5C91.75 230.5 72.5 212.75 72.5 182.5L72.5 139.25C72.5 126 61.5 115 48.25 115C35 115 24 126 24 139.25Z" fill="black" fill-opacity="0.85"/>
 </g>
</svg>
