<?xml version="1.0" encoding="UTF-8"?>
<!--Generator: Apple Native CoreSVG 326-->
<!DOCTYPE svg
PUBLIC "-//W3C//DTD SVG 1.1//EN"
       "http://www.w3.org/Graphics/SVG/1.1/DTD/svg11.dtd">
<svg version="1.1" xmlns="http://www.w3.org/2000/svg" xmlns:xlink="http://www.w3.org/1999/xlink" viewBox="0 0 822.018 775.75">
 <g>
  <rect height="775.75" opacity="0" width="822.018" x="0" y="0"/>
  <path d="M20.2588 775.75L56.0088 775.75C71.2588 775.75 78.7588 768.5 83.2588 757.25C136.259 625.75 190.009 493.75 243.259 362.25C246.509 354 242.759 347 234.259 347L217.259 347C208.759 347 203.259 351 199.759 358.25C134.009 488.25 68.7588 618 3.00885 747.75C-3.99115 761 1.00885 775.75 20.2588 775.75ZM766.009 775.75L801.759 775.75C821.009 775.75 826.009 761 819.009 747.75C753.509 618 688.009 488.25 622.509 358.25C618.759 351 613.259 347 604.759 347L587.759 347C579.259 347 575.509 354 578.759 362.25C632.009 493.75 685.509 625.75 738.759 757.25C743.259 768.5 750.759 775.75 766.009 775.75ZM405.259 422L416.259 422C426.509 422 434.259 414.5 434.259 404C434.259 391 434.259 378 434.259 365.25C434.259 354.75 426.509 347 416.259 347L405.259 347C395.009 347 387.259 354.75 387.259 365.25C387.259 378 387.259 391 387.259 404C387.259 414.5 395.009 422 405.259 422ZM405.259 587L416.259 587C426.509 587 434.259 579.25 434.259 568.75C434.259 547.75 434.259 526.5 434.259 505.5C434.259 495.25 426.509 487.5 416.259 487.5L405.259 487.5C395.009 487.5 387.259 495.25 387.259 505.5C387.259 526.5 387.259 547.75 387.259 568.75C387.259 579.25 395.009 587 405.259 587ZM405.259 775.75L416.259 775.75C426.509 775.75 434.259 768 434.259 757.5C434.259 729.75 434.259 702.25 434.259 674.5C434.259 664 426.509 656.25 416.259 656.25L405.259 656.25C395.009 656.25 387.259 664 387.259 674.5C387.259 702.25 387.259 729.75 387.259 757.5C387.259 768 395.009 775.75 405.259 775.75Z" fill="black" fill-opacity="0.85"/>
  <path d="M529.259 257.5C584.509 257.5 633.259 224 650.009 182.25C652.009 177.25 651.259 170.25 645.509 169.75C643.009 168.5 640.509 168 635.759 169.5C627.009 172.25 611.509 175.25 596.009 175.25C526.759 175.25 480.009 130.5 480.009 60C480.009 44.25 484.259 24.75 488.759 13.25C491.009 7.75 489.259 1 481.509 1C479.509 1 476.009 2 472.509 3.75C426.509 23.25 396.009 74.5 396.009 126.75C396.009 203 454.509 257.5 529.259 257.5Z" fill="black" fill-opacity="0.85"/>
 </g>
</svg>
