<?xml version="1.0" encoding="UTF-8"?>
<!--Generator: Apple Native CoreSVG 326-->
<!DOCTYPE svg
PUBLIC "-//W3C//DTD SVG 1.1//EN"
       "http://www.w3.org/Graphics/SVG/1.1/DTD/svg11.dtd">
<svg version="1.1" xmlns="http://www.w3.org/2000/svg" xmlns:xlink="http://www.w3.org/1999/xlink" viewBox="0 0 1130.61 795.75">
 <g>
  <rect height="795.75" opacity="0" width="1130.61" x="0" y="0"/>
  <path d="M1057.56 515.5L1106.31 605.25C1118.56 627.75 1130.56 651.25 1130.56 676.5C1130.56 720.75 1094.56 755.75 1050.56 755.75C1006.31 755.75 970.307 720.75 970.307 676.5C970.307 651.25 982.557 627.75 994.557 605.25L1043.56 515.75C1045.31 512.5 1047.31 511 1050.56 511C1053.31 511 1056.31 512.5 1057.56 515.5ZM96.0565 323.25L231.557 372.5C240.057 370.25 249.307 369.25 259.807 369.25L321.686 369.25C314.43 381.429 308.786 395.04 305.424 409.75L260.557 409.75C225.307 409.75 206.307 428.75 206.307 464.75L206.307 634C206.307 669.75 225.307 688.75 260.557 688.75L539.307 688.75C573.057 688.75 597.307 677.75 618.307 650.75L792.057 428.25L594.307 479.5C590.3 480.554 586.688 481.115 583.372 481.151C587.113 468.522 589.057 455.12 589.057 441.25C589.057 440.407 589.049 439.568 588.963 438.756L979.807 337.5C998.307 332.5 1006.81 335.5 1016.56 344L1062.06 383.5C1085.31 404 1055.56 433.25 1032.81 413.5L989.307 376.75L856.807 411L641.057 688C618.057 717 587.057 729.25 539.057 729.25L259.807 729.25C220.557 729.25 195.307 717.75 177.557 690.25L16.5565 434.5C-28.1935 364.75 24.3065 297 96.0565 323.25ZM44.5565 404.5L166.057 598L166.057 462.25C166.057 435 172.307 413.75 184.557 398.75L78.3065 359.75C48.0565 349.25 26.8065 375.5 44.5565 404.5Z" fill="black" fill-opacity="0.85"/>
  <path d="M445.307 545.25C502.807 545.25 549.307 499.25 549.307 441.25C549.307 401 526.307 368.75 495.307 351.75C483.557 345.25 478.557 336.75 478.557 319.5L478.557 73C478.557 55 463.807 40 445.557 40C427.057 40 412.307 55 412.307 73L412.307 319.5C412.307 336.25 407.057 344.5 394.807 351C364.057 368.25 341.557 401 341.557 441.25C341.557 499.25 387.807 545.25 445.307 545.25ZM563.557 104.25L632.307 104.25C642.307 104.25 649.307 96.75 649.307 87.75C649.307 79 642.307 71.5 632.307 71.5L563.557 71.5C553.557 71.5 546.807 79 546.807 87.75C546.807 96.75 553.557 104.25 563.557 104.25ZM563.557 185.25L632.307 185.25C642.307 185.25 649.307 177.75 649.307 169C649.307 160 642.307 152.5 632.307 152.5L563.557 152.5C553.557 152.5 546.807 160 546.807 169C546.807 177.75 553.557 185.25 563.557 185.25ZM563.557 266.5L632.307 266.5C642.307 266.5 649.307 258.75 649.307 250C649.307 241.25 642.307 233.5 632.307 233.5L563.557 233.5C553.557 233.5 546.807 241.25 546.807 250C546.807 258.75 553.557 266.5 563.557 266.5Z" fill="black" fill-opacity="0.85"/>
 </g>
</svg>
