<?xml version="1.0" encoding="UTF-8"?>
<!--Generator: Apple Native CoreSVG 326-->
<!DOCTYPE svg
PUBLIC "-//W3C//DTD SVG 1.1//EN"
       "http://www.w3.org/Graphics/SVG/1.1/DTD/svg11.dtd">
<svg version="1.1" xmlns="http://www.w3.org/2000/svg" xmlns:xlink="http://www.w3.org/1999/xlink" viewBox="0 0 1130.61 497.75">
 <g>
  <rect height="497.75" opacity="0" width="1130.61" x="0" y="0"/>
  <path d="M16.5565 176L177.557 431.75C195.307 459.25 220.557 470.75 259.807 470.75L539.057 470.75C587.057 470.75 618.057 458.75 641.057 429.5L856.807 152.5L989.307 118.5L1032.81 155C1055.56 174.75 1085.31 145.75 1062.06 125L1016.56 85.5C1006.81 77.25 998.307 74 979.807 79L587.057 180.75L533.057 128.5C518.807 115 503.807 111 484.057 111L259.807 111C249.307 111 240.057 112 231.557 114L96.0565 64.75C24.3065 38.5-28.1935 106.25 16.5565 176ZM44.5565 146C26.8065 117.25 48.0565 90.75 78.3065 101.5L184.557 140.25C172.307 155.5 166.057 176.75 166.057 204L166.057 339.5ZM258.807 20.25C258.807 31.5 268.307 40.5 279.307 40.5L468.307 40.5C479.307 40.5 488.807 31.5 488.807 20.25C488.807 9.25 479.307 0 468.307 0L279.307 0C268.307 0 258.807 9.25 258.807 20.25ZM353.557 137.25L394.057 137.25L394.057 16.75L353.557 16.75ZM1050.56 497.5C1094.56 497.5 1130.56 462.25 1130.56 418C1130.56 392.75 1118.56 369.5 1106.31 347L1057.56 257C1056.31 254.25 1053.31 252.5 1050.56 252.5C1047.31 252.5 1045.31 254.25 1043.56 257.5L994.557 347C982.557 369.5 970.307 392.75 970.307 418C970.307 462.25 1006.31 497.5 1050.56 497.5Z" fill="black" fill-opacity="0.85"/>
 </g>
</svg>
