<?xml version="1.0" encoding="UTF-8"?>
<!--Generator: Apple Native CoreSVG 326-->
<!DOCTYPE svg
PUBLIC "-//W3C//DTD SVG 1.1//EN"
       "http://www.w3.org/Graphics/SVG/1.1/DTD/svg11.dtd">
<svg version="1.1" xmlns="http://www.w3.org/2000/svg" xmlns:xlink="http://www.w3.org/1999/xlink" viewBox="0 0 965 791.815">
 <g>
  <rect height="791.815" opacity="0" width="965" x="0" y="0"/>
  <path d="M97.25 96.0325L108.361 107.144C67.7349 154.251 44.75 215.112 44.75 282.282C44.75 353.032 70.25 416.782 114.75 465.032C124.5 476.282 127.25 489.282 118.75 499.032C109.75 509.282 94.5 509.282 84 497.532C30.5 440.782 0 364.782 0 282.282C0 200.633 29.8746 125.349 82.4361 68.8592C84.6469 78.8365 89.6048 88.2994 97.25 96.0325ZM881.25 67.0325C934.5 123.782 965 199.782 965 282.282C965 364.782 934.5 440.782 881.25 497.532C870.75 509.282 855.25 509.282 846.5 499.032C837.75 489.282 840.5 476.282 850.25 465.032C895 416.782 920.25 353.032 920.25 282.282C920.25 211.532 895 147.782 850.25 99.5325C840.5 88.2825 837.75 75.5325 846.5 65.5325C855.25 55.2825 870.75 55.5325 881.25 67.0325Z" fill="black" fill-opacity="0.85"/>
  <path d="M198.744 197.526C181.195 220.805 172.75 250.514 172.75 282.282C172.75 317.282 183 349.782 204.25 374.032C213 385.782 216.75 398.282 208 408.032C198.75 418.282 182.5 418.532 172.75 406.032C144.25 372.532 128 329.032 128 282.282C128 238.808 142.053 198.36 167.086 165.869ZM792.5 158.532C820.75 192.282 837.25 235.532 837.25 282.282C837.25 329.032 820.75 372.532 792.5 406.032C782.75 418.532 766.25 418.282 757.25 408.032C748.5 398.282 752 385.782 760.75 374.032C782 349.782 792.5 317.282 792.5 282.282C792.5 247.282 782 214.782 760.75 190.532C752 178.782 748.5 166.532 757.25 156.532C766.25 146.282 782.75 146.282 792.5 158.532Z" fill="black" fill-opacity="0.85"/>
  <path d="M357.25 356.032L357.25 410.532L411.75 410.532L472.75 471.532L357.25 471.532L357.25 668.032C357.25 688.532 344 702.282 324.25 702.282C304.25 702.282 291.25 688.782 291.25 668.032L291.25 290.032ZM692 282.032C692 354.515 658.999 412.262 604.233 444.016L556.846 396.629C600.373 377.055 624.75 337.358 624.75 282.032C624.75 200.782 572.75 153.532 484.5 153.532L357.25 153.532L357.25 197.032L291.25 131.032L291.25 126.782C291.25 106.282 304.25 92.7825 324.25 92.7825L496.25 92.7825C612.75 92.7825 692 169.282 692 282.032Z" fill="black" fill-opacity="0.85"/>
  <path d="M770.5 720.032C778.75 728.282 792.5 728.282 800.5 720.032C809 711.282 809 698.032 800.5 689.782L152.25 41.0325C144 33.0325 130.5 32.5325 121.75 41.0325C113.75 49.2825 113.75 63.2825 121.75 71.2825Z" fill="black" fill-opacity="0.85"/>
 </g>
</svg>
