<?xml version="1.0" encoding="UTF-8"?>
<!--Generator: Apple Native CoreSVG 326-->
<!DOCTYPE svg
PUBLIC "-//W3C//DTD SVG 1.1//EN"
       "http://www.w3.org/Graphics/SVG/1.1/DTD/svg11.dtd">
<svg version="1.1" xmlns="http://www.w3.org/2000/svg" xmlns:xlink="http://www.w3.org/1999/xlink" viewBox="0 0 946 675.589">
 <g>
  <rect height="675.589" opacity="0" width="946" x="0" y="0"/>
  <path d="M674.25 616.169L922 616.169L852.5 282.169C847.75 258.669 835 247.919 812.5 247.919L783.5 247.919C760.75 247.919 748 258.669 743 282.169ZM670.75 644.169L925 644.169C936.75 644.169 946 634.919 946 623.169C946 611.669 936.75 602.419 925 602.419L670.75 602.419C659 602.419 649.75 611.669 649.75 623.169C649.75 634.919 659 644.169 670.75 644.169Z" fill="black" fill-opacity="0.85"/>
  <path d="M555.25 440.919C564 451.169 579.5 451.169 590 439.419C643.25 382.669 674 306.669 674 224.169C674 141.669 643.25 65.6695 590 8.91946C579.5-2.58054 564-2.83054 555.25 7.41946C546.5 17.4195 549.25 30.1695 559.25 41.4195C603.75 89.6695 629.25 153.419 629.25 224.169C629.25 294.919 603.75 358.669 559.25 406.919C549.25 418.169 546.5 431.169 555.25 440.919Z" fill="black" fill-opacity="0.85"/>
  <path d="M466 349.919C475 360.169 491.5 360.419 501.25 347.919C529.75 314.419 546 270.919 546 224.169C546 177.419 529.75 134.169 501.25 100.419C491.5 88.1695 475 88.1695 466 98.4195C457.25 108.419 461 120.669 469.75 132.419C490.75 156.669 501.25 189.169 501.25 224.169C501.25 259.169 490.75 291.669 469.75 315.919C461 327.669 457.25 340.169 466 349.919Z" fill="black" fill-opacity="0.85"/>
  <path d="M33 644.169C53 644.169 66 630.419 66 609.919L66 413.419L204.75 413.419C321.5 413.419 400.75 336.419 400.75 223.919C400.75 111.169 321.75 34.6695 205 34.6695L33 34.6695C13.25 34.6695 0 48.1695 0 68.6695L0 609.919C0 630.669 13.25 644.169 33 644.169ZM66 352.419L66 95.4195L193.25 95.4195C281.5 95.4195 333.5 142.669 333.5 223.919C333.5 304.919 281.25 352.419 193.25 352.419Z" fill="black" fill-opacity="0.85"/>
 </g>
</svg>
