<?xml version="1.0" encoding="UTF-8"?>
<!--Generator: Apple Native CoreSVG 326-->
<!DOCTYPE svg
PUBLIC "-//W3C//DTD SVG 1.1//EN"
       "http://www.w3.org/Graphics/SVG/1.1/DTD/svg11.dtd">
<svg version="1.1" xmlns="http://www.w3.org/2000/svg" xmlns:xlink="http://www.w3.org/1999/xlink" viewBox="0 0 965 675.589">
 <g>
  <rect height="675.589" opacity="0" width="965" x="0" y="0"/>
  <path d="M118.75 440.919C127.25 431.169 124.5 418.169 114.75 406.919C70.25 358.669 44.75 294.919 44.75 224.169C44.75 153.419 70.25 89.6695 114.75 41.4195C124.5 30.1695 127.25 17.4195 118.75 7.41946C109.75-2.83054 94.5-2.58054 84 8.91946C30.5 65.6695 0 141.669 0 224.169C0 306.669 30.5 382.669 84 439.419C94.5 451.169 109.75 451.169 118.75 440.919ZM846.5 440.919C855.25 451.169 870.75 451.169 881.25 439.419C934.5 382.669 965 306.669 965 224.169C965 141.669 934.5 65.6695 881.25 8.91946C870.75-2.58054 855.25-2.83054 846.5 7.41946C837.75 17.4195 840.5 30.1695 850.25 41.4195C895 89.6695 920.25 153.419 920.25 224.169C920.25 294.919 895 358.669 850.25 406.919C840.5 418.169 837.75 431.169 846.5 440.919Z" fill="black" fill-opacity="0.85"/>
  <path d="M208 349.919C216.75 340.169 213 327.669 204.25 315.919C183 291.669 172.75 259.169 172.75 224.169C172.75 189.169 183 156.669 204.25 132.419C213 120.669 216.75 108.419 208 98.4195C198.75 88.1695 182.5 88.1695 172.75 100.419C144.25 134.169 128 177.419 128 224.169C128 270.919 144.25 314.419 172.75 347.919C182.5 360.419 198.75 360.169 208 349.919ZM757.25 349.919C766.25 360.169 782.75 360.419 792.5 347.919C820.75 314.419 837.25 270.919 837.25 224.169C837.25 177.419 820.75 134.169 792.5 100.419C782.75 88.1695 766.25 88.1695 757.25 98.4195C748.5 108.419 752 120.669 760.75 132.419C782 156.669 792.5 189.169 792.5 224.169C792.5 259.169 782 291.669 760.75 315.919C752 327.669 748.5 340.169 757.25 349.919Z" fill="black" fill-opacity="0.85"/>
  <path d="M324.25 644.169C344 644.169 357.25 630.419 357.25 609.919L357.25 413.419L496 413.419C612.5 413.419 692 336.419 692 223.919C692 111.169 612.75 34.6695 496.25 34.6695L324.25 34.6695C304.25 34.6695 291.25 48.1695 291.25 68.6695L291.25 609.919C291.25 630.669 304.25 644.169 324.25 644.169ZM357.25 352.419L357.25 95.4195L484.5 95.4195C572.75 95.4195 624.75 142.669 624.75 223.919C624.75 304.919 572.5 352.419 484.5 352.419Z" fill="black" fill-opacity="0.85"/>
 </g>
</svg>
