<?xml version="1.0" encoding="UTF-8"?>
<!--Generator: Apple Native CoreSVG 326-->
<!DOCTYPE svg
PUBLIC "-//W3C//DTD SVG 1.1//EN"
       "http://www.w3.org/Graphics/SVG/1.1/DTD/svg11.dtd">
<svg version="1.1" xmlns="http://www.w3.org/2000/svg" xmlns:xlink="http://www.w3.org/1999/xlink" viewBox="0 0 648.25 562.75">
 <g>
  <rect height="562.75" opacity="0" width="648.25" x="0" y="0"/>
  <path d="M519.5 554.5C529.5 563.75 543.5 563.75 552.75 554.5C611.5 495.5 648.25 414.25 648.25 325.5C648.25 147.25 501.25 0 323 0C161.75 0 26.25 121 3.25 276C0 291.25 9.5 303.5 23.5 304.5C36.25 305.5 46.25 297.25 48.75 284.25C67.5 149.75 182.5 46.5 323 46.5C477.5 46.5 601.5 170.75 601.5 325.5C601.5 401.25 571.5 470 522.75 520.5C512.5 531.25 510.25 545.5 519.5 554.5ZM93.25 554.5C102.75 563.75 116.75 563.75 126.5 554.5C136 545.5 133.75 531.25 123.5 520.5C83 478.75 55.5 424 47.25 362.75C45.5 350.25 36.25 341.25 23.75 341.5C9.5 341.75-1.25 353.5 1 369C10.5 440.25 44.25 505.25 93.25 554.5Z" fill="black" fill-opacity="0.85"/>
  <path d="M295.25 364.25C315 383.75 343.75 383.75 363.25 364.25C383 344.5 383 315.75 363.25 296.25C360 292.5 352.5 287.25 348 283.75L190.25 172.5C183.75 167.75 177 169 172.25 173.25C168 177.75 167 184.5 171.75 191L283 348.75C286.25 353.25 291.75 360.75 295.25 364.25Z" fill="black" fill-opacity="0.85"/>
 </g>
</svg>
