<?xml version="1.0" encoding="UTF-8"?>
<!--Generator: Apple Native CoreSVG 326-->
<!DOCTYPE svg
PUBLIC "-//W3C//DTD SVG 1.1//EN"
       "http://www.w3.org/Graphics/SVG/1.1/DTD/svg11.dtd">
<svg version="1.1" xmlns="http://www.w3.org/2000/svg" xmlns:xlink="http://www.w3.org/1999/xlink" viewBox="0 0 897.25 622.75">
 <g>
  <rect height="622.75" opacity="0" width="897.25" x="0" y="0"/>
  <path d="M0 311.25C0 412 33.25 505 89.25 580C98 591.5 112.25 592.75 123.25 584C133.25 575.5 134.5 562.25 126.75 551.25C76.5 484.5 46.75 401 46.75 311.25C46.75 221 76.5 138 126.75 70.75C134.5 60.25 133.5 47 123.25 38.25C112.5 29.5 97.75 31 89.25 42.5C33.25 117.25 0 210.25 0 311.25ZM897.25 311.25C897.25 210.25 864 117.25 807.75 42.5C799.25 31 784.75 29.5 773.75 38.25C763.75 47 762.75 60.25 770.5 70.75C820.75 138 850.25 221 850.25 311.25C850.25 401 820.75 484.5 770.5 551.25C762.75 562.25 763.75 575.5 773.75 584C784.75 592.75 799.25 591.5 807.75 580C864 505 897.25 412 897.25 311.25Z" fill="black" fill-opacity="0.85"/>
  <path d="M448.5 622.25C620.25 622.25 759.75 483 759.75 311.25C759.75 139.5 620.25 0 448.5 0C276.75 0 137.5 139.5 137.5 311.25C137.5 483 276.75 622.25 448.5 622.25ZM448.5 575.75C302.5 575.75 184 457.25 184 311.25C184 165.25 302.5 46.5 448.5 46.5C594.5 46.5 713.25 165.25 713.25 311.25C713.25 457.25 594.5 575.75 448.5 575.75Z" fill="black" fill-opacity="0.85"/>
  <path d="M239.5 311.25C239.5 368.75 276.5 407.75 331.25 407.75C361 407.75 385.25 394.5 412.75 368.75L449.25 334.25L485.5 368.75C514 395.75 538 407.75 567 407.75C621.5 407.75 659 368.75 659 311.25C659 253.5 621.5 214.5 567 214.5C538 214.5 514 226.5 485.5 253.5L449.25 288L412.75 253.5C385.5 228 361.25 214.5 331.25 214.5C276.5 214.5 239.5 253.5 239.5 311.25ZM273.25 311.25C273.25 273.5 296.5 248 331.25 248C350 248.25 366.25 256.5 389 277.75L425 311.25L389 344.5C367.25 364.5 350.75 374 331.25 374C296.5 374 273.25 349 273.25 311.25ZM473.25 311.25L509.25 277.75C532 256.5 548.25 248.25 567 248C601.5 248 625 273.5 625 311.25C625 348.75 601.75 374 567 374C547.25 374 531 364.5 509.25 344.5Z" fill="black" fill-opacity="0.85"/>
 </g>
</svg>
