<?xml version="1.0" encoding="UTF-8"?>
<!--Generator: Apple Native CoreSVG 326-->
<!DOCTYPE svg
PUBLIC "-//W3C//DTD SVG 1.1//EN"
       "http://www.w3.org/Graphics/SVG/1.1/DTD/svg11.dtd">
<svg version="1.1" xmlns="http://www.w3.org/2000/svg" xmlns:xlink="http://www.w3.org/1999/xlink" viewBox="0 0 1060 622.75">
 <g>
  <rect height="622.75" opacity="0" width="1060" x="0" y="0"/>
  <path d="M1022 522C1042.75 522 1060 505 1060 485.25C1060 464.75 1043 448.25 1022 448.25C1001 448.25 984 464.75 984 485.25C984 505 1001.25 522 1022 522ZM1022 382.75C1035.5 382.75 1045 373 1045.5 359.25L1051 129C1051.5 111.5 1040 100 1022 100C1004 100 992.5 111.5 993 129L998.5 359.25C999 373 1008.5 382.75 1022 382.75Z" fill="black" fill-opacity="0.85"/>
  <path d="M448.5 622.25C620.25 622.25 759.75 483 759.75 311.25C759.75 139.5 620.25 0 448.5 0C276.75 0 137.5 139.5 137.5 311.25C137.5 483 276.75 622.25 448.5 622.25ZM448.5 575.75C302.5 575.75 184 457.25 184 311.25C184 165.25 302.5 46.5 448.5 46.5C594.5 46.5 713.25 165.25 713.25 311.25C713.25 457.25 594.5 575.75 448.5 575.75ZM0 311.25C0 412 33.25 505 89.25 580C98 591.5 112.25 592.75 123.25 584C133.25 575.5 134.5 562.25 126.75 551.25C76.5 484.5 46.75 401 46.75 311.25C46.75 221 76.5 138 126.75 70.75C134.5 60.25 133.5 47 123.25 38.25C112.5 29.5 97.75 31 89.25 42.5C33.25 117.25 0 210.25 0 311.25ZM897.25 311.25C897.25 210.25 864 117.25 807.75 42.5C799.25 31 784.75 29.5 773.75 38.25C763.75 47 762.75 60.25 770.5 70.75C820.75 138 850.25 221 850.25 311.25C850.25 401 820.75 484.5 770.5 551.25C762.75 562.25 763.75 575.5 773.75 584C784.75 592.75 799.25 591.5 807.75 580C864 505 897.25 412 897.25 311.25ZM239.5 311.25C239.5 368.75 276.5 407.5 331 407.5C360.75 407.5 385.25 394.25 412.5 368.5L449 334L485.5 368.5C514 395.75 538 407.5 567 407.5C621.5 407.5 658.75 368.75 658.75 311.25C658.75 253.75 621.5 214.5 567 214.5C538 214.5 514 226.5 485.5 253.75L449 288.25L412.5 253.75C385.5 228.25 361 214.75 331 214.5C276.5 214.5 239.5 253.75 239.5 311.25ZM273 311.25C273 273.25 296.25 247.75 331 247.75C349.75 248 366.25 256.5 389 277.75L425.25 311.25L389 344.5C367.25 364.75 350.75 374.25 331 374.25C296.25 374.25 273 349 273 311.25ZM472.75 311.25L509 277.75C531.75 256.5 548.25 248 567 247.75C601.75 247.75 625.25 273.25 625.25 311.25C625.25 348.75 601.75 374.25 567 374.25C547.25 374.25 530.75 364.75 509 344.5Z" fill="black" fill-opacity="0.85"/>
 </g>
</svg>
