<?xml version="1.0" encoding="UTF-8"?>
<!--Generator: Apple Native CoreSVG 326-->
<!DOCTYPE svg
PUBLIC "-//W3C//DTD SVG 1.1//EN"
       "http://www.w3.org/Graphics/SVG/1.1/DTD/svg11.dtd">
<svg version="1.1" xmlns="http://www.w3.org/2000/svg" xmlns:xlink="http://www.w3.org/1999/xlink" viewBox="0 0 808.144 476.75">
 <g>
  <rect height="476.75" opacity="0" width="808.144" x="0" y="0"/>
  <path d="M18.5721 476.75L57.3221 476.75C71.8221 476.75 78.8221 470 81.3221 459.75C118.572 313.25 120.822 161.75 72.3221 12C69.5721 3.5 63.8221 0.5 54.5721 0.5L42.5721 0.5C34.0721 0.5 27.3221 5.75 29.8221 16.5C66.0721 174.75 56.0721 309.25 1.82208 451.5C-3.42792 465.75 2.82208 476.75 18.5721 476.75ZM750.822 476.75L787.322 476.75C805.072 476.75 810.322 464.75 807.072 451C761.822 242.75 643.822 100.75 528.322 9.75C518.322 2 512.822 0.5 505.572 0.5L493.322 0.5C484.822 0.5 479.322 10.25 486.572 17.75C626.322 160.25 693.322 292 722.572 453.5C725.072 467 731.072 476.75 750.822 476.75ZM313.572 78.25L323.572 78.25C336.322 78.25 341.322 66.25 334.322 56C320.822 36 306.572 18 296.322 7C291.572 1.75 286.822 0 278.822 0L271.072 0C261.572 0 255.322 8.25 261.572 17.5C275.822 39.25 285.072 55 291.822 66.5C296.572 75.25 302.322 78.25 313.572 78.25ZM375.322 236.25L395.822 236.25C409.322 236.25 414.322 227 410.322 215.5C403.072 194.5 395.072 173.75 388.072 157.75C383.572 148.25 378.572 144.5 367.572 144.5L352.072 144.5C341.572 144.5 333.822 151 338.322 164.5C345.322 185 350.822 204.75 354.322 219.25C357.072 230.25 362.822 236.25 375.322 236.25ZM408.322 476.75L428.572 476.75C441.572 476.75 448.572 469.5 448.322 455.75C446.572 412.25 441.072 358 432.822 323C430.072 311.5 422.322 306.75 411.822 306.75L396.572 306.75C383.322 306.75 376.822 312 379.072 328C383.572 360.25 386.572 407.75 387.322 456C387.322 470 395.072 476.75 408.322 476.75Z" fill="black" fill-opacity="0.85"/>
 </g>
</svg>
