<?xml version="1.0" encoding="UTF-8"?>
<!--Generator: Apple Native CoreSVG 326-->
<!DOCTYPE svg
PUBLIC "-//W3C//DTD SVG 1.1//EN"
       "http://www.w3.org/Graphics/SVG/1.1/DTD/svg11.dtd">
<svg version="1.1" xmlns="http://www.w3.org/2000/svg" xmlns:xlink="http://www.w3.org/1999/xlink" viewBox="0 0 913.418 476.75">
 <g>
  <rect height="476.75" opacity="0" width="913.418" x="0" y="0"/>
  <path d="M22.5839 476.75L62.3339 476.75C79.0839 476.75 87.5839 468.75 92.3339 456.25C151.584 310 211.084 163.5 270.334 17.25C274.084 8 269.584 0.5 260.334 0.5L241.584 0.5C232.084 0.5 226.084 4.75 222.084 13C149.084 157.25 76.3339 301.5 3.33393 445.75C-4.16607 460.25 1.33393 476.75 22.5839 476.75ZM851.084 476.75L890.834 476.75C912.334 476.75 917.834 460.25 910.084 445.75C837.334 301.5 764.584 157.25 691.834 13C687.334 4.75 681.334 0.5 672.084 0.5L653.334 0.5C643.834 0.5 639.334 8 643.334 17.25C702.334 163.5 761.834 310 821.084 456.25C825.834 468.75 834.334 476.75 851.084 476.75ZM450.334 84L462.584 84C473.834 84 482.834 75.25 482.834 63.75C482.834 49.5 482.834 35 482.834 20.5C482.834 9 473.834 0.5 462.584 0.5L450.334 0.5C439.084 0.5 430.334 9 430.334 20.5C430.334 35 430.334 49.5 430.334 63.75C430.334 75.25 439.084 84 450.334 84ZM450.334 267L462.584 267C473.834 267 482.834 258.5 482.834 246.75C482.834 223.5 482.834 200 482.834 176.75C482.834 165 473.834 156.5 462.584 156.5L450.334 156.5C439.084 156.5 430.334 165 430.334 176.75C430.334 200 430.334 223.5 430.334 246.75C430.334 258.5 439.084 267 450.334 267ZM450.334 476.75L462.584 476.75C473.834 476.75 482.834 468.25 482.834 456.75C482.834 425.75 482.834 395 482.834 364.25C482.834 352.5 473.834 344 462.584 344L450.334 344C439.084 344 430.334 352.5 430.334 364.25C430.334 395 430.334 425.75 430.334 456.75C430.334 468.25 439.084 476.75 450.334 476.75Z" fill="black" fill-opacity="0.85"/>
 </g>
</svg>
