<?xml version="1.0" encoding="UTF-8"?>
<!--Generator: Apple Native CoreSVG 326-->
<!DOCTYPE svg
PUBLIC "-//W3C//DTD SVG 1.1//EN"
       "http://www.w3.org/Graphics/SVG/1.1/DTD/svg11.dtd">
<svg version="1.1" xmlns="http://www.w3.org/2000/svg" xmlns:xlink="http://www.w3.org/1999/xlink" viewBox="0 0 1022 476.75">
 <g>
  <rect height="476.75" opacity="0" width="1022" x="0" y="0"/>
  <path d="M138 476.75L177.75 476.75C194.5 476.75 202.75 468.75 207.75 456.25L385.5 17.25C389.25 8 385 0.5 375.5 0.5L356.75 0.5C347.5 0.5 341.25 4.75 337.25 13L118.5 445.75C111 460.25 116.5 476.75 138 476.75ZM844.5 476.75L884.25 476.75C905.5 476.75 911 460.25 903.5 445.75L685 13C680.75 4.75 674.75 0.5 665.25 0.5L646.5 0.5C637 0.5 632.75 8 636.5 17.25L814.25 456.25C819.25 468.75 827.75 476.75 844.5 476.75Z" fill="black" fill-opacity="0.85"/>
  <path d="M26.75 266.75L141.5 196.75C155 188.75 154.5 172.75 141.5 164.75L26.5 94.25C13 86 0 93 0 108.75L0 252.75C0 268.75 13.25 275 26.75 266.75ZM995.5 266.75C1009.25 274.75 1022 268.75 1022 252.75L1022 108.75C1022 93 1009.25 86.25 995.5 94.25L880.5 164.75C867.5 173 867.25 188.5 880.5 196.75Z" fill="black" fill-opacity="0.85"/>
 </g>
</svg>
