<?xml version="1.0" encoding="UTF-8"?>
<!--Generator: Apple Native CoreSVG 326-->
<!DOCTYPE svg
PUBLIC "-//W3C//DTD SVG 1.1//EN"
       "http://www.w3.org/Graphics/SVG/1.1/DTD/svg11.dtd">
<svg version="1.1" xmlns="http://www.w3.org/2000/svg" xmlns:xlink="http://www.w3.org/1999/xlink" viewBox="0 0 749.438 734.375">
 <g>
  <rect height="734.375" opacity="0" width="749.438" x="0" y="0"/>
  <path d="M138.153 222.954C137.902 223.308 137.685 223.685 137.469 224.062C126.719 239.562 132.469 257.062 150.719 257.062L172.276 257.063L304.081 388.811C305.161 426.351 334.919 456.022 372.263 456.965L462.566 547.229C457.028 565.961 454.629 585.873 455.719 606.312C456.219 621.562 467.469 631.062 482.969 623.812C495.904 618.332 508.3 611.949 520.017 604.657L553.989 638.615C502.64 672.751 440.99 692.562 374.719 692.562C194.969 692.562 49.2189 546.812 49.2189 367.062C49.2189 300.861 68.989 239.237 103.066 187.881ZM104.719 437.562C125.969 521.062 185.719 589.812 265.719 623.812C281.469 631.062 292.719 621.562 293.219 606.312C298.719 507.312 222.219 421.562 124.469 413.062C109.219 411.312 99.9689 420.062 104.719 437.562ZM700.219 367.062C700.219 429.241 682.779 487.351 652.212 536.555L618.184 502.527C629.55 482.298 638.316 460.486 644.219 437.562C648.969 420.062 639.719 411.312 624.469 413.062C598.047 415.348 573.252 423.257 551.319 435.662L372.719 257.063L597.719 257.062C616.469 257.062 621.969 239.562 611.219 223.562C564.469 142.812 475.719 88.0625 374.219 88.0625C325.061 88.0625 278.894 100.905 239.127 123.471L205.114 89.4574C254.343 58.8089 312.494 41.3125 374.719 41.3125C554.469 41.3125 700.219 187.312 700.219 367.062Z" fill="black" fill-opacity="0.85"/>
  <path d="M657.969 684.562C669.719 696.062 688.469 695.562 699.719 684.062C710.719 672.562 711.219 654.062 699.719 642.562L107.219 49.8125C95.7189 38.3125 76.7189 38.3125 65.2189 49.8125C53.9689 61.0625 53.9689 80.3125 65.2189 91.5625Z" fill="black" fill-opacity="0.85"/>
 </g>
</svg>
