<?xml version="1.0" encoding="UTF-8"?>
<!--Generator: Apple Native CoreSVG 326-->
<!DOCTYPE svg
PUBLIC "-//W3C//DTD SVG 1.1//EN"
       "http://www.w3.org/Graphics/SVG/1.1/DTD/svg11.dtd">
<svg version="1.1" xmlns="http://www.w3.org/2000/svg" xmlns:xlink="http://www.w3.org/1999/xlink" viewBox="0 0 816 791.688">
 <g>
  <rect height="791.688" opacity="0" width="816" x="0" y="0"/>
  <path d="M726.295 326.887C710.302 320.446 692.812 316.969 674.5 316.969C595.75 316.969 533 380.469 533 458.219C533 472.702 535.097 486.702 539.116 499.878C505.756 535.202 486.371 583.407 489.25 634.969C489.5 650.219 500.75 659.719 516.5 652.469C547.053 639.484 574.653 621.43 598.25 599.391L598.25 659.505C544.872 698.431 479.074 721.219 408 721.219C228.25 721.219 82.5 575.469 82.5 395.719C82.5 215.969 228.25 69.9689 408 69.9689C564.12 69.9689 694.78 180.105 726.295 326.887ZM138 466.219C159.5 549.719 219 618.469 299.25 652.469C314.75 659.719 326.25 650.219 326.5 634.969C332 535.969 255.5 450.219 158 441.719C142.5 439.969 133.25 448.719 138 466.219ZM337.25 415.219C337.25 454.469 368.75 485.719 407.75 485.719C446.75 485.719 478.25 454.469 478.25 415.219C478.25 376.219 446.75 344.969 407.75 344.969C368.75 344.969 337.25 376.219 337.25 415.219ZM171 252.719C160 268.219 165.75 285.719 184.25 285.719L631.25 285.719C649.75 285.719 655.5 268.219 644.5 252.219C597.75 171.469 509 116.719 407.5 116.719C306.25 116.719 217.5 171.469 171 252.719Z" fill="black" fill-opacity="0.85"/>
  <path d="M674.5 356.969C617.75 356.969 572.75 402.219 572.75 458.219C572.75 501.719 598.5 538.719 638 553.969L638 712.969C638 716.719 639.75 719.719 642.5 722.719L669 749.469C672.25 752.469 676.25 752.719 679.75 749.469L730.5 698.719C733.75 695.719 733.75 691.719 730.5 688.469L698.25 656.219L742.75 612.969C745.5 610.219 745.5 605.969 742 602.219L698.25 558.719C748 538.719 776 502.719 776 458.219C776 402.469 730.75 356.969 674.5 356.969ZM674.25 403.969C691.5 403.969 705.5 417.969 705.5 435.219C705.5 452.719 691.5 466.969 674.25 466.969C657 466.969 642.75 452.719 642.75 435.219C642.75 417.969 656.75 403.969 674.25 403.969Z" fill="black" fill-opacity="0.85"/>
 </g>
</svg>
