<?xml version="1.0" encoding="UTF-8"?>
<!--Generator: Apple Native CoreSVG 326-->
<!DOCTYPE svg
PUBLIC "-//W3C//DTD SVG 1.1//EN"
       "http://www.w3.org/Graphics/SVG/1.1/DTD/svg11.dtd">
<svg version="1.1" xmlns="http://www.w3.org/2000/svg" xmlns:xlink="http://www.w3.org/1999/xlink" viewBox="0 0 829 651.75">
 <g>
  <rect height="651.75" opacity="0" width="829" x="0" y="0"/>
  <path d="M791 536.5C811.75 536.5 829 519.5 829 499.75C829 479.25 812 462.75 791 462.75C770 462.75 753 479.25 753 499.75C753 519.5 770.25 536.5 791 536.5ZM791 397.25C804.5 397.25 814 387.5 814.5 373.75L820 143.5C820.5 126 809 114.5 791 114.5C773 114.5 761.5 126 762 143.5L767.5 373.75C768 387.5 777.5 397.25 791 397.25Z" fill="black" fill-opacity="0.85"/>
  <path d="M325.5 651.25C505.25 651.25 651.25 505.5 651.25 325.75C651.25 146 505.25 0 325.5 0C145.75 0 0 146 0 325.75C0 505.5 145.75 651.25 325.5 651.25ZM88.5 182.75C135 101.5 223.75 46.75 325 46.75C426.5 46.75 515.25 101.5 562 182.25C573 198.25 567.25 215.75 548.75 215.75L101.75 215.75C83.25 215.75 77.5 198.25 88.5 182.75ZM325.25 415.75C286.25 415.75 254.75 384.5 254.75 345.25C254.75 306.25 286.25 275 325.25 275C364.25 275 395.75 306.25 395.75 345.25C395.75 384.5 364.25 415.75 325.25 415.75ZM55.5 396.25C50.75 378.75 60 370 75.5 371.75C173 380.25 249.5 466 244 565C243.75 580.25 232.25 589.75 216.75 582.5C136.5 548.5 77 479.75 55.5 396.25ZM595 396.25C573.75 479.75 514 548.5 434 582.5C418.25 589.75 407 580.25 406.75 565C401.25 466.5 477 380.25 575.25 371.75C590.5 370 600 378.75 595 396.25Z" fill="black" fill-opacity="0.85"/>
 </g>
</svg>
