<?xml version="1.0" encoding="UTF-8"?>
<!--Generator: Apple Native CoreSVG 326-->
<!DOCTYPE svg
PUBLIC "-//W3C//DTD SVG 1.1//EN"
       "http://www.w3.org/Graphics/SVG/1.1/DTD/svg11.dtd">
<svg version="1.1" xmlns="http://www.w3.org/2000/svg" xmlns:xlink="http://www.w3.org/1999/xlink" viewBox="0 0 967.677 651.75">
 <g>
  <rect height="651.75" opacity="0" width="967.677" x="0" y="0"/>
  <path d="M646.213 376C650.077 381.186 654.965 387.395 660.554 394.504C600.73 427.721 561.448 493.096 565.463 565C565.713 580.25 576.963 589.75 592.713 582.5C645.187 560.199 688.949 522.946 718.754 476.324C724.594 486.136 730.09 496.239 734.963 506.5L742.781 523.102C683.503 601.087 589.666 651.25 484.213 651.25C378.427 651.25 284.416 600.769 225.246 522.358L232.713 506.5C237.636 496.135 243.194 485.931 249.104 476.028C278.93 522.788 322.714 560.151 375.463 582.5C390.963 589.75 402.463 580.25 402.713 565C406.73 492.699 367.011 427.465 307.222 394.377C312.769 387.323 317.622 381.156 321.463 376C340.286 350.77 362.636 260.747 370.75 215.75L596.927 215.75C605.04 260.747 627.391 350.77 646.213 376ZM413.463 345.25C413.463 384.5 444.963 415.75 483.963 415.75C522.963 415.75 554.463 384.5 554.463 345.25C554.463 306.25 522.963 275 483.963 275C444.963 275 413.463 306.25 413.463 345.25ZM758.474 150.574C750.388 161.531 733.776 170.815 711.963 167.75C711.716 167.54 711.465 167.321 711.201 167.057C662.532 94.7054 578.707 46.75 483.713 46.75C389.474 46.75 306.064 94.1806 257.313 166.296C256.764 166.83 256.233 167.31 255.713 167.75C234.356 170.751 217.983 161.912 209.714 151.257C267.235 60.2904 368.704 0 484.213 0C599.437 0 700.792 59.9925 758.474 150.574Z" fill="black" fill-opacity="0.85"/>
  <path d="M305.463 162.75C279.963 162.75 268.463 197.5 245.213 197.5C212.213 197.5 175.713 169 175.713 150.75C175.713 146.25 177.713 140.5 177.713 138C177.713 133.25 174.213 130.5 168.713 130.5C138.213 130.5 76.9633 148.75 77.9633 192C69.7133 196.25 52.9633 207 52.9633 232.5C52.9633 276.25 69.4633 280.75 69.4633 395.75C69.4633 436.25 52.7133 471.75 37.2133 495.25C-2.78667 556.5 137.963 637.75 181.713 545.25L205.963 493.75C233.213 435.5 279.463 382.25 297.713 358.25C316.213 333.5 344.213 207 344.213 192C344.213 177 331.713 162.75 305.463 162.75ZM662.463 162.75C635.963 162.75 623.463 177 623.463 192C623.463 207 651.713 333.5 669.963 358.25C688.463 382.25 734.463 435.5 761.713 493.75L785.963 545.25C829.713 637.75 970.463 556.5 930.463 495.25C914.963 471.75 898.463 436.25 898.463 395.75C898.463 280.75 914.713 276.25 914.713 232.5C914.713 207 897.963 196.25 889.713 192C890.713 148.75 829.463 130.5 798.963 130.5C793.463 130.5 789.963 133.25 789.963 138C789.963 140.5 791.963 146.25 791.963 150.75C791.963 169 755.463 197.5 722.463 197.5C699.213 197.5 687.963 162.75 662.463 162.75Z" fill="black" fill-opacity="0.85"/>
 </g>
</svg>
