<?xml version="1.0" encoding="UTF-8"?>
<!--Generator: Apple Native CoreSVG 326-->
<!DOCTYPE svg
PUBLIC "-//W3C//DTD SVG 1.1//EN"
       "http://www.w3.org/Graphics/SVG/1.1/DTD/svg11.dtd">
<svg version="1.1" xmlns="http://www.w3.org/2000/svg" xmlns:xlink="http://www.w3.org/1999/xlink" viewBox="0 0 828 856.25">
 <g>
  <rect height="856.25" opacity="0" width="828" x="0" y="0"/>
  <path d="M476.357 108.378C478.567 128.405 485.628 145.928 492.96 160.733C467.851 153.063 441.149 149 413.5 149C312.25 149 223.5 203.75 177 285C166 300.5 171.75 318 190.25 318L475.777 318C478.524 369.827 509.338 410 551.5 410C571.75 410 589.75 400.75 602.75 384.5C613.75 401.25 630.5 410 650.5 410C670.75 410 690.25 399.75 701.25 384.5C710.662 398.095 723.224 406.791 738.801 409.244C739.569 415.379 739.75 421.669 739.75 428C739.75 607.75 593.75 753.5 414 753.5C234.25 753.5 88.5 607.75 88.5 428C88.5 248.25 234.25 102.25 414 102.25C435.34 102.25 456.204 104.308 476.357 108.378ZM144 498.5C165.5 582 225 650.75 305.25 684.75C320.75 692 332.25 682.5 332.5 667.25C338 568.25 261.5 482.5 164 474C148.5 472.25 139.25 481 144 498.5ZM663.75 474C565.5 482.5 489.75 568.75 495.25 667.25C495.5 682.5 506.75 692 522.5 684.75C602.5 650.75 662.25 582 683.5 498.5C688.5 481 679 472.25 663.75 474ZM343.25 447.5C343.25 486.75 374.75 518 413.75 518C452.75 518 484.25 486.75 484.25 447.5C484.25 408.5 452.75 377.25 413.75 377.25C374.75 377.25 343.25 408.5 343.25 447.5Z" fill="black" fill-opacity="0.85"/>
  <path d="M588.25 205.5C588.25 164.5 550.25 140.75 550.25 110C550.25 93.75 554.75 84.5 565.75 69.5C579.25 51.5 554 33 540.25 50.75C525 70 518.75 87 518.75 108.25C518.75 151 556 174.75 556 205.5C556 235.5 518.75 260 518.75 302C518.75 324 525 341 539.75 359.75C553.5 377 578.75 358.75 565.25 340.75C554.75 326.5 550.25 317 550.25 300.25C550.25 270.25 588.25 246.75 588.25 205.5ZM686.5 205.5C686.5 164.5 648.75 140.75 648.75 110C648.75 93.75 653 84.5 664 69.5C677.75 51.5 652.5 33 638.5 50.75C623.25 70 617 87 617 108.25C617 151 654.5 174.75 654.5 205.5C654.5 235.5 617 260 617 302C617 324 623.25 341 638.25 359.75C651.75 377 677.25 358.75 663.5 340.75C653 326.5 648.75 317 648.75 300.25C648.75 270.25 686.5 246.75 686.5 205.5ZM785 205.5C785 164.5 747 140.75 747 110C747 93.75 751.5 84.5 762.5 69.5C776 51.5 750.75 33 736.75 50.75C721.75 70 715.25 87 715.25 108.25C715.25 151 752.75 174.75 752.75 205.5C752.75 235.5 715.25 260 715.25 302C715.25 324 721.75 341 736.5 359.75C750.25 377 775.5 358.75 762 340.75C751.5 326.5 747 317 747 300.25C747 270.25 785 246.75 785 205.5Z" fill="black" fill-opacity="0.85"/>
 </g>
</svg>
