<?xml version="1.0" encoding="UTF-8"?>
<!--Generator: Apple Native CoreSVG 326-->
<!DOCTYPE svg
PUBLIC "-//W3C//DTD SVG 1.1//EN"
       "http://www.w3.org/Graphics/SVG/1.1/DTD/svg11.dtd">
<svg version="1.1" xmlns="http://www.w3.org/2000/svg" xmlns:xlink="http://www.w3.org/1999/xlink" viewBox="0 0 254 730.25">
 <g>
  <rect height="730.25" opacity="0" width="254" x="0" y="0"/>
  <path d="M127 205.75C184 205.75 230 160 230 102.75C230 46 184 0 127 0C70.25 0 24.25 46 24.25 102.75C24.25 160 70.25 205.75 127 205.75ZM127 169C90.5 169 60.75 139.5 60.75 102.75C60.75 66.25 90.5 36.75 127 36.75C163.75 36.75 193.25 66.25 193.25 102.75C193.25 139.5 163.75 169 127 169ZM19.5 233.25L234.25 233.25C245.25 233.25 254 224.5 254 213.5C254 202.75 245.25 194 234.25 194L19.5 194C8.75 194 0 202.75 0 213.5C0 224.5 8.75 233.25 19.5 233.25ZM19.5 336.25L234.25 336.25C245.25 336.25 254 327.5 254 316.5C254 305.75 245.25 297 234.25 297L19.5 297C8.75 297 0 305.75 0 316.5C0 327.5 8.75 336.25 19.5 336.25ZM19.5 441.75L234.25 441.75C245.25 441.75 254 432.75 254 422C254 411.25 245.25 402.5 234.25 402.5L19.5 402.5C8.75 402.5 0 411.25 0 422C0 432.75 8.75 441.75 19.5 441.75ZM42.25 421.25L42.25 572.75C42.25 608.75 60.5 626.25 94.75 626.25L159.5 626.25C193.75 626.25 211.75 608.75 211.75 572.75L211.75 421.25ZM127 730.25C162.75 730.25 191.75 701.25 191.75 665.5C191.75 629.75 162.75 600.75 127 600.75C91.5 600.75 62.5 629.75 62.5 665.5C62.5 701.25 91.5 730.25 127 730.25ZM127 694.25C111.25 694.25 98.25 681.25 98.25 665.5C98.25 649.75 111.25 636.75 127 636.75C142.75 636.75 155.75 649.75 155.75 665.5C155.75 681.25 142.75 694.25 127 694.25Z" fill="black" fill-opacity="0.85"/>
 </g>
</svg>
