<?xml version="1.0" encoding="UTF-8"?>
<!--Generator: Apple Native CoreSVG 326-->
<!DOCTYPE svg
PUBLIC "-//W3C//DTD SVG 1.1//EN"
       "http://www.w3.org/Graphics/SVG/1.1/DTD/svg11.dtd">
<svg version="1.1" xmlns="http://www.w3.org/2000/svg" xmlns:xlink="http://www.w3.org/1999/xlink" viewBox="0 0 1068.15 876.971">
 <g>
  <rect height="876.971" opacity="0" width="1068.15" x="0" y="0"/>
  <path d="M419.2 649.361C453.45 629.611 464.95 586.861 445.2 552.611C425.45 518.361 382.45 506.861 348.2 526.611C314.2 546.361 302.7 589.361 322.2 623.611C341.95 657.611 384.95 669.111 419.2 649.361ZM871.45 388.361C905.7 368.611 917.2 325.611 897.45 291.361C877.7 257.361 834.7 245.861 800.7 265.611C766.7 285.111 754.95 328.361 774.7 362.361C794.45 396.611 837.45 408.111 871.45 388.361ZM840.7 23.1106L821.95 14.1106C776.2-7.63938 735.7-4.38938 684.95 24.8606L509.7 126.111C417.45 179.361 386.2 208.861 351.45 274.861L293.45 384.361L215.2 443.361C145.45 495.861 128.2 551.611 162.7 611.611L184.95 650.111C205.45 685.361 237.45 694.361 271.95 674.611L308.95 653.111C304.95 648.361 301.2 643.361 297.95 637.611C270.45 590.111 286.45 529.611 334.2 502.361C381.7 474.861 441.95 490.861 469.45 538.611C472.95 544.361 475.45 550.111 477.45 555.861L761.45 391.861C757.2 387.361 753.45 382.111 750.2 376.361C722.95 329.111 739.2 268.361 786.45 241.111C834.2 213.611 894.45 229.861 921.95 277.361C925.2 283.111 927.7 288.861 929.7 294.861L953.7 280.861C990.95 259.361 996.95 230.361 973.2 189.111L916.95 91.3606C900.7 63.6106 872.95 38.6106 840.7 23.1106Z" fill="black" fill-opacity="0.85"/>
  <path d="M137.7 710.861L73.6999 599.861C63.9499 582.611 44.1999 586.611 38.1999 603.611L1.94995 698.361C-3.05005 711.111 2.94995 721.611 16.4499 723.611L116.45 739.861C134.45 743.111 147.7 727.861 137.7 710.861ZM201.45 863.861C207.95 874.611 221.45 877.861 231.7 872.361L1057.2 396.111C1067.45 390.361 1071.2 376.861 1065.45 366.361C1058.7 355.361 1044.95 352.111 1034.95 357.861L209.2 834.111C199.2 839.611 195.45 853.361 201.45 863.861Z" fill="black" fill-opacity="0.85"/>
 </g>
</svg>
