<?xml version="1.0" encoding="UTF-8"?>
<!--Generator: Apple Native CoreSVG 326-->
<!DOCTYPE svg
PUBLIC "-//W3C//DTD SVG 1.1//EN"
       "http://www.w3.org/Graphics/SVG/1.1/DTD/svg11.dtd">
<svg version="1.1" xmlns="http://www.w3.org/2000/svg" xmlns:xlink="http://www.w3.org/1999/xlink" viewBox="0 0 1048.5 815.75">
 <g>
  <rect height="815.75" opacity="0" width="1048.5" x="0" y="0"/>
  <path d="M72.25 596L162.75 596L162.75 551.5L74.25 551.5C54.75 551.5 44.5 540 44.5 517L44.5 470.5C44.5 416.5 78.5 387 154.25 377.75L275.75 362.75L404.75 282.25C470.5 241.25 508.75 231.5 623.75 231.5L856 231.5C907.75 231.5 938 245.75 961.75 280.5L975.25 300.25C993.5 326.75 1004 357.75 1004 386.5L1004 518.25C1004 541.75 995.5 551.5 974 551.5L905.25 551.5L905.25 596L976.25 596C1025.5 596 1048.5 570.75 1048.5 516L1048.5 386.5C1048.5 349.5 1035.25 308.25 1012 274.75L998.25 255.25C965.25 207.5 923.25 187.25 856 187.25L623.75 187.25C501.25 187.25 453.5 198.75 381 244.25L260.5 319.75L148.75 333.5C49 345.5 0 391.25 0 470.5L0 521.75C0 568.75 26.75 596 72.25 596ZM233.25 619.25C201.75 619.25 178 595.5 178 564C178 532.75 201.75 509 233.25 509C264.5 509 288.5 532.75 288.5 564C288.5 595.5 264.5 619.25 233.25 619.25ZM233.25 663.75C289 663.75 333 620.25 333 564C333 508.25 289 464.5 233.25 464.5C177.25 464.5 133.5 508.25 133.5 564C133.5 620.25 177.25 663.75 233.25 663.75ZM305.25 596L757.5 596L757.5 551.5L305.25 551.5ZM834 663.75C889.75 663.75 933.75 620.25 933.75 564C933.75 508.25 889.75 464.5 834 464.5C778.25 464.5 734.5 508.25 734.5 564C734.5 620.25 778.25 663.75 834 663.75ZM834 619.25C802.5 619.25 778.75 595.5 778.75 564C778.75 532.75 802.5 509 834 509C865.5 509 889.25 532.75 889.25 564C889.25 595.5 865.5 619.25 834 619.25Z" fill="black" fill-opacity="0.85"/>
  <path d="M521 139.75L914.25 139.75C939 139.75 952.25 123.75 952.25 98.75L952.25 66C952.25 22.5 929.5 0 877.5 0L759.75 0C704.5 0 660.25 13.75 589.5 44.5L515.25 78C495.75 86.5 490 98.75 490 111.5C490 129.75 499.25 139.75 521 139.75Z" fill="black" fill-opacity="0.85"/>
 </g>
</svg>
