<?xml version="1.0" encoding="UTF-8"?>
<!--Generator: Apple Native CoreSVG 326-->
<!DOCTYPE svg
PUBLIC "-//W3C//DTD SVG 1.1//EN"
       "http://www.w3.org/Graphics/SVG/1.1/DTD/svg11.dtd">
<svg version="1.1" xmlns="http://www.w3.org/2000/svg" xmlns:xlink="http://www.w3.org/1999/xlink" viewBox="0 0 1127.25 513.25">
 <g>
  <rect height="513.25" opacity="0" width="1127.25" x="0" y="0"/>
  <path d="M338.25 416.25C338.25 465.25 299.75 503.75 250.75 503.75C202 503.75 163.25 465 163.25 416.25C163.25 367.5 202 328.75 250.75 328.75C299.5 328.75 338.25 367.5 338.25 416.25ZM983 416.25C983 465 944.25 503.75 895.5 503.75C847 503.75 808 465 808 416.25C808 367.75 847.25 328.75 895.5 328.75C944.25 328.75 983 367.5 983 416.25ZM1073.5 73.25L1088 94.25C1113 130.75 1127.25 174.75 1127.25 214.5L1127.25 353.5C1127.25 412.25 1102.75 439.75 1049.75 439.75L1015.5 439.75C1017 432.25 1018 424.5 1018 416.25C1018 348.5 963.5 294 895.5 294C828 294 773.25 348.75 773.25 416.25C773.25 424.5 774 432.25 775.5 439.75L370.75 439.75C372.25 432.25 373 424.5 373 416.25C373 348.5 318.5 294 250.75 294C183 294 128.5 348.5 128.5 416.25C128.5 424.5 129.25 432.25 130.75 439.75L77.75 439.75C28.75 439.75 0 410.25 0 359.75L0 305C0 219.5 53 170.75 160 157.5L280.25 142.75L409.75 61.25C487.5 12.5 539.25 0 670.75 0L920.5 0C992.75 0 1038.25 21.75 1073.5 73.25ZM556.5 214.5L486.5 329.5C478.25 343 484.75 356 500.75 356L644.75 356C660.5 356 667.25 343 659 329.5L588.5 214.5C580.5 201.5 564.75 201.25 556.5 214.5Z" fill="black" fill-opacity="0.85"/>
 </g>
</svg>
