<?xml version="1.0" encoding="UTF-8"?>
<!--Generator: Apple Native CoreSVG 326-->
<!DOCTYPE svg
PUBLIC "-//W3C//DTD SVG 1.1//EN"
       "http://www.w3.org/Graphics/SVG/1.1/DTD/svg11.dtd">
<svg version="1.1" xmlns="http://www.w3.org/2000/svg" xmlns:xlink="http://www.w3.org/1999/xlink" viewBox="0 0 1048.5 858.126">
 <g>
  <rect height="858.126" opacity="0" width="1048.5" x="0" y="0"/>
  <path d="M353.886 335.179L275.75 383.938L154.25 398.938C78.5 408.188 44.5 437.688 44.5 491.688L44.5 538.188C44.5 561.188 54.75 572.688 74.25 572.688L134.332 572.688C140.243 523.02 181.52 485.688 233.25 485.688C284.749 485.688 326.222 523.02 332.164 572.688L591.561 572.688L636.092 617.188L327.886 617.188C314.891 657.127 277.827 684.938 233.25 684.938C188.474 684.938 151.529 657.127 138.59 617.188L72.25 617.188C26.75 617.188 0 589.938 0 542.938L0 491.688C0 412.438 49 366.688 148.75 354.688L260.5 340.938L321.44 302.756ZM998.25 276.438L1012 295.938C1035.25 329.438 1048.5 370.688 1048.5 407.688L1048.5 537.188C1048.5 591.938 1025.5 617.188 976.25 617.188L928.636 617.188C918.234 649.208 892.343 673.423 859.474 681.662L815.116 637.304C820.935 639.361 827.292 640.438 834 640.438C865.5 640.438 889.25 616.688 889.25 585.188C889.25 553.938 865.5 530.188 834 530.188C802.5 530.188 778.75 553.938 778.75 585.188C778.75 591.896 779.827 598.253 781.884 604.072L737.741 559.929C748.569 516.75 787.025 485.688 834 485.688C885.499 485.688 926.972 523.02 932.914 572.688L974 572.688C995.5 572.688 1004 562.938 1004 539.438L1004 407.688C1004 378.938 993.5 347.938 975.25 321.438L961.75 301.688C938 266.938 907.75 252.688 856 252.688L623.75 252.688C540.014 252.688 496.97 257.857 454.375 276.564L420.685 242.873C474.567 215.95 524.746 208.438 623.75 208.438L856 208.438C923.25 208.438 965.25 228.688 998.25 276.438ZM178 585.188C178 616.688 201.75 640.438 233.25 640.438C264.5 640.438 288.5 616.688 288.5 585.188C288.5 553.938 264.5 530.188 233.25 530.188C201.75 530.188 178 553.938 178 585.188Z" fill="black" fill-opacity="0.85"/>
  <path d="M952.25 87.188L952.25 119.938C952.25 144.938 939 160.938 914.25 160.938L521 160.938C499.25 160.938 490 150.938 490 132.688C490 119.938 495.75 107.688 515.25 99.188L589.5 65.688C660.25 34.938 704.5 21.188 759.75 21.188L877.5 21.188C929.5 21.188 952.25 43.688 952.25 87.188Z" fill="black" fill-opacity="0.85"/>
  <path d="M885.75 817.188C894 825.438 907.75 825.438 916 817.188C924.25 808.438 924.25 795.188 916 786.938L203 74.188C194.5 65.938 181.25 65.688 172.75 74.188C164.5 82.438 164.25 96.188 172.75 104.438Z" fill="black" fill-opacity="0.85"/>
 </g>
</svg>
