<?xml version="1.0" encoding="UTF-8"?>
<!--Generator: Apple Native CoreSVG 326-->
<!DOCTYPE svg
PUBLIC "-//W3C//DTD SVG 1.1//EN"
       "http://www.w3.org/Graphics/SVG/1.1/DTD/svg11.dtd">
<svg version="1.1" xmlns="http://www.w3.org/2000/svg" xmlns:xlink="http://www.w3.org/1999/xlink" viewBox="0 0 1127.25 937.75">
 <g>
  <rect height="937.75" opacity="0" width="1127.25" x="0" y="0"/>
  <path d="M1073.5 285.5L1088 306.5C1113 343 1127.25 387 1127.25 426.75L1127.25 565.75C1127.25 624.5 1102.75 652 1049.75 652L998.512 652C984.595 694.727 944.904 724.75 896.75 724.75C848.796 724.75 809.145 694.727 795.236 652L352.488 652C338.514 694.727 298.704 724.75 250.75 724.75C202.796 724.75 162.986 694.727 149.012 652L77.75 652C28.75 652 0 622.5 0 572L0 517.25C0 431.75 53 383 160 369.75L280.25 355L409.75 273.5C429.608 261.049 447.77 250.962 466 242.873L466 279.25C466 283.644 466.239 287.896 466.791 291.942C456.081 297.463 445.06 303.89 433.25 311.25L295.25 397.5L165.5 413.75C82.75 424 44.25 457.25 44.25 517.25L44.25 567C44.25 593 57.25 607.75 80.25 607.75L143.99 607.75C148.845 552.371 194.118 510.5 250.75 510.5C307.382 510.5 352.655 552.371 357.51 607.75L790.237 607.75C795.068 552.371 840.118 510.5 896.75 510.5C953.618 510.5 998.681 552.371 1003.51 607.75L1047.25 607.75C1072 607.75 1083 595 1083 568.5L1083 426.75C1083 395 1071.5 361 1051.5 331.75L1037 310.75C1010.5 272.5 976.75 256.5 920.5 256.5L771.25 256.5L771.25 212.25L920.5 212.25C992.75 212.25 1038.25 234 1073.5 285.5ZM188 617.75C188 653 215.5 680.5 250.75 680.5C286 680.5 313.5 653 313.5 617.75C313.5 582.25 286 554.75 250.75 554.75C215.5 554.75 188 582.25 188 617.75ZM834 617.75C834 653 861.5 680.5 896.75 680.5C932.25 680.5 959.75 653 959.75 617.75C959.75 582.25 932.25 554.75 896.75 554.75C861.5 554.75 834 582.25 834 617.75Z" fill="black" fill-opacity="0.85"/>
  <path d="M545.5 322.75L691.75 322.75C718 322.75 731.5 309 731.5 281L731.5 165.75C731.5 137.5 718 124 691.75 124L545.5 124C519.25 124 505.75 137.5 505.75 165.75L505.75 281C505.75 309 519.25 322.75 545.5 322.75ZM665.5 148.75L696.75 148.75L696.75 87C696.75 52.75 717.5 31 749.5 31C781.75 31 802.25 52.75 802.25 87L802.25 122.75C802.25 131.5 809.25 138.5 817.75 138.5C826.25 138.5 833.25 131.5 833.25 122.75L833.25 91.25C833.25 35.5 800.5 0 749.5 0C698.75 0 665.5 35.5 665.5 91.25Z" fill="black" fill-opacity="0.85"/>
 </g>
</svg>
