<?xml version="1.0" encoding="UTF-8"?>
<!--Generator: Apple Native CoreSVG 326-->
<!DOCTYPE svg
PUBLIC "-//W3C//DTD SVG 1.1//EN"
       "http://www.w3.org/Graphics/SVG/1.1/DTD/svg11.dtd">
<svg version="1.1" xmlns="http://www.w3.org/2000/svg" xmlns:xlink="http://www.w3.org/1999/xlink" viewBox="0 0 1051.09 782.643">
 <g>
  <rect height="782.643" opacity="0" width="1051.09" x="0" y="0"/>
  <path d="M297.296 353.196C331.796 372.946 374.296 361.446 394.296 327.196C414.046 292.946 402.296 250.196 368.296 230.446C334.046 210.696 291.046 222.196 271.296 256.196C251.796 290.446 263.296 333.446 297.296 353.196ZM749.796 614.196C783.796 633.946 826.796 622.446 846.546 588.446C866.296 554.196 854.796 511.196 820.546 491.446C786.546 471.946 743.296 483.446 723.796 517.446C704.046 551.696 715.546 594.696 749.796 614.196ZM1050.55 404.946L1049.05 384.446C1045.05 333.946 1021.8 300.196 971.046 270.946L796.046 169.946C703.796 116.696 662.546 104.446 588.046 107.196L464.296 111.696L374.046 73.4463C293.546 39.4463 236.546 52.1963 202.046 112.196L179.796 150.696C159.296 185.946 167.546 218.196 202.046 238.196L239.046 259.696C241.046 253.696 243.796 247.946 247.046 242.196C274.546 194.696 334.796 178.446 382.296 205.946C430.046 233.446 446.046 293.696 418.546 341.196C415.296 346.946 411.546 352.196 407.546 356.696L691.546 520.696C693.546 514.946 696.046 509.196 699.296 503.446C726.796 455.946 787.296 439.696 834.796 467.196C882.296 494.696 898.546 554.946 871.046 602.446C867.546 608.196 864.046 613.196 859.796 617.946L883.796 631.696C921.046 653.196 949.296 643.946 973.046 602.946L1029.55 505.196C1045.55 477.446 1053.3 440.696 1050.55 404.946Z" fill="black" fill-opacity="0.85"/>
  <path d="M103.796 140.196L167.796 29.1963C177.796 12.1963 164.296-2.80371 146.546 0.446289L46.2964 16.1963C33.0464 18.4463 27.0464 28.9463 31.7964 41.6963L68.0464 136.196C74.0464 153.196 93.7964 157.196 103.796 140.196ZM3.04636 271.696C-3.20364 282.696 0.546362 296.196 10.7964 302.196L836.046 779.196C846.046 784.946 859.796 781.696 865.796 771.446C872.046 760.196 868.046 746.446 858.046 740.696L32.7964 263.946C22.7964 257.946 9.04636 261.446 3.04636 271.696Z" fill="black" fill-opacity="0.85"/>
 </g>
</svg>
