<?xml version="1.0" encoding="UTF-8"?>
<!--Generator: Apple Native CoreSVG 326-->
<!DOCTYPE svg
PUBLIC "-//W3C//DTD SVG 1.1//EN"
       "http://www.w3.org/Graphics/SVG/1.1/DTD/svg11.dtd">
<svg version="1.1" xmlns="http://www.w3.org/2000/svg" xmlns:xlink="http://www.w3.org/1999/xlink" viewBox="0 0 1068.15 876.971">
 <g>
  <rect height="876.971" opacity="0" width="1068.15" x="0" y="0"/>
  <path d="M271.95 674.611L339.7 635.361L321.7 604.361L255.45 642.611C239.45 651.861 224.45 646.861 213.95 628.611L193.7 593.611C169.45 551.611 183.2 512.611 236.95 471.861L321.45 408.111L383.2 291.611C415.2 231.611 440.7 207.361 527.7 157.111L702.95 56.1106C742.45 33.1106 772.45 30.6106 806.45 46.6106L825.2 55.6106C851.2 68.1106 872.95 87.1106 885.7 109.361L943.2 208.861C953.95 227.361 951.2 240.861 933.95 250.861L880.95 281.361L898.95 312.611L953.7 280.861C990.95 259.361 996.95 230.361 973.2 189.111L916.95 91.3606C900.7 63.6106 872.95 38.6106 840.7 23.1106L821.95 14.1106C776.2-7.63938 735.7-4.38938 684.95 24.8606L509.7 126.111C417.45 179.361 386.2 208.861 351.45 274.861L293.45 384.361L215.2 443.361C145.45 495.861 128.2 551.611 162.7 611.611L184.95 650.111C205.45 685.361 237.45 694.361 271.95 674.611ZM448.45 572.611L791.7 374.361L773.95 343.361L430.45 541.611ZM422.7 655.611C464.95 631.361 478.95 579.361 454.45 537.111C430.2 494.861 378.2 481.111 335.95 505.361C293.7 529.611 279.7 581.861 304.2 623.861C328.45 666.111 380.45 680.111 422.7 655.611ZM404.7 624.611C379.95 638.861 349.45 630.861 335.2 605.861C320.95 581.111 328.95 550.611 353.95 536.361C378.7 522.111 409.2 530.361 423.45 555.111C437.7 579.861 429.7 610.361 404.7 624.611ZM875.95 394.111C918.2 369.611 931.95 317.611 907.7 275.361C883.45 233.361 831.2 219.361 789.2 243.611C746.95 268.111 732.95 320.111 757.45 362.361C781.7 404.361 833.7 418.361 875.95 394.111ZM857.95 362.861C833.2 377.361 802.7 369.111 788.45 344.361C774.2 319.611 782.2 289.111 807.2 274.861C831.95 260.361 862.45 268.611 876.7 293.361C890.95 318.111 882.7 348.611 857.95 362.861Z" fill="black" fill-opacity="0.85"/>
  <path d="M137.7 710.861L73.6999 599.861C63.9499 582.611 44.1999 586.611 38.1999 603.611L1.94995 698.361C-3.05005 711.111 2.94995 721.611 16.4499 723.611L116.45 739.861C134.45 743.111 147.7 727.861 137.7 710.861ZM201.45 863.861C207.95 874.611 221.45 877.861 231.7 872.361L1057.2 396.111C1067.45 390.361 1071.2 376.861 1065.45 366.361C1058.7 355.361 1044.95 352.111 1034.95 357.861L209.2 834.111C199.2 839.611 195.45 853.361 201.45 863.861Z" fill="black" fill-opacity="0.85"/>
 </g>
</svg>
