<?xml version="1.0" encoding="UTF-8"?>
<!--Generator: Apple Native CoreSVG 326-->
<!DOCTYPE svg
PUBLIC "-//W3C//DTD SVG 1.1//EN"
       "http://www.w3.org/Graphics/SVG/1.1/DTD/svg11.dtd">
<svg version="1.1" xmlns="http://www.w3.org/2000/svg" xmlns:xlink="http://www.w3.org/1999/xlink" viewBox="0 0 1051.09 782.643">
 <g>
  <rect height="782.643" opacity="0" width="1051.09" x="0" y="0"/>
  <path d="M202.046 238.196L269.796 277.446L287.796 246.196L221.546 207.946C205.546 198.696 202.296 183.196 212.796 164.946L233.046 129.946C257.296 88.1963 297.796 80.4463 360.046 106.696L457.546 147.696L589.296 143.196C657.046 140.946 691.046 150.696 778.046 200.946L953.296 302.196C992.796 324.946 1010.05 349.696 1013.05 387.196L1014.8 407.946C1016.8 436.696 1011.3 464.946 998.296 487.196L941.046 586.696C930.296 605.196 917.296 609.696 900.046 599.696L847.046 569.196L829.046 600.196L883.796 631.696C921.046 653.196 949.296 643.946 973.046 602.946L1029.55 505.196C1045.55 477.446 1053.3 440.696 1050.55 404.946L1049.05 384.446C1045.05 333.946 1021.8 300.196 971.046 270.946L796.046 169.946C703.796 116.696 662.546 104.446 588.046 107.196L464.296 111.696L374.046 73.4463C293.546 39.4463 236.546 52.1963 202.046 112.196L179.796 150.696C159.296 185.946 167.546 218.196 202.046 238.196ZM378.546 340.196L722.046 538.446L739.796 507.196L396.546 308.946ZM293.796 359.446C336.046 383.696 388.046 369.696 412.296 327.696C436.796 285.446 422.796 233.446 380.546 208.946C338.546 184.696 286.296 198.696 262.046 240.696C237.546 282.946 251.546 334.946 293.796 359.446ZM311.796 328.196C286.796 313.946 278.796 283.446 293.046 258.696C307.296 233.946 337.796 225.696 362.546 240.196C387.546 254.446 395.546 284.946 381.296 309.696C367.046 334.446 336.546 342.696 311.796 328.196ZM747.046 620.946C789.046 645.446 841.296 631.446 865.546 589.196C889.796 547.196 876.046 494.946 833.796 470.696C791.546 446.446 739.546 460.196 715.296 502.446C690.796 544.696 704.796 596.696 747.046 620.946ZM765.046 589.946C740.046 575.696 732.046 545.196 746.296 520.446C760.546 495.696 791.046 487.446 815.796 501.696C840.796 516.196 848.796 546.446 834.546 571.446C820.296 596.196 789.796 604.196 765.046 589.946Z" fill="black" fill-opacity="0.85"/>
  <path d="M103.796 140.196L167.796 29.1963C177.796 12.1963 164.296-2.80371 146.546 0.446289L46.2964 16.1963C33.0464 18.4463 27.0464 28.9463 31.7964 41.6963L68.0464 136.196C74.0464 153.196 93.7964 157.196 103.796 140.196ZM3.04636 271.696C-3.20364 282.696 0.546362 296.196 10.7964 302.196L836.046 779.196C846.046 784.946 859.796 781.696 865.796 771.446C872.046 760.196 868.046 746.446 858.046 740.696L32.7964 263.946C22.7964 257.946 9.04636 261.446 3.04636 271.696Z" fill="black" fill-opacity="0.85"/>
 </g>
</svg>
