<?xml version="1.0" encoding="UTF-8"?>
<!--Generator: Apple Native CoreSVG 326-->
<!DOCTYPE svg
PUBLIC "-//W3C//DTD SVG 1.1//EN"
       "http://www.w3.org/Graphics/SVG/1.1/DTD/svg11.dtd">
<svg version="1.1" xmlns="http://www.w3.org/2000/svg" xmlns:xlink="http://www.w3.org/1999/xlink" viewBox="0 0 1127.25 777.938">
 <g>
  <rect height="777.938" opacity="0" width="1127.25" x="0" y="0"/>
  <path d="M338.25 548.594C338.25 597.594 299.75 636.094 250.75 636.094C202 636.094 163.25 597.344 163.25 548.594C163.25 499.844 202 461.094 250.75 461.094C299.5 461.094 338.25 499.844 338.25 548.594ZM983 548.594C983 597.344 944.25 636.094 895.5 636.094C847 636.094 808 597.344 808 548.594C808 500.094 847.25 461.094 895.5 461.094C944.25 461.094 983 499.844 983 548.594ZM1073.5 205.594L1088 226.594C1113 263.094 1127.25 307.094 1127.25 346.844L1127.25 485.844C1127.25 544.594 1102.75 572.094 1049.75 572.094L1015.5 572.094C1017 564.594 1018 556.844 1018 548.594C1018 480.844 963.5 426.344 895.5 426.344C828 426.344 773.25 481.094 773.25 548.594C773.25 556.844 774 564.594 775.5 572.094L370.75 572.094C372.25 564.594 373 556.844 373 548.594C373 480.844 318.5 426.344 250.75 426.344C183 426.344 128.5 480.844 128.5 548.594C128.5 556.844 129.25 564.594 130.75 572.094L77.75 572.094C28.75 572.094 0 542.594 0 492.094L0 437.344C0 351.844 53 303.094 160 289.844L280.25 275.094L409.75 193.594C487.5 144.844 539.25 132.344 670.75 132.344L920.5 132.344C992.75 132.344 1038.25 154.094 1073.5 205.594ZM556.5 346.844L486.5 461.844C478.25 475.344 484.75 488.344 500.75 488.344L644.75 488.344C660.5 488.344 667.25 475.344 659 461.844L588.5 346.844C580.5 333.844 564.75 333.594 556.5 346.844Z" fill="black" fill-opacity="0.85"/>
  <path d="M659 653.094L588.5 768.094C580.5 781.094 564.75 781.344 556.5 768.094L486.5 653.094C478.25 639.594 484.75 626.594 500.75 626.594L644.75 626.594C660.5 626.594 667.25 639.594 659 653.094Z" fill="black" fill-opacity="0.85"/>
 </g>
</svg>
