<?xml version="1.0" encoding="UTF-8"?>
<!--Generator: Apple Native CoreSVG 326-->
<!DOCTYPE svg
PUBLIC "-//W3C//DTD SVG 1.1//EN"
       "http://www.w3.org/Graphics/SVG/1.1/DTD/svg11.dtd">
<svg version="1.1" xmlns="http://www.w3.org/2000/svg" xmlns:xlink="http://www.w3.org/1999/xlink" viewBox="0 0 590.75 570.75">
 <g>
  <rect height="570.75" opacity="0" width="590.75" x="0" y="0"/>
  <path d="M590.5 58.25L590.5 12.25C545 22.5 507.5 40 462 68.25L315.5 160L180 176.75C59.5 191.25 2.25 244.25 2.25 339.75L2.25 401.25C2.25 457 33 488.5 87.25 488.5L193.25 488.5L193.25 444.25L89.75 444.25C62.25 444.25 46.75 426.25 46.75 395.75L46.75 339.75C46.75 270.75 91.25 232.5 185.75 220.75L331.25 202.5L485.75 105.75C523 82.75 553.75 67.75 590.5 58.25ZM590.75 488.5L590.75 444.25L373.25 444.25L373.25 488.5ZM281.75 570.75C348.25 570.75 399.5 519.25 399.5 452.75C399.5 386.5 348.25 335 281.75 335C215.25 335 164 386.5 164 452.75C164 519.25 215.25 570.75 281.75 570.75ZM281.75 526C240.5 526 208.25 494 208.25 452.75C208.25 411.75 240.5 379.25 281.75 379.25C323 379.25 355 411.75 355 452.75C355 494 323 526 281.75 526ZM20.25 41.5L141.75 41.5C156 41.5 165.75 44.75 174 53L310 188.75L347.75 167.75L206.75 26.75C189 9 166.75 1.5 137.5 1.5L20.75 1.5C8 1.5 0 9.5 0 21.25C0 33.25 7.75 41.5 20.25 41.5Z" fill="black" fill-opacity="0.85"/>
 </g>
</svg>
