<?xml version="1.0" encoding="UTF-8"?>
<!--Generator: Apple Native CoreSVG 326-->
<!DOCTYPE svg
PUBLIC "-//W3C//DTD SVG 1.1//EN"
       "http://www.w3.org/Graphics/SVG/1.1/DTD/svg11.dtd">
<svg version="1.1" xmlns="http://www.w3.org/2000/svg" xmlns:xlink="http://www.w3.org/1999/xlink" viewBox="0 0 1127.25 794.75">
 <g>
  <rect height="794.75" opacity="0" width="1127.25" x="0" y="0"/>
  <path d="M250.75 644.5C299.75 644.5 338.25 606 338.25 557C338.25 508.25 299.5 469.5 250.75 469.5C202 469.5 163.25 508.25 163.25 557C163.25 605.75 202 644.5 250.75 644.5ZM895.5 644.5C944.25 644.5 983 605.75 983 557C983 508.25 944.25 469.5 895.5 469.5C847.25 469.5 808 508.5 808 557C808 605.75 847 644.5 895.5 644.5ZM1088 235L1073.5 214C1038.25 162.5 992.75 140.75 920.5 140.75L670.75 140.75C539.25 140.75 487.5 153.25 409.75 202L280.25 283.5L160 298.25C53 311.5 0 360.25 0 445.75L0 500.5C0 551 28.75 580.5 77.75 580.5L130.75 580.5C129.25 573 128.5 565.25 128.5 557C128.5 489.25 183 434.75 250.75 434.75C318.5 434.75 373 489.25 373 557C373 565.25 372.25 573 370.75 580.5L775.5 580.5C774 573 773.25 565.25 773.25 557C773.25 489.5 828 434.75 895.5 434.75C963.5 434.75 1018 489.25 1018 557C1018 565.25 1017 573 1015.5 580.5L1049.75 580.5C1102.75 580.5 1127.25 553 1127.25 494.25L1127.25 355.25C1127.25 315.5 1113 271.5 1088 235ZM623.25 433C601.75 433 583.75 415.5 583.75 395C583.75 374 601.25 357.25 623.25 357.25C644.75 357.25 662.5 374 662.5 395C662.5 415.5 644.5 433 623.25 433ZM623.25 290C609.25 290 599.5 280.25 599 265.75L593.25 29.75C592.75 12 604.75 0 623.25 0C641.5 0 653.5 12 653 29.75L647.25 265.75C646.75 280.25 637 290 623.25 290Z" fill="black" fill-opacity="0.85"/>
 </g>
</svg>
