<?xml version="1.0" encoding="UTF-8"?>
<!--Generator: Apple Native CoreSVG 326-->
<!DOCTYPE svg
PUBLIC "-//W3C//DTD SVG 1.1//EN"
       "http://www.w3.org/Graphics/SVG/1.1/DTD/svg11.dtd">
<svg version="1.1" xmlns="http://www.w3.org/2000/svg" xmlns:xlink="http://www.w3.org/1999/xlink" viewBox="0 0 1048.5 815.75">
 <g>
  <rect height="815.75" opacity="0" width="1048.5" x="0" y="0"/>
  <path d="M72.25 595.25L117.75 595.25C116.25 587 116 580.25 116 572.75C116 506.75 168 457.5 232 457.5C298.75 457.5 348.25 508.75 348.25 573.5C348.25 582.75 347 589.75 345.5 595.25L718.5 595.25C717.75 588.5 716.75 582.75 716.75 572.75C716.75 506.75 769 457.5 832.75 457.5C899.5 457.5 949 508.75 949 573.5C949 580.25 948.5 588.5 947 595.25L976.25 595.25C1025.5 595.25 1048.5 570 1048.5 515.5L1048.5 386C1048.5 349 1035.5 307.5 1012 274L998.25 254.75C965 207.25 923.25 186.5 856 186.5L623.75 186.5C501.25 186.5 453.25 198 381 243.5L260.5 319L148.75 333C49 345.25 0 390.75 0 470L0 521C0 568 26.75 595.25 72.25 595.25ZM232 655C277.5 655 313.25 619 313.25 573.5C313.25 528.25 277.5 492.25 232 492.25C186.75 492.25 150.75 528.25 150.75 573.5C150.75 618.75 186.75 655 232 655ZM832.75 655C878.25 655 914.25 618.75 914.25 573.5C914.25 528.25 878.25 492.25 832.75 492.25C787.75 492.25 751.5 528.5 751.5 573.5C751.5 618.75 787.5 655 832.75 655Z" fill="black" fill-opacity="0.85"/>
  <path d="M521 139.75L914.25 139.75C939 139.75 952.25 123.75 952.25 98.75L952.25 66C952.25 22.5 929.5 0 877.5 0L759.75 0C704.5 0 660.25 13.75 589.5 44.5L515.25 78C495.75 86.5 490 98.75 490 111.5C490 129.75 499.25 139.75 521 139.75Z" fill="black" fill-opacity="0.85"/>
 </g>
</svg>
