<?xml version="1.0" encoding="UTF-8"?>
<!--Generator: Apple Native CoreSVG 326-->
<!DOCTYPE svg
PUBLIC "-//W3C//DTD SVG 1.1//EN"
       "http://www.w3.org/Graphics/SVG/1.1/DTD/svg11.dtd">
<svg version="1.1" xmlns="http://www.w3.org/2000/svg" xmlns:xlink="http://www.w3.org/1999/xlink" viewBox="0 0 1192.25 697.25">
 <g>
  <rect height="697.25" opacity="0" width="1192.25" x="0" y="0"/>
  <path d="M979.75 110.75L1012.25 136.75L1095.25 50.5C1102.5 42.75 1110.75 40 1121 40L1171.5 40C1184 40 1192.25 31.75 1192.25 19.75C1192.25 8 1184 0 1171.5 0L1125.5 0C1100.25 0 1079.75 7 1063 24.5ZM77.75 531.75L174.5 531.75L174.5 487.5L80.25 487.5C57.25 487.5 44.25 472.75 44.25 446.75L44.25 397C44.25 337 82.75 303.75 165.5 293.5L295.25 277.25L433.25 191C504.25 146.75 546.75 136.25 670.75 136.25L920.5 136.25C976.75 136.25 1010.5 152.25 1037 190.5L1051.5 211.5C1071.5 240.75 1083 274.75 1083 306.5L1083 448.25C1083 474.75 1072 487.5 1047.25 487.5L971.75 487.5L971.75 531.75L1049.75 531.75C1102.75 531.75 1127.25 504.25 1127.25 445.5L1127.25 306.5C1127.25 266.75 1113 222.75 1088 186.25L1073.5 165.25C1038.25 113.75 992.75 92 920.5 92L670.75 92C539.25 92 487.5 104.5 409.75 153.25L280.25 234.75L160 249.5C53 262.75 0 311.5 0 397L0 451.75C0 502.25 28.75 531.75 77.75 531.75ZM329.5 531.75L819 531.75L819 487.5L329.5 487.5ZM250.75 604.5C310.75 604.5 358 557.5 358 497.5C358 437.25 310.75 390.25 250.75 390.25C190.75 390.25 143.5 437.25 143.5 497.5C143.5 557.5 190.75 604.5 250.75 604.5ZM250.75 560.25C215.5 560.25 188 532.75 188 497.5C188 462 215.5 434.5 250.75 434.5C286 434.5 313.5 462 313.5 497.5C313.5 532.75 286 560.25 250.75 560.25ZM896.75 604.5C957 604.5 1004 557.5 1004 497.5C1004 437.25 957 390.25 896.75 390.25C836.75 390.25 789.75 437.25 789.75 497.5C789.75 557.5 836.75 604.5 896.75 604.5ZM896.75 560.25C861.5 560.25 834 532.75 834 497.5C834 462 861.5 434.5 896.75 434.5C932.25 434.5 959.75 462 959.75 497.5C959.75 532.75 932.25 560.25 896.75 560.25Z" fill="black" fill-opacity="0.85"/>
 </g>
</svg>
