<?xml version="1.0" encoding="UTF-8"?>
<!--Generator: Apple Native CoreSVG 326-->
<!DOCTYPE svg
PUBLIC "-//W3C//DTD SVG 1.1//EN"
       "http://www.w3.org/Graphics/SVG/1.1/DTD/svg11.dtd">
<svg version="1.1" xmlns="http://www.w3.org/2000/svg" xmlns:xlink="http://www.w3.org/1999/xlink" viewBox="0 0 1048.5 858.126">
 <g>
  <rect height="858.126" opacity="0" width="1048.5" x="0" y="0"/>
  <path d="M313.25 594.688C313.25 640.188 277.5 676.188 232 676.188C186.75 676.188 150.75 639.938 150.75 594.688C150.75 549.438 186.75 513.438 232 513.438C277.5 513.438 313.25 549.438 313.25 594.688ZM914.25 594.688C914.25 633.409 887.889 665.54 851.738 673.926L753.746 575.934C762.105 540.013 794.22 513.438 832.75 513.438C878.25 513.438 914.25 549.438 914.25 594.688ZM635.342 616.438L345.5 616.438C347 610.938 348.25 603.938 348.25 594.688C348.25 529.938 298.75 478.688 232 478.688C168 478.688 116 527.938 116 593.938C116 601.438 116.25 608.188 117.75 616.438L72.25 616.438C26.75 616.438 0 589.188 0 542.188L0 491.188C0 411.938 49 366.438 148.75 354.188L260.5 340.188L320.978 302.295ZM998.25 275.938L1012 295.188C1035.5 328.688 1048.5 370.188 1048.5 407.188L1048.5 536.688C1048.5 591.188 1025.5 616.438 976.25 616.438L947 616.438C948.5 609.688 949 601.438 949 594.688C949 529.938 899.5 478.688 832.75 478.688C784.934 478.688 743.588 506.395 725.907 548.095L420.147 242.335C474.126 215.241 524.472 207.688 623.75 207.688L856 207.688C923.25 207.688 965 228.438 998.25 275.938Z" fill="black" fill-opacity="0.85"/>
  <path d="M952.25 87.188L952.25 119.938C952.25 144.938 939 160.938 914.25 160.938L521 160.938C499.25 160.938 490 150.938 490 132.688C490 119.938 495.75 107.688 515.25 99.188L589.5 65.688C660.25 34.938 704.5 21.188 759.75 21.188L877.5 21.188C929.5 21.188 952.25 43.688 952.25 87.188Z" fill="black" fill-opacity="0.85"/>
  <path d="M885.75 817.188C894 825.438 907.75 825.438 916 817.188C924.25 808.438 924.25 795.188 916 786.938L203 74.188C194.5 65.938 181.25 65.688 172.75 74.188C164.5 82.438 164.25 96.188 172.75 104.438Z" fill="black" fill-opacity="0.85"/>
 </g>
</svg>
