<?xml version="1.0" encoding="UTF-8"?>
<!--Generator: Apple Native CoreSVG 326-->
<!DOCTYPE svg
PUBLIC "-//W3C//DTD SVG 1.1//EN"
       "http://www.w3.org/Graphics/SVG/1.1/DTD/svg11.dtd">
<svg version="1.1" xmlns="http://www.w3.org/2000/svg" xmlns:xlink="http://www.w3.org/1999/xlink" viewBox="0 0 1015.25 852.971">
 <g>
  <rect height="852.971" opacity="0" width="1015.25" x="0" y="0"/>
  <path d="M99.75 838.111C106.25 849.111 119.75 852.361 130 846.611L955.75 370.361C965.75 364.861 969.5 351.111 963.75 340.611C957.25 329.611 943.5 326.611 933.5 332.111L107.75 808.361C97.75 814.111 94 827.861 99.75 838.111ZM126.5 674.361L194.25 635.361L176.25 604.111L110 642.361C94 651.611 79 646.611 68.5 628.361L48.25 593.361C24 551.611 37.75 512.611 91.5 471.861L176 407.861L237.75 291.611C269.75 231.611 295.25 207.111 382.25 157.111L557.5 55.8606C597 33.1106 627 30.6106 661 46.6106L679.75 55.3606C705.75 67.8606 727.5 87.1106 740.25 109.361L797.75 208.611C808.5 227.361 805.75 240.861 788.5 250.611L735.5 281.361L753.5 312.361L808.25 280.861C845.5 259.361 851.5 230.111 827.75 189.111L771.5 91.3606C755.25 63.6106 727.5 38.3606 695.25 23.1106L676.5 14.1106C630.75-7.63938 590.25-4.38938 539.5 24.8606L364.25 125.861C272 179.111 240.75 208.861 206 274.611L148 384.111L69.75 443.111C0 495.861-17.25 551.611 17.25 611.361L39.5 649.861C60 685.361 92 694.361 126.5 674.361ZM303 572.361L646.25 374.361L628.5 343.111L285 541.361ZM277.25 655.611C319.5 631.361 333.5 579.111 309 537.111C284.75 494.861 232.75 480.861 190.5 505.361C148.25 529.611 134.25 581.611 158.75 623.861C183 665.861 235.25 679.861 277.25 655.611ZM259.25 624.611C234.5 638.861 204 630.611 189.75 605.861C175.5 581.111 183.5 550.611 208.5 536.361C233.25 522.111 263.75 530.111 278 554.861C292.25 579.861 284.25 610.111 259.25 624.611ZM730.5 393.861C772.75 369.611 786.75 317.611 762.25 275.361C738 233.111 685.75 219.111 643.75 243.611C601.5 267.861 587.5 319.861 612 362.111C636.25 404.361 688.25 418.361 730.5 393.861ZM712.5 362.861C687.75 377.111 657.25 369.111 643 344.111C628.75 319.361 636.75 288.861 661.75 274.611C686.5 260.361 717 268.361 731.25 293.361C745.5 318.111 737.5 348.611 712.5 362.861Z" fill="black" fill-opacity="0.85"/>
  <path d="M959.75 851.611C980.5 851.611 995 841.111 1004.25 825.611C1010 816.361 1015.25 801.111 1015.25 790.861C1015.25 781.861 1008.75 776.111 999.75 776.111C992.5 776.111 987 781.111 985.5 789.111C981.5 808.861 976 822.861 958.75 822.861C937.5 822.861 928.25 790.611 928.25 746.861C928.25 698.861 940.5 671.111 958.75 671.111C974.5 671.111 982 686.861 984.75 704.861C986 713.611 992 718.861 1000.5 718.861C1009.25 718.861 1014.5 712.611 1014.5 703.861C1014.5 692.111 1008.75 674.111 999 662.611C989 650.111 975 642.611 958.5 642.611C930.5 642.611 914 661.611 905.25 683.861C897.25 702.861 895.25 724.611 895.25 746.861C895.25 773.111 897.75 799.111 909.5 820.611C920.5 840.361 937 851.611 959.75 851.611ZM623.5 849.861C633.5 849.861 640 843.361 640 833.111L640 758.861L694.5 758.861L694.5 833.111C694.5 843.361 701 849.861 711 849.861C721 849.861 727.5 843.361 727.5 833.111L727.5 661.111C727.5 650.861 721 644.361 711 644.361C701 644.361 694.5 650.861 694.5 661.111L694.5 731.361L640 731.361L640 661.111C640 650.861 633.5 644.361 623.5 644.361C613.75 644.361 607.5 650.861 607.5 661.111L607.5 833.111C607.5 843.361 613.75 849.861 623.5 849.861ZM771.75 849.861L807 849.861C859 849.861 876 798.361 876 746.611C876 690.611 856.75 644.361 807 644.361L771.75 644.361C762.25 644.361 755.25 650.111 755.25 661.361L755.25 832.861C755.25 844.111 762.25 849.861 771.75 849.861ZM787.5 822.361L787.5 672.111L803 672.111C836.25 672.111 842.75 713.611 842.75 746.861C842.75 780.111 836.75 822.361 803 822.361Z" fill="black" fill-opacity="0.85"/>
 </g>
</svg>
