<?xml version="1.0" encoding="UTF-8"?>
<!--Generator: Apple Native CoreSVG 326-->
<!DOCTYPE svg
PUBLIC "-//W3C//DTD SVG 1.1//EN"
       "http://www.w3.org/Graphics/SVG/1.1/DTD/svg11.dtd">
<svg version="1.1" xmlns="http://www.w3.org/2000/svg" xmlns:xlink="http://www.w3.org/1999/xlink" viewBox="0 0 637.25 766.75">
 <g>
  <rect height="766.75" opacity="0" width="637.25" x="0" y="0"/>
  <path d="M0 102L0 595.75L169.75 595.75C168.25 587.25 167.25 578.5 167.25 569.25C167.25 493.25 228.75 431.75 305 431.75C381.25 431.75 442.5 493 442.5 569.25C442.5 578.5 441.5 587.25 439.75 595.75L478.25 595.75C537.75 595.75 565.5 564.75 565.5 499L565.5 342.25C565.5 297.5 549.75 248 521.5 207.25L505 183.5C465.25 125.5 414.25 101.25 332.75 101.25L52 101.25C33.25 101.25 16 101.75 0 102ZM305 672C362 672 407.75 626.25 407.75 569.25C407.75 512.25 362 466.5 305 466.5C248 466.5 202 512.5 202 569.25C202 626.25 247.75 672 305 672ZM394 130.5L426.5 156.5L529.25 50.75C536.5 43 544.5 40 554.75 40L616.75 40C629.25 40 637.25 31.75 637.25 20C637.25 8 629.25 0 616.75 0L559.25 0C534.25 0 513.75 7.25 496.75 24.5Z" fill="black" fill-opacity="0.85"/>
 </g>
</svg>
