<?xml version="1.0" encoding="UTF-8"?>
<!--Generator: Apple Native CoreSVG 326-->
<!DOCTYPE svg
PUBLIC "-//W3C//DTD SVG 1.1//EN"
       "http://www.w3.org/Graphics/SVG/1.1/DTD/svg11.dtd">
<svg version="1.1" xmlns="http://www.w3.org/2000/svg" xmlns:xlink="http://www.w3.org/1999/xlink" viewBox="0 0 1192.25 697.25">
 <g>
  <rect height="697.25" opacity="0" width="1192.25" x="0" y="0"/>
  <path d="M979.75 110.75L1012.25 136.75L1095.25 50.5C1102.5 42.75 1110.75 40 1121 40L1171.5 40C1184 40 1192.25 31.75 1192.25 19.75C1192.25 8 1184 0 1171.5 0L1125.5 0C1100.25 0 1079.75 7 1063 24.5ZM250.75 595.75C299.75 595.75 338.25 557.25 338.25 508.25C338.25 459.5 299.5 420.75 250.75 420.75C202 420.75 163.25 459.5 163.25 508.25C163.25 557 202 595.75 250.75 595.75ZM895.5 595.75C944.25 595.75 983 557 983 508.25C983 459.5 944.25 420.75 895.5 420.75C847.25 420.75 808 459.75 808 508.25C808 557 847 595.75 895.5 595.75ZM1088 186.25L1073.5 165.25C1038.25 113.75 992.75 92 920.5 92L670.75 92C539.25 92 487.5 104.5 409.75 153.25L280.25 234.75L160 249.5C53 262.75 0 311.5 0 397L0 451.75C0 502.25 28.75 531.75 77.75 531.75L130.75 531.75C129.25 524.25 128.5 516.5 128.5 508.25C128.5 440.5 183 386 250.75 386C318.5 386 373 440.5 373 508.25C373 516.5 372.25 524.25 370.75 531.75L775.5 531.75C774 524.25 773.25 516.5 773.25 508.25C773.25 440.75 828 386 895.5 386C963.5 386 1018 440.5 1018 508.25C1018 516.5 1017 524.25 1015.5 531.75L1049.75 531.75C1102.75 531.75 1127.25 504.25 1127.25 445.5L1127.25 306.5C1127.25 266.75 1113 222.75 1088 186.25Z" fill="black" fill-opacity="0.85"/>
 </g>
</svg>
