<?xml version="1.0" encoding="UTF-8"?>
<!--Generator: Apple Native CoreSVG 326-->
<!DOCTYPE svg
PUBLIC "-//W3C//DTD SVG 1.1//EN"
       "http://www.w3.org/Graphics/SVG/1.1/DTD/svg11.dtd">
<svg version="1.1" xmlns="http://www.w3.org/2000/svg" xmlns:xlink="http://www.w3.org/1999/xlink" viewBox="0 0 638.25 779.75">
 <g>
  <rect height="779.75" opacity="0" width="638.25" x="0" y="0"/>
  <path d="M396.5 593L481.25 593C540 593 566 564 566 499L566 342.5C566 298 549.75 249.75 522.5 209L506.25 185C467.25 127.25 416.5 104 335.75 104L55 104C35 104 17 104.5 0 104.75L0 149.5C16.75 149 34.75 148.5 55 148.5L335.75 148.5C400.25 148.5 438.75 167.25 469 210.5L485.5 234C508.75 267 521.5 306.5 521.5 342.5L521.5 502C521.5 532.75 507.75 548.75 478.75 548.75L396.5 548.75ZM0.25 593L219 593L219 548.75L0.25 548.75ZM309.5 675.25C375.75 675.25 427.25 623.75 427.25 557.25C427.25 491 375.75 439.75 309.5 439.75C243 439.75 191.5 491 191.5 557.25C191.5 623.75 243 675.25 309.5 675.25ZM309.5 630.5C268 630.5 236 598.5 236 557.25C236 516.25 268 484 309.5 484C350.5 484 382.75 516.25 382.75 557.25C382.75 598.5 350.5 630.5 309.5 630.5ZM395 130.5L427.5 156.5L530 50.5C537.25 43 545.5 40 555.75 40L617.75 40C630.25 40 638.25 31.75 638.25 19.75C638.25 8 630.25 0 617.75 0L560.25 0C535 0 514.5 7.25 497.75 24.5Z" fill="black" fill-opacity="0.85"/>
 </g>
</svg>
