<?xml version="1.0" encoding="UTF-8"?>
<!--Generator: Apple Native CoreSVG 326-->
<!DOCTYPE svg
PUBLIC "-//W3C//DTD SVG 1.1//EN"
       "http://www.w3.org/Graphics/SVG/1.1/DTD/svg11.dtd">
<svg version="1.1" xmlns="http://www.w3.org/2000/svg" xmlns:xlink="http://www.w3.org/1999/xlink" viewBox="0 0 674.5 794.75">
 <g>
  <rect height="794.75" opacity="0" width="674.5" x="0" y="0"/>
  <path d="M194.75 16.75L194.75 57.25L226.25 39C235 34 243.5 36 248 43.75C252.25 51 249.5 60 241.25 64.75L194.5 91L194.5 117.5L191.5 178.75L244.75 145.5L266 133.043L266 169.393L259.5 173.25L203.75 201.5L259.5 229.75L266 233.607L266 269.951L244.75 257.25L191.5 224L194.5 285.5L194.5 312L241.25 338.25C249.5 343 252.25 352 248 359.25C243.5 366.75 235 368.75 226.25 364L194.75 345.75L194.75 386.25C194.75 396.25 188.25 402.75 179 402.75C170 402.75 163.5 396 163.5 386.25L163.5 345.5L131.25 364C122.5 368.5 114.25 367 109.75 359C105.75 352 108.5 343.25 116.5 338.5L163.5 312L163.5 285.5L166.5 224L114.25 256.75L91.25 270.25L91.5 324C91.5 333.25 85.5 340.25 77 340.25C68 340.25 62.25 333.75 62.25 324L62 287L26.75 307.5C18.5 312.25 9.75 310.25 5 302.25C0.5 293.75 3 285 11.25 280.25L46.25 260L14.75 241.75C6 236.5 3.5 228.5 7.75 220.5C12 213 21.25 211.5 29.75 216L75.75 243.25L98.5 229.75L154 201.5L98.5 173.25L75.75 160L29.75 187C21.25 191.5 12 189.75 7.5 182.5C3.25 174.25 6.25 166.5 14.75 161.25L46.25 142.75L11.25 122.75C3 118 0.25 109.25 5 100.75C9.5 93 18.5 90.75 26.75 95.5L62 116L62.25 79C62.25 69.25 68 62.75 77 62.75C85.5 62.75 91.5 69.75 91.5 79L91.25 132.75L114.25 146L166.5 178.75L163.5 117.5L163.5 91L116.5 64.5C108.5 59.75 105.75 51 109.75 44C114.25 36 122.5 34.25 131.25 39L163.5 57.5L163.5 16.75C163.5 7 170 0 179 0C188.25 0 194.75 6.75 194.75 16.75Z" fill="black" fill-opacity="0.85"/>
  <path d="M573 681.75C597.25 699 617.5 714 653.25 714L655 714C665.75 714 674.5 722.75 674.5 733.5C674.5 744.5 665.75 753.25 655 753.25L653.25 753.25C555.5 753.25 547 687.75 492 687.75C438 687.75 424.25 753.25 338.75 753.25C253.25 753.25 239.25 687.75 185.5 687.75C130.5 687.75 122 753.25 24.25 753.25L22.5 753.25C11.75 753.25 3 744.5 3 733.5C3 722.75 11.75 714 22.5 714L24.25 714C60 714 80.25 699 104.5 681.75C125.5 666.5 150.75 648.5 185.5 648.5C221.5 648.5 247.25 667.75 268.25 683.25C290.5 700.25 308.75 714 338.75 714C368.75 714 387 700.25 409.25 683.25C430.25 667.75 456 648.5 492 648.5C526.75 648.5 552 666.5 573 681.75ZM195.289 509.778C195.327 524.029 197.444 537.762 201.376 550.689C196.492 549.239 191.221 548.5 185.5 548.5C130.5 548.5 122 613.75 24.25 613.75L22.5 613.75C11.75 613.75 3 605 3 594.25C3 583.5 11.75 574.5 22.5 574.5L24.25 574.5C60 574.5 80.25 559.5 104.5 542.5C125.5 527.25 150.75 509.25 185.5 509.25C188.86 509.25 192.131 509.416 195.289 509.778ZM573 542.5C597.25 559.5 617.5 574.5 653.25 574.5L655 574.5C665.75 574.5 674.5 583.5 674.5 594.25C674.5 605 665.75 613.75 655 613.75L653.25 613.75C555.5 613.75 547 548.5 492 548.5C486.461 548.5 481.346 549.186 476.613 550.56C480.557 537.658 482.677 523.951 482.713 509.729C485.713 509.399 488.816 509.25 492 509.25C526.75 509.25 552 527.25 573 542.5Z" fill="black" fill-opacity="0.85"/>
  <path d="M338.75 613C396.5 613 442.75 566.75 442.75 509C442.75 468.75 419.75 436.25 388.75 419.25C377.25 413 372 404.5 372 387.25L372 74.25C372 56 357.5 41 339 41C320.5 41 306 56 306 74.25L306 387.25C306 404 300.5 412.25 288.5 418.75C257.5 435.75 235.25 468.75 235.25 509C235.25 566.75 281.25 613 338.75 613ZM457 105.5L526 105.5C536 105.5 542.75 97.75 542.75 89C542.75 80.25 536 72.5 526 72.5L457 72.5C447 72.5 440.25 80.25 440.25 89C440.25 97.75 447 105.5 457 105.5ZM457 196L526 196C536 196 542.75 188.5 542.75 179.5C542.75 170.75 536 163.25 526 163.25L457 163.25C447 163.25 440.25 170.75 440.25 179.5C440.25 188.5 447 196 457 196ZM457 286.5L526 286.5C536 286.5 542.75 279 542.75 270.25C542.75 261.25 536 253.75 526 253.75L457 253.75C447 253.75 440.25 261.25 440.25 270.25C440.25 279 447 286.5 457 286.5ZM457 377.25L526 377.25C536 377.25 542.75 369.5 542.75 360.75C542.75 352 536 344.25 526 344.25L457 344.25C447 344.25 440.25 352 440.25 360.75C440.25 369.5 447 377.25 457 377.25Z" fill="black" fill-opacity="0.85"/>
 </g>
</svg>
