<?xml version="1.0" encoding="UTF-8"?>
<!--Generator: Apple Native CoreSVG 326-->
<!DOCTYPE svg
PUBLIC "-//W3C//DTD SVG 1.1//EN"
       "http://www.w3.org/Graphics/SVG/1.1/DTD/svg11.dtd">
<svg version="1.1" xmlns="http://www.w3.org/2000/svg" xmlns:xlink="http://www.w3.org/1999/xlink" viewBox="0 0 897.25 622.75">
 <g>
  <rect height="622.75" opacity="0" width="897.25" x="0" y="0"/>
  <path d="M0 311.25C0 412 33.25 505 89.25 580C98 591.5 112.25 592.75 123.25 584C133.25 575.5 134.5 562.25 126.75 551.25C76.5 484.5 46.75 401 46.75 311.25C46.75 221 76.5 138 126.75 70.75C134.5 60.25 133.5 47 123.25 38.25C112.5 29.5 97.75 31 89.25 42.5C33.25 117.25 0 210.25 0 311.25ZM897.25 311.25C897.25 210.25 864 117.25 807.75 42.5C799.25 31 784.75 29.5 773.75 38.25C763.75 47 762.75 60.25 770.5 70.75C820.75 138 850.25 221 850.25 311.25C850.25 401 820.75 484.5 770.5 551.25C762.75 562.25 763.75 575.5 773.75 584C784.75 592.75 799.25 591.5 807.75 580C864 505 897.25 412 897.25 311.25Z" fill="black" fill-opacity="0.85"/>
  <path d="M448.5 622.25C620.25 622.25 759.75 483 759.75 311.25C759.75 139.5 620.25 0 448.5 0C276.75 0 137.5 139.5 137.5 311.25C137.5 483 276.75 622.25 448.5 622.25ZM448.5 575.75C302.5 575.75 184 457.25 184 311.25C184 165.25 302.5 46.5 448.5 46.5C594.5 46.5 713.25 165.25 713.25 311.25C713.25 457.25 594.5 575.75 448.5 575.75Z" fill="black" fill-opacity="0.85"/>
  <path d="M436 484.5C477.25 484.5 510.5 451.25 510.5 409.75C510.5 380.75 494.25 357 470.5 344.25C462.75 339.75 459.75 335.25 459.75 322.75L459.75 171.25C459.75 157.75 449.25 147.25 436 147.25C422.75 147.25 412.5 157.75 412.5 171.25L412.5 322.75C412.5 335.25 409.75 339.75 401.5 344.25C377.75 357 361.5 380.75 361.5 409.75C361.5 451.25 394.75 484.5 436 484.5ZM512 209L568.75 209C576.5 209 583 202.5 583 194.75C583 187 576.5 180.5 568.75 180.5L512 180.5C504.25 180.5 497.75 187 497.75 194.75C497.75 202.5 504.25 209 512 209ZM512 264.25L568.75 264.25C576.5 264.25 583 257.75 583 250C583 242.25 576.5 235.75 568.75 235.75L512 235.75C504.25 235.75 497.75 242.25 497.75 250C497.75 257.75 504.25 264.25 512 264.25ZM512 320L568.75 320C576.5 320 583 313.5 583 305.5C583 297.75 576.5 291.5 568.75 291.5L512 291.5C504.25 291.5 497.75 297.75 497.75 305.5C497.75 313.5 504.25 320 512 320Z" fill="black" fill-opacity="0.85"/>
 </g>
</svg>
