<?xml version="1.0" encoding="UTF-8"?>
<!--Generator: Apple Native CoreSVG 326-->
<!DOCTYPE svg
PUBLIC "-//W3C//DTD SVG 1.1//EN"
       "http://www.w3.org/Graphics/SVG/1.1/DTD/svg11.dtd">
<svg version="1.1" xmlns="http://www.w3.org/2000/svg" xmlns:xlink="http://www.w3.org/1999/xlink" viewBox="0 0 651.25 651.75">
 <g>
  <rect height="651.75" opacity="0" width="651.25" x="0" y="0"/>
  <path d="M325.5 651.25C505.25 651.25 651.25 505.5 651.25 325.75C651.25 146 505.25 0 325.5 0C145.75 0 0 146 0 325.75C0 505.5 145.75 651.25 325.5 651.25ZM325.75 555C199 555 96.5 452.5 96.5 325.75C96.5 199 199 96.25 325.75 96.25C452.5 96.25 555 199 555 325.75C555 452.5 452.5 555 325.75 555ZM301.75 125.75C231 133.5 171.5 178.75 143.25 241L270.75 286.75C279.25 274.5 291.5 265.5 306 261.25ZM128.25 286.75C125.5 299.25 124 312.25 124 325.75C124 383.75 149 436.5 188.5 473L271.75 365.75C262.25 353.75 258.5 340.75 258.25 324.75ZM227.75 501.25C256.75 518 290.25 527.5 325.75 527.5C361.5 527.5 395 518 424.25 501.25L347.5 389.25C341 391.75 333.5 393.25 325.75 393.25C318 393.25 310.75 391.75 304 389.25ZM463.25 473C502.75 436.5 527.5 383.75 527.5 325.75C527.5 312.25 526.25 299.25 523.25 286.75L393.25 324.75C393.25 340.5 389 353.75 380 365.75ZM508.5 241C480.25 178.75 420.5 133.5 350 125.75L345.75 261.25C360.25 265.5 372.75 274.5 380.75 286.75ZM325.75 357.5C343.5 357.5 357.5 343.25 357.5 325.75C357.5 308 343.5 294 325.75 294C308 294 294 308 294 325.75C294 343.25 308 357.5 325.75 357.5Z" fill="black" fill-opacity="0.85"/>
 </g>
</svg>
