<?xml version="1.0" encoding="UTF-8"?>
<!--Generator: Apple Native CoreSVG 326-->
<!DOCTYPE svg
PUBLIC "-//W3C//DTD SVG 1.1//EN"
       "http://www.w3.org/Graphics/SVG/1.1/DTD/svg11.dtd">
<svg version="1.1" xmlns="http://www.w3.org/2000/svg" xmlns:xlink="http://www.w3.org/1999/xlink" viewBox="0 0 872.75 662.25">
 <g>
  <rect height="662.25" opacity="0" width="872.75" x="0" y="0"/>
  <path d="M0 228C0 269.75 31.25 300.5 73.25 300.5L115.75 300.5C144.75 300.5 155.5 306.75 168.25 327L296.25 531.25C314.5 560.5 345.25 585 400 585L799.5 585C841.5 585 872.75 553.5 872.75 511.25C872.75 469.5 841.5 438.75 799.5 438.75L428 438.75C416.5 438.75 405.5 436.5 399.5 427L274.5 223C244.5 173.5 207 154.25 155.5 154.25L73.25 154.25C31.25 154.25 0 185.75 0 228ZM41.75 227.75C41.75 209 54.75 196 73.25 196L144 196.25C192 196.5 214.5 206.75 237.75 244.25L366.25 451C379.25 471.75 395.25 480.5 424 480.5L799.5 480.5C817.75 480.5 831 493.5 831 511.5C831 530.5 817.75 543.25 799.5 543.25L408 543.25C363.5 543.25 344.25 530.75 325.5 500.75L197.75 296C179.5 267.25 162.75 258.75 124.5 258.75L73.25 258.75C54.75 258.75 41.75 245.75 41.75 227.75ZM525.75 351.75L694.5 351.75C705.5 351.75 716 348.75 725 342.25C770.5 306.75 800.5 252.25 800.5 191C800.5 87.25 714.25 0 610.25 0C506.5 0 420.25 87.25 420.25 191C420.25 252.25 449.75 306.75 495 342C504 348.75 515 351.75 525.75 351.75ZM540.25 309.25C526.25 309.25 516.75 306.5 506.25 295.75C480.75 269.25 464.5 233 464.5 191C464.5 107.5 528.75 44.75 610.5 44.75C692.5 44.75 755.5 107.5 755.5 191C755.5 232.75 740 269.25 714.5 295C703.75 306.5 694.75 309.25 680.5 309.25ZM546.5 459L672.5 459L672.5 333.75L546.5 333.75ZM610.25 660.25C646.75 660.25 672.5 633.75 672.5 597.25L672.5 569.75L546.5 569.75L546.5 597.25C546.5 633.75 573 660.25 610.25 660.25Z" fill="black" fill-opacity="0.85"/>
 </g>
</svg>
