<?xml version="1.0" encoding="UTF-8"?>
<!--Generator: Apple Native CoreSVG 326-->
<!DOCTYPE svg
PUBLIC "-//W3C//DTD SVG 1.1//EN"
       "http://www.w3.org/Graphics/SVG/1.1/DTD/svg11.dtd">
<svg version="1.1" xmlns="http://www.w3.org/2000/svg" xmlns:xlink="http://www.w3.org/1999/xlink" viewBox="0 0 756.063 738.001">
 <g>
  <rect height="738.001" opacity="0" width="756.063" x="0" y="0"/>
  <path d="M150.476 209.57C120.565 254.694 99.5314 308.318 99.5314 370.876C99.5314 462.126 145.281 525.876 211.031 565.376L506.281 565.376L613.173 672.267C609.664 679.491 602.058 684.626 593.531 684.626C582.281 684.626 572.281 674.876 572.281 663.376L572.281 644.626L526.281 644.626L526.281 663.376C526.281 674.876 516.281 684.626 504.781 684.626C493.281 684.626 483.281 674.876 483.281 663.376L483.281 644.626L441.281 644.626L441.281 663.376C441.281 674.876 431.031 684.626 419.781 684.626C408.531 684.626 398.281 674.876 398.281 663.376L398.281 644.626L357.281 644.626L357.281 663.376C357.281 674.876 347.531 684.626 335.781 684.626C324.531 684.626 314.281 674.876 314.281 663.376L314.281 644.626L272.281 644.626L272.281 663.376C272.281 674.876 262.281 684.626 250.781 684.626C239.281 684.626 229.281 674.876 229.281 663.376L229.281 644.626L183.281 644.626L183.281 663.376C183.281 674.876 173.281 684.626 162.031 684.626C150.281 684.626 140.531 674.876 140.531 663.376L140.531 617.376C140.531 597.876 131.781 575.626 116.031 552.126C84.2814 506.126 55.2814 447.376 55.2814 370.876C55.2814 297.108 81.002 231.842 119.074 178.169ZM608.781 73.8755L608.781 121.876C608.781 136.876 610.281 142.376 627.031 164.626C670.531 220.876 700.781 290.876 700.781 370.876C700.781 441.566 675.517 496.829 647.396 540.665L612.63 505.871C640.118 470.321 656.531 425.531 656.531 370.876C656.531 298.376 628.281 237.876 590.781 188.626C572.281 164.626 565.781 158.126 565.781 124.626L565.781 73.8755C565.781 62.3755 575.781 52.3755 587.281 52.3755C598.781 52.3755 608.781 62.3755 608.781 73.8755Z" fill="black" fill-opacity="0.85"/>
  <path d="M303.531 362.626L303.531 484.126C303.531 496.126 296.531 504.876 284.531 504.876C272.531 504.876 265.781 496.376 265.781 484.126L265.781 324.876ZM442.079 501.173C421.06 493.314 406.108 476.754 396.139 455.233ZM553.031 428.126C553.031 432.067 552.386 436.654 550.495 443.686L522.654 415.822C525.586 412.308 529.9 410.376 535.531 410.376C544.531 410.376 553.031 416.376 553.031 428.126ZM551.281 295.376C552.531 299.876 553.031 304.376 553.031 308.376C553.031 317.626 547.031 325.626 536.281 325.626C526.531 325.626 520.031 320.126 518.281 309.876C512.781 281.876 497.031 261.626 471.531 261.626C445.677 261.626 429.923 282.66 422.639 315.725L393.247 286.31C406.704 252.463 431.323 228.126 471.281 228.126C509.781 228.126 543.781 256.626 551.281 295.376ZM366.781 250.376C366.781 253.295 366.173 255.889 365.054 258.094L340.605 233.626L349.281 233.626C359.781 233.626 366.781 239.876 366.781 250.376Z" fill="black" fill-opacity="0.85"/>
  <path d="M682.781 689.126C691.031 697.376 704.531 697.376 712.781 689.126C721.031 680.626 721.281 667.376 712.781 658.876L97.5314 43.3755C89.2814 35.1255 75.7814 34.6255 67.2814 43.3755C59.0314 51.3755 58.7814 65.1255 67.2814 73.3755Z" fill="black" fill-opacity="0.85"/>
 </g>
</svg>
