<?xml version="1.0" encoding="UTF-8"?>
<!--Generator: Apple Native CoreSVG 326-->
<!DOCTYPE svg
PUBLIC "-//W3C//DTD SVG 1.1//EN"
       "http://www.w3.org/Graphics/SVG/1.1/DTD/svg11.dtd">
<svg version="1.1" xmlns="http://www.w3.org/2000/svg" xmlns:xlink="http://www.w3.org/1999/xlink" viewBox="0 0 848.25 633.25">
 <g>
  <rect height="633.25" opacity="0" width="848.25" x="0" y="0"/>
  <path d="M785.5 527.25C806.25 527.25 823.5 510.25 823.5 490.5C823.5 470 806.5 453.5 785.5 453.5C764.5 453.5 747.5 470 747.5 490.5C747.5 510.25 764.75 527.25 785.5 527.25ZM785.5 388C799 388 808.5 378.25 809 364.5L814.5 134.25C815 116.75 803.5 105.25 785.5 105.25C767.5 105.25 756 116.75 756.5 134.25L762 364.5C762.5 378.25 772.25 388 785.5 388Z" fill="black" fill-opacity="0.85"/>
  <path d="M0 318.5C0 395 29.25 453.75 61 499.75C76.5 523.25 85.25 545.5 85.25 565L85.25 611C85.25 622.5 95.25 632.25 106.75 632.25C118.25 632.25 128.25 622.5 128.25 611L128.25 592.25L174.25 592.25L174.25 611C174.25 622.5 184.25 632.25 195.5 632.25C207.25 632.25 217 622.5 217 611L217 592.25L259 592.25L259 611C259 622.5 269.25 632.25 280.75 632.25C292.25 632.25 302 622.5 302 611L302 592.25L343 592.25L343 611C343 622.5 353.25 632.25 364.5 632.25C376 632.25 386.25 622.5 386.25 611L386.25 592.25L428.25 592.25L428.25 611C428.25 622.5 438 632.25 449.5 632.25C461 632.25 471 622.5 471 611L471 592.25L517 592.25L517 611C517 622.5 527 632.25 538.5 632.25C550 632.25 560 622.5 560 611L560 565C560 547 569.75 523.5 587.25 495.75C617.5 450.75 645.75 393.25 645.75 318.5C645.75 238.5 615.25 168.5 572 112.25C555 90 553.5 84.5 553.5 69.5L553.5 21.5C553.5 10 543.5 0 532 0C520.5 0 510.5 10 510.5 21.5L510.5 72.25C510.5 105.75 517 112.25 535.5 136.25C573 185.5 601.5 246 601.5 318.5C601.5 409.75 555.5 473.5 489.5 513L156 513C90.25 473.5 44.25 409.75 44.25 318.5C44.25 246 72.75 185.5 110 136.25C128.75 112.25 135 105.75 135 72.25L135 21.5C135 10 125.25 0 113.75 0C102 0 92 10 92 21.5L92 69.5C92 84.5 90.75 90 73.75 112.25C30.25 168.5 0 238.5 0 318.5ZM229.5 452.5C241.25 452.5 248.5 443.75 248.5 431.75L248.5 214.5L294.25 214.5C304 214.5 311.75 208.25 311.75 198C311.75 187.5 304.5 181.25 294.25 181.25L164.75 181.25C155.75 181.25 147.25 186.75 147.25 198C147.25 208 155.25 214.5 164.75 214.5L210.5 214.5L210.5 431.75C210.5 444 217.25 452.5 229.5 452.5ZM417.25 454.25C459 454.25 486 426.5 494.75 393C497 385 498 380 498 375.75C498 364 489.5 358 480.25 358C470.75 358 465 363.5 463.25 372.75C458.75 399.75 444.5 421 416.75 421C376 421 362.5 368 362.5 314.5C362.5 253.5 379 209.25 416.5 209.25C441.75 209.25 457.5 229.5 463 257.5C464.75 267.75 471.25 273.25 481 273.25C491.75 273.25 497.75 265.25 497.75 256C497.75 252 497.25 247.5 496.25 243C488.5 204.25 454.5 175.75 416.25 175.75C347.75 175.75 324.25 246.75 324.25 314.5C324.25 386.75 349.5 454.25 417.25 454.25Z" fill="black" fill-opacity="0.85"/>
 </g>
</svg>
