<?xml version="1.0" encoding="UTF-8"?>
<!--Generator: Apple Native CoreSVG 326-->
<!DOCTYPE svg
PUBLIC "-//W3C//DTD SVG 1.1//EN"
       "http://www.w3.org/Graphics/SVG/1.1/DTD/svg11.dtd">
<svg version="1.1" xmlns="http://www.w3.org/2000/svg" xmlns:xlink="http://www.w3.org/1999/xlink" viewBox="0 0 722.75 714.498">
 <g>
  <rect height="714.498" opacity="0" width="722.75" x="0" y="0"/>
  <path d="M361.25 671.874C370.25 671.874 378.75 671.374 387.5 670.624L405.75 705.124C409.75 712.624 416 715.374 424 714.124C432.5 712.874 437 707.874 438.5 699.124L443.75 660.874C460.75 656.374 477.25 650.374 493 642.874L521.5 669.124C528 674.624 534.75 675.374 542 671.124C549.25 667.124 552 660.874 550.25 652.374L542 614.624C556.5 604.624 570.25 593.124 582.5 580.874L618.25 595.374C626.25 598.624 632.75 597.124 638.25 590.624C643.5 584.124 644 577.374 639.5 569.874L619 537.624C629.25 523.374 638 507.874 645.5 491.624L683.75 493.124C692.5 493.624 698 489.624 700.75 481.874C703.75 474.124 702 467.624 695 462.124L665.25 438.874C669.75 421.874 673 404.374 674.5 386.374L710.5 374.874C718.5 372.124 722.75 366.624 722.75 358.374C722.75 349.874 718.5 344.374 710.5 341.874L674.75 330.374C673 312.374 670.25 294.624 665.75 277.374L695 254.374C702 248.624 703.75 242.624 700.5 234.624C698 226.874 692.5 222.874 683.75 223.124L646.5 224.374C639 208.124 630 192.874 619.75 178.124L639.5 146.624C644 139.124 643.5 132.624 638 126.124C632.75 119.374 626.25 117.874 618 121.124L583.75 135.374C571 122.374 557.25 110.624 542.25 100.374L550.25 64.1239C552 55.6239 549.25 49.6239 542 45.3739C534.75 41.1239 528 41.8739 521.25 47.6239L494.25 72.1239C478 64.6239 461 58.3739 443.25 53.6239L438.25 17.3739C437 8.62385 432.5 3.87385 424 2.37385C416 1.12385 409.75 4.12385 405.5 11.8739L388.25 44.1239C379.25 43.3739 370.5 42.8739 361.25 42.8739C352.25 42.8739 343.5 43.3739 334.25 44.1239L317 11.6239C312.75 4.12385 306.75 1.12385 298.5 2.37385C290.25 3.87385 285.75 8.87385 284.25 17.6239L279.5 53.6239C261.5 58.3739 244.5 64.8739 228.5 72.3739L201.25 47.3739C194.75 41.8739 188 41.3739 180.5 45.3739C173.5 49.6239 170.75 55.8739 172.5 64.3739L180.5 100.124C165.5 110.624 151.5 122.624 138.75 135.374L104.5 121.124C96.5 118.124 90 119.624 84.5 126.124C79.25 132.374 78.75 139.124 83.25 146.624L103 178.124C92.75 192.874 83.75 208.374 76 224.624L39 223.374C30.25 222.874 24.75 226.874 22 234.624C19 242.624 20.75 249.124 27.75 254.624L57 277.374C52.5 294.624 49.5 312.374 48 330.374L12.25 341.874C4 344.374 0 349.874 0 358.374C0 366.624 4 372.124 12.25 374.874L48.25 386.374C49.75 404.374 53 421.874 57.5 438.874L27.75 462.374C20.5 467.874 19 473.874 22 481.874C24.75 489.874 30.25 493.874 39 493.374L77 491.874C84.75 508.124 93.5 523.374 103.75 537.624L83.25 570.124C78.75 577.624 79.25 584.124 84.75 590.624C90 597.124 96.5 598.624 104.75 595.374L140.25 580.874C152.5 593.374 166.25 604.624 180.75 614.624L172.5 652.374C170.75 660.874 173.5 666.874 180.75 671.124C188 675.624 194.75 674.624 201.25 668.874L229.75 642.874C245.5 650.374 262 656.374 279 660.874L284.25 699.124C285.75 707.874 290.25 712.624 298.75 714.124C306.75 715.624 312.75 712.624 317.25 704.874L335.25 670.624C344 671.374 352.75 671.874 361.25 671.874ZM361.25 625.874C212.75 625.874 92.5 505.624 92.5 357.124C92.5 208.624 212.75 88.1239 361.25 88.1239C509.75 88.1239 630.25 208.624 630.25 357.124C630.25 505.624 509.75 625.874 361.25 625.874Z" fill="black" fill-opacity="0.85"/>
 </g>
</svg>
