<?xml version="1.0" encoding="UTF-8"?>
<!--Generator: Apple Native CoreSVG 326-->
<!DOCTYPE svg
PUBLIC "-//W3C//DTD SVG 1.1//EN"
       "http://www.w3.org/Graphics/SVG/1.1/DTD/svg11.dtd">
<svg version="1.1" xmlns="http://www.w3.org/2000/svg" xmlns:xlink="http://www.w3.org/1999/xlink" viewBox="0 0 1130.5 858.126">
 <g>
  <rect height="858.126" opacity="0" width="1130.5" x="0" y="0"/>
  <path d="M363.91 318.649L259.25 383.938L138 401.438C71.75 410.688 44.5 434.438 44.5 480.188L44.5 538.188C44.5 561.188 54.75 572.688 74.25 572.688L124.331 572.688C130.242 523.02 171.501 485.688 223 485.688C274.73 485.688 316.007 523.02 321.918 572.688L618.217 572.688L662.764 617.188L317.66 617.188C304.721 657.127 267.776 684.938 223 684.938C178.423 684.938 141.519 657.127 128.588 617.188L72.25 617.188C26.75 617.188 0 589.938 0 542.938L0 480.188C0 409.938 41.75 370.938 132.5 357.438L244 340.938L331.35 286.123ZM801 292.938L807.25 346.938L1058.25 346.938C1104 346.938 1130.5 374.438 1130.5 421.438L1130.5 542.938C1130.5 589.938 1104 617.188 1058.25 617.188L947.939 617.188C938.207 647.456 914.739 670.747 884.534 680.222L843.903 639.591C847.063 640.167 850.36 640.438 853.75 640.438C885 640.438 908.75 616.688 908.75 585.188C908.75 553.938 885 530.188 853.75 530.188C822 530.188 798.5 553.938 798.5 585.188C798.5 588.574 798.772 591.871 799.348 595.036L758.561 554.249C771.336 514.062 808.652 485.688 853.75 485.688C905.249 485.688 946.295 523.02 952.173 572.688L1056.25 572.688C1076 572.688 1086.25 561.188 1086.25 538.188L1086.25 426.188C1086.25 402.938 1076 391.438 1056.25 391.438L766.75 391.438L756.5 299.438C753 267.938 736.5 252.688 704.75 252.688L585.75 252.688C538.019 252.688 502.055 256.366 469.875 265.563L434.256 229.944C476.614 214.307 522.379 208.438 585.75 208.438L706.75 208.438C762.75 208.438 794.75 237.188 801 292.938ZM167.75 585.188C167.75 616.688 191.75 640.438 223 640.438C254.5 640.438 278.25 616.688 278.25 585.188C278.25 553.938 254.5 530.188 223 530.188C191.75 530.188 167.75 553.938 167.75 585.188Z" fill="black" fill-opacity="0.85"/>
  <path d="M792.25 79.188L792.25 119.938C792.25 144.938 779 160.938 754.25 160.938L477.75 160.938C456.25 160.938 446.75 150.938 446.75 132.688C446.75 120.188 453.5 111.188 472 100.188L551.75 49.438C606.5 18.188 637.25 10.438 684.5 10.438L717.5 10.438C769.5 10.438 792.25 32.938 792.25 79.188Z" fill="black" fill-opacity="0.85"/>
  <path d="M912 817.188C920.5 825.438 934 825.438 942.25 817.188C950.5 808.438 950.5 795.188 942.25 786.938L229.25 74.188C221 65.938 207.75 65.688 199 74.188C190.75 82.438 190.5 96.188 199 104.438Z" fill="black" fill-opacity="0.85"/>
 </g>
</svg>
