<?xml version="1.0" encoding="UTF-8"?>
<!--Generator: Apple Native CoreSVG 326-->
<!DOCTYPE svg
PUBLIC "-//W3C//DTD SVG 1.1//EN"
       "http://www.w3.org/Graphics/SVG/1.1/DTD/svg11.dtd">
<svg version="1.1" xmlns="http://www.w3.org/2000/svg" xmlns:xlink="http://www.w3.org/1999/xlink" viewBox="0 0 1130.5 837.25">
 <g>
  <rect height="837.25" opacity="0" width="1130.5" x="0" y="0"/>
  <path d="M72.25 611L110 611C108.25 601 107 593.5 107 583.5C107 517.5 159 468.25 223 468.25C289.75 468.25 339.25 519.5 339.25 584.25C339.25 593.5 338.25 601 336 611L740.25 611C738.75 602 737.75 593.5 737.75 583.5C737.75 517.5 789.75 468.25 853.75 468.25C920.5 468.25 970 519.5 970 584.25C970 594.25 969 601.75 966.5 611L1058.25 611C1104 611 1130.5 583.5 1130.5 536.5L1130.5 419.75C1130.5 372.75 1104 345.5 1058.25 345.5L808.5 345.5L801 282C794.5 226.25 762.75 197.25 706.75 197.25L585.75 197.25C488.75 197.25 433 211 367.5 252L244 329.75L132.5 346.25C41.75 359.75 0 398.75 0 469L0 536.5C0 583.5 26.75 611 72.25 611ZM223 665.75C268.5 665.75 304.5 629.75 304.5 584.25C304.5 539 268.5 503 223 503C177.75 503 141.75 539 141.75 584.25C141.75 629.5 177.75 665.75 223 665.75ZM853.75 665.75C899.25 665.75 935 629.5 935 584.25C935 539 899.25 503 853.75 503C808.5 503 772.25 539.25 772.25 584.25C772.25 629.5 808.25 665.75 853.75 665.75Z" fill="black" fill-opacity="0.85"/>
  <path d="M468.25 150.5L744.75 150.5C769.25 150.5 782.5 134.5 782.5 109.5L782.5 68.75C782.5 22.5 760 0 708 0L675 0C627.5 0 596.75 7.75 542 39L462.5 89.75C444 100.75 437.25 109.75 437.25 122.25C437.25 140.5 446.75 150.5 468.25 150.5Z" fill="black" fill-opacity="0.85"/>
 </g>
</svg>
