<?xml version="1.0" encoding="UTF-8"?>
<!--Generator: Apple Native CoreSVG 326-->
<!DOCTYPE svg
PUBLIC "-//W3C//DTD SVG 1.1//EN"
       "http://www.w3.org/Graphics/SVG/1.1/DTD/svg11.dtd">
<svg version="1.1" xmlns="http://www.w3.org/2000/svg" xmlns:xlink="http://www.w3.org/1999/xlink" viewBox="0 0 578.5 570.75">
 <g>
  <rect height="570.75" opacity="0" width="578.5" x="0" y="0"/>
  <path d="M578.25 56.25L578.25 10.25C530.5 20.5 490 38 445.75 65.75L295.75 160L159.75 179.75C50 195.5 2.25 241.25 2.25 325.5L2.25 401.25C2.25 457 32.75 488.5 87.25 488.5L180.75 488.5L180.75 444.25L89.75 444.25C62 444.25 46.75 426.25 46.75 395.75L46.75 325.5C46.75 267 82.75 235.75 165.5 224L310.75 202.75L469.25 103.75C505.5 81 539.5 65.75 578.25 56.25ZM578.5 488.5L578.5 444.25L360.75 444.25L360.75 488.5ZM269.5 570.75C335.75 570.75 387 519.25 387 452.75C387 386.5 335.75 335.25 269.5 335.25C202.75 335.25 151.5 386.5 151.5 452.75C151.5 519.25 202.75 570.75 269.5 570.75ZM269.5 526C228.25 526 196.25 494 196.25 452.75C196.25 411.75 228.25 379.5 269.5 379.5C310.5 379.5 342.75 411.75 342.75 452.75C342.75 494 310.5 526 269.5 526ZM20.75 41.5L130.5 41.5C143.75 41.5 152.75 44.5 160.5 52.5L292.25 184.25L330.25 163.25L193.25 26C176.25 8.75 154.25 1.5 126 1.5L20.75 1.5C8 1.5 0 9.5 0 21.5C0 33.25 8 41.5 20.75 41.5Z" fill="black" fill-opacity="0.85"/>
 </g>
</svg>
