<?xml version="1.0" encoding="UTF-8"?>
<!--Generator: Apple Native CoreSVG 326-->
<!DOCTYPE svg
PUBLIC "-//W3C//DTD SVG 1.1//EN"
       "http://www.w3.org/Graphics/SVG/1.1/DTD/svg11.dtd">
<svg version="1.1" xmlns="http://www.w3.org/2000/svg" xmlns:xlink="http://www.w3.org/1999/xlink" viewBox="0 0 575.5 567.75">
 <g>
  <rect height="567.75" opacity="0" width="575.5" x="0" y="0"/>
  <path d="M575.5 496L575.5 7.75C528.5 17.5 488.25 35 444.75 62.25L295.5 156.25L160 176.25C50.25 192.25 0 239.75 0 324.5L0 406.25C0 463 32.25 496 87.75 496L136.25 496C133.5 485.75 132 475.5 132 464C132 387.75 193.75 326.5 270 326.5C346.25 326.5 407.5 387.75 407.5 464C407.5 475.5 406 486 403.75 496ZM270 566.75C327.25 566.75 372.5 521.5 372.5 464C372.5 407 327 361.25 270 361.25C212.5 361.25 167 407 167 464C167 521.25 212.5 566.75 270 566.75ZM32.75 40L142.75 40C156 40 165 43 172.75 51L304.5 182.75L342.5 161.75L205.5 24.5C188.25 7.25 166.25 0 138.25 0L32.75 0C20.25 0 12.25 8 12.25 20C12.25 31.75 20.25 40 32.75 40Z" fill="black" fill-opacity="0.85"/>
 </g>
</svg>
