<?xml version="1.0" encoding="UTF-8"?>
<!--Generator: Apple Native CoreSVG 326-->
<!DOCTYPE svg
PUBLIC "-//W3C//DTD SVG 1.1//EN"
       "http://www.w3.org/Graphics/SVG/1.1/DTD/svg11.dtd">
<svg version="1.1" xmlns="http://www.w3.org/2000/svg" xmlns:xlink="http://www.w3.org/1999/xlink" viewBox="0 0 1215.75 937.75">
 <g>
  <rect height="937.75" opacity="0" width="1215.75" x="0" y="0"/>
  <path d="M327.5 628.5C327.5 677.5 288.75 716 239.75 716C191.25 716 152.25 677.25 152.25 628.5C152.25 579.75 191.25 541 239.75 541C288.5 541 327.5 579.75 327.5 628.5ZM1005.25 628.5C1005.25 677.25 966.5 716 917.75 716C869 716 830.25 677.25 830.25 628.5C830.25 580 869.25 541 917.75 541C966.5 541 1005.25 579.75 1005.25 628.5ZM861.5 303.5L869.25 371.5L1137.75 371.5C1187 371.5 1215.75 401 1215.75 451.5L1215.75 577C1215.75 627.5 1187 657 1137.75 657L1036.5 657C1038.75 647.75 1040.25 638.5 1040.25 628.5C1040.25 560.75 985.75 506.25 917.75 506.25C850.25 506.25 795.5 561 795.5 628.5C795.5 638.5 796.75 647.75 799 657L359 657C361 648 362.25 638.5 362.25 628.5C362.25 560.75 307.75 506.25 239.75 506.25C172 506.25 117.5 560.75 117.5 628.5C117.5 638.5 118.75 647.75 121 657L77.75 657C28.75 657 0 627.5 0 577L0 504.5C0 429 44.75 386.75 142.25 372.5L262.5 355L395.25 271.25C419.294 256.19 442.137 244.528 466 235.772L466 281C466 331 497.25 362.75 545.5 362.75L691.75 362.75C740.25 362.75 771.25 331 771.25 281L771.25 212.623C824.242 216.276 854.941 247.05 861.5 303.5Z" fill="black" fill-opacity="0.85"/>
  <path d="M545.5 322.75L691.75 322.75C718 322.75 731.5 309 731.5 281L731.5 165.75C731.5 137.5 718 124 691.75 124L545.5 124C519.25 124 505.75 137.5 505.75 165.75L505.75 281C505.75 309 519.25 322.75 545.5 322.75ZM534.75 148.75L566 148.75L566 87C566 52.75 586.5 31 618.75 31C650.75 31 671.75 52.75 671.75 87L671.75 148.75L702.5 148.75L702.5 91.25C702.5 35.5 669.75 0 618.75 0C567.75 0 534.75 35.5 534.75 91.25Z" fill="black" fill-opacity="0.85"/>
 </g>
</svg>
