<?xml version="1.0" encoding="UTF-8"?>
<!--Generator: Apple Native CoreSVG 326-->
<!DOCTYPE svg
PUBLIC "-//W3C//DTD SVG 1.1//EN"
       "http://www.w3.org/Graphics/SVG/1.1/DTD/svg11.dtd">
<svg version="1.1" xmlns="http://www.w3.org/2000/svg" xmlns:xlink="http://www.w3.org/1999/xlink" viewBox="0 0 1215.75 576.25">
 <g>
  <rect height="576.25" opacity="0" width="1215.75" x="0" y="0"/>
  <path d="M861.5 122.75L868 180.5L1137.75 180.5C1187 180.5 1215.75 210 1215.75 260.5L1215.75 391.25C1215.75 441.75 1187 471.25 1137.75 471.25L1019.51 471.25C1005.59 513.977 965.904 544 917.75 544C869.796 544 829.986 513.977 816.012 471.25L341.512 471.25C327.595 513.977 287.904 544 239.75 544C191.796 544 152.145 513.977 138.236 471.25L77.75 471.25C28.75 471.25 0 441.75 0 391.25L0 323.75C0 248.25 44.75 206 142.25 191.75L236.567 178.024L267.158 218.267L148 235.75C75.5 246.25 44.25 273 44.25 323.75L44.25 386.25C44.25 412.25 57.25 427 80.25 427L133.237 427C138.068 371.621 183.118 329.75 239.75 329.75C296.618 329.75 341.681 371.621 346.513 427L810.99 427C815.845 371.621 861.118 329.75 917.75 329.75C974.618 329.75 1019.68 371.621 1024.51 427L1135.5 427C1158.5 427 1171.5 412.25 1171.5 386.25L1171.5 265.5C1171.5 239.5 1158.5 225 1135.5 225L827.5 225L817 129C813.25 94.25 793 75.75 758 75.75L630 75.75C535 75.75 482 89.25 419 128.5L366.814 161.047L339.709 125.54L395.25 90.5C465.5 46.5 525.5 31.5 630 31.5L760.25 31.5C820 31.5 854.5 62.5 861.5 122.75ZM177 437C177 472.25 204.5 499.75 239.75 499.75C275.25 499.75 302.75 472.25 302.75 437C302.75 401.5 275.25 374 239.75 374C204.5 374 177 401.5 177 437ZM855 437C855 472.25 882.5 499.75 917.75 499.75C953.25 499.75 980.75 472.25 980.75 437C980.75 401.5 953.25 374 917.75 374C882.5 374 855 401.5 855 437Z" fill="black" fill-opacity="0.85"/>
  <path d="M79.25 79.25L160.75 79.25C195.5 79.25 210.5 85.75 228.25 109.25L316.75 226C343.25 261 371.75 275.5 414.75 275.5L482.75 275.5L482.75 306.75C482.75 326.25 500 332 514.75 322.5L595.25 270.75C609 262 609.25 245.25 595.25 236L515 184.5C500 175 482.75 180.75 482.75 200.5L482.75 231.25L414.75 231.25C385 231.25 371.5 224 352 198.75L262.5 82C236.75 48.25 207 35 160.75 35L79.25 35C67.25 35 57.25 45 57.25 57C57.25 69.25 67.25 79.25 79.25 79.25Z" fill="black" fill-opacity="0.85"/>
 </g>
</svg>
