<?xml version="1.0" encoding="UTF-8"?>
<!--Generator: Apple Native CoreSVG 326-->
<!DOCTYPE svg
PUBLIC "-//W3C//DTD SVG 1.1//EN"
       "http://www.w3.org/Graphics/SVG/1.1/DTD/svg11.dtd">
<svg version="1.1" xmlns="http://www.w3.org/2000/svg" xmlns:xlink="http://www.w3.org/1999/xlink" viewBox="0 0 1096.66 837.38">
 <g>
  <rect height="837.38" opacity="0" width="1096.66" x="0" y="0"/>
  <path d="M202.079 253.315L262.329 288.065L280.329 256.815L221.579 223.065C205.579 213.815 202.329 198.315 213.079 180.065L238.329 136.065C258.829 100.565 291.579 94.3151 346.579 116.565L445.329 155.565L580.079 151.065C640.329 149.065 682.829 161.065 749.329 199.565L839.329 251.315C863.829 265.565 870.579 286.565 859.329 312.565L827.829 384.065L1043.83 508.815C1059.83 518.065 1063.08 533.565 1052.58 551.815L1003.58 636.565C993.079 654.815 978.079 659.815 962.079 650.565L868.829 596.815L851.079 627.815L945.579 682.565C980.079 702.315 1012.33 693.315 1032.58 658.065L1085.58 566.315C1106.08 530.815 1097.83 498.565 1063.33 478.565L874.079 369.315L892.829 326.065C912.579 281.065 900.829 245.315 858.829 221.065L767.329 168.315C694.079 126.065 646.079 112.315 578.829 114.815L451.829 119.565L360.329 83.3151C286.329 53.8151 237.829 65.3151 207.079 118.315L179.829 165.565C159.329 201.065 167.579 233.315 202.079 253.315ZM371.079 350.815L737.079 562.065L755.079 531.065L389.079 319.565ZM286.329 370.065C328.329 394.315 380.329 380.315 404.829 338.315C429.079 296.065 415.079 244.065 373.079 219.565C330.829 195.315 278.829 209.315 254.329 251.315C230.079 293.565 244.079 345.565 286.329 370.065ZM304.079 338.815C279.329 324.565 271.079 294.065 285.579 269.315C299.829 244.565 330.329 236.315 355.079 250.815C379.829 265.065 388.079 295.565 373.829 320.315C359.329 345.065 328.829 353.315 304.079 338.815ZM761.829 644.565C803.829 668.815 856.079 654.815 880.329 612.815C904.579 570.565 890.829 518.565 848.579 494.315C806.329 469.815 754.329 483.815 730.079 526.065C705.579 568.065 719.579 620.315 761.829 644.565ZM779.579 613.565C754.829 599.065 746.829 568.815 761.079 543.815C775.329 519.065 805.829 511.065 830.579 525.315C855.329 539.565 863.579 570.065 849.329 594.815C834.829 619.565 804.579 627.815 779.579 613.565Z" fill="black" fill-opacity="0.85"/>
  <path d="M103.829 155.315L167.829 44.3151C177.829 27.3151 164.329 12.0651 146.579 15.3151L46.3291 31.3151C33.0791 33.5651 27.0791 43.8151 31.8291 56.8151L68.0791 151.315C74.3291 168.315 93.8291 172.315 103.829 155.315ZM3.07905 286.815C-3.17095 297.815 0.579054 311.315 10.8291 317.315L905.329 834.565C915.329 840.315 929.079 837.065 935.079 826.565C941.329 815.315 937.329 801.815 927.329 796.065L32.8291 278.815C22.8291 273.065 9.07905 276.565 3.07905 286.815Z" fill="black" fill-opacity="0.85"/>
 </g>
</svg>
