<?xml version="1.0" encoding="UTF-8"?>
<!--Generator: Apple Native CoreSVG 326-->
<!DOCTYPE svg
PUBLIC "-//W3C//DTD SVG 1.1//EN"
       "http://www.w3.org/Graphics/SVG/1.1/DTD/svg11.dtd">
<svg version="1.1" xmlns="http://www.w3.org/2000/svg" xmlns:xlink="http://www.w3.org/1999/xlink" viewBox="0 0 1215.75 513.25">
 <g>
  <rect height="513.25" opacity="0" width="1215.75" x="0" y="0"/>
  <path d="M327.5 416.25C327.5 465.25 288.75 503.75 239.75 503.75C191.25 503.75 152.25 465 152.25 416.25C152.25 367.5 191.25 328.75 239.75 328.75C288.5 328.75 327.5 367.5 327.5 416.25ZM1005.25 416.25C1005.25 465 966.5 503.75 917.75 503.75C869 503.75 830.25 465 830.25 416.25C830.25 367.75 869.25 328.75 917.75 328.75C966.5 328.75 1005.25 367.5 1005.25 416.25ZM861.5 91.25L869.25 159.25L1137.75 159.25C1187 159.25 1215.75 188.75 1215.75 239.25L1215.75 364.75C1215.75 415.25 1187 444.75 1137.75 444.75L1036.5 444.75C1038.75 435.5 1040.25 426.25 1040.25 416.25C1040.25 348.5 985.75 294 917.75 294C850.25 294 795.5 348.75 795.5 416.25C795.5 426.25 796.75 435.5 799 444.75L359 444.75C361 435.75 362.25 426.25 362.25 416.25C362.25 348.5 307.75 294 239.75 294C172 294 117.5 348.5 117.5 416.25C117.5 426.25 118.75 435.5 121 444.75L77.75 444.75C28.75 444.75 0 415.25 0 364.75L0 292.25C0 216.75 44.75 174.5 142.25 160.25L262.5 142.75L395.25 59C465.5 15 525.5 0 630 0L760.25 0C820 0 854.5 31 861.5 91.25ZM564.5 214.5L494.75 329.5C486.25 343 492.75 356 508.75 356L652.75 356C668.5 356 675.5 343 667 329.5L596.5 214.5C588.5 201.5 572.75 201.25 564.5 214.5Z" fill="black" fill-opacity="0.85"/>
 </g>
</svg>
