<?xml version="1.0" encoding="UTF-8"?>
<!--Generator: Apple Native CoreSVG 326-->
<!DOCTYPE svg
PUBLIC "-//W3C//DTD SVG 1.1//EN"
       "http://www.w3.org/Graphics/SVG/1.1/DTD/svg11.dtd">
<svg version="1.1" xmlns="http://www.w3.org/2000/svg" xmlns:xlink="http://www.w3.org/1999/xlink" viewBox="0 0 1215.75 937.75">
 <g>
  <rect height="937.75" opacity="0" width="1215.75" x="0" y="0"/>
  <path d="M861.5 303.5L868 361.25L1137.75 361.25C1187 361.25 1215.75 390.75 1215.75 441.25L1215.75 572C1215.75 622.5 1187 652 1137.75 652L1019.51 652C1005.59 694.727 965.904 724.75 917.75 724.75C869.796 724.75 829.986 694.727 816.012 652L341.512 652C327.595 694.727 287.904 724.75 239.75 724.75C191.796 724.75 152.145 694.727 138.236 652L77.75 652C28.75 652 0 622.5 0 572L0 504.5C0 429 44.75 386.75 142.25 372.5L262.5 355L395.25 271.25C419.294 256.19 442.137 244.528 466 235.772L466 281C466 282.044 466.014 283.079 466.121 284.059C450.487 290.903 435.069 299.239 419 309.25L277.5 397.5L148 416.5C75.5 427 44.25 453.75 44.25 504.5L44.25 567C44.25 593 57.25 607.75 80.25 607.75L133.237 607.75C138.068 552.371 183.118 510.5 239.75 510.5C296.618 510.5 341.681 552.371 346.513 607.75L810.99 607.75C815.845 552.371 861.118 510.5 917.75 510.5C974.618 510.5 1019.68 552.371 1024.51 607.75L1135.5 607.75C1158.5 607.75 1171.5 593 1171.5 567L1171.5 446.25C1171.5 420.25 1158.5 405.75 1135.5 405.75L827.5 405.75L817 309.75C813.753 279.657 798.131 261.75 771.25 257.517L771.25 212.623C824.242 216.276 854.941 247.05 861.5 303.5ZM177 617.75C177 653 204.5 680.5 239.75 680.5C275.25 680.5 302.75 653 302.75 617.75C302.75 582.25 275.25 554.75 239.75 554.75C204.5 554.75 177 582.25 177 617.75ZM855 617.75C855 653 882.5 680.5 917.75 680.5C953.25 680.5 980.75 653 980.75 617.75C980.75 582.25 953.25 554.75 917.75 554.75C882.5 554.75 855 582.25 855 617.75Z" fill="black" fill-opacity="0.85"/>
  <path d="M545.5 322.75L691.75 322.75C718 322.75 731.5 309 731.5 281L731.5 165.75C731.5 137.5 718 124 691.75 124L545.5 124C519.25 124 505.75 137.5 505.75 165.75L505.75 281C505.75 309 519.25 322.75 545.5 322.75ZM534.75 148.75L566 148.75L566 87C566 52.75 586.5 31 618.75 31C650.75 31 671.75 52.75 671.75 87L671.75 148.75L702.5 148.75L702.5 91.25C702.5 35.5 669.75 0 618.75 0C567.75 0 534.75 35.5 534.75 91.25Z" fill="black" fill-opacity="0.85"/>
 </g>
</svg>
