<?xml version="1.0" encoding="UTF-8"?>
<!--Generator: Apple Native CoreSVG 326-->
<!DOCTYPE svg
PUBLIC "-//W3C//DTD SVG 1.1//EN"
       "http://www.w3.org/Graphics/SVG/1.1/DTD/svg11.dtd">
<svg version="1.1" xmlns="http://www.w3.org/2000/svg" xmlns:xlink="http://www.w3.org/1999/xlink" viewBox="0 0 1215.75 767.813">
 <g>
  <rect height="767.813" opacity="0" width="1215.75" x="0" y="0"/>
  <path d="M77.75 567.031L163.75 567.031L163.75 522.781L80.25 522.781C57.25 522.781 44.25 508.031 44.25 482.031L44.25 419.531C44.25 368.781 75.5 342.031 148 331.531L277.5 312.531L419 224.281C482 185.031 535 171.531 630 171.531L758 171.531C793 171.531 813.25 190.031 817 224.781L827.5 320.781L1135.5 320.781C1158.5 320.781 1171.5 335.281 1171.5 361.281L1171.5 482.031C1171.5 508.031 1158.5 522.781 1135.5 522.781L1002.75 522.781L1002.75 567.031L1137.75 567.031C1187 567.031 1215.75 537.531 1215.75 487.031L1215.75 356.281C1215.75 305.781 1187 276.281 1137.75 276.281L868 276.281L861.5 218.531C854.5 158.281 820 127.281 760.25 127.281L630 127.281C525.5 127.281 465.5 142.281 395.25 186.281L262.5 270.031L142.25 287.531C44.75 301.781 0 344.031 0 419.531L0 487.031C0 537.531 28.75 567.031 77.75 567.031ZM318.75 567.031L840.5 567.031L840.5 522.781L318.75 522.781ZM239.75 639.781C300 639.781 347 592.781 347 532.781C347 472.531 300 425.531 239.75 425.531C179.75 425.531 132.75 472.531 132.75 532.781C132.75 592.781 179.75 639.781 239.75 639.781ZM239.75 595.531C204.5 595.531 177 568.031 177 532.781C177 497.281 204.5 469.781 239.75 469.781C275.25 469.781 302.75 497.281 302.75 532.781C302.75 568.031 275.25 595.531 239.75 595.531ZM917.75 639.781C978 639.781 1025 592.781 1025 532.781C1025 472.531 978 425.531 917.75 425.531C857.75 425.531 810.5 472.531 810.5 532.781C810.5 592.781 857.75 639.781 917.75 639.781ZM917.75 595.531C882.5 595.531 855 568.031 855 532.781C855 497.281 882.5 469.781 917.75 469.781C953.25 469.781 980.75 497.281 980.75 532.781C980.75 568.031 953.25 595.531 917.75 595.531Z" fill="black" fill-opacity="0.85"/>
  <path d="M508 616.281C492 616.281 485.5 629.531 494 643.031L563.75 757.781C572 771.281 587.75 771.031 595.75 757.781L666.25 642.781C674.5 629.281 667.75 616.281 652 616.281Z" fill="black" fill-opacity="0.85"/>
 </g>
</svg>
