<?xml version="1.0" encoding="UTF-8"?>
<!--Generator: Apple Native CoreSVG 326-->
<!DOCTYPE svg
PUBLIC "-//W3C//DTD SVG 1.1//EN"
       "http://www.w3.org/Graphics/SVG/1.1/DTD/svg11.dtd">
<svg version="1.1" xmlns="http://www.w3.org/2000/svg" xmlns:xlink="http://www.w3.org/1999/xlink" viewBox="0 0 1137.62 840.738">
 <g>
  <rect height="840.738" opacity="0" width="1137.62" x="0" y="0"/>
  <path d="M273.811 643.744L304.061 626.244C298.811 620.744 294.061 614.744 290.061 607.744C262.561 559.994 278.811 499.744 326.311 472.244C373.811 444.744 434.311 460.994 461.811 508.494C465.811 515.494 468.561 522.744 470.811 529.994L779.561 351.744C774.311 345.994 769.561 339.994 765.561 333.244C738.311 285.744 754.561 225.244 801.811 197.744C849.561 170.244 909.811 186.494 937.311 233.994C941.311 240.994 944.061 247.994 946.311 255.494L1017.31 214.494C1051.81 194.494 1060.06 162.244 1039.56 126.744L988.561 38.744C968.311 3.24404 936.311-5.75596 901.811 14.244L713.311 122.994L680.311 78.494C651.061 38.994 614.311 31.244 572.311 55.494L480.811 108.244C407.561 150.494 371.811 185.244 340.311 244.744L280.811 356.994L203.811 417.994C141.061 467.494 126.811 515.244 157.311 568.244L186.811 619.244C207.311 654.494 239.311 663.744 273.811 643.744ZM411.311 619.494C445.561 599.744 457.061 556.994 437.311 522.744C417.561 488.494 374.561 476.994 340.311 496.744C306.311 516.494 294.811 559.494 314.561 593.494C334.311 627.744 377.061 639.244 411.311 619.494ZM886.811 344.994C921.061 325.244 932.561 282.244 912.811 248.244C893.061 213.994 850.061 202.494 816.061 222.244C782.061 241.744 770.311 284.994 790.061 318.994C809.811 353.244 852.811 364.744 886.811 344.994Z" fill="black" fill-opacity="0.85"/>
  <path d="M137.561 676.494L73.5609 565.494C63.8109 548.244 44.0609 552.244 38.0609 569.244L1.8109 663.994C-3.1891 676.744 2.8109 687.244 16.3109 689.494L116.311 705.494C134.061 708.744 147.561 693.494 137.561 676.494ZM201.061 829.494C207.561 840.244 221.311 843.744 231.561 837.994L1126.56 321.744C1136.81 315.994 1140.81 302.744 1134.81 292.244C1128.31 281.244 1114.56 277.744 1104.31 283.494L209.311 799.744C199.061 805.494 195.311 819.244 201.061 829.494Z" fill="black" fill-opacity="0.85"/>
 </g>
</svg>
