<?xml version="1.0" encoding="UTF-8"?>
<!--Generator: Apple Native CoreSVG 326-->
<!DOCTYPE svg
PUBLIC "-//W3C//DTD SVG 1.1//EN"
       "http://www.w3.org/Graphics/SVG/1.1/DTD/svg11.dtd">
<svg version="1.1" xmlns="http://www.w3.org/2000/svg" xmlns:xlink="http://www.w3.org/1999/xlink" viewBox="0 0 891.25 758.125">
 <g>
  <rect height="758.125" opacity="0" width="891.25" x="0" y="0"/>
  <path d="M356.75 503.688C362.5 549.188 386.75 587.188 432.75 587.188C478.238 587.188 500.377 551.937 502.533 507.806L544.512 549.768C529.858 598.65 492.691 632.188 431.75 632.188C345.5 632.188 311.5 554.688 311.5 508.938C311.5 494.438 319.5 483.438 333.25 483.438C343.5 483.438 354 488.938 356.75 503.688ZM787.75 163.938L890 598.938C890.75 601.438 891.25 604.688 891.25 607.188C891.25 620.688 880.5 630.438 867 630.438C853.5 630.438 844.75 623.188 841.75 609.438L815 491.188L683.5 491.188L676.394 522.831L636.341 482.779L711.5 164.188C716.25 142.938 727.25 129.688 749.25 129.688C770.75 129.688 782.75 143.688 787.75 163.938ZM624.281 629.505C616.494 627.464 610.767 622.085 608.797 614.027ZM175.284 180.688L164.25 180.688L164.25 600.688C164.25 616.688 156.5 629.188 139.25 629.188C122.75 629.188 114 617.688 114 600.688L114 180.688L24.75 180.688C10 180.688 0 172.938 0 158.188C0 143.938 10 135.938 24.75 135.938L130.516 135.938ZM748.75 195.688L692.5 448.188L805.75 448.188L749 195.688ZM543.5 246.438C543.5 259.688 535.25 269.938 522 269.938C510.5 269.938 500.5 263.938 498.5 250.188C492.25 207.188 470.5 172.688 428.5 172.688C398.125 172.688 378.857 190.736 370.304 216.742L334.435 180.873C353.171 148.348 385.694 127.688 428.5 127.688C507.75 127.688 543.5 200.938 543.5 246.438Z" fill="black" fill-opacity="0.85"/>
  <path d="M741 696.938C749.5 705.188 763 705.188 771.25 696.938C779.5 688.438 779.75 675.438 771.25 666.688L145.75 41.1875C137.25 32.9375 123.75 32.6875 115.25 41.1875C107.25 49.4375 107.25 63.4375 115.25 71.4375Z" fill="black" fill-opacity="0.85"/>
 </g>
</svg>
