<?xml version="1.0" encoding="UTF-8"?>
<!--Generator: Apple Native CoreSVG 326-->
<!DOCTYPE svg
PUBLIC "-//W3C//DTD SVG 1.1//EN"
       "http://www.w3.org/Graphics/SVG/1.1/DTD/svg11.dtd">
<svg version="1.1" xmlns="http://www.w3.org/2000/svg" xmlns:xlink="http://www.w3.org/1999/xlink" viewBox="0 0 651.25 651.75">
 <g>
  <rect height="651.75" opacity="0" width="651.25" x="0" y="0"/>
  <path d="M651.25 325.75C651.25 505 505 651.25 325.5 651.25C146.25 651.25 0 505 0 325.75C0 146.25 146.25 0 325.5 0C505 0 651.25 146.25 651.25 325.75ZM264.5 274.25C264.5 307.25 282.5 322.25 305.75 334.5L317 340.5C334.25 349.5 344.5 357.75 344.5 377.25C344.5 394.5 336.25 407.5 320 407.5C304.5 407.5 296.75 395.25 293.25 379.25C291.25 371.5 286.25 367.25 278 367.25C268.75 367.25 263.5 373.75 263.5 382.5C263.5 386 264 389.5 264.75 392.5C271.75 418.25 290.25 435 319.75 435C357.75 435 377.5 409.75 377.5 374.25C377.5 340.5 360.25 326 335.5 313.75L324 307.75C307.75 299.25 297 290.75 297 271.75C297 256.5 304.25 243.75 318.75 243.75C334 243.75 340.5 256 343.75 271C345.5 278 351.5 282.25 359.5 282.25C368.25 282.25 373.5 276 373.5 268.25C373.5 264 372.5 259.75 371 255.25C364.25 233 346 215.75 318.75 215.75C288 215.75 264.5 237.5 264.5 274.25ZM134.75 220.25C123.5 220.25 116.75 226 116.75 236.5C116.75 247.25 123.5 253 134.75 253L164 253L164 415.75C164 427 169.5 434 181 434C191.75 434 197.75 427 197.75 415.75L197.75 253L227 253C238.25 253 244.75 247.25 244.75 236.5C244.75 226.25 238.25 220.25 227 220.25ZM440.25 239L401.25 407.5C400.25 411 399.5 414.5 399.5 418C399.5 428.75 406.75 433.75 415.25 433.75C424.75 433.75 430.25 428.25 432 418.75L440.25 380.75L491.5 380.75L500 419C502.25 429.75 508.25 433.75 517 433.75C526 433.75 532.75 426.75 532.75 418C532.75 416 531.5 410 531 407.5L491.75 239C488.5 224.75 480.25 217.25 465.5 217.25C452 217.25 443.75 224.25 440.25 239ZM486.25 354.75L445 354.75L464.75 257.75L466 257.75Z" fill="black" fill-opacity="0.85"/>
 </g>
</svg>
