<?xml version="1.0" encoding="UTF-8"?>
<!--Generator: Apple Native CoreSVG 326-->
<!DOCTYPE svg
PUBLIC "-//W3C//DTD SVG 1.1//EN"
       "http://www.w3.org/Graphics/SVG/1.1/DTD/svg11.dtd">
<svg version="1.1" xmlns="http://www.w3.org/2000/svg" xmlns:xlink="http://www.w3.org/1999/xlink" viewBox="0 0 891.25 506.25">
 <g>
  <rect height="506.25" opacity="0" width="891.25" x="0" y="0"/>
  <path d="M24.75 54.75L253.25 54.75C267.75 54.75 277.75 47 277.75 32.25C277.75 18 267.75 10 253.25 10L24.75 10C10 10 0 18 0 32.25C0 47 10 54.75 24.75 54.75ZM139.25 503.25C156.5 503.25 164.25 490.75 164.25 474.75L164.25 34.25L114 34.25L114 474.75C114 491.75 122.75 503.25 139.25 503.25ZM431.75 506.25C512.75 506.25 551.75 447 551.75 371.25C551.75 299.25 520 265.5 456.5 232.25L432.5 219.75C392 198.25 365 173.75 365 125.75C365 82.5 385.75 46.75 428.5 46.75C470.5 46.75 492.25 81.25 498.5 124.25C500.5 138 510.5 144 522 144C535.25 144 543.5 133.75 543.5 120.5C543.5 75 507.75 1.75 428.5 1.75C358.5 1.75 316 57 316 128.75C316 198.5 351.25 234 411.25 265L435.25 277.75C479 300.75 502.75 325.5 502.75 374.5C502.75 422 480.75 461.25 432.75 461.25C386.75 461.25 362.5 423.25 356.75 377.75C354 363 343.5 357.5 333.25 357.5C319.5 357.5 311.5 368.5 311.5 383C311.5 428.75 345.5 506.25 431.75 506.25ZM631.75 504.5C645.75 504.5 654 497 657 483.25L683.5 365.25L815 365.25L841.75 483.5C844.75 497.25 853.5 504.5 867 504.5C880.5 504.5 891.25 494.75 891.25 481.25C891.25 478.75 890.75 475.5 890 473L787.75 38C782.75 17.75 770.75 3.75 749.25 3.75C727.25 3.75 716.25 17 711.5 38.25L610 468.5C609.25 472.5 608 478 608 481.5C608 496 618 504.5 631.75 504.5ZM692.5 322.25L748.75 69.75L749 69.75L805.75 322.25Z" fill="black" fill-opacity="0.85"/>
 </g>
</svg>
