<?xml version="1.0" encoding="UTF-8"?>
<!--Generator: Apple Native CoreSVG 326-->
<!DOCTYPE svg
PUBLIC "-//W3C//DTD SVG 1.1//EN"
       "http://www.w3.org/Graphics/SVG/1.1/DTD/svg11.dtd">
<svg version="1.1" xmlns="http://www.w3.org/2000/svg" xmlns:xlink="http://www.w3.org/1999/xlink" viewBox="0 0 816.5 815.75">
 <g>
  <rect height="815.75" opacity="0" width="816.5" x="0" y="0"/>
  <path d="M408 642C536.25 642 642.25 536 642.25 407.75C642.25 321.75 594.75 245.75 524.75 204.75L524.75 120.75C524.75 81.75 501.25 58.25 462.25 58.25L355.25 58.25C316.25 58.25 292.5 81.75 292.5 120.75L292.5 204.25C222 245 173.75 321.25 173.75 407.75C173.75 536 279.75 642 408 642ZM645.5 204L697 152.25C706 143.25 706 128 697 119C688 110 672.5 110 663.5 119L612 170.5C603 179.25 603 195 612 204C621 213 636.5 213 645.5 204ZM720 431.25L792.75 431.25C805.75 431.25 816.5 420.5 816.5 407.75C816.5 394.75 805.75 384 792.75 384L720 384C707.25 384 696.5 394.75 696.5 407.75C696.5 420.5 707.25 431.25 720 431.25ZM612 645L663.5 696.25C672.5 705.5 688 705.5 697 696.25C706 687.25 706 672 697 663L645.5 611.5C636.5 602.25 621 602.25 612 611.5C603 620.25 603 636 612 645ZM432.5 719.5C432.5 706.5 421.75 695.75 408.75 695.75C396 695.75 385.25 706.5 385.25 719.5L385.25 792.25C385.25 805 396 815.75 408.75 815.75C421.75 815.75 432.5 805 432.5 792.25ZM204.5 645C213.75 636 213.75 620.25 204.5 611.5C195.5 602.25 180 602.25 171 611.5L119.75 663C110.5 672 110.5 687.25 119.75 696.25C128.5 705.5 144 705.5 153 696.25ZM96.5 431.25C109.25 431.25 120 420.5 120 407.75C120 394.75 109.25 384 96.5 384L23.75 384C10.75 384 0 394.75 0 407.75C0 420.5 10.75 431.25 23.75 431.25ZM171 204C180 213 195.5 213 204.5 204C213.75 195 213.75 179.25 204.5 170.5L153 119C144 110 128.5 110 119.75 119C110.5 128 110.5 143.25 119.75 152.25Z" fill="black" fill-opacity="0.85"/>
 </g>
</svg>
