<?xml version="1.0" encoding="UTF-8"?>
<!--Generator: Apple Native CoreSVG 326-->
<!DOCTYPE svg
PUBLIC "-//W3C//DTD SVG 1.1//EN"
       "http://www.w3.org/Graphics/SVG/1.1/DTD/svg11.dtd">
<svg version="1.1" xmlns="http://www.w3.org/2000/svg" xmlns:xlink="http://www.w3.org/1999/xlink" viewBox="0 0 1136.25 512.75">
 <g>
  <rect height="512.75" opacity="0" width="1136.25" x="0" y="0"/>
  <path d="M98.25 443L144.25 443L144.25 398.5L98.25 398.5C61.5 398.5 44.25 379.75 44.25 339L44.25 298.5C44.25 249.25 80.75 212.75 143.5 205.25L273.25 189.5C293 187 304.5 182.75 317.5 174.75L436.75 99.75C507.75 55.25 555.5 44.5 676 44.5L722.5 44.5C809.75 44.5 877.25 75.75 961.25 149.25C975.25 161.5 982.75 164.5 999.75 170L1035.75 181.5C1074.75 194.25 1092 213.75 1092 249.75L1092 339C1092 379.75 1074.75 398.5 1037.75 398.5L991.25 398.5L991.25 443L1037.75 443C1105.25 443 1136.25 410.25 1136.25 339L1136.25 249.75C1136.25 191.75 1108.75 156.5 1048.75 136.75L997.25 119.5C928 60.5 843 0 722.5 0L676 0C547 0 490.5 13.25 413 62L282.25 143.75L137.75 161.5C52 172.25 0 225 0 298.5L0 340.5C0 410.75 31.5 443 98.25 443ZM314.5 443L825.25 443L825.25 398.5L314.5 398.5ZM232.25 512.25C294.25 512.25 342.75 463.75 342.75 401.75C342.75 339.75 294.25 291.5 232.25 291.5C170.25 291.5 122 339.75 122 401.75C122 463.75 170.25 512.25 232.25 512.25ZM232.25 470.5C194 470.5 163.75 440.25 163.75 401.75C163.75 363.5 194 333.25 232.25 333.25C270.75 333.25 301 363.5 301 401.75C301 440.25 270.75 470.5 232.25 470.5ZM904 512.25C965.75 512.25 1014.25 463.75 1014.25 401.75C1014.25 339.75 965.75 291.5 904 291.5C842 291.5 793.5 339.75 793.5 401.75C793.5 463.75 842 512.25 904 512.25ZM904 470.5C865.5 470.5 835.25 440.25 835.25 401.75C835.25 363.5 865.5 333.25 904 333.25C942.25 333.25 972.5 363.5 972.5 401.75C972.5 440.25 942.25 470.5 904 470.5Z" fill="black" fill-opacity="0.85"/>
  <path d="M580.5 338.25C640.25 338.25 697.75 320.5 744.5 288C752.25 282.5 754.25 273.25 749.25 265.75C743.75 258.5 734 257 726.5 262.5C687 291 635.25 307 580.5 307C526.5 307 474.75 291 435 262.5C427 257 417.5 258.25 412.25 265.75C407.25 272.75 409 282.5 416.75 288C463.25 320.5 520.75 338.25 580.5 338.25Z" fill="black" fill-opacity="0.85"/>
  <path d="M580.5 256.5C625.25 256.5 667.25 243.75 698.75 220C706.25 214.5 708 205.25 703 198C698.25 191 688.25 189 680.5 194.5C653.75 214 618.25 224.75 580.5 224.75C543 224.75 507.5 214 481 194.5C472.75 189 463.5 191 458.5 198C453.25 205.25 455 214.5 462.25 220C494.5 243.75 536.5 256.5 580.5 256.5Z" fill="black" fill-opacity="0.85"/>
  <path d="M580.5 175C607.25 175 634.25 166.5 653.75 152.5C660.75 147.5 662.75 137.75 657.75 130.5C652 122.5 642 121.25 633.75 127.5C620.5 137.5 601 143.25 580.5 143.25C561 143.25 541 137.5 527.5 127.5C519.5 121.5 509.5 122.75 503.75 130.5C498.75 137.75 500.25 147.5 507.75 152.5C526.5 166.5 553.5 175 580.5 175Z" fill="black" fill-opacity="0.85"/>
 </g>
</svg>
