<?xml version="1.0" encoding="UTF-8"?>
<!--Generator: Apple Native CoreSVG 326-->
<!DOCTYPE svg
PUBLIC "-//W3C//DTD SVG 1.1//EN"
       "http://www.w3.org/Graphics/SVG/1.1/DTD/svg11.dtd">
<svg version="1.1" xmlns="http://www.w3.org/2000/svg" xmlns:xlink="http://www.w3.org/1999/xlink" viewBox="0 0 927.572 650.25">
 <g>
  <rect height="650.25" opacity="0" width="927.572" x="0" y="0"/>
  <path d="M906.286 158.25C930.786 177.25 934.536 203.75 914.786 229L699.286 504.5C689.786 516.75 673.786 519.75 659.536 512.25C603.286 483.75 529.536 464.75 463.786 464.75C450.345 464.75 436.593 465.538 422.71 467.221L398.583 426.025C420.954 422.359 442.82 420.5 463.786 420.5C525.286 420.5 594.536 436.5 660.536 463.75C668.536 466.75 672.286 466.5 678.786 458.5L870.786 213C877.286 204.5 876.036 196.75 867.286 190.75C757.536 120.5 610.536 79.5 463.786 79.5C379.609 79.5 295.35 92.99 218.276 118.142L193.443 75.7393C274.259 50.6131 368.446 35.25 463.786 35.25C641.036 35.25 814.536 88.5 906.286 158.25ZM175.59 133.251C133.921 148.937 95.0991 168.357 60.0361 190.75C51.5361 196.75 50.2861 204.5 56.5361 213L248.536 458.5C255.036 466.5 259.036 466.75 267.036 463.75C295.251 452.101 324.059 442.508 352.584 435.493L375.654 474.888C337.222 483.037 299.867 496.122 268.036 512.25C253.536 519.75 237.786 516.75 228.036 504.5L12.5361 229C-6.9639 203.75-3.4639 177.25 21.2861 158.25C54.6646 132.806 98.9551 109.557 150.459 90.3354Z" fill="black" fill-opacity="0.85"/>
  <path d="M419.786 550.25L459.036 529.25L157.286 14C151.536 3.75 138.786-0.75 126.536 5.75C115.036 11.5 112.786 25.75 118.786 36.25ZM463.786 650.25C501.286 650.25 532.786 619.25 532.786 581.5C532.786 543.25 501.536 512.25 463.786 512.25C426.036 512.25 394.786 543.25 394.786 581.5C394.786 619.25 425.536 650.25 463.786 650.25ZM463.786 613.25C446.036 613.25 431.536 599 431.536 581.5C431.536 563.5 446.036 548.75 463.786 548.75C481.036 548.75 496.036 563.75 496.036 581.5C496.036 599 481.286 613.25 463.786 613.25Z" fill="black" fill-opacity="0.85"/>
 </g>
</svg>
