<?xml version="1.0" encoding="UTF-8"?>
<!--Generator: Apple Native CoreSVG 326-->
<!DOCTYPE svg
PUBLIC "-//W3C//DTD SVG 1.1//EN"
       "http://www.w3.org/Graphics/SVG/1.1/DTD/svg11.dtd">
<svg version="1.1" xmlns="http://www.w3.org/2000/svg" xmlns:xlink="http://www.w3.org/1999/xlink" viewBox="0 0 927.572 628.683">
 <g>
  <rect height="628.683" opacity="0" width="927.572" x="0" y="0"/>
  <path d="M906.286 270.466C930.786 289.716 934.536 316.216 914.786 341.216L699.286 616.966C689.786 629.216 673.786 631.966 659.536 624.716C603.286 595.966 529.536 577.216 463.786 577.216C397.786 577.216 324.286 595.966 268.036 624.716C253.536 631.966 238.036 629.216 228.036 616.966L12.5361 341.216C-6.9639 316.216-3.4639 289.716 21.2861 270.466C116.52 197.41 262.434 158.392 401.786 149.502L401.786 194.742C277.651 203.011 161.752 237.516 60.0361 302.966C51.5361 308.966 50.2861 316.966 56.5361 325.216L123.582 410.944C145.386 405.857 164.365 394.77 177.536 379.716C184.536 371.466 192.036 371.716 199.036 379.716C218.286 401.716 247.786 414.466 279.786 414.466C312.036 414.466 341.286 401.716 360.786 379.716C367.786 371.716 375.286 371.466 382.286 379.716C387.827 386.081 394.4 391.75 401.786 396.552L401.786 425.966C401.786 460.216 429.786 487.966 463.786 487.966C498.036 487.966 525.786 460.216 525.786 425.966L525.786 396.318C533.006 391.571 539.406 385.98 544.786 379.716C551.786 371.466 559.286 371.716 566.536 379.716C585.786 401.716 615.286 414.466 647.286 414.466C679.286 414.466 708.786 401.716 728.036 379.716C735.036 371.716 742.786 371.466 749.536 379.716C762.751 394.819 781.81 405.93 803.709 410.984L870.786 325.216C877.286 316.966 876.036 308.966 867.286 302.966C773.855 242.258 653.173 204.165 525.786 194.933L525.786 149.476C666.115 158.36 811.598 197.545 906.286 270.466Z" fill="black" fill-opacity="0.85"/>
  <path d="M463.786 448.216C475.786 448.216 485.786 438.216 485.786 425.966L485.786 343.716C485.786 331.466 475.786 321.466 463.786 321.466C451.536 321.466 441.536 331.466 441.536 343.716L441.536 425.966C441.536 438.216 451.536 448.216 463.786 448.216ZM463.786 273.466C475.786 273.466 485.786 263.466 485.786 251.216L485.786 168.966C485.786 156.716 475.786 146.716 463.786 146.716C451.536 146.716 441.536 156.716 441.536 168.966L441.536 251.216C441.536 263.466 451.536 273.466 463.786 273.466ZM112.036 97.2163C122.286 103.466 134.286 100.716 142.536 90.9663C160.536 68.7163 183.536 52.2163 209.536 43.4663C221.536 38.9663 229.036 28.7163 226.536 16.7163C223.536 2.96633 210.286-3.53367 193.786 1.96633C161.036 12.7163 130.536 34.7163 107.286 63.7163C97.2861 75.9663 100.786 90.4663 112.036 97.2163ZM425.036 96.7163C436.286 89.9663 439.036 75.7163 429.286 63.4663C406.036 34.4663 375.286 12.7163 343.036 2.21633C325.536-3.78367 312.786 3.96633 310.286 17.2163C308.286 28.9663 315.036 38.9663 327.036 43.4663C352.786 52.2163 375.786 68.7163 393.786 90.7163C402.786 101.216 414.536 102.966 425.036 96.7163ZM502.286 96.7163C513.036 102.966 524.536 101.216 533.536 90.7163C551.536 68.7163 574.536 52.2163 600.286 43.4663C612.286 38.9663 619.036 28.9663 617.036 17.2163C614.786 3.96633 601.786-3.78367 584.286 2.21633C552.286 12.7163 521.286 34.4663 498.036 63.4663C488.536 75.7163 491.286 89.9663 502.286 96.7163ZM815.536 97.2163C826.536 90.4663 830.036 75.9663 820.286 63.7163C797.036 34.7163 766.286 12.7163 733.786 1.96633C717.286-3.53367 703.786 2.96633 701.036 16.7163C698.286 28.7163 705.786 38.9663 717.786 43.4663C743.786 52.2163 766.786 68.7163 785.036 90.9663C793.286 100.716 805.036 103.466 815.536 97.2163Z" fill="black" fill-opacity="0.85"/>
 </g>
</svg>
