<?xml version="1.0" encoding="UTF-8"?>
<!--Generator: Apple Native CoreSVG 326-->
<!DOCTYPE svg
PUBLIC "-//W3C//DTD SVG 1.1//EN"
       "http://www.w3.org/Graphics/SVG/1.1/DTD/svg11.dtd">
<svg version="1.1" xmlns="http://www.w3.org/2000/svg" xmlns:xlink="http://www.w3.org/1999/xlink" viewBox="0 0 962.5 651.25">
 <g>
  <rect height="651.25" opacity="0" width="962.5" x="0" y="0"/>
  <path d="M962.5 499.5C962.5 519.25 945 536.25 924.25 536.25C903.75 536.25 886.25 519.25 886.25 499.5C886.25 479 903.25 462.5 924.25 462.5C945.25 462.5 962.5 479 962.5 499.5ZM953.25 143.25L947.75 373.5C947.25 387.25 937.75 397 924.25 397C911 397 901.5 387.25 901 373.5L895.5 143.25C895 125.75 906.5 114.25 924.25 114.25C942.25 114.25 953.75 125.75 953.25 143.25Z" fill="black" fill-opacity="0.85"/>
  <path d="M80.241 95.2012C56.7823 100.809 44.25 118.465 44.25 147.5L44.25 383.75C44.25 419.5 63.25 438 98.25 438L281.054 438L306.976 482.25L97.25 482.25C32.75 482.25 0 450 0 386L0 145.25C0 96.617 18.9109 66.1732 56.3439 54.4077ZM784.25 145.25L784.25 386C784.25 449.75 751.75 482.25 687 482.25L358.526 482.25L332.603 438L686.25 438C720.25 438 740 419.5 740 383.75L740 147.5C740 111.75 720.25 93.25 686.25 93.25L130.635 93.25L104.565 48.75L687 48.75C751.75 48.75 784.25 81.5 784.25 145.25Z" fill="black" fill-opacity="0.85"/>
  <path d="M391.25 651.25C428.75 651.25 460.25 620 460.25 582.25C460.25 544 429 513 391.25 513C353.5 513 322.25 544 322.25 582.25C322.25 620 353 651.25 391.25 651.25ZM391.25 614C373.5 614 359 599.75 359 582.25C359 564.25 373.5 549.5 391.25 549.5C408.5 549.5 423.5 564.5 423.5 582.25C423.5 599.75 408.75 614 391.25 614ZM347.25 551L386.5 530L84.5 14.5C78.75 4.25 66.25-0.25 53.75 6.25C42.25 12 40 26.25 46 36.75Z" fill="black" fill-opacity="0.85"/>
 </g>
</svg>
