<?xml version="1.0" encoding="UTF-8"?>
<!--Generator: Apple Native CoreSVG 326-->
<!DOCTYPE svg
PUBLIC "-//W3C//DTD SVG 1.1//EN"
       "http://www.w3.org/Graphics/SVG/1.1/DTD/svg11.dtd">
<svg version="1.1" xmlns="http://www.w3.org/2000/svg" xmlns:xlink="http://www.w3.org/1999/xlink" viewBox="0 0 784.25 790.75">
 <g>
  <rect height="790.75" opacity="0" width="784.25" x="0" y="0"/>
  <path d="M80.241 164.951C56.7823 170.559 44.25 188.215 44.25 217.25L44.25 453.5C44.25 489.25 63.25 507.75 98.25 507.75L281.054 507.75L306.976 552L97.25 552C32.75 552 0 519.75 0 455.75L0 215C0 166.367 18.9109 135.923 56.3439 124.158ZM784.25 215L784.25 455.75C784.25 519.5 751.75 552 687 552L358.526 552L332.603 507.75L686.25 507.75C720.25 507.75 740 489.25 740 453.5L740 217.25C740 181.5 720.25 163 686.25 163L663.657 163C662.646 160.725 661.676 158.567 660.75 156.5C655.172 144.452 648.621 131.629 641.428 118.5L687 118.5C751.75 118.5 784.25 151.25 784.25 215ZM433.315 118.5C426.129 131.629 419.578 144.452 414 156.5C413.074 158.567 412.104 160.725 411.093 163L130.635 163L104.565 118.5Z" fill="black" fill-opacity="0.85"/>
  <path d="M553.75 50.25C578.75 88.5 606.75 134.75 624.25 173C635.5 197.25 648.25 226.25 648.25 257.5C648.25 322 603.75 365 537.25 365C471 365 426.25 322 426.25 257.5C426.25 226.25 439.25 197.25 450.5 173C468 134.75 495.75 88.5 520.75 50.25C526 43 531 39.75 537.25 39.75C543.75 39.75 548.75 43 553.75 50.25Z" fill="black" fill-opacity="0.85"/>
  <path d="M391.25 721C428.75 721 460.25 689.75 460.25 652C460.25 613.75 429 582.75 391.25 582.75C353.5 582.75 322.25 613.75 322.25 652C322.25 689.75 353 721 391.25 721ZM391.25 683.75C373.5 683.75 359 669.5 359 652C359 634 373.5 619.25 391.25 619.25C408.5 619.25 423.5 634.25 423.5 652C423.5 669.5 408.75 683.75 391.25 683.75ZM347.25 620.75L386.5 599.75L84.5 84.25C78.75 74 66.25 69.5 53.75 76C42.25 81.75 40 96 46 106.5Z" fill="black" fill-opacity="0.85"/>
 </g>
</svg>
