<?xml version="1.0" encoding="UTF-8"?>
<!--Generator: Apple Native CoreSVG 326-->
<!DOCTYPE svg
PUBLIC "-//W3C//DTD SVG 1.1//EN"
       "http://www.w3.org/Graphics/SVG/1.1/DTD/svg11.dtd">
<svg version="1.1" xmlns="http://www.w3.org/2000/svg" xmlns:xlink="http://www.w3.org/1999/xlink" viewBox="0 0 927.322 689.75">
 <g>
  <rect height="689.75" opacity="0" width="927.322" x="0" y="0"/>
  <path d="M906.036 123C930.786 142 934.286 168.75 914.786 193.75L710.838 454.987C712.403 446.817 713.286 438.109 713.286 428.75C713.286 413.143 710.476 400.275 706.163 388.7L870.786 177.75C877.036 169.5 876.036 161.5 867.286 155.5C757.536 85.25 610.536 44.25 463.786 44.25C316.786 44.25 169.786 85.25 60.0361 155.5C51.2861 161.5 50.2861 169.5 56.5361 177.75L257.036 434.5C262.036 441 266.036 441.5 272.536 438.5C285.246 433.039 298.182 428.021 311.231 423.625C311.477 425.222 311.536 426.962 311.536 428.75C311.536 445.751 307.825 460.267 302.317 473.717C292.543 477.673 283.449 481.986 275.036 486.5C260.536 494.25 244.536 491.25 235.036 478.75L12.5361 193.75C-6.9639 168.75-3.4639 142 21.2861 123C112.786 53.25 286.286 0 463.786 0C641.036 0 814.536 53.25 906.036 123ZM653.536 438C661.286 441.5 665.536 440.75 671.786 432.75L676.421 426.811C676.528 427.404 676.536 428.074 676.536 428.75C676.536 452.584 669.243 471.534 660.056 489.587C657.448 488.9 654.844 487.867 652.286 486.5C618.449 468.344 573.714 453.456 529.688 445.588C530.437 440.265 530.786 434.636 530.786 428.75C530.786 418.219 529.506 408.934 527.267 400.528C568.694 407.35 612.604 420.388 653.536 438ZM486.341 395.553C490.957 405.453 494.036 415.87 494.036 428.75C494.036 432.829 493.822 436.766 493.414 440.573C483.221 439.488 473.317 439 463.786 439C426.867 439 384.269 446.326 345.079 458.287C347.137 449.205 348.286 439.398 348.286 428.75C348.286 422.871 347.887 417.381 347.047 412.309C387.811 400.991 428.151 394.75 463.786 394.75C471.11 394.75 478.639 395.016 486.341 395.553Z" fill="black" fill-opacity="0.85"/>
  <path d="M213.786 249.25C207.286 259 212.786 272.25 226.036 272.25L336.036 272.25C349.536 272.25 355.036 259 348.536 249.25L295.036 169.25C291.286 163.75 287.036 161.25 281.036 161.25C275.286 161.25 271.036 163.75 267.286 169.25ZM316.536 648.25C300.786 627.5 295.036 614.25 295.036 590.75C295.036 534.75 348.286 501.25 348.286 428.75C348.286 363.75 299.536 346.25 299.536 269.25L299.536 255.25L262.786 255.25L262.786 269.25C262.786 365.25 311.536 377.5 311.536 428.75C311.536 493 258.536 521.75 258.536 593.25C258.536 624 268.036 646 287.036 670C302.286 689.5 332.536 669.75 316.536 648.25ZM396.286 249.25C389.786 259 395.286 272.25 408.786 272.25L518.536 272.25C532.036 272.25 537.536 259 531.036 249.25L477.536 169.25C473.786 163.75 469.536 161.25 463.786 161.25C457.786 161.25 453.536 163.75 449.786 169.25ZM499.036 648.25C483.286 627.5 477.786 614.25 477.786 590.75C477.786 534.75 530.786 501.25 530.786 428.75C530.786 363.75 482.036 346.25 482.036 269.25L482.036 255.25L445.286 255.25L445.286 269.25C445.286 365.25 494.036 377.5 494.036 428.75C494.036 493 441.036 521.75 441.036 593.25C441.036 624 450.536 646 469.536 670C484.786 689.5 515.286 669.75 499.036 648.25ZM578.786 249.25C572.286 259 577.786 272.25 591.286 272.25L701.286 272.25C714.536 272.25 720.036 259 713.536 249.25L660.036 169.25C656.286 163.75 652.036 161.25 646.286 161.25C640.286 161.25 636.036 163.75 632.286 169.25ZM681.536 648.25C665.786 627.5 660.286 614.25 660.286 590.75C660.286 534.75 713.286 501.25 713.286 428.75C713.286 363.75 664.536 346.25 664.536 269.25L664.536 255.25L627.786 255.25L627.786 269.25C627.786 365.25 676.536 377.5 676.536 428.75C676.536 493 623.536 521.75 623.536 593.25C623.536 624 633.286 646 652.036 670C667.286 689.5 697.786 669.75 681.536 648.25Z" fill="black" fill-opacity="0.85"/>
 </g>
</svg>
