<?xml version="1.0" encoding="UTF-8"?>
<!--Generator: Apple Native CoreSVG 326-->
<!DOCTYPE svg
PUBLIC "-//W3C//DTD SVG 1.1//EN"
       "http://www.w3.org/Graphics/SVG/1.1/DTD/svg11.dtd">
<svg version="1.1" xmlns="http://www.w3.org/2000/svg" xmlns:xlink="http://www.w3.org/1999/xlink" viewBox="0 0 784.25 670.25">
 <g>
  <rect height="670.25" opacity="0" width="784.25" x="0" y="0"/>
  <path d="M784.25 96.5L784.25 340.25C784.25 404 751.75 436.75 687 436.75L635.101 436.75C639.187 424 641.75 409.943 641.75 394C641.75 393.477 641.747 392.958 641.68 392.5L686.25 392.5C720.25 392.5 740 374 740 338L740 98.75C740 62.75 720.25 44.25 686.25 44.25L98.25 44.25C63.25 44.25 44.25 62.75 44.25 98.75L44.25 338C44.25 374 63.25 392.5 98.25 392.5L239.911 392.5C239.995 392.958 240 393.477 240 394C240 410.061 236.688 423.904 231.72 436.75L97.25 436.75C32.75 436.75 0 404.25 0 340.25L0 96.5C0 32.5 32.75 0 97.25 0L687 0C751.75 0 784.25 32.75 784.25 96.5ZM422.5 394C422.5 410.061 419.188 423.904 414.22 436.75L270.101 436.75C274.187 424 276.75 409.943 276.75 394C276.75 393.477 276.747 392.958 276.68 392.5L422.411 392.5ZM605 394C605 410.061 601.688 423.904 596.72 436.75L452.601 436.75C456.687 424 459.25 409.943 459.25 394C459.25 393.477 459.247 392.958 459.18 392.5L604.911 392.5Z" fill="black" fill-opacity="0.85"/>
  <path d="M142.25 214.5C135.75 224.25 141.25 237.5 154.75 237.5L264.5 237.5C278 237.5 283.5 224.25 277 214.5L223.5 134.5C219.75 129 215.5 126.5 209.75 126.5C203.75 126.5 199.5 129 195.75 134.5ZM245 613.75C229.25 592.75 223.75 579.5 223.75 556C223.75 500 276.75 466.5 276.75 394C276.75 329 228 311.5 228 234.5L228 220.75L191.25 220.75L191.25 234.5C191.25 330.5 240 342.75 240 394C240 458.25 187 487 187 558.5C187 589.25 196.5 611.5 215.5 635.5C230.75 654.75 261.25 635 245 613.75ZM324.75 214.5C318.25 224.25 323.75 237.5 337.25 237.5L447.25 237.5C460.5 237.5 466 224.25 459.5 214.5L406 134.5C402.25 129 398 126.5 392.25 126.5C386.25 126.5 382 129 378.25 134.5ZM427.5 613.75C411.75 592.75 406.25 579.5 406.25 556C406.25 500 459.25 466.5 459.25 394C459.25 329 410.5 311.5 410.5 234.5L410.5 220.75L373.75 220.75L373.75 234.5C373.75 330.5 422.5 342.75 422.5 394C422.5 458.25 369.5 487 369.5 558.5C369.5 589.25 379.25 611.5 398 635.5C413.25 654.75 443.75 635 427.5 613.75ZM507.25 214.5C500.75 224.25 506.5 237.5 519.75 237.5L629.75 237.5C643 237.5 648.5 224.25 642 214.5L588.5 134.5C585 129 580.5 126.5 574.75 126.5C569 126.5 564.5 129 560.75 134.5ZM610 613.75C594.25 592.75 588.75 579.5 588.75 556C588.75 500 641.75 466.5 641.75 394C641.75 329 593 311.5 593 234.5L593 220.75L556.25 220.75L556.25 234.5C556.25 330.5 605 342.75 605 394C605 458.25 552 487 552 558.5C552 589.25 561.75 611.5 580.5 635.5C595.75 654.75 626.25 635 610 613.75Z" fill="black" fill-opacity="0.85"/>
 </g>
</svg>
