<?xml version="1.0" encoding="UTF-8"?>
<!--Generator: Apple Native CoreSVG 326-->
<!DOCTYPE svg
PUBLIC "-//W3C//DTD SVG 1.1//EN"
       "http://www.w3.org/Graphics/SVG/1.1/DTD/svg11.dtd">
<svg version="1.1" xmlns="http://www.w3.org/2000/svg" xmlns:xlink="http://www.w3.org/1999/xlink" viewBox="0 0 762.25 755.25">
 <g>
  <rect height="755.25" opacity="0" width="762.25" x="0" y="0"/>
  <path d="M81.4114 220.673C57.3969 225.364 44.75 242.372 44.75 271.5L44.75 492.25C44.75 527 62.75 544.5 96.5 544.5L271.037 544.5L296.949 588.75L95.5 588.75C32.75 588.75 0.5 557.25 0.5 494.75L0.5 269C0.5 221.069 19.7741 191.068 57.5981 180.006ZM762.25 269L762.25 494.75C762.25 556.75 730.25 588.75 667.25 588.75L348.681 588.75L322.749 544.5L666.5 544.5C699.5 544.5 718 527 718 492.25L718 271.5C718 236.75 699.5 219.25 666.5 219.25L132.142 219.25L106.21 175L667.25 175C730.25 175 762.25 207.25 762.25 269Z" fill="black" fill-opacity="0.85"/>
  <path d="M206.5 22.25C206.5 34.25 196.5 44.25 184.25 44.25L22.25 44.25C10 44.25 0 34.25 0 22.25C0 10 10 0 22.25 0L184.25 0C196.5 0 206.5 10 206.5 22.25ZM484.25 22.25C484.25 34.25 474.25 44.25 462.25 44.25L300 44.25C287.75 44.25 277.75 34.25 277.75 22.25C277.75 10 287.75 0 300 0L462.25 0C474.25 0 484.25 10 484.25 22.25ZM762.25 22.25C762.25 34.25 752.25 44.25 740.25 44.25L578 44.25C565.75 44.25 555.75 34.25 555.75 22.25C555.75 10 565.75 0 578 0L740.25 0C752.25 0 762.25 10 762.25 22.25Z" fill="black" fill-opacity="0.85"/>
  <path d="M380.25 754.75C417 754.75 448 724 448 687C448 650 417.25 619.25 380.25 619.25C343.5 619.25 312.75 650 312.75 687C312.75 724.25 343 754.75 380.25 754.75ZM380.25 717.25C363.5 717.25 350.25 703.75 350.25 687C350.25 670.25 363.5 656.5 380.25 656.5C397 656.5 411 670.5 411 687C411 703.75 397 717.25 380.25 717.25ZM337.5 658L377.25 637.5L87.75 143.5C81.75 133.5 69.5 129.25 57 135.25C45.5 141.5 43.25 155.5 49.25 165.75Z" fill="black" fill-opacity="0.85"/>
 </g>
</svg>
