<?xml version="1.0" encoding="UTF-8"?>
<!--Generator: Apple Native CoreSVG 326-->
<!DOCTYPE svg
PUBLIC "-//W3C//DTD SVG 1.1//EN"
       "http://www.w3.org/Graphics/SVG/1.1/DTD/svg11.dtd">
<svg version="1.1" xmlns="http://www.w3.org/2000/svg" xmlns:xlink="http://www.w3.org/1999/xlink" viewBox="0 0 902.007 743.75">
 <g>
  <rect height="743.75" opacity="0" width="902.007" x="0" y="0"/>
  <path d="M880.754 259.25C905.254 278 909.004 304.75 889.754 329.5L681.004 596.25C671.004 609 654.754 612 640.254 604.25C585.504 576.75 515.004 558.5 451.004 558.5C437.858 558.5 424.438 559.27 410.916 560.91L385.9 518.267C408.23 514.606 430.073 512.75 451.004 512.75C511.004 512.75 578.504 528 642.754 554.75C649.754 557.5 652.504 557.75 658.254 550.25L844.754 312.25C850.504 304.5 849.504 298.25 841.504 293C733.254 223.25 587.754 184 451.004 184C371.358 184 288.745 197.314 212.435 222.574L187.023 179.257C266.206 154.391 358.421 139.25 451.004 139.25C621.754 139.25 791.254 190.75 880.754 259.25ZM169.854 237.952C130.595 252.99 93.7886 271.553 60.5037 293C52.7537 298.25 51.5037 304.5 57.2537 312.25L243.754 550.25C249.504 557.75 252.254 557.5 259.254 554.75C285.799 543.698 312.898 534.61 339.781 527.878L363.716 568.716C327.421 576.576 292.249 588.989 262.004 604.25C247.254 612 231.004 609 221.004 596.25L12.2537 329.5C-6.99627 304.75-3.24627 278 21.2537 259.25C53.1818 234.813 95.2908 212.54 144.133 194.067Z" fill="black" fill-opacity="0.85"/>
  <path d="M274.254 22.25C274.254 34.25 264.254 44.25 252.004 44.25L73.2537 44.25C61.2537 44.25 51.2537 34.25 51.2537 22.25C51.2537 10 61.2537 0 73.2537 0L252.004 0C264.254 0 274.254 10 274.254 22.25ZM562.504 22.25C562.504 34.25 552.504 44.25 540.254 44.25L361.504 44.25C349.504 44.25 339.504 34.25 339.504 22.25C339.504 10 349.504 0 361.504 0L540.254 0C552.504 0 562.504 10 562.504 22.25ZM850.754 22.25C850.754 34.25 840.754 44.25 828.504 44.25L649.754 44.25C637.754 44.25 627.754 34.25 627.754 22.25C627.754 10 637.754 0 649.754 0L828.504 0C840.754 0 850.754 10 850.754 22.25Z" fill="black" fill-opacity="0.85"/>
  <path d="M451.254 743.25C488.754 743.25 520.254 712 520.254 674.25C520.254 636.25 489.004 605 451.254 605C413.504 605 382.254 636.25 382.254 674.25C382.254 712.25 413.004 743.25 451.254 743.25ZM451.254 706C433.504 706 419.254 691.75 419.254 674.25C419.254 656.5 433.504 641.75 451.254 641.75C468.754 641.75 483.504 656.75 483.504 674.25C483.504 691.75 468.754 706 451.254 706ZM407.254 643L446.754 622L154.754 124.25C149.004 114 136.254 109.75 123.754 116.25C112.504 122 110.004 136 116.254 146.5Z" fill="black" fill-opacity="0.85"/>
 </g>
</svg>
