<?xml version="1.0" encoding="UTF-8"?>
<!--Generator: Apple Native CoreSVG 326-->
<!DOCTYPE svg
PUBLIC "-//W3C//DTD SVG 1.1//EN"
       "http://www.w3.org/Graphics/SVG/1.1/DTD/svg11.dtd">
<svg version="1.1" xmlns="http://www.w3.org/2000/svg" xmlns:xlink="http://www.w3.org/1999/xlink" viewBox="0 0 673 616.25">
 <g>
  <rect height="616.25" opacity="0" width="673" x="0" y="0"/>
  <path d="M83.5 0C31.5 0 0 36.75 0 83C0 97.75 4 113.25 12.5 127.75L265.25 569.75C281 597.5 308.5 611 336.5 611C364.25 611 392 597.5 407.75 569.75L660.5 127.75C668.75 113.5 673 97.75 673 83C673 36.75 641.5 0 589.25 0ZM84 43.5L588.5 43.5C613.25 43.5 628.25 62.25 628.25 83.25C628.25 90.75 626.25 99 622 107L369.5 548.75C362.25 562 349.25 567.25 336.5 567.25C323.75 567.25 310.5 562 303 548.75L50.75 107.25C46.5 99.25 44.5 90.75 44.5 83.25C44.5 62.25 59.25 43.5 84 43.5Z" fill="black" fill-opacity="0.85"/>
  <path d="M123.25 89.75C109.75 89.75 101.75 102.5 109 115L322 488.25C328.75 500.75 343.75 500.75 351 488.25L563.75 115C570.75 102.75 563 89.75 549.5 89.75Z" fill="black" fill-opacity="0.85"/>
 </g>
</svg>
