<?xml version="1.0" encoding="UTF-8"?>
<!--Generator: Apple Native CoreSVG 326-->
<!DOCTYPE svg
PUBLIC "-//W3C//DTD SVG 1.1//EN"
       "http://www.w3.org/Graphics/SVG/1.1/DTD/svg11.dtd">
<svg version="1.1" xmlns="http://www.w3.org/2000/svg" xmlns:xlink="http://www.w3.org/1999/xlink" viewBox="0 0 673 616.25">
 <g>
  <rect height="616.25" opacity="0" width="673" x="0" y="0"/>
  <path d="M673 83C673 97.75 668.75 113.25 660.5 127.75L407.75 569.75C392 597.25 364.25 611 336.5 611C308.5 611 281 597.25 265.25 569.75L12.5 127.75C4 113 0 97.75 0 83C0 36.5 31.5 0 83.5 0L589.25 0C641.5 0 673 36.5 673 83ZM118.25 85C104.75 85 96.75 98 104 111L321.75 492.5C328.5 505 344 505 351.25 492.5L568.75 111C575.75 98.25 568 85 554.25 85Z" fill="black" fill-opacity="0.85"/>
 </g>
</svg>
