<?xml version="1.0" encoding="UTF-8"?>
<!--Generator: Apple Native CoreSVG 326-->
<!DOCTYPE svg
PUBLIC "-//W3C//DTD SVG 1.1//EN"
       "http://www.w3.org/Graphics/SVG/1.1/DTD/svg11.dtd">
<svg version="1.1" xmlns="http://www.w3.org/2000/svg" xmlns:xlink="http://www.w3.org/1999/xlink" viewBox="0 0 1137.25 716.75">
 <g>
  <rect height="716.75" opacity="0" width="1137.25" x="0" y="0"/>
  <path d="M118.75 575C127.25 565 124.5 552 114.75 541C70.25 492.5 44.75 428.75 44.75 358.25C44.75 287.5 70.25 223.75 114.75 175.25C124.5 164.25 127.25 151.25 118.75 141.5C109.75 131.25 94.5 131.25 84 142.75C30.5 199.75 0 275.5 0 358.25C0 440.75 30.5 516.75 84 573.5C94.5 585 109.75 585.25 118.75 575ZM1018.5 575C1027.25 585.25 1042.75 585 1053.25 573.5C1106.5 516.75 1137.25 440.75 1137.25 358.25C1137.25 275.5 1106.5 199.75 1053.25 142.75C1042.75 131.25 1027.25 131.25 1018.5 141.5C1009.75 151.25 1012.5 164.25 1022.5 175.25C1067 223.75 1092.25 287.5 1092.25 358.25C1092.25 428.75 1067 492.5 1022.5 541C1012.5 552 1009.75 565 1018.5 575Z" fill="black" fill-opacity="0.85"/>
  <path d="M208 484C216.75 474 213 461.5 204.25 450C183 425.75 172.75 393.25 172.75 358.25C172.75 323.25 183 290.5 204.25 266.25C213 254.75 216.75 242.25 208 232.5C198.75 222.25 182.5 222 172.75 234.25C144.25 268 128 311.5 128 358.25C128 405 144.25 448.25 172.75 482C182.5 494.25 198.75 494.25 208 484ZM929.25 484C938.25 494.25 954.75 494.25 964.5 482C992.75 448.25 1009.25 405 1009.25 358.25C1009.25 311.5 992.75 268 964.5 234.25C954.75 222 938.25 222.25 929.25 232.5C920.5 242.25 924 254.75 932.75 266.25C954 290.5 964.5 323.25 964.5 358.25C964.5 393.25 954 425.75 932.75 450C924 461.5 920.5 474 929.25 484Z" fill="black" fill-opacity="0.85"/>
  <path d="M568.5 664C737.75 664 874.75 526.75 874.75 357.75C874.75 189 737.75 51.5 568.5 51.5C399.75 51.5 262.25 189 262.25 357.75C262.25 526.75 399.75 664 568.5 664ZM568.5 617.25C425.5 617.25 309.25 501.25 309.25 357.75C309.25 215 425.5 98.75 568.5 98.75C711.5 98.75 827.5 215 827.5 357.75C827.5 501.25 711.5 617.25 568.5 617.25ZM310.5 130.25C315.25 130.25 318.75 129.5 323.25 126L428.75 48C434.25 44 436.75 39.25 436.75 33.75C436.75 27 433.75 21.75 428 16.5C415.75 5.5 394.75 0 375.75 0C326.25 0 287.25 39 287.25 87.75C287.25 98.75 289.25 110.25 292.5 117.5C295.75 125.25 302.25 130.25 310.5 130.25ZM826.75 130.25C834.75 130.25 841 125 844.75 117.5C848 110.5 849.75 98.75 849.75 87.75C849.75 39 811 0 761.25 0C742.25 0 721.25 5.5 709 16.5C703.5 21.75 700.25 27 700.25 33.75C700.25 39.25 703 44 708.25 48L814 126C818.5 129.5 821.75 130.25 826.75 130.25ZM303.5 655.25C311.75 663.5 325.25 663.5 333.75 655L393.75 594.75L364.25 565.25L303.75 625.5C295.25 633.75 295.5 647 303.5 655.25ZM833.75 655.25C841.75 647 841.75 633.75 833.5 625.5L772.75 565.25L743.25 594.75L803.25 655C812 663.5 825.25 663.5 833.75 655.25ZM415.5 391L568.25 391C579.25 391 587.75 382.5 587.75 371.5L587.75 168.25C587.75 157.5 579.25 149.25 568.25 149.25C557.5 149.25 549 157.5 549 168.25L549 352.25L415.5 352.25C404.5 352.25 396.25 360.75 396.25 371.5C396.25 382.5 404.5 391 415.5 391Z" fill="black" fill-opacity="0.85"/>
 </g>
</svg>
