<?xml version="1.0" encoding="UTF-8"?>
<!--Generator: Apple Native CoreSVG 326-->
<!DOCTYPE svg
PUBLIC "-//W3C//DTD SVG 1.1//EN"
       "http://www.w3.org/Graphics/SVG/1.1/DTD/svg11.dtd">
<svg version="1.1" xmlns="http://www.w3.org/2000/svg" xmlns:xlink="http://www.w3.org/1999/xlink" viewBox="0 0 612.5 718.25">
 <g>
  <rect height="718.25" opacity="0" width="612.5" x="0" y="0"/>
  <path d="M306.25 664C475.25 664 612.5 526.75 612.5 357.75C612.5 188.75 475.25 51.5 306.25 51.5C137.25 51.5 0 188.75 0 357.75C0 526.75 137.25 664 306.25 664ZM153.25 390.75C142.25 390.75 133.75 382.25 133.75 371.25C133.75 360.5 142.25 352 153.25 352L286.75 352L286.75 168.25C286.75 157.5 295.25 149 306 149C317 149 325.5 157.5 325.5 168.25L325.5 371.25C325.5 382.25 317 390.75 306 390.75ZM48 130.25C53 130.25 56.25 129.5 60.75 126L166.5 48C171.75 44 174.5 39 174.5 33.75C174.5 27 171.25 21.5 165.75 16.5C153.5 5.5 132.5 0 113.5 0C63.75 0 25 38.75 25 87.5C25 98.75 26.75 110.25 30 117.5C33.5 125.25 40 130.25 48 130.25ZM564.25 130.25C572.5 130.25 578.75 125 582.25 117.5C585.75 110.5 587.5 98.75 587.5 87.5C587.5 38.75 548.5 0 499 0C480 0 459 5.5 446.75 16.5C441 21.5 438 27 438 33.75C438 39 440.75 44 446 48L551.5 126C556 129.5 559.5 130.25 564.25 130.25ZM41.25 655C49.5 663.5 62.75 663.5 71.5 654.75L131.5 594.75L102 565.25L41.5 625.5C33 633.75 33 647 41.25 655ZM571.25 655C579.5 647 579.5 633.75 571 625.5L510.5 565.25L481 594.75L541 654.75C549.5 663.5 563 663.5 571.25 655Z" fill="black" fill-opacity="0.85"/>
 </g>
</svg>
