<?xml version="1.0" encoding="UTF-8"?>
<!--Generator: Apple Native CoreSVG 326-->
<!DOCTYPE svg
PUBLIC "-//W3C//DTD SVG 1.1//EN"
       "http://www.w3.org/Graphics/SVG/1.1/DTD/svg11.dtd">
<svg version="1.1" xmlns="http://www.w3.org/2000/svg" xmlns:xlink="http://www.w3.org/1999/xlink" viewBox="0 0 775.329 651.75">
 <g>
  <rect height="651.75" opacity="0" width="775.329" x="0" y="0"/>
  <path d="M387.664 651.25C498.164 651.25 596.914 595.25 655.164 509.5C664.164 497.25 660.914 482 649.914 475.5C638.414 468.5 625.414 472 617.164 483.25C568.164 556.25 483.164 604.75 387.664 604.75C233.414 604.75 108.664 480 108.664 325.75C108.664 171.5 233.414 46.75 387.664 46.75C541.914 46.75 666.664 171.5 666.664 325.75L713.164 325.75C713.164 146 567.414 0 387.664 0C207.914 0 62.1644 146 62.1644 325.75C62.1644 505.5 207.914 651.25 387.664 651.25ZM754.914 265.25L609.414 265.25C589.164 265.25 583.414 279.25 594.914 295.25L665.914 396.5C675.164 410 688.914 410.25 698.414 396.5L769.414 295.5C780.914 279.25 775.414 265.25 754.914 265.25Z" fill="black" fill-opacity="0.85"/>
 </g>
</svg>
