<?xml version="1.0" encoding="UTF-8"?>
<!--Generator: Apple Native CoreSVG 326-->
<!DOCTYPE svg
PUBLIC "-//W3C//DTD SVG 1.1//EN"
       "http://www.w3.org/Graphics/SVG/1.1/DTD/svg11.dtd">
<svg version="1.1" xmlns="http://www.w3.org/2000/svg" xmlns:xlink="http://www.w3.org/1999/xlink" viewBox="0 0 651.25 651.75">
 <g>
  <rect height="651.75" opacity="0" width="651.25" x="0" y="0"/>
  <path d="M325.5 651.25C505.25 651.25 651.25 505.5 651.25 325.75C651.25 146 505.25 0 325.5 0C145.75 0 0 146 0 325.75C0 505.5 145.75 651.25 325.5 651.25ZM325.5 604.75C171.25 604.75 46.5 480 46.5 325.75C46.5 171.5 171.25 46.75 325.5 46.75C479.75 46.75 604.5 171.5 604.5 325.75C604.5 480 479.75 604.75 325.5 604.75Z" fill="black" fill-opacity="0.85"/>
  <path d="M234.75 346.75C226.5 346.75 220.75 341 220.75 332.75C220.75 324.75 226.5 318.75 234.75 318.75L311.5 318.75L311.5 215.25C311.5 207.5 317.5 201.5 325.25 201.5C333.5 201.5 339.75 207.5 339.75 215.25L339.75 332.75C339.75 340.75 333 346.75 325.25 346.75ZM325.5 499C420.25 499 498.75 420.5 498.75 325.75C498.75 231 420.25 152.5 325.25 152.5C230.5 152.5 152.25 231 152.25 325.75C152.25 420.5 230.75 499 325.5 499Z" fill="black" fill-opacity="0.85"/>
 </g>
</svg>
