<?xml version="1.0" encoding="UTF-8"?>
<!--Generator: Apple Native CoreSVG 326-->
<!DOCTYPE svg
PUBLIC "-//W3C//DTD SVG 1.1//EN"
       "http://www.w3.org/Graphics/SVG/1.1/DTD/svg11.dtd">
<svg version="1.1" xmlns="http://www.w3.org/2000/svg" xmlns:xlink="http://www.w3.org/1999/xlink" viewBox="0 0 374 586.75">
 <g>
  <rect height="586.75" opacity="0" width="374" x="0" y="0"/>
  <path d="M374 49.75L374 56.5C374 132.5 291.5 216.5 243.5 264.25C225.5 282.25 224.25 302 243.5 321.25C291.5 369 374 453.5 374 529L374 536.5C374 568.5 355 586.5 324.5 586.5L49.5 586.5C19 586.5 0 568.5 0 536.5L0 529C0 453.5 82.25 369 130.25 321.25C149.5 302 148.25 282.25 130.25 264.25C82.25 216.5 0 132.5 0 56.5L0 49.75C0 17.75 19 0 49.5 0L324.5 0C355 0 374 17.75 374 49.75ZM94.5 156C85.5 156 81.5 165 89 173C109.75 195.75 140.75 224 164.75 244.75C174.25 252.75 176.5 259.25 176.5 272L176.5 410.75C176.5 416 175.25 417.75 171.25 421.5L65.5 523.75C56.75 532 60.25 546.5 72.75 546.5L301.25 546.5C313.75 546.5 317 532 308.25 523.75L202.75 421.5C198.75 417.75 197.5 416 197.5 410.75L197.5 272C197.5 259.25 199.75 252.75 209.25 244.75C233 224 264.25 195.75 285 173C292.5 165 288.5 156 279.25 156Z" fill="black" fill-opacity="0.85"/>
 </g>
</svg>
