<?xml version="1.0" encoding="UTF-8"?>
<!--Generator: Apple Native CoreSVG 326-->
<!DOCTYPE svg
PUBLIC "-//W3C//DTD SVG 1.1//EN"
       "http://www.w3.org/Graphics/SVG/1.1/DTD/svg11.dtd">
<svg version="1.1" xmlns="http://www.w3.org/2000/svg" xmlns:xlink="http://www.w3.org/1999/xlink" viewBox="0 0 675.5 886.75">
 <g>
  <rect height="886.75" opacity="0" width="675.5" x="0" y="0"/>
  <path d="M524.75 199.75L524.75 206.5C524.75 282.5 442.25 366.5 394.25 414.25C376.25 432.25 375 452 394.25 471.25C407.467 484.398 423.3 500.333 439.311 518.166C414.475 540.754 399.621 574.715 399.105 615.7L353.5 571.5C349.5 567.75 348.25 566 348.25 560.75L348.25 422C348.25 409.25 350.5 402.75 360 394.75C383.75 374 415 345.75 435.75 323C443.25 315 439.25 306 430 306L245.25 306C236.25 306 232.25 315 239.75 323C260.5 345.75 291.5 374 315.5 394.75C325 402.75 327.25 409.25 327.25 422L327.25 560.75C327.25 566 326 567.75 322 571.5L216.25 673.75C207.5 682 211 696.5 223.5 696.5L370 696.5L370 736.5L200.25 736.5C169.75 736.5 150.75 718.5 150.75 686.5L150.75 679C150.75 603.5 233 519 281 471.25C300.25 452 299 432.25 281 414.25C233 366.5 150.75 282.5 150.75 206.5L150.75 199.75C150.75 167.75 169.75 150 200.25 150L475.25 150C505.75 150 524.75 167.75 524.75 199.75Z" fill="black" fill-opacity="0.85"/>
  <path d="M449.5 848.25L596 848.25C622 848.25 635.5 834.5 635.5 806.5L635.5 691.25C635.5 663 622 649.5 596 649.5L449.5 649.5C423.5 649.5 410 663 410 691.25L410 806.5C410 834.5 423.5 848.25 449.5 848.25ZM439 674.25L470 674.25L470 612.5C470 578.25 490.75 556.5 522.75 556.5C555 556.5 575.75 578.25 575.75 612.5L575.75 674.25L606.75 674.25L606.75 616.75C606.75 561 573.75 525.5 522.75 525.5C472 525.5 439 561 439 616.75Z" fill="black" fill-opacity="0.85"/>
 </g>
</svg>
