<?xml version="1.0" encoding="UTF-8"?>
<!--Generator: Apple Native CoreSVG 326-->
<!DOCTYPE svg
PUBLIC "-//W3C//DTD SVG 1.1//EN"
       "http://www.w3.org/Graphics/SVG/1.1/DTD/svg11.dtd">
<svg version="1.1" xmlns="http://www.w3.org/2000/svg" xmlns:xlink="http://www.w3.org/1999/xlink" viewBox="0 0 651.25 786.25">
 <g>
  <rect height="786.25" opacity="0" width="651.25" x="0" y="0"/>
  <path d="M355.5 31L355.5 68.8067C424.921 75.2434 488.417 104.108 538.432 148.135L567.5 119.25C574.25 112.75 581.25 110 590.5 110C607 110 619.75 122.75 619.75 138.5C619.75 146.25 616 154.75 609.5 161.25L579.836 191.283C624.493 246.86 651.25 317.145 651.25 393C651.25 571 503.75 718.5 325.5 718.5C147.5 718.5 0 571 0 393C0 224.882 130.986 84.1177 295.25 68.7961L295.25 31C295.25 14 308.75 0 325.25 0C342.25 0 355.5 14 355.5 31ZM306 180.5L306 349.75C288.75 358.5 277.75 374.5 277.75 393.25C277.75 419.75 298.75 441.25 325.5 441.25C352 441.25 373 419.75 373 393.25C373 374.5 362.5 358.5 344.75 350L344.75 180.5C344.75 169.75 336.25 161.5 325.25 161.5C314.75 161.5 306 169.75 306 180.5Z" fill="black" fill-opacity="0.85"/>
 </g>
</svg>
