<?xml version="1.0" encoding="UTF-8"?>
<!--Generator: Apple Native CoreSVG 326-->
<!DOCTYPE svg
PUBLIC "-//W3C//DTD SVG 1.1//EN"
       "http://www.w3.org/Graphics/SVG/1.1/DTD/svg11.dtd">
<svg version="1.1" xmlns="http://www.w3.org/2000/svg" xmlns:xlink="http://www.w3.org/1999/xlink" viewBox="0 0 820.889 753.75">
 <g>
  <rect height="753.75" opacity="0" width="820.889" x="0" y="0"/>
  <path d="M152.57 753.75L346.32 753.75C389.32 753.75 416.32 727 416.32 684.75L416.32 69.25C416.32 27 389.32 0.25 346.32 0.25L152.57 0.25C109.32 0.25 82.3195 27 82.3195 69.25L82.3195 684.75C82.3195 727 109.32 753.75 152.57 753.75ZM153.32 709.5C136.57 709.5 126.57 699.25 126.57 682.5L126.57 71.5C126.57 54.5 136.57 44.5 153.32 44.5L345.57 44.5C362.32 44.5 372.07 54.5 372.07 71.5L372.07 682.5C372.07 699.25 362.32 709.5 345.57 709.5ZM321.57 247C330.07 247 337.07 240.25 337.07 231.5L337.07 104.75C337.07 96.25 330.07 89.5 321.57 89.5C312.82 89.5 305.82 96.25 305.82 104.75L305.82 231.5C305.82 240.25 312.82 247 321.57 247ZM256.07 247C264.57 247 271.32 240.25 271.32 231.5L271.32 104.75C271.32 96.25 264.57 89.5 256.07 89.5C247.32 89.5 240.32 96.25 240.32 104.75L240.32 231.5C240.32 240.25 247.32 247 256.07 247ZM321.57 454C330.07 454 337.07 447.25 337.07 438.5L337.07 311.75C337.07 303.25 330.07 296.5 321.57 296.5C312.82 296.5 305.82 303.25 305.82 311.75L305.82 438.5C305.82 447.25 312.82 454 321.57 454ZM256.07 454C264.57 454 271.32 447.25 271.32 438.5L271.32 311.75C271.32 303.25 264.57 296.5 256.07 296.5C247.32 296.5 240.32 303.25 240.32 311.75L240.32 438.5C240.32 447.25 247.32 454 256.07 454ZM321.57 661.25C330.07 661.25 337.07 654.5 337.07 646L337.07 519.5C337.07 510.5 330.07 503.75 321.57 503.75C312.82 503.75 305.82 510.5 305.82 519.5L305.82 646C305.82 654.5 312.82 661.25 321.57 661.25ZM256.07 661.25C264.57 661.25 271.32 654.5 271.32 646L271.32 519.5C271.32 510.5 264.57 503.75 256.07 503.75C247.32 503.75 240.32 510.5 240.32 519.5L240.32 646C240.32 654.5 247.32 661.25 256.07 661.25Z" fill="black" fill-opacity="0.85"/>
  <path d="M553.07 239.5C559.82 239.5 564.57 233.75 564.07 226.75L562.57 198.5L586.32 214.25C591.57 217.5 599.32 216.5 602.82 210.75C606.57 205 604.07 197.25 597.32 194.5L572.07 181.5L597.82 168.25C603.57 165.5 606.32 158.25 603.07 152C600.07 146.5 591.82 145 586.07 149L562.57 164.75L564.32 136.5C564.82 129.75 560.07 123.5 553.07 123.5C546.07 123.5 541.32 129.25 541.82 136.25L543.32 165L519.32 149C513.57 145.25 506.07 146.25 502.82 152C499.32 158.25 501.82 165.25 508.07 168.25L533.57 181.5L508.32 194.25C501.82 197.25 499.07 204.5 502.57 210.75C505.82 216.25 513.57 217.5 519.32 214L543.32 198.25L542.07 226.75C541.82 234 546.32 239.5 553.07 239.5ZM730.07 626.25C737.32 626.25 742.07 620.75 741.32 613.75L739.82 584.75L764.07 601C769.82 604.5 777.07 603.5 780.07 597.75C783.82 591.5 781.07 584.5 775.07 581.5L749.57 568.25L774.82 555.5C781.32 552.5 784.07 545.5 780.57 539C777.57 533.5 769.82 532.25 764.07 535.75L739.82 551.5L741.07 523C741.32 516 737.07 510.5 730.07 510.5C723.57 510.5 718.82 516.25 719.32 523L720.82 551.5L696.82 536C691.57 532.5 684.07 533.5 680.32 539C676.32 545 679.32 552.75 686.07 555.5L711.07 568.25L685.57 581.5C679.57 584.75 676.82 591.5 680.07 597.75C683.07 603.5 691.32 604.75 697.07 601L720.82 585L719.07 613.25C718.57 620.25 723.32 626.25 730.07 626.25ZM540.57 337.25C623.57 337.25 668.57 268.25 742.32 268.25C760.57 268.25 775.32 272 793.57 282.25C803.82 288 812.82 284 817.57 277.25C822.82 269.25 822.32 257 810.07 250C789.07 237.75 766.57 231.75 742.32 231.75C656.82 231.75 612.32 301 540.57 301C522.57 301 507.57 296.75 489.32 286.5C479.57 281 470.07 284.5 465.57 292C460.57 300 461.07 312.5 472.82 319C493.57 332 516.57 337.25 540.57 337.25ZM540.82 429.5C623.57 429.5 668.82 360.75 742.32 360.75C760.82 360.75 775.57 364.5 793.82 374.75C803.82 380.5 813.07 376.5 817.82 369.75C822.82 361.75 822.57 349.25 810.57 342.5C789.32 330.25 766.57 324.25 742.32 324.25C657.07 324.25 612.57 393.25 540.82 393.25C522.57 393.25 507.57 389.25 489.57 379C479.82 373.5 470.07 377 465.57 384.5C460.57 392.5 461.07 404.75 473.07 411.5C493.82 424.25 516.82 429.5 540.82 429.5ZM540.57 522C623.57 522 668.57 453 742.32 453C760.57 453 775.32 457 793.57 467.25C803.82 473 812.82 469 817.57 462.25C822.82 454.25 822.32 441.75 810.07 434.75C789.07 422.5 766.57 416.5 742.32 416.5C656.82 416.5 612.32 485.75 540.57 485.75C522.57 485.75 507.57 481.75 489.32 471.5C479.57 466 470.07 469.5 465.57 477C460.57 485 461.07 497.25 472.82 504C493.57 516.75 516.57 522 540.57 522Z" fill="black" fill-opacity="0.85"/>
 </g>
</svg>
