<?xml version="1.0" encoding="UTF-8"?>
<!--Generator: Apple Native CoreSVG 326-->
<!DOCTYPE svg
PUBLIC "-//W3C//DTD SVG 1.1//EN"
       "http://www.w3.org/Graphics/SVG/1.1/DTD/svg11.dtd">
<svg version="1.1" xmlns="http://www.w3.org/2000/svg" xmlns:xlink="http://www.w3.org/1999/xlink" viewBox="0 0 807 530.75">
 <g>
  <rect height="530.75" opacity="0" width="807" x="0" y="0"/>
  <path d="M0 504.25C0 520.25 9.75 530.25 25.75 530.25L43.75 530.25C59.5 530.25 69.25 520.25 69.25 504.25L69.25 455C72.75 456 81.5 456.5 88.25 456.5L718.75 456.5C725.5 456.5 734.25 456 737.75 455L737.75 504.25C737.75 520.25 747.75 530.25 763.5 530.25L781.5 530.25C797.25 530.25 807 520.25 807 504.25L807 307.5C807 251.25 775.25 219.5 719 219.5L88 219.5C31.75 219.5 0 251.25 0 307.5Z" fill="black" fill-opacity="0.85"/>
  <path d="M77.5 177.75L155.75 177.75L155.75 133.75C155.75 104.75 172.5 88 201.75 88L325 88C354.25 88 371 104.75 371 133.75L371 177.75L443.25 177.75L443.25 133.75C443.25 104.75 460 88 492.5 88L602.25 88C634.75 88 651.75 104.75 651.75 133.75L651.75 177.75L730 177.75L730 87C730 29 699.25 0 645 0L162.25 0C108.25 0 77.5 29 77.5 87Z" fill="black" fill-opacity="0.85"/>
 </g>
</svg>
