<?xml version="1.0" encoding="UTF-8"?>
<!--Generator: Apple Native CoreSVG 326-->
<!DOCTYPE svg
PUBLIC "-//W3C//DTD SVG 1.1//EN"
       "http://www.w3.org/Graphics/SVG/1.1/DTD/svg11.dtd">
<svg version="1.1" xmlns="http://www.w3.org/2000/svg" xmlns:xlink="http://www.w3.org/1999/xlink" viewBox="0 0 768.5 640.75">
 <g>
  <rect height="640.75" opacity="0" width="768.5" x="0" y="0"/>
  <path d="M768.5 384.25C768.5 290 734.5 203.75 678 136.75C671.5 129 660.5 129.25 653.25 136.5L581 208.75C574.75 215 574.5 223.75 580 230.75C613.25 273.25 633 326.25 633 384.25C633 442.25 613.25 495.5 578.5 539.5C573.75 545.5 574 553 579.25 558.25L653.25 632.5C660.5 640 671.25 639.75 678 632C734.5 565 768.5 478.25 768.5 384.25Z" fill="black" fill-opacity="0.85"/>
  <path d="M384.25 135.25C442.25 135.25 495.75 155.25 538.25 189C545 194 553.25 193.5 559.5 187.25L632 114.75C639.5 107.5 639.25 96.75 631.5 90C564.75 34 478.25 0 384.25 0C290.25 0 203.75 34 137 90C129.25 96.75 129 107.5 136.25 114.75L209 187.25C215 193.5 224 193.75 231 188.25C273.25 155.25 326.5 135.25 384.25 135.25Z" fill="black" fill-opacity="0.85"/>
  <path d="M0 384.25C0 478.25 34 565 90.5 632C97 639.75 108 640 115.25 632.5L189.25 558.25C194.25 553 194.75 545.5 190 539.5C155.25 495.5 135.25 442.25 135.25 384.25C135.25 326.25 155 273.25 188.5 230.75C193.75 223.75 193.75 215 187.5 208.75L115 136.5C107.75 129.25 97 129 90.25 136.75C33.75 203.75 0 290 0 384.25Z" fill="black" fill-opacity="0.85"/>
  <path d="M317 528.5L397 528.5C452.25 528.5 493.5 502.75 493.5 451.25C493.5 413 466.25 386.5 426.75 382.25L426.75 380C458.25 375 479 347.5 479 318.25C479 273.75 442.5 249.25 396 249.25L317 249.25C304.5 249.25 296.25 257.75 296.25 270.25L296.25 507.5C296.25 520 304.5 528.5 317 528.5ZM329.5 370.75L329.5 277.25L388 277.25C419.75 277.25 445.5 290.25 445.5 322.25C445.5 357.75 415.5 370.75 379.75 370.75ZM329.5 500.25L329.5 398.25L387.5 398.25C426.25 398.25 459.5 411.25 459.5 449.25C459.5 486.75 428.5 500.25 391 500.25ZM337 265.5L356.75 265.5L356.75 218C356.75 212.25 352.75 208 347 208C341.25 208 337 212.25 337 218ZM387.75 265.5L407.5 265.5L407.5 218C407.5 212.25 403.25 208 397.5 208C392 208 387.75 212.25 387.75 218ZM337 511.75L337 561C337 566.75 341.25 570.75 347 570.75C352.75 570.75 356.75 566.75 356.75 561L356.75 511.75ZM387.75 511.75L387.75 561C387.75 566.75 392 570.75 397.5 570.75C403.25 570.75 407.5 566.75 407.5 561L407.5 511.75Z" fill="black" fill-opacity="0.85"/>
 </g>
</svg>
