<?xml version="1.0" encoding="UTF-8"?>
<!--Generator: Apple Native CoreSVG 326-->
<!DOCTYPE svg
PUBLIC "-//W3C//DTD SVG 1.1//EN"
       "http://www.w3.org/Graphics/SVG/1.1/DTD/svg11.dtd">
<svg version="1.1" xmlns="http://www.w3.org/2000/svg" xmlns:xlink="http://www.w3.org/1999/xlink" viewBox="0 0 673.75 656.85">
 <g>
  <rect height="656.85" opacity="0" width="673.75" x="0" y="0"/>
  <path d="M103 592.55C103 606.3 106.25 615.3 114 623.05L144 652.3C152 660.55 168 657.55 168 643.55L168 141.3C168 127.3 164.75 118.55 156.75 110.8L127 81.5499C119 73.2999 103 76.2999 103 90.2999ZM264.25 592.55C264.25 606.3 267.5 615.3 275.25 623.05L305 652.3C313.25 660.55 329 657.55 329 643.55L329 141.3C329 127.3 326 118.55 318 110.8L288.25 81.5499C280.25 73.2999 264.25 76.2999 264.25 90.2999ZM425.25 592.55C425.25 606.3 428.5 615.3 436.5 623.05L466.25 652.3C474.25 660.55 490.25 657.55 490.25 643.55L490.25 141.3C490.25 127.3 487 118.55 479.25 110.8L449.5 81.5499C441.25 73.2999 425.25 76.2999 425.25 90.2999ZM586.5 592.55C586.5 606.3 589.75 615.3 597.75 623.05L627.5 652.3C635.5 660.55 651.5 657.55 651.5 643.55L651.5 141.3C651.5 127.3 648.25 118.55 640.5 110.8L610.5 81.5499C602.5 73.2999 586.5 76.2999 586.5 90.2999Z" fill="black" fill-opacity="0.85"/>
  <path d="M1.75 22.2999C1.75 34.2999 11.75 44.2999 23.75 44.2999L651.5 44.2999C663.75 44.2999 673.75 34.2999 673.75 22.2999C673.75 10.0499 663.75 0.0499 651.5 0.0499L23.75 0.0499C11.75 0.0499 1.75 10.0499 1.75 22.2999ZM23.75 120.05C35 120.05 43.75 110.8 43.75 100.05C43.75 89.0499 35 80.0499 23.75 80.0499C12.75 80.0499 4 89.0499 4 100.05C4 110.8 12.75 120.05 23.75 120.05ZM23.75 195.05C35 195.05 43.75 186.05 43.75 175.05C43.75 164.05 35 155.3 23.75 155.3C12.75 155.3 4 164.05 4 175.05C4 186.05 12.75 195.05 23.75 195.05ZM23.75 270.3C35 270.3 43.75 261.3 43.75 250.3C43.75 239.3 35 230.55 23.75 230.55C12.75 230.55 4 239.3 4 250.3C4 261.3 12.75 270.3 23.75 270.3ZM23.75 345.3C35 345.3 43.75 336.3 43.75 325.55C43.75 314.3 35 305.55 23.75 305.55C12.75 305.55 4 314.3 4 325.55C4 336.3 12.75 345.3 23.75 345.3ZM23.75 420.55C35 420.55 43.75 411.55 43.75 400.8C43.75 389.55 35 380.8 23.75 380.8C12.75 380.8 4 389.55 4 400.8C4 411.55 12.75 420.55 23.75 420.55ZM23.75 495.8C35 495.8 43.75 486.55 43.75 475.8C43.75 464.8 35 455.8 23.75 455.8C12.75 455.8 4 464.8 4 475.8C4 486.55 12.75 495.8 23.75 495.8ZM23.75 656.3C35.75 656.3 46 646.3 46 634.3L46 553.3C46 541.05 36 531.05 23.75 531.05C11.75 531.05 1.75 541.05 1.75 553.3L1.75 634.3C1.75 646.3 12 656.3 23.75 656.3Z" fill="black" fill-opacity="0.85"/>
 </g>
</svg>
