<?xml version="1.0" encoding="UTF-8"?>
<!--Generator: Apple Native CoreSVG 326-->
<!DOCTYPE svg
PUBLIC "-//W3C//DTD SVG 1.1//EN"
       "http://www.w3.org/Graphics/SVG/1.1/DTD/svg11.dtd">
<svg version="1.1" xmlns="http://www.w3.org/2000/svg" xmlns:xlink="http://www.w3.org/1999/xlink" viewBox="0 0 673.75 656.75">
 <g>
  <rect height="656.75" opacity="0" width="673.75" x="0" y="0"/>
  <path d="M124 656.25L196.75 656.25C209.5 656.25 218 647.75 218 634.5L218 98.75C218 85.5 209.5 77 196.75 77L124 77C111.5 77 103 85.5 103 98.75L103 634.5C103 647.75 111.5 656.25 124 656.25ZM268.25 656.25L341.25 656.25C353.75 656.25 362.25 647.75 362.25 634.5L362.25 98.75C362.25 85.5 353.75 77 341.25 77L268.25 77C255.75 77 247.25 85.5 247.25 98.75L247.25 634.5C247.25 647.75 255.75 656.25 268.25 656.25ZM412.5 656.25L485.5 656.25C498.25 656.25 506.75 647.75 506.75 634.5L506.75 98.75C506.75 85.5 498.25 77 485.5 77L412.5 77C400.25 77 391.75 85.5 391.75 98.75L391.75 634.5C391.75 647.75 400.25 656.25 412.5 656.25ZM557 656.25L629.75 656.25C642.5 656.25 651 647.75 651 634.5L651 98.75C651 85.5 642.5 77 629.75 77L557 77C544.5 77 536 85.5 536 98.75L536 634.5C536 647.75 544.5 656.25 557 656.25Z" fill="black" fill-opacity="0.85"/>
  <path d="M1.75 22.25C1.75 34.25 11.75 44.25 23.75 44.25L651.5 44.25C663.75 44.25 673.75 34.25 673.75 22.25C673.75 10 663.75 0 651.5 0L23.75 0C11.75 0 1.75 10 1.75 22.25ZM23.75 120C35 120 43.75 110.75 43.75 100C43.75 89 35 80 23.75 80C12.75 80 4 89 4 100C4 110.75 12.75 120 23.75 120ZM23.75 195C35 195 43.75 186 43.75 175C43.75 164 35 155.25 23.75 155.25C12.75 155.25 4 164 4 175C4 186 12.75 195 23.75 195ZM23.75 270.25C35 270.25 43.75 261.25 43.75 250.25C43.75 239.25 35 230.5 23.75 230.5C12.75 230.5 4 239.25 4 250.25C4 261.25 12.75 270.25 23.75 270.25ZM23.75 345.25C35 345.25 43.75 336.25 43.75 325.5C43.75 314.25 35 305.5 23.75 305.5C12.75 305.5 4 314.25 4 325.5C4 336.25 12.75 345.25 23.75 345.25ZM23.75 420.5C35 420.5 43.75 411.5 43.75 400.75C43.75 389.5 35 380.75 23.75 380.75C12.75 380.75 4 389.5 4 400.75C4 411.5 12.75 420.5 23.75 420.5ZM23.75 495.75C35 495.75 43.75 486.5 43.75 475.75C43.75 464.75 35 455.75 23.75 455.75C12.75 455.75 4 464.75 4 475.75C4 486.5 12.75 495.75 23.75 495.75ZM23.75 656.25C35.75 656.25 46 646.25 46 634.25L46 553.25C46 541 36 531 23.75 531C11.75 531 1.75 541 1.75 553.25L1.75 634.25C1.75 646.25 12 656.25 23.75 656.25Z" fill="black" fill-opacity="0.85"/>
 </g>
</svg>
