<?xml version="1.0" encoding="UTF-8"?>
<!--Generator: Apple Native CoreSVG 326-->
<!DOCTYPE svg
PUBLIC "-//W3C//DTD SVG 1.1//EN"
       "http://www.w3.org/Graphics/SVG/1.1/DTD/svg11.dtd">
<svg version="1.1" xmlns="http://www.w3.org/2000/svg" xmlns:xlink="http://www.w3.org/1999/xlink" viewBox="0 0 673.75 656.75">
 <g>
  <rect height="656.75" opacity="0" width="673.75" x="0" y="0"/>
  <path d="M83 102.25L83 181.75C83 194.5 92 203 105 203L629.5 203C643.25 203 651.5 194.25 651.5 181.5L651.5 102C651.5 89.25 643 81 629.5 81L105 81C91.75 81 83 89.5 83 102.25ZM83 253.25L83 333C83 345.5 91.75 353.75 105 353.75L629.75 353.75C643 353.75 651.5 345.25 651.5 333L651.5 253C651.5 240.5 643 232.25 629.75 232.25L105.25 232.25C92 232.25 83 240.5 83 253.25ZM83 404.25L83 484C83 496.75 91.75 505 105 505L629.5 505C643.25 505 651.5 496.75 651.5 484L651.5 404C651.5 391.75 643.25 383.5 629.5 383.5L105 383.5C92 383.5 83 391.75 83 404.25ZM83 555.5L83 635C83 647.75 91.5 656 104.75 656L629.25 656C642.75 656 651.5 647.75 651.5 635L651.5 555.5C651.5 542.5 643 534.25 629.5 534.25L105 534.25C91.5 534.25 83 542.75 83 555.5Z" fill="black" fill-opacity="0.85"/>
  <path d="M1.75 22.25C1.75 34.25 11.75 44.25 23.75 44.25L651.5 44.25C663.75 44.25 673.75 34.25 673.75 22.25C673.75 10 663.75 0 651.5 0L23.75 0C11.75 0 1.75 10 1.75 22.25ZM23.75 120C35 120 43.75 110.75 43.75 100C43.75 89 35 80 23.75 80C12.75 80 4 89 4 100C4 110.75 12.75 120 23.75 120ZM23.75 195C35 195 43.75 186 43.75 175C43.75 164 35 155.25 23.75 155.25C12.75 155.25 4 164 4 175C4 186 12.75 195 23.75 195ZM23.75 270.25C35 270.25 43.75 261.25 43.75 250.25C43.75 239.25 35 230.5 23.75 230.5C12.75 230.5 4 239.25 4 250.25C4 261.25 12.75 270.25 23.75 270.25ZM23.75 345.25C35 345.25 43.75 336.25 43.75 325.5C43.75 314.25 35 305.5 23.75 305.5C12.75 305.5 4 314.25 4 325.5C4 336.25 12.75 345.25 23.75 345.25ZM23.75 420.5C35 420.5 43.75 411.5 43.75 400.75C43.75 389.5 35 380.75 23.75 380.75C12.75 380.75 4 389.5 4 400.75C4 411.5 12.75 420.5 23.75 420.5ZM23.75 495.75C35 495.75 43.75 486.5 43.75 475.75C43.75 464.75 35 455.75 23.75 455.75C12.75 455.75 4 464.75 4 475.75C4 486.5 12.75 495.75 23.75 495.75ZM23.75 656.25C35.75 656.25 46 646.25 46 634.25L46 553.25C46 541 36 531 23.75 531C11.75 531 1.75 541 1.75 553.25L1.75 634.25C1.75 646.25 12 656.25 23.75 656.25Z" fill="black" fill-opacity="0.85"/>
 </g>
</svg>
