<?xml version="1.0" encoding="UTF-8"?>
<!--Generator: Apple Native CoreSVG 326-->
<!DOCTYPE svg
PUBLIC "-//W3C//DTD SVG 1.1//EN"
       "http://www.w3.org/Graphics/SVG/1.1/DTD/svg11.dtd">
<svg version="1.1" xmlns="http://www.w3.org/2000/svg" xmlns:xlink="http://www.w3.org/1999/xlink" viewBox="0 0 768.5 637.929">
 <g>
  <rect height="637.929" opacity="0" width="768.5" x="0" y="0"/>
  <path d="M768.5 382.839C768.5 181.589 613.75 16.5894 417.25 0.089388C407-0.910612 399 6.58939 399 17.0894L399 119.339C399 127.839 405.25 134.589 414 135.339C537.25 150.339 633 255.339 633 382.839C633 440.839 613.25 494.089 578.25 538.089C573.5 544.089 573.75 551.589 579 556.839L653.25 631.089C660.75 638.339 671.5 638.339 678 630.339C734.5 563.339 768.5 476.839 768.5 382.839Z" fill="black" fill-opacity="0.85"/>
  <path d="M0 382.839C0 477.089 34 563.839 90.75 630.839C97 638.339 107.5 638.339 115 631.089L189.25 556.839C194.5 551.589 194.75 544.089 190 538.089C155 494.089 135.25 440.839 135.25 382.839C135.25 255.339 231.25 150.339 354.25 135.339C363.25 134.589 369.25 127.839 369.25 119.339L369.25 17.0894C369.25 6.58939 361.5-0.910612 351.25 0.089388C154.5 16.5894 0 181.589 0 382.839Z" fill="black" fill-opacity="0.85"/>
  <path d="M241.5 517.089C251.75 517.089 257.75 510.589 257.75 500.339L257.75 407.589L301 407.589L342.75 505.589C346.5 513.589 351 517.089 359.25 517.089C368.75 517.089 375 511.089 375 502.089C375 497.839 373.25 493.839 371.5 490.089L332.25 400.589C361.75 388.839 375 360.089 375 329.589C375 280.589 344.5 252.589 297.5 252.589L241.25 252.589C231.25 252.589 225.5 259.089 225.5 269.089L225.5 500.339C225.5 510.089 230.5 517.089 241.5 517.089ZM257.75 381.339L257.75 279.839L294.25 279.839C325.75 279.839 342.5 299.839 342.5 330.089C342.5 360.339 327.25 381.339 294.75 381.339ZM480.25 509.839C525.75 509.839 555.25 484.339 555.25 443.839C555.25 405.839 531.75 389.589 500 374.589L477.5 363.839C455.25 353.339 438 340.839 438 318.589C438 294.589 456 282.589 479.5 282.589C507.25 282.589 518.25 300.839 521.5 323.589C522.75 329.589 527.75 335.589 536.5 335.589C545.25 335.589 551 330.089 551 321.339C551 319.089 550.5 315.089 549.75 312.089C542.25 272.089 513.5 256.589 479.5 256.589C438.5 256.589 407.25 280.089 407.25 320.339C407.25 354.589 427 373.089 461.75 389.589L484 400.339C506.25 411.089 524.5 422.339 524.5 446.589C524.5 471.589 507.5 483.589 480.5 483.589C451.25 483.589 438.25 468.089 434 441.089C432.5 432.589 426 428.839 419.5 428.839C410.5 428.839 404.25 433.839 404.25 443.089C404.25 445.589 404.75 449.089 405.5 452.339C413.5 493.339 443.75 509.839 480.25 509.839ZM479.75 544.339C484.75 544.339 488 541.089 488 536.089L488 231.339C488 226.339 484.75 223.089 479.75 223.089C474.75 223.089 471.5 226.339 471.5 231.339L471.5 536.089C471.5 541.089 474.75 544.339 479.75 544.339Z" fill="black" fill-opacity="0.85"/>
 </g>
</svg>
