<?xml version="1.0" encoding="UTF-8"?>
<!--Generator: Apple Native CoreSVG 326-->
<!DOCTYPE svg
PUBLIC "-//W3C//DTD SVG 1.1//EN"
       "http://www.w3.org/Graphics/SVG/1.1/DTD/svg11.dtd">
<svg version="1.1" xmlns="http://www.w3.org/2000/svg" xmlns:xlink="http://www.w3.org/1999/xlink" viewBox="0 0 587.75 587.75">
 <g>
  <rect height="587.75" opacity="0" width="587.75" x="0" y="0"/>
  <path d="M587.75 96.5L587.75 491.5C587.75 555 555 587.75 490.25 587.75L97.25 587.75C32.75 587.75 0 555.5 0 491.5L0 96.5C0 32.5 32.75 0 97.25 0L490.25 0C555 0 587.75 32.75 587.75 96.5ZM108.5 294.25C108.5 396.5 191.5 479.75 293.75 479.75C396.25 479.75 479.25 396.5 479.25 294.25C479.25 191.75 396.25 108.75 293.75 108.75C191.5 108.75 108.5 191.75 108.5 294.25ZM439 294.25C439 374.5 374 439.5 293.75 439.5C213.75 439.5 148.75 374.5 148.75 294.25C148.75 214 213.75 149 293.75 149C374 149 439 214 439 294.25ZM181.25 294.25C181.25 356.25 231.75 407 293.75 407C356 407 406.5 356.25 406.5 294.25C406.5 232 356 181.5 293.75 181.5C231.75 181.5 181.25 232 181.25 294.25Z" fill="black" fill-opacity="0.85"/>
 </g>
</svg>
