<?xml version="1.0" encoding="UTF-8"?>
<!--Generator: Apple Native CoreSVG 326-->
<!DOCTYPE svg
PUBLIC "-//W3C//DTD SVG 1.1//EN"
       "http://www.w3.org/Graphics/SVG/1.1/DTD/svg11.dtd">
<svg version="1.1" xmlns="http://www.w3.org/2000/svg" xmlns:xlink="http://www.w3.org/1999/xlink" viewBox="0 0 768.5 640.75">
 <g>
  <rect height="640.75" opacity="0" width="768.5" x="0" y="0"/>
  <path d="M768.5 384.25C768.5 290 734.5 203.75 678 136.75C671.5 129 660.5 129.25 653.25 136.5L581 208.75C574.75 215 574.5 223.75 580 230.75C613.25 273.25 633 326.25 633 384.25C633 442.25 613.25 495.5 578.5 539.5C573.75 545.5 574 553 579.25 558.25L653.25 632.5C660.5 640 671.25 639.75 678 632C734.5 565 768.5 478.25 768.5 384.25Z" fill="black" fill-opacity="0.85"/>
  <path d="M384.25 135.25C442.25 135.25 495.75 155.25 538.25 189C545 194 553.25 193.5 559.5 187.25L632 114.75C639.5 107.5 639.25 96.75 631.5 90C564.75 34 478.25 0 384.25 0C290.25 0 203.75 34 137 90C129.25 96.75 129 107.5 136.25 114.75L209 187.25C215 193.5 224 193.75 231 188.25C273.25 155.25 326.5 135.25 384.25 135.25Z" fill="black" fill-opacity="0.85"/>
  <path d="M0 384.25C0 478.25 34 565 90.5 632C97 639.75 108 640 115.25 632.5L189.25 558.25C194.25 553 194.75 545.5 190 539.5C155.25 495.5 135.25 442.25 135.25 384.25C135.25 326.25 155 273.25 188.5 230.75C193.75 223.75 193.75 215 187.5 208.75L115 136.5C107.75 129.25 97 129 90.25 136.75C33.75 203.75 0 290 0 384.25Z" fill="black" fill-opacity="0.85"/>
  <path d="M386.5 528.25C434 528.25 477.5 507 492.5 464.5C494.25 459.5 495.25 455 495.25 449.5C495.25 440.25 489.25 434.25 480 434.25C471 434.25 466.25 439.25 463.75 447.75C454.5 479.25 423.25 498.5 386.5 498.5C325 498.5 297 445.75 297 385.75C297 325.5 326.5 273.75 386.25 273.75C422.25 273.75 453.25 295.75 461.75 325.5C464.5 334.25 468.75 338.75 477.75 338.75C487 338.75 493.25 333 493.25 323.5C493.25 317 491.5 311.5 489 305.75C472.5 266 431.5 244 386.25 244C307.5 244 262.25 304 262.25 385.75C262.25 466 305 528.25 386.5 528.25ZM384 566C389.75 566 393.75 562 393.75 556L393.75 217.5C393.75 211.75 389.75 207.5 384 207.5C378.25 207.5 374 211.75 374 217.5L374 556C374 561.75 378.25 566 384 566Z" fill="black" fill-opacity="0.85"/>
 </g>
</svg>
