<?xml version="1.0" encoding="UTF-8"?>
<!--Generator: Apple Native CoreSVG 326-->
<!DOCTYPE svg
PUBLIC "-//W3C//DTD SVG 1.1//EN"
       "http://www.w3.org/Graphics/SVG/1.1/DTD/svg11.dtd">
<svg version="1.1" xmlns="http://www.w3.org/2000/svg" xmlns:xlink="http://www.w3.org/1999/xlink" viewBox="0 0 768.5 637.929">
 <g>
  <rect height="637.929" opacity="0" width="768.5" x="0" y="0"/>
  <path d="M768.5 382.839C768.5 181.589 613.75 16.5894 417.25 0.089388C407-0.910612 399 6.58939 399 17.0894L399 119.339C399 127.839 405.25 134.589 414 135.339C537.25 150.339 633 255.339 633 382.839C633 440.839 613.25 494.089 578.25 538.089C573.5 544.089 573.75 551.589 579 556.839L653.25 631.089C660.75 638.339 671.5 638.339 678 630.339C734.5 563.339 768.5 476.839 768.5 382.839Z" fill="black" fill-opacity="0.85"/>
  <path d="M0 382.839C0 477.089 34 563.839 90.75 630.839C97 638.339 107.5 638.339 115 631.089L189.25 556.839C194.5 551.589 194.75 544.089 190 538.089C155 494.089 135.25 440.839 135.25 382.839C135.25 255.339 231.25 150.339 354.25 135.339C363.25 134.589 369.25 127.839 369.25 119.339L369.25 17.0894C369.25 6.58939 361.5-0.910612 351.25 0.089388C154.5 16.5894 0 181.589 0 382.839Z" fill="black" fill-opacity="0.85"/>
  <path d="M386.5 526.839C434 526.839 477.5 505.589 492.5 463.089C494.25 458.089 495.25 453.589 495.25 448.089C495.25 438.839 489.25 432.839 480 432.839C471 432.839 466.25 437.839 463.75 446.339C454.5 477.839 423.25 497.089 386.5 497.089C325 497.089 297 444.339 297 384.339C297 324.089 326.5 272.339 386.25 272.339C422.25 272.339 453.25 294.339 461.75 324.089C464.5 332.839 468.75 337.339 477.75 337.339C487 337.339 493.25 331.589 493.25 322.089C493.25 315.589 491.5 310.089 489 304.339C472.5 264.589 431.5 242.589 386.25 242.589C307.5 242.589 262.25 302.589 262.25 384.339C262.25 464.589 305 526.839 386.5 526.839ZM384 564.589C389.75 564.589 393.75 560.589 393.75 554.589L393.75 216.089C393.75 210.339 389.75 206.089 384 206.089C378.25 206.089 374 210.339 374 216.089L374 554.589C374 560.339 378.25 564.589 384 564.589Z" fill="black" fill-opacity="0.85"/>
 </g>
</svg>
