<?xml version="1.0" encoding="UTF-8"?>
<!--Generator: Apple Native CoreSVG 326-->
<!DOCTYPE svg
PUBLIC "-//W3C//DTD SVG 1.1//EN"
       "http://www.w3.org/Graphics/SVG/1.1/DTD/svg11.dtd">
<svg version="1.1" xmlns="http://www.w3.org/2000/svg" xmlns:xlink="http://www.w3.org/1999/xlink" viewBox="0 0 768.5 637.929">
 <g>
  <rect height="637.929" opacity="0" width="768.5" x="0" y="0"/>
  <path d="M768.5 382.839C768.5 181.589 613.75 16.5894 417.25 0.089388C407-0.910612 399 6.58939 399 17.0894L399 119.339C399 127.839 405.25 134.589 414 135.339C537.25 150.339 633 255.339 633 382.839C633 440.839 613.25 494.089 578.25 538.089C573.5 544.089 573.75 551.589 579 556.839L653.25 631.089C660.75 638.339 671.5 638.339 678 630.339C734.5 563.339 768.5 476.839 768.5 382.839Z" fill="black" fill-opacity="0.85"/>
  <path d="M0 382.839C0 477.089 34 563.839 90.75 630.839C97 638.339 107.5 638.339 115 631.089L189.25 556.839C194.5 551.589 194.75 544.089 190 538.089C155 494.089 135.25 440.839 135.25 382.839C135.25 255.339 231.25 150.339 354.25 135.339C363.25 134.589 369.25 127.839 369.25 119.339L369.25 17.0894C369.25 6.58939 361.5-0.910612 351.25 0.089388C154.5 16.5894 0 181.589 0 382.839Z" fill="black" fill-opacity="0.85"/>
  <path d="M384 496.589C411.25 496.589 438 487.339 455.5 470.089C465.25 460.589 473.75 445.339 473.75 434.339C473.75 425.089 466.5 420.089 459 420.089C450.75 420.089 447.25 425.089 444.25 431.089C432 455.839 413.25 468.839 384.25 468.839C337.5 468.839 314.5 433.089 314.5 385.339C314.5 337.339 338 302.089 384 302.089C411.75 302.089 433.25 314.339 444 340.089C446.75 347.089 452 351.089 458.75 351.089C467.5 351.089 473.5 345.589 473.5 336.339C473.5 324.589 464.5 310.839 455 300.839C437.75 283.589 412 274.339 383.75 274.339C318.75 274.339 281.5 321.089 281.5 385.339C281.5 454.089 321.75 496.589 384 496.589ZM382.75 534.089C388.25 534.089 392.75 529.839 392.75 524.089L392.75 246.839C392.75 241.339 388.25 236.839 382.75 236.839C377 236.839 372.75 241.339 372.75 246.839L372.75 524.089C372.75 529.839 377 534.089 382.75 534.089Z" fill="black" fill-opacity="0.85"/>
 </g>
</svg>
