<?xml version="1.0" encoding="UTF-8"?>
<!--Generator: Apple Native CoreSVG 326-->
<!DOCTYPE svg
PUBLIC "-//W3C//DTD SVG 1.1//EN"
       "http://www.w3.org/Graphics/SVG/1.1/DTD/svg11.dtd">
<svg version="1.1" xmlns="http://www.w3.org/2000/svg" xmlns:xlink="http://www.w3.org/1999/xlink" viewBox="0 0 756.75 613.25">
 <g>
  <rect height="613.25" opacity="0" width="756.75" x="0" y="0"/>
  <path d="M88.25 613.25L668.5 613.25C726.75 613.25 756.75 582.5 756.75 525.5L756.75 88C756.75 31 726.75 0.25 668.5 0.25L88.25 0.25C30.25 0.25 0 31 0 88L0 525.5C0 582.5 30.25 613.25 88.25 613.25ZM192.5 280.25C139.75 280.25 96.75 237.25 96.75 184.5C96.75 132 139.75 89 192.5 89C245.5 89 288 132 288 184.5C288 237.25 245.5 280.25 192.5 280.25ZM444.25 280.25C391.5 280.25 348.5 237.25 348.5 184.5C348.5 132 391.5 89 444.25 89C497.25 89 540 132 540 184.5C540 237.25 497.25 280.25 444.25 280.25ZM192.5 524C139.75 524 96.75 481 96.75 428.25C96.75 375.5 139.75 332.5 192.5 332.5C245.5 332.5 288 375.5 288 428.25C288 481 245.5 524 192.5 524ZM444.25 524C391.5 524 348.5 481 348.5 428.25C348.5 375.5 391.5 332.5 444.25 332.5C497.25 332.5 540 375.5 540 428.25C540 481 497.25 524 444.25 524ZM644.5 193.5C629.25 193.5 617.25 181.75 617.25 166.5C617.25 151.75 629.25 139.5 644.5 139.5C659.25 139.5 671.5 151.75 671.5 166.5C671.5 181.75 659.25 193.5 644.5 193.5ZM644.5 287C629.25 287 617.25 275 617.25 259.75C617.25 245 629.25 232.75 644.5 232.75C659.25 232.75 671.5 245 671.5 259.75C671.5 275 659.25 287 644.5 287ZM644.5 380.5C629.25 380.5 617.25 368.25 617.25 353.25C617.25 338.25 629.25 326.25 644.5 326.25C659.25 326.25 671.5 338.25 671.5 353.25C671.5 368.25 659.25 380.5 644.5 380.5ZM644.5 473.75C629.25 473.75 617.25 461.5 617.25 446.5C617.25 431.5 629.25 419.75 644.5 419.75C659.25 419.75 671.5 431.5 671.5 446.5C671.5 461.5 659.25 473.75 644.5 473.75ZM192.5 251.75C229.75 251.75 259.75 222 259.75 184.5C259.75 147.25 229.75 117.5 192.5 117.5C155.5 117.5 125.25 147.25 125.25 184.5C125.25 222 155.5 251.75 192.5 251.75ZM192.5 237.75C162.5 237.75 139.75 214.75 139.75 184.5C139.75 154.25 162.5 131.5 192.5 131.5C222.5 131.5 245.25 154.25 245.25 184.5C245.25 214.75 222.5 237.75 192.5 237.75ZM444.25 251.75C481.5 251.75 511.5 222 511.5 184.5C511.5 147.25 481.5 117.5 444.25 117.5C407.25 117.5 377 147.25 377 184.5C377 222 407.25 251.75 444.25 251.75ZM444.25 237.75C414 237.75 391.25 214.75 391.25 184.5C391.25 154.25 414 131.5 444.25 131.5C474.5 131.5 497.25 154.25 497.25 184.5C497.25 214.75 474.5 237.75 444.25 237.75ZM192.5 495.25C229.75 495.25 259.75 465.5 259.75 428.25C259.75 391 229.75 361 192.5 361C155.5 361 125.25 391 125.25 428.25C125.25 465.5 155.5 495.25 192.5 495.25ZM192.5 481.25C162.5 481.25 139.75 458.5 139.75 428.25C139.75 398 162.5 375.25 192.5 375.25C222.5 375.25 245.25 398 245.25 428.25C245.25 458.5 222.5 481.25 192.5 481.25ZM444.25 495.25C481.5 495.25 511.5 465.5 511.5 428.25C511.5 391 481.5 361 444.25 361C407.25 361 377 391 377 428.25C377 465.5 407.25 495.25 444.25 495.25ZM444.25 481.25C414 481.25 391.25 458.5 391.25 428.25C391.25 398 414 375.25 444.25 375.25C474.5 375.25 497.25 398 497.25 428.25C497.25 458.5 474.5 481.25 444.25 481.25Z" fill="black" fill-opacity="0.85"/>
 </g>
</svg>
