<?xml version="1.0" encoding="UTF-8"?>
<!--Generator: Apple Native CoreSVG 326-->
<!DOCTYPE svg
PUBLIC "-//W3C//DTD SVG 1.1//EN"
       "http://www.w3.org/Graphics/SVG/1.1/DTD/svg11.dtd">
<svg version="1.1" xmlns="http://www.w3.org/2000/svg" xmlns:xlink="http://www.w3.org/1999/xlink" viewBox="0 0 756.75 613.25">
 <g>
  <rect height="613.25" opacity="0" width="756.75" x="0" y="0"/>
  <path d="M88.25 613.25L668.5 613.25C726.75 613.25 756.75 582.5 756.75 525.5L756.75 88C756.75 31 726.75 0.25 668.5 0.25L88.25 0.25C30.25 0.25 0 31 0 88L0 525.5C0 582.5 30.25 613.25 88.25 613.25ZM88.5 568.75C60.25 568.75 44.25 552.5 44.25 523.75L44.25 89.75C44.25 61 60.25 44.75 88.5 44.75L668.25 44.75C696.5 44.75 712.5 61 712.5 89.75L712.5 523.75C712.5 552.5 696.5 568.75 668.25 568.75ZM199.75 280.75C251.25 280.75 292.75 239 292.75 187.75C292.75 136.25 251.25 94.5 199.75 94.5C148.25 94.5 106.5 136.25 106.5 187.75C106.5 239 148.25 280.75 199.75 280.75ZM199.75 253.25C163.5 253.25 134.25 224 134.25 187.75C134.25 151.25 163.5 122 199.75 122C236 122 265.25 151.25 265.25 187.75C265.25 224 236 253.25 199.75 253.25ZM199.75 239.5C229.25 239.5 251.5 217.25 251.5 187.75C251.5 158.25 229.25 135.75 199.75 135.75C170.25 135.75 148 158.25 148 187.75C148 217.25 170.25 239.5 199.75 239.5ZM445.25 280.75C496.75 280.75 538.5 239 538.5 187.75C538.5 136.25 496.75 94.5 445.25 94.5C393.75 94.5 352 136.25 352 187.75C352 239 393.75 280.75 445.25 280.75ZM445.25 253.25C409 253.25 379.75 224 379.75 187.75C379.75 151.25 409 122 445.25 122C481.5 122 510.75 151.25 510.75 187.75C510.75 224 481.5 253.25 445.25 253.25ZM445.25 239.5C474.75 239.5 497 217.25 497 187.75C497 158.25 474.75 135.75 445.25 135.75C415.75 135.75 393.5 158.25 393.5 187.75C393.5 217.25 415.75 239.5 445.25 239.5ZM199.75 518.25C251.25 518.25 292.75 476.75 292.75 425.25C292.75 373.75 251.25 332 199.75 332C148.25 332 106.5 373.75 106.5 425.25C106.5 476.75 148.25 518.25 199.75 518.25ZM199.75 490.75C163.5 490.75 134.25 461.5 134.25 425.25C134.25 388.75 163.5 359.5 199.75 359.5C236 359.5 265.25 388.75 265.25 425.25C265.25 461.5 236 490.75 199.75 490.75ZM199.75 477C229.25 477 251.5 454.75 251.5 425.25C251.5 395.75 229.25 373.5 199.75 373.5C170.25 373.5 148 395.75 148 425.25C148 454.75 170.25 477 199.75 477ZM445.25 518.25C496.75 518.25 538.5 476.75 538.5 425.25C538.5 373.75 496.75 332 445.25 332C393.75 332 352 373.75 352 425.25C352 476.75 393.75 518.25 445.25 518.25ZM445.25 490.75C409 490.75 379.75 461.5 379.75 425.25C379.75 388.75 409 359.5 445.25 359.5C481.5 359.5 510.75 388.75 510.75 425.25C510.75 461.5 481.5 490.75 445.25 490.75ZM445.25 477C474.75 477 497 454.75 497 425.25C497 395.75 474.75 373.5 445.25 373.5C415.75 373.5 393.5 395.75 393.5 425.25C393.5 454.75 415.75 477 445.25 477ZM638 196.25C652.5 196.25 664.25 184.75 664.25 170C664.25 155.5 652.5 143.75 638 143.75C623.25 143.75 611.5 155.5 611.5 170C611.5 184.75 623.25 196.25 638 196.25ZM638 287.5C652.5 287.5 664.25 275.75 664.25 261C664.25 246.5 652.5 234.75 638 234.75C623.25 234.75 611.5 246.5 611.5 261C611.5 275.75 623.25 287.5 638 287.5ZM638 378.5C652.5 378.5 664.25 366.75 664.25 352C664.25 337.5 652.5 325.75 638 325.75C623.25 325.75 611.5 337.5 611.5 352C611.5 366.75 623.25 378.5 638 378.5ZM638 469.5C652.5 469.5 664.25 457.75 664.25 443C664.25 428.5 652.5 417 638 417C623.25 417 611.5 428.5 611.5 443C611.5 457.75 623.25 469.5 638 469.5Z" fill="black" fill-opacity="0.85"/>
 </g>
</svg>
