<?xml version="1.0" encoding="UTF-8"?>
<!--Generator: Apple Native CoreSVG 326-->
<!DOCTYPE svg
PUBLIC "-//W3C//DTD SVG 1.1//EN"
       "http://www.w3.org/Graphics/SVG/1.1/DTD/svg11.dtd">
<svg version="1.1" xmlns="http://www.w3.org/2000/svg" xmlns:xlink="http://www.w3.org/1999/xlink" viewBox="0 0 792 694.75">
 <g>
  <rect height="694.75" opacity="0" width="792" x="0" y="0"/>
  <path d="M85 28.25L112.75 28.25L112.75 72.75L85 72.75C77.75 86.75 62.5 96.25 45.5 96.25C20.5 96.25 0 75.75 0 50.5C0 25.5 20.5 4.75 45.5 4.75C62.5 4.75 77.75 14.5 85 28.25ZM792 50.5C792 75.75 771.25 96.25 746.25 96.25C729.25 96.25 714.25 86.75 706.75 72.75L679.25 72.75L679.25 28.25L706.75 28.25C714.25 14.5 729.25 4.75 746.25 4.75C771.25 4.75 792 25.5 792 50.5ZM580.75 72.75L211 72.75L211 28.25L580.75 28.25Z" fill="black" fill-opacity="0.85"/>
  <path d="M134.25 675.5L189.75 675.5C202 675.5 211 666.5 211 653.5L211 22C211 9.25 202 0 189.75 0L134.25 0C121.75 0 112.75 9.25 112.75 22L112.75 653.5C112.75 666.5 121.75 675.5 134.25 675.5ZM602.25 675.5L657.75 675.5C670.25 675.5 679.25 666.5 679.25 653.5L679.25 22C679.25 9.25 670.25 0 657.75 0L602.25 0C589.75 0 580.75 9.25 580.75 22L580.75 653.5C580.75 666.5 589.75 675.5 602.25 675.5Z" fill="black" fill-opacity="0.85"/>
 </g>
</svg>
