<?xml version="1.0" encoding="UTF-8"?>
<!--Generator: Apple Native CoreSVG 326-->
<!DOCTYPE svg
PUBLIC "-//W3C//DTD SVG 1.1//EN"
       "http://www.w3.org/Graphics/SVG/1.1/DTD/svg11.dtd">
<svg version="1.1" xmlns="http://www.w3.org/2000/svg" xmlns:xlink="http://www.w3.org/1999/xlink" viewBox="0 0 696.75 877.75">
 <g>
  <rect height="877.75" opacity="0" width="696.75" x="0" y="0"/>
  <path d="M437.513 115.25L207 115.25C175.5 115.25 156.5 133.75 156.5 166.5L156.5 656.5C156.5 689.25 175.5 707.75 207 707.75L489.75 707.75C521.25 707.75 540.25 689.25 540.25 656.5L540.25 421.239C540.33 421.25 540.415 421.25 540.5 421.25C556.015 421.25 570.77 419.436 584.5 415.847L584.5 658.75C584.5 709.677 561.848 740.565 518.5 749.292L518.5 784C518.5 797 509.5 806 496.5 806C483.25 806 474.25 797 474.25 784L474.25 752L222.5 752L222.5 784C222.5 797 213.25 806 200.25 806C187 806 178 797 178 784L178 749.248C134.746 740.456 112 709.587 112 658.75L112 164.25C112 103.25 145.25 71 206.25 71L463.279 71C454.425 85.5192 445.666 100.503 437.513 115.25ZM328 641.25C328 651.75 320 659.75 309.25 659.75L213.5 659.75C203 659.75 194.75 651.75 194.75 641.25C194.75 630.5 203 622.5 213.5 622.5L309.25 622.5C320 622.5 328 630.5 328 641.25ZM502 641.25C502 651.75 493.75 659.75 483.25 659.75L387.25 659.75C376.75 659.75 368.75 651.75 368.75 641.25C368.75 630.5 376.75 622.5 387.25 622.5L483.25 622.5C493.75 622.5 502 630.5 502 641.25ZM328 562C328 572.5 320 580.75 309.25 580.75L213.5 580.75C203 580.75 194.75 572.5 194.75 562C194.75 551.5 203 543.25 213.5 543.25L309.25 543.25C320 543.25 328 551.5 328 562ZM502 562C502 572.5 493.75 580.75 483.25 580.75L387.25 580.75C376.75 580.75 368.75 572.5 368.75 562C368.75 551.5 376.75 543.25 387.25 543.25L483.25 543.25C493.75 543.25 502 551.5 502 562ZM328 482.75C328 493.25 320 501.5 309.25 501.5L213.5 501.5C203 501.5 194.75 493.25 194.75 482.75C194.75 472.25 203 464 213.5 464L309.25 464C320 464 328 472.25 328 482.75ZM502 482.75C502 493.25 493.75 501.5 483.25 501.5L387.25 501.5C376.75 501.5 368.75 493.25 368.75 482.75C368.75 472.25 376.75 464 387.25 464L483.25 464C493.75 464 502 472.25 502 482.75ZM285.75 203.75C285.75 228 266 247.75 242 247.75C217.75 247.75 198 228 198 203.75C198 179.75 217.75 160 242 160C266 160 285.75 179.75 285.75 203.75Z" fill="black" fill-opacity="0.85"/>
  <path d="M540.5 381.25C610.25 381.25 657 336 657 268.25C657 235.75 643.25 205 631.75 179.5C613 139.5 583.75 91 557.5 50.75C552.5 43.25 547.25 39.75 540.5 39.75C533.5 39.75 528.25 43.25 523.25 50.75C496.75 91 467.75 139.5 449 179.5C437.5 205 423.75 235.75 423.75 268.25C423.75 336 470.5 381.25 540.5 381.25Z" fill="black" fill-opacity="0.85"/>
 </g>
</svg>
