<?xml version="1.0" encoding="UTF-8"?>
<!--Generator: Apple Native CoreSVG 326-->
<!DOCTYPE svg
PUBLIC "-//W3C//DTD SVG 1.1//EN"
       "http://www.w3.org/Graphics/SVG/1.1/DTD/svg11.dtd">
<svg version="1.1" xmlns="http://www.w3.org/2000/svg" xmlns:xlink="http://www.w3.org/1999/xlink" viewBox="0 0 696.75 877.75">
 <g>
  <rect height="877.75" opacity="0" width="696.75" x="0" y="0"/>
  <path d="M412.75 163.25C401.25 188.25 384 226 384 268.25C384 358.5 449 421.25 540.5 421.25C556.015 421.25 570.77 419.436 584.5 415.847L584.5 658.75C584.5 709.677 561.848 740.565 518.5 749.292L518.5 784C518.5 797 509.5 806 496.5 806C483.25 806 474.25 797 474.25 784L474.25 752L222.5 752L222.5 784C222.5 797 213.25 806 200.25 806C187 806 178 797 178 784L178 749.248C134.746 740.456 112 709.587 112 658.75L112 164.25C112 103.25 145.25 71 206.25 71L463.279 71C444.493 101.876 426.106 134.678 412.75 163.25ZM210.25 632.5C199.5 632.5 191 641 191 651.75C191 662.5 199.5 671 210.25 671L308.25 671C319.25 671 327.5 662.5 327.5 651.75C327.5 641 319.25 632.5 308.25 632.5ZM388.5 632.5C377.5 632.5 369.25 641 369.25 651.75C369.25 662.5 377.5 671 388.5 671L486.5 671C497.25 671 505.75 662.5 505.75 651.75C505.75 641 497.25 632.5 486.5 632.5ZM210.25 551.5C199.5 551.5 191 559.75 191 570.5C191 581.25 199.5 589.75 210.25 589.75L308.25 589.75C319.25 589.75 327.5 581.25 327.5 570.5C327.5 559.75 319.25 551.5 308.25 551.5ZM388.5 551.5C377.5 551.5 369.25 559.75 369.25 570.5C369.25 581.25 377.5 589.75 388.5 589.75L486.5 589.75C497.25 589.75 505.75 581.25 505.75 570.5C505.75 559.75 497.25 551.5 486.5 551.5ZM210.25 470.25C199.5 470.25 191 478.5 191 489.25C191 500.25 199.5 508.5 210.25 508.5L308.25 508.5C319.25 508.5 327.5 500.25 327.5 489.25C327.5 478.5 319.25 470.25 308.25 470.25ZM388.5 470.25C377.5 470.25 369.25 478.5 369.25 489.25C369.25 500.25 377.5 508.5 388.5 508.5L486.5 508.5C497.25 508.5 505.75 500.25 505.75 489.25C505.75 478.5 497.25 470.25 486.5 470.25ZM197 203.5C197 228.5 217.25 248.75 242 248.75C266.75 248.75 287 228.5 287 203.5C287 179 266.75 158.75 242 158.75C217.25 158.75 197 179 197 203.5Z" fill="black" fill-opacity="0.85"/>
  <path d="M540.5 381.25C610.25 381.25 657 336 657 268.25C657 235.75 643.25 205 631.75 179.5C613 139.5 583.75 91 557.5 50.75C552.5 43.25 547.25 39.75 540.5 39.75C533.5 39.75 528.25 43.25 523.25 50.75C496.75 91 467.75 139.5 449 179.5C437.5 205 423.75 235.75 423.75 268.25C423.75 336 470.5 381.25 540.5 381.25Z" fill="black" fill-opacity="0.85"/>
 </g>
</svg>
