<?xml version="1.0" encoding="UTF-8"?>
<!--Generator: Apple Native CoreSVG 326-->
<!DOCTYPE svg
PUBLIC "-//W3C//DTD SVG 1.1//EN"
       "http://www.w3.org/Graphics/SVG/1.1/DTD/svg11.dtd">
<svg version="1.1" xmlns="http://www.w3.org/2000/svg" xmlns:xlink="http://www.w3.org/1999/xlink" viewBox="0 0 720.5 777.75">
 <g>
  <rect height="777.75" opacity="0" width="720.5" x="0" y="0"/>
  <path d="M634.25 125.5L634.25 431.733C620.615 422.804 605.657 415.744 589.75 410.777L589.75 253L130.75 253L130.75 593.25L281.674 593.25C281.759 605.894 283.199 618.181 285.832 630L130.75 630L130.75 642C130.75 659.75 141.75 671.5 158.5 671.5L300.1 671.5C307.66 687.823 317.66 702.716 329.673 715.75L156.75 715.75C114.75 715.75 86.25 686.25 86.25 642L86.25 125.5C86.25 81.25 114.75 52 156.75 52L563.75 52C605.75 52 634.25 81.25 634.25 125.5ZM449.5 310.75C449.5 319.5 443.75 325.5 435 325.5L285.5 325.5C277 325.5 271 319.5 271 310.75C271 302.25 277 296.25 285.5 296.25L435 296.25C443.75 296.25 449.5 302.25 449.5 310.75ZM158.5 96.25C141.75 96.25 130.75 108 130.75 125.75L130.75 216.25L589.75 216.25L589.75 125.75C589.75 108 578.75 96.25 562 96.25ZM231.5 156.25C231.5 172 218.5 184.75 203 184.75C187.25 184.75 174.5 172 174.5 156.25C174.5 140.75 187.25 127.75 203 127.75C218.5 127.75 231.5 140.75 231.5 156.25ZM313.5 156.25C313.5 172 300.75 184.75 285.25 184.75C269.5 184.75 257 172 257 156.25C257 140.75 269.5 127.75 285.25 127.75C300.75 127.75 313.5 140.75 313.5 156.25Z" fill="black" fill-opacity="0.85"/>
  <path d="M685.5 589.75C685.5 675 617.75 742.75 532.75 742.75C521.825 742.75 511.188 741.637 500.958 739.484C524.612 734.615 546.168 724.325 564.251 709.866C618.554 696.727 656.5 649.474 656.5 589.75C656.5 530.308 618.644 483.128 564.444 469.93C546.317 455.435 524.694 445.124 500.958 440.255C511.188 438.108 521.825 437 532.75 437C617.75 437 685.5 504.5 685.5 589.75Z" fill="black" fill-opacity="0.85"/>
  <path d="M469.25 742.75C554.25 742.75 622 675 622 589.75C622 504.5 554.25 437 469.25 437C384 437 316.25 504.5 316.25 589.75C316.25 675 384 742.75 469.25 742.75ZM469.25 713.75C398.25 713.75 345.5 660.5 345.5 589.75C345.5 519.25 398.25 466 469.25 466C539.75 466 593 519.25 593 589.75C593 660.5 539.75 713.75 469.25 713.75ZM469.25 685.75C522.25 685.75 565 643 565 589.75C565 536.75 522.25 494 469.25 494C416 494 373 536.75 373 589.75C373 643 416 685.75 469.25 685.75ZM469.25 659.25C428.5 659.25 399.75 630.5 399.75 589.75C399.75 549.25 428.5 520.5 469.25 520.5C510 520.5 538.5 549 538.5 589.75C538.5 630.5 509.75 659.25 469.25 659.25Z" fill="black" fill-opacity="0.85"/>
 </g>
</svg>
