<?xml version="1.0" encoding="UTF-8"?>
<!--Generator: Apple Native CoreSVG 326-->
<!DOCTYPE svg
PUBLIC "-//W3C//DTD SVG 1.1//EN"
       "http://www.w3.org/Graphics/SVG/1.1/DTD/svg11.dtd">
<svg version="1.1" xmlns="http://www.w3.org/2000/svg" xmlns:xlink="http://www.w3.org/1999/xlink" viewBox="0 0 651.25 651.75">
 <g>
  <rect height="651.75" opacity="0" width="651.25" x="0" y="0"/>
  <path d="M651.25 326C651.25 505.5 505 651.75 325.5 651.75C146.25 651.75 0 505.5 0 326C0 146.75 146.25 0.5 325.5 0.5C505 0.5 651.25 146.75 651.25 326ZM174.5 463.75L174.5 467.25C174.5 491.25 189.75 507.5 213 507.5L436 507.5C459.5 507.5 474.5 491.25 474.5 467.25L474.5 463.75ZM174.5 254.25L174.5 441.5L474.5 441.5L474.5 254.25ZM376.25 294.5C376.25 299.75 372.75 304 367 304L283 304C277.5 304 273.75 299.75 273.75 294.5C273.75 289 277.5 285.25 283 285.25L367 285.25C372.75 285.25 376.25 289 376.25 294.5ZM213 143.75C189.75 143.75 174.5 159.75 174.5 184L174.5 232L474.5 232L474.5 184C474.5 159.75 459.5 143.75 436 143.75ZM298.25 195C298.25 203.75 291.25 211 282.5 211C273.5 211 266.75 203.75 266.75 195C266.75 186 273.5 178.75 282.5 178.75C291.25 178.75 298.25 186 298.25 195ZM245.5 188.5C249 193.75 248 201 242.5 204.5C237.25 208 230 206.75 226.5 201.5C223 196 224.25 188.75 229.5 185.25C234.75 181.75 242 183 245.5 188.5Z" fill="black" fill-opacity="0.85"/>
 </g>
</svg>
