<?xml version="1.0" encoding="UTF-8"?>
<!--Generator: Apple Native CoreSVG 326-->
<!DOCTYPE svg
PUBLIC "-//W3C//DTD SVG 1.1//EN"
       "http://www.w3.org/Graphics/SVG/1.1/DTD/svg11.dtd">
<svg version="1.1" xmlns="http://www.w3.org/2000/svg" xmlns:xlink="http://www.w3.org/1999/xlink" viewBox="0 0 768.5 637.929">
 <g>
  <rect height="637.929" opacity="0" width="768.5" x="0" y="0"/>
  <path d="M768.5 382.839C768.5 181.589 613.75 16.5894 417.25 0.089388C407-0.910612 399 6.58939 399 17.0894L399 119.339C399 127.839 405.25 134.589 414 135.339C537.25 150.339 633 255.339 633 382.839C633 440.839 613.25 494.089 578.25 538.089C573.5 544.089 573.75 551.589 579 556.839L653.25 631.089C660.75 638.339 671.5 638.339 678 630.339C734.5 563.339 768.5 476.839 768.5 382.839Z" fill="black" fill-opacity="0.85"/>
  <path d="M0 382.839C0 477.089 34 563.839 90.75 630.839C97 638.339 107.5 638.339 115 631.089L189.25 556.839C194.5 551.589 194.75 544.089 190 538.089C155 494.089 135.25 440.839 135.25 382.839C135.25 255.339 231.25 150.339 354.25 135.339C363.25 134.589 369.25 127.839 369.25 119.339L369.25 17.0894C369.25 6.58939 361.5-0.910612 351.25 0.089388C154.5 16.5894 0 181.589 0 382.839Z" fill="black" fill-opacity="0.85"/>
  <path d="M384.25 526.089C437.5 526.089 485.75 501.339 485.75 447.339C485.75 400.339 447.75 381.839 404 371.589L373.25 364.339C345.5 357.839 319.5 345.839 319.5 318.089C319.5 286.089 353.5 271.839 384.25 271.839C417 271.839 441.25 286.339 449.25 314.339C452 323.089 457.5 327.589 465.25 327.589C472.75 327.589 480.75 322.839 480.75 312.839C480.75 273.589 430.75 243.589 384.25 243.589C334 243.589 287.5 271.589 287.5 320.339C287.5 366.589 327 384.839 366.5 394.089L397.25 401.339C426.75 408.589 454 419.339 454 449.839C454 485.839 419.25 498.089 385 498.089C349.5 498.089 323.5 485.339 313.25 453.339C310 444.589 305 440.839 297.5 440.839C289 440.839 282 446.589 282 455.839C282 458.589 282.75 461.839 283.75 465.339C295.5 507.839 341.75 526.089 384.25 526.089ZM384 564.589C389.25 564.589 393.75 560.089 393.75 554.839L393.75 216.089C393.75 210.839 389.25 206.339 384 206.339C378.5 206.339 374.25 210.839 374.25 216.089L374.25 554.839C374.25 560.089 378.5 564.589 384 564.589Z" fill="black" fill-opacity="0.85"/>
 </g>
</svg>
