<?xml version="1.0" encoding="UTF-8"?>
<!--Generator: Apple Native CoreSVG 326-->
<!DOCTYPE svg
PUBLIC "-//W3C//DTD SVG 1.1//EN"
       "http://www.w3.org/Graphics/SVG/1.1/DTD/svg11.dtd">
<svg version="1.1" xmlns="http://www.w3.org/2000/svg" xmlns:xlink="http://www.w3.org/1999/xlink" viewBox="0 0 772 677.25">
 <g>
  <rect height="677.25" opacity="0" width="772" x="0" y="0"/>
  <path d="M22.25 676.75C34.5 676.75 44.5 666.75 44.5 654.5L44.5 61.5C44.5 51.25 51 44.5 60.75 44.5L711.25 44.5C720.75 44.5 727.5 51.25 727.5 61.5L727.5 654.5C727.5 666.75 737.25 676.75 749.75 676.75C762 676.75 772 666.75 772 654.5L772 58.5C772 23.5 748 0 712 0L60 0C24 0 0 23.5 0 58.5L0 654.5C0 666.75 9.75 676.75 22.25 676.75Z" fill="black" fill-opacity="0.85"/>
  <path d="M79.25 654.75C79.25 660.5 84 665.25 89.5 664.25L290.5 616.5C296.25 615.25 300.75 611.25 300.75 605.25L300.75 129.75C300.75 123.75 296.5 119.75 291 118.75L89 70.75C84 69.75 79.25 74.25 79.25 80ZM247.5 468.5C252 468.25 255.25 470.5 255.25 475.25L255.25 573C255.25 577 252.75 579.5 249 580.25L133 604.75C129 605.5 126 603.5 126 598.75L126 484.25C126 479.75 129 477 133.25 476.75ZM126 428.25L126 307C126 302.25 128.75 299.75 132.75 300L248.5 306C252.75 306.25 255.25 309.25 255.25 313.75L255.25 421.25C255.25 426 252.5 428.5 248.5 428.75L132.75 435C128.75 435.25 126 432.75 126 428.25ZM248.25 266.25L132.5 258C128.75 257.75 126 255.75 126 251L126 136C126 131.25 129.25 129.25 133 129.75L248.5 152.5C252.25 153.25 255.25 155.25 255.25 160L255.25 259C255.25 263.5 252.75 266.75 248.25 266.25ZM692.5 654.75L692.5 80C692.5 74.25 688 69.75 682.75 70.75L480.75 118.75C475.25 119.75 471 123.75 471 129.75L471 605.25C471 611.25 475.5 615.25 481.25 616.5L682.5 664.25C688 665.25 692.5 660.5 692.5 654.75ZM524.25 468.5L638.75 476.75C643 477 646 479.75 646 484.25L646 598.75C646 603.5 643 605.5 639 604.75L523 580.25C519.25 579.5 516.75 577 516.75 573L516.75 475.25C516.75 470.5 519.75 468.25 524.25 468.5ZM646 428.25C646 432.75 643.25 435.25 639.25 435L523.5 428.75C519.25 428.5 516.75 426 516.75 421.25L516.75 313.75C516.75 309.25 519.25 306.25 523.5 306L639 300C643 299.75 646 302.25 646 307ZM523.5 266.25C519.25 266.75 516.75 263.5 516.75 259L516.75 160C516.75 155.25 519.5 153.25 523.5 152.5L639 129.75C642.5 129.25 646 131.25 646 136L646 251C646 255.75 643.25 257.75 639.25 258Z" fill="black" fill-opacity="0.85"/>
 </g>
</svg>
