<?xml version="1.0" encoding="UTF-8"?>
<!--Generator: Apple Native CoreSVG 326-->
<!DOCTYPE svg
PUBLIC "-//W3C//DTD SVG 1.1//EN"
       "http://www.w3.org/Graphics/SVG/1.1/DTD/svg11.dtd">
<svg version="1.1" xmlns="http://www.w3.org/2000/svg" xmlns:xlink="http://www.w3.org/1999/xlink" viewBox="0 0 927.75 677.25">
 <g>
  <rect height="677.25" opacity="0" width="927.75" x="0" y="0"/>
  <path d="M22.25 676.75C34.5 676.75 44.5 666.75 44.5 654.5L44.5 61.5C44.5 51.25 51 44.5 60.75 44.5L867 44.5C876.75 44.5 883.25 51.25 883.25 61.5L883.25 654.5C883.25 666.75 893 676.75 905.5 676.75C917.75 676.75 927.75 666.75 927.75 654.5L927.75 58.5C927.75 23.5 903.75 0 867.75 0L60 0C24 0 0 23.5 0 58.5L0 654.5C0 666.75 9.75 676.75 22.25 676.75Z" fill="black" fill-opacity="0.85"/>
  <path d="M88.75 214.25L839 214.25C844.25 214.25 848.5 210 848.5 204.75L848.5 88.75C848.5 83.5 844.25 79.25 839 79.25L88.75 79.25C83.5 79.25 79.25 83.5 79.25 88.75L79.25 204.75C79.25 210 83.5 214.25 88.75 214.25ZM394.5 161.5C385.75 161.5 379.5 155.5 379.5 146.75C379.5 138 385.75 131.75 394.5 131.75L533.25 131.75C542.25 131.75 548.25 138 548.25 146.75C548.25 155.5 542.25 161.5 533.25 161.5Z" fill="black" fill-opacity="0.85"/>
 </g>
</svg>
