<?xml version="1.0" encoding="UTF-8"?>
<!--Generator: Apple Native CoreSVG 326-->
<!DOCTYPE svg
PUBLIC "-//W3C//DTD SVG 1.1//EN"
       "http://www.w3.org/Graphics/SVG/1.1/DTD/svg11.dtd">
<svg version="1.1" xmlns="http://www.w3.org/2000/svg" xmlns:xlink="http://www.w3.org/1999/xlink" viewBox="0 0 772 677.25">
 <g>
  <rect height="677.25" opacity="0" width="772" x="0" y="0"/>
  <path d="M749.75 676.75C762 676.75 772 666.75 772 654.5L772 58.5C772 23.5 748 0 712 0L60 0C24 0 0 23.5 0 58.5L0 654.5C0 666.75 9.75 676.75 22.25 676.75C34.5 676.75 44.5 666.75 44.5 654.5L44.5 61.5C44.5 51.25 51 44.5 60.75 44.5L711.25 44.5C720.75 44.5 727.5 51.25 727.5 61.5L727.5 654.5C727.5 666.75 737.25 676.75 749.75 676.75Z" fill="black" fill-opacity="0.85"/>
  <path d="M683.25 666C688.5 666 692.5 661.75 692.5 656.5L692.5 88.75C692.5 83.5 688.5 79.25 683.25 79.25L412.75 79.25C407.5 79.25 403.25 83.5 403.25 88.75L403.25 656.5C403.25 661.75 407.5 666 412.75 666ZM620.5 421C611.75 421 605.5 414.75 605.5 406L605.5 349.5C605.5 340.75 611.75 334.5 620.5 334.5C629.25 334.5 635.25 340.75 635.25 349.5L635.25 406C635.25 414.75 629.25 421 620.5 421ZM359 666C364.25 666 368.5 661.75 368.5 656.5L368.5 88.75C368.5 83.5 364.25 79.25 359 79.25L88.75 79.25C83.5 79.25 79.25 83.5 79.25 88.75L79.25 656.5C79.25 661.75 83.5 666 88.75 666Z" fill="black" fill-opacity="0.85"/>
 </g>
</svg>
