<?xml version="1.0" encoding="UTF-8"?>
<!--Generator: Apple Native CoreSVG 326-->
<!DOCTYPE svg
PUBLIC "-//W3C//DTD SVG 1.1//EN"
       "http://www.w3.org/Graphics/SVG/1.1/DTD/svg11.dtd">
<svg version="1.1" xmlns="http://www.w3.org/2000/svg" xmlns:xlink="http://www.w3.org/1999/xlink" viewBox="0 0 772 677.25">
 <g>
  <rect height="677.25" opacity="0" width="772" x="0" y="0"/>
  <path d="M22.25 676.75C34.5 676.75 44.5 666.75 44.5 654.5L44.5 61.5C44.5 51.25 51 44.5 60.75 44.5L711.25 44.5C720.75 44.5 727.5 51.25 727.5 61.5L727.5 654.5C727.5 666.75 737.25 676.75 749.75 676.75C762 676.75 772 666.75 772 654.5L772 58.5C772 23.5 748 0 712 0L60 0C24 0 0 23.5 0 58.5L0 654.5C0 666.75 9.75 676.75 22.25 676.75Z" fill="black" fill-opacity="0.85"/>
  <path d="M400.25 666L683.25 666C688.5 666 692.5 661.75 692.5 656.5L692.5 88.75C692.5 83.5 688.5 79.25 683.25 79.25L400.25 79.25C395 79.25 390.75 83.5 390.75 88.75L390.75 656.5C390.75 661.75 395 666 400.25 666ZM463 421C454.25 421 448 414.75 448 406L448 349.5C448 340.75 454.25 334.5 463 334.5C471.75 334.5 477.75 340.75 477.75 349.5L477.75 406C477.75 414.75 471.75 421 463 421Z" fill="black" fill-opacity="0.85"/>
 </g>
</svg>
