<?xml version="1.0" encoding="UTF-8"?>
<!--Generator: Apple Native CoreSVG 326-->
<!DOCTYPE svg
PUBLIC "-//W3C//DTD SVG 1.1//EN"
       "http://www.w3.org/Graphics/SVG/1.1/DTD/svg11.dtd">
<svg version="1.1" xmlns="http://www.w3.org/2000/svg" xmlns:xlink="http://www.w3.org/1999/xlink" viewBox="0 0 475.75 677.25">
 <g>
  <rect height="677.25" opacity="0" width="475.75" x="0" y="0"/>
  <path d="M0 654.5C0 666.75 9.75 676.75 22.25 676.75C34.5 676.75 44.5 666.75 44.5 654.5L44.5 61.5C44.5 51.25 51 44.5 60.75 44.5L415 44.5C424.75 44.5 431.25 51.25 431.25 61.5L431.25 654.5C431.25 666.75 441 676.75 453.5 676.75C465.75 676.75 475.75 666.75 475.75 654.5L475.75 58.5C475.75 23.5 451.75 0 415.75 0L60 0C24 0 0 23.5 0 58.5Z" fill="black" fill-opacity="0.85"/>
  <path d="M79.25 659.5C79.25 665.25 84 668 89.5 665.75L194.75 618C202.5 614.75 205 612 205 604.75L205 140.25C205 133 202.5 130.5 195.5 127.5L89.5 79.5C84 77 79.25 80 79.25 85.5Z" fill="black" fill-opacity="0.85"/>
 </g>
</svg>
