<?xml version="1.0" encoding="UTF-8"?>
<!--Generator: Apple Native CoreSVG 326-->
<!DOCTYPE svg
PUBLIC "-//W3C//DTD SVG 1.1//EN"
       "http://www.w3.org/Graphics/SVG/1.1/DTD/svg11.dtd">
<svg version="1.1" xmlns="http://www.w3.org/2000/svg" xmlns:xlink="http://www.w3.org/1999/xlink" viewBox="0 0 709 798.003">
 <g>
  <rect height="798.003" opacity="0" width="709" x="0" y="0"/>
  <path d="M628.5 432.156C606.365 424.62 580.557 431.044 564.754 451.081C560.579 445.838 555.356 441.34 549.25 437.877C540.411 432.352 530.358 429.515 520.25 429.402L520.25 380.627C520.25 354.127 503 336.377 476.5 336.377L232.5 336.377C206 336.377 188.75 354.127 188.75 380.627L188.75 593.877C188.75 620.627 206 638.127 232.5 638.127L387.777 638.127C400.608 660.392 412.75 676.857 412.75 693.377C412.75 700.127 411 704.877 406.75 712.877C403.42 718.653 401.248 724.635 400.169 730.627L151 730.627C109 730.627 80.5 701.377 80.5 657.127L80.5 264.877L628.5 264.877ZM488.75 385.377L488.75 438.106C483.272 441.451 478.275 445.846 474.042 451.285C469.986 446.084 464.917 441.607 459 438.127C432.75 421.627 396.25 428.377 378.75 458.127C364.25 481.377 358.25 508.877 358.25 534.127C358.25 563.478 364.111 586.941 372.028 606.377L237 606.377C226.75 606.377 220.25 599.877 220.25 589.377L220.25 385.377C220.25 374.627 226.75 368.127 237 368.127L472 368.127C482.25 368.127 488.75 374.627 488.75 385.377ZM628.5 140.377L628.5 226.877L80.5 226.877L80.5 140.377C80.5 96.1265 109 66.8765 151 66.8765L558 66.8765C600 66.8765 628.5 96.1265 628.5 140.377ZM164.25 163.127C164.25 178.877 177.25 192.127 193.5 192.127C209.25 192.127 222.25 178.877 222.25 163.127C222.25 146.877 209.25 133.877 193.5 133.877C177.25 133.877 164.25 146.877 164.25 163.127ZM248.75 163.127C248.75 178.877 261.5 192.127 277.75 192.127C293.5 192.127 306.5 178.877 306.5 163.127C306.5 146.877 293.5 133.877 277.75 133.877C261.5 133.877 248.75 146.877 248.75 163.127ZM446.75 148.127C438 148.127 432 154.127 432 163.127C432 171.877 438 178.127 446.75 178.127L528.25 178.127C537.5 178.127 543.5 171.877 543.5 163.127C543.5 154.127 537.5 148.127 528.25 148.127Z" fill="black" fill-opacity="0.85"/>
  <path d="M445.5 756.877C453.75 762.127 467 761.877 474.25 749.627C484 732.377 489.25 712.877 489.25 693.377C489.25 622.627 434.5 587.377 434.5 534.127C434.5 519.877 437.25 509.627 445.5 495.377C451 485.627 447 475.127 439.25 470.377C430.75 465.127 418 466.127 411 477.877C400.75 494.627 396.25 514.377 396.25 534.127C396.25 602.377 450.75 638.377 450.75 693.377C450.75 707.627 447.75 717.377 439.75 731.627C434 741.877 438.75 752.127 445.5 756.877ZM536.5 756.627C545.25 762.127 558.5 761.377 565 749.377C574.75 732.127 580.25 712.877 580.25 693.377C580.25 622.377 525.25 587.127 525.25 533.877C525.25 519.877 528.25 509.627 536.25 495.127C542 485.377 537.75 475.127 529.75 470.377C521.5 465.377 508.75 466.127 501.75 477.627C491.75 494.627 487.25 514.127 487.25 533.877C487.25 602.377 541.75 638.127 541.75 693.377C541.75 707.377 538.75 717.127 530.75 731.377C524.75 741.877 529.5 751.877 536.5 756.627ZM627.25 756.377C636 761.877 649.25 761.127 655.75 749.127C665.75 731.877 671 712.627 671 693.127C671 622.127 616.25 586.877 616.25 533.627C616.25 519.627 619 509.377 627 494.877C632.75 485.127 628.5 474.877 620.75 470.127C612.25 465.127 599.5 465.877 592.5 477.377C582.5 494.377 578 513.877 578 533.627C578 602.127 632.5 637.877 632.5 693.127C632.5 707.127 629.5 716.877 621.5 731.127C615.75 741.627 620.25 751.627 627.25 756.377Z" fill="black" fill-opacity="0.85"/>
 </g>
</svg>
