<?xml version="1.0" encoding="UTF-8"?>
<!--Generator: Apple Native CoreSVG 326-->
<!DOCTYPE svg
PUBLIC "-//W3C//DTD SVG 1.1//EN"
       "http://www.w3.org/Graphics/SVG/1.1/DTD/svg11.dtd">
<svg version="1.1" xmlns="http://www.w3.org/2000/svg" xmlns:xlink="http://www.w3.org/1999/xlink" viewBox="0 0 620 664.25">
 <g>
  <rect height="664.25" opacity="0" width="620" x="0" y="0"/>
  <path d="M532.75 96.25L532.75 429.25L379.08 429.25C361.619 411.335 337.163 400.25 310 400.25C256.75 400.25 213.75 443.25 213.75 496.5C213.75 549.75 256.75 593 310 593C337.223 593 361.727 581.802 379.191 563.75L532.75 563.75L532.75 567.25C532.75 630.5 500 663 435.25 663L184.75 663C120 663 87.25 630.75 87.25 567.25L87.25 96.25C87.25 32.25 120 0 184.75 0L435.25 0C500 0 532.75 32.75 532.75 96.25ZM169 314.25C169 336.5 186.25 354 208.25 354C230 354 247.5 336.5 247.5 314.25C247.5 292.75 230 275 208.25 275C186.25 275 169 292.75 169 314.25ZM270.75 314.25C270.75 336.5 288.25 354 310 354C332 354 349.5 336.5 349.5 314.25C349.5 292.75 332 275 310 275C288.25 275 270.75 292.75 270.75 314.25ZM373 314.25C373 336.5 390.25 354 412 354C434 354 451.25 336.5 451.25 314.25C451.25 292.75 434 275 412 275C390.25 275 373 292.75 373 314.25ZM169 216.25C169 238 186.25 255.25 208.25 255.25C230 255.25 247.5 238 247.5 216.25C247.5 194 230 176.75 208.25 176.75C186.25 176.75 169 194 169 216.25ZM270.75 216.25C270.75 238 288.25 255.25 310 255.25C332 255.25 349.5 238 349.5 216.25C349.5 194 332 176.75 310 176.75C288.25 176.75 270.75 194 270.75 216.25ZM373 216.25C373 238 390.25 255.25 412 255.25C434 255.25 451.25 238 451.25 216.25C451.25 194 434 176.75 412 176.75C390.25 176.75 373 194 373 216.25ZM169 118.5C169 139.75 186.25 157.25 208.25 157.25C230 157.25 247.5 139.75 247.5 118.5C247.5 96.25 230 79 208.25 79C186.25 79 169 96.25 169 118.5ZM270.75 118.5C270.75 139.75 288.25 157.25 310 157.25C332 157.25 349.5 139.75 349.5 118.5C349.5 96.25 332 79 310 79C288.25 79 270.75 96.25 270.75 118.5ZM373 118.5C373 139.75 390.25 157.25 412 157.25C434 157.25 451.25 139.75 451.25 118.5C451.25 96.25 434 79 412 79C390.25 79 373 96.25 373 118.5Z" fill="black" fill-opacity="0.85"/>
  <path d="M310 534L553 534C573.5 534 590.25 517.25 590.25 496.5C590.25 476 573.5 459.25 553 459.25L310 459.25C289.5 459.25 272.5 476 272.5 496.5C272.5 517.25 289.5 534 310 534Z" fill="black" fill-opacity="0.85"/>
 </g>
</svg>
