<?xml version="1.0" encoding="UTF-8"?>
<!--Generator: Apple Native CoreSVG 326-->
<!DOCTYPE svg
PUBLIC "-//W3C//DTD SVG 1.1//EN"
       "http://www.w3.org/Graphics/SVG/1.1/DTD/svg11.dtd">
<svg version="1.1" xmlns="http://www.w3.org/2000/svg" xmlns:xlink="http://www.w3.org/1999/xlink" viewBox="0 0 768.5 640.75">
 <g>
  <rect height="640.75" opacity="0" width="768.5" x="0" y="0"/>
  <path d="M768.5 384.25C768.5 290 734.5 203.75 678 136.75C671.5 129 660.5 129.25 653.25 136.5L581 208.75C574.75 215 574.5 223.75 580 230.75C613.25 273.25 633 326.25 633 384.25C633 442.25 613.25 495.5 578.5 539.5C573.75 545.5 574 553 579.25 558.25L653.25 632.5C660.5 640 671.25 639.75 678 632C734.5 565 768.5 478.25 768.5 384.25Z" fill="black" fill-opacity="0.85"/>
  <path d="M384.25 135.25C442.25 135.25 495.75 155.25 538.25 189C545 194 553.25 193.5 559.5 187.25L632 114.75C639.5 107.5 639.25 96.75 631.5 90C564.75 34 478.25 0 384.25 0C290.25 0 203.75 34 137 90C129.25 96.75 129 107.5 136.25 114.75L209 187.25C215 193.5 224 193.75 231 188.25C273.25 155.25 326.5 135.25 384.25 135.25Z" fill="black" fill-opacity="0.85"/>
  <path d="M0 384.25C0 478.25 34 565 90.5 632C97 639.75 108 640 115.25 632.5L189.25 558.25C194.25 553 194.75 545.5 190 539.5C155.25 495.5 135.25 442.25 135.25 384.25C135.25 326.25 155 273.25 188.5 230.75C193.75 223.75 193.75 215 187.5 208.75L115 136.5C107.75 129.25 97 129 90.25 136.75C33.75 203.75 0 290 0 384.25Z" fill="black" fill-opacity="0.85"/>
  <path d="M423.25 528.5C432 528.5 443 528 451.5 526.25C460.25 524 467 519.75 467 511C467 502 460.75 497.75 451.75 497.75C442.5 497.75 437.75 499 424.75 499C354.25 499 311.75 458.25 311.75 387.25C311.75 317.25 352.25 275 424 275C435.75 275 445.5 276.5 451.75 276.5C460.75 276.5 467 271.75 467 262.75C467 254.75 461.75 250 451.5 247.5C444 245.75 433.75 245 423.25 245C342.25 245 277.5 292 277.5 387C277.5 477.5 336.75 528.5 423.25 528.5ZM233 358.5C233 363.75 237.5 368.25 242.75 368.25L419 368.25C424.5 368.25 428.75 363.75 428.75 358.5C428.75 353.25 424.5 348.75 419 348.75L242.75 348.75C237.5 348.75 233 353.25 233 358.5ZM233 415.25C233 420.5 237.5 425 242.75 425L419 425C424.5 425 428.75 420.5 428.75 415.25C428.75 410 424.5 405.5 419 405.5L242.75 405.5C237.5 405.5 233 410 233 415.25Z" fill="black" fill-opacity="0.85"/>
 </g>
</svg>
