<?xml version="1.0" encoding="UTF-8"?>
<!--Generator: Apple Native CoreSVG 326-->
<!DOCTYPE svg
PUBLIC "-//W3C//DTD SVG 1.1//EN"
       "http://www.w3.org/Graphics/SVG/1.1/DTD/svg11.dtd">
<svg version="1.1" xmlns="http://www.w3.org/2000/svg" xmlns:xlink="http://www.w3.org/1999/xlink" viewBox="0 0 652.75 771.25">
 <g>
  <rect height="771.25" opacity="0" width="652.75" x="0" y="0"/>
  <path d="M326.5 771.25C513.5 771.25 652.75 732 652.75 666C652.75 624.75 598.75 594.25 510 576.5L486.25 613.5C564.5 625.25 611.25 644.5 611.25 666C611.25 698.75 496 729.25 326.5 729.25C156.75 729.25 41.5 698.75 41.5 666C41.5 644.5 88.5 625.25 166.75 613.5L142.75 576.5C54 594.25 0 624.75 0 666C0 732 139.25 771.25 326.5 771.25ZM120 561L151.25 633.75C155.5 643.25 166.5 645 174 634L213 577C219.75 567.25 216.75 556.25 204 554L135.5 542.25C122.25 539.75 115.75 551 120 561ZM532.75 561C537 551 530.75 539.75 517.25 542.25L448.75 554C436.25 556.25 433.25 567.25 440 577L478.75 634C486.5 645 497.5 643.25 501.75 633.75Z" fill="black" fill-opacity="0.85"/>
  <path d="M72.25 340.25C72.25 416.75 140.25 496 206.5 496C264.25 496 297 445.5 329.5 357.25C335.75 357.25 340.25 356.75 344.5 355.25L344.5 441.25C344.5 487.25 366.75 510.25 411.25 510.25C487.75 510.25 567.25 442 567.25 376C567.25 320.5 520.5 285 428.25 252.75C428.25 246.75 427.75 242.25 426.5 237.75L511.75 237.75C557.75 237.75 581.25 215.25 581.25 171.25C581.25 94.5 512.5 15.25 446.5 15.25C389.75 15.25 356.5 68.25 323.75 153.75C317.5 153.75 313 154.25 308.75 155.75L308.75 70.25C308.75 24.25 286.5 1 241.75 1C165.5 1.25 86.25 69.25 86.25 135.25C86.25 193 136.5 226 224.25 258.25C224.25 264.75 224.75 268.75 226 273L141 273C95 273 72.25 296 72.25 340.25ZM326.5 307.5C297.75 307.5 274.25 284.25 274.25 255.25C274.25 226.5 297.75 203 326.5 203C355.5 203 378.75 226.5 378.75 255.25C378.75 284.25 355.5 307.5 326.5 307.5Z" fill="black" fill-opacity="0.85"/>
 </g>
</svg>
