<?xml version="1.0" encoding="UTF-8"?>
<!--Generator: Apple Native CoreSVG 326-->
<!DOCTYPE svg
PUBLIC "-//W3C//DTD SVG 1.1//EN"
       "http://www.w3.org/Graphics/SVG/1.1/DTD/svg11.dtd">
<svg version="1.1" xmlns="http://www.w3.org/2000/svg" xmlns:xlink="http://www.w3.org/1999/xlink" viewBox="0 0 768.5 640.75">
 <g>
  <rect height="640.75" opacity="0" width="768.5" x="0" y="0"/>
  <path d="M768.5 384.25C768.5 290 734.5 203.75 678 136.75C671.5 129 660.5 129.25 653.25 136.5L581 208.75C574.75 215 574.5 223.75 580 230.75C613.25 273.25 633 326.25 633 384.25C633 442.25 613.25 495.5 578.5 539.5C573.75 545.5 574 553 579.25 558.25L653.25 632.5C660.5 640 671.25 639.75 678 632C734.5 565 768.5 478.25 768.5 384.25Z" fill="black" fill-opacity="0.85"/>
  <path d="M384.25 135.25C442.25 135.25 495.75 155.25 538.25 189C545 194 553.25 193.5 559.5 187.25L632 114.75C639.5 107.5 639.25 96.75 631.5 90C564.75 34 478.25 0 384.25 0C290.25 0 203.75 34 137 90C129.25 96.75 129 107.5 136.25 114.75L209 187.25C215 193.5 224 193.75 231 188.25C273.25 155.25 326.5 135.25 384.25 135.25Z" fill="black" fill-opacity="0.85"/>
  <path d="M0 384.25C0 478.25 34 565 90.5 632C97 639.75 108 640 115.25 632.5L189.25 558.25C194.25 553 194.75 545.5 190 539.5C155.25 495.5 135.25 442.25 135.25 384.25C135.25 326.25 155 273.25 188.5 230.75C193.75 223.75 193.75 215 187.5 208.75L115 136.5C107.75 129.25 97 129 90.25 136.75C33.75 203.75 0 290 0 384.25Z" fill="black" fill-opacity="0.85"/>
  <path d="M386.25 529C455 529 496.75 487.5 496.75 415L496.75 400.25C496.75 389.25 490 382.5 480 382.5L392 382.5L392 409.5L464.5 409.5L464.5 422.25C464.5 468 436.25 499.75 386.5 499.75C326.75 499.75 297.25 448.75 297.25 386.5C297.25 328 324.25 274.25 386 274.25C421.25 274.25 452.25 295 460.75 326C464 334.5 467.75 338.25 477 338.25C485.75 338.25 491.75 332.5 491.75 323.75C491.75 319.75 491.25 314.75 489 309.5C473.5 266.75 428.5 245.25 386 245.25C305.5 245.25 262.5 306.75 262.5 386.75C262.5 469 307.5 529 386.25 529ZM384.75 566.75C390.5 566.75 394.5 562.5 394.5 556.75L394.5 218.5C394.5 212.5 390.5 208.25 384.75 208.25C378.75 208.25 374.75 212.5 374.75 218.5L374.75 556.75C374.75 562.5 378.75 566.75 384.75 566.75Z" fill="black" fill-opacity="0.85"/>
 </g>
</svg>
