<?xml version="1.0" encoding="UTF-8"?>
<!--Generator: Apple Native CoreSVG 326-->
<!DOCTYPE svg
PUBLIC "-//W3C//DTD SVG 1.1//EN"
       "http://www.w3.org/Graphics/SVG/1.1/DTD/svg11.dtd">
<svg version="1.1" xmlns="http://www.w3.org/2000/svg" xmlns:xlink="http://www.w3.org/1999/xlink" viewBox="0 0 651.25 651.75">
 <g>
  <rect height="651.75" opacity="0" width="651.25" x="0" y="0"/>
  <path d="M325.5 651.25C505.25 651.25 651.25 505.5 651.25 325.75C651.25 146 505.25 0 325.5 0C145.75 0 0 146 0 325.75C0 505.5 145.75 651.25 325.5 651.25ZM325.5 604.75C171.25 604.75 46.5 480 46.5 325.75C46.5 171.5 171.25 46.75 325.5 46.75C479.75 46.75 604.5 171.5 604.5 325.75C604.5 480 479.75 604.75 325.5 604.75Z" fill="black" fill-opacity="0.85"/>
  <path d="M178 450C178 472.25 191.25 485.25 214 485.25L437.25 485.25C459.75 485.25 473 472.25 473 450L473 309.5L335.75 194.25C329 188.5 321.75 188.75 315 194.25L178 309.25ZM368.75 456.75L282.25 456.75L282.25 352.5C282.25 345.25 287.25 340.5 294.5 340.5L356.5 340.5C364 340.5 368.75 345.25 368.75 352.5ZM126.25 297.5C126.25 304.25 131.75 310.75 140.5 310.75C144.75 310.75 148.25 308.25 151.25 305.5L316.25 167.25C322.75 161.75 328.5 162.25 334.75 167.25L499.25 305.5C503 308.25 506.25 310.75 510.5 310.75C518 310.75 524.25 305.5 524.25 298C524.25 293 522.75 289.5 519.25 286.5L349.25 143.75C335 131.5 316.5 131.5 302 143.75L131.5 286.5C128 289.5 126.25 293.5 126.25 297.5ZM434.5 226.75L473 259.25L473 181.5C473 175 468.75 170.5 462.25 170.5L445.5 170.5C439 170.5 434.5 175 434.5 181.5Z" fill="black" fill-opacity="0.85"/>
 </g>
</svg>
