<?xml version="1.0" encoding="UTF-8"?>
<!--Generator: Apple Native CoreSVG 326-->
<!DOCTYPE svg
PUBLIC "-//W3C//DTD SVG 1.1//EN"
       "http://www.w3.org/Graphics/SVG/1.1/DTD/svg11.dtd">
<svg version="1.1" xmlns="http://www.w3.org/2000/svg" xmlns:xlink="http://www.w3.org/1999/xlink" viewBox="0 0 484.372 757.75">
 <g>
  <rect height="757.75" opacity="0" width="484.372" x="0" y="0"/>
  <path d="M242.186 369.25C312.186 369.25 381.436 365.25 436.686 356.75C479.686 350.25 495.186 318.25 476.686 276.25L380.936 60C363.186 19.75 332.936 0 288.436 0L196.186 0C151.686 0 121.436 19.75 103.686 60L7.93591 276.25C-10.5641 318.25 4.68591 350.25 47.6859 356.75C103.186 365.25 172.436 369.25 242.186 369.25ZM219.186 416.75L264.936 416.75L264.936 356.5L219.186 356.5ZM190.436 757.25L293.686 757.25C371.936 757.25 418.186 716.5 418.186 647.5C418.186 602 403.936 535.5 379.686 469C366.186 431.25 335.186 409 292.436 409L191.936 409C148.936 409 118.186 431.25 104.436 469C80.1859 535.5 65.9359 602 65.9359 647.5C65.9359 716.5 112.186 757.25 190.436 757.25Z" fill="black" fill-opacity="0.85"/>
 </g>
</svg>
