<?xml version="1.0" encoding="UTF-8"?>
<!--Generator: Apple Native CoreSVG 326-->
<!DOCTYPE svg
PUBLIC "-//W3C//DTD SVG 1.1//EN"
       "http://www.w3.org/Graphics/SVG/1.1/DTD/svg11.dtd">
<svg version="1.1" xmlns="http://www.w3.org/2000/svg" xmlns:xlink="http://www.w3.org/1999/xlink" viewBox="0 0 596.25 733.75">
 <g>
  <rect height="733.75" opacity="0" width="596.25" x="0" y="0"/>
  <path d="M298.25 160.25C370.25 160.25 431.75 117.75 441.25 58.5C444.5 37.75 433.75 22 413 16C351.25-1.5 245-1.5 183.25 16C162.5 22 152 37.75 155.25 58.5C164.75 117.75 226.25 160.25 298.25 160.25ZM276 332.25L320.25 332.25L320.25 144L276 144ZM298.25 458.25C415.25 458.25 513.5 480 573 518.25C544 461.5 490 406.75 427 376C409.5 315.25 357 276.5 298.25 276.5C239.25 276.5 186.75 315.25 169.25 376C106.25 406.75 52.25 461.5 23.25 518.25C82.75 480 181 458.25 298.25 458.25ZM298.25 733.75C477 733.75 596.25 683.25 596.25 608.75C596.25 535 448.5 495.75 298.25 495.75C148 495.75 0 533.75 0 608.75C0 683.25 119.25 733.75 298.25 733.75ZM298.25 629.25C236.75 629.25 184.5 594.5 181 549.5C216 543.5 255.75 540 298.25 540C340 540 380 543.75 415.25 549.75C411.5 594.25 360 629.25 298.25 629.25Z" fill="black" fill-opacity="0.85"/>
 </g>
</svg>
