<?xml version="1.0" encoding="UTF-8"?>
<!--Generator: Apple Native CoreSVG 326-->
<!DOCTYPE svg
PUBLIC "-//W3C//DTD SVG 1.1//EN"
       "http://www.w3.org/Graphics/SVG/1.1/DTD/svg11.dtd">
<svg version="1.1" xmlns="http://www.w3.org/2000/svg" xmlns:xlink="http://www.w3.org/1999/xlink" viewBox="0 0 585.5 751.25">
 <g>
  <rect height="751.25" opacity="0" width="585.5" x="0" y="0"/>
  <path d="M320 393.25L576.25 137C594 119.25 584.5 97 559.75 89.25C493.5 68 427.75 63.25 343.25 68.5L327 51.25C299.5 22 261 21 231.5 49.5C203.25 79 203.5 118.5 233.25 145L250.75 160.5C245.25 244.25 249.75 310.5 270.75 377.5C278.75 402.75 300.75 412.75 320 393.25ZM243 90.75L272.5 61L219.75 8.75C211.5 0.5 198.5 0.5 190.5 8.75C182.5 16.5 182.25 29.5 190.5 38ZM462 367.75C510 367.75 549.5 328 549.5 280.5C549.5 261.5 543 242.75 530.25 227.5L409 348.75C424 361.25 442.75 367.75 462 367.75ZM54.75 426.75L288.75 211.5L258.5 179.5L24.5 394.75ZM44.5 451.5C69.5 451.5 89.25 432.25 89.25 407C89.25 382.25 69.5 362.25 44.5 362.25C19.5 362.25 0 382.25 0 407C0 432.25 19.5 451.5 44.5 451.5ZM173.25 565.75L204.5 534.5L53 383.25L21.75 414.5ZM182.5 596.25C207.25 596.25 227 576.75 227 551.5C227 526.75 207.25 507 182.5 507C157.25 507 137.75 526.75 137.75 551.5C137.75 576.75 157.25 596.25 182.5 596.25ZM160.25 712.5L204.5 712.5L204.5 554L160.25 554ZM37.5 751.25L359.25 751.25C369.5 751.25 376.75 743.75 376.75 733C376.75 712 359 697 330.25 697L66.5 697C38 697 20.25 712 20.25 733C20.25 743.75 27.25 751.25 37.5 751.25Z" fill="black" fill-opacity="0.85"/>
 </g>
</svg>
