<?xml version="1.0" encoding="UTF-8"?>
<!--Generator: Apple Native CoreSVG 326-->
<!DOCTYPE svg
PUBLIC "-//W3C//DTD SVG 1.1//EN"
       "http://www.w3.org/Graphics/SVG/1.1/DTD/svg11.dtd">
<svg version="1.1" xmlns="http://www.w3.org/2000/svg" xmlns:xlink="http://www.w3.org/1999/xlink" viewBox="0 0 768.5 637.929">
 <g>
  <rect height="637.929" opacity="0" width="768.5" x="0" y="0"/>
  <path d="M768.5 382.839C768.5 181.589 613.75 16.5894 417.25 0.089388C407-0.910612 399 6.58939 399 17.0894L399 119.339C399 127.839 405.25 134.589 414 135.339C537.25 150.339 633 255.339 633 382.839C633 440.839 613.25 494.089 578.25 538.089C573.5 544.089 573.75 551.589 579 556.839L653.25 631.089C660.75 638.339 671.5 638.339 678 630.339C734.5 563.339 768.5 476.839 768.5 382.839Z" fill="black" fill-opacity="0.85"/>
  <path d="M0 382.839C0 477.089 34 563.839 90.75 630.839C97 638.339 107.5 638.339 115 631.089L189.25 556.839C194.5 551.589 194.75 544.089 190 538.089C155 494.089 135.25 440.839 135.25 382.839C135.25 255.339 231.25 150.339 354.25 135.339C363.25 134.589 369.25 127.839 369.25 119.339L369.25 17.0894C369.25 6.58939 361.5-0.910612 351.25 0.089388C154.5 16.5894 0 181.589 0 382.839Z" fill="black" fill-opacity="0.85"/>
  <path d="M264.75 528.089L484.25 528.089C492.5 528.089 498.5 522.339 498.5 514.339C498.5 506.339 492.5 500.589 484.25 500.589L411.5 500.589C334.75 500.589 282.5 444.589 282.5 378.839C282.5 313.339 328 275.089 386 275.089C442.25 275.089 486.5 313.589 488 365.589C488.25 375.589 494.25 382.339 503.75 382.339C513 382.339 519.25 375.339 519.25 365.589C518.5 295.339 455.5 245.839 386 245.839C309 245.839 250.25 298.839 250.25 373.589C250.25 427.339 278 477.839 326 499.839L326 500.839L264.75 500.839C256.25 500.839 250.5 506.339 250.5 514.339C250.5 522.339 256.25 528.089 264.75 528.089ZM353.75 378.339C359.75 378.339 363.75 374.339 363.75 368.589L363.75 217.339C363.75 211.839 359.75 207.589 353.75 207.589C348.25 207.589 344.25 211.839 344.25 217.339L344.25 368.589C344.25 374.339 348.25 378.339 353.75 378.339ZM418.75 378.339C424.75 378.339 428.75 374.339 428.75 368.589L428.75 217.339C428.75 211.839 424.75 207.589 418.75 207.589C413.25 207.589 409 211.839 409 217.339L409 368.589C409 374.339 413.25 378.339 418.75 378.339Z" fill="black" fill-opacity="0.85"/>
 </g>
</svg>
