<?xml version="1.0" encoding="UTF-8"?>
<!--Generator: Apple Native CoreSVG 326-->
<!DOCTYPE svg
PUBLIC "-//W3C//DTD SVG 1.1//EN"
       "http://www.w3.org/Graphics/SVG/1.1/DTD/svg11.dtd">
<svg version="1.1" xmlns="http://www.w3.org/2000/svg" xmlns:xlink="http://www.w3.org/1999/xlink" viewBox="0 0 651.25 651.75">
 <g>
  <rect height="651.75" opacity="0" width="651.25" x="0" y="0"/>
  <path d="M325.5 651.25C505.25 651.25 651.25 505.5 651.25 325.75C651.25 146 505.25 0 325.5 0C145.75 0 0 146 0 325.75C0 505.5 145.75 651.25 325.5 651.25ZM325.5 604.75C171.25 604.75 46.5 480 46.5 325.75C46.5 171.5 171.25 46.75 325.5 46.75C479.75 46.75 604.5 171.5 604.5 325.75C604.5 480 479.75 604.75 325.5 604.75Z" fill="black" fill-opacity="0.85"/>
  <path d="M213.25 232.25C213.25 295.5 256 312.5 262.5 426.25C263 432.25 267 436 272.5 436L377.75 436C383.75 436 387.5 432.25 388 426.25C394.25 312.5 437.25 296.75 437.25 233.5C437.25 176.5 387.75 130.25 325 130.25C262.5 130.25 213.25 175.25 213.25 232.25ZM275.25 477L375.25 477C381.75 477 387.25 471.5 387.25 465C387.25 458.25 381.75 453 375.25 453L275.25 453C268.75 453 263.25 458.25 263.25 465C263.25 471.5 268.75 477 275.25 477ZM325.25 521C348.25 521 366.25 510.25 368.25 494L282.5 494C284 510.25 302 521 325.25 521Z" fill="black" fill-opacity="0.85"/>
 </g>
</svg>
