<?xml version="1.0" encoding="UTF-8"?>
<!--Generator: Apple Native CoreSVG 326-->
<!DOCTYPE svg
PUBLIC "-//W3C//DTD SVG 1.1//EN"
       "http://www.w3.org/Graphics/SVG/1.1/DTD/svg11.dtd">
<svg version="1.1" xmlns="http://www.w3.org/2000/svg" xmlns:xlink="http://www.w3.org/1999/xlink" viewBox="0 0 711.75 766.25">
 <g>
  <rect height="766.25" opacity="0" width="711.75" x="0" y="0"/>
  <path d="M208.5 692.25C166 692.25 131.75 670.25 131 638L285.75 638C285.25 670.25 250.25 692.25 208.5 692.25ZM305.75 597.5C305.75 607 297.75 614.25 288.75 614.25L127.75 614.25C118.5 614.25 111 606.75 111 597.5C111 588 118.5 580.5 127.75 580.5L288.75 580.5C297.75 580.5 305.75 587.75 305.75 597.5ZM281.894 97.3612C257.115 132.086 242.75 173.963 242.75 219.25C242.75 328.348 288.272 369.804 314.964 475.989C311.286 494.726 308.225 515.944 306 540C305.25 549.75 299 556.5 288.75 556.5L127.5 556.5C117 556.5 110.75 549.75 110 540C94 367 34.75 340.75 34.75 242.5C34.75 154 111.5 82 208 82C234.557 82 259.618 87.4529 281.894 97.3612Z" fill="black" fill-opacity="0.85"/>
  <path d="M477.25 34.75C365.5 34.75 277.5 117.25 277.5 219.25C277.5 332.25 346.25 362.5 365 565.75C366.25 576.75 371.75 583 383.5 583L570.75 583C582.5 583 588.25 576.75 589.25 565.75C608 362.5 677 332.25 677 219.25C677 117.25 589 34.75 477.25 34.75ZM383.75 645.25L571 645.25C580.75 645.25 588.5 638 588.5 628.25C588.5 618.5 580.75 611 571 611L383.75 611C374 611 366.5 618.5 366.5 628.25C366.5 638 374 645.25 383.75 645.25ZM477.25 731.25C524.25 731.25 562.75 708 564.75 673.25L389.75 673.25C391.75 708 430.25 731.25 477.25 731.25Z" fill="black" fill-opacity="0.85"/>
 </g>
</svg>
