<?xml version="1.0" encoding="UTF-8"?>
<!--Generator: Apple Native CoreSVG 326-->
<!DOCTYPE svg
PUBLIC "-//W3C//DTD SVG 1.1//EN"
       "http://www.w3.org/Graphics/SVG/1.1/DTD/svg11.dtd">
<svg version="1.1" xmlns="http://www.w3.org/2000/svg" xmlns:xlink="http://www.w3.org/1999/xlink" viewBox="0 0 616.25 651.75">
 <g>
  <rect height="651.75" opacity="0" width="616.25" x="0" y="0"/>
  <path d="M308 321.5C451.5 321.5 561.25 357 616.25 418.25L616.25 170C616.25 67.75 494.75 0 308 0C121.5 0 0 67.75 0 170L0 418.25C54.75 357 164.75 321.5 308 321.5ZM308 651.25C486.5 651.25 615.25 594 615.25 506.25C615.25 418.75 486.5 361.25 308 361.25C129.75 361.25 1 418.75 1 506.25C1 594 129.75 651.25 308 651.25ZM308 495.25C238 495.25 181.25 459.25 177.5 415.25C215.5 407.25 259.75 402.5 308 402.5C356.75 402.5 400.75 407.25 438.75 415.25C435 459.25 378 495.25 308 495.25Z" fill="black" fill-opacity="0.85"/>
 </g>
</svg>
