<?xml version="1.0" encoding="UTF-8"?>
<!--Generator: Apple Native CoreSVG 326-->
<!DOCTYPE svg
PUBLIC "-//W3C//DTD SVG 1.1//EN"
       "http://www.w3.org/Graphics/SVG/1.1/DTD/svg11.dtd">
<svg version="1.1" xmlns="http://www.w3.org/2000/svg" xmlns:xlink="http://www.w3.org/1999/xlink" viewBox="0 0 1048.75 752.75">
 <g>
  <rect height="752.75" opacity="0" width="1048.75" x="0" y="0"/>
  <path d="M524.5 752.75C663.75 752.75 770 687.75 770 601.5C770 515 663.75 449.75 524.5 449.75C385.5 449.75 279.25 515.25 279.25 601.5C279.25 687.5 385.5 752.75 524.5 752.75ZM524.5 717.5C403.75 717.5 314.25 666 314.25 601.5C314.25 536.5 404 485 524.5 485C644.5 485 734.25 536.5 734.25 601.5C734.25 666 644.75 717.5 524.5 717.5ZM524.5 694C614.75 694 681.25 657 681.25 605.75C681.25 554.5 614.75 517.5 524.5 517.5C434.25 517.5 368 554.5 368 605.75C368 656.75 434.25 694 524.5 694ZM524.5 663C451 663 398.75 637.5 398.75 605.75C398.75 573.75 451 548.25 524.5 548.25C598.25 548.25 650.25 573.75 650.25 605.75C650.25 637.5 598 663 524.5 663ZM524.5 618.25C579 618.25 626.25 594 641.75 560C610.25 543 569.5 532 524.5 532C480.5 532 439.25 543 408 560C423.5 593.75 470.25 618.25 524.5 618.25Z" fill="black" fill-opacity="0.85"/>
  <path d="M803.25 438.25C942.25 438.25 1048.75 373.25 1048.75 286.75C1048.75 200.5 942.25 135 803.25 135C664.25 135 558 200.75 558 286.75C558 373 664.25 438.25 803.25 438.25ZM803.25 402.75C682.5 402.75 593 351.5 593 286.75C593 222.25 682.75 170.25 803.25 170.25C923.25 170.25 1012.75 222.25 1012.75 286.75C1012.75 351.5 923.5 402.75 803.25 402.75ZM803.25 379.5C893.25 379.5 960 342.5 960 291.5C960 240 893.25 202.75 803.25 202.75C712.75 202.75 646.25 240 646.25 291.5C646.25 342.5 712.75 379.5 803.25 379.5ZM803.25 348.75C729.5 348.75 677.5 323 677.5 291.5C677.5 259.25 729.5 233.75 803.25 233.75C877 233.75 929 259.25 929 291.5C929 323 876.75 348.75 803.25 348.75ZM803.25 303.75C857.75 303.75 904.75 279.75 920.25 245.75C889 228.25 847.75 217.5 803.25 217.5C759 217.5 718 228.25 686.75 245.75C702 279.5 749.25 303.75 803.25 303.75Z" fill="black" fill-opacity="0.85"/>
  <path d="M245.75 438.25C384.5 438.25 490.75 373 490.75 286.75C490.75 200.75 384.5 135 245.75 135C106.5 135 0 200.5 0 286.75C0 373.25 106.5 438.25 245.75 438.25ZM245.75 402.75C125 402.75 36 351.5 36 286.75C36 222.25 125.25 170.25 245.75 170.25C366 170.25 455.75 222.25 455.75 286.75C455.75 351.5 366 402.75 245.75 402.75ZM245.75 379.5C336.25 379.5 403 342.5 403 291.5C403 240 336.25 202.75 245.75 202.75C155.75 202.75 89.25 240 89.25 291.5C89.25 342.5 155.75 379.5 245.75 379.5ZM245.75 348.75C172.25 348.75 120.25 323 120.25 291.5C120.25 259.25 172.25 233.75 245.75 233.75C319.5 233.75 371.75 259.25 371.75 291.5C371.75 323 319.5 348.75 245.75 348.75ZM245.75 303.75C299.75 303.75 346.75 279.5 362 245.75C330.75 228.25 290 217.5 245.75 217.5C201.25 217.5 160 228.25 128.5 245.75C144 279.75 191 303.75 245.75 303.75Z" fill="black" fill-opacity="0.85"/>
 </g>
</svg>
