<?xml version="1.0" encoding="UTF-8"?>
<!--Generator: Apple Native CoreSVG 326-->
<!DOCTYPE svg
PUBLIC "-//W3C//DTD SVG 1.1//EN"
       "http://www.w3.org/Graphics/SVG/1.1/DTD/svg11.dtd">
<svg version="1.1" xmlns="http://www.w3.org/2000/svg" xmlns:xlink="http://www.w3.org/1999/xlink" viewBox="0 0 587.75 587.75">
 <g>
  <rect height="587.75" opacity="0" width="587.75" x="0" y="0"/>
  <path d="M97.25 587.75L490.25 587.75C555 587.75 587.75 555 587.75 491.5L587.75 96.5C587.75 32.75 555 0 490.25 0L97.25 0C32.75 0 0 32.5 0 96.5L0 491.5C0 555.5 32.75 587.75 97.25 587.75ZM98.25 543.5C63.25 543.5 44.25 525 44.25 489L44.25 98.75C44.25 63 63.25 44.25 98.25 44.25L489.5 44.25C523.75 44.25 543.5 63 543.5 98.75L543.5 489C543.5 525 523.75 543.5 489.5 543.5Z" fill="black" fill-opacity="0.85"/>
  <path d="M208 127.75C195 127.75 185.75 136.75 185.75 150L185.75 438C185.75 451 195 460.5 208 460.5L379.5 460.5C392.5 460.5 402 451 402 438L402 150C402 136.75 392.5 127.75 379.5 127.75ZM229.5 323.5L358 323.5C364.25 323.5 368.25 327.75 368.25 334L368.25 416.25C368.25 422.5 364.25 426.75 358 426.75L229.5 426.75C223.75 426.75 219.5 422.5 219.5 416.25L219.5 334C219.5 327.75 223.75 323.5 229.5 323.5Z" fill="black" fill-opacity="0.85"/>
 </g>
</svg>
