<?xml version="1.0" encoding="UTF-8"?>
<!--Generator: Apple Native CoreSVG 326-->
<!DOCTYPE svg
PUBLIC "-//W3C//DTD SVG 1.1//EN"
       "http://www.w3.org/Graphics/SVG/1.1/DTD/svg11.dtd">
<svg version="1.1" xmlns="http://www.w3.org/2000/svg" xmlns:xlink="http://www.w3.org/1999/xlink" viewBox="0 0 738.995 712.88">
 <g>
  <rect height="712.88" opacity="0" width="738.995" x="0" y="0"/>
  <path d="M28.9977 252.065C-0.502302 269.315-8.2523 296.565 9.2477 326.565L55.4977 406.815C67.9977 428.065 85.4977 436.065 105.748 436.065L348.498 436.065L194.498 525.065C164.998 542.315 157.748 569.315 174.748 599.065L220.998 679.565C238.498 709.815 265.248 716.565 294.748 699.565L709.998 460.065C739.498 443.065 747.248 415.815 729.748 385.815L683.498 305.565C671.748 285.565 655.498 276.565 633.998 276.565L389.998 276.565L544.498 187.065C573.998 170.065 581.248 143.065 564.248 113.315L517.998 32.8152C500.498 2.56519 473.748-4.43481 444.248 12.8152ZM49.4977 281.815L459.748 45.5652C470.998 38.8152 481.498 42.0652 488.498 54.0652L531.498 128.315C538.498 140.065 535.498 151.065 523.998 157.565L114.248 394.065C102.998 400.815 91.9977 397.565 84.9977 385.815L42.4977 311.815C35.4977 299.815 37.9977 288.815 49.4977 281.815ZM177.248 399.815L327.248 312.815L561.248 312.815L411.248 399.815ZM214.998 554.565L624.498 318.315C635.998 311.565 646.998 314.815 653.998 326.565L696.498 400.565C703.498 412.565 700.998 423.565 689.248 430.315L279.248 666.815C267.998 673.315 257.498 670.315 250.498 658.315L207.248 583.815C200.498 572.315 203.498 561.315 214.998 554.565ZM495.248 32.0652L511.498 60.0652L564.248 29.5652C571.748 25.0652 574.748 15.5652 569.998 7.81519C565.498 0.31519 555.998-2.18481 548.248 2.06519ZM537.498 105.065L553.748 133.065L605.998 102.815C614.748 98.0652 616.998 89.5652 611.748 80.8152C607.498 72.8152 597.998 70.3152 590.248 74.8152ZM423.998 140.565C430.498 152.315 445.248 156.065 456.998 149.815C468.748 142.565 472.748 128.065 465.998 116.065C459.248 104.565 444.498 100.565 432.998 107.065C420.998 114.315 417.498 128.815 423.998 140.565ZM345.248 186.065C351.498 197.815 365.998 201.815 377.748 195.315C389.748 188.315 394.248 173.565 386.748 162.315C380.248 150.065 365.248 146.315 353.748 153.065C341.748 160.065 338.248 174.315 345.248 186.065ZM265.748 232.315C272.498 243.565 287.498 247.315 298.998 241.065C310.498 234.065 314.498 219.065 307.748 208.065C300.998 196.065 285.998 192.065 274.998 198.815C262.998 205.565 258.748 220.315 265.748 232.315ZM186.248 278.065C193.248 289.315 207.998 293.315 219.748 286.815C231.748 279.815 235.748 264.815 228.248 253.565C222.498 241.565 207.498 237.565 195.248 244.565C183.748 250.815 179.498 266.315 186.248 278.065ZM107.248 323.565C113.748 335.315 128.498 339.065 140.748 332.315C151.998 325.565 155.998 310.815 149.498 299.315C142.748 287.315 127.998 283.565 116.248 290.065C104.248 296.815 100.498 311.815 107.248 323.565ZM243.748 680.065L227.498 652.065L174.748 682.815C167.248 687.315 164.248 696.565 168.998 704.565C173.498 712.065 182.998 714.565 190.748 710.065ZM201.498 607.065L185.248 579.065L132.748 609.315C124.248 614.315 121.998 622.815 127.248 631.315C131.498 639.315 140.998 641.815 148.748 637.565ZM589.498 412.815C596.248 424.815 610.998 428.565 622.748 422.065C634.748 415.565 638.498 400.315 631.748 388.565C624.998 376.815 610.498 373.315 598.248 379.815C586.998 386.815 582.998 401.315 589.498 412.815ZM510.748 458.565C516.498 470.565 531.498 474.565 543.748 467.815C555.248 461.315 559.498 446.065 552.748 434.315C545.748 422.815 530.998 419.065 519.248 425.315C507.248 432.315 503.248 447.565 510.748 458.565ZM431.248 504.315C437.998 516.315 452.998 520.315 463.998 513.565C475.998 506.565 480.248 492.065 473.248 480.065C466.498 468.565 451.498 465.065 439.998 471.065C428.498 478.315 424.498 493.065 431.248 504.315ZM352.248 549.815C358.748 562.065 373.748 565.815 385.248 559.065C397.248 552.065 400.748 537.815 393.748 526.065C387.248 514.315 372.998 510.565 361.248 516.815C349.248 523.815 344.748 538.565 352.248 549.815ZM272.998 596.315C279.748 607.815 294.498 611.565 305.998 605.315C317.998 597.815 321.498 583.565 314.748 571.815C308.498 560.065 293.748 556.065 281.998 562.565C270.248 569.565 266.248 584.315 272.998 596.315Z" fill="black" fill-opacity="0.85"/>
 </g>
</svg>
