<?xml version="1.0" encoding="UTF-8"?>
<!--Generator: Apple Native CoreSVG 326-->
<!DOCTYPE svg
PUBLIC "-//W3C//DTD SVG 1.1//EN"
       "http://www.w3.org/Graphics/SVG/1.1/DTD/svg11.dtd">
<svg version="1.1" xmlns="http://www.w3.org/2000/svg" xmlns:xlink="http://www.w3.org/1999/xlink" viewBox="0 0 651.25 651.75">
 <g>
  <rect height="651.75" opacity="0" width="651.25" x="0" y="0"/>
  <path d="M651.25 325.75C651.25 505 505 651.25 325.5 651.25C146.25 651.25 0 505 0 325.75C0 146.25 146.25 0 325.5 0C505 0 651.25 146.25 651.25 325.75ZM281.5 499C283 515.75 301.5 527 325.5 527C349.25 527 367.75 515.75 369.75 499ZM274 456.75C267.25 456.75 261.5 462.5 261.5 469.25C261.5 476 267.25 481.5 274 481.5L377 481.5C383.75 481.5 389.5 476 389.5 469.25C389.5 462.5 383.75 456.75 377 456.75ZM210 229.5C210 294.75 254 312 260.75 429.25C261.25 435.25 265.25 439.25 271.25 439.25L379.5 439.25C385.75 439.25 389.75 435.25 390.25 429.25C396.5 312 441 296 441 230.75C441 171.75 390 124.25 325.25 124.25C260.75 124.25 210 170.5 210 229.5Z" fill="black" fill-opacity="0.85"/>
 </g>
</svg>
