<?xml version="1.0" encoding="UTF-8"?>
<!--Generator: Apple Native CoreSVG 326-->
<!DOCTYPE svg
PUBLIC "-//W3C//DTD SVG 1.1//EN"
       "http://www.w3.org/Graphics/SVG/1.1/DTD/svg11.dtd">
<svg version="1.1" xmlns="http://www.w3.org/2000/svg" xmlns:xlink="http://www.w3.org/1999/xlink" viewBox="0 0 518.5 724.25">
 <g>
  <rect height="724.25" opacity="0" width="518.5" x="0" y="0"/>
  <path d="M0 126C0 236 173 328.75 173 520.25L173 552.5C173 562.25 178.25 567.75 188.25 567.75L330.25 567.75C340.5 567.75 345.75 562.25 345.75 552.5L345.75 520.25C345.75 327.75 518.5 238.5 518.5 126C518.5 45.5 424 0 259.25 0C94.75 0 0 45.5 0 126ZM41.75 126C41.75 77.75 116.75 41.75 259.25 41.75C401.75 41.75 476.75 77.75 476.75 126C476.75 206 304 319 304 508.5L304 544.25L327.25 526L191.5 526L214.5 544.25L214.5 508.5C214.5 319.75 41.75 205.25 41.75 126ZM29.5 188L489.25 188L489.25 151.25L29.5 151.25ZM183.5 633.75L335 633.75C344.75 633.75 352.5 626.25 352.5 616.5C352.5 606.75 344.75 599 335 599L183.5 599C173.75 599 166.25 606.75 166.25 616.5C166.25 626.25 173.75 633.75 183.5 633.75ZM259.25 722.25C302.5 722.25 332.25 700 338 665.25L180.5 665.25C185.75 700 215.5 722.25 259.25 722.25Z" fill="black" fill-opacity="0.85"/>
 </g>
</svg>
