<?xml version="1.0" encoding="UTF-8"?>
<!--Generator: Apple Native CoreSVG 326-->
<!DOCTYPE svg
PUBLIC "-//W3C//DTD SVG 1.1//EN"
       "http://www.w3.org/Graphics/SVG/1.1/DTD/svg11.dtd">
<svg version="1.1" xmlns="http://www.w3.org/2000/svg" xmlns:xlink="http://www.w3.org/1999/xlink" viewBox="0 0 741.5 1108.75">
 <g>
  <rect height="1108.75" opacity="0" width="741.5" x="0" y="0"/>
  <path d="M88 394.5C100.75 394.5 112.25 383.75 112.25 371C112.25 358 100.75 347 88 347L23.5 347C10.75 347 0 358.25 0 371C0 383.5 10.75 394.5 23.5 394.5ZM154 188C163 196.75 178 197 187.25 188C196.75 178.5 196.5 163.75 187.25 154.5L142 108.75C133.25 99.5 118 99.5 108.5 108.75C99.5 118.25 99.5 132.75 108.5 142ZM347.25 88.25C347.25 101 357.75 112 370.5 112C383.75 112 394.5 101 394.5 88.25L394.5 23.75C394.5 11 383.5 0 370.5 0C357.75 0 347.25 11 347.25 23.75ZM553.75 154.5C544.5 163.75 544.25 178.5 553.75 188C563 197.25 578 197 587 188L632.75 142C642 132.75 642 118.25 632.75 108.75C623.25 99.5 608.75 99.5 599.5 108.75ZM717.5 394.5C730.25 394.5 741.5 383.5 741.5 371C741.5 358.25 730.25 347 717.5 347L653 347C640.25 347 629.25 358 629.25 371C629.25 383.75 640.25 394.5 653 394.5Z" fill="black" fill-opacity="0.85"/>
  <path d="M370.5 171.5C259 171.5 171 254 171 356C171 469 239.75 499 258.5 702.25C259.5 713.25 265.25 719.75 277 719.75L464.25 719.75C476 719.75 481.75 713.25 482.75 702.25C501.5 499 570.5 469 570.5 356C570.5 254 482.25 171.5 370.5 171.5ZM370.5 212.25C456.75 212.25 530 274 530 356C530 443 471.25 466 445.5 679L295.75 679C270 466 211.75 443 211.75 356C211.75 274 284.25 212.25 370.5 212.25ZM277 782L464.5 782C474.25 782 481.75 774.5 481.75 764.75C481.75 755 474.25 747.75 464.5 747.75L277 747.75C267.25 747.75 260 755 260 764.75C260 774.5 267.25 782 277 782ZM370.75 868C417.75 868 456 844.5 458.25 810L283.25 810C285.25 844.5 323.5 868 370.75 868Z" fill="black" fill-opacity="0.85"/>
 </g>
</svg>
