<?xml version="1.0" encoding="UTF-8"?>
<!--Generator: Apple Native CoreSVG 326-->
<!DOCTYPE svg
PUBLIC "-//W3C//DTD SVG 1.1//EN"
       "http://www.w3.org/Graphics/SVG/1.1/DTD/svg11.dtd">
<svg version="1.1" xmlns="http://www.w3.org/2000/svg" xmlns:xlink="http://www.w3.org/1999/xlink" viewBox="0 0 1048.75 752.75">
 <g>
  <rect height="752.75" opacity="0" width="1048.75" x="0" y="0"/>
  <path d="M525 752.75C663.75 752.75 770 687.5 770 601.5C770 515.25 663.75 449.75 525 449.75C385.5 449.75 279.25 515 279.25 601.5C279.25 687.75 385.5 752.75 525 752.75ZM524.5 694C432.75 694 366.5 656.5 366.5 605.75C366.5 554.75 432.75 517.75 524.5 517.75C616.25 517.75 683 554.75 683 605.75C683 656.25 616.25 694 524.5 694ZM393 605.75C393 640.25 450.5 667.75 524.25 667.75C598.25 667.75 656.5 640.25 656.5 605.75C656.5 592.25 647.75 580.5 633.5 570.5C613.5 598.25 572.25 616.25 524.25 616.25C476.25 616.25 435 598.5 414 571.25C401 580.75 393 592.5 393 605.75Z" fill="black" fill-opacity="0.85"/>
  <path d="M803.75 438.5C942.25 438.5 1048.75 373.25 1048.75 287C1048.75 201 942.25 135.25 803.75 135.25C664.25 135.25 558 200.75 558 287C558 373.5 664.25 438.5 803.75 438.5ZM803.25 379.5C711.75 379.5 645.25 342.5 645.25 291.5C645.25 240.5 711.75 203.25 803.25 203.25C894.75 203.25 961.5 240.5 961.5 291.5C961.5 342.25 894.75 379.5 803.25 379.5ZM671.5 291.5C671.5 325.75 729.25 353.25 803 353.25C877 353.25 935.25 325.75 935.25 291.5C935.25 278 926.5 266 912 256.25C892 283.75 851 302 803 302C755 302 713.75 284 693 256.75C679.5 266.25 671.5 278.25 671.5 291.5Z" fill="black" fill-opacity="0.85"/>
  <path d="M245.75 438.25C384.5 438.25 490.75 373 490.75 286.75C490.75 200.75 384.5 135 245.75 135C106.5 135 0 200.5 0 286.75C0 373.25 106.5 438.25 245.75 438.25ZM245.25 379.25C153.75 379.25 87.5 342.25 87.5 291.25C87.5 240.25 153.75 203 245.25 203C337 203 403.75 240.25 403.75 291.25C403.75 342 337 379.25 245.25 379.25ZM113.75 291.25C113.75 325.5 171.5 353 245 353C319 353 377.5 325.5 377.5 291.25C377.5 277.75 368.75 265.75 354.25 256.25C334.25 283.5 292.75 301.75 245 301.75C197 301.75 156 283.75 135 256.5C121.75 266 113.75 278 113.75 291.25Z" fill="black" fill-opacity="0.85"/>
 </g>
</svg>
