<?xml version="1.0" encoding="UTF-8"?>
<!--Generator: Apple Native CoreSVG 326-->
<!DOCTYPE svg
PUBLIC "-//W3C//DTD SVG 1.1//EN"
       "http://www.w3.org/Graphics/SVG/1.1/DTD/svg11.dtd">
<svg version="1.1" xmlns="http://www.w3.org/2000/svg" xmlns:xlink="http://www.w3.org/1999/xlink" viewBox="0 0 712.876 713.377">
 <g>
  <rect height="713.377" opacity="0" width="712.876" x="0" y="0"/>
  <path d="M260.563 136.563C282.063 127.063 305.063 120.813 329.313 118.063C336.313 117.313 341.313 112.063 341.313 105.063L341.313 13.8133C341.313 5.56329 335.063-0.686706 326.813 0.313294C283.063 3.81329 241.813 15.5633 203.813 33.5633C196.313 37.0633 194.063 45.5633 198.063 52.5633L243.563 131.063C246.813 137.313 253.813 139.313 260.563 136.563Z" fill="black" fill-opacity="0.85"/>
  <path d="M163.313 213.813C177.563 194.813 194.313 177.813 213.563 163.313C219.563 159.063 220.813 152.063 217.313 146.063L172.063 67.8133C168.063 60.5633 159.563 58.5633 152.563 63.3133C117.563 87.8133 87.3132 118.063 63.3132 153.063C58.5632 160.063 60.3132 168.313 67.5632 172.563L146.313 217.563C152.313 221.313 159.063 219.813 163.313 213.813Z" fill="black" fill-opacity="0.85"/>
  <path d="M117.813 329.563C120.563 305.313 126.813 282.313 136.063 261.063C139.063 254.563 137.063 247.563 130.813 244.063L52.0632 198.813C44.8132 194.563 36.5632 197.063 33.0632 204.563C15.5632 242.313 3.81325 283.313 0.0632486 326.813C-0.186751 335.313 5.56325 341.563 13.8132 341.563L105.063 341.563C112.063 341.563 117.063 336.563 117.813 329.563Z" fill="black" fill-opacity="0.85"/>
  <path d="M136.063 452.563C127.063 431.313 120.813 408.063 117.813 383.563C117.313 376.563 111.813 371.563 105.063 371.563L13.8132 371.563C5.31325 371.563-0.686751 377.813 0.0632486 386.063C3.56325 430.063 15.3132 471.563 33.3132 509.313C36.8132 516.813 45.0632 519.563 52.3132 515.313L130.813 469.563C137.063 466.063 139.313 459.063 136.063 452.563Z" fill="black" fill-opacity="0.85"/>
  <path d="M213.813 550.063C194.813 535.813 177.563 519.063 163.563 499.563C159.313 494.063 152.313 492.313 146.063 496.063L67.8132 541.063C60.5632 545.313 58.5632 553.563 63.0632 560.563C87.3132 595.563 117.813 625.563 152.813 650.063C159.813 655.063 168.313 652.813 172.313 645.563L217.313 567.063C220.813 561.063 219.563 554.313 213.813 550.063Z" fill="black" fill-opacity="0.85"/>
  <path d="M329.313 595.313C305.313 592.813 282.313 586.313 260.813 577.063C254.313 574.063 247.313 576.313 243.813 582.313L198.563 660.813C194.563 667.813 196.813 676.563 204.313 680.063C242.063 697.813 283.063 709.563 326.563 713.313C335.063 713.813 341.313 707.813 341.313 699.563L341.313 608.313C341.313 601.313 336.313 596.063 329.313 595.313Z" fill="black" fill-opacity="0.85"/>
  <path d="M452.313 577.063C431.063 586.313 408.063 592.563 383.563 595.313C376.563 596.063 371.563 601.313 371.563 608.313L371.563 699.813C371.563 708.063 377.813 714.063 386.063 713.313C429.563 709.813 471.313 697.813 509.063 680.063C516.563 676.563 518.813 667.813 514.813 660.813L469.313 582.313C465.813 576.313 458.813 574.063 452.313 577.063Z" fill="black" fill-opacity="0.85"/>
  <path d="M549.813 499.563C535.563 518.563 518.563 535.313 499.313 550.063C493.563 554.313 491.813 561.313 495.313 567.063L540.813 645.313C544.813 652.563 553.313 655.063 560.313 650.063C595.313 625.563 625.313 595.313 649.813 560.563C654.563 553.563 652.313 545.313 645.313 541.063L566.813 495.563C560.813 492.063 554.063 493.813 549.813 499.563Z" fill="black" fill-opacity="0.85"/>
  <path d="M595.313 383.563C592.563 408.063 586.313 431.313 576.563 452.563C574.063 459.063 576.063 465.813 582.313 469.313L660.563 514.563C668.063 518.813 676.313 516.563 679.813 508.813C697.563 471.063 709.063 429.813 712.813 386.313C713.313 377.813 707.313 371.563 699.063 371.563L608.063 371.563C601.063 371.563 595.813 376.563 595.313 383.563Z" fill="black" fill-opacity="0.85"/>
  <path d="M576.563 260.813C585.813 282.313 592.563 305.563 595.063 329.563C595.813 336.563 601.063 341.563 608.063 341.563L699.313 341.563C707.563 341.563 713.313 335.313 712.813 327.063C709.313 283.563 697.563 241.813 679.813 204.313C676.313 196.813 667.813 194.313 660.563 198.563L581.813 244.313C575.813 247.813 574.063 254.313 576.563 260.813Z" fill="black" fill-opacity="0.85"/>
  <path d="M499.313 163.563C518.563 177.813 535.313 194.563 549.813 213.813C554.063 219.563 560.813 221.313 566.813 217.813L645.063 172.563C652.563 168.313 654.563 160.063 650.063 153.063C625.563 118.063 595.063 87.8133 560.313 63.3133C553.563 58.5633 544.813 60.5633 540.813 67.8133L495.563 146.063C492.063 152.313 493.563 159.313 499.313 163.563Z" fill="black" fill-opacity="0.85"/>
  <path d="M383.563 118.063C408.063 120.313 430.813 127.063 452.313 136.563C458.813 139.313 465.813 137.063 469.313 131.063L514.813 52.5633C518.813 45.5633 516.063 37.0633 508.563 33.5633C470.813 15.8133 429.813 3.81329 386.063 0.313294C377.813-0.186706 371.563 5.56329 371.563 13.8133L371.563 105.063C371.563 112.063 376.563 117.313 383.563 118.063Z" fill="black" fill-opacity="0.85"/>
  <path d="M259.063 494.313L450.313 494.313C458.813 494.313 464.813 488.063 464.813 480.063C464.813 472.313 458.813 466.063 450.313 466.063L297.313 466.063L297.313 464.313C320.313 456.813 333.813 432.063 335.813 405.563C336.063 402.063 336.313 398.563 336.063 395.063L417.313 395.063C423.563 395.063 428.563 390.313 428.563 384.063C428.563 377.813 423.563 373.063 417.313 373.063L334.063 373.063C331.563 359.313 327.313 347.563 324.063 334.813L417.313 334.813C423.563 334.813 428.563 330.063 428.563 323.813C428.563 317.563 423.563 312.813 417.313 312.813L320.313 312.813C319.813 308.813 319.563 304.563 319.563 300.063C319.563 260.813 350.563 240.563 390.063 240.563C403.063 240.563 417.313 242.813 425.813 244.813C430.313 246.313 435.313 247.313 438.563 247.313C447.563 247.313 451.063 241.813 451.063 235.313C451.063 227.563 446.063 223.313 438.813 220.063C422.563 213.063 403.063 212.063 386.813 212.063C326.563 212.063 285.563 244.063 285.563 301.063C285.563 305.063 285.813 308.813 286.063 312.813L256.313 312.813C250.063 312.813 245.063 317.563 245.063 323.813C245.063 330.063 250.063 334.813 256.313 334.813L289.813 334.813C293.063 348.313 297.313 360.313 300.313 373.063L256.313 373.063C250.063 373.063 245.063 377.813 245.063 384.063C245.063 390.313 250.063 395.063 256.313 395.063L303.063 395.063C303.313 398.813 303.063 403.813 302.563 408.063C299.063 436.813 280.063 456.313 257.563 463.063C249.313 465.813 244.313 470.563 244.313 479.313C244.313 489.063 250.813 494.313 259.063 494.313Z" fill="black" fill-opacity="0.85"/>
 </g>
</svg>
