<?xml version="1.0" encoding="UTF-8"?>
<!--Generator: Apple Native CoreSVG 326-->
<!DOCTYPE svg
PUBLIC "-//W3C//DTD SVG 1.1//EN"
       "http://www.w3.org/Graphics/SVG/1.1/DTD/svg11.dtd">
<svg version="1.1" xmlns="http://www.w3.org/2000/svg" xmlns:xlink="http://www.w3.org/1999/xlink" viewBox="0 0 768.5 640.75">
 <g>
  <rect height="640.75" opacity="0" width="768.5" x="0" y="0"/>
  <path d="M768.5 384.25C768.5 290 734.5 203.75 678 136.75C671.5 129 660.5 129.25 653.25 136.5L581 208.75C574.75 215 574.5 223.75 580 230.75C613.25 273.25 633 326.25 633 384.25C633 442.25 613.25 495.5 578.5 539.5C573.75 545.5 574 553 579.25 558.25L653.25 632.5C660.5 640 671.25 639.75 678 632C734.5 565 768.5 478.25 768.5 384.25Z" fill="black" fill-opacity="0.85"/>
  <path d="M384.25 135.25C442.25 135.25 495.75 155.25 538.25 189C545 194 553.25 193.5 559.5 187.25L632 114.75C639.5 107.5 639.25 96.75 631.5 90C564.75 34 478.25 0 384.25 0C290.25 0 203.75 34 137 90C129.25 96.75 129 107.5 136.25 114.75L209 187.25C215 193.5 224 193.75 231 188.25C273.25 155.25 326.5 135.25 384.25 135.25Z" fill="black" fill-opacity="0.85"/>
  <path d="M0 384.25C0 478.25 34 565 90.5 632C97 639.75 108 640 115.25 632.5L189.25 558.25C194.25 553 194.75 545.5 190 539.5C155.25 495.5 135.25 442.25 135.25 384.25C135.25 326.25 155 273.25 188.5 230.75C193.75 223.75 193.75 215 187.5 208.75L115 136.5C107.75 129.25 97 129 90.25 136.75C33.75 203.75 0 290 0 384.25Z" fill="black" fill-opacity="0.85"/>
  <path d="M282.75 491.5C292.5 491.5 297.75 484.75 297.75 476L297.75 360.5C297.75 334.75 310 309.75 336 309.75C359.75 309.75 369.5 327.75 369.5 350.75L369.5 476C369.5 485 375.75 491.5 384.25 491.5C393.25 491.5 399.5 485 399.5 476L399.5 357.5C399.5 332.75 411.5 309.75 437.25 309.75C461.75 309.75 471.25 328.75 471.25 353.25L471.25 476C471.25 485 477.25 491.5 486.25 491.5C495.25 491.5 501.25 485 501.25 476L501.25 345.75C501.25 310.5 483.75 282.25 446 282.25C417.75 282.25 398.75 299.75 393.75 322L392.25 322C386.75 296.75 370.75 282.25 344.25 282.25C319.25 282.25 303.5 298.25 297.75 321.5L296.5 321.5L296.5 298C296.5 289 291 283 282 283C273.25 283 267.75 289 267.75 298L267.75 476C267.75 484.75 273 491.5 282.75 491.5ZM294.75 571.75C300 571.75 302.25 569.25 304.5 564.25L451 219.25C452 217.25 452.5 215.25 452.5 213.25C452.5 207.75 448.5 204.25 443 204.25C438 204.25 435.25 207.5 433.25 212L286.5 557C285.75 559 285.25 560.75 285.25 563C285.25 568.25 289.25 571.75 294.75 571.75Z" fill="black" fill-opacity="0.85"/>
 </g>
</svg>
