<?xml version="1.0" encoding="UTF-8"?>
<!--Generator: Apple Native CoreSVG 326-->
<!DOCTYPE svg
PUBLIC "-//W3C//DTD SVG 1.1//EN"
       "http://www.w3.org/Graphics/SVG/1.1/DTD/svg11.dtd">
<svg version="1.1" xmlns="http://www.w3.org/2000/svg" xmlns:xlink="http://www.w3.org/1999/xlink" viewBox="0 0 768.5 640.75">
 <g>
  <rect height="640.75" opacity="0" width="768.5" x="0" y="0"/>
  <path d="M768.5 384.25C768.5 290 734.5 203.75 678 136.75C671.5 129 660.5 129.25 653.25 136.5L581 208.75C574.75 215 574.5 223.75 580 230.75C613.25 273.25 633 326.25 633 384.25C633 442.25 613.25 495.5 578.5 539.5C573.75 545.5 574 553 579.25 558.25L653.25 632.5C660.5 640 671.25 639.75 678 632C734.5 565 768.5 478.25 768.5 384.25Z" fill="black" fill-opacity="0.85"/>
  <path d="M384.25 135.25C442.25 135.25 495.75 155.25 538.25 189C545 194 553.25 193.5 559.5 187.25L632 114.75C639.5 107.5 639.25 96.75 631.5 90C564.75 34 478.25 0 384.25 0C290.25 0 203.75 34 137 90C129.25 96.75 129 107.5 136.25 114.75L209 187.25C215 193.5 224 193.75 231 188.25C273.25 155.25 326.5 135.25 384.25 135.25Z" fill="black" fill-opacity="0.85"/>
  <path d="M0 384.25C0 478.25 34 565 90.5 632C97 639.75 108 640 115.25 632.5L189.25 558.25C194.25 553 194.75 545.5 190 539.5C155.25 495.5 135.25 442.25 135.25 384.25C135.25 326.25 155 273.25 188.5 230.75C193.75 223.75 193.75 215 187.5 208.75L115 136.5C107.75 129.25 97 129 90.25 136.75C33.75 203.75 0 290 0 384.25Z" fill="black" fill-opacity="0.85"/>
  <path d="M302.25 535C311.75 535 318.5 528.25 318.5 518.25L318.5 301L320.5 301L430.75 518.5C435.75 528.75 443.75 535 455 535C470.25 535 477.25 524.5 477.25 513.5L477.25 258.75C477.25 248.75 470.75 242.25 460.75 242.25C451 242.25 444.75 248.75 444.75 258.75L444.75 476.75L442.5 476.75L332.5 259C327.5 248.25 319.25 242.25 308 242.25C295 242.25 286 251 286 263.75L286 518.25C286 528.25 292.75 535 302.25 535ZM259 389.25C259 394.75 263.5 399.25 269 399.25L494.25 399.25C500 399.25 504.25 394.75 504.25 389.25C504.25 383.75 500 379.25 494.25 379.25L269 379.25C263.5 379.25 259 383.75 259 389.25Z" fill="black" fill-opacity="0.85"/>
 </g>
</svg>
