<?xml version="1.0" encoding="UTF-8"?>
<!--Generator: Apple Native CoreSVG 326-->
<!DOCTYPE svg
PUBLIC "-//W3C//DTD SVG 1.1//EN"
       "http://www.w3.org/Graphics/SVG/1.1/DTD/svg11.dtd">
<svg version="1.1" xmlns="http://www.w3.org/2000/svg" xmlns:xlink="http://www.w3.org/1999/xlink" viewBox="0 0 651.75 542.75">
 <g>
  <rect height="542.75" opacity="0" width="651.75" x="0" y="0"/>
  <path d="M71.5 542.25L580.25 542.25C623.25 542.25 651.75 513.25 651.75 469.75L651.75 72.75C651.75 29.25 623.25 0 580.25 0L71.5 0C28.5 0 0 29.25 0 72.75L0 469.75C0 513.25 28.5 542.25 71.5 542.25ZM71.75 498C55.25 498 44.25 486 44.25 468L44.25 74.5C44.25 56.5 55.25 44.5 71.75 44.5L580.25 44.5C596.5 44.5 607.5 56.5 607.5 74.5L607.5 468C607.5 486 596.5 498 580.25 498ZM135.25 126.5C150.75 126.5 163.25 114 163.25 98.5C163.25 82.75 150.75 70.5 135.25 70.5C119.5 70.5 107 82.75 107 98.5C107 114 119.5 126.5 135.25 126.5ZM219 126.5C234.75 126.5 247 114 247 98.5C247 82.75 234.75 70.5 219 70.5C203.25 70.5 191 82.75 191 98.5C191 114 203.25 126.5 219 126.5ZM302.5 126.5C318.25 126.5 330.75 114 330.75 98.5C330.75 82.75 318.25 70.5 302.5 70.5C287 70.5 274.5 82.75 274.5 98.5C274.5 114 287 126.5 302.5 126.5ZM449 113L536 113C544.75 113 550.5 107 550.5 98.25C550.5 89.75 544.75 83.75 536 83.75L449 83.75C440.5 83.75 434.5 89.75 434.5 98.25C434.5 107 440.5 113 449 113ZM27 187.75L625.25 187.75L625.25 151L27 151ZM127.25 456.25L524.5 456.25C543.5 456.25 555.5 444 555.5 425.25L555.5 258C555.5 239 543.5 227 524.5 227L127.25 227C108.5 227 96.5 239 96.5 258L96.5 425.25C96.5 444 108.5 456.25 127.25 456.25ZM138.5 424.5C132.5 424.5 128.25 420.25 128.25 414.25L128.25 269C128.25 263 132.5 258.5 138.5 258.5L513.5 258.5C519.5 258.5 523.75 263 523.75 269L523.75 414.25C523.75 420.25 519.5 424.5 513.5 424.5ZM122 326.5L530 326.5L530 295L122 295Z" fill="black" fill-opacity="0.85"/>
 </g>
</svg>
