<?xml version="1.0" encoding="UTF-8"?>
<!--Generator: Apple Native CoreSVG 326-->
<!DOCTYPE svg
PUBLIC "-//W3C//DTD SVG 1.1//EN"
       "http://www.w3.org/Graphics/SVG/1.1/DTD/svg11.dtd">
<svg version="1.1" xmlns="http://www.w3.org/2000/svg" xmlns:xlink="http://www.w3.org/1999/xlink" viewBox="0 0 631.5 542.75">
 <g>
  <rect height="542.75" opacity="0" width="631.5" x="0" y="0"/>
  <path d="M0 156L631.5 156L631.5 66C631.5 26.5 606.25 0 568.75 0L63 0C25.25 0 0 26.5 0 66ZM117.75 114C101.5 114 89 101.25 89 85.25C89 69.5 101.5 56.75 117.75 56.75C133.75 56.75 146.5 69.5 146.5 85.25C146.5 101.25 133.75 114 117.75 114ZM203.5 114C187.5 114 174.75 101.25 174.75 85.25C174.75 69.5 187.5 56.75 203.5 56.75C219.5 56.75 232.5 69.5 232.5 85.25C232.5 101.25 219.5 114 203.5 114ZM289.25 114C273 114 260.25 101.25 260.25 85.25C260.25 69.5 273 56.75 289.25 56.75C305 56.75 318 69.5 318 85.25C318 101.25 305 114 289.25 114ZM449.5 100.25C440.75 100.25 434.5 94 434.5 85.25C434.5 76.25 440.75 70.25 449.5 70.25L538.75 70.25C547.75 70.25 553.75 76.25 553.75 85.25C553.75 94 547.75 100.25 538.75 100.25ZM63 542.25L568.75 542.25C606.25 542.25 631.5 516 631.5 476.25L631.5 187.75L0 187.75L0 476.25C0 516 25.25 542.25 63 542.25ZM112.25 473.25C93 473.25 80.75 460.75 80.75 441.75L80.75 269.75C80.75 250.5 93 238 112.25 238L519.5 238C538.5 238 550.75 250.5 550.75 269.75L550.75 441.75C550.75 460.75 538.5 473.25 519.5 473.25ZM112.5 307.75L519.25 307.75L519.25 280.5C519.25 274 515 269.75 508.75 269.75L123 269.75C116.75 269.75 112.5 274 112.5 280.5ZM123 441.5L508.75 441.5C515 441.5 519.25 437.25 519.25 430.75L519.25 339.5L112.5 339.5L112.5 430.75C112.5 437.25 116.75 441.5 123 441.5Z" fill="black" fill-opacity="0.85"/>
 </g>
</svg>
