<?xml version="1.0" encoding="UTF-8"?>
<!--Generator: Apple Native CoreSVG 326-->
<!DOCTYPE svg
PUBLIC "-//W3C//DTD SVG 1.1//EN"
       "http://www.w3.org/Graphics/SVG/1.1/DTD/svg11.dtd">
<svg version="1.1" xmlns="http://www.w3.org/2000/svg" xmlns:xlink="http://www.w3.org/1999/xlink" viewBox="0 0 746.75 677.25">
 <g>
  <rect height="677.25" opacity="0" width="746.75" x="0" y="0"/>
  <path d="M44.5 22.25L44.5 654.5C44.5 666.75 34.5 676.75 22.25 676.75C9.75 676.75 0 666.75 0 654.5L0 22.25C0 10 9.75 0 22.25 0C34.5 0 44.5 10 44.5 22.25ZM746.75 22.25L746.75 654.5C746.75 666.75 737 676.75 724.75 676.75C712.25 676.75 702.25 666.75 702.25 654.5L702.25 582.75L667.5 582.75L667.5 546L702.25 546L702.25 432.5L667.5 432.5L667.5 395.75L702.25 395.75L702.25 282L667.5 282L667.5 245.25L702.25 245.25L702.25 131.5L667.5 131.5L667.5 95L702.25 95L702.25 22.25C702.25 10 712.25 0 724.75 0C737 0 746.75 10 746.75 22.25Z" fill="black" fill-opacity="0.85"/>
  <path d="M334 210.75L646.5 174C659.25 172.5 667.5 165.75 667.5 153.5L667.5 72C667.5 58.5 659.25 48 646.5 50.75L330 120.75C318.25 123.25 312.75 131 312.75 140L312.75 191.75C312.75 205.25 320.25 212.5 334 210.75ZM330 325.25L646.5 325.25C659 325.25 667.5 317 667.5 304.5L667.5 223C667.5 210 659.75 200.5 646.5 202L330 239C319 240.25 312.75 248.25 312.75 259L312.75 306C312.75 318 320 325.25 330 325.25ZM330 439.5L646.5 476.5C659.75 478 667.5 468.5 667.5 455.5L667.5 374C667.5 361.5 659 353.25 646.5 353.25L330 353.25C320 353.25 312.75 360.5 312.75 372.5L312.75 419.5C312.75 430.25 319 438.25 330 439.5ZM330 557.75L646.5 627.75C659.25 630.5 667.5 620 667.5 606.5L667.5 525C667.5 512.75 659.25 505.75 646.5 504.25L334 467.75C320.25 466 312.75 473.25 312.75 486.75L312.75 538.5C312.75 547.5 318.25 555.25 330 557.75Z" fill="black" fill-opacity="0.85"/>
 </g>
</svg>
