<?xml version="1.0" encoding="UTF-8"?>
<!--Generator: Apple Native CoreSVG 326-->
<!DOCTYPE svg
PUBLIC "-//W3C//DTD SVG 1.1//EN"
       "http://www.w3.org/Graphics/SVG/1.1/DTD/svg11.dtd">
<svg version="1.1" xmlns="http://www.w3.org/2000/svg" xmlns:xlink="http://www.w3.org/1999/xlink" viewBox="0 0 768.5 637.929">
 <g>
  <rect height="637.929" opacity="0" width="768.5" x="0" y="0"/>
  <path d="M768.5 382.839C768.5 181.589 613.75 16.5894 417.25 0.089388C407-0.910612 399 6.58939 399 17.0894L399 119.339C399 127.839 405.25 134.589 414 135.339C537.25 150.339 633 255.339 633 382.839C633 440.839 613.25 494.089 578.25 538.089C573.5 544.089 573.75 551.589 579 556.839L653.25 631.089C660.75 638.339 671.5 638.339 678 630.339C734.5 563.339 768.5 476.839 768.5 382.839Z" fill="black" fill-opacity="0.85"/>
  <path d="M0 382.839C0 477.089 34 563.839 90.75 630.839C97 638.339 107.5 638.339 115 631.089L189.25 556.839C194.5 551.589 194.75 544.089 190 538.089C155 494.089 135.25 440.839 135.25 382.839C135.25 255.339 231.25 150.339 354.25 135.339C363.25 134.589 369.25 127.839 369.25 119.339L369.25 17.0894C369.25 6.58939 361.5-0.910612 351.25 0.089388C154.5 16.5894 0 181.589 0 382.839Z" fill="black" fill-opacity="0.85"/>
  <path d="M319 533.089C329.25 533.089 335.75 526.589 335.75 516.339L335.75 426.839L395.5 426.839C450.75 426.839 489.25 390.089 489.25 335.089C489.25 279.339 450.25 244.089 396 244.089L319.25 244.089C309 244.089 302.25 250.589 302.25 261.089L302.25 516.339C302.25 526.589 308.75 533.089 319 533.089ZM335.75 398.839L335.75 271.839L387.75 271.839C427.75 271.839 455 292.839 455 335.089C455 376.839 429.25 398.839 387.5 398.839ZM271.25 333.339C271.25 339.089 275.5 343.089 281.25 343.089L505.25 343.089C511 343.089 515.5 338.839 515.5 333.339C515.5 327.839 511 323.589 505.25 323.589L281.25 323.589C275.5 323.589 271.25 327.839 271.25 333.339Z" fill="black" fill-opacity="0.85"/>
 </g>
</svg>
