<?xml version="1.0" encoding="UTF-8"?>
<!--Generator: Apple Native CoreSVG 326-->
<!DOCTYPE svg
PUBLIC "-//W3C//DTD SVG 1.1//EN"
       "http://www.w3.org/Graphics/SVG/1.1/DTD/svg11.dtd">
<svg version="1.1" xmlns="http://www.w3.org/2000/svg" xmlns:xlink="http://www.w3.org/1999/xlink" viewBox="0 0 768.5 637.929">
 <g>
  <rect height="637.929" opacity="0" width="768.5" x="0" y="0"/>
  <path d="M768.5 382.839C768.5 181.589 613.75 16.5894 417.25 0.089388C407-0.910612 399 6.58939 399 17.0894L399 119.339C399 127.839 405.25 134.589 414 135.339C537.25 150.339 633 255.339 633 382.839C633 440.839 613.25 494.089 578.25 538.089C573.5 544.089 573.75 551.589 579 556.839L653.25 631.089C660.75 638.339 671.5 638.339 678 630.339C734.5 563.339 768.5 476.839 768.5 382.839Z" fill="black" fill-opacity="0.85"/>
  <path d="M0 382.839C0 477.089 34 563.839 90.75 630.839C97 638.339 107.5 638.339 115 631.089L189.25 556.839C194.5 551.589 194.75 544.089 190 538.089C155 494.089 135.25 440.839 135.25 382.839C135.25 255.339 231.25 150.339 354.25 135.339C363.25 134.589 369.25 127.839 369.25 119.339L369.25 17.0894C369.25 6.58939 361.5-0.910612 351.25 0.089388C154.5 16.5894 0 181.589 0 382.839Z" fill="black" fill-opacity="0.85"/>
  <path d="M320.5 532.839C330.75 532.839 337.5 526.339 337.5 516.089L337.5 433.589L397 433.589C454.5 433.589 491 392.589 491 338.339C491 285.589 456 243.839 397.75 243.839L320.75 243.839C310.25 243.839 304 250.339 304 260.839L304 516.089C304 526.339 310.5 532.839 320.5 532.839ZM337.5 405.589L337.5 271.589L389.75 271.589C430.75 271.589 457 295.589 457 338.339C457 380.339 431.25 405.589 389.75 405.589ZM272.25 313.589C272.25 319.339 276.75 323.089 282.25 323.089L507 323.089C512.5 323.089 517 318.839 517 313.589C517 308.089 512.5 303.839 507 303.839L282.25 303.839C276.75 303.839 272.25 308.089 272.25 313.589ZM272.25 364.089C272.25 369.839 276.75 373.839 282.25 373.839L507 373.839C512.5 373.839 517 369.339 517 364.089C517 358.839 512.5 354.339 507 354.339L282.25 354.339C276.75 354.339 272.25 358.839 272.25 364.089Z" fill="black" fill-opacity="0.85"/>
 </g>
</svg>
