<?xml version="1.0" encoding="UTF-8"?>
<!--Generator: Apple Native CoreSVG 326-->
<!DOCTYPE svg
PUBLIC "-//W3C//DTD SVG 1.1//EN"
       "http://www.w3.org/Graphics/SVG/1.1/DTD/svg11.dtd">
<svg version="1.1" xmlns="http://www.w3.org/2000/svg" xmlns:xlink="http://www.w3.org/1999/xlink" viewBox="0 0 768.5 640.75">
 <g>
  <rect height="640.75" opacity="0" width="768.5" x="0" y="0"/>
  <path d="M768.5 384.25C768.5 290 734.5 203.75 678 136.75C671.5 129 660.5 129.25 653.25 136.5L581 208.75C574.75 215 574.5 223.75 580 230.75C613.25 273.25 633 326.25 633 384.25C633 442.25 613.25 495.5 578.5 539.5C573.75 545.5 574 553 579.25 558.25L653.25 632.5C660.5 640 671.25 639.75 678 632C734.5 565 768.5 478.25 768.5 384.25Z" fill="black" fill-opacity="0.85"/>
  <path d="M384.25 135.25C442.25 135.25 495.75 155.25 538.25 189C545 194 553.25 193.5 559.5 187.25L632 114.75C639.5 107.5 639.25 96.75 631.5 90C564.75 34 478.25 0 384.25 0C290.25 0 203.75 34 137 90C129.25 96.75 129 107.5 136.25 114.75L209 187.25C215 193.5 224 193.75 231 188.25C273.25 155.25 326.5 135.25 384.25 135.25Z" fill="black" fill-opacity="0.85"/>
  <path d="M0 384.25C0 478.25 34 565 90.5 632C97 639.75 108 640 115.25 632.5L189.25 558.25C194.25 553 194.75 545.5 190 539.5C155.25 495.5 135.25 442.25 135.25 384.25C135.25 326.25 155 273.25 188.5 230.75C193.75 223.75 193.75 215 187.5 208.75L115 136.5C107.75 129.25 97 129 90.25 136.75C33.75 203.75 0 290 0 384.25Z" fill="black" fill-opacity="0.85"/>
  <path d="M320.5 534.25C330.75 534.25 337.5 527.75 337.5 517.5L337.5 435L397 435C454.5 435 491 394 491 339.75C491 287 456 245.25 397.75 245.25L320.75 245.25C310.25 245.25 304 251.75 304 262.25L304 517.5C304 527.75 310.5 534.25 320.5 534.25ZM337.5 407L337.5 273L389.75 273C430.75 273 457 297 457 339.75C457 381.75 431.25 407 389.75 407ZM272.25 315C272.25 320.75 276.75 324.5 282.25 324.5L507 324.5C512.5 324.5 517 320.25 517 315C517 309.5 512.5 305.25 507 305.25L282.25 305.25C276.75 305.25 272.25 309.5 272.25 315ZM272.25 365.5C272.25 371.25 276.75 375.25 282.25 375.25L507 375.25C512.5 375.25 517 370.75 517 365.5C517 360.25 512.5 355.75 507 355.75L282.25 355.75C276.75 355.75 272.25 360.25 272.25 365.5Z" fill="black" fill-opacity="0.85"/>
 </g>
</svg>
