<?xml version="1.0" encoding="UTF-8"?>
<!--Generator: Apple Native CoreSVG 326-->
<!DOCTYPE svg
PUBLIC "-//W3C//DTD SVG 1.1//EN"
       "http://www.w3.org/Graphics/SVG/1.1/DTD/svg11.dtd">
<svg version="1.1" xmlns="http://www.w3.org/2000/svg" xmlns:xlink="http://www.w3.org/1999/xlink" viewBox="0 0 587.75 587.75">
 <g>
  <rect height="587.75" opacity="0" width="587.75" x="0" y="0"/>
  <path d="M97.25 587.75L490.25 587.75C555 587.75 587.75 555 587.75 491.5L587.75 96.5C587.75 32.75 555 0 490.25 0L97.25 0C32.75 0 0 32.5 0 96.5L0 491.5C0 555.5 32.75 587.75 97.25 587.75ZM98.25 543.5C63.25 543.5 44.25 525 44.25 489L44.25 98.75C44.25 63 63.25 44.25 98.25 44.25L489.5 44.25C523.75 44.25 543.5 63 543.5 98.75L543.5 489C543.5 525 523.75 543.5 489.5 543.5Z" fill="black" fill-opacity="0.85"/>
  <path d="M167.75 443.75L420 443.75C436.5 443.75 448.5 431.5 448.5 415L448.5 172.5C448.5 155.75 436.5 143.75 420 143.75L167.75 143.75C151.25 143.75 139 155.75 139 172.5L139 415C139 431.5 151.25 443.75 167.75 443.75ZM294 270.75C272.75 270.75 255.5 253.5 255.5 232.25C255.5 211 272.75 193.75 294 193.75C315.5 193.75 332.75 211 332.75 232.25C332.75 253.5 315.5 270.75 294 270.75ZM224.75 393.25C207 393.25 192.75 379 192.75 361.5C192.75 343.75 207 329.75 224.75 329.75C242.25 329.75 256.5 343.75 256.5 361.5C256.5 379 242.25 393.25 224.75 393.25ZM363.5 393.25C346 393.25 331.75 379 331.75 361.5C331.75 343.75 346 329.75 363.5 329.75C381 329.75 395.5 343.75 395.5 361.5C395.5 379 381 393.25 363.5 393.25Z" fill="black" fill-opacity="0.85"/>
 </g>
</svg>
