<?xml version="1.0" encoding="UTF-8"?>
<!--Generator: Apple Native CoreSVG 326-->
<!DOCTYPE svg
PUBLIC "-//W3C//DTD SVG 1.1//EN"
       "http://www.w3.org/Graphics/SVG/1.1/DTD/svg11.dtd">
<svg version="1.1" xmlns="http://www.w3.org/2000/svg" xmlns:xlink="http://www.w3.org/1999/xlink" viewBox="0 0 860.688 444.75">
 <g>
  <rect height="444.75" opacity="0" width="860.688" x="0" y="0"/>
  <path d="M722.469 45L838.969 172C867.969 202.5 867.719 239.5 839.219 270.25L722.719 399C697.719 425.75 669.719 444.25 633.219 444.25L227.469 444.25C190.969 444.25 162.969 425.75 137.969 399L21.2189 270.25C-7.03115 239.5-7.28115 202.5 21.7189 172L138.219 45C165.469 16.5 188.719 0 227.469 0L633.219 0C671.969 0 694.969 16.5 722.469 45ZM372.969 280C372.969 311.75 398.969 337.75 430.469 337.75C462.219 337.75 488.219 311.75 488.219 280C488.219 248.25 462.219 222 430.469 222C398.969 222 372.969 248.25 372.969 280ZM150.969 221.25C150.969 252.75 176.969 279 208.719 279C240.219 279 266.469 252.75 266.469 221.25C266.469 189.5 240.219 163.5 208.719 163.5C176.969 163.5 150.969 189.5 150.969 221.25ZM594.719 221.25C594.719 252.75 620.719 279 652.469 279C684.219 279 710.219 252.75 710.219 221.25C710.219 189.5 684.219 163.5 652.469 163.5C620.719 163.5 594.719 189.5 594.719 221.25Z" fill="black" fill-opacity="0.85"/>
 </g>
</svg>
