<?xml version="1.0" encoding="UTF-8"?>
<!--Generator: Apple Native CoreSVG 326-->
<!DOCTYPE svg
PUBLIC "-//W3C//DTD SVG 1.1//EN"
       "http://www.w3.org/Graphics/SVG/1.1/DTD/svg11.dtd">
<svg version="1.1" xmlns="http://www.w3.org/2000/svg" xmlns:xlink="http://www.w3.org/1999/xlink" viewBox="0 0 587.75 587.75">
 <g>
  <rect height="587.75" opacity="0" width="587.75" x="0" y="0"/>
  <path d="M97.25 587.75L490.25 587.75C555 587.75 587.75 555 587.75 491.5L587.75 96.5C587.75 32.75 555 0 490.25 0L97.25 0C32.75 0 0 32.5 0 96.5L0 491.5C0 555.5 32.75 587.75 97.25 587.75ZM98.25 543.5C63.25 543.5 44.25 525 44.25 489L44.25 98.75C44.25 63 63.25 44.25 98.25 44.25L489.5 44.25C523.75 44.25 543.5 63 543.5 98.75L543.5 489C543.5 525 523.75 543.5 489.5 543.5Z" fill="black" fill-opacity="0.85"/>
  <path d="M192.75 440L395 440C404.25 440 413.25 437 420 430.5C455.5 397.25 479.5 347 479.5 294C479.5 241.25 455.5 191 420 157.75C413.25 151 404.25 148.25 395 148.25L192.75 148.25C183.5 148.25 174.5 151 168 157C132.75 190 108.25 240.75 108.25 294C108.25 347 132.25 397.25 167.75 430.5C174.5 437 183.5 440 192.75 440ZM216 366C206.5 366 199.25 358.5 199.25 349L199.25 239C199.25 229.5 206.5 222 216 222C225.5 222 233 229.5 233 239L233 349C233 358.5 225.5 366 216 366ZM371.75 366C362.25 366 354.75 358.5 354.75 349L354.75 239C354.75 229.5 362.25 222 371.75 222C381 222 388.75 229.5 388.75 239L388.75 349C388.75 358.5 381 366 371.75 366Z" fill="black" fill-opacity="0.85"/>
 </g>
</svg>
