<?xml version="1.0" encoding="UTF-8"?>
<!--Generator: Apple Native CoreSVG 326-->
<!DOCTYPE svg
PUBLIC "-//W3C//DTD SVG 1.1//EN"
       "http://www.w3.org/Graphics/SVG/1.1/DTD/svg11.dtd">
<svg version="1.1" xmlns="http://www.w3.org/2000/svg" xmlns:xlink="http://www.w3.org/1999/xlink" viewBox="0 0 845.25 500.75">
 <g>
  <rect height="500.75" opacity="0" width="845.25" x="0" y="0"/>
  <path d="M714.25 45L826 194C851.5 227.25 851.5 271.25 826.25 304.5L714.75 454.75C692.25 484.25 661.75 500 625.25 500L220 500C183.5 500 152.75 484.25 130.5 454.75L19 304.5C-6.25 271.25-6.5 227.25 19.25 194L130.75 45C154.75 14 181.25 0 220 0L625.25 0C664 0 690.25 14 714.25 45ZM365 329.5C365 361.25 390.75 387.25 422.5 387.25C454.25 387.25 480.25 361.25 480.25 329.5C480.25 297.75 454.25 271.5 422.5 271.5C390.75 271.5 365 297.75 365 329.5ZM143 249C143 280.5 169 306.75 200.5 306.75C232.25 306.75 258.5 280.5 258.5 249C258.5 217.25 232.25 191.25 200.5 191.25C169 191.25 143 217.25 143 249ZM586.75 249C586.75 280.5 612.75 306.75 644.5 306.75C676.25 306.75 702.25 280.5 702.25 249C702.25 217.25 676.25 191.25 644.5 191.25C612.75 191.25 586.75 217.25 586.75 249Z" fill="black" fill-opacity="0.85"/>
 </g>
</svg>
