<?xml version="1.0" encoding="UTF-8"?>
<!--Generator: Apple Native CoreSVG 326-->
<!DOCTYPE svg
PUBLIC "-//W3C//DTD SVG 1.1//EN"
       "http://www.w3.org/Graphics/SVG/1.1/DTD/svg11.dtd">
<svg version="1.1" xmlns="http://www.w3.org/2000/svg" xmlns:xlink="http://www.w3.org/1999/xlink" viewBox="0 0 608.75 588.25">
 <g>
  <rect height="588.25" opacity="0" width="608.75" x="0" y="0"/>
  <path d="M608.75 97L608.75 492C608.75 555.75 576.25 588.25 511.5 588.25L97.25 588.25C32.75 588.25 0 556 0 492L0 97C0 33 32.75 0.75 97.25 0.75L511.5 0.75C576.25 0.75 608.75 33.25 608.75 97ZM142.25 407.5C142.25 434 164 456 190.5 456C217 456 238.5 434 238.5 407.5C238.5 381.25 217 359.5 190.5 359.5C164 359.5 142.25 381.25 142.25 407.5ZM370.25 407.5C370.25 434 392 456 418.5 456C444.75 456 466.5 434 466.5 407.5C466.5 381.25 444.75 359.5 418.5 359.5C392 359.5 370.25 381.25 370.25 407.5ZM244.25 192.5C244.25 226 271.25 252.5 304.5 252.5C337.5 252.5 364.5 226 364.5 192.5C364.5 159.25 337.5 132.25 304.5 132.25C271.25 132.25 244.25 159.25 244.25 192.5Z" fill="black" fill-opacity="0.85"/>
 </g>
</svg>
