<?xml version="1.0" encoding="UTF-8"?>
<!--Generator: Apple Native CoreSVG 326-->
<!DOCTYPE svg
PUBLIC "-//W3C//DTD SVG 1.1//EN"
       "http://www.w3.org/Graphics/SVG/1.1/DTD/svg11.dtd">
<svg version="1.1" xmlns="http://www.w3.org/2000/svg" xmlns:xlink="http://www.w3.org/1999/xlink" viewBox="0 0 587.75 587.75">
 <g>
  <rect height="587.75" opacity="0" width="587.75" x="0" y="0"/>
  <path d="M97.25 587.75L490.25 587.75C555 587.75 587.75 555 587.75 491.5L587.75 96.5C587.75 32.75 555 0 490.25 0L97.25 0C32.75 0 0 32.5 0 96.5L0 491.5C0 555.5 32.75 587.75 97.25 587.75ZM98.25 543.5C63.25 543.5 44.25 525 44.25 489L44.25 98.75C44.25 63 63.25 44.25 98.25 44.25L489.5 44.25C523.75 44.25 543.5 63 543.5 98.75L543.5 489C543.5 525 523.75 543.5 489.5 543.5Z" fill="black" fill-opacity="0.85"/>
  <path d="M293.75 461.5C387 461.5 461.75 386.75 461.75 293.75C461.75 200.5 387 125.75 293.75 125.75C200.75 125.75 126 200.5 126 293.75C126 386.75 200.75 461.5 293.75 461.5ZM214.5 329.75C194.5 329.75 178.25 313.5 178.25 293.75C178.25 273.75 194.5 257.5 214.5 257.5C234.5 257.5 250.75 273.75 250.75 293.75C250.75 313.5 234.5 329.75 214.5 329.75ZM373.25 329.75C353.25 329.75 337 313.5 337 293.75C337 273.75 353.25 257.5 373.25 257.5C393.25 257.5 409.5 273.75 409.5 293.75C409.5 313.5 393.25 329.75 373.25 329.75ZM293.75 415.25C274 415.25 257.75 398.75 257.75 379C257.75 359.25 274 342.5 293.75 342.5C313.75 342.5 330 359.25 330 379C330 398.75 313.75 415.25 293.75 415.25Z" fill="black" fill-opacity="0.85"/>
 </g>
</svg>
