<?xml version="1.0" encoding="UTF-8"?>
<!--Generator: Apple Native CoreSVG 326-->
<!DOCTYPE svg
PUBLIC "-//W3C//DTD SVG 1.1//EN"
       "http://www.w3.org/Graphics/SVG/1.1/DTD/svg11.dtd">
<svg version="1.1" xmlns="http://www.w3.org/2000/svg" xmlns:xlink="http://www.w3.org/1999/xlink" viewBox="0 0 860.688 444.75">
 <g>
  <rect height="444.75" opacity="0" width="860.688" x="0" y="0"/>
  <path d="M227.469 0C188.719 0 165.469 16.5 138.219 45L21.7189 172C-7.28115 202.5-7.03115 239.5 21.2189 270.25L137.969 399C162.969 425.75 190.969 444.25 227.469 444.25L633.219 444.25C669.719 444.25 697.719 425.75 722.719 399L839.219 270.25C867.719 239.5 867.969 202.5 838.969 172L722.469 45C694.969 16.5 671.969 0 633.219 0ZM227.469 44.25L633.219 44.25C658.219 44.25 669.219 52.75 687.469 71.75L803.969 198C819.719 214.25 819.719 228.75 804.469 244.5L687.469 372.25C671.219 389.25 655.969 399.75 633.219 399.75L227.469 399.75C204.719 399.75 189.469 389.25 173.219 372.25L56.2189 244.5C40.9689 228.75 40.9689 214.25 56.4689 198L173.219 71.75C191.469 52.75 202.469 44.25 227.469 44.25Z" fill="black" fill-opacity="0.85"/>
  <path d="M213.969 165.5C182.969 165.5 157.469 191 157.469 222C157.469 252.75 182.969 278.25 213.969 278.25C244.969 278.25 270.219 252.75 270.219 222C270.219 191 244.969 165.5 213.969 165.5ZM430.469 222.75C399.719 222.75 374.219 248.25 374.219 279.25C374.219 310.25 399.719 335.5 430.469 335.5C461.469 335.5 486.969 310.25 486.969 279.25C486.969 248.25 461.469 222.75 430.469 222.75ZM647.219 165.5C616.219 165.5 590.969 191 590.969 222C590.969 252.75 616.219 278.25 647.219 278.25C678.219 278.25 703.719 252.75 703.719 222C703.719 191 678.219 165.5 647.219 165.5Z" fill="black" fill-opacity="0.85"/>
 </g>
</svg>
