<?xml version="1.0" encoding="UTF-8"?>
<!--Generator: Apple Native CoreSVG 326-->
<!DOCTYPE svg
PUBLIC "-//W3C//DTD SVG 1.1//EN"
       "http://www.w3.org/Graphics/SVG/1.1/DTD/svg11.dtd">
<svg version="1.1" xmlns="http://www.w3.org/2000/svg" xmlns:xlink="http://www.w3.org/1999/xlink" viewBox="0 0 587.75 587.75">
 <g>
  <rect height="587.75" opacity="0" width="587.75" x="0" y="0"/>
  <path d="M97.25 587.75L490.25 587.75C555 587.75 587.75 555 587.75 491.5L587.75 96.5C587.75 32.75 555 0 490.25 0L97.25 0C32.75 0 0 32.5 0 96.5L0 491.5C0 555.5 32.75 587.75 97.25 587.75ZM98.25 543.5C63.25 543.5 44.25 525 44.25 489L44.25 98.75C44.25 63 63.25 44.25 98.25 44.25L489.5 44.25C523.75 44.25 543.5 63 543.5 98.75L543.5 489C543.5 525 523.75 543.5 489.5 543.5Z" fill="black" fill-opacity="0.85"/>
  <path d="M183.5 196.25C166 196.25 158.75 204 149.25 213.75L90.25 274.25C80.25 284.75 80 301.75 90.25 312.25L149.25 373.5C158.75 383.5 168.25 391 183.5 391L404 391C419.25 391 429 383.5 438.5 373.5L497.5 312.25C507.75 301.75 507.5 284.75 497.5 274.25L438.5 213.75C429 204 421.75 196.25 404 196.25ZM178.5 263.5C195.25 263.5 209 277.25 209 293.75C209 310 195.25 324 178.5 324C162.25 324 148.5 310 148.5 293.75C148.5 277.25 162.25 263.5 178.5 263.5ZM293.75 286.25C310.25 286.25 324 299.75 324 316.5C324 332.75 310.25 346.5 293.75 346.5C277.5 346.5 263.5 332.75 263.5 316.5C263.5 299.75 277.5 286.25 293.75 286.25ZM409 263.5C425.5 263.5 439 277.25 439 293.75C439 310 425.5 324 409 324C392.5 324 378.75 310 378.75 293.75C378.75 277.25 392.5 263.5 409 263.5Z" fill="black" fill-opacity="0.85"/>
 </g>
</svg>
