<?xml version="1.0" encoding="UTF-8"?>
<!--Generator: Apple Native CoreSVG 326-->
<!DOCTYPE svg
PUBLIC "-//W3C//DTD SVG 1.1//EN"
       "http://www.w3.org/Graphics/SVG/1.1/DTD/svg11.dtd">
<svg version="1.1" xmlns="http://www.w3.org/2000/svg" xmlns:xlink="http://www.w3.org/1999/xlink" viewBox="0 0 346 693.75">
 <g>
  <rect height="693.75" opacity="0" width="346" x="0" y="0"/>
  <path d="M346 93.5L346 600.5C346 660.75 312.75 693.75 251.75 693.75L94.25 693.75C33.25 693.75 0 660.75 0 600.5L0 93.5C0 33 33.25 0.25 94.25 0.25L251.75 0.25C312.75 0.25 346 33 346 93.5ZM125 527.5C125 553.75 146.5 575.5 173.25 575.5C199.75 575.5 221.25 553.75 221.25 527.5C221.25 501 199.75 479.5 173.25 479.5C146.5 479.5 125 501 125 527.5ZM125 346.75C125 373.25 146.5 395 173.25 395C199.75 395 221.25 373.25 221.25 346.75C221.25 320.25 199.75 298.75 173.25 298.75C146.5 298.75 125 320.25 125 346.75ZM125 166C125 192.75 146.5 214.25 173.25 214.25C199.75 214.25 221.25 192.75 221.25 166C221.25 139.75 199.75 118.25 173.25 118.25C146.5 118.25 125 139.75 125 166Z" fill="black" fill-opacity="0.85"/>
 </g>
</svg>
