<?xml version="1.0" encoding="UTF-8"?>
<!--Generator: Apple Native CoreSVG 326-->
<!DOCTYPE svg
PUBLIC "-//W3C//DTD SVG 1.1//EN"
       "http://www.w3.org/Graphics/SVG/1.1/DTD/svg11.dtd">
<svg version="1.1" xmlns="http://www.w3.org/2000/svg" xmlns:xlink="http://www.w3.org/1999/xlink" viewBox="0 0 712.75 670.75">
 <g>
  <rect height="670.75" opacity="0" width="712.75" x="0" y="0"/>
  <path d="M646.75 207.75L646.75 239.75L673.75 239.75C697.25 239.75 712.75 255.5 712.75 278.75L712.75 391.5C712.75 415 697.25 430.5 673.75 430.5L646.75 430.5L646.75 462.75C646.75 571.5 507.25 670.25 356.5 670.25C205.5 670.25 66 571.5 66 462.75L66 430.5L39 430.5C15.5 430.5 0 415 0 391.5L0 278.75C0 255.5 15.5 239.75 39 239.75L66 239.75L66 207.75C66 98.75 205.5 0 356.5 0C507.25 0 646.75 98.75 646.75 207.75ZM142.25 335.25C142.25 369.25 170 396.75 204 396.75C238.25 396.75 265.75 369.25 265.75 335.25C265.75 301.25 238.25 273.5 204 273.5C170 273.5 142.25 301.25 142.25 335.25ZM447 335.25C447 369.25 474.5 396.75 508.75 396.75C542.75 396.75 570.5 369.25 570.5 335.25C570.5 301.25 542.75 273.5 508.75 273.5C474.5 273.5 447 301.25 447 335.25Z" fill="black" fill-opacity="0.85"/>
 </g>
</svg>
