<?xml version="1.0" encoding="UTF-8"?>
<!--Generator: Apple Native CoreSVG 326-->
<!DOCTYPE svg
PUBLIC "-//W3C//DTD SVG 1.1//EN"
       "http://www.w3.org/Graphics/SVG/1.1/DTD/svg11.dtd">
<svg version="1.1" xmlns="http://www.w3.org/2000/svg" xmlns:xlink="http://www.w3.org/1999/xlink" viewBox="0 0 587.75 587.75">
 <g>
  <rect height="587.75" opacity="0" width="587.75" x="0" y="0"/>
  <path d="M97.25 587.75L490.25 587.75C555 587.75 587.75 555 587.75 491.5L587.75 96.5C587.75 32.75 555 0 490.25 0L97.25 0C32.75 0 0 32.5 0 96.5L0 491.5C0 555.5 32.75 587.75 97.25 587.75ZM98.25 543.5C63.25 543.5 44.25 525 44.25 489L44.25 98.75C44.25 63 63.25 44.25 98.25 44.25L489.5 44.25C523.75 44.25 543.5 63 543.5 98.75L543.5 489C543.5 525 523.75 543.5 489.5 543.5Z" fill="black" fill-opacity="0.85"/>
  <path d="M112.25 322.75C112.25 334.5 120.25 342.25 132 342.25L146 342.25L146 359C146 414.25 217 464.75 293.75 464.75C370.5 464.75 441.75 414.25 441.75 359L441.75 342.25L455.5 342.25C467.5 342.25 475.5 334.5 475.5 322.75L475.5 265.25C475.5 253.5 467.5 245.75 455.5 245.75L441.75 245.75L441.75 228.75C441.75 173.75 370.5 123.25 293.75 123.25C217 123.25 146 173.75 146 228.75L146 245.75L132 245.75C120.25 245.75 112.25 253.5 112.25 265.25ZM214.5 330.25C194.5 330.25 178.25 314 178.25 294C178.25 274 194.5 257.75 214.5 257.75C234.5 257.75 250.75 274 250.75 294C250.75 314 234.5 330.25 214.5 330.25ZM373.25 330.25C353.25 330.25 337 314 337 294C337 274 353.25 257.75 373.25 257.75C393.25 257.75 409.5 274 409.5 294C409.5 314 393.25 330.25 373.25 330.25Z" fill="black" fill-opacity="0.85"/>
 </g>
</svg>
