<?xml version="1.0" encoding="UTF-8"?>
<!--Generator: Apple Native CoreSVG 326-->
<!DOCTYPE svg
PUBLIC "-//W3C//DTD SVG 1.1//EN"
       "http://www.w3.org/Graphics/SVG/1.1/DTD/svg11.dtd">
<svg version="1.1" xmlns="http://www.w3.org/2000/svg" xmlns:xlink="http://www.w3.org/1999/xlink" viewBox="0 0 587.75 587.75">
 <g>
  <rect height="587.75" opacity="0" width="587.75" x="0" y="0"/>
  <path d="M97.25 587.75L490.25 587.75C555 587.75 587.75 555 587.75 491.5L587.75 96.5C587.75 32.75 555 0 490.25 0L97.25 0C32.75 0 0 32.5 0 96.5L0 491.5C0 555.5 32.75 587.75 97.25 587.75ZM98.25 543.5C63.25 543.5 44.25 525 44.25 489L44.25 98.75C44.25 63 63.25 44.25 98.25 44.25L489.5 44.25C523.75 44.25 543.5 63 543.5 98.75L543.5 489C543.5 525 523.75 543.5 489.5 543.5Z" fill="black" fill-opacity="0.85"/>
  <path d="M167.75 443.75L420 443.75C436.5 443.75 448.5 431.5 448.5 415L448.5 172.5C448.5 155.75 436.5 143.75 420 143.75L167.75 143.75C151.25 143.75 139 155.75 139 172.5L139 415C139 431.5 151.25 443.75 167.75 443.75ZM294 271.25C276.5 271.25 262.25 257 262.25 239.5C262.25 221.75 276.5 207.75 294 207.75C311.75 207.75 326 221.75 326 239.5C326 257 311.75 271.25 294 271.25ZM224.75 379.5C207 379.5 192.75 365.5 192.75 348C192.75 330.25 207 316 224.75 316C242.25 316 256.5 330.25 256.5 348C256.5 365.5 242.25 379.5 224.75 379.5ZM363.5 379.5C346 379.5 331.75 365.5 331.75 348C331.75 330.25 346 316 363.5 316C381 316 395.5 330.25 395.5 348C395.5 365.5 381 379.5 363.5 379.5Z" fill="black" fill-opacity="0.85"/>
 </g>
</svg>
