<?xml version="1.0" encoding="UTF-8"?>
<!--Generator: Apple Native CoreSVG 326-->
<!DOCTYPE svg
PUBLIC "-//W3C//DTD SVG 1.1//EN"
       "http://www.w3.org/Graphics/SVG/1.1/DTD/svg11.dtd">
<svg version="1.1" xmlns="http://www.w3.org/2000/svg" xmlns:xlink="http://www.w3.org/1999/xlink" viewBox="0 0 651.25 651.75">
 <g>
  <rect height="651.75" opacity="0" width="651.25" x="0" y="0"/>
  <path d="M651.25 325.75C651.25 505 505 651.25 325.5 651.25C146.25 651.25 0 505 0 325.75C0 146.25 146.25 0 325.5 0C505 0 651.25 146.25 651.25 325.75ZM285.25 448.25C276 448.25 271.5 453 271.5 462L271.5 487C271.5 517.5 295 541.5 325.5 541.5C355.75 541.5 379.75 517.5 379.75 487L379.75 462C379.75 453 375 448.25 365.75 448.25ZM126.5 324C126.5 358 153.75 385.5 188 385.5C222 385.5 249.75 358 249.75 324C249.75 289.75 222 262.25 188 262.25C153.75 262.25 126.5 289.75 126.5 324ZM401.5 324C401.5 358 429 385.5 463 385.5C497.25 385.5 524.75 358 524.75 324C524.75 289.75 497.25 262.25 463 262.25C429 262.25 401.5 289.75 401.5 324Z" fill="black" fill-opacity="0.85"/>
 </g>
</svg>
