<?xml version="1.0" encoding="UTF-8"?>
<!--Generator: Apple Native CoreSVG 326-->
<!DOCTYPE svg
PUBLIC "-//W3C//DTD SVG 1.1//EN"
       "http://www.w3.org/Graphics/SVG/1.1/DTD/svg11.dtd">
<svg version="1.1" xmlns="http://www.w3.org/2000/svg" xmlns:xlink="http://www.w3.org/1999/xlink" viewBox="0 0 651.25 651.75">
 <g>
  <rect height="651.75" opacity="0" width="651.25" x="0" y="0"/>
  <path d="M651.25 325.75C651.25 505 505 651.25 325.5 651.25C146.25 651.25 0 505 0 325.75C0 146.25 146.25 0 325.5 0C505 0 651.25 146.25 651.25 325.75ZM264 464.5C264 498.75 291.5 526.25 325.5 526.25C359.5 526.25 387.25 498.75 387.25 464.5C387.25 430.5 359.5 402.75 325.5 402.75C291.5 402.75 264 430.5 264 464.5ZM119.75 311.75C119.75 345.75 147.25 373.5 181.5 373.5C215.5 373.5 243.25 345.75 243.25 311.75C243.25 277.5 215.5 250 181.5 250C147.25 250 119.75 277.5 119.75 311.75ZM408 311.75C408 345.75 435.75 373.5 469.75 373.5C504 373.5 531.25 345.75 531.25 311.75C531.25 277.5 504 250 469.75 250C435.75 250 408 277.5 408 311.75Z" fill="black" fill-opacity="0.85"/>
 </g>
</svg>
