<?xml version="1.0" encoding="UTF-8"?>
<!--Generator: Apple Native CoreSVG 326-->
<!DOCTYPE svg
PUBLIC "-//W3C//DTD SVG 1.1//EN"
       "http://www.w3.org/Graphics/SVG/1.1/DTD/svg11.dtd">
<svg version="1.1" xmlns="http://www.w3.org/2000/svg" xmlns:xlink="http://www.w3.org/1999/xlink" viewBox="0 0 587.75 587.75">
 <g>
  <rect height="587.75" opacity="0" width="587.75" x="0" y="0"/>
  <path d="M587.75 96.5L587.75 491.5C587.75 555 555 587.75 490.25 587.75L97.25 587.75C32.75 587.75 0 555.5 0 491.5L0 96.5C0 32.5 32.75 0 97.25 0L490.25 0C555 0 587.75 32.75 587.75 96.5ZM142.25 227.25L142.25 244.5L128 244.5C116 244.5 107.75 252.5 107.75 264.5L107.75 323.5C107.75 335.5 116 343.5 128 343.5L142.25 343.5L142.25 360.5C142.25 417.25 215 469 293.75 469C372.5 469 445.5 417.25 445.5 360.5L445.5 343.5L459.75 343.5C471.75 343.5 480 335.5 480 323.5L480 264.5C480 252.5 471.75 244.5 459.75 244.5L445.5 244.5L445.5 227.25C445.5 170.75 372.5 119 293.75 119C215 119 142.25 170.75 142.25 227.25ZM249.75 294C249.75 314.5 232.75 331.25 212.5 331.25C192 331.25 175.25 314.5 175.25 294C175.25 273.5 192 256.75 212.5 256.75C232.75 256.75 249.75 273.5 249.75 294ZM412.5 294C412.5 314.5 395.75 331.25 375.25 331.25C354.75 331.25 338 314.5 338 294C338 273.5 354.75 256.75 375.25 256.75C395.75 256.75 412.5 273.5 412.5 294Z" fill="black" fill-opacity="0.85"/>
 </g>
</svg>
