<?xml version="1.0" encoding="UTF-8"?>
<!--Generator: Apple Native CoreSVG 326-->
<!DOCTYPE svg
PUBLIC "-//W3C//DTD SVG 1.1//EN"
       "http://www.w3.org/Graphics/SVG/1.1/DTD/svg11.dtd">
<svg version="1.1" xmlns="http://www.w3.org/2000/svg" xmlns:xlink="http://www.w3.org/1999/xlink" viewBox="0 0 608.75 588.25">
 <g>
  <rect height="588.25" opacity="0" width="608.75" x="0" y="0"/>
  <path d="M97.25 588.25L511.5 588.25C576.25 588.25 608.75 555.75 608.75 492L608.75 97C608.75 33.25 576.25 0.75 511.5 0.75L97.25 0.75C32.75 0.75 0 33 0 97L0 492C0 556 32.75 588.25 97.25 588.25ZM98.25 544C63.25 544 44.25 525.5 44.25 489.75L44.25 99.25C44.25 63.5 63.25 45 98.25 45L510.75 45C545 45 564.5 63.5 564.5 99.25L564.5 489.75C564.5 525.5 545 544 510.75 544Z" fill="black" fill-opacity="0.85"/>
  <path d="M292 257.25L316.5 257.25C327 257.25 334.25 250.25 334.25 239.5L334.25 141.75C334.25 131.25 327 124 316.5 124L292 124C281.75 124 274.75 131.25 274.75 141.75L274.75 239.5C274.75 250.25 281.75 257.25 292 257.25ZM144.5 447.25L233.75 447.25C244.25 447.25 251.25 440.25 251.25 429.5L251.25 405.25C251.25 394.75 244.25 387.75 233.75 387.75L144.5 387.75C134 387.75 126.75 395 126.75 405.25L126.75 429.5C126.75 440.25 133.75 447.25 144.5 447.25ZM375.25 447.25L464.25 447.25C475 447.25 482.25 440.25 482.25 429.5L482.25 405.25C482.25 395 475 387.75 464.25 387.75L375.25 387.75C364.5 387.75 357.5 394.75 357.5 405.25L357.5 429.5C357.5 440.25 364.5 447.25 375.25 447.25Z" fill="black" fill-opacity="0.85"/>
 </g>
</svg>
