<?xml version="1.0" encoding="UTF-8"?>
<!--Generator: Apple Native CoreSVG 326-->
<!DOCTYPE svg
PUBLIC "-//W3C//DTD SVG 1.1//EN"
       "http://www.w3.org/Graphics/SVG/1.1/DTD/svg11.dtd">
<svg version="1.1" xmlns="http://www.w3.org/2000/svg" xmlns:xlink="http://www.w3.org/1999/xlink" viewBox="0 0 687 550.25">
 <g>
  <rect height="550.25" opacity="0" width="687" x="0" y="0"/>
  <path d="M578.5 23.25C646.75 88.25 687 182.5 687 275C687 367.5 646.75 461.5 578.5 526.5C562.75 541.75 541.75 549.5 519 549.5L167.75 549.5C145.25 549.5 124.25 541.75 108.25 526.5C40 461.5 0 367.5 0 275C0 183.5 39.5 90 105.75 25.25C122.25 9 144.5 0 167.75 0L519 0C541.75 0 562.75 8.25 578.5 23.25ZM179.5 173L179.5 380C179.5 394.5 190.25 405.25 204.75 405.25C219.25 405.25 231 394.5 231 380L231 173C231 158.5 219.25 146.75 204.75 146.75C190.25 146.75 179.5 158.5 179.5 173ZM456 173.25L456 379.25C456 393.75 467.25 405.25 481.75 405.25C496.5 405.25 507.5 394 507.5 379.25L507.5 173.25C507.5 158.5 496.5 146.75 481.75 146.75C467.25 146.75 456 158.5 456 173.25Z" fill="black" fill-opacity="0.85"/>
 </g>
</svg>
