<?xml version="1.0" encoding="UTF-8"?>
<!--Generator: Apple Native CoreSVG 326-->
<!DOCTYPE svg
PUBLIC "-//W3C//DTD SVG 1.1//EN"
       "http://www.w3.org/Graphics/SVG/1.1/DTD/svg11.dtd">
<svg version="1.1" xmlns="http://www.w3.org/2000/svg" xmlns:xlink="http://www.w3.org/1999/xlink" viewBox="0 0 651.25 651.75">
 <g>
  <rect height="651.75" opacity="0" width="651.25" x="0" y="0"/>
  <path d="M325.5 651.25C505.25 651.25 651.25 505.5 651.25 325.75C651.25 146 505.25 0 325.5 0C145.75 0 0 146 0 325.75C0 505.5 145.75 651.25 325.5 651.25ZM325.5 604.75C171.25 604.75 46.5 480 46.5 325.75C46.5 171.5 171.25 46.75 325.5 46.75C479.75 46.75 604.5 171.5 604.5 325.75C604.5 480 479.75 604.75 325.5 604.75Z" fill="black" fill-opacity="0.85"/>
  <path d="M325.5 215.5C348.25 215.5 366.75 197 366.75 174.5C366.75 151.75 348.25 133.25 325.5 133.25C303 133.25 284.5 151.75 284.5 174.5C284.5 197 303 215.5 325.5 215.5ZM183.5 385.75C216.75 385.75 243.75 359 243.75 325.75C243.75 292.5 216.75 265.5 183.5 265.5C150.25 265.5 123.25 292.5 123.25 325.75C123.25 359 150.25 385.75 183.5 385.75ZM467.75 385.75C500.75 385.75 527.75 359 527.75 325.75C527.75 292.5 500.75 265.5 467.75 265.5C434.5 265.5 407.5 292.5 407.5 325.75C407.5 359 434.5 385.75 467.75 385.75Z" fill="black" fill-opacity="0.85"/>
 </g>
</svg>
