<?xml version="1.0" encoding="UTF-8"?>
<!--Generator: Apple Native CoreSVG 326-->
<!DOCTYPE svg
PUBLIC "-//W3C//DTD SVG 1.1//EN"
       "http://www.w3.org/Graphics/SVG/1.1/DTD/svg11.dtd">
<svg version="1.1" xmlns="http://www.w3.org/2000/svg" xmlns:xlink="http://www.w3.org/1999/xlink" viewBox="0 0 587.75 587.75">
 <g>
  <rect height="587.75" opacity="0" width="587.75" x="0" y="0"/>
  <path d="M97.25 587.75L490.25 587.75C555 587.75 587.75 555 587.75 491.5L587.75 96.5C587.75 32.75 555 0 490.25 0L97.25 0C32.75 0 0 32.5 0 96.5L0 491.5C0 555.5 32.75 587.75 97.25 587.75ZM98.25 543.5C63.25 543.5 44.25 525 44.25 489L44.25 98.75C44.25 63 63.25 44.25 98.25 44.25L489.5 44.25C523.75 44.25 543.5 63 543.5 98.75L543.5 489C543.5 525 523.75 543.5 489.5 543.5Z" fill="black" fill-opacity="0.85"/>
  <path d="M167.75 443.75L420 443.75C436.5 443.75 448.5 431.5 448.5 415L448.5 172.5C448.5 155.75 436.5 143.75 420 143.75L167.75 143.75C151.25 143.75 139 155.75 139 172.5L139 415C139 431.5 151.25 443.75 167.75 443.75ZM233.25 296.25C224.5 296.25 217.5 289.25 217.5 280.25L217.5 223.5C217.5 214.5 224.5 207.25 233.25 207.25C242.25 207.25 249.75 214.5 249.75 223.5L249.75 280.25C249.75 289.25 242.25 296.25 233.25 296.25ZM354 296.25C345 296.25 338 289.25 338 280.25L338 223.5C338 214.5 345 207.25 354 207.25C362.75 207.25 370 214.5 370 223.5L370 280.25C370 289.25 362.75 296.25 354 296.25ZM273.25 393C267.5 393 264.5 390 264.5 384.25L264.5 364.5C264.5 348 277 335 293.75 335C310.25 335 323 348 323 364.5L323 384.25C323 390 320.25 393 314.5 393Z" fill="black" fill-opacity="0.85"/>
 </g>
</svg>
