<?xml version="1.0" encoding="UTF-8"?>
<!--Generator: Apple Native CoreSVG 326-->
<!DOCTYPE svg
PUBLIC "-//W3C//DTD SVG 1.1//EN"
       "http://www.w3.org/Graphics/SVG/1.1/DTD/svg11.dtd">
<svg version="1.1" xmlns="http://www.w3.org/2000/svg" xmlns:xlink="http://www.w3.org/1999/xlink" viewBox="0 0 587.75 587.75">
 <g>
  <rect height="587.75" opacity="0" width="587.75" x="0" y="0"/>
  <path d="M587.75 96.5L587.75 491.5C587.75 555 555 587.75 490.25 587.75L97.25 587.75C32.75 587.75 0 555.5 0 491.5L0 96.5C0 32.5 32.75 0 97.25 0L490.25 0C555 0 587.75 32.75 587.75 96.5ZM236.75 105.25C219.75 105.25 207.25 117.75 207.25 134.75L207.25 453.25C207.25 470.25 219.75 482.75 236.75 482.75L350.75 482.75C368 482.75 380.25 470.25 380.25 453.25L380.25 134.75C380.25 117.75 368 105.25 350.75 105.25ZM326.5 400C326.5 418.25 312 432.75 293.75 432.75C275.75 432.75 261.25 418.25 261.25 400C261.25 382 275.75 367.5 293.75 367.5C312 367.5 326.5 382 326.5 400ZM326.5 293.75C326.5 311.75 312 326.25 293.75 326.25C275.75 326.25 261.25 311.75 261.25 293.75C261.25 275.5 275.75 261 293.75 261C312 261 326.5 275.5 326.5 293.75ZM326.5 187.25C326.5 205.25 312 220 293.75 220C275.75 220 261.25 205.25 261.25 187.25C261.25 169.25 275.75 154.75 293.75 154.75C312 154.75 326.5 169.25 326.5 187.25Z" fill="black" fill-opacity="0.85"/>
 </g>
</svg>
