<?xml version="1.0" encoding="UTF-8"?>
<!--Generator: Apple Native CoreSVG 326-->
<!DOCTYPE svg
PUBLIC "-//W3C//DTD SVG 1.1//EN"
       "http://www.w3.org/Graphics/SVG/1.1/DTD/svg11.dtd">
<svg version="1.1" xmlns="http://www.w3.org/2000/svg" xmlns:xlink="http://www.w3.org/1999/xlink" viewBox="0 0 587.75 587.75">
 <g>
  <rect height="587.75" opacity="0" width="587.75" x="0" y="0"/>
  <path d="M587.75 96.5L587.75 491.5C587.75 555 555 587.75 490.25 587.75L97.25 587.75C32.75 587.75 0 555.5 0 491.5L0 96.5C0 32.5 32.75 0 97.25 0L490.25 0C555 0 587.75 32.75 587.75 96.5ZM164.75 140C147.5 140 135.25 152.25 135.25 169.25L135.25 418C135.25 435 147.5 447.5 164.75 447.5L423 447.5C440 447.5 452.5 435 452.5 418L452.5 169.25C452.5 152.25 440 140 423 140ZM255.5 360C255.5 378 241 392.5 223 392.5C204.75 392.5 190.25 378 190.25 360C190.25 342 204.75 327.25 223 327.25C241 327.25 255.5 342 255.5 360ZM398 360C398 378 383.25 392.5 365.25 392.5C347.25 392.5 332.75 378 332.75 360C332.75 342 347.25 327.25 365.25 327.25C383.25 327.25 398 342 398 360ZM326.75 227.25C326.75 245.5 312.25 260 294 260C276 260 261.5 245.5 261.5 227.25C261.5 209.25 276 194.75 294 194.75C312.25 194.75 326.75 209.25 326.75 227.25Z" fill="black" fill-opacity="0.85"/>
 </g>
</svg>
