<?xml version="1.0" encoding="UTF-8"?>
<!--Generator: Apple Native CoreSVG 326-->
<!DOCTYPE svg
PUBLIC "-//W3C//DTD SVG 1.1//EN"
       "http://www.w3.org/Graphics/SVG/1.1/DTD/svg11.dtd">
<svg version="1.1" xmlns="http://www.w3.org/2000/svg" xmlns:xlink="http://www.w3.org/1999/xlink" viewBox="0 0 608.75 588.25">
 <g>
  <rect height="588.25" opacity="0" width="608.75" x="0" y="0"/>
  <path d="M608.75 97L608.75 492C608.75 555.75 576.25 588.25 511.5 588.25L97.25 588.25C32.75 588.25 0 556 0 492L0 97C0 33 32.75 0.75 97.25 0.75L511.5 0.75C576.25 0.75 608.75 33.25 608.75 97ZM141 390C130 390 122.75 397.5 122.75 408L122.75 433.25C122.75 444 129.75 451 141 451L232 451C242.75 451 250 444 250 433.25L250 408C250 397.25 242.75 390 232 390ZM377 390C366 390 358.75 397.25 358.75 408L358.75 433.25C358.75 444 366 451 377 451L468 451C479 451 486.25 444 486.25 433.25L486.25 408C486.25 397.5 479 390 468 390ZM291.75 120.25C281.25 120.25 274 127.5 274 138.25L274 238.25C274 249.25 281.25 256.5 291.75 256.5L316.75 256.5C327.5 256.5 335 249.25 335 238.25L335 138.25C335 127.5 327.5 120.25 316.75 120.25Z" fill="black" fill-opacity="0.85"/>
 </g>
</svg>
