<?xml version="1.0" encoding="UTF-8"?>
<!--Generator: Apple Native CoreSVG 326-->
<!DOCTYPE svg
PUBLIC "-//W3C//DTD SVG 1.1//EN"
       "http://www.w3.org/Graphics/SVG/1.1/DTD/svg11.dtd">
<svg version="1.1" xmlns="http://www.w3.org/2000/svg" xmlns:xlink="http://www.w3.org/1999/xlink" viewBox="0 0 587.75 587.75">
 <g>
  <rect height="587.75" opacity="0" width="587.75" x="0" y="0"/>
  <path d="M97.25 587.75L490.25 587.75C555 587.75 587.75 555 587.75 491.5L587.75 96.5C587.75 32.75 555 0 490.25 0L97.25 0C32.75 0 0 32.5 0 96.5L0 491.5C0 555.5 32.75 587.75 97.25 587.75ZM98.25 543.5C63.25 543.5 44.25 525 44.25 489L44.25 98.75C44.25 63 63.25 44.25 98.25 44.25L489.5 44.25C523.75 44.25 543.5 63 543.5 98.75L543.5 489C543.5 525 523.75 543.5 489.5 543.5Z" fill="black" fill-opacity="0.85"/>
  <path d="M167.75 443.75L420 443.75C436.5 443.75 448.5 431.5 448.5 415L448.5 172.5C448.5 155.75 436.5 143.75 420 143.75L167.75 143.75C151.25 143.75 139 155.75 139 172.5L139 415C139 431.5 151.25 443.75 167.75 443.75ZM294 260.75C276.5 260.75 262.25 246.75 262.25 228.75C262.25 211.25 276.5 197.25 294 197.25C311.75 197.25 326 211.25 326 228.75C326 246.75 311.75 260.75 294 260.75ZM224.75 390C207 390 192.75 376 192.75 358.5C192.75 340.75 207 326.5 224.75 326.5C242.25 326.5 256.5 340.75 256.5 358.5C256.5 376 242.25 390 224.75 390ZM363.5 390C346 390 331.75 376 331.75 358.5C331.75 340.75 346 326.5 363.5 326.5C381 326.5 395.5 340.75 395.5 358.5C395.5 376 381 390 363.5 390Z" fill="black" fill-opacity="0.85"/>
 </g>
</svg>
