<?xml version="1.0" encoding="UTF-8"?>
<!--Generator: Apple Native CoreSVG 326-->
<!DOCTYPE svg
PUBLIC "-//W3C//DTD SVG 1.1//EN"
       "http://www.w3.org/Graphics/SVG/1.1/DTD/svg11.dtd">
<svg version="1.1" xmlns="http://www.w3.org/2000/svg" xmlns:xlink="http://www.w3.org/1999/xlink" viewBox="0 0 587.75 587.75">
 <g>
  <rect height="587.75" opacity="0" width="587.75" x="0" y="0"/>
  <path d="M587.75 96.5L587.75 491.5C587.75 555 555 587.75 490.25 587.75L97.25 587.75C32.75 587.75 0 555.5 0 491.5L0 96.5C0 32.5 32.75 0 97.25 0L490.25 0C555 0 587.75 32.75 587.75 96.5ZM164.75 140C147.5 140 135.25 152.25 135.25 169.25L135.25 418C135.25 435 147.5 447.5 164.75 447.5L423 447.5C440 447.5 452.5 435 452.5 418L452.5 169.25C452.5 152.25 440 140 423 140ZM323.75 366.25L323.75 386.5C323.75 392.25 321 395.5 315 395.5L272.75 395.5C266.75 395.5 263.75 392.25 263.75 386.5L263.75 366.25C263.75 349.25 276.5 336 293.75 336C310.75 336 323.75 349.25 323.75 366.25ZM248.5 221.75L248.5 279.75C248.5 289 241 296.25 231.75 296.25C222.75 296.25 215.5 289 215.5 279.75L215.5 221.75C215.5 212.5 222.75 205 231.75 205C241 205 248.5 212.5 248.5 221.75ZM372 221.75L372 279.75C372 289 364.5 296.25 355.5 296.25C346.25 296.25 339 289 339 279.75L339 221.75C339 212.5 346.25 205 355.5 205C364.5 205 372 212.5 372 221.75Z" fill="black" fill-opacity="0.85"/>
 </g>
</svg>
