<?xml version="1.0" encoding="UTF-8"?>
<!--Generator: Apple Native CoreSVG 326-->
<!DOCTYPE svg
PUBLIC "-//W3C//DTD SVG 1.1//EN"
       "http://www.w3.org/Graphics/SVG/1.1/DTD/svg11.dtd">
<svg version="1.1" xmlns="http://www.w3.org/2000/svg" xmlns:xlink="http://www.w3.org/1999/xlink" viewBox="0 0 651.25 651.75">
 <g>
  <rect height="651.75" opacity="0" width="651.25" x="0" y="0"/>
  <path d="M325.5 651.25C505.25 651.25 651.25 505.5 651.25 325.75C651.25 146 505.25 0 325.5 0C145.75 0 0 146 0 325.75C0 505.5 145.75 651.25 325.5 651.25ZM325.5 604.75C171.25 604.75 46.5 480 46.5 325.75C46.5 171.5 171.25 46.75 325.5 46.75C479.75 46.75 604.5 171.5 604.5 325.75C604.5 480 479.75 604.75 325.5 604.75Z" fill="black" fill-opacity="0.85"/>
  <path d="M184.75 373.75C218 373.75 245 346.75 245 313.5C245 280.25 218 253.25 184.75 253.25C151.5 253.25 124.5 280.25 124.5 313.5C124.5 346.75 151.5 373.75 184.75 373.75ZM466.25 373.75C499.5 373.75 526.5 346.75 526.5 313.5C526.5 280.25 499.5 253.25 466.25 253.25C433.25 253.25 406.25 280.25 406.25 313.5C406.25 346.75 433.25 373.75 466.25 373.75ZM325.5 522.75C358.75 522.75 385.75 496 385.75 462.75C385.75 429.5 358.75 402.5 325.5 402.5C292.25 402.5 265.5 429.5 265.5 462.75C265.5 496 292.25 522.75 325.5 522.75Z" fill="black" fill-opacity="0.85"/>
 </g>
</svg>
