<?xml version="1.0" encoding="UTF-8"?>
<!--Generator: Apple Native CoreSVG 326-->
<!DOCTYPE svg
PUBLIC "-//W3C//DTD SVG 1.1//EN"
       "http://www.w3.org/Graphics/SVG/1.1/DTD/svg11.dtd">
<svg version="1.1" xmlns="http://www.w3.org/2000/svg" xmlns:xlink="http://www.w3.org/1999/xlink" viewBox="0 0 608.75 588.25">
 <g>
  <rect height="588.25" opacity="0" width="608.75" x="0" y="0"/>
  <path d="M97.25 588.25L511.5 588.25C576.25 588.25 608.75 555.75 608.75 492L608.75 97C608.75 33.25 576.25 0.75 511.5 0.75L97.25 0.75C32.75 0.75 0 33 0 97L0 492C0 556 32.75 588.25 97.25 588.25ZM98.25 544C63.25 544 44.25 525.5 44.25 489.75L44.25 99.25C44.25 63.5 63.25 45 98.25 45L510.75 45C545 45 564.5 63.5 564.5 99.25L564.5 489.75C564.5 525.5 545 544 510.75 544Z" fill="black" fill-opacity="0.85"/>
  <path d="M193.25 445.75C219 445.75 240 424.75 240 398.75C240 373 219 352 193.25 352C167.5 352 146.25 373 146.25 398.75C146.25 424.75 167.5 445.75 193.25 445.75ZM415.75 445.75C441.5 445.75 462.5 424.75 462.5 398.75C462.5 373 441.5 352 415.75 352C389.75 352 368.75 373 368.75 398.75C368.75 424.75 389.75 445.75 415.75 445.75ZM304.5 235.75C330 235.75 351.25 214.5 351.25 188.75C351.25 163 330 142 304.5 142C278.5 142 257.5 163 257.5 188.75C257.5 214.5 278.5 235.75 304.5 235.75Z" fill="black" fill-opacity="0.85"/>
 </g>
</svg>
