<?xml version="1.0" encoding="UTF-8"?>
<!--Generator: Apple Native CoreSVG 326-->
<!DOCTYPE svg
PUBLIC "-//W3C//DTD SVG 1.1//EN"
       "http://www.w3.org/Graphics/SVG/1.1/DTD/svg11.dtd">
<svg version="1.1" xmlns="http://www.w3.org/2000/svg" xmlns:xlink="http://www.w3.org/1999/xlink" viewBox="0 0 608.75 588.25">
 <g>
  <rect height="588.25" opacity="0" width="608.75" x="0" y="0"/>
  <path d="M97.25 588.25L511.5 588.25C576.25 588.25 608.75 555.75 608.75 492L608.75 97C608.75 33.25 576.25 0.75 511.5 0.75L97.25 0.75C32.75 0.75 0 33 0 97L0 492C0 556 32.75 588.25 97.25 588.25ZM98.25 544C63.25 544 44.25 525.5 44.25 489.75L44.25 99.25C44.25 63.5 63.25 45 98.25 45L510.75 45C545 45 564.5 63.5 564.5 99.25L564.5 489.75C564.5 525.5 545 544 510.75 544Z" fill="black" fill-opacity="0.85"/>
  <path d="M304.5 253.5C336.75 253.5 363 227.5 363 195C363 162.5 336.75 136.5 304.5 136.5C272 136.5 245.75 162.5 245.75 195C245.75 227.5 272 253.5 304.5 253.5ZM193.25 451.75C219 451.75 240 430.75 240 404.75C240 379.25 219 358 193.25 358C167.5 358 146.25 379.25 146.25 404.75C146.25 430.75 167.5 451.75 193.25 451.75ZM415.75 451.75C441.5 451.75 462.5 430.75 462.5 404.75C462.5 379.25 441.5 358 415.75 358C389.75 358 368.75 379.25 368.75 404.75C368.75 430.75 389.75 451.75 415.75 451.75Z" fill="black" fill-opacity="0.85"/>
 </g>
</svg>
