<?xml version="1.0" encoding="UTF-8"?>
<!--Generator: Apple Native CoreSVG 326-->
<!DOCTYPE svg
PUBLIC "-//W3C//DTD SVG 1.1//EN"
       "http://www.w3.org/Graphics/SVG/1.1/DTD/svg11.dtd">
<svg version="1.1" xmlns="http://www.w3.org/2000/svg" xmlns:xlink="http://www.w3.org/1999/xlink" viewBox="0 0 442.75 716.75">
 <g>
  <rect height="716.75" opacity="0" width="442.75" x="0" y="0"/>
  <path d="M0 238.5L442.75 238.5L442.75 66C442.75 26.5 417.5 0 379.75 0L63 0C25.25 0 0 26.5 0 66ZM88.25 179.25C80 179.25 73.75 173.25 73.75 164.75L73.75 89.75C73.75 81.5 79.75 75.25 88.25 75.25C96.5 75.25 102.75 81.25 102.75 89.75L102.75 164.75C102.75 173 96.75 179.25 88.25 179.25ZM0 594L442.75 594L442.75 273.25L0 273.25ZM88.25 423.75C80 423.75 73.75 417.75 73.75 409L73.75 334.25C73.75 326 79.75 319.75 88.25 319.75C96.5 319.75 102.75 325.75 102.75 334.25L102.75 409C102.75 417.5 96.75 423.75 88.25 423.75ZM0 628.75L0 650.75C0 690.25 25.25 716.75 63 716.75L379.75 716.75C417.5 716.75 442.75 690.25 442.75 650.75L442.75 628.75Z" fill="black" fill-opacity="0.85"/>
 </g>
</svg>
