<?xml version="1.0" encoding="UTF-8"?>
<!--Generator: Apple Native CoreSVG 326-->
<!DOCTYPE svg
PUBLIC "-//W3C//DTD SVG 1.1//EN"
       "http://www.w3.org/Graphics/SVG/1.1/DTD/svg11.dtd">
<svg version="1.1" xmlns="http://www.w3.org/2000/svg" xmlns:xlink="http://www.w3.org/1999/xlink" viewBox="0 0 455.25 717.25">
 <g>
  <rect height="717.25" opacity="0" width="455.25" x="0" y="0"/>
  <path d="M70.5 716.5L384.75 716.5C427 716.5 455.25 687 455.25 642.75L455.25 73.5C455.25 29.25 427 0 384.75 0L70.5 0C28.25 0 0 29.25 0 73.5L0 642.75C0 687 28.25 716.5 70.5 716.5ZM72.25 672C55.5 672 44.25 660.5 44.25 642.75L44.25 73.75C44.25 56 55.5 44.25 72.25 44.25L383 44.25C399.75 44.25 411 56 411 73.75L411 642.75C411 660.5 399.75 672 383 672ZM106 188.25C114.5 188.25 120.5 182.25 120.5 173.75L120.5 100.5C120.5 92 114.5 86 106 86C97.25 86 91.25 92 91.25 100.5L91.25 173.75C91.25 182.25 97.25 188.25 106 188.25ZM32 276.5L423.75 276.5L423.75 239.75L32 239.75ZM106 412.5C114.5 412.5 120.5 406.5 120.5 398L120.5 324.75C120.5 316.25 114.5 310.25 106 310.25C97.25 310.25 91.25 316.25 91.25 324.75L91.25 398C91.25 406.5 97.25 412.5 106 412.5ZM32 621.75L423.75 621.75L423.75 585L32 585Z" fill="black" fill-opacity="0.85"/>
 </g>
</svg>
