<?xml version="1.0" encoding="UTF-8"?>
<!--Generator: Apple Native CoreSVG 326-->
<!DOCTYPE svg
PUBLIC "-//W3C//DTD SVG 1.1//EN"
       "http://www.w3.org/Graphics/SVG/1.1/DTD/svg11.dtd">
<svg version="1.1" xmlns="http://www.w3.org/2000/svg" xmlns:xlink="http://www.w3.org/1999/xlink" viewBox="0 0 673.75 656.75">
 <g>
  <rect height="656.75" opacity="0" width="673.75" x="0" y="0"/>
  <path d="M105 246.25L629.5 246.25C642.5 246.25 651.5 237.5 651.5 225L651.5 102.5C651.5 90 642.5 81.25 629.5 81.25L105 81.25C92.25 81.25 83 90 83 102.5L83 225C83 237.5 92.25 246.25 105 246.25ZM105 451.5L629.5 451.5C642.5 451.5 651.5 442.5 651.5 430L651.5 307.5C651.5 295.25 642.5 286.25 629.5 286.25L105 286.25C92.25 286.25 83 295.25 83 307.5L83 430C83 442.5 92.25 451.5 105 451.5ZM105 656.5L629.5 656.5C642.5 656.5 651.5 647.5 651.5 635L651.5 512.5C651.5 500.25 642.5 491.25 629.5 491.25L105 491.25C92.25 491.25 83 500.25 83 512.5L83 635C83 647.5 92.25 656.5 105 656.5Z" fill="black" fill-opacity="0.85"/>
  <path d="M1.75 22.25C1.75 34.25 11.75 44.25 23.75 44.25L651.5 44.25C663.75 44.25 673.75 34.25 673.75 22.25C673.75 10 663.75 0 651.5 0L23.75 0C11.75 0 1.75 10 1.75 22.25ZM23.75 120C35 120 43.75 110.75 43.75 100C43.75 89 35 80 23.75 80C12.75 80 4 89 4 100C4 110.75 12.75 120 23.75 120ZM23.75 195C35 195 43.75 186 43.75 175C43.75 164 35 155.25 23.75 155.25C12.75 155.25 4 164 4 175C4 186 12.75 195 23.75 195ZM23.75 270.25C35 270.25 43.75 261.25 43.75 250.25C43.75 239.25 35 230.5 23.75 230.5C12.75 230.5 4 239.25 4 250.25C4 261.25 12.75 270.25 23.75 270.25ZM23.75 430.75C35.75 430.75 46 420.75 46 408.75L46 327.5C46 315.5 36 305.5 23.75 305.5C11.75 305.5 1.75 315.5 1.75 327.5L1.75 408.75C1.75 420.75 12 430.75 23.75 430.75Z" fill="black" fill-opacity="0.85"/>
 </g>
</svg>
