<?xml version="1.0" encoding="UTF-8"?>
<!--Generator: Apple Native CoreSVG 326-->
<!DOCTYPE svg
PUBLIC "-//W3C//DTD SVG 1.1//EN"
       "http://www.w3.org/Graphics/SVG/1.1/DTD/svg11.dtd">
<svg version="1.1" xmlns="http://www.w3.org/2000/svg" xmlns:xlink="http://www.w3.org/1999/xlink" viewBox="0 0 768.5 640.75">
 <g>
  <rect height="640.75" opacity="0" width="768.5" x="0" y="0"/>
  <path d="M768.5 384.25C768.5 290 734.5 203.75 678 136.75C671.5 129 660.5 129.25 653.25 136.5L581 208.75C574.75 215 574.5 223.75 580 230.75C613.25 273.25 633 326.25 633 384.25C633 442.25 613.25 495.5 578.5 539.5C573.75 545.5 574 553 579.25 558.25L653.25 632.5C660.5 640 671.25 639.75 678 632C734.5 565 768.5 478.25 768.5 384.25Z" fill="black" fill-opacity="0.85"/>
  <path d="M384.25 135.25C442.25 135.25 495.75 155.25 538.25 189C545 194 553.25 193.5 559.5 187.25L632 114.75C639.5 107.5 639.25 96.75 631.5 90C564.75 34 478.25 0 384.25 0C290.25 0 203.75 34 137 90C129.25 96.75 129 107.5 136.25 114.75L209 187.25C215 193.5 224 193.75 231 188.25C273.25 155.25 326.5 135.25 384.25 135.25Z" fill="black" fill-opacity="0.85"/>
  <path d="M0 384.25C0 478.25 34 565 90.5 632C97 639.75 108 640 115.25 632.5L189.25 558.25C194.25 553 194.75 545.5 190 539.5C155.25 495.5 135.25 442.25 135.25 384.25C135.25 326.25 155 273.25 188.5 230.75C193.75 223.75 193.75 215 187.5 208.75L115 136.5C107.75 129.25 97 129 90.25 136.75C33.75 203.75 0 290 0 384.25Z" fill="black" fill-opacity="0.85"/>
  <path d="M328.75 534.25C339.25 534.25 345.5 527.5 345.5 517L345.5 482.5L423.5 482.5C429.25 482.5 433 478.75 433 472.5C433 466.75 429.25 463 423.5 463L345.5 463L345.5 420.5L404.5 420.5C462.75 420.5 496.75 382.25 496.75 333.25C496.75 282.75 461.5 245.75 405 245.75L329 245.75C319 245.75 312.25 253 312.25 263.25L312.25 400.75L278.5 400.75C272.5 400.75 268.75 404.75 268.75 410.75C268.75 416.75 272.5 420.5 278.5 420.5L312.25 420.5L312.25 463L278.5 463C272.5 463 268.75 466.75 268.75 472.5C268.75 478.75 272.5 482.5 278.5 482.5L312.25 482.5L312.25 517C312.25 527.5 318.5 534.25 328.75 534.25ZM345.5 392.5L345.5 274.5L396.5 274.5C442 274.5 462.5 299.5 462.5 333.25C462.5 371.25 437.5 392.5 396.5 392.5Z" fill="black" fill-opacity="0.85"/>
 </g>
</svg>
