<?xml version="1.0" encoding="UTF-8"?>
<!--Generator: Apple Native CoreSVG 326-->
<!DOCTYPE svg
PUBLIC "-//W3C//DTD SVG 1.1//EN"
       "http://www.w3.org/Graphics/SVG/1.1/DTD/svg11.dtd">
<svg version="1.1" xmlns="http://www.w3.org/2000/svg" xmlns:xlink="http://www.w3.org/1999/xlink" viewBox="0 0 768.5 637.929">
 <g>
  <rect height="637.929" opacity="0" width="768.5" x="0" y="0"/>
  <path d="M768.5 382.839C768.5 181.589 613.75 16.5894 417.25 0.089388C407-0.910612 399 6.58939 399 17.0894L399 119.339C399 127.839 405.25 134.589 414 135.339C537.25 150.339 633 255.339 633 382.839C633 440.839 613.25 494.089 578.25 538.089C573.5 544.089 573.75 551.589 579 556.839L653.25 631.089C660.75 638.339 671.5 638.339 678 630.339C734.5 563.339 768.5 476.839 768.5 382.839Z" fill="black" fill-opacity="0.85"/>
  <path d="M0 382.839C0 477.089 34 563.839 90.75 630.839C97 638.339 107.5 638.339 115 631.089L189.25 556.839C194.5 551.589 194.75 544.089 190 538.089C155 494.089 135.25 440.839 135.25 382.839C135.25 255.339 231.25 150.339 354.25 135.339C363.25 134.589 369.25 127.839 369.25 119.339L369.25 17.0894C369.25 6.58939 361.5-0.910612 351.25 0.089388C154.5 16.5894 0 181.589 0 382.839Z" fill="black" fill-opacity="0.85"/>
  <path d="M328.75 532.839C339.25 532.839 345.5 526.089 345.5 515.589L345.5 481.089L423.5 481.089C429.25 481.089 433 477.339 433 471.089C433 465.339 429.25 461.589 423.5 461.589L345.5 461.589L345.5 419.089L404.5 419.089C462.75 419.089 496.75 380.839 496.75 331.839C496.75 281.339 461.5 244.339 405 244.339L329 244.339C319 244.339 312.25 251.589 312.25 261.839L312.25 399.339L278.5 399.339C272.5 399.339 268.75 403.339 268.75 409.339C268.75 415.339 272.5 419.089 278.5 419.089L312.25 419.089L312.25 461.589L278.5 461.589C272.5 461.589 268.75 465.339 268.75 471.089C268.75 477.339 272.5 481.089 278.5 481.089L312.25 481.089L312.25 515.589C312.25 526.089 318.5 532.839 328.75 532.839ZM345.5 391.089L345.5 273.089L396.5 273.089C442 273.089 462.5 298.089 462.5 331.839C462.5 369.839 437.5 391.089 396.5 391.089Z" fill="black" fill-opacity="0.85"/>
 </g>
</svg>
