<?xml version="1.0" encoding="UTF-8"?>
<!--Generator: Apple Native CoreSVG 326-->
<!DOCTYPE svg
PUBLIC "-//W3C//DTD SVG 1.1//EN"
       "http://www.w3.org/Graphics/SVG/1.1/DTD/svg11.dtd">
<svg version="1.1" xmlns="http://www.w3.org/2000/svg" xmlns:xlink="http://www.w3.org/1999/xlink" viewBox="0 0 768.5 637.929">
 <g>
  <rect height="637.929" opacity="0" width="768.5" x="0" y="0"/>
  <path d="M768.5 382.839C768.5 181.589 613.75 16.5894 417.25 0.089388C407-0.910612 399 6.58939 399 17.0894L399 119.339C399 127.839 405.25 134.589 414 135.339C537.25 150.339 633 255.339 633 382.839C633 440.839 613.25 494.089 578.25 538.089C573.5 544.089 573.75 551.589 579 556.839L653.25 631.089C660.75 638.339 671.5 638.339 678 630.339C734.5 563.339 768.5 476.839 768.5 382.839Z" fill="black" fill-opacity="0.85"/>
  <path d="M0 382.839C0 477.089 34 563.839 90.75 630.839C97 638.339 107.5 638.339 115 631.089L189.25 556.839C194.5 551.589 194.75 544.089 190 538.089C155 494.089 135.25 440.839 135.25 382.839C135.25 255.339 231.25 150.339 354.25 135.339C363.25 134.589 369.25 127.839 369.25 119.339L369.25 17.0894C369.25 6.58939 361.5-0.910612 351.25 0.089388C154.5 16.5894 0 181.589 0 382.839Z" fill="black" fill-opacity="0.85"/>
  <path d="M257.75 520.589C268 520.589 274 513.839 274 503.589L274 411.089L316.75 411.089L358.75 508.839C362 516.589 366.75 520.589 374.75 520.589C384 520.589 391 514.839 391 505.339C391 501.339 389.5 497.839 387.5 493.339L348.5 403.839C377.75 391.839 391.25 363.839 391.25 332.839C391.25 288.839 365.5 255.839 313.75 255.839L257.5 255.839C247.5 255.839 241.5 262.339 241.5 272.589L241.5 503.589C241.5 513.839 247.5 520.589 257.75 520.589ZM274 384.589L274 283.089L310.5 283.089C341.25 283.089 358.5 302.839 358.5 333.589C358.5 364.089 342.25 384.589 310.75 384.589ZM487.75 520.839C525 520.839 555.5 499.339 555.5 461.839C555.5 431.589 537.25 417.589 506.5 409.089L481 402.089C465.25 397.839 452.5 389.339 452.5 372.839C452.5 353.839 467.75 341.589 486.75 341.589C507 341.589 519 353.339 525.75 369.339C527.5 373.839 531.75 377.089 537 377.089C546 377.089 549.25 371.589 549.25 365.339C549.25 363.339 548.75 360.339 548 357.589C541.75 334.839 518 317.589 487.75 317.589C447.25 317.589 422 341.089 422 374.339C422 404.339 441.5 419.839 470.25 427.339L496 434.339C513 438.839 524.5 448.339 524.5 465.089C524.5 484.339 510 496.839 489 496.839C467 496.839 454.5 488.339 444.75 468.339C441.25 461.589 436.25 459.089 431.5 459.089C423.75 459.089 418.5 464.089 418.5 471.589C418.5 474.089 419.25 477.089 420.25 480.089C428.75 507.839 458.25 520.839 487.75 520.839Z" fill="black" fill-opacity="0.85"/>
 </g>
</svg>
