<?xml version="1.0" encoding="UTF-8"?>
<!--Generator: Apple Native CoreSVG 326-->
<!DOCTYPE svg
PUBLIC "-//W3C//DTD SVG 1.1//EN"
       "http://www.w3.org/Graphics/SVG/1.1/DTD/svg11.dtd">
<svg version="1.1" xmlns="http://www.w3.org/2000/svg" xmlns:xlink="http://www.w3.org/1999/xlink" viewBox="0 0 768.5 640.75">
 <g>
  <rect height="640.75" opacity="0" width="768.5" x="0" y="0"/>
  <path d="M768.5 384.25C768.5 290 734.5 203.75 678 136.75C671.5 129 660.5 129.25 653.25 136.5L581 208.75C574.75 215 574.5 223.75 580 230.75C613.25 273.25 633 326.25 633 384.25C633 442.25 613.25 495.5 578.5 539.5C573.75 545.5 574 553 579.25 558.25L653.25 632.5C660.5 640 671.25 639.75 678 632C734.5 565 768.5 478.25 768.5 384.25Z" fill="black" fill-opacity="0.85"/>
  <path d="M384.25 135.25C442.25 135.25 495.75 155.25 538.25 189C545 194 553.25 193.5 559.5 187.25L632 114.75C639.5 107.5 639.25 96.75 631.5 90C564.75 34 478.25 0 384.25 0C290.25 0 203.75 34 137 90C129.25 96.75 129 107.5 136.25 114.75L209 187.25C215 193.5 224 193.75 231 188.25C273.25 155.25 326.5 135.25 384.25 135.25Z" fill="black" fill-opacity="0.85"/>
  <path d="M0 384.25C0 478.25 34 565 90.5 632C97 639.75 108 640 115.25 632.5L189.25 558.25C194.25 553 194.75 545.5 190 539.5C155.25 495.5 135.25 442.25 135.25 384.25C135.25 326.25 155 273.25 188.5 230.75C193.75 223.75 193.75 215 187.5 208.75L115 136.5C107.75 129.25 97 129 90.25 136.75C33.75 203.75 0 290 0 384.25Z" fill="black" fill-opacity="0.85"/>
  <path d="M257.75 522C268 522 274 515.25 274 505L274 412.5L316.75 412.5L358.75 510.25C362 518 366.75 522 374.75 522C384 522 391 516.25 391 506.75C391 502.75 389.5 499.25 387.5 494.75L348.5 405.25C377.75 393.25 391.25 365.25 391.25 334.25C391.25 290.25 365.5 257.25 313.75 257.25L257.5 257.25C247.5 257.25 241.5 263.75 241.5 274L241.5 505C241.5 515.25 247.5 522 257.75 522ZM274 386L274 284.5L310.5 284.5C341.25 284.5 358.5 304.25 358.5 335C358.5 365.5 342.25 386 310.75 386ZM487.75 522.25C525 522.25 555.5 500.75 555.5 463.25C555.5 433 537.25 419 506.5 410.5L481 403.5C465.25 399.25 452.5 390.75 452.5 374.25C452.5 355.25 467.75 343 486.75 343C507 343 519 354.75 525.75 370.75C527.5 375.25 531.75 378.5 537 378.5C546 378.5 549.25 373 549.25 366.75C549.25 364.75 548.75 361.75 548 359C541.75 336.25 518 319 487.75 319C447.25 319 422 342.5 422 375.75C422 405.75 441.5 421.25 470.25 428.75L496 435.75C513 440.25 524.5 449.75 524.5 466.5C524.5 485.75 510 498.25 489 498.25C467 498.25 454.5 489.75 444.75 469.75C441.25 463 436.25 460.5 431.5 460.5C423.75 460.5 418.5 465.5 418.5 473C418.5 475.5 419.25 478.5 420.25 481.5C428.75 509.25 458.25 522.25 487.75 522.25Z" fill="black" fill-opacity="0.85"/>
 </g>
</svg>
