<?xml version="1.0" encoding="UTF-8"?>
<!--Generator: Apple Native CoreSVG 326-->
<!DOCTYPE svg
PUBLIC "-//W3C//DTD SVG 1.1//EN"
       "http://www.w3.org/Graphics/SVG/1.1/DTD/svg11.dtd">
<svg version="1.1" xmlns="http://www.w3.org/2000/svg" xmlns:xlink="http://www.w3.org/1999/xlink" viewBox="0 0 766.75 551.75">
 <g>
  <rect height="551.75" opacity="0" width="766.75" x="0" y="0"/>
  <path d="M676.5 354C683.75 362.75 697.25 363 706.25 353C745.25 309 766.75 252.25 766.75 190C766.75 127.5 745.25 71 706.25 27C697.5 17.25 684.75 17.25 677.5 25C669.25 33.5 670.5 44.75 679.25 54.75C711.75 91.75 728.5 138.75 728.5 190C728.5 241.25 711.75 288.25 679.25 325C670.75 335 669.25 345.5 676.5 354Z" fill="black" fill-opacity="0.85"/>
  <path d="M603.5 286C611 294.5 625 294.75 633.5 283.5C653.5 257.5 665.5 225 665.5 190C665.5 154.75 653.5 122.5 633.5 96.25C625.25 85.25 611.5 85.5 604 93.5C596 101.75 598.25 112.25 605.5 122.25C620.25 143.25 627.25 165.75 627.25 190C627.25 214.25 620.25 236.75 605.5 257.5C598.5 267.25 595.75 277.75 603.5 286Z" fill="black" fill-opacity="0.85"/>
  <path d="M97.25 551.5L442.25 551.5C507 551.5 539.5 518.75 539.5 455.25L539.5 96.25C539.5 32.5 507 0 442.25 0L97.25 0C32.75 0 0 32.25 0 96.25L0 455.25C0 519 32.75 551.5 97.25 551.5ZM98.25 507.25C63.25 507.25 44.25 488.75 44.25 452.75L44.25 98.5C44.25 62.75 63.25 44.25 98.25 44.25L441.25 44.25C475.5 44.25 495.25 62.75 495.25 98.5L495.25 452.75C495.25 488.75 475.5 507.25 441.25 507.25ZM262.25 283.25C271.75 283.25 279.25 275.75 279.25 266.25L279.25 114.5C279.25 104.75 271.75 97.25 262.25 97.25C252.5 97.25 245 104.75 245 114.5L245 266.25C245 275.75 252.5 283.25 262.25 283.25ZM340.75 283.25C350.25 283.25 357.75 275.75 357.75 266.25L357.75 114.5C357.75 104.75 350.25 97.25 340.75 97.25C331 97.25 323.5 104.75 323.5 114.5L323.5 266.25C323.5 275.75 331 283.25 340.75 283.25ZM419.25 283.25C428.75 283.25 436.25 275.75 436.25 266.25L436.25 114.5C436.25 104.75 428.75 97.25 419.25 97.25C409.5 97.25 402 104.75 402 114.5L402 266.25C402 275.75 409.5 283.25 419.25 283.25Z" fill="black" fill-opacity="0.85"/>
 </g>
</svg>
