<?xml version="1.0" encoding="UTF-8"?>
<!--Generator: Apple Native CoreSVG 326-->
<!DOCTYPE svg
PUBLIC "-//W3C//DTD SVG 1.1//EN"
       "http://www.w3.org/Graphics/SVG/1.1/DTD/svg11.dtd">
<svg version="1.1" xmlns="http://www.w3.org/2000/svg" xmlns:xlink="http://www.w3.org/1999/xlink" viewBox="0 0 957 547.75">
 <g>
  <rect height="547.75" opacity="0" width="957" x="0" y="0"/>
  <path d="M196.75 286L460.5 286L460.5 68C460.5 27 434.25 0 395.25 0L153.75 0C115 0 88.75 27 88.75 68L88.75 124.75L99.5 124.75C156 124.75 196.75 165.5 196.75 222.25ZM496.5 286L760.25 286L760.25 222.25C760.25 165.5 801 124.75 857.5 124.75L868 124.75L868 68C868 27 842 0 803 0L561.5 0C522.75 0 496.5 27 496.5 68ZM0 418C0 455.5 25 480.5 62.5 480.5L894.5 480.5C931.75 480.5 957 455.5 957 418L957 222.25C957 184.75 931.75 159.75 894.5 159.75L857.5 159.75C820.25 159.75 795 184.75 795 222.25L795 321L161.75 321L161.75 222.25C161.75 184.75 136.75 159.75 99.5 159.75L62.5 159.75C25 159.75 0 184.75 0 222.25ZM107.75 547.25L126.5 547.25C142.75 547.25 153 537.25 153 520.75L153 457.25L81.25 457.25L81.25 520.75C81.25 537.25 91.25 547.25 107.75 547.25ZM830.5 547.25L849.25 547.25C865.75 547.25 875.5 537.25 875.5 520.75L875.5 457.25L804 457.25L804 520.75C804 537.25 814.25 547.25 830.5 547.25Z" fill="black" fill-opacity="0.85"/>
 </g>
</svg>
