<?xml version="1.0" encoding="UTF-8"?>
<!--Generator: Apple Native CoreSVG 326-->
<!DOCTYPE svg
PUBLIC "-//W3C//DTD SVG 1.1//EN"
       "http://www.w3.org/Graphics/SVG/1.1/DTD/svg11.dtd">
<svg version="1.1" xmlns="http://www.w3.org/2000/svg" xmlns:xlink="http://www.w3.org/1999/xlink" viewBox="0 0 558.75 636.25">
 <g>
  <rect height="636.25" opacity="0" width="558.75" x="0" y="0"/>
  <path d="M21.5 279.75C33.25 279.75 43 270.25 43 258.25C43 246.5 33.25 236.75 21.5 236.75C9.75 236.75 0 246.5 0 258.25C0 270.25 9.75 279.75 21.5 279.75ZM89 97.25C101 97.25 110.75 87.75 110.75 75.75C110.75 64 101 54.25 89 54.25C77.25 54.25 67.5 64 67.5 75.75C67.5 87.75 77.25 97.25 89 97.25ZM279.25 43.25C291.25 43.25 300.75 33.5 300.75 21.75C300.75 9.75 291.25 0 279.25 0C267.5 0 257.75 9.75 257.75 21.75C257.75 33.5 267.5 43.25 279.25 43.25ZM469.5 97.25C481.5 97.25 491 87.75 491 75.75C491 64 481.5 54.25 469.5 54.25C457.75 54.25 448 64 448 75.75C448 87.75 457.75 97.25 469.5 97.25ZM537.25 279.75C549 279.75 558.75 270.25 558.75 258.25C558.75 246.5 549 236.75 537.25 236.75C525.25 236.75 515.5 246.5 515.5 258.25C515.5 270.25 525.25 279.75 537.25 279.75Z" fill="black" fill-opacity="0.85"/>
  <path d="M115.75 279.75C127.5 279.75 137.25 270.25 137.25 258.25C137.25 246.5 127.5 236.75 115.75 236.75C104 236.75 94.25 246.5 94.25 258.25C94.25 270.25 104 279.75 115.75 279.75ZM155.75 164C167.5 164 177.25 154.25 177.25 142.5C177.25 130.75 167.5 121 155.75 121C144 121 134.25 130.75 134.25 142.5C134.25 154.25 144 164 155.75 164ZM279.25 137.5C291.25 137.5 300.75 127.75 300.75 115.75C300.75 104 291.25 94.25 279.25 94.25C267.5 94.25 257.75 104 257.75 115.75C257.75 127.75 267.5 137.5 279.25 137.5ZM402.75 164C414.75 164 424.5 154.25 424.5 142.5C424.5 130.75 414.75 121 402.75 121C391 121 381.25 130.75 381.25 142.5C381.25 154.25 391 164 402.75 164ZM443 279.75C454.75 279.75 464.5 270.25 464.5 258.25C464.5 246.5 454.75 236.75 443 236.75C431 236.75 421.5 246.5 421.5 258.25C421.5 270.25 431 279.75 443 279.75Z" fill="black" fill-opacity="0.85"/>
  <path d="M220 301.75L338.5 301.75C358 301.75 372 288.25 372 268.5L372 244.75C372 212.25 348.25 189.25 313.75 189.25L244.5 189.25C210.25 189.25 186.75 212.25 186.75 244.75L186.75 268.5C186.75 288.25 200.5 301.75 220 301.75ZM231.25 266.75C226.25 266.75 223.25 263.5 223.25 258.25L223.25 244.75C223.25 231.25 231 224.5 245.75 224.5L312.5 224.5C327.75 224.5 335.5 231.25 335.5 244.75L335.5 258.25C335.5 263.5 332.25 266.75 327.25 266.75ZM220 453.5L338.5 453.5C358 453.5 372 439.75 372 420L372 372.25C372 352.5 358 339 338.5 339L220 339C200.5 339 186.75 352.5 186.75 372.25L186.75 420C186.75 439.75 200.5 453.5 220 453.5ZM230.25 418C225.25 418 222 415 222 409.75L222 382.5C222 377.25 225.25 374.25 230.25 374.25L328.5 374.25C333.5 374.25 336.75 377.25 336.75 382.5L336.75 409.75C336.75 415 333.5 418 328.5 418ZM228.75 362L266.25 362L266.25 282.75L228.75 282.75ZM292.5 362L330 362L330 282.75L292.5 282.75ZM223.75 592.75L261.25 592.75L261.25 438L223.75 438ZM297.5 592.75L335 592.75L335 438L297.5 438ZM26.25 615.75L532.25 615.75C544 615.75 554.25 605.5 554.25 593.75C554.25 581.5 544 572 532.25 572L26.25 572C14.75 572 4.5 581.5 4.5 593.75C4.5 605.5 14.75 615.75 26.25 615.75Z" fill="black" fill-opacity="0.85"/>
 </g>
</svg>
