<?xml version="1.0" encoding="UTF-8"?>
<!--Generator: Apple Native CoreSVG 326-->
<!DOCTYPE svg
PUBLIC "-//W3C//DTD SVG 1.1//EN"
       "http://www.w3.org/Graphics/SVG/1.1/DTD/svg11.dtd">
<svg version="1.1" xmlns="http://www.w3.org/2000/svg" xmlns:xlink="http://www.w3.org/1999/xlink" viewBox="0 0 613.75 614.25">
 <g>
  <rect height="614.25" opacity="0" width="613.75" x="0" y="0"/>
  <path d="M22 613.75C34.25 613.75 44.25 603.75 44.25 591.75L44.25 479L161.5 479C177.5 479 189.25 467.5 189.25 451.75L189.25 334.25L306.5 334.25C322.5 334.25 334.25 322.5 334.25 306.75L334.25 189.25L451.5 189.25C467.25 189.25 479 177.5 479 161.75L479 44.25L591.5 44.25C603.75 44.25 613.75 34.5 613.75 22.25C613.75 10 603.75 0 591.5 0L462.25 0C446.5 0 434.75 11.75 434.75 27.75L434.75 145L317.25 145C301.5 145 289.75 156.75 289.75 172.75L289.75 289.75L172.25 289.75C156.5 289.75 145 301.75 145 317.5L145 434.75L27.5 434.75C11.5 434.75 0 446.5 0 462.5L0 591.75C0 603.75 9.75 613.75 22 613.75Z" fill="black" fill-opacity="0.85"/>
 </g>
</svg>
