<?xml version="1.0" encoding="UTF-8"?>
<!--Generator: Apple Native CoreSVG 326-->
<!DOCTYPE svg
PUBLIC "-//W3C//DTD SVG 1.1//EN"
       "http://www.w3.org/Graphics/SVG/1.1/DTD/svg11.dtd">
<svg version="1.1" xmlns="http://www.w3.org/2000/svg" xmlns:xlink="http://www.w3.org/1999/xlink" viewBox="0 0 768.5 640.75">
 <g>
  <rect height="640.75" opacity="0" width="768.5" x="0" y="0"/>
  <path d="M768.5 384.25C768.5 290 734.5 203.75 678 136.75C671.5 129 660.5 129.25 653.25 136.5L581 208.75C574.75 215 574.5 223.75 580 230.75C613.25 273.25 633 326.25 633 384.25C633 442.25 613.25 495.5 578.5 539.5C573.75 545.5 574 553 579.25 558.25L653.25 632.5C660.5 640 671.25 639.75 678 632C734.5 565 768.5 478.25 768.5 384.25Z" fill="black" fill-opacity="0.85"/>
  <path d="M384.25 135.25C442.25 135.25 495.75 155.25 538.25 189C545 194 553.25 193.5 559.5 187.25L632 114.75C639.5 107.5 639.25 96.75 631.5 90C564.75 34 478.25 0 384.25 0C290.25 0 203.75 34 137 90C129.25 96.75 129 107.5 136.25 114.75L209 187.25C215 193.5 224 193.75 231 188.25C273.25 155.25 326.5 135.25 384.25 135.25Z" fill="black" fill-opacity="0.85"/>
  <path d="M0 384.25C0 478.25 34 565 90.5 632C97 639.75 108 640 115.25 632.5L189.25 558.25C194.25 553 194.75 545.5 190 539.5C155.25 495.5 135.25 442.25 135.25 384.25C135.25 326.25 155 273.25 188.5 230.75C193.75 223.75 193.75 215 187.5 208.75L115 136.5C107.75 129.25 97 129 90.25 136.75C33.75 203.75 0 290 0 384.25Z" fill="black" fill-opacity="0.85"/>
  <path d="M281.5 528.25L472.75 528.25C481.25 528.25 488 522.5 488 514.25C488 506 481.25 500 472.75 500L320.5 500L320.5 498.5C346.75 489.75 359.5 459.25 359.5 431.25C359.5 419 358.25 408.75 355.75 399.5L440 399.5C447.5 399.5 452.75 394.5 452.75 387.75C452.75 381.25 447.25 376.25 440 376.25L349.25 376.25C344.75 358.25 343 347.5 343 334C343 297.5 370 274.5 413 274.5C427.75 274.5 438.5 276.5 448 279.25C453.25 280.5 458 281.75 461.75 281.75C470 281.75 474.5 277.25 474.5 269.25C474.5 261.75 469.25 257.25 461.5 254.25C444.75 247.75 430.75 245.75 409.75 245.75C349.25 245.75 308.5 279 308.5 335C308.5 348.5 310.75 361 315.25 376.25L280.5 376.25C273.25 376.25 267.75 381.25 267.75 387.75C267.75 394.5 273.25 399.5 280.5 399.5L321.75 399.5C324.75 411 326.75 422 326.75 432.5C326.75 464 309.75 487.25 280 497.25C272 500 266.75 505.5 266.75 513.75C266.75 522.25 272.75 528.25 281.5 528.25Z" fill="black" fill-opacity="0.85"/>
 </g>
</svg>
