<?xml version="1.0" encoding="UTF-8"?>
<!--Generator: Apple Native CoreSVG 326-->
<!DOCTYPE svg
PUBLIC "-//W3C//DTD SVG 1.1//EN"
       "http://www.w3.org/Graphics/SVG/1.1/DTD/svg11.dtd">
<svg version="1.1" xmlns="http://www.w3.org/2000/svg" xmlns:xlink="http://www.w3.org/1999/xlink" viewBox="0 0 587.75 587.75">
 <g>
  <rect height="587.75" opacity="0" width="587.75" x="0" y="0"/>
  <path d="M587.75 96.5L587.75 491.5C587.75 555 555 587.75 490.25 587.75L97.25 587.75C32.75 587.75 0 555.5 0 491.5L0 96.5C0 32.5 32.75 0 97.25 0L490.25 0C555 0 587.75 32.75 587.75 96.5ZM206 123.5C192.5 123.5 183 133 183 146.5L183 441.5C183 455 192.5 464.75 206 464.75L381.5 464.75C395 464.75 404.75 455 404.75 441.5L404.75 146.5C404.75 133 395 123.5 381.5 123.5ZM370 335L370 419.25C370 425.75 365.75 430 359.5 430L228 430C222 430 217.75 425.75 217.75 419.25L217.75 335C217.75 328.5 222 324.25 228 324.25L359.5 324.25C365.75 324.25 370 328.5 370 335ZM370 169L370 253.25C370 259.75 365.75 264 359.5 264L228 264C222 264 217.75 259.75 217.75 253.25L217.75 169C217.75 162.5 222 158.25 228 158.25L359.5 158.25C365.75 158.25 370 162.5 370 169Z" fill="black" fill-opacity="0.85"/>
 </g>
</svg>
