<?xml version="1.0" encoding="UTF-8"?>
<!--Generator: Apple Native CoreSVG 326-->
<!DOCTYPE svg
PUBLIC "-//W3C//DTD SVG 1.1//EN"
       "http://www.w3.org/Graphics/SVG/1.1/DTD/svg11.dtd">
<svg version="1.1" xmlns="http://www.w3.org/2000/svg" xmlns:xlink="http://www.w3.org/1999/xlink" viewBox="0 0 651.25 651.75">
 <g>
  <rect height="651.75" opacity="0" width="651.25" x="0" y="0"/>
  <path d="M325.5 651.25C505.25 651.25 651.25 505.5 651.25 325.75C651.25 146 505.25 0 325.5 0C145.75 0 0 146 0 325.75C0 505.5 145.75 651.25 325.5 651.25ZM325.5 604.75C171.25 604.75 46.5 480 46.5 325.75C46.5 171.5 171.25 46.75 325.5 46.75C479.75 46.75 604.5 171.5 604.5 325.75C604.5 480 479.75 604.75 325.5 604.75Z" fill="black" fill-opacity="0.85"/>
  <path d="M219 154.25L432 154.25C439 154.25 444.75 148.5 444.75 141.5C444.75 134.5 439 128.75 432 128.75L219 128.75C212 128.75 206.25 134.5 206.25 141.5C206.25 148.5 212 154.25 219 154.25ZM325.75 255C365 255 399.25 260.25 423.5 270.5L430.75 173.25L220.25 173.25L227.75 270.5C252.25 260.5 286.5 255 325.75 255ZM325.75 361.75C396 361.75 445.75 343.5 445.75 317.75C445.75 292 395.25 274 325.75 274C256 274 205.25 292 205.25 317.75C205.25 343.5 256 361.75 325.75 361.75ZM325.75 335.25C274.25 335.25 241.75 327.5 241.75 317.75C241.75 308 274.25 300.25 325.75 300.25C377 300.25 409.25 308 409.25 317.75C409.25 327.5 377 335.25 325.75 335.25ZM320.5 440L330.5 440C387.5 440 431.25 408.25 442.75 354C419 370.75 377.25 380.25 325.75 380.25C274.75 380.25 232.25 370.75 208.25 353.75C219.5 408.25 263.5 440 320.5 440ZM325.5 544.5C354.75 544.5 390.5 536.75 405.75 522.25C410.5 517.5 410.5 512 408.75 505.25L391.25 446.25C373 454.75 351.75 459 330.5 459L320 459C299 459 278 454.75 259.75 446.75L242.25 505.25C240.5 512 240.5 517.5 245.25 522.25C260.5 536.75 296.25 544.5 325.5 544.5Z" fill="black" fill-opacity="0.85"/>
 </g>
</svg>
