<?xml version="1.0" encoding="UTF-8"?>
<!--Generator: Apple Native CoreSVG 326-->
<!DOCTYPE svg
PUBLIC "-//W3C//DTD SVG 1.1//EN"
       "http://www.w3.org/Graphics/SVG/1.1/DTD/svg11.dtd">
<svg version="1.1" xmlns="http://www.w3.org/2000/svg" xmlns:xlink="http://www.w3.org/1999/xlink" viewBox="0 0 651.25 651.75">
 <g>
  <rect height="651.75" opacity="0" width="651.25" x="0" y="0"/>
  <path d="M651.25 326C651.25 505.5 505 651.75 325.5 651.75C146.25 651.75 0 505.5 0 326C0 146.75 146.25 0.5 325.5 0.5C505 0.5 651.25 146.75 651.25 326ZM331 462.25L320 462.25C298.5 462.25 277 458 258.5 450L240.5 509.75C238.5 516.5 238.75 522.25 243.25 527C259.25 542 296 549.75 325.75 549.75C355.5 549.75 392.25 542 408 527C412.75 522.25 412.75 516.5 411 509.75L393 449.5C374.5 458 352.75 462.25 331 462.25ZM320.5 442.75L331 442.75C389.25 442.75 434 410.25 445.75 355C421.5 372 378.75 381.5 326 381.5C273.5 381.5 230.25 372 205.75 354.75C217.25 410.25 262.25 442.75 320.5 442.75ZM202.75 317.5C202.75 344 254.75 362.5 326 362.5C397.75 362.5 448.75 344 448.75 317.5C448.75 291.25 397 272.75 326 272.75C254.75 272.75 202.75 291.25 202.75 317.5ZM411.25 317.5C411.25 327.75 378.25 335.75 326 335.75C273.5 335.75 240.25 327.75 240.25 317.5C240.25 307.5 273.5 300 326 300C378.25 300 411.25 307.5 411.25 317.5ZM218 169.75L225.75 269.25C250.75 259 285.75 253.25 326 253.25C366.25 253.25 401.25 259 426 269.25L433.5 169.75ZM216.75 124.25C209.5 124.25 203.5 130.25 203.5 137.25C203.5 144.75 209.5 150.25 216.75 150.25L434.75 150.25C442 150.25 448 144.75 448 137.25C448 130.25 442 124.25 434.75 124.25Z" fill="black" fill-opacity="0.85"/>
 </g>
</svg>
