<?xml version="1.0" encoding="UTF-8"?>
<!--Generator: Apple Native CoreSVG 326-->
<!DOCTYPE svg
PUBLIC "-//W3C//DTD SVG 1.1//EN"
       "http://www.w3.org/Graphics/SVG/1.1/DTD/svg11.dtd">
<svg version="1.1" xmlns="http://www.w3.org/2000/svg" xmlns:xlink="http://www.w3.org/1999/xlink" viewBox="0 0 768.5 640.75">
 <g>
  <rect height="640.75" opacity="0" width="768.5" x="0" y="0"/>
  <path d="M768.5 384.25C768.5 290 734.5 203.75 678 136.75C671.5 129 660.5 129.25 653.25 136.5L581 208.75C574.75 215 574.5 223.75 580 230.75C613.25 273.25 633 326.25 633 384.25C633 442.25 613.25 495.5 578.5 539.5C573.75 545.5 574 553 579.25 558.25L653.25 632.5C660.5 640 671.25 639.75 678 632C734.5 565 768.5 478.25 768.5 384.25Z" fill="black" fill-opacity="0.85"/>
  <path d="M384.25 135.25C442.25 135.25 495.75 155.25 538.25 189C545 194 553.25 193.5 559.5 187.25L632 114.75C639.5 107.5 639.25 96.75 631.5 90C564.75 34 478.25 0 384.25 0C290.25 0 203.75 34 137 90C129.25 96.75 129 107.5 136.25 114.75L209 187.25C215 193.5 224 193.75 231 188.25C273.25 155.25 326.5 135.25 384.25 135.25Z" fill="black" fill-opacity="0.85"/>
  <path d="M0 384.25C0 478.25 34 565 90.5 632C97 639.75 108 640 115.25 632.5L189.25 558.25C194.25 553 194.75 545.5 190 539.5C155.25 495.5 135.25 442.25 135.25 384.25C135.25 326.25 155 273.25 188.5 230.75C193.75 223.75 193.75 215 187.5 208.75L115 136.5C107.75 129.25 97 129 90.25 136.75C33.75 203.75 0 290 0 384.25Z" fill="black" fill-opacity="0.85"/>
  <path d="M345.5 527.25L349.25 527.25C388 527.25 426.5 513 451.75 488.75C472.75 467.75 488 439.25 488 411C488 401.75 483.25 395 472.75 395C463.25 395 458 400.75 457 410.5C454.5 432 445 451 431.25 465.25C412.25 485.25 384.75 495.5 357.25 495.5L357.25 390.75L425 362.75C430 360.75 432.5 357.5 432.5 353.5C432.5 347.5 428.5 343.5 422.75 343.5C421 343.5 419.25 344 417.5 345L357.25 369.75L357.25 328.5L425 300.5C430 298.75 432.5 295.25 432.5 290.5C432.5 286.5 430 281 423.25 281C421.25 281 419.5 281.75 417.5 282.5L357.25 307.5L357.25 259.75C357.25 249.5 350.5 242.5 340.5 242.5C330.5 242.5 323.5 249.5 323.5 259.75L323.5 321L282.5 338C277.75 339.75 275.75 343 275.75 347.5C275.75 352.75 279.75 357 285 357C286.5 357 288.5 356.75 290.75 355.75L323.5 342L323.5 383.5L282.5 400.25C277.75 402.25 275.75 405 275.75 409.75C275.75 415 279.75 419.25 285 419.25C286.5 419.25 289 418.75 291 418L323.5 404.5L323.5 506.25C323.5 519 332.75 527.25 345.5 527.25Z" fill="black" fill-opacity="0.85"/>
 </g>
</svg>
