<?xml version="1.0" encoding="UTF-8"?>
<!--Generator: Apple Native CoreSVG 326-->
<!DOCTYPE svg
PUBLIC "-//W3C//DTD SVG 1.1//EN"
       "http://www.w3.org/Graphics/SVG/1.1/DTD/svg11.dtd">
<svg version="1.1" xmlns="http://www.w3.org/2000/svg" xmlns:xlink="http://www.w3.org/1999/xlink" viewBox="0 0 411 720.75">
 <g>
  <rect height="720.75" opacity="0" width="411" x="0" y="0"/>
  <path d="M205.75 720.25C326.5 720.25 411 639.5 411 524.75L411 195.75C411 80.75 326.5 0 205.75 0C85 0 0 80.75 0 195.75L0 524.75C0 639.5 85 720.25 205.75 720.25ZM205.5 676C110.5 676 44 613.5 44 524.75L44 195.75C44 107 110.5 44.25 205.5 44.25C300.25 44.25 367 107 367 195.75L367 524.75C367 613.5 300.25 676 205.5 676Z" fill="black" fill-opacity="0.85"/>
  <path d="M205.75 330.5C270.75 330.5 322 279.25 322 214C322 148.5 270.75 97.25 205.75 97.25C140.25 97.25 89 148.5 89 214C89 279.25 140.25 330.5 205.75 330.5ZM205.75 257.25C181.25 257.25 162.25 238.25 162.25 214C162.25 189.25 181.25 170.5 205.75 170.5C229.75 170.5 248.75 189.25 248.75 214C248.75 238.25 229.75 257.25 205.75 257.25ZM205.75 621.5C270.75 621.5 322 570.25 322 504.75C322 439.5 270.75 388.25 205.75 388.25C140.25 388.25 89 439.5 89 504.75C89 570.25 140.25 621.5 205.75 621.5ZM205.75 584.75C160 584.75 125.75 550.5 125.75 504.75C125.75 459.25 160 425 205.75 425C251 425 285.25 459.25 285.25 504.75C285.25 550.5 251 584.75 205.75 584.75Z" fill="black" fill-opacity="0.85"/>
 </g>
</svg>
