<?xml version="1.0" encoding="UTF-8"?>
<!--Generator: Apple Native CoreSVG 326-->
<!DOCTYPE svg
PUBLIC "-//W3C//DTD SVG 1.1//EN"
       "http://www.w3.org/Graphics/SVG/1.1/DTD/svg11.dtd">
<svg version="1.1" xmlns="http://www.w3.org/2000/svg" xmlns:xlink="http://www.w3.org/1999/xlink" viewBox="0 0 651.25 651.75">
 <g>
  <rect height="651.75" opacity="0" width="651.25" x="0" y="0"/>
  <path d="M651.25 326C651.25 505.5 505 651.75 325.5 651.75C146.25 651.75 0 505.5 0 326C0 146.75 146.25 0.5 325.5 0.5C505 0.5 651.25 146.75 651.25 326ZM174.5 254.25L174.5 467.25C174.5 491.25 189.75 507.5 213 507.5L436 507.5C459.5 507.5 474.5 491.25 474.5 467.25L474.5 254.25ZM417.75 373.75C417.75 425 376 466.75 324.5 466.75C273 466.75 231.25 425 231.25 373.75C231.25 322.25 273 280.5 324.5 280.5C376 280.5 417.75 322.25 417.75 373.75ZM253.5 373.75C253.5 413.5 284.75 444.5 324.5 444.5C364.25 444.5 395.5 413.5 395.5 373.75C395.5 333.75 364.25 302.5 324.5 302.5C284.75 302.5 253.5 333.75 253.5 373.75ZM213 143.75C189.75 143.75 174.5 159.75 174.5 184L174.5 231.25L474.5 231.25L474.5 184C474.5 159.75 459.5 143.75 436 143.75ZM252 195C252 203.75 245 211 236 211C227.25 211 220 203.75 220 195C220 186 227.25 178.75 236 178.75C245 178.75 252 186 252 195ZM298.25 195C298.25 203.75 291.25 211 282.5 211C273.5 211 266.75 203.75 266.75 195C266.75 186 273.5 178.75 282.5 178.75C291.25 178.75 298.25 186 298.25 195ZM432.25 195C432.25 200.25 428.25 204.25 422.75 204.25L377.75 204.25C372.5 204.25 368.5 200.25 368.5 195C368.5 189.5 372.5 185.5 377.75 185.5L422.75 185.5C428.25 185.5 432.25 189.5 432.25 195Z" fill="black" fill-opacity="0.85"/>
 </g>
</svg>
