<?xml version="1.0" encoding="UTF-8"?>
<!--Generator: Apple Native CoreSVG 326-->
<!DOCTYPE svg
PUBLIC "-//W3C//DTD SVG 1.1//EN"
       "http://www.w3.org/Graphics/SVG/1.1/DTD/svg11.dtd">
<svg version="1.1" xmlns="http://www.w3.org/2000/svg" xmlns:xlink="http://www.w3.org/1999/xlink" viewBox="0 0 651.25 651.75">
 <g>
  <rect height="651.75" opacity="0" width="651.25" x="0" y="0"/>
  <path d="M325.5 651.25C505.25 651.25 651.25 505.5 651.25 325.75C651.25 146 505.25 0 325.5 0C145.75 0 0 146 0 325.75C0 505.5 145.75 651.25 325.5 651.25ZM325.5 604.75C171.25 604.75 46.5 480 46.5 325.75C46.5 171.5 171.25 46.75 325.5 46.75C479.75 46.75 604.5 171.5 604.5 325.75C604.5 480 479.75 604.75 325.5 604.75Z" fill="black" fill-opacity="0.85"/>
  <path d="M433.5 147.5L215.5 147.5C193 147.5 178 163.25 178 186.75L178 234L471 234L471 186.75C471 163.25 456 147.5 433.5 147.5ZM238 213.25C229.5 213.25 222.5 206.25 222.5 197.75C222.5 189 229.5 181.75 238 181.75C246.75 181.75 253.75 189 253.75 197.75C253.75 206.25 246.75 213.25 238 213.25ZM283.5 213.25C274.75 213.25 268 206.25 268 197.75C268 189 274.75 181.75 283.5 181.75C292 181.75 298.75 189 298.75 197.75C298.75 206.25 292 213.25 283.5 213.25ZM376.5 206.75C371.25 206.75 367.5 203 367.5 197.75C367.5 192.25 371.25 188.5 376.5 188.5L420.5 188.5C425.75 188.5 429.75 192.25 429.75 197.75C429.75 203 425.75 206.75 420.5 206.75ZM215.5 502.75L433.5 502.75C456 502.75 471 487 471 463.5L471 255.5L178 255.5L178 463.5C178 487 193 502.75 215.5 502.75ZM324.5 463C274.25 463 233.5 422 233.5 372C233.5 321.75 274.25 281 324.5 281C374.75 281 415.5 321.75 415.5 372C415.5 422 374.75 463 324.5 463ZM324.5 441.5C363.25 441.5 394 411 394 372C394 333.25 363.25 302.5 324.5 302.5C285.75 302.5 255 333.25 255 372C255 411 285.75 441.5 324.5 441.5Z" fill="black" fill-opacity="0.85"/>
 </g>
</svg>
