<?xml version="1.0" encoding="UTF-8"?>
<!--Generator: Apple Native CoreSVG 326-->
<!DOCTYPE svg
PUBLIC "-//W3C//DTD SVG 1.1//EN"
       "http://www.w3.org/Graphics/SVG/1.1/DTD/svg11.dtd">
<svg version="1.1" xmlns="http://www.w3.org/2000/svg" xmlns:xlink="http://www.w3.org/1999/xlink" viewBox="0 0 509.5 639.25">
 <g>
  <rect height="639.25" opacity="0" width="509.5" x="0" y="0"/>
  <path d="M255 509.75C395.5 509.75 509.5 395.75 509.5 254.75C509.5 114 395.5 0 255 0C114.25 0 0 114 0 254.75C0 395.75 114.25 509.75 255 509.75ZM255 465.5C136.75 465.5 44.25 373.25 44.25 254.75C44.25 136.75 136.75 44.25 255 44.25C372.75 44.25 465.25 136.75 465.25 254.75C465.25 373.25 372.75 465.5 255 465.5ZM232.75 616.75L277.25 616.75L277.25 489.5L232.75 489.5ZM144 638.75L365.75 638.75C378 638.75 388 628.75 388 616.75C388 604.5 378 594.5 365.75 594.5L144.25 594.5C132 594.5 122 604.5 122 616.75C122 628.75 132 638.75 144 638.75Z" fill="black" fill-opacity="0.85"/>
  <path d="M255 402.5C337.5 402.5 402 337.5 402 254.75C402 172.5 337.5 107.25 255 107.25C172.5 107.25 107.5 172.5 107.5 254.75C107.5 337.5 172.5 402.5 255 402.5ZM255 323.75C216.75 323.75 186.5 293.25 186.5 254.75C186.5 216.5 216.75 186.25 255 186.25C293.25 186.25 323.25 216.5 323.25 254.75C323.25 293.25 293.25 323.75 255 323.75Z" fill="black" fill-opacity="0.85"/>
 </g>
</svg>
