<?xml version="1.0" encoding="UTF-8"?>
<!--Generator: Apple Native CoreSVG 326-->
<!DOCTYPE svg
PUBLIC "-//W3C//DTD SVG 1.1//EN"
       "http://www.w3.org/Graphics/SVG/1.1/DTD/svg11.dtd">
<svg version="1.1" xmlns="http://www.w3.org/2000/svg" xmlns:xlink="http://www.w3.org/1999/xlink" viewBox="0 0 540.75 677.25">
 <g>
  <rect height="677.25" opacity="0" width="540.75" x="0" y="0"/>
  <path d="M0 618.5C0 653.25 24 676.75 60 676.75L481 676.75C517 676.75 540.75 653.25 540.75 618.5L540.75 58.5C540.75 23.5 517 0 481 0L60 0C24 0 0 23.5 0 58.5ZM44.5 615.25L44.5 61.5C44.5 51.25 51 44.5 60.75 44.5L480 44.5C489.75 44.5 496.5 51.25 496.5 61.5L496.5 615.25C496.5 625.5 489.75 632.5 480 632.5L60.75 632.5C51 632.5 44.5 625.5 44.5 615.25Z" fill="black" fill-opacity="0.85"/>
  <path d="M88.75 189L452.25 189C457.5 189 461.5 184.75 461.5 179.5L461.5 88.75C461.5 83.5 457.5 79.25 452.25 79.25L88.75 79.25C83.5 79.25 79.25 83.5 79.25 88.75L79.25 179.5C79.25 184.75 83.5 189 88.75 189ZM219.75 149C211 149 204.75 142.75 204.75 134C204.75 125.25 211 119.25 219.75 119.25L321.25 119.25C330 119.25 336 125.25 336 134C336 142.75 330 149 321.25 149Z" fill="black" fill-opacity="0.85"/>
 </g>
</svg>
