<?xml version="1.0" encoding="UTF-8"?>
<!--Generator: Apple Native CoreSVG 326-->
<!DOCTYPE svg
PUBLIC "-//W3C//DTD SVG 1.1//EN"
       "http://www.w3.org/Graphics/SVG/1.1/DTD/svg11.dtd">
<svg version="1.1" xmlns="http://www.w3.org/2000/svg" xmlns:xlink="http://www.w3.org/1999/xlink" viewBox="0 0 693.318 626.25">
 <g>
  <rect height="626.25" opacity="0" width="693.318" x="0" y="0"/>
  <path d="M57.7838 626.25L487.534 626.25C518.534 626.25 538.534 609 546.784 580.25L689.784 71.75C702.034 28.5 680.534 0.5 635.534 0.5L205.784 0.5C174.784 0.5 154.784 17.75 146.534 46.5L3.28377 554.75C-8.71623 598 12.7838 626.25 57.7838 626.25ZM47.2838 559.5L111.784 331.75L318.534 331.75L247.534 581.75L65.0338 581.75C49.7838 581.75 43.2838 573.75 47.2838 559.5ZM124.034 288L185.784 69C190.284 53.5 199.284 45 214.534 45L399.284 45L330.534 288ZM293.034 581.75L363.784 331.75L571.034 331.75L507.284 557.75C503.034 573 494.034 581.75 478.784 581.75ZM375.784 288L445.034 45L628.034 45C643.284 45 650.034 52.75 645.784 67.25L583.284 288Z" fill="black" fill-opacity="0.85"/>
 </g>
</svg>
