<?xml version="1.0" encoding="UTF-8"?>
<!--Generator: Apple Native CoreSVG 326-->
<!DOCTYPE svg
PUBLIC "-//W3C//DTD SVG 1.1//EN"
       "http://www.w3.org/Graphics/SVG/1.1/DTD/svg11.dtd">
<svg version="1.1" xmlns="http://www.w3.org/2000/svg" xmlns:xlink="http://www.w3.org/1999/xlink" viewBox="0 0 727.091 626.25">
 <g>
  <rect height="626.25" opacity="0" width="727.091" x="0" y="0"/>
  <path d="M10.2956 349C-13.9544 391 6.79559 433.5 52.7956 439L68.5456 439.25L35.7956 554.75C23.5456 598 45.0456 626.25 90.0456 626.25L519.796 626.25C549.296 626.25 570.796 609 579.046 580.25L723.296 82C736.546 35.75 714.546 0.5 666.046 0.5L251.046 0.5C210.296 0.5 199.046 15.5 181.046 47ZM52.5456 361.5L122.046 239L331.046 239L242.796 395.5L71.2956 395.5C49.0456 395.5 41.5456 381.25 52.5456 361.5ZM146.796 196L222.546 62.25C230.546 48.5 236.796 44.75 251.796 44.75L441.046 44.75L356.046 196ZM293.296 395.5L381.296 239L584.796 239L506.046 378C498.546 391.75 492.046 395.5 476.796 395.5ZM406.046 196L490.796 44.75L657.296 44.75C679.546 44.75 687.296 59 676.046 79L609.796 196ZM79.7956 559.5L113.546 439.75L477.546 439.75C518.546 439.75 529.546 424.75 547.546 393.5L632.046 242L539.796 557.75C535.296 573 524.796 581.75 511.296 581.75L97.5456 581.75C82.2956 581.75 75.5456 573.75 79.7956 559.5ZM511.296 609.5L550.796 589.75L474.796 412L434.046 429.25Z" fill="black" fill-opacity="0.85"/>
 </g>
</svg>
